v 21.5 5 8
v 17.750003800000002 5 8
v 22.75 5 8
v 15.2500038 5 8
v 22.125 5 8
v 20.875 5 8
v 17.125003800000002 5 8
v 23.375 5 8
v 15.8750038 5 8
v 18.375003800000002 5 8
v 19.625 5 8
v 14.6250038 5 8
v 20.25 5 8
v 19.000003800000002 5 8
v 16.500003800000002 5 8
v 14.3125038 5 8
v 19.9375 5 8
v 23.6875 5 8
v 20.5625 5 8
v 23.0625 5 8
v 19.312501900000001 5 8
v 14.9375038 5 8
v 14.0000038 0 8
v 14.0000038 2.5 8
v 14.0000038 -2.5 8
v 14.0000038 -3.75 8
v 14.0000038 1.25 8
v 14.0000038 3.75 8
v 14.0000038 -1.25 8
v 14.0000038 3.125 8
v 14.0000038 4.375 8
v 14.0000038 -3.125 8
v 14.0000038 -4.375 8
v 14.0000038 1.875 8
v 14.0000038 -1.875 8
v 14.0000038 0.625 8
v 14.0000038 -0.625 8
v 14.0000038 -4.6875 8
v 14.0000038 4.6875 8
v 14.0000038 -4.0625 8
v 24 0 8
v 24 -2.5 8
v 24 1.25 8
v 24 3.75 8
v 24 -3.75 8
v 24 -1.875 8
v 24 1.875 8
v 24 -3.125 8
v 24 3.125 8
v 24 -4.375 8
v 24 0.625 8
v 24 2.5 8
v 24 4.375 8
v 24 -1.25 8
v 24 -0.625 8
v 24 4.6875 8
v 24 -4.6875 8
v 15.874507899999999 0 6
v 15.874507899999999 2.5 6
v 15.874507899999999 1.25 6
v 15.874507899999999 3.75 6
v 15.874507899999999 -3.75 6
v 15.874507899999999 -1.25 6
v 15.874507899999999 1.875 6
v 15.874507899999999 -1.875 6
v 15.874507899999999 -0.625 6
v 15.874507899999999 0.625 6
v 15.874507899999999 3.125 6
v 15.874507899999999 -4.375 6
v 15.874507899999999 4.375 6
v 15.874507899999999 -3.125 6
v 15.874507899999999 -2.5 6
v 15.874507899999999 -4.6875 6
v 15.874507899999999 4.6875 6
v 15.874507899999999 -0.3125 6
v 15.874507899999999 0.3125 6
v 15.874507899999999 -4.0625 6
v 15.874507899999999 -0.15625 6
v 15.874507899999999 0.46875 6
v 15.874507899999999 0.15625 6
v 15.874507899999999 -0.46875 6
v 24 0 6
v 24 -2.5 6
v 24 2.5 6
v 24 3.75 6
v 24 1.25 6
v 24 -1.875 6
v 24 3.125 6
v 24 1.875 6
v 24 0.625 6
v 24 -3.125 6
v 24 -4.375 6
v 24 -1.25 6
v 24 -3.75 6
v 24 4.375 6
v 24 -0.625 6
v 24 -4.6875 6
v 24 4.6875 6
v 24 -0.3125 6
v 24 -0.9375 6
v 19.000003800000002 -5 8
v 21.5 -5 8
v 16.500003800000002 -5 8
v 22.75 -5 8
v 17.750003800000002 -5 8
v 20.25 -5 8
v 15.2500038 -5 8
v 23.375 -5 8
v 19.625 -5 8
v 17.125003800000002 -5 8
v 18.375003800000002 -5 8
v 20.875 -5 8
v 15.8750038 -5 8
v 14.6250038 -5 8
v 22.125 -5 8
v 14.3125038 -5 8
v 23.6875 -5 8
v 18.921565999999999 5 6
v 20.952941899999999 5 6
v 22.984314000000001 5 6
v 16.8901939 5 6
v 22.476470899999999 5 6
v 23.492156999999999 5 6
v 20.445098900000001 5 6
v 16.382350899999999 5 6
v 19.9372559 5 6
v 21.4607849 5 6
v 21.968627900000001 5 6
v 17.398036999999999 5 6
v 18.413723000000001 5 6
v 17.90588 5 6
v 19.429409 5 6
v 16.128429399999998 5 6
v 23.746078499999999 5 6
v 19.9372559 -5 6
v 21.968627900000001 -5 6
v 17.90588 -5 6
v 18.921565999999999 -5 6
v 20.952941899999999 -5 6
v 16.8901939 -5 6
v 20.445098900000001 -5 6
v 19.429409 -5 6
v 18.413723000000001 -5 6
v 17.398036999999999 -5 6
v 21.4607849 -5 6
v 16.382350899999999 -5 6
v 23.492156999999999 -5 6
v 22.476470899999999 -5 6
v 22.984314000000001 -5 6
v 16.128429399999998 -5 6
v 23.746078499999999 -5 6
v 24 -5 7.5
v 24 -5 7
v 24 -5 6.5
v 24 -5 6.25
v 24 -5 7.75
v 24 5 7
v 24 5 7.5
v 24 5 6.5
v 24 5 7.75
v 24 5 6.25
v 15.5545578 5 4.2509012000000004
v 15.042503399999999 5 2.5481052000000002
v 14.3446617 5 0.91264149999999999
v 13.4696617 5 -0.6352892
v 9.8998603999999997 5 -4.5695180999999998
v 8.4440001999999996 5 -5.5903958999999999
v 6.8838520000000001 5 -6.4434260999999999
v 11.8308754 5 -2.7349853999999998
v 9.1719284000000005 5 -5.0799570000000003
v 12.9489822 5 -1.3559294
v 0.88768769999999997 5 -7.9505977999999997
v 15.714534799999999 5 5.1254501000000001
v 15.298530599999999 5 3.3995028
v 2.6520977000000001 5 -7.7536006000000004
v 10.5666542 5 -3.9814596
v 12.1295891 5 -2.4057778999999999
v 8.0539626999999996 5 -5.8036536999999999
v 14.5191231 5 1.3215075000000001
v 14.868042000000001 5 2.1392392999999998
v 8.8079643000000001 5 -5.3351765000000002
v 9.5358962999999992 5 -4.8247375000000003
v 12.688644399999999 5 -1.7162499
v 3.9562892999999999 5 -7.4840220999999998
v 4.8112221000000002 5 -7.240056
v 1.3315315000000001 5 -7.9258971000000003
v 0.44384380000000001 5 -7.9752989000000003
v 14.1259117 5 0.5256596
v 13.6884117 5 -0.24830630000000001
v 15.7945213 5 5.5627250999999998
v 15.634544399999999 5 4.6881762
v 15.4265442 5 3.825202
v 15.170517 5 2.9738045
v 3.0904598000000001 5 -7.6798029000000003
v 2.2137375000000001 5 -7.8273982999999996
v 5.6499785999999999 5 -6.9494113999999998
v 6.4725609000000004 5 -6.6120877
v 10.2332573 5 -4.2754889
v 10.900051100000001 5 -3.6874304000000002
v 13.209323899999999 5 -0.99560930000000003
v 1.7753753999999999 5 -7.9011959999999997
v 3.5288219000000001 5 -7.6060052000000002
v 11.233447999999999 5 -3.3934011000000002
v 6.0612697999999998 5 -6.7807493000000001
v 13.9071617 5 0.13867660000000001
v 4.3837546999999999 5 -7.3620390999999996
v 12.428302800000001 5 -2.0765699999999998
v 7.6639252000000004 5 -6.0169110000000003
v 14.693580600000001 5 1.7303734
v 7.2738895000000001 5 -6.2301682999999999
v 5.2386875000000002 5 -7.1180729999999999
v 11.5321617 5 -3.0641932000000001
v 14.431892399999999 5 1.1170745
v 7.0788707500000001 5 -6.3367971999999995
v 14.2352867 5 0.71915054999999994
v 15.834514599999999 5 5.7813625499999999
v 15.490551 5 4.0380516000000002
v 3.7425556000000002 5 -7.5450136499999996
v 14.7808113 5 1.9348063499999999
v 15.362537400000001 5 3.6123523999999998
v 13.7977867 5 -0.054814849999999998
v 3.3096408500000001 5 -7.6429040500000003
v 11.68151855 5 -2.8995892999999997
v 12.818813299999999 5 -1.5360896500000001
v 15.2345238 5 3.1866536500000002
v 5.8556241999999994 5 -6.8650803499999995
v 15.674539599999999 5 4.9068131499999996
v 2.4329176000000001 5 -7.7904994500000004
v 14.606351849999999 5 1.52594045
v 11.382804849999999 5 -3.2287971500000001
v 11.98023225 5 -2.5703816499999999
v 0.22192190000000001 5 -7.9876494500000002
v 13.079153049999999 5 -1.1757693499999999
v 14.0165367 5 0.33216810000000002
v 15.5945511 5 4.4695387000000002
v 14.9552727 5 2.34367225
v 15.106510199999999 5 2.7609548500000001
v 12.278945950000001 5 -2.2411739499999999
v 1.9945564500000001 5 -7.8642971499999996
v 11.066749550000001 5 -3.5404157500000002
v 12.558473599999999 5 -1.8964099499999998
v 5.44433305 5 -7.0337421999999998
v 6.2669153499999997 5 -6.6964185000000001
v 7.8589439500000005 5 -5.9102823500000001
v 7.4689073500000003 5 -6.1235396499999997
v 15.5545578 -5 4.2509012000000004
v 15.042503399999999 -5 2.5481052000000002
v 11.233447999999999 -5 -3.3934011000000002
v 9.8998603999999997 -5 -4.5695180999999998
v 8.4440001999999996 -5 -5.5903958999999999
v 6.8838520000000001 -5 -6.4434260999999999
v 5.2386875000000002 -5 -7.1180729999999999
v 3.5288219000000001 -5 -7.6060052000000002
v 1.7753753999999999 -5 -7.9011959999999997
v 11.8308754 -5 -2.7349853999999998
v 7.6639252000000004 -5 -6.0169110000000003
v 14.693580600000001 -5 1.7303734
v 9.1719284000000005 -5 -5.0799570000000003
v 12.9489822 -5 -1.3559294
v 4.3837546999999999 -5 -7.3620390999999996
v 0.88768769999999997 -5 -7.9505977999999997
v 13.9071617 -5 0.13867660000000001
v 15.714534799999999 -5 5.1254501000000001
v 15.298530599999999 -5 3.3995028
v 2.6520977000000001 -5 -7.7536006000000004
v 10.5666542 -5 -3.9814596
v 14.868042000000001 -5 2.1392392999999998
v 11.5321617 -5 -3.0641932000000001
v 12.1295891 -5 -2.4057778999999999
v 7.2738895000000001 -5 -6.2301682999999999
v 8.0539626999999996 -5 -5.8036536999999999
v 14.5191231 -5 1.3215075000000001
v 8.8079643000000001 -5 -5.3351765000000002
v 9.5358962999999992 -5 -4.8247375000000003
v 13.209323899999999 -5 -0.99560930000000003
v 4.8112221000000002 -5 -7.240056
v 14.1259117 -5 0.5256596
v 13.6884117 -5 -0.24830630000000001
v 15.7945213 -5 5.5627250999999998
v 15.634544399999999 -5 4.6881762
v 15.4265442 -5 3.825202
v 15.170517 -5 2.9738045
v 6.4725609000000004 -5 -6.6120877
v 5.6499785999999999 -5 -6.9494113999999998
v 10.2332573 -5 -4.2754889
v 10.900051100000001 -5 -3.6874304000000002
v 1.3315315000000001 -5 -7.9258971000000003
v 0.44384380000000001 -5 -7.9752989000000003
v 2.2137375000000001 -5 -7.8273982999999996
v 3.0904598000000001 -5 -7.6798029000000003
v 3.9562892999999999 -5 -7.4840220999999998
v 6.0612697999999998 -5 -6.7807493000000001
v 12.428302800000001 -5 -2.0765699999999998
v 13.4696617 -5 -0.6352892
v 12.688644399999999 -5 -1.7162499
v 14.3446617 -5 0.91264149999999999
v 15.2345238 -5 3.1866536500000002
v 0.66576575000000005 -5 -7.9629483499999996
v 14.431892399999999 -5 1.1170745
v 8.6259822499999999 -5 -5.4627862
v 0.22192190000000001 -5 -7.9876494500000002
v 15.5945511 -5 4.4695387000000002
v 15.106510199999999 -5 2.7609548500000001
v 15.834514599999999 -5 5.7813625499999999
v 9.7178783499999994 -5 -4.6971278000000005
v 1.1096096 -5 -7.9382474500000004
v 13.339492799999999 -5 -0.81544925000000001
v 13.5790367 -5 -0.44179774999999999
v 15.674539599999999 -5 4.9068131499999996
v 9.3539123499999999 -5 -4.9523472500000008
v 13.079153049999999 -5 -1.1757693499999999
v 1.5534534500000001 -5 -7.9135465499999995
v 12.818813299999999 -5 -1.5360896500000001
v 12.278945950000001 -5 -2.2411739499999999
v 14.9552727 -5 2.34367225
v 14.606351849999999 -5 1.52594045
v 8.9899463500000003 -5 -5.2075667499999998
v 12.558473599999999 -5 -1.8964099499999998
v 0.11096095 -5 -7.9938247249999996
v 0.81402779999999997 -5 -5.9763130999999996
v 2.4310741 -5 -5.7873077000000004
v 4.0152454000000004 -5 -5.4118528000000001
v 5.5451164000000004 -5 -4.8550253000000003
v 7 -5 -4.1243553000000004
v 8.3602179999999997 -5 -3.2297239000000002
v 10.7246246 -5 -0.99902579999999996
v 11.6968307 -5 0.30687520000000001
v 13.6226311 -5 4.7713795000000001
v 13.9053345 -5 6.3746995999999996
v 8.9838027999999994 -5 -2.7064772000000001
v 12.833278699999999 -5 2.4642658000000002
v 10.1660042 -5 -1.5911279
v 3.2231597999999999 -5 -5.5995808
v 13.389163999999999 -5 3.9915495000000001
v 4.7801799999999997 -5 -5.1334391000000004
v 13.9526672 -5 7.1873503000000003
v 11.2107277 -5 -0.34607549999999998
v 12.103843700000001 -5 1.0118437
v 1.6225510000000001 -5 -5.8818102000000003
v 13.7639809 -5 5.5730390999999999
v 7.6801089999999999 -5 -3.6770396000000001
v 9.2955933000000002 -5 -2.4448533000000001
v 8.6720085000000005 -5 -2.9681004999999998
v 12.672065699999999 -5 2.0905390000000001
v 10.4453163 -5 -1.2950767999999999
v 9.8866958999999994 -5 -1.8871789000000001
v 0.40701480000000001 -5 -5.9763130999999996
v 6.6362781999999996 -5 -4.3070225999999998
v 5.9088364000000002 -5 -4.6723575999999998
v 2.8271160000000002 -5 -5.6934443000000003
v 13.272430399999999 -5 3.6016349999999999
v 13.5058975 -5 4.3814640000000002
v 4.3977126999999996 -5 -5.2726459999999999
v 13.9290009 -5 6.7810249000000002
v 13.9763374 -5 7.5936747000000002
v 10.967678100000001 -5 -0.67255069999999995
v 11.4537811 -5 -0.0196004
v 12.3073502 -5 1.3643274000000001
v 11.900337199999999 -5 0.65935900000000003
v 13.8346596 -5 5.9738692999999996
v 8.0201644999999999 -5 -3.4533814999999999
v 7.3400536000000001 -5 -3.9006972000000002
v 1.2182903 -5 -5.9290618999999998
v 2.0268115999999998 -5 -5.8345593999999998
v 3.6192017000000001 -5 -5.5057168000000001
v 5.1626491999999997 -5 -4.9942321999999999
v 9.6073836999999997 -5 -2.1832299000000002
v 12.5108566 -5 1.7168121000000001
v 13.693306 -5 5.1722087999999999
v 13.155696900000001 -5 3.2117205000000002
v 12.9944878 -5 2.8379927
v 6.2725581999999998 -5 -4.4896897999999998
v 10.58497045 -5 -1.1470513
v 1.01615905 -5 -5.9526874999999997
v 6.0906973000000004 -5 -4.5810236999999994
v 10.305660249999999 -5 -1.44310235
v 10.02635005 -5 -1.7391534000000002
v 11.0892029 -5 -0.50931309999999996
v 7.1700268000000005 -5 -4.0125262500000005
v 13.9881706 -5 7.7968373500000006
v 6.4544181999999992 -5 -4.3983562000000003
v 6.8181390999999998 -5 -4.2156889500000005
v 10.84615135 -5 -0.83578825000000001
v 13.72864345 -5 5.3726239499999995
v 13.330797199999999 -5 3.7965922499999998
v 13.447530749999999 -5 4.1865067500000004
v 12.752672199999999 -5 2.2774024000000002
v 0.2035074 -5 -5.9763130999999996
v 0.61052130000000004 -5 -5.9763130999999996
v 11.3322544 -5 -0.18283795
v 12.91388325 -5 2.6511292500000003
v 13.21406365 -5 3.4066777500000001
v 13.799320250000001 -5 5.7734541999999998
v 13.07509235 -5 3.0248566000000001
v 2.4310741 5 -5.7873077000000004
v 4.0152454000000004 5 -5.4118528000000001
v 5.5451164000000004 5 -4.8550253000000003
v 7 5 -4.1243553000000004
v 8.3602179999999997 5 -3.2297239000000002
v 9.6073836999999997 5 -2.1832299000000002
v 12.5108566 5 1.7168121000000001
v 13.155696900000001 5 3.2117205000000002
v 13.9053345 5 6.3746995999999996
v 8.9838027999999994 5 -2.7064772000000001
v 12.833278699999999 5 2.4642658000000002
v 10.1660042 5 -1.5911279
v 6.2725581999999998 5 -4.4896897999999998
v 3.2231597999999999 5 -5.5995808
v 13.389163999999999 5 3.9915495000000001
v 4.7801799999999997 5 -5.1334391000000004
v 13.9526672 5 7.1873503000000003
v 11.2107277 5 -0.34607549999999998
v 12.103843700000001 5 1.0118437
v 1.6225510000000001 5 -5.8818102000000003
v 13.7639809 5 5.5730390999999999
v 7.6801089999999999 5 -3.6770396000000001
v 10.7246246 5 -0.99902579999999996
v 9.2955933000000002 5 -2.4448533000000001
v 8.6720085000000005 5 -2.9681004999999998
v 12.9944878 5 2.8379927
v 12.672065699999999 5 2.0905390000000001
v 9.8866958999999994 5 -1.8871789000000001
v 6.6362781999999996 5 -4.3070225999999998
v 5.9088364000000002 5 -4.6723575999999998
v 2.8271160000000002 5 -5.6934443000000003
v 3.6192017000000001 5 -5.5057168000000001
v 13.272430399999999 5 3.6016349999999999
v 13.5058975 5 4.3814640000000002
v 5.1626491999999997 5 -4.9942321999999999
v 4.3977126999999996 5 -5.2726459999999999
v 13.9290009 5 6.7810249000000002
v 13.9763374 5 7.5936747000000002
v 11.4537811 5 -0.0196004
v 11.900337199999999 5 0.65935900000000003
v 12.3073502 5 1.3643274000000001
v 1.2182903 5 -5.9290618999999998
v 13.8346596 5 5.9738692999999996
v 13.693306 5 5.1722087999999999
v 8.0201644999999999 5 -3.4533814999999999
v 7.3400536000000001 5 -3.9006972000000002
v 10.967678100000001 5 -0.67255069999999995
v 0.40701480000000001 5 -5.9763130999999996
v 0.81402779999999997 5 -5.9763130999999996
v 2.0268115999999998 5 -5.8345593999999998
v 13.6226311 5 4.7713795000000001
v 10.4453163 5 -1.2950767999999999
v 11.6968307 5 0.30687520000000001
v 13.86999705 5 6.17428445
v 13.9881706 5 7.7968373500000006
v 13.964502299999999 5 7.3905124999999998
v 13.799320250000001 5 5.7734541999999998
v 13.940834049999999 5 6.9841876000000003
v 11.0892029 5 -0.50931309999999996
v 12.20559695 5 1.18808555
v 13.72864345 5 5.3726239499999995
v 0.61052130000000004 5 -5.9763130999999996
v 13.5642643 5 4.5764217499999997
v 12.002090450000001 5 0.83560135000000002
v 11.798583949999999 5 0.48311710000000002
v 11.5753059 5 0.1436374
v 13.65796855 5 4.97179415
v 0.2035074 5 -5.9763130999999996
v 10.305660249999999 5 -1.44310235
v 10.58497045 5 -1.1470513
v 10.84615135 5 -0.83578825000000001
v 12.409103399999999 5 1.54056975
v 0.1017537 5 -5.9763130999999996
v 21.165061999999999 1.25 8
v 21.349231700000001 0.85505100000000001 8
v 20.606967900000001 -1.9151111000000001 8
v 20.25 -2.1650629000000001 8
v 18.144950900000001 -2.3492310000000001 8
v 17.75 -2.1650629000000001 8
v 17.393032099999999 -1.9151111000000001 8
v 17.084888500000002 -1.6069690999999999 8
v 16.834938000000001 -1.25 8
v 16.650768299999999 -0.85505010000000004 8
v 16.650768299999999 0.85505100000000001 8
v 16.834938000000001 1.25 8
v 17.084888500000002 1.6069689 8
v 21.462020899999999 0.43412109999999998 8
v 21.500003800000002 0 8
v 21.462020899999999 -0.43412020000000001 8
v 16.537982899999999 -0.43412020000000001 8
v 16.5 0 8
v 16.537982899999999 0.43412109999999998 8
v 19.855049099999999 2.3492321999999999 8
v 20.25 2.1650638999999998 8
v 17.75 2.1650638999999998 8
v 18.144950900000001 2.3492321999999999 8
v 20.915111499999998 1.6069689 8
v 21.165061999999999 -1.25 8
v 20.915111499999998 -1.6069690999999999 8
v 19.855049099999999 -2.3492310000000001 8
v 19.434120199999999 -2.4620190000000002 8
v 18.999996199999998 -2.5 8
v 18.999996199999998 2.5 8
v 19.434120199999999 2.4620190000000002 8
v 18.565883599999999 -2.4620190000000002 8
v 20.606967900000001 1.9151111000000001 8
v 17.393032099999999 1.9151111000000001 8
v 18.565883599999999 2.4620190000000002 8
v 21.349231700000001 -0.85505010000000004 8
v 18.355417250000002 -2.4056250000000001 8
v 17.947475449999999 -2.2571469500000001 8
v 16.518991450000001 0.21706054999999999 8
v 17.238960300000002 -1.7610401 8
v 17.947475449999999 2.2571480499999996 8
v 16.95991325 -1.4284845499999999 8
v 17.57151605 2.0400874999999998 8
v 16.95991325 1.42848445 8
v 16.594375599999999 0.64458605000000002 8
v 16.742853150000002 1.0525255 8
v 17.084888500000002 1.6069689 6
v 16.834938000000001 1.25 6
v 21.462020899999999 0.43412109999999998 6
v 21.500003800000002 0 6
v 21.462020899999999 -0.43412020000000001 6
v 21.349231700000001 0.85505100000000001 6
v 21.165061999999999 1.25 6
v 20.915111499999998 1.6069689 6
v 17.75 2.1650638999999998 6
v 16.834938000000001 -1.25 6
v 17.084888500000002 -1.6069690999999999 6
v 17.393032099999999 -1.9151111000000001 6
v 17.75 -2.1650629000000001 6
v 18.144950900000001 -2.3492310000000001 6
v 20.606967900000001 1.9151111000000001 6
v 20.25 2.1650638999999998 6
v 19.855049099999999 2.3492321999999999 6
v 18.999996199999998 2.5 6
v 18.565883599999999 2.4620190000000002 6
v 16.537982899999999 0.43412109999999998 6
v 16.5 0 6
v 16.537982899999999 -0.43412020000000001 6
v 19.855049099999999 -2.3492310000000001 6
v 20.25 -2.1650629000000001 6
v 20.606967900000001 -1.9151111000000001 6
v 20.915111499999998 -1.6069690999999999 6
v 18.565883599999999 -2.4620190000000002 6
v 18.999996199999998 -2.5 6
v 19.434120199999999 -2.4620190000000002 6
v 21.165061999999999 -1.25 6
v 21.349231700000001 -0.85505010000000004 6
v 16.650768299999999 0.85505100000000001 6
v 19.434120199999999 2.4620190000000002 6
v 17.393032099999999 1.9151111000000001 6
v 18.144950900000001 2.3492321999999999 6
v 16.650768299999999 -0.85505010000000004 6
v 17.947475449999999 2.2571480499999996 6
v 16.742853150000002 -1.0525250500000001 6
v 16.518991450000001 -0.21706010000000001 6
v 16.594375599999999 0.64458605000000002 6
v 17.57151605 2.0400874999999998 6
v 16.518991450000001 0.21706054999999999 6
v 16.742853150000002 1.0525255 6
v 16.594375599999999 -0.64458515000000005 6
v 16.95991325 1.42848445 6
v 16.566179249999998 -0.53935267500000006 6
v 16.566179249999998 0.53935357500000003 6
v 15.874507899999999 5 6
v 14.622216534190038 4.9999999003338731 5.9598408271041547
v 15.448945792623073 4.9999384301209835 5.9797900888947417
v 13.8346596 5 5.9738692999999996
v 15.030141726919148 4.9999957103372541 5.9651947853108123
v 14.225108767266528 4.9999999981147365 5.9639048467902871
v 15.442915601396152 -4.9999285436469592 5.9727484867422316
v 14.612470245737965 -4.999999367584909 5.9484409254719104
v 15.020389606839707 -4.9999907412963367 5.9537981887107962
v 13.8346596 -5 5.9738692999999996
v 15.874507899999999 -5 6
v 14.219088012106589 -4.9999999806062814 5.95685789665127
v 21.500003800000002 0 8
v 21.500003800000002 0 6
v 22.789671971219526 -0.23100258592816542 8
v 21.47839533018071 9.0507438721399873e-05 6.9999396667310734
v 24.000000000000007 -0.57000843638743914 7.6827029348459464
v 24.000000000000007 -0.42452490182422198 6.7836905208685794
v 23.602672931361028 -0.48074793296270973 8
v 24.000000000000007 -0.46863857749714494 7.0703917050263261
v 23.185730528131536 -0.13088109095652262 6.0000000000000018
v 21.937000939723276 -0.062754677870701797 8
v 21.927736223102119 -0.0077433307865239845 6.0000000000000018
v 23.20052715188179 -0.34675113712924899 8
v 21.468906191284848 -0.0011711138222117554 7.5003895148840005
v 21.46885511261549 0.001291163716919974 6.4995246015821024
v 24 -0.51733727820403352 7.3711699621115745
v 23.594323513093947 -0.21559856983052061 6.0000000000000018
v 22.368187226932235 -0.1370912153919121 8
v 22.772057862913336 -0.067091872481743531 6.0000000000000018
v 22.352475304818991 -0.027192518518083644 6.0000000000000018
v 24 -0.625 8
v 24 -0.3125 6
v 24.000000000000007 -0.38459776674504259 6.5118095642953335
v 24.000000000000007 -0.34774770273286792 6.2523531767278619
v 16.5 0 8
v 11.818322419379278 0.18240507367724085 -2.7483388025276452
v 14.675496327163316 -0.05268895547296204 1.6891557934374672
v 12.932379752233746 0.056239294453112432 -1.378309081596703
v 13.9611356321385 -0.04212310228801476 0.23529896070868994
v 15.316883423768171 -0.12204373214184237 3.4618891746595515
v 14.349383346137643 -0.049584110789790969 0.95285408068020472
v 13.905593284143725 -0.34285777017079533 6.5163255044230546
v 9.3912105929430041 -1.0849963625848722 -2.3578792399308557
v 8.5815235796780662 -1.0018415978460511 -3.0389175054934983
v 10.921369564470741 -1.0541007766581973 -0.72888800768640771
v 12.013863894979337 -0.86496232484560076 0.85766514286878293
v 7.4446284369250728 -0.86759200461970032 -3.8303774361327525
v 9.6620357681295062 -1.1021778579141928 -2.1125679147869239
v 10.434995320503596 -1.1013971374587848 -1.3033014521182631
v 11.60145032399719 -0.94143136463709387 0.19179477236543946
v 7.1455138783417063 -0.83292297862329456 -4.0212331015056932
v 16.532447495045783 -0.098267252597688218 7.0107893132716832
v 8.0909805212045427 0.5138112873623577 -5.7809411101184827
v 15.461809473484767 -0.29210926637309853 8
v 15.811730102278894 -0.20094357925949768 8
v 12.913590776454921 -0.69517137987274591 2.6535802869884217
v 0.40216181658558159 -0.57844168195132761 -5.9731442480745391
v 6.5171938957913049 -0.76981001563953855 -4.3653994788108399
v 5.8766592002138989 -0.72220691014431126 -4.6864208725622785
v 12.409240688158064 -0.7940361274415404 1.5551146707298122
v 13.640053361049343 -0.44543021417332762 4.9334291849379497
v 7.7662781476828577 0.5053749476140148 -5.9603364564343648
v 7.4401888250941468 0.49617692238203548 -6.1383590733161668
v 7.112714704398944 0.48763777893672866 -6.3135819338499557
v 9.0210270079217274 0.51851982045503209 -5.1851751186654109
v 9.3210224946887461 0.50602812948574671 -4.9749084323732582
v 9.6203145437018058 0.48336526398155866 -4.762727580136529
v 3.7161705569078203 0.53916728090505983 -7.5467619085750588
v 4.0681997922204785 0.52948104238100813 -7.4512557105303259
v 4.4126260408228788 0.51858931661646468 -7.3534385710988319
v 0.88041632049387863 0.59181777407175529 -7.9505058776022022
v 1.3877787807814457e-17 0.65677955609496252 -7.9862087323968156
v 3.3507426563699418 0.54595225862360641 -7.6302211884607649
v 2.574575560185 0.5497910588588768 -7.7661239253306711
v 2.9696121003493516 0.54910604039184241 -7.6991810216373775
v 6.1021914614875357 0.47931460426456307 -6.7634463402094225
v 5.4302792647010865 0.49025927393303331 -7.0337597961324647
v 9.1186938294523365 -1.0612571044084356 -2.5914933316066628
v 8.8492073142649659 -1.0328950410057969 -2.8183314839534255
v 13.066590073665051 -0.66316655185628215 3.0205298067515103
v 12.754870854488857 -0.72715866412612362 2.2853992512397463
v 6.1969386516695071 -0.74407775385019137 -4.5270892750768006
v 3.4769381869714806 -0.58631943095132799 -5.5381133424794893
v 3.1060866980228172 -0.57605574162675499 -5.6264728965149873
v 13.54519863602513 -0.49728149891040929 4.5382654642480755
v 13.434856933318656 -0.54678832566407198 4.1510452007817147
v 13.321325630013913 -0.59089474797577735 3.769158916128291
v 4.8860895404055551 -0.66352669920625207 -5.0941448929039979
v 4.1992087113544168 -0.62124375725078362 -5.3375277168864459
v 5.2221924923148766 -0.68355952966075106 -4.9696930560892323
v 4.5457853169505196 -0.64239856087434233 -5.2172790326475322
v 10.685925331978151 -1.0820166849383859 -1.0232894866178923
v 11.376767108662083 -0.9811136755473634 -0.12060400408327429
v 11.812668370390888 -0.90243692253532592 0.51871811710147953
v 12.212743489023586 -0.82895352766793451 1.2035564459399071
v 1.5862786686731849 -0.5806851195190661 -5.8851817274964127
v 1.9720790745476484 -0.57619260168944264 -5.8396931655274145
v 15.100628085810733 -0.08325606124739432 2.7600600486893354
v 3.8429740761263327 -0.60190451218365193 -5.4459950960613259
v 1.7471081259632186 0.55652299075288481 -7.8923609069894916
v 9.9159645629328939 0.45066425409008215 -4.5423856284093675
v 8.4113188643416734 0.52007756704413133 -5.5961432023830024
v 15.518422991561863 -0.1730235678733357 4.1595707065471679
v 5.5539127602342715 -0.70266863308022764 -4.8384203948239604
v 14.372933748765952 -0.54195009552913054 8
v 11.316363368270597 0.2420736390190637 -3.2917092774454551
v 13.356376219895115 0.0063808513259725301 -0.77960425291582747
v 15.21129644836024 -0.10134256354080586 3.1126091729875522
v 11.570970062756366 0.21032496567755282 -3.0194554501960251
v 12.060100893827805 0.1567338813656653 -2.4812314429605702
v 12.724851580994326 0.081926299391279406 -1.6644937476521284
v 4.7536996118506565 0.50800815561950929 -7.2552100616474222
v 1.3166266909007485 0.56964886249761859 -7.9251180427908468
v 13.762354845769245 -0.031317438329011529 -0.11524779515866559
v 15.668972732409905 -0.25496866893273029 4.8811268071147458
v 15.420421589755893 -0.1453748809046469 3.8096181033413452
v 10.481826267475309 0.36532546218895456 -4.0557988720810565
v 10.764387487438654 0.32045324214327253 -3.8059658577844564
v 13.978846985028888 -0.52519806515503109 7.6371940454774307
v 13.790740504247843 -0.35855306084933403 5.7328494113240929
v 2.732244820285854 -0.57163375252527648 -5.7121374803887131
v 13.934679795686808 -0.37636506405073278 6.8977341840343378
v 13.957371686234023 -0.43888350529882147 7.2707880853401843
v 13.856560835626532 -0.33832774815751698 6.1275288083018307
v 13.719969369398001 -0.39679677606480784 5.3333267763474694
v 12.295252576934857 0.13194624411567085 -2.2165131767336259
v 14.829057459555866 -0.058472850648767838 2.050199426186917
v 14.517093888273031 -0.050391823060686881 1.3220386114598588
v 8.7192193666900657 0.52240960447907137 -5.3939727050019712
v 13.143120133656787 0.030647638272908746 -1.0846605980045732
v 12.51666679931248 0.10715982423029036 -1.9453800917449424
v 0.44105400356659613 0.62197100919063986 -7.9730125040652187
v 13.563376609497896 -0.014843553941929702 -0.45620939052845844
v 15.805734223915579 -0.38824238904186931 5.6241325062206506
v 15.737285505922141 -0.31532061523015076 5.2505634129959429
v 15.598680597895784 -0.20828250015994032 4.5170263961781352
v 5.7653732114251373 0.48360607942042622 -6.9010739126217961
v 6.4411696153358156 0.47837412687044778 -6.623201002553909
v 11.045669863823129 0.27880050538857337 -3.5534736811684784
v 10.199940418013417 0.41009731915247616 -4.3027135443962088
v 14.742292812240525 -0.45969619819572294 8
v 15.105552638006019 -0.37734308632657731 8
v 16.157049742518002 -0.10282278539924714 8
v 2.3545961092633032 -0.57230614192985696 -5.7863370941546028
v 11.149556772084512 -1.019571481170322 -0.42673796197507319
v 5.0933797913486663 0.49848832205234195 -7.1522437549672464
v 9.9214312911119507 -1.1112715000653122 -1.8481128623692542
v 8.3096862329956203 -0.9694803952803005 -3.2497768713530446
v 7.73811524817717 -0.90231000662966943 -3.6381159336563504
v 14.0000038 -0.625 8
v 6.8361930096157586 -0.79976311603592931 -4.2008280271424736
v 12.590786678133927 -0.7600669924085397 1.9165464255997637
v 14.160034772787776 -0.047650540929387981 0.59107817028616827
v 10.178608912073436 -1.1111871688160115 -1.5771657324995645
v 8.0271224537822174 -0.93629843539259106 -3.4463150319406251
v 6.7802123330468298 0.48128744079725916 -6.4772797553264478
v 13.201961062818924 -0.62916224955802802 3.3919944523269221
v 14.975288625477178 -0.068725386289828966 2.4053789694864189
v 2.1667560572824653 0.55098126515615875 -7.8329841610873059
v 1.1966063341226159 -0.58332650482822546 -5.9271406411894585
v 0.80181154920890774 -0.58261514494400146 -5.9591262474361884
v -1.3877787807814457e-17 -0.57212702697973938 -5.9759579489214776
v 16.39513253737622 -0.28241861221642867 6.0000000000000018
v 16.518991450000001 -0.21706010000000001 6
v 16.535247508337068 -0.13551681432719032 6.675232539705231
v 16.008433585863891 -0.43344648591796919 6
v 16.140442784632707 -0.39239335000646636 6.0000000000000018
v 16.534307969426791 -0.06345642503378611 7.3435354916676543
v 16.269344946627207 -0.34204675850542943 6.0000000000000018
v 16.522971331758512 -0.030901086684061385 7.6730453662750815
v 16.534602326680627 -0.1752909584989461 6.3378200948131695
v 15.874507899999999 -0.46875 6
v 18.999996199999998 2.5 8
v 19.188100680695619 3.7649181747611031 8
v 19.219983712653988 2.4524938517376138 6.9991932398431214
v 19.386508665991947 5 6.6711272918986992
v 19.470494029481038 3.888661560643091 6.0000000000000018
v 19.366755560087711 5 7.0053811269803781
v 19.473302888957626 3.5245042551690391 6.0000000000000018
v 19.131939173934388 3.3462776295317855 8
v 19.460537271143309 4.2570600527610569 6.0000000000000018
v 19.326712539613531 2.4380258033516347 6.4989528672505905
v 19.110703649735761 2.4664417037321318 7.4998632228613804
v 19.348127765036949 5 7.3381931094319892
v 19.453228923046098 2.8122872345345074 6
v 19.330180497805088 5 7.6695568194520121
v 19.068196397203351 2.9241505281503972 8
v 19.23572760311804 4.1795613967829492 8
v 19.434120199999999 2.4620190000000002 6
v 19.467355525338618 3.1657843779050907 6.0000000000000018
v 19.276153393046563 4.5907676287226291 8
v 19.44601514588339 4.6279933483720814 6.0000000000000018
v 19.429409 5 6
v 19.407530432163465 5 6.3358243352389172
v 19.312501900000001 5 8
v 24 5 8
v 24 -5 8
v 14.0000038 -5 8
v 14.0000038 5 8
v 15.874507899999999 5 6
v 24 5 6
v 24 -5 6
v 0 -5 -8
v 0 5 -8
v 0 -5 -5.9763130999999996
v 0 5 -5.9763130999999996
v 0 2.862024288456444 -5.9760391212948178
v 1.3877787807814457e-17 0.65677955609496252 -7.9862087323968156
v 0 -2.011914 -5.9761229
v 0 -0.38955020000000007 -7.9939618000000001
v 7.806255641895709e-18 5 -6.9396231832398616
v 0 3.8063413862193975 -5.9759508689566445
v 15.874507899999999 -5 6
v 6.9388939039072284e-18 -1.8143614138831461 -7.9897683804583703
v 0 2.7722752869504617 -7.9866715815263571
v 1.3877787807814457e-17 4.6230519897911755 -5.9761385362973396
v 8.6736173798840231e-18 -1.0387588207717786 -5.9760248549702002
v 5.2041704279304197e-18 1.8712093026535008 -7.991410012436611
v -1.3877787807814457e-17 -2.782407757299413 -7.9892903628575294
v -6.9388939039072284e-18 -2.4605007670121415 -7.9939024412093715
v -6.9388939039072284e-18 -4.634755434285295 -7.9869736448412745
v -1.3877787807814457e-17 4.6018974469400904 -7.9851894168871205
v -6.9388939039072153e-18 -3.2061848729604958 -7.9907940505230233
v -5.6378512969246423e-18 3.8333549701737155 -7.9933389586893302
v -3.4694469519536111e-18 -1.3948297644481138 -7.9909806867818824
v 2.7755575615628914e-17 -4.5570219282470088 -5.9760439293445646
v -9.7578195523694012e-18 -4.1224099967265095 -5.9761891492352035
v 1.3877787807814457e-17 -3.7405757056239288 -5.976176951005705
v -6.9388939039072284e-18 0.216411304689198 -7.9876019780489749
v -1.7347234759768071e-17 1.5840620648553982 -5.9760819946854085
v 0 2.5244046817967423 -5.9759609157125384
v -1.3877787807814457e-17 -1.5209128031142805 -5.9758529502227589
v 6.9388939039072191e-18 1.094736962231039 -5.9760879531657771
v 6.9388939039072284e-18 3.1371899585795591 -7.9882785496843294
v 2.0816681711721664e-17 -3.6712995427187272 -7.9878574019612625
v -6.9388939039072515e-18 2.3697116654255437 -7.9890120292669602
v 0 -0.86914371640448373 -7.9854941186131452
v 1.3877787807814454e-17 1.1195874920120721 -7.9850459104795855
v -2.0816681711721688e-17 0.34393674535947916 -5.9760770945452135
v -9.1072982488782372e-18 4.221429945014985 -5.9761572502324878
v -1.3877787807814457e-17 -0.57212702697973938 -5.9759579489214776
v 4.3368086899420123e-18 3.3739002438914509 -5.9761291784669188
v -3.4694469519536396e-18 -3.3191514100381179 -5.976220568937733
v 1.3877787807814552e-17 -4.1320570341903977 -7.9890116969942158
v 1.2143064331837509e-17 4.2900374064709776 -7.9926321847977304
v 1.3877787807814457e-17 -5 -6.4656869659772962
v 0 5 -6.4997080969926806
v -2.7755575615628914e-17 5 -7.3448266090511893
v 0 -5 -7.4225385523175156
v 3.4694469519536037e-17 5 -7.6704467827568266
v 0 -2.7873699108914192 -5.9761267184760243
v 6.9388939039072268e-18 -0.08984146064803869 -5.9761391702333277
v -6.9388939039072284e-18 -5 -6.9211444976119108
v -4.1633363423443376e-17 0.73851464988130067 -5.9760045258617369
v -1.3877787807814457e-17 -2.1239026819164497 -7.988692236616826
v -7.8062556418956319e-18 1.9965986634715558 -5.976063735690829
v 0 -2.3996419554457096 -5.9761248092380121
v 9.5409791178724359e-18 1.4953983973327865 -7.9882279614581009
v 6.5052130349129303e-19 3.4852724643766373 -7.9908087541868298
v 24 4.6875 8
v 14.0000038 -4.6875 8
v 14.0000038 4.6875 8
v 14.3125038 5 8
v 15.874507899999999 -4.6875 6
v 16.128429399999998 -5 6
v 0 2.6932144851265933 -5.9760000185036777
v 16.128429399999998 5 6
v 24 -4.6875 6
v 24 -5 6.25
v 24 5 7.75
v 15.834514599999999 5 5.7813625499999999
v 2.1684043449710062e-18 3.1179622661739472 -5.9760841498808688
v 23.746078499999999 5 6
v -3.4694469519536142e-18 -4.817377717142648 -7.9934868224206372
v 15.874507899999999 4.6875 6
v 15.834514599999999 -5 5.7813625499999999
v 13.9881706 5 7.7968373500000006
v 3.7947076036992609e-18 3.3112312114780984 -7.9895436519355796
v 1.3877787807814457e-17 -4.7785109641235044 -5.9761785146722826
v -4.5536491244391186e-18 4.0138856656171917 -5.9760540595945661
v -6.9388939039072284e-18 4.8009487234700448 -7.9925947084435602
v -3.4694469519536257e-18 2.5709934761880024 -7.9878418053966591
v 23.6875 5 8
v 13.9881706 -5 7.7968373500000006
v 14.3125038 -5 8
v 24 4.6875 6
v 0 5 -6.2380105984963397
v 3.4694469519535618e-18 5 -7.507636695904008
v 0.22192190000000001 5 -7.9876494500000002
v 0 -5 -7.7112692761587578
v 23.746078499999999 -5 6
v 24 5 6.25
v 0.2035074 -5 -5.9763130999999996
v 6.9388939039072284e-18 -5 -6.2210000329886483
v 8.9988780316297561e-18 -4.3397159624867587 -5.9761165392898841
v 3.4694469519536142e-18 -5 -6.6934157317946035
v 24 -5 7.75
v -3.4694469519536142e-18 -1.969132047899798 -7.9892303085375982
v 24 -4.6875 8
v 6.9388939039072284e-18 4.8115259948955877 -5.97622581814867
v 23.6875 -5 8
v -1.0408340855860843e-17 -2.2922017244642956 -7.9912973389130988
v -8.6736173798847365e-19 4.4459674267055345 -7.9889108008424259
v 2.0599841277225278e-18 -3.9314928511752192 -5.9761830501204543
v -5.2041704279304259e-18 1.3393995135432186 -5.9760849739255928
v -8.6736173798841587e-19 2.1204604840395223 -7.9902110208517856
v -1.7347234759768077e-17 0.91662580605616983 -5.9760462395137566
v 2.3852447794681098e-18 4.4222409674030807 -5.9761478932649137
v 1.7347234759768019e-17 5 -7.8352233913784133
v -3.4694469519536142e-18 -5 -7.1718415249647132
v 3.9031278209478545e-18 5 -6.7196656401162711
v 1.1709383462843445e-17 1.3074929446724293 -7.9866369359688427
v 7.3725747729014271e-18 1.6833038499931436 -7.9898189869473546
v -2.4936649967166748e-18 3.6593137172751762 -7.99207385643808
v 0.1017537 5 -5.9763130999999996
v 0.11096095 -5 -7.9938247249999996
v 3.4694469519536142e-18 -5 -6.0986565664943235
v -21.5 5 8
v -17.750003800000002 5 8
v -22.75 5 8
v -15.2500038 5 8
v -22.125 5 8
v -20.875 5 8
v -17.125003800000002 5 8
v -23.375 5 8
v -15.8750038 5 8
v -18.375003800000002 5 8
v -19.625 5 8
v -14.6250038 5 8
v -20.25 5 8
v -19.000003800000002 5 8
v -16.500003800000002 5 8
v -14.3125038 5 8
v -19.9375 5 8
v -23.6875 5 8
v -20.5625 5 8
v -23.0625 5 8
v -19.312501900000001 5 8
v -14.9375038 5 8
v -14.0000038 0 8
v -14.0000038 2.5 8
v -14.0000038 -2.5 8
v -14.0000038 -3.75 8
v -14.0000038 1.25 8
v -14.0000038 3.75 8
v -14.0000038 -1.25 8
v -14.0000038 3.125 8
v -14.0000038 4.375 8
v -14.0000038 -3.125 8
v -14.0000038 -4.375 8
v -14.0000038 1.875 8
v -14.0000038 -1.875 8
v -14.0000038 0.625 8
v -14.0000038 -0.625 8
v -14.0000038 -4.6875 8
v -14.0000038 4.6875 8
v -14.0000038 -4.0625 8
v -24 0 8
v -24 -2.5 8
v -24 1.25 8
v -24 3.75 8
v -24 -3.75 8
v -24 -1.875 8
v -24 1.875 8
v -24 -3.125 8
v -24 3.125 8
v -24 -4.375 8
v -24 0.625 8
v -24 2.5 8
v -24 4.375 8
v -24 -1.25 8
v -24 -0.625 8
v -24 4.6875 8
v -24 -4.6875 8
v -15.874507899999999 0 6
v -15.874507899999999 2.5 6
v -15.874507899999999 1.25 6
v -15.874507899999999 3.75 6
v -15.874507899999999 -3.75 6
v -15.874507899999999 -1.25 6
v -15.874507899999999 1.875 6
v -15.874507899999999 -1.875 6
v -15.874507899999999 -0.625 6
v -15.874507899999999 0.625 6
v -15.874507899999999 3.125 6
v -15.874507899999999 -4.375 6
v -15.874507899999999 4.375 6
v -15.874507899999999 -3.125 6
v -15.874507899999999 -2.5 6
v -15.874507899999999 -4.6875 6
v -15.874507899999999 4.6875 6
v -15.874507899999999 -0.3125 6
v -15.874507899999999 0.3125 6
v -15.874507899999999 -4.0625 6
v -15.874507899999999 -0.15625 6
v -15.874507899999999 0.46875 6
v -15.874507899999999 0.15625 6
v -15.874507899999999 -0.46875 6
v -24 0 6
v -24 -2.5 6
v -24 2.5 6
v -24 3.75 6
v -24 1.25 6
v -24 -1.875 6
v -24 3.125 6
v -24 1.875 6
v -24 0.625 6
v -24 -3.125 6
v -24 -4.375 6
v -24 -1.25 6
v -24 -3.75 6
v -24 4.375 6
v -24 -0.625 6
v -24 -4.6875 6
v -24 4.6875 6
v -24 -0.3125 6
v -24 -0.9375 6
v -19.000003800000002 -5 8
v -21.5 -5 8
v -16.500003800000002 -5 8
v -22.75 -5 8
v -17.750003800000002 -5 8
v -20.25 -5 8
v -15.2500038 -5 8
v -23.375 -5 8
v -19.625 -5 8
v -17.125003800000002 -5 8
v -18.375003800000002 -5 8
v -20.875 -5 8
v -15.8750038 -5 8
v -14.6250038 -5 8
v -22.125 -5 8
v -14.3125038 -5 8
v -23.6875 -5 8
v -18.921565999999999 5 6
v -20.952941899999999 5 6
v -22.984314000000001 5 6
v -16.8901939 5 6
v -22.476470899999999 5 6
v -23.492156999999999 5 6
v -20.445098900000001 5 6
v -16.382350899999999 5 6
v -19.9372559 5 6
v -21.4607849 5 6
v -21.968627900000001 5 6
v -17.398036999999999 5 6
v -18.413723000000001 5 6
v -17.90588 5 6
v -19.429409 5 6
v -16.128429399999998 5 6
v -23.746078499999999 5 6
v -19.9372559 -5 6
v -21.968627900000001 -5 6
v -17.90588 -5 6
v -18.921565999999999 -5 6
v -20.952941899999999 -5 6
v -16.8901939 -5 6
v -20.445098900000001 -5 6
v -19.429409 -5 6
v -18.413723000000001 -5 6
v -17.398036999999999 -5 6
v -21.4607849 -5 6
v -16.382350899999999 -5 6
v -23.492156999999999 -5 6
v -22.476470899999999 -5 6
v -22.984314000000001 -5 6
v -16.128429399999998 -5 6
v -23.746078499999999 -5 6
v -24 -5 7.5
v -24 -5 7
v -24 -5 6.5
v -24 -5 6.25
v -24 -5 7.75
v -24 5 7
v -24 5 7.5
v -24 5 6.5
v -24 5 7.75
v -24 5 6.25
v -15.5545578 5 4.2509012000000004
v -15.042503399999999 5 2.5481052000000002
v -14.3446617 5 0.91264149999999999
v -13.4696617 5 -0.6352892
v -9.8998603999999997 5 -4.5695180999999998
v -8.4440001999999996 5 -5.5903958999999999
v -6.8838520000000001 5 -6.4434260999999999
v -11.8308754 5 -2.7349853999999998
v -9.1719284000000005 5 -5.0799570000000003
v -12.9489822 5 -1.3559294
v -0.88768769999999997 5 -7.9505977999999997
v -15.714534799999999 5 5.1254501000000001
v -15.298530599999999 5 3.3995028
v -2.6520977000000001 5 -7.7536006000000004
v -10.5666542 5 -3.9814596
v -12.1295891 5 -2.4057778999999999
v -8.0539626999999996 5 -5.8036536999999999
v -14.5191231 5 1.3215075000000001
v -14.868042000000001 5 2.1392392999999998
v -8.8079643000000001 5 -5.3351765000000002
v -9.5358962999999992 5 -4.8247375000000003
v -12.688644399999999 5 -1.7162499
v -3.9562892999999999 5 -7.4840220999999998
v -4.8112221000000002 5 -7.240056
v -1.3315315000000001 5 -7.9258971000000003
v -0.44384380000000001 5 -7.9752989000000003
v -14.1259117 5 0.5256596
v -13.6884117 5 -0.24830630000000001
v -15.7945213 5 5.5627250999999998
v -15.634544399999999 5 4.6881762
v -15.4265442 5 3.825202
v -15.170517 5 2.9738045
v -3.0904598000000001 5 -7.6798029000000003
v -2.2137375000000001 5 -7.8273982999999996
v -5.6499785999999999 5 -6.9494113999999998
v -6.4725609000000004 5 -6.6120877
v -10.2332573 5 -4.2754889
v -10.900051100000001 5 -3.6874304000000002
v -13.209323899999999 5 -0.99560930000000003
v -1.7753753999999999 5 -7.9011959999999997
v -3.5288219000000001 5 -7.6060052000000002
v -11.233447999999999 5 -3.3934011000000002
v -6.0612697999999998 5 -6.7807493000000001
v -13.9071617 5 0.13867660000000001
v -4.3837546999999999 5 -7.3620390999999996
v -12.428302800000001 5 -2.0765699999999998
v -7.6639252000000004 5 -6.0169110000000003
v -14.693580600000001 5 1.7303734
v -7.2738895000000001 5 -6.2301682999999999
v -5.2386875000000002 5 -7.1180729999999999
v -11.5321617 5 -3.0641932000000001
v -14.431892399999999 5 1.1170745
v -7.0788707500000001 5 -6.3367971999999995
v -14.2352867 5 0.71915054999999994
v -15.834514599999999 5 5.7813625499999999
v -15.490551 5 4.0380516000000002
v -3.7425556000000002 5 -7.5450136499999996
v -14.7808113 5 1.9348063499999999
v -15.362537400000001 5 3.6123523999999998
v -13.7977867 5 -0.054814849999999998
v -3.3096408500000001 5 -7.6429040500000003
v -11.68151855 5 -2.8995892999999997
v -12.818813299999999 5 -1.5360896500000001
v -15.2345238 5 3.1866536500000002
v -5.8556241999999994 5 -6.8650803499999995
v -15.674539599999999 5 4.9068131499999996
v -2.4329176000000001 5 -7.7904994500000004
v -14.606351849999999 5 1.52594045
v -11.382804849999999 5 -3.2287971500000001
v -11.98023225 5 -2.5703816499999999
v -0.22192190000000001 5 -7.9876494500000002
v -13.079153049999999 5 -1.1757693499999999
v -14.0165367 5 0.33216810000000002
v -15.5945511 5 4.4695387000000002
v -14.9552727 5 2.34367225
v -15.106510199999999 5 2.7609548500000001
v -12.278945950000001 5 -2.2411739499999999
v -1.9945564500000001 5 -7.8642971499999996
v -11.066749550000001 5 -3.5404157500000002
v -12.558473599999999 5 -1.8964099499999998
v -5.44433305 5 -7.0337421999999998
v -6.2669153499999997 5 -6.6964185000000001
v -7.8589439500000005 5 -5.9102823500000001
v -7.4689073500000003 5 -6.1235396499999997
v -15.5545578 -5 4.2509012000000004
v -15.042503399999999 -5 2.5481052000000002
v -11.233447999999999 -5 -3.3934011000000002
v -9.8998603999999997 -5 -4.5695180999999998
v -8.4440001999999996 -5 -5.5903958999999999
v -6.8838520000000001 -5 -6.4434260999999999
v -5.2386875000000002 -5 -7.1180729999999999
v -3.5288219000000001 -5 -7.6060052000000002
v -1.7753753999999999 -5 -7.9011959999999997
v -11.8308754 -5 -2.7349853999999998
v -7.6639252000000004 -5 -6.0169110000000003
v -14.693580600000001 -5 1.7303734
v -9.1719284000000005 -5 -5.0799570000000003
v -12.9489822 -5 -1.3559294
v -4.3837546999999999 -5 -7.3620390999999996
v -0.88768769999999997 -5 -7.9505977999999997
v -13.9071617 -5 0.13867660000000001
v -15.714534799999999 -5 5.1254501000000001
v -15.298530599999999 -5 3.3995028
v -2.6520977000000001 -5 -7.7536006000000004
v -10.5666542 -5 -3.9814596
v -14.868042000000001 -5 2.1392392999999998
v -11.5321617 -5 -3.0641932000000001
v -12.1295891 -5 -2.4057778999999999
v -7.2738895000000001 -5 -6.2301682999999999
v -8.0539626999999996 -5 -5.8036536999999999
v -14.5191231 -5 1.3215075000000001
v -8.8079643000000001 -5 -5.3351765000000002
v -9.5358962999999992 -5 -4.8247375000000003
v -13.209323899999999 -5 -0.99560930000000003
v -4.8112221000000002 -5 -7.240056
v -14.1259117 -5 0.5256596
v -13.6884117 -5 -0.24830630000000001
v -15.7945213 -5 5.5627250999999998
v -15.634544399999999 -5 4.6881762
v -15.4265442 -5 3.825202
v -15.170517 -5 2.9738045
v -6.4725609000000004 -5 -6.6120877
v -5.6499785999999999 -5 -6.9494113999999998
v -10.2332573 -5 -4.2754889
v -10.900051100000001 -5 -3.6874304000000002
v -1.3315315000000001 -5 -7.9258971000000003
v -0.44384380000000001 -5 -7.9752989000000003
v -2.2137375000000001 -5 -7.8273982999999996
v -3.0904598000000001 -5 -7.6798029000000003
v -3.9562892999999999 -5 -7.4840220999999998
v -6.0612697999999998 -5 -6.7807493000000001
v -12.428302800000001 -5 -2.0765699999999998
v -13.4696617 -5 -0.6352892
v -12.688644399999999 -5 -1.7162499
v -14.3446617 -5 0.91264149999999999
v -15.2345238 -5 3.1866536500000002
v -0.66576575000000005 -5 -7.9629483499999996
v -14.431892399999999 -5 1.1170745
v -8.6259822499999999 -5 -5.4627862
v -0.22192190000000001 -5 -7.9876494500000002
v -15.5945511 -5 4.4695387000000002
v -15.106510199999999 -5 2.7609548500000001
v -15.834514599999999 -5 5.7813625499999999
v -9.7178783499999994 -5 -4.6971278000000005
v -1.1096096 -5 -7.9382474500000004
v -13.339492799999999 -5 -0.81544925000000001
v -13.5790367 -5 -0.44179774999999999
v -15.674539599999999 -5 4.9068131499999996
v -9.3539123499999999 -5 -4.9523472500000008
v -13.079153049999999 -5 -1.1757693499999999
v -1.5534534500000001 -5 -7.9135465499999995
v -12.818813299999999 -5 -1.5360896500000001
v -12.278945950000001 -5 -2.2411739499999999
v -14.9552727 -5 2.34367225
v -14.606351849999999 -5 1.52594045
v -8.9899463500000003 -5 -5.2075667499999998
v -12.558473599999999 -5 -1.8964099499999998
v -0.11096095 -5 -7.9938247249999996
v -0.81402779999999997 -5 -5.9763130999999996
v -2.4310741 -5 -5.7873077000000004
v -4.0152454000000004 -5 -5.4118528000000001
v -5.5451164000000004 -5 -4.8550253000000003
v -7 -5 -4.1243553000000004
v -8.3602179999999997 -5 -3.2297239000000002
v -10.7246246 -5 -0.99902579999999996
v -11.6968307 -5 0.30687520000000001
v -13.6226311 -5 4.7713795000000001
v -13.9053345 -5 6.3746995999999996
v -8.9838027999999994 -5 -2.7064772000000001
v -12.833278699999999 -5 2.4642658000000002
v -10.1660042 -5 -1.5911279
v -3.2231597999999999 -5 -5.5995808
v -13.389163999999999 -5 3.9915495000000001
v -4.7801799999999997 -5 -5.1334391000000004
v -13.9526672 -5 7.1873503000000003
v -11.2107277 -5 -0.34607549999999998
v -12.103843700000001 -5 1.0118437
v -1.6225510000000001 -5 -5.8818102000000003
v -13.7639809 -5 5.5730390999999999
v -7.6801089999999999 -5 -3.6770396000000001
v -9.2955933000000002 -5 -2.4448533000000001
v -8.6720085000000005 -5 -2.9681004999999998
v -12.672065699999999 -5 2.0905390000000001
v -10.4453163 -5 -1.2950767999999999
v -9.8866958999999994 -5 -1.8871789000000001
v -0.40701480000000001 -5 -5.9763130999999996
v -6.6362781999999996 -5 -4.3070225999999998
v -5.9088364000000002 -5 -4.6723575999999998
v -2.8271160000000002 -5 -5.6934443000000003
v -13.272430399999999 -5 3.6016349999999999
v -13.5058975 -5 4.3814640000000002
v -4.3977126999999996 -5 -5.2726459999999999
v -13.9290009 -5 6.7810249000000002
v -13.9763374 -5 7.5936747000000002
v -10.967678100000001 -5 -0.67255069999999995
v -11.4537811 -5 -0.0196004
v -12.3073502 -5 1.3643274000000001
v -11.900337199999999 -5 0.65935900000000003
v -13.8346596 -5 5.9738692999999996
v -8.0201644999999999 -5 -3.4533814999999999
v -7.3400536000000001 -5 -3.9006972000000002
v -1.2182903 -5 -5.9290618999999998
v -2.0268115999999998 -5 -5.8345593999999998
v -3.6192017000000001 -5 -5.5057168000000001
v -5.1626491999999997 -5 -4.9942321999999999
v -9.6073836999999997 -5 -2.1832299000000002
v -12.5108566 -5 1.7168121000000001
v -13.693306 -5 5.1722087999999999
v -13.155696900000001 -5 3.2117205000000002
v -12.9944878 -5 2.8379927
v -6.2725581999999998 -5 -4.4896897999999998
v -10.58497045 -5 -1.1470513
v -1.01615905 -5 -5.9526874999999997
v -6.0906973000000004 -5 -4.5810236999999994
v -10.305660249999999 -5 -1.44310235
v -10.02635005 -5 -1.7391534000000002
v -11.0892029 -5 -0.50931309999999996
v -7.1700268000000005 -5 -4.0125262500000005
v -13.9881706 -5 7.7968373500000006
v -6.4544181999999992 -5 -4.3983562000000003
v -6.8181390999999998 -5 -4.2156889500000005
v -10.84615135 -5 -0.83578825000000001
v -13.72864345 -5 5.3726239499999995
v -13.330797199999999 -5 3.7965922499999998
v -13.447530749999999 -5 4.1865067500000004
v -12.752672199999999 -5 2.2774024000000002
v -0.2035074 -5 -5.9763130999999996
v -0.61052130000000004 -5 -5.9763130999999996
v -11.3322544 -5 -0.18283795
v -12.91388325 -5 2.6511292500000003
v -13.21406365 -5 3.4066777500000001
v -13.799320250000001 -5 5.7734541999999998
v -13.07509235 -5 3.0248566000000001
v -2.4310741 5 -5.7873077000000004
v -4.0152454000000004 5 -5.4118528000000001
v -5.5451164000000004 5 -4.8550253000000003
v -7 5 -4.1243553000000004
v -8.3602179999999997 5 -3.2297239000000002
v -9.6073836999999997 5 -2.1832299000000002
v -12.5108566 5 1.7168121000000001
v -13.155696900000001 5 3.2117205000000002
v -13.9053345 5 6.3746995999999996
v -8.9838027999999994 5 -2.7064772000000001
v -12.833278699999999 5 2.4642658000000002
v -10.1660042 5 -1.5911279
v -6.2725581999999998 5 -4.4896897999999998
v -3.2231597999999999 5 -5.5995808
v -13.389163999999999 5 3.9915495000000001
v -4.7801799999999997 5 -5.1334391000000004
v -13.9526672 5 7.1873503000000003
v -11.2107277 5 -0.34607549999999998
v -12.103843700000001 5 1.0118437
v -1.6225510000000001 5 -5.8818102000000003
v -13.7639809 5 5.5730390999999999
v -7.6801089999999999 5 -3.6770396000000001
v -10.7246246 5 -0.99902579999999996
v -9.2955933000000002 5 -2.4448533000000001
v -8.6720085000000005 5 -2.9681004999999998
v -12.9944878 5 2.8379927
v -12.672065699999999 5 2.0905390000000001
v -9.8866958999999994 5 -1.8871789000000001
v -6.6362781999999996 5 -4.3070225999999998
v -5.9088364000000002 5 -4.6723575999999998
v -2.8271160000000002 5 -5.6934443000000003
v -3.6192017000000001 5 -5.5057168000000001
v -13.272430399999999 5 3.6016349999999999
v -13.5058975 5 4.3814640000000002
v -5.1626491999999997 5 -4.9942321999999999
v -4.3977126999999996 5 -5.2726459999999999
v -13.9290009 5 6.7810249000000002
v -13.9763374 5 7.5936747000000002
v -11.4537811 5 -0.0196004
v -11.900337199999999 5 0.65935900000000003
v -12.3073502 5 1.3643274000000001
v -1.2182903 5 -5.9290618999999998
v -13.8346596 5 5.9738692999999996
v -13.693306 5 5.1722087999999999
v -8.0201644999999999 5 -3.4533814999999999
v -7.3400536000000001 5 -3.9006972000000002
v -10.967678100000001 5 -0.67255069999999995
v -0.40701480000000001 5 -5.9763130999999996
v -0.81402779999999997 5 -5.9763130999999996
v -2.0268115999999998 5 -5.8345593999999998
v -13.6226311 5 4.7713795000000001
v -10.4453163 5 -1.2950767999999999
v -11.6968307 5 0.30687520000000001
v -13.86999705 5 6.17428445
v -13.9881706 5 7.7968373500000006
v -13.964502299999999 5 7.3905124999999998
v -13.799320250000001 5 5.7734541999999998
v -13.940834049999999 5 6.9841876000000003
v -11.0892029 5 -0.50931309999999996
v -12.20559695 5 1.18808555
v -13.72864345 5 5.3726239499999995
v -0.61052130000000004 5 -5.9763130999999996
v -13.5642643 5 4.5764217499999997
v -12.002090450000001 5 0.83560135000000002
v -11.798583949999999 5 0.48311710000000002
v -11.5753059 5 0.1436374
v -13.65796855 5 4.97179415
v -0.2035074 5 -5.9763130999999996
v -10.305660249999999 5 -1.44310235
v -10.58497045 5 -1.1470513
v -10.84615135 5 -0.83578825000000001
v -12.409103399999999 5 1.54056975
v -0.1017537 5 -5.9763130999999996
v -21.165061999999999 1.25 8
v -21.349231700000001 0.85505100000000001 8
v -20.606967900000001 -1.9151111000000001 8
v -20.25 -2.1650629000000001 8
v -18.144950900000001 -2.3492310000000001 8
v -17.75 -2.1650629000000001 8
v -17.393032099999999 -1.9151111000000001 8
v -17.084888500000002 -1.6069690999999999 8
v -16.834938000000001 -1.25 8
v -16.650768299999999 -0.85505010000000004 8
v -16.650768299999999 0.85505100000000001 8
v -16.834938000000001 1.25 8
v -17.084888500000002 1.6069689 8
v -21.462020899999999 0.43412109999999998 8
v -21.500003800000002 0 8
v -21.462020899999999 -0.43412020000000001 8
v -16.537982899999999 -0.43412020000000001 8
v -16.5 0 8
v -16.537982899999999 0.43412109999999998 8
v -19.855049099999999 2.3492321999999999 8
v -20.25 2.1650638999999998 8
v -17.75 2.1650638999999998 8
v -18.144950900000001 2.3492321999999999 8
v -20.915111499999998 1.6069689 8
v -21.165061999999999 -1.25 8
v -20.915111499999998 -1.6069690999999999 8
v -19.855049099999999 -2.3492310000000001 8
v -19.434120199999999 -2.4620190000000002 8
v -18.999996199999998 -2.5 8
v -18.999996199999998 2.5 8
v -19.434120199999999 2.4620190000000002 8
v -18.565883599999999 -2.4620190000000002 8
v -20.606967900000001 1.9151111000000001 8
v -17.393032099999999 1.9151111000000001 8
v -18.565883599999999 2.4620190000000002 8
v -21.349231700000001 -0.85505010000000004 8
v -18.355417250000002 -2.4056250000000001 8
v -17.947475449999999 -2.2571469500000001 8
v -16.518991450000001 0.21706054999999999 8
v -17.238960300000002 -1.7610401 8
v -17.947475449999999 2.2571480499999996 8
v -16.95991325 -1.4284845499999999 8
v -17.57151605 2.0400874999999998 8
v -16.95991325 1.42848445 8
v -16.594375599999999 0.64458605000000002 8
v -16.742853150000002 1.0525255 8
v -17.084888500000002 1.6069689 6
v -16.834938000000001 1.25 6
v -21.462020899999999 0.43412109999999998 6
v -21.500003800000002 0 6
v -21.462020899999999 -0.43412020000000001 6
v -21.349231700000001 0.85505100000000001 6
v -21.165061999999999 1.25 6
v -20.915111499999998 1.6069689 6
v -17.75 2.1650638999999998 6
v -16.834938000000001 -1.25 6
v -17.084888500000002 -1.6069690999999999 6
v -17.393032099999999 -1.9151111000000001 6
v -17.75 -2.1650629000000001 6
v -18.144950900000001 -2.3492310000000001 6
v -20.606967900000001 1.9151111000000001 6
v -20.25 2.1650638999999998 6
v -19.855049099999999 2.3492321999999999 6
v -18.999996199999998 2.5 6
v -18.565883599999999 2.4620190000000002 6
v -16.537982899999999 0.43412109999999998 6
v -16.5 0 6
v -16.537982899999999 -0.43412020000000001 6
v -19.855049099999999 -2.3492310000000001 6
v -20.25 -2.1650629000000001 6
v -20.606967900000001 -1.9151111000000001 6
v -20.915111499999998 -1.6069690999999999 6
v -18.565883599999999 -2.4620190000000002 6
v -18.999996199999998 -2.5 6
v -19.434120199999999 -2.4620190000000002 6
v -21.165061999999999 -1.25 6
v -21.349231700000001 -0.85505010000000004 6
v -16.650768299999999 0.85505100000000001 6
v -19.434120199999999 2.4620190000000002 6
v -17.393032099999999 1.9151111000000001 6
v -18.144950900000001 2.3492321999999999 6
v -16.650768299999999 -0.85505010000000004 6
v -17.947475449999999 2.2571480499999996 6
v -16.742853150000002 -1.0525250500000001 6
v -16.518991450000001 -0.21706010000000001 6
v -16.594375599999999 0.64458605000000002 6
v -17.57151605 2.0400874999999998 6
v -16.518991450000001 0.21706054999999999 6
v -16.742853150000002 1.0525255 6
v -16.594375599999999 -0.64458515000000005 6
v -16.95991325 1.42848445 6
v -16.566179249999998 -0.53935267500000006 6
v -16.566179249999998 0.53935357500000003 6
v -15.874507899999999 5 6
v -14.622216534190038 4.9999999003338731 5.9598408271041547
v -15.448945792623073 4.9999384301209835 5.9797900888947417
v -13.8346596 5 5.9738692999999996
v -15.030141726919148 4.9999957103372541 5.9651947853108123
v -14.225108767266528 4.9999999981147365 5.9639048467902871
v -15.442915601396152 -4.9999285436469592 5.9727484867422316
v -14.612470245737965 -4.999999367584909 5.9484409254719104
v -15.020389606839707 -4.9999907412963367 5.9537981887107962
v -13.8346596 -5 5.9738692999999996
v -15.874507899999999 -5 6
v -14.219088012106589 -4.9999999806062814 5.95685789665127
v -21.500003800000002 0 8
v -21.500003800000002 0 6
v -22.789671971219526 -0.23100258592816542 8
v -21.47839533018071 9.0507438721399873e-05 6.9999396667310734
v -24.000000000000007 -0.57000843638743914 7.6827029348459464
v -24.000000000000007 -0.42452490182422198 6.7836905208685794
v -23.602672931361028 -0.48074793296270973 8
v -24.000000000000007 -0.46863857749714494 7.0703917050263261
v -23.185730528131536 -0.13088109095652262 6.0000000000000018
v -21.937000939723276 -0.062754677870701797 8
v -21.927736223102119 -0.0077433307865239845 6.0000000000000018
v -23.20052715188179 -0.34675113712924899 8
v -21.468906191284848 -0.0011711138222117554 7.5003895148840005
v -21.46885511261549 0.001291163716919974 6.4995246015821024
v -24 -0.51733727820403352 7.3711699621115745
v -23.594323513093947 -0.21559856983052061 6.0000000000000018
v -22.368187226932235 -0.1370912153919121 8
v -22.772057862913336 -0.067091872481743531 6.0000000000000018
v -22.352475304818991 -0.027192518518083644 6.0000000000000018
v -24 -0.625 8
v -24 -0.3125 6
v -24.000000000000007 -0.38459776674504259 6.5118095642953335
v -24.000000000000007 -0.34774770273286792 6.2523531767278619
v 1.3877787807814457e-17 0.65677955609496252 -7.9862087323968156
v -1.3877787807814457e-17 -0.57212702697973938 -5.9759579489214776
v -16.5 0 8
v -11.818322419379278 0.18240507367724085 -2.7483388025276452
v -14.675496327163316 -0.05268895547296204 1.6891557934374672
v -12.932379752233746 0.056239294453112432 -1.378309081596703
v -13.9611356321385 -0.04212310228801476 0.23529896070868994
v -15.316883423768171 -0.12204373214184237 3.4618891746595515
v -14.349383346137643 -0.049584110789790969 0.95285408068020472
v -13.905593284143725 -0.34285777017079533 6.5163255044230546
v -9.3912105929430041 -1.0849963625848722 -2.3578792399308557
v -8.5815235796780662 -1.0018415978460511 -3.0389175054934983
v -10.921369564470741 -1.0541007766581973 -0.72888800768640771
v -12.013863894979337 -0.86496232484560076 0.85766514286878293
v -7.4446284369250728 -0.86759200461970032 -3.8303774361327525
v -9.6620357681295062 -1.1021778579141928 -2.1125679147869239
v -10.434995320503596 -1.1013971374587848 -1.3033014521182631
v -11.60145032399719 -0.94143136463709387 0.19179477236543946
v -7.1455138783417063 -0.83292297862329456 -4.0212331015056932
v -16.532447495045783 -0.098267252597688218 7.0107893132716832
v -8.0909805212045427 0.5138112873623577 -5.7809411101184827
v -15.461809473484767 -0.29210926637309853 8
v -15.811730102278894 -0.20094357925949768 8
v -12.913590776454921 -0.69517137987274591 2.6535802869884217
v -0.40216181658558159 -0.57844168195132761 -5.9731442480745391
v -6.5171938957913049 -0.76981001563953855 -4.3653994788108399
v -5.8766592002138989 -0.72220691014431126 -4.6864208725622785
v -12.409240688158064 -0.7940361274415404 1.5551146707298122
v -13.640053361049343 -0.44543021417332762 4.9334291849379497
v -7.7662781476828577 0.5053749476140148 -5.9603364564343648
v -7.4401888250941468 0.49617692238203548 -6.1383590733161668
v -7.112714704398944 0.48763777893672866 -6.3135819338499557
v -9.0210270079217274 0.51851982045503209 -5.1851751186654109
v -9.3210224946887461 0.50602812948574671 -4.9749084323732582
v -9.6203145437018058 0.48336526398155866 -4.762727580136529
v -3.7161705569078203 0.53916728090505983 -7.5467619085750588
v -4.0681997922204785 0.52948104238100813 -7.4512557105303259
v -4.4126260408228788 0.51858931661646468 -7.3534385710988319
v -0.88041632049387863 0.59181777407175529 -7.9505058776022022
v -3.3507426563699418 0.54595225862360641 -7.6302211884607649
v -2.574575560185 0.5497910588588768 -7.7661239253306711
v -2.9696121003493516 0.54910604039184241 -7.6991810216373775
v -6.1021914614875357 0.47931460426456307 -6.7634463402094225
v -5.4302792647010865 0.49025927393303331 -7.0337597961324647
v -9.1186938294523365 -1.0612571044084356 -2.5914933316066628
v -8.8492073142649659 -1.0328950410057969 -2.8183314839534255
v -13.066590073665051 -0.66316655185628215 3.0205298067515103
v -12.754870854488857 -0.72715866412612362 2.2853992512397463
v -6.1969386516695071 -0.74407775385019137 -4.5270892750768006
v -3.4769381869714806 -0.58631943095132799 -5.5381133424794893
v -3.1060866980228172 -0.57605574162675499 -5.6264728965149873
v -13.54519863602513 -0.49728149891040929 4.5382654642480755
v -13.434856933318656 -0.54678832566407198 4.1510452007817147
v -13.321325630013913 -0.59089474797577735 3.769158916128291
v -4.8860895404055551 -0.66352669920625207 -5.0941448929039979
v -4.1992087113544168 -0.62124375725078362 -5.3375277168864459
v -5.2221924923148766 -0.68355952966075106 -4.9696930560892323
v -4.5457853169505196 -0.64239856087434233 -5.2172790326475322
v -10.685925331978151 -1.0820166849383859 -1.0232894866178923
v -11.376767108662083 -0.9811136755473634 -0.12060400408327429
v -11.812668370390888 -0.90243692253532592 0.51871811710147953
v -12.212743489023586 -0.82895352766793451 1.2035564459399071
v -1.5862786686731849 -0.5806851195190661 -5.8851817274964127
v -1.9720790745476484 -0.57619260168944264 -5.8396931655274145
v -15.100628085810733 -0.08325606124739432 2.7600600486893354
v -3.8429740761263327 -0.60190451218365193 -5.4459950960613259
v -1.7471081259632186 0.55652299075288481 -7.8923609069894916
v -9.9159645629328939 0.45066425409008215 -4.5423856284093675
v -8.4113188643416734 0.52007756704413133 -5.5961432023830024
v -15.518422991561863 -0.1730235678733357 4.1595707065471679
v -5.5539127602342715 -0.70266863308022764 -4.8384203948239604
v -14.372933748765952 -0.54195009552913054 8
v -11.316363368270597 0.2420736390190637 -3.2917092774454551
v -13.356376219895115 0.0063808513259725301 -0.77960425291582747
v -15.21129644836024 -0.10134256354080586 3.1126091729875522
v -11.570970062756366 0.21032496567755282 -3.0194554501960251
v -12.060100893827805 0.1567338813656653 -2.4812314429605702
v -12.724851580994326 0.081926299391279406 -1.6644937476521284
v -4.7536996118506565 0.50800815561950929 -7.2552100616474222
v -1.3166266909007485 0.56964886249761859 -7.9251180427908468
v -13.762354845769245 -0.031317438329011529 -0.11524779515866559
v -15.668972732409905 -0.25496866893273029 4.8811268071147458
v -15.420421589755893 -0.1453748809046469 3.8096181033413452
v -10.481826267475309 0.36532546218895456 -4.0557988720810565
v -10.764387487438654 0.32045324214327253 -3.8059658577844564
v -13.978846985028888 -0.52519806515503109 7.6371940454774307
v -13.790740504247843 -0.35855306084933403 5.7328494113240929
v -2.732244820285854 -0.57163375252527648 -5.7121374803887131
v -13.934679795686808 -0.37636506405073278 6.8977341840343378
v -13.957371686234023 -0.43888350529882147 7.2707880853401843
v -13.856560835626532 -0.33832774815751698 6.1275288083018307
v -13.719969369398001 -0.39679677606480784 5.3333267763474694
v -12.295252576934857 0.13194624411567085 -2.2165131767336259
v -14.829057459555866 -0.058472850648767838 2.050199426186917
v -14.517093888273031 -0.050391823060686881 1.3220386114598588
v -8.7192193666900657 0.52240960447907137 -5.3939727050019712
v -13.143120133656787 0.030647638272908746 -1.0846605980045732
v -12.51666679931248 0.10715982423029036 -1.9453800917449424
v -0.44105400356659613 0.62197100919063986 -7.9730125040652187
v -13.563376609497896 -0.014843553941929702 -0.45620939052845844
v -15.805734223915579 -0.38824238904186931 5.6241325062206506
v -15.737285505922141 -0.31532061523015076 5.2505634129959429
v -15.598680597895784 -0.20828250015994032 4.5170263961781352
v -5.7653732114251373 0.48360607942042622 -6.9010739126217961
v -6.4411696153358156 0.47837412687044778 -6.623201002553909
v -11.045669863823129 0.27880050538857337 -3.5534736811684784
v -10.199940418013417 0.41009731915247616 -4.3027135443962088
v -14.742292812240525 -0.45969619819572294 8
v -15.105552638006019 -0.37734308632657731 8
v -16.157049742518002 -0.10282278539924714 8
v -2.3545961092633032 -0.57230614192985696 -5.7863370941546028
v -11.149556772084512 -1.019571481170322 -0.42673796197507319
v -5.0933797913486663 0.49848832205234195 -7.1522437549672464
v -9.9214312911119507 -1.1112715000653122 -1.8481128623692542
v -8.3096862329956203 -0.9694803952803005 -3.2497768713530446
v -7.73811524817717 -0.90231000662966943 -3.6381159336563504
v -14.0000038 -0.625 8
v -6.8361930096157586 -0.79976311603592931 -4.2008280271424736
v -12.590786678133927 -0.7600669924085397 1.9165464255997637
v -14.160034772787776 -0.047650540929387981 0.59107817028616827
v -10.178608912073436 -1.1111871688160115 -1.5771657324995645
v -8.0271224537822174 -0.93629843539259106 -3.4463150319406251
v -6.7802123330468298 0.48128744079725916 -6.4772797553264478
v -13.201961062818924 -0.62916224955802802 3.3919944523269221
v -14.975288625477178 -0.068725386289828966 2.4053789694864189
v -2.1667560572824653 0.55098126515615875 -7.8329841610873059
v -1.1966063341226159 -0.58332650482822546 -5.9271406411894585
v -0.80181154920890774 -0.58261514494400146 -5.9591262474361884
v -16.39513253737622 -0.28241861221642867 6.0000000000000018
v -16.518991450000001 -0.21706010000000001 6
v -16.535247508337068 -0.13551681432719032 6.675232539705231
v -16.008433585863891 -0.43344648591796919 6
v -16.140442784632707 -0.39239335000646636 6.0000000000000018
v -16.534307969426791 -0.06345642503378611 7.3435354916676543
v -16.269344946627207 -0.34204675850542943 6.0000000000000018
v -16.522971331758512 -0.030901086684061385 7.6730453662750815
v -16.534602326680627 -0.1752909584989461 6.3378200948131695
v -15.874507899999999 -0.46875 6
v -18.999996199999998 2.5 8
v -19.188100680695619 3.7649181747611031 8
v -19.219983712653988 2.4524938517376138 6.9991932398431214
v -19.386508665991947 5 6.6711272918986992
v -19.470494029481038 3.888661560643091 6.0000000000000018
v -19.366755560087711 5 7.0053811269803781
v -19.473302888957626 3.5245042551690391 6.0000000000000018
v -19.131939173934388 3.3462776295317855 8
v -19.460537271143309 4.2570600527610569 6.0000000000000018
v -19.326712539613531 2.4380258033516347 6.4989528672505905
v -19.110703649735761 2.4664417037321318 7.4998632228613804
v -19.348127765036949 5 7.3381931094319892
v -19.453228923046098 2.8122872345345074 6
v -19.330180497805088 5 7.6695568194520121
v -19.068196397203351 2.9241505281503972 8
v -19.23572760311804 4.1795613967829492 8
v -19.434120199999999 2.4620190000000002 6
v -19.467355525338618 3.1657843779050907 6.0000000000000018
v -19.276153393046563 4.5907676287226291 8
v -19.44601514588339 4.6279933483720814 6.0000000000000018
v -19.429409 5 6
v -19.407530432163465 5 6.3358243352389172
v -19.312501900000001 5 8
v 0 -5 -8
v 0 5 -8
v 0 -5 -5.9763130999999996
v 0 5 -5.9763130999999996
v -24 5 8
v -24 -5 8
v -14.0000038 -5 8
v -14.0000038 5 8
v -15.874507899999999 5 6
v -24 5 6
v -24 -5 6
v -15.874507899999999 -5 6
v -24 4.6875 8
v -14.0000038 -4.6875 8
v -14.0000038 4.6875 8
v -14.3125038 5 8
v -15.874507899999999 -4.6875 6
v -16.128429399999998 -5 6
v -16.128429399999998 5 6
v -24 -4.6875 6
v -24 -5 6.25
v -24 5 7.75
v -15.834514599999999 5 5.7813625499999999
v -23.746078499999999 5 6
v -15.874507899999999 4.6875 6
v -15.834514599999999 -5 5.7813625499999999
v -13.9881706 5 7.7968373500000006
v -23.6875 5 8
v -13.9881706 -5 7.7968373500000006
v -14.3125038 -5 8
v -24 4.6875 6
v -0.22192190000000001 5 -7.9876494500000002
v -23.746078499999999 -5 6
v -24 5 6.25
v -0.2035074 -5 -5.9763130999999996
v -24 -5 7.75
v -24 -4.6875 8
v -23.6875 -5 8
v -0.1017537 5 -5.9763130999999996
v -0.11096095 -5 -7.9938247249999996
l 18/18 8/8
l 8/8 20/20
l 20/20 3/3
l 3/3 5/5
l 5/5 1/1
l 1/1 6/6
l 6/6 19/19
l 19/19 13/13
l 13/13 17/17
l 17/17 11/11
l 11/11 21/21
l 21/21 14/14
l 14/14 10/10
l 10/10 2/2
l 2/2 7/7
l 7/7 15/15
l 15/15 9/9
l 9/9 4/4
l 4/4 22/22
l 22/22 12/12
l 12/12 16/16
l 39/39 31/31
l 31/31 28/28
l 28/28 30/30
l 30/30 24/24
l 24/24 34/34
l 34/34 27/27
l 27/27 36/36
l 36/36 23/23
l 23/23 37/37
l 37/37 29/29
l 29/29 35/35
l 35/35 25/25
l 25/25 32/32
l 32/32 26/26
l 26/26 40/40
l 40/40 33/33
l 33/33 38/38
l 57/57 50/50
l 50/50 45/45
l 45/45 48/48
l 48/48 42/42
l 42/42 46/46
l 46/46 54/54
l 54/54 55/55
l 55/55 41/41
l 41/41 51/51
l 51/51 43/43
l 43/43 47/47
l 47/47 52/52
l 52/52 49/49
l 49/49 44/44
l 44/44 53/53
l 53/53 56/56
l 73/73 69/69
l 69/69 77/77
l 77/77 62/62
l 62/62 71/71
l 71/71 72/72
l 72/72 65/65
l 65/65 63/63
l 63/63 66/66
l 66/66 81/81
l 81/81 75/75
l 75/75 78/78
l 78/78 58/58
l 58/58 80/80
l 80/80 76/76
l 76/76 79/79
l 79/79 67/67
l 67/67 60/60
l 60/60 64/64
l 64/64 59/59
l 59/59 68/68
l 68/68 61/61
l 61/61 70/70
l 70/70 74/74
l 97/97 92/92
l 92/92 94/94
l 94/94 91/91
l 91/91 83/83
l 83/83 87/87
l 87/87 93/93
l 93/93 100/100
l 100/100 96/96
l 96/96 99/99
l 99/99 82/82
l 82/82 90/90
l 90/90 86/86
l 86/86 89/89
l 89/89 84/84
l 84/84 88/88
l 88/88 85/85
l 85/85 95/95
l 95/95 98/98
l 117/117 108/108
l 108/108 104/104
l 104/104 115/115
l 115/115 102/102
l 102/102 112/112
l 112/112 106/106
l 106/106 109/109
l 109/109 101/101
l 101/101 111/111
l 111/111 105/105
l 105/105 110/110
l 110/110 103/103
l 103/103 113/113
l 113/113 107/107
l 107/107 114/114
l 114/114 116/116
l 134/134 123/123
l 123/123 120/120
l 120/120 122/122
l 122/122 128/128
l 128/128 127/127
l 127/127 119/119
l 119/119 124/124
l 124/124 126/126
l 126/126 132/132
l 132/132 118/118
l 118/118 130/130
l 130/130 131/131
l 131/131 129/129
l 129/129 121/121
l 121/121 125/125
l 125/125 133/133
l 150/150 146/146
l 146/146 140/140
l 140/140 144/144
l 144/144 137/137
l 137/137 143/143
l 143/143 138/138
l 138/138 142/142
l 142/142 135/135
l 135/135 141/141
l 141/141 139/139
l 139/139 145/145
l 145/145 136/136
l 136/136 148/148
l 148/148 149/149
l 149/149 147/147
l 147/147 151/151
l 156/156 152/152
l 152/152 153/153
l 153/153 154/154
l 154/154 155/155
l 160/160 158/158
l 158/158 157/157
l 157/157 159/159
l 159/159 161/161
l 232/232 187/187
l 187/187 172/172
l 172/172 186/186
l 186/186 201/201
l 201/201 239/239
l 239/239 195/195
l 195/195 228/228
l 228/228 175/175
l 175/175 194/194
l 194/194 222/222
l 222/222 202/202
l 202/202 218/218
l 218/218 184/184
l 184/184 206/206
l 206/206 185/185
l 185/185 211/211
l 211/211 242/242
l 242/242 196/196
l 196/196 226/226
l 226/226 204/204
l 204/204 243/243
l 243/243 197/197
l 197/197 168/168
l 168/168 214/214
l 214/214 210/210
l 210/210 245/245
l 245/245 208/208
l 208/208 244/244
l 244/244 178/178
l 178/178 167/167
l 167/167 181/181
l 181/181 170/170
l 170/170 182/182
l 182/182 166/166
l 166/166 198/198
l 198/198 176/176
l 176/176 199/199
l 199/199 240/240
l 240/240 203/203
l 203/203 230/230
l 230/230 212/212
l 212/212 223/223
l 223/223 169/169
l 169/169 231/231
l 231/231 177/177
l 177/177 238/238
l 238/238 207/207
l 207/207 241/241
l 241/241 183/183
l 183/183 224/224
l 224/224 171/171
l 171/171 233/233
l 233/233 200/200
l 200/200 165/165
l 165/165 189/189
l 189/189 221/221
l 221/221 205/205
l 205/205 234/234
l 234/234 188/188
l 188/188 215/215
l 215/215 164/164
l 164/164 213/213
l 213/213 179/179
l 179/179 229/229
l 229/229 209/209
l 209/209 219/219
l 219/219 180/180
l 180/180 236/236
l 236/236 163/163
l 163/163 237/237
l 237/237 193/193
l 193/193 225/225
l 225/225 174/174
l 174/174 220/220
l 220/220 192/192
l 192/192 217/217
l 217/217 162/162
l 162/162 235/235
l 235/235 191/191
l 191/191 227/227
l 227/227 173/173
l 173/173 190/190
l 190/190 216/216
l 304/304 279/279
l 279/279 263/263
l 263/263 309/309
l 309/309 280/280
l 280/280 302/302
l 302/302 246/246
l 246/246 281/281
l 281/281 264/264
l 264/264 297/297
l 297/297 282/282
l 282/282 303/303
l 303/303 247/247
l 247/247 315/315
l 315/315 267/267
l 267/267 257/257
l 257/257 316/316
l 316/316 272/272
l 272/272 299/299
l 299/299 296/296
l 296/296 277/277
l 277/277 262/262
l 262/262 278/278
l 278/278 308/308
l 308/308 294/294
l 294/294 307/307
l 307/307 275/275
l 275/275 311/311
l 311/311 259/259
l 259/259 313/313
l 313/313 295/295
l 295/295 318/318
l 318/318 293/293
l 293/293 314/314
l 314/314 269/269
l 269/269 255/255
l 255/255 268/268
l 268/268 248/248
l 248/248 286/286
l 286/286 266/266
l 266/266 285/285
l 285/285 249/249
l 249/249 305/305
l 305/305 274/274
l 274/274 310/310
l 310/310 258/258
l 258/258 317/317
l 317/317 273/273
l 273/273 300/300
l 300/300 250/250
l 250/250 271/271
l 271/271 256/256
l 256/256 270/270
l 270/270 251/251
l 251/251 283/283
l 283/283 292/292
l 292/292 284/284
l 284/284 252/252
l 252/252 276/276
l 276/276 260/260
l 260/260 291/291
l 291/291 253/253
l 253/253 290/290
l 290/290 265/265
l 265/265 289/289
l 289/289 254/254
l 254/254 312/312
l 312/312 287/287
l 287/287 306/306
l 306/306 261/261
l 261/261 298/298
l 298/298 288/288
l 288/288 301/301
l 301/301 319/319
l 388/388 347/347
l 347/347 389/389
l 389/389 320/320
l 320/320 374/374
l 374/374 363/363
l 363/363 339/339
l 339/339 364/364
l 364/364 321/321
l 321/321 350/350
l 350/350 333/333
l 333/333 365/365
l 365/365 322/322
l 322/322 353/353
l 353/353 335/335
l 335/335 366/366
l 366/366 323/323
l 323/323 349/349
l 349/349 375/375
l 375/375 372/372
l 372/372 381/381
l 381/381 348/348
l 348/348 382/382
l 382/382 324/324
l 324/324 379/379
l 379/379 362/362
l 362/362 341/341
l 341/341 361/361
l 361/361 325/325
l 325/325 343/343
l 343/343 330/330
l 330/330 342/342
l 342/342 367/367
l 367/367 346/346
l 346/346 377/377
l 377/377 332/332
l 332/332 376/376
l 376/376 345/345
l 345/345 373/373
l 373/373 326/326
l 326/326 383/383
l 383/383 356/356
l 356/356 378/378
l 378/378 337/337
l 337/337 390/390
l 390/390 357/357
l 357/357 327/327
l 327/327 359/359
l 359/359 338/338
l 338/338 358/358
l 358/358 368/368
l 368/368 344/344
l 344/344 387/387
l 387/387 331/331
l 331/331 391/391
l 391/391 371/371
l 371/371 394/394
l 394/394 370/370
l 370/370 392/392
l 392/392 351/351
l 351/351 385/385
l 385/385 334/334
l 334/334 386/386
l 386/386 352/352
l 352/352 328/328
l 328/328 369/369
l 369/369 384/384
l 384/384 340/340
l 340/340 393/393
l 393/393 360/360
l 360/360 329/329
l 329/329 354/354
l 354/354 336/336
l 336/336 355/355
l 355/355 380/380
l 449/449 432/432
l 432/432 450/450
l 450/450 411/411
l 411/411 452/452
l 452/452 431/431
l 431/431 403/403
l 403/403 448/448
l 448/448 437/437
l 437/437 451/451
l 451/451 415/415
l 415/415 455/455
l 455/455 438/438
l 438/438 461/461
l 461/461 445/445
l 445/445 457/457
l 457/457 428/428
l 428/428 409/409
l 409/409 427/427
l 427/427 402/402
l 402/402 420/420
l 420/420 405/405
l 405/405 421/421
l 421/421 401/401
l 401/401 466/466
l 466/466 435/435
l 435/435 454/454
l 454/454 413/413
l 413/413 458/458
l 458/458 434/434
l 434/434 459/459
l 459/459 447/447
l 447/447 460/460
l 460/460 433/433
l 433/433 412/412
l 412/412 453/453
l 453/453 441/441
l 441/441 465/465
l 465/465 417/417
l 417/417 464/464
l 464/464 446/446
l 446/446 463/463
l 463/463 406/406
l 406/406 422/422
l 422/422 400/400
l 400/400 418/418
l 418/418 404/404
l 404/404 419/419
l 419/419 399/399
l 399/399 439/439
l 439/439 416/416
l 416/416 440/440
l 440/440 398/398
l 398/398 423/423
l 423/423 407/407
l 407/407 424/424
l 424/424 397/397
l 397/397 429/429
l 429/429 410/410
l 410/410 430/430
l 430/430 396/396
l 396/396 426/426
l 426/426 408/408
l 408/408 425/425
l 425/425 395/395
l 395/395 444/444
l 444/444 414/414
l 414/414 436/436
l 436/436 443/443
l 443/443 456/456
l 456/456 442/442
l 442/442 462/462
l 462/462 467/467
l 468/468 469/469
l 469/469 481/481
l 481/481 482/482
l 482/482 483/483
l 483/483 503/503
l 503/503 492/492
l 492/492 493/493
l 493/493 470/470
l 470/470 471/471
l 471/471 494/494
l 494/494 495/495
l 495/495 496/496
l 496/496 499/499
l 499/499 504/504
l 504/504 472/472
l 472/472 505/505
l 505/505 473/473
l 473/473 474/474
l 474/474 507/507
l 507/507 475/475
l 475/475 509/509
l 509/509 476/476
l 476/476 477/477
l 477/477 484/484
l 484/484 485/485
l 485/485 506/506
l 506/506 486/486
l 486/486 512/512
l 512/512 478/478
l 478/478 513/513
l 513/513 479/479
l 479/479 511/511
l 511/511 480/480
l 480/480 501/501
l 501/501 510/510
l 510/510 489/489
l 489/489 508/508
l 508/508 490/490
l 490/490 502/502
l 502/502 497/497
l 497/497 498/498
l 498/498 487/487
l 487/487 488/488
l 488/488 500/500
l 500/500 491/491
l 491/491 468/468
l 514/514 547/547
l 547/547 554/554
l 554/554 522/522
l 522/522 550/550
l 550/550 548/548
l 548/548 532/532
l 532/532 531/531
l 531/531 546/546
l 546/546 530/530
l 530/530 529/529
l 529/529 528/528
l 528/528 521/521
l 521/521 520/520
l 520/520 519/519
l 519/519 516/516
l 516/516 517/517
l 517/517 518/518
l 518/518 544/544
l 544/544 543/543
l 543/543 539/539
l 539/539 538/538
l 538/538 537/537
l 537/537 536/536
l 536/536 542/542
l 542/542 541/541
l 541/541 540/540
l 540/540 527/527
l 527/527 526/526
l 526/526 525/525
l 525/525 524/524
l 524/524 523/523
l 523/523 551/551
l 551/551 549/549
l 549/549 557/557
l 557/557 559/559
l 559/559 535/535
l 535/535 552/552
l 552/552 534/534
l 534/534 555/555
l 555/555 533/533
l 533/533 560/560
l 560/560 553/553
l 553/553 545/545
l 545/545 556/556
l 556/556 515/515
l 515/515 558/558
l 558/558 514/514
l 561/561 563/563
l 563/563 565/565
l 565/565 562/562
l 562/562 566/566
l 566/566 564/564
l 571/571 567/567
l 567/567 569/569
l 569/569 568/568
l 568/568 572/572
l 572/572 570/570
l 591/591 583/583
l 583/583 574/574
l 574/574 586/586
l 586/586 576/576
l 576/576 585/585
l 585/585 573/573
l 573/573 582/582
l 582/582 589/589
l 589/589 575/575
l 575/575 584/584
l 584/584 579/579
l 579/579 592/592
l 592/592 577/577
l 577/577 587/587
l 587/587 580/580
l 580/580 578/578
l 578/578 594/594
l 594/594 595/595
l 595/595 593/593
l 593/593 588/588
l 588/588 581/581
l 581/581 590/590
l 590/590 591/591
l 633/633 693/693
l 693/693 632/632
l 632/632 674/674
l 674/674 661/661
l 661/661 720/720
l 720/720 635/635
l 635/635 636/636
l 636/636 634/634
l 634/634 629/629
l 629/629 630/630
l 630/630 631/631
l 631/631 673/673
l 673/673 707/707
l 707/707 638/638
l 638/638 698/698
l 698/698 637/637
l 637/637 699/699
l 699/699 717/717
l 717/717 625/625
l 625/625 624/624
l 624/624 623/623
l 623/623 614/614
l 614/614 663/663
l 663/663 690/690
l 690/690 626/626
l 626/626 627/627
l 627/627 628/628
l 628/628 662/662
l 662/662 701/701
l 701/701 678/678
l 678/678 679/679
l 679/679 700/700
l 700/700 667/667
l 667/667 670/670
l 670/670 597/597
l 597/597 671/671
l 671/671 687/687
l 687/687 692/692
l 692/692 672/672
l 672/672 599/599
l 599/599 691/691
l 691/691 668/668
l 668/668 694/694
l 694/694 675/675
l 675/675 600/600
l 600/600 714/714
l 714/714 602/602
l 602/602 689/689
l 689/689 598/598
l 598/598 688/688
l 688/688 719/719
l 719/719 659/659
l 659/659 669/669
l 669/669 601/601
l 601/601 677/677
l 677/677 664/664
l 664/664 697/697
l 697/697 676/676
l 676/676 696/696
l 696/696 695/695
l 695/695 733/733
l 733/733 727/727
l 727/727 728/728
l 728/728 730/730
l 730/730 724/724
l 724/724 725/725
l 725/725 732/732
l 732/732 726/726
l 726/726 613/613
l 613/613 729/729
l 729/729 731/731
l 731/731 596/596
l 596/596 704/704
l 704/704 616/616
l 616/616 615/615
l 615/615 703/703
l 703/703 702/702
l 702/702 666/666
l 666/666 711/711
l 711/711 680/680
l 680/680 684/684
l 684/684 683/683
l 683/683 603/603
l 603/603 685/685
l 685/685 681/681
l 681/681 686/686
l 686/686 622/622
l 622/622 646/646
l 646/646 647/647
l 647/647 648/648
l 648/648 718/718
l 718/718 641/641
l 641/641 617/617
l 617/617 642/642
l 642/642 713/713
l 713/713 621/621
l 621/621 656/656
l 656/656 607/607
l 607/607 655/655
l 655/655 611/611
l 611/611 654/654
l 654/654 706/706
l 706/706 606/606
l 606/606 653/653
l 653/653 610/610
l 610/610 715/715
l 715/715 708/708
l 708/708 609/609
l 609/609 604/604
l 604/604 639/639
l 639/639 640/640
l 640/640 605/605
l 605/605 709/709
l 709/709 716/716
l 716/716 710/710
l 710/710 608/608
l 608/608 612/612
l 612/612 712/712
l 712/712 619/619
l 619/619 643/643
l 643/643 620/620
l 620/620 665/665
l 665/665 651/651
l 651/651 649/649
l 649/649 652/652
l 652/652 650/650
l 650/650 660/660
l 660/660 644/644
l 644/644 645/645
l 645/645 682/682
l 682/682 705/705
l 705/705 658/658
l 658/658 657/657
l 657/657 721/721
l 721/721 722/722
l 722/722 618/618
l 618/618 723/723
l 752/752 749/749
l 749/749 735/735
l 735/735 741/741
l 741/741 748/748
l 748/748 734/734
l 734/734 744/744
l 744/744 736/736
l 736/736 743/743
l 743/743 750/750
l 750/750 746/746
l 746/746 751/751
l 751/751 740/740
l 740/740 738/738
l 738/738 742/742
l 742/742 753/753
l 753/753 754/754
l 754/754 755/755
l 755/755 737/737
l 737/737 739/739
l 739/739 745/745
l 745/745 747/747
l 747/747 756/756
l 756/756 752/752
l 757/757 821/821
l 757/757 831/831
l 758/758 858/858
l 758/758 860/860
l 759/759 822/822
l 759/759 845/845
l 760/760 823/823
l 760/760 824/824
l 761/761 828/828
l 761/761 832/832
l 762/762 834/834
l 762/762 853/853
l 763/763 829/829
l 763/763 830/830
l 764/764 851/851
l 764/764 877/877
l 765/765 842/842
l 765/765 850/850
l 766/766 840/840
l 766/766 854/854
l 767/767 848/848
l 767/767 876/876
l 768/768 827/827
l 768/768 833/833
l 769/769 790/790
l 769/769 799/799
l 770/770 793/793
l 770/770 818/818
l 771/771 790/790
l 771/771 798/798
l 772/772 809/809
l 772/772 872/872
l 773/773 803/803
l 773/773 841/841
l 774/774 825/825
l 774/774 826/826
l 775/775 786/786
l 775/775 859/859
l 776/776 795/795
l 776/776 843/843
l 777/777 861/861
l 777/777 869/869
l 778/778 793/793
l 778/778 802/802
l 779/779 867/867
l 779/779 874/874
l 780/780 781/781
l 780/780 784/784
l 781/781 863/863
l 782/782 805/805
l 782/782 835/835
l 783/783 842/842
l 783/783 864/864
l 784/784 796/796
l 785/785 806/806
l 785/785 875/875
l 786/786 798/798
l 787/787 840/840
l 787/787 856/856
l 788/788 856/856
l 788/788 865/865
l 789/789 804/804
l 789/789 865/865
l 791/791 817/817
l 791/791 866/866
l 792/792 817/817
l 792/792 827/827
l 794/794 866/866
l 794/794 868/868
l 795/795 839/839
l 796/796 805/805
l 797/797 843/843
l 797/797 867/867
l 799/799 873/873
l 800/800 813/813
l 800/800 815/815
l 801/801 841/841
l 801/801 869/869
l 802/802 813/813
l 803/803 833/833
l 804/804 812/812
l 806/806 864/864
l 807/807 855/855
l 807/807 857/857
l 808/808 848/848
l 808/808 872/872
l 809/809 849/849
l 810/810 851/851
l 810/810 871/871
l 811/811 849/849
l 811/811 870/870
l 812/812 818/818
l 814/814 857/857
l 814/814 871/871
l 815/815 868/868
l 816/816 859/859
l 816/816 863/863
l 819/819 873/873
l 819/819 874/874
l 820/820 839/839
l 820/820 875/875
l 821/821 757/757
l 822/822 759/759
l 823/823 760/760
l 824/824 760/760
l 825/825 774/774
l 826/826 774/774
l 828/828 761/761
l 829/829 763/763
l 830/830 763/763
l 831/831 757/757
l 832/832 761/761
l 834/834 762/762
l 835/835 764/764
l 836/836 761/761
l 836/836 761/761
l 837/837 774/774
l 837/837 774/774
l 838/838 760/760
l 838/838 760/760
l 844/844 757/757
l 844/844 757/757
l 845/845 759/759
l 846/846 759/759
l 846/846 759/759
l 847/847 762/762
l 847/847 762/762
l 850/850 765/765
l 852/852 763/763
l 852/852 763/763
l 853/853 762/762
l 854/854 766/766
l 855/855 878/878
l 858/858 758/758
l 860/860 758/758
l 861/861 767/767
l 862/862 758/758
l 862/862 758/758
l 870/870 765/765
l 876/876 767/767
l 877/877 764/764
l 878/878 766/766
l 896/896 886/886
l 886/886 898/898
l 898/898 881/881
l 881/881 883/883
l 883/883 879/879
l 879/879 884/884
l 884/884 897/897
l 897/897 891/891
l 891/891 895/895
l 895/895 889/889
l 889/889 899/899
l 899/899 892/892
l 892/892 888/888
l 888/888 880/880
l 880/880 885/885
l 885/885 893/893
l 893/893 887/887
l 887/887 882/882
l 882/882 900/900
l 900/900 890/890
l 890/890 894/894
l 917/917 909/909
l 909/909 906/906
l 906/906 908/908
l 908/908 902/902
l 902/902 912/912
l 912/912 905/905
l 905/905 914/914
l 914/914 901/901
l 901/901 915/915
l 915/915 907/907
l 907/907 913/913
l 913/913 903/903
l 903/903 910/910
l 910/910 904/904
l 904/904 918/918
l 918/918 911/911
l 911/911 916/916
l 935/935 928/928
l 928/928 923/923
l 923/923 926/926
l 926/926 920/920
l 920/920 924/924
l 924/924 932/932
l 932/932 933/933
l 933/933 919/919
l 919/919 929/929
l 929/929 921/921
l 921/921 925/925
l 925/925 930/930
l 930/930 927/927
l 927/927 922/922
l 922/922 931/931
l 931/931 934/934
l 951/951 947/947
l 947/947 955/955
l 955/955 940/940
l 940/940 949/949
l 949/949 950/950
l 950/950 943/943
l 943/943 941/941
l 941/941 944/944
l 944/944 959/959
l 959/959 953/953
l 953/953 956/956
l 956/956 936/936
l 936/936 958/958
l 958/958 954/954
l 954/954 957/957
l 957/957 945/945
l 945/945 938/938
l 938/938 942/942
l 942/942 937/937
l 937/937 946/946
l 946/946 939/939
l 939/939 948/948
l 948/948 952/952
l 975/975 970/970
l 970/970 972/972
l 972/972 969/969
l 969/969 961/961
l 961/961 965/965
l 965/965 971/971
l 971/971 978/978
l 978/978 974/974
l 974/974 977/977
l 977/977 960/960
l 960/960 968/968
l 968/968 964/964
l 964/964 967/967
l 967/967 962/962
l 962/962 966/966
l 966/966 963/963
l 963/963 973/973
l 973/973 976/976
l 995/995 986/986
l 986/986 982/982
l 982/982 993/993
l 993/993 980/980
l 980/980 990/990
l 990/990 984/984
l 984/984 987/987
l 987/987 979/979
l 979/979 989/989
l 989/989 983/983
l 983/983 988/988
l 988/988 981/981
l 981/981 991/991
l 991/991 985/985
l 985/985 992/992
l 992/992 994/994
l 1012/1012 1001/1001
l 1001/1001 998/998
l 998/998 1000/1000
l 1000/1000 1006/1006
l 1006/1006 1005/1005
l 1005/1005 997/997
l 997/997 1002/1002
l 1002/1002 1004/1004
l 1004/1004 1010/1010
l 1010/1010 996/996
l 996/996 1008/1008
l 1008/1008 1009/1009
l 1009/1009 1007/1007
l 1007/1007 999/999
l 999/999 1003/1003
l 1003/1003 1011/1011
l 1028/1028 1024/1024
l 1024/1024 1018/1018
l 1018/1018 1022/1022
l 1022/1022 1015/1015
l 1015/1015 1021/1021
l 1021/1021 1016/1016
l 1016/1016 1020/1020
l 1020/1020 1013/1013
l 1013/1013 1019/1019
l 1019/1019 1017/1017
l 1017/1017 1023/1023
l 1023/1023 1014/1014
l 1014/1014 1026/1026
l 1026/1026 1027/1027
l 1027/1027 1025/1025
l 1025/1025 1029/1029
l 1034/1034 1030/1030
l 1030/1030 1031/1031
l 1031/1031 1032/1032
l 1032/1032 1033/1033
l 1038/1038 1036/1036
l 1036/1036 1035/1035
l 1035/1035 1037/1037
l 1037/1037 1039/1039
l 1110/1110 1065/1065
l 1065/1065 1050/1050
l 1050/1050 1064/1064
l 1064/1064 1079/1079
l 1079/1079 1117/1117
l 1117/1117 1073/1073
l 1073/1073 1106/1106
l 1106/1106 1053/1053
l 1053/1053 1072/1072
l 1072/1072 1100/1100
l 1100/1100 1080/1080
l 1080/1080 1096/1096
l 1096/1096 1062/1062
l 1062/1062 1084/1084
l 1084/1084 1063/1063
l 1063/1063 1089/1089
l 1089/1089 1120/1120
l 1120/1120 1074/1074
l 1074/1074 1104/1104
l 1104/1104 1082/1082
l 1082/1082 1121/1121
l 1121/1121 1075/1075
l 1075/1075 1046/1046
l 1046/1046 1092/1092
l 1092/1092 1088/1088
l 1088/1088 1123/1123
l 1123/1123 1086/1086
l 1086/1086 1122/1122
l 1122/1122 1056/1056
l 1056/1056 1045/1045
l 1045/1045 1059/1059
l 1059/1059 1048/1048
l 1048/1048 1060/1060
l 1060/1060 1044/1044
l 1044/1044 1076/1076
l 1076/1076 1054/1054
l 1054/1054 1077/1077
l 1077/1077 1118/1118
l 1118/1118 1081/1081
l 1081/1081 1108/1108
l 1108/1108 1090/1090
l 1090/1090 1101/1101
l 1101/1101 1047/1047
l 1047/1047 1109/1109
l 1109/1109 1055/1055
l 1055/1055 1116/1116
l 1116/1116 1085/1085
l 1085/1085 1119/1119
l 1119/1119 1061/1061
l 1061/1061 1102/1102
l 1102/1102 1049/1049
l 1049/1049 1111/1111
l 1111/1111 1078/1078
l 1078/1078 1043/1043
l 1043/1043 1067/1067
l 1067/1067 1099/1099
l 1099/1099 1083/1083
l 1083/1083 1112/1112
l 1112/1112 1066/1066
l 1066/1066 1093/1093
l 1093/1093 1042/1042
l 1042/1042 1091/1091
l 1091/1091 1057/1057
l 1057/1057 1107/1107
l 1107/1107 1087/1087
l 1087/1087 1097/1097
l 1097/1097 1058/1058
l 1058/1058 1114/1114
l 1114/1114 1041/1041
l 1041/1041 1115/1115
l 1115/1115 1071/1071
l 1071/1071 1103/1103
l 1103/1103 1052/1052
l 1052/1052 1098/1098
l 1098/1098 1070/1070
l 1070/1070 1095/1095
l 1095/1095 1040/1040
l 1040/1040 1113/1113
l 1113/1113 1069/1069
l 1069/1069 1105/1105
l 1105/1105 1051/1051
l 1051/1051 1068/1068
l 1068/1068 1094/1094
l 1182/1182 1157/1157
l 1157/1157 1141/1141
l 1141/1141 1187/1187
l 1187/1187 1158/1158
l 1158/1158 1180/1180
l 1180/1180 1124/1124
l 1124/1124 1159/1159
l 1159/1159 1142/1142
l 1142/1142 1175/1175
l 1175/1175 1160/1160
l 1160/1160 1181/1181
l 1181/1181 1125/1125
l 1125/1125 1193/1193
l 1193/1193 1145/1145
l 1145/1145 1135/1135
l 1135/1135 1194/1194
l 1194/1194 1150/1150
l 1150/1150 1177/1177
l 1177/1177 1174/1174
l 1174/1174 1155/1155
l 1155/1155 1140/1140
l 1140/1140 1156/1156
l 1156/1156 1186/1186
l 1186/1186 1172/1172
l 1172/1172 1185/1185
l 1185/1185 1153/1153
l 1153/1153 1189/1189
l 1189/1189 1137/1137
l 1137/1137 1191/1191
l 1191/1191 1173/1173
l 1173/1173 1196/1196
l 1196/1196 1171/1171
l 1171/1171 1192/1192
l 1192/1192 1147/1147
l 1147/1147 1133/1133
l 1133/1133 1146/1146
l 1146/1146 1126/1126
l 1126/1126 1164/1164
l 1164/1164 1144/1144
l 1144/1144 1163/1163
l 1163/1163 1127/1127
l 1127/1127 1183/1183
l 1183/1183 1152/1152
l 1152/1152 1188/1188
l 1188/1188 1136/1136
l 1136/1136 1195/1195
l 1195/1195 1151/1151
l 1151/1151 1178/1178
l 1178/1178 1128/1128
l 1128/1128 1149/1149
l 1149/1149 1134/1134
l 1134/1134 1148/1148
l 1148/1148 1129/1129
l 1129/1129 1161/1161
l 1161/1161 1170/1170
l 1170/1170 1162/1162
l 1162/1162 1130/1130
l 1130/1130 1154/1154
l 1154/1154 1138/1138
l 1138/1138 1169/1169
l 1169/1169 1131/1131
l 1131/1131 1168/1168
l 1168/1168 1143/1143
l 1143/1143 1167/1167
l 1167/1167 1132/1132
l 1132/1132 1190/1190
l 1190/1190 1165/1165
l 1165/1165 1184/1184
l 1184/1184 1139/1139
l 1139/1139 1176/1176
l 1176/1176 1166/1166
l 1166/1166 1179/1179
l 1179/1179 1197/1197
l 1266/1266 1225/1225
l 1225/1225 1267/1267
l 1267/1267 1198/1198
l 1198/1198 1252/1252
l 1252/1252 1241/1241
l 1241/1241 1217/1217
l 1217/1217 1242/1242
l 1242/1242 1199/1199
l 1199/1199 1228/1228
l 1228/1228 1211/1211
l 1211/1211 1243/1243
l 1243/1243 1200/1200
l 1200/1200 1231/1231
l 1231/1231 1213/1213
l 1213/1213 1244/1244
l 1244/1244 1201/1201
l 1201/1201 1227/1227
l 1227/1227 1253/1253
l 1253/1253 1250/1250
l 1250/1250 1259/1259
l 1259/1259 1226/1226
l 1226/1226 1260/1260
l 1260/1260 1202/1202
l 1202/1202 1257/1257
l 1257/1257 1240/1240
l 1240/1240 1219/1219
l 1219/1219 1239/1239
l 1239/1239 1203/1203
l 1203/1203 1221/1221
l 1221/1221 1208/1208
l 1208/1208 1220/1220
l 1220/1220 1245/1245
l 1245/1245 1224/1224
l 1224/1224 1255/1255
l 1255/1255 1210/1210
l 1210/1210 1254/1254
l 1254/1254 1223/1223
l 1223/1223 1251/1251
l 1251/1251 1204/1204
l 1204/1204 1261/1261
l 1261/1261 1234/1234
l 1234/1234 1256/1256
l 1256/1256 1215/1215
l 1215/1215 1268/1268
l 1268/1268 1235/1235
l 1235/1235 1205/1205
l 1205/1205 1237/1237
l 1237/1237 1216/1216
l 1216/1216 1236/1236
l 1236/1236 1246/1246
l 1246/1246 1222/1222
l 1222/1222 1265/1265
l 1265/1265 1209/1209
l 1209/1209 1269/1269
l 1269/1269 1249/1249
l 1249/1249 1272/1272
l 1272/1272 1248/1248
l 1248/1248 1270/1270
l 1270/1270 1229/1229
l 1229/1229 1263/1263
l 1263/1263 1212/1212
l 1212/1212 1264/1264
l 1264/1264 1230/1230
l 1230/1230 1206/1206
l 1206/1206 1247/1247
l 1247/1247 1262/1262
l 1262/1262 1218/1218
l 1218/1218 1271/1271
l 1271/1271 1238/1238
l 1238/1238 1207/1207
l 1207/1207 1232/1232
l 1232/1232 1214/1214
l 1214/1214 1233/1233
l 1233/1233 1258/1258
l 1327/1327 1310/1310
l 1310/1310 1328/1328
l 1328/1328 1289/1289
l 1289/1289 1330/1330
l 1330/1330 1309/1309
l 1309/1309 1281/1281
l 1281/1281 1326/1326
l 1326/1326 1315/1315
l 1315/1315 1329/1329
l 1329/1329 1293/1293
l 1293/1293 1333/1333
l 1333/1333 1316/1316
l 1316/1316 1339/1339
l 1339/1339 1323/1323
l 1323/1323 1335/1335
l 1335/1335 1306/1306
l 1306/1306 1287/1287
l 1287/1287 1305/1305
l 1305/1305 1280/1280
l 1280/1280 1298/1298
l 1298/1298 1283/1283
l 1283/1283 1299/1299
l 1299/1299 1279/1279
l 1279/1279 1344/1344
l 1344/1344 1313/1313
l 1313/1313 1332/1332
l 1332/1332 1291/1291
l 1291/1291 1336/1336
l 1336/1336 1312/1312
l 1312/1312 1337/1337
l 1337/1337 1325/1325
l 1325/1325 1338/1338
l 1338/1338 1311/1311
l 1311/1311 1290/1290
l 1290/1290 1331/1331
l 1331/1331 1319/1319
l 1319/1319 1343/1343
l 1343/1343 1295/1295
l 1295/1295 1342/1342
l 1342/1342 1324/1324
l 1324/1324 1341/1341
l 1341/1341 1284/1284
l 1284/1284 1300/1300
l 1300/1300 1278/1278
l 1278/1278 1296/1296
l 1296/1296 1282/1282
l 1282/1282 1297/1297
l 1297/1297 1277/1277
l 1277/1277 1317/1317
l 1317/1317 1294/1294
l 1294/1294 1318/1318
l 1318/1318 1276/1276
l 1276/1276 1301/1301
l 1301/1301 1285/1285
l 1285/1285 1302/1302
l 1302/1302 1275/1275
l 1275/1275 1307/1307
l 1307/1307 1288/1288
l 1288/1288 1308/1308
l 1308/1308 1274/1274
l 1274/1274 1304/1304
l 1304/1304 1286/1286
l 1286/1286 1303/1303
l 1303/1303 1273/1273
l 1273/1273 1322/1322
l 1322/1322 1292/1292
l 1292/1292 1314/1314
l 1314/1314 1321/1321
l 1321/1321 1334/1334
l 1334/1334 1320/1320
l 1320/1320 1340/1340
l 1340/1340 1345/1345
l 1346/1346 1347/1347
l 1347/1347 1359/1359
l 1359/1359 1360/1360
l 1360/1360 1361/1361
l 1361/1361 1381/1381
l 1381/1381 1370/1370
l 1370/1370 1371/1371
l 1371/1371 1348/1348
l 1348/1348 1349/1349
l 1349/1349 1372/1372
l 1372/1372 1373/1373
l 1373/1373 1374/1374
l 1374/1374 1377/1377
l 1377/1377 1382/1382
l 1382/1382 1350/1350
l 1350/1350 1383/1383
l 1383/1383 1351/1351
l 1351/1351 1352/1352
l 1352/1352 1385/1385
l 1385/1385 1353/1353
l 1353/1353 1387/1387
l 1387/1387 1354/1354
l 1354/1354 1355/1355
l 1355/1355 1362/1362
l 1362/1362 1363/1363
l 1363/1363 1384/1384
l 1384/1384 1364/1364
l 1364/1364 1390/1390
l 1390/1390 1356/1356
l 1356/1356 1391/1391
l 1391/1391 1357/1357
l 1357/1357 1389/1389
l 1389/1389 1358/1358
l 1358/1358 1379/1379
l 1379/1379 1388/1388
l 1388/1388 1367/1367
l 1367/1367 1386/1386
l 1386/1386 1368/1368
l 1368/1368 1380/1380
l 1380/1380 1375/1375
l 1375/1375 1376/1376
l 1376/1376 1365/1365
l 1365/1365 1366/1366
l 1366/1366 1378/1378
l 1378/1378 1369/1369
l 1369/1369 1346/1346
l 1392/1392 1425/1425
l 1425/1425 1432/1432
l 1432/1432 1400/1400
l 1400/1400 1428/1428
l 1428/1428 1426/1426
l 1426/1426 1410/1410
l 1410/1410 1409/1409
l 1409/1409 1424/1424
l 1424/1424 1408/1408
l 1408/1408 1407/1407
l 1407/1407 1406/1406
l 1406/1406 1399/1399
l 1399/1399 1398/1398
l 1398/1398 1397/1397
l 1397/1397 1394/1394
l 1394/1394 1395/1395
l 1395/1395 1396/1396
l 1396/1396 1422/1422
l 1422/1422 1421/1421
l 1421/1421 1417/1417
l 1417/1417 1416/1416
l 1416/1416 1415/1415
l 1415/1415 1414/1414
l 1414/1414 1420/1420
l 1420/1420 1419/1419
l 1419/1419 1418/1418
l 1418/1418 1405/1405
l 1405/1405 1404/1404
l 1404/1404 1403/1403
l 1403/1403 1402/1402
l 1402/1402 1401/1401
l 1401/1401 1429/1429
l 1429/1429 1427/1427
l 1427/1427 1435/1435
l 1435/1435 1437/1437
l 1437/1437 1413/1413
l 1413/1413 1430/1430
l 1430/1430 1412/1412
l 1412/1412 1433/1433
l 1433/1433 1411/1411
l 1411/1411 1438/1438
l 1438/1438 1431/1431
l 1431/1431 1423/1423
l 1423/1423 1434/1434
l 1434/1434 1393/1393
l 1393/1393 1436/1436
l 1436/1436 1392/1392
l 1439/1439 1441/1441
l 1441/1441 1443/1443
l 1443/1443 1440/1440
l 1440/1440 1444/1444
l 1444/1444 1442/1442
l 1449/1449 1445/1445
l 1445/1445 1447/1447
l 1447/1447 1446/1446
l 1446/1446 1450/1450
l 1450/1450 1448/1448
l 1469/1469 1461/1461
l 1461/1461 1452/1452
l 1452/1452 1464/1464
l 1464/1464 1454/1454
l 1454/1454 1463/1463
l 1463/1463 1451/1451
l 1451/1451 1460/1460
l 1460/1460 1467/1467
l 1467/1467 1453/1453
l 1453/1453 1462/1462
l 1462/1462 1457/1457
l 1457/1457 1470/1470
l 1470/1470 1455/1455
l 1455/1455 1465/1465
l 1465/1465 1458/1458
l 1458/1458 1456/1456
l 1456/1456 1472/1472
l 1472/1472 1473/1473
l 1473/1473 1471/1471
l 1471/1471 1466/1466
l 1466/1466 1459/1459
l 1459/1459 1468/1468
l 1468/1468 1469/1469
l 1474/1474 1572/1572
l 1572/1572 1512/1512
l 1512/1512 1553/1553
l 1553/1553 1540/1540
l 1540/1540 1599/1599
l 1599/1599 1514/1514
l 1514/1514 1515/1515
l 1515/1515 1513/1513
l 1513/1513 1509/1509
l 1509/1509 1510/1510
l 1510/1510 1511/1511
l 1511/1511 1552/1552
l 1552/1552 1586/1586
l 1586/1586 1517/1517
l 1517/1517 1577/1577
l 1577/1577 1516/1516
l 1516/1516 1578/1578
l 1578/1578 1596/1596
l 1596/1596 1505/1505
l 1505/1505 1504/1504
l 1504/1504 1503/1503
l 1503/1503 1494/1494
l 1494/1494 1542/1542
l 1542/1542 1569/1569
l 1569/1569 1506/1506
l 1506/1506 1507/1507
l 1507/1507 1508/1508
l 1508/1508 1541/1541
l 1541/1541 1580/1580
l 1580/1580 1557/1557
l 1557/1557 1558/1558
l 1558/1558 1579/1579
l 1579/1579 1546/1546
l 1546/1546 1549/1549
l 1549/1549 1477/1477
l 1477/1477 1550/1550
l 1550/1550 1566/1566
l 1566/1566 1571/1571
l 1571/1571 1551/1551
l 1551/1551 1479/1479
l 1479/1479 1570/1570
l 1570/1570 1547/1547
l 1547/1547 1573/1573
l 1573/1573 1554/1554
l 1554/1554 1480/1480
l 1480/1480 1593/1593
l 1593/1593 1482/1482
l 1482/1482 1568/1568
l 1568/1568 1478/1478
l 1478/1478 1567/1567
l 1567/1567 1598/1598
l 1598/1598 1538/1538
l 1538/1538 1548/1548
l 1548/1548 1481/1481
l 1481/1481 1556/1556
l 1556/1556 1543/1543
l 1543/1543 1576/1576
l 1576/1576 1555/1555
l 1555/1555 1575/1575
l 1575/1575 1574/1574
l 1574/1574 1611/1611
l 1611/1611 1605/1605
l 1605/1605 1606/1606
l 1606/1606 1608/1608
l 1608/1608 1602/1602
l 1602/1602 1603/1603
l 1603/1603 1610/1610
l 1610/1610 1604/1604
l 1604/1604 1493/1493
l 1493/1493 1607/1607
l 1607/1607 1609/1609
l 1609/1609 1476/1476
l 1476/1476 1583/1583
l 1583/1583 1496/1496
l 1496/1496 1495/1495
l 1495/1495 1582/1582
l 1582/1582 1581/1581
l 1581/1581 1545/1545
l 1545/1545 1590/1590
l 1590/1590 1559/1559
l 1559/1559 1563/1563
l 1563/1563 1562/1562
l 1562/1562 1483/1483
l 1483/1483 1564/1564
l 1564/1564 1560/1560
l 1560/1560 1565/1565
l 1565/1565 1502/1502
l 1502/1502 1525/1525
l 1525/1525 1526/1526
l 1526/1526 1527/1527
l 1527/1527 1597/1597
l 1597/1597 1520/1520
l 1520/1520 1497/1497
l 1497/1497 1521/1521
l 1521/1521 1592/1592
l 1592/1592 1501/1501
l 1501/1501 1535/1535
l 1535/1535 1487/1487
l 1487/1487 1534/1534
l 1534/1534 1491/1491
l 1491/1491 1533/1533
l 1533/1533 1585/1585
l 1585/1585 1486/1486
l 1486/1486 1532/1532
l 1532/1532 1490/1490
l 1490/1490 1594/1594
l 1594/1594 1587/1587
l 1587/1587 1489/1489
l 1489/1489 1484/1484
l 1484/1484 1518/1518
l 1518/1518 1519/1519
l 1519/1519 1485/1485
l 1485/1485 1588/1588
l 1588/1588 1595/1595
l 1595/1595 1589/1589
l 1589/1589 1488/1488
l 1488/1488 1492/1492
l 1492/1492 1591/1591
l 1591/1591 1499/1499
l 1499/1499 1522/1522
l 1522/1522 1500/1500
l 1500/1500 1544/1544
l 1544/1544 1530/1530
l 1530/1530 1528/1528
l 1528/1528 1531/1531
l 1531/1531 1529/1529
l 1529/1529 1539/1539
l 1539/1539 1523/1523
l 1523/1523 1524/1524
l 1524/1524 1561/1561
l 1561/1561 1584/1584
l 1584/1584 1537/1537
l 1537/1537 1536/1536
l 1536/1536 1600/1600
l 1600/1600 1601/1601
l 1601/1601 1498/1498
l 1498/1498 1475/1475
l 1630/1630 1627/1627
l 1627/1627 1613/1613
l 1613/1613 1619/1619
l 1619/1619 1626/1626
l 1626/1626 1612/1612
l 1612/1612 1622/1622
l 1622/1622 1614/1614
l 1614/1614 1621/1621
l 1621/1621 1628/1628
l 1628/1628 1624/1624
l 1624/1624 1629/1629
l 1629/1629 1618/1618
l 1618/1618 1616/1616
l 1616/1616 1620/1620
l 1620/1620 1631/1631
l 1631/1631 1632/1632
l 1632/1632 1633/1633
l 1633/1633 1615/1615
l 1615/1615 1617/1617
l 1617/1617 1623/1623
l 1623/1623 1625/1625
l 1625/1625 1634/1634
l 1634/1634 1630/1630
l 1639/1639 1647/1647
l 1639/1639 1656/1656
l 1640/1640 1670/1670
l 1640/1640 1671/1671
l 1641/1641 1648/1648
l 1641/1641 1663/1663
l 1642/1642 1649/1649
l 1642/1642 1650/1650
l 1643/1643 1653/1653
l 1643/1643 1657/1657
l 1644/1644 1658/1658
l 1644/1644 1668/1668
l 1645/1645 1654/1654
l 1645/1645 1655/1655
l 1635/1635 1674/1674
l 1636/1636 1666/1666
l 1637/1637 1669/1669
l 1638/1638 1673/1673
l 1646/1646 1651/1651
l 1646/1646 1652/1652
l 1647/1647 1639/1639
l 1648/1648 1641/1641
l 1649/1649 1642/1642
l 1650/1650 1642/1642
l 1651/1651 1646/1646
l 1652/1652 1646/1646
l 1653/1653 1643/1643
l 1654/1654 1645/1645
l 1655/1655 1645/1645
l 1656/1656 1639/1639
l 1657/1657 1643/1643
l 1658/1658 1644/1644
l 1659/1659 1643/1643
l 1659/1659 1643/1643
l 1660/1660 1646/1646
l 1660/1660 1646/1646
l 1661/1661 1642/1642
l 1661/1661 1642/1642
l 1662/1662 1639/1639
l 1662/1662 1639/1639
l 1663/1663 1641/1641
l 1664/1664 1641/1641
l 1664/1664 1641/1641
l 1665/1665 1644/1644
l 1665/1665 1644/1644
l 1666/1666 1636/1636
l 1667/1667 1645/1645
l 1667/1667 1645/1645
l 1668/1668 1644/1644
l 1669/1669 1637/1637
l 1670/1670 1640/1640
l 1671/1671 1640/1640
l 1672/1672 1640/1640
l 1672/1672 1640/1640
l 1673/1673 1638/1638
l 1674/1674 1635/1635
