v 0.30231791699999999 0.027548518000000001 0.41748070700000001
v 0.30231791699999999 -0.027548518000000001 0.41748070700000001
v 0.30231791699999999 -0.064279884100000004 0.41748070700000001
v 0.30231791699999999 0.064279884100000004 0.41748070700000001
v 0.30231791699999999 0.045914214100000003 0.41748070700000001
v 0.30231791699999999 -0.045914214100000003 0.41748070700000001
v 0.30231791699999999 0.0091828480400000002 0.41748070700000001
v 0.30231791699999999 -0.0091828480400000002 0.41748070700000001
v 0.30231791699999999 -0.073462732150000001 0.41748070700000001
v 0.30231791699999999 0.073462732150000001 0.41748070700000001
v 0.25571119799999997 -0.082645580199999999 0.60054516800000002
v 0.26037186400000001 -0.082645580199999999 0.58223873400000004
v 0.27901455800000002 -0.082645580199999999 0.50901293800000003
v 0.26969319600000002 -0.082645580199999999 0.54562586499999999
v 0.27435389199999999 -0.082645580199999999 0.52731937200000001
v 0.29299655600000002 -0.082645580199999999 0.45409360500000001
v 0.288335919 -0.082645580199999999 0.47240003899999999
v 0.25105050200000001 -0.082645580199999999 0.618851602
v 0.24638985099999999 -0.082645580199999999 0.63715809599999995
v 0.23706848899999999 -0.082645580199999999 0.67377096400000003
v 0.24172918500000001 -0.082645580199999999 0.65546453000000005
v 0.297657222 -0.082645580199999999 0.43578717099999997
v 0.283675224 -0.082645580199999999 0.49070650300000002
v 0.26503252999999999 -0.082645580199999999 0.56393230000000005
v 0.231508881 -0.082645580199999999 0.69245904700000005
v -0.22751063099999999 -0.082645580199999999 0.52350866799999995
v -0.21962802100000001 -0.082645580199999999 0.50567567300000005
v 0.224478647 -0.082645580199999999 0.71064501999999996
v -0.23394806700000001 -0.082645580199999999 0.541912854
v 0.216022462 -0.082645580199999999 0.72821331
v -0.23889932 -0.082645580199999999 0.56077122700000004
v -0.24233304 -0.082645580199999999 0.57996398199999999
v 0.206193984 -0.082645580199999999 0.74505239700000003
v 0.195055693 -0.082645580199999999 0.76105523100000005
v 0.18267835700000001 -0.082645580199999999 0.77612024499999999
v 0.16914057699999999 -0.082645580199999999 0.79015165600000004
v -0.230531707 -0.082645580199999999 0.69526529299999995
v 0.15452833499999999 -0.082645580199999999 0.803060412
v -0.22328108499999999 -0.082645580199999999 0.71336448200000002
v -0.236317888 -0.082645580199999999 0.67664611299999999
v 0.138934478 -0.082645580199999999 0.81476444000000003
v -0.240602911 -0.082645580199999999 0.65762531800000001
v 0.122458078 -0.082645580199999999 0.82518947099999995
v 0.10520376300000001 -0.082645580199999999 0.83426922599999997
v -0.24335953599999999 -0.082645580199999999 0.63832360499999996
v 0.087281152599999995 -0.082645580199999999 0.84194600600000002
v 0.068804100199999996 -0.082645580199999999 0.84817105500000001
v 0.049889974300000001 -0.082645580199999999 0.85290485599999999
v 0.030658934299999999 -0.082645580199999999 0.85611736800000005
v -0.24422735000000001 -0.082645580199999999 0.59936922800000003
v -0.24457023999999999 -0.082645580199999999 0.61886376099999996
v -0.15221338000000001 -0.082645580199999999 0.80492341499999998
v -0.166981354 -0.082645580199999999 0.792193115
v -0.136478513 -0.082645580199999999 0.81643718499999995
v -0.119876698 -0.082645580199999999 0.82666128900000002
v -0.102513373 -0.082645580199999999 0.83553075799999998
v -0.084498822700000004 -0.082645580199999999 0.84298932599999998
v -0.065947532700000006 -0.082645580199999999 0.84898948699999999
v -0.046977311399999999 -0.082645580199999999 0.853493214
v -0.027708655200000001 -0.082645580199999999 0.85647189599999995
v -0.0082640117000000006 -0.082645580199999999 0.85790657999999997
v 0.0112331351 -0.082645580199999999 0.85778814599999997
v -0.18068856 -0.082645580199999999 0.77832716700000004
v -0.19324798900000001 -0.082645580199999999 0.76341360800000002
v -0.20457982999999999 -0.082645580199999999 0.74754720900000005
v -0.214612097 -0.082645580199999999 0.73082876200000002
v 0.103767343 -0.082645580199999999 -0.153568178
v 0.095256932099999997 -0.082645580199999999 -0.13621966499999999
v -0.040909536199999999 -0.082645580199999999 0.141356707
v -0.14303438399999999 -0.082645580199999999 0.34953895200000001
v 0.188871384 -0.082645580199999999 -0.327053398
v 0.18036097300000001 -0.082645580199999999 -0.30970490000000001
v -0.049419920899999997 -0.082645580199999999 0.15870522000000001
v 0.214402601 -0.082645580199999999 -0.37909895199999999
v -0.151544765 -0.082645580199999999 0.36688747999999999
v 0.086746543600000003 -0.082645580199999999 -0.118871145
v 0.17185056200000001 -0.082645580199999999 -0.29235637199999998
v 0.163340181 -0.082645580199999999 -0.27500781400000002
v 0.120788142 -0.082645580199999999 -0.188265234
v 0.11227775399999999 -0.082645580199999999 -0.17091669100000001
v -0.19409680400000001 -0.082645580199999999 0.45363008999999999
v 0.15482977000000001 -0.082645580199999999 -0.25765931600000003
v 0.14631936000000001 -0.082645580199999999 -0.240310788
v 0.2484442 -0.082645580199999999 -0.44849306300000003
v 0.23993381899999999 -0.082645580199999999 -0.43114453600000002
v 0.078236132900000005 -0.082645580199999999 -0.10152262400000001
v 0.069725722099999998 -0.082645580199999999 -0.084174104
v 0.19738178000000001 -0.082645580199999999 -0.34440192600000002
v 0.23142339300000001 -0.082645580199999999 -0.41379603700000001
v 0.22291298200000001 -0.082645580199999999 -0.39644751
v -0.202607185 -0.082645580199999999 0.47097861800000002
v -0.100482345 -0.082645580199999999 0.26279634200000002
v -0.108992755 -0.082645580199999999 0.28014486999999999
v -0.066440746199999998 -0.082645580199999999 0.19340226099999999
v 0.061215333599999998 -0.082645580199999999 -0.066825561199999994
v 0.052704922899999999 -0.082645580199999999 -0.049477044499999998
v 0.26546502100000002 -0.082645580199999999 -0.48319008899999999
v -0.21111759499999999 -0.082645580199999999 0.48832714599999999
v 0.25695461000000003 -0.082645580199999999 -0.46584156199999999
v -0.083461545400000003 -0.082645580199999999 0.22809928700000001
v 0.044194508299999997 -0.082645580199999999 -0.032128527800000001
v 0.00164249958 -0.082645580199999999 0.054614085700000002
v -0.17707598199999999 -0.082645580199999999 0.41893303399999998
v -0.18558639299999999 -0.082645580199999999 0.43628156200000001
v -0.023888710899999999 -0.082645580199999999 0.106659643
v 0.018663298299999999 -0.082645580199999999 0.0199170262
v 0.20589219 -0.082645580199999999 -0.361750454
v -0.126013562 -0.082645580199999999 0.31484189600000001
v -0.074951134599999997 -0.082645580199999999 0.210750774
v -0.13452397299999999 -0.082645580199999999 0.33219042399999998
v 0.010152885699999999 -0.082645580199999999 0.037265568999999998
v 0.027173711 -0.082645580199999999 0.0025685075700000001
v -0.032399125399999999 -0.082645580199999999 0.12400815599999999
v -0.015378325199999999 -0.082645580199999999 0.089311122899999998
v -0.11750316600000001 -0.082645580199999999 0.29749339800000002
v -0.057930335399999998 -0.082645580199999999 0.17605373299999999
v -0.091971956199999996 -0.082645580199999999 0.24544782900000001
v -0.16005517499999999 -0.082645580199999999 0.38423600800000002
v -0.16856558599999999 -0.082645580199999999 0.40158450600000001
v 0.13780896400000001 -0.082645580199999999 -0.22296227499999999
v 0.12929855300000001 -0.082645580199999999 -0.20561376200000001
v 0.035684097599999999 -0.082645580199999999 -0.014780010099999999
v -0.0068679125999999997 -0.082645580199999999 0.071962602400000006
v -0.28114187699999998 -0.082645580199999999 -0.70500958000000002
v 0.27343675499999998 -0.082645580199999999 -0.50088703599999995
v -0.28654539600000001 -0.082645580199999999 -0.68636739300000005
v 0.280230284 -0.082645580199999999 -0.51906883699999995
v -0.27452692400000001 -0.082645580199999999 -0.72325712399999997
v -0.26672908699999998 -0.082645580199999999 -0.74103134900000001
v -0.25778192300000002 -0.082645580199999999 -0.75825571999999997
v 0.28581631200000002 -0.082645580199999999 -0.53765714200000003
v 0.29497903599999997 -0.082645580199999999 -0.633851528
v 0.29568427800000002 -0.082645580199999999 -0.61445480600000002
v 0.29300275399999998 -0.082645580199999999 -0.65316021400000002
v 0.28976395700000002 -0.082645580199999999 -0.67229759700000002
v 0.285276592 -0.082645580199999999 -0.69118124199999997
v 0.29511544099999998 -0.082645580199999999 -0.59505367300000001
v 0.27955999999999998 -0.082645580199999999 -0.70972985
v 0.27263876799999998 -0.082645580199999999 -0.72786343099999995
v 0.26454278799999997 -0.082645580199999999 -0.74550384300000005
v 0.2553069 -0.082645580199999999 -0.76257514999999998
v 0.24497094799999999 -0.082645580199999999 -0.77900367999999998
v 0.23357939699999999 -0.082645580199999999 -0.79471874200000003
v 0.221181408 -0.082645580199999999 -0.80965256699999999
v 0.20783034 -0.082645580199999999 -0.82374077999999995
v 0.19358377199999999 -0.082645580199999999 -0.83692276499999996
v 0.178503051 -0.082645580199999999 -0.84914165699999999
v 0.29017081900000002 -0.082645580199999999 -0.55657190099999998
v 0.162653193 -0.082645580199999999 -0.860344887
v -0.0791636109 -0.082645580199999999 -0.89830720399999997
v -0.0603021719 -0.082645580199999999 -0.90288710599999999
v -0.041180875200000001 -0.082645580199999999 -0.90621966099999995
v -0.021882154000000001 -0.082645580199999999 -0.90829056500000005
v -0.0024891286199999999 -0.082645580199999999 -0.90909093600000002
v 0.016914622899999999 -0.082645580199999999 -0.90861719799999996
v 0.29327499899999998 -0.082645580199999999 -0.57573157500000005
v 0.036245461600000001 -0.082645580199999999 -0.906871498
v -0.24772402600000001 -0.082645580199999999 -0.77485597100000003
v 0.055420149100000003 -0.082645580199999999 -0.90386128399999999
v 0.074356034400000007 -0.082645580199999999 -0.89959961200000005
v 0.092971511199999995 -0.082645580199999999 -0.89410477899999996
v 0.11118639299999999 -0.082645580199999999 -0.88740044799999995
v 0.128922179 -0.082645580199999999 -0.87951552899999996
v 0.146102443 -0.082645580199999999 -0.87048405399999995
v -0.097683951300000002 -0.082645580199999999 -0.89249968499999999
v -0.115783364 -0.082645580199999999 -0.88548970199999999
v -0.1333839 -0.082645580199999999 -0.87730735500000001
v -0.150409669 -0.082645580199999999 -0.86798787099999997
v -0.16678737099999999 -0.082645580199999999 -0.85757148299999997
v -0.18244637499999999 -0.082645580199999999 -0.84610307200000001
v -0.19731922399999999 -0.082645580199999999 -0.83363199200000004
v -0.21134187300000001 -0.082645580199999999 -0.82021200699999997
v -0.22445383699999999 -0.082645580199999999 -0.80590099100000001
v -0.236598685 -0.082645580199999999 -0.79076057700000002
v -0.30518809000000002 -0.082645580199999999 -0.61314159599999996
v -0.309848756 -0.082645580199999999 -0.59483516199999997
v -0.32849144899999999 -0.082645580199999999 -0.52160936599999996
v -0.31917008800000002 -0.082645580199999999 -0.55822229400000001
v -0.323830754 -0.082645580199999999 -0.53991586000000003
v -0.34247347700000003 -0.082645580199999999 -0.46669003399999998
v -0.33781278100000001 -0.082645580199999999 -0.48499646800000001
v -0.30052742399999999 -0.082645580199999999 -0.63144809000000002
v -0.29586672800000002 -0.082645580199999999 -0.649754524
v -0.29120606199999999 -0.082645580199999999 -0.66806095799999998
v -0.34713414300000001 -0.082645580199999999 -0.44838357000000001
v -0.33315211500000003 -0.082645580199999999 -0.50330293199999998
v -0.31450942199999998 -0.082645580199999999 -0.57652872799999999
v 0.27668422500000001 -0.082645580199999999 0.51816615500000007
v 0.27202354400000001 -0.082645580199999999 0.53647261849999994
v 0.2999875695 -0.082645580199999999 0.42663393900000002
v 0.28241829600000001 -0.082645580199999999 -0.70045554599999993
v 0.276099384 -0.082645580199999999 -0.71879664049999992
v 0.23927517249999999 -0.082645580199999999 -0.78686121099999995
v 0.2273804025 -0.082645580199999999 -0.80218565450000001
v -0.069732891399999997 -0.082645580199999999 -0.90059715500000004
v -0.050741523550000001 -0.082645580199999999 -0.90455338349999992
v 0.29419521999999998 -0.082645580199999999 -0.58539262400000003
v -0.14189678449999998 -0.082645580199999999 -0.87264761300000004
v -0.15859851999999999 -0.082645580199999999 -0.86277967700000002
v 0.29539985950000003 -0.082645580199999999 -0.60475423950000007
v -0.23052626100000001 -0.082645580199999999 -0.79833078400000002
v -0.24216135550000001 -0.082645580199999999 -0.78280827399999997
v -0.32616110149999999 -0.082645580199999999 -0.53076261300000005
v -0.32150042099999998 -0.082645580199999999 -0.54906907699999996
v -0.34946447599999997 -0.082645580199999999 -0.43923035300000002
v 0.0058976926399999996 -0.082645580199999999 0.045939827350000004
v 0.23567860600000001 -0.082645580199999999 -0.42247028650000001
v -0.036654330799999996 -0.082645580199999999 0.1326824315
v 0.28799356549999999 -0.082645580199999999 -0.54711452149999995
v 0.26037186400000001 0.082645580199999999 0.58223873400000004
v 0.26503252999999999 0.082645580199999999 0.56393230000000005
v 0.24638985099999999 0.082645580199999999 0.63715809599999995
v 0.25105050200000001 0.082645580199999999 0.618851602
v 0.27901455800000002 0.082645580199999999 0.50901293800000003
v 0.283675224 0.082645580199999999 0.49070650300000002
v 0.288335919 0.082645580199999999 0.47240003899999999
v 0.29299655600000002 0.082645580199999999 0.45409360500000001
v 0.23706848899999999 0.082645580199999999 0.67377096400000003
v 0.24172918500000001 0.082645580199999999 0.65546453000000005
v 0.297657222 0.082645580199999999 0.43578717099999997
v 0.25571119799999997 0.082645580199999999 0.60054516800000002
v 0.27435389199999999 0.082645580199999999 0.52731937200000001
v 0.26969319600000002 0.082645580199999999 0.54562586499999999
v -0.22751063099999999 0.082645580199999999 0.52350866799999995
v 0.231508881 0.082645580199999999 0.69245904700000005
v -0.21962802100000001 0.082645580199999999 0.50567567300000005
v -0.23394806700000001 0.082645580199999999 0.541912854
v 0.224478647 0.082645580199999999 0.71064501999999996
v -0.23889932 0.082645580199999999 0.56077122700000004
v 0.216022462 0.082645580199999999 0.72821331
v 0.206193984 0.082645580199999999 0.74505239700000003
v 0.195055693 0.082645580199999999 0.76105523100000005
v -0.24457023999999999 0.082645580199999999 0.61886376099999996
v 0.0112331351 0.082645580199999999 0.85778814599999997
v 0.030658934299999999 0.082645580199999999 0.85611736800000005
v -0.0082640117000000006 0.082645580199999999 0.85790657999999997
v -0.24233304 0.082645580199999999 0.57996398199999999
v -0.027708655200000001 0.082645580199999999 0.85647189599999995
v -0.240602911 0.082645580199999999 0.65762531800000001
v -0.24335953599999999 0.082645580199999999 0.63832360499999996
v -0.046977311399999999 0.082645580199999999 0.853493214
v -0.065947532700000006 0.082645580199999999 0.84898948699999999
v -0.084498822700000004 0.082645580199999999 0.84298932599999998
v -0.102513373 0.082645580199999999 0.83553075799999998
v -0.119876698 0.082645580199999999 0.82666128900000002
v -0.136478513 0.082645580199999999 0.81643718499999995
v -0.15221338000000001 0.082645580199999999 0.80492341499999998
v -0.24422735000000001 0.082645580199999999 0.59936922800000003
v -0.166981354 0.082645580199999999 0.792193115
v -0.18068856 0.082645580199999999 0.77832716700000004
v -0.19324798900000001 0.082645580199999999 0.76341360800000002
v -0.20457982999999999 0.082645580199999999 0.74754720900000005
v -0.214612097 0.082645580199999999 0.73082876200000002
v -0.22328108499999999 0.082645580199999999 0.71336448200000002
v -0.230531707 0.082645580199999999 0.69526529299999995
v -0.236317888 0.082645580199999999 0.67664611299999999
v 0.049889974300000001 0.082645580199999999 0.85290485599999999
v 0.068804100199999996 0.082645580199999999 0.84817105500000001
v 0.087281152599999995 0.082645580199999999 0.84194600600000002
v 0.10520376300000001 0.082645580199999999 0.83426922599999997
v 0.122458078 0.082645580199999999 0.82518947099999995
v 0.138934478 0.082645580199999999 0.81476444000000003
v 0.15452833499999999 0.082645580199999999 0.803060412
v 0.16914057699999999 0.082645580199999999 0.79015165600000004
v 0.18267835700000001 0.082645580199999999 0.77612024499999999
v -0.091971956199999996 0.082645580199999999 0.24544782900000001
v -0.083461545400000003 0.082645580199999999 0.22809928700000001
v 0.14631936000000001 0.082645580199999999 -0.240310788
v 0.078236132900000005 0.082645580199999999 -0.10152262400000001
v 0.214402601 0.082645580199999999 -0.37909895199999999
v -0.14303438399999999 0.082645580199999999 0.34953895200000001
v 0.13780896400000001 0.082645580199999999 -0.22296227499999999
v 0.086746543600000003 0.082645580199999999 -0.118871145
v 0.18036097300000001 0.082645580199999999 -0.30970490000000001
v 0.188871384 0.082645580199999999 -0.327053398
v -0.151544765 0.082645580199999999 0.36688747999999999
v -0.100482345 0.082645580199999999 0.26279634200000002
v 0.22291298200000001 0.082645580199999999 -0.39644751
v 0.23142339300000001 0.082645580199999999 -0.41379603700000001
v -0.074951134599999997 0.082645580199999999 0.210750774
v -0.066440746199999998 0.082645580199999999 0.19340226099999999
v -0.19409680400000001 0.082645580199999999 0.45363008999999999
v 0.23993381899999999 0.082645580199999999 -0.43114453600000002
v 0.2484442 0.082645580199999999 -0.44849306300000003
v 0.163340181 0.082645580199999999 -0.27500781400000002
v -0.040909536199999999 0.082645580199999999 0.141356707
v -0.032399125399999999 0.082645580199999999 0.12400815599999999
v -0.11750316600000001 0.082645580199999999 0.29749339800000002
v -0.108992755 0.082645580199999999 0.28014486999999999
v -0.202607185 0.082645580199999999 0.47097861800000002
v 0.19738178000000001 0.082645580199999999 -0.34440192600000002
v 0.103767343 0.082645580199999999 -0.153568178
v 0.20589219 0.082645580199999999 -0.361750454
v 0.26546502100000002 0.082645580199999999 -0.48319008899999999
v -0.13452397299999999 0.082645580199999999 0.33219042399999998
v -0.126013562 0.082645580199999999 0.31484189600000001
v 0.25695461000000003 0.082645580199999999 -0.46584156199999999
v -0.21111759499999999 0.082645580199999999 0.48832714599999999
v -0.023888710899999999 0.082645580199999999 0.106659643
v -0.015378325199999999 0.082645580199999999 0.089311122899999998
v 0.120788142 0.082645580199999999 -0.188265234
v -0.0068679125999999997 0.082645580199999999 0.071962602400000006
v -0.18558639299999999 0.082645580199999999 0.43628156200000001
v -0.17707598199999999 0.082645580199999999 0.41893303399999998
v 0.018663298299999999 0.082645580199999999 0.0199170262
v 0.061215333599999998 0.082645580199999999 -0.066825561199999994
v 0.11227775399999999 0.082645580199999999 -0.17091669100000001
v 0.069725722099999998 0.082645580199999999 -0.084174104
v 0.052704922899999999 0.082645580199999999 -0.049477044499999998
v 0.027173711 0.082645580199999999 0.0025685075700000001
v 0.010152885699999999 0.082645580199999999 0.037265568999999998
v 0.12929855300000001 0.082645580199999999 -0.20561376200000001
v 0.095256932099999997 0.082645580199999999 -0.13621966499999999
v -0.16856558599999999 0.082645580199999999 0.40158450600000001
v -0.16005517499999999 0.082645580199999999 0.38423600800000002
v 0.17185056200000001 0.082645580199999999 -0.29235637199999998
v 0.15482977000000001 0.082645580199999999 -0.25765931600000003
v -0.049419920899999997 0.082645580199999999 0.15870522000000001
v -0.057930335399999998 0.082645580199999999 0.17605373299999999
v 0.035684097599999999 0.082645580199999999 -0.014780010099999999
v 0.044194508299999997 0.082645580199999999 -0.032128527800000001
v 0.00164249958 0.082645580199999999 0.054614085700000002
v -0.28114187699999998 0.082645580199999999 -0.70500958000000002
v 0.27343675499999998 0.082645580199999999 -0.50088703599999995
v -0.28654539600000001 0.082645580199999999 -0.68636739300000005
v 0.280230284 0.082645580199999999 -0.51906883699999995
v -0.27452692400000001 0.082645580199999999 -0.72325712399999997
v -0.26672908699999998 0.082645580199999999 -0.74103134900000001
v 0.28581631200000002 0.082645580199999999 -0.53765714200000003
v -0.25778192300000002 0.082645580199999999 -0.75825571999999997
v 0.29017081900000002 0.082645580199999999 -0.55657190099999998
v 0.146102443 0.082645580199999999 -0.87048405399999995
v -0.24772402600000001 0.082645580199999999 -0.77485597100000003
v 0.19358377199999999 0.082645580199999999 -0.83692276499999996
v 0.178503051 0.082645580199999999 -0.84914165699999999
v 0.20783034 0.082645580199999999 -0.82374077999999995
v 0.221181408 0.082645580199999999 -0.80965256699999999
v 0.23357939699999999 0.082645580199999999 -0.79471874200000003
v 0.24497094799999999 0.082645580199999999 -0.77900367999999998
v 0.2553069 0.082645580199999999 -0.76257514999999998
v 0.26454278799999997 0.082645580199999999 -0.74550384300000005
v 0.27263876799999998 0.082645580199999999 -0.72786343099999995
v 0.27955999999999998 0.082645580199999999 -0.70972985
v 0.285276592 0.082645580199999999 -0.69118124199999997
v 0.28976395700000002 0.082645580199999999 -0.67229759700000002
v 0.29300275399999998 0.082645580199999999 -0.65316021400000002
v 0.29497903599999997 0.082645580199999999 -0.633851528
v 0.29568427800000002 0.082645580199999999 -0.61445480600000002
v 0.29327499899999998 0.082645580199999999 -0.57573157500000005
v 0.162653193 0.082645580199999999 -0.860344887
v 0.29511544099999998 0.082645580199999999 -0.59505367300000001
v 0.092971511199999995 0.082645580199999999 -0.89410477899999996
v 0.11118639299999999 0.082645580199999999 -0.88740044799999995
v 0.074356034400000007 0.082645580199999999 -0.89959961200000005
v 0.055420149100000003 0.082645580199999999 -0.90386128399999999
v 0.036245461600000001 0.082645580199999999 -0.906871498
v 0.016914622899999999 0.082645580199999999 -0.90861719799999996
v -0.0024891286199999999 0.082645580199999999 -0.90909093600000002
v -0.021882154000000001 0.082645580199999999 -0.90829056500000005
v -0.041180875200000001 0.082645580199999999 -0.90621966099999995
v -0.0603021719 0.082645580199999999 -0.90288710599999999
v -0.0791636109 0.082645580199999999 -0.89830720399999997
v -0.097683951300000002 0.082645580199999999 -0.89249968499999999
v -0.115783364 0.082645580199999999 -0.88548970199999999
v -0.1333839 0.082645580199999999 -0.87730735500000001
v -0.150409669 0.082645580199999999 -0.86798787099999997
v -0.16678737099999999 0.082645580199999999 -0.85757148299999997
v -0.18244637499999999 0.082645580199999999 -0.84610307200000001
v -0.19731922399999999 0.082645580199999999 -0.83363199200000004
v -0.21134187300000001 0.082645580199999999 -0.82021200699999997
v -0.22445383699999999 0.082645580199999999 -0.80590099100000001
v -0.236598685 0.082645580199999999 -0.79076057700000002
v 0.128922179 0.082645580199999999 -0.87951552899999996
v -0.323830754 0.082645580199999999 -0.53991586000000003
v -0.32849144899999999 0.082645580199999999 -0.52160936599999996
v -0.33781278100000001 0.082645580199999999 -0.48499646800000001
v -0.34247347700000003 0.082645580199999999 -0.46669003399999998
v -0.30518809000000002 0.082645580199999999 -0.61314159599999996
v -0.309848756 0.082645580199999999 -0.59483516199999997
v -0.29586672800000002 0.082645580199999999 -0.649754524
v -0.30052742399999999 0.082645580199999999 -0.63144809000000002
v -0.29120606199999999 0.082645580199999999 -0.66806095799999998
v -0.34713414300000001 0.082645580199999999 -0.44838357000000001
v -0.33315211500000003 0.082645580199999999 -0.50330293199999998
v -0.31450942199999998 0.082645580199999999 -0.57652872799999999
v -0.31917008800000002 0.082645580199999999 -0.55822229400000001
v 0.2999875695 0.082645580199999999 0.42663393900000002
v 0.2273804025 0.082645580199999999 -0.80218565450000001
v 0.23927517249999999 0.082645580199999999 -0.78686121099999995
v 0.276099384 0.082645580199999999 -0.71879664049999992
v 0.28241829600000001 0.082645580199999999 -0.70045554599999993
v 0.29419521999999998 0.082645580199999999 -0.58539262400000003
v -0.050741523550000001 0.082645580199999999 -0.90455338349999992
v -0.069732891399999997 0.082645580199999999 -0.90059715500000004
v -0.14189678449999998 0.082645580199999999 -0.87264761300000004
v -0.15859851999999999 0.082645580199999999 -0.86277967700000002
v 0.29539985950000003 0.082645580199999999 -0.60475423950000007
v -0.23052626100000001 0.082645580199999999 -0.79833078400000002
v -0.24216135550000001 0.082645580199999999 -0.78280827399999997
v -0.34946447599999997 0.082645580199999999 -0.43923035300000002
v -0.24061618000000001 0.082645580199999999 0.57036760450000001
v 0.18461617850000001 0.082645580199999999 -0.31837914899999997
v -0.036654330799999996 0.082645580199999999 0.1326824315
v 0.2101473955 0.082645580199999999 -0.37042470299999997
v 0.1080225485 0.082645580199999999 -0.1622424345
v 0.073980927500000002 0.082645580199999999 -0.092848364000000003
v 0.13355375850000001 0.082645580199999999 -0.21428801850000001
v 0.0058976926399999996 0.082645580199999999 0.045939827350000004
v -0.34480381000000004 0.082645580199999999 -0.45753680200000002
v 0.31881019500000002 -0.082645580199999999 0.42167949700000001
v 0.33530253199999999 -0.082645580199999999 0.42587831599999998
v 0.31056405600000003 -0.082645580199999999 0.41958010200000001
v 0.34354867049999999 -0.082645580199999999 0.427977726
v 0.31881019500000002 0.082645580199999999 0.42167949700000001
v 0.33530253199999999 0.082645580199999999 0.42587831599999998
v 0.31056405600000003 0.082645580199999999 0.41958010200000001
v 0.34354867049999999 0.082645580199999999 0.427977726
v 0.35179480899999999 0.0091828480400000002 0.43007713600000003
v 0.35179480899999999 -0.0091828480400000002 0.43007713600000003
v 0.35179480899999999 -0.064279884100000004 0.43007713600000003
v 0.35179480899999999 0.064279884100000004 0.43007713600000003
v 0.35179480899999999 -0.027548518000000001 0.43007713600000003
v 0.35179480899999999 -0.045914214100000003 0.43007713600000003
v 0.35179480899999999 0.045914214100000003 0.43007713600000003
v 0.35179480899999999 0.027548518000000001 0.43007713600000003
v 0.35179480899999999 -0.073462732150000001 0.43007713600000003
v 0.35179480899999999 0.073462732150000001 0.43007713600000003
v 0.32849144899999999 0.082645580199999999 0.52160936599999996
v 0.323830754 0.082645580199999999 0.53991579999999995
v 0.34247347700000003 0.082645580199999999 0.46669003399999998
v 0.33781278100000001 0.082645580199999999 0.48499646800000001
v 0.309848756 0.082645580199999999 0.59483516199999997
v 0.30518809000000002 0.082645580199999999 0.61314159599999996
v 0.30052742399999999 0.082645580199999999 0.63144803000000005
v 0.29586672800000002 0.082645580199999999 0.649754465
v 0.28654539600000001 0.082645580199999999 0.68636739300000005
v 0.34713414300000001 0.082645580199999999 0.44838357000000001
v 0.29120606199999999 0.082645580199999999 0.66806095799999998
v 0.33315211500000003 0.082645580199999999 0.50330293199999998
v 0.31450942199999998 0.082645580199999999 0.57652872799999999
v 0.31917008800000002 0.082645580199999999 0.55822223400000004
v -0.231508881 0.082645580199999999 -0.69245904700000005
v 0.22751063099999999 0.082645580199999999 -0.52350872800000003
v -0.23706848899999999 0.082645580199999999 -0.673771024
v 0.21962802100000001 0.082645580199999999 -0.50567567300000005
v 0.23394806700000001 0.082645580199999999 -0.541912854
v -0.224478647 0.082645580199999999 -0.71064501999999996
v 0.23889932 0.082645580199999999 -0.56077122700000004
v -0.216022462 0.082645580199999999 -0.72821331
v -0.195055693 0.082645580199999999 -0.76105523100000005
v -0.206193984 0.082645580199999999 -0.74505239700000003
v -0.18267835700000001 0.082645580199999999 -0.77612024499999999
v 0.24457023999999999 0.082645580199999999 -0.61886376099999996
v -0.16914057699999999 0.082645580199999999 -0.79015165600000004
v -0.15452833499999999 0.082645580199999999 -0.803060412
v -0.138934478 0.082645580199999999 -0.8147645
v -0.122458078 0.082645580199999999 -0.82518947099999995
v -0.10520376300000001 0.082645580199999999 -0.83426922599999997
v -0.087281152599999995 0.082645580199999999 -0.84194600600000002
v -0.0112331351 0.082645580199999999 -0.85778820499999997
v -0.030658934299999999 0.082645580199999999 -0.85611742700000004
v -0.068804100199999996 0.082645580199999999 -0.84817111499999998
v 0.0082640117000000006 0.082645580199999999 -0.85790657999999997
v -0.049889974300000001 0.082645580199999999 -0.85290491599999996
v 0.24233304 0.082645580199999999 -0.57996398199999999
v 0.027708655200000001 0.082645580199999999 -0.85647189599999995
v 0.240602911 0.082645580199999999 -0.65762531800000001
v 0.24335953599999999 0.082645580199999999 -0.63832366500000004
v 0.046977311399999999 0.082645580199999999 -0.853493214
v 0.065947532700000006 0.082645580199999999 -0.84898948699999999
v 0.084498822700000004 0.082645580199999999 -0.84298932599999998
v 0.102513373 0.082645580199999999 -0.83553081799999995
v 0.119876698 0.082645580199999999 -0.82666128900000002
v 0.136478513 0.082645580199999999 -0.81643724399999995
v 0.15221338000000001 0.082645580199999999 -0.80492341499999998
v 0.24422735000000001 0.082645580199999999 -0.59936928700000003
v 0.166981354 0.082645580199999999 -0.792193174
v 0.18068856 0.082645580199999999 -0.77832716700000004
v 0.19324798900000001 0.082645580199999999 -0.76341366799999999
v 0.20457982999999999 0.082645580199999999 -0.74754726900000001
v 0.214612097 0.082645580199999999 -0.73082876200000002
v 0.22328108499999999 0.082645580199999999 -0.71336448200000002
v 0.230531707 0.082645580199999999 -0.69526529299999995
v 0.236317888 0.082645580199999999 -0.67664611299999999
v -0.188871384 0.082645580199999999 0.32705336800000001
v 0.091971956199999996 0.082645580199999999 -0.24544782900000001
v 0.100482345 0.082645580199999999 -0.262796372
v 0.19409680400000001 0.082645580199999999 -0.45363008999999999
v -0.19738178000000001 0.082645580199999999 0.34440189599999999
v 0.108992755 0.082645580199999999 -0.28014489999999997
v 0.11750316600000001 0.082645580199999999 -0.297493428
v 0.074951134599999997 0.082645580199999999 -0.21075080299999999
v -0.23993381899999999 0.082645580199999999 0.43114450599999998
v 0.202607185 0.082645580199999999 -0.47097864699999997
v 0.066440746199999998 0.082645580199999999 -0.19340227500000001
v -0.2484442 0.082645580199999999 0.44849303400000001
v -0.095256932099999997 0.082645580199999999 0.13621963600000001
v -0.086746543600000003 0.082645580199999999 0.118871115
v -0.15482977000000001 0.082645580199999999 0.25765928599999999
v -0.14631936000000001 0.082645580199999999 0.24031077300000001
v -0.035684097599999999 0.082645580199999999 0.014779983999999999
v -0.027173711 0.082645580199999999 -0.0025685336400000001
v 0.18558639299999999 0.082645580199999999 -0.436281592
v -0.069725722099999998 0.082645580199999999 0.0841740817
v -0.12929855300000001 0.082645580199999999 0.20561373199999999
v 0.17707598199999999 0.082645580199999999 -0.41893306400000002
v -0.26546502100000002 0.082645580199999999 0.48319008899999999
v -0.010152885699999999 0.082645580199999999 -0.037265568999999998
v -0.25695461000000003 0.082645580199999999 0.46584156199999999
v 0.21111759499999999 0.082645580199999999 -0.488327175
v -0.11227775399999999 0.082645580199999999 0.17091669100000001
v -0.052704922899999999 0.082645580199999999 0.049477018400000003
v -0.23142339300000001 0.082645580199999999 0.41379600799999999
v -0.22291298200000001 0.082645580199999999 0.39644748000000002
v 0.040909536199999999 0.082645580199999999 -0.141356707
v -0.17185056200000001 0.082645580199999999 0.29235634199999999
v -0.00164249958 0.082645580199999999 -0.054614111799999997
v 0.0068679125999999997 0.082645580199999999 -0.071962632200000001
v -0.061215333599999998 0.082645580199999999 0.066825561199999994
v -0.120788142 0.082645580199999999 0.18826521900000001
v -0.18036097300000001 0.082645580199999999 0.30970487000000002
v 0.032399125399999999 0.082645580199999999 -0.12400818600000001
v 0.049419920899999997 0.082645580199999999 -0.15870524899999999
v 0.057930335399999998 0.082645580199999999 -0.176053762
v 0.083461545400000003 0.082645580199999999 -0.228099316
v 0.16856558599999999 0.082645580199999999 -0.40158453599999999
v 0.151544765 0.082645580199999999 -0.36688750999999997
v 0.16005517499999999 0.082645580199999999 -0.384236038
v -0.163340181 0.082645580199999999 0.27500781400000002
v -0.13780896400000001 0.082645580199999999 0.222962245
v -0.103767343 0.082645580199999999 0.15356814899999999
v -0.018663298299999999 0.082645580199999999 -0.019917050400000001
v -0.078236132900000005 0.082645580199999999 0.101522602
v -0.044194508299999997 0.082645580199999999 0.032128501699999999
v 0.13452397299999999 0.082645580199999999 -0.33219045400000002
v 0.015378325199999999 0.082645580199999999 -0.089311145199999997
v 0.023888710899999999 0.082645580199999999 -0.106659666
v -0.214402601 0.082645580199999999 0.37909895199999999
v -0.20589219 0.082645580199999999 0.36175042400000001
v 0.14303438399999999 0.082645580199999999 -0.34953895200000001
v 0.126013562 0.082645580199999999 -0.31484192599999999
v -0.27343675499999998 0.082645580199999999 0.50088697699999996
v 0.28114187699999998 0.082645580199999999 0.70500958000000002
v -0.280230284 0.082645580199999999 0.51906877799999995
v 0.27452692400000001 0.082645580199999999 0.72325712399999997
v 0.26672908699999998 0.082645580199999999 0.74103134900000001
v 0.25778192300000002 0.082645580199999999 0.75825571999999997
v -0.28581631200000002 0.082645580199999999 0.53765714200000003
v -0.162653193 0.082645580199999999 0.86034482700000003
v -0.29511544099999998 0.082645580199999999 0.59505361300000004
v -0.20783034 0.082645580199999999 0.82374077999999995
v -0.19358377199999999 0.082645580199999999 0.83692276499999996
v -0.221181408 0.082645580199999999 0.80965250700000002
v -0.23357939699999999 0.082645580199999999 0.79471868300000004
v -0.24497094799999999 0.082645580199999999 0.77900362000000001
v -0.2553069 0.082645580199999999 0.76257509000000001
v -0.26454278799999997 0.082645580199999999 0.74550384300000005
v -0.27263876799999998 0.082645580199999999 0.72786343099999995
v -0.29017081900000002 0.082645580199999999 0.55657190099999998
v -0.27955999999999998 0.082645580199999999 0.70972985
v -0.285276592 0.082645580199999999 0.69118124199999997
v -0.28976395700000002 0.082645580199999999 0.67229759700000002
v -0.29300275399999998 0.082645580199999999 0.65316021400000002
v -0.29497903599999997 0.082645580199999999 0.633851528
v -0.29568427800000002 0.082645580199999999 0.61445480600000002
v -0.29327499899999998 0.082645580199999999 0.57573157500000005
v 0.24772402600000001 0.082645580199999999 0.77485591200000004
v -0.178503051 0.082645580199999999 0.84914165699999999
v -0.11118639299999999 0.082645580199999999 0.88740038899999996
v -0.128922179 0.082645580199999999 0.87951552899999996
v -0.092971511199999995 0.082645580199999999 0.89410471899999999
v -0.074356034400000007 0.082645580199999999 0.89959955199999997
v -0.055420149100000003 0.082645580199999999 0.90386128399999999
v -0.036245461600000001 0.082645580199999999 0.906871498
v -0.016914622899999999 0.082645580199999999 0.90861719799999996
v 0.0024891286199999999 0.082645580199999999 0.90909093600000002
v 0.021882154000000001 0.082645580199999999 0.90829056500000005
v 0.041180875200000001 0.082645580199999999 0.90621966099999995
v 0.0603021719 0.082645580199999999 0.90288710599999999
v 0.0791636109 0.082645580199999999 0.89830720399999997
v 0.097683951300000002 0.082645580199999999 0.89249968499999999
v 0.115783364 0.082645580199999999 0.88548970199999999
v 0.1333839 0.082645580199999999 0.87730729600000001
v 0.150409669 0.082645580199999999 0.86798787099999997
v 0.16678737099999999 0.082645580199999999 0.85757148299999997
v 0.18244637499999999 0.082645580199999999 0.84610301300000001
v 0.19731922399999999 0.082645580199999999 0.83363193300000005
v 0.21134187300000001 0.082645580199999999 0.82021200699999997
v 0.22445383699999999 0.082645580199999999 0.80590099100000001
v 0.236598685 0.082645580199999999 0.79076051700000005
v -0.146102443 0.082645580199999999 0.87048399399999998
v -0.26503252999999999 0.082645580199999999 -0.56393230000000005
v -0.26037186400000001 0.082645580199999999 -0.58223873400000004
v -0.25105050200000001 0.082645580199999999 -0.61885166199999997
v -0.24638985099999999 0.082645580199999999 -0.63715809599999995
v -0.283675224 0.082645580199999999 -0.490706533
v -0.27901455800000002 0.082645580199999999 -0.50901299700000002
v -0.29299655600000002 0.082645580199999999 -0.45409360500000001
v -0.288335919 0.082645580199999999 -0.47240006899999998
v -0.297657222 0.082645580199999999 -0.43578717099999997
v -0.24172918500000001 0.082645580199999999 -0.65546453000000005
v -0.25571119799999997 0.082645580199999999 -0.60054522799999999
v -0.27435389199999999 0.082645580199999999 -0.52731943100000001
v -0.26969319600000002 0.082645580199999999 -0.54562586499999999
v 0.34946447599999997 0.082645580199999999 0.43923035300000002
v -0.2273804025 0.082645580199999999 0.80218559500000008
v -0.23927517249999999 0.082645580199999999 0.78686115150000002
v -0.28241829600000001 0.082645580199999999 0.70045554599999993
v -0.28752027450000001 0.082645580199999999 0.68173941949999994
v 0.050741523550000001 0.082645580199999999 0.90455338349999992
v 0.069732891399999997 0.082645580199999999 0.90059715500000004
v 0.15859851999999999 0.082645580199999999 0.86277967700000002
v 0.17461687300000001 0.082645580199999999 0.85183724800000005
v -0.2999875695 0.082645580199999999 -0.42663395399999998
v 0.24061618000000001 0.082645580199999999 -0.57036760450000001
v 0.087716750799999993 0.082645580199999999 -0.2367735725
v -0.082491338250000004 0.082645580199999999 0.11019685849999999
v -0.039939302949999998 0.082645580199999999 0.023454242850000001
v 0.13877917849999999 0.082645580199999999 -0.34086470300000005
v 0.028143918149999999 0.082645580199999999 -0.115333926
v 0.062185540799999994 0.082645580199999999 -0.18472801850000001
v 0.16431038049999999 0.082645580199999999 -0.39291028699999997
v -0.28799356549999999 0.082645580199999999 0.54711452149999995
v 0.30518809000000002 -0.082645580199999999 0.61314159599999996
v 0.309848756 -0.082645580199999999 0.59483516199999997
v 0.32849144899999999 -0.082645580199999999 0.52160936599999996
v 0.31917008800000002 -0.082645580199999999 0.55822223400000004
v 0.323830754 -0.082645580199999999 0.53991579999999995
v 0.29586672800000002 -0.082645580199999999 0.649754465
v 0.30052742399999999 -0.082645580199999999 0.63144803000000005
v 0.33781278100000001 -0.082645580199999999 0.48499646800000001
v 0.34247347700000003 -0.082645580199999999 0.46669003399999998
v 0.28654539600000001 -0.082645580199999999 0.68636739300000005
v 0.29120606199999999 -0.082645580199999999 0.66806095799999998
v 0.34713414300000001 -0.082645580199999999 0.44838357000000001
v 0.33315211500000003 -0.082645580199999999 0.50330293199999998
v 0.31450942199999998 -0.082645580199999999 0.57652872799999999
v -0.231508881 -0.082645580199999999 -0.69245904700000005
v 0.22751063099999999 -0.082645580199999999 -0.52350872800000003
v -0.23706848899999999 -0.082645580199999999 -0.673771024
v 0.21962802100000001 -0.082645580199999999 -0.50567567300000005
v 0.23394806700000001 -0.082645580199999999 -0.541912854
v -0.224478647 -0.082645580199999999 -0.71064501999999996
v -0.216022462 -0.082645580199999999 -0.72821331
v 0.23889932 -0.082645580199999999 -0.56077122700000004
v 0.24233304 -0.082645580199999999 -0.57996398199999999
v -0.206193984 -0.082645580199999999 -0.74505239700000003
v -0.195055693 -0.082645580199999999 -0.76105523100000005
v 0.230531707 -0.082645580199999999 -0.69526529299999995
v 0.22328108499999999 -0.082645580199999999 -0.71336448200000002
v 0.236317888 -0.082645580199999999 -0.67664611299999999
v 0.240602911 -0.082645580199999999 -0.65762531800000001
v 0.24335953599999999 -0.082645580199999999 -0.63832366500000004
v 0.24422735000000001 -0.082645580199999999 -0.59936928700000003
v 0.24457023999999999 -0.082645580199999999 -0.61886376099999996
v 0.214612097 -0.082645580199999999 -0.73082876200000002
v 0.15221338000000001 -0.082645580199999999 -0.80492341499999998
v 0.166981354 -0.082645580199999999 -0.792193174
v 0.136478513 -0.082645580199999999 -0.81643724399999995
v 0.119876698 -0.082645580199999999 -0.82666128900000002
v 0.102513373 -0.082645580199999999 -0.83553081799999995
v 0.084498822700000004 -0.082645580199999999 -0.84298932599999998
v 0.065947532700000006 -0.082645580199999999 -0.84898948699999999
v 0.046977311399999999 -0.082645580199999999 -0.853493214
v 0.027708655200000001 -0.082645580199999999 -0.85647189599999995
v 0.0082640117000000006 -0.082645580199999999 -0.85790657999999997
v -0.0112331351 -0.082645580199999999 -0.85778820499999997
v -0.030658934299999999 -0.082645580199999999 -0.85611742700000004
v -0.049889974300000001 -0.082645580199999999 -0.85290491599999996
v -0.068804100199999996 -0.082645580199999999 -0.84817111499999998
v -0.087281152599999995 -0.082645580199999999 -0.84194600600000002
v -0.10520376300000001 -0.082645580199999999 -0.83426922599999997
v -0.122458078 -0.082645580199999999 -0.82518947099999995
v -0.138934478 -0.082645580199999999 -0.8147645
v -0.15452833499999999 -0.082645580199999999 -0.803060412
v -0.16914057699999999 -0.082645580199999999 -0.79015165600000004
v -0.18267835700000001 -0.082645580199999999 -0.77612024499999999
v 0.18068856 -0.082645580199999999 -0.77832716700000004
v 0.19324798900000001 -0.082645580199999999 -0.76341366799999999
v 0.20457982999999999 -0.082645580199999999 -0.74754726900000001
v 0.015378325199999999 -0.082645580199999999 -0.089311145199999997
v 0.0068679125999999997 -0.082645580199999999 -0.071962632200000001
v -0.12929855300000001 -0.082645580199999999 0.20561373199999999
v -0.13780896400000001 -0.082645580199999999 0.222962245
v -0.044194508299999997 -0.082645580199999999 0.032128501699999999
v -0.052704922899999999 -0.082645580199999999 0.049477018400000003
v -0.095256932099999997 -0.082645580199999999 0.13621963600000001
v -0.103767343 -0.082645580199999999 0.15356814899999999
v -0.018663298299999999 -0.082645580199999999 -0.019917050400000001
v -0.027173711 -0.082645580199999999 -0.0025685336400000001
v -0.078236132900000005 -0.082645580199999999 0.101522602
v -0.086746543600000003 -0.082645580199999999 0.118871115
v 0.040909536199999999 -0.082645580199999999 -0.141356707
v 0.032399125399999999 -0.082645580199999999 -0.12400818600000001
v 0.11750316600000001 -0.082645580199999999 -0.297493428
v -0.188871384 -0.082645580199999999 0.32705336800000001
v 0.126013562 -0.082645580199999999 -0.31484192599999999
v -0.19738178000000001 -0.082645580199999999 0.34440189599999999
v -0.14631936000000001 -0.082645580199999999 0.24031077300000001
v 0.14303438399999999 -0.082645580199999999 -0.34953895200000001
v 0.19409680400000001 -0.082645580199999999 -0.45363008999999999
v -0.23993381899999999 -0.082645580199999999 0.43114450599999998
v -0.15482977000000001 -0.082645580199999999 0.25765928599999999
v -0.163340181 -0.082645580199999999 0.27500781400000002
v -0.035684097599999999 -0.082645580199999999 0.014779983999999999
v -0.2484442 -0.082645580199999999 0.44849303400000001
v 0.202607185 -0.082645580199999999 -0.47097864699999997
v 0.083461545400000003 -0.082645580199999999 -0.228099316
v 0.074951134599999997 -0.082645580199999999 -0.21075080299999999
v 0.151544765 -0.082645580199999999 -0.36688750999999997
v 0.023888710899999999 -0.082645580199999999 -0.106659666
v -0.26546502100000002 -0.082645580199999999 0.48319008899999999
v -0.17185056200000001 -0.082645580199999999 0.29235634199999999
v -0.18036097300000001 -0.082645580199999999 0.30970487000000002
v -0.25695461000000003 -0.082645580199999999 0.46584156199999999
v 0.21111759499999999 -0.082645580199999999 -0.488327175
v -0.22291298200000001 -0.082645580199999999 0.39644748000000002
v -0.23142339300000001 -0.082645580199999999 0.41379600799999999
v 0.18558639299999999 -0.082645580199999999 -0.436281592
v 0.17707598199999999 -0.082645580199999999 -0.41893306400000002
v 0.100482345 -0.082645580199999999 -0.262796372
v 0.057930335399999998 -0.082645580199999999 -0.176053762
v 0.16005517499999999 -0.082645580199999999 -0.384236038
v 0.066440746199999998 -0.082645580199999999 -0.19340227500000001
v -0.00164249958 -0.082645580199999999 -0.054614111799999997
v -0.120788142 -0.082645580199999999 0.18826521900000001
v -0.061215333599999998 -0.082645580199999999 0.066825561199999994
v 0.108992755 -0.082645580199999999 -0.28014489999999997
v 0.049419920899999997 -0.082645580199999999 -0.15870524899999999
v 0.091971956199999996 -0.082645580199999999 -0.24544782900000001
v -0.069725722099999998 -0.082645580199999999 0.0841740817
v -0.11227775399999999 -0.082645580199999999 0.17091669100000001
v -0.010152885699999999 -0.082645580199999999 -0.037265568999999998
v 0.13452397299999999 -0.082645580199999999 -0.33219045400000002
v -0.20589219 -0.082645580199999999 0.36175042400000001
v -0.214402601 -0.082645580199999999 0.37909895199999999
v 0.16856558599999999 -0.082645580199999999 -0.40158453599999999
v -0.27343675499999998 -0.082645580199999999 0.50088697699999996
v 0.28114187699999998 -0.082645580199999999 0.70500958000000002
v -0.280230284 -0.082645580199999999 0.51906877799999995
v 0.27452692400000001 -0.082645580199999999 0.72325712399999997
v 0.26672908699999998 -0.082645580199999999 0.74103134900000001
v -0.28581631200000002 -0.082645580199999999 0.53765714200000003
v 0.25778192300000002 -0.082645580199999999 0.75825571999999997
v -0.29017081900000002 -0.082645580199999999 0.55657190099999998
v 0.24772402600000001 -0.082645580199999999 0.77485591200000004
v -0.29497903599999997 -0.082645580199999999 0.633851528
v -0.29568427800000002 -0.082645580199999999 0.61445480600000002
v -0.29300275399999998 -0.082645580199999999 0.65316021400000002
v -0.28976395700000002 -0.082645580199999999 0.67229759700000002
v -0.285276592 -0.082645580199999999 0.69118124199999997
v -0.27955999999999998 -0.082645580199999999 0.70972985
v -0.27263876799999998 -0.082645580199999999 0.72786343099999995
v -0.26454278799999997 -0.082645580199999999 0.74550384300000005
v -0.2553069 -0.082645580199999999 0.76257509000000001
v -0.24497094799999999 -0.082645580199999999 0.77900362000000001
v -0.23357939699999999 -0.082645580199999999 0.79471868300000004
v -0.221181408 -0.082645580199999999 0.80965250700000002
v -0.20783034 -0.082645580199999999 0.82374077999999995
v -0.19358377199999999 -0.082645580199999999 0.83692276499999996
v -0.178503051 -0.082645580199999999 0.84914165699999999
v -0.162653193 -0.082645580199999999 0.86034482700000003
v 0.097683951300000002 -0.082645580199999999 0.89249968499999999
v 0.0791636109 -0.082645580199999999 0.89830720399999997
v 0.0603021719 -0.082645580199999999 0.90288710599999999
v 0.041180875200000001 -0.082645580199999999 0.90621966099999995
v 0.021882154000000001 -0.082645580199999999 0.90829056500000005
v 0.0024891286199999999 -0.082645580199999999 0.90909093600000002
v -0.016914622899999999 -0.082645580199999999 0.90861719799999996
v -0.29327499899999998 -0.082645580199999999 0.57573157500000005
v -0.036245461600000001 -0.082645580199999999 0.906871498
v -0.055420149100000003 -0.082645580199999999 0.90386128399999999
v -0.074356034400000007 -0.082645580199999999 0.89959955199999997
v -0.092971511199999995 -0.082645580199999999 0.89410471899999999
v -0.11118639299999999 -0.082645580199999999 0.88740038899999996
v -0.128922179 -0.082645580199999999 0.87951552899999996
v -0.146102443 -0.082645580199999999 0.87048399399999998
v -0.29511544099999998 -0.082645580199999999 0.59505361300000004
v 0.115783364 -0.082645580199999999 0.88548970199999999
v 0.1333839 -0.082645580199999999 0.87730729600000001
v 0.150409669 -0.082645580199999999 0.86798787099999997
v 0.16678737099999999 -0.082645580199999999 0.85757148299999997
v 0.18244637499999999 -0.082645580199999999 0.84610301300000001
v 0.19731922399999999 -0.082645580199999999 0.83363193300000005
v 0.21134187300000001 -0.082645580199999999 0.82021200699999997
v 0.22445383699999999 -0.082645580199999999 0.80590099100000001
v 0.236598685 -0.082645580199999999 0.79076051700000005
v -0.283675224 -0.082645580199999999 -0.490706533
v -0.27901455800000002 -0.082645580199999999 -0.50901299700000002
v -0.26037186400000001 -0.082645580199999999 -0.58223873400000004
v -0.26969319600000002 -0.082645580199999999 -0.54562586499999999
v -0.26503252999999999 -0.082645580199999999 -0.56393230000000005
v -0.288335919 -0.082645580199999999 -0.47240006899999998
v -0.29299655600000002 -0.082645580199999999 -0.45409360500000001
v -0.24638985099999999 -0.082645580199999999 -0.63715809599999995
v -0.25105050200000001 -0.082645580199999999 -0.61885166199999997
v -0.24172918500000001 -0.082645580199999999 -0.65546453000000005
v -0.297657222 -0.082645580199999999 -0.43578717099999997
v -0.25571119799999997 -0.082645580199999999 -0.60054522799999999
v -0.27435389199999999 -0.082645580199999999 -0.52731943100000001
v 0.32616110149999999 -0.082645580199999999 0.53076258300000001
v 0.32150042099999998 -0.082645580199999999 0.54906901699999999
v 0.34946447599999997 -0.082645580199999999 0.43923035300000002
v -0.28752027450000001 -0.082645580199999999 0.68173941949999994
v -0.28241829600000001 -0.082645580199999999 0.70045554599999993
v -0.23927517249999999 -0.082645580199999999 0.78686115150000002
v -0.2273804025 -0.082645580199999999 0.80218559500000008
v 0.069732891399999997 -0.082645580199999999 0.90059715500000004
v 0.050741523550000001 -0.082645580199999999 0.90455338349999992
v 0.15859851999999999 -0.082645580199999999 0.86277967700000002
v 0.17461687300000001 -0.082645580199999999 0.85183724800000005
v -0.26270219699999997 -0.082645580199999999 -0.57308551699999999
v -0.26736286300000001 -0.082645580199999999 -0.55477908250000008
v -0.2999875695 -0.082645580199999999 -0.42663395399999998
v -0.082491338250000004 -0.082645580199999999 0.11019685849999999
v -0.039939302949999998 -0.082645580199999999 0.023454242850000001
v 0.18984159849999999 -0.082645580199999999 -0.44495584099999996
v -0.30231791699999999 -0.027548518000000001 -0.41748073699999999
v -0.30231791699999999 0.027548518000000001 -0.41748073699999999
v -0.30231791699999999 0.064279884100000004 -0.41748073699999999
v -0.30231791699999999 -0.064279884100000004 -0.41748073699999999
v -0.30231791699999999 0.045914214100000003 -0.41748073699999999
v -0.30231791699999999 -0.045914214100000003 -0.41748073699999999
v -0.30231791699999999 -0.0091828480400000002 -0.41748073699999999
v -0.30231791699999999 0.0091828480400000002 -0.41748073699999999
v -0.30231791699999999 0.073462732150000001 -0.41748073699999999
v -0.30231791699999999 -0.073462732150000001 -0.41748073699999999
v -0.33530253199999999 0.082645580199999999 -0.42587834600000002
v -0.31881019500000002 0.082645580199999999 -0.421679527
v -0.34354867049999999 0.082645580199999999 -0.42797774100000002
v -0.31056405600000003 0.082645580199999999 -0.41958013199999999
v -0.33530253199999999 -0.082645580199999999 -0.42587834600000002
v -0.31881019500000002 -0.082645580199999999 -0.421679527
v -0.34354867049999999 -0.082645580199999999 -0.42797774100000002
v -0.31056405600000003 -0.082645580199999999 -0.41958013199999999
v -0.35179480899999999 -0.045914214100000003 -0.43007713600000003
v -0.35179480899999999 -0.027548518000000001 -0.43007713600000003
v -0.35179480899999999 -0.0091828480400000002 -0.43007713600000003
v -0.35179480899999999 0.0091828480400000002 -0.43007713600000003
v -0.35179480899999999 0.064279884100000004 -0.43007713600000003
v -0.35179480899999999 -0.064279884100000004 -0.43007713600000003
v -0.35179480899999999 0.027548518000000001 -0.43007713600000003
v -0.35179480899999999 0.045914214100000003 -0.43007713600000003
v -0.35179480899999999 0.073462732150000001 -0.43007713600000003
v -0.35179480899999999 -0.073462732150000001 -0.43007713600000003
v -0.20356351190278393 0.002515880543019558 0.74856657929530401
v -0.20414149839979245 0.021960073902896431 0.74738408375963494
v -0.20252003647241734 -0.016189871275498337 0.75047838210416495
v -0.2045296174303361 0.041929535817100488 0.74700903874947899
v -0.20066024743197877 -0.033998072650029076 0.75288748481965606
v -0.20454848604355455 0.062216650824599207 0.7470838149019503
v -0.19846474758155541 -0.050878556750690133 0.75600154423004717
v -0.20457982999999999 0.082645580199999999 0.74754720900000005
v -0.19324798900000001 -0.082645580199999999 0.76341360800000002
v -0.19602773955777836 -0.066983710733237251 0.75964120181806272
v -0.24654350847201942 2.3801374791974536e-05 0.77638215486483575
v -0.24829270805969744 0.017519753888899703 0.77366491911038104
v -0.24488961546808802 -0.017474448957040922 0.77906508807162567
v -0.25012062960572451 0.034643166021936733 0.77098327773699771
v -0.24317659505922129 -0.034605903227365745 0.78143769691396736
v -0.24168207055485746 -0.051141166478838283 0.78352371228672624
v -0.25180133096070922 0.051167261536765304 0.76819549686315214
v -0.25355434248690478 0.067091931879582289 0.7654091507969516
v -0.2553069 0.082645580199999999 0.76257509000000001
v -0.24043021147055516 -0.067078244403427467 0.78531314177182387
v -0.21279680718610822 -0.082645580200000013 0.77254612292724989
v -0.20315676962580145 -0.082645580200000013 0.76795037420967716
v -0.23838906992924791 0.082645580200000013 0.75754708983647001
v -0.22148004659473622 0.082645580200000013 0.75253779617075578
v -0.23927517249999999 -0.082645580199999999 0.78686115150000002
v -0.22200213314477774 -0.082645580200000013 0.77723642279499217
v -0.23077290054256594 -0.082645580199999985 0.78202018044596933
v 0.23915601300825903 -0.016287563621769963 -0.78688134564229983
v 0.23862959463859534 0.0024157893265448266 -0.78741575448107715
v 0.23793383120628842 0.021870015211155454 -0.78859778298278149
v 0.23944749417546546 -0.034081540080779696 -0.78674419466838685
v 0.2367901017774387 0.041861257317752879 -0.79027020730248565
v 0.23943810167632867 -0.050939719853267645 -0.78671951649929617
v 0.23520807438505403 0.062179260579077966 -0.79231121991732922
v 0.23357939699999999 0.082645580199999999 -0.79471874200000003
v 0.23939075246895106 -0.067016129980094763 -0.7868015962057171
v 0.19843239281082814 0.0025018993726087994 -0.75568454256871997
v 0.19784893054372854 0.021946539083070572 -0.75681468110597372
v 0.19858702742594378 -0.016203039639048421 -0.75558818110600035
v 0.19667479640032318 0.041918845639895633 -0.7586169820943407
v 0.19799796095348179 -0.034009130683752477 -0.75638830487549225
v 0.19497737836577878 0.062210553694244143 -0.7608203901768269
v 0.1968523309329572 -0.050886322043629306 -0.75814559153782479
v 0.19324798900000001 0.082645580199999999 -0.76341366799999999
v 0.19324798900000001 -0.082645580199999999 -0.76341366799999999
v 0.19526458144497516 -0.066987417328516721 -0.76064084789679764
v 0.21279680718610822 -0.082645580200000013 -0.77254617813785409
v 0.20315676962580148 -0.082645580200000013 -0.76795043127703122
v 0.21053558869974337 0.082645580199999985 -0.77569952058223157
v 0.20202846140527417 0.082645580200000013 -0.76952790962752382
v 0.21860119231937877 0.082645580199999985 -0.78196215087852883
v 0.23927517249999999 -0.082645580199999999 -0.78686121099999995
v 0.22200213314477776 -0.082645580200000013 -0.7772364778980827
v 0.230772900542566 -0.082645580200000013 -0.78202023720116631
v 0.22622620920999648 0.082645580200000013 -0.78831356795544427
v -0.091971956199999996 0.082645580199999999 0.24544782900000001
v -0.096870962354630288 -0.021853040644357447 0.25543449610482727
v -0.096212384942225615 -0.0067087665961785082 0.25409199830778623
v -0.092738548727530637 0.067798451345702712 0.24701051457612938
v -0.100482345 -0.082645580199999999 0.26279634200000002
v -0.094225320171573299 0.038133451685628476 0.25004133291607455
v -0.09760592654245076 -0.037059251156651686 0.25693272755377239
v -0.098458504672283328 -0.052277113098993314 0.25867071462450297
v -0.095576174388990548 0.0083347553827466218 0.25279507133465351
v -0.099432007845616371 -0.067473030337270146 0.26065522253577977
v -0.093494058740285241 0.052963917193607726 0.24855064929443893
v -0.094920043489238215 0.023272237733059805 0.25145755086685717
v -0.13780896400000001 -0.082645580199999999 0.222962245
v -0.13777131748687765 -0.066545900158219026 0.22288552387222343
v -0.13851537301294198 -0.00054768883654504326 0.22440227502619275
v -0.13935556197796728 0.0163059735680114 0.2261150074895675
v -0.14631936000000001 0.082645580199999999 0.24031077300000001
v -0.14060468293402847 0.033110446061948913 0.22866134051799752
v -0.13781635382856594 -0.033939752513369885 0.22297735163053101
v -0.13803386874344331 -0.017329260427341866 0.22342071736897107
v -0.142247131615133 0.049771508473384247 0.23200951262188918
v -0.14419850467912304 0.066264281486581311 0.23598740294077267
v -0.13775721079455955 -0.050337077561514898 0.22285674871796826
v -0.11914565429742305 -0.082645580200000013 0.24287929360300928
v -0.12847731028460826 -0.082645580199999985 0.23292077042654535
v -0.10981399842890466 -0.082645580200000013 0.25283781671913175
v -0.11914565766267227 0.082645580199999985 0.24287930061394519
v -0.13273250858886559 0.082645580199999999 0.24159503512001851
v -0.10555880699265963 0.082645580199999999 0.24416356633401759
v 0.23292582642891846 0.024419809055218955 -0.41685871003714514
v 0.22658961124758059 -0.044378205868619451 -0.4039423018696322
v 0.22829007042505106 -0.025980120249072515 -0.4074086953802642
v 0.23451436489534114 0.039659054158933241 -0.42009697980019195
v 0.22988246833542708 -0.0083432510746521433 -0.41065480540397903
v 0.23140542631935496 0.0084511445340437683 -0.41375935657893298
v 0.23803889792159294 0.068583080038313288 -0.42728177143917578
v 0.23993381899999999 0.082645580199999999 -0.43114453600000002
v 0.22478351566380605 -0.063355293323235626 -0.40026057293255085
v 0.22291298200000001 -0.082645580199999999 -0.39644751
v 0.23621779453079314 0.054319581941215722 -0.42356941356277689
v 0.18422409316010424 0.049820183132046905 -0.43350455242950225
v 0.18359212891357213 0.033669678114401323 -0.4322162526608444
v 0.18489517325244439 0.066179592402107856 -0.43487254043285106
v 0.18246749113250649 0.0023438533344207349 -0.42992369486473325
v 0.18558639299999999 0.082645580199999999 -0.436281592
v 0.18300999405851281 0.017819935461565177 -0.43102957660726138
v 0.18053126036675188 -0.041572453473250399 -0.42597665863875644
v 0.17707598199999999 -0.082645580199999999 -0.41893306400000002
v 0.17837555541763839 -0.069118925676724036 -0.42158227762178713
v 0.18130376945604049 -0.027343054838660671 -0.42755143593734601
v 0.17955275743141402 -0.055466308116142102 -0.42398197571454632
v 0.18192262093596123 -0.012713720909881352 -0.42881296963588689
v 0.20019159801250058 -0.082645580200000013 -0.40814530686307604
v 0.18867461369479688 -0.082645580200000013 -0.41363342331316494
v 0.21159311444336376 -0.082645580199999985 -0.40239064594820739
v 0.21276010514053867 0.082645580199999985 -0.4337130635757469
v 0.19917324904416778 0.082645580200000013 -0.43499732930700263
v 0.22634696174037031 0.082645580200000041 -0.43242879809301293
v -0.21334726258755904 -0.00029742132408408235 -0.81800783920075992
v -0.2132036847544502 -0.020995815915544502 -0.8181906473420113
v -0.21320830155489109 0.020446235352298177 -0.81818146170818595
v -0.21272409588639912 -0.041617506861382159 -0.81862769479741815
v -0.21273119747836211 0.041196853419843887 -0.81861527479152829
v -0.2120620126279292 -0.062158072098281898 -0.8193278658059564
v -0.21206542387748678 0.061930419930320932 -0.81931761255315805
v -0.21134187300000001 0.082645580199999999 -0.82021200699999997
v -0.21134187300000001 -0.082645580199999999 -0.82021200699999997
v -0.17792326122673638 -0.002440534374433131 -0.78103398474054564
v -0.17775640200925036 0.016080888485545668 -0.78121645448854293
v -0.1786470479202924 -0.021743380244792353 -0.78031964411999599
v -0.17820432167861683 0.033747904854295213 -0.78074865340381328
v -0.17921338037984291 0.050598487831863978 -0.77959180525534566
v -0.18114533184484233 -0.062050582887332742 -0.77770108468360599
v -0.17978344685402656 -0.041677932811890389 -0.77917419369691288
v -0.18267835700000001 0.082645580199999999 -0.77612024499999999
v -0.18083083870082617 0.06680186838412995 -0.77802877930714187
v -0.18267835700000001 -0.082645580199999999 -0.77612024499999999
v -0.19695868993303578 -0.082645580199999985 -0.79808315919965089
v -0.18980787149831202 -0.082645580199999985 -0.78708452008030272
v -0.20413963247447886 -0.082645580200000013 -0.80913039914545193
v -0.19663956382476816 0.082645580200000013 -0.79829767881813773
v -0.18958221787411972 0.082645580200000013 -0.78723620660208149
v -0.20391397362874752 0.082645580200000013 -0.80928208917719924
v 0.16679690270428243 0.015653982103426167 0.79211151894295251
v 0.16769833275820198 -0.0014846768293673698 0.79123740477010962
v 0.16740565664879867 -0.018476329633528129 0.79157906606517392
v 0.16578446952062537 -0.03512489923282653 0.79311230880806871
v 0.16484189489537554 0.032727030625404163 0.79402179562285768
v 0.16191378719427571 0.049585111245286362 0.79659929861884171
v 0.16285986304082459 -0.051324206203519927 0.79569716314037175
v 0.15901645091500954 -0.067109383993342542 0.7992013942226498
v 0.15452833499999999 -0.082645580199999999 0.803060412
v 0.15452833499999999 0.082645580199999999 0.803060412
v 0.15840489281276476 0.066196549324824244 0.79972699021940141
v 0.1747989566475186 0.00010056149913241353 0.85149376953585543
v 0.17482879796495104 -0.017353378720738926 0.8516109442004719
v 0.17482701163690623 0.01754435196036452 0.85161146344537086
v 0.17482663396402159 -0.034465797349167451 0.85178352680166169
v 0.17482390937675402 0.034627572712256721 0.85178461433203045
v 0.17472021082477593 -0.051018156070174611 0.8518201049451215
v 0.17471807634417236 0.051135090138594769 0.85182200878935066
v 0.17467276050563157 -0.067006640404664128 0.85187023017690122
v 0.17467140166705791 0.067067859337809066 0.85187134673470088
v 0.16678645577808862 -0.082645580200000013 0.82796624933073115
v 0.16316057423299507 -0.082645580200000013 0.81975179195569314
v 0.15900215902855414 -0.082645580199999985 0.81143293007556905
v 0.16678645577808859 0.082645580200000013 0.82796624933073137
v 0.16316057423299507 0.082645580199999985 0.81975179195569337
v 0.15900215902855416 0.082645580200000013 0.81143293007556916
v 0.17461687300000001 -0.082645580199999999 0.85183724800000005
v 0.17461687300000001 0.082645580199999999 0.85183724800000005
v 0.17235690289618413 -0.082645580199999985 0.84398214644385794
v 0.16981913876644922 -0.082645580199999985 0.8360420629908446
v 0.16981913876644919 0.082645580200000013 0.83604206299084471
v 0.17235690289618413 0.082645580199999985 0.84398214644385816
v 0.30231791699999999 -0.082645580199999999 0.41748070700000001
v 0.30231791699999999 0.082645580199999999 0.41748070700000001
v 0.35179480899999999 -0.082645580199999999 0.43007713600000003
v 0.35179480899999999 0.082645580199999999 0.43007713600000003
v -0.30231791699999999 0.082645580199999999 -0.41748073699999999
v -0.30231791699999999 -0.082645580199999999 -0.41748073699999999
v -0.35179480899999999 0.082645580199999999 -0.43007713600000003
v -0.35179480899999999 -0.082645580199999999 -0.43007713600000003
v 0.30231791699999999 -0.073462732150000001 0.41748070700000001
v 0.30231791699999999 0.073462732150000001 0.41748070700000001
v 0.2999875695 -0.082645580199999999 0.42663393900000002
v 0.2999875695 0.082645580199999999 0.42663393900000002
v 0.31056405600000003 -0.082645580199999999 0.41958010200000001
v 0.34354867049999999 -0.082645580199999999 0.427977726
v 0.31056405600000003 0.082645580199999999 0.41958010200000001
v 0.34354867049999999 0.082645580199999999 0.427977726
v 0.35179480899999999 -0.073462732150000001 0.43007713600000003
v 0.35179480899999999 0.073462732150000001 0.43007713600000003
v 0.34946447599999997 0.082645580199999999 0.43923035300000002
v 0.34946447599999997 -0.082645580199999999 0.43923035300000002
v -0.30231791699999999 0.073462732150000001 -0.41748073699999999
v -0.30231791699999999 -0.073462732150000001 -0.41748073699999999
v -0.2999875695 0.082645580199999999 -0.42663395399999998
v -0.2999875695 -0.082645580199999999 -0.42663395399999998
v -0.34354867049999999 0.082645580199999999 -0.42797774100000002
v -0.34354867049999999 -0.082645580199999999 -0.42797774100000002
v -0.31056405600000003 0.082645580199999999 -0.41958013199999999
v -0.31056405600000003 -0.082645580199999999 -0.41958013199999999
v -0.35179480899999999 0.073462732150000001 -0.43007713600000003
v -0.35179480899999999 -0.073462732150000001 -0.43007713600000003
v -0.34946447599999997 -0.082645580199999999 -0.43923035300000002
v -0.34946447599999997 0.082645580199999999 -0.43923035300000002
v 0.30231791699999999 0.082645580199999999 0.41748070700000001
v 0.30231791699999999 0.082645580199999999 0.41748070700000001
v 0.30231791699999999 -0.082645580199999999 0.41748070700000001
v 0.30231791699999999 -0.082645580199999999 0.41748070700000001
v 0.35179480899999999 -0.082645580199999999 0.43007713600000003
v 0.35179480899999999 -0.082645580199999999 0.43007713600000003
v 0.35179480899999999 0.082645580199999999 0.43007713600000003
v 0.35179480899999999 0.082645580199999999 0.43007713600000003
v -0.35179480899999999 0.082645580199999999 -0.43007713600000003
v -0.35179480899999999 0.082645580199999999 -0.43007713600000003
v -0.30231791699999999 0.082645580199999999 -0.41748073699999999
v -0.30231791699999999 0.082645580199999999 -0.41748073699999999
v -0.30231791699999999 -0.082645580199999999 -0.41748073699999999
v -0.30231791699999999 -0.082645580199999999 -0.41748073699999999
v -0.35179480899999999 -0.082645580199999999 -0.43007713600000003
v -0.35179480899999999 -0.082645580199999999 -0.43007713600000003
l 9/9 3/3
l 3/3 6/6
l 6/6 2/2
l 2/2 8/8
l 8/8 7/7
l 7/7 1/1
l 1/1 5/5
l 5/5 4/4
l 4/4 10/10
l 190/190 22/22
l 22/22 16/16
l 16/16 17/17
l 17/17 23/23
l 23/23 13/13
l 13/13 188/188
l 188/188 15/15
l 15/15 189/189
l 189/189 14/14
l 14/14 24/24
l 24/24 12/12
l 12/12 11/11
l 11/11 18/18
l 18/18 19/19
l 19/19 21/21
l 21/21 20/20
l 20/20 25/25
l 25/25 28/28
l 28/28 30/30
l 30/30 33/33
l 33/33 34/34
l 34/34 35/35
l 35/35 36/36
l 36/36 38/38
l 38/38 41/41
l 41/41 43/43
l 43/43 44/44
l 44/44 46/46
l 46/46 47/47
l 47/47 48/48
l 48/48 49/49
l 49/49 62/62
l 62/62 61/61
l 61/61 60/60
l 60/60 59/59
l 59/59 58/58
l 58/58 57/57
l 57/57 56/56
l 56/56 55/55
l 55/55 54/54
l 54/54 52/52
l 52/52 53/53
l 53/53 63/63
l 63/63 64/64
l 64/64 65/65
l 65/65 66/66
l 66/66 39/39
l 39/39 37/37
l 37/37 40/40
l 40/40 42/42
l 42/42 45/45
l 45/45 51/51
l 51/51 50/50
l 50/50 32/32
l 32/32 31/31
l 31/31 29/29
l 29/29 26/26
l 26/26 27/27
l 27/27 98/98
l 98/98 91/91
l 91/91 81/81
l 81/81 104/104
l 104/104 103/103
l 103/103 119/119
l 119/119 118/118
l 118/118 75/75
l 75/75 70/70
l 70/70 110/110
l 110/110 108/108
l 108/108 115/115
l 115/115 93/93
l 93/93 92/92
l 92/92 117/117
l 117/117 100/100
l 100/100 109/109
l 109/109 94/94
l 94/94 116/116
l 116/116 73/73
l 73/73 69/69
l 69/69 208/208
l 208/208 113/113
l 113/113 105/105
l 105/105 114/114
l 114/114 123/123
l 123/123 102/102
l 102/102 206/206
l 206/206 111/111
l 111/111 106/106
l 106/106 112/112
l 112/112 122/122
l 122/122 101/101
l 101/101 96/96
l 96/96 95/95
l 95/95 87/87
l 87/87 86/86
l 86/86 76/76
l 76/76 68/68
l 68/68 67/67
l 67/67 80/80
l 80/80 79/79
l 79/79 121/121
l 121/121 120/120
l 120/120 83/83
l 83/83 82/82
l 82/82 78/78
l 78/78 77/77
l 77/77 72/72
l 72/72 71/71
l 71/71 88/88
l 88/88 107/107
l 107/107 74/74
l 74/74 90/90
l 90/90 89/89
l 89/89 207/207
l 207/207 85/85
l 85/85 84/84
l 84/84 99/99
l 99/99 97/97
l 97/97 125/125
l 125/125 127/127
l 127/127 131/131
l 131/131 209/209
l 209/209 148/148
l 148/148 156/156
l 156/156 197/197
l 197/197 137/137
l 137/137 200/200
l 200/200 133/133
l 133/133 132/132
l 132/132 134/134
l 134/134 135/135
l 135/135 136/136
l 136/136 191/191
l 191/191 138/138
l 138/138 192/192
l 192/192 139/139
l 139/139 140/140
l 140/140 141/141
l 141/141 142/142
l 142/142 193/193
l 193/193 143/143
l 143/143 194/194
l 194/194 144/144
l 144/144 145/145
l 145/145 146/146
l 146/146 147/147
l 147/147 149/149
l 149/149 164/164
l 164/164 163/163
l 163/163 162/162
l 162/162 161/161
l 161/161 160/160
l 160/160 159/159
l 159/159 157/157
l 157/157 155/155
l 155/155 154/154
l 154/154 153/153
l 153/153 152/152
l 152/152 196/196
l 196/196 151/151
l 151/151 195/195
l 195/195 150/150
l 150/150 165/165
l 165/165 166/166
l 166/166 167/167
l 167/167 198/198
l 198/198 168/168
l 168/168 199/199
l 199/199 169/169
l 169/169 170/170
l 170/170 171/171
l 171/171 172/172
l 172/172 173/173
l 173/173 201/201
l 201/201 174/174
l 174/174 202/202
l 202/202 158/158
l 158/158 130/130
l 130/130 129/129
l 129/129 128/128
l 128/128 124/124
l 124/124 126/126
l 126/126 184/184
l 184/184 183/183
l 183/183 182/182
l 182/182 175/175
l 175/175 176/176
l 176/176 187/187
l 187/187 178/178
l 178/178 204/204
l 204/204 179/179
l 179/179 203/203
l 203/203 177/177
l 177/177 186/186
l 186/186 181/181
l 181/181 180/180
l 180/180 185/185
l 185/185 205/205
l 387/387 220/220
l 220/220 217/217
l 217/217 216/216
l 216/216 215/215
l 215/215 214/214
l 214/214 222/222
l 222/222 223/223
l 223/223 211/211
l 211/211 210/210
l 210/210 221/221
l 221/221 213/213
l 213/213 212/212
l 212/212 219/219
l 219/219 218/218
l 218/218 225/225
l 225/225 228/228
l 228/228 230/230
l 230/230 231/231
l 231/231 232/232
l 232/232 265/265
l 265/265 264/264
l 264/264 263/263
l 263/263 262/262
l 262/262 261/261
l 261/261 260/260
l 260/260 259/259
l 259/259 258/258
l 258/258 257/257
l 257/257 235/235
l 235/235 234/234
l 234/234 236/236
l 236/236 238/238
l 238/238 241/241
l 241/241 242/242
l 242/242 243/243
l 243/243 244/244
l 244/244 245/245
l 245/245 246/246
l 246/246 247/247
l 247/247 249/249
l 249/249 250/250
l 250/250 251/251
l 251/251 252/252
l 252/252 253/253
l 253/253 254/254
l 254/254 255/255
l 255/255 256/256
l 256/256 239/239
l 239/239 240/240
l 240/240 233/233
l 233/233 248/248
l 248/248 237/237
l 237/237 401/401
l 401/401 229/229
l 229/229 227/227
l 227/227 224/224
l 224/224 226/226
l 226/226 298/298
l 298/298 290/290
l 290/290 282/282
l 282/282 303/303
l 303/303 304/304
l 304/304 314/314
l 314/314 315/315
l 315/315 276/276
l 276/276 271/271
l 271/271 295/295
l 295/295 296/296
l 296/296 288/288
l 288/288 289/289
l 289/289 277/277
l 277/277 266/266
l 266/266 267/267
l 267/267 280/280
l 280/280 281/281
l 281/281 319/319
l 319/319 318/318
l 318/318 286/286
l 286/286 403/403
l 403/403 287/287
l 287/287 299/299
l 299/299 300/300
l 300/300 302/302
l 302/302 322/322
l 322/322 408/408
l 408/408 311/311
l 311/311 305/305
l 305/305 310/310
l 310/310 320/320
l 320/320 321/321
l 321/321 309/309
l 309/309 306/306
l 306/306 308/308
l 308/308 406/406
l 406/406 269/269
l 269/269 273/273
l 273/273 313/313
l 313/313 292/292
l 292/292 405/405
l 405/405 307/307
l 307/307 301/301
l 301/301 312/312
l 312/312 407/407
l 407/407 272/272
l 272/272 268/268
l 268/268 317/317
l 317/317 285/285
l 285/285 316/316
l 316/316 274/274
l 274/274 402/402
l 402/402 275/275
l 275/275 291/291
l 291/291 293/293
l 293/293 404/404
l 404/404 270/270
l 270/270 278/278
l 278/278 279/279
l 279/279 283/283
l 283/283 284/284
l 284/284 297/297
l 297/297 294/294
l 294/294 324/324
l 324/324 326/326
l 326/326 329/329
l 329/329 331/331
l 331/331 349/349
l 349/349 392/392
l 392/392 351/351
l 351/351 397/397
l 397/397 348/348
l 348/348 347/347
l 347/347 346/346
l 346/346 345/345
l 345/345 344/344
l 344/344 391/391
l 391/391 343/343
l 343/343 390/390
l 390/390 342/342
l 342/342 341/341
l 341/341 340/340
l 340/340 339/339
l 339/339 389/389
l 389/389 338/338
l 338/338 388/388
l 388/388 337/337
l 337/337 336/336
l 336/336 334/334
l 334/334 335/335
l 335/335 350/350
l 350/350 332/332
l 332/332 373/373
l 373/373 353/353
l 353/353 352/352
l 352/352 354/354
l 354/354 355/355
l 355/355 356/356
l 356/356 357/357
l 357/357 358/358
l 358/358 359/359
l 359/359 360/360
l 360/360 393/393
l 393/393 361/361
l 361/361 394/394
l 394/394 362/362
l 362/362 363/363
l 363/363 364/364
l 364/364 365/365
l 365/365 395/395
l 395/395 366/366
l 366/366 396/396
l 396/396 367/367
l 367/367 368/368
l 368/368 369/369
l 369/369 370/370
l 370/370 371/371
l 371/371 398/398
l 398/398 372/372
l 372/372 399/399
l 399/399 333/333
l 333/333 330/330
l 330/330 328/328
l 328/328 327/327
l 327/327 323/323
l 323/323 325/325
l 325/325 382/382
l 382/382 380/380
l 380/380 381/381
l 381/381 378/378
l 378/378 379/379
l 379/379 385/385
l 385/385 386/386
l 386/386 374/374
l 374/374 375/375
l 375/375 384/384
l 384/384 376/376
l 376/376 377/377
l 377/377 409/409
l 409/409 383/383
l 383/383 400/400
l 412/412 410/410
l 410/410 411/411
l 411/411 413/413
l 416/416 414/414
l 414/414 415/415
l 415/415 417/417
l 426/426 420/420
l 420/420 423/423
l 423/423 422/422
l 422/422 419/419
l 419/419 418/418
l 418/418 425/425
l 425/425 424/424
l 424/424 421/421
l 421/421 427/427
l 605/605 437/437
l 437/437 430/430
l 430/430 431/431
l 431/431 439/439
l 439/439 428/428
l 428/428 429/429
l 429/429 441/441
l 441/441 440/440
l 440/440 432/432
l 432/432 433/433
l 433/433 434/434
l 434/434 435/435
l 435/435 438/438
l 438/438 436/436
l 436/436 543/543
l 543/543 545/545
l 545/545 546/546
l 546/546 547/547
l 547/547 567/567
l 567/567 590/590
l 590/590 589/589
l 589/589 588/588
l 588/588 587/587
l 587/587 586/586
l 586/586 613/613
l 613/613 585/585
l 585/585 612/612
l 612/612 584/584
l 584/584 583/583
l 583/583 582/582
l 582/582 581/581
l 581/581 580/580
l 580/580 611/611
l 611/611 579/579
l 579/579 610/610
l 610/610 578/578
l 578/578 577/577
l 577/577 576/576
l 576/576 575/575
l 575/575 574/574
l 574/574 573/573
l 573/573 572/572
l 572/572 571/571
l 571/571 569/569
l 569/569 570/570
l 570/570 591/591
l 591/591 549/549
l 549/549 568/568
l 568/568 552/552
l 552/552 551/551
l 551/551 553/553
l 553/553 606/606
l 606/606 554/554
l 554/554 607/607
l 607/607 555/555
l 555/555 556/556
l 556/556 557/557
l 557/557 558/558
l 558/558 560/560
l 560/560 608/608
l 608/608 561/561
l 561/561 609/609
l 609/609 562/562
l 562/562 563/563
l 563/563 564/564
l 564/564 565/565
l 565/565 550/550
l 550/550 566/566
l 566/566 559/559
l 559/559 623/623
l 623/623 548/548
l 548/548 544/544
l 544/544 542/542
l 542/542 507/507
l 507/507 509/509
l 509/509 496/496
l 496/496 493/493
l 493/493 513/513
l 513/513 514/514
l 514/514 538/538
l 538/538 539/539
l 539/539 489/489
l 489/489 485/485
l 485/485 521/521
l 521/521 516/516
l 516/516 529/529
l 529/529 499/499
l 499/499 500/500
l 500/500 530/530
l 530/530 505/505
l 505/505 520/520
l 520/520 511/511
l 511/511 531/531
l 531/531 497/497
l 497/497 498/498
l 498/498 617/617
l 617/617 533/533
l 533/533 504/504
l 504/504 519/519
l 519/519 512/512
l 512/512 534/534
l 534/534 618/618
l 618/618 501/501
l 501/501 502/502
l 502/502 532/532
l 532/532 508/508
l 508/508 517/517
l 517/517 518/518
l 518/518 536/536
l 536/536 537/537
l 537/537 620/620
l 620/620 522/522
l 522/522 515/515
l 515/515 523/523
l 523/523 524/524
l 524/524 621/621
l 621/621 495/495
l 495/495 492/492
l 492/492 525/525
l 525/525 616/616
l 616/616 486/486
l 486/486 487/487
l 487/487 490/490
l 490/490 491/491
l 491/491 541/541
l 541/541 535/535
l 535/535 619/619
l 619/619 540/540
l 540/540 527/527
l 527/527 528/528
l 528/528 622/622
l 622/622 526/526
l 526/526 506/506
l 506/506 503/503
l 503/503 488/488
l 488/488 494/494
l 494/494 510/510
l 510/510 445/445
l 445/445 443/443
l 443/443 446/446
l 446/446 448/448
l 448/448 615/615
l 615/615 465/465
l 465/465 476/476
l 476/476 453/453
l 453/453 468/468
l 468/468 467/467
l 467/467 484/484
l 484/484 483/483
l 483/483 482/482
l 482/482 481/481
l 481/481 480/480
l 480/480 479/479
l 479/479 478/478
l 478/478 477/477
l 477/477 475/475
l 475/475 474/474
l 474/474 473/473
l 473/473 472/472
l 472/472 471/471
l 471/471 470/470
l 470/470 469/469
l 469/469 466/466
l 466/466 463/463
l 463/463 460/460
l 460/460 461/461
l 461/461 464/464
l 464/464 462/462
l 462/462 459/459
l 459/459 458/458
l 458/458 457/457
l 457/457 456/456
l 456/456 455/455
l 455/455 454/454
l 454/454 452/452
l 452/452 450/450
l 450/450 451/451
l 451/451 449/449
l 449/449 447/447
l 447/447 442/442
l 442/442 444/444
l 444/444 601/601
l 601/601 595/595
l 595/595 594/594
l 594/594 602/602
l 602/602 593/593
l 593/593 592/592
l 592/592 604/604
l 604/604 603/603
l 603/603 597/597
l 597/597 596/596
l 596/596 599/599
l 599/599 598/598
l 598/598 600/600
l 600/600 614/614
l 803/803 635/635
l 635/635 632/632
l 632/632 631/631
l 631/631 636/636
l 636/636 626/626
l 626/626 801/801
l 801/801 628/628
l 628/628 802/802
l 802/802 627/627
l 627/627 637/637
l 637/637 625/625
l 625/625 624/624
l 624/624 630/630
l 630/630 629/629
l 629/629 634/634
l 634/634 633/633
l 633/633 739/739
l 739/739 741/741
l 741/741 742/742
l 742/742 744/744
l 744/744 746/746
l 746/746 787/787
l 787/787 786/786
l 786/786 785/785
l 785/785 784/784
l 784/784 783/783
l 783/783 811/811
l 811/811 782/782
l 782/782 810/810
l 810/810 781/781
l 781/781 780/780
l 780/780 779/779
l 779/779 763/763
l 763/763 764/764
l 764/764 808/808
l 808/808 765/765
l 765/765 809/809
l 809/809 766/766
l 766/766 767/767
l 767/767 768/768
l 768/768 769/769
l 769/769 771/771
l 771/771 772/772
l 772/772 773/773
l 773/773 774/774
l 774/774 775/775
l 775/775 776/776
l 776/776 777/777
l 777/777 762/762
l 762/762 761/761
l 761/761 760/760
l 760/760 759/759
l 759/759 758/758
l 758/758 807/807
l 807/807 757/757
l 757/757 806/806
l 806/806 756/756
l 756/756 755/755
l 755/755 754/754
l 754/754 753/753
l 753/753 752/752
l 752/752 805/805
l 805/805 751/751
l 751/751 804/804
l 804/804 750/750
l 750/750 749/749
l 749/749 747/747
l 747/747 748/748
l 748/748 778/778
l 778/778 770/770
l 770/770 745/745
l 745/745 743/743
l 743/743 740/740
l 740/740 738/738
l 738/738 712/712
l 712/712 715/715
l 715/715 706/706
l 706/706 702/702
l 702/702 718/718
l 718/718 717/717
l 717/717 736/736
l 736/736 735/735
l 735/735 698/698
l 698/698 696/696
l 696/696 714/714
l 714/714 713/713
l 713/713 704/704
l 704/704 703/703
l 703/703 699/699
l 699/699 684/684
l 684/684 683/683
l 683/683 726/726
l 726/726 732/732
l 732/732 688/688
l 688/688 687/687
l 687/687 692/692
l 692/692 815/815
l 815/815 691/691
l 691/691 731/731
l 731/731 727/727
l 727/727 686/686
l 686/686 685/685
l 685/685 816/816
l 816/816 705/705
l 705/705 690/690
l 690/690 689/689
l 689/689 733/733
l 733/733 725/725
l 725/725 682/682
l 682/682 681/681
l 681/681 711/711
l 711/711 694/694
l 694/694 693/693
l 693/693 729/729
l 729/729 722/722
l 722/722 724/724
l 724/724 709/709
l 709/709 708/708
l 708/708 730/730
l 730/730 721/721
l 721/721 728/728
l 728/728 695/695
l 695/695 697/697
l 697/697 734/734
l 734/734 700/700
l 700/700 710/710
l 710/710 723/723
l 723/723 737/737
l 737/737 720/720
l 720/720 719/719
l 719/719 817/817
l 817/817 701/701
l 701/701 707/707
l 707/707 716/716
l 716/716 641/641
l 641/641 639/639
l 639/639 642/642
l 642/642 645/645
l 645/645 646/646
l 646/646 654/654
l 654/654 655/655
l 655/655 653/653
l 653/653 652/652
l 652/652 651/651
l 651/651 649/649
l 649/649 650/650
l 650/650 656/656
l 656/656 680/680
l 680/680 679/679
l 679/679 678/678
l 678/678 658/658
l 658/658 657/657
l 657/657 659/659
l 659/659 660/660
l 660/660 661/661
l 661/661 662/662
l 662/662 663/663
l 663/663 664/664
l 664/664 665/665
l 665/665 666/666
l 666/666 667/667
l 667/667 668/668
l 668/668 669/669
l 669/669 670/670
l 670/670 671/671
l 671/671 672/672
l 672/672 673/673
l 673/673 674/674
l 674/674 675/675
l 675/675 676/676
l 676/676 677/677
l 677/677 648/648
l 648/648 647/647
l 647/647 644/644
l 644/644 643/643
l 643/643 638/638
l 638/638 640/640
l 640/640 797/797
l 797/797 795/795
l 795/795 796/796
l 796/796 799/799
l 799/799 790/790
l 790/790 812/812
l 812/812 792/792
l 792/792 813/813
l 813/813 791/791
l 791/791 800/800
l 800/800 789/789
l 789/789 788/788
l 788/788 793/793
l 793/793 794/794
l 794/794 798/798
l 798/798 814/814
l 826/826 820/820
l 820/820 822/822
l 822/822 819/819
l 819/819 825/825
l 825/825 824/824
l 824/824 818/818
l 818/818 823/823
l 823/823 821/821
l 821/821 827/827
l 830/830 828/828
l 828/828 829/829
l 829/829 831/831
l 834/834 832/832
l 832/832 833/833
l 833/833 835/835
l 844/844 840/840
l 840/840 843/843
l 843/843 842/842
l 842/842 839/839
l 839/839 838/838
l 838/838 837/837
l 837/837 836/836
l 836/836 841/841
l 841/841 845/845
l 863/863 864/864
l 864/864 868/868
l 868/868 869/869
l 869/869 853/853
l 853/853 851/851
l 851/851 849/849
l 849/849 847/847
l 847/847 846/846
l 846/846 848/848
l 848/848 850/850
l 850/850 852/852
l 852/852 855/855
l 855/855 854/854
l 854/854 867/867
l 867/867 866/866
l 866/866 871/871
l 871/871 872/872
l 872/872 870/870
l 870/870 865/865
l 865/865 861/861
l 861/861 860/860
l 860/860 858/858
l 858/858 856/856
l 856/856 857/857
l 857/857 859/859
l 859/859 862/862
l 862/862 863/863
l 900/900 896/896
l 896/896 894/894
l 894/894 895/895
l 895/895 889/889
l 889/889 887/887
l 887/887 885/885
l 885/885 883/883
l 883/883 882/882
l 882/882 884/884
l 884/884 886/886
l 886/886 888/888
l 888/888 891/891
l 891/891 890/890
l 890/890 893/893
l 893/893 892/892
l 892/892 898/898
l 898/898 899/899
l 899/899 897/897
l 897/897 881/881
l 881/881 878/878
l 878/878 876/876
l 876/876 873/873
l 873/873 874/874
l 874/874 875/875
l 875/875 877/877
l 877/877 879/879
l 879/879 880/880
l 880/880 900/900
l 920/920 915/915
l 915/915 916/916
l 916/916 918/918
l 918/918 921/921
l 921/921 922/922
l 922/922 917/917
l 917/917 928/928
l 928/928 927/927
l 927/927 929/929
l 929/929 901/901
l 901/901 904/904
l 904/904 911/911
l 911/911 906/906
l 906/906 912/912
l 912/912 909/909
l 909/909 903/903
l 903/903 902/902
l 902/902 907/907
l 907/907 908/908
l 908/908 910/910
l 910/910 905/905
l 905/905 926/926
l 926/926 924/924
l 924/924 925/925
l 925/925 913/913
l 913/913 914/914
l 914/914 923/923
l 923/923 919/919
l 919/919 920/920
l 953/953 955/955
l 955/955 939/939
l 939/939 938/938
l 938/938 931/931
l 931/931 932/932
l 932/932 934/934
l 934/934 935/935
l 935/935 930/930
l 930/930 933/933
l 933/933 940/940
l 940/940 936/936
l 936/936 937/937
l 937/937 958/958
l 958/958 956/956
l 956/956 957/957
l 957/957 945/945
l 945/945 943/943
l 943/943 941/941
l 941/941 942/942
l 942/942 946/946
l 946/946 944/944
l 944/944 952/952
l 952/952 950/950
l 950/950 947/947
l 947/947 951/951
l 951/951 949/949
l 949/949 948/948
l 948/948 954/954
l 954/954 953/953
l 983/983 966/966
l 966/966 965/965
l 965/965 963/963
l 963/963 961/961
l 961/961 959/959
l 959/959 960/960
l 960/960 962/962
l 962/962 964/964
l 964/964 967/967
l 967/967 980/980
l 980/980 978/978
l 978/978 979/979
l 979/979 977/977
l 977/977 973/973
l 973/973 974/974
l 974/974 970/970
l 970/970 968/968
l 968/968 969/969
l 969/969 971/971
l 971/971 972/972
l 972/972 976/976
l 976/976 975/975
l 975/975 982/982
l 982/982 981/981
l 981/981 983/983
l 986/986 985/985
l 985/985 984/984
l 984/984 988/988
l 988/988 989/989
l 989/989 994/994
l 994/994 993/993
l 993/993 1009/1009
l 1009/1009 1008/1008
l 1008/1008 1007/1007
l 1007/1007 1014/1014
l 1014/1014 1015/1015
l 1015/1015 1011/1011
l 1011/1011 1003/1003
l 1003/1003 1001/1001
l 1001/1001 999/999
l 999/999 997/997
l 997/997 995/995
l 995/995 996/996
l 996/996 998/998
l 998/998 1000/1000
l 1000/1000 1002/1002
l 1002/1002 1010/1010
l 1010/1010 1012/1012
l 1012/1012 1013/1013
l 1013/1013 1004/1004
l 1004/1004 1005/1005
l 1005/1005 1006/1006
l 1006/1006 992/992
l 992/992 991/991
l 991/991 990/990
l 990/990 987/987
l 987/987 986/986
l 1016/1016 1024/1024
l 1016/1016 1026/1026
l 1017/1017 1025/1025
l 1017/1017 1027/1027
l 1018/1018 1029/1029
l 1018/1018 1032/1032
l 1019/1019 1031/1031
l 1019/1019 1033/1033
l 1020/1020 1038/1038
l 1020/1020 1042/1042
l 1021/1021 1037/1037
l 1021/1021 1039/1039
l 1022/1022 1040/1040
l 1022/1022 1047/1047
l 1023/1023 1041/1041
l 1023/1023 1045/1045
l 1024/1024 1050/1050
l 1025/1025 1049/1049
l 1026/1026 1051/1051
l 1027/1027 1048/1048
l 1028/1028 1050/1050
l 1028/1028 1051/1051
l 1029/1029 1053/1053
l 1030/1030 1048/1048
l 1030/1030 1049/1049
l 1031/1031 1054/1054
l 1032/1032 1052/1052
l 1033/1033 1055/1055
l 1034/1034 1054/1054
l 1034/1034 1055/1055
l 1035/1035 1052/1052
l 1035/1035 1053/1053
l 1036/1036 1058/1058
l 1036/1036 1059/1059
l 1037/1037 1060/1060
l 1038/1038 1059/1059
l 1039/1039 1061/1061
l 1040/1040 1057/1057
l 1041/1041 1063/1063
l 1042/1042 1058/1058
l 1043/1043 1060/1060
l 1043/1043 1061/1061
l 1044/1044 1056/1056
l 1044/1044 1057/1057
l 1045/1045 1062/1062
l 1046/1046 1062/1062
l 1046/1046 1063/1063
l 1047/1047 1056/1056
