v 86.373306023522218 -20.125752903534334 2.2415313745362315
v 61.523298759089101 -18.627849375275883 2.7052989924011461
v 58.373078698886644 -15.693421529762908 2.5546063875390406
v 53.456146561663722 -3.8286265411206202 1.6241842673386813
v 54.306763108209935 -8.0491101766169297 1.9873244916328408
v 53.303536040491949 0.38977578493414144 1.2778448615074964
v 53.69624547445909 4.8137907466709144 0.95750436602187405
v 54.795106054836324 8.9836379789171001 0.7235642555960814
v 62.102977041756148 18.625588681060925 0.64785766846317583
v 58.956276816361978 16.086881230947871 0.5656284938266225
v 69.627337433157692 21.657307916447003 0.96891659021097043
v 65.697704248489671 20.488630287743149 0.77853645377229652
v 73.766895797334257 22.248173268313732 1.1697774095796443
v 77.994760427409076 22.122063642465669 1.3491380925711436
v 82.290577012902872 21.310789777709338 1.4753037994487193
v 86.535303695515282 19.677956516022963 1.5521114052860199
v 90.495650773470913 17.075535706577014 1.5721413198821383
v 93.706587816988645 13.336441075613394 1.5688366420774424
v 95.996800035080781 8.7840884566434809 1.5594270393166143
v 55.948939331923683 -12.078796327519886 2.3163353499885702
v 56.517841874065383 12.80039781552945 0.58934033944175401
v 95.542838392435954 -10.240091262223739 1.7862276344518955
v 93.307726770277782 -14.161403239780604 1.9248630440325274
v 90.25719984714857 -17.568947222195163 2.079857979798434
v 81.902536424771711 -21.681378333629286 2.4098828686491807
v 77.145401543418402 -22.400115032826385 2.5844964933611476
v 69.229921224489644 -21.760276297876935 2.7643577198268146
v 65.282561912572589 -20.556202252898814 2.7777270777254643
v 73.20751992587995 -22.376868585183793 2.697398917607237
v 97.285044333872634 3.730200616195174 1.5657654476275744
v 96.898065282013803 -5.9706293945325299 1.6789726668459188
v 97.470578763057816 -1.5263598904114448 1.6043791016421771
v -66.419981875128627 -20.869984326936077 -1.549792878606439
v -94.047128212453941 13.043766493553264 -0.2978670956900516
v -83.658889533052189 21.050414380651247 0.38529196343077132
v -59.21823183103163 -16.51783343577106 -1.5087937933897946
v -53.650167767897372 -4.9670855481706475 -0.6390748677467083
v -95.122435673797867 -11.260299030540203 -1.2510194840648134
v -95.901378926028144 9.1688176418903424 -0.51087225213190957
v -97.086732127110992 5.1537097003867665 -0.70488656009348127
v -97.52893783733029 1.1009095395509412 -0.90269676789472419
v -97.409235198035645 -2.8744897408009114 -1.0532366964502449
v -96.574570996228175 -7.1937139587753949 -1.1779137932343557
v -92.86430714495026 -14.862922399499567 -1.277192762090801
v -89.947355413379526 -17.902980465369858 -1.2692671589814846
v -86.400761244655655 -20.161837570298815 -1.2445424288228
v -82.415909206995508 -21.561684339878958 -1.2315624299025867
v -74.470800972480134 -22.548051123330961 -1.3360663366480225
v -78.502540491132748 -22.329014367436997 -1.2582150163769628
v -70.411879202016408 -22.008946340350668 -1.4602303822048848
v -62.624510806495053 -19.063963624257759 -1.5803592657790271
v -87.728086600344056 19.159185606271802 0.17190445646507396
v -91.259502899181001 16.43655693182194 -0.06179475968831432
v -79.308628853437313 22.059271433030048 0.57935949182101587
v -74.920869398696084 22.200785346497629 0.74540184583402747
v -69.873776197194104 21.589610537317135 0.89509731971191298
v -54.746687919575081 -9.2015888532796559 -1.0149581367607992
v -56.555293001651819 -13.14396391552812 -1.3182191500885279
v -65.085749813955871 20.112825579353533 0.97061000631473493
v -60.805043577856694 17.554828825986455 0.94365718832433609
v -57.454023297732235 13.838404121174545 0.80425119014632296
v -55.041777238932276 9.4059331413284966 0.55235311677754539
v -53.688144022255742 4.5065882818917293 0.1988983563891516
v -53.33036009685086 -0.56963825445556238 -0.23476194115266555
v -11.301547633274129 -19.797595923112823 -1.614685067127088
v -17.885809666792639 13.98348978722167 0.36799867959942578
v 21.315013958169772 4.1148264147656359 0.28271775521722498
v 18.726633601168277 12.327946442143437 0.491934432095401
v 20.41769206656614 8.3586277323385652 0.39691914910648085
v 16.196776790524265 15.762988535674133 0.5683697117533989
v 9.3157505968410188 20.376421179515582 0.74249511638984478
v 5.3768866761841831 21.543158963181437 0.8466066593455257
v 1.2991041963434427 21.992136963603535 0.9230274220422261
v 13.0185593461553 18.514230017599601 0.64125987408651852
v -2.8302938444195549 21.834011309606272 0.96172183799792821
v 21.527684841752155 -0.2188190641634406 0.13556804483228518
v 20.182025809446451 -8.9035688363540046 -0.24693266972988001
v -3.5159675900206322 -22.062017551120476 -1.6173714186224475
v 0.56162678300224833 -22.259770490162317 -1.5491505175012312
v 4.6230324364027595 -21.826591903280256 -1.4265191187239736
v 8.6895149056130556 -20.732421725955085 -1.2368932523707159
v 12.490246241084773 -18.902947884311025 -0.98910260348390788
v -17.538796856556445 -14.626838859664842 -1.4966183825035217
v -14.705325042440505 -17.568534967290319 -1.5718989167704702
v -19.972506712772805 9.986514573250485 0.019572148789071132
v -20.954329692857293 -7.1781321027856508 -1.2330072168835811
v -21.619528787337323 -3.1078139634252491 -1.0105565526103382
v -21.688270046989643 0.98914073906579159 -0.72825967283866633
v -7.0870252520523112 21.136138158155198 0.94373415856516907
v -11.20209565396555 19.673980719191317 0.83849616745480382
v -14.939052286451453 17.327306913282083 0.64295423468826618
v 21.230340954502033 -4.640222640171852 -0.042956492448742105
v -21.245259695885323 5.5977052550409763 -0.35654531690628377
v 15.793328942276361 -16.237799880879024 -0.73115407195135096
v -19.606563399514712 -11.077363976884982 -1.3888163466207768
v 18.459703570332891 -12.883456121769889 -0.48302663291150394
v -7.5106364446327678 -21.267195023312897 -1.63480598890605
v -128.80023332570002 0.2187086830389563 -46.940010630735209
v -105.21683744320964 -1.2360220220928864 -35.145824628090082
v -101.71255192063926 -3.1676324858995937 28.121876195948715
v -140.57919113120315 -2.7694295058601277 38.276004606906255
v -143.89806726819543 -1.195595665538848 -32.105803855013178
v -146.20720509994499 -1.4499741717400414 -26.453523414516308
v -140.73407006865233 -0.83077846965431768 -37.569166283761504
v -138.58325647597476 -0.57490578600146613 -40.417256607822168
v -135.89851190850121 -0.27419533640758742 -43.104041415883366
v -132.62953020440239 0.014913490044806396 -45.382790177488431
v -100.75684089693138 -1.9354804173010223 -24.720052218583383
v -99.285056570441895 -2.221203500351427 -19.02963236042023
v -102.6899048101925 -1.6034034452086585 -30.151387978069661
v -124.59880462367695 0.26536641237867137 -47.645448591420021
v -120.21818219326894 0.1413445136674111 -47.270957788106578
v -115.87665229928859 -0.12375174727823574 -45.823026714030902
v -111.85601062227722 -0.45971251392619239 -43.172394390711332
v -108.26563510412984 -0.84516025378658033 -39.562119979651314
v -117.76879779911138 -2.9028957467966934 46.836738301851952
v -122.07555490127244 -2.8071254233433902 47.818251409531896
v -113.68551508889317 -3.0047231824595104 44.768671409630905
v -106.6581286667643 -3.1277218910458604 37.878028680075651
v -109.93673841438627 -3.0762625007062185 41.761103445270734
v -103.84942623150019 -3.1562655661279448 33.310272946998737
v -99.986837330902489 -3.1588184941893553 22.57967498912398
v -98.80975476233364 -3.1387862011211967 16.771852294938874
v -97.413931465953851 -2.9853748266531115 4.8989324220312884
v -97.905766871973441 -3.077668824412148 10.860757415168891
v -97.645377044487631 -2.7048852215098296 -7.1519333117826278
v -97.409235198035645 -2.8744897408009114 -1.0532366964502449
v -126.41056241981335 -2.7405466128103084 47.646477922552748
v -130.59401993147998 -2.7161252945393768 46.538290580202911
v -137.77748080344344 -2.7484802298417028 41.630522257353761
v -142.81956582565695 -2.7789270329412838 34.618954097928423
v -147.80241819154935 -1.624873857785202 -20.714439259599665
v -148.82814571187333 -1.7579315063947325 -14.94327719094936
v -145.2143219722887 -2.764659436540561 29.532294993502134
v -146.92287672403558 -2.726801932259975 24.272128006432659
v -148.17035375939966 -2.6589823009193134 18.911709673449469
v -149.04631244827999 -2.5496125455353349 13.454625787889979
v -149.88421209658657 -2.2236952163288515 2.2623422133719568
v -149.58724145814051 -2.3973154051266605 7.9001442119055607
v -149.94767062662834 -2.0483919829657005 -3.4434947219110406
v -149.55189445755832 -1.8906053970440524 -9.1861995908988554
v -134.40947405501862 -2.7198072158615529 44.436068666469879
v -98.305502015490106 -2.4830430965607713 -13.149987670188082
v 101.09163476883168 -1.3290244495019179 26.23399935266297
v 149.92951519437116 -1.2209803116987032 1.0327081749648088
v 110.10849534024615 -1.0915573180544693 42.062355740476278
v 131.15525932908361 -0.34834418770234504 -46.139893347126765
v 118.18574539192787 -1.0235869074373287 -46.954885738386942
v 100.89019799037376 -0.95395960830153859 -25.919435755069049
v 99.560993797603928 -0.98299980283284349 -20.839541844941849
v 98.823364448397058 -1.6212674508137401 16.56818413394376
v 98.084839571935618 -1.6529608870954986 11.59422348391529
v 97.926310021131087 -1.2103055827936671 -9.9334494831571813
v 97.470578763057816 -1.5263598904114448 1.6043791016421771
v 97.673702484828908 -1.6255914909048639 6.5905690042060225
v 148.60785795498674 -0.60783316813253307 -16.4604390235531
v 149.79506505203602 -1.1229126750427274 -4.8063363333535474
v 149.73920896793334 -1.1790135816073484 6.812069667240614
v 149.22383928177283 -1.0161004667464344 12.49371352323044
v 143.01940060712789 -0.28994900690853159 34.056095399368758
v 139.85263111931013 -0.31888928734869471 39.004873062542664
v 145.40832749879405 -0.3721434066400624 28.873223644878131
v 147.08192104139877 -0.54839503253998267 23.512861310364293
v 148.30993613016375 -0.78422240388664255 18.052903083175075
v 102.76152599190132 -1.1836213692944635 30.758738493982946
v 104.80973788724836 -1.0702681218098886 34.965435138515573
v 113.4106074932858 -1.2037944477805995 44.670467243586913
v 107.23423938967252 -1.0468310297843959 38.781418903671124
v 117.03478084393277 -1.2992742003659239 46.535592096681356
v 135.08636849196421 -0.62491733470797239 43.878039528164464
v 137.7000248601704 -0.42430298299988267 41.532862153174236
v 128.50736920831986 -1.1062610201909897 47.181066217573125
v 132.00262661994526 -0.87122714650518596 45.831479920524785
v 124.74064788829955 -1.2758854324927156 47.806449829694216
v 120.86019696909023 -1.3424757652589849 47.591946980196795
v 141.23854489295047 0.13698654366158336 -37.131093270204168
v 147.39053355488392 -0.30308626952638179 -22.168330314578718
v 143.43815459422677 0.1094381031874042 -33.179169971954899
v 138.39316131786919 0.062000363061465905 -40.709995989943806
v 145.72866917585947 -0.052729401295748962 -27.761819484468067
v 102.62494597792765 -0.96093011826076769 -30.67997407822579
v 104.74978192366436 -1.0024492463458596 -35.092144537788684
v 107.37230675374857 -1.0613980819818645 -39.04618195245709
v 110.55465763521318 -1.1001019478525742 -42.386388030700857
v 126.92406994843134 -0.61980135308035433 -47.575209099819446
v 122.50926221976584 -0.85843865331115654 -47.803024812007678
v 114.17004525647278 -1.1022427929925129 -45.075305587161665
v 99.809155009216028 -1.4997052695309439 21.471790063771355
v 98.613111981939937 -1.0760330956348896 -15.48948259307976
v 97.529041308600085 -1.3688232013520507 -4.2161317435834844
v 149.38035456052054 -0.90333077593477329 -10.655732904768726
v 135.03099459422828 -0.11108812806855389 -43.802285432476509
v -77.128531602862409 28.00141108662768 -33.333140210049265
v -78.536759943320462 40.352890395220783 -46.842088718573848
v -79.335239855525359 60.794242154144726 39.670649250533181
v -79.994447044297658 58.966646670158781 -41.796013609602056
v -79.481067943582815 52.752605617441574 -46.597501415405944
v -80.262356944272824 62.192507268078479 -37.32087214593686
v -76.301365209748525 24.902434166885904 -23.942984427046724
v -76.715003129259401 26.267755281000042 -28.743470927644665
v -78.215626589471555 36.39856272351939 -44.639610809268021
v -79.405796466351802 65.00520627511726 31.303425987196178
v -79.292974738486834 58.116694286868636 42.949019456250525
v -79.094100813862255 50.732946050616846 47.555950818148347
v -78.519925492151827 41.68793649126944 47.530604173277133
v -78.871751720995746 46.271273604441681 48.271411500906027
v -78.035829614344436 37.354998662050264 45.447692413534689
v -79.16537015538222 48.829261071296472 -47.768705386046634
v -78.844870802973986 44.604024096657533 -47.879640114317908
v -79.739107477962577 56.160502328791601 -44.520775299978354
v -80.399291395556361 64.603150698002963 -32.370721991185135
v -80.401097383005549 66.390838072600815 -27.143548318322054
v -79.930194654158839 69.272540225004803 -10.696226275194388
v -75.233644335405273 24.173856240456878 21.370696453990853
v -79.366455397118216 62.892090242704839 36.151874038773933
v -79.633157234246511 69.76460166804236 0.33457099555901704
v -79.758023163218695 69.634726513812154 -5.1560707737717513
v -79.55853683524839 69.629475619892389 5.745394477824707
v -79.502312765761303 68.675851081828171 16.263148442714815
v -79.448520658363321 66.596313186129976 26.369382621028599
v -79.481611658073888 67.785019700069256 21.359330074513274
v -77.52294605975888 30.176749253502525 -37.643519958843797
v -77.455344420730512 33.543534892382368 42.183188057222686
v -75.664826849620312 25.645992096805514 27.504804217902294
v -76.21083759365564 27.677315231409338 33.084143928376406
v -76.826778642605447 30.285495242710947 38.026975826676605
v -75.904921102905689 23.851766827006003 -18.995058934993619
v -75.554570411626912 23.131417722506143 -13.975050062252446
v -75.036738111234087 22.363944543211346 -4.076724963422067
v -74.877500222958787 22.492895182110978 7.8692636359040584
v -74.920869398696084 22.200785346497629 0.74540184583402747
v -77.882904443032032 33.002311850997664 -41.459970036324208
v -74.97874423069814 23.125653887463685 14.790549181694663
v -75.257434045710824 22.655624391666109 -8.9836914304108504
v -79.224000114986168 54.722650557662305 45.64728105015768
v -79.522022373468886 69.231357501859776 11.054260628856124
v -80.296166813712958 67.706477704192253 -21.745216172154059
v -80.123149942957355 68.646881995583726 -16.243663754258527
v 77.241402776375651 -28.013808949093619 -33.549880423756491
v 77.79420927245927 -54.960291380993311 -45.651514751847301
v 76.373494713760863 -52.426175138991283 47.086480944269105
v 77.142963855111105 -23.279276831199017 14.023967353163135
v 77.098883835527587 -24.166454585944869 19.70346300686397
v 77.163535261485947 -22.720230456071132 8.3137938415586472
v 77.145401543418402 -22.400115032826385 2.5844964933611476
v 77.014473030216806 -23.951847365758518 -19.324444988597001
v 77.065940511811348 -22.73450811846725 -8.6080723993378818
v 77.022257620102692 -23.223837076309234 -14.060562041690558
v 77.116497979021517 -22.468317150308845 -3.033966465270896
v 77.009576687138122 -31.991308089850182 40.304447020418714
v 77.033363252497637 -24.997214296361342 -24.339966342105001
v 77.055155730536484 -25.375622773561766 25.308054148219746
v 77.018382785979824 -29.216353852981516 35.784844456788925
v 74.416064517864356 -69.599589162786003 -1.8755835292818794
v 74.308851338908966 -69.438667471992375 -7.2857648869222453
v 75.09152650678098 -69.364425460840181 8.8475518461421743
v 75.464417848689337 -68.884714081197359 14.07755146990873
v 74.785546873756132 -68.345955707200488 -17.930711879408314
v 75.751751434561413 -68.188284923634114 19.198695062632005
v 77.122302019334711 -26.311790570198603 -29.095707019982679
v 77.574360818109938 -32.737595498935391 -41.324435737703979
v 77.400996381411346 -30.125724114185964 -37.665953882416368
v 77.743337101971591 -35.889201860247908 -44.346575688097019
v 76.950305508915733 -62.762351091311501 -36.688049653152845
v 77.884232615293783 -39.485558214446115 -46.596280815242068
v 77.953847621853271 -43.400574477276095 -47.930485986884904
v 77.977141814145 -47.448228066927641 -48.204481281726061
v 77.924390955065064 -51.383138676179975 -47.426328036205589
v 75.897614211195915 -66.162830401804541 -28.165067892932576
v 75.298247702011594 -67.41081500997177 -23.104619256527506
v 77.59005207004526 -58.041844678014783 -43.113790646005327
v 77.311858909674527 -60.632018121635355 -40.070392598860494
v 76.513628701912467 -64.431719124197556 -33.063901196121641
v 77.030195214435736 -26.998420068446514 30.732864228023704
v 76.885395990711828 -39.47947950456097 46.572439154100699
v 76.963917132490394 -35.450617670161705 43.978803201233021
v 76.742163590758167 -43.817592421670945 48.027619442735585
v 75.92605879635191 -67.200486318619269 24.190345178420777
v 76.008633719234709 -65.89056070311986 29.024763335047282
v 76.04167134204215 -64.17756073625624 33.648510371443898
v 76.128252611707438 -59.200596416809127 41.968255856927158
v 76.561179654548084 -48.238691111207828 48.210600617325127
v 76.220204463469571 -56.125615811354969 44.913297852069391
v 74.435089328813348 -69.040791170671525 -12.654179593372991
v 74.707192782440302 -69.596003153989045 3.518821977865187
v 76.073073771214553 -61.988235062944668 37.998499546655509
v 73.707101073486996 22.414930600561661 -10.789526711419299
v 77.884664686872881 59.427849368349101 41.47607180563449
v 77.883682743583051 64.982068342844713 31.643365777120593
v 77.720823735707611 54.347076275916393 46.162440387919119
v 78.311027870854247 54.190171209282269 -46.039323264524647
v 76.061703895513887 33.392390954016918 -42.447186647933819
v 77.142107896936693 41.396295292310825 -47.557133360940256
v 78.414246163241444 69.667625638467939 0.32558511021009984
v 73.684572049562064 22.147098357611881 -4.8140388799677094
v 73.766895797334257 22.248173268313732 1.1697774095796443
v 73.953663913224148 22.548797594268386 7.94064848238739
v 74.068003430116207 24.343708854184555 -22.483492687457787
v 73.821090936669933 23.218820208750557 -16.687308892671624
v 74.410165521412324 24.046259280824131 20.88558043062919
v 74.651761795007843 25.472075859223143 26.805260952110856
v 78.670839407749924 69.594975975985221 -4.9943820201303186
v 77.87652802455321 66.617748335765555 26.437386221345605
v 77.888446794923127 67.801159638572599 21.221567685405926
v 77.934224209394557 68.660463283518851 16.020731648142199
v 78.030755802835046 69.244077252499721 10.820492730671084
v 78.191548490082994 69.568529157109708 5.5953823933908851
v 78.919413448874096 69.288772353127683 -10.347283308685462
v 79.109110926675868 68.686890502375093 -15.696277348740724
v 76.409845156698481 39.240123034231559 46.820127547395884
v 77.894580886003752 62.576276134390149 36.687179753594194
v 74.920624337607904 27.230353193526888 32.252337216790011
v 75.236898019334475 29.441067138517322 37.110687431907849
v 75.577132747080668 32.232037618006444 41.223332195137495
v 75.990944102901679 35.531434854811614 44.48819959594698
v 76.853296325317515 43.196297121114185 48.127087124993338
v 77.529622034918788 50.976505120669074 47.69123280855699
v 77.234384545725405 47.188062073849764 48.376669427897937
v 77.844601746135353 57.16035575300991 44.002911441628079
v 78.002161349255374 50.174234974332407 -47.752800981607095
v 75.480138812805805 30.240461567460159 -38.322868072553632
v 79.107992189397365 64.99513843799545 -31.486091518226701
v 74.450165010204586 25.775038490252502 -28.128652106194735
v 78.942919773813088 62.722039746943693 -36.542267550418927
v 78.774068873974613 60.518956621001337 -40.162438903146239
v 78.561007228999031 57.659105027570838 -43.405205472226974
v 74.925564188409766 27.71422598037617 -33.474221455496959
v 77.617787197761288 45.814319299198452 -48.321713324638267
v 74.177857859295457 23.129528152172583 14.550211026735179
v 76.613256633270581 37.20888354694906 -45.524258432360043
v 79.200637554677996 66.60631006171397 -26.281681471195323
v 79.204234075376334 67.820008630350316 -21.0161410167809
v 4.7263610817720885 -35.577926712438185 45.537584088714269
v 4.87212432159291 -37.175057410291316 -46.522243456036989
v 0.43007620984886646 -61.55048093946408 -31.730845383378163
v 3.8357347054325377 -54.017310953302982 44.071115153983698
v 4.4750360232193387 -47.342958718861041 47.687179636865395
v 4.6385914288014494 -43.407462482557605 48.139410188355896
v 4.1934371908144765 -50.956459836867765 46.298812837053347
v 4.6896344433240298 -39.369050657446742 47.505281709120446
v 4.8830952333241067 -23.179600733938724 -19.947578197849666
v 4.5833146809491794 -41.603015288816167 -47.992909637707413
v 2.6578761934975366 -54.314394817819178 -43.692162100012489
v 1.8478882777770165 -57.372473504322024 -40.172542081311747
v 4.100439421419404 -46.219419235245702 -47.932398050737262
v 1.0812295177961206 -59.753209168131093 -36.11482254979984
v -0.18048299150440994 -63.205558714054447 -26.251993197090204
v -0.87785393229212372 -65.161984501103959 -14.779294496134913
v -0.96911871318175113 -65.715571399749848 -8.859424493482841
v -0.61820852671192972 -64.33166531233033 -20.583080411958555
v -0.69738977759726817 -65.920851714695033 3.1557684888656539
v -0.3583009510443137 -65.662605951729631 9.152587742897488
v 0.10766193677791561 -65.100308920933401 15.103672980733307
v 0.69277589066986089 -64.225850265240268 21.015183858593453
v 2.9680648498840196 -58.439457546059032 38.3527339830963
v 3.4175894433616962 -56.463623105793005 41.315752095386493
v 2.1510387028248701 -61.097511447788598 32.715764019857751
v 4.623203738066886 -23.908911093675059 23.258791336446837
v 4.7227295021769216 -32.135662266600249 42.611936891127115
v 4.6767487081563406 -29.2728360322442 38.731792928434288
v 4.6500345833694192 -25.27363261818947 28.894097579255281
v 4.6609929816803666 -26.967931789028093 34.120049257123739
v 5.0081174350468336 -33.26503134748932 -43.822398597178733
v 5.0348350688304357 -30.040183638755774 -40.160845737576238
v 5.0443709444202565 -27.4685020572933 -35.818016714461095
v 4.954706831001582 -24.182604066629303 -25.602741145132953
v 4.5894857779795348 -22.915358000195148 17.300798944604701
v 4.7954325824099691 -22.434996607871025 -13.998118977013913
v 4.7000838662427959 -21.998879420556925 -7.7980079611261424
v 4.6230324364027595 -21.826591903280256 -1.4265191187239736
v 5.0099977619163969 -25.633213011884699 -30.896799110293969
v 4.572905551433375 -21.885757681578308 4.8582139010897709
v 3.4380909356428035 -50.561016560426111 -46.392795865495259
v 4.5614861499590527 -22.225187302216519 11.134131732949331
v 1.3827352215431392 -62.965673877103441 26.899944153281545
v -0.90428453673815024 -65.98173175484925 -2.8629662444332129
v -85.652491073878053 -53.211171337556557 46.279698956959201
v -82.027229121756022 -24.676210555972922 -24.255880303461012
v -83.802914460077332 -23.765747906915585 23.320753493087583
v -83.543926422805114 -68.681938474596606 16.503163611674047
v -82.485337870434705 -69.571773790697279 7.0470152324566939
v -85.868522321990611 -49.219756921140203 47.730539090097793
v -85.407792211402793 -56.736107288562579 43.927512402055889
v -85.180698306944947 -59.662227275862669 40.899837177825262
v -84.980782734208589 -62.192871102057566 37.392887894942533
v -84.794452413126407 -64.144145566444038 33.54777648139283
v -82.530649735732993 -42.842107622513744 -47.521518366205385
v -82.494746447078981 -47.52452083733931 -48.007686435306169
v -82.370096801357363 -52.062392087418502 -46.934187383753112
v -82.175429731328279 -56.113448058321701 -44.658457443586457
v -81.695924715392948 -62.13914307571433 -37.712468425395734
v -81.944833954257376 -59.479723793897975 -41.472572667764823
v -86.024467539314372 -40.731544439135121 47.060431609937837
v -86.004274052406856 -44.959553091661107 47.99976241986942
v -85.900145693021301 -36.742964518317024 45.077932335420194
v -85.633588225378361 -33.17132752047543 42.109687331688534
v -82.042209116616903 -23.474101445196339 -18.668595408942871
v -82.098799990071868 -22.514520460482917 -12.930911281754071
v -82.399995565322541 -34.443491312042212 -42.843395932132722
v -82.492876735807442 -38.367918224409038 -45.803439786499908
v -82.271953186975566 -31.094958956809123 -39.046479751101941
v -82.159514373980656 -28.431239624374836 -34.544718149599916
v -82.070640908952569 -26.270092070896322 -29.593414088570032
v -85.261060093431979 -30.136343060603611 38.277168696476487
v -84.813394695058903 -27.581419425370143 33.789646343356551
v -84.314327605032759 -25.433334384570422 28.784959611754289
v -83.35305443897343 -22.557618192626538 17.496287211423223
v -82.219086967435615 -21.882928810603936 -7.096801303402783
v -82.415909206995508 -21.561684339878958 -1.2315624299025867
v -82.655821948358749 -21.44932153066873 5.1350258817768673
v -82.956954230888982 -21.799919447507826 11.404600236826294
v -83.991746211218867 -67.872430526109781 20.953163465852242
v -84.594651321818191 -65.71232903781393 29.504220966593103
v -81.595274947606754 -69.750127955778794 -3.3320005342647141
v -81.156131292544757 -68.932518161795983 -14.153750350073052
v -81.150622127486329 -67.175790655466841 -24.39033142039991
v -81.315644530769532 -69.497301066348996 -8.7566455739917082
v -83.022423675493087 -69.208973731655817 11.879859995053422
v -81.105978539985216 -68.16331335965404 -19.394205002503139
v -81.99305617044277 -69.761845527906416 1.9687337300380978
v -81.273857697947193 -65.861942331789763 -29.093348346480319
v -81.459474829626515 -64.22054483183058 -33.528715107035381
v -84.338700923930304 -66.918193301825227 25.290427198788002
v -2.1336641857441423 31.637156822996324 -41.42920152998505
v -1.429955292093736 49.637928753507495 -46.698118275381418
v -4.9068021276966309 51.183865951876029 46.152601321342566
v -4.6288288471862931 60.21996154556895 34.943493889694096
v -2.3187399842154193 26.944653567040817 -33.041830615021297
v -5.1352814591647649 28.707648133574938 37.813089113064166
v -3.1097776573076699 22.006130952296331 6.5895312841671903
v -2.8302938444195549 21.834011309606272 0.96172183799792821
v -3.4424370039449226 22.285082768927545 12.185040080485617
v -1.5445453103033677 62.098019211322978 -29.64403626622223
v -2.7075447185504906 65.850585798343587 -3.8686630525068129
v -2.0803358704111203 65.09205805109309 -14.711104701555767
v -2.2420027489063137 29.049401195563661 -37.564334356047624
v -1.9861388949544625 34.694940752906859 -44.518728046205126
v -1.8411821391890597 38.20892333686885 -46.654150317430741
v -1.5336033438283225 45.898200575981178 -47.833326941941024
v -1.6765453208895829 41.992985167820976 -47.838610323495452
v -1.3697495969877542 52.960077637894024 -44.583168160718479
v -1.3556398778281444 55.836673826836176 -41.856433853351376
v -1.675196434618651 63.391872688929176 -24.834788425836262
v -1.450057322273423 60.418405313275144 -34.278847069833503
v -3.0713651761609455 65.878318896989242 1.8189816490641366
v -3.4324384560660004 65.703085251549766 7.6270000318197368
v -3.7644220431111979 65.242829156959488 13.459252051053964
v -4.2878387342900428 63.444425325990849 24.732562031242686
v -4.4778192399067578 62.052291766853443 29.993984831923605
v -4.8350270438184166 54.798088006982461 43.198559480136467
v -4.7449241501824471 57.747400163900025 39.517893090216717
v -5.0184251462026026 46.985228152335779 47.932734629887719
v -2.6420544394023175 22.099383299825391 -5.0117174187978168
v -2.5125562896667875 22.440051812127848 -10.980273967805285
v -2.384987710884042 23.925607475271676 -22.588847532126728
v -2.3594903117636976 25.218194500714127 -28.021014533723349
v -4.6242917953081282 24.992341026819542 28.394962164788367
v -4.2473976056096046 23.861934347258163 23.139922192707004
v -3.8253589001050345 22.925738897825592 17.718324509534987
v -4.9371652789838389 26.667442762558256 33.300284590943789
v -5.2412584086642404 31.323279195790974 41.740253237459982
v -5.117984396407036 42.550223383842209 48.30716764727147
v -5.210593152978455 38.288325168543203 47.251737182708425
v -5.2648873914602827 34.536262667372384 44.928490788795514
v -1.3828764225603989 58.181362481741075 -38.665433192737495
v -4.0511478244044019 64.493225182028652 19.196996896833241
v -2.4396212493933414 23.05831679063823 -16.865502286077337
v -1.8502013780150279 64.356095503426019 -19.855715673074791
v -2.3698298184458295 65.595451445981496 -9.3844576343729393
v -129.66759900611925 38.969504206984979 -39.836614463844526
v -122.67020685620672 46.630085064786513 -40.417720475916369
v -118.41378397842726 49.769826665314355 -40.782110842555355
v -79.994447044297658 58.966646670158781 -41.796013609602056
v -108.48774154563634 54.556479152857058 -41.442090936849496
v 54.481090160018539 61.133940075761842 -37.816671028660551
v -140.52701385552768 -6.9612173258476515 -37.454236513164552
v -134.71988701230941 29.564277995413331 -39.314494075729812
v -87.795075746678066 -61.461478110530962 -38.031811094400524
v -131.60143526851101 -39.485348005742694 -37.61012888937065
v -116.22398100910573 -53.86696435819777 -38.60363733499954
v 113.11466512764017 56.811988376857009 -36.655988510107157
v 125.87754267905359 47.979741277326895 -36.803812932796632
v 132.19473751579028 39.751833012252185 -36.439178781872087
v 134.75084965287186 35.165487363749179 -36.103839063132213
v 20.176559207112344 -61.952275674855642 -31.218491688863466
v 0.43007620984886646 -61.55048093946408 -31.730845383378163
v -105.61545238019222 -58.088293984935376 -38.716659280183769
v -63.568873486331114 -62.425060659972225 -36.079640521290585
v -28.680398820490851 -61.74941107973418 -32.947673975818958
v 141.12104219804786 -25.478042542074583 -31.446947473707503
v 69.004665989496942 62.331878114575225 -36.846996368289055
v -132.41002868487266 34.454653003019118 -39.572634776473713
v -126.39826452232541 43.009917588723638 -40.08278124391633
v -113.66280515675433 52.419266425036916 -41.143440387453445
v -97.346923255665587 57.368229353336829 -41.762788830451726
v -91.602558734108953 58.164095095769866 -41.813438868971502
v -85.822288638797247 58.697962779319695 -41.848825019620236
v -74.251752863824635 58.983204156031476 -41.601550319313603
v -68.485757023698113 59.05775157016118 -41.55218781113949
v -51.484818245274887 58.94758626463841 -40.928563182216166
v -57.06674383085975 59.149010927392084 -41.315865245705041
v -103.01162580144344 56.206655585084462 -41.662801754375323
v 115.28240229606037 -57.890252772953986 -33.11911298647987
v -35.391391309050547 58.567729569584401 -39.782699587502776
v -40.633883029349526 58.648987147441147 -40.136286575548731
v -46.008125695400501 58.713298965647468 -40.474121906170645
v 24.015895489773719 58.536109305984127 -38.981301993240095
v 30.186422074482248 58.891523273218993 -38.943265397664973
v 36.343909201725559 59.309564413568111 -38.810153659480335
v 40.771150658845102 59.742807403768467 -38.680964967207494
v 45.257238718715143 60.118369064644341 -38.408880019400669
v 49.823058764983308 60.595999074487665 -38.120280165874874
v 17.795180181810515 58.366879951921163 -38.977334944344292
v 11.493847837029264 58.309881275475284 -38.944897414247926
v 140.42871858773466 20.568673735062685 -34.736635327820281
v -30.283204535358838 58.452677073897334 -39.440263438581752
v -18.313187061425815 58.302880477962589 -38.843057222329463
v -24.223959850203457 58.380952531849914 -39.10950758553669
v 5.0960405191179525 58.227520086858789 -38.811172744387818
v -6.9240782058254577 58.179995773423208 -38.604948693073766
v -137.79388081360514 -24.370694297664542 -37.357677256038471
v -139.03087462871486 -18.764691365842371 -37.345043450300921
v -139.87288909057469 -12.942162183787197 -37.328322644679403
v -12.553165776013763 58.275468604566818 -38.695372422365459
v -136.20034174035655 -29.734253687701884 -37.41269926842098
v -140.73407006865233 -0.83077846965431768 -37.569166283761504
v -140.53473137694519 3.8700610191895577 -37.697681907289223
v -140.06575413485126 8.7525526169108758 -37.957055093525291
v -139.27233956681562 13.849820814521529 -38.29900474654977
v -138.11439860658896 19.105008774682737 -38.656924306643219
v -136.65121584857508 24.408156624700791 -39.04385176353032
v 139.80734008863379 -30.284013399986247 -31.188814710575411
v -81.695924715392948 -62.13914307571433 -37.712468425395734
v -93.883324393023628 -60.770733189987212 -38.430680385333055
v -99.848997976050057 -59.61305717847204 -38.631070962915842
v -128.53843390182544 -43.76474286500229 -37.785641782507184
v -111.11480591681695 -56.223681465100157 -38.737538506068866
v -124.94886467674854 -47.596065595073746 -38.036418200687123
v -120.80852095354783 -50.930605000816357 -38.289043855542516
v 117.762921338615 54.340786269008447 -36.735713875224434
v 122.02707882262391 51.40267905996442 -36.802554753150503
v 64.088725830073002 61.931656797675871 -37.100969734596063
v 129.27067067802869 44.071347642905423 -36.695067283228681
v 138.92733717929909 25.537228730229657 -35.269097925930765
v 136.98089732310939 30.401844237365498 -35.698837645081667
v 141.62857044572343 15.554751772630866 -34.245124561879067
v 26.789332079097278 -62.235803386518455 -31.166363095511286
v 13.538813488168831 -61.721972675405496 -31.332383416413613
v 45.126667784563026 -63.246283232128299 -31.392063727253841
v 39.748221010617748 -62.932510878016338 -31.268388797037041
v 33.326728068870366 -62.555084933724132 -31.179720407160524
v 50.411817193954064 -63.56131584062058 -31.569529006861838
v 55.649346831349405 -63.881821737467156 -31.805056929660992
v 73.970307160661889 62.588043926123291 -36.648219921246501
v 142.49282830071525 10.483221372365414 -33.810606645567496
v 6.9347973784578389 -61.628957947585519 -31.525225842808716
v -5.5841139140747504 -61.50058754692796 -31.925936737197823
v -22.990769712570589 -61.63228288312709 -32.619060845431747
v 127.39571968963713 -50.177358456603542 -31.999006965403588
v 105.32985566367732 -61.220887797717069 -33.633755419752291
v 110.46088325901675 -59.687197680391911 -33.39244466660621
v 119.77388330110861 -55.804130790080066 -32.838340047386708
v 123.76680422740525 -53.157386915788607 -32.415636213115889
v 130.7001768851153 -46.893767549543135 -31.645066372491797
v 133.51047764631963 -43.174243832208028 -31.287264012634921
v 94.243567986579137 -63.253310123020043 -33.76917426762715
v 99.893250849256574 -62.360755087296468 -33.752487859802358
v 88.433537475077742 -63.89188714243641 -33.660250721857224
v 71.32257816117334 -64.454483496973921 -32.735019719312774
v 82.509510965272909 -64.227489260455286 -33.394261644332758
v 76.513628701912467 -64.431719124197556 -33.063901196121641
v -45.888483571119608 -62.173810349579284 -34.369351731553465
v -51.711432335913976 -62.387860111712634 -34.978527556998905
v -57.604422094358526 -62.52588959116315 -35.578747388190841
v -75.616106747787143 -62.412570522188894 -37.223474255325158
v -40.110530199660275 -61.961217663964803 -33.803680447863492
v 143.05386942995804 5.3398956371770847 -33.44731498123366
v 143.43815459422677 0.1094381031874042 -33.179169971954899
v 143.56373816705991 -5.0355158744588167 -32.924172842988092
v 142.91411718834109 -15.410635336823866 -32.229131361661018
v 143.33969560993316 -10.227502195526112 -32.589189786564788
v 138.02119841288064 -34.825399026511946 -31.027873109556175
v 135.95693889386814 -39.146200681785928 -31.075633448353869
v 142.1822286604127 -20.51365172879331 -31.828079503225815
v -69.574661568928462 -62.445651485066492 -36.654431618519034
v -134.14797341726711 -34.791466696993766 -37.489230407901424
v 91.163488788384967 62.10961730827475 -36.381605047331703
v 108.06524203618618 58.735356723274876 -36.527351382536622
v 102.72170597969836 60.338196353357858 -36.489144213757093
v 85.109478408967732 62.594917944995515 -36.453944504617496
v 78.942919773813088 62.722039746943693 -36.542267550418927
v -1.3828764225603989 58.181362481741075 -38.665433192737495
v 60.880092056628953 -64.097064845619968 -32.063461115650853
v 66.104474571270487 -64.344870062314072 -32.39627309883609
v 97.056013765691375 61.39678919194521 -36.409535772169377
v -11.468383722259556 -61.476663136376388 -32.120528401752168
v 59.23940617913707 61.590360146521029 -37.464337956475767
v -62.746061677933263 59.077111642230967 -41.430289821737325
v -17.259249314440751 -61.541480688051742 -32.351352925139025
v -34.33012171733742 -61.81194300990829 -33.319085073083954
v -14.507130875025062 -58.377391629952633 39.14153786860544
v -137.51427248774087 -31.349009855730678 34.76217586281939
v -139.35472046315928 -26.160615455551884 34.741531647015776
v -116.00216636896917 -54.304223682702741 38.088025613977408
v -135.29495841995873 -36.190713821881374 34.920413060362868
v -44.937018497870916 -58.782763693065668 40.957567363838947
v -56.209650650534805 -59.122504166090607 41.393767680232521
v -67.173639145810398 62.039062437898792 37.490259027156824
v -49.059727302219336 60.038378897678861 39.004843313105866
v -21.295582094277101 58.122022497568828 39.655901757612341
v -118.13183317613206 55.56646961076477 34.656047016762642
v -113.1666920055157 58.132236052099891 34.717874845836022
v -139.58319469145854 24.819591411028298 34.571907712151599
v 77.884664686872881 59.427849368349101 41.47607180563449
v 139.08632650683364 12.260575461091006 39.072896635181692
v 33.8022387841607 57.750090098994768 41.214567196157546
v 126.43002051395186 43.387777056885568 40.091237057477102
v 118.48539643198347 49.75138046091935 41.010192653544351
v 114.00184668279832 52.151928466335278 41.482530139315116
v 109.30587635482711 54.098465940863903 41.838878741770571
v -32.987247772494747 -58.566895253684514 40.35032339855757
v -110.26049188420765 -56.327771788725087 38.781575941971369
v 126.46272741513712 -42.808811329301875 40.507433237897999
v 20.711978465365306 -58.579295416560718 38.800429342482886
v -8.5901859194552319 -58.461477660452374 38.832434968063232
v -20.55336711993565 -58.378119804306991 39.537839754483798
v -73.253632535979648 62.543930841297666 36.81167332224755
v -85.094384891113492 62.973048138295859 35.598645476130841
v -73.368271974462374 -59.565054445142394 41.370774112383089
v -141.64301953409267 -14.812647212189638 34.622110526099675
v -140.65828847334251 -20.609383221651917 34.672484742077749
v -121.1882152548057 -51.666710073746032 37.321486117047186
v -125.73443363490117 -48.50706579666879 36.564163330289674
v -129.5635480695405 -44.837726322125462 35.865999834995549
v -132.68062760947149 -40.692384474216468 35.28503766442072
v -50.571470202693334 -58.949580028205006 41.206519518200871
v -61.877781536413153 -59.205749436200961 41.430848605563483
v -104.14995929110233 -57.779696989995116 39.394328544907502
v -97.852209105186006 -58.753851668606984 39.940869816915722
v -79.232367895409723 -59.693173532641225 41.197116464511886
v -67.587486905333705 -59.452767596865229 41.496580516745297
v -79.366455397118216 62.892090242704839 36.151874038773933
v -91.503504751553237 -59.355256492972217 40.448250307145912
v -85.180698306944947 -59.662227275862669 40.899837177825262
v -96.557308237352615 62.227063665402156 34.875774434722985
v -90.834458094846866 62.817006797115212 35.18983905453517
v -142.473087897185 -8.8576070252682069 34.6654225795602
v -61.135692606222534 61.323510140679439 38.052540875549532
v -55.104308409881085 60.729861940922049 38.617531520607173
v -42.957732078796639 59.545044198090139 39.364973051782826
v -15.8805335207465 57.870117394667901 39.549571647505914
v -26.576463348356569 58.443187936993851 39.736668773704622
v -36.796955064903457 59.074315551778781 39.604887360263092
v -31.7350858159976 58.756599377388291 39.725150961979736
v -133.32518354107151 40.255306506603119 34.599915681067031
v -130.31263205328818 44.793223809788586 34.612755084412342
v -126.7958533680486 48.924156722912599 34.63724373150437
v -122.75812430671903 52.578736523912987 34.686194722415784
v -102.22567240648573 61.235848296900038 34.691270295504737
v -107.82800440767554 60.040604616050231 34.732243046574084
v -137.89028382692453 30.190276258307975 34.560650398726295
v -135.90502113241726 35.395694799696471 34.622065410548316
v -140.93217534657748 19.324011030741183 34.587750469357601
v -141.87404467243366 13.760370731026036 34.568700325617883
v -142.48733290549319 8.204346641510444 34.557530168657593
v -142.81956582565695 -2.7789270329412838 34.618954097928423
v -142.81726393979449 2.6920902896399932 34.581641204559673
v -10.34842168003642 57.754351202202116 39.503493371816177
v 0.19077988287580155 57.854453436968626 39.668133031458957
v -4.7449241501824471 57.747400163900025 39.517893090216717
v 5.1185793013262533 57.744411009393971 39.767253923579744
v 19.69433489715912 57.54092606928775 40.522899739693472
v 10.017977784499756 57.659336440229453 39.960117978123314
v 64.836269149997435 59.462468823497076 41.551037307209683
v 71.333488007831178 59.523826279926304 41.499540466726664
v 46.036478320006267 58.427376210474534 41.462556326025954
v 39.928826298119198 58.023718747331216 41.345221334397799
v 129.69210866297132 39.318181688387739 39.693469439404737
v 132.48365159891546 34.709619462549625 39.417967909640936
v 134.78642736301344 29.606494533539479 39.240553163562637
v 139.85263111931013 -0.31888928734869471 39.004873062542664
v 138.1532179991367 18.315137612408446 39.159181821331941
v 92.302596141417965 -57.952221218536749 42.054751293765477
v 14.879177323870586 57.528337142103794 40.189896096392232
v 29.168570057139615 57.54505611910669 41.00548061728918
v 24.460990010498307 57.528201849968283 40.801791099844053
v 52.191358907363053 58.848159979800876 41.536386011071485
v 58.451971076703288 59.169790275295185 41.52987300462118
v 122.66159324664588 46.850039659832206 40.52920125217608
v 82.060293130940394 59.19714412746238 41.470646703825068
v 86.290572766700166 58.970029422131404 41.682276165493093
v 99.742887345971397 56.768756600598323 41.995246678529909
v 95.103191867450249 57.705788159478018 41.920344833346761
v 90.632473240510222 58.518472737510194 41.884065353494847
v 104.5076348590257 55.601400080207327 41.993642740926902
v -39.275061276858402 -58.685658383815628 40.696206008233901
v -26.726178834987181 -58.439356840211516 39.946817972312459
v 137.53899931523864 -19.083904638077946 39.527716451419195
v 136.20704413633806 -24.019853510215608 39.735251681735868
v 134.41484239814994 -28.946005918254457 39.830542537838106
v 132.31119465570902 -33.838614820396486 40.032310469830051
v 129.73106171493424 -38.541239378608367 40.299008679369116
v 122.62910930507357 -46.570779076058962 40.765323870840533
v -2.7845097154894098 -58.369842292898852 38.490523138574062
v 2.9680648498840196 -58.439457546059032 38.3527339830963
v 8.9284100058867608 -58.480659809162859 38.351423303713361
v 14.853739379091103 -58.475329527180051 38.479945447571012
v 26.486047735209674 -58.715836818863252 39.214581703491262
v 139.58982339155619 6.0358680254030954 38.977328005550973
v 139.76895557415529 -4.8371678908622 39.08088917187753
v 138.56643415525289 -14.22577655081264 39.330367918528765
v 139.33491955787909 -9.4758362483722571 39.193551057367301
v 118.31017406699843 -49.776572236994781 41.110812059199567
v 81.455375662287224 -58.874988438840234 41.963152029259064
v 32.17224854405854 -58.814496424603846 39.63635060057657
v 37.774584457155633 -58.780469369790353 39.970804540165062
v 43.389382293227328 -58.97728751604069 40.442782195137426
v 48.936151576882587 -59.060846141285197 40.806841588117308
v 113.51411284500121 -52.304398308875989 41.372269719006184
v 108.47215351171502 -54.421274793586349 41.727074118374716
v 103.17929592872096 -55.983106302590059 41.936594045641201
v 97.77502502504943 -57.194177773023867 42.100458128734928
v 86.849272072409804 -58.461298817235992 41.973107004814295
v 54.42155108157975 -59.109753502630184 41.096146892252008
v 76.128252611707438 -59.200596416809127 41.968255856927158
v 70.679730116883263 -59.231095512921002 41.770878121237473
v 136.68503385401613 24.117343538953296 39.178331439327053
v 65.262575209730997 -59.368054490395728 41.707798286049822
v 59.854228840490734 -59.24271408598608 41.419907876696058
v -27.876455520724548 2.0541597373282166 39.369009166557909
v -24.710610814160496 1.5061302110808261 30.671035503641555
v -28.322680865191764 -1.0778532711304838 -40.944791846787631
v -50.638860627209198 2.7697558102259405 29.426092757611116
v -51.633785540905379 2.2964191567410905 24.161937506882825
v -52.41934202043624 1.6848316448871536 18.507599539361085
v -49.393767767637868 3.0723655435255131 34.286407147130916
v -45.092782313500159 3.163836963673857 42.341090050710591
v -41.899884565651135 3.072631290718391 45.159395730774463
v -37.985663018156572 2.9064000565776267 46.358109134870546
v -30.343648648472861 2.3495903560216655 43.001390028024474
v -26.023227735573432 1.7595036483041411 35.224551490888004
v -53.227968591789477 -1.1364943544880743 -5.2493058260072045
v -52.722265318727437 -2.0933361652018547 -15.445795985108896
v -53.147212147255289 0.2104083932115566 6.2076271835441705
v -50.472625745084812 -2.7979567525898066 -30.948198523782445
v -49.028337491139297 -2.7788371258007869 -36.012233813241508
v -39.322822328234516 -2.0478692929073343 -47.659189449462147
v -34.217452764459445 -1.6589018950318644 -46.995342602198818
v -43.767515143257882 -2.4037687327628126 -45.00293917782713
v -46.852938951673494 -2.6647028547413742 -40.796003673612489
v -52.288806645358292 -2.4409901183047378 -20.621515790706948
v -51.592520971953562 -2.6774582859123228 -25.80941218018063
v -22.968699743466559 1.1905145819199796 20.734121276316642
v -23.714061285727205 1.3101636943048367 25.823116041377361
v -22.41189095681159 1.1312790655125071 15.46892814451834
v -30.820049653354189 -1.3130045256281138 -44.47087515460106
v -26.455568432288096 -0.71622170027811982 -36.895054817569481
v -25.039839002970385 -0.35521968497374407 -32.455528097216686
v -23.997052133076238 -0.029370470190395969 -27.686643249145675
v -23.069651246955836 0.25737748265341293 -22.673021834645724
v -21.98477229894371 0.7074090843142975 -11.980968322293156
v -22.396103888385277 0.51334118589338062 -17.422758601349834
v -21.973220883562828 1.0977577905027547 10.099248635419926
v -21.688270046989643 0.98914073906579159 -0.72825967283866633
v -21.799894837042348 0.87229866614475882 -6.4008577432908318
v -47.603920734141866 3.1899123776018614 38.6512045115877
v -53.029500938576241 -1.6515516867438591 -10.317701739906337
v -33.711149364824692 2.6243079858380183 45.688733073837568
v -53.33036009685086 -0.56963825445556238 -0.23476194115266555
v -52.864306004413812 0.97734492485545355 12.490853071620732
v -21.817686800616855 1.0616965925663655 4.6790935933704079
v 51.004735976313242 -2.1708947152331635 -27.703022366927769
v 44.677038321433997 -3.202418328525118 -44.095768314863804
v 32.98256953167369 -3.5067454129427587 -46.799156945710493
v 21.743445253845049 0.064049845421651735 6.0791971682146499
v 28.56092416432794 0.62110804247254103 41.540530017387269
v 34.449672060792636 0.44513278733691419 47.096419082894784
v 22.273671136535551 -1.0696614840801493 -17.030953855865043
v 21.663192045748971 -0.48737175505269847 -5.6582566173569395
v 21.527684841752155 -0.2188190641634406 0.13556804483228518
v 21.846991848328638 -0.76345488316520216 -11.408903653569542
v 26.032626472876828 -2.6864676138489951 -36.903018801559902
v 24.672514593043672 -2.2760081425859067 -32.451860562151282
v 23.679940784925506 -1.8381064930960567 -27.608511736199013
v 22.871017431157362 -1.4306428919507601 -22.453308241336714
v 52.126632308384785 1.162212289104035 19.395396683766332
v 51.292920321920477 1.1366136219561329 25.238005544390077
v 52.779202198287422 1.0491868904037636 13.409173844450022
v 53.169495954815574 0.78575697939923295 7.3466886252702617
v 53.303536040491949 0.38977578493414144 1.2778448615074964
v 53.20844397876359 -0.09651823357840969 -4.531202669441269
v 52.934036610728853 -0.63664498571248573 -10.302692545227432
v 51.892117099093696 -1.7019287150349096 -21.872158330730571
v 52.530080490879257 -1.1835753642396105 -16.072958442304596
v 49.664628565792299 -2.5954167554994649 -33.481155911419123
v 47.646611295291024 -2.9360103500540013 -39.038362498571047
v 39.925766968454518 -3.4758034231640318 -47.497553806834802
v 27.78963364889907 -3.0552485622767609 -40.894278748625695
v 30.069986288106968 -3.3342612872422381 -44.286799504352132
v 36.44495374425226 -3.5509484525580373 -47.946950413724338
v 22.087010551549675 0.33645975093415975 11.917832204657874
v 22.4413555150091 0.56957497861861495 17.598229996328023
v 23.13836229498385 0.74858169963054388 23.034422287935996
v 25.226960752548138 0.8159044054358553 33.020783698134906
v 26.711022827670732 0.73233705617518718 37.486851149871384
v 31.03784743296427 0.53409167395726698 44.968494584490642
v 50.181786953176868 0.99828166724175404 30.855030701924285
v 46.387784836375559 0.60024629932259754 41.055103985271906
v 48.57520630330059 0.8068139484317266 36.149706025016684
v 43.14897788036545 0.43457208824917648 45.239207314775911
v 38.281817424028567 0.40680415672554299 47.385204720035311
v 24.053559631062669 0.83050351916654419 28.189874158622356
v 38.5610932235614 36.244942000470331 -50.972641989137713
v 34.991390597176995 65.746836005830232 -17.100557936075219
v 32.215702630753029 65.169060897917149 20.108535977006248
v 33.8022387841607 57.750090098994768 41.214567196157546
v 39.833453691840361 -61.458485594166383 -35.16160162576297
v 37.930780641116428 -65.95542501199958 17.739994683589842
v 40.119503533581167 -40.236956952588741 -50.726957030723995
v 37.584999296377653 -55.631217963211455 43.781286384257427
v 38.249388392062372 11.002799783602265 48.177007401925266
v 37.375043640409707 -51.890505673230798 46.942908410646197
v 39.311629652905808 21.78350679472981 -49.339684874503419
v 38.18576835447719 40.902036036982814 -50.694040448019152
v 38.878009468622835 31.504597945666006 -50.589572499643211
v 37.77102579319002 45.402068338033899 -49.78728267254327
v 37.354840850779325 49.640750611000854 -48.16447260755028
v 36.620484018673444 56.707133344740924 -42.596138023400925
v 36.962921793280003 53.46761888973387 -45.766069377558736
v 36.343909201725559 59.309564413568111 -38.810153659480335
v 36.068825222525113 61.635258400216188 -33.842921156446607
v 36.976504093148819 -38.155647382465503 50.952415813293555
v 37.065969907926416 -28.569777046014501 50.263328383050961
v 37.249611185081029 -23.788998471388496 49.583243604050992
v 37.755221998682444 -14.224066874796454 48.102816061507269
v 37.462940847561399 -19.005320724412208 48.869285186043371
v 39.925766968454518 -3.4758034231640318 -47.497553806834802
v 39.451985276089133 16.794915163195505 -48.682496414210149
v 39.57140965304572 11.736763513642876 -48.064343039677212
v 39.69808503143777 6.623737509830935 -47.815051682597144
v 39.838170498869587 1.530139572516946 -47.653187571718682
v 35.432358337458794 64.776172428449016 -22.900335612404625
v 35.781063204460466 63.444441777471624 -28.516593530238687
v 32.214745380537792 65.851147503359073 15.385969038577613
v 32.408517085705455 66.357499036353289 10.528151878279999
v 32.783724279399095 66.661269227996058 5.4682598664026738
v 34.460584194442973 66.385069297455416 -11.234282718096191
v 33.876553100387412 66.689109119716989 -5.4411007766339132
v 37.050450257966091 -42.920647669335814 50.395954569708877
v 34.289476530537513 53.782880834500148 45.360532070813079
v 39.13405209226692 -65.974551207066952 -18.10825842983752
v 33.06796423147707 61.73374596714919 33.51432660446207
v 33.444094043199932 59.987867792106371 37.563883324075491
v 38.423920306783288 -67.079240348544772 -4.9839693811162302
v 39.83293178696853 -59.529760186672284 -38.954667655306835
v 39.748221010617748 -62.932510878016338 -31.268388797037041
v 39.476318328786775 -64.735546093461295 -24.735501704518498
v 35.894758834633748 38.281025838284478 50.889111489941683
v 35.320018959136824 43.755695733819181 50.174693460230991
v 36.503759429163402 32.770191489634442 50.865890454394581
v 34.793770157092368 49.013469904214347 48.362471158712225
v 39.810321984009235 -56.984814912633198 -42.526557719482014
v 39.846820052173086 -49.666316256597149 -48.122998300112656
v 39.958255049429972 -45.14184834320308 -49.889416633501014
v 40.279904087014259 -14.500621208034239 -48.10502449360753
v 40.143727198993297 -9.063281512863167 -47.762945476503518
v 40.327529078921103 -19.807789338178125 -48.584975862159467
v 40.417543553829248 -24.984321860072818 -49.374970673591562
v 40.398398324929474 -30.089536209702239 -50.197405540381467
v 40.28959546780726 -35.177769039238086 -50.752276539073712
v 38.159041978825719 -67.136940811849456 1.2382428418614448
v 37.968319449360727 -65.103689102104994 22.639224276577423
v 37.925939704231425 -66.574969456139158 12.580921093471716
v 37.992794335327225 -66.98073584411982 7.0975621658273536
v 37.996444284489357 -64.023712376956411 27.32481288693824
v 37.910673148138244 -60.928663786398744 36.02296677373252
v 37.774584457155633 -58.780469369790353 39.970804540165062
v 37.09699750388225 27.281854297843417 50.314612433555055
v 37.612536138356319 21.833944921893043 49.463008580939672
v 38.171071865686422 -4.5064804565738825 47.540996279577847
v 37.967594931968208 -9.3839825930695611 47.696764431805065
v 38.323975099553586 5.6806000777963739 47.64864615935312
v 38.281817424028567 0.40680415672554299 47.385204720035311
v 38.015028764424486 16.39429421490934 48.768307187927938
v 39.117456437807576 26.691811146448003 -49.961163642178462
v 36.971561441356627 -33.354587237263807 50.817777128439872
v 33.294993398297052 66.762197775698922 0.14808825942620735
v 38.763763149005882 -66.735511037481302 -11.480358646057905
v 32.393498769115951 64.26518509194824 24.720095519279759
v 37.187244380048575 -47.557380121402801 49.115491636007832
v 39.802497491640366 -53.645093459631482 -45.606569860212232
v 32.698172932429934 63.147442733898579 29.210104767762274
v 37.982063244625735 -62.684959456793891 31.805777083142182
v -30.636625451008253 65.852548491764708 -14.327949147910239
v -33.337741717800888 65.376003498957999 18.951423632020386
v -32.15873697039963 -51.697069392245595 -46.870481588888211
v -32.65251278388083 -55.060963775982827 -44.232064662924351
v -38.347278303906862 8.5733065039773653 47.018695636967124
v -36.523312624495425 -66.129390037767365 -15.297991972310356
v -34.354964753966676 2.7681483546972467 -47.119232346965042
v -39.22254748824453 19.406215497134617 48.88801097689101
v -38.759760677328011 14.07077834477353 47.915949046961899
v -39.441180331741833 -40.476413783564567 50.758938742385183
v -39.525487618827725 -45.979141297372855 49.653546805231741
v -39.513470881208953 -50.957856828269279 47.54469037625951
v -39.422777019805096 -55.26457347931138 44.561479178703436
v -38.627476232649329 -22.996400762666923 49.569795793082065
v -39.253635343011112 -34.686248002045573 50.952999840538752
v -30.535364742663067 64.909874242378805 -20.681251447078221
v -30.302174170452297 61.531363942024591 -33.475034474193514
v -30.406260760424946 55.766399616533349 -42.849239536452146
v -39.59083356452679 24.640263421659938 49.607405360079312
v -39.722058034180677 39.503340005888063 50.847067229934936
v -39.883083389835235 34.666981751372241 50.921710690601188
v -39.832208099274823 29.710480946857931 50.417729244983136
v -39.369089749748085 44.176220468564722 50.18466457504681
v -30.758294864162501 66.368128975426771 -8.1790802163215837
v -30.283204535358838 58.452677073897334 -39.440263438581752
v -30.704231252345195 52.329805361686013 -45.720486072167958
v -38.855998245652955 48.573743773359567 48.675668519588164
v -38.2312248819985 52.619606081154146 46.415145457378756
v -37.535635936922688 56.138721558472291 43.341897882683014
v -35.95873676777191 61.351029854822457 34.686710997012838
v -36.796955064903457 59.074315551778781 39.604887360263092
v -35.090069824388692 63.165107483243979 29.52954213948869
v -34.207275845876737 64.463805697962925 24.240477436843722
v -32.52779018941817 66.021751219361093 13.71969862453912
v -31.837203735187153 66.428148618030832 8.50528747003845
v -31.313044006412184 66.604947414438016 3.1974762312846376
v -38.960674591953712 -28.831054499380119 50.285923575521402
v -32.992349178627933 -19.025334346667506 -48.446473859149975
v -31.149546885545597 48.269262144309479 -48.084315429238629
v -32.331676712268944 38.403497164293157 -50.284432290864373
v -32.433673660637353 -24.418078332702493 -49.193348918468416
v -31.597758082472527 -34.511995716045114 -50.210997804647285
v -31.440942707958634 -39.203976380726616 -50.346565489396994
v -33.200231581672263 -57.903462618583021 -41.001323473459898
v -38.294099812991192 -17.331245356148141 48.624813183395759
v -37.891946436255196 -6.6942212181319309 47.230593719946313
v -38.008859864091775 -11.893682100825465 47.738750176317907
v -37.985663018156572 2.9064000565776267 46.358109134870546
v -37.870166416505263 -1.778687748571731 46.786200251280974
v -34.317156409467742 7.3479123508769391 -47.373681074348426
v -34.201711235010229 12.113510365699897 -47.911246851518257
v -34.039072879166504 17.101304395782151 -48.541952567560571
v -33.424021287228868 27.64049139435793 -49.834499122359176
v -32.920419347836415 33.045022982041601 -50.30964578909137
v -39.275061276858402 -58.685658383815628 40.696206008233901
v -38.957402243089703 -63.015663965212653 30.879007293102294
v -39.115063924799941 -61.148854210008736 35.970431183109284
v -38.803234489542199 -64.494497895227994 25.535415615905446
v -38.650420183845242 -65.620791962271312 19.982120937462675
v -33.477446717984307 -13.401811550452731 -47.830541368288294
v -34.217452764459445 -1.6589018950318644 -46.995342602198818
v -33.795664943821855 22.298547992942645 -49.189279882806005
v -33.772446320850548 -60.089625494304642 -37.270304615700432
v -35.10714190449103 -63.781159193610527 -27.365779723525382
v -38.482085993494152 -66.429076036698632 14.273556925023076
v -38.271600313710252 -66.912571920140977 8.4594132872130157
v -37.604313174121785 -67.083008270070167 -3.3379394030115614
v -35.848710288935095 -65.135223151654628 -21.325355883294812
v -30.962964941179202 66.597412400084579 -2.3349904036181455
v -30.41666955823327 63.515723900945062 -27.112443188933298
v -31.717158934759038 43.544771507926626 -49.572390920620748
v -31.504330875067406 -43.66428034716197 -49.868187929989418
v -31.761050084749371 -47.870321950283838 -48.783770173878409
v -37.113821750801705 -66.767380319701545 -9.2989908370636911
v -31.942737979680068 -29.584140792999818 -49.812084911706542
v -34.33012171733742 -61.81194300990829 -33.319085073083954
v -33.879864411686604 -7.5985055758854934 -47.349864216278768
v -37.987724409283651 -67.118171972538335 2.5826022786971166
l 4/4 5/5
l 5/5 20/20
l 20/20 3/3
l 3/3 2/2
l 2/2 28/28
l 28/28 27/27
l 27/27 29/29
l 29/29 26/26
l 26/26 25/25
l 25/25 1/1
l 1/1 24/24
l 24/24 23/23
l 23/23 22/22
l 22/22 31/31
l 31/31 32/32
l 32/32 30/30
l 30/30 19/19
l 19/19 18/18
l 18/18 17/17
l 17/17 16/16
l 16/16 15/15
l 15/15 14/14
l 14/14 13/13
l 13/13 11/11
l 11/11 12/12
l 12/12 9/9
l 9/9 10/10
l 10/10 21/21
l 21/21 8/8
l 8/8 7/7
l 7/7 6/6
l 6/6 4/4
l 33/33 50/50
l 50/50 48/48
l 48/48 49/49
l 49/49 47/47
l 47/47 46/46
l 46/46 45/45
l 45/45 44/44
l 44/44 38/38
l 38/38 43/43
l 43/43 42/42
l 42/42 41/41
l 41/41 40/40
l 40/40 39/39
l 39/39 34/34
l 34/34 53/53
l 53/53 52/52
l 52/52 35/35
l 35/35 54/54
l 54/54 55/55
l 55/55 56/56
l 56/56 59/59
l 59/59 60/60
l 60/60 61/61
l 61/61 62/62
l 62/62 63/63
l 63/63 64/64
l 64/64 37/37
l 37/37 57/57
l 57/57 58/58
l 58/58 36/36
l 36/36 51/51
l 51/51 33/33
l 89/89 90/90
l 90/90 91/91
l 91/91 66/66
l 66/66 85/85
l 85/85 93/93
l 93/93 88/88
l 88/88 87/87
l 87/87 86/86
l 86/86 95/95
l 95/95 83/83
l 83/83 84/84
l 84/84 65/65
l 65/65 97/97
l 97/97 78/78
l 78/78 79/79
l 79/79 80/80
l 80/80 81/81
l 81/81 82/82
l 82/82 94/94
l 94/94 96/96
l 96/96 77/77
l 77/77 92/92
l 92/92 76/76
l 76/76 67/67
l 67/67 69/69
l 69/69 68/68
l 68/68 70/70
l 70/70 74/74
l 74/74 71/71
l 71/71 72/72
l 72/72 73/73
l 73/73 75/75
l 75/75 89/89
l 104/104 105/105
l 105/105 106/106
l 106/106 107/107
l 107/107 98/98
l 98/98 111/111
l 111/111 112/112
l 112/112 113/113
l 113/113 114/114
l 114/114 115/115
l 115/115 99/99
l 99/99 110/110
l 110/110 108/108
l 108/108 109/109
l 109/109 143/143
l 143/143 126/126
l 126/126 127/127
l 127/127 124/124
l 124/124 125/125
l 125/125 123/123
l 123/123 122/122
l 122/122 100/100
l 100/100 121/121
l 121/121 119/119
l 119/119 120/120
l 120/120 118/118
l 118/118 116/116
l 116/116 117/117
l 117/117 128/128
l 128/128 129/129
l 129/129 142/142
l 142/142 130/130
l 130/130 101/101
l 101/101 131/131
l 131/131 134/134
l 134/134 135/135
l 135/135 136/136
l 136/136 137/137
l 137/137 139/139
l 139/139 138/138
l 138/138 140/140
l 140/140 141/141
l 141/141 133/133
l 133/133 132/132
l 132/132 103/103
l 103/103 102/102
l 102/102 104/104
l 180/180 178/178
l 178/178 176/176
l 176/176 179/179
l 179/179 192/192
l 192/192 147/147
l 147/147 185/185
l 185/185 186/186
l 186/186 148/148
l 148/148 187/187
l 187/187 184/184
l 184/184 183/183
l 183/183 182/182
l 182/182 181/181
l 181/181 149/149
l 149/149 150/150
l 150/150 189/189
l 189/189 153/153
l 153/153 190/190
l 190/190 154/154
l 154/154 155/155
l 155/155 152/152
l 152/152 151/151
l 151/151 188/188
l 188/188 144/144
l 144/144 165/165
l 165/165 166/166
l 166/166 168/168
l 168/168 146/146
l 146/146 167/167
l 167/167 169/169
l 169/169 175/175
l 175/175 174/174
l 174/174 172/172
l 172/172 173/173
l 173/173 170/170
l 170/170 171/171
l 171/171 161/161
l 161/161 160/160
l 160/160 162/162
l 162/162 163/163
l 163/163 164/164
l 164/164 159/159
l 159/159 158/158
l 158/158 145/145
l 145/145 157/157
l 157/157 191/191
l 191/191 156/156
l 156/156 177/177
l 177/177 180/180
l 212/212 237/237
l 237/237 238/238
l 238/238 213/213
l 213/213 217/217
l 217/217 216/216
l 216/216 218/218
l 218/218 236/236
l 236/236 219/219
l 219/219 221/221
l 221/221 220/220
l 220/220 202/202
l 202/202 215/215
l 215/215 195/195
l 195/195 203/203
l 203/203 235/235
l 235/235 204/204
l 204/204 206/206
l 206/206 205/205
l 205/205 207/207
l 207/207 223/223
l 223/223 226/226
l 226/226 225/225
l 225/225 224/224
l 224/224 214/214
l 214/214 233/233
l 233/233 230/230
l 230/230 231/231
l 231/231 229/229
l 229/229 234/234
l 234/234 228/228
l 228/228 227/227
l 227/227 199/199
l 199/199 200/200
l 200/200 193/193
l 193/193 222/222
l 222/222 232/232
l 232/232 201/201
l 201/201 194/194
l 194/194 209/209
l 209/209 208/208
l 208/208 197/197
l 197/197 210/210
l 210/210 196/196
l 196/196 198/198
l 198/198 211/211
l 211/211 212/212
l 266/266 265/265
l 265/265 263/263
l 263/263 261/261
l 261/261 262/262
l 262/262 239/239
l 239/239 260/260
l 260/260 251/251
l 251/251 246/246
l 246/246 248/248
l 248/248 247/247
l 247/247 249/249
l 249/249 245/245
l 245/245 244/244
l 244/244 242/242
l 242/242 243/243
l 243/243 252/252
l 252/252 274/274
l 274/274 253/253
l 253/253 250/250
l 250/250 276/276
l 276/276 275/275
l 275/275 277/277
l 277/277 282/282
l 282/282 241/241
l 241/241 283/283
l 283/283 281/281
l 281/281 286/286
l 286/286 280/280
l 280/280 279/279
l 279/279 278/278
l 278/278 259/259
l 259/259 257/257
l 257/257 256/256
l 256/256 285/285
l 285/285 254/254
l 254/254 255/255
l 255/255 284/284
l 284/284 258/258
l 258/258 270/270
l 270/270 269/269
l 269/269 273/273
l 273/273 264/264
l 264/264 272/272
l 272/272 271/271
l 271/271 240/240
l 240/240 268/268
l 268/268 267/267
l 267/267 266/266
l 314/314 313/313
l 313/313 312/312
l 312/312 301/301
l 301/301 300/300
l 300/300 329/329
l 329/329 297/297
l 297/297 296/296
l 296/296 295/295
l 295/295 287/287
l 287/287 299/299
l 299/299 298/298
l 298/298 323/323
l 323/323 327/327
l 327/327 321/321
l 321/321 292/292
l 292/292 330/330
l 330/330 293/293
l 293/293 328/328
l 328/328 320/320
l 320/320 291/291
l 291/291 326/326
l 326/326 325/325
l 325/325 324/324
l 324/324 322/322
l 322/322 331/331
l 331/331 332/332
l 332/332 309/309
l 309/309 308/308
l 308/308 302/302
l 302/302 294/294
l 294/294 307/307
l 307/307 306/306
l 306/306 305/305
l 305/305 304/304
l 304/304 303/303
l 303/303 289/289
l 289/289 311/311
l 311/311 288/288
l 288/288 319/319
l 319/319 290/290
l 290/290 317/317
l 317/317 318/318
l 318/318 316/316
l 316/316 310/310
l 310/310 315/315
l 315/315 314/314
l 357/357 355/355
l 355/355 356/356
l 356/356 336/336
l 336/336 339/339
l 339/339 337/337
l 337/337 338/338
l 338/338 340/340
l 340/340 333/333
l 333/333 359/359
l 359/359 360/360
l 360/360 362/362
l 362/362 361/361
l 361/361 358/358
l 358/358 367/367
l 367/367 374/374
l 374/374 372/372
l 372/372 370/370
l 370/370 369/369
l 369/369 368/368
l 368/368 341/341
l 341/341 366/366
l 366/366 371/371
l 371/371 365/365
l 365/365 364/364
l 364/364 363/363
l 363/363 334/334
l 334/334 342/342
l 342/342 345/345
l 345/345 373/373
l 373/373 343/343
l 343/343 344/344
l 344/344 346/346
l 346/346 335/335
l 335/335 347/347
l 347/347 350/350
l 350/350 348/348
l 348/348 349/349
l 349/349 376/376
l 376/376 351/351
l 351/351 352/352
l 352/352 353/353
l 353/353 354/354
l 354/354 375/375
l 375/375 357/357
l 386/386 385/385
l 385/385 384/384
l 384/384 383/383
l 383/383 377/377
l 377/377 382/382
l 382/382 394/394
l 394/394 393/393
l 393/393 395/395
l 395/395 396/396
l 396/396 404/404
l 404/404 405/405
l 405/405 406/406
l 406/406 379/379
l 379/379 407/407
l 407/407 411/411
l 411/411 410/410
l 410/410 409/409
l 409/409 408/408
l 408/408 398/398
l 398/398 397/397
l 397/397 378/378
l 378/378 403/403
l 403/403 402/402
l 402/402 401/401
l 401/401 399/399
l 399/399 400/400
l 400/400 387/387
l 387/387 388/388
l 388/388 389/389
l 389/389 390/390
l 390/390 392/392
l 392/392 391/391
l 391/391 422/422
l 422/422 421/421
l 421/421 416/416
l 416/416 419/419
l 419/419 415/415
l 415/415 417/417
l 417/417 414/414
l 414/414 420/420
l 420/420 381/381
l 381/381 418/418
l 418/418 380/380
l 380/380 412/412
l 412/412 423/423
l 423/423 413/413
l 413/413 386/386
l 442/442 465/465
l 465/465 444/444
l 444/444 433/433
l 433/433 443/443
l 443/443 468/468
l 468/468 435/435
l 435/435 469/469
l 469/469 434/434
l 434/434 445/445
l 445/445 446/446
l 446/446 447/447
l 447/447 466/466
l 466/466 448/448
l 448/448 449/449
l 449/449 427/427
l 427/427 451/451
l 451/451 450/450
l 450/450 426/426
l 426/426 452/452
l 452/452 462/462
l 462/462 463/463
l 463/463 464/464
l 464/464 461/461
l 461/461 429/429
l 429/429 460/460
l 460/460 457/457
l 457/457 458/458
l 458/458 459/459
l 459/459 432/432
l 432/432 430/430
l 430/430 431/431
l 431/431 453/453
l 453/453 454/454
l 454/454 467/467
l 467/467 455/455
l 455/455 456/456
l 456/456 428/428
l 428/428 436/436
l 436/436 424/424
l 424/424 437/437
l 437/437 438/438
l 438/438 440/440
l 440/440 439/439
l 439/439 425/425
l 425/425 441/441
l 441/441 442/442
l 567/567 560/560
l 560/560 561/561
l 561/561 503/503
l 503/503 562/562
l 562/562 563/563
l 563/563 559/559
l 559/559 564/564
l 564/564 565/565
l 565/565 583/583
l 583/583 582/582
l 582/582 532/532
l 532/532 490/490
l 490/490 584/584
l 584/584 580/580
l 580/580 581/581
l 581/581 579/579
l 579/579 578/578
l 578/578 577/577
l 577/577 555/555
l 555/555 546/546
l 546/546 515/515
l 515/515 544/544
l 544/544 545/545
l 545/545 484/484
l 484/484 483/483
l 483/483 543/543
l 543/543 482/482
l 482/482 541/541
l 541/541 540/540
l 540/540 481/481
l 481/481 588/588
l 588/588 589/589
l 589/589 595/595
l 595/595 587/587
l 587/587 590/590
l 590/590 591/591
l 591/591 554/554
l 554/554 491/491
l 491/491 542/542
l 542/542 597/597
l 597/597 475/475
l 475/475 512/512
l 512/512 511/511
l 511/511 510/510
l 510/510 509/509
l 509/509 508/508
l 508/508 507/507
l 507/507 513/513
l 513/513 514/514
l 514/514 519/519
l 519/519 592/592
l 592/592 520/520
l 520/520 524/524
l 524/524 517/517
l 517/517 518/518
l 518/518 516/516
l 516/516 504/504
l 504/504 505/505
l 505/505 506/506
l 506/506 500/500
l 500/500 501/501
l 501/501 598/598
l 598/598 499/499
l 499/499 498/498
l 498/498 473/473
l 473/473 497/497
l 497/497 496/496
l 496/496 495/495
l 495/495 502/502
l 502/502 474/474
l 474/474 494/494
l 494/494 472/472
l 472/472 471/471
l 471/471 493/493
l 493/493 470/470
l 470/470 492/492
l 492/492 477/477
l 477/477 531/531
l 531/531 530/530
l 530/530 529/529
l 529/529 528/528
l 528/528 527/527
l 527/527 526/526
l 526/526 476/476
l 476/476 523/523
l 523/523 522/522
l 522/522 521/521
l 521/521 525/525
l 525/525 586/586
l 586/586 479/479
l 479/479 536/536
l 536/536 538/538
l 538/538 539/539
l 539/539 480/480
l 480/480 537/537
l 537/537 487/487
l 487/487 535/535
l 535/535 534/534
l 534/534 478/478
l 478/478 533/533
l 533/533 575/575
l 575/575 585/585
l 585/585 488/488
l 488/488 574/574
l 574/574 573/573
l 573/573 572/572
l 572/572 576/576
l 576/576 600/600
l 600/600 489/489
l 489/489 558/558
l 558/558 599/599
l 599/599 596/596
l 596/596 557/557
l 557/557 486/486
l 486/486 556/556
l 556/556 548/548
l 548/548 485/485
l 485/485 547/547
l 547/547 551/551
l 551/551 550/550
l 550/550 549/549
l 549/549 552/552
l 552/552 553/553
l 553/553 593/593
l 593/593 594/594
l 594/594 569/569
l 569/569 571/571
l 571/571 570/570
l 570/570 568/568
l 568/568 566/566
l 566/566 567/567
l 660/660 659/659
l 659/659 645/645
l 645/645 646/646
l 646/646 628/628
l 628/628 642/642
l 642/642 627/627
l 627/627 608/608
l 608/608 648/648
l 648/648 649/649
l 649/649 609/609
l 609/609 650/650
l 650/650 653/653
l 653/653 654/654
l 654/654 652/652
l 652/652 610/610
l 610/610 651/651
l 651/651 668/668
l 668/668 670/670
l 670/670 669/669
l 669/669 671/671
l 671/671 673/673
l 673/673 684/684
l 684/684 672/672
l 672/672 686/686
l 686/686 685/685
l 685/685 616/616
l 616/616 677/677
l 677/677 676/676
l 676/676 687/687
l 687/687 688/688
l 688/688 674/674
l 674/674 675/675
l 675/675 614/614
l 614/614 690/690
l 690/690 691/691
l 691/691 694/694
l 694/694 693/693
l 693/693 692/692
l 692/692 695/695
l 695/695 620/620
l 620/620 619/619
l 619/619 618/618
l 618/618 689/689
l 689/689 617/617
l 617/617 678/678
l 678/678 679/679
l 679/679 680/680
l 680/680 727/727
l 727/727 682/682
l 682/682 615/615
l 615/615 709/709
l 709/709 681/681
l 681/681 710/710
l 710/710 712/712
l 712/712 711/711
l 711/711 698/698
l 698/698 699/699
l 699/699 700/700
l 700/700 701/701
l 701/701 702/702
l 702/702 623/623
l 623/623 703/703
l 703/703 713/713
l 713/713 719/719
l 719/719 720/720
l 720/720 721/721
l 721/721 722/722
l 722/722 683/683
l 683/683 723/723
l 723/723 714/714
l 714/714 725/725
l 725/725 726/726
l 726/726 728/728
l 728/728 729/729
l 729/729 724/724
l 724/724 718/718
l 718/718 717/717
l 717/717 716/716
l 716/716 715/715
l 715/715 708/708
l 708/708 624/624
l 624/624 707/707
l 707/707 706/706
l 706/706 705/705
l 705/705 704/704
l 704/704 625/625
l 625/625 601/601
l 601/601 626/626
l 626/626 697/697
l 697/697 621/621
l 621/621 696/696
l 696/696 606/606
l 606/606 636/636
l 636/636 607/607
l 607/607 637/637
l 637/637 641/641
l 641/641 629/629
l 629/629 640/640
l 640/640 644/644
l 644/644 643/643
l 643/643 639/639
l 639/639 638/638
l 638/638 622/622
l 622/622 604/604
l 604/604 632/632
l 632/632 633/633
l 633/633 634/634
l 634/634 635/635
l 635/635 605/605
l 605/605 602/602
l 602/602 603/603
l 603/603 631/631
l 631/631 630/630
l 630/630 647/647
l 647/647 666/666
l 666/666 667/667
l 667/667 665/665
l 665/665 664/664
l 664/664 663/663
l 663/663 613/613
l 613/613 661/661
l 661/661 662/662
l 662/662 655/655
l 655/655 656/656
l 656/656 657/657
l 657/657 658/658
l 658/658 611/611
l 611/611 612/612
l 612/612 660/660
l 752/752 745/745
l 745/745 746/746
l 746/746 750/750
l 750/750 749/749
l 749/749 747/747
l 747/747 748/748
l 748/748 756/756
l 756/756 732/732
l 732/732 757/757
l 757/757 758/758
l 758/758 759/759
l 759/759 760/760
l 760/760 762/762
l 762/762 761/761
l 761/761 765/765
l 765/765 764/764
l 764/764 771/771
l 771/771 763/763
l 763/763 755/755
l 755/755 753/753
l 753/753 754/754
l 754/754 731/731
l 731/731 741/741
l 741/741 730/730
l 730/730 740/740
l 740/740 768/768
l 768/768 739/739
l 739/739 738/738
l 738/738 737/737
l 737/737 766/766
l 766/766 736/736
l 736/736 733/733
l 733/733 734/734
l 734/734 735/735
l 735/735 770/770
l 770/770 744/744
l 744/744 769/769
l 769/769 742/742
l 742/742 767/767
l 767/767 743/743
l 743/743 751/751
l 751/751 752/752
l 797/797 800/800
l 800/800 774/774
l 774/774 799/799
l 799/799 798/798
l 798/798 782/782
l 782/782 783/783
l 783/783 784/784
l 784/784 785/785
l 785/785 778/778
l 778/778 781/781
l 781/781 779/779
l 779/779 780/780
l 780/780 775/775
l 775/775 801/801
l 801/801 802/802
l 802/802 803/803
l 803/803 812/812
l 812/812 804/804
l 804/804 805/805
l 805/805 776/776
l 776/776 806/806
l 806/806 777/777
l 777/777 811/811
l 811/811 810/810
l 810/810 808/808
l 808/808 809/809
l 809/809 807/807
l 807/807 787/787
l 787/787 786/786
l 786/786 788/788
l 788/788 789/789
l 789/789 790/790
l 790/790 791/791
l 791/791 792/792
l 792/792 794/794
l 794/794 793/793
l 793/793 772/772
l 772/772 795/795
l 795/795 796/796
l 796/796 773/773
l 773/773 797/797
l 889/889 815/815
l 815/815 844/844
l 844/844 845/845
l 845/845 846/846
l 846/846 887/887
l 887/887 848/848
l 848/848 847/847
l 847/847 814/814
l 814/814 842/842
l 842/842 843/843
l 843/843 831/831
l 831/831 830/830
l 830/830 828/828
l 828/828 829/829
l 829/829 827/827
l 827/827 826/826
l 826/826 824/824
l 824/824 813/813
l 813/813 825/825
l 825/825 885/885
l 885/885 823/823
l 823/823 838/838
l 838/838 839/839
l 839/839 840/840
l 840/840 841/841
l 841/841 837/837
l 837/837 866/866
l 866/866 865/865
l 865/865 867/867
l 867/867 868/868
l 868/868 869/869
l 869/869 870/870
l 870/870 819/819
l 819/819 864/864
l 864/864 863/863
l 863/863 891/891
l 891/891 862/862
l 862/862 855/855
l 855/855 817/817
l 817/817 856/856
l 856/856 857/857
l 857/857 851/851
l 851/851 888/888
l 888/888 854/854
l 854/854 871/871
l 871/871 874/874
l 874/874 873/873
l 873/873 818/818
l 818/818 872/872
l 872/872 875/875
l 875/875 893/893
l 893/893 876/876
l 876/876 877/877
l 877/877 820/820
l 820/820 822/822
l 822/822 890/890
l 890/890 849/849
l 849/849 832/832
l 832/832 886/886
l 886/886 833/833
l 833/833 834/834
l 834/834 836/836
l 836/836 835/835
l 835/835 881/881
l 881/881 880/880
l 880/880 883/883
l 883/883 882/882
l 882/882 821/821
l 821/821 884/884
l 884/884 879/879
l 879/879 878/878
l 878/878 860/860
l 860/860 858/858
l 858/858 859/859
l 859/859 861/861
l 861/861 850/850
l 850/850 816/816
l 816/816 853/853
l 853/853 852/852
l 852/852 892/892
l 892/892 889/889
l 934/934 931/931
l 931/931 953/953
l 953/953 970/970
l 970/970 954/954
l 954/954 900/900
l 900/900 943/943
l 943/943 944/944
l 944/944 945/945
l 945/945 955/955
l 955/955 946/946
l 946/946 947/947
l 947/947 933/933
l 933/933 964/964
l 964/964 932/932
l 932/932 919/919
l 919/919 911/911
l 911/911 918/918
l 918/918 910/910
l 910/910 963/963
l 963/963 909/909
l 909/909 894/894
l 894/894 917/917
l 917/917 962/962
l 962/962 929/929
l 929/929 928/928
l 928/928 927/927
l 927/927 895/895
l 895/895 926/926
l 926/926 925/925
l 925/925 923/923
l 923/923 924/924
l 924/924 922/922
l 922/922 921/921
l 921/921 920/920
l 920/920 916/916
l 916/916 913/913
l 913/913 914/914
l 914/914 915/915
l 915/915 912/912
l 912/912 901/901
l 901/901 902/902
l 902/902 898/898
l 898/898 941/941
l 941/941 942/942
l 942/942 939/939
l 939/939 940/940
l 940/940 938/938
l 938/938 907/907
l 907/907 930/930
l 930/930 908/908
l 908/908 903/903
l 903/903 904/904
l 904/904 905/905
l 905/905 906/906
l 906/906 948/948
l 948/948 950/950
l 950/950 949/949
l 949/949 951/951
l 951/951 952/952
l 952/952 958/958
l 958/958 959/959
l 959/959 971/971
l 971/971 960/960
l 960/960 967/967
l 967/967 899/899
l 899/899 961/961
l 961/961 957/957
l 957/957 969/969
l 969/969 956/956
l 956/956 937/937
l 937/937 897/897
l 897/897 896/896
l 896/896 966/966
l 966/966 965/965
l 965/965 936/936
l 936/936 935/935
l 935/935 968/968
l 968/968 934/934
