v -20.870876486720462 -11.832078687021383 -2.5259208435416429
v -20.713133289832889 -11.6869075494436 -3.2557177351384827
v -27.064994203682133 -15.937804120904545 0.91104435959542052
v -28.317787072549237 -17.020915216035629 -3.7524154142923321
v -28.219756393165579 -16.89946333881181 -3.2073387861567602
v -28.090373969674282 -16.768028128387748 -2.593781782745884
v -27.929054366780342 -16.624213540999591 -1.9300666078964706
v -27.741689654348022 -16.468496742088334 -1.2341093320109628
v -27.54131174267 -16.306642103340629 -0.51798417806532981
v -26.396088830345668 -15.457853478109005 2.2381897936538664
v -25.330795617671136 -14.756271502113986 3.243873465616999
v -24.582563574245434 -14.28582273422931 3.4106192560848023
v -23.549580789546219 -13.650634276111916 3.1109087228173578
v -23.036841199217275 -13.335355375583244 2.6848682345986727
v -22.573312039713095 -13.04603326455873 2.1166208925562922
v -22.174280975584512 -12.790255012630539 1.4403495199295706
v -21.832172178284864 -12.562383134005572 0.69237699654947682
v -21.280018871610405 -12.165535342941777 -0.91992115386931106
v -21.057351943076796 -11.990125432818854 -1.7369217230747822
v -27.317860762673604 -16.131045657232018 0.20107713017521539
v -26.766364444579164 -15.718149021345727 1.597225012450358
v -21.540386653661812 -12.358154279569959 -0.10373667043206083
v -25.929116435387186 -15.143281393900409 2.8069629409177663
v -20.583619691995139 -11.554609270803315 -3.9057737302083355
v -24.08505099516875 -13.978336175755242 3.3463250255724972
v -28.389705143524139 -17.135464164602755 -4.2164278379692028
v -28.438670853223257 -17.242980713934205 -4.5979822702432331
v -28.468256228587553 -17.342436003033672 -4.9069526173956959
v -28.496589750000005 -17.525015000000003 -5.38804325
v -28.48533931956058 -17.435481451550167 -5.1618856395209534
v -20.484230657092784 -11.437923504331117 -4.4724169701023371
v -20.352773750000001 -11.236955500000001 -5.427149
v -20.410422077665814 -11.333439938695008 -4.9693889335218699
v -17.523317846877738 -3.4555063074635788 -2.9531350297280921
v -19.644824640812381 -0.38847949754266164 4.0582284715924537
v -20.618782028702128 0.62431947344823613 4.4621257203645044
v -21.532683521245083 1.5301789852656622 4.145782703756133
v -22.182019278801988 2.1256252061661427 3.6309927588501938
v -25.193771399961239 4.7045478091291226 -3.1431732518126534
v -25.030842047314046 4.5473143517149666 -2.5011938819486925
v -24.836072001921025 4.3657366193814289 -1.7955775149407267
v -17.334487726821205 -3.8403537965220895 -4.6582824556253666
v -17.237276000000001 -4.0126400000000011 -5.4881700000000002
v -18.023025822677468 -2.3979637862660135 0.60632109796461786
v -17.72673996385609 -2.9830199523544523 -1.1729133335643214
v -17.618282436459708 -3.2341888926967455 -2.068924332680214
v -21.093809696365106 1.1046822709106503 4.3711734496579195
v -25.331026423036359 4.8379989367382716 -3.7106045640383263
v -17.856097120188657 -2.7094142905131089 -0.27432248893622579
v -22.741277820456951 2.6209917364908155 2.9629046049790757
v -24.324599953571486 3.9232150105083861 -0.24929355478008774
v -18.815922792675956 -1.3025253243613439 2.9805833717641539
v -23.643116920242541 3.3719805190349077 1.3954451466267557
v -24.602025956212913 4.157916794465411 -1.0406945911623717
v -17.432592877367433 -3.6480227444348206 -3.8182514610406741
v -20.127935899300915 0.11263597151413834 4.35636702071064
v -19.201952919906535 -0.86508650933640796 3.5914868336014498
v -24.008254906916072 3.665640489545086 0.57002345474387384
v -23.222559840010227 3.0285589813329996 2.2021305784618797
v -18.494989115939944 -1.6997384955308332 2.2577400531717
v -18.232255450167624 -2.0638815974575442 1.4581161496396855
v -25.448423520749895 4.9494134272221739 -4.2017231930900039
v -25.646458750000001 5.1256322499999998 -5.0209915000000018
v -25.551423048092591 5.0427933692439648 -4.6293933632388482
v 25.887739558885965 13.770797890786476 -0.27745395462492034
v 25.535553586785753 12.593240290053206 0.38593806984203138
v 25.031301472270911 10.699027467674068 0.28447200935866923
v 24.442624733008692 8.6554237256010538 -1.5924200400256132
v 23.874781788502222 7.1691666982120479 -4.514007386984682
v 24.192820259881188 7.9390883041363782 -2.8183322150749941
v 24.314564272712076 8.2744741628264897 -2.1999958075387598
v 24.575340200169631 9.0929795770910573 -1.0206363283028197
v 24.717302002266237 9.5765533385387656 -0.49600958431929193
v 25.189452617808683 11.312478968172027 0.46396854000456789
v 25.341326942322763 11.898633602432694 0.49394990854015131
v 25.71152378943124 13.217848144612159 0.1255714058349944
v 26.067368417339878 14.288896400743585 -0.77533398010150334
v 24.077638866363522 7.6321332720971311 -3.4191471690137814
v 23.969550829167076 7.378042630199678 -3.9925081189259704
v 24.870341456784971 10.111363825469837 -0.046560477662223224
v 23.745812315083917 6.8751999433026647 -5.3480043133206632
v 26.25076308333098 14.786538132708984 -1.3530286595046372
v 26.860536325294703 16.222066659849247 -4.1011783330984013
v 26.732763265793704 15.949247188058099 -3.4316759919335249
v 26.588593738611415 15.623909505410559 -2.7208449053627843
v 26.426788459980088 15.236637796700437 -2.0122554333199307
v 26.973756027926036 16.4480178211973 -4.7026249731774215
v 23.799565986580809 7.0028447083638135 -4.9676450040301194
v 23.712709459155754 6.7790048435923227 -5.6612706838832292
v 23.691590250000001 6.6530000000000022 -6.1640090000000001
v 23.697230137980942 6.7078733725453183 -5.9253354374641019
v 27.261345249999998 16.933356750000002 -6.1100580000000004
v 27.170486273397472 16.792388089596354 -5.6873284454637423
v 27.07583812884857 16.634939043401396 -5.2275134408065913
v 26.572308065746235 -1.1801071906656215 -0.96087890875093951
v 25.733458660076444 0.32583398812451869 -4.0724730602146852
v 25.865604774927064 0.0984901885582396 -3.4991833112622737
v 27.722985801254261 -3.7891244937565376 1.0516533271542929
v 27.99666212533527 -4.5636813179819473 1.0768223093323672
v 27.505244988430761 -3.2229594756843101 0.89503308846802987
v 26.375305488470957 -0.80712070909103728 -1.605036139230009
v 28.649262770806732 -6.8132079123294229 -0.46817708420792137
v 27.031219899413525 -2.1140620275630573 0.15984956539173406
v 28.542523156108381 -6.377538965219097 0.066821599302122253
v 28.405707170074194 -5.8698730553991698 0.53125348412321272
v 28.226934711894884 -5.2677562132926727 0.89064571815838822
v 26.193395759021087 -0.48162523166683963 -2.2598186015397559
v 27.26898360974273 -2.6532019415043084 0.59295265684424492
v 28.912844883828917 -7.8904936791190483 -2.3874034811350429
v 28.744933844830676 -7.2079534844884066 -1.0549993228014669
v 29.053318455798731 -8.41927025555065 -3.7882739340464502
v 28.986481083876832 -8.1764991328446506 -3.0965789188904482
v 29.115558381070151 -8.6209435540830519 -4.4255110666996966
v 28.830916513454781 -7.5632909609870387 -1.6998895264832377
v 26.797414731233133 -1.6199291843109853 -0.36744250280329527
v 26.018515457328188 -0.17336978301177958 -2.8914386660749996
v 25.550313169315721 0.6558360024930785 -5.0823988513000824
v 25.419558500000008 0.90994299999999995 -5.9154975000000007
v 25.63228004926847 0.50554921990621038 -4.6041367773691499
v 25.48183532757627 0.78689977251465515 -5.5132537498039973
v 29.175179353577096 -8.7868017853597244 -4.988688930695945
v 29.2891455 -9.0448292499999994 -5.9377637500000002
v 29.232906106398612 -8.9242391043265208 -5.4834152962355196
v -9.0012659390222254 -16.988678482418649 3.261743383630801
v -9.7861902238884539 -16.048084189445774 3.417908616732364
v -10.556700398760078 -15.056573868531213 2.8531621182560816
v -10.890701781160452 -14.608253408707942 2.359247535395383
v -11.434552068931342 -13.849570086583906 1.0607198919857259
v -12.445987459733484 -12.518011639477537 -3.0816561609967836
v -12.911576 -12.076242000000001 -5.6458440000000012
v -12.777116136356526 -12.192789909765281 -4.7924745306998666
v -12.259303518488597 -12.730634462357919 -2.2200113345009846
v -12.073611726934701 -12.964258935561219 -1.3562273161774381
v -6.9565800106478841 -19.192237866921424 -0.012926851185542484
v -6.3921189185649503 -19.923565854147768 -2.272207044696664
v -9.3793281994987829 -16.543879898158117 3.4091582242570966
v -11.183977683460359 -14.204342769498 1.7567075855526664
v -11.658971529668964 -13.530985632157206 0.29713578141611463
v -7.2030344664121699 -18.922548623655132 0.67534169107578101
v -8.670778206704874 -17.363140214262081 3.0200880244310344
v -6.5535667040819634 -19.687742809004799 -1.4922197264003065
v -6.7434531043731054 -19.441914483221268 -0.73797659090440293
v -11.872053877250824 -13.233892726852051 -0.51259290697943749
v -7.8181960293080852 -18.279343483230868 1.9481053715426746
v -6.0669370111717722 -20.577616953857451 -4.6563474916776153
v -6.2621311932162325 -20.145407277069385 -3.0678181355728977
v -6.1571865230479554 -20.360415356144397 -3.8653627523176564
v -7.4887475780550954 -18.62219822121531 1.3277728644765636
v -8.2051092896773756 -17.87165554326921 2.5265844059949512
v -5.9877320000000003 -20.792027000000001 -5.443479
v -12.615382944726425 -12.341132327020738 -3.9406608872786801
v -10.186895323666493 -15.539358581233692 3.221436582570159
v 9.2574909999999999 -9.8304690000000008 -6.4189210000000019
v 9.0349463294281502 -4.1528050919704658 4.4641790560014023
v 8.9572706782803451 -8.4468560484400328 -1.7677653806976541
v 8.9797822398501488 -5.5084700112492957 3.461946803499516
v 8.9255969921880265 -6.4873358705499022 2.2598322592080482
v 8.4814026973475993 0.99435676760132141 3.872052661411125
v 8.0409040837703198 3.2516387365242849 3.7103064827755494
v 7.8601964672414759 5.5262444182408323 4.5891390363709261
v 8.9385292450881373 -8.1639080017786902 -1.0151911908754925
v 7.247955049274891 13.628746667825531 -0.83138985096840123
v 7.2310744295634253 11.88169998731904 2.1358611183832017
v 8.9148618445076053 -6.8553148918314815 1.6868682240283166
v 8.9447599666443196 -6.1125628566545949 2.7750430459714184
v 9.1169280523776877 -9.4396870994261342 -4.8966950814867083
v 9.0120131021088348 -4.8549902474037685 4.0309912082903496
v 7.3770113996510513 10.141848369366713 3.9116603331939208
v 7.4460235731084783 9.4569509154439473 4.3730986277602559
v 7.5220676968931333 8.7064355060981118 4.6989033569663894
v 7.6058877517239916 7.9145782247435488 4.8840843698641443
v 7.780457774270042 6.3042866280826422 4.8049812297912053
v 8.1537263904216033 2.4360618591763732 3.5967006777948862
v 7.7278959024338612 14.999903260532196 -4.3497757114836144
v 8.1043249999999993 15.601032000000004 -6.2627249999999997
v 7.984581381973971 4.020815748559869 3.9898288802400605
v 8.8010474728807342 -0.40807811084975598 4.4349065008495021
v 9.0454808517691419 -3.4108431474355996 4.7471879599183762
v 7.2074130069618967 13.22482531606196 -0.044927613217409637
v 8.3002666828262122 1.702479952156019 3.6539965443795213
v 9.060473908898441 -9.2176879270891803 -4.1181692010095325
v 7.2690688626077264 11.34254874931846 2.7709434725530961
v 9.0163418464213034 -8.979119746965992 -3.329097401738494
v 8.9908330104885099 -1.8810753721975151 4.8346849097724114
v 8.9245699574403741 -7.8624997928900608 -0.29167741404989089
v 7.1948237364628094 12.818343836808477 0.72050297987484835
v 8.9826380600270248 -8.7200031956825761 -2.5418588469826147
v 7.2042298034433108 12.358531794567192 1.4399017999784167
v 9.1852818696471203 -9.6475549393234985 -5.6606037258398141
v 7.3173680761067974 10.774282539119261 3.3594663911344083
v 7.9311814771959028 4.7672044717734678 4.3107017944478789
v 8.9116342201512175 -1.1361115492695508 4.6658264987000706
v 8.6520873877723794 0.29346401434673053 4.14431685899903
v 7.9113052217175213 15.30434166692085 -5.3003230118893168
v 7.5628709740771898 14.672555776214315 -3.4249777483763779
v 7.3195576838133389 13.990929248052453 -1.6624370405056685
v 8.9115089697608987 -7.2063818645861897 1.0630347859409002
v 7.6933842820006504 7.1051701198002712 4.9105776625942434
v 7.4255873653441542 14.349099188586802 -2.5229999420954714
v 8.9156668522929898 -7.5459496065027016 0.40311739019522547
v 9.0346578402617439 -2.6463356777359515 4.8747065035511401
v 18.460964000000001 3.9578220000000002 -6.3369850000000003
v 17.527023449865119 3.7700951988805924 -4.9802623302793814
v 16.040256480357193 3.5040276335589482 -3.0471272664318314
v 13.615116890506062 3.0459136461543452 -0.30907389206219571
v 12.177539156464613 2.8367029199055818 1.0061964586948271
v 10.643619054688365 2.6643432892306196 2.1672308848193831
v -7.0506348485434529 -2.5598383820260127 -0.74756109730664344
v -8.6936616305975321 -3.5002830056351311 -3.6449923988009276
v -10.032659000000004 -4.2759989999999997 -6.5989660000000017
v 12.913607817009016 2.9398868422714468 0.36889116657480381
v 17.036446448327407 3.6884623446908535 -4.3365678326170709
v -7.9120802119740183 -3.0556354490930935 -2.194420339885323
v 9.0118348008431397 2.5191547696576944 3.1519219171919701
v -9.41121543225103 -3.8969226879138601 -5.1069832803317832
v -4.2415021630302938 -1.0073097961652122 2.4885128518301021
v -3.5575311666278053 -0.67685959072306012 2.9916842796085241
v -2.1153469806181024 -0.065055354074848901 3.8702714829688323
v -0.54019364884677268 0.48606770573678015 4.5042948123866946
v 8.1537263904216033 2.4360618591763732 3.5967006777948862
v 11.427253982503196 2.7464308997670264 1.6158380817099898
v 14.275349031463174 3.1574567649292766 -1.0140681216989229
v 17.997869486405627 3.8585652730254889 -5.6512601445371784
v -9.0733709515508565 -3.7059762898631377 -4.3673611163878121
v -8.284366099935621 -3.275072377694026 -2.9363418138315938
v -6.0311353161893777 -1.974913527248324 0.62989399266764701
v -1.3515120892519468 0.21498438666369379 4.2383192232603335
v 1.1563153637521899 0.99398934010318962 4.9057277082078423
v 2.0490610705647425 1.2333997740921887 4.9711396582838425
v 5.678479459669898 2.0730700334061432 4.4868552032754909
v -9.7621737661738592 -4.089634898811104 -5.8363736854068078
v 9.8341528146357007 2.5897864086034117 2.6688697108912027
v -7.5054977964916532 -2.8265083211346975 -1.4584095368755325
v -4.8977179202986303 -1.342643539092679 1.938880705802557
v -2.8512233388757839 -0.36122734329471989 3.4552093662439773
v 0.29875599160555527 0.74630389643845563 4.7120078616675789
v 2.9586186685537443 1.46717356610033 4.9788987537012375
v 4.7825742291012343 1.8922248235471837 4.6950542754216995
v 6.5451628304646885 2.2230197153710218 4.2307252172433047
v -5.4888986101052621 -1.6749143632431429 1.3110903510490581
v 16.555836636921821 3.5937203361131322 -3.6895459823844368
v -6.5530165901667079 -2.2729789099221049 -0.056191037501737581
v 7.3725402621600225 2.3447493378457338 3.9346933179298609
v 15.486716555225255 3.3905065152954039 -2.3964901714944182
v 14.901903027339333 3.2705608327631381 -1.7145188686319379
v 3.8738235997322432 1.6874139102514487 4.8703610644274988
v 32.032270781754008 4.0619462762176175 0.34530434532782028
v 31.108905489378639 7.6778839782094161 -0.041124798905326498
v 31.84527097612785 2.1749062302539173 0.59856405420511916
v 31.800867828072892 5.938301594092767 0.12085811516491479
v 31.305163077851788 0.38981965220179954 0.81691602389828644
v 30.450955023667518 -1.2337393251844184 0.91084690571901161
v 30.030507481036398 9.2061697736518084 -0.13097660275136119
v 29.247469731131645 -2.6327113516719072 1.0258562366146418
v 28.633800252168879 10.42650634499909 0.0035170046083430207
v 27.01294259141109 -4.1877902817096295 1.0567606406193486
v 23.845121913834387 -5.3659695763149298 1.2230523216673452
v 22.130885433922479 -5.8043949949419194 1.4443224864077029
v 20.335335431854645 -6.1162910799947436 1.5943622780985591
v 18.471667924447019 -6.274931170297207 1.7167996128669361
v 15.607034728860338 11.941157899800459 2.3156038093853679
v 6.5386513241545074 -6.6419809404399555 2.8151092811340868
v 6.4512505560720053 10.753652484401023 3.4025360863734635
v 4.4065169212814368 -7.5669412265374003 2.8322450725069372
v 3.2204374254703261 11.093923404223853 3.5489623608971286
v 2.4257696437976408 -8.8140181783097269 3.0074346722756031
v 1.0717766829422297 11.941180325283408 3.5164024970075207
v -0.23806805383429402 12.876869107071016 3.4192718502482373
v -1.5473448056242209 -11.707308446517555 3.3132815472495745
v -3.4453401423065504 -13.351015287579092 3.2740037638862556
v -8.6634415855239908 19.630632634768983 3.8865700556072933
v -10.259443283974752 14.443778232344037 4.0907021181007419
v -12.383861381217418 10.284872217021027 4.6495251558082771
v -14.237351847031537 8.1458011487822475 4.9298115326343508
v -14.843233031791588 -19.074829382339225 3.2729321441428771
v -18.674591735921606 -18.653321375535306 3.3238798083833156
v -20.482991838403009 -17.952150212961456 3.3607390822387377
v -21.532683521245083 1.5301789852656622 4.145782703756133
v -24.075364990440782 -15.04508361326037 3.3962057987575065
v -25.03025239491857 -13.436013334049457 3.3884086130236599
v -25.867522642534404 -6.1507748822549804 3.6808298719290695
v -25.676934516507167 -11.639226834773698 3.4482131155017077
v -26.075043857849614 -7.9352082312753831 3.6048575072616957
v -26.016674844090566 -9.7818333387248213 3.4984482286685807
v -26.078215900151982 -8.8559375810246017 3.5794795842056919
v -19.28554363410943 3.7458041577862944 4.6527035191630173
v -20.429658952723038 2.6922567669126525 4.4063946657635933
v -18.098294791492172 4.7687620246825677 4.8764687072834665
v -11.858720760701651 11.084169065576848 4.5265334206030747
v -8.4810636120127292 20.199277690661098 3.8351656476911957
v -9.0657213777240457 18.306010255973739 3.9606400034172746
v 21.753310717434026 12.337830420064282 1.2116829579886965
v 27.853874060285516 10.917266506726744 0.091962752986070886
v 27.032975745416429 11.324498779383992 0.19873850475614507
v 29.362474466127829 9.8523679514964311 -0.04654155913598744
v 31.512632004558476 6.8315351671354865 0.027281886683624666
v 31.613215052020479 1.2686518682727437 0.74396954036604201
v 27.722985801254261 -3.7891244937565376 1.0516533271542929
v 28.520346102856202 -3.2436809457559042 1.0387766115410539
v 25.482858438690435 -4.8476314367370605 1.0653390955202928
v 26.26312885228689 -4.535076321849818 1.0541154448449261
v 24.676463187243897 -5.1174990772115825 1.1541969240707195
v 0.39613328680701526 12.366428572885496 3.4650096848055716
v 3.7456823614506631 -7.9598931490670317 2.8784230523837877
v -21.323993829184442 -17.496393033684587 3.3935914773472176
v -13.886599644729966 -18.997195752188006 3.2738440948874667
v -22.023894340954058 0.97508549313365478 4.0544084906778259
v -24.385533420120851 -2.2769122985748713 3.7724871566428222
v -4.0668854994503043 -13.89804905910894 3.2325079369769916
v 5.0886328879167655 -7.2168327913559747 2.8114899769479536
v 8.1162238259526926 -6.2406156610837931 2.8050643059792106
v 8.9447599666443196 -6.1125628566545949 2.7750430459714184
v 16.443913654363833 12.037417949297446 2.1779842866427703
v 10.82789804822897 11.153640853916626 3.0078444211308097
v 9.3431166691815619 10.929572556764239 3.1823130137757607
v 12.399052273810998 11.424100274279084 2.7799508750213433
v -3.3322686030468183 20.763547248535303 2.7885959204543971
v -3.5449330000000012 22.119129000000001 2.5667949999999999
v -17.731128182849496 -18.888642986795674 3.3409046857892788
v -16.773188449147689 -19.029458433981681 3.3055675266867208
v -6.6350697388466635 -16.011129484556356 3.0177618642182251
v -8.670778206704874 -17.363140214262081 3.0200880244310344
v -11.150734376197372 -18.41682641024591 3.158813652044663
v -12.034559639824554 -18.6664936166645 3.2149571267188275
v -25.880196507013881 -10.712410990133151 3.467649004772615
v 18.183563846388971 12.197520209645154 1.8737276882554998
v 20.865421201126342 12.33916488642171 1.394903862378478
v 21.241462618800547 -5.9768839826203735 1.5207127812731813
v -9.4712893913019744 -17.75533242346949 3.0387096134032543
v -5.9770150046192736 -15.50461551829444 3.0672141817950456
v 17.519224124004865 -6.2777202662859084 1.7601063204603742
v 16.566743483127055 -6.2668112381441743 1.8366388151582944
v 22.996783632254356 -5.5960357077132112 1.3279984735711698
v 10.501928171135162 -6.0059952594639938 2.6379024810536826
v 11.304588969825726 -6.0067942336081153 2.5300510615258327
v 29.891897536850003 -1.9598377355106527 0.9975538828249878
v -25.394689909558416 -12.551264182674807 3.4407827445096264
v 30.913881197164692 -0.44132042421138734 0.90787609240153011
v 31.984138100875988 3.1168257926767469 0.50714471394668648
v 30.614852400536329 8.4748105368767774 -0.089679933318917104
v 26.188639467161202 11.648075372088282 0.33888797002869953
v 25.341326942322763 11.898633602432694 0.49394990854015131
v 13.990125691066538 11.698059158842192 2.5483197479371817
v -1.3080618648860831 14.113105761642306 3.3586145090269297
v -10.585706975713487 13.61149097129061 4.1709245327507229
v -15.572159848052376 6.9113522476555609 5.0113701373705695
v -15.808176249389518 -19.089352285998338 3.2905623362589091
v -25.120361299877107 -3.7218137427725044 3.7302229982729189
v -22.831694985825671 -16.392426574209637 3.4117003380950353
v -26.002642343321231 -7.0322479448509121 3.672536376051208
v -19.596701859663781 -18.34385520377398 3.375525244822172
v -0.24414616245431092 -10.670544267214202 3.2597956068407865
v 1.083004926899112 -9.7140930216535022 3.1451059717390684
v -24.582563574245434 -14.28582273422931 3.4106192560848023
v 12.959898668565213 -6.0800208728689693 2.2773858350897385
v 13.819457879398312 -6.1307406058768974 2.1475495665112909
v 31.968223641422782 5.012473933818641 0.25275914340225059
v 15.625377025716004 -6.2289646379990131 1.9217402405935773
v 19.411398310256544 -6.2155692671034757 1.655647045181543
v -19.859902813307915 3.2250019396862726 4.5229961059607717
v -17.480283144125316 5.2758814253639601 4.9397772786781626
v -12.95903864379612 9.5273285885229626 4.758599136308634
v -8.8577489894691848 18.993600628191992 3.9217844399716624
v -9.9792884499768206 15.257384491538799 4.0416529694513548
v -22.523857712096795 0.3808313925504111 3.9878429824800978
v -23.502455250907669 -0.90733098398773238 3.8624542138136801
v 10.070944086349511 11.033384158765271 3.1043244323583137
v 11.60732618544316 11.282216665713021 2.8931266604776091
v -3.1152978620182368 19.341899387407736 2.9463882050317665
v -7.9727388128810874 -16.949560610034663 2.9971729777520322
v 19.07474739965815 12.255943249124829 1.7105955121140339
v 22.64224902962782 12.30484671696694 1.0364659266271139
v 9.7153960904865642 -6.0403069739859383 2.7220358341711819
v 13.194249220857799 11.563705076542623 2.6633853927984115
v 7.9724180456568448 10.804239906014196 3.3130558140463267
v -2.812478048813551 17.83137130159232 3.0958840313493434
v -14.901746005133051 7.5058916391780377 4.9735778290393631
v 0.41450582681825271 -10.181420657868792 3.205939717729839
v -2.196342229838514 -12.241744497740864 3.3044331647599869
v 12.123324142447085 -6.0358702205112689 2.4078212390304259
v 14.707580645691422 -6.1818262551640464 2.0267585734452327
v -20.980875329977984 2.1280948945082985 4.2713213020312963
v -18.694066819688349 4.2554080270934502 4.7656759796388162
v -13.584312004641824 8.8188804921421351 4.8581916189147014
v -11.381760647372698 11.914005289348413 4.3938701589281264
v -9.7282851275140274 16.049983150417557 4.011185836522543
v -2.3709257634914209 16.285103215948332 3.2340386471706286
v -2.0730168287722277 15.535506150935595 3.298265174575346
v 1.7664140296539115 11.584631358343756 3.5420255150182927
v 2.4821816127909804 11.305485305964952 3.5537221771673182
v 3.9838100620932204 10.933162846293705 3.522328969086141
v 4.7789381193176492 10.832059179081851 3.4917054761404591
v 5.6030598797238511 10.775735261954019 3.4526813897280602
v -23.959457595578808 -1.5849490067133849 3.8081031297441945
v -4.693731011329298 -14.440195837141818 3.1795913258877038
v -2.6115419118182004 17.05621162760125 3.1689021230956982
v -7.2978204391292536 -16.496878215370934 2.9955092071765366
v 17.304989588763284 12.127257934045442 2.0373929303318468
v 19.968184196286884 12.303579564929336 1.5384646040686072
v -5.3293861053231417 -14.978246318186937 3.1235467581169476
v 14.791092267547384 11.820502565497264 2.4274067037129758
v 7.3173680761067974 10.774282539119261 3.3594663911344083
v -2.9779404394486093 18.596979823165306 3.0219249809381323
v -0.8042179819889288 13.470760150772005 3.3952782797752343
v -10.960498927402941 12.764771422001878 4.2769751477902958
v -16.227191633067765 6.3464475813839094 5.021175076997622
v -24.774223903873299 -2.9862716111189069 3.7499968119838112
v -0.89496790846454999 -11.182999748465388 3.3000864448516056
v -2.8235647380318776 -12.797832606896467 3.2984349650581102
v 23.52570017453322 12.222372193312225 0.82397408482193168
v -23.48962393353067 -15.748781594651229 3.4202499075221002
v -3.2268822127489809 20.064360649622287 2.8762028162584992
v -10.295143769538253 -18.114258843899115 3.1021709237352466
v 24.426961182067274 12.091035227686874 0.65752630741700857
v 8.6451457523793138 10.856155581845577 3.2551628647848552
v 7.3129334591923323 -6.42074951133519 2.8182535079805637
v 1.7540734981177908 -9.257630563945586 3.0758917346586947
v -16.861686995923222 5.8030131489421146 4.9964237501933972
v 3.08880637160946 -8.3789272720883226 2.9392346616712066
v -22.108439261547026 -16.975020437167622 3.4002334376743439
v -25.420589135525908 -4.4922150990791172 3.7142562871132436
v -23.019323979332349 -0.24967950161318975 3.9200648758403522
v -25.66911769817899 -5.3027616908176851 3.7007852268645793
v -9.49964659213299 16.825042345067562 3.9961055463237058
v -1.7268109278932222 14.806659022074124 3.3315506100578203
v 5.7969508819888329 -6.9062622636003184 2.8074924337936227
v -9.2796500750970026 17.579212247572158 3.9821157524953983
v -12.948455917865459 -18.857854047919709 3.2475354084077179
v -8.1767283145462137 21.088466092525348 3.712945411914256
v -3.4384592518905182 21.445513445802717 2.6822300417080678
v -8.3176310056460174 20.687547503176283 3.7755044116062271
v -7.8750977500000019 21.873750000000001 3.5524270000000002
v -7.9618010128043029 21.658644279756427 3.6026614147324953
v -8.0595348762845518 21.406546989129357 3.6551416625476412
v -9.3722240494094287 -1.9912641314681818 -1.4970348952632668
v -10.305331728982029 -3.0517364032372258 -4.7781930941857134
v -9.9592302157080184 -2.6815675659412559 -3.4934989389035045
v -8.7334243908571274 -1.1155036407272299 0.49975504034932644
v -9.1709499736386917 -1.7355207123494658 -0.82675035490890725
v -7.9999831444229184 -7.926039522442507e-05 2.4885648119657509
v -7.5173146250314327 0.89477175778797124 3.7211609581191563
v -9.5716408966367936 -2.2398535557959143 -2.1632741296895497
v -6.9858205734667553 2.5405667912322398 5.3291617046962241
v -5.9373629441178082 19.301550025408673 4.025027514208821
v -6.0658013656215974 8.5154637834487978 6.578840307658175
v -10.135724681201451 -2.8632551084453315 -4.1496545874748545
v -10.464313588267629 -3.2242939817813596 -5.3831572389294982
v -8.25245562525593 -0.40542462659907663 1.8391663589677114
v -7.7513792736629608 0.43553705799300035 3.1153104107797622
v -6.4908267193835716 6.1797850172369051 6.7499148810942344
v -9.7662667201832249 -2.4592646107039497 -2.8343767373050501
v -6.7755554818112227 3.8926556125564029 6.1495714444305669
v -6.8706565310892405 3.1932348131925528 5.7705615851544625
v -5.8955085562787151 18.498111715051653 4.178357833860245
v -5.7014609313770084 15.268588276169288 4.8461692864551811
v -6.2196812846594076 7.7353686405904423 6.6855624777192464
v -5.7959219425686808 16.889416969227067 4.497756334847784
v -5.6272013785057116 12.718981606138829 5.4994101274673088
v -5.6453869584632521 11.838837268389771 5.7420529942424547
v -7.130345061321643 1.9462130274040725 4.8285359938779262
v -8.9564455685969282 -1.4275296399072335 -0.17029055583806929
v -8.4982623357119813 -0.77308384687138765 1.1706031459123503
v -6.6887757304731945 4.6334132399282391 6.4449240504551586
v -6.0339790000000004 21.694042000000003 3.4706530000000013
v -5.9725492196443124 20.103627187468859 3.8658246098814697
v -5.746631479427772 16.081934318053904 4.6638689868564187
v -5.6632407458018896 14.440347298044216 5.0456703315143292
v -5.8466044940618946 17.694725747976783 4.3382949285857269
v -5.6363482490896946 13.589664736431789 5.2627303868632822
v -7.3079859121144164 1.4005575643940271 4.2895664858801901
v -6.5973356302862758 5.3992786041884422 6.6533033585808345
v -6.0048313465851795 20.899800883942198 3.6748300363901558
v -5.9184284331706243 9.3017087386875108 6.3900637766848085
v -5.7920360854284123 10.118264268584397 6.1920830705469161
v -6.3644188729522426 6.9596878328502303 6.7540893861431925
v -5.698999261120659 10.967800264046421 5.9807068786776574
v -10.610481505555619 -3.3907929137890482 -5.9652316984477363
v -10.746497812499999 -3.5400638750000013 -6.538415875000001
v 37.160899999999998 4.7128500000000004 -6.4589790000000002
v 37.082988999999998 1.7164239999999999 -6.4240510000000004
v 36.715060999999999 7.5742330000000004 -6.4592260000000001
v 36.400599999999997 -1.2508030000000001 -6.3483169999999998
v 35.862918999999998 9.8712020000000003 -6.4319490000000004
v 34.942562000000002 -4.3118210000000001 -6.2242179999999996
v 34.282524000000002 12.494681999999999 -6.3719510000000001
v 33.343491 -6.3423350000000003 -6.1141860000000001
v 32.456974000000002 14.404044000000003 -6.3006600000000024
v 31.068151 -8.1582129999999999 -5.9972589999999997
v 30.259526999999999 15.845107 -6.2173530000000001
v 28.452988000000001 -9.3799740000000007 -5.9159199999999998
v 27.761539000000006 16.816254000000001 -6.1272840000000004
v 26.794340000000005 4.2189399999999999 -6.1902450000000009
v 26.801371 3.2017990000000007 -6.0495859999999997
v 26.595465000000011 4.9300660000000001 -6.2935169999999996
v 26.499276999999999 2.117737 -5.9433140000000009
v 26.235962000000001 5.5793020000000002 -6.3708080000000011
v 26.176144000000008 1.5544760000000002 -5.9202140000000005
v 25.410351000000002 -10.075888000000004 -5.88612
v 25.666252000000007 1.054913 -5.9215590000000002
v 25.574177000000002 6.2255349999999998 -6.3960490000000014
v 25.172865000000009 0.76497300000000001 -5.9094360000000004
v 25.049290000000006 17.328254999999999 -6.0357970000000005
v 25.022476000000005 6.4793760000000011 -6.3497400000000015
v 24.553577000000004 0.56550599999999995 -5.8654809999999999
v 24.235925999999999 6.6480530000000027 -6.2467370000000022
v 23.837540000000001 0.50147399999999998 -5.7878629999999998
v 23.318115000000002 -10.284005000000001 -5.8973630000000012
v 23.065314999999998 0.57920199999999999 -5.6963730000000004
v 22.191690000000001 17.404781 -5.9497549999999997
v 22.004652 0.87062100000000031 -5.6048299999999998
v 21.679103999999999 -10.310306000000001 -5.9269570000000007
v 21.101728000000005 1.234337 -5.5797179999999997
v 20.706351999999999 5.7879709999999998 -5.8436450000000004
v 20.105502999999999 5.4315930000000003 -5.8586229999999997
v 20.158532999999998 1.7585839999999999 -5.6778399999999998
v 19.509365000000003 4.9820050000000009 -5.9562820000000007
v 19.255064000000001 17.11318 -5.8809190000000013
v 19.247876999999999 2.3682360000000005 -5.8964780000000001
v 18.927864 4.4664450000000002 -6.1289110000000013
v 18.736512999999999 2.7932610000000002 -6.1290280000000008
v 18.686716000000001 -10.143830000000003 -6.023187000000001
v 18.460964000000001 3.9578220000000002 -6.3369850000000003
v 18.375151000000002 3.166367000000001 -6.3502860000000005
v 18.265501 3.5021800000000001 -6.434230000000003
v 16.863130999999999 -9.9647559999999995 -6.1051920000000015
v 16.321736999999999 16.620229999999999 -5.8452000000000002
v 14.961085000000001 -9.7848190000000006 -6.196968
v 13.525895000000006 16.097155000000001 -5.8707989999999999
v 12.956677000000001 -9.65733 -6.2918669999999999
v 11.042026999999999 -9.6580180000000002 -6.3683949999999996
v 11.025126 15.719669 -5.9802640000000009
v 9.2574909999999999 -9.8304690000000008 -6.4189210000000019
v 8.9532629999999997 15.576144000000003 -6.1592409999999997
v 7.5700410000000007 -10.220394000000004 -6.4348530000000004
v 6.1892190000000014 16.093918000000002 -6.5579970000000021
v 5.9023700000000003 -10.940343000000004 -6.3964499999999997
v 5.3977810000000002 16.648844 -6.6928160000000014
v 4.2822060000000004 18.114792000000001 -6.8728129999999998
v 4.1931609999999999 -12.045856000000001 -6.2986550000000019
v 3.6856059999999999 19.862320000000004 -6.9407269999999999
v 3.365103 25.312781999999999 -6.6501859999999997
v 3.4266079999999999 24.124829999999999 -6.944922
v 3.4168409999999998 22.027857000000001 -6.947230000000002
v 2.4366099999999999 -13.352243000000001 -6.1760500000000018
v 2.3295750000000002 24.827244 -4.4246410000000003
v 0.7661380000000001 -14.840256 -6.0112030000000001
v 0.523455 23.852454999999999 -1.3726210000000001
v -0.76222900000000005 -16.323494 -5.8398690000000011
v -2.004121 22.730618000000003 1.4614069999999999
v -2.2300120000000003 -17.759717999999999 -5.6837250000000008
v -2.9218389999999999 -18.378955999999999 -5.6284840000000003
v -4.3535719999999998 -19.590847 -5.5272580000000007
v -5.1940020000000011 21.697655000000001 3.323188
v -6.9244020000000006 -21.392765000000008 -5.4074869999999997
v -8.4757809999999996 21.983741999999999 3.5130130000000004
v -9.3501709999999996 -22.631972999999999 -5.351483
v -10.032659000000004 -4.2759989999999997 -6.5989660000000017
v -10.297245999999999 -6.0784440000000002 -6.1403970000000001
v -10.355369000000001 -3.7322540000000002 -6.6231490000000015
v -10.784682 -7.7967329999999997 -5.8150940000000002
v -11.219563000000001 -3.4111650000000004 -6.4174120000000023
v -10.828932999999999 22.871309 2.5408789999999999
v -12.197763999999999 -3.3737499999999998 -6.1514290000000003
v -13.111083000000001 -3.4054129999999998 -5.9423240000000002
v -12.997795999999999 23.812857000000001 0.69984299999999999
v -14.243033 -13.114644000000002 -5.5969850000000001
v -14.919908 -3.583447 -5.6562469999999996
v -14.747521000000001 24.572462000000002 -1.6446070000000002
v -14.879064 -13.366861 -5.5665310000000003
v -15.343108000000001 -23.967597999999999 -5.3348509999999996
v -15.864396000000003 -13.566244000000003 -5.5260999999999996
v -16.083117999999999 -3.7616380000000005 -5.5432620000000012
v -16.561443000000004 -13.569457 -5.5057790000000004
v -17.110963999999999 22.086884000000001 -6.9213849999999999
v -17.170968999999999 19.072868 -7.0312780000000004
v -17.206682000000001 24.087166 -6.8298290000000001
v -17.196992999999999 25.455379000000001 -6.5079029999999998
v -17.595219 16.331492999999998 -7.0015320000000001
v -18.641414999999999 -23.717438000000005 -5.3497880000000011
v -18.371221999999999 14.095764000000006 -6.7897470000000002
v -19.264025 -4.7882990000000003 -5.4767659999999996
v -19.629057 11.795826999999999 -6.3760290000000008
v -19.993815999999999 -5.283093 -5.4788560000000004
v -20.262644000000002 -11.389593 -5.432677
v -20.560804000000005 -5.9219070000000009 -5.4587660000000007
v -20.623163000000005 -10.779043 -5.4105650000000001
v -20.910855999999999 -6.7819539999999998 -5.4031070000000003
v -20.974356000000004 -9.8520599999999998 -5.3753339999999996
v -21.093681000000007 -7.7355490000000016 -5.3575970000000002
v -21.132556999999998 -8.809628 -5.3488389999999999
v -23.230045 7.671576 -5.3492600000000001
v -23.694307000000002 -21.938455999999999 -5.3690920000000011
v -25.989007999999998 -20.320034000000003 -5.3765330000000002
v -27.939743000000004 -18.315321000000001 -5.3849090000000013
v -27.923636999999999 2.3468659999999999 -4.9582940000000004
v -29.404292999999999 0.077011999999999997 -5.0203699999999998
v -29.470054999999999 -15.947532000000004 -5.393524000000002
v -30.428294999999999 -2.1689219999999998 -5.1174410000000004
v -30.559657999999999 -13.286718 -5.3953319999999998
v -31.117042999999999 -4.7320729999999998 -5.2263599999999997
v -31.215656000000003 -10.450946000000004 -5.3766800000000003
v -20.586258000000001 10.498666 -6.0599860000000003
v -22.325806 8.5881120000000006 -5.5574650000000005
v -23.892302999999998 6.9943080000000002 -5.2316669999999998
v -29.816730000000007 -0.73885999999999996 -5.0544840000000004
v -30.721817000000001 -3.101585 -5.1584770000000004
v -31.261165999999999 -5.7717570000000009 -5.2639050000000012
v -31.363056 -8.9990790000000001 -5.3531449999999996
v -30.944855000000011 -11.884169 -5.3898150000000014
v -27.375557000000001 3.0758820000000009 -4.9525889999999997
v -25.802208 4.9545659999999998 -5.007231
v -10.826808000000002 -23.176821000000004 -5.3360580000000004
v -14.216496000000003 -23.878628000000003 -5.331321
v -13.642297000000001 -12.738687000000004 -5.6239280000000003
v -12.911576 -12.076242000000001 -5.6458440000000012
v -12.276681 -11.237679999999999 -5.6521189999999999
v -11.734406 -10.267237 -5.6588589999999996
v -10.987258000000002 -8.4364930000000005 -5.7364249999999997
v 24.449289000000007 -10.199018000000002 -5.887626
v 34.313189999999999 -5.2332330000000002 -6.1776010000000001
v 32.257088000000003 -7.3208679999999999 -6.0528849999999998
v 37.192486000000002 3.221784 -6.4463059999999999
v -19.829069 -11.921424 -5.4485609999999998
v -19.159905999999999 -12.528081000000002 -5.4635999999999996
v -18.396532000000001 -13.007189 -5.4750800000000002
v -17.595500999999999 -13.345481000000001 -5.4865130000000004
v -3.5436179999999999 -18.921570000000003 -5.5815800000000007
v -1.431603 -16.988818999999999 -5.7644450000000003
v -18.330555 -4.3447139999999997 -5.4714140000000002
v -7.9253580000000001 -21.96332 -5.3781949999999998
v -25.158833000000005 -20.966560000000001 -5.3737510000000013
v -14.139459 24.308478999999998 -0.71035700000000024
v -17.237276000000001 -4.0126400000000011 -5.4881700000000002
v -13.801456999999999 -3.4570110000000009 -5.8139390000000004
v -10.090844000000001 -5.2612519999999998 -6.3514740000000014
v -12.253457000000001 23.489729000000001 1.4771639999999999
v -9.8904580000000006 22.463881000000004 3.0692880000000011
v 1.5158419999999999 24.365881000000002 -2.92862
v -0.64892799999999995 23.307880000000001 0.119494
v -6.8739590000000028 21.690429999999999 3.6181200000000002
v -3.5449330000000012 22.119129000000001 2.5667949999999999
v 1.5869070000000001 -14.082869000000002 -6.0972939999999998
v -30.191707999999998 -14.306604999999999 -5.3958430000000002
v 19.569739999999999 -10.224968000000001 -5.9870140000000003
v 8.4062199999999994 -9.9917189999999998 -6.432404
v 6.7380360000000028 -10.532519000000001 -6.423369000000001
v 5.0552110000000008 -11.456119000000003 -6.3525939999999999
v -19.711807 -23.504570000000001 -5.3545800000000012
v -16.826355 -23.945070000000005 -5.3412400000000018
v -19.105257000000002 12.617380000000002 -6.5521399999999996
v -17.28931 18.035702000000001 -7.0373429999999999
v -17.143007000000001 23.011379000000002 -6.8791039999999999
v -17.267607000000002 24.944429 -6.7951839999999999
v -16.866056 25.492228999999998 -5.7007180000000002
v 15.925406000000004 -9.8720680000000005 -6.150089000000003
v 20.705103000000001 -10.295725000000003 -5.9491740000000002
v 22.417089000000004 -10.311868000000002 -5.9115640000000003
v -17.990006999999999 15.026731 -6.9036280000000003
v 36.815792000000002 0.218083 -6.3909799999999999
v 35.847141000000001 -2.667799 -6.297284000000003
v 29.790840000000003 -8.8437429999999999 -5.9508700000000001
v 27.082439000000001 -9.7694189999999992 -5.8946079999999998
v -22.744880999999999 -22.417528000000001 -5.3660100000000002
v -28.937256000000001 -16.866947 -5.3905250000000002
v 2.965992 25.215630999999998 -5.7368220000000001
v 3.466917 24.900431000000001 -6.9497590000000002
v 3.3993519999999999 23.132231000000001 -6.9450560000000028
v 3.5107670000000013 20.916931000000002 -6.9485110000000017
v 3.9458320000000002 18.926880000000001 -6.9156970000000006
v 4.6854849999999999 17.430229000000001 -6.8114590000000019
v 7.0609739999999999 15.772812 -6.4156019999999998
v 8.1043249999999993 15.601032000000004 -6.2627249999999997
v 9.9299470000000021 15.616483000000001 -6.0633150000000002
v 12.553644999999999 15.936788000000002 -5.9042459999999997
v 18.148985 16.939216999999999 -5.8631799999999998
v 21.094439999999999 17.322769000000001 -5.9216889999999998
v 23.634589999999999 17.418030000000002 -5.9914209999999999
v 36.282336999999998 8.9167009999999998 -6.44665
v 23.510145000000001 6.654649 -6.1364330000000011
v 22.512484000000001 6.503306000000002 -5.9903820000000003
v 21.61101 6.2136820000000004 -5.8890669999999998
v -15.694257 24.98348 -3.2761819999999999
v -11.278796 -9.2271769999999993 -5.6882720000000022
v -0.023278 -15.597219000000004 -5.9237590000000004
v -10.533757 -6.9300280000000001 -5.9661700000000009
v 3.3128270000000004 -12.675568000000004 -6.2414889999999996
v 11.983276999999999 -9.6385180000000013 -6.3330640000000002
v 10.134762000000002 -9.7206200000000003 -6.3973000000000013
v 37.004833000000005 6.1683060000000012 -6.4633110000000027
v 13.960397000000002 -9.7096680000000006 -6.2453650000000005
v 17.784040000000001 -10.056217999999999 -6.0627340000000007
v -20.194958 11.010323 -6.1886549999999998
v -21.009875999999998 10.013031000000002 -5.9300189999999997
v -21.656572000000001 9.2925749999999994 -5.7394060000000016
v -22.777925 8.1298440000000003 -5.4533620000000003
v -24.542300999999998 6.3177370000000002 -5.1365460000000001
v -28.445892000000001 1.6067990000000001 -4.9720820000000003
v -28.940165 0.85155700000000001 -4.9930690000000002
v -30.19125 -1.5898699999999999 -5.0916480000000002
v -30.968349000000011 -4.0722740000000002 -5.1992580000000013
v -31.350822000000001 -6.8333060000000012 -5.2980070000000001
v -31.385097999999999 -7.91099 -5.3279829999999997
v -31.289356000000002 -9.7250119999999995 -5.3649120000000003
v -31.080257000000007 -11.167557000000004 -5.383248
v -30.752258000000001 -12.585443 -5.3925739999999998
v -26.796828999999999 3.7884980000000001 -4.9630159999999997
v -25.179211000000006 5.6388309999999997 -5.0622730000000002
v -26.203064000000005 4.4903029999999999 -4.9868620000000004
v -10.088488999999999 -22.904398 -5.3437700000000001
v -11.955417000000001 -23.483955000000002 -5.3312809999999997
v -13.086289000000004 -23.717651000000007 -5.3299170000000009
v 33.828341999999999 -5.7877850000000004 -6.1458930000000001
v 32.800288999999999 -6.8316020000000002 -6.0835359999999996
v 31.662621000000001 -7.7395420000000001 -6.0250719999999998
v 37.176693 3.9673159999999998 -6.4526409999999998
v 37.137737000000001 2.4691040000000002 -6.4351779999999996
v -8.6377649999999999 -22.297647000000001 -5.3648369999999996
v -24.288208000000004 -21.560263000000003 -5.3709590000000009
v -13.692683000000001 24.114523000000005 -0.13481000000000001
v -11.697608000000001 23.248422999999999 1.9209540000000001
v -9.1831200000000006 22.22381 3.2911500000000005
v 1.0196480000000001 24.109169000000001 -2.1506210000000001
v 1.922709 24.596561000000001 -3.676631
v -0.062736 23.580168 -0.62656400000000001
v -1.326524 23.019248999999999 0.79045000000000032
v -6.0339790000000004 21.694042000000003 3.4706530000000013
v -7.6748700000000003 21.837085999999999 3.5655649999999999
v -4.3694660000000001 21.908391999999999 2.9449909999999999
v -2.7745280000000001 22.424873000000002 2.0141
v -29.769558000000007 -15.297051000000002 -5.3947700000000012
v -20.750537999999999 -23.200417999999999 -5.3588210000000016
v -16.084731999999999 -23.956334999999999 -5.338044
v -17.555486999999999 -23.866734000000001 -5.3447140000000006
v -18.801774999999999 13.201411 -6.6519640000000013
v -17.461988000000002 17.010735 -7.0204490000000019
v -16.473431000000001 25.321764000000002 -4.8459409999999998
v -17.119398 20.106338999999998 -7.0013889999999996
v -17.101244000000001 21.114773000000003 -6.9634530000000003
v -17.792611999999998 15.679112000000002 -6.952579000000001
v 36.949390000000001 0.96725300000000003 -6.4075150000000001
v 36.608196 -0.51636000000000004 -6.3696469999999996
v 36.123867000000004 -1.959301 -6.3228000000000018
v 35.499744 -3.3362420000000004 -6.2685209999999998
v 30.429497000000001 -8.5009779999999999 -5.9740640000000003
v 29.121914000000011 -9.1118579999999998 -5.933395
v 27.767714000000002 -9.5746970000000005 -5.9052639999999998
v 26.406569999999999 -9.9021319999999999 -5.8901139999999996
v -21.762594 -22.838127 -5.3626100000000001
v -28.349701 -17.744371000000001 -5.3872160000000004
v -26.756406999999999 -19.603249000000002 -5.3795599999999997
v -27.475974999999998 -18.839821000000001 -5.3827379999999998
v -5.1269320000000009 -20.183813000000001 -5.4840960000000019
v -5.9877320000000003 -20.792027000000001 -5.443479
v 2.647783 25.021436999999999 -5.0807320000000002
v 11.627343000000002 15.801500000000001 -5.9478309999999999
v 14.554059000000006 16.287413000000001 -5.8541150000000011
v 15.609260000000003 16.485529 -5.8468770000000001
v 17.051013999999999 16.750729 -5.8512320000000004
v 19.991876999999999 17.204305999999999 -5.8966289999999999
v 22.913139000000001 17.411405999999999 -5.9705880000000002
v 24.341940000000001 17.373142000000001 -6.0136070000000004
v 26.083090000000002 17.178459 -6.0699590000000025
v 27.094614000000004 16.972391000000002 -6.1043160000000007
v 28.722326000000002 16.495685999999999 -6.1614469999999999
v 29.651057999999999 16.116968 -6.1950950000000002
v 31.115662 15.349225000000001 -6.2494820000000004
v 31.929006999999999 14.793987 -6.2804250000000028
v 33.177135 13.729148000000002 -6.3287100000000018
v 33.849857 12.999432000000004 -6.355006000000003
v 34.861007999999998 11.663085000000001 -6.3943979999999998
v 35.388477000000002 10.787627000000001 -6.4144639999999997
v 36.498699000000002 8.2454649999999994 -6.4529379999999996
v -15.322232 24.821967999999998 -2.6161029999999998
v -16.018405999999999 25.124212 -3.9185989999999999
v 37.082867000000007 5.4405780000000004 -6.4611429999999999
v 36.859943000000001 6.8712700000000027 -6.4612670000000003
v -22.551865499999998 8.3589780000000005 -5.5054134999999995
v 25.298326500000002 6.3524555000000005 -6.3728944999999992
v -24.860755999999999 5.9782840000000004 -5.0994095000000002
v -31.252506000000011 -10.087979000000001 -5.3707960000000012
v -31.012556 -11.525863000000001 -5.3865315000000002
v -30.655957999999998 -12.936080499999999 -5.3939529999999998
v -9.7193299999999994 -22.768185500000001 -5.3476265000000005
v -10.88597 -8.116613000000001 -5.7757594999999995
v 32.528688500000001 -7.0762350000000005 -6.0682104999999993
v 31.365386000000001 -7.9488775 -6.0111654999999997
v 37.184589500000001 3.5945499999999999 -6.4494734999999999
v 37.110363 2.0927639999999998 -6.4296144999999996
v -8.2815615000000005 -22.130483500000008 -5.3715159999999997
v -23.9912575 -21.749359499999997 -5.3700255000000006
v 25.419558500000008 0.90994299999999995 -5.9154975000000007
v 25.921198000000008 1.3046945000000001 -5.9208864999999999
v -8.0753254999999999 21.910413999999999 3.539289000000001
v -4.7817340000000002 21.803023500000002 3.1340895
v -15.71392 -23.961966499999999 -5.3364475000000002
v -17.190920999999999 -23.905902000000001 -5.3429769999999994
v 22.0480965 -10.311087000000001 -5.9192605
v 36.882591000000005 0.59266799999999997 -6.3992474999999995
v 36.504397999999995 -0.88358150000000024 -6.3589819999999992
v 35.985503999999999 -2.3135500000000002 -6.3100420000000002
v 30.110168500000007 -8.6723604999999999 -5.9624670000000002
v 28.787451000000001 -9.2459160000000011 -5.9246575000000004
v 27.425076500000003 -9.6720579999999998 -5.8999360000000003
v 25.908460499999997 -9.9890100000000004 -5.8881169999999994
v -28.144722000000009 -18.029845999999999 -5.3860624999999995
v 3.1655474999999997 25.2642065 -6.1935039999999999
v 24.695615 17.3506985 -6.0247019999999996
v 32.192990500000001 14.5990155 -6.2905425000000026
v 36.390518 8.5810829999999996 -6.4497939999999998
v 24.629201000000002 6.5637144999999997 -6.2982385000000018
v 23.8730355 6.6513510000000009 -6.1915850000000017
v 23.011314500000001 6.5789775000000006 -6.0634075000000021
v 18.327198124999999 3.7192003750000002 -6.4038586250000007
v 18.285524437499998 3.3291150000000003 -6.4121644374999995
v -15.5082445 24.902723999999999 -2.9461424999999997
v -10.4155015 -6.5042360000000006 -6.0532835000000018
v 37.043850000000006 5.8044419999999999 -6.4622270000000004
v 36.787502000000003 7.2227515000000002 -6.4602465000000002
v -26.002636000000003 4.7224345000000003 -4.9970464999999997
v -21.991188999999999 8.9403435000000009 -5.6484354999999997
v -24.217301999999997 6.6560225000000006 -5.1841065000000004
v -31.326205999999999 -9.3620455000000007 -5.3590285
v -31.147956499999999 -10.809251500000004 -5.3799640000000002
v -30.848556500000001 -12.234805999999999 -5.3911944999999992
v -25.490709500000008 5.2966984999999998 -5.0347520000000001
v -10.457648500000001 -23.040609500000002 -5.3399140000000003
v 33.071889999999996 -6.5869685000000002 -6.0988609999999994
v 31.959854500000002 -7.5302050000000005 -6.0389784999999998
v 37.168796499999999 4.3400829999999999 -6.4558099999999996
v 37.165111500000002 2.8454440000000001 -6.4407420000000002
v -20.045856499999999 -11.6555085 -5.4406189999999999
v -8.9939679999999989 -22.46481 -5.3581599999999998
v -24.723520499999999 -21.2634115 -5.3723550000000007
v -10.746497812499999 -3.5400638750000013 -6.538415875000001
v -10.194045000000001 -5.6698480000000009 -6.2459355000000016
v -7.2744145000000016 21.763758000000003 3.5918424999999998
v -3.9571994999999998 22.0137605 2.7558929999999999
v -16.455543499999997 -23.950702499999998 -5.3396419999999996
v -18.098450999999997 -23.792086000000001 -5.3472510000000009
v -17.237144499999999 24.515797499999998 -6.8125064999999996
v 22.867601999999998 -10.2979365 -5.9044635000000003
v -10.136365312500002 -3.96261625 -6.6393843125000007
v 37.016189499999996 1.3418384999999999 -6.4157830000000002
v 36.711994000000004 -0.14913850000000001 -6.3803134999999997
v 36.262233499999994 -1.6050520000000001 -6.3355585000000003
v 30.748823999999999 -8.3295954999999999 -5.9856615
v 29.456377000000007 -8.9778005000000007 -5.9421325000000005
v 28.110351000000001 -9.4773355000000024 -5.9105920000000003
v 26.744504499999998 -9.8357755000000004 -5.8923609999999993
v -28.643478500000001 -17.305658999999999 -5.3888704999999995
v 3.41601 25.106606499999998 -6.7999725
v 3.4467625000000002 24.5126305 -6.947340500000001
v 21.643065 17.363775 -5.9357220000000002
v 22.552414500000001 17.4080935 -5.9601714999999995
v 23.988264999999998 17.395586000000002 -6.0025139999999997
v 27.4280765 16.894322500000001 -6.1158000000000001
v 31.522334499999999 15.071605999999999 -6.2649535000000007
v 36.606880000000004 7.9098489999999995 -6.4560820000000003
v -15.034876500000003 24.697215000000003 -2.1303549999999998
v 37.121883499999996 5.0767140000000008 -6.4600609999999996
v 36.932388000000003 6.5197880000000019 -6.4622890000000011
v -20.442903500000003 -11.084318 -5.421621
v -11.133027 -8.8318349999999999 -5.7123485000000001
v 26.588852000000003 17.075424999999999 -6.0871375000000016
v -17.232300000000002 25.199904 -6.6515434999999998
v -17.0315245 25.473804000000001 -6.1043105000000004
v -22.438835749999999 8.4735450000000014 -5.53143925
v 25.16040125 6.4159157500000008 -6.361317249999999
v -24.701528499999998 6.1480104999999998 -5.1179777499999997
v -31.270931000000001 -9.9064955000000019 -5.3678540000000021
v -31.046406500000003 -11.346710000000002 -5.3848897500000001
v -30.704107999999998 -12.76076175 -5.3932634999999998
v -10.936614000000001 -8.2765529999999998 -5.75609225
v -24.13973275 -21.654811249999998 -5.3704922499999999
v 25.793725000000002 1.17980375 -5.9212227500000001
v -7.8750977500000019 21.873750000000001 3.5524270000000002
v -28.247211500000002 -17.887108500000004 -5.38663925
v 3.2653252500000001 25.288494249999999 -6.4218449999999994
v 24.825838500000003 6.52154525 -6.3239892500000003
v 23.260729750000003 6.6168132499999999 -6.0999202500000003
v -15.41523825 24.862345999999999 -2.7811227499999998
v -10.356373749999999 -6.2913399999999999 -6.0968402499999996
v 37.063358500000007 5.6225100000000001 -6.4616850000000001
v 36.823722500000002 7.0470107500000001 -6.4607567499999998
v -20.154250250000004 -11.522550750000001 -5.4366480000000008
v -10.245645499999998 -5.8741459999999996 -6.1931662500000018
v 3.3905564999999998 25.209694249999998 -6.7250792500000003
v 3.4568397500000003 24.706530749999999 -6.9485497499999997
v 21.917377500000001 17.384278000000002 -5.9427384999999999
v 22.372052250000003 17.40643725 -5.9549632499999996
v -17.214646500000001 25.327641499999999 -6.5797232499999998
v -17.114258749999998 25.464591500000001 -6.3061067499999996
v -9.9039094999999993 -22.836291750000001 -5.3456982499999999
v 32.664488750000004 -6.9539185000000003 -6.075873249999999
v 31.514003500000001 -7.8442097500000001 -6.0181187499999993
v 37.180641250000001 3.7809330000000001 -6.4510572499999999
v 37.124049999999997 2.2809340000000002 -6.43239625
v -8.4596632500000002 -22.214065250000001 -5.3681764999999997
v 25.542905250000008 0.98242800000000019 -5.9185282500000005
v -4.5755999999999997 21.855707750000001 3.0395402499999999
v -15.899325999999999 -23.959150749999999 -5.3372457500000001
v -17.373204000000001 -23.886318000000003 -5.3438454999999996
v 22.232592750000002 -10.311477500000001 -5.9154122500000001
v 36.915990500000007 0.77996050000000006 -6.4033812499999998
v 36.556297000000001 -0.69997075000000009 -6.364314499999999
v 36.054685499999998 -2.1364255000000001 -6.316421000000001
v 30.269832749999999 -8.5866692499999999 -5.9682655000000002
v 28.954682500000004 -9.1788869999999996 -5.9290262499999997
v 27.59639525 -9.6233775000000001 -5.9025999999999996
v 26.157515249999996 -9.945571000000001 -5.8891154999999991
v 24.518777499999999 17.361920250000001 -6.0191545
v 32.060998749999996 14.696501250000003 -6.2854837500000027
v 36.444608500000001 8.4132739999999995 -6.4513660000000002
v 23.691590250000001 6.6530000000000022 -6.1640090000000001
v -25.902422000000005 4.8385002500000001 -5.0021387500000003
v -22.158497499999999 8.7642277499999999 -5.6029502499999992
v -24.379801499999999 6.4868797499999999 -5.1603262500000007
v -31.307780999999999 -9.5435287500000001 -5.3619702500000006
v -31.114106750000001 -10.988404250000004 -5.3816059999999997
v -30.800407249999999 -12.410124499999998 -5.3918842499999995
v -25.646458750000001 5.1256322499999998 -5.0209915000000018
v -10.27306875 -22.972503750000005 -5.3418419999999998
v 32.936089499999994 -6.7092852500000006 -6.0911984999999991
v 31.811237750000004 -7.6348735000000003 -6.0320252500000002
v 37.17274475 4.1536995000000001 -6.4542254999999997
v 37.151424250000005 2.6572740000000001 -6.4379600000000003
v -8.8158664999999985 -22.381228499999999 -5.3614984999999997
v -24.505864250000009 -21.411837249999998 -5.3716570000000008
v -7.4746422500000005 21.800421999999998 3.5787037500000007
v -4.1633327500000004 21.961076249999998 2.8504420000000001
v -16.270137749999996 -23.953518750000001 -5.3388429999999998
v -17.826968999999998 -23.829410000000003 -5.3459825000000007
v -17.252375749999999 24.730113249999999 -6.8038452500000002
v 22.642345499999998 -10.304902250000001 -5.9080137500000003
v 36.982789749999995 1.15454575 -6.4116490000000006
v 36.660094999999998 -0.33274925 -6.3749802500000001
v 36.193050249999999 -1.7821765000000001 -6.329179250000001
v 30.589160499999998 -8.4152867499999999 -5.9798627500000006
v 29.2891455 -9.0448292499999994 -5.9377637500000002
v 27.939032500000003 -9.5260162500000014 -5.9079280000000001
v 26.575537249999996 -9.8689537499999993 -5.891237499999999
v -28.496589750000005 -17.525015000000003 -5.38804325
v 3.4414635000000002 25.003518749999998 -6.8748657499999997
v 24.1651025 17.384364000000001 -6.0080605
v 27.261345249999998 16.933356750000002 -6.1100580000000004
v 31.725670749999999 14.932796499999998 -6.2726892500000009
v 36.552789500000003 8.0776569999999985 -6.45451
v -15.178554250000005 24.759591499999999 -2.3732290000000003
v 37.102375249999994 5.2586460000000006 -6.4606019999999997
v 36.896165500000002 6.6955290000000023 -6.4617780000000025
v -20.352773750000001 -11.236955500000001 -5.427149
v -11.060142500000001 -8.6341640000000002 -5.7243867499999999
v 26.841732999999998 17.023907999999999 -6.0957267499999999
v -17.249953500000004 25.072166500000002 -6.7233637499999999
l 29/29 30/30
l 30/30 28/28
l 28/28 27/27
l 27/27 26/26
l 26/26 4/4
l 4/4 5/5
l 5/5 6/6
l 6/6 7/7
l 7/7 8/8
l 8/8 9/9
l 9/9 20/20
l 20/20 3/3
l 3/3 21/21
l 21/21 10/10
l 10/10 23/23
l 23/23 11/11
l 11/11 12/12
l 12/12 25/25
l 25/25 13/13
l 13/13 14/14
l 14/14 15/15
l 15/15 16/16
l 16/16 17/17
l 17/17 22/22
l 22/22 18/18
l 18/18 19/19
l 19/19 1/1
l 1/1 2/2
l 2/2 24/24
l 24/24 31/31
l 31/31 33/33
l 33/33 32/32
l 63/63 64/64
l 64/64 62/62
l 62/62 48/48
l 48/48 39/39
l 39/39 40/40
l 40/40 41/41
l 41/41 54/54
l 54/54 51/51
l 51/51 58/58
l 58/58 53/53
l 53/53 59/59
l 59/59 50/50
l 50/50 38/38
l 38/38 37/37
l 37/37 47/47
l 47/47 36/36
l 36/36 56/56
l 56/56 35/35
l 35/35 57/57
l 57/57 52/52
l 52/52 60/60
l 60/60 61/61
l 61/61 44/44
l 44/44 49/49
l 49/49 45/45
l 45/45 46/46
l 46/46 34/34
l 34/34 55/55
l 55/55 42/42
l 42/42 43/43
l 90/90 91/91
l 91/91 89/89
l 89/89 81/81
l 81/81 88/88
l 88/88 69/69
l 69/69 79/79
l 79/79 78/78
l 78/78 70/70
l 70/70 71/71
l 71/71 68/68
l 68/68 72/72
l 72/72 73/73
l 73/73 80/80
l 80/80 67/67
l 67/67 74/74
l 74/74 75/75
l 75/75 66/66
l 66/66 76/76
l 76/76 65/65
l 65/65 77/77
l 77/77 82/82
l 82/82 86/86
l 86/86 85/85
l 85/85 84/84
l 84/84 83/83
l 83/83 87/87
l 87/87 94/94
l 94/94 93/93
l 93/93 92/92
l 122/122 123/123
l 123/123 121/121
l 121/121 113/113
l 113/113 111/111
l 111/111 112/112
l 112/112 109/109
l 109/109 114/114
l 114/114 110/110
l 110/110 102/102
l 102/102 104/104
l 104/104 105/105
l 105/105 106/106
l 106/106 99/99
l 99/99 98/98
l 98/98 100/100
l 100/100 108/108
l 108/108 103/103
l 103/103 115/115
l 115/115 95/95
l 95/95 101/101
l 101/101 107/107
l 107/107 116/116
l 116/116 97/97
l 97/97 96/96
l 96/96 119/119
l 119/119 117/117
l 117/117 120/120
l 120/120 118/118
l 150/150 145/145
l 145/145 147/147
l 147/147 146/146
l 146/146 135/135
l 135/135 141/141
l 141/141 142/142
l 142/142 134/134
l 134/134 139/139
l 139/139 148/148
l 148/148 144/144
l 144/144 149/149
l 149/149 140/140
l 140/140 124/124
l 124/124 136/136
l 136/136 125/125
l 125/125 152/152
l 152/152 126/126
l 126/126 127/127
l 127/127 137/137
l 137/137 128/128
l 128/128 138/138
l 138/138 143/143
l 143/143 133/133
l 133/133 132/132
l 132/132 129/129
l 129/129 151/151
l 151/151 131/131
l 131/131 130/130
l 175/175 194/194
l 194/194 174/174
l 174/174 195/195
l 195/195 199/199
l 199/199 196/196
l 196/196 162/162
l 162/162 179/179
l 179/179 186/186
l 186/186 188/188
l 188/188 163/163
l 163/163 182/182
l 182/182 190/190
l 190/190 168/168
l 168/168 169/169
l 169/169 170/170
l 170/170 171/171
l 171/171 198/198
l 198/198 172/172
l 172/172 160/160
l 160/160 191/191
l 191/191 176/176
l 176/176 159/159
l 159/159 173/173
l 173/173 180/180
l 180/180 158/158
l 158/158 193/193
l 193/193 177/177
l 177/177 192/192
l 192/192 184/184
l 184/184 201/201
l 201/201 178/178
l 178/178 154/154
l 154/154 167/167
l 167/167 156/156
l 156/156 165/165
l 165/165 157/157
l 157/157 164/164
l 164/164 197/197
l 197/197 200/200
l 200/200 185/185
l 185/185 161/161
l 161/161 155/155
l 155/155 187/187
l 187/187 183/183
l 183/183 181/181
l 181/181 166/166
l 166/166 189/189
l 189/189 153/153
l 202/202 223/223
l 223/223 203/203
l 203/203 212/212
l 212/212 241/241
l 241/241 204/204
l 204/204 244/244
l 244/244 245/245
l 245/245 222/222
l 222/222 205/205
l 205/205 211/211
l 211/211 206/206
l 206/206 221/221
l 221/221 207/207
l 207/207 232/232
l 232/232 214/214
l 214/214 220/220
l 220/220 243/243
l 243/243 239/239
l 239/239 230/230
l 230/230 238/238
l 238/238 246/246
l 246/246 237/237
l 237/237 229/229
l 229/229 228/228
l 228/228 236/236
l 236/236 219/219
l 219/219 227/227
l 227/227 218/218
l 218/218 235/235
l 235/235 217/217
l 217/217 216/216
l 216/216 234/234
l 234/234 240/240
l 240/240 226/226
l 226/226 242/242
l 242/242 208/208
l 208/208 233/233
l 233/233 213/213
l 213/213 225/225
l 225/225 209/209
l 209/209 224/224
l 224/224 215/215
l 215/215 231/231
l 231/231 210/210
l 432/432 433/433
l 433/433 434/434
l 434/434 429/429
l 429/429 431/431
l 431/431 290/290
l 290/290 271/271
l 271/271 363/363
l 363/363 291/291
l 291/291 427/427
l 427/427 424/424
l 424/424 386/386
l 386/386 364/364
l 364/364 272/272
l 272/272 345/345
l 345/345 405/405
l 405/405 385/385
l 385/385 289/289
l 289/289 273/273
l 273/273 362/362
l 362/362 384/384
l 384/384 274/274
l 274/274 377/377
l 377/377 346/346
l 346/346 406/406
l 406/406 418/418
l 418/418 361/361
l 361/361 288/288
l 288/288 383/383
l 383/383 286/286
l 286/286 360/360
l 360/360 287/287
l 287/287 382/382
l 382/382 278/278
l 278/278 307/307
l 307/307 365/365
l 365/365 422/422
l 422/422 366/366
l 366/366 394/394
l 394/394 308/308
l 308/308 407/407
l 407/407 348/348
l 348/348 421/421
l 421/421 423/423
l 423/423 281/281
l 281/281 350/350
l 350/350 283/283
l 283/283 285/285
l 285/285 284/284
l 284/284 325/325
l 325/325 282/282
l 282/282 337/337
l 337/337 280/280
l 280/280 354/354
l 354/354 279/279
l 279/279 411/411
l 411/411 349/349
l 349/349 420/420
l 420/420 305/305
l 305/305 277/277
l 277/277 351/351
l 351/351 276/276
l 276/276 319/319
l 319/319 320/320
l 320/320 347/347
l 347/347 275/275
l 275/275 306/306
l 306/306 428/428
l 428/428 324/324
l 324/324 323/323
l 323/323 413/413
l 413/413 329/329
l 329/329 322/322
l 322/322 370/370
l 370/370 397/397
l 397/397 321/321
l 321/321 330/330
l 330/330 400/400
l 400/400 395/395
l 395/395 309/309
l 309/309 270/270
l 270/270 409/409
l 409/409 379/379
l 379/379 269/269
l 269/269 408/408
l 408/408 352/352
l 352/352 378/378
l 378/378 353/353
l 353/353 417/417
l 417/417 266/266
l 266/266 419/419
l 419/419 304/304
l 304/304 264/264
l 264/264 310/310
l 310/310 426/426
l 426/426 262/262
l 262/262 416/416
l 416/416 311/311
l 311/311 312/312
l 312/312 373/373
l 373/373 334/334
l 334/334 335/335
l 335/335 380/380
l 380/380 355/355
l 355/355 356/356
l 356/356 381/381
l 381/381 358/358
l 358/358 332/332
l 332/332 331/331
l 331/331 260/260
l 260/260 359/359
l 359/359 259/259
l 259/259 328/328
l 328/328 258/258
l 258/258 333/333
l 333/333 257/257
l 257/257 302/302
l 302/302 300/300
l 300/300 301/301
l 301/301 256/256
l 256/256 298/298
l 298/298 299/299
l 299/299 254/254
l 254/254 336/336
l 336/336 252/252
l 252/252 338/338
l 338/338 251/251
l 251/251 297/297
l 297/297 249/249
l 249/249 339/339
l 339/339 247/247
l 247/247 357/357
l 357/357 250/250
l 250/250 296/296
l 296/296 248/248
l 248/248 340/340
l 340/340 253/253
l 253/253 295/295
l 295/295 255/255
l 255/255 293/293
l 293/293 294/294
l 294/294 341/341
l 341/341 342/342
l 342/342 414/414
l 414/414 410/410
l 410/410 372/372
l 372/372 292/292
l 292/292 327/327
l 327/327 399/399
l 399/399 371/371
l 371/371 326/326
l 326/326 398/398
l 398/398 313/313
l 313/313 261/261
l 261/261 401/401
l 401/401 343/343
l 343/343 374/374
l 374/374 316/316
l 316/316 368/368
l 368/368 314/314
l 314/314 367/367
l 367/367 315/315
l 315/315 415/415
l 415/415 375/375
l 375/375 402/402
l 402/402 263/263
l 263/263 393/393
l 393/393 392/392
l 392/392 391/391
l 391/391 265/265
l 265/265 390/390
l 390/390 389/389
l 389/389 267/267
l 267/267 303/303
l 303/303 268/268
l 268/268 404/404
l 404/404 344/344
l 344/344 425/425
l 425/425 388/388
l 388/388 387/387
l 387/387 396/396
l 396/396 376/376
l 376/376 403/403
l 403/403 369/369
l 369/369 412/412
l 412/412 317/317
l 317/317 430/430
l 430/430 318/318
l 464/464 472/472
l 472/472 465/465
l 465/465 444/444
l 444/444 454/454
l 454/454 468/468
l 468/468 457/457
l 457/457 466/466
l 466/466 455/455
l 455/455 467/467
l 467/467 469/469
l 469/469 458/458
l 458/458 459/459
l 459/459 476/476
l 476/476 474/474
l 474/474 473/473
l 473/473 445/445
l 445/445 456/456
l 456/456 475/475
l 475/475 450/450
l 450/450 471/471
l 471/471 463/463
l 463/463 452/452
l 452/452 453/453
l 453/453 443/443
l 443/443 460/460
l 460/460 470/470
l 470/470 441/441
l 441/441 449/449
l 449/449 440/440
l 440/440 448/448
l 448/448 462/462
l 462/462 438/438
l 438/438 461/461
l 461/461 439/439
l 439/439 435/435
l 435/435 442/442
l 442/442 451/451
l 451/451 437/437
l 437/437 446/446
l 446/446 436/436
l 436/436 447/447
l 447/447 477/477
l 477/477 478/478
l 479/479 829/829
l 479/479 860/860
l 480/480 788/788
l 480/480 843/843
l 481/481 818/818
l 481/481 858/858
l 482/482 799/799
l 482/482 845/845
l 483/483 678/678
l 483/483 771/771
l 484/484 620/620
l 484/484 743/743
l 485/485 769/769
l 485/485 770/770
l 486/486 712/712
l 486/486 827/827
l 487/487 768/768
l 487/487 808/808
l 488/488 786/786
l 488/488 846/846
l 489/489 765/765
l 489/489 766/766
l 490/490 802/802
l 490/490 848/848
l 491/491 764/764
l 491/491 856/856
l 492/492 493/493
l 492/492 494/494
l 493/493 495/495
l 494/494 496/496
l 495/495 497/497
l 496/496 500/500
l 497/497 792/792
l 498/498 619/619
l 498/498 804/804
l 499/499 875/875
l 499/499 899/899
l 500/500 778/778
l 501/501 504/504
l 501/501 791/791
l 502/502 762/762
l 502/502 807/807
l 503/503 868/868
l 503/503 879/879
l 504/504 506/506
l 505/505 810/810
l 505/505 811/811
l 506/506 508/508
l 507/507 619/619
l 507/507 841/841
l 508/508 510/510
l 509/509 889/889
l 509/509 890/890
l 510/510 512/512
l 511/511 656/656
l 511/511 797/797
l 512/512 515/515
l 513/513 514/514
l 513/513 681/681
l 514/514 516/516
l 515/515 518/518
l 516/516 519/519
l 517/517 675/675
l 517/517 759/759
l 518/518 520/520
l 519/519 522/522
l 520/520 523/523
l 521/521 644/644
l 521/521 691/691
l 522/522 813/813
l 523/523 814/814
l 524/524 813/813
l 524/524 814/814
l 525/525 655/655
l 525/525 691/691
l 526/526 757/757
l 526/526 758/758
l 527/527 655/655
l 527/527 690/690
l 528/528 674/674
l 528/528 756/756
l 529/529 687/687
l 529/529 690/690
l 530/530 687/687
l 530/530 688/688
l 531/531 673/673
l 531/531 755/755
l 532/532 645/645
l 532/532 688/688
l 533/533 672/672
l 533/533 673/673
l 534/534 645/645
l 534/534 646/646
l 535/535 537/537
l 535/535 671/671
l 536/536 646/646
l 536/536 647/647
l 537/537 670/670
l 538/538 669/669
l 538/538 670/670
l 539/539 647/647
l 539/539 686/686
l 540/540 668/668
l 540/540 669/669
l 541/541 878/878
l 541/541 887/887
l 542/542 667/667
l 542/542 852/852
l 543/543 667/667
l 543/543 668/668
l 544/544 642/642
l 544/544 686/686
l 545/545 723/723
l 545/545 754/754
l 546/546 642/642
l 546/546 684/684
l 547/547 722/722
l 547/547 724/724
l 548/548 628/628
l 548/548 684/684
l 549/549 725/725
l 549/549 729/729
l 550/550 551/551
l 550/550 628/628
l 551/551 627/627
l 552/552 627/627
l 552/552 752/752
l 553/553 726/726
l 553/553 794/794
l 554/554 630/630
l 554/554 753/753
l 555/555 721/721
l 555/555 793/793
l 556/556 783/783
l 556/556 832/832
l 557/557 635/635
l 557/557 842/842
l 558/558 882/882
l 558/558 886/886
l 559/559 834/834
l 559/559 842/842
l 560/560 685/685
l 560/560 784/784
l 561/561 563/563
l 561/561 834/834
l 562/562 637/637
l 562/562 720/720
l 563/563 564/564
l 564/564 634/634
l 565/565 636/636
l 565/565 719/719
l 566/566 569/569
l 566/566 614/614
l 567/567 572/572
l 567/567 634/634
l 568/568 632/632
l 568/568 859/859
l 569/569 571/571
l 570/570 613/613
l 570/570 795/795
l 571/571 573/573
l 572/572 633/633
l 573/573 626/626
l 574/574 652/652
l 574/574 738/738
l 575/575 651/651
l 575/575 737/737
l 576/576 652/652
l 576/576 840/840
l 577/577 891/891
l 577/577 892/892
l 578/578 735/735
l 578/578 739/739
l 579/579 648/648
l 579/579 839/839
l 580/580 658/658
l 580/580 734/734
l 581/581 583/583
l 581/581 629/629
l 582/582 650/650
l 582/582 692/692
l 583/583 585/585
l 584/584 885/885
l 584/584 951/951
l 585/585 587/587
l 586/586 588/588
l 586/586 862/862
l 587/587 589/589
l 588/588 590/590
l 589/589 590/590
l 591/591 604/604
l 591/591 695/695
l 592/592 663/663
l 592/592 790/790
l 593/593 631/631
l 593/593 750/750
l 594/594 751/751
l 594/594 805/805
l 595/595 610/610
l 595/595 697/697
l 596/596 605/605
l 596/596 698/698
l 597/597 664/664
l 597/597 730/730
l 598/598 606/606
l 598/598 699/699
l 599/599 643/643
l 599/599 782/782
l 600/600 607/607
l 600/600 700/700
l 601/601 780/780
l 601/601 823/823
l 602/602 692/692
l 602/602 693/693
l 603/603 867/867
l 603/603 916/916
l 604/604 821/821
l 605/605 699/699
l 606/606 700/700
l 607/607 701/701
l 608/608 702/702
l 608/608 822/822
l 609/609 781/781
l 609/609 824/824
l 610/610 706/706
l 611/611 915/915
l 611/611 921/921
l 612/612 710/710
l 612/612 826/826
l 613/613 711/711
l 614/614 615/615
l 615/615 616/616
l 616/616 617/617
l 617/617 683/683
l 618/618 873/873
l 618/618 952/952
l 620/620 712/712
l 621/621 785/785
l 621/621 828/828
l 622/622 787/787
l 622/622 830/830
l 623/623 624/624
l 623/623 831/831
l 624/624 625/625
l 625/625 626/626
l 629/629 633/633
l 630/630 789/789
l 631/631 833/833
l 632/632 719/719
l 635/635 835/835
l 636/636 720/720
l 637/637 721/721
l 638/638 722/722
l 638/638 723/723
l 639/639 724/724
l 639/639 725/725
l 640/640 726/726
l 640/640 836/836
l 641/641 729/729
l 641/641 837/837
l 643/643 730/730
l 644/644 656/656
l 648/648 731/731
l 649/649 796/796
l 649/649 838/838
l 650/650 734/734
l 651/651 735/735
l 653/653 933/933
l 653/653 954/954
l 654/654 736/736
l 654/654 866/866
l 657/657 903/903
l 657/657 934/934
l 658/658 739/739
l 659/659 798/798
l 659/659 844/844
l 660/660 743/743
l 660/660 800/800
l 661/661 801/801
l 661/661 847/847
l 662/662 803/803
l 662/662 849/849
l 663/663 748/748
l 664/664 850/850
l 665/665 754/754
l 665/665 806/806
l 666/666 888/888
l 666/666 943/943
l 671/671 672/672
l 674/674 755/755
l 675/675 758/758
l 676/676 759/759
l 676/676 853/853
l 677/677 760/760
l 677/677 855/855
l 678/678 809/809
l 679/679 880/880
l 679/679 914/914
l 680/680 681/681
l 680/680 812/812
l 682/682 774/774
l 682/682 815/815
l 683/683 863/863
l 685/685 816/816
l 689/689 817/817
l 689/689 861/861
l 693/693 694/694
l 694/694 820/820
l 695/695 777/777
l 696/696 869/869
l 696/696 917/917
l 697/697 698/698
l 701/701 702/702
l 703/703 870/870
l 703/703 918/918
l 704/704 871/871
l 704/704 919/919
l 705/705 872/872
l 705/705 920/920
l 706/706 708/708
l 707/707 779/779
l 707/707 825/825
l 708/708 819/819
l 709/709 893/893
l 709/709 922/922
l 710/710 711/711
l 713/713 894/894
l 713/713 923/923
l 714/714 895/895
l 714/714 924/924
l 715/715 896/896
l 715/715 925/925
l 716/716 897/897
l 716/716 926/926
l 717/717 898/898
l 717/717 927/927
l 718/718 874/874
l 718/718 928/928
l 727/727 876/876
l 727/727 929/929
l 728/728 900/900
l 728/728 930/930
l 731/731 748/748
l 732/732 901/901
l 732/732 931/931
l 733/733 902/902
l 733/733 932/932
l 736/736 774/774
l 737/737 738/738
l 740/740 904/904
l 740/740 935/935
l 741/741 905/905
l 741/741 936/936
l 742/742 906/906
l 742/742 937/937
l 744/744 907/907
l 744/744 938/938
l 745/745 908/908
l 745/745 939/939
l 746/746 909/909
l 746/746 940/940
l 747/747 910/910
l 747/747 941/941
l 749/749 877/877
l 749/749 942/942
l 750/750 751/751
l 752/752 753/753
l 756/756 757/757
l 760/760 854/854
l 761/761 911/911
l 761/761 944/944
l 762/762 864/864
l 763/763 945/945
l 763/763 953/953
l 764/764 765/765
l 766/766 857/857
l 767/767 912/912
l 767/767 946/946
l 768/768 769/769
l 770/770 771/771
l 772/772 913/913
l 772/772 947/947
l 773/773 881/881
l 773/773 948/948
l 775/775 883/883
l 775/775 949/949
l 776/776 884/884
l 776/776 950/950
l 777/777 867/867
l 778/778 868/868
l 779/779 869/869
l 780/780 870/870
l 781/781 871/871
l 782/782 872/872
l 783/783 893/893
l 784/784 873/873
l 785/785 894/894
l 786/786 895/895
l 787/787 896/896
l 788/788 897/897
l 789/789 898/898
l 790/790 874/874
l 791/791 899/899
l 792/792 875/875
l 793/793 876/876
l 794/794 900/900
l 795/795 901/901
l 796/796 902/902
l 797/797 903/903
l 798/798 904/904
l 799/799 905/905
l 800/800 906/906
l 801/801 907/907
l 802/802 908/908
l 803/803 909/909
l 804/804 910/910
l 805/805 877/877
l 806/806 878/878
l 807/807 911/911
l 808/808 912/912
l 809/809 913/913
l 810/810 879/879
l 811/811 914/914
l 812/812 880/880
l 815/815 881/881
l 816/816 882/882
l 817/817 883/883
l 818/818 884/884
l 819/819 915/915
l 820/820 916/916
l 821/821 917/917
l 822/822 918/918
l 823/823 919/919
l 824/824 920/920
l 825/825 921/921
l 826/826 922/922
l 827/827 923/923
l 828/828 924/924
l 829/829 925/925
l 830/830 926/926
l 831/831 885/885
l 832/832 927/927
l 833/833 928/928
l 835/835 886/886
l 836/836 929/929
l 837/837 930/930
l 838/838 931/931
l 839/839 932/932
l 840/840 933/933
l 841/841 934/934
l 843/843 935/935
l 844/844 936/936
l 845/845 937/937
l 846/846 938/938
l 847/847 939/939
l 848/848 940/940
l 849/849 941/941
l 850/850 942/942
l 851/851 887/887
l 851/851 943/943
l 852/852 888/888
l 853/853 889/889
l 854/854 890/890
l 855/855 944/944
l 856/856 945/945
l 857/857 946/946
l 858/858 947/947
l 859/859 948/948
l 860/860 949/949
l 861/861 950/950
l 862/862 951/951
l 863/863 952/952
l 864/864 953/953
l 865/865 891/891
l 865/865 954/954
l 866/866 892/892
