v 5.5615801999999999 292.35220340000001 3.941287
v 7.2910551999999997 244.4257202 -53.175212899999998
v 11.031045000000001 246.97119140000001 -50.141666399999998
v 12.5904455 286.04766849999999 -3.5727164999999999
v 12.5904455 268.18667599999998 -24.858217199999999
v 12.5904455 277.11715700000002 -14.2154665
v 12.5904455 259.25616459999998 -35.500965100000002
v 12.5904455 263.72143549999998 -30.179592100000001
v 12.5904455 281.58242799999999 -8.8940915999999994
v 12.5904455 272.65191650000003 -19.5368423
v 12.5904455 254.79092410000001 -40.822341899999998
v 12.5904455 250.32568359999999 -46.143714899999999
v 11.031045000000001 289.4021912 0.42528450000000001
v 9.5192785187499993 245.52036094681947 -51.870689135747952
v 8.5464488312500002 291.08685496875 2.4331608125000002
v 12.5904455 252.55830385000002 -43.483028399999995
v 11.81074525 248.6484375 -48.142690649999999
v 2.4389485500000001 292.54905592616001 3.8408580883854948
v 3.4117782374999992 244.32399617958032 -53.7211315197099
v 11.81074525 287.72492984999997 -1.5737159999999999
v 12.5904455 283.81504825000002 -6.2334040499999999
v 5.3514167187499995 244.37485818979016 -53.448172209854945
v 16.964946699999999 -295.23730469999998 -85.1438141
v 13.163945200000001 -295.23730469999998 -22.137613300000002
v 8.8415756000000005 -295.23730469999998 -18.510810899999999
v 8.8415756000000005 -295.23730469999998 -99.213813799999997
v 15.985145599999999 -295.23730469999998 -27.024116500000002
v 13.163945200000001 -295.23730469999998 -95.587013200000001
v 16.964946699999999 -295.23730469999998 -58.862312299999999
v 16.964946699999999 -295.23730469999998 -72.003067000000001
v 16.964946699999999 -295.23730469999998 -45.721561399999999
v 16.964946699999999 -295.23730469999998 -52.291938799999997
v 16.964946699999999 -295.23730469999998 -39.151187899999996
v 16.964946699999999 -295.23730469999998 -65.432685899999996
v 16.964946699999999 -295.23730469999998 -32.580810499999998
v 15.985145599999999 -295.23730469999998 -90.700515699999997
v 16.964946699999999 -295.23730469999998 -78.573440599999998
v 3.5394551999999999 -295.23730469999998 -101.14371490000001
v 1.7697276 -295.23730469999998 -101.14371490000001
v 16.964946699999999 -295.23730469999998 -35.865999199999997
v 6.1905154000000007 -295.23730469999998 -100.17876434999999
v 16.475046149999997 -295.23730469999998 -29.802463500000002
v 14.5745454 -295.23730469999998 -24.580864900000002
v 4.4207878000000003 -295.23730469999998 -17.5458651
v 11.0027604 -295.23730469999998 -20.3242121
v 12.270845400000001 256.57070920000001 23.5277843
v 1.9916316000000001 262.11468509999997 30.134284999999998
v 7.2910551999999997 213.78369140000001 -27.463714599999999
v 11.031045000000001 216.3291931 -24.430166199999999
v 8.7009506000000005 260.54519649999997 28.2642822
v 12.5904455 219.68368530000001 -20.432212799999999
v 12.5904455 237.544693 0.85353760000000001
v 12.5904455 246.47518919999999 11.496413199999999
v 12.5904446 251.5229645 17.512077300000001
v 12.5904455 242.00993349999999 6.1749754000000001
v 12.5904455 224.1489258 -15.1107759
v 1.9916316000000001 212.97470089999999 -28.4281158
v 12.5904455 233.0794373 -4.4679003000000002
v 12.5904455 228.6141815 -9.7893381000000002
v 10.8852554875 258.77534385625006 26.155139762499999
v 11.81074525 218.00643919999999 -22.431189499999999
v 0.99581579999999981 213.12671839418576 -28.246895064016392
v 4.6413434000000002 213.37919614999998 -27.945915200000002
v 5.2476496500000005 261.60746477166145 29.530008634558815
v 12.5904455 221.91630555 -17.771494349999998
v 9.1610501000000006 215.05644225 -25.946940399999999
v 0.99581580000000003 261.88173697670817 29.856733673529451
v 16.964946699999999 -255.23730470000001 -32.580810499999998
v 3.5394551999999999 -255.23730470000001 -101.14371490000001
v 8.8415756000000005 -255.23730470000001 -18.510810899999999
v 16.964946699999999 -255.23730470000001 -58.862312299999999
v 16.964946699999999 -255.23730470000001 -45.721561399999999
v 16.964946699999999 -255.23730470000001 -72.003067000000001
v 16.964946699999999 -255.23730470000001 -52.291938799999997
v 16.964946699999999 -255.23730470000001 -39.151187899999996
v 13.163945200000001 -255.23730470000001 -95.587013200000001
v 8.8415756000000005 -255.23730470000001 -99.213813799999997
v 15.985145599999999 -255.23730470000001 -90.700515699999997
v 16.964946699999999 -255.23730470000001 -65.432685899999996
v 14.574544899999999 -255.23730470000001 -24.580863999999998
v 16.964946699999999 -255.23730470000001 -78.573440599999998
v 16.964946699999999 -255.23730470000001 -85.1438141
v 14.5745454 -255.23730470000001 -93.143764449999992
v 11.0027604 -255.23730470000001 -97.400413499999999
v 1.7697276 -255.23730469999998 -101.14371490000001
v 6.1905154000000007 -255.23730470000001 -100.17876434999999
v 4.4207878000000003 -255.23730469999998 -17.5458651
v 16.475046149999997 -255.23730470000001 -87.922164899999999
v 2.2103939000000001 -255.23730469999998 -17.063392200000003
v 39.990943899999998 -255.23730470000001 -115.32671360000001
v 46.831344600000001 -256.44342039999998 -115.32671360000001
v 57.311443300000001 -265.23730469999998 -115.32671360000001
v 59.687145200000003 -271.76434330000001 -115.32671360000001
v 59.687145200000003 -278.71026610000001 -115.32671360000001
v 39.990943899999998 -295.23730469999998 -115.32671360000001
v 52.8467445 -259.91641240000001 -115.32671360000001
v 57.311443300000001 -285.23730469999998 -115.32671360000001
v 52.8467445 -290.55819700000001 -115.32671360000001
v 29.990945799999999 -255.23730470000001 -115.32671360000001
v 9.9909449000000006 -255.23730470000001 -115.32671360000001
v 46.831344600000001 -294.03121950000002 -115.32671360000001
v 32.490943899999998 -295.23730469999998 -115.32671360000001
v 24.990945799999999 -295.23730469999998 -115.32671360000001
v 7.4909448999999997 -295.23730469999998 -115.32671360000001
v 14.990944900000001 -295.23730469999998 -115.32671360000001
v 22.490945799999999 -255.23730470000001 -115.32671360000001
v 4.9909452999999999 -255.23730470000001 -115.32671360000001
v 14.990944900000001 -255.23730470000001 -115.32671360000001
v 34.990943899999998 -255.23730470000001 -115.32671360000001
v 19.990945799999999 -295.23730469999998 -115.32671360000001
v 55.079093900000004 -287.89775084999997 -115.32671360000001
v 49.839044549999997 -292.29470824999999 -115.32671360000001
v 37.490943899999998 -255.23730470000001 -115.32671360000001
v 59.687145200000003 -275.23730469999998 -115.32671360000001
v 58.499294250000005 -268.50082399999997 -115.32671360000001
v 43.41114425 -255.84036255000001 -115.32671360000001
v 18.740945350000001 -255.23730470000001 -115.32671360000001
v 26.240945799999999 -255.23730470000001 -115.32671360000001
v 3.7454724499999998 -295.23730469999998 -115.32671360000001
v 7.4909451000000002 -255.23730470000001 -115.32671360000001
v 11.240944900000001 -295.23730469999998 -115.32671360000001
v 22.490945799999999 -295.23730469999998 -115.32671360000001
v 2.49547265 -255.23730470000001 -115.32671360000001
v 17.490945350000001 -295.23730469999998 -115.32671360000001
v 32.490944849999998 -255.23730470000001 -115.32671360000001
v 57.311443300000001 293.99371339999999 21.454292299999999
v 59.687145200000003 283.67266849999999 30.114278800000001
v 57.311443300000001 278.67266849999999 34.310279800000004
v 52.8467445 274.59667969999998 37.7302933
v 39.990943899999998 301.65368649999999 15.0262823
v 39.990943899999998 271.01171879999998 40.738288900000001
v 46.831344600000001 271.9356689 39.9622879
v 59.687145200000003 288.99371339999999 25.6502914
v 52.8467445 298.06970209999997 18.034276999999999
v 46.831344600000001 300.7296753 15.8012915
v 19.990945799999999 301.65368649999999 15.0262823
v 19.990945799999999 271.01171879999998 40.738288900000001
v 9.9909449000000006 271.01171879999998 40.738288900000001
v 24.990945799999999 301.65368649999999 15.0262823
v 12.490944900000001 301.65368649999999 15.0262823
v 27.490945799999999 271.01171879999998 40.738288900000001
v 4.9909452999999999 301.65368649999999 15.0262823
v 14.990944900000001 271.01171879999998 40.738288900000001
v 34.990943899999998 271.01171879999998 40.738288900000001
v 32.490943899999998 301.65368649999999 15.0262823
v 2.4909452999999999 271.01171879999998 40.738288900000001
v 2.49547265 301.65368649999999 15.026282299999998
v 8.7409451000000011 301.65368649999999 15.0262823
v 43.41114425 271.47369385000002 40.350288399999997
v 49.839044549999997 273.26617429999999 38.846290600000003
v 55.079093900000004 296.03170775000001 19.744284649999997
v 6.2409451000000002 271.01171879999998 40.738288900000001
v 37.490943899999998 271.01171879999998 40.738288900000001
v 31.240944849999998 271.01171879999998 40.738288900000001
v 23.740945799999999 271.01171879999998 40.738288900000001
v 17.490945350000001 271.01171879999998 40.738288900000001
v 58.499294250000005 291.49371339999999 23.55229185
v 1.24547265 271.01171879999998 40.738288900000001
v 38.006807558209466 126.77836803205932 -127.0716068862076
v 51.501060766154673 126.80554592271758 -113.59991710643634
v 52.066384729852729 129.41490159662078 -95.629061842385951
v 53.494710809117905 127.33524938395965 -107.79934493579049
v 44.96766578187912 132.05694838198349 -85.293582393401039
v 33.759858632519126 134.21986622577958 -78.264467185477386
v 27.403587228456402 135.03886328376899 -76.004942578278246
v 49.139926301335194 130.71883252840973 -90.203379139937283
v 53.665414701773564 128.2263750723705 -101.69785779774806
v 43.344550710853284 126.61852261379562 -123.24129585469375
v 19.324440600069266 127.57408214093181 -133.87843116981605
v 25.76462867345866 127.31177859191897 -132.28862662189923
v 7.0156620176123052 136.66704560505664 -72.849922198703496
v 12.858918044775997 127.79825145762801 -134.96759133434855
v 47.969798133588135 126.59778460454305 -118.77619670978378
v 20.77176163848916 135.68509074449588 -74.434583638008036
v 39.74209461416109 133.26627720401527 -81.266537087059561
v 13.963727339262338 136.26288179036925 -73.374492873732777
v 32.040497322299828 127.03173625051141 -130.01823489785355
v 1.1102230246251565e-16 136.66921883645551 -73.089199448929634
v -3.3306690738754701e-16 128.11001174799208 -135.98122117711006
v 6.4193338175173267 127.9767183743393 -135.66340690032817
v -2.2204460492503131e-16 -183.68789656434853 14.516392785350389
v 13.968476993788556 -181.71384341905548 15.737622075692288
v 46.746962906951339 -164.41496762835914 42.096897419061882
v 49.421888805089175 -155.45301901410741 59.196921329436876
v 16.448316538486157 -135.9992798359749 98.073100395149908
v 40.569309278058199 -144.01492917804052 81.431460144185877
v 26.560994248226812 -177.94072730856442 20.190607321411999
v 26.600928177941451 -138.01404903680103 93.571427062738735
v 44.234651141243518 -167.32725193688941 36.81041017666503
v 32.011948343842661 -175.53822420057205 23.510057899332537
v 7.0686487089391452 -182.92067837284372 14.748351714510884
v 40.898094296918387 -170.17256717493439 31.895413914134025
v 49.392491419067724 -158.50355095155473 53.29922818105215
v 36.386149685493606 -141.64459933359188 86.118403875911412
v 31.689106055951775 -139.61060542033761 90.22866937444401
v 21.442635441696744 -136.82308867868659 96.176994816681727
v 48.53334108790807 -152.43675491856095 65.056089853935546
v 11.780156398944271 -135.48640152354267 99.309137639406032
v 48.431168943275438 -161.46270848018963 47.635729106394763
v 20.515708680007016 -180.03374011278541 17.568620894298107
v 44.103193911526546 -146.64415164118083 76.298706178627555
v 46.79819967772498 -149.47428505260217 70.802492690739584
v 36.83899308425211 -172.93813455447759 27.411855168960454
v 7.5316831472431289 -135.16753460258576 100.07167349475677
v 3.6598821883405246 -134.94435334061433 100.55143871267188
v 1.665334536937723e-16 -134.79019005103356 100.83535692241249
v 58.34289100980628 208.22676592319107 -60.261160550505835
v 40.832590876311542 -293.70836380593846 97.012722310292887
v 60.604029459503423 -261.33048193339732 91.559652093955947
v 58.545379345041269 -249.21941851494535 88.251151009123163
v 49.685509033331115 89.114658290707013 -82.898753915869577
v 53.408534172598451 154.90153538892747 -93.508656074505609
v 54.832380431291725 169.43986585182745 -87.481304366490249
v 57.149803099632074 190.33337606729199 -74.642187961210112
v 52.066384729852729 129.41490159662078 -95.629061842385951
v 53.535125595249596 -214.10528138605764 76.428417569819089
v 49.198205949686027 -43.141258079566853 -11.636223226896375
v 26.696336587405327 287.82275386568841 26.631957345287379
v 55.794513383409978 176.62249982913778 -83.436305147877135
v 58.964462985729099 230.5634150885536 -38.241177468721972
v 49.35294289447323 -139.39966528776975 45.110235036282255
v 49.19520541201031 -21.028410401126955 -24.573328822298087
v 58.568495452311083 219.26502549120966 -49.701380800158795
v 58.951473359370134 236.50813303123221 -32.209263316653249
v 49.56044292235508 76.563249358225363 -77.259975767890467
v 49.335821217859014 -122.60138972131658 36.205817769807766
v 49.327283692042293 -0.31494145280654606 -35.951956968396999
v 49.405893976692141 -128.0056418218459 39.218338232257771
v 49.471582624826638 39.671849613362696 -57.834799939002998
v 58.536449003875866 255.38541921272702 -13.164333454889324
v 49.223973717077605 -31.718332520428817 -18.420851698601165
v 49.472542572349866 -133.57697465930738 42.199038436216554
v 49.463561012800184 21.991622415401149 -48.003299806573153
v 49.492394640664273 57.617339712752454 -67.734694101732401
v 49.482464206028965 63.822440230953902 -70.978181794659605
v 18.460098222507103 -298.98897090930825 96.827244560637808
v 49.992088943251616 95.108569604356489 -85.364301505009138
v 58.238702143973867 273.24837546032529 4.940752728121657
v 58.184278823912329 277.79621562798343 9.6078330112004409
v 58.329491823216074 213.78710643030479 -55.118071809311303
v 49.522982742355595 51.554630365837482 -64.459658198484732
v 54.181576978115253 162.07179013259793 -90.797257954812238
v 58.794142190014554 248.99241193891618 -19.626296533357188
v 49.929422051722227 -180.4221837715653 62.300022251030299
v 52.969637747569926 -208.42821606108328 74.227736058878605
v 54.173980432064774 -219.82105151182304 78.554981025423132
v 58.259655193369468 264.22843882481459 -4.229482429131032
v 51.001318604920449 106.56409778701594 -89.579751435477789
v 54.966690528011583 -283.6977658204562 96.369558257677312
v 49.466764477193252 33.759544463682431 -54.517674755856618
v 49.523911503859907 45.591210441145151 -61.157145925236932
v 49.275567668985119 -111.96583822279666 30.211699853582772
v 54.619968706113859 -225.58970240884634 80.699563806510383
v 52.505642360935411 135.2240071506709 -96.081772969423881
v 49.295286318390296 -79.376868483291886 10.998990425594396
v 49.327179980122708 -169.39684279173812 57.649626497907022
v 23.891878873526331 -298.17770806901456 96.851472622159392
v 49.340975404036783 -61.43159527329334 -0.4010584108955827
v 49.392491419067724 -158.50355095155473 53.29922818105215
v 52.003221596164337 123.51630266301592 -94.495881976392639
v 58.177925325426529 202.55030160984722 -65.225940538595211
v 49.361081838399684 -67.551221304122691 3.4623727922267626
v 49.313485191737598 -85.026233771589204 14.554900466370441
v 29.536831860315587 -297.09528621359391 96.900656709539362
v 49.343403270571095 16.207212623830529 -44.846587386574186
v 55.26838361209029 -231.41860283064074 82.778675094641557
v 60.869432712210063 -267.51343947649605 93.177435276359219
v 50.906213412618342 -287.77502511987552 96.789562573585982
v 52.983416224451091 147.94939049465896 -95.189921075479702
v 38.678466995081571 288.71733664881521 25.881300237554235
v 49.301021309541014 -15.845634666748026 -27.480267526639189
v 56.478641979624982 183.68395308170295 -79.183090713629412
v 49.392002769127132 -151.92091941602979 50.651201088430156
v 49.252843983287121 -37.326101387164627 -15.11523631354461
v 13.350392633436938 -299.52469753318212 96.81913946940432
v 50.400941941843584 100.90607230274045 -87.595549436069959
v 49.360628177009559 -163.93446195023762 55.446612032999894
v 49.332594948947019 -73.549507369247294 7.2841229529172749
v 44.109034283906269 289.31524250544078 25.379724345884043
v 49.244063106100015 -49.142393868634898 -8.0010903688957029
v 49.22617875876697 -95.942908023680531 21.13854938800942
v 20.252189795037161 287.50680720775046 26.897079536587686
v 49.533607785839557 70.161904167503423 -74.169073764207013
v 57.416658293287959 -243.24245533406298 86.485571443359248
v 32.861183113010171 288.21984967337619 26.29873259165106
v 57.542656135097687 196.66050733348274 -70.041513333351247
v 49.213884493028026 -26.30097884892589 -21.564005665652275
v 49.267653174982399 -101.30671077533005 24.222752964352097
v 49.34708944104657 -10.70172045811254 -30.322053798221731
v 49.569914273209463 82.91468844486873 -80.188079342334817
v 49.362120849468553 -145.52044354047706 47.931232043895633
v 51.077555607713734 -191.55679430213621 67.184666913882012
v 58.705468440366175 224.84379630415816 -44.083554178245279
v 35.244343728271744 -295.66170968319676 96.966141722853507
v 49.45470233288215 -174.89417234423246 59.941487441868759
v 58.378738862001001 259.78884048494632 -8.7114816544184634
v 13.606477317970434 287.24176973209268 27.11947215190925
v 56.185935691325675 -237.31958315395414 84.69614847948742
v 51.827826486956241 117.79188537062336 -93.050559242339233
v 51.496671357173796 112.16619668119161 -91.395459765003608
v 52.763521329645869 141.38007991230319 -95.988045132347281
v 57.861769012186066 282.27494837624545 14.352566452556715
v 58.910400763698888 242.67144736194794 -25.998631057489771
v 51.6167374610026 -197.15776901336557 69.632666064757842
v 49.250560831791105 -55.267148825493251 -4.2410960759882812
v 52.333697424759364 -202.78150074314175 71.962152494005693
v 46.09152230505304 -291.05853487379306 96.964562271567459
v 6.8335886352431476 286.99966184513767 27.322635464039951
v 58.111228354761792 -278.96983696082822 95.651178298597983
v 49.292254578678879 27.855599932236203 -51.235864042873757
v 49.303933175977754 10.543244051551021 -41.7888862645259
v 57.836243150810951 286.83945710451906 19.029474993166225
v 60.01402674922231 -273.71022926409125 94.632436821746353
v 58.190528748932152 268.6938396439628 0.34590225154660093
v 49.299777308616683 -90.530425094506185 17.93086438501664
v 49.317297594148116 -5.5427159105095791 -33.130132210676209
v 49.240135161218404 5.0375153928097607 -38.82440840951547
v 49.328513661931865 -117.27348636420567 33.201301411251762
v 49.350595028777235 -106.64588822504396 27.230568715334297
v 59.744469598184793 -255.23088549013465 89.920059580383707
v 50.537181509304581 -185.97552333756684 64.720874013995399
v 2.2204460492503131e-16 286.76394458126111 27.520432616136972
v 49.1636773265908 289.99570959010015 24.808932784270858
v 8.6154676651138935 -299.85886789903486 96.827484916149245
v -3.6977854932234928e-31 -300.17581346105788 96.879339376806826
v 4.2112923228510333 -300.06593147032294 96.851107498131313
v 58.499294250000005 291.49371339999999 23.55229185
v 53.91609922021884 290.73140581791984 24.191844113545464
v 40.175843206999232 -255.94031829073037 -56.917184212967811
v 16.964946699999999 -295.23730469999998 -58.862312299999999
v 34.124056886968916 -255.44499508603963 -55.934392473145024
v 16.963122673447891 -268.54294832759007 -54.377931272398911
v 53.347590999874043 -288.43094998870333 -61.533803498510956
v 16.963702258002787 -261.88750860012942 -53.33219141588404
v 46.274558277986394 -257.38456569987841 -57.804490660745799
v 43.728006664405342 -293.99835619994406 -61.403715696048735
v 51.899901841646951 -260.49600133260742 -58.625874555076869
v 56.628860184339167 -283.77636735323108 -61.275525825609634
v 58.190762897065035 -278.24482928841053 -60.816349866790731
v 16.964946699999999 -255.23730470000001 -52.291938799999997
v 32.936678521023062 -295.19472101496035 -60.564223424924869
v 16.964487099948876 -288.55642800536037 -57.687308940263947
v 22.56237807646097 -255.24159927737148 -53.598818806461409
v 22.268715340693177 -295.23629606254281 -59.436971291910446
v 16.96416809575193 -275.2066319965482 -55.44237424750311
v 28.258568200343227 -255.26868950218199 -54.828255982012692
v 16.963946574925505 -281.87853424301858 -56.542924983396667
v 56.176660836665519 -265.4443680660462 -59.397057682732921
v 58.374471542792158 -271.65937334338253 -60.133742529695553
v 48.827619328209948 -291.79010164085258 -61.57637919594319
v 38.337653174549956 -294.97698465410377 -61.04947475148137
v 27.586402219031289 -295.23086350942708 -60.01111986136435
v 12.5904455 268.18667599999998 -24.858217199999999
v 12.5904455 237.544693 0.85353760000000001
v 52.449294685738543 242.88048029395213 -1.8568101947453357
v 12.589320370215638 244.85602985388746 -8.546460498968111
v 12.589807288849769 257.99305822203814 -19.567344529869224
v 58.536449003875866 255.38541921272702 -13.164333454889324
v 52.993767609433966 263.28899391388353 -20.821751999710575
v 41.200398963683426 238.85062212779798 1.1898084351176359
v 56.719257179133834 259.71044675780695 -17.304149589023549
v 56.376513987383497 246.54265965406802 -5.0426726705657519
v 42.0026346842238 267.13810303517715 -24.825550395472071
v 47.88709774892979 265.80075979513742 -23.380265195851308
v 35.905859175592397 267.52683159454705 -25.325927001034593
v 58.447753707433399 250.87189878830964 -8.9699736555735292
v 23.560303496394084 237.74072280817018 1.0788838500928417
v 12.59018057496529 263.01136462557048 -22.325958072404596
v 24.018526631736329 267.77198877960211 -25.338486664583389
v 29.258997804286011 237.92824500841903 1.2386763253147932
v 12.590078374206723 241.12042504094165 -3.9591668462207013
v 29.894441206498918 267.64890903525003 -25.428197990751734
v 12.588341405105295 248.87887162259076 -12.727389648498129
v 12.588440955535585 253.2584145692984 -16.401188568857783
v 18.027833670795637 237.62531163465772 0.94876348809095057
v 18.267294829607106 267.95681839190217 -25.13003137044544
v 47.158261032684877 240.28277538530745 0.23095211683037792
v 35.151286520481051 238.253717465546 1.3404241469768081
v 59.048757691122987 -278.72934416155545 29.681698719853706
v 61.321436083203309 -276.07479876446575 76.669224373847698
v 13.228964176460007 -266.18152183737436 134.76801251025154
v 49.02728043924742 -269.58028964363507 116.76757431749667
v 58.254130879103421 -279.39695913005392 1.5390297351407716
v 60.076451813613659 -278.04682658300254 43.677343544245275
v 58.214306588657578 -278.22604044178365 -54.042195754933729
v 58.242516625028983 -278.07905800646211 -78.491196080996701
v 57.967826410811483 -278.47232503696318 -26.368582513103412
v 58.668764013716967 -277.36006332979878 -94.483547158489671
v 14.55001383811782 -272.22609742138047 -115.32671360000003
v 58.727846756259396 -278.30056357252187 -40.257795779619144
v 58.666874872406233 -279.18512695207687 -12.454303267079485
v 58.896144517100467 -276.74606562451959 -101.75517006643747
v 32.783216995268347 -267.75578611784658 128.6522173056037
v 58.33944455577776 -279.30976926613778 -5.4682292871643643
v 58.254395206845999 -278.8488539300867 -19.415030109851131
v 58.178983284932187 -278.22759061705398 -69.807626986807222
v 58.351853799395116 -278.370926588619 -33.318604569998314
v 58.190762897065035 -278.24482928841053 -60.816349866790731
v 58.383387796011419 -277.79987105697717 -86.737120032638558
v 58.418330477379961 -279.39501975345576 8.5570729380533486
v 58.759754199288388 -279.01006709276942 22.632178666951425
v 26.417945751958193 -267.28207316023531 131.31081290375636
v 58.666119947359924 -279.31004003417547 15.586875076736396
v 37.965031089460311 -273.86151970691111 -115.32671360000003
v 44.245169440816234 -268.83081820960564 121.32251003652476
v 59.388320054087288 -278.34961452227208 36.71450028575839
v 60.898928855994313 -277.00335512382105 63.965118752198471
v 56.388231561401781 -271.60500718865558 106.45647607161466
v 61.245570542759431 -276.59110785825703 70.399449061563189
v 61.293016584602768 -275.43866189741362 82.787711089098053
v 60.577185086581764 -277.37799871562072 57.353335623337728
v 43.782415588312631 -274.24260638523344 -115.32671360000003
v 31.961176602057545 -273.46461545374643 -115.32671360000003
v 60.458287735864353 -277.71323180414811 50.574872827584478
v 58.546131705969131 -272.66515790274525 100.63203377982796
v 6.5933821453954558 -265.50933426933557 135.60725851680616
v 25.937818302578911 -273.06029705438402 -115.32671360000001
v 53.23089957612607 -270.53918273356396 111.8989465393195
v 60.875095038954782 -274.64325535754892 88.771631849235405
v 38.754526120794097 -268.23822826287676 125.26488987762446
v 20.083576599247294 -272.64960256524341 -115.32671360000003
v 59.194712295147951 -276.01607752047141 -108.65055734256022
v 60.01402674922231 -273.71022926409125 94.632436821746353
v 19.841619304474335 -266.75861416508042 133.26804371174106
v 58.32619783579041 -278.17976854638289 -47.170235313490188
v 1.3877787807808006e-17 -264.82194319312612 136.33999169889313
v 59.687145200000003 -275.23730469999998 -115.32671360000001
v 49.319858243920478 -274.59844803883334 -115.32671360000003
v 9.4033186933155761 -271.7817754084931 -115.32671360000003
v 4.6007793865923654 -271.31460055496882 -115.32671360000003
v 54.586082599038264 -274.92687749919662 -115.32671360000006
v 4.1633363423440424e-17 -270.83235563967094 -115.32671360000002
v -1.9428902930940239e-16 -293.1213510787727 120.1045475031259
v 4.4408920985006262e-16 -298.40172886926121 107.1598827500671
v 0 -212.1235657 36.695049300000001
v 1.035379938102578e-30 127.33398794884212 -64.420111788503846
v 4.4408920985006262e-16 149.3199448762326 -76.135718753946321
v 0 -295.23730469999998 -115.32671360000001
v 2.7755575615632291e-17 296.53187819759648 19.324026941145476
v 2.7755575615627425e-17 -286.73985411170133 -17.004254856613553
v 0 -81.227424600000006 69.838638300000014
v 0 -135.47099299999999 -13.2830315
v -2.2204460492503131e-16 -183.68789656434853 14.516392785350389
v 2.2204460492502894e-16 -137.93559296154029 102.65026934944167
v -5.5511151231256989e-17 117.01823708450974 -48.404649076141311
v 2.2204460492503131e-16 -299.53522469067394 42.757557980032416
v -1.9428902930940239e-16 -203.62719270442571 28.99877789430246
v -1.1102230246251551e-16 -296.73006340982965 18.231674132654085
v 4.4408920985006262e-16 201.19923484391649 -42.458195868421136
v 0 69.482818600000002 -17.2425137
v 0 -260.6600724366358 -17.506379163707741
v 2.2204460492503131e-16 188.09868526575502 -55.542026460020907
v -1.6653345369377351e-16 -237.50084259510746 55.115274025097705
v 2.7755575615628618e-17 -160.84825980983442 1.310280212473335
v 2.2204460492503131e-16 -199.85289577913994 25.384875496865639
v 0 -255.23730470000001 -115.32671360000001
v 5.5511151231257654e-17 108.19350832966872 -39.44115884854979
v 0 102.31163907280845 -36.024062511783804
v 0 -255.23457313872137 1.1803127881683062
v 0 -279.76152293359189 -17.344046307677296
v 2.2204460492503131e-16 -255.22736245267367 6.2046623053989203
v 3.3306690738754785e-16 51.644171866949193 -121.21711262308739
v -2.7755575615628918e-16 233.27774196703399 -66.449125263854512
v 0 -251.77031226534041 136.4247838914342
v 0 -255.23730469999998 -16.580919300000001
v -1.9428902930940249e-16 -189.29986801167593 17.608004875262797
v -2.2204460492503131e-16 122.64929379657588 -136.38770952336012
v 0 -188.7052612 122.1796646
v 4.4408920985006262e-16 -24.742221395003767 37.263897459550407
v 1.6653345369377323e-16 -301.47777443344182 82.21251488403739
v -2.2204460492503205e-16 -299.81281906617698 99.592662463379042
v -2.2204460492503131e-16 -222.99390530492616 131.69121499778655
v 2.7755575615615571e-17 188.58689046657889 -109.97571334464077
v 6.9388939039038333e-18 108.08533120193893 -135.69912524147662
v 2.4980018054066027e-16 143.41066890591802 -75.710391954872961
v 0 -295.23730469999998 -101.14371490000001
v -4.4408920985006262e-16 243.92074565088828 -53.777172628032787
v 4.4408920985006262e-16 -300.84479837496099 62.978561497279188
v -1.1102230246251565e-16 -300.53453240120734 57.395209245081325
v -2.7755575615629111e-17 -298.82032010332267 35.975297593883489
v -1.1102230246251434e-16 -218.0907638854078 130.56312392053403
v 5.551115123125832e-17 -236.49304992585999 134.54140527371294
v -4.1633363423443598e-17 -245.50227268226683 135.98157322298954
v -1.1102230246251721e-16 -253.70484230224076 40.545923453592252
v 0 -295.23730469999998 -16.580919300000001
v 0 -295.23730469999998 -110.2254616139586
v -3.3306690738754923e-16 193.59043433195654 -105.87410442087767
v 1.1102230246251666e-16 172.76031703715762 -121.22362338454376
v 2.2186712959340957e-31 116.92438628382696 -136.20017524831195
v 1.9428902930940151e-16 103.02804506722127 -135.33192835760229
v 1.1102230246251679e-16 134.23107083678644 -135.42463639349904
v -2.2204460492502973e-16 74.377596061424896 -130.31956218096499
v -1.1102230246251627e-16 67.441981377187261 -128.71186435216035
v 2.2204460492503131e-16 204.52075789689934 -38.502640886778032
v 2.2204460492503089e-16 197.89988816995333 -46.353279764579078
v 8.8817841970012523e-16 113.47836646386003 -42.99610218043648
v -1.1102230246251565e-16 123.19000974823561 -58.465706296101402
v -1.1102230246251417e-16 182.76629239500045 -59.556473930260019
v 2.7755575615630047e-17 -278.88269187319463 -100.73792904037958
v -5.5511151231254376e-17 231.26388641031934 -43.093884250445974
v 2.2204460492503131e-16 301.65368649999999 15.026282299999998
v -2.7755575615669632e-17 264.33976786987182 32.78633347149637
v 1.3877787807814725e-16 -267.01572546367436 -17.278240009119436
v 1.1102230246251393e-16 -262.38657223316818 -100.25936809700143
v -4.4408920985006262e-16 213.27873588837153 -28.065674328032785
v -1.1102230246251565e-16 224.83451600705706 -37.89674453771498
v -5.5511151231253094e-17 266.23472066661964 25.767545020675691
v 0 261.64878885341636 29.579182347058904
v -2.775557561563014e-17 193.20378830708393 -51.299462864729399
v -6.1629758220391547e-32 277.3925424808142 16.159500018494384
v -3.3306690738754701e-16 282.8652281045687 11.376242173023769
v -4.4408920985006262e-16 -280.01031479914269 -115.32671360000002
v 1.1102230246251205e-16 -273.88883808310391 -115.32671360000002
v -2.2204460492503131e-16 -113.13025353483731 -26.130827301992884
v 0 290.84138336816835 24.099007824675827
v -2.7755575615628815e-17 -48.029708822479797 50.652335639091532
v -2.2204460492503131e-16 -153.84180191079645 -2.6827503646886259
v 5.5511151231257482e-17 -177.21209265883419 10.660167511710002
v 8.8746851837363828e-31 -98.952919452295376 -34.312397172205976
v 4.4408920985006262e-16 -103.98035173674219 -31.298612595551454
v -6.6613381477509392e-16 14.610664454768276 -99.879294873572462
v -8.3266726846886642e-17 21.07571216845642 -103.74028761355689
v 2.2204460492503131e-16 -61.017766054502509 -56.179940323795456
v -6.9388939039061452e-18 -55.421027311997051 -59.524173308598627
v 1.1102230246251519e-16 -40.560906955397087 -68.137514862215511
v 4.4408920985006262e-16 -44.617285576974915 -65.690293423577828
v -2.2204460492503141e-16 -171.57678504185878 7.4365340692230664
v -2.220446049250322e-16 -14.700819493625001 31.470908058680891
v -2.2204460492503155e-16 10.794785451447568 16.844674882900954
v -2.7755575615629012e-16 154.94419783919506 -130.23853854429078
v 0 148.12220602070093 -132.62773098793298
v -4.4408920985006262e-16 160.64070064834112 -127.74329800964833
v -2.220446049250319e-16 -68.006251503570212 62.31851453573185
v 0 -119.38459944110134 91.878925108784898
v 1.6653345369377363e-16 -32.045380847779775 41.466452733975771
v 9.3677232494995152e-31 -125.50858872998518 95.404613212187314
v -2.7755575615628914e-16 23.406803774645621 9.5374953180546758
v 2.2204460492503131e-16 41.350911862940862 -0.93581694510508928
v 3.3306690738754701e-16 37.270131827836828 1.4742571389381052
v 0 -8.9649930030427818 28.057620073222495
v -3.3306690738754696e-16 52.137918063573231 -7.2429441401242256
v -1.1102230246251565e-16 61.714058088933896 -12.806304343064761
v 2.2204460492503131e-16 268.43285924087485 37.664655594026371
v -2.2204460492503131e-16 271.01171879999998 40.738288900000001
v 1.3877787807808006e-17 -264.82194319312612 136.33999169889313
v -6.6613381477509392e-16 -167.01500315511811 4.8913583093695809
v 8.3266726846887369e-17 -39.937214597878238 45.956210833841162
v 1.1102230246251565e-16 -129.47241221389507 -16.859421844140808
v 2.2204460492503131e-16 -87.277523827928732 73.333302633274741
v 0 -256.86701955673448 136.54447867271608
v 5.5511151231257827e-17 -145.07896055675639 106.60867985125302
v 3.3306690738754731e-16 58.586205541949639 -125.16549833762073
v 1.1102230246251565e-16 -117.81492806012707 -23.455623446025349
v -5.5511151231257901e-17 -297.76868311291946 27.02049204897472
v 2.2204460492503141e-16 -2.5059879909321454 24.31668279431392
v 0 -75.080516343546833 66.293766570385529
v 1.6653345369377452e-16 -111.04062263293557 87.118833490748472
v -6.6613381477509402e-16 -106.31522592941899 84.344049615506108
v 1.8735013540549517e-16 46.394052861814131 -3.8734125649942324
v 0 -166.8831172131552 114.4627942272582
v -4.4408920985006262e-16 119.64704456106227 -52.849462994601559
v 1.6653345369377143e-16 8.7944790074653749 -96.685334530178039
v 8.3266726846886556e-17 159.37876611906165 -73.519323625481064
v -1.6653345369377508e-16 154.55040796557898 -75.274187962424676
v 1.3877787807814292e-16 -232.00375289744932 52.252224809004773
v 2.2898349882893785e-16 -23.87278623527774 -77.605940547965304
v -1.6653345369377392e-16 76.619861136187822 -21.402284144149711
v 1.1102230246251565e-16 136.66921883645551 -73.089199448929634
v 1.1102230246251565e-16 131.65072296155896 -69.180387901320586
v 3.4694469519535772e-17 -98.953517439378658 80.245692990023159
v -2.4980018054065884e-16 -300.10793208782775 49.77910982700736
v -2.2204460492503131e-16 -194.43322492921041 123.92082631300319
v -2.7117093616972281e-30 -199.51310731130766 125.5321998013172
v 3.8857805861880563e-16 17.255920476668464 13.09168972542075
v -1.1102230246251538e-16 -49.04976468880637 -63.199565881494344
v -1.1102230246251595e-16 -295.23763377383403 -11.118456356501692
v -3.3306690738754701e-16 -196.1525161625714 22.407680549620444
v -1.1102230246251544e-16 -72.705022919357447 -49.577713909168764
v 1.9721522630525295e-31 -59.519398712000289 57.351298121050682
v 0 -54.189898945844739 54.185403915694167
v -8.3266726846886642e-17 43.901654483401906 -116.7949687603403
v 0 -123.67132528219568 -20.16045492227807
v 1.3877787807814575e-16 166.962464137052 -124.62169301000509
v -9.0205620750793833e-17 28.926991458117989 6.3645592590536992
v -2.2204460492503131e-16 282.11877070815331 31.418237200400373
v 5.5511151231257827e-17 -295.24280143029154 -3.7236389019587834
v 5.5511151231257205e-17 -67.129720106056794 -52.753904028150707
v -4.1633363423442631e-17 213.89818151226052 -87.243400298393141
v 8.3266726846887455e-17 209.25729105004552 -32.85831048679654
v 1.3877787807814543e-17 237.36813959330721 -47.998767228304168
v 1.9428902930939811e-16 217.63462866645699 -83.58353296431649
v 1.9228484564762163e-30 -296.10109652972676 114.11288195047517
v 2.2204460492503131e-16 -207.249718852667 32.412154723932204
v -1.9428902930940254e-16 276.57867864229149 36.066998295041202
v -2.7755575615628958e-16 89.155176176937601 -28.656104629280446
v -5.5511151231257753e-17 -141.78514427971874 -9.6313232701366829
v -2.2204460492503131e-16 -205.61702256925344 127.25786148173896
v -8.3266726846886469e-17 141.22808746661687 -134.46425945958987
v -5.5511151231257852e-17 1.3712768582660575 -92.13235946112745
v -2.2204460492503131e-16 -13.279890336423428 -83.772448530554925
v 0 -18.515936803369868 -80.676567346093009
v 1.1102230246251755e-16 -280.08011854018253 132.0415546815251
v -2.2204460492503131e-16 -226.19591788371537 48.532935983472107
v 1.1102230246251516e-16 -301.26525551917621 70.410575283641847
v -2.775557561562879e-16 -287.19029168002908 -115.32671360000002
v 4.5102810375398149e-17 -153.51604316353354 110.14795469182488
v 2.2204460492503131e-16 -254.51489384930255 33.531816292035288
v -2.7755575615631169e-17 -267.77587319623797 -115.32671360000002
v -5.0306980803326136e-17 227.1067206443598 -73.644168134427019
v 8.3266726846886728e-17 -255.23720735734366 -6.330765202867445
v 0 -216.8993146297984 40.891365147230417
v -5.5511151231252354e-17 222.49413946173581 -78.632486127563055
v -1.2695730193400631e-30 -249.14171239888719 52.872966943103314
v 0 -252.33203150343897 47.150925564291498
v 2.2204460492503131e-16 271.20221907595197 20.850506690473427
v -2.2204460492503131e-16 -274.57576246044488 -17.381836474094825
v 2.2204460492503131e-16 286.76394458126111 27.520432616136972
v -5.5511151231258246e-17 216.55261089696972 -30.392928462705996
v 2.7755575615628963e-17 -288.98771245248645 -100.7116070686413
v 2.2204460492503131e-16 -283.86529837630303 -100.44327978428112
v -1.1102230246251565e-16 96.346374385030558 -32.64534846353709
v 2.2204460492503131e-16 292.35220340000001 3.941287
v 2.2204460492503131e-16 286.58123635727554 7.7853244376558823
v -2.7755575615628914e-16 -295.88549841597887 10.512721084272323
v 2.0816681711721784e-16 -229.00245577256712 133.19081412909028
v 1.1102230246251565e-16 -269.93906164316417 -100.31656728707762
v -1.1102230246251565e-16 206.99211755886054 -93.830862234603941
v -2.7755575615628914e-17 -222.02867808724517 45.18014423925289
v 1.1102230246251464e-16 82.992622650738554 -25.070294035120089
v 2.2204460492503131e-16 -272.99493313721723 134.7141846393676
v 4.4408920985006262e-16 -29.708922613536373 -74.223670909111007
v -2.2204460492502529e-16 -161.6576709710958 112.76745434692779
v 0 -148.643697434823 -5.6926124536456824
v 4.4408920985006262e-16 -301.54953745569935 76.350115783806132
v 3.3526588471892609e-30 297.7239140056023 10.342979734008306
v 5.5511151231257827e-16 176.65248885368257 -63.9333023412307
v -2.2204460492503131e-16 221.78726494230852 -34.241898304281847
v -1.110223024625158e-16 -255.20830755006557 13.438797686745456
v -1.1102230246251304e-16 88.65202028878366 -133.05709819058066
v 5.5511151231258345e-17 -83.878725848803413 -43.095335810057051
v 1.1102230246251565e-16 -131.64478714052683 99.020444495383302
v 2.2204460492503131e-16 -108.32064238576834 -28.824556883325634
v 5.5511151231259873e-17 -212.42895094385077 129.21573338993591
v 6.9388939039071803e-17 -301.15851984077068 87.739041086924331
v 2.2204460492503131e-16 -300.53880785593878 94.166016290234538
v -5.5511151231257198e-17 168.42285806029022 -69.081586131806262
v -2.2204460492503131e-16 31.462321700490268 -109.64059590075308
v -3.4694469519536974e-17 36.438646887827296 -112.57689928453068
v 2.2204460492503131e-16 176.84101751758502 -118.59157707578549
v 0 -254.8417146776298 28.805852987897733
v 3.3306690738754686e-16 4.1566257418737393 20.568975628671271
v 5.5511151231257938e-17 -35.826567516241042 -70.898893331391434
v 2.2204460492503131e-16 -260.74692227105356 -115.32671360000002
v -1.0600318413907346e-30 81.419711170104847 -131.78169629523816
v 2.2204460492503131e-16 -78.872053074278256 -46.047762238838814
v 1.1102230246251538e-16 199.75811917818476 -100.39468209095902
v -5.5511151231257827e-17 -92.57676393711543 -38.044053275645346
v 2.2204460492503491e-16 -244.30749690002841 56.262041588207659
v 0 -255.23730470000001 -110.29165880684312
v -3.3306690738754701e-16 128.11001174799208 -135.98122117711006
v 1.6653345369377294e-16 95.957583918627677 -134.20680555623642
v 2.2204460492503131e-16 -285.84127258099147 128.29511430942176
v 2.2204460492503131e-16 -289.89549463804212 124.29088172980875
v 0 -255.23730469999998 -101.14371490000001
v -2.2204460492503077e-16 -255.11485661209213 22.265632845358816
v -1.6653345369377516e-16 -93.671284255637048 77.183520898948416
v 0 -5.9713223365851533 -87.914469625498114
v -2.7755575615628815e-16 182.10554659963378 -114.93741307043152
v -8.3266726846884966e-17 240.55798517611041 -57.784630845569211
v -2.7755575615630325e-17 -173.71676304469258 116.96504779582123
v 5.5511151231257975e-17 -18.809323671471063 33.837688951965873
v 2.7755575615628778e-17 -180.64690839991655 119.38390513911435
v -1.1102230246251565e-16 27.006352540110719 -107.13802511960412
v 0 -255.23734800469344 -11.43483628518284
v 2.2204460492503131e-16 57.068935275223922 -10.14891273366619
v -1.8041124150158708e-16 236.91786357157218 -62.116878054711862
v 0 -295.30801389999999 3.4561996000000006
v 1.3877787807813713e-17 -290.98857940585066 -16.792587078306777
v 1.3877787807814481e-17 -292.11250857624321 -100.92766098432065
v 1.7697276 -295.23730469999998 -101.14371490000001
v -2.6367796834847379e-16 242.23936541349934 -55.780901736800999
v 1.1102230246251565e-16 -255.23096779569755 3.6924875467836138
v 0 -295.23730469999998 -112.7760876069793
v 6.9388939039073627e-17 -263.83789895015508 -17.392309586413589
v 2.49547265 301.65368649999999 15.026282299999998
v 1.2490009027033179e-16 299.09278234879821 17.175154620572737
v 1.7697276 -255.23730469999998 -101.14371490000001
v 5.5511151231256964e-17 -258.81193846658408 -100.70154149850072
v -2.4980018054066042e-16 214.91567339267061 -29.22930139536939
v 0.99581579999999981 213.12671839418576 -28.246895064016392
v 1.0755285551056258e-16 -58.219396683249769 -57.852056816197042
v 2.7755575615628914e-16 39.310521845388841 0.26922009691650794
v 9.7144514654680835e-17 266.38631355537336 35.225494532761374
v -5.5511151231257827e-17 -115.47259079748218 -24.793225374009118
v -2.6367796834847473e-16 -192.72619208712371 20.007842712441622
v -2.7755575615628914e-16 121.41852715464894 -55.657584645351477
v 5.5511151231257938e-17 -75.788537996817851 -47.812738074003789
v 2.2204460492503229e-16 -297.25141269949398 110.63638235027113
v -1.8041124150158759e-16 211.26801346920854 -30.461992407414662
v -2.1510571102112403e-16 240.64444262209776 -50.887969928168474
v 8.3266726846889107e-17 268.71846987128583 23.309025855574561
v 1.3877787807814378e-16 151.9351764209058 -75.704953358185492
v 4.4207878000000003 -295.23730469999998 -17.5458651
v 4.1633363423443364e-17 -255.23589024803252 -2.5752262073495693
v -8.3266726846886962e-17 73.051339868093919 -19.322398922074854
v -4.1633363423443235e-17 144.6751467436589 -133.54599522376142
v -2.7755575615628877e-17 -145.21442085727085 -7.6619678618911831
v 1.2490009027033051e-16 -35.991297722829003 43.711331783908463
v 2.4389485500000001 292.54905592616001 3.8408580883854948
v 2.2204460492503131e-16 289.46671987863778 5.8633057188279416
v -1.3877787807814457e-17 -219.4639963585218 43.035754693241657
v 3.4117782374999992 244.32399617958032 -53.7211315197099
v -1.110223024625161e-16 -11.832906248333892 29.7642640659517
v -1.3877787807814457e-16 -295.59675615798943 6.9844603421361615
v -5.5511151231257852e-17 284.72323223092212 9.5807833053398248
v -2.7755575615628877e-17 -138.62806863985935 -11.457177385068341
v 3.7454724499999998 -295.23730469999998 -115.32671360000001
v 1.1102230246251565e-16 -257.99211348552677 -115.32671360000001
v 6.9388939039073609e-18 -240.9976613040634 135.26148924835124
v 1.1102230246251563e-16 274.29738077838306 18.505003354483904
v -2.0816681711721799e-17 -248.63629247380359 136.20317855721186
v 1.1102230246251565e-16 -254.67830426346615 31.168834639966512
v 2.49547265 -255.23730470000001 -115.32671360000001
v -8.3266726846887492e-17 86.073899413838078 -26.863199332200267
v 0 -295.23730469999998 -105.68458825697931
v -8.3266726846885717e-17 -209.02298675655209 128.23679743583742
v 2.2551405187700692e-17 -240.94559938499287 56.079415547977511
v -3.6977854932234928e-31 -300.17581346105788 96.879339376806826
v 0 -255.23730470000001 -112.80918620342156
v -1.6653345369377535e-16 -276.94957644112333 -115.32671360000002
v 0 -255.23730469999998 -105.71768685342155
v 1.3877787807814427e-16 -64.073743080279655 -54.466922175973096
v 1.1449174941446892e-16 -21.194361519323806 -79.141253947029156
v 9.7144514654700063e-17 -264.26139773364577 -115.32671360000002
v -5.5511151231257827e-17 -198.00270597085566 23.896278023243042
v -7.7345346566591392e-31 -177.18183572230458 118.1744764674678
v 0 -255.23732635234671 -14.007877792591421
v 5.5511151231257827e-17 59.391496682078909 -11.477608538365477
v 1.1102230246251528e-16 -299.1072739677191 103.37627260672306
v 1.5265566588595937e-16 206.88902447347243 -35.68047568678729
v -5.5511151231257322e-17 125.26199884853888 -61.442909042302638
v 1.1102230246251733e-16 299.68880025280112 12.684631017004152
v -4.1633363423442027e-17 -270.79574396205965 -17.330038241607131
v 0.99581580000000003 261.88173697670817 29.856733673529451
v -2.7755575615626547e-17 263.941754760018 27.673363683867297
v 1.3877787807816145e-17 293.68663078288239 21.711517382910653
v 2.7755575615628889e-16 -42.589096266186004 -66.913904142896683
v -8.3266726846887123e-17 -16.755071582548034 32.654298505323382
v -1.3877787807814506e-16 151.53320192994801 -131.43313476611189
v -3.6082248300317637e-16 157.79244924376809 -128.99091827696955
v -5.5511151231257827e-17 65.598438344466956 -15.024409021532382
v 1.24547265 271.01171879999998 40.738288900000001
v 0 269.72228902043742 39.201472247013186
v -4.4408920985006262e-16 -169.29589409848842 6.1639461892963254
v 1.665334536937723e-16 -134.79019005103356 100.83535692241249
v 1.3530843112619226e-16 -246.95062559948084 54.996804824525611
v 9.8607613152626476e-32 -56.854648828922514 55.768351018372435
v 7.6327832942977737e-17 215.76640508935873 -85.413466631354822
v -9.7144514654700236e-17 -294.61122380424973 117.10871472680054
v 1.1102230246251565e-16 -209.68664227633349 34.553602011966106
v -2.0816681711721697e-16 279.3487246752224 33.742617747720786
v -1.1102230246251701e-16 -202.56506494028059 126.39503064152807
v -1.1102230246251565e-16 -15.897913569896645 -82.224507938323967
v 1.249000902703312e-16 169.86139058710481 -122.92265819727442
v 0 284.44135764470718 29.469334908268671
v 6.9388939039072875e-17 220.0643840640964 -81.10800954593978
v 5.551115123125705e-17 -254.1098680757716 37.03886987281377
v 2.0469737016526324e-16 43.872482362377497 -2.4046147550496606
v 1.2490009027033014e-16 -286.42650541439474 -100.5774434264612
v 1.3877787807814457e-17 -205.43845577854637 30.705466309117334
v -1.5265566588595843e-16 163.80158239269656 -126.18249550982671
v -1.3877787807834816e-17 262.99427836164409 31.182757909277637
v -1.9428902930940269e-16 92.750775280984072 -30.650726546408773
v -3.1918911957973265e-16 -163.93163148247626 3.1008192609214582
v -1.3877787807814476e-16 219.16993791963912 -32.317413383493921
v -2.0816681711721693e-16 273.79519872114577 38.402643597520601
v 5.5511151231258295e-17 -128.57668793525602 97.212528853785329
v -5.5511151231257975e-17 -295.23746923691704 -13.849687828250847
v 1.6653345369377397e-16 174.8006672773713 -119.90760023016463
v 1.1102230246251733e-16 295.03805870280115 7.1421333670041527
v 5.5511151231257827e-17 -120.74312667116138 -21.80803918415171
v 8.3266726846886568e-17 -38.193737235819064 -69.518204096803473
v -1.6653345369377348e-16 223.31089047468279 -36.069321420998413
v -1.9428902930940232e-16 -296.30778091290426 14.372197608463203
v 1.3877787807814481e-16 -81.375389461540834 -44.571549024447933
v -4.163336342344427e-17 156.96458704232032 -74.396755793952877
v 4.1633363423440424e-17 -270.83235563967094 -115.32671360000002
v -2.7755575615629641e-17 79.806241893463181 -23.236289089634901
v -1.2490009027033011e-16 -224.11229798548024 46.856540111362492
v -1.3877787807815162e-17 -170.29994012892388 115.71392101153972
v 3.0531133177191815e-16 -28.393801121391768 39.365175096763089
v 4.1633363423443364e-17 -255.23727768101855 -8.8828007440251433
v 0 -257.94868856831789 -17.04364923185387
v -1.3877787807814395e-16 -291.21379819001453 -115.32671360000002
v -1.1102230246251583e-16 -63.762825107785247 59.834906328391284
v 1.249000902703306e-16 47.772913175175546 -119.00604069171382
v -2.7755575615629061e-17 -295.24021760206278 -7.4210476292302374
v 1.6653345369377432e-16 293.69513105140061 5.5417101835020759
v 2.2103939000000001 -255.23730469999998 -17.063392200000003
v -8.3266726846886691e-17 -297.24937326137456 22.626083090814401
v 1.7347234759768155e-16 300.37323442439913 16.100718460286366
v 2.7755575615628482e-17 -257.02462158329206 -100.92262819925037
v -3.1225022567582508e-16 212.27337467879005 -29.263833367723723
v 0 -295.23730469999998 -103.41415157848965
v 0 -255.23730470000001 -114.06794990171079
v -1.3877787807813273e-17 262.79527180671721 28.626273015463099
v -1.1102230246251565e-16 270.36700391021873 39.969880573506593
v -6.9388939039174081e-18 262.32153360753023 30.380970128168272
v -2.1510571102112413e-16 272.4034587605729 39.570466248760297
v 6.9388939039072407e-18 -293.67490663812157 -101.03568794216034
v -3.4694469519536152e-16 214.09720464052106 -28.647487861701087
v -5.5615801999999999 292.35220340000001 3.941287
v -7.2910551999999997 244.4257202 -53.175212899999998
v -11.031045000000001 246.97119140000001 -50.141666399999998
v -12.5904455 286.04766849999999 -3.5727164999999999
v -12.5904455 268.18667599999998 -24.858217199999999
v -12.5904455 277.11715700000002 -14.2154665
v -12.5904455 259.25616459999998 -35.500965100000002
v -12.5904455 263.72143549999998 -30.179592100000001
v -12.5904455 281.58242799999999 -8.8940915999999994
v -12.5904455 272.65191650000003 -19.5368423
v -12.5904455 254.79092410000001 -40.822341899999998
v -12.5904455 250.32568359999999 -46.143714899999999
v -11.031045000000001 289.4021912 0.42528450000000001
v -9.5192785187499993 245.52036094681947 -51.870689135747952
v -8.5464488312500002 291.08685496875 2.4331608125000002
v -12.5904455 252.55830385000002 -43.483028399999995
v -11.81074525 248.6484375 -48.142690649999999
v -2.4389485500000001 292.54905592616001 3.8408580883854948
v -3.4117782374999992 244.32399617958032 -53.7211315197099
v -11.81074525 287.72492984999997 -1.5737159999999999
v -12.5904455 283.81504825000002 -6.2334040499999999
v -5.3514167187499995 244.37485818979016 -53.448172209854945
v -16.964946699999999 -295.23730469999998 -85.1438141
v -13.163945200000001 -295.23730469999998 -22.137613300000002
v -8.8415756000000005 -295.23730469999998 -18.510810899999999
v -8.8415756000000005 -295.23730469999998 -99.213813799999997
v -15.985145599999999 -295.23730469999998 -27.024116500000002
v -13.163945200000001 -295.23730469999998 -95.587013200000001
v -16.964946699999999 -295.23730469999998 -58.862312299999999
v -16.964946699999999 -295.23730469999998 -72.003067000000001
v -16.964946699999999 -295.23730469999998 -45.721561399999999
v -16.964946699999999 -295.23730469999998 -52.291938799999997
v -16.964946699999999 -295.23730469999998 -39.151187899999996
v -16.964946699999999 -295.23730469999998 -65.432685899999996
v -16.964946699999999 -295.23730469999998 -32.580810499999998
v -15.985145599999999 -295.23730469999998 -90.700515699999997
v -16.964946699999999 -295.23730469999998 -78.573440599999998
v -3.5394551999999999 -295.23730469999998 -101.14371490000001
v -1.7697276 -295.23730469999998 -101.14371490000001
v -16.964946699999999 -295.23730469999998 -35.865999199999997
v -6.1905154000000007 -295.23730469999998 -100.17876434999999
v -16.475046149999997 -295.23730469999998 -29.802463500000002
v -14.5745454 -295.23730469999998 -24.580864900000002
v -4.4207878000000003 -295.23730469999998 -17.5458651
v -11.0027604 -295.23730469999998 -20.3242121
v -12.270845400000001 256.57070920000001 23.5277843
v -1.9916316000000001 262.11468509999997 30.134284999999998
v -7.2910551999999997 213.78369140000001 -27.463714599999999
v -11.031045000000001 216.3291931 -24.430166199999999
v -8.7009506000000005 260.54519649999997 28.2642822
v -12.5904455 219.68368530000001 -20.432212799999999
v -12.5904455 237.544693 0.85353760000000001
v -12.5904455 246.47518919999999 11.496413199999999
v -12.5904446 251.5229645 17.512077300000001
v -12.5904455 242.00993349999999 6.1749754000000001
v -12.5904455 224.1489258 -15.1107759
v -1.9916316000000001 212.97470089999999 -28.4281158
v -12.5904455 233.0794373 -4.4679003000000002
v -12.5904455 228.6141815 -9.7893381000000002
v -10.8852554875 258.77534385625006 26.155139762499999
v -11.81074525 218.00643919999999 -22.431189499999999
v -0.99581579999999981 213.12671839418576 -28.246895064016392
v -4.6413434000000002 213.37919614999998 -27.945915200000002
v -5.2476496500000005 261.60746477166145 29.530008634558815
v -12.5904455 221.91630555 -17.771494349999998
v -9.1610501000000006 215.05644225 -25.946940399999999
v -0.99581580000000003 261.88173697670817 29.856733673529451
v -16.964946699999999 -255.23730470000001 -32.580810499999998
v -3.5394551999999999 -255.23730470000001 -101.14371490000001
v -8.8415756000000005 -255.23730470000001 -18.510810899999999
v -16.964946699999999 -255.23730470000001 -58.862312299999999
v -16.964946699999999 -255.23730470000001 -45.721561399999999
v -16.964946699999999 -255.23730470000001 -72.003067000000001
v -16.964946699999999 -255.23730470000001 -52.291938799999997
v -16.964946699999999 -255.23730470000001 -39.151187899999996
v -13.163945200000001 -255.23730470000001 -95.587013200000001
v -8.8415756000000005 -255.23730470000001 -99.213813799999997
v -15.985145599999999 -255.23730470000001 -90.700515699999997
v -16.964946699999999 -255.23730470000001 -65.432685899999996
v -14.574544899999999 -255.23730470000001 -24.580863999999998
v -16.964946699999999 -255.23730470000001 -78.573440599999998
v -16.964946699999999 -255.23730470000001 -85.1438141
v -14.5745454 -255.23730470000001 -93.143764449999992
v -11.0027604 -255.23730470000001 -97.400413499999999
v -1.7697276 -255.23730469999998 -101.14371490000001
v -6.1905154000000007 -255.23730470000001 -100.17876434999999
v -4.4207878000000003 -255.23730469999998 -17.5458651
v -16.475046149999997 -255.23730470000001 -87.922164899999999
v -2.2103939000000001 -255.23730469999998 -17.063392200000003
v -39.990943899999998 -255.23730470000001 -115.32671360000001
v -46.831344600000001 -256.44342039999998 -115.32671360000001
v -57.311443300000001 -265.23730469999998 -115.32671360000001
v -59.687145200000003 -271.76434330000001 -115.32671360000001
v -59.687145200000003 -278.71026610000001 -115.32671360000001
v -39.990943899999998 -295.23730469999998 -115.32671360000001
v -52.8467445 -259.91641240000001 -115.32671360000001
v -57.311443300000001 -285.23730469999998 -115.32671360000001
v -52.8467445 -290.55819700000001 -115.32671360000001
v -29.990945799999999 -255.23730470000001 -115.32671360000001
v -9.9909449000000006 -255.23730470000001 -115.32671360000001
v -46.831344600000001 -294.03121950000002 -115.32671360000001
v -32.490943899999998 -295.23730469999998 -115.32671360000001
v -24.990945799999999 -295.23730469999998 -115.32671360000001
v -7.4909448999999997 -295.23730469999998 -115.32671360000001
v -14.990944900000001 -295.23730469999998 -115.32671360000001
v -22.490945799999999 -255.23730470000001 -115.32671360000001
v -4.9909452999999999 -255.23730470000001 -115.32671360000001
v -14.990944900000001 -255.23730470000001 -115.32671360000001
v -34.990943899999998 -255.23730470000001 -115.32671360000001
v -19.990945799999999 -295.23730469999998 -115.32671360000001
v -55.079093900000004 -287.89775084999997 -115.32671360000001
v -49.839044549999997 -292.29470824999999 -115.32671360000001
v -37.490943899999998 -255.23730470000001 -115.32671360000001
v -59.687145200000003 -275.23730469999998 -115.32671360000001
v -58.499294250000005 -268.50082399999997 -115.32671360000001
v -43.41114425 -255.84036255000001 -115.32671360000001
v -18.740945350000001 -255.23730470000001 -115.32671360000001
v -26.240945799999999 -255.23730470000001 -115.32671360000001
v -3.7454724499999998 -295.23730469999998 -115.32671360000001
v -7.4909451000000002 -255.23730470000001 -115.32671360000001
v -11.240944900000001 -295.23730469999998 -115.32671360000001
v -22.490945799999999 -295.23730469999998 -115.32671360000001
v -2.49547265 -255.23730470000001 -115.32671360000001
v -17.490945350000001 -295.23730469999998 -115.32671360000001
v -32.490944849999998 -255.23730470000001 -115.32671360000001
v -57.311443300000001 293.99371339999999 21.454292299999999
v -59.687145200000003 283.67266849999999 30.114278800000001
v -57.311443300000001 278.67266849999999 34.310279800000004
v -52.8467445 274.59667969999998 37.7302933
v -39.990943899999998 301.65368649999999 15.0262823
v -39.990943899999998 271.01171879999998 40.738288900000001
v -46.831344600000001 271.9356689 39.9622879
v -59.687145200000003 288.99371339999999 25.6502914
v -52.8467445 298.06970209999997 18.034276999999999
v -46.831344600000001 300.7296753 15.8012915
v -19.990945799999999 301.65368649999999 15.0262823
v -19.990945799999999 271.01171879999998 40.738288900000001
v -9.9909449000000006 271.01171879999998 40.738288900000001
v -24.990945799999999 301.65368649999999 15.0262823
v -12.490944900000001 301.65368649999999 15.0262823
v -27.490945799999999 271.01171879999998 40.738288900000001
v -4.9909452999999999 301.65368649999999 15.0262823
v -14.990944900000001 271.01171879999998 40.738288900000001
v -34.990943899999998 271.01171879999998 40.738288900000001
v -32.490943899999998 301.65368649999999 15.0262823
v -2.4909452999999999 271.01171879999998 40.738288900000001
v -2.49547265 301.65368649999999 15.026282299999998
v -8.7409451000000011 301.65368649999999 15.0262823
v -43.41114425 271.47369385000002 40.350288399999997
v -49.839044549999997 273.26617429999999 38.846290600000003
v -55.079093900000004 296.03170775000001 19.744284649999997
v -6.2409451000000002 271.01171879999998 40.738288900000001
v -37.490943899999998 271.01171879999998 40.738288900000001
v -31.240944849999998 271.01171879999998 40.738288900000001
v -23.740945799999999 271.01171879999998 40.738288900000001
v -17.490945350000001 271.01171879999998 40.738288900000001
v -58.499294250000005 291.49371339999999 23.55229185
v -1.24547265 271.01171879999998 40.738288900000001
v 1.1102230246251565e-16 136.66921883645551 -73.089199448929634
v -3.3306690738754701e-16 128.11001174799208 -135.98122117711006
v -38.006807558209466 126.77836803205932 -127.0716068862076
v -51.501060766154673 126.80554592271758 -113.59991710643634
v -52.066384729852729 129.41490159662078 -95.629061842385951
v -53.494710809117905 127.33524938395965 -107.79934493579049
v -44.96766578187912 132.05694838198349 -85.293582393401039
v -33.759858632519126 134.21986622577958 -78.264467185477386
v -27.403587228456402 135.03886328376899 -76.004942578278246
v -49.139926301335194 130.71883252840973 -90.203379139937283
v -53.665414701773564 128.2263750723705 -101.69785779774806
v -43.344550710853284 126.61852261379562 -123.24129585469375
v -19.324440600069266 127.57408214093181 -133.87843116981605
v -25.76462867345866 127.31177859191897 -132.28862662189923
v -7.0156620176123052 136.66704560505664 -72.849922198703496
v -12.858918044775997 127.79825145762801 -134.96759133434855
v -47.969798133588135 126.59778460454305 -118.77619670978378
v -20.77176163848916 135.68509074449588 -74.434583638008036
v -39.74209461416109 133.26627720401527 -81.266537087059561
v -13.963727339262338 136.26288179036925 -73.374492873732777
v -32.040497322299828 127.03173625051141 -130.01823489785355
v -6.4193338175173267 127.9767183743393 -135.66340690032817
v -2.2204460492503131e-16 -183.68789656434853 14.516392785350389
v 1.665334536937723e-16 -134.79019005103356 100.83535692241249
v -13.968476993788556 -181.71384341905548 15.737622075692288
v -46.746962906951339 -164.41496762835914 42.096897419061882
v -49.421888805089175 -155.45301901410741 59.196921329436876
v -16.448316538486157 -135.9992798359749 98.073100395149908
v -40.569309278058199 -144.01492917804052 81.431460144185877
v -26.560994248226812 -177.94072730856442 20.190607321411999
v -26.600928177941451 -138.01404903680103 93.571427062738735
v -44.234651141243518 -167.32725193688941 36.81041017666503
v -32.011948343842661 -175.53822420057205 23.510057899332537
v -7.0686487089391452 -182.92067837284372 14.748351714510884
v -40.898094296918387 -170.17256717493439 31.895413914134025
v -49.392491419067724 -158.50355095155473 53.29922818105215
v -36.386149685493606 -141.64459933359188 86.118403875911412
v -31.689106055951775 -139.61060542033761 90.22866937444401
v -21.442635441696744 -136.82308867868659 96.176994816681727
v -48.53334108790807 -152.43675491856095 65.056089853935546
v -11.780156398944271 -135.48640152354267 99.309137639406032
v -48.431168943275438 -161.46270848018963 47.635729106394763
v -20.515708680007016 -180.03374011278541 17.568620894298107
v -44.103193911526546 -146.64415164118083 76.298706178627555
v -46.79819967772498 -149.47428505260217 70.802492690739584
v -36.83899308425211 -172.93813455447759 27.411855168960454
v -7.5316831472431289 -135.16753460258576 100.07167349475677
v -3.6598821883405246 -134.94435334061433 100.55143871267188
v 2.2204460492503131e-16 286.76394458126111 27.520432616136972
v -3.6977854932234928e-31 -300.17581346105788 96.879339376806826
v -58.34289100980628 208.22676592319107 -60.261160550505835
v -40.832590876311542 -293.70836380593846 97.012722310292887
v -60.604029459503423 -261.33048193339732 91.559652093955947
v -58.545379345041269 -249.21941851494535 88.251151009123163
v -49.685509033331115 89.114658290707013 -82.898753915869577
v -53.408534172598451 154.90153538892747 -93.508656074505609
v -54.832380431291725 169.43986585182745 -87.481304366490249
v -57.149803099632074 190.33337606729199 -74.642187961210112
v -52.066384729852729 129.41490159662078 -95.629061842385951
v -53.535125595249596 -214.10528138605764 76.428417569819089
v -49.198205949686027 -43.141258079566853 -11.636223226896375
v -26.696336587405327 287.82275386568841 26.631957345287379
v -55.794513383409978 176.62249982913778 -83.436305147877135
v -58.964462985729099 230.5634150885536 -38.241177468721972
v -49.35294289447323 -139.39966528776975 45.110235036282255
v -49.19520541201031 -21.028410401126955 -24.573328822298087
v -58.568495452311083 219.26502549120966 -49.701380800158795
v -58.951473359370134 236.50813303123221 -32.209263316653249
v -49.56044292235508 76.563249358225363 -77.259975767890467
v -49.335821217859014 -122.60138972131658 36.205817769807766
v -49.327283692042293 -0.31494145280654606 -35.951956968396999
v -49.405893976692141 -128.0056418218459 39.218338232257771
v -49.471582624826638 39.671849613362696 -57.834799939002998
v -58.536449003875866 255.38541921272702 -13.164333454889324
v -49.223973717077605 -31.718332520428817 -18.420851698601165
v -49.472542572349866 -133.57697465930738 42.199038436216554
v -49.463561012800184 21.991622415401149 -48.003299806573153
v -49.492394640664273 57.617339712752454 -67.734694101732401
v -49.482464206028965 63.822440230953902 -70.978181794659605
v -18.460098222507103 -298.98897090930825 96.827244560637808
v -49.992088943251616 95.108569604356489 -85.364301505009138
v -58.238702143973867 273.24837546032529 4.940752728121657
v -58.184278823912329 277.79621562798343 9.6078330112004409
v -58.329491823216074 213.78710643030479 -55.118071809311303
v -49.522982742355595 51.554630365837482 -64.459658198484732
v -54.181576978115253 162.07179013259793 -90.797257954812238
v -58.794142190014554 248.99241193891618 -19.626296533357188
v -49.929422051722227 -180.4221837715653 62.300022251030299
v -52.969637747569926 -208.42821606108328 74.227736058878605
v -54.173980432064774 -219.82105151182304 78.554981025423132
v -58.259655193369468 264.22843882481459 -4.229482429131032
v -51.001318604920449 106.56409778701594 -89.579751435477789
v -54.966690528011583 -283.6977658204562 96.369558257677312
v -49.466764477193252 33.759544463682431 -54.517674755856618
v -49.523911503859907 45.591210441145151 -61.157145925236932
v -49.275567668985119 -111.96583822279666 30.211699853582772
v -54.619968706113859 -225.58970240884634 80.699563806510383
v -52.505642360935411 135.2240071506709 -96.081772969423881
v -49.295286318390296 -79.376868483291886 10.998990425594396
v -49.327179980122708 -169.39684279173812 57.649626497907022
v -23.891878873526331 -298.17770806901456 96.851472622159392
v -49.340975404036783 -61.43159527329334 -0.4010584108955827
v -49.392491419067724 -158.50355095155473 53.29922818105215
v -52.003221596164337 123.51630266301592 -94.495881976392639
v -58.177925325426529 202.55030160984722 -65.225940538595211
v -49.361081838399684 -67.551221304122691 3.4623727922267626
v -49.313485191737598 -85.026233771589204 14.554900466370441
v -29.536831860315587 -297.09528621359391 96.900656709539362
v -49.343403270571095 16.207212623830529 -44.846587386574186
v -55.26838361209029 -231.41860283064074 82.778675094641557
v -60.869432712210063 -267.51343947649605 93.177435276359219
v -50.906213412618342 -287.77502511987552 96.789562573585982
v -52.983416224451091 147.94939049465896 -95.189921075479702
v -38.678466995081571 288.71733664881521 25.881300237554235
v -49.301021309541014 -15.845634666748026 -27.480267526639189
v -56.478641979624982 183.68395308170295 -79.183090713629412
v -49.392002769127132 -151.92091941602979 50.651201088430156
v -49.252843983287121 -37.326101387164627 -15.11523631354461
v -13.350392633436938 -299.52469753318212 96.81913946940432
v -50.400941941843584 100.90607230274045 -87.595549436069959
v -49.360628177009559 -163.93446195023762 55.446612032999894
v -49.332594948947019 -73.549507369247294 7.2841229529172749
v -44.109034283906269 289.31524250544078 25.379724345884043
v -49.244063106100015 -49.142393868634898 -8.0010903688957029
v -49.22617875876697 -95.942908023680531 21.13854938800942
v -20.252189795037161 287.50680720775046 26.897079536587686
v -49.533607785839557 70.161904167503423 -74.169073764207013
v -57.416658293287959 -243.24245533406298 86.485571443359248
v -32.861183113010171 288.21984967337619 26.29873259165106
v -57.542656135097687 196.66050733348274 -70.041513333351247
v -49.213884493028026 -26.30097884892589 -21.564005665652275
v -49.267653174982399 -101.30671077533005 24.222752964352097
v -49.34708944104657 -10.70172045811254 -30.322053798221731
v -49.569914273209463 82.91468844486873 -80.188079342334817
v -49.362120849468553 -145.52044354047706 47.931232043895633
v -51.077555607713734 -191.55679430213621 67.184666913882012
v -58.705468440366175 224.84379630415816 -44.083554178245279
v -35.244343728271744 -295.66170968319676 96.966141722853507
v -49.45470233288215 -174.89417234423246 59.941487441868759
v -58.378738862001001 259.78884048494632 -8.7114816544184634
v -13.606477317970434 287.24176973209268 27.11947215190925
v -56.185935691325675 -237.31958315395414 84.69614847948742
v -51.827826486956241 117.79188537062336 -93.050559242339233
v -51.496671357173796 112.16619668119161 -91.395459765003608
v -52.763521329645869 141.38007991230319 -95.988045132347281
v -57.861769012186066 282.27494837624545 14.352566452556715
v -58.910400763698888 242.67144736194794 -25.998631057489771
v -51.6167374610026 -197.15776901336557 69.632666064757842
v -49.250560831791105 -55.267148825493251 -4.2410960759882812
v -52.333697424759364 -202.78150074314175 71.962152494005693
v -46.09152230505304 -291.05853487379306 96.964562271567459
v -6.8335886352431476 286.99966184513767 27.322635464039951
v -58.111228354761792 -278.96983696082822 95.651178298597983
v -49.292254578678879 27.855599932236203 -51.235864042873757
v -49.303933175977754 10.543244051551021 -41.7888862645259
v -57.836243150810951 286.83945710451906 19.029474993166225
v -60.01402674922231 -273.71022926409125 94.632436821746353
v -58.190528748932152 268.6938396439628 0.34590225154660093
v -49.299777308616683 -90.530425094506185 17.93086438501664
v -49.317297594148116 -5.5427159105095791 -33.130132210676209
v -49.240135161218404 5.0375153928097607 -38.82440840951547
v -49.328513661931865 -117.27348636420567 33.201301411251762
v -49.350595028777235 -106.64588822504396 27.230568715334297
v -59.744469598184793 -255.23088549013465 89.920059580383707
v -50.537181509304581 -185.97552333756684 64.720874013995399
v -49.1636773265908 289.99570959010015 24.808932784270858
v -8.6154676651138935 -299.85886789903486 96.827484916149245
v -4.2112923228510333 -300.06593147032294 96.851107498131313
v -58.499294250000005 291.49371339999999 23.55229185
v -53.91609922021884 290.73140581791984 24.191844113545464
v -40.175843206999232 -255.94031829073037 -56.917184212967811
v -16.964946699999999 -295.23730469999998 -58.862312299999999
v -34.124056886968916 -255.44499508603963 -55.934392473145024
v -16.963122673447891 -268.54294832759007 -54.377931272398911
v -53.347590999874043 -288.43094998870333 -61.533803498510956
v -16.963702258002787 -261.88750860012942 -53.33219141588404
v -46.274558277986394 -257.38456569987841 -57.804490660745799
v -43.728006664405342 -293.99835619994406 -61.403715696048735
v -51.899901841646951 -260.49600133260742 -58.625874555076869
v -56.628860184339167 -283.77636735323108 -61.275525825609634
v -58.190762897065035 -278.24482928841053 -60.816349866790731
v -16.964946699999999 -255.23730470000001 -52.291938799999997
v -32.936678521023062 -295.19472101496035 -60.564223424924869
v -16.964487099948876 -288.55642800536037 -57.687308940263947
v -22.56237807646097 -255.24159927737148 -53.598818806461409
v -22.268715340693177 -295.23629606254281 -59.436971291910446
v -16.96416809575193 -275.2066319965482 -55.44237424750311
v -28.258568200343227 -255.26868950218199 -54.828255982012692
v -16.963946574925505 -281.87853424301858 -56.542924983396667
v -56.176660836665519 -265.4443680660462 -59.397057682732921
v -58.374471542792158 -271.65937334338253 -60.133742529695553
v -48.827619328209948 -291.79010164085258 -61.57637919594319
v -38.337653174549956 -294.97698465410377 -61.04947475148137
v -27.586402219031289 -295.23086350942708 -60.01111986136435
v -12.5904455 268.18667599999998 -24.858217199999999
v -12.5904455 237.544693 0.85353760000000001
v -52.449294685738543 242.88048029395213 -1.8568101947453357
v -12.589320370215638 244.85602985388746 -8.546460498968111
v -12.589807288849769 257.99305822203814 -19.567344529869224
v -58.536449003875866 255.38541921272702 -13.164333454889324
v -52.993767609433966 263.28899391388353 -20.821751999710575
v -41.200398963683426 238.85062212779798 1.1898084351176359
v -56.719257179133834 259.71044675780695 -17.304149589023549
v -56.376513987383497 246.54265965406802 -5.0426726705657519
v -42.0026346842238 267.13810303517715 -24.825550395472071
v -47.88709774892979 265.80075979513742 -23.380265195851308
v -35.905859175592397 267.52683159454705 -25.325927001034593
v -58.447753707433399 250.87189878830964 -8.9699736555735292
v -23.560303496394084 237.74072280817018 1.0788838500928417
v -12.59018057496529 263.01136462557048 -22.325958072404596
v -24.018526631736329 267.77198877960211 -25.338486664583389
v -29.258997804286011 237.92824500841903 1.2386763253147932
v -12.590078374206723 241.12042504094165 -3.9591668462207013
v -29.894441206498918 267.64890903525003 -25.428197990751734
v -12.588341405105295 248.87887162259076 -12.727389648498129
v -12.588440955535585 253.2584145692984 -16.401188568857783
v -18.027833670795637 237.62531163465772 0.94876348809095057
v -18.267294829607106 267.95681839190217 -25.13003137044544
v -47.158261032684877 240.28277538530745 0.23095211683037792
v -35.151286520481051 238.253717465546 1.3404241469768081
v 1.3877787807808006e-17 -264.82194319312612 136.33999169889313
v 4.1633363423440424e-17 -270.83235563967094 -115.32671360000002
v -59.048757691122987 -278.72934416155545 29.681698719853706
v -61.321436083203309 -276.07479876446575 76.669224373847698
v -13.228964176460007 -266.18152183737436 134.76801251025154
v -49.02728043924742 -269.58028964363507 116.76757431749667
v -58.254130879103421 -279.39695913005392 1.5390297351407716
v -60.076451813613659 -278.04682658300254 43.677343544245275
v -58.214306588657578 -278.22604044178365 -54.042195754933729
v -58.242516625028983 -278.07905800646211 -78.491196080996701
v -57.967826410811483 -278.47232503696318 -26.368582513103412
v -58.668764013716967 -277.36006332979878 -94.483547158489671
v -14.55001383811782 -272.22609742138047 -115.32671360000003
v -58.727846756259396 -278.30056357252187 -40.257795779619144
v -58.666874872406233 -279.18512695207687 -12.454303267079485
v -58.896144517100467 -276.74606562451959 -101.75517006643747
v -32.783216995268347 -267.75578611784658 128.6522173056037
v -58.33944455577776 -279.30976926613778 -5.4682292871643643
v -58.254395206845999 -278.8488539300867 -19.415030109851131
v -58.178983284932187 -278.22759061705398 -69.807626986807222
v -58.351853799395116 -278.370926588619 -33.318604569998314
v -58.190762897065035 -278.24482928841053 -60.816349866790731
v -58.383387796011419 -277.79987105697717 -86.737120032638558
v -58.418330477379961 -279.39501975345576 8.5570729380533486
v -58.759754199288388 -279.01006709276942 22.632178666951425
v -26.417945751958193 -267.28207316023531 131.31081290375636
v -58.666119947359924 -279.31004003417547 15.586875076736396
v -37.965031089460311 -273.86151970691111 -115.32671360000003
v -44.245169440816234 -268.83081820960564 121.32251003652476
v -59.388320054087288 -278.34961452227208 36.71450028575839
v -60.898928855994313 -277.00335512382105 63.965118752198471
v -56.388231561401781 -271.60500718865558 106.45647607161466
v -61.245570542759431 -276.59110785825703 70.399449061563189
v -61.293016584602768 -275.43866189741362 82.787711089098053
v -60.577185086581764 -277.37799871562072 57.353335623337728
v -43.782415588312631 -274.24260638523344 -115.32671360000003
v -31.961176602057545 -273.46461545374643 -115.32671360000003
v -60.458287735864353 -277.71323180414811 50.574872827584478
v -58.546131705969131 -272.66515790274525 100.63203377982796
v -6.5933821453954558 -265.50933426933557 135.60725851680616
v -25.937818302578911 -273.06029705438402 -115.32671360000001
v -53.23089957612607 -270.53918273356396 111.8989465393195
v -60.875095038954782 -274.64325535754892 88.771631849235405
v -38.754526120794097 -268.23822826287676 125.26488987762446
v -20.083576599247294 -272.64960256524341 -115.32671360000003
v -59.194712295147951 -276.01607752047141 -108.65055734256022
v -60.01402674922231 -273.71022926409125 94.632436821746353
v -19.841619304474335 -266.75861416508042 133.26804371174106
v -58.32619783579041 -278.17976854638289 -47.170235313490188
v -59.687145200000003 -275.23730469999998 -115.32671360000001
v -49.319858243920478 -274.59844803883334 -115.32671360000003
v -9.4033186933155761 -271.7817754084931 -115.32671360000003
v -4.6007793865923654 -271.31460055496882 -115.32671360000003
v -54.586082599038264 -274.92687749919662 -115.32671360000006
v 0 -295.23730469999998 -115.32671360000001
v 0 -255.23730470000001 -115.32671360000001
v 0 -255.23730469999998 -16.580919300000001
v 0 -295.23730469999998 -101.14371490000001
v -4.4408920985006262e-16 243.92074565088828 -53.777172628032787
v 0 -295.23730469999998 -16.580919300000001
v 2.2204460492503131e-16 301.65368649999999 15.026282299999998
v -4.4408920985006262e-16 213.27873588837153 -28.065674328032785
v 0 261.64878885341636 29.579182347058904
v -2.2204460492503131e-16 271.01171879999998 40.738288900000001
v 2.2204460492503131e-16 292.35220340000001 3.941287
v 0 -255.23730469999998 -101.14371490000001
v -1.7697276 -295.23730469999998 -101.14371490000001
v -2.49547265 301.65368649999999 15.026282299999998
v -1.7697276 -255.23730469999998 -101.14371490000001
v -0.99581579999999981 213.12671839418576 -28.246895064016392
v -4.4207878000000003 -295.23730469999998 -17.5458651
v -2.4389485500000001 292.54905592616001 3.8408580883854948
v -3.4117782374999992 244.32399617958032 -53.7211315197099
v -3.7454724499999998 -295.23730469999998 -115.32671360000001
v -2.49547265 -255.23730470000001 -115.32671360000001
v -0.99581580000000003 261.88173697670817 29.856733673529451
v -1.24547265 271.01171879999998 40.738288900000001
v -2.2103939000000001 -255.23730469999998 -17.063392200000003
l 18/18 1/1
l 1/1 15/15
l 15/15 13/13
l 13/13 20/20
l 20/20 4/4
l 4/4 21/21
l 21/21 9/9
l 9/9 6/6
l 6/6 10/10
l 10/10 5/5
l 5/5 8/8
l 8/8 7/7
l 7/7 11/11
l 11/11 16/16
l 16/16 12/12
l 12/12 17/17
l 17/17 3/3
l 3/3 14/14
l 14/14 2/2
l 2/2 22/22
l 22/22 19/19
l 44/44 25/25
l 25/25 45/45
l 45/45 24/24
l 24/24 43/43
l 43/43 27/27
l 27/27 42/42
l 42/42 35/35
l 35/35 40/40
l 40/40 33/33
l 33/33 31/31
l 31/31 32/32
l 32/32 29/29
l 29/29 34/34
l 34/34 30/30
l 30/30 37/37
l 37/37 23/23
l 23/23 36/36
l 36/36 28/28
l 28/28 26/26
l 26/26 41/41
l 41/41 38/38
l 38/38 39/39
l 67/67 47/47
l 47/47 64/64
l 64/64 50/50
l 50/50 60/60
l 60/60 46/46
l 46/46 54/54
l 54/54 53/53
l 53/53 55/55
l 55/55 52/52
l 52/52 58/58
l 58/58 59/59
l 59/59 56/56
l 56/56 65/65
l 65/65 51/51
l 51/51 61/61
l 61/61 49/49
l 49/49 66/66
l 66/66 48/48
l 48/48 63/63
l 63/63 57/57
l 57/57 62/62
l 85/85 69/69
l 69/69 86/86
l 86/86 77/77
l 77/77 84/84
l 84/84 76/76
l 76/76 83/83
l 83/83 78/78
l 78/78 88/88
l 88/88 82/82
l 82/82 81/81
l 81/81 73/73
l 73/73 79/79
l 79/79 71/71
l 71/71 74/74
l 74/74 72/72
l 72/72 75/75
l 75/75 68/68
l 68/68 80/80
l 80/80 70/70
l 70/70 87/87
l 87/87 89/89
l 119/119 104/104
l 104/104 121/121
l 121/121 105/105
l 105/105 124/124
l 124/124 110/110
l 110/110 122/122
l 122/122 103/103
l 103/103 102/102
l 102/102 95/95
l 95/95 101/101
l 101/101 112/112
l 112/112 98/98
l 98/98 111/111
l 111/111 97/97
l 97/97 94/94
l 94/94 114/114
l 114/114 93/93
l 93/93 115/115
l 115/115 92/92
l 92/92 96/96
l 96/96 91/91
l 91/91 116/116
l 116/116 90/90
l 90/90 113/113
l 113/113 109/109
l 109/109 125/125
l 125/125 99/99
l 99/99 118/118
l 118/118 106/106
l 106/106 117/117
l 117/117 108/108
l 108/108 100/100
l 100/100 120/120
l 120/120 107/107
l 107/107 123/123
l 147/147 142/142
l 142/142 148/148
l 148/148 140/140
l 140/140 136/136
l 136/136 139/139
l 139/139 145/145
l 145/145 130/130
l 130/130 135/135
l 135/135 134/134
l 134/134 151/151
l 151/151 126/126
l 126/126 157/157
l 157/157 133/133
l 133/133 127/127
l 127/127 128/128
l 128/128 129/129
l 129/129 150/150
l 150/150 132/132
l 132/132 149/149
l 149/149 131/131
l 131/131 153/153
l 153/153 144/144
l 144/144 154/154
l 154/154 141/141
l 141/141 155/155
l 155/155 137/137
l 137/137 156/156
l 156/156 143/143
l 143/143 138/138
l 138/138 152/152
l 152/152 146/146
l 146/146 158/158
l 179/179 180/180
l 180/180 172/172
l 172/172 169/169
l 169/169 170/170
l 170/170 177/177
l 177/177 159/159
l 159/159 168/168
l 168/168 173/173
l 173/173 160/160
l 160/160 162/162
l 162/162 167/167
l 167/167 161/161
l 161/161 166/166
l 166/166 163/163
l 163/163 175/175
l 175/175 164/164
l 164/164 165/165
l 165/165 174/174
l 174/174 176/176
l 176/176 171/171
l 171/171 178/178
l 206/206 205/205
l 205/205 204/204
l 204/204 198/198
l 198/198 185/185
l 185/185 196/196
l 196/196 188/188
l 188/188 195/195
l 195/195 194/194
l 194/194 186/186
l 186/186 201/201
l 201/201 202/202
l 202/202 197/197
l 197/197 184/184
l 184/184 193/193
l 193/193 199/199
l 199/199 183/183
l 183/183 189/189
l 189/189 192/192
l 192/192 203/203
l 203/203 190/190
l 190/190 187/187
l 187/187 200/200
l 200/200 182/182
l 182/182 191/191
l 191/191 181/181
l 325/325 326/326
l 326/326 324/324
l 324/324 275/275
l 275/275 236/236
l 236/236 257/257
l 257/257 264/264
l 264/264 294/294
l 294/294 208/208
l 208/208 307/307
l 307/307 268/268
l 268/268 249/249
l 249/249 309/309
l 309/309 313/313
l 313/313 267/267
l 267/267 209/209
l 209/209 320/320
l 320/320 210/210
l 210/210 284/284
l 284/284 298/298
l 298/298 266/266
l 266/266 253/253
l 253/253 246/246
l 246/246 216/216
l 216/216 245/245
l 245/245 306/306
l 306/306 304/304
l 304/304 292/292
l 292/292 321/321
l 321/321 244/244
l 244/244 295/295
l 295/295 256/256
l 256/256 277/277
l 277/277 259/259
l 259/259 273/273
l 273/273 291/291
l 291/291 221/221
l 221/221 232/232
l 232/232 228/228
l 228/228 226/226
l 226/226 318/318
l 318/318 252/252
l 252/252 319/319
l 319/319 288/288
l 288/288 281/281
l 281/281 315/315
l 315/315 263/263
l 263/263 255/255
l 255/255 278/278
l 278/278 262/262
l 262/262 258/258
l 258/258 305/305
l 305/305 280/280
l 280/280 217/217
l 217/217 274/274
l 274/274 231/231
l 231/231 287/287
l 287/287 222/222
l 222/222 271/271
l 271/271 289/289
l 289/289 316/316
l 316/316 227/227
l 227/227 317/317
l 317/317 311/311
l 311/311 265/265
l 265/265 233/233
l 233/233 310/310
l 310/310 250/250
l 250/250 229/229
l 229/229 251/251
l 251/251 241/241
l 241/241 234/234
l 234/234 235/235
l 235/235 283/283
l 283/283 225/225
l 225/225 290/290
l 290/290 211/211
l 211/211 237/237
l 237/237 276/276
l 276/276 248/248
l 248/248 300/300
l 300/300 299/299
l 299/299 260/260
l 260/260 215/215
l 215/215 254/254
l 254/254 301/301
l 301/301 269/269
l 269/269 212/212
l 212/212 242/242
l 242/242 213/213
l 213/213 219/219
l 219/219 272/272
l 272/272 214/214
l 214/214 286/286
l 286/286 261/261
l 261/261 207/207
l 207/207 240/240
l 240/240 223/223
l 223/223 293/293
l 293/293 220/220
l 220/220 224/224
l 224/224 303/303
l 303/303 243/243
l 243/243 230/230
l 230/230 296/296
l 296/296 247/247
l 247/247 314/314
l 314/314 238/238
l 238/238 239/239
l 239/239 302/302
l 302/302 312/312
l 312/312 327/327
l 327/327 328/328
l 328/328 323/323
l 323/323 279/279
l 279/279 270/270
l 270/270 285/285
l 285/285 218/218
l 218/218 282/282
l 282/282 297/297
l 297/297 308/308
l 308/308 322/322
l 351/351 336/336
l 336/336 350/350
l 350/350 333/333
l 333/333 338/338
l 338/338 339/339
l 339/339 349/349
l 349/349 348/348
l 348/348 337/337
l 337/337 335/335
l 335/335 329/329
l 329/329 331/331
l 331/331 346/346
l 346/346 343/343
l 343/343 340/340
l 340/340 334/334
l 334/334 332/332
l 332/332 345/345
l 345/345 347/347
l 347/347 342/342
l 342/342 330/330
l 330/330 344/344
l 344/344 352/352
l 352/352 341/341
l 341/341 351/351
l 378/378 360/360
l 360/360 377/377
l 377/377 355/355
l 355/355 362/362
l 362/362 366/366
l 366/366 358/358
l 358/358 361/361
l 361/361 359/359
l 359/359 364/364
l 364/364 363/363
l 363/363 365/365
l 365/365 372/372
l 372/372 369/369
l 369/369 376/376
l 376/376 353/353
l 353/353 368/368
l 368/368 357/357
l 357/357 374/374
l 374/374 373/373
l 373/373 356/356
l 356/356 371/371
l 371/371 354/354
l 354/354 375/375
l 375/375 367/367
l 367/367 370/370
l 370/370 378/378
l 432/432 430/430
l 430/430 429/429
l 429/429 389/389
l 389/389 421/421
l 421/421 417/417
l 417/417 413/413
l 413/413 404/404
l 404/404 412/412
l 412/412 428/428
l 428/428 431/431
l 431/431 427/427
l 427/427 422/422
l 422/422 392/392
l 392/392 388/388
l 388/388 399/399
l 399/399 386/386
l 386/386 396/396
l 396/396 398/398
l 398/398 385/385
l 385/385 425/425
l 425/425 390/390
l 390/390 397/397
l 397/397 387/387
l 387/387 395/395
l 395/395 391/391
l 391/391 394/394
l 394/394 383/383
l 383/383 400/400
l 400/400 403/403
l 403/403 401/401
l 401/401 379/379
l 379/379 406/406
l 406/406 384/384
l 384/384 414/414
l 414/414 411/411
l 411/411 407/407
l 407/407 409/409
l 409/409 380/380
l 380/380 410/410
l 410/410 419/419
l 419/419 423/423
l 423/423 415/415
l 415/415 408/408
l 408/408 418/418
l 418/418 382/382
l 382/382 405/405
l 405/405 420/420
l 420/420 393/393
l 393/393 402/402
l 402/402 424/424
l 424/424 381/381
l 381/381 416/416
l 416/416 426/426
l 433/433 663/663
l 433/433 759/759
l 434/434 698/698
l 434/434 739/739
l 435/435 611/611
l 435/435 760/760
l 436/436 569/569
l 436/436 741/741
l 437/437 475/475
l 437/437 702/702
l 438/438 683/683
l 438/438 717/717
l 439/439 686/686
l 439/439 746/746
l 440/440 460/460
l 440/440 678/678
l 441/441 549/549
l 441/441 556/556
l 442/442 548/548
l 442/442 716/716
l 443/443 466/466
l 443/443 518/518
l 444/444 551/551
l 444/444 755/755
l 445/445 496/496
l 445/445 561/561
l 446/446 480/480
l 446/446 571/571
l 447/447 455/455
l 447/447 770/770
l 448/448 784/784
l 448/448 800/800
l 449/449 494/494
l 449/449 495/495
l 450/450 705/705
l 450/450 751/751
l 451/451 684/684
l 451/451 793/793
l 452/452 498/498
l 452/452 509/509
l 453/453 565/565
l 453/453 727/727
l 454/454 517/517
l 454/454 774/774
l 455/455 735/735
l 456/456 718/718
l 456/456 723/723
l 457/457 458/458
l 457/457 496/496
l 458/458 621/621
l 459/459 682/682
l 459/459 704/704
l 460/460 616/616
l 461/461 638/638
l 461/461 682/682
l 462/462 552/552
l 462/462 796/796
l 463/463 609/609
l 463/463 676/676
l 464/464 550/550
l 464/464 721/721
l 465/465 793/793
l 465/465 799/799
l 466/466 695/695
l 467/467 489/489
l 467/467 660/660
l 468/468 572/572
l 468/468 672/672
l 469/469 671/671
l 469/469 791/791
l 470/470 634/634
l 470/470 644/644
l 471/471 728/728
l 471/471 739/739
l 472/472 481/481
l 472/472 625/625
l 473/473 487/487
l 473/473 668/668
l 474/474 489/489
l 474/474 490/490
l 475/475 568/568
l 476/476 680/680
l 476/476 810/810
l 477/477 681/681
l 477/477 712/712
l 478/478 479/479
l 478/478 604/604
l 479/479 571/571
l 480/480 554/554
l 481/481 643/643
l 482/482 625/625
l 482/482 719/719
l 483/483 719/719
l 483/483 721/721
l 484/484 614/614
l 484/484 767/767
l 485/485 703/703
l 485/485 778/778
l 486/486 683/683
l 486/486 725/725
l 487/487 656/656
l 488/488 764/764
l 488/488 779/779
l 490/490 661/661
l 491/491 598/598
l 491/491 660/660
l 492/492 493/493
l 492/492 654/654
l 493/493 552/552
l 494/494 740/740
l 495/495 509/509
l 497/497 696/696
l 497/497 741/741
l 498/498 636/636
l 499/499 620/620
l 499/499 626/626
l 500/500 506/506
l 500/500 590/590
l 501/501 685/685
l 501/501 742/742
l 502/502 693/693
l 502/502 772/772
l 503/503 684/684
l 503/503 743/743
l 504/504 626/626
l 504/504 688/688
l 505/505 690/690
l 505/505 811/811
l 506/506 783/783
l 507/507 701/701
l 507/507 745/745
l 508/508 744/744
l 508/508 808/808
l 510/510 511/511
l 510/510 720/720
l 511/511 715/715
l 512/512 605/605
l 512/512 730/730
l 513/513 730/730
l 513/513 787/787
l 514/514 642/642
l 514/514 694/694
l 515/515 617/617
l 515/515 746/746
l 516/516 547/547
l 516/516 580/580
l 517/517 633/633
l 518/518 527/527
l 519/519 520/520
l 519/519 657/657
l 520/520 642/642
l 521/521 522/522
l 521/521 562/562
l 522/522 673/673
l 523/523 691/691
l 523/523 732/732
l 524/524 575/575
l 524/524 691/691
l 525/525 747/747
l 525/525 782/782
l 526/526 575/575
l 526/526 747/747
l 527/527 754/754
l 528/528 713/713
l 528/528 748/748
l 529/529 574/574
l 529/529 651/651
l 530/530 749/749
l 530/530 750/750
l 531/531 706/706
l 531/531 749/749
l 532/532 750/750
l 532/532 771/771
l 533/533 556/556
l 533/533 795/795
l 534/534 536/536
l 534/534 557/557
l 535/535 708/708
l 535/535 791/791
l 536/536 777/777
l 537/537 574/574
l 537/537 584/584
l 538/538 692/692
l 538/538 768/768
l 539/539 584/584
l 539/539 692/692
l 540/540 555/555
l 540/540 713/713
l 541/541 559/559
l 541/541 675/675
l 542/542 738/738
l 542/542 751/751
l 543/543 693/693
l 543/543 753/753
l 544/544 752/752
l 544/544 809/809
l 545/545 550/550
l 545/545 630/630
l 546/546 754/754
l 546/546 774/774
l 547/547 708/708
l 548/548 582/582
l 549/549 666/666
l 551/551 606/606
l 553/553 694/694
l 553/553 781/781
l 554/554 800/800
l 555/555 651/651
l 557/557 558/558
l 558/558 570/570
l 559/559 768/768
l 560/560 632/632
l 560/560 790/790
l 561/561 696/696
l 562/562 599/599
l 563/563 646/646
l 563/563 786/786
l 564/564 702/702
l 564/564 786/786
l 565/565 603/603
l 566/566 631/631
l 566/566 733/733
l 567/567 705/705
l 567/567 788/788
l 568/568 569/569
l 570/570 666/666
l 572/572 573/573
l 573/573 762/762
l 576/576 778/778
l 576/576 797/797
l 577/577 695/695
l 577/577 735/735
l 578/578 587/587
l 578/578 697/697
l 579/579 757/757
l 579/579 795/795
l 580/580 757/757
l 581/581 648/648
l 581/581 796/796
l 582/582 781/781
l 583/583 764/764
l 583/583 771/771
l 585/585 761/761
l 585/585 765/765
l 586/586 677/677
l 586/586 797/797
l 587/587 732/732
l 588/588 627/627
l 588/588 758/758
l 589/589 699/699
l 589/589 740/740
l 590/590 700/700
l 591/591 758/758
l 591/591 766/766
l 592/592 698/698
l 592/592 759/759
l 593/593 760/760
l 593/593 770/770
l 594/594 761/761
l 594/594 776/776
l 595/595 724/724
l 595/595 773/773
l 596/596 707/707
l 596/596 716/716
l 597/597 726/726
l 597/597 762/762
l 598/598 706/706
l 599/599 667/667
l 600/600 667/667
l 600/600 763/763
l 601/601 733/733
l 601/601 763/763
l 602/602 630/630
l 602/602 662/662
l 603/603 789/789
l 604/604 634/634
l 605/605 794/794
l 606/606 632/632
l 607/607 722/722
l 607/607 767/767
l 608/608 734/734
l 608/608 787/787
l 609/609 612/612
l 610/610 704/704
l 610/610 792/792
l 611/611 711/711
l 612/612 766/766
l 613/613 614/614
l 613/613 756/756
l 615/615 701/701
l 615/615 720/720
l 616/616 743/743
l 617/617 765/765
l 618/618 689/689
l 618/618 775/775
l 619/619 679/679
l 619/619 769/769
l 620/620 769/769
l 621/621 773/773
l 622/622 709/709
l 622/622 710/710
l 623/623 710/710
l 623/623 715/715
l 624/624 714/714
l 624/624 784/784
l 627/627 656/656
l 628/628 711/711
l 628/628 789/789
l 629/629 724/724
l 629/629 788/788
l 631/631 652/652
l 633/633 707/707
l 635/635 742/742
l 635/635 780/780
l 636/636 646/646
l 637/637 775/775
l 637/637 783/783
l 638/638 665/665
l 639/639 654/654
l 639/639 661/661
l 640/640 657/657
l 640/640 785/785
l 641/641 755/755
l 641/641 777/777
l 643/643 726/726
l 644/644 645/645
l 645/645 728/728
l 647/647 648/648
l 647/647 673/673
l 649/649 668/668
l 649/649 779/779
l 650/650 665/665
l 650/650 722/722
l 652/652 782/782
l 653/653 718/718
l 653/653 734/734
l 655/655 697/697
l 655/655 785/785
l 658/658 727/727
l 658/658 756/756
l 659/659 729/729
l 659/659 731/731
l 662/662 663/663
l 664/664 687/687
l 664/664 731/731
l 669/669 676/676
l 669/669 681/681
l 670/670 736/736
l 670/670 790/790
l 671/671 748/748
l 672/672 736/736
l 674/674 737/737
l 674/674 792/792
l 675/675 738/738
l 677/677 714/714
l 678/678 485/485
l 679/679 810/810
l 680/680 476/476
l 685/685 501/501
l 686/686 801/801
l 687/687 664/664
l 688/688 802/802
l 689/689 811/811
l 690/690 505/505
l 699/699 803/803
l 700/700 477/477
l 703/703 485/485
l 709/709 622/622
l 712/712 477/477
l 717/717 438/438
l 723/723 456/456
l 725/725 804/804
l 729/729 805/805
l 737/737 465/465
l 744/744 508/508
l 745/745 806/806
l 752/752 544/544
l 753/753 807/807
l 772/772 808/808
l 776/776 809/809
l 780/780 798/798
l 794/794 438/438
l 798/798 622/622
l 799/799 465/465
l 801/801 501/501
l 802/802 664/664
l 803/803 505/505
l 804/804 476/476
l 805/805 456/456
l 806/806 508/508
l 807/807 544/544
l 829/829 812/812
l 812/812 826/826
l 826/826 824/824
l 824/824 831/831
l 831/831 815/815
l 815/815 832/832
l 832/832 820/820
l 820/820 817/817
l 817/817 821/821
l 821/821 816/816
l 816/816 819/819
l 819/819 818/818
l 818/818 822/822
l 822/822 827/827
l 827/827 823/823
l 823/823 828/828
l 828/828 814/814
l 814/814 825/825
l 825/825 813/813
l 813/813 833/833
l 833/833 830/830
l 855/855 836/836
l 836/836 856/856
l 856/856 835/835
l 835/835 854/854
l 854/854 838/838
l 838/838 853/853
l 853/853 846/846
l 846/846 851/851
l 851/851 844/844
l 844/844 842/842
l 842/842 843/843
l 843/843 840/840
l 840/840 845/845
l 845/845 841/841
l 841/841 848/848
l 848/848 834/834
l 834/834 847/847
l 847/847 839/839
l 839/839 837/837
l 837/837 852/852
l 852/852 849/849
l 849/849 850/850
l 878/878 858/858
l 858/858 875/875
l 875/875 861/861
l 861/861 871/871
l 871/871 857/857
l 857/857 865/865
l 865/865 864/864
l 864/864 866/866
l 866/866 863/863
l 863/863 869/869
l 869/869 870/870
l 870/870 867/867
l 867/867 876/876
l 876/876 862/862
l 862/862 872/872
l 872/872 860/860
l 860/860 877/877
l 877/877 859/859
l 859/859 874/874
l 874/874 868/868
l 868/868 873/873
l 896/896 880/880
l 880/880 897/897
l 897/897 888/888
l 888/888 895/895
l 895/895 887/887
l 887/887 894/894
l 894/894 889/889
l 889/889 899/899
l 899/899 893/893
l 893/893 892/892
l 892/892 884/884
l 884/884 890/890
l 890/890 882/882
l 882/882 885/885
l 885/885 883/883
l 883/883 886/886
l 886/886 879/879
l 879/879 891/891
l 891/891 881/881
l 881/881 898/898
l 898/898 900/900
l 930/930 915/915
l 915/915 932/932
l 932/932 916/916
l 916/916 935/935
l 935/935 921/921
l 921/921 933/933
l 933/933 914/914
l 914/914 913/913
l 913/913 906/906
l 906/906 912/912
l 912/912 923/923
l 923/923 909/909
l 909/909 922/922
l 922/922 908/908
l 908/908 905/905
l 905/905 925/925
l 925/925 904/904
l 904/904 926/926
l 926/926 903/903
l 903/903 907/907
l 907/907 902/902
l 902/902 927/927
l 927/927 901/901
l 901/901 924/924
l 924/924 920/920
l 920/920 936/936
l 936/936 910/910
l 910/910 929/929
l 929/929 917/917
l 917/917 928/928
l 928/928 919/919
l 919/919 911/911
l 911/911 931/931
l 931/931 918/918
l 918/918 934/934
l 958/958 953/953
l 953/953 959/959
l 959/959 951/951
l 951/951 947/947
l 947/947 950/950
l 950/950 956/956
l 956/956 941/941
l 941/941 946/946
l 946/946 945/945
l 945/945 962/962
l 962/962 937/937
l 937/937 968/968
l 968/968 944/944
l 944/944 938/938
l 938/938 939/939
l 939/939 940/940
l 940/940 961/961
l 961/961 943/943
l 943/943 960/960
l 960/960 942/942
l 942/942 964/964
l 964/964 955/955
l 955/955 965/965
l 965/965 952/952
l 952/952 966/966
l 966/966 948/948
l 948/948 967/967
l 967/967 954/954
l 954/954 949/949
l 949/949 963/963
l 963/963 957/957
l 957/957 969/969
l 971/971 991/991
l 991/991 985/985
l 985/985 982/982
l 982/982 983/983
l 983/983 990/990
l 990/990 972/972
l 972/972 981/981
l 981/981 986/986
l 986/986 973/973
l 973/973 975/975
l 975/975 980/980
l 980/980 974/974
l 974/974 979/979
l 979/979 976/976
l 976/976 988/988
l 988/988 977/977
l 977/977 978/978
l 978/978 987/987
l 987/987 989/989
l 989/989 984/984
l 984/984 970/970
l 993/993 1017/1017
l 1017/1017 1016/1016
l 1016/1016 1010/1010
l 1010/1010 997/997
l 997/997 1008/1008
l 1008/1008 1000/1000
l 1000/1000 1007/1007
l 1007/1007 1006/1006
l 1006/1006 998/998
l 998/998 1013/1013
l 1013/1013 1014/1014
l 1014/1014 1009/1009
l 1009/1009 996/996
l 996/996 1005/1005
l 1005/1005 1011/1011
l 1011/1011 995/995
l 995/995 1001/1001
l 1001/1001 1004/1004
l 1004/1004 1015/1015
l 1015/1015 1002/1002
l 1002/1002 999/999
l 999/999 1012/1012
l 1012/1012 994/994
l 994/994 1003/1003
l 1003/1003 992/992
l 1019/1019 1137/1137
l 1137/1137 1136/1136
l 1136/1136 1088/1088
l 1088/1088 1049/1049
l 1049/1049 1070/1070
l 1070/1070 1077/1077
l 1077/1077 1107/1107
l 1107/1107 1021/1021
l 1021/1021 1120/1120
l 1120/1120 1081/1081
l 1081/1081 1062/1062
l 1062/1062 1122/1122
l 1122/1122 1126/1126
l 1126/1126 1080/1080
l 1080/1080 1022/1022
l 1022/1022 1133/1133
l 1133/1133 1023/1023
l 1023/1023 1097/1097
l 1097/1097 1111/1111
l 1111/1111 1079/1079
l 1079/1079 1066/1066
l 1066/1066 1059/1059
l 1059/1059 1029/1029
l 1029/1029 1058/1058
l 1058/1058 1119/1119
l 1119/1119 1117/1117
l 1117/1117 1105/1105
l 1105/1105 1134/1134
l 1134/1134 1057/1057
l 1057/1057 1108/1108
l 1108/1108 1069/1069
l 1069/1069 1090/1090
l 1090/1090 1072/1072
l 1072/1072 1086/1086
l 1086/1086 1104/1104
l 1104/1104 1034/1034
l 1034/1034 1045/1045
l 1045/1045 1041/1041
l 1041/1041 1039/1039
l 1039/1039 1131/1131
l 1131/1131 1065/1065
l 1065/1065 1132/1132
l 1132/1132 1101/1101
l 1101/1101 1094/1094
l 1094/1094 1128/1128
l 1128/1128 1076/1076
l 1076/1076 1068/1068
l 1068/1068 1091/1091
l 1091/1091 1075/1075
l 1075/1075 1071/1071
l 1071/1071 1118/1118
l 1118/1118 1093/1093
l 1093/1093 1030/1030
l 1030/1030 1087/1087
l 1087/1087 1044/1044
l 1044/1044 1100/1100
l 1100/1100 1035/1035
l 1035/1035 1084/1084
l 1084/1084 1102/1102
l 1102/1102 1129/1129
l 1129/1129 1040/1040
l 1040/1040 1130/1130
l 1130/1130 1124/1124
l 1124/1124 1078/1078
l 1078/1078 1046/1046
l 1046/1046 1123/1123
l 1123/1123 1063/1063
l 1063/1063 1042/1042
l 1042/1042 1064/1064
l 1064/1064 1054/1054
l 1054/1054 1047/1047
l 1047/1047 1048/1048
l 1048/1048 1096/1096
l 1096/1096 1038/1038
l 1038/1038 1103/1103
l 1103/1103 1024/1024
l 1024/1024 1050/1050
l 1050/1050 1089/1089
l 1089/1089 1061/1061
l 1061/1061 1113/1113
l 1113/1113 1112/1112
l 1112/1112 1073/1073
l 1073/1073 1028/1028
l 1028/1028 1067/1067
l 1067/1067 1114/1114
l 1114/1114 1082/1082
l 1082/1082 1025/1025
l 1025/1025 1055/1055
l 1055/1055 1026/1026
l 1026/1026 1032/1032
l 1032/1032 1085/1085
l 1085/1085 1027/1027
l 1027/1027 1099/1099
l 1099/1099 1074/1074
l 1074/1074 1020/1020
l 1020/1020 1053/1053
l 1053/1053 1036/1036
l 1036/1036 1106/1106
l 1106/1106 1033/1033
l 1033/1033 1037/1037
l 1037/1037 1116/1116
l 1116/1116 1056/1056
l 1056/1056 1043/1043
l 1043/1043 1109/1109
l 1109/1109 1060/1060
l 1060/1060 1127/1127
l 1127/1127 1051/1051
l 1051/1051 1052/1052
l 1052/1052 1115/1115
l 1115/1115 1125/1125
l 1125/1125 1138/1138
l 1138/1138 1139/1139
l 1139/1139 1135/1135
l 1135/1135 1092/1092
l 1092/1092 1083/1083
l 1083/1083 1098/1098
l 1098/1098 1031/1031
l 1031/1031 1095/1095
l 1095/1095 1110/1110
l 1110/1110 1121/1121
l 1121/1121 1018/1018
l 1162/1162 1147/1147
l 1147/1147 1161/1161
l 1161/1161 1144/1144
l 1144/1144 1149/1149
l 1149/1149 1150/1150
l 1150/1150 1160/1160
l 1160/1160 1159/1159
l 1159/1159 1148/1148
l 1148/1148 1146/1146
l 1146/1146 1140/1140
l 1140/1140 1142/1142
l 1142/1142 1157/1157
l 1157/1157 1154/1154
l 1154/1154 1151/1151
l 1151/1151 1145/1145
l 1145/1145 1143/1143
l 1143/1143 1156/1156
l 1156/1156 1158/1158
l 1158/1158 1153/1153
l 1153/1153 1141/1141
l 1141/1141 1155/1155
l 1155/1155 1163/1163
l 1163/1163 1152/1152
l 1152/1152 1162/1162
l 1189/1189 1171/1171
l 1171/1171 1188/1188
l 1188/1188 1166/1166
l 1166/1166 1173/1173
l 1173/1173 1177/1177
l 1177/1177 1169/1169
l 1169/1169 1172/1172
l 1172/1172 1170/1170
l 1170/1170 1175/1175
l 1175/1175 1174/1174
l 1174/1174 1176/1176
l 1176/1176 1183/1183
l 1183/1183 1180/1180
l 1180/1180 1187/1187
l 1187/1187 1164/1164
l 1164/1164 1179/1179
l 1179/1179 1168/1168
l 1168/1168 1185/1185
l 1185/1185 1184/1184
l 1184/1184 1167/1167
l 1167/1167 1182/1182
l 1182/1182 1165/1165
l 1165/1165 1186/1186
l 1186/1186 1178/1178
l 1178/1178 1181/1181
l 1181/1181 1189/1189
l 1191/1191 1242/1242
l 1242/1242 1241/1241
l 1241/1241 1202/1202
l 1202/1202 1234/1234
l 1234/1234 1230/1230
l 1230/1230 1226/1226
l 1226/1226 1217/1217
l 1217/1217 1225/1225
l 1225/1225 1240/1240
l 1240/1240 1243/1243
l 1243/1243 1239/1239
l 1239/1239 1235/1235
l 1235/1235 1205/1205
l 1205/1205 1201/1201
l 1201/1201 1212/1212
l 1212/1212 1199/1199
l 1199/1199 1209/1209
l 1209/1209 1211/1211
l 1211/1211 1198/1198
l 1198/1198 1238/1238
l 1238/1238 1203/1203
l 1203/1203 1210/1210
l 1210/1210 1200/1200
l 1200/1200 1208/1208
l 1208/1208 1204/1204
l 1204/1204 1207/1207
l 1207/1207 1196/1196
l 1196/1196 1213/1213
l 1213/1213 1216/1216
l 1216/1216 1214/1214
l 1214/1214 1192/1192
l 1192/1192 1219/1219
l 1219/1219 1197/1197
l 1197/1197 1227/1227
l 1227/1227 1224/1224
l 1224/1224 1220/1220
l 1220/1220 1222/1222
l 1222/1222 1193/1193
l 1193/1193 1223/1223
l 1223/1223 1232/1232
l 1232/1232 1236/1236
l 1236/1236 1228/1228
l 1228/1228 1221/1221
l 1221/1221 1231/1231
l 1231/1231 1195/1195
l 1195/1195 1218/1218
l 1218/1218 1233/1233
l 1233/1233 1206/1206
l 1206/1206 1215/1215
l 1215/1215 1237/1237
l 1237/1237 1194/1194
l 1194/1194 1229/1229
l 1229/1229 1190/1190
l 1244/1244 1263/1263
l 1245/1245 1264/1264
l 1246/1246 1267/1267
l 1247/1247 1256/1256
l 1248/1248 1262/1262
l 1249/1249 1260/1260
l 1250/1250 1257/1257
l 1251/1251 1259/1259
l 1252/1252 1265/1265
l 1253/1253 1266/1266
l 1254/1254 1261/1261
l 1255/1255 1258/1258
l 1256/1256 1247/1247
l 1257/1257 1250/1250
l 1258/1258 1255/1255
l 1259/1259 1251/1251
l 1260/1260 1249/1249
l 1261/1261 1254/1254
l 1262/1262 1248/1248
l 1263/1263 1244/1244
l 1264/1264 1245/1245
l 1265/1265 1252/1252
l 1266/1266 1253/1253
l 1267/1267 1246/1246
