v 0.045125419732794728 -0.077084579941072498 0.022274908066533001
v 0.018020258144028987 -0.073377902285987909 -0.039346812321070554
v 0.052056400759045746 -0.075068453038058355 0.0076976651984519912
v 0.052884804984444547 -0.074253895528877747 -0.0005549992450293277
v 0.037861693075822211 -0.072897063429717926 -0.029306127022764993
v 0.048688955927884456 -0.073152762268902133 -0.016837319628511493
v 0.027469727183625142 -0.080461316281050577 0.036020416203512179
v 0.039652707413543431 -0.078223326256327191 0.027895616862526659
v 0.049397412050900029 -0.076019472618859496 0.015448171157926193
v 0.015576989579492684 -0.082203414323864632 0.040580509104275395
v 0.024580517893349217 -0.073202352545011243 -0.036975496456214965
v 0.031293201768216372 -0.073013829499200877 -0.033692856609406269
v 0.021378500866704682 -0.081419561162085402 0.038666797560235902
v 0.033669990822378995 -0.079373071412244325 0.032489286658579176
v 0.043910041324673514 -0.072926018972489293 -0.023750925022153854
v 0.051907302378455686 -0.073598931036954196 -0.0089819691572378801
v 0.010108811909992622 -0.082797666810682069 0.041836741385601395
v 0.0049641045910904366 -0.083233545803789125 0.042736132849990352
v 0.011749225745904923 -0.073485952180606939 -0.040983508532504764
v 0.005784281082968825 -0.073505230210898734 -0.042159826928029623
v 0 -0.073469773851072825 -0.043060256603411645
v 0 -0.083582090832690858 0.043409738021507389
v 0.15277554648188776 -0.44078517156336772 0.053229426276990441
v 0.049400924223150955 -0.40341239555276331 -0.061729093802782749
v 0.17322097862072799 -0.44414358231169115 -0.022228128597556809
v 0.019267215765908868 -0.3831913962776281 -0.040945381085886412
v 0.175938139201885 -0.44547488848039818 0.0053830598678584881
v 0.069315656050242078 -0.41382405240687647 0.07061273241707082
v 0.028202434628497274 -0.39341407672931228 0.044071526568257038
v 0.075062007693876248 -0.4151421838817535 -0.072056363003652757
v 0.10233205220162156 -0.42602996134064186 0.074332007057417299
v 0.15298005391221398 -0.43782759085288009 -0.054785778186474295
v 0.16552948181488861 -0.44163004318728 -0.039640669740998412
v 0.12124153282601537 -0.43260472332492794 0.070732628785699594
v 0.17001920332062098 -0.44306933483119704 -0.031125310808694295
v 0.17604099912283711 -0.44527362665290093 -0.0038096062706608775
v 0.17231752894638863 -0.44473335401212355 0.02339366776770592
v 0.047091361136249801 -0.40504772321973426 0.058805166629093283
v 0.16443945799785348 -0.44310240216215946 0.039676401570256661
v 0.12814000761477315 -0.43063691614130761 -0.070026579884680473
v 0.1120358391946874 -0.42956036590532387 0.073052835370021774
v 0.034232208608537096 -0.39355643113393929 -0.051473099957612518
v 0.14523776496063506 -0.43553449704226238 -0.060997567345456527
v 0.06156144246108991 -0.41102237469995007 0.067468373162539022
v 0.026948683294365363 -0.38830296438171674 -0.046015609357308432
v 0.034121454153630437 -0.39778394178705623 0.048922546143264092
v 0.1689778984776692 -0.44409140463371566 0.03187696595958453
v 0.084048774238649537 -0.41822654699160244 -0.073883995406263447
v 0.17517845520243835 -0.44486775831408748 -0.013093091809383143
v 0.077013700615272046 -0.4167760174982123 0.07312956652850329
v 0.092122652409768052 -0.42219594350316902 0.074714934969088778
v 0.11927084026050355 -0.42823013715060221 -0.07280241054336159
v 0.066221777372936205 -0.41164913310343521 -0.069413234636683155
v 0.17464154204506388 -0.44522427278107812 0.014509516179845729
v 0.057680541611735012 -0.40770360862340871 -0.065889779607851168
v 0.15985912124601406 -0.43993278245327194 -0.047651298944132101
v 0.13684496465516038 -0.43304642541965349 -0.066028435585610723
v 0.12995332167478371 -0.43526124098516933 0.067620880403100908
v 0.1381240393543815 -0.4374250243333353 0.063581184144616221
v 0.084761626887043431 -0.41949255320148204 0.074321150542509054
v 0.022015236310768987 -0.38890373695039415 0.039948519769326285
v 0.041664542990607699 -0.39863372904652838 -0.056784408940921689
v 0.14572881876622834 -0.43920315754020567 0.058736781971745415
v 0.040407743203918975 -0.40164768210387958 0.053902492668164652
v 0.15905036524788116 -0.44205842314950478 0.046855249874025742
v 0.015439325492872243 -0.38453982451885443 0.036629002203778682
v 0 -0.37867078731481663 0.03418364262335126
v 0 -0.37676404424712623 -0.03630404765123102
v 0.010171287172669741 -0.37914945554762636 -0.037487342313668598
v 0.0079777969295843319 -0.38107376399178966 0.034796286943603219
v 0.10156214562006853 -0.42340863284602592 -0.075092995442114535
v 0.054147001300308209 -0.40812163340002838 0.063417754797217757
v 0.11039033515268359 -0.42582229319612674 -0.074432213123013374
v 0.092769900950460921 -0.4209610334694236 -0.074971839243713589
v 0.089974175566099338 0.42948765342507822 -0.069185731815151974
v 0.10903933975071198 0.43631155522511011 -0.06732834632311635
v 0.021219618250433336 0.39018966484465895 0.03892812153721309
v 0.15526097551870549 0.44879877375869059 -0.040955020681226972
v 0.16694475389595875 0.45106170319245809 -0.019459899525760459
v 0.010087208889902596 0.38056824315519583 -0.034279809102798639
v 0.067295861939633217 0.41809286801220297 0.066625546552412956
v 0.13376194595372648 0.43575508999847878 0.065009963373483817
v 0.16415270329724124 0.44764897618834787 0.032467382196564296
v 0.12702476452315084 0.44186984859995559 -0.061976369335220945
v 0.014573779420362348 0.38603206875985818 0.035100591279358953
v 0.040730181750992328 0.40123525274055316 -0.054257733269719395
v 0.063778087352429208 0.41650785435326876 -0.064952940794917716
v 0.16015495422009179 0.44985855846110367 -0.034184560982842158
v 0.16720912793512388 0.4492115690758326 0.023773166267459293
v 0.1601449155902735 0.44581143530169287 0.040730121785958501
v 0.049286962602900608 0.40956114283439393 0.058262666123337067
v 0.14941960319411723 0.44744909498480107 -0.047182839699508164
v 0.12523166538264879 0.43368150490632895 0.068782678598966779
v 0.033579369012724937 0.39581124342224483 -0.049348068820476806
v 0.13525093572033231 0.44409667591144353 -0.057866587379897597
v 0.077272295737460681 0.42170824039128574 0.069644492836597849
v 0.17024835297260096 0.45115749282981277 0.0053775916378111816
v 0.018930902890059078 0.38499670145780734 -0.038691459144321899
v 0.097160758296400501 0.42737418290700224 0.072654198329181602
v 0.080440740065209002 0.42523373671887821 -0.068468644452663319
v 0.11824071675867362 0.43935088200570194 -0.065245921258964015
v 0.16924974998217077 0.45038334781010242 0.014710209762000132
v 0.11613863756649034 0.43167513102282218 0.071290398411084116
v 0.072032210240493971 0.42105639488654567 -0.067085806291306935
v 0.057913939599730201 0.41403265504967202 0.062780727087527494
v 0.14172983450251619 0.43833324480513847 0.06054917240723251
v 0.055662866699355898 0.41173488262558566 -0.062257851763479567
v 0.10671408424947355 0.42958444162448817 0.072516295305708037
v 0.15501044200664954 0.4435277010503853 0.048264646177349949
v 0.027697838569392473 0.39485401546509574 0.04339848648758371
v 0.047932271505347693 0.40663814144934107 -0.058725045615871926
v 0.16898455871057805 0.45137477146321614 -0.011823799844509986
v 0.034310900045632205 0.39980860470075663 0.048305131502248543
v 0.14275410428777063 0.4459507801244354 -0.052896301110932131
v 0.087638653224575855 0.42487383602819573 0.071732139943328804
v 0 0.37756501958308408 -0.031348471688254768
v 0 0.38042609940829142 0.029724414829506354
v 0.17003184269328947 0.45140949216275156 -0.0041139460224947546
v 0.0075455610863150498 0.38270394916757416 0.031977583032087385
v 0.099577600189171611 0.43308790426076765 -0.068709364155774777
v 0.14885859897572257 0.44098214106195588 0.054939015175569469
v 0.16405723427565594 0.45060620552022446 -0.026975221083459795
v 0.026515067071322562 0.39030888698520239 -0.043973582949810568
v 0.041445561658768754 0.40477349126973894 0.053342394475388813
v 0.14408322647757926 -0.26808008934156607 0.048572177776853034
v 0.097786871396215891 -0.34812830751212148 -0.091220134015540161
v 0.086312246855864527 -0.40299369493164283 -0.082369982056935881
v 0.14901232029594552 -0.25913515498888218 0.023285502637990556
v 0.13511020913734123 -0.28392424619688661 0.069120803898499894
v 0.11842547499297776 -0.32199900119919223 0.089401868789268008
v 0.12500543398612721 -0.3054880498418488 0.083044099856215581
v 0.13632667205933457 -0.26430156912922365 -0.04459697096354312
v 0.089037804455393887 -0.38614629252603094 -0.088116358829969599
v 0.092763176401873704 -0.36770282931606751 -0.091061257666097961
v 0.080005583798801239 -0.44255190706482106 -0.052619303224218525
v 0.076691587775634645 -0.45601570203469621 -0.025729726611029551
v 0.075123483838253027 -0.45891787125015027 -0.0068424521338086523
v 0.080201264923821208 -0.44759773556024163 0.046414215221489433
v 0.075942999716822321 -0.45564734699849252 0.025749847647172988
v 0.081248101773589765 -0.43541489872288275 -0.060552090091167049
v 0.10754880676483555 -0.35931822700876076 0.09370670927405586
v 0.095494448145527627 -0.41176317368144988 0.080502711305216648
v 0.11918296641770383 -0.29112843510263087 -0.074103330359779604
v 0.090725297619893883 -0.37712073233292387 -0.090056630296562898
v 0.085160744066399813 -0.41078888107347067 -0.07846351103730749
v 0.10315546038514778 -0.37989488456861475 0.091512452581089351
v 0.082587826083809948 -0.42721058894854369 -0.067687917648932949
v 0.10401492781849872 -0.32820728609480065 -0.088953852469408068
v 0.089354867242876404 -0.42932849573295634 0.069426130207003764
v 0.078748340642276898 -0.44856220346781184 -0.044165206131857461
v 0.075730047885239599 -0.458121473435186 -0.016315446832743656
v 0.074809227469194453 -0.45893260439961792 0.002516021521463737
v 0.07776394457631991 -0.45211099686019252 0.036492731078638006
v 0.12770811592768311 -0.27586843694630037 -0.061177375357691688
v 0.14352011726643402 -0.25788813148625633 -0.024652610301903272
v 0.14812155279294403 -0.25636806931248546 -0.0027263995398799637
v 0.084048774238649537 -0.41822654699160244 -0.073883995406263447
v 0.10073951963522307 -0.33814028887214187 -0.090514561452297082
v 0.10757405667837233 -0.31849317905716101 -0.086398426891203209
v 0.11537148971886574 -0.3308455977328566 0.091469414105697339
v 0.1009036144737947 -0.39050647113216985 0.088934332784618153
v 0.095101562436380543 -0.3580070805327808 -0.091495417763278186
v 0.087606847266455248 -0.39475750074953198 -0.085502305551267144
v 0.092122652409768052 -0.42219594350316902 0.074714934969088778
v 0.14635100649539842 -0.26427342539197868 0.040504226214062439
v 0.12838945623305781 -0.29788802158774391 0.078889189363995665
v 0.11130329773567864 -0.30903930968987564 -0.083040767236522428
v 0.083104430512828148 -0.44219229448144526 0.055294036092436424
v 0.11253361528640825 -0.34001233466155467 0.09285567425522237
v 0.13178002971410466 -0.29059570272193108 0.074417335276401569
v 0.12336921316394853 -0.28307636326182756 -0.068151072066725979
v 0.1479958990727826 -0.26137873455501837 0.031984664195802967
v 0.14903035303233358 -0.2567585861498709 0.0058162682938689286
v 0.14932445468571953 -0.257684502667063 0.014509033085866367
v 0.14617801910008671 -0.25659772656823487 -0.013852638295406804
v 0.086275180915355104 -0.43600492056103707 0.062931396350038943
v 0.074948617220330541 -0.45793814422245649 0.014341218157246413
v 0.14132985635760903 -0.27281398316408961 0.055977015702715488
v 0.13830719298254662 -0.27806782519198125 0.062868457270396555
v 0.13210485420163826 -0.26945225617109547 -0.053406143575714791
v 0.10994548811378516 -0.34950811879372179 0.093479955069608212
v 0.1401901864310586 -0.26043947688883196 -0.034957549189157194
v 0.10532247402057927 -0.36946508076143769 0.093061229194160003
v 0.07765351302278814 -0.4530004292891473 -0.035103999479255597
v 0.11517520282143349 -0.29989785500172123 -0.078942184197967336
v 0.098407117151475293 -0.40114883827992115 0.085199432199830449
v 0.12166161773794729 -0.31349609046104188 0.086672458914424405
v 0.077565787154843094 0.44403824338589026 -0.049372958359420974
v 0.10707469327304268 0.31902534015828521 0.086675284124926949
v 0.13001722136484251 0.26154854100031621 -0.041989806986421602
v 0.13909958520163873 0.25608607616183077 0.022890213699174787
v 0.087182331270545477 0.43005236503751043 0.068071630715018441
v 0.13148576113858998 0.26493890564513606 0.047695670811532059
v 0.092056339805832055 0.34929464711861286 -0.090308907467665456
v 0.094364052430573858 0.37199160954966348 0.091593694165096121
v 0.076336060994315863 0.45312721687976343 -0.034385886598857815
v 0.096851009153073014 0.32887010416254714 -0.087595753696510265
v 0.10578133629633427 0.30140417581980244 -0.078309180633644837
v 0.10996187204863743 0.30971742711800243 0.083513631901318969
v 0.11862493130040906 0.28632248005497984 0.071324460171026477
v 0.12121031426012015 0.27168655524850127 -0.057541223331776394
v 0.07938288563031573 0.43213988745128001 -0.062738304970730643
v 0.085985024049083258 0.44010130348941645 0.058804806634582513
v 0.081732988399582318 0.45667848935108629 0.032178014024308033
v 0.085097821086676642 0.44500854446730154 0.05323421701994506
v 0.078399495050133328 0.46114354235257188 0.0073205325618958912
v 0.14033810489938275 0.25475891754770785 0.013836625246933333
v 0.13388169886187479 0.25812196115807368 -0.032934611041327097
v 0.13711064364293879 0.25827435739883964 0.03166902032139722
v 0.12569509021982003 0.26606315207577746 -0.050253778358593432
v 0.12819973938416276 0.26948601197522987 0.054549150126138625
v 0.088273394277959827 0.37041875416079539 -0.089707622934457346
v 0.081574394802188699 0.41742890496358209 -0.073910305183704145
v 0.089544781148864272 0.4045601044722168 0.083012522031528507
v 0.098865802706774697 0.35004633334506108 0.092100232610251687
v 0.086647721452854348 0.43513301962014561 0.063779431657395691
v 0.099641980720916568 0.31924743951795642 -0.08512197927033649
v 0.077465900579004252 0.46113002160293604 -0.001161534736388966
v 0.084048581295104868 0.44954222333260541 0.046899529060139389
v 0.10913423863222499 0.29313592265637323 -0.074169019953437235
v 0.11685480611465227 0.27820881105004625 -0.063862089906159547
v 0.13709077292503741 0.25559737569475072 -0.023312344915265279
v 0.080440740065209002 0.42523373671887821 -0.068468644452663319
v 0.088511410876482288 0.41485375076042597 0.0778035738049975
v 0.14048999623849923 0.253935609916972 -0.0043026029373381906
v 0.090869254574088898 0.39390577030088547 0.087025138003321706
v 0.076231388043231971 0.45884594229496889 -0.018112242558207016
v 0.0784356369777649 0.43841176570933493 -0.056297107808833832
v 0.090066833619093817 0.35985898282985135 -0.090385622003359256
v 0.08392141179640128 0.40025808728294354 -0.082727298611717848
v 0.096474938189802101 0.36096829865472269 0.092396874502621795
v 0.094300531555997796 0.33890773177413036 -0.089395469160839347
v 0.086672378175760123 0.38078583449914094 -0.088209686804525123
v 0.085203301985583763 0.39080444075625176 -0.085994640548335319
v 0.076833814031326095 0.44900040451619494 -0.042077411674821152
v 0.082930642856225645 0.4534407907435134 0.039809969788490801
v 0.10144772585147598 0.33932494690379689 0.091053117031395542
v 0.079450357724048126 0.46044063952284287 0.015767603140009627
v 0.13451526890915688 0.26124447538033296 0.039990687291942897
v 0.112831025895655 0.3011089399768237 0.079910234651421802
v 0.10420006896404105 0.32892925917070659 0.089256016496556956
v 0.10265726748870521 0.31015199787735426 -0.081865741272146492
v 0.1157046421978101 0.29334416664978336 0.075782747233239689
v 0.12168353119696679 0.28009034567375801 0.066325434705857417
v 0.13936824457491112 0.25430913355446083 -0.013162050224343962
v 0.12489109615873384 0.27453245669319171 0.060735119691592093
v 0.092498886267218555 0.38300190139334495 0.089814746677613758
v 0.087638653224575855 0.42487383602819573 0.071732139943328804
v 0.14079545215484901 0.25411261874216029 0.0047250947065838565
v 0.11281323344816375 0.28540185778486382 -0.06935838378575003
v 0.076171135190951408 0.45631279863362734 -0.026337624966756783
v 0.082753453106755137 0.40908618151517184 -0.078587015446647257
v 0.08052126549072125 0.45910381953145518 0.024130689800030906
v 0.076720214010565141 0.46038226142909366 -0.0096782807540959116
v 0.16546012116627595 -0.4548728350185165 -0.0039979973494383061
v 0.051985400482076165 0.44354992506088942 -5.33082693805436e-06
v 0.068417539325135682 0.45605274951674318 -0.00078273867708180918
v 0.037905710754643329 0.42947362770843822 0.00058104472348035263
v 0.10562723404324864 -0.23921283265362364 -0.0024974437937102093
v 0.088393357091567593 -0.2243558075963438 -0.0016103838055585165
v 0.052299711699243731 0.038111480087386837 -0.0019711786458497674
v 0.05195038474577017 0.004142067871884092 -0.0016344637250239376
v 0.086217332046778089 0.46545923651093107 -0.0015115048249212965
v 0.023466439740910741 -0.41066211220632109 0.0014426489945680945
v 0.035659281008895781 -0.42640691169989631 0.0020580785368426906
v 0.049439679644914247 -0.44116863298538483 0.0023675195689160048
v 0.068419415972809733 -0.19359456831243249 -0.00059338959224736188
v 0.073653464248593065 -0.20493669626897332 -0.00079244146142188015
v 0.080623742153788286 -0.21513376229958001 -0.0011601658125212732
v 0.084504927061726645 -0.46391834151582401 0.0023001403622372385
v 0.065800679962220707 -0.45370891108927225 0.0025543734281667915
v 0.0093813869903166328 -0.39675522851478318 0.00043983968614315144
v 0.143991199174586 -0.46741971234590329 -0.0026287480122780191
v 0.17891449239425672 -0.27173911874273937 -0.00015401114787940231
v 0.15915067217402823 -0.26069910577616745 -0.001993429028742809
v 0.015209357929610461 0.4003511291175606 -0.00073593705098472587
v 0.064409561491367506 -0.18182043936885811 -0.00056723547955978676
v 0.061460488928790871 -0.16998031093695984 -0.00066086534293889848
v 0.21510443541422353 -0.34184302352170293 8.1447473817541593e-05
v 0.21532829938391207 -0.36134486208085331 -0.0010674353025706021
v 0.19207719122215355 0.42632561989122242 -0.004478473007983581
v 0.20188034798964108 -0.40975378005390484 -0.0020846019154576222
v 0.16029993285395522 0.26239391861673855 -0.014653313560305557
v 0.13564322382310995 0.4706581660937042 -0.0034587325905376734
v 0.19991822234120771 -0.29551236921051371 0.0019880964250478103
v 0.13192694777856401 0.25181474624445632 -0.012484369570330885
v 0.20942397724016187 -0.39065700502893269 -0.0017167623269692717
v 0.21496250061201982 0.36304864327652375 -0.0048022999774006729
v 0.13262147984582329 -0.25108424828004161 -0.003168415510225541
v 0.1591332195693976 -0.45950839884893285 -0.0037866722190093632
v 0.11535632327970693 -0.47231161627072837 0.00027117026411742611
v 0.017132041982186492 -0.40300923357009433 0.00094933112018592391
v 0.21404962231988128 -0.37115493124095422 -0.001396920996300551
v 0.2155713975570252 0.34452677659880371 -0.0057481978430717531
v 0.21256443474895473 0.32645066582451732 -0.0075843205532671928
v 0.16957584754419092 0.26723464706224237 -0.015014077057724425
v 0.19750530784712161 0.41746867517634723 -0.0045177604850152346
v 0.18521349002302356 0.27931618013987092 -0.014728068069018685
v 0.15019189647133502 0.25819145450067649 -0.014008196051878169
v 0.17604099912283711 -0.44527362665290093 -0.0038096062706608775
v 0.20632243449319324 0.39965065321279158 -0.0044717866063709189
v 0.099057167205535146 0.23557962095500778 -0.0090709764425478678
v 0.091697791497085387 0.22898633141889785 -0.0083887217425301502
v 0.057838801220523456 -0.14689160688232678 -0.00075445364911704265
v 0.12393137022800581 0.24899569541788585 -0.011674963659402706
v 0.055329050522229174 -0.12481345861191417 -0.00057612031741208604
v 0.056042170221619822 0.12925641978237573 -0.004158177867366001
v 0.21394601015562248 0.37231903362045071 -0.0045811133749541861
v 0.052884804984444547 -0.074253895528877747 -0.0005549992450293277
v 0.05439674786841385 0.098486767592360538 -0.0035642177867396194
v 0.053761031649817423 0.078350363819041272 -0.0030966080444509944
v 0.052814418246216313 0.048544986343079209 -0.0022890014965716273
v 0.07395785666339319 0.20602463239277632 -0.0066700169721465932
v 0.052260795560000226 0.015801855637059659 -0.0017269201368929096
v 0.052183313586039594 -0.0075927166725372405 -0.0016146209118565267
v 0.052593470702784959 -0.030623508546333916 -0.0015463252585325915
v 0.052903570818983323 -0.052695645686885798 -0.0011831981761656692
v 0.055414354723294992 0.11899441022459267 -0.0039767257726651406
v 0.053395796862047221 0.068476087053184337 -0.0028357645745802143
v 0.11552874556462561 0.24559150756822001 -0.010776789081770967
v 0.061334259360067783 0.1694515111868696 -0.0051264601761747929
v 0.059547204578616855 0.15959907184387306 -0.004837287117467874
v 0.15447527945723402 0.46264606273866826 -0.0039023352631708226
v 0.094597708397485408 -0.46791528761782064 0.0018501299727219987
v 0.077465900579004252 0.46113002160293604 -0.001161534736388966
v 0.10493533733454591 -0.47082473338081338 0.0011507796548769441
v 0.059900375602859948 0.45010467153038991 -0.00039249219671336352
v 0.10704955506536235 0.241253124819895 -0.009862521030307745
v 0.074809227469194453 -0.45893260439961792 0.002516021521463737
v 0.21572182267931483 -0.35154825420616598 -0.00056498325047022184
v 0.044705282936988597 0.43657942226596841 0.00033958262216699181
v 0.057357311917942501 -0.44770411426796308 0.0024798304283799432
v 0.20979594850145872 0.31779231243071904 -0.0088553439574512345
v 0.069780651470335769 0.19740922106280234 -0.0062244816211142967
v 0.042236407160896799 -0.43400967736616503 0.0022341385978840549
v 0.21560069814172805 0.35377917968938144 -0.0051772446378504401
v 0.066294990029939771 0.18843349656500658 -0.005809740958054907
v 0.079035893321731124 0.21417407274946071 -0.0071831087720105758
v 0.08487650722034093 0.22192215467471393 -0.0077337385000692937
v 0.21209802102588821 -0.38094247934279135 -0.0015848971131736456
v 0.21179047539590562 -0.32277511955494964 0.0014599985354916767
v 0.12538755184141681 0.4723263159532155 -0.0030909155524592889
v 0.063637123111159571 0.17905889906666506 -0.0054685282919247017
v 0.029471064884341099 -0.41858127958107683 0.0018070254580761702
v 0.16951950362655077 -0.26567980088301679 -0.0011125140506770838
v 0.031820287115104311 0.42207809411412323 0.00064851989670557759
v 0.12555744656807996 -0.47217168448106484 -0.00072122379777202856
v 0.14812155279294403 -0.25636806931248546 -0.0027263995398799637
v 0.059596589133678851 -0.15826926229335392 -0.00072749872153928007
v 0.058056515710665856 0.14959148226771263 -0.0045780768714409285
v 0.056468714904608898 -0.13574852189013242 -0.00071114735507384367
v 0.21444841936293418 0.33539485977412203 -0.0065432130631329789
v 0.056762986863659437 0.13947925078837387 -0.0043375745084277386
v 0.020896221759321557 0.40722745827069384 6.4977953911534084e-06
v 0.16272655913964829 0.45730238304996379 -0.0040145032127868298
v 0.054825613527261882 0.10872386178184981 -0.0037745492764812063
v 0.20966309010949202 0.39064675679578831 -0.0044423589880531519
v 0.17784074209915107 0.27296575011162594 -0.015057797667330185
v 0.054425602296383387 -0.11409640025179288 -0.00040597725370742987
v 0.054065562541278589 0.088347530371394589 -0.0033376288659347445
v 0.19178739499750885 0.28614124470354274 -0.014055204464702323
v 0.17845475950887585 0.44342208341999156 -0.0042551719303756293
v 0.054045092876265119 -0.10363853348998828 -0.00028660987467763713
v 0.05277148528266367 -0.041772036403630218 -0.0014161467306386154
v 0.11487274582207982 -0.24429270306352305 -0.0028662059786608756
v 0.053040087112619788 -0.083761561988751371 -0.00034419000133613592
v 0.1869978669458735 -0.27902583445494145 0.00076120820831952155
v 0.052493696469558392 -0.01921695650175536 -0.0016026576554684607
v 0.053220680842560195 0.058600796572916516 -0.002579919676180382
v 0.052459872272580185 0.027179889404213363 -0.0018492440732517344
v 0.19106988672073849 -0.42819163487589673 -0.0028486297062992839
v 0.1841051926072137 -0.43692980314115415 -0.0033399505323617167
v 0.20222809014003446 0.40856719443269529 -0.0045089188548293867
v 0.14541629598718606 0.46724809114030541 -0.0037258621511161881
v 0.19693883347095598 -0.41908813424500652 -0.0024157013626116539
v 0.20222628557266265 0.30130220204997638 -0.011703600392050102
v 0.21214267287293237 0.38151770504289173 -0.0044639344620491239
v 0.053484750809486552 -0.093533101789594869 -0.00026493411631463298
v 0.14067631263473124 -0.25368865932245011 -0.0030455405263753411
v 0.19746491026869514 0.29348591923407241 -0.013014324554124485
v 0.19393355840970219 -0.28705609855570319 0.0015089236714238711
v 0.09669923961494524 -0.23253013457649963 -0.0020669222579242771
v 0.0083001559272648691 0.39491874994229148 -0.0016836050394666059
v 0.026376442306367286 0.4145016305611875 0.0004695061886703214
v 0.13515652737210268 -0.4703095064376398 -0.0017309809249309079
v 0.13936824457491112 0.25430913355446083 -0.013162050224343962
v 0.095419595121572984 0.46876273933366741 -0.0018683972323925088
v 0.20604623919815362 -0.4002759934750949 -0.0018637807985881847
v 0.18579944466409401 0.43504127286461447 -0.0043873869553258176
v 0 -0.39336473517651349 -3.4139502442274289e-05
v 0 0.39223570699784666 -0.0028083678376597081
v 0.20884591259185215 -0.31345172317244263 0.0019505108835606508
v 0.17003184269328947 0.45140949216275156 -0.0041139460224947546
v 0.17104343124673627 -0.45003848230387755 -0.0039899976475125699
v 0.10505162051890167 0.47111957298652202 -0.0022516885565015631
v 0.20483348577041971 -0.30436910074538492 0.0021413308530317649
v 0.2061942398201087 0.309470772445812 -0.010259947373650789
v 0.11509087830018769 0.47237129007712381 -0.0026681117730979363
v 0.21384285012681081 -0.33224727312069968 0.00079467482473072305
v 0.052739268598292553 -0.063479256357919317 -0.00087172907132614021
v 0.15196806101458271 -0.46371341208205186 -0.0033286511170414002
v 0.1239795360983128 -0.24809136945868837 -0.00310114353125065
v 0 0.1423756878987209 0.045303405176590872
v 0 -0.041944467777226713 -0.042857572328795446
v 0 -0.0091498799089048989 0.043174908272558245
v 0 -0.061657245167998712 0.043227514247821952
v 0 -0.026834220209903496 0.043146380036339388
v 0 0.29356477459574498 0.053822783827821921
v 0 0.068563795036141156 0.043143401268920974
v 0 0.058014956449487301 0.043033732798536076
v 0 0.12463144430345151 0.044554539596085636
v 0 -0.24027832444838654 0.053658102237709074
v 0 0.33450013228905806 0.051490656724772904
v 0 -0.28932535844116058 -0.053786980511803945
v 0 -0.18920761420274823 0.0482108126596709
v 0 0.081909966023158365 -0.042765345997934419
v 0 0.38853539999999998 -0.013689000000000002
v 0 0.17954520744583935 0.047593648005560714
v 0 0.15139087601680334 0.045666673863169235
v 0 0.071922299421894959 -0.04282965161976772
v 0 -0.013237724164156892 -0.042684842489098124
v 0 0.13355730936514634 0.044924052084906671
v 0 0.35986540000000006 0.045739500000000002
v 0 0.023907201364307198 -0.042740806770612136
v 0 -0.34236437657019886 -0.050254197262613529
v 0 -0.39336473517651349 -3.4139502442274289e-05
v 0 0.0038268535741155913 0.043119123969791145
v 0 0.2012640189860905 0.049285913853052803
v 0 0.2208501700706382 0.051158029199648979
v 0 0.27462876470229292 -0.054514740319542537
v 0 -0.049200192559615247 0.043287780491015747
v 0 0.18450678576495197 -0.047502722180279566
v 0 -0.27960660873556986 -0.05424082263882711
v 0 -0.17189688867591676 -0.046517179436623105
v 0 -0.2719367273677471 0.055007574561317045
v 0 -0.017744314899144333 0.043154081443684614
v 0 0.098934210157338442 0.043661932745498878
v 0 -0.07895407124522541 0.043368377086995737
v 0 0.10860117767793694 -0.043529722159341935
v 0 0.019708772101424396 0.043242620270899403
v 0 -0.30172001745943472 -0.053333028615197814
v 0 -0.33174628205467954 -0.05115350443597004
v 0 -0.079418661173935756 -0.043149686706510884
v 0 -0.38420886144483718 -0.028909603239104832
v 0 0.16450056929920645 0.046358124756114574
v 0 -0.05911159248779347 -0.042767974083241886
v 0 0.31420994930284363 -0.052031417003048086
v 0 0.1746869051712705 -0.04673982432767964
v 0 -0.3907085102523653 0.014178298503505224
v 0 0.18854693997646027 0.04827110764454242
v 0 0.32606767199036052 -0.051018511593955991
v 0 0.32574193594219475 0.051568030624920026
v 0 0.20225999604809974 -0.048979224307092742
v 0 -0.19919732611500096 0.049085167972713978
v 0 -0.27250576319893849 -0.054486399907638386
v 0 0.34057418408393914 -0.049300803590008706
v 0 -0.22293438426248424 0.051368733116092247
v 0 -0.26031602337136484 0.054867778844761017
v 0 0.27451144295016849 0.054772490617418478
v 0 0.26049917882009466 -0.054695267169830239
v 0 0.22884688671741887 -0.052140299441846422
v 0 -0.32206072793914248 -0.052184878415407511
v 0 -0.091952551100093635 -0.043253033951356205
v 0 0.37130452650749318 0.039359968931494294
v 0 -0.38725532551053465 0.02311647395944829
v 0 0.2207161892329812 -0.051018611386208501
v 0 0.26626440156587 0.055010426068424115
v 0 0.30395524827266601 -0.052645093902298212
v 0 -0.35483865978830109 0.046360592035393375
v 0 -0.39248046465424352 -0.01110308533318562
v 0 0.30595652861052747 0.053280594497311248
v 0 -0.23756582712644331 -0.053127167225516352
v 0 -0.34033777864401793 0.049758631882172846
v 0 0.2861540404519245 -0.053859421758367249
v 0 -0.36891920069330264 0.04141467300049425
v 0 -0.37867078731481663 0.03418364262335126
v 0 -0.24781966651865833 -0.054059662949355602
v 0 0.39223570699784666 -0.0028083678376597081
v 0 -0.37676404424712623 -0.03630404765123102
v 0 0.37756501958308408 -0.031348471688254768
v 0 -0.18067924683723691 -0.047106472357661307
v 0 -0.14459138129261828 0.044916515581793527
v 0 -0.12015548870396021 0.043996265482836854
v 0 0.19315079159552648 -0.048297000561005138
v 0 0.12113138968533374 -0.044147809924434948
v 0 -0.22075746819156306 -0.051075727499854021
v 0 -0.12585314257957061 -0.044104353932673659
v 0 0.23592581363269749 0.053095518919211271
v 0 0.11401397512120306 0.044121506963700687
v 0 0.088718437661352983 0.043428233048251427
v 0 0.078397951951215281 0.043268075576328315
v 0 0.03161135173224542 0.043247856957158867
v 0 -0.067520886528209895 -0.042970826500312406
v 0 0.031078654785888192 -0.042440706022819491
v 0 -0.031175486598541802 -0.042839123398425841
v 0 0.20964345187771408 0.049929183702763183
v 0 0.38042609940829142 0.029724414829506354
v 0 -0.24901681705695469 0.054355494136256802
v 0 0.38438372227809381 -0.023796770368080984
v 0 -0.38882687720039472 -0.021107263149679322
v 0 0.2127050702102129 -0.050069772182596423
v 0 -0.35337248244866348 -0.047421490913544598
v 0 -0.3238609105075313 0.052048271598710977
v 0 0.38985288964510489 0.01223936986125689
v 0 0.31530135340749565 0.052424354978888213
v 0 0.24616471424391773 0.054129602587855222
v 0 -0.30180340190579552 0.053368972440065027
v 0 -0.3143681588982562 -0.052816371416134392
v 0 -0.28492887821825397 0.054530303962376937
v 0 0.2476822715234997 -0.054125873634700644
v 0 0.29669246160453627 -0.05315256441724682
v 0 -0.22829750512969191 -0.05207632770495154
v 0 -0.21556588835986046 0.050596265816705011
v 0 0.24041734463667822 -0.053424750519031144
v 0 -0.19174536013509008 -0.048233804784087106
v 0 -0.20067916891439594 -0.049005657102099871
v 0 -0.36446913439219236 -0.042405976500972671
v 0 -0.17281256900817454 0.046669494846924946
v 0 -0.13028910649885139 0.044236879239341831
v 0 -0.11068263382543644 0.043774886608205776
v 0 -0.088210110420156293 0.043451098956019042
v 0 -0.1150810315074676 -0.04383033146326544
v 0 0.12856924709659789 -0.044412704577128023
v 0 0.13581606700233539 -0.04460797206862753
v 0 -0.10112069889323443 -0.043431554891391499
v 0 0.0067144241171480977 -0.042645893012753275
v 0 0.053517947329457458 -0.042810430244258915
v 0 0.38636408134062111 0.023461459164725553
v 0 0.093315338729920969 -0.043207582894203303
v 0 0.062316497583290484 -0.042504310744871369
v 0 -0.31379806876211769 0.052597254253863163
v 0 -0.21224569800680493 -0.050205927774929528
v 0 0.34530575615086678 0.049550871176721606
v 0 -0.23160153813219209 0.052687954592180349
v 0 -0.00083956402015369306 -0.042782285247995655
v 0 -0.15169997470959437 -0.045094029068264249
v 0 0.28308671297346866 0.054414521183569903
v 0 0.045438505026971374 0.043106932762925827
v 0 -0.33067479780445452 0.051069132227008013
v 0 -0.26292475235675472 -0.054490711021158017
v 0 -0.097578320685675207 0.043554783782218151
v 0 0.038943868967850043 -0.042714483038903073
v 0 0.14521272665466772 -0.045034503413409019
v 0 0.25791122632455327 0.054783865449039716
v 0 -0.03802767044331954 0.043215203297271715
v 0 0.15297245570962323 -0.045350054404569573
v 0 0.34726033316726801 -0.047025790702512067
v 0 -0.15742715327125234 0.045555620695280699
v 0 0.16269535523179418 -0.045884074875663504
v 0 0.35617519861170649 -0.043992440185849906
v 0 -0.14173150025673653 -0.044576391950380122
v 0 0.36764830982892971 -0.03926253725152265
v 0 0.35258557807543339 0.047645185588360804
v 0 -0.16179843169275562 -0.045805604252443677
v 0 -0.070305658206612054 0.043297945667408841
v 0 0.015310812740727646 -0.042693349891682705
v 0 -0.050528030132510088 -0.042812773206018666
v 0 -0.29336614006202477 0.053949638201220979
v 0 -0.18101009160546136 0.047440153753297923
v 0 -0.20738160723743071 0.049840716894709494
v 0 -0.13379232141815356 -0.044340372941526887
v 0 0.011767812837769993 0.043180872120345271
v 0 -0.022206605381349345 -0.042761982943761982
v 0 0.27879907796181858 0.054593505900494207
v 0 -0.063316239508001679 -0.042869400291777146
v 0 -0.28446598358836522 -0.054013901575315527
v 0 0.34391725862560357 -0.048163297146260386
v 0 -0.026691045989945573 -0.042800553171093908
v 0 0.15783390547070869 -0.045617064640116542
v 0 0.21524681097417614 0.050543606451206077
v 0 0.20545373543190229 0.049607548777907989
v 0 0.35622548903771672 0.0466923427941804
v 0 -0.20328946667621584 0.049462942433711736
v 0 0.35171776588948722 -0.045509115444180986
v 0 0.25203797028423547 0.054456734018447472
v 0 0.26208781394521163 0.054897145758731919
v 0 0.27038792225801922 0.054891458342921293
v 0 -0.092894215552915743 0.043502941369118607
v 0 0.035011261876869121 -0.042577594530861282
v 0 -0.073469773851072825 -0.043060256603411645
v 0 0.14909259118214546 -0.04519227890898931
v 0 -0.27605618596725418 -0.054363611273232748
v 0 0.027492928075097695 -0.042590756396715813
v 0 -0.083582090832690858 0.043409738021507389
v 0 -0.13776191083744505 -0.044458382445953501
v 0 -0.14671573748316546 -0.044835210509322182
v 0 0.34894566711315012 0.048598028382541208
v 0 -0.21147374779864558 0.050218491355707252
v 0 -0.017722164772753117 -0.042723412716430056
v 0 -0.36187893024080187 0.043887632517943809
v 0 -0.073469773851072825 -0.043060256603411645
v 0 -0.083582090832690858 0.043409738021507389
v -0.045125419732794728 -0.077084579941072498 0.022274908066533001
v -0.018020258144028987 -0.073377902285987909 -0.039346812321070554
v -0.052056400759045746 -0.075068453038058355 0.0076976651984519912
v -0.052884804984444547 -0.074253895528877747 -0.0005549992450293277
v -0.037861693075822211 -0.072897063429717926 -0.029306127022764993
v -0.048688955927884456 -0.073152762268902133 -0.016837319628511493
v -0.027469727183625142 -0.080461316281050577 0.036020416203512179
v -0.039652707413543431 -0.078223326256327191 0.027895616862526659
v -0.049397412050900029 -0.076019472618859496 0.015448171157926193
v -0.015576989579492684 -0.082203414323864632 0.040580509104275395
v -0.024580517893349217 -0.073202352545011243 -0.036975496456214965
v -0.031293201768216372 -0.073013829499200877 -0.033692856609406269
v -0.021378500866704682 -0.081419561162085402 0.038666797560235902
v -0.033669990822378995 -0.079373071412244325 0.032489286658579176
v -0.043910041324673514 -0.072926018972489293 -0.023750925022153854
v -0.051907302378455686 -0.073598931036954196 -0.0089819691572378801
v -0.010108811909992622 -0.082797666810682069 0.041836741385601395
v -0.0049641045910904366 -0.083233545803789125 0.042736132849990352
v -0.011749225745904923 -0.073485952180606939 -0.040983508532504764
v -0.005784281082968825 -0.073505230210898734 -0.042159826928029623
v 0 -0.37867078731481663 0.03418364262335126
v 0 -0.37676404424712623 -0.03630404765123102
v -0.15277554648188776 -0.44078517156336772 0.053229426276990441
v -0.049400924223150955 -0.40341239555276331 -0.061729093802782749
v -0.17322097862072799 -0.44414358231169115 -0.022228128597556809
v -0.019267215765908868 -0.3831913962776281 -0.040945381085886412
v -0.175938139201885 -0.44547488848039818 0.0053830598678584881
v -0.069315656050242078 -0.41382405240687647 0.07061273241707082
v -0.028202434628497274 -0.39341407672931228 0.044071526568257038
v -0.075062007693876248 -0.4151421838817535 -0.072056363003652757
v -0.10233205220162156 -0.42602996134064186 0.074332007057417299
v -0.15298005391221398 -0.43782759085288009 -0.054785778186474295
v -0.16552948181488861 -0.44163004318728 -0.039640669740998412
v -0.12124153282601537 -0.43260472332492794 0.070732628785699594
v -0.17001920332062098 -0.44306933483119704 -0.031125310808694295
v -0.17604099912283711 -0.44527362665290093 -0.0038096062706608775
v -0.17231752894638863 -0.44473335401212355 0.02339366776770592
v -0.047091361136249801 -0.40504772321973426 0.058805166629093283
v -0.16443945799785348 -0.44310240216215946 0.039676401570256661
v -0.12814000761477315 -0.43063691614130761 -0.070026579884680473
v -0.1120358391946874 -0.42956036590532387 0.073052835370021774
v -0.034232208608537096 -0.39355643113393929 -0.051473099957612518
v -0.14523776496063506 -0.43553449704226238 -0.060997567345456527
v -0.06156144246108991 -0.41102237469995007 0.067468373162539022
v -0.026948683294365363 -0.38830296438171674 -0.046015609357308432
v -0.034121454153630437 -0.39778394178705623 0.048922546143264092
v -0.1689778984776692 -0.44409140463371566 0.03187696595958453
v -0.084048774238649537 -0.41822654699160244 -0.073883995406263447
v -0.17517845520243835 -0.44486775831408748 -0.013093091809383143
v -0.077013700615272046 -0.4167760174982123 0.07312956652850329
v -0.092122652409768052 -0.42219594350316902 0.074714934969088778
v -0.11927084026050355 -0.42823013715060221 -0.07280241054336159
v -0.066221777372936205 -0.41164913310343521 -0.069413234636683155
v -0.17464154204506388 -0.44522427278107812 0.014509516179845729
v -0.057680541611735012 -0.40770360862340871 -0.065889779607851168
v -0.15985912124601406 -0.43993278245327194 -0.047651298944132101
v -0.13684496465516038 -0.43304642541965349 -0.066028435585610723
v -0.12995332167478371 -0.43526124098516933 0.067620880403100908
v -0.1381240393543815 -0.4374250243333353 0.063581184144616221
v -0.084761626887043431 -0.41949255320148204 0.074321150542509054
v -0.022015236310768987 -0.38890373695039415 0.039948519769326285
v -0.041664542990607699 -0.39863372904652838 -0.056784408940921689
v -0.14572881876622834 -0.43920315754020567 0.058736781971745415
v -0.040407743203918975 -0.40164768210387958 0.053902492668164652
v -0.15905036524788116 -0.44205842314950478 0.046855249874025742
v -0.015439325492872243 -0.38453982451885443 0.036629002203778682
v -0.010171287172669741 -0.37914945554762636 -0.037487342313668598
v -0.0079777969295843319 -0.38107376399178966 0.034796286943603219
v -0.10156214562006853 -0.42340863284602592 -0.075092995442114535
v -0.054147001300308209 -0.40812163340002838 0.063417754797217757
v -0.11039033515268359 -0.42582229319612674 -0.074432213123013374
v -0.092769900950460921 -0.4209610334694236 -0.074971839243713589
v 0 0.37756501958308408 -0.031348471688254768
v 0 0.38042609940829142 0.029724414829506354
v -0.089974175566099338 0.42948765342507822 -0.069185731815151974
v -0.10903933975071198 0.43631155522511011 -0.06732834632311635
v -0.021219618250433336 0.39018966484465895 0.03892812153721309
v -0.15526097551870549 0.44879877375869059 -0.040955020681226972
v -0.16694475389595875 0.45106170319245809 -0.019459899525760459
v -0.010087208889902596 0.38056824315519583 -0.034279809102798639
v -0.067295861939633217 0.41809286801220297 0.066625546552412956
v -0.13376194595372648 0.43575508999847878 0.065009963373483817
v -0.16415270329724124 0.44764897618834787 0.032467382196564296
v -0.12702476452315084 0.44186984859995559 -0.061976369335220945
v -0.014573779420362348 0.38603206875985818 0.035100591279358953
v -0.040730181750992328 0.40123525274055316 -0.054257733269719395
v -0.063778087352429208 0.41650785435326876 -0.064952940794917716
v -0.16015495422009179 0.44985855846110367 -0.034184560982842158
v -0.16720912793512388 0.4492115690758326 0.023773166267459293
v -0.1601449155902735 0.44581143530169287 0.040730121785958501
v -0.049286962602900608 0.40956114283439393 0.058262666123337067
v -0.14941960319411723 0.44744909498480107 -0.047182839699508164
v -0.12523166538264879 0.43368150490632895 0.068782678598966779
v -0.033579369012724937 0.39581124342224483 -0.049348068820476806
v -0.13525093572033231 0.44409667591144353 -0.057866587379897597
v -0.077272295737460681 0.42170824039128574 0.069644492836597849
v -0.17024835297260096 0.45115749282981277 0.0053775916378111816
v -0.018930902890059078 0.38499670145780734 -0.038691459144321899
v -0.097160758296400501 0.42737418290700224 0.072654198329181602
v -0.080440740065209002 0.42523373671887821 -0.068468644452663319
v -0.11824071675867362 0.43935088200570194 -0.065245921258964015
v -0.16924974998217077 0.45038334781010242 0.014710209762000132
v -0.11613863756649034 0.43167513102282218 0.071290398411084116
v -0.072032210240493971 0.42105639488654567 -0.067085806291306935
v -0.057913939599730201 0.41403265504967202 0.062780727087527494
v -0.14172983450251619 0.43833324480513847 0.06054917240723251
v -0.055662866699355898 0.41173488262558566 -0.062257851763479567
v -0.10671408424947355 0.42958444162448817 0.072516295305708037
v -0.15501044200664954 0.4435277010503853 0.048264646177349949
v -0.027697838569392473 0.39485401546509574 0.04339848648758371
v -0.047932271505347693 0.40663814144934107 -0.058725045615871926
v -0.16898455871057805 0.45137477146321614 -0.011823799844509986
v -0.034310900045632205 0.39980860470075663 0.048305131502248543
v -0.14275410428777063 0.4459507801244354 -0.052896301110932131
v -0.087638653224575855 0.42487383602819573 0.071732139943328804
v -0.17003184269328947 0.45140949216275156 -0.0041139460224947546
v -0.0075455610863150498 0.38270394916757416 0.031977583032087385
v -0.099577600189171611 0.43308790426076765 -0.068709364155774777
v -0.14885859897572257 0.44098214106195588 0.054939015175569469
v -0.16405723427565594 0.45060620552022446 -0.026975221083459795
v -0.026515067071322562 0.39030888698520239 -0.043973582949810568
v -0.041445561658768754 0.40477349126973894 0.053342394475388813
v -0.14408322647757926 -0.26808008934156607 0.048572177776853034
v -0.097786871396215891 -0.34812830751212148 -0.091220134015540161
v -0.086312246855864527 -0.40299369493164283 -0.082369982056935881
v -0.14901232029594552 -0.25913515498888218 0.023285502637990556
v -0.13511020913734123 -0.28392424619688661 0.069120803898499894
v -0.11842547499297776 -0.32199900119919223 0.089401868789268008
v -0.12500543398612721 -0.3054880498418488 0.083044099856215581
v -0.13632667205933457 -0.26430156912922365 -0.04459697096354312
v -0.089037804455393887 -0.38614629252603094 -0.088116358829969599
v -0.092763176401873704 -0.36770282931606751 -0.091061257666097961
v -0.080005583798801239 -0.44255190706482106 -0.052619303224218525
v -0.076691587775634645 -0.45601570203469621 -0.025729726611029551
v -0.075123483838253027 -0.45891787125015027 -0.0068424521338086523
v -0.080201264923821208 -0.44759773556024163 0.046414215221489433
v -0.075942999716822321 -0.45564734699849252 0.025749847647172988
v -0.081248101773589765 -0.43541489872288275 -0.060552090091167049
v -0.10754880676483555 -0.35931822700876076 0.09370670927405586
v -0.095494448145527627 -0.41176317368144988 0.080502711305216648
v -0.11918296641770383 -0.29112843510263087 -0.074103330359779604
v -0.090725297619893883 -0.37712073233292387 -0.090056630296562898
v -0.085160744066399813 -0.41078888107347067 -0.07846351103730749
v -0.10315546038514778 -0.37989488456861475 0.091512452581089351
v -0.082587826083809948 -0.42721058894854369 -0.067687917648932949
v -0.10401492781849872 -0.32820728609480065 -0.088953852469408068
v -0.089354867242876404 -0.42932849573295634 0.069426130207003764
v -0.078748340642276898 -0.44856220346781184 -0.044165206131857461
v -0.075730047885239599 -0.458121473435186 -0.016315446832743656
v -0.074809227469194453 -0.45893260439961792 0.002516021521463737
v -0.07776394457631991 -0.45211099686019252 0.036492731078638006
v -0.12770811592768311 -0.27586843694630037 -0.061177375357691688
v -0.14352011726643402 -0.25788813148625633 -0.024652610301903272
v -0.14812155279294403 -0.25636806931248546 -0.0027263995398799637
v -0.084048774238649537 -0.41822654699160244 -0.073883995406263447
v -0.10073951963522307 -0.33814028887214187 -0.090514561452297082
v -0.10757405667837233 -0.31849317905716101 -0.086398426891203209
v -0.11537148971886574 -0.3308455977328566 0.091469414105697339
v -0.1009036144737947 -0.39050647113216985 0.088934332784618153
v -0.095101562436380543 -0.3580070805327808 -0.091495417763278186
v -0.087606847266455248 -0.39475750074953198 -0.085502305551267144
v -0.092122652409768052 -0.42219594350316902 0.074714934969088778
v -0.14635100649539842 -0.26427342539197868 0.040504226214062439
v -0.12838945623305781 -0.29788802158774391 0.078889189363995665
v -0.11130329773567864 -0.30903930968987564 -0.083040767236522428
v -0.083104430512828148 -0.44219229448144526 0.055294036092436424
v -0.11253361528640825 -0.34001233466155467 0.09285567425522237
v -0.13178002971410466 -0.29059570272193108 0.074417335276401569
v -0.12336921316394853 -0.28307636326182756 -0.068151072066725979
v -0.1479958990727826 -0.26137873455501837 0.031984664195802967
v -0.14903035303233358 -0.2567585861498709 0.0058162682938689286
v -0.14932445468571953 -0.257684502667063 0.014509033085866367
v -0.14617801910008671 -0.25659772656823487 -0.013852638295406804
v -0.086275180915355104 -0.43600492056103707 0.062931396350038943
v -0.074948617220330541 -0.45793814422245649 0.014341218157246413
v -0.14132985635760903 -0.27281398316408961 0.055977015702715488
v -0.13830719298254662 -0.27806782519198125 0.062868457270396555
v -0.13210485420163826 -0.26945225617109547 -0.053406143575714791
v -0.10994548811378516 -0.34950811879372179 0.093479955069608212
v -0.1401901864310586 -0.26043947688883196 -0.034957549189157194
v -0.10532247402057927 -0.36946508076143769 0.093061229194160003
v -0.07765351302278814 -0.4530004292891473 -0.035103999479255597
v -0.11517520282143349 -0.29989785500172123 -0.078942184197967336
v -0.098407117151475293 -0.40114883827992115 0.085199432199830449
v -0.12166161773794729 -0.31349609046104188 0.086672458914424405
v -0.077565787154843094 0.44403824338589026 -0.049372958359420974
v -0.10707469327304268 0.31902534015828521 0.086675284124926949
v -0.13001722136484251 0.26154854100031621 -0.041989806986421602
v -0.13909958520163873 0.25608607616183077 0.022890213699174787
v -0.087182331270545477 0.43005236503751043 0.068071630715018441
v -0.13148576113858998 0.26493890564513606 0.047695670811532059
v -0.092056339805832055 0.34929464711861286 -0.090308907467665456
v -0.094364052430573858 0.37199160954966348 0.091593694165096121
v -0.076336060994315863 0.45312721687976343 -0.034385886598857815
v -0.096851009153073014 0.32887010416254714 -0.087595753696510265
v -0.10578133629633427 0.30140417581980244 -0.078309180633644837
v -0.10996187204863743 0.30971742711800243 0.083513631901318969
v -0.11862493130040906 0.28632248005497984 0.071324460171026477
v -0.12121031426012015 0.27168655524850127 -0.057541223331776394
v -0.07938288563031573 0.43213988745128001 -0.062738304970730643
v -0.085985024049083258 0.44010130348941645 0.058804806634582513
v -0.081732988399582318 0.45667848935108629 0.032178014024308033
v -0.085097821086676642 0.44500854446730154 0.05323421701994506
v -0.078399495050133328 0.46114354235257188 0.0073205325618958912
v -0.14033810489938275 0.25475891754770785 0.013836625246933333
v -0.13388169886187479 0.25812196115807368 -0.032934611041327097
v -0.13711064364293879 0.25827435739883964 0.03166902032139722
v -0.12569509021982003 0.26606315207577746 -0.050253778358593432
v -0.12819973938416276 0.26948601197522987 0.054549150126138625
v -0.088273394277959827 0.37041875416079539 -0.089707622934457346
v -0.081574394802188699 0.41742890496358209 -0.073910305183704145
v -0.089544781148864272 0.4045601044722168 0.083012522031528507
v -0.098865802706774697 0.35004633334506108 0.092100232610251687
v -0.086647721452854348 0.43513301962014561 0.063779431657395691
v -0.099641980720916568 0.31924743951795642 -0.08512197927033649
v -0.077465900579004252 0.46113002160293604 -0.001161534736388966
v -0.084048581295104868 0.44954222333260541 0.046899529060139389
v -0.10913423863222499 0.29313592265637323 -0.074169019953437235
v -0.11685480611465227 0.27820881105004625 -0.063862089906159547
v -0.13709077292503741 0.25559737569475072 -0.023312344915265279
v -0.080440740065209002 0.42523373671887821 -0.068468644452663319
v -0.088511410876482288 0.41485375076042597 0.0778035738049975
v -0.14048999623849923 0.253935609916972 -0.0043026029373381906
v -0.090869254574088898 0.39390577030088547 0.087025138003321706
v -0.076231388043231971 0.45884594229496889 -0.018112242558207016
v -0.0784356369777649 0.43841176570933493 -0.056297107808833832
v -0.090066833619093817 0.35985898282985135 -0.090385622003359256
v -0.08392141179640128 0.40025808728294354 -0.082727298611717848
v -0.096474938189802101 0.36096829865472269 0.092396874502621795
v -0.094300531555997796 0.33890773177413036 -0.089395469160839347
v -0.086672378175760123 0.38078583449914094 -0.088209686804525123
v -0.085203301985583763 0.39080444075625176 -0.085994640548335319
v -0.076833814031326095 0.44900040451619494 -0.042077411674821152
v -0.082930642856225645 0.4534407907435134 0.039809969788490801
v -0.10144772585147598 0.33932494690379689 0.091053117031395542
v -0.079450357724048126 0.46044063952284287 0.015767603140009627
v -0.13451526890915688 0.26124447538033296 0.039990687291942897
v -0.112831025895655 0.3011089399768237 0.079910234651421802
v -0.10420006896404105 0.32892925917070659 0.089256016496556956
v -0.10265726748870521 0.31015199787735426 -0.081865741272146492
v -0.1157046421978101 0.29334416664978336 0.075782747233239689
v -0.12168353119696679 0.28009034567375801 0.066325434705857417
v -0.13936824457491112 0.25430913355446083 -0.013162050224343962
v -0.12489109615873384 0.27453245669319171 0.060735119691592093
v -0.092498886267218555 0.38300190139334495 0.089814746677613758
v -0.087638653224575855 0.42487383602819573 0.071732139943328804
v -0.14079545215484901 0.25411261874216029 0.0047250947065838565
v -0.11281323344816375 0.28540185778486382 -0.06935838378575003
v -0.076171135190951408 0.45631279863362734 -0.026337624966756783
v -0.082753453106755137 0.40908618151517184 -0.078587015446647257
v -0.08052126549072125 0.45910381953145518 0.024130689800030906
v -0.076720214010565141 0.46038226142909366 -0.0096782807540959116
v 0 -0.39336473517651349 -3.4139502442274289e-05
v 0 0.39223570699784666 -0.0028083678376597081
v -0.16546012116627595 -0.4548728350185165 -0.0039979973494383061
v -0.051985400482076165 0.44354992506088942 -5.33082693805436e-06
v -0.068417539325135682 0.45605274951674318 -0.00078273867708180918
v -0.037905710754643329 0.42947362770843822 0.00058104472348035263
v -0.10562723404324864 -0.23921283265362364 -0.0024974437937102093
v -0.088393357091567593 -0.2243558075963438 -0.0016103838055585165
v -0.052299711699243731 0.038111480087386837 -0.0019711786458497674
v -0.05195038474577017 0.004142067871884092 -0.0016344637250239376
v -0.086217332046778089 0.46545923651093107 -0.0015115048249212965
v -0.023466439740910741 -0.41066211220632109 0.0014426489945680945
v -0.035659281008895781 -0.42640691169989631 0.0020580785368426906
v -0.049439679644914247 -0.44116863298538483 0.0023675195689160048
v -0.068419415972809733 -0.19359456831243249 -0.00059338959224736188
v -0.073653464248593065 -0.20493669626897332 -0.00079244146142188015
v -0.080623742153788286 -0.21513376229958001 -0.0011601658125212732
v -0.084504927061726645 -0.46391834151582401 0.0023001403622372385
v -0.065800679962220707 -0.45370891108927225 0.0025543734281667915
v -0.0093813869903166328 -0.39675522851478318 0.00043983968614315144
v -0.143991199174586 -0.46741971234590329 -0.0026287480122780191
v -0.17891449239425672 -0.27173911874273937 -0.00015401114787940231
v -0.15915067217402823 -0.26069910577616745 -0.001993429028742809
v -0.015209357929610461 0.4003511291175606 -0.00073593705098472587
v -0.064409561491367506 -0.18182043936885811 -0.00056723547955978676
v -0.061460488928790871 -0.16998031093695984 -0.00066086534293889848
v -0.21510443541422353 -0.34184302352170293 8.1447473817541593e-05
v -0.21532829938391207 -0.36134486208085331 -0.0010674353025706021
v -0.19207719122215355 0.42632561989122242 -0.004478473007983581
v -0.20188034798964108 -0.40975378005390484 -0.0020846019154576222
v -0.16029993285395522 0.26239391861673855 -0.014653313560305557
v -0.13564322382310995 0.4706581660937042 -0.0034587325905376734
v -0.19991822234120771 -0.29551236921051371 0.0019880964250478103
v -0.13192694777856401 0.25181474624445632 -0.012484369570330885
v -0.20942397724016187 -0.39065700502893269 -0.0017167623269692717
v -0.21496250061201982 0.36304864327652375 -0.0048022999774006729
v -0.13262147984582329 -0.25108424828004161 -0.003168415510225541
v -0.1591332195693976 -0.45950839884893285 -0.0037866722190093632
v -0.11535632327970693 -0.47231161627072837 0.00027117026411742611
v -0.017132041982186492 -0.40300923357009433 0.00094933112018592391
v -0.21404962231988128 -0.37115493124095422 -0.001396920996300551
v -0.2155713975570252 0.34452677659880371 -0.0057481978430717531
v -0.21256443474895473 0.32645066582451732 -0.0075843205532671928
v -0.16957584754419092 0.26723464706224237 -0.015014077057724425
v -0.19750530784712161 0.41746867517634723 -0.0045177604850152346
v -0.18521349002302356 0.27931618013987092 -0.014728068069018685
v -0.15019189647133502 0.25819145450067649 -0.014008196051878169
v -0.17604099912283711 -0.44527362665290093 -0.0038096062706608775
v -0.20632243449319324 0.39965065321279158 -0.0044717866063709189
v -0.099057167205535146 0.23557962095500778 -0.0090709764425478678
v -0.091697791497085387 0.22898633141889785 -0.0083887217425301502
v -0.057838801220523456 -0.14689160688232678 -0.00075445364911704265
v -0.12393137022800581 0.24899569541788585 -0.011674963659402706
v -0.055329050522229174 -0.12481345861191417 -0.00057612031741208604
v -0.056042170221619822 0.12925641978237573 -0.004158177867366001
v -0.21394601015562248 0.37231903362045071 -0.0045811133749541861
v -0.052884804984444547 -0.074253895528877747 -0.0005549992450293277
v -0.05439674786841385 0.098486767592360538 -0.0035642177867396194
v -0.053761031649817423 0.078350363819041272 -0.0030966080444509944
v -0.052814418246216313 0.048544986343079209 -0.0022890014965716273
v -0.07395785666339319 0.20602463239277632 -0.0066700169721465932
v -0.052260795560000226 0.015801855637059659 -0.0017269201368929096
v -0.052183313586039594 -0.0075927166725372405 -0.0016146209118565267
v -0.052593470702784959 -0.030623508546333916 -0.0015463252585325915
v -0.052903570818983323 -0.052695645686885798 -0.0011831981761656692
v -0.055414354723294992 0.11899441022459267 -0.0039767257726651406
v -0.053395796862047221 0.068476087053184337 -0.0028357645745802143
v -0.11552874556462561 0.24559150756822001 -0.010776789081770967
v -0.061334259360067783 0.1694515111868696 -0.0051264601761747929
v -0.059547204578616855 0.15959907184387306 -0.004837287117467874
v -0.15447527945723402 0.46264606273866826 -0.0039023352631708226
v -0.094597708397485408 -0.46791528761782064 0.0018501299727219987
v -0.077465900579004252 0.46113002160293604 -0.001161534736388966
v -0.10493533733454591 -0.47082473338081338 0.0011507796548769441
v -0.059900375602859948 0.45010467153038991 -0.00039249219671336352
v -0.10704955506536235 0.241253124819895 -0.009862521030307745
v -0.074809227469194453 -0.45893260439961792 0.002516021521463737
v -0.21572182267931483 -0.35154825420616598 -0.00056498325047022184
v -0.044705282936988597 0.43657942226596841 0.00033958262216699181
v -0.057357311917942501 -0.44770411426796308 0.0024798304283799432
v -0.20979594850145872 0.31779231243071904 -0.0088553439574512345
v -0.069780651470335769 0.19740922106280234 -0.0062244816211142967
v -0.042236407160896799 -0.43400967736616503 0.0022341385978840549
v -0.21560069814172805 0.35377917968938144 -0.0051772446378504401
v -0.066294990029939771 0.18843349656500658 -0.005809740958054907
v -0.079035893321731124 0.21417407274946071 -0.0071831087720105758
v -0.08487650722034093 0.22192215467471393 -0.0077337385000692937
v -0.21209802102588821 -0.38094247934279135 -0.0015848971131736456
v -0.21179047539590562 -0.32277511955494964 0.0014599985354916767
v -0.12538755184141681 0.4723263159532155 -0.0030909155524592889
v -0.063637123111159571 0.17905889906666506 -0.0054685282919247017
v -0.029471064884341099 -0.41858127958107683 0.0018070254580761702
v -0.16951950362655077 -0.26567980088301679 -0.0011125140506770838
v -0.031820287115104311 0.42207809411412323 0.00064851989670557759
v -0.12555744656807996 -0.47217168448106484 -0.00072122379777202856
v -0.14812155279294403 -0.25636806931248546 -0.0027263995398799637
v -0.059596589133678851 -0.15826926229335392 -0.00072749872153928007
v -0.058056515710665856 0.14959148226771263 -0.0045780768714409285
v -0.056468714904608898 -0.13574852189013242 -0.00071114735507384367
v -0.21444841936293418 0.33539485977412203 -0.0065432130631329789
v -0.056762986863659437 0.13947925078837387 -0.0043375745084277386
v -0.020896221759321557 0.40722745827069384 6.4977953911534084e-06
v -0.16272655913964829 0.45730238304996379 -0.0040145032127868298
v -0.054825613527261882 0.10872386178184981 -0.0037745492764812063
v -0.20966309010949202 0.39064675679578831 -0.0044423589880531519
v -0.17784074209915107 0.27296575011162594 -0.015057797667330185
v -0.054425602296383387 -0.11409640025179288 -0.00040597725370742987
v -0.054065562541278589 0.088347530371394589 -0.0033376288659347445
v -0.19178739499750885 0.28614124470354274 -0.014055204464702323
v -0.17845475950887585 0.44342208341999156 -0.0042551719303756293
v -0.054045092876265119 -0.10363853348998828 -0.00028660987467763713
v -0.05277148528266367 -0.041772036403630218 -0.0014161467306386154
v -0.11487274582207982 -0.24429270306352305 -0.0028662059786608756
v -0.053040087112619788 -0.083761561988751371 -0.00034419000133613592
v -0.1869978669458735 -0.27902583445494145 0.00076120820831952155
v -0.052493696469558392 -0.01921695650175536 -0.0016026576554684607
v -0.053220680842560195 0.058600796572916516 -0.002579919676180382
v -0.052459872272580185 0.027179889404213363 -0.0018492440732517344
v -0.19106988672073849 -0.42819163487589673 -0.0028486297062992839
v -0.1841051926072137 -0.43692980314115415 -0.0033399505323617167
v -0.20222809014003446 0.40856719443269529 -0.0045089188548293867
v -0.14541629598718606 0.46724809114030541 -0.0037258621511161881
v -0.19693883347095598 -0.41908813424500652 -0.0024157013626116539
v -0.20222628557266265 0.30130220204997638 -0.011703600392050102
v -0.21214267287293237 0.38151770504289173 -0.0044639344620491239
v -0.053484750809486552 -0.093533101789594869 -0.00026493411631463298
v -0.14067631263473124 -0.25368865932245011 -0.0030455405263753411
v -0.19746491026869514 0.29348591923407241 -0.013014324554124485
v -0.19393355840970219 -0.28705609855570319 0.0015089236714238711
v -0.09669923961494524 -0.23253013457649963 -0.0020669222579242771
v -0.0083001559272648691 0.39491874994229148 -0.0016836050394666059
v -0.026376442306367286 0.4145016305611875 0.0004695061886703214
v -0.13515652737210268 -0.4703095064376398 -0.0017309809249309079
v -0.13936824457491112 0.25430913355446083 -0.013162050224343962
v -0.095419595121572984 0.46876273933366741 -0.0018683972323925088
v -0.20604623919815362 -0.4002759934750949 -0.0018637807985881847
v -0.18579944466409401 0.43504127286461447 -0.0043873869553258176
v -0.20884591259185215 -0.31345172317244263 0.0019505108835606508
v -0.17003184269328947 0.45140949216275156 -0.0041139460224947546
v -0.17104343124673627 -0.45003848230387755 -0.0039899976475125699
v -0.10505162051890167 0.47111957298652202 -0.0022516885565015631
v -0.20483348577041971 -0.30436910074538492 0.0021413308530317649
v -0.2061942398201087 0.309470772445812 -0.010259947373650789
v -0.11509087830018769 0.47237129007712381 -0.0026681117730979363
v -0.21384285012681081 -0.33224727312069968 0.00079467482473072305
v -0.052739268598292553 -0.063479256357919317 -0.00087172907132614021
v -0.15196806101458271 -0.46371341208205186 -0.0033286511170414002
v -0.1239795360983128 -0.24809136945868837 -0.00310114353125065
l 21/21 20/20
l 20/20 19/19
l 19/19 2/2
l 2/2 11/11
l 11/11 12/12
l 12/12 5/5
l 5/5 15/15
l 15/15 6/6
l 6/6 16/16
l 16/16 4/4
l 4/4 3/3
l 3/3 9/9
l 9/9 1/1
l 1/1 8/8
l 8/8 14/14
l 14/14 7/7
l 7/7 13/13
l 13/13 10/10
l 10/10 17/17
l 17/17 18/18
l 18/18 22/22
l 68/68 69/69
l 69/69 26/26
l 26/26 45/45
l 45/45 42/42
l 42/42 62/62
l 62/62 24/24
l 24/24 55/55
l 55/55 53/53
l 53/53 30/30
l 30/30 48/48
l 48/48 74/74
l 74/74 71/71
l 71/71 73/73
l 73/73 52/52
l 52/52 40/40
l 40/40 57/57
l 57/57 43/43
l 43/43 32/32
l 32/32 56/56
l 56/56 33/33
l 33/33 35/35
l 35/35 25/25
l 25/25 49/49
l 49/49 36/36
l 36/36 27/27
l 27/27 54/54
l 54/54 37/37
l 37/37 47/47
l 47/47 39/39
l 39/39 65/65
l 65/65 23/23
l 23/23 63/63
l 63/63 59/59
l 59/59 58/58
l 58/58 34/34
l 34/34 41/41
l 41/41 31/31
l 31/31 51/51
l 51/51 60/60
l 60/60 50/50
l 50/50 28/28
l 28/28 44/44
l 44/44 72/72
l 72/72 38/38
l 38/38 64/64
l 64/64 46/46
l 46/46 29/29
l 29/29 61/61
l 61/61 66/66
l 66/66 70/70
l 70/70 67/67
l 116/116 80/80
l 80/80 98/98
l 98/98 123/123
l 123/123 94/94
l 94/94 86/86
l 86/86 111/111
l 111/111 107/107
l 107/107 87/87
l 87/87 104/104
l 104/104 100/100
l 100/100 75/75
l 75/75 120/120
l 120/120 76/76
l 76/76 101/101
l 101/101 84/84
l 84/84 95/95
l 95/95 114/114
l 114/114 92/92
l 92/92 78/78
l 78/78 88/88
l 88/88 122/122
l 122/122 79/79
l 79/79 112/112
l 112/112 118/118
l 118/118 97/97
l 97/97 102/102
l 102/102 89/89
l 89/89 83/83
l 83/83 90/90
l 90/90 109/109
l 109/109 121/121
l 121/121 106/106
l 106/106 82/82
l 82/82 93/93
l 93/93 103/103
l 103/103 108/108
l 108/108 99/99
l 99/99 115/115
l 115/115 96/96
l 96/96 81/81
l 81/81 105/105
l 105/105 91/91
l 91/91 124/124
l 124/124 113/113
l 113/113 110/110
l 110/110 77/77
l 77/77 85/85
l 85/85 119/119
l 119/119 117/117
l 176/176 168/168
l 168/168 138/138
l 138/138 153/153
l 153/153 139/139
l 139/139 177/177
l 177/177 152/152
l 152/152 137/137
l 137/137 151/151
l 151/151 136/136
l 136/136 184/184
l 184/184 150/150
l 150/150 135/135
l 135/135 140/140
l 140/140 147/147
l 147/147 157/157
l 157/157 145/145
l 145/145 127/127
l 127/127 163/163
l 163/163 133/133
l 133/133 144/144
l 144/144 134/134
l 134/134 162/162
l 162/162 126/126
l 126/126 158/158
l 158/158 148/148
l 148/148 159/159
l 159/159 167/167
l 167/167 185/185
l 185/185 143/143
l 143/143 171/171
l 171/171 154/154
l 154/154 180/180
l 180/180 132/132
l 132/132 182/182
l 182/182 155/155
l 155/155 175/175
l 175/175 156/156
l 156/156 173/173
l 173/173 174/174
l 174/174 128/128
l 128/128 172/172
l 172/172 165/165
l 165/165 125/125
l 125/125 178/178
l 178/178 179/179
l 179/179 129/129
l 129/129 170/170
l 170/170 166/166
l 166/166 131/131
l 131/131 187/187
l 187/187 130/130
l 130/130 160/160
l 160/160 169/169
l 169/169 181/181
l 181/181 141/141
l 141/141 183/183
l 183/183 146/146
l 146/146 161/161
l 161/161 186/186
l 186/186 142/142
l 142/142 164/164
l 164/164 149/149
l 149/149 176/176
l 220/220 198/198
l 198/198 242/242
l 242/242 217/217
l 217/217 197/197
l 197/197 232/232
l 232/232 194/194
l 194/194 229/229
l 229/229 212/212
l 212/212 233/233
l 233/233 234/234
l 234/234 230/230
l 230/230 252/252
l 252/252 213/213
l 213/213 223/223
l 223/223 202/202
l 202/202 228/228
l 228/228 188/188
l 188/188 235/235
l 235/235 196/196
l 196/196 251/251
l 251/251 227/227
l 227/227 254/254
l 254/254 218/218
l 218/218 206/206
l 206/206 238/238
l 238/238 253/253
l 253/253 204/204
l 204/204 236/236
l 236/236 219/219
l 219/219 205/205
l 205/205 203/203
l 203/203 216/216
l 216/216 192/192
l 192/192 248/248
l 248/248 224/224
l 224/224 214/214
l 214/214 226/226
l 226/226 247/247
l 247/247 195/195
l 195/195 231/231
l 231/231 215/215
l 215/215 237/237
l 237/237 241/241
l 241/241 189/189
l 189/189 199/199
l 199/199 240/240
l 240/240 243/243
l 243/243 200/200
l 200/200 244/244
l 244/244 246/246
l 246/246 211/211
l 211/211 193/193
l 193/193 239/239
l 239/239 209/209
l 209/209 191/191
l 191/191 207/207
l 207/207 249/249
l 249/249 225/225
l 225/225 245/245
l 245/245 222/222
l 222/222 208/208
l 208/208 190/190
l 190/190 210/210
l 210/210 201/201
l 201/201 221/221
l 221/221 250/250
l 250/250 220/220
l 391/391 383/383
l 383/383 276/276
l 276/276 354/354
l 354/354 384/384
l 384/384 346/346
l 346/346 258/258
l 258/258 331/331
l 331/331 256/256
l 256/256 327/327
l 327/327 257/257
l 257/257 325/325
l 325/325 263/263
l 263/263 387/387
l 387/387 395/395
l 395/395 398/398
l 398/398 342/342
l 342/342 284/284
l 284/284 374/374
l 374/374 323/323
l 323/323 355/355
l 355/355 393/393
l 393/393 362/362
l 362/362 389/389
l 389/389 281/281
l 281/281 297/297
l 297/297 373/373
l 373/373 301/301
l 301/301 357/357
l 357/357 377/377
l 377/377 308/308
l 308/308 288/288
l 288/288 336/336
l 336/336 294/294
l 294/294 352/352
l 352/352 295/295
l 295/295 333/333
l 333/333 397/397
l 397/397 376/376
l 376/376 380/380
l 380/380 361/361
l 361/361 298/298
l 298/298 358/358
l 358/358 296/296
l 296/296 283/283
l 283/283 299/299
l 299/299 386/386
l 386/386 286/286
l 286/286 305/305
l 305/305 320/320
l 320/320 328/328
l 328/328 302/302
l 302/302 303/303
l 303/303 339/339
l 339/339 338/338
l 338/338 313/313
l 313/313 334/334
l 334/334 337/337
l 337/337 343/343
l 343/343 321/321
l 321/321 322/322
l 322/322 350/350
l 350/350 353/353
l 353/353 307/307
l 307/307 318/318
l 318/318 356/356
l 356/356 310/310
l 310/310 360/360
l 360/360 311/311
l 311/311 319/319
l 319/319 369/369
l 369/369 312/312
l 312/312 261/261
l 261/261 370/370
l 370/370 314/314
l 314/314 262/262
l 262/262 315/315
l 315/315 368/368
l 368/368 316/316
l 316/316 364/364
l 364/364 317/317
l 317/317 400/400
l 400/400 309/309
l 309/309 366/366
l 366/366 378/378
l 378/378 363/363
l 363/363 359/359
l 359/359 306/306
l 306/306 351/351
l 351/351 304/304
l 304/304 349/349
l 349/349 278/278
l 278/278 277/277
l 277/277 267/267
l 267/267 268/268
l 268/268 269/269
l 269/269 260/260
l 260/260 382/382
l 382/382 259/259
l 259/259 365/365
l 365/365 402/402
l 402/402 289/289
l 289/289 379/379
l 379/379 348/348
l 348/348 275/275
l 275/275 345/345
l 345/345 274/274
l 274/274 367/367
l 367/367 381/381
l 381/381 285/285
l 285/285 396/396
l 396/396 392/392
l 392/392 341/341
l 341/341 399/399
l 399/399 279/279
l 279/279 330/330
l 330/330 280/280
l 280/280 293/293
l 293/293 340/340
l 340/340 287/287
l 287/287 388/388
l 388/388 282/282
l 282/282 375/375
l 375/375 371/371
l 371/371 372/372
l 372/372 300/300
l 300/300 394/394
l 394/394 255/255
l 255/255 290/290
l 290/290 401/401
l 401/401 273/273
l 273/273 385/385
l 385/385 347/347
l 347/347 291/291
l 291/291 326/326
l 326/326 324/324
l 324/324 270/270
l 270/270 329/329
l 329/329 271/271
l 271/271 332/332
l 332/332 266/266
l 266/266 335/335
l 335/335 265/265
l 265/265 344/344
l 344/344 264/264
l 264/264 292/292
l 292/292 272/272
l 272/272 390/390
l 403/403 419/419
l 403/403 422/422
l 404/404 495/495
l 404/404 557/557
l 405/405 427/427
l 405/405 436/436
l 406/406 431/431
l 406/406 555/555
l 407/407 436/436
l 407/407 545/545
l 408/408 471/471
l 408/408 537/537
l 409/409 410/410
l 409/409 491/491
l 410/410 538/538
l 411/411 422/422
l 411/411 489/489
l 412/412 498/498
l 412/412 534/534
l 413/413 452/452
l 413/413 533/533
l 414/414 441/441
l 414/414 566/566
l 415/415 454/454
l 415/415 559/559
l 416/416 420/420
l 416/416 529/529
l 417/417 478/478
l 417/417 499/499
l 418/418 445/445
l 418/418 450/450
l 419/419 445/445
l 420/420 530/530
l 421/421 535/535
l 421/421 589/589
l 423/423 464/464
l 423/423 572/572
l 424/424 556/556
l 424/424 583/583
l 425/425 442/442
l 425/425 502/502
l 426/426 449/449
l 426/426 470/470
l 427/427 562/562
l 428/428 450/450
l 428/428 571/571
l 429/429 488/488
l 429/429 570/570
l 430/430 460/460
l 430/430 474/474
l 431/431 545/545
l 432/432 448/448
l 432/432 484/484
l 433/433 566/566
l 433/433 582/582
l 434/434 481/481
l 434/434 554/554
l 435/435 458/458
l 435/435 509/509
l 437/437 489/489
l 437/437 490/490
l 438/438 555/555
l 438/438 584/584
l 439/439 485/485
l 439/439 529/529
l 440/440 492/492
l 440/440 562/562
l 441/441 508/508
l 442/442 462/462
l 443/443 463/463
l 443/443 580/580
l 444/444 479/479
l 444/444 500/500
l 446/446 557/557
l 446/446 565/565
l 447/447 451/451
l 447/447 468/468
l 448/448 549/549
l 449/449 465/465
l 451/451 456/456
l 452/452 505/505
l 453/453 484/484
l 453/453 501/501
l 454/454 573/573
l 455/455 540/540
l 455/455 582/582
l 456/456 567/567
l 457/457 513/513
l 457/457 534/534
l 458/458 498/498
l 459/459 564/564
l 459/459 577/577
l 460/460 510/510
l 461/461 466/466
l 461/461 514/514
l 462/462 508/508
l 463/463 525/525
l 464/464 497/497
l 465/465 476/476
l 466/466 501/501
l 467/467 576/576
l 467/467 577/577
l 468/468 511/511
l 469/469 473/473
l 469/469 590/590
l 470/470 500/500
l 471/471 505/505
l 472/472 477/477
l 472/472 512/512
l 473/473 539/539
l 474/474 511/511
l 475/475 476/476
l 475/475 590/590
l 477/477 540/540
l 478/478 504/504
l 479/479 517/517
l 480/480 499/499
l 480/480 552/552
l 481/481 515/515
l 482/482 519/519
l 482/482 548/548
l 483/483 519/519
l 483/483 520/520
l 485/485 523/523
l 486/486 512/512
l 486/486 532/532
l 487/487 522/522
l 487/487 561/561
l 488/488 506/506
l 490/490 491/491
l 492/492 538/538
l 493/493 565/565
l 493/493 580/580
l 494/494 579/579
l 494/494 583/583
l 495/495 568/568
l 496/496 570/570
l 496/496 571/571
l 497/497 528/528
l 502/502 517/517
l 503/503 531/531
l 503/503 539/539
l 504/504 528/528
l 506/506 575/575
l 507/507 531/531
l 507/507 558/558
l 509/509 558/558
l 510/510 514/514
l 513/513 588/588
l 515/515 516/516
l 516/516 532/532
l 518/518 548/548
l 518/518 559/559
l 520/520 541/541
l 521/521 578/578
l 521/521 584/584
l 522/522 525/525
l 523/523 524/524
l 524/524 543/543
l 526/526 535/535
l 526/526 556/556
l 527/527 530/530
l 527/527 542/542
l 533/533 587/587
l 536/536 554/554
l 536/536 586/586
l 537/537 564/564
l 541/541 578/578
l 542/542 579/579
l 543/543 581/581
l 544/544 575/575
l 544/544 576/576
l 546/546 569/569
l 546/546 581/581
l 547/547 567/567
l 547/547 574/574
l 549/549 569/569
l 550/550 552/552
l 550/550 574/574
l 551/551 585/585
l 551/551 586/586
l 553/553 572/572
l 553/553 587/587
l 560/560 573/573
l 560/560 588/588
l 561/561 585/585
l 563/563 568/568
l 563/563 589/589
l 591/591 612/612
l 612/612 611/611
l 611/611 594/594
l 594/594 603/603
l 603/603 604/604
l 604/604 597/597
l 597/597 607/607
l 607/607 598/598
l 598/598 608/608
l 608/608 596/596
l 596/596 595/595
l 595/595 601/601
l 601/601 593/593
l 593/593 600/600
l 600/600 606/606
l 606/606 599/599
l 599/599 605/605
l 605/605 602/602
l 602/602 609/609
l 609/609 610/610
l 610/610 592/592
l 614/614 659/659
l 659/659 618/618
l 618/618 637/637
l 637/637 634/634
l 634/634 654/654
l 654/654 616/616
l 616/616 647/647
l 647/647 645/645
l 645/645 622/622
l 622/622 640/640
l 640/640 664/664
l 664/664 661/661
l 661/661 663/663
l 663/663 644/644
l 644/644 632/632
l 632/632 649/649
l 649/649 635/635
l 635/635 624/624
l 624/624 648/648
l 648/648 625/625
l 625/625 627/627
l 627/627 617/617
l 617/617 641/641
l 641/641 628/628
l 628/628 619/619
l 619/619 646/646
l 646/646 629/629
l 629/629 639/639
l 639/639 631/631
l 631/631 657/657
l 657/657 615/615
l 615/615 655/655
l 655/655 651/651
l 651/651 650/650
l 650/650 626/626
l 626/626 633/633
l 633/633 623/623
l 623/623 643/643
l 643/643 652/652
l 652/652 642/642
l 642/642 620/620
l 620/620 636/636
l 636/636 662/662
l 662/662 630/630
l 630/630 656/656
l 656/656 638/638
l 638/638 621/621
l 621/621 653/653
l 653/653 658/658
l 658/658 660/660
l 660/660 613/613
l 665/665 672/672
l 672/672 690/690
l 690/690 713/713
l 713/713 686/686
l 686/686 678/678
l 678/678 703/703
l 703/703 699/699
l 699/699 679/679
l 679/679 696/696
l 696/696 692/692
l 692/692 667/667
l 667/667 710/710
l 710/710 668/668
l 668/668 693/693
l 693/693 676/676
l 676/676 687/687
l 687/687 706/706
l 706/706 684/684
l 684/684 670/670
l 670/670 680/680
l 680/680 712/712
l 712/712 671/671
l 671/671 704/704
l 704/704 708/708
l 708/708 689/689
l 689/689 694/694
l 694/694 681/681
l 681/681 675/675
l 675/675 682/682
l 682/682 701/701
l 701/701 711/711
l 711/711 698/698
l 698/698 674/674
l 674/674 685/685
l 685/685 695/695
l 695/695 700/700
l 700/700 691/691
l 691/691 707/707
l 707/707 688/688
l 688/688 673/673
l 673/673 697/697
l 697/697 683/683
l 683/683 714/714
l 714/714 705/705
l 705/705 702/702
l 702/702 669/669
l 669/669 677/677
l 677/677 709/709
l 709/709 666/666
l 766/766 758/758
l 758/758 728/728
l 728/728 743/743
l 743/743 729/729
l 729/729 767/767
l 767/767 742/742
l 742/742 727/727
l 727/727 741/741
l 741/741 726/726
l 726/726 774/774
l 774/774 740/740
l 740/740 725/725
l 725/725 730/730
l 730/730 737/737
l 737/737 747/747
l 747/747 735/735
l 735/735 717/717
l 717/717 753/753
l 753/753 723/723
l 723/723 734/734
l 734/734 724/724
l 724/724 752/752
l 752/752 716/716
l 716/716 748/748
l 748/748 738/738
l 738/738 749/749
l 749/749 757/757
l 757/757 775/775
l 775/775 733/733
l 733/733 761/761
l 761/761 744/744
l 744/744 770/770
l 770/770 722/722
l 722/722 772/772
l 772/772 745/745
l 745/745 765/765
l 765/765 746/746
l 746/746 763/763
l 763/763 764/764
l 764/764 718/718
l 718/718 762/762
l 762/762 755/755
l 755/755 715/715
l 715/715 768/768
l 768/768 769/769
l 769/769 719/719
l 719/719 760/760
l 760/760 756/756
l 756/756 721/721
l 721/721 777/777
l 777/777 720/720
l 720/720 750/750
l 750/750 759/759
l 759/759 771/771
l 771/771 731/731
l 731/731 773/773
l 773/773 736/736
l 736/736 751/751
l 751/751 776/776
l 776/776 732/732
l 732/732 754/754
l 754/754 739/739
l 739/739 766/766
l 810/810 788/788
l 788/788 832/832
l 832/832 807/807
l 807/807 787/787
l 787/787 822/822
l 822/822 784/784
l 784/784 819/819
l 819/819 802/802
l 802/802 823/823
l 823/823 824/824
l 824/824 820/820
l 820/820 842/842
l 842/842 803/803
l 803/803 813/813
l 813/813 792/792
l 792/792 818/818
l 818/818 778/778
l 778/778 825/825
l 825/825 786/786
l 786/786 841/841
l 841/841 817/817
l 817/817 844/844
l 844/844 808/808
l 808/808 796/796
l 796/796 828/828
l 828/828 843/843
l 843/843 794/794
l 794/794 826/826
l 826/826 809/809
l 809/809 795/795
l 795/795 793/793
l 793/793 806/806
l 806/806 782/782
l 782/782 838/838
l 838/838 814/814
l 814/814 804/804
l 804/804 816/816
l 816/816 837/837
l 837/837 785/785
l 785/785 821/821
l 821/821 805/805
l 805/805 827/827
l 827/827 831/831
l 831/831 779/779
l 779/779 789/789
l 789/789 830/830
l 830/830 833/833
l 833/833 790/790
l 790/790 834/834
l 834/834 836/836
l 836/836 801/801
l 801/801 783/783
l 783/783 829/829
l 829/829 799/799
l 799/799 781/781
l 781/781 797/797
l 797/797 839/839
l 839/839 815/815
l 815/815 835/835
l 835/835 812/812
l 812/812 798/798
l 798/798 780/780
l 780/780 800/800
l 800/800 791/791
l 791/791 811/811
l 811/811 840/840
l 840/840 810/810
l 846/846 975/975
l 975/975 868/868
l 868/868 946/946
l 946/946 976/976
l 976/976 938/938
l 938/938 850/850
l 850/850 923/923
l 923/923 848/848
l 848/848 919/919
l 919/919 849/849
l 849/849 917/917
l 917/917 855/855
l 855/855 979/979
l 979/979 985/985
l 985/985 988/988
l 988/988 934/934
l 934/934 876/876
l 876/876 966/966
l 966/966 915/915
l 915/915 947/947
l 947/947 983/983
l 983/983 954/954
l 954/954 981/981
l 981/981 873/873
l 873/873 889/889
l 889/889 965/965
l 965/965 893/893
l 893/893 949/949
l 949/949 969/969
l 969/969 900/900
l 900/900 880/880
l 880/880 928/928
l 928/928 886/886
l 886/886 944/944
l 944/944 887/887
l 887/887 925/925
l 925/925 987/987
l 987/987 968/968
l 968/968 972/972
l 972/972 953/953
l 953/953 890/890
l 890/890 950/950
l 950/950 888/888
l 888/888 875/875
l 875/875 891/891
l 891/891 978/978
l 978/978 878/878
l 878/878 897/897
l 897/897 912/912
l 912/912 920/920
l 920/920 894/894
l 894/894 895/895
l 895/895 931/931
l 931/931 930/930
l 930/930 905/905
l 905/905 926/926
l 926/926 929/929
l 929/929 935/935
l 935/935 913/913
l 913/913 914/914
l 914/914 942/942
l 942/942 945/945
l 945/945 899/899
l 899/899 910/910
l 910/910 948/948
l 948/948 902/902
l 902/902 952/952
l 952/952 903/903
l 903/903 911/911
l 911/911 961/961
l 961/961 904/904
l 904/904 853/853
l 853/853 962/962
l 962/962 906/906
l 906/906 854/854
l 854/854 907/907
l 907/907 960/960
l 960/960 908/908
l 908/908 956/956
l 956/956 909/909
l 909/909 990/990
l 990/990 901/901
l 901/901 958/958
l 958/958 970/970
l 970/970 955/955
l 955/955 951/951
l 951/951 898/898
l 898/898 943/943
l 943/943 896/896
l 896/896 941/941
l 941/941 870/870
l 870/870 869/869
l 869/869 859/859
l 859/859 860/860
l 860/860 861/861
l 861/861 852/852
l 852/852 974/974
l 974/974 851/851
l 851/851 957/957
l 957/957 992/992
l 992/992 881/881
l 881/881 971/971
l 971/971 940/940
l 940/940 867/867
l 867/867 937/937
l 937/937 866/866
l 866/866 959/959
l 959/959 973/973
l 973/973 877/877
l 877/877 986/986
l 986/986 982/982
l 982/982 933/933
l 933/933 989/989
l 989/989 871/871
l 871/871 922/922
l 922/922 872/872
l 872/872 885/885
l 885/885 932/932
l 932/932 879/879
l 879/879 980/980
l 980/980 874/874
l 874/874 967/967
l 967/967 963/963
l 963/963 964/964
l 964/964 892/892
l 892/892 984/984
l 984/984 847/847
l 847/847 882/882
l 882/882 991/991
l 991/991 865/865
l 865/865 977/977
l 977/977 939/939
l 939/939 883/883
l 883/883 918/918
l 918/918 916/916
l 916/916 862/862
l 862/862 921/921
l 921/921 863/863
l 863/863 924/924
l 924/924 858/858
l 858/858 927/927
l 927/927 857/857
l 857/857 936/936
l 936/936 856/856
l 856/856 884/884
l 884/884 864/864
l 864/864 845/845
