v 21.722614643182776 -2.900605442999054 37.087001775386895
v 39.09611779169397 -4.6675943343747841 36.955220100377375
v 10.526924670358092 3.1829793337673307 36.590695567633325
v 56.935518100205634 -1.5175628471281015 35.135391051845417
v 17.750500846208922 -1.3164168306005888 36.961328114295931
v 30.205201377638581 -4.6639563526221872 37.206078486202287
v 25.889457439085387 -4.0167936343770139 37.181686764378441
v 34.621890604810474 -4.8641652582141024 37.132148543288537
v 14.011418677295158 0.71843224060225164 36.778502080058814
v 7.3053618483394835 6.0439113954452797 36.326890255514442
v 4.3402509083916456 9.2533370524594538 36.019256945834329
v 1.6258030705115001 12.724167818441973 35.649445080592173
v -0.83175867376847745 16.325275212517219 35.238966368280458
v -3.0023434357125067 19.883698805828601 34.795904016324997
v -4.833418302971733 23.213076668099962 34.35672850799493
v -7.394330502550102 28.326526277706989 33.655449279792606
v -11.543480692121829 37.79356446625038 32.224979235916706
v -17.310649987072225 56.322753232920917 28.519510375035964
v -26.077272930841428 114.48191799860609 -3.1291911069408882
v -25.513171167522096 133.94315303313437 -28.40606722876921
v -25.281051600000009 138.7799377 -35.836086299999998
v -25.915344960051407 123.64805059572828 -13.663687523798568
v 106.93271262957958 11.174417998768149 9.4418942172024742
v 115.4095638859306 13.340803280581582 -1.6038011354336255
v 52.534725789203428 -2.4966660952100295 35.802737958213271
v 77.77967417917796 3.9066052743494879 29.335471688506381
v 61.278250750065297 -0.49143864357173078 34.31690147012705
v 48.082461572581082 -3.3938524377663786 36.336577492492196
v 43.593551686985599 -4.147121247639693 36.70705183232468
v -21.416847998496671 74.959025863838235 22.584236062302704
v -24.475019675014632 91.960362472677076 14.263909046195998
v -25.484479800135674 99.899864592154358 9.1641368447203053
v -25.829436842184677 126.36554069011271 -17.310685162053247
v 96.66072826068573 9.0933838876323865 18.631661905918932
v 65.572738116836177 0.57221138857851006 33.318668823994606
v -22.275885074268274 79.379047182707481 20.745222594306782
v -23.07493070162483 83.675450902136987 18.732908891183026
v -25.040851177930261 95.982020425253296 11.816960818039936
v -25.984066357654356 107.47042743553195 3.3519293390681435
v -25.988924076093113 120.78828844600923 -10.061406183643498
v -26.047604940318859 117.75108410034224 -6.529297897051725
v -26.064993672575106 111.04693018642445 0.17032200221994687
v -25.733060489474713 128.97403108073428 -20.986677583454956
v -25.626023015304032 131.48339359392773 -24.693696627548789
v 125.04889370210111 17.254973475091703 -21.94681661984761
v 100.22686144872098 9.8475610858708329 15.795511863628839
v 109.97843759246128 11.840858728556691 5.9357638883501895
v 112.80701427046151 12.56165752016107 2.2492791697626355
v 89.290240158617976 7.2560828116799376 23.59320199750384
v -13.238869215250009 42.380013209623094 31.446327100423886
v -14.74001776271797 46.979606878920023 30.5843902382619
v -18.442572878003489 61.03811929795696 27.267874418950331
v -20.489735747691149 70.394865412004734 24.308367563720466
v -19.499178114886373 65.739877285383614 25.861073376211266
v -16.085491006609708 51.627591309274216 29.616598246723264
v 85.525160496897968 6.190572583370006 25.741846971551979
v -25.797178288929423 103.73606656456619 6.3430368523885958
v 103.66652278699702 10.525739058496594 12.729895213744296
v -9.611745272116563 33.145607176482216 32.952297843621395
v 93.009451582912163 8.2322397795155666 21.23487314350578
v -23.81283666926354 87.866268290011092 16.574264447543147
v 81.679770170561966 5.0564820922769522 27.630883516706987
v 69.852634950104715 1.6857274771624375 32.134039335666486
v 117.77842083493132 14.157795274343197 -5.6064003205670616
v 119.91237497115777 14.983499754108294 -9.7203767548421549
v 73.826751669890896 2.7736825477298415 30.838989834686771
v -25.397127181389912 136.36438867161201 -32.124335605322599
v 126.45569044804928 17.903145958461604 -25.654252848443036
v 123.50505027532651 16.545383539461632 -17.997814854297893
v 121.79724113820291 15.782595256628632 -13.890607720662283
v 127.72808557640903 18.483900018445503 -29.095274736506347
v 128.89658147635006 19.006278326576197 -32.303476529009018
v 130.00910189999999 19.494622200000002 -35.375139250000004
v -36.781936545941576 -103.26250572407343 9.800688533069053
v -65.521775464196679 -57.521923661774132 22.736761029944351
v -43.103344688680522 -91.312652803550975 16.578907831776895
v -49.459207438806715 -79.98395770481747 19.930715875884459
v -54.474202363595204 -72.544029106775668 21.143990730098196
v -62.710202330604815 -61.388944151048662 22.362032008555708
v -41.332917569796734 -94.694196258003231 14.991616328645282
v -91.578504662389093 -20.615830070991525 20.974866943791206
v -97.344514908619487 -13.306795994421211 18.449553751742584
v -94.469981660277369 -16.841346178859585 19.890139494325858
v -103.05378742654139 -7.0629573774393526 14.496158486154997
v -108.47556415104239 -1.9863112050877536 9.004524267356004
v -110.9847434307564 0.17472912795080292 5.7914633571598824
v -133.00959779999999 18.013757699999999 -36.229064899999997
v -68.350422092958013 -53.562260324244448 23.065864448820555
v -74.126678245220575 -45.35606829999449 23.479432578784788
v -79.954825285662594 -36.994535772770291 23.294127307806718
v -85.755684320941242 -28.674096037526752 22.417251820612229
v -71.212015439805569 -49.510425527889133 23.32669346525314
v -77.106315836673048 -41.081977548291732 23.455835296156557
v -38.969331320530181 -99.208858486290353 12.508540321611061
v -26.772013374558352 -124.06180511997132 -12.972966015742447
v -26.207060463974472 -126.50751073898593 -16.367704069803153
v -25.520643634740665 -131.04001373816445 -23.129048727769497
v -25.186769980711023 -135.25866659595459 -29.673839101388744
v -25.010606800000001 -139.16448969999999 -36.1096802
v -29.723063919687451 -116.3078964269391 -2.6933877010539122
v -27.525407568875934 -121.57648201337318 -9.5337774243242137
v -32.874292444170791 -110.28237547197804 3.8005359539634327
v -45.060385997519234 -87.623333104334904 17.945442411229209
v -47.179037118794106 -83.797632469415163 19.040179665157321
v -51.897026585183617 -76.234786712599004 20.620208856470072
v -57.163751710894473 -68.878037272729074 21.605523155215401
v -100.22873723443556 -10.02800986725741 16.705873293812253
v -105.80859658882108 -4.3920157752010054 11.907714566153302
v -25.325648303775029 -133.17228356674076 -26.437976841792015
v -131.12526102110502 16.682577431104406 -32.198343751414583
v -123.77122621156197 11.06819870987793 -16.141665431983924
v -82.847862860619244 -32.836106142051044 22.943634953220617
v -113.39955657220467 2.2058024037849302 2.4274811643295608
v -129.30076642854328 15.38915022286545 -28.131293543620181
v -59.918437708649535 -65.169372186397595 21.986979317603101
v -31.188714924640408 -113.39815624414702 0.60232407292813128
v -28.501340583877152 -119.0184114081661 -6.0853273142733766
v -25.802443025930259 -128.82876061879711 -19.76252141109223
v -117.84049284464768 5.9530626031544411 -4.7318112334173019
v -127.44242293553908 14.001275914890233 -24.116454105401999
v -115.67883344830861 4.1149556468162025 -1.0970641127066276
v -88.668445520553334 -24.579717010928967 21.770839090608774
v -121.92870489770294 9.5096027463864541 -12.201126796442672
v -34.747636517428759 -106.92639704444949 6.8818127370496365
v -125.61788706575253 12.582872880805649 -20.103158563269595
v -119.93918167021836 7.7772945636086348 -8.4125620669013621
v -25.089321333229243 -137.23406065927753 -32.899863710902125
v 69.085795249706621 87.817328097184557 6.467743436152122
v 65.221655571033779 37.317549561428379 26.513255474818937
v 66.053391324316465 27.721489773523267 28.29862611733224
v 67.509862229532871 14.080779235940589 30.514535176742935
v 68.97634186257568 5.6745867757396491 31.688146298256051
v 78.1274335518398 -52.896444884407479 28.634321934373403
v 81.464164111058182 -78.913596875139348 -2.4838305121295718
v 83.452514600000001 -94.683853100000007 -35.653182999999999
v 80.745103728940649 111.30710938532195 -24.541180996871788
v 76.958271285341738 103.35566229925692 -10.559487244593761
v 70.795376639537636 91.346290333310208 3.4064498755872767
v 64.823068134447453 76.741366000440664 14.040412613427446
v 63.153239928416902 65.698382907902015 19.144532560191916
v 64.311339137380088 47.139426770054627 24.473732530801868
v 65.656748411217507 32.333800596168359 27.461413193677458
v 66.950687819485026 18.530185652692296 29.850447108907453
v 77.70564156385511 -39.032868940881983 32.840533980505697
v 76.718295951137691 -30.084593382162073 33.539572106160392
v 77.969182351939693 -43.622572362629853 31.995821473892306
v 78.126208788515839 -57.403833784698996 25.864089015792224
v 79.727478528595697 -71.893894678328536 9.4202898025872148
v 81.877282785436577 -81.035043822751618 -6.5012618700732112
v 82.98431216836417 -90.801672458123491 -27.047777951526541
v 82.184556231926791 -83.062220272675759 -10.531264660323984
v 79.09330520542207 107.75469864444597 -17.779885160510343
v 81.462346210180499 112.83014151122316 -27.661566713038781
v 75.634147033651644 100.75745716384245 -6.9138618351234307
v 67.460184237897323 84.180507960399325 9.2703154117769344
v 66.016940547089533 80.487529134623713 11.812789839355773
v 63.948301897604146 72.998026091790607 16.00861736312315
v 63.450728640535921 57.086748586515647 21.920499004841581
v 63.16370637184545 62.295139011389637 20.322527134888325
v 68.186689316521921 9.7953441659307536 31.136828103469625
v 70.98546120582094 -3.0319840630254911 32.608929256323094
v 73.224863834598608 -12.258329739761026 33.292170297281515
v 75.194555088918406 -21.247221944905789 33.639969978487066
v 78.183821124124009 -60.595181092675759 23.298086964501984
v 80.943278437829036 -76.690090041016575 1.5234914804385991
v 80.345137435453438 -74.356079241603439 5.5041713276103428
v 83.210105384762016 -92.741818570393036 -31.33072508693575
v 82.600109678441243 -86.950928909334905 -18.676018025050727
v 78.109542194955253 105.68629121225473 -14.195262874079409
v 74.12313908211911 97.847500934892622 -3.3577507677998355
v 72.502492676306588 94.713140672383389 0.12116604321908922
v 63.402693133497351 69.299230432302991 17.719870053354114
v 72.12539154347526 -7.6763133522583953 32.998499234666028
v 76.026113957052317 -25.67196670707154 33.67882242086344
v 77.288314420033515 -34.524988357041039 33.314099708332513
v 78.101193619905928 -48.27474776526573 30.662578157406241
v 78.365396381217352 -63.618788247191404 20.227696399591963
v 63.856526154127678 52.064918723924634 23.291864932493521
v 78.692960954569187 -66.520524250702692 16.841052550561983
v 79.157872338121024 -69.284659792277779 13.219229640613637
v 82.412505803213605 -85.026552892517458 -14.581987507852359
v 69.852634950104715 1.6857274771624375 32.134039335666486
v 64.771473480296436 42.239646935117861 25.523942749039175
v 66.471252889007275 23.094141321284177 29.089416626678705
v 82.783187216643952 -88.868763325945082 -22.828979932786176
v 74.253002796439688 -16.781325680898213 33.498287594839191
v 79.963458133508354 109.62267221622122 -21.239164580428614
v 82.774527435261831 115.5186003925794 -33.377799372828591
v 82.134911485491969 114.22300106742691 -30.596023875685958
v 83.397727950000004 116.7644806 -36.071033499999999
v -56.424194243058096 74.86189699719003 18.659308551421525
v -65.261330316404013 73.512865959617841 17.052259796700273
v -2.6304217969596166 73.070771339611355 23.908072700670338
v 118.40230560000002 76.6140671 -36.990295400000001
v 108.33002777706315 71.58985483992609 -13.065597036997765
v 112.93119554615564 73.631953972060487 -22.361937493385661
v 91.704972028019526 66.305103944130366 5.8816188326133823
v 79.339749539945018 63.308347653450085 13.935081001626997
v -97.038809504094814 59.887981554802607 -8.579028874876343
v -107.06562810000001 56.442440000000005 -35.648323099999999
v -90.370209382030993 63.74369956680259 3.3683610542860416
v -60.923751676934145 74.265746321168137 17.908010939379132
v 2.0077041123769996 72.420717555249468 24.159221430593455
v -42.07360583059787 75.703793151800127 20.517021943880064
v -37.054659248004384 75.694986874176749 21.087778144243998
v 114.85252947626572 74.623051971702751 -27.208185265684271
v 105.58400761098673 70.553116606188894 -8.7254713291457584
v 110.77372710689937 72.619596799929269 -17.627536525864635
v 95.557038220356063 67.389637158290356 2.6532922627975304
v 87.698319466360886 65.240433113164414 8.8753304526236612
v 38.39889473353275 66.15491767637846 24.015714692394305
v 67.018449885219766 62.096884688942495 19.220344167828422
v -102.29237129696435 58.056476659205259 -21.988328406823545
v -73.432176953851723 71.490385418360034 14.825434792770007
v 15.536214111828967 70.101928811566552 24.591303806110229
v 20.000337011632922 69.293692292447858 24.640115706445719
v -16.745508046086201 74.587555112582208 22.95395210756984
v -21.416847998496671 74.959025863838235 22.584236062302704
v -31.927760383656054 75.540947124471572 21.589281685001289
v 43.165719003740847 65.330161313427936 23.619734785953625
v 48.005008050643852 64.480191341546515 23.095416722582648
v 29.06485863415439 67.718584845384314 24.494271961809972
v 33.697965866940912 66.946000422319429 24.302480233488808
v 71.02531259116607 62.201364887394369 17.786903143731891
v 57.974174557920179 62.883148915251844 21.493618564616792
v 63.16370637184545 62.295139011389637 20.322527134888325
v -69.420948578883184 72.581417018090235 16.014974700517492
v -77.294743818123735 70.224380638505735 13.399118102853102
v -84.434658358476867 67.148252653601958 9.3994778690645404
v 24.501985478917589 68.497711112094635 24.608232716742709
v 11.07468337933366 70.916765810861435 24.508017434814356
v 6.5738605849079343 71.690827516744235 24.341957620227927
v -7.3231116029485097 73.647113926043602 23.622259109553511
v -12.039260188820851 74.153433612816059 23.308591960304714
v -46.983742151201113 75.57830053970585 19.941564391941412
v 83.549285209741441 64.213546466762864 11.556071876842944
v 52.932413744168116 63.64122161964967 22.401454002689519
v -95.039526438906435 60.906336136009216 -4.3372790681122311
v -100.60965750678275 58.555985483697249 -17.463889722514004
v -92.847487781363839 62.203378130201358 -0.31751219758783977
v -98.88487508020583 59.12825410947643 -12.97322638085349
v 99.183659208646461 68.461119183041717 -0.84829313047337018
v -26.710496269114039 75.293107194581637 22.098089501527991
v 75.151722534008826 62.620248770880387 16.031113647281515
v -87.560293354048014 65.43254450915876 6.6222413858877012
v -80.991058508635334 68.771149117751278 11.643936398165916
v -105.51521224954865 57.013858920897562 -31.085889237208171
v 102.52324334948142 69.507707968649044 -4.6538080690151347
v -103.93035331735646 57.553701852036909 -26.53045014623001
v 116.65888552312894 75.6188761961659 -32.091432975266642
v -51.77257076395874 75.300140768581656 19.330932947579374
v -50.145776332564076 -94.307319097427467 14.623067312760742
v -90.08204150659293 -61.554652498221905 15.278649902650042
v -87.80083098010013 -66.562609762003788 15.177421901521349
v -96.54691490020349 -47.532351759833873 16.562539750261976
v -92.356891716082771 -56.382533382808447 15.574164601493342
v -94.745360715064578 -51.172250758400949 16.097692653263806
v -85.358561608859716 -71.288617731271273 15.168648570680915
v -67.8921031937805 -88.387950845132281 14.435673934848717
v -41.332917569796734 -94.694196258003231 14.991616328645282
v -31.962615182465765 -93.424914415438607 15.589522843060955
v -6.5955857447877522 -82.515858725570411 15.57354869091958
v -123.89851615364692 -14.733435975570405 2.18507912456678
v -102.73593454974349 -36.601794486861309 17.255814048201032
v -98.479178147576818 -43.898672029780613 17.004428914364571
v -100.56738208789194 -40.267670957194255 17.330994069962735
v -107.53298014745133 -29.539332284833971 16.065314371245321
v -139.654095528038 -8.6746745558548675 -20.519277832469982
v -141.86298427113252 -7.7805152172242806 -24.465798409747194
v -148.36080930000003 -4.7355403999999997 -36.028922999999999
v 150 -70.123573300000004 -36.052471199999999
v 133.17313278080391 -66.627535032145943 -6.1752472457099667
v -45.668392526951443 -94.676750374008932 14.724169988132322
v -54.664191183526277 -93.469136265921037 14.500433014063745
v -10.629033119821347 -84.75903540343468 15.866302456581149
v 1.3402858539317104 -77.999174811909683 15.101713159370664
v 5.2775386193485794 -75.760950584405236 14.956425150162815
v 9.2407001854719688 -73.527649932917029 14.856074565324992
v -2.6085365386632873 -80.254686926982899 15.3081724818814
v 17.488100691933752 -69.205910744248115 15.012772513981687
v 21.821786769974416 -67.211274508992773 15.355680441854753
v 26.277028755360377 -65.431505827025489 15.949532496704471
v 13.299989317103652 -71.336418667739082 14.871413989210712
v 39.86326645766087 -61.626600285631163 19.017065996174686
v 35.345233476593599 -62.6519068784512 17.82994668646738
v 30.802219363876276 -63.908017740098742 16.785080178592807
v 57.229701794282931 -58.89794217334132 23.817966401066577
v 53.011148529564728 -59.446209218160753 22.742766520632728
v 48.711302152990086 -60.068065368734295 21.542658935730007
v 44.325485300955322 -60.782633760566327 20.278486861629784
v -75.859168850362039 -82.879812481912211 14.659518941208011
v -79.398267587682312 -79.472867939277961 14.857293408174261
v -82.571045603454792 -75.608215721206562 15.052773942493376
v -71.992468194467875 -85.830289893485229 14.471185707951907
v -63.589676702520855 -90.500224934172948 14.399315562792982
v -59.16160195033185 -92.193020810737039 14.416123848852223
v -27.522185791993678 -92.180378889932655 15.763018861574409
v -23.183550282327783 -90.662286180618096 15.96161987475509
v -18.933880049358116 -88.869531308571965 16.034683632955844
v -14.755018277790708 -86.874424607284013 15.983935694130304
v -121.0899879293697 -16.341923366866084 5.421209900655243
v -146.15867957854749 -5.8054535297851615 -32.232874562990958
v -110.11616308787384 -26.275605161831812 14.801228990944836
v -112.78733704435446 -23.287033430659619 13.06835520384786
v -115.52705087696607 -20.614988249368039 10.915174715570004
v -126.68155397033348 -13.411584171918829 -1.316844666608648
v 148.1884702608568 -70.04296288079334 -32.251360075548845
v 137.92252662364984 -68.204050559604042 -13.592677490611155
v 121.2602796564523 -62.952472617353621 6.9435473982990015
v 114.41592949495647 -61.379091447516025 12.387373447097275
v 127.5263786441144 -64.752579714294782 0.69821796106699563
v 90.731146367349794 -57.97003078989114 23.816706546928266
v 78.126208788515839 -57.403833784698996 25.864089015792224
v 61.386379601822121 -58.429016477189549 24.726361190939503
v 69.659663262116993 -57.732456051300758 25.857636196145091
v 65.516629368140954 -58.032746737477758 25.411978421842583
v -105.08430665294871 -33.012078553362613 16.908993230472042
v 144.35828469551629 -69.687022947421511 -24.728226045063273
v 140.19436047907237 -68.849856758559213 -17.278090068044364
v 103.15259833868011 -59.462718723139766 19.154090384984499
v 117.85518648209603 -62.097919686074569 9.6903418846564797
v 124.42679270998266 -63.804930233656137 3.8665062499913603
v 94.970108968371136 -58.443774021051453 22.604688991559872
v 82.265047611249685 -57.421636965371036 25.428333184774402
v -134.71819134707169 -10.438827321224693 -12.720885145436711
v -137.22229024609157 -9.5662905703695564 -16.634228533405327
v -144.078180956914 -6.8085215480506802 -28.334060320357764
v 135.63509998382992 -67.467012383967841 -9.8529189264224648
v 110.85733056858473 -60.737447550005349 14.9301095383494
v 130.42571980838056 -65.695374966403534 -2.6804672464227752
v 99.095156982384168 -58.889969313780334 20.944869877892753
v 86.471143805514046 -57.579754431116484 24.694487620216254
v 107.10060387000838 -60.106353765392079 17.195227398350557
v 142.24082009614295 -69.330174995403411 -21.044489395260818
v -129.4260831038672 -12.304234532126507 -5.0127332117181478
v 146.30060112789781 -69.909514302731552 -28.482616987595836
v 73.853888272754858 -57.517986424744706 26.013891644993159
v -132.15263293353436 -11.324223978718656 -8.8029958577190328
v -118.3005050196218 -18.293875751179133 8.3547879513365899
v -36.554205528910622 -94.272624396548281 15.321472427328796
v -97.700272437833334 -52.524486275128297 13.365149186757357
v -94.745360715064578 -51.172250758400949 16.097692653263806
v -105.20906632245124 -55.529591777643844 2.7535591092564768
v -121.70471190000001 -60.816104899999999 -35.666862500000001
v -109.43927176941578 -56.973469620261994 -5.6105539700207236
v -100.42275615319501 -53.688923908874415 10.195170370014219
v -87.717496453300953 -47.603279731312938 20.237695793667267
v -91.300195087284663 -49.48657142833688 18.441677801057111
v -84.119189623572112 -45.568722391519373 21.611510063123742
v -80.570348180933507 -43.39074705639036 22.6443900309526
v -77.106315836673048 -41.081977548291732 23.455835296156557
v -73.442420448314309 -38.460053518102349 24.245081975125665
v -69.845189614305667 -35.755527539894672 24.873730442712919
v -59.276206506020571 -27.59312490485571 25.787032106090169
v -55.840001714910585 -24.923203918424214 25.919445705079614
v -49.281737017444257 -19.529287270698102 26.143012290753994
v -38.227592354756439 -7.5702593872392043 29.015360759722846
v -40.742259285704179 -10.735296689275932 27.835402314675743
v -33.116406957482404 -0.92582815975069066 31.585175882164449
v -0.77524080583790367 24.682955149092084 34.327919936707517
v 127.09874730000003 39.757923099999999 -35.834251399999999
v 115.2298562364969 39.265295652000738 -9.4552370914148405
v 78.156331856492699 33.038047705089866 23.048420711571325
v 100.62914674075883 35.826930827375946 8.7511842672205518
v 52.064580444406744 30.692636658371921 30.705115856192798
v 89.85044484080548 34.077821278640997 17.003218655163032
v 33.114551335972457 27.635493425498339 33.370991739836512
v -118.48864326153685 -59.725790950086278 -27.36250258822615
v -115.02923145856786 -58.646913293123518 -18.814609747296316
v -111.36057615299728 -57.568322655882646 -10.004703424946772
v -107.39959555744949 -56.316188245745948 -1.3292717788631041
v -20.506104715813848 12.593701792456173 34.220858438126747
v -23.957619985246609 9.3246838115064143 33.933681391444992
v -27.236243795200416 5.9417311535507285 33.446114756156184
v -30.299511080937457 2.5036165912427526 32.671726943529443
v 23.195840827641263 26.988264653052525 33.964603880001938
v 13.191053147846372 26.694745129751176 34.21121919386627
v 3.6307231154898054 25.720727881359494 34.294257379003994
v -4.833418302971733 23.213076668099962 34.35672850799493
v -9.1343211625202123 21.063684591319213 34.403276334718086
v -13.128554538499174 18.535207414052266 34.414437171555761
v -16.901627381999734 15.687681416624986 34.37050690599726
v 121.57971741271668 40.114251552175702 -22.418752696132913
v 123.4583631389218 40.092089866239398 -26.881296769820246
v 117.50970951325797 39.704290014831031 -13.661947850933043
v 97.141015409017257 35.161977443922495 11.733484776386552
v 107.06862363654946 37.283656063989625 2.0571559506158499
v 110.02554201637261 38.021046881525635 -1.5701489188866464
v 37.963544019981967 28.251842319854941 32.901316295074196
v 65.656748411217507 32.333800596168359 27.461413193677458
v 61.172460705732831 31.94149088892658 28.660823846800881
v 86.047119067884751 33.65587009190989 19.242833787568372
v 47.430826530866 29.875473327892202 31.566311877980098
v 82.149096633300204 33.311894737629828 21.247459136655419
v -113.18743268350042 -58.100179429552284 -14.44186367473494
v -120.14797433556933 -60.279803804775028 -31.519640958523652
v -116.80160233652191 -59.188785417490884 -23.12369711582112
v -102.86315353945835 -54.648799066060874 6.5912516894364241
v 125.28537712020197 39.955749315814657 -31.358460464511687
v 119.60802861992762 39.988601907866752 -18.000246084069801
v 42.733225008767867 29.027470996402911 32.299643648152809
v 69.901949192567784 32.600302611345626 26.156700496440379
v 74.075390098927357 32.816251729597042 24.688747778478174
v 56.642971324228448 31.395487977600773 29.734282646525497
v 28.187109516144766 27.221553749489111 33.724588988870337
v 18.177536467860392 26.855200651569668 34.119741285476756
v 112.73643498514785 38.692761295072899 -5.4191874052623428
v -66.289140069243572 -33.016472879609807 25.295280739294721
v -62.765467032199979 -30.288932189330417 25.583466051053783
v -43.392289138562099 -13.787693478102906 26.941657347813859
v 8.31357148319373 26.360539088889318 34.259490984094924
v -46.240377969127351 -16.718404805912176 26.413615966277092
v 103.93604822097656 36.540704779952804 5.5065778581280025
v 93.548772527341896 34.579005380716055 14.496451984359643
v -52.493120291323393 -22.250049237571837 25.998124941628092
v -35.728211046866846 -4.2954839661897761 30.318949378703458
v -115.52730560000001 -107.212326 -36.340995800000002
v -109.4515839 -113.70327760000001 -36.202041600000001
v -101.2766876 -119.4836044 -36.028026599999997
v -91.471283 -124.690361 -35.9657822
v -80.564621000000002 -129.3453064 -35.961112999999997
v -68.9055252 -133.35185240000001 -35.963024099999998
v -56.700943000000002 -136.54585270000001 -35.965690600000002
v -44.117244700000001 -138.69491579999999 -35.984954799999997
v -31.362365700000012 -139.4485779 -36.050788900000001
v -18.737575499999998 -138.36361690000001 -36.186702699999998
v -6.6232996000000011 -135.04968260000001 -36.364296000000003
v 4.6804214000000002 -129.47648620000001 -36.475597399999998
v 15.150659599999999 -122.211235 -36.451755499999997
v 25.082727400000007 -114.27176670000001 -36.345516199999999
v 34.915878300000003 -106.80686190000003 -36.210597999999997
v 55.495151499999999 -96.829032900000001 -35.817970299999999
v 45.002227800000007 -100.79965970000003 -36.027645100000001
v 66.395637500000007 -94.911735500000006 -35.6715965
v 77.673515300000005 -94.526512100000005 -35.635162399999999
v 89.323196400000015 -94.967506400000005 -35.686954499999999
v -119.31091309999999 -99.923408499999994 -36.2034187
v -120.035614 -83.748794599999997 -36.074714700000001
v -120.63222500000001 -92.042541499999999 -36.067596399999999
v -119.10633090000005 -69.573989900000001 -35.749210400000003
v -119.0078278 -74.340423599999994 -35.901107799999998
v -124.1415405 -56.60903170000001 -35.759975400000002
v -121.70471190000001 -60.816104899999999 -35.666862500000001
v -142.71386720000004 7.3847466000000006 -36.113174399999998
v -144.95776369999999 3.5206232000000002 -36.0699921
v -133.00959779999999 18.013757699999999 -36.229064899999997
v -136.9438782 14.494087200000001 -36.209590900000002
v -128.28866579999999 21.485799800000006 -36.196106
v -112.572525 30.880260499999999 -35.583846999999999
v -123.04018400000004 24.768867500000002 -36.088893900000002
v -117.6612854 27.839950600000005 -35.8851242
v -105.38751220000002 38.261608099999997 -35.145214099999997
v -108.28556820000003 34.2551384 -35.280498500000007
v -104.1891251 42.772010800000004 -35.233215299999998
v -105.5464783 51.882759100000015 -35.555278800000004
v -108.75452420000002 61.169864700000005 -35.759769400000003
v -115.73847960000001 91.859695400000007 -37.388389599999996
v -114.8280182 81.365379300000001 -36.923175800000003
v -112.13933560000001 71.071678199999994 -36.2201691
v -133.37530520000001 -45.477317800000002 -36.052471199999999
v -143.29885859999999 -34.139137300000002 -36.1995316
v -149.26799009999999 -22.022342699999999 -36.170997600000007
v -145.9380798 -30.198600800000001 -36.221069300000003
v -148.36080930000003 -4.7355403999999997 -36.028922999999999
v -149.42590329999999 -9.052378700000002 -36.038780199999998
v -149.9697113 -17.7368889 -36.117710099999996
v -108.1428909 111.2821732 -36.559871700000002
v -113.62983699999999 102.1807098 -37.186576799999997
v -96.141799899999995 120.97450259999999 -35.970657299999999
v -52.166953999999997 135.50247189999999 -35.828441599999998
v -69.028739900000005 131.80766299999999 -35.844562500000002
v -34.400459300000001 137.99580380000003 -35.828441599999998
v 21.229482699999998 137.8229523 -35.921634699999998
v 2.5588647999999998 139.30099490000001 -35.884826699999998
v -16.068594000000004 139.2945862 -35.848011
v 118.40230560000002 76.6140671 -36.990295400000001
v 127.09874730000003 39.757923099999999 -35.834251399999999
v 125.57707210000004 50.705596900000003 -36.431461300000002
v 123.5057449 61.522701300000001 -36.9871178
v 128.9929047 25.8339672 -35.430667900000003
v 138.23410029999999 -16.570676800000001 -35.599578899999997
v 145.86235049999999 -44.1537285 -35.793590500000001
v 142.17672730000001 -30.5074425 -35.710266099999998
v 150 -70.123573300000004 -36.052471199999999
v 148.89547730000001 -58.615894300000022 -35.892894699999999
v 144.23944090000001 -88.890945400000007 -36.461612700000003
v 148.84228519999999 -80.804199199999999 -36.3228188
v 136.03216549999999 -93.689125099999998 -36.259262100000001
v 101.3049393 -95.655616800000004 -35.773040799999997
v 113.4497147 -96.101196299999998 -35.861419699999999
v 125.32113649999999 -95.730484000000004 -35.999767300000002
v 114.16017910000001 85.188789400000005 -36.848953199999997
v 108.70706939999999 93.647850000000005 -36.734993000000003
v 89.772621200000003 112.37199400000002 -36.194286300000002
v 73.726936300000006 122.41590119999999 -35.962963100000003
v 57.333797500000003 129.47566219999999 -35.935985600000002
v 39.637340500000001 134.6113129 -35.940055800000003
v -112.76487729999999 -110.5569534 -36.299133300000001
v -105.6050568 -116.67179109999999 -36.101749400000003
v -96.541015599999994 -122.1540909 -35.985019700000002
v -86.129432699999995 -127.09067539999999 -35.960590400000001
v -74.814033499999994 -131.43875120000001 -35.962406199999997
v -62.861217500000002 -135.06268309999999 -35.963649699999998
v -50.445190400000001 -137.76991269999999 -35.971580500000002
v -37.745010399999998 -139.27264400000001 -36.010063199999998
v -25.010606800000001 -139.16448969999999 -36.1096802
v -12.593356099999999 -136.99990840000001 -36.275924699999997
v -0.86055329999999997 -132.52410889999999 -36.435432400000003
v 10.0075159 -125.9986115 -36.479419700000001
v 20.1569042 -118.2533493 -36.4036331
v 29.985469800000004 -110.41151429999999 -36.282020600000003
v 39.9130173 -103.573143 -36.126193999999998
v 50.195659600000013 -98.544273400000009 -35.920848800000002
v 60.896900199999997 -95.636596699999998 -35.732032799999999
v 71.987999000000002 -94.572631799999996 -35.639740000000003
v 83.452514600000001 -94.683853100000007 -35.653182999999999
v 95.278808600000019 -95.311477700000026 -35.7289581
v -120.2687683 -96.033203099999994 -36.112739599999998
v -117.7222443 -103.6623611 -36.299133300000001
v -119.43656919999999 -79.185218800000001 -36.026271800000004
v -120.5037308 -87.977722200000002 -36.0687408
v -119.98767090000001 -65.106811500000006 -35.655940999999999
v -127.05336000000003 -52.620216400000004 -35.8791504
v -146.86018369999999 -0.54469980000000007 -36.040306100000009
v -140.10609439999999 10.995106699999999 -36.163684799999999
v -104.43447110000001 47.3713531 -35.414722400000002
v -110.47991940000003 66.058929400000011 -35.944705999999996
v -107.06562810000001 56.442440000000005 -35.648323099999999
v -115.5845566 86.602790799999994 -37.222541800000002
v -113.63021089999999 76.180831900000001 -36.564376799999998
v -136.720932 -41.894722000000002 -36.107826199999998
v -130.1665955 -48.957881900000011 -35.9802094
v -140.1252289 -38.079452500000002 -36.157512699999998
v -147.921402 -26.195327800000001 -36.210830700000002
v -150 -13.413520800000001 -36.0697975
v -111.2457962 106.9862442 -36.883861500000002
v -115.1280441 97.0828171 -37.374710100000001
v -91.365119899999996 123.5502396 -35.902374299999998
v -60.720291099999997 133.7930298 -35.835979500000001
v -77.167869600000003 129.34284969999999 -35.851661700000001
v -25.281051600000009 138.7799377 -35.836086299999998
v -43.362850199999997 136.87852480000001 -35.826320600000003
v 11.904876700000001 138.73789980000001 -35.904296899999999
v -6.7735848000000001 139.4485779 -35.8653488
v 122.0693359 66.696601900000005 -37.090057400000006
v 120.32520290000001 71.803031900000008 -37.070610000000002
v 126.38897710000002 45.0835571 -36.104782100000001
v 124.64030460000004 56.238208800000002 -36.7509613
v 130.37101749999999 17.364519099999999 -35.366455100000003
v 128.36210629999999 30.248436000000005 -35.514865899999997
v 136.9121399 -11.709497499999999 -35.553314200000003
v 133.16168210000001 3.4059092999999998 -35.414585099999996
v 144.68896480000001 -39.632064800000002 -35.767291999999998
v 140.865387 -25.886779799999999 -35.677040099999999
v 149.63719180000001 -64.304420500000006 -35.956298799999999
v 147.9581451 -53.380844100000004 -35.851036100000002
v 147.01458740000001 -85.240310699999995 -36.432369199999997
v 149.79272460000001 -75.709358199999997 -36.181800800000005
v 130.89826969999999 -94.986373900000004 -36.116409300000001
v 140.53860470000001 -91.694892899999999 -36.3926315
v 107.3758392 -95.940330500000002 -35.816364299999996
v 119.4624634 -96.062545799999995 -35.9178085
v 116.38122559999999 80.999702499999998 -36.909339899999999
v 111.6021576 89.425544700000032 -36.797206899999999
v 105.5462112 97.686523399999999 -36.6522942
v 94.173141500000014 108.9160614 -36.308875999999998
v 81.367134100000001 118.07780460000004 -36.03869250000001
v 65.7100449 126.1425629 -35.939319599999997
v 48.594116200000002 132.2573395 -35.938560500000001
v 30.484746900000001 136.4187317 -35.933513599999998
v -86.400260900000006 125.8382416 -35.871334099999999
v -100.5385132 118.1384659 -36.095359799999997
v -104.53710940000001 114.9645233 -36.289417299999997
v -56.472335800000003 134.68502810000001 -35.831657399999997
v -64.915786699999998 132.84190369999999 -35.840526599999997
v -73.062675499999997 130.65596009999999 -35.847976699999997
v -81.589218099999997 127.7699051 -35.858028400000002
v -20.684507400000001 139.07710270000001 -35.841422999999999
v -29.857656500000012 138.42504880000001 -35.831657399999997
v -38.899715399999998 137.47413639999999 -35.826770799999998
v -47.792057 136.22747799999999 -35.826770799999998
v 16.574255000000001 138.33432010000001 -35.913536100000002
v 7.2309117000000001 139.0661011 -35.894607499999999
v -2.1093595000000001 139.4205322 -35.875049599999997
v -11.429772400000003 139.41200259999999 -35.856113399999998
v 131.20513920000002 12.8281975 -35.368110700000003
v 129.64718629999999 21.624725300000001 -35.383823399999997
v 127.73950960000001 34.868778200000001 -35.642894699999999
v 135.57780460000001 -6.6081243000000001 -35.5034676
v 134.30546570000001 -1.4938739999999999 -35.4554939
v 132.13874820000001 8.1369562000000002 -35.384555800000001
v 143.45057679999999 -35.0722466 -35.7399597
v 139.5430298 -21.241376899999999 -35.640377000000001
v 146.94358829999999 -48.648532899999999 -35.820247700000003
v 102.1158447 101.5294342 -36.5497169
v 98.334983800000003 105.26498410000001 -36.432369199999997
v 85.428321800000035 115.4511566 -36.103374500000001
v 77.541641200000001 120.35417180000003 -35.993404400000003
v 69.779434199999997 124.3308945 -35.946254699999997
v 61.563598599999999 127.869873 -35.936782800000003
v 53.003124200000002 130.9278717 -35.936782800000003
v 44.138568900000003 133.4951782 -35.940113099999998
v 35.081867199999998 135.57543949999999 -35.937690699999997
v 25.865636800000001 137.17564390000001 -35.928215000000002
v -111.1082306 -112.1301155 -36.250587449999998
v -114.14609145 -108.88463970000001 -36.320064549999998
v -141.71204374999999 -36.109294900000002 -36.178522149999999
v -146.92974090000001 -28.196964300000001 -36.215950000000007
v 122.78754040000003 64.109651600000007 -37.0385876
v 79.454387650000001 119.2159882 -36.01604845
v -103.4408722 -118.07769775 -36.064887999999996
v -149.71295164999998 -11.232949750000001 -36.054288850000006
v -149.98485564999999 -15.57520485 -36.093753800000002
v -54.3196449 135.09375 -35.830049500000001
v -75.11527255 129.9994049 -35.849819199999999
v -79.37854385 128.5563774 -35.854845050000002
v -49.979505500000002 135.86497494999998 -35.827606199999998
v 129.32004549999999 23.729346249999999 -35.40724565
v 128.05080795000003 32.558607100000003 -35.578880299999994
v 83.397727950000004 116.7644806 -36.071033499999999
v 71.753185250000001 123.37339785 -35.954608899999997
v -144.61846919999999 -32.168869049999998 -36.210300450000005
v 124.07302475 58.880455050000002 -36.869039549999997
v -107.52832035 -115.18753434999999 -36.151895500000002
v -138.42308044999999 -39.987087250000002 -36.132669449999995
v 130.00910189999999 19.494622200000002 -35.375139250000004
v 67.744739549999991 125.2367287 -35.942787150000001
v 128.6775055 28.041201600000001 -35.472766899999996
l 21/21 67/67
l 67/67 20/20
l 20/20 44/44
l 44/44 43/43
l 43/43 33/33
l 33/33 22/22
l 22/22 40/40
l 40/40 41/41
l 41/41 19/19
l 19/19 42/42
l 42/42 39/39
l 39/39 57/57
l 57/57 32/32
l 32/32 38/38
l 38/38 31/31
l 31/31 61/61
l 61/61 37/37
l 37/37 36/36
l 36/36 30/30
l 30/30 53/53
l 53/53 54/54
l 54/54 52/52
l 52/52 18/18
l 18/18 55/55
l 55/55 51/51
l 51/51 50/50
l 50/50 17/17
l 17/17 59/59
l 59/59 16/16
l 16/16 15/15
l 15/15 14/14
l 14/14 13/13
l 13/13 12/12
l 12/12 11/11
l 11/11 10/10
l 10/10 3/3
l 3/3 9/9
l 9/9 5/5
l 5/5 1/1
l 1/1 7/7
l 7/7 6/6
l 6/6 8/8
l 8/8 2/2
l 2/2 29/29
l 29/29 28/28
l 28/28 25/25
l 25/25 4/4
l 4/4 27/27
l 27/27 35/35
l 35/35 63/63
l 63/63 66/66
l 66/66 26/26
l 26/26 62/62
l 62/62 56/56
l 56/56 49/49
l 49/49 60/60
l 60/60 34/34
l 34/34 46/46
l 46/46 58/58
l 58/58 23/23
l 23/23 47/47
l 47/47 48/48
l 48/48 24/24
l 24/24 64/64
l 64/64 65/65
l 65/65 70/70
l 70/70 69/69
l 69/69 45/45
l 45/45 68/68
l 68/68 71/71
l 71/71 72/72
l 72/72 73/73
l 99/99 127/127
l 127/127 98/98
l 98/98 109/109
l 109/109 97/97
l 97/97 118/118
l 118/118 96/96
l 96/96 95/95
l 95/95 101/101
l 101/101 117/117
l 117/117 100/100
l 100/100 116/116
l 116/116 102/102
l 102/102 124/124
l 124/124 74/74
l 74/74 94/94
l 94/94 80/80
l 80/80 76/76
l 76/76 103/103
l 103/103 104/104
l 104/104 77/77
l 77/77 105/105
l 105/105 78/78
l 78/78 106/106
l 106/106 115/115
l 115/115 79/79
l 79/79 75/75
l 75/75 88/88
l 88/88 92/92
l 92/92 89/89
l 89/89 93/93
l 93/93 90/90
l 90/90 112/112
l 112/112 91/91
l 91/91 122/122
l 122/122 81/81
l 81/81 83/83
l 83/83 82/82
l 82/82 107/107
l 107/107 84/84
l 84/84 108/108
l 108/108 85/85
l 85/85 86/86
l 86/86 113/113
l 113/113 121/121
l 121/121 119/119
l 119/119 126/126
l 126/126 123/123
l 123/123 111/111
l 111/111 125/125
l 125/125 120/120
l 120/120 114/114
l 114/114 110/110
l 110/110 87/87
l 135/135 167/167
l 167/167 150/150
l 150/150 185/185
l 185/185 168/168
l 168/168 181/181
l 181/181 151/151
l 151/151 149/149
l 149/149 134/134
l 134/134 165/165
l 165/165 166/166
l 166/166 148/148
l 148/148 180/180
l 180/180 179/179
l 179/179 177/177
l 177/177 164/164
l 164/164 147/147
l 147/147 133/133
l 133/133 176/176
l 176/176 146/146
l 146/146 144/144
l 144/144 175/175
l 175/175 145/145
l 145/145 174/174
l 174/174 163/163
l 163/163 186/186
l 186/186 162/162
l 162/162 173/173
l 173/173 161/161
l 161/161 182/182
l 182/182 132/132
l 132/132 160/160
l 160/160 131/131
l 131/131 143/143
l 143/143 184/184
l 184/184 130/130
l 130/130 142/142
l 142/142 129/129
l 129/129 183/183
l 183/183 141/141
l 141/141 178/178
l 178/178 158/158
l 158/158 159/159
l 159/159 140/140
l 140/140 172/172
l 172/172 157/157
l 157/157 139/139
l 139/139 156/156
l 156/156 155/155
l 155/155 128/128
l 128/128 138/138
l 138/138 171/171
l 171/171 170/170
l 170/170 154/154
l 154/154 137/137
l 137/137 169/169
l 169/169 152/152
l 152/152 187/187
l 187/187 136/136
l 136/136 153/153
l 153/153 189/189
l 189/189 188/188
l 188/188 190/190
l 194/194 250/250
l 250/250 206/206
l 206/206 196/196
l 196/196 208/208
l 208/208 195/195
l 195/195 207/207
l 207/207 248/248
l 248/248 242/242
l 242/242 209/209
l 209/209 197/197
l 197/197 210/210
l 210/210 236/236
l 236/236 198/198
l 198/198 244/244
l 244/244 224/224
l 224/224 212/212
l 212/212 226/226
l 226/226 225/225
l 225/225 237/237
l 237/237 221/221
l 221/221 220/220
l 220/220 211/211
l 211/211 223/223
l 223/223 222/222
l 222/222 230/230
l 230/230 216/216
l 216/216 215/215
l 215/215 231/231
l 231/231 232/232
l 232/232 203/203
l 203/203 193/193
l 193/193 233/233
l 233/233 234/234
l 234/234 217/217
l 217/217 218/218
l 218/218 243/243
l 243/243 219/219
l 219/219 205/205
l 205/205 204/204
l 204/204 235/235
l 235/235 251/251
l 251/251 191/191
l 191/191 202/202
l 202/202 192/192
l 192/192 227/227
l 227/227 214/214
l 214/214 228/228
l 228/228 246/246
l 246/246 229/229
l 229/229 245/245
l 245/245 201/201
l 201/201 240/240
l 240/240 238/238
l 238/238 199/199
l 199/199 241/241
l 241/241 239/239
l 239/239 213/213
l 213/213 249/249
l 249/249 247/247
l 247/247 200/200
l 271/271 307/307
l 307/307 336/336
l 336/336 318/318
l 318/318 334/334
l 334/334 319/319
l 319/319 308/308
l 308/308 328/328
l 328/328 272/272
l 272/272 330/330
l 330/330 311/311
l 311/311 322/322
l 322/322 309/309
l 309/309 321/321
l 321/321 310/310
l 310/310 329/329
l 329/329 333/333
l 333/333 320/320
l 320/320 331/331
l 331/331 323/323
l 323/323 312/312
l 312/312 332/332
l 332/332 324/324
l 324/324 313/313
l 313/313 337/337
l 337/337 315/315
l 315/315 316/316
l 316/316 314/314
l 314/314 287/287
l 287/287 288/288
l 288/288 289/289
l 289/289 290/290
l 290/290 284/284
l 284/284 285/285
l 285/285 286/286
l 286/286 282/282
l 282/282 281/281
l 281/281 280/280
l 280/280 283/283
l 283/283 278/278
l 278/278 277/277
l 277/277 276/276
l 276/276 279/279
l 279/279 262/262
l 262/262 275/275
l 275/275 300/300
l 300/300 299/299
l 299/299 298/298
l 298/298 297/297
l 297/297 261/261
l 261/261 340/340
l 340/340 260/260
l 260/260 273/273
l 273/273 252/252
l 252/252 274/274
l 274/274 296/296
l 296/296 295/295
l 295/295 259/259
l 259/259 294/294
l 294/294 291/291
l 291/291 292/292
l 292/292 293/293
l 293/293 258/258
l 258/258 254/254
l 254/254 253/253
l 253/253 256/256
l 256/256 257/257
l 257/257 255/255
l 255/255 265/265
l 265/265 266/266
l 266/266 264/264
l 264/264 317/317
l 317/317 267/267
l 267/267 303/303
l 303/303 304/304
l 304/304 305/305
l 305/305 339/339
l 339/339 301/301
l 301/301 263/263
l 263/263 306/306
l 306/306 335/335
l 335/335 338/338
l 338/338 325/325
l 325/325 326/326
l 326/326 268/268
l 268/268 269/269
l 269/269 327/327
l 327/327 302/302
l 302/302 270/270
l 361/361 399/399
l 399/399 384/384
l 384/384 383/383
l 383/383 400/400
l 400/400 385/385
l 385/385 362/362
l 362/362 407/407
l 407/407 388/388
l 388/388 387/387
l 387/387 413/413
l 413/413 364/364
l 364/364 386/386
l 386/386 414/414
l 414/414 366/366
l 366/366 392/392
l 392/392 394/394
l 394/394 363/363
l 363/363 403/403
l 403/403 402/402
l 402/402 390/390
l 390/390 391/391
l 391/391 404/404
l 404/404 365/365
l 365/365 393/393
l 393/393 401/401
l 401/401 389/389
l 389/389 367/367
l 367/367 405/405
l 405/405 376/376
l 376/376 406/406
l 406/406 377/377
l 377/377 411/411
l 411/411 378/378
l 378/378 360/360
l 360/360 379/379
l 379/379 380/380
l 380/380 381/381
l 381/381 382/382
l 382/382 372/372
l 372/372 373/373
l 373/373 374/374
l 374/374 375/375
l 375/375 359/359
l 359/359 416/416
l 416/416 357/357
l 357/357 358/358
l 358/358 410/410
l 410/410 412/412
l 412/412 356/356
l 356/356 415/415
l 415/415 355/355
l 355/355 354/354
l 354/354 409/409
l 409/409 408/408
l 408/408 353/353
l 353/353 352/352
l 352/352 351/351
l 351/351 350/350
l 350/350 349/349
l 349/349 347/347
l 347/347 348/348
l 348/348 342/342
l 342/342 341/341
l 341/341 346/346
l 346/346 398/398
l 398/398 343/343
l 343/343 371/371
l 371/371 345/345
l 345/345 370/370
l 370/370 395/395
l 395/395 369/369
l 369/369 397/397
l 397/397 368/368
l 368/368 396/396
l 396/396 344/344
l 417/417 519/519
l 417/417 606/606
l 418/418 605/605
l 418/418 624/624
l 419/419 500/500
l 419/419 611/611
l 420/420 500/500
l 420/420 501/501
l 421/421 501/501
l 421/421 502/502
l 422/422 502/502
l 422/422 503/503
l 423/423 503/503
l 423/423 504/504
l 424/424 504/504
l 424/424 505/505
l 425/425 505/505
l 425/425 506/506
l 426/426 506/506
l 426/426 507/507
l 427/427 507/507
l 427/427 508/508
l 428/428 508/508
l 428/428 509/509
l 429/429 509/509
l 429/429 510/510
l 430/430 510/510
l 430/430 511/511
l 431/431 511/511
l 431/431 512/512
l 432/432 513/513
l 432/432 514/514
l 433/433 512/512
l 433/433 513/513
l 434/434 514/514
l 434/434 515/515
l 435/435 515/515
l 435/435 516/516
l 436/436 516/516
l 436/436 517/517
l 437/437 518/518
l 437/437 519/519
l 438/438 520/520
l 438/438 521/521
l 439/439 518/518
l 439/439 521/521
l 440/440 441/441
l 440/440 522/522
l 441/441 520/520
l 442/442 443/443
l 442/442 523/523
l 443/443 522/522
l 444/444 445/445
l 444/444 525/525
l 445/445 524/524
l 446/446 447/447
l 446/446 448/448
l 447/447 525/525
l 448/448 450/450
l 449/449 451/451
l 449/449 453/453
l 450/450 451/451
l 452/452 453/453
l 452/452 454/454
l 454/454 526/526
l 455/455 526/526
l 455/455 528/528
l 456/456 527/527
l 456/456 528/528
l 457/457 529/529
l 457/457 537/537
l 458/458 529/529
l 458/458 530/530
l 459/459 527/527
l 459/459 530/530
l 460/460 531/531
l 460/460 532/532
l 461/461 607/607
l 461/461 622/622
l 462/462 466/466
l 462/462 534/534
l 463/463 608/608
l 463/463 622/622
l 464/464 465/465
l 464/464 524/524
l 465/465 612/612
l 466/466 613/613
l 467/467 536/536
l 467/467 573/573
l 468/468 536/536
l 468/468 537/537
l 469/469 538/538
l 469/469 572/572
l 470/470 614/614
l 470/470 617/617
l 471/471 575/575
l 471/471 576/576
l 472/472 579/579
l 472/472 580/580
l 473/473 582/582
l 473/473 604/604
l 474/474 583/583
l 474/474 584/584
l 475/475 578/578
l 475/475 585/585
l 476/476 546/546
l 476/476 563/563
l 477/477 547/547
l 477/477 588/588
l 478/478 547/547
l 478/478 548/548
l 479/479 609/609
l 479/479 623/623
l 480/480 618/618
l 480/480 628/628
l 481/481 551/551
l 481/481 593/593
l 482/482 553/553
l 482/482 594/594
l 483/483 554/554
l 483/483 592/592
l 484/484 555/555
l 484/484 558/558
l 485/485 555/555
l 485/485 556/556
l 486/486 557/557
l 486/486 560/560
l 487/487 557/557
l 487/487 558/558
l 488/488 559/559
l 488/488 560/560
l 489/489 517/517
l 489/489 561/561
l 490/490 561/561
l 490/490 562/562
l 491/491 559/559
l 491/491 562/562
l 492/492 563/563
l 492/492 564/564
l 493/493 564/564
l 493/493 565/565
l 494/494 566/566
l 494/494 597/597
l 495/495 598/598
l 495/495 621/621
l 496/496 600/600
l 496/496 601/601
l 497/497 602/602
l 497/497 603/603
l 498/498 605/605
l 498/498 606/606
l 499/499 611/611
l 499/499 624/624
l 523/523 532/532
l 531/531 625/625
l 533/533 607/607
l 533/533 625/625
l 534/534 608/608
l 535/535 612/612
l 535/535 613/613
l 538/538 571/571
l 539/539 574/574
l 539/539 575/575
l 540/540 615/615
l 540/540 616/616
l 541/541 578/578
l 541/541 579/579
l 542/542 580/580
l 542/542 581/581
l 543/543 582/582
l 543/543 583/583
l 544/544 584/584
l 544/544 585/585
l 545/545 546/546
l 545/545 609/609
l 548/548 623/623
l 549/549 586/586
l 549/549 626/626
l 550/550 619/619
l 550/550 628/628
l 551/551 589/589
l 552/552 590/590
l 552/552 591/591
l 553/553 592/592
l 554/554 593/593
l 556/556 594/594
l 565/565 595/595
l 566/566 596/596
l 567/567 610/610
l 567/567 620/620
l 568/568 600/600
l 568/568 627/627
l 569/569 601/601
l 569/569 602/602
l 570/570 603/603
l 570/570 604/604
l 571/571 577/577
l 572/572 573/573
l 574/574 614/614
l 576/576 615/615
l 577/577 616/616
l 581/581 617/617
l 586/586 591/591
l 587/587 618/618
l 587/587 626/626
l 588/588 619/619
l 589/589 590/590
l 595/595 596/596
l 597/597 620/620
l 598/598 610/610
l 599/599 621/621
l 599/599 627/627
