v -71.176156247902014 66.730911126025433 -6.4032075922102649
v -68.821821294893539 67.342717314671447 -1.794364522437679
v -80.094193488555945 64.647655246952382 -9.2060718149372072
v -84.768770790871869 63.722725720215514 -6.3833970287504735
v -86.105678964193032 63.509622002452872 -4.2119808221323227
v -68.700551143414813 67.393847066123868 1.0858450779900735
v -71.178654172635461 66.837278089800876 6.4939098948159693
v -78.853452182564183 65.03430210833919 9.591580420562682
v -73.965502162853795 66.045558962727924 -8.4537450246416839
v -77.074023942045955 65.319725761264067 -9.3519122348550781
v -82.720207830540744 64.107029458601176 -8.1199160663569092
v -73.460011145734768 66.29525954955929 8.4119498920250884
v -69.514693768863481 67.219967849090494 3.9663978093979408
v -85.908803533902585 63.638146521141323 5.2941519638561552
v -81.556178582594271 64.451433570136459 9.097311947971388
v -69.720591573928488 67.098876993715891 -4.3527692192082501
v -86.967655616194421 63.431952990701944 2.2374010220051463
v -83.82098184772093 64.012760227217527 7.8051583156568629
v -87.061936251823056 63.384164421122108 -1.0203217062322087
v -76.143290351393119 65.657153763379256 9.4246241814263882
v 17.316202541789696 100.06642799931916 -19.15092607025651
v 7.8965421714723973 99.724558352359139 -21.124324698771446
v -4.1599269157021475 99.447975511266208 -17.79324795100964
v -9.0737698785367993 99.634209316223107 -13.893641609735775
v -14.415182079717837 100.64491625752652 -3.2323986729247407
v -12.690025204256441 100.0868032487143 -8.989498169021541
v 12.381916537386131 99.474419365239754 20.398020368450602
v -0.062862565845424531 100.48603603674999 20.273048406189623
v -5.5149154016139388 100.90154878345339 17.797204637685532
v -14.755608172723869 101.08157353196418 2.7849985147639718
v 24.789147507449705 100.05936322434597 -12.865460511024091
v -10.143220637693023 101.18153907970699 13.918271010091708
v 20.105116248294859 100.1257174606682 -17.455012631877807
v 28.174725522080827 99.454463137241248 -4.1074493170596202
v 11.101610699012788 99.848809492030085 -20.910380270644492
v -1.3145642246287133 99.454363292826685 -19.27042559130215
v -6.7478275301504613 99.505086829697916 -15.971992969817057
v 28.219847413449468 98.959383504963654 2.2925108163488535
v -13.75088589462008 100.36857444925788 -6.1666101318598736
v 20.685053767686945 98.8552470219783 15.751405890208067
v 18.182609258780666 99.028840699974239 17.718050661675214
v 24.864175846003846 98.681943301034138 11.090470008157347
v 22.960059717668841 98.733310684780719 13.572460423110002
v 6.0450891447039776 99.985639292748829 21.080312508358908
v 9.2287249735246029 99.725427943808313 20.948895013143336
v -2.8810305965568537 100.70633003129586 19.247554051945713
v 27.488172675538351 99.7114340821106 -7.2187471362655726
v 14.274007825770884 99.967821604953969 -20.290801553367
v 4.7156524275547174 99.607901596700074 -20.940272153828811
v -11.095764450015237 99.832860793000478 -11.576498822804181
v -14.810452782151646 100.89099771962823 -0.24345436452197952
v -7.9640667656157964 101.06270331421123 16.03119376765633
v -13.233419203776853 101.25987732665172 8.6600136025474512
v -11.900564831519272 101.25054792301133 11.422824250540032
v 22.628142882839384 100.12821548981627 -15.358481422423566
v 28.423941578617242 99.190625663464814 -0.91042136133184726
v 15.410310140201439 99.23764261849665 19.329616882493657
v 26.384623666461934 98.696239308280468 8.3526024395359286
v 2.8780548555802667 100.2467865266444 20.847442883823099
v -14.201656212894427 101.2041971483158 5.7751782864265113
v 27.518185183716952 98.788967524445269 5.4047836000423626
v 26.399252241772295 99.922043276922963 -10.182551134492716
v 1.6217000516901496 99.511482447448742 -20.325277616265026
v 20.331159010139476 -114.32077789091906 12.420899582607166
v 3.3143116047410244 -113.40734154797011 21.305455772960492
v -16.17815538716242 -112.22248862042787 10.44352494403277
v -18.435582257785008 -112.44117352055359 -0.97362589185843074
v 19.142659049143468 -113.76900061518344 -15.011145730455247
v -14.102580365517341 -113.2524974734478 -12.167960244167713
v 8.8756145015849448 -113.75120365463323 20.416346380960547
v -8.1057871012960039 -112.71104604085022 18.584930288552492
v -2.5555516921095647 -113.05477413735694 20.725682543784057
v -12.740712705046572 -112.40891161404414 15.04759141732424
v -17.918303565884976 -112.22941753937988 4.9517973795346375
v 13.790957022064507 -113.85895866560786 -18.832032004877025
v 1.8339839665415825 -114.11324023346266 -20.720271332348535
v -4.1380852251774662 -114.02921876068464 -19.334852344817037
v 15.406692107532065 -114.12932065864237 17.265003856704361
v 22.181876197681895 -114.33861254085434 9.6360720653421055
v -5.4196609077560591 -112.88004111584212 19.860087044761485
v -10.560468486265322 -112.55056122945241 16.968952221795519
v -9.5799777374587656 -113.70942446367911 -16.401364379658204
v -17.000287951313162 -112.80290559785841 -6.8004105220586366
v -17.931742792780156 -112.60723534023383 -3.9295929021343685
v 12.31122153741223 -113.96026020296512 19.099928932567117
v 18.077349596339548 -114.25133961270629 14.991861595979366
v 23.541194923504513 -114.30599643903226 6.6440396900224927
v 24.380857207185734 -114.23244315224676 3.5046608222201985
v 6.1600003056232415 -113.58175941587291 21.029912831874583
v 0.38443859337870467 -113.23205689175347 21.20852335233268
v -14.652261828738888 -112.29582126816604 12.885684225430079
v 24.511417316684287 -114.01442609804144 -2.9282888559339533
v 23.936350646122293 -113.90956178036237 -6.0841397124033723
v 24.696311151655465 -114.12910434534794 0.28866478714393995
v -17.213375300956983 -112.19975567913008 7.7532500423683519
v -18.368735248963802 -112.31179513614185 2.0104825124200634
v 16.610198568606368 -113.7946613298158 -17.227094677526892
v 7.9052887026753069 -114.01247276924605 -20.697848644705111
v 10.889079067427806 -113.9409634227697 -20.018482269130235
v 22.893520369435876 -113.83204047565044 -9.082465436477559
v 4.8795157986581872 -114.07826887987619 -20.911750917625266
v -1.2183439734950376 -114.10093405887071 -20.194826218304637
v -6.9464106132997596 -113.89488516474614 -18.055199078435642
v -11.993695258559377 -113.4878679528852 -14.436456158832693
v -15.748636686611643 -113.0210150054403 -9.5744905655719386
v 21.255789355794544 -113.78078557055204 -12.249870847065743
v -4.239501327255879 23.819000761190349 -18.81602232412569
v 3.5182776328179837 9.4406321545252467 20.812479351075989
v 3.4545680210073662 148.58461581624431 -5.3101015147644501
v 2.1415155259329604 142.89347294136473 -12.822320038957088
v 2.5965125936799942 145.19637552677619 -10.487089619938677
v 3.9852441321032357 149.48248144117139 0.31938720673427373
v 4.4871963576445362 59.508285642552138 20.897846748509558
v -3.4147756586356706 -27.961914125537717 -18.906833795958754
v -4.6375002469262387 20.055615140574925 -18.832086969509302
v 3.1156420125337903 20.212129962246109 20.717491406721436
v 3.013686297580489 23.10092205929233 20.706370803642614
v 3.3242899167086124 14.660155293309099 20.857614648277014
v -2.946900770497014 38.291020249623472 -19.159478043880689
v 2.965156427630788 35.23597196285278 20.885154393188721
v 3.0476578000100054 147.113803584751 -7.9628562512679668
v 3.7876807210278196 149.30095187223139 -2.4943041039918961
v 3.7757161424282817 146.79168393896998 9.4663988098585108
v 3.5402499993259173 144.63821952524293 11.949106054707453
v 4.0383585461493512 149.18140313892371 3.5300787349270433
v 3.2940643282645521 142.09370581604048 14.143456629925961
v 0.025525605763142965 115.66186510589273 -19.595270132990734
v 5.7734405902194386 -141.83470129481373 17.530246502186039
v -1.1713517032765739 -148.78286326946835 -7.6079856021393155
v 7.6619239980633704 -129.93733278737324 19.873906114578123
v 8.8756145015849448 -113.75120365463323 20.416346380960547
v 9.0115813061491394 -106.47252822889854 20.516128879888484
v 9.0003774529282907 -99.408629140418469 20.50272083481515
v 9.0000820311571594 -95.968086744516029 20.524169525507254
v 9.0320425025666911 -89.392049296231932 20.61963012443848
v 9.0469289121907739 -86.258134197622368 20.636790579318145
v 9.057403199009002 -83.149503984687797 20.645349521693397
v 9.0473538444680859 -76.656143680720376 20.641256320501817
v 9.0222973412276559 -73.156785703410932 20.637398453096679
v 8.9369348864693841 -65.652103825475564 20.678174637157582
v 8.8713713341641807 -61.728290549505274 20.714663504755549
v 8.5268638550367175 -50.01404278478644 20.851061875708481
v 7.8679463240142189 -39.511797542967798 21.04448405681039
v -1.7725263339984192 -44.160203542762645 -19.734018728493375
v 6.7841033487159477 -29.530885273258789 21.267265891818557
v 5.8432389173939576 -22.474585091033667 21.302565515209793
v -3.7924637698864556 -24.373252182799895 -18.776451218541471
v 4.577077823268203 -11.977497145103793 21.078796096048201
v -4.7551970257078615 -12.953238686444458 -18.408749000180443
v 4.1611737102527648 53.888797626940452 20.868838963328216
v 3.7320066136095473 2.6837392759563965 20.388875591086936
v -5.5067322339486857 5.7662292911932216 -18.698613287207163
v -5.2610271574119167 12.451338531080628 -18.766062440624623
v -3.5450060466227686 31.178606008838305 -19.006508650353339
v 2.8893277021575026 29.039432502946369 20.824625636439979
v 1.7508892633611963 140.19623363298354 -14.782315019158267
v 1.4422567796719312 137.26270283220362 -16.343445939632321
v 1.2004668436182944 134.21697348291246 -17.524788805094982
v 0.81483033092825929 128.06396856476474 -18.979749441629863
v 0.25857573568614267 118.78485597222344 -19.567459102490346
v -0.5117334098388282 109.33691084794911 -19.555722291460324
v -1.3145642246287133 99.454363292826685 -19.27042559130215
v -1.9518919640734393 88.759418670261454 -19.077501635027854
v -2.1381924162539345 78.027106837887359 -19.005661083520096
v -2.1358961680965027 74.55825531569775 -19.06587626145626
v -2.0424304546183523 68.124463214237622 -19.156071127679176
v -1.9748501914566563 65.128648656205485 -19.15426234467067
v 6.3342939767602697 -138.95830151858604 18.426329190739754
v 3.0628462494030035 -149.07621191656972 9.3067514100794302
v 3.7808143296612782 -148.12461436916601 11.939513629195568
v 0.82204350961130679 -149.81703745019337 0.51689707558847275
v -0.50178881111126794 -149.34988807304956 -4.8673432754868227
v 8.0199058061502875 -126.8581252120467 20.160201112141493
v 9.0101626280834211 -102.91287543500486 20.505783459089272
v 9.013581714941056 -92.621709175168917 20.576941016061255
v 8.6721787846823801 -53.838089467043233 20.80332428690247
v 8.1300078232337949 -42.86215088300608 20.980151730188979
v 7.1970943223877866 -32.917798628861149 21.192954426951871
v 5.3704657414387462 -18.885825374385981 21.279753473528427
v -5.4343293855969979 9.111127166695919 -18.751218845046409
v -5.4981817388091425 2.1602722429187842 -18.639966059614515
v -4.990193004303336 16.258775013739459 -18.821607874006027
v 3.2189226365842032 17.394005302752902 20.806570201675974
v -2.4207253217498153 45.315694059524027 -19.15025410195263
v 3.4923022922936529 44.884151218846455 20.740846776539954
v 2.7151710816066403 132.77808391693003 18.433664829003327
v 2.497349743400278 122.89584778071517 20.098566949251143
v 2.5819681161685404 113.3942764484645 20.703118589423287
v 2.8016105703574228 103.58471047618372 20.820813958409964
v 3.0426940591494613 94.214161984905175 20.894712970902773
v 3.1589654820282238 91.119952001741879 20.92182992773018
v 3.7087116860184492 81.723256003554411 21.050568383140156
v 3.9374701337806539 78.627572954490176 21.10331143066707
v 4.5045561082229 69.314672504646808 21.085289579693569
v 4.580481340531076 66.111025894943651 21.019819227157416
v -2.7237709178696554 -144.37629109001892 -14.830739945868853
v -2.8808857697683905 -141.81141352305281 -16.344162918395611
v -2.6242677746194327 -132.95250390009625 -18.929285672784168
v -2.3849031061603592 -129.70356389644047 -19.366766751795538
v 8.7313982923630427 -117.14005580193249 20.356887790977005
v 8.5600811835777009 -120.47038685795877 20.37882353945038
v -1.5016913597643931 -118.3898822190173 -20.09090070640093
v 8.9754967506627104 -110.09118775567254 20.495174123867699
v -0.94569756561406715 -107.74985579953344 -20.261688555529638
v -0.824763174956747 -100.44735595083142 -20.29232012917921
v -0.80289148152095624 -96.53577255147556 -20.318091224552809
v -0.78716930462046397 -88.781975003467551 -20.332464601065631
v -0.77863370867954607 -85.065432757441499 -20.308345356595254
v 9.0593459339005875 -79.974242902011994 20.648645652062282
v -0.75868172944819079 -77.92679674436738 -20.263066484780815
v -0.74893148312277757 -74.476455521655296 -20.233308352294799
v 8.9853740398486526 -69.478084975280041 20.647649144773482
v -0.75972035572719898 -67.692687552158958 -20.172223711161141
v 8.7851228713721952 -57.767007128889738 20.757298392699674
v -0.96212163248403737 -57.382847502164701 -20.08040873407997
v 8.3470611504410464 -46.350518232466399 20.908955523180765
v 7.5557953705307295 -36.224562394069039 21.103262394574109
v -2.390455850198653 -37.816151462710721 -19.429338750792525
v 6.3253638905888465 -26.042591546303033 21.304114211859968
v -4.46136921520851 -16.814309246508223 -18.476786145470932
v -1.9266523585224142 55.839041846994931 -19.038120335220157
v 3.9526185192449081 51.105236955237032 20.855212379304785
v 3.4274903641293237 12.015234438553648 20.934734887049231
v -3.8607054397570111 27.531453353755282 -18.865734165192748
v 2.9349905402975818 26.044374888231392 20.752986355251576
v -3.2289180437102782 34.758801853962396 -19.079867146830431
v -2.678986930961047 41.802142350124839 -19.187312453381519
v 3.1018213422493472 38.442259669143773 20.805624220912982
v 3.2840208545016756 41.67825365854155 20.737061687926786
v -2.1963267764143728 48.848893172050602 -19.091089464378669
v -2.0206911123455491 52.412221290364315 -19.032131714512794
v 3.9596018078292556 148.31604504417118 6.6209734093627866
v 3.0792369125992405 139.15812832926258 15.8943136171651
v 2.8676355061891776 136.05651580202942 17.389432292591671
v 0.64538115657703488 124.98099718574639 -19.315633409794536
v 2.6116495962184385 129.43939924611436 19.116906552681566
v 2.5402267173217261 126.13284357131981 19.640673129621113
v 0.44877675689386465 121.89318918711399 -19.533023134141381
v 2.4944875862348739 119.7155103752263 20.4164197179729
v 2.5271446196394898 116.56252727523713 20.597746174645813
v -0.22152825783468233 112.51759481066439 -19.55766533349551
v 2.6485563140915032 110.17630125857792 20.77385681380877
v 2.7232568320035 106.9012834963893 20.807746993449257
v -1.0417016192301436 102.78403836858234 -19.332999500006895
v 2.8780548555802667 100.2467865266444 20.847442883823099
v 2.9519960193057675 97.251839916915628 20.875219470084012
v -2.0588122447065782 85.190855692583568 -19.026774112829216
v -1.7881248833358128 92.303826183130241 -19.132380017087037
v 3.3092753843816594 87.985773312916621 20.955292454410294
v 3.4948692714594256 84.844719513899165 20.99913116656262
v -2.1017997268415005 71.253289530095856 -19.123479198737645
v -2.1170079290313168 81.597227507110517 -18.996503915304757
v 4.1610428130296633 75.544638890750093 21.140585175816682
v 4.3583439388524505 72.45030850226297 21.125564416575315
v -1.9249759087094038 62.196214156005027 -19.135966975216618
v 4.5742955814181059 62.832809566187834 20.959161230605964
v 6.8329266291841071 -135.99323435470555 19.072255478890597
v 5.1486265604545363 -144.53961168001342 16.30229303615917
v 4.487128527719026 -146.7601266090638 14.424049641598121
v 2.3337229354009699 -149.5400729740964 6.513077523152706
v 1.5895162023530531 -149.74918145355019 3.5847185152039334
v 0.16630498052944356 -149.68041656874954 -2.1413482937158896
v -2.8812423332665564 -138.98951904365774 -17.433075538382688
v -2.7968546261370841 -136.0391164523503 -18.302157391186363
v 8.3141367951370704 -123.70796716699026 20.296222989067335
v 7.2731412296373286 -132.98252670819085 19.543203312399253
v -2.1048052443506 -126.22832039267011 -19.68407228336681
v -1.8070804884943694 -122.46067181286978 -19.932631253683823
v -1.2183439734950376 -114.10093405887071 -20.194826218304637
v -1.0591591750406746 -111.02015271430695 -20.23777501023546
v -0.86991127279215652 -104.21917984317128 -20.275317380359262
v -0.79432509905237159 -92.615504241127709 -20.340011195910559
v -0.76861947148617427 -81.452823749908575 -20.284328742887418
v -0.74654222307092533 -71.079329532491869 -20.202329947740829
v -0.79741326356861464 -64.276846974403014 -20.148955884094494
v -0.86280602607303014 -60.828215927352787 -20.118694827155672
v -1.1005995668927118 -53.985121809080667 -20.027796010826258
v -1.283458214384211 -50.654764694468064 -19.958502766125754
v -1.5107604071762373 -47.384238190872075 -19.866584794884218
v -2.0748793627620619 -40.975252450014878 -19.603167239409913
v 4.9396501136553699 -15.359648090897029 21.214233111551408
v -4.1438744753972614 -20.638356498123713 -18.625393984350236
v 4.2940036376226534 -8.7836438676854254 20.904370865362402
v 4.0903845711096309 -5.7701496444627187 20.683428741717808
v -5.24293472803088 -5.270009747787161 -18.46820559249052
v -1.904127320332591 59.271225813336656 -19.09585788023811
v 4.3487152127966047 56.690779512184676 20.891180606044578
v 3.647224915965392 5.3682951134778722 20.554077655526484
v -2.382689400310503 -146.49440265710712 -12.808271954759592
v -5.0280259208861757 -9.0950088338824244 -18.426687034381779
v 3.8282380391968553 -0.072021180189528744 20.417052649302089
v 3.7190525794267617 48.019947381926613 20.793568047531455
v 3.9416738102866189 -2.8832911054835924 20.510538297342851
v -5.4058193582010325 -1.5125939767575329 -18.556059017437541
v 2.900110121015627 32.099109333997788 20.834278930068436
v 1.0024559731848974 131.13944075462814 -18.37874906597343
v -2.7197193820148717 -34.639228183015618 -19.260771894174852
v -0.77808671029740362 106.09288758326163 -19.444187956459118
v -1.5754174688989988 95.858088654608963 -19.201427240415796
v -3.0697994451626931 -31.376183375553293 -19.100883794436371
v -1.8210484860993759 -147.877394492717 -10.291773332756808
v 26.009738956475797 8.7741591107696557 4.3723552650374575
v 3.5182776328179837 9.4406321545252467 20.812479351075989
v -76.794084465638932 133.27837220720426 -4.8996849398912872
v -81.382505172341467 133.83386484192752 5.0010008899937279
v -82.110346149634438 127.570627411385 7.8623208538816858
v -82.337667813701074 118.0180335713014 9.0140113882827038
v -82.017727851161055 105.63926342331312 9.2638280698721971
v -73.989895789522393 94.938193450066635 -8.6751212741393253
v -81.746953672876089 95.948960159323462 9.3828742420274409
v -73.31567360264259 84.011070436032952 -7.9676113587284174
v -81.421146446262313 85.820992054166709 9.6080587751559907
v -72.595125260311065 75.622528252227283 -7.2221529668247904
v -80.598409578662086 75.160964880882631 9.7448694522868635
v -71.176156247902014 66.730911126025433 -6.4032075922102649
v -78.853452182564183 65.03430210833919 9.591580420562682
v -68.201244594584693 57.327473366150286 -6.0083901631246057
v -75.388630075987237 54.937541589632957 9.7174905218783056
v -64.412880565231973 48.94295176343099 -5.7949473474555768
v -70.669105841101072 46.186118501919324 9.7799584189744238
v -60.073235858496801 41.71528876836603 -5.73273244448513
v -46.812696021522143 28.302677423468502 -6.787041335136502
v -50.02406585366478 25.763471916081272 9.3297328803557349
v -40.995865879100592 23.797152026085911 -7.0365296147094858
v -41.276610843172335 20.415497468801114 9.0592334395403906
v -19.080627753796911 14.443488893184853 -12.563802196498235
v 16.782135369494881 10.292997031303472 -18.047845069521927
v 26.58055324082164 8.928982326018593 -2.0310085516466794
v 25.32667125349132 9.2405523346634499 -8.1836937437200348
v -75.707895060363484 130.56873315859247 -6.3211281150960295
v -77.918523419840113 135.37447620193717 -3.2638281698329035
v -81.829808311083752 130.73781980712747 6.6975349272408682
v -74.330742282068613 124.65715088024464 -8.137821624687497
v -74.076583140780798 118.16445280292963 -8.7667469141073742
v -82.309876548911035 121.15584158352907 8.695367039816416
v -74.219075815361066 111.53690658381106 -8.9700620899301917
v -74.395650862283077 104.87764781406939 -8.8402461302779329
v -82.253224309904255 111.82923284577285 9.4025507443846585
v -81.829175677293193 99.240402932368255 9.3429078825471947
v -81.563628896201664 89.245641823975092 9.5473585532336429
v -80.952056036346335 78.748922625460011 9.7416441587053875
v -79.579720521592861 68.268320875381534 9.6767530298213611
v -77.860149048593016 61.538675861265403 9.6360991954360422
v -76.687658294311348 58.168463175572903 9.6367187856335832
v -72.375106130838788 48.94533338778497 9.6977700952161499
v -66.944064799247826 41.041094011027177 9.7463490034558014
v -64.893689219632876 38.626050494084126 9.7372912034207317
v -57.656158082923504 38.524807922662845 -5.8411413047398106
v -60.448614915897991 34.004099010032981 9.5461880240196049
v -58.034784682679302 31.811663003926853 9.4562295303858228
v -52.812979695763765 27.700822958769926 9.3554206438736038
v -44.253300878015956 22.076821584787012 9.0251970277691811
v -31.896953753358702 18.449911739545392 -8.1662415352458755
v -35.210313821067629 17.459021379310407 9.1397293012212444
v -28.763431610498632 15.01329513663914 9.6970925971032731
v -25.697911150599069 16.164455252718188 -10.077136201802904
v -21.678198797613117 12.945269074760246 11.23557022017871
v -15.233040389244612 11.510244038917577 13.571135061502044
v 22.213728425651702 9.6754955752781804 -13.409539208235344
v 9.8434854521651864 9.2839043298662691 19.769794325039648
v 23.248816661595747 8.8312696127856505 10.372339147214872
v -12.251671652043459 13.249192690384216 -15.634394643802487
v -5.2610271574119167 12.451338531080628 -18.766062440624623
v -6.5109214343349358 10.241191156334114 17.653840665256411
v 18.685143804828204 9.0236690552285257 15.313011453151795
v -74.200790764473993 98.265358517869942 -8.7460654507081834
v -73.756372923947396 91.501749215086051 -8.5358595352676403
v -73.018084409712046 79.912119386389946 -7.6065210000564178
v -71.986836503697589 71.207171396156156 -6.8290347020327919
v -69.805889530169651 61.947244044687551 -6.1929503246332018
v -66.379855169179677 52.983554421269659 -5.8830560194535222
v -62.295087436226439 45.205250564307427 -5.7580100396336826
v -43.930528236529859 26.028734517729987 -6.9495103290873619
v 13.406834848927559 10.639358811723984 -19.4264046449874
v 19.745046813246777 9.972589816591297 -16.015711409723387
v -74.865380416114903 127.71516408648786 -7.4038874606560094
v -74.120069487680297 121.44346222299959 -8.5343831278080149
v -32.055057656723562 16.182617945334108 9.3260917524602363
v -8.817859874421373 12.820070424468334 -17.278711850262276
v 6.0221842995832704 11.376794414210696 -20.833920563204007
v 9.8007595675559713 11.00334533032078 -20.367831085999867
v 23.952163125723452 9.4456644469215831 -10.938359252504929
v 26.546943143753204 8.8275469675026592 1.1741677993083701
v 21.169302892139875 8.9176681947855236 13.023476905046547
v -74.155522114082643 114.85746272386498 -8.8625644935805887
v -68.857436484925458 43.559978445096235 9.8460726192660779
v -62.72790926787988 36.282180818000654 9.6773653331054721
v -52.402313132930587 33.012091446881676 -6.2478036371406809
v -37.995033514245819 21.730208569022082 -7.1867534029911138
v -28.83114699581192 17.209588928943042 -9.0198312943789425
v -25.30898051175576 13.932718187945675 10.338329055736779
v -15.673160276766932 13.782762500828795 -14.046863341292273
v -9.5317213675833443 10.620402867848835 16.206751115773216
v 2.1638932989810842 11.748438932154205 -20.738781359921241
v 26.210163653127573 9.0674943188182375 -5.1805048470260679
v 24.869281511907339 8.7791765042670669 7.4569317747605188
v -82.243235490192475 124.34021663473234 8.3665525656939934
v -82.139485263749705 108.74788494868523 9.3560325772857205
v -82.322863137791785 114.91401574810619 9.2784601178570867
v -74.341990239108213 101.56451548518037 -8.7926734643989075
v -81.910105404418985 102.472545086265 9.2339367953239702
v -81.6637421856895 92.615807765495333 9.452134936233394
v -81.221806461893891 82.32046005739673 9.6777551890738316
v -80.149369150130497 71.644756776355578 9.7087636121736232
v -73.946576890309501 51.86337305939422 9.7712269563416676
v -55.08611335815884 35.630050683743818 -6.0058232849505169
v -49.644361111783667 30.598298107618191 -6.5325807765964523
v -55.51500329630764 29.68119562324674 9.2974158149704937
v -47.179094442431314 23.864782207329792 9.1340633538575311
v -22.438666025359346 15.238142807118267 -11.23590516793325
v -17.930821223353657 12.058899460138218 12.459700779499965
v 6.7159080456821636 9.3454667409617578 20.565139567279473
v -3.3401638767150694 9.9073198486237857 19.037454546925417
v -34.963135896689153 19.907811209175847 -7.5187655960808613
v -12.430193384734144 11.04051101329582 14.815784716685947
v 15.882120609406606 9.1315505353749167 17.162874646795423
v -0.0010401036705658768 9.6323304379007908 20.200375096879799
v -1.6322334712144493 12.106583467694797 -19.995061085978211
v -73.541551435323953 87.874992832939952 -8.2893592958566522
v 12.907108613486562 9.2192189929782309 18.630688602510645
v -74.328849592283646 108.20660905349675 -8.9309174693929698
v -38.259373107764077 18.895301538149333 9.1518534352102616
v -78.50253625654598 136.28613692828739 -2.2789796559332656
v -80.180069073449957 137.00781893734984 1.3299062255215897
v -79.647296065259866 137.15895044979465 0.066177978407698054
v -80.950911769054116 135.60707482155408 3.5074855744638138
v -80.618938843875682 136.43771305275109 2.5020888109692474
v -77.341805219272516 134.32380574848213 -4.1396055906319225
v -79.06981457943094 136.97171397479781 -1.1788735002519544
v -81.197863399438177 134.69648519486356 4.3398378410030372
v 23.012674219648307 29.152439090609938 -13.842908962043326
v 19.897858920655274 142.4722516934772 -7.7099676137070343
v 3.9852441321032357 149.48248144117139 0.31938720673427373
v -4.4550282144877729 145.48185604888783 3.1389999355598031
v 22.794222794815255 136.31279562455461 -9.7052444635714217
v 24.373684450846021 129.33646452564474 -11.084482095492879
v 24.877495407715429 104.35851218892648 -12.80376376972448
v 24.553104882162799 84.330931999069747 -12.759084057670092
v 24.416363357112772 76.963311143283505 -12.690841790872813
v 25.169366481019338 56.277605213463531 -14.409427606664574
v 21.973793133799635 -135.05217100602181 -7.361599436888973
v -15.61010225464997 -31.770558058916876 8.9555557161765407
v -15.176663385638106 -22.792361500031987 9.5173650992096981
v -17.712631318467537 14.93849338903579 12.417619369941313
v 22.338207611355664 15.977227747041777 -13.603311665145821
v 22.264340168475506 12.807620558263565 -13.527045593051554
v -14.583327614253221 29.668204073002915 10.667626533754181
v 22.588823430453445 22.482129790703606 -13.708002630698818
v 22.448824698041136 19.20248598448649 -13.661350044555423
v -13.604171967153823 36.309172579382157 10.562913239652545
v -14.059899862909036 32.915128292362567 10.573946658597926
v -12.880483751297852 43.217386269418469 10.66910723234168
v -13.218712991345331 39.776574977968259 10.610419976311798
v 23.338379398096343 32.563298732438383 -14.006907157329101
v -12.46051738904243 49.803528491641799 10.753881919690521
v -12.617824536841997 46.564642213329606 10.721289574330594
v 10.438734204064662 149.29124646292723 -2.3998998033900172
v 13.24878947602533 148.36771868186042 -3.7911249712314818
v 7.3269092467811294 149.62822704662057 -1.0315817850732416
v -6.4253596922209733 143.29553581351337 3.8857809772652656
v 2.0291277257926321 149.06026039773195 1.0324571750643659
v -12.287645875665504 127.89966141917202 6.9705577589968906
v -12.982424892292968 117.10918399945587 7.9443147800667759
v -12.681867476822823 124.40253216757112 7.3688004444403576
v -13.179393946567824 105.32702499954974 8.5213508776131128
v -13.061289305679193 113.27775670819187 8.1694265930903089
v -13.261915456482841 94.841760852333223 8.8235493646795931
v -13.244987345210927 98.070307200779666 8.7433242724104545
v -13.26825704023728 85.106751022721824 9.0964858859136335
v -13.277800234971625 88.346199333057612 8.9936403380121632
v -12.939426370095461 71.670051350109787 9.7828116986870874
v -13.160110680558283 78.588518139569572 9.365908590935323
v -12.555502292354831 59.970337877797654 10.545804576212518
v -12.702279011890584 64.008845524073067 10.321476080980265
v -1.8152851735954703 -149.65971666727475 1.0635596370191791
v -16.538546573481234 -135.70494714732706 4.2179314617759456
v -15.04333567594966 -141.41325061828445 3.5988937838920974
v -7.1202454954708143 -148.78982000901291 1.9528781910306732
v 22.659988837148536 -128.53063102621701 -8.0459983719498638
v -17.73531459781465 -123.72460309467326 4.884604594579641
v -17.292856174082125 -129.73833756351883 4.6431715684766424
v -17.918303565884976 -112.22941753937988 4.9517973795346375
v -17.912261868134387 -117.85561305324433 4.9671127250443412
v 23.042814866517503 -106.96662156649697 -9.3449224130091224
v -17.79403283844842 -101.4638133423624 4.8406983691723671
v -17.863805055674945 -106.77478812877322 4.8976096203344017
v -17.637052348376681 -91.082082641843357 4.796646207851448
v -17.70955302890841 -96.254071804164909 4.8009859075781023
v 23.319859412256235 -90.793170654494091 -9.340017800717856
v -17.51045729435328 -80.778180349270201 4.8964211597815872
v -17.587457862646829 -85.919313289922712 4.8340457738052267
v -17.245355945107512 -70.334714312637672 5.123099746744793
v -17.393643033900915 -75.608832783454275 4.9823167073106056
v -16.90255355344916 -59.512918314839638 5.7769514550475609
v -17.099699038514444 -64.953751920986079 5.3764131973310647
v -16.65454425852624 -53.994748200003812 6.3396106089757485
v 23.46037364337775 -28.951755028023904 -11.290738456185888
v -15.262285420826242 -25.683234211389824 9.3773008686231449
v 23.105641174701418 -16.749981114082097 -12.050315266614598
v 23.326389378552157 -22.78962354062979 -11.671691872776286
v -16.083999073145343 -10.433377035511072 10.444552734427187
v 22.51082585859389 -4.6401301676193301 -12.750156215727326
v 22.816963901481515 -10.778909037153234 -12.406657244957415
v -17.539350728974863 1.0500130415905438 11.662389177255273
v 24.843366568985864 62.765979108856243 -13.572428640858595
v 24.707352730139945 43.996505667808087 -14.819728484765267
v 22.213728425651702 9.6754955752781804 -13.409539208235344
v 22.296786209435869 1.869424573526226 -13.092931361439154
v -17.14776527420867 -3.0570637723585667 11.311478312293055
v 17.938059997812328 144.89494909570323 -6.4733363390015057
v 21.52443615755503 139.57131823477133 -8.7813235849082893
v 23.715743153414074 132.84290484113257 -10.459617028086289
v 25.018559744803802 122.54159538591972 -11.952553001610035
v 24.789147507449705 100.05936322434597 -12.865460511024091
v 24.648461938088033 91.146219856814909 -12.854667367698092
v 24.491602062823759 80.67433356304582 -12.715504323030384
v 22.796141897335218 25.799014667031152 -13.779649525370441
v 23.784422520842924 36.100475028902586 -14.267258644655895
v -8.2867380944881468 140.79059603667542 4.64492834453893
v -12.86280319943117 120.81267751216424 7.6782442836932407
v -13.108107375281275 109.33850817577807 8.3538836033297912
v -13.059023025179894 75.211102304985317 9.5523783107304148
v 10.022175508107591 -149.45546809330926 -2.1134204433743267
v 0.82204350961130679 -149.81703745019337 0.51689707558847275
v 4.0393785885984519 -149.87168576071397 -0.27576713733373748
v -15.88262785658333 -138.59876411863735 3.9230457666490453
v -17.539490132868831 -126.72444401137261 4.7845819217135102
v -17.9275587333562 -115.01258709067366 4.9673080648075043
v -17.823012596448272 -104.10393127013677 4.8665729615485001
v -17.660652612979188 -93.667127178948419 4.7917276311413168
v -17.560113024354088 -83.346955644754161 4.8641339690715828
v -17.323326788636567 -72.986959058826841 5.0428520057634305
v -17.007314465779054 -62.238552356724099 5.5561584798287527
v -16.518381749968341 -51.146524039650274 6.6751667620716626
v -16.056913534588098 -41.794977879202037 7.8289962551151735
v -15.752886140963145 -35.047398208910806 8.6208430578322854
v 23.497603760067811 -32.030313375369872 -11.117173837645815
v 23.225253972345669 -19.75219019069759 -11.862784368984466
v 22.649203589467824 -7.7485542945238475 -12.571345261124774
v 25.03543179466854 59.383262415192263 -14.004466860736773
v 24.26844312332026 39.877963971393086 -14.570186273588703
v 22.227135107222008 5.2186382206429922 -13.231896957845077
v -2.3091603698693648 147.16593974097134 2.4095677113289664
v -10.860379660748183 134.66832601886173 5.9570775718606717
v -13.233419203776853 101.25987732665172 8.6600136025474512
v -13.273424174038684 91.594345580544768 8.9045454567056233
v -13.228911050705847 81.866537247831246 9.2166235548167101
v 24.414399424705028 73.287269086753042 -12.759056443195398
v 15.298673768787516 -148.06955328863449 -4.1446350621834434
v 12.749252767832473 -149.0038188604664 -3.120118022244021
v -13.838094739213993 -144.0531639949175 3.23207819904697
v -16.992332286158039 -132.74237050455366 4.4591383842774972
v -17.853481480988268 -120.76195329869176 4.9424059606045354
v 22.912849542089912 -121.43646180409897 -8.6450819431498989
v 22.958633782076188 -117.66457907405814 -8.9065703799311322
v -17.896546064374689 -109.48110399170895 4.9272294978362439
v 22.963243020204818 -110.36714787860123 -9.242558248296227
v -17.760179127954487 -98.849740657547613 4.8189699481063943
v 23.208714563530719 -100.36698095758237 -9.3985469322181494
v 23.264400147422961 -97.143315163569611 -9.3742280625304097
v -17.607330130337409 -88.498472088530093 4.8100056723863407
v 23.348317684460994 -87.663974223967273 -9.3650786774239236
v -17.448321190827208 -78.203048125536597 4.9335200330217113
v 23.386354068494271 -81.472849239353167 -9.5321228256055406
v 23.406206085853171 -78.383974416415199 -9.6673048472026615
v -17.174562556571594 -67.654836271665147 5.2329265833418956
v 23.478477904527459 -69.245106844202439 -10.120117169590145
v 23.477652583228139 -66.32570619263609 -10.225108026735469
v -16.781224838739035 -56.771677381999496 6.038216510713319
v 23.55494222828176 -57.897920811074698 -10.440430249006669
v 23.578103411420159 -55.12316811999743 -10.487422306675329
v 23.559853255591982 -46.708852730145658 -10.599323208393713
v 23.547312571932061 -43.858480283899326 -10.654034992070617
v 23.531592333196127 -38.051059798609316 -10.838221913779583
v 23.524425835313089 -35.069060753484017 -10.967944665861076
v 23.405597506838205 -25.861946515122185 -11.479380913690838
v -15.332614833915549 -16.896274098003985 9.8344521883855283
v 22.97475117228467 -13.767746571731639 -12.235664928273621
v 24.611825206495986 66.192369758916982 -13.182858151754246
v 25.063043471095362 48.482051488765649 -14.947605559060232
v 22.395373462371126 -1.4314756238297863 -12.929604455381199
v -17.289891627763009 17.857277079587149 12.172943720283687
v 15.737608593807227 146.88043611865254 -5.1605138966203867
v 24.485140625576257 69.695639845928241 -12.916071900943901
v 19.315329497901327 -144.12496600865535 -5.8728474907870538
v 7.1242701264544719 -149.73142986066603 -1.1606722167888681
v -12.081181884067238 -146.30764434901465 2.8206571920650001
v 22.816608271369862 -125.06873493602922 -8.3518754494525993
v 22.436408536148683 -131.84688373021748 -7.7328678159939166
v 22.893520369435876 -113.83204047565044 -9.082465436477559
v 23.122431820172309 -103.63599005825785 -9.3904654051373004
v 23.330033118555249 -93.953477366155866 -9.3624124196271765
v 23.372966179047761 -84.561797123901073 -9.4309659152213818
v 23.475446096398684 -72.242168884743066 -9.9887567145599547
v 23.441787970401517 -75.29887004422028 -9.8278322510094576
v 23.537010599034033 -60.676389182544163 -10.389856696402152
v 23.508645453031306 -63.477415484849196 -10.319353914763671
v -16.36278963627683 -48.182147923262562 7.0351820071749884
v 23.571586192972397 -49.534707362238791 -10.557095215058432
v 23.584606609493626 -52.338254565335276 -10.524943306062575
v -15.902112412475073 -38.423047376555608 8.235316386355791
v -16.210623597615637 -45.065518614544033 7.4238913843657528
v 23.541807336486603 -40.976909981403111 -10.736818640428343
v -15.203616846755441 -19.889937750437205 9.6593533839299237
v -15.416683705269433 -28.652955412049188 9.1970053383348151
v -15.607715720093314 -13.75442549256625 10.078930100691428
v -17.930821223353657 12.058899460138218 12.459700779499965
v -17.966946931796187 8.6452820797079113 12.285300998800231
v 25.231626990010277 53.272429878393446 -14.760068240621228
v -16.634598427963802 -6.8811398344936539 10.880843820138418
v -15.896475105599272 23.630641273926887 11.221286603317289
v -16.623032023009138 20.741998915789544 11.704483066419543
v 25.125703877043378 119.22739838648403 -12.246371560871694
v 25.16387630372482 115.84314450670169 -12.483016135185729
v 25.125097292088661 112.27580702423106 -12.651393103836631
v 24.736397144707162 97.217356860858388 -12.884291599614556
v 24.669773636470374 94.259718544479455 -12.868914738510961
v 24.607821081812524 87.838692895728968 -12.813920296128103
v 17.635155610255403 -146.56057285588639 -5.1262368535501892
v -12.831070905247964 67.930498205158059 10.053661618636362
v -17.836210076256258 5.4087159326046921 12.009797130752721
v -0.082261850548239049 148.28810343334379 1.7181859244314683
v 24.802240733675013 125.89492301394898 -11.583734526882816
v 24.987958259796546 108.45193807545877 -12.731041207143992
v 20.366150258680296 -141.20768834004122 -6.4162216955580629
v -12.435850175435968 52.96054917601888 10.761188699642242
v 21.223335670578894 -138.15819040741781 -6.9038463410836375
v -9.7562094054382733 137.86415764779349 5.3428587939223142
v -4.4719195669941874 -149.36871636755336 1.5270940920333809
v -15.191720840996449 26.584684669770663 10.874622905455524
v -12.464777815738779 56.479928332849965 10.686570397298947
v -9.6804847842482999 -147.76622371338968 2.3814722551182719
v -11.693335792908609 131.32751844720917 6.4997774366904242
v 86.612325811450802 129.1264663620064 -0.3694651361316052
v 77.265783818143944 74.361937615793948 6.0823723474709066
v 70.609754880541942 67.074055950605342 7.2738611076562059
v 39.725078676834542 52.001687960106494 10.459712715061428
v 29.2461149404051 50.396976578365255 12.82172572112685
v 87.019317106227348 128.23101399644764 -0.31230209628178435
v 75.498121647636296 129.65147865927844 -4.0874664667423737
v 75.106806727931314 127.72087266037016 -4.605065233428844
v 77.466149259821506 133.24760880260453 -2.3955701027519591
v 88.344147614895434 124.60213550066061 0.0099335454206453261
v 74.176663057688387 120.77577731636057 -5.9033352818157159
v 73.874700932783611 117.28529574154933 -6.3066825103187885
v 73.646579776922366 113.73411292254264 -6.5466019053281759
v 87.385940075440445 95.325333726653497 3.033158088323189
v 72.237865891102274 99.497162373263265 -6.6926158962491726
v 84.195423596577925 85.768467120042345 4.3635976648093067
v 79.369251929294535 76.977870981409552 5.7517280750917115
v 72.85538026314515 69.40263096447336 6.8448527338884766
v 68.292670037547694 64.935926783451862 7.6027661459379532
v 65.90946536911278 63.020306208801649 7.7958260972989972
v 60.986659905001659 59.742295888334681 8.0903919270671132
v 56.304949570928386 69.188883124473961 -6.664312708511706
v 58.343031889463283 58.364748233551317 8.1333582554520572
v 52.659023297040704 55.856140615152142 8.5847946076539721
v 50.37412875967523 64.196533629483937 -7.1636049788092615
v 46.404921394486479 53.758450774121805 9.1994628908223994
v 44.380523247585408 60.193688792253127 -7.8675577270812305
v 41.29438837105311 58.575681799566219 -8.5534182280709494
v 36.232620472098851 51.314278999935041 11.179015243738778
v 28.503048136212904 53.958579227187116 -13.193699099027832
v -9.2318344882362577 52.726432151508988 -14.191158406131835
v -12.74956849242092 52.994808231111506 -9.4937825943912095
v -15.130868419569715 53.302174440328386 4.1251581906991461
v 19.279382631465619 52.548808556210894 -17.611944406957551
v 76.238352753803952 131.69596746639363 -3.3110873757651929
v -4.63267154688908 52.495292510312694 -17.809653740920666
v 88.809336627565656 105.08849578160051 1.923308487818657
v 73.428261238447675 110.16296113783531 -6.6613417782749664
v 71.446594684664916 95.939022451525148 -6.7856196929078259
v 82.932023052717369 82.666924346312243 4.9148568866042215
v 63.481401155607998 61.302083430301657 7.9307166676606542
v 55.578857966363785 57.058900871472346 8.3543161308636389
v 32.676315279532375 50.805734173185968 11.807207502719468
v 31.770929773123832 54.833637445694968 -11.80985555264273
v -10.417537743084374 52.648778914541566 13.714829476933224
v 22.291525872899712 52.833218035007334 -16.175454041112904
v 10.625133725073749 50.575018646350138 20.393261976387397
v 89.078832526910162 121.12138126415238 0.35115810213513377
v 74.569349474460267 124.22364377019856 -5.3431250956716152
v 72.782354034766911 103.05788109206723 -6.6890725725274383
v 86.457494699486148 92.098916399417959 3.4365844000347905
v 1.7083355171380545 52.32765793237391 -20.075654535480901
v -7.0461123684081706 52.602253724143452 -16.163089310921151
v -13.874018220366729 53.115974207796086 -6.8075694267661007
v -14.614309577096719 53.215146980861192 -4.0310206096709358
v 3.9526185192449081 51.105236955237032 20.855212379304785
v 0.84361207323697163 51.373751870941632 20.265764722078767
v -14.482003483176758 53.237515222757544 6.5653537055085991
v -2.0206911123455491 52.412221290364315 -19.032131714512794
v 12.757606492319853 52.296445259334803 -19.960844322713868
v 89.232757319617377 111.40986878792893 1.3183459161598603
v 88.394481577477933 101.87342376715029 2.2469627039972373
v 85.380513574952914 88.912427505709275 3.8760949474124011
v 70.44701455315159 92.414175027491041 -6.8768497510363247
v 69.292944299843867 88.941761048015024 -6.8823944196427718
v 81.303116978465567 79.728387621337617 5.3781959528321295
v 67.882203508528505 85.541177690592136 -6.8456837902689207
v 75.071365015960652 71.846548033795358 6.4339466540111712
v 64.218173638236294 78.739019402696812 -6.5772031722727782
v 59.175581215537079 72.150938973891812 -6.5293538366093262
v 53.355413497582454 66.535188325374079 -6.8714731286599058
v 43.113791683904374 52.827650379399515 9.7432802318461142
v 49.588642839038798 54.76375196673623 8.7918389541600739
v 47.405845013558185 62.066085603549396 -7.4326953337377599
v 38.168523788797188 57.143055651432533 -9.4642245010907082
v 9.1913503403142904 52.262985860818141 -20.597576758978789
v -11.173660546867211 52.861181398926526 -11.972394354305887
v -15.071963911982785 53.285425170761854 -1.2495547158728679
v -8.031203197458499 52.319748557680782 16.230499713308532
v -2.231976297069334 51.669484737559728 19.379754128272623
v 25.231626990010277 53.272429878393446 -14.760068240621228
v 7.3244583276142592 50.840823633112279 20.934148095101882
v 16.130391995894165 52.382287061599726 -18.953872355701687
v 16.844466267522247 50.125453678885904 18.211168662100338
v 61.863196472907923 75.361564637605596 -6.4851312087491131
v 66.205180139076148 82.152817890811519 -6.7343368999629849
v 89.316171722584215 117.78319999790499 0.69177349151961898
v 89.103475106344945 108.26159647260174 1.6226366299024924
v 13.784205462359202 50.328015705750104 19.407175006597011
v 22.883986278646031 49.984258034989082 15.495536708635942
v 19.856984432170321 49.998321552702819 16.888074493588569
v -12.435850175435968 52.96054917601888 10.761188699642242
v 34.982209174810905 55.866989202720774 -10.497109277733941
v 87.961561081542982 98.607905441816456 2.6213318822480951
v -15.288646426556294 53.317148804352485 1.4853896296514892
v 25.980699549459597 50.111162195445395 14.076015180768417
v 73.151392590469101 106.60642941866155 -6.7020905724258686
v 5.4713973383932117 52.274790877045788 -20.639478413158145
v 89.303664355770877 114.5655908810802 1.0104043303585941
v -13.532474220760541 53.12232732491092 8.7661379588650092
v -5.2319850607050107 51.989922812270876 18.086710900286867
v 75.271673942220076 128.61999535513385 -4.3800493532671716
v 78.207637190444615 133.82702118487796 -1.9576419587463678
v 78.95852507669008 134.39941089001826 -1.5931368992463415
v 81.82832077935376 134.57692484542594 -0.76294067409794486
v 82.837863346156922 134.1080776839006 -0.60944915695774315
v 84.615747427588857 132.42181800238052 -0.46449015097414326
v 85.378834360322557 131.34275168662404 -0.43509965840965303
v 75.826754957922049 130.69911044179756 -3.7221526513877139
v 76.787190873864887 132.55279095041146 -2.850645686578289
v 86.042848895314563 130.20384997538611 -0.40866843333046549
v 79.850512160739299 134.72040473822932 -1.2648854629945501
v 80.824391146589292 134.82536881740731 -0.98894750974060863
v 83.794882739087143 133.39205233313615 -0.51349815341378002
v 78.242887726380502 129.15924329038421 7.1005937165991693
v 74.381812998993638 128.91053280341416 3.2615425430787699
v 77.637745815659571 127.4837863009285 -6.7010985009300708
v 83.49940565732345 128.00078891721054 -6.767834875693147
v 80.970085984188842 129.0780202016295 7.5041387557507218
v 85.650162167055527 128.60483485816843 4.812974750181108
v 86.711471773635822 128.36762498906529 2.3659458731469591
v 87.019317106227348 128.23101399644764 -0.31230209628178435
v 74.123426306098125 128.13414372344215 -2.158075064606626
v 75.106806727931314 127.72087266037016 -4.605065233428844
v 81.361484231725257 127.79353975592552 -7.3698367256993258
v 85.421452482533624 128.17258243384032 -5.2810708724504885
v 83.612645891098595 128.86828020520443 6.7116228291039395
v 75.931066464807856 129.09852717064388 5.5752444667975425
v 73.768239195995534 128.58383247508428 0.55096514111675388
v 86.612838311417306 128.20719035831252 -2.9730504589242766
v 79.366703793693432 127.57833471800491 -7.2377261072600643
v 76.237098458573172 127.5100910045356 -5.7797145664573044
v -76.794084465638932 133.27837220720426 -4.8996849398912872
v -75.039522321876944 133.16042640412167 -3.2380713893150075
v -74.295646460405976 133.22495628096482 -0.84966776012887824
v -74.663107842178675 133.36943225570056 1.6971009202616547
v -84.879354063393762 134.09668527290228 1.3222093534371153
v -78.540394766813634 133.67854454784407 5.1017877536687557
v -81.382505172341467 133.83386484192752 5.0010008899937279
v -77.232831574231113 133.60391945955109 4.6141968776767133
v -76.049705150550892 133.59835074136669 3.930860846586389
v -75.860785159077921 133.14301299154002 -4.1406034913094487
v -84.519105990571063 134.06318665527593 2.46296434017962
v -83.920807851302897 134.03458897082629 3.4153044879179477
v -74.553236415269993 133.16373378448506 -2.0916241411665419
v -77.987032540727057 133.47040767104625 -5.4305132617026679
v -79.28882407499205 133.73811938382113 -5.7099871591599847
v -74.357155002331766 133.28057187742235 0.43518749083573638
v -75.235927617639106 133.47817180892162 2.8775173102549521
v -79.959139099779833 133.73760644907841 5.2171434690259844
v -82.735286012337838 133.94009195009588 4.3900677559512733
v -83.873220690617885 134.19460461953486 -3.5161870736009107
v -84.524888319784083 134.21256921147412 -2.4206272116832039
v -84.923826865994954 134.19160838692778 -1.1961704470101753
v -84.999591746768999 134.12559748231016 0.0794097156234852
v -83.071318609803185 134.18325716543472 -4.457256831959393
v -82.076032973188944 134.0857583203528 -5.0716868475900139
v -80.685102687891515 133.96038452522779 -5.6007010868036442
v -81.390042214968148 136.96440319170529 -1.7366593711673617
v -84.830216950302997 131.83391171378719 4.2250621935669894
v -85.542867444659464 129.45781103584955 4.8160117893891128
v -85.860737916065546 117.62551236212619 -7.6954132455966873
v -87.019439354178175 117.1661238370487 6.3639859530701077
v -86.934397877524816 106.34006365737659 6.8204901237562598
v -87.370208021566796 94.399917656728093 -6.4885761686718748
v -86.575384335261475 95.569491660534538 6.9483076355276987
v -87.891777862881284 83.247804150073392 -5.4832440932610425
v -86.105678964193032 63.509622002452872 -4.2119808221323227
v -76.334717342742579 43.669856498128176 8.0964282958322435
v -70.285819366911738 34.326007330734654 7.8958677390682883
v -62.493439373130485 25.68731770906005 7.7572075698761154
v -55.746130683362942 15.752644844959107 -2.9066229014287948
v -45.596776664125862 13.608300006804061 8.1162035237814152
v -33.766171261623043 7.4272890537151088 -7.8297559935013741
v -32.254881241267384 8.8606673821530553 8.3169873788383288
v -16.952665687059287 5.8728681526604856 -13.75522014414288
v -84.552314183214691 127.24119714050352 -7.1875720694532017
v -81.913752014276042 136.8996443791244 0.096324944734491033
v -83.543526051975022 134.74445230222176 3.0104409549027107
v -85.520245912819746 121.10084817543648 -7.6314567206004611
v -86.353733316374132 110.21495928867174 -7.5221527077067005
v -86.809532770754004 66.715563975219368 -4.3219786713426602
v -80.954505378028529 47.60776865977401 -4.6765698740707329
v -72.282380954946575 32.06448084961886 -4.704324404222902
v -76.096678913464814 37.920138738601565 -4.887870277080328
v -65.560862793176739 24.291327257487531 -3.7837573899207384
v -60.722119240019396 19.670593640750546 -3.140878673540298
v -53.985315043358199 18.646264463252894 7.9388878782025287
v -45.483729606963919 10.040289368652504 -4.5646151411109859
v -39.835642692609298 8.3105870498717103 -6.2605360294446966
v -24.061589808943275 6.3628450462671085 -10.949147475923896
v -25.020662623408924 6.9073419956423834 9.5717556034448616
v 26.415845457244501 5.0174492564428439 -2.122931971572358
v -5.5067322339486857 5.7662292911932216 -18.698613287207163
v -86.563483901726443 123.87581676308884 5.7349389395199788
v -87.074757839710088 113.57649306417062 6.5861112155667669
v -86.72618362723081 99.185547218049777 6.9382966719293657
v -79.365494152140116 50.21908199654797 8.0039133513444725
v -74.522708047791028 40.512590519291457 8.0526345544881117
v -59.621961841268984 23.129586065077184 7.7597392503527054
v -51.229997065754304 16.778580289483656 8.0129032605908606
v -87.544892355993696 73.21228749666551 -4.6320633261846282
v -83.533704149327576 54.128605247787327 -4.4409547215729104
v -79.408897469265256 44.330569249139764 -4.7522295801812797
v -58.20971124228393 17.658929674881826 -2.939361696140641
v -21.425905660817989 6.0769121959873562 10.653478209777516
v 13.35490499081207 5.3500341787712493 -19.196868289452475
v 22.227135107222008 5.2186382206429922 -13.231896957845077
v 26.070327378980089 5.0851979249807435 -5.204443201744688
v 11.233004488159498 5.257860301400628 19.237641526914068
v 7.5065551998494602 5.3385679328854287 20.261351250678977
v 24.661279804051762 4.8551940210331992 7.3641473869609566
v -9.4507746579089069 5.743350516805549 -17.087534648622132
v -4.7163573621109043 5.2012593512672272 17.929887372726945
v -88.025687978730616 79.821259127162023 -5.2324200722680008
v -87.166933419307739 69.964448794705902 -4.4172218391231342
v -70.144356939983425 29.370944576621824 -4.4551370547285583
v -63.175722618772191 21.896350994555178 -3.4389404366328145
v -42.697562002003423 9.1063043109934654 -5.3772045980252381
v -85.094935327037774 124.32863023821153 -7.4728581711832049
v -86.603216931147045 106.35274402977004 -7.3459915780214864
v -86.11893209748564 113.97834015542593 -7.6470147062826488
v -87.12338252433625 98.389004820690076 -6.8141682664450407
v -86.82784565495885 102.39828181210036 -7.0790160935521493
v -87.603647510768241 90.518889568571723 -6.1608666816930668
v -85.373124410883406 60.43550417714097 -4.2173246149399608
v -82.324419165380931 50.892453691493202 -4.5615377539451849
v -74.25510507115726 34.917006368559228 -4.8446005575223108
v -77.77464898310069 41.089488663869481 -4.821447281082567
v -53.291310804904327 13.997594837875475 -3.0721136976245123
v -36.812257427166912 7.8569843359152429 -6.9809953966059073
v -27.427203857218778 6.6789264936084347 -9.7907143517532766
v -20.583345673226187 6.0732463687101443 -12.318688668634419
v 16.706788798378852 5.2839731286694747 -17.890019698297898
v 6.4646874427651317 5.5551240954232526 -20.475238315180807
v 23.877476085744487 5.1883219138699799 -10.805018329892683
v 25.208833672334055 5.1434907607472518 -8.1269260041689435
v 26.347434922295875 4.9476373190806324 1.0353639246008559
v 3.647224915965392 5.3682951134778722 20.554077655526484
v 14.77244634532105 5.145034329309544 17.73878994250822
v 25.807276134187354 4.888061727184656 4.2256915528750127
v 20.73789841644799 4.9157710291911529 13.223285448849076
v -10.01569186210765 4.9811824494992125 15.461440285285015
v -86.154086511618431 126.83409585535615 5.3363696325714676
v -86.836887702995497 120.62827514559081 6.064934519109217
v -86.847348666190044 102.7617616891324 6.9018219777343051
v -86.26454161676017 84.491144710893536 7.2776075933574562
v -85.5398856969002 73.924807635699267 7.6554571987150197
v -80.678813523310438 53.625421925623037 7.944887319393251
v -67.890854115444569 31.312728592093706 7.8561919394736677
v -65.270413006405221 28.432652430033112 7.7875939085582413
v -56.772046799902256 20.770234113929181 7.834179110810763
v -35.814979287752173 9.9473581739683681 8.0431738990266304
v -28.644677265649634 7.8366126356258654 8.8229897111437765
v 3.1495207900570721 5.6610415595354642 -20.564078008467675
v 17.996383086300202 5.0234257905390125 15.732522609087273
v -12.663191806491607 4.969225363917305 14.267894845004966
v -83.842953765068444 129.79630767723069 -6.7079382015721585
v -7.3638979890571115 5.0776942568787184 16.686925282993883
v -30.634066053227706 7.047207902140908 -8.7049858280941397
v -17.836210076256258 5.4087159326046921 12.009797130752721
v 0.032139920076374229 5.7379768772183581 -20.252857178247915
v -2.0169674018084267 5.3035154101416886 19.063794496809205
v -87.020174238393679 109.94845555184352 6.7213171885083485
v -86.483556755970312 91.892040919655273 7.0333526621725468
v -86.11156481617472 80.878016529358405 7.4269983191814664
v -85.080668430488217 70.562154450716292 7.7117632833792324
v -77.933955453347892 46.898447735471677 8.0706356007525333
v -72.493765712691328 37.403589567652034 7.9630287134518349
v -48.494063407922383 15.061217018967257 8.1496140189979549
v -42.529346479093157 12.289489831914956 8.0621963913737922
v -39.269356446177753 11.056328768792598 8.0603740554690084
v 9.8983174165443444 5.4437500386528814 -20.024608441727842
v -2.8438665940787913 5.7713544605346137 -19.59301910348827
v -13.265316804737878 5.7648868866684868 -15.419734904192509
v -15.277593895572625 5.0993662628188421 13.107604565482902
v -67.915492898050985 26.763765881258692 -4.1502129981897973
v -86.394737345080642 88.179991232874642 7.1553791029319651
v -85.861338682956841 77.359911685874437 7.5414577085189354
v -84.519818833136355 67.259704227455615 7.7672703741517415
v 0.75313477564315701 5.3617456170389781 20.030957834177741
v -81.86037937264922 57.086112281458085 7.8789986118493784
v -84.530582321544998 57.31333344042396 -4.3069201455261705
v -83.82098184772093 64.012760227217527 7.8051583156568629
v -87.732624320287613 86.801179052933179 -5.7970423522519505
v 19.716980887617932 5.246707950317421 -15.879391713146553
v -87.808912228702539 76.492881829200257 -4.9030656754817112
v -82.928626626222311 60.545229074119597 7.8561264178354504
v 22.964974607242226 4.8620665893922679 10.391263292868295
v -50.822809221158195 12.390768630211047 -3.4265819402562072
v -48.23404607165007 11.05287656299878 -3.9482237863473912
v -81.285394526182188 136.55992780689201 -2.5670400561712601
v -81.320592359766678 136.1255550120261 -3.3884031807904682
v -82.669853870431496 136.04080474363073 1.7377587059027324
v -83.101591923815562 135.42054689645437 2.4291755281546297
v -81.485165423325668 135.45463427519968 -4.0291896999010932
v -81.604281660172063 137.00782521946658 -0.81632267622349586
v -82.270242303035587 136.55037649365983 0.95597370840828577
v -83.920807851302897 134.03458897082629 3.4153044879179477
v -81.744638860436766 134.74799951651099 -4.5917171089449669
v -82.076032973188944 134.0857583203528 -5.0716868475900139
v -83.026165696510503 132.05372073984768 -6.0351584327368322
v -4.5919799783170916 59.344820956236909 -17.757722807616652
v -13.106942515991147 59.495635158558457 -8.5504130254673036
v -14.949916868602401 59.768450171613949 4.5013807897147213
v 4.4871963576445362 59.508285642552138 20.897846748509558
v -8.2976378093363969 60.08608904717984 16.11786844753825
v 85.537376063547228 129.52442705868475 4.2433821056395384
v 79.94876941803426 134.94270271378662 0.33543172929341541
v 73.14819301219255 124.71090254816431 -2.9080947683757157
v 74.741487827182041 129.59821304425589 -1.7716195083743744
v 82.900577934148217 115.37045265251601 9.607774716878664
v 72.171569271299262 118.00272769026313 -3.8595483874939691
v 77.442472409760441 104.02601094964376 9.9932070232933086
v 71.443031513963078 107.693043538699 -4.4142200180354418
v 72.740752644294417 94.649853211048367 8.2142883681070806
v 69.830026156922514 96.21263622044205 -4.3978200291485017
v 69.178531374114243 87.462934032045666 7.0904895749804542
v 67.278824697510942 88.324430823731149 -4.4351647093361031
v 65.190019644736765 80.332210212305114 6.478521937316458
v 63.927852260983883 80.865342537241844 -4.3579681467427935
v 60.588319123414472 73.907921939719841 6.1685971046164223
v 59.406051297932351 74.431985919272492 -4.3912156352651754
v 54.983688255772137 68.53457927203695 6.3466123317651126
v 53.579060675393464 69.030118409001574 -4.6599505207413321
v 48.734153046993981 64.363550697777328 6.8585410255382957
v 46.959365834133507 64.662350566688843 -5.2615267683036473
v 40.066943918337884 61.669413727651275 -6.6379616016073371
v -2.2613783505015297 59.918132342024741 19.514513716307832
v -12.555502292354831 59.970337877797654 10.545804576212518
v 85.650162167055527 128.60483485816843 4.812974750181108
v 85.224898573249405 130.55649514393048 3.5538583943648194
v 84.797131707751703 131.59071368605822 2.886608542193482
v 74.123426306098125 128.13414372344215 -2.158075064606626
v 78.029030243736074 134.00267564079101 -0.28672756802135008
v 81.943463639709591 134.55230456970671 0.99409272290196715
v 72.563781849990661 121.33573555348922 -3.452925711024486
v 80.332891057017392 109.59074835463339 10.233092428881106
v 71.700186956451716 111.23489656773532 -4.3140188739658445
v 70.659490969658464 100.14885932209555 -4.3891850324531916
v 68.604071001880868 92.274036827905093 -4.4646464451934325
v 65.692088978342298 84.507216564377529 -4.4115667730752479
v 61.821270903478315 77.517484739493071 -4.3544275139964466
v 56.61867874859653 71.635584056714194 -4.5075929287931995
v 50.297258087276042 66.737219195388235 -4.9392578488325318
v 43.54483259358318 62.981955670583886 -5.8010264760257293
v 34.801195731532601 59.56899417279152 9.6383990621497233
v 27.814586305267468 58.948471971389921 12.607792744081461
v 32.682680256078925 60.091366665709778 -9.4146711259462066
v 28.845230225302856 59.644664185195651 -11.495595250246673
v 22.159090393224428 59.219750535853528 -15.848984310943621
v 15.966712072158636 59.007246185064062 -19.011779022271611
v 14.927795440499477 58.967765826416311 18.786667122404559
v 70.990309961953486 91.114356984362331 7.622592540040567
v 67.216913667998924 83.846597198227954 6.7564832992157449
v 63.01315563202327 77.000578524375953 6.2682745726758569
v 57.911411272462082 71.063357386769184 6.1807360483005311
v 51.892220276615262 66.330286991612397 6.611861768810412
v 78.918860576613582 106.82217927506672 10.21145007022194
v 74.340077606004357 98.000457983318768 8.9407942658934907
v 31.22669527238228 59.144346117290709 11.006499149410617
v 1.7136474474584564 59.162981773596556 -20.170169278784851
v -9.4224678445774419 59.438103122563021 -13.874382498549906
v -11.475240659350462 59.466940931063931 -11.395854060548718
v -14.836437073945723 59.590855062956408 -2.1273033984641319
v 25.03543179466854 59.383262415192263 -14.004466860736773
v 19.152319912484248 59.092600025218204 -17.558898815021898
v 75.903798799149612 101.11509926134136 9.5637318937738698
v 42.01865142327371 61.42383785046065 7.9253137846440591
v 38.450265519672449 60.317871919515213 8.6270210400948955
v 21.351885150557528 58.866320767491771 15.877711530474404
v 12.594329463711908 58.971533434435692 -20.126894148096767
v 18.187811715311675 58.893511071152425 17.44599379526198
v -7.1014423979497172 59.399793062517929 -15.994113773880468
v 1.0824391756046836 59.730114359909962 20.441592082816022
v -5.4508169477209352 60.040075415684043 18.123353810353237
v -13.96045870339972 59.87100711269003 7.6342385520500358
v 85.00271795720883 121.72036375886788 8.1630195554312195
v 81.643089155305148 112.42472719440553 9.9626268139554881
v 71.923888335557166 114.65376016041492 -4.1328344631061658
v 71.116312599668333 103.99715729163704 -4.4345835632815662
v 9.0546682804130647 58.986067144299753 -20.838565743449244
v -1.904127320332591 59.271225813336656 -19.09585788023811
v -14.149221380350774 59.535296148915414 -5.396518542397355
v 24.5464378065864 58.885476815424937 14.267702902704002
v 11.572355895033761 59.0973411807459 19.914790954270643
v 45.448001116007887 62.740024587018674 7.3031237710457813
v 83.604976870362918 133.37150787730423 1.7959917737950457
v 36.475189678668748 60.716926705800361 -7.8657749019148824
v 8.0932540085172917 59.28321843698258 20.702620098875862
v -10.642346079566888 60.056026861466243 13.522297310912066
v 84.03048085964187 118.46072749761117 8.9935503200150002
v 85.577305018192988 125.10963639490132 6.7808938190936274
v -15.210683592766157 59.670598409994817 1.1909802727096981
v 5.3846263315781577 59.059134548004451 -20.802782443928152
v 77.119104531568411 133.2583918668789 -0.62088061252778148
v 78.970701197195595 134.55399843776334 0.034748325969488146
v 76.256545287806603 132.27341589443952 -0.97846353397558039
v 80.971607574601961 134.85023736029049 0.65576226723479669
v 82.826883743370161 134.04489915165766 1.3662117852514597
v 84.263582314186706 132.54557655180881 2.2961981435483754
v 75.44682075390422 131.03971028135402 -1.363288152679492
l 17/17 19/19
l 19/19 5/5
l 5/5 4/4
l 4/4 11/11
l 11/11 3/3
l 3/3 10/10
l 10/10 9/9
l 9/9 1/1
l 1/1 16/16
l 16/16 2/2
l 2/2 6/6
l 6/6 13/13
l 13/13 7/7
l 7/7 12/12
l 12/12 20/20
l 20/20 8/8
l 8/8 15/15
l 15/15 18/18
l 18/18 14/14
l 14/14 17/17
l 27/27 45/45
l 45/45 44/44
l 44/44 59/59
l 59/59 28/28
l 28/28 46/46
l 46/46 29/29
l 29/29 52/52
l 52/52 32/32
l 32/32 54/54
l 54/54 53/53
l 53/53 60/60
l 60/60 30/30
l 30/30 51/51
l 51/51 25/25
l 25/25 39/39
l 39/39 26/26
l 26/26 50/50
l 50/50 24/24
l 24/24 37/37
l 37/37 23/23
l 23/23 36/36
l 36/36 63/63
l 63/63 49/49
l 49/49 22/22
l 22/22 35/35
l 35/35 48/48
l 48/48 21/21
l 21/21 33/33
l 33/33 55/55
l 55/55 31/31
l 31/31 62/62
l 62/62 47/47
l 47/47 34/34
l 34/34 56/56
l 56/56 38/38
l 38/38 61/61
l 61/61 58/58
l 58/58 42/42
l 42/42 43/43
l 43/43 40/40
l 40/40 41/41
l 41/41 57/57
l 57/57 27/27
l 87/87 88/88
l 88/88 94/94
l 94/94 92/92
l 92/92 93/93
l 93/93 100/100
l 100/100 106/106
l 106/106 68/68
l 68/68 97/97
l 97/97 75/75
l 75/75 99/99
l 99/99 98/98
l 98/98 101/101
l 101/101 76/76
l 76/76 102/102
l 102/102 77/77
l 77/77 103/103
l 103/103 82/82
l 82/82 104/104
l 104/104 69/69
l 69/69 105/105
l 105/105 83/83
l 83/83 84/84
l 84/84 67/67
l 67/67 96/96
l 96/96 74/74
l 74/74 95/95
l 95/95 66/66
l 66/66 91/91
l 91/91 73/73
l 73/73 81/81
l 81/81 71/71
l 71/71 80/80
l 80/80 72/72
l 72/72 90/90
l 90/90 65/65
l 65/65 89/89
l 89/89 70/70
l 70/70 85/85
l 85/85 78/78
l 78/78 86/86
l 86/86 64/64
l 64/64 79/79
l 79/79 87/87
l 148/148 283/283
l 283/283 284/284
l 284/284 293/293
l 293/293 291/291
l 291/291 151/151
l 151/151 288/288
l 288/288 108/108
l 108/108 223/223
l 223/223 118/118
l 118/118 183/183
l 183/183 116/116
l 116/116 117/117
l 117/117 225/225
l 225/225 155/155
l 155/155 295/295
l 295/295 120/120
l 120/120 228/228
l 228/228 229/229
l 229/229 185/185
l 185/185 292/292
l 292/292 222/222
l 222/222 150/150
l 150/150 287/287
l 287/287 113/113
l 113/113 256/256
l 256/256 195/195
l 195/195 194/194
l 194/194 254/254
l 254/254 253/253
l 253/253 193/193
l 193/193 192/192
l 192/192 250/250
l 250/250 249/249
l 249/249 191/191
l 191/191 190/190
l 190/190 246/246
l 246/246 245/245
l 245/245 189/189
l 189/189 243/243
l 243/243 242/242
l 242/242 188/188
l 188/188 240/240
l 240/240 239/239
l 239/239 187/187
l 187/187 237/237
l 237/237 236/236
l 236/236 186/186
l 186/186 234/234
l 234/234 233/233
l 233/233 126/126
l 126/126 124/124
l 124/124 123/123
l 123/123 232/232
l 232/232 125/125
l 125/125 112/112
l 112/112 122/122
l 122/122 109/109
l 109/109 121/121
l 121/121 111/111
l 111/111 110/110
l 110/110 156/156
l 156/156 157/157
l 157/157 158/158
l 158/158 296/296
l 296/296 159/159
l 159/159 235/235
l 235/235 238/238
l 238/238 160/160
l 160/160 127/127
l 127/127 241/241
l 241/241 161/161
l 161/161 298/298
l 298/298 244/244
l 244/244 162/162
l 162/162 299/299
l 299/299 248/248
l 248/248 163/163
l 163/163 247/247
l 247/247 252/252
l 252/252 164/164
l 164/164 165/165
l 165/165 251/251
l 251/251 166/166
l 166/166 167/167
l 167/167 255/255
l 255/255 286/286
l 286/286 221/221
l 221/221 231/231
l 231/231 230/230
l 230/230 184/184
l 184/184 227/227
l 227/227 119/119
l 119/119 226/226
l 226/226 154/154
l 154/154 224/224
l 224/224 107/107
l 107/107 115/115
l 115/115 182/182
l 182/182 153/153
l 153/153 180/180
l 180/180 152/152
l 152/152 181/181
l 181/181 294/294
l 294/294 285/285
l 285/285 290/290
l 290/290 149/149
l 149/149 220/220
l 220/220 282/282
l 282/282 147/147
l 147/147 114/114
l 114/114 300/300
l 300/300 297/297
l 297/297 218/218
l 218/218 280/280
l 280/280 144/144
l 144/144 279/279
l 279/279 278/278
l 278/278 277/277
l 277/277 215/215
l 215/215 276/276
l 276/276 275/275
l 275/275 213/213
l 213/213 274/274
l 274/274 211/211
l 211/211 210/210
l 210/210 273/273
l 273/273 208/208
l 208/208 207/207
l 207/207 272/272
l 272/272 206/206
l 206/206 205/205
l 205/205 271/271
l 271/271 204/204
l 204/204 270/270
l 270/270 269/269
l 269/269 202/202
l 202/202 268/268
l 268/268 267/267
l 267/267 199/199
l 199/199 198/198
l 198/198 264/264
l 264/264 263/263
l 263/263 197/197
l 197/197 196/196
l 196/196 289/289
l 289/289 301/301
l 301/301 129/129
l 129/129 172/172
l 172/172 262/262
l 262/262 171/171
l 171/171 261/261
l 261/261 260/260
l 260/260 169/169
l 169/169 170/170
l 170/170 259/259
l 259/259 258/258
l 258/258 128/128
l 128/128 168/168
l 168/168 257/257
l 257/257 266/266
l 266/266 130/130
l 130/130 173/173
l 173/173 265/265
l 265/265 201/201
l 201/201 200/200
l 200/200 131/131
l 131/131 203/203
l 203/203 132/132
l 132/132 174/174
l 174/174 133/133
l 133/133 134/134
l 134/134 175/175
l 175/175 135/135
l 135/135 136/136
l 136/136 137/137
l 137/137 209/209
l 209/209 138/138
l 138/138 139/139
l 139/139 212/212
l 212/212 140/140
l 140/140 141/141
l 141/141 214/214
l 214/214 176/176
l 176/176 142/142
l 142/142 216/216
l 216/216 177/177
l 177/177 143/143
l 143/143 217/217
l 217/217 178/178
l 178/178 145/145
l 145/145 219/219
l 219/219 146/146
l 146/146 179/179
l 179/179 281/281
l 281/281 148/148
l 337/337 421/421
l 421/421 336/336
l 336/336 385/385
l 385/385 334/334
l 334/334 377/377
l 377/377 333/333
l 333/333 376/376
l 376/376 330/330
l 330/330 304/304
l 304/304 428/428
l 428/428 331/331
l 331/331 423/423
l 423/423 429/429
l 429/429 425/425
l 425/425 424/424
l 424/424 427/427
l 427/427 426/426
l 426/426 430/430
l 430/430 305/305
l 305/305 332/332
l 332/332 306/306
l 306/306 397/397
l 397/397 335/335
l 335/335 307/307
l 307/307 399/399
l 399/399 338/338
l 338/338 398/398
l 398/398 308/308
l 308/308 401/401
l 401/401 339/339
l 339/339 310/310
l 310/310 402/402
l 402/402 340/340
l 340/340 312/312
l 312/312 403/403
l 403/403 341/341
l 341/341 314/314
l 314/314 404/404
l 404/404 342/342
l 342/342 316/316
l 316/316 343/343
l 343/343 344/344
l 344/344 318/318
l 318/318 405/405
l 405/405 345/345
l 345/345 320/320
l 320/320 386/386
l 386/386 346/346
l 346/346 347/347
l 347/347 387/387
l 387/387 349/349
l 349/349 350/350
l 350/350 408/408
l 408/408 351/351
l 351/351 323/323
l 323/323 409/409
l 409/409 352/352
l 352/352 325/325
l 325/325 422/422
l 422/422 354/354
l 354/354 378/378
l 378/378 355/355
l 355/355 391/391
l 391/391 357/357
l 357/357 411/411
l 411/411 358/358
l 358/358 415/415
l 415/415 393/393
l 393/393 364/364
l 364/364 413/413
l 413/413 417/417
l 417/417 303/303
l 303/303 412/412
l 412/412 360/360
l 360/360 420/420
l 420/420 416/416
l 416/416 365/365
l 365/365 384/384
l 384/384 361/361
l 361/361 396/396
l 396/396 302/302
l 302/302 383/383
l 383/383 328/328
l 328/328 395/395
l 395/395 329/329
l 329/329 382/382
l 382/382 359/359
l 359/359 375/375
l 375/375 327/327
l 327/327 374/374
l 374/374 381/381
l 381/381 380/380
l 380/380 394/394
l 394/394 418/418
l 418/418 363/363
l 363/363 379/379
l 379/379 362/362
l 362/362 392/392
l 392/392 326/326
l 326/326 410/410
l 410/410 356/356
l 356/356 390/390
l 390/390 353/353
l 353/353 414/414
l 414/414 389/389
l 389/389 324/324
l 324/324 373/373
l 373/373 322/322
l 322/322 407/407
l 407/407 388/388
l 388/388 406/406
l 406/406 348/348
l 348/348 321/321
l 321/321 372/372
l 372/372 319/319
l 319/319 371/371
l 371/371 317/317
l 317/317 370/370
l 370/370 315/315
l 315/315 369/369
l 369/369 313/313
l 313/313 368/368
l 368/368 311/311
l 311/311 419/419
l 419/419 367/367
l 367/367 309/309
l 309/309 366/366
l 366/366 400/400
l 400/400 337/337
l 566/566 495/495
l 495/495 533/533
l 533/533 494/494
l 494/494 569/569
l 569/569 496/496
l 496/496 534/534
l 534/534 598/598
l 598/598 602/602
l 602/602 535/535
l 535/535 601/601
l 601/601 536/536
l 536/536 442/442
l 442/442 605/605
l 605/605 498/498
l 498/498 443/443
l 443/443 604/604
l 604/604 577/577
l 577/577 606/606
l 606/606 501/501
l 501/501 610/610
l 610/610 509/509
l 509/509 504/504
l 504/504 621/621
l 621/621 608/608
l 608/608 607/607
l 607/607 444/444
l 444/444 582/582
l 582/582 612/612
l 612/612 611/611
l 611/611 630/630
l 630/630 447/447
l 447/447 451/451
l 451/451 450/450
l 450/450 453/453
l 453/453 452/452
l 452/452 456/456
l 456/456 455/455
l 455/455 626/626
l 626/626 631/631
l 631/631 473/473
l 473/473 474/474
l 474/474 620/620
l 620/620 471/471
l 471/471 522/522
l 522/522 472/472
l 472/472 547/547
l 547/547 469/469
l 469/469 470/470
l 470/470 546/546
l 546/546 467/467
l 467/467 468/468
l 468/468 545/545
l 545/545 465/465
l 465/465 521/521
l 521/521 466/466
l 466/466 463/463
l 463/463 520/520
l 520/520 464/464
l 464/464 462/462
l 462/462 633/633
l 633/633 544/544
l 544/544 628/628
l 628/628 519/519
l 519/519 460/460
l 460/460 434/434
l 434/434 543/543
l 543/543 622/622
l 622/622 461/461
l 461/461 433/433
l 433/433 459/459
l 459/459 457/457
l 457/457 458/458
l 458/458 583/583
l 583/583 510/510
l 510/510 432/432
l 432/432 511/511
l 511/511 435/435
l 435/435 512/512
l 512/512 436/436
l 436/436 623/623
l 623/623 513/513
l 513/513 613/613
l 613/613 614/614
l 614/614 615/615
l 615/615 624/624
l 624/624 437/437
l 437/437 514/514
l 514/514 616/616
l 616/616 617/617
l 617/617 515/515
l 515/515 618/618
l 618/618 438/438
l 438/438 516/516
l 516/516 439/439
l 439/439 548/548
l 548/548 584/584
l 584/584 579/579
l 579/579 505/505
l 505/505 540/540
l 540/540 440/440
l 440/440 609/609
l 609/609 580/580
l 580/580 506/506
l 506/506 541/541
l 541/541 518/518
l 518/518 454/454
l 454/454 431/431
l 431/431 517/517
l 517/517 448/448
l 448/448 449/449
l 449/449 445/445
l 445/445 446/446
l 446/446 507/507
l 507/507 542/542
l 542/542 508/508
l 508/508 581/581
l 581/581 502/502
l 502/502 539/539
l 539/539 503/503
l 503/503 578/578
l 578/578 499/499
l 499/499 538/538
l 538/538 500/500
l 500/500 576/576
l 576/576 497/497
l 497/497 537/537
l 537/537 575/575
l 575/575 574/574
l 574/574 603/603
l 603/603 573/573
l 573/573 572/572
l 572/572 599/599
l 599/599 600/600
l 600/600 571/571
l 571/571 570/570
l 570/570 596/596
l 596/596 597/597
l 597/597 568/568
l 568/568 567/567
l 567/567 594/594
l 594/594 595/595
l 595/595 565/565
l 565/565 564/564
l 564/564 593/593
l 593/593 562/562
l 562/562 489/489
l 489/489 592/592
l 592/592 560/560
l 560/560 559/559
l 559/559 591/591
l 591/591 484/484
l 484/484 557/557
l 557/557 590/590
l 590/590 555/555
l 555/555 554/554
l 554/554 588/588
l 588/588 479/479
l 479/479 589/589
l 589/589 441/441
l 441/441 627/627
l 627/627 625/625
l 625/625 585/585
l 585/585 619/619
l 619/619 549/549
l 549/549 550/550
l 550/550 523/523
l 523/523 586/586
l 586/586 525/525
l 525/525 524/524
l 524/524 475/475
l 475/475 629/629
l 629/629 478/478
l 478/478 632/632
l 632/632 587/587
l 587/587 551/551
l 551/551 477/477
l 477/477 526/526
l 526/526 476/476
l 476/476 552/552
l 552/552 481/481
l 481/481 527/527
l 527/527 480/480
l 480/480 553/553
l 553/553 483/483
l 483/483 528/528
l 528/528 482/482
l 482/482 556/556
l 556/556 486/486
l 486/486 529/529
l 529/529 485/485
l 485/485 558/558
l 558/558 488/488
l 488/488 530/530
l 530/530 487/487
l 487/487 561/561
l 561/561 491/491
l 491/491 531/531
l 531/531 490/490
l 490/490 563/563
l 563/563 493/493
l 493/493 532/532
l 532/532 492/492
l 492/492 566/566
l 727/727 647/647
l 647/647 684/684
l 684/684 696/696
l 696/696 649/649
l 649/649 673/673
l 673/673 699/699
l 699/699 650/650
l 650/650 635/635
l 635/635 701/701
l 701/701 651/651
l 651/651 636/636
l 636/636 652/652
l 652/652 653/653
l 653/653 674/674
l 674/674 654/654
l 654/654 656/656
l 656/656 675/675
l 675/675 657/657
l 657/657 706/706
l 706/706 659/659
l 659/659 705/705
l 705/705 637/637
l 637/637 662/662
l 662/662 676/676
l 676/676 638/638
l 638/638 729/729
l 729/729 723/723
l 723/723 724/724
l 724/724 717/717
l 717/717 722/722
l 722/722 680/680
l 680/680 715/715
l 715/715 689/689
l 689/689 690/690
l 690/690 713/713
l 713/713 734/734
l 734/734 712/712
l 712/712 678/678
l 678/678 725/725
l 725/725 733/733
l 733/733 691/691
l 691/691 666/666
l 666/666 728/728
l 728/728 711/711
l 711/711 688/688
l 688/688 687/687
l 687/687 665/665
l 665/665 710/710
l 710/710 664/664
l 664/664 686/686
l 686/686 669/669
l 669/669 692/692
l 692/692 685/685
l 685/685 731/731
l 731/731 709/709
l 709/709 693/693
l 693/693 716/716
l 716/716 667/667
l 667/667 679/679
l 679/679 714/714
l 714/714 663/663
l 663/663 677/677
l 677/677 726/726
l 726/726 708/708
l 708/708 661/661
l 661/661 660/660
l 660/660 707/707
l 707/707 658/658
l 658/658 704/704
l 704/704 655/655
l 655/655 703/703
l 703/703 718/718
l 718/718 702/702
l 702/702 719/719
l 719/719 700/700
l 700/700 698/698
l 698/698 697/697
l 697/697 672/672
l 672/672 648/648
l 648/648 683/683
l 683/683 730/730
l 730/730 671/671
l 671/671 646/646
l 646/646 645/645
l 645/645 644/644
l 644/644 682/682
l 682/682 641/641
l 641/641 735/735
l 735/735 640/640
l 640/640 742/742
l 742/742 668/668
l 668/668 743/743
l 743/743 642/642
l 642/642 736/736
l 736/736 737/737
l 737/737 745/745
l 745/745 746/746
l 746/746 738/738
l 738/738 739/739
l 739/739 747/747
l 747/747 740/740
l 740/740 741/741
l 741/741 744/744
l 744/744 634/634
l 634/634 639/639
l 639/639 643/643
l 643/643 681/681
l 681/681 720/720
l 720/720 732/732
l 732/732 694/694
l 694/694 721/721
l 721/721 670/670
l 670/670 695/695
l 695/695 727/727
l 755/755 763/763
l 763/763 759/759
l 759/759 751/751
l 751/751 758/758
l 758/758 764/764
l 764/764 750/750
l 750/750 765/765
l 765/765 757/757
l 757/757 756/756
l 756/756 762/762
l 762/762 749/749
l 749/749 761/761
l 761/761 748/748
l 748/748 752/752
l 752/752 760/760
l 760/760 753/753
l 753/753 754/754
l 754/754 755/755
l 778/778 768/768
l 768/768 781/781
l 781/781 769/769
l 769/769 782/782
l 782/782 774/774
l 774/774 773/773
l 773/773 771/771
l 771/771 783/783
l 783/783 772/772
l 772/772 784/784
l 784/784 777/777
l 777/777 776/776
l 776/776 770/770
l 770/770 788/788
l 788/788 787/787
l 787/787 786/786
l 786/786 785/785
l 785/785 789/789
l 789/789 790/790
l 790/790 791/791
l 791/791 780/780
l 780/780 779/779
l 779/779 766/766
l 766/766 775/775
l 775/775 767/767
l 767/767 778/778
l 923/923 863/863
l 863/863 805/805
l 805/805 838/838
l 838/838 820/820
l 820/820 851/851
l 851/851 819/819
l 819/819 910/910
l 910/910 850/850
l 850/850 817/817
l 817/817 861/861
l 861/861 818/818
l 818/818 862/862
l 862/862 837/837
l 837/837 816/816
l 816/816 860/860
l 860/860 836/836
l 836/836 916/916
l 916/916 859/859
l 859/859 801/801
l 801/801 815/815
l 815/815 849/849
l 849/849 835/835
l 835/835 920/920
l 920/920 848/848
l 848/848 800/800
l 800/800 918/918
l 918/918 858/858
l 858/858 798/798
l 798/798 856/856
l 856/856 857/857
l 857/857 854/854
l 854/854 814/814
l 814/814 855/855
l 855/855 795/795
l 795/795 813/813
l 813/813 853/853
l 853/853 810/810
l 810/810 891/891
l 891/891 935/935
l 935/935 934/934
l 934/934 933/933
l 933/933 929/929
l 929/929 926/926
l 926/926 925/925
l 925/925 792/792
l 792/792 930/930
l 930/930 811/811
l 811/811 931/931
l 931/931 927/927
l 927/927 928/928
l 928/928 812/812
l 812/812 932/932
l 932/932 793/793
l 793/793 794/794
l 794/794 877/877
l 877/877 828/828
l 828/828 878/878
l 878/878 796/796
l 796/796 829/829
l 829/829 897/897
l 897/897 797/797
l 797/797 879/879
l 879/879 830/830
l 830/830 799/799
l 799/799 898/898
l 898/898 911/911
l 911/911 880/880
l 880/880 899/899
l 899/899 912/912
l 912/912 881/881
l 881/881 900/900
l 900/900 913/913
l 913/913 917/917
l 917/917 921/921
l 921/921 915/915
l 915/915 882/882
l 882/882 831/831
l 831/831 901/901
l 901/901 802/802
l 802/802 832/832
l 832/832 902/902
l 902/902 803/803
l 803/803 883/883
l 883/883 884/884
l 884/884 804/804
l 804/804 833/833
l 833/833 885/885
l 885/885 821/821
l 821/821 834/834
l 834/834 903/903
l 903/903 806/806
l 806/806 904/904
l 904/904 905/905
l 905/905 886/886
l 886/886 808/808
l 808/808 887/887
l 887/887 825/825
l 825/825 839/839
l 839/839 894/894
l 894/894 909/909
l 909/909 890/890
l 890/890 876/876
l 876/876 892/892
l 892/892 847/847
l 847/847 896/896
l 896/896 914/914
l 914/914 872/872
l 872/872 844/844
l 844/844 843/843
l 843/843 873/873
l 873/873 889/889
l 889/889 875/875
l 875/875 922/922
l 922/922 845/845
l 845/845 874/874
l 874/874 871/871
l 871/871 826/826
l 826/826 842/842
l 842/842 870/870
l 870/870 869/869
l 869/869 841/841
l 841/841 919/919
l 919/919 867/867
l 867/867 840/840
l 840/840 906/906
l 906/906 868/868
l 868/868 888/888
l 888/888 895/895
l 895/895 907/907
l 907/907 827/827
l 827/827 846/846
l 846/846 908/908
l 908/908 809/809
l 809/809 866/866
l 866/866 824/824
l 824/824 865/865
l 865/865 893/893
l 893/893 807/807
l 807/807 864/864
l 864/864 823/823
l 823/823 852/852
l 852/852 822/822
l 822/822 924/924
l 924/924 923/923
l 993/993 1001/1001
l 1001/1001 947/947
l 947/947 992/992
l 992/992 971/971
l 971/971 1012/1012
l 1012/1012 945/945
l 945/945 1025/1025
l 1025/1025 1011/1011
l 1011/1011 1026/1026
l 1026/1026 964/964
l 964/964 941/941
l 941/941 965/965
l 965/965 966/966
l 966/966 1034/1034
l 1034/1034 1021/1021
l 1021/1021 1033/1033
l 1033/1033 969/969
l 969/969 1032/1032
l 1032/1032 942/942
l 942/942 1030/1030
l 1030/1030 968/968
l 968/968 1029/1029
l 1029/1029 1031/1031
l 1031/1031 1035/1035
l 1035/1035 944/944
l 944/944 967/967
l 967/967 943/943
l 943/943 970/970
l 970/970 946/946
l 946/946 1013/1013
l 1013/1013 972/972
l 972/972 948/948
l 948/948 1014/1014
l 1014/1014 973/973
l 973/973 950/950
l 950/950 974/974
l 974/974 952/952
l 952/952 975/975
l 975/975 954/954
l 954/954 976/976
l 976/976 956/956
l 956/956 977/977
l 977/977 958/958
l 958/958 978/978
l 978/978 960/960
l 960/960 979/979
l 979/979 961/961
l 961/961 1022/1022
l 1022/1022 982/982
l 982/982 983/983
l 983/983 999/999
l 999/999 984/984
l 984/984 1000/1000
l 1000/1000 985/985
l 985/985 1005/1005
l 1005/1005 1015/1015
l 1015/1015 1028/1028
l 1028/1028 995/995
l 995/995 1016/1016
l 1016/1016 936/936
l 936/936 1007/1007
l 1007/1007 996/996
l 996/996 997/997
l 997/997 937/937
l 937/937 1017/1017
l 1017/1017 998/998
l 998/998 1027/1027
l 1027/1027 938/938
l 938/938 1010/1010
l 1010/1010 963/963
l 963/963 1024/1024
l 1024/1024 940/940
l 940/940 1009/1009
l 1009/1009 962/962
l 962/962 1008/1008
l 1008/1008 939/939
l 939/939 1023/1023
l 1023/1023 1019/1019
l 1019/1019 986/986
l 986/986 1006/1006
l 1006/1006 1004/1004
l 1004/1004 1018/1018
l 1018/1018 981/981
l 981/981 994/994
l 994/994 980/980
l 980/980 1003/1003
l 1003/1003 1002/1002
l 1002/1002 1020/1020
l 1020/1020 959/959
l 959/959 991/991
l 991/991 957/957
l 957/957 990/990
l 990/990 955/955
l 955/955 989/989
l 989/989 953/953
l 953/953 988/988
l 988/988 951/951
l 951/951 987/987
l 987/987 949/949
l 949/949 993/993
