v -18.846367401914669 3.6199945727954916 -15.509965189361331
v -18.927858054122829 5.4160546627777864 -11.318874219533724
v -5.2177344913110097 8.282678214475709 -8.3631424104316228
v -6.6240459862413026 8.1834628359738861 -8.2283997423901205
v -9.5067289150417178 7.9361402109522139 -8.0566655434017065
v 13.169473255857802 8.5553311840134203 -8.0918052413380295
v -10.702884049932706 7.8170384539801088 -8.0491471246662716
v -11.903027826960169 7.6796833406508158 -8.1040570381290582
v 11.983937425747026 8.6608678855135857 -8.2247392591815807
v -15.428690145245188 7.0616193512073666 -8.7192424054255913
v -2.2844408707731798 3.4858326126996229 -18.156644723198951
v -3.5258975350546624 3.3841302312729473 -18.16944628458775
v -4.8020917830980068 3.2836566325152159 -18.192642033807648
v -6.1150616872864489 3.1885584745441333 -18.228028576073505
v -7.4556870695148891 3.1047200176342304 -18.267578090141456
v 10.796339635219864 8.7154997119118338 -8.376037829392402
v 9.5207337401394589 8.727943483741754 -8.5380251802685887
v 22.323301263160985 5.1894241581848366 -12.446957373516387
v -8.8088846608517812 3.0328431278222237 -18.306795345124563
v -10.160189439416026 2.9734228990096518 -18.335648663175022
v -12.700137179231378 2.9104612153003493 -18.275313997382099
v -13.931371879017764 2.9058543236014556 -18.15406682772111
v -15.123048787550166 2.927532116631391 -17.93949292706241
v -1.0634057080603467 3.5820140498932735 -18.151741093497314
v 0.15695460566152822 3.6656268261296781 -18.149401045387961
v 1.3931140314465473 3.729397173879847 -18.14544498844748
v 2.6547271182989194 3.7670447623387222 -18.139121681786918
v -13.099633304844396 7.5158476183191087 -8.2289378266325564
v -17.298502554546005 3.116569179767251 -17.092297750082054
v -16.520384374595341 6.7479291922225242 -9.1187283427211732
v -18.331572603187304 5.9101396077000299 -10.413664250750525
v -17.507020592571443 6.3616264868951991 -9.6777643015668744
v -19.380522410792135 4.4332948378383392 -13.410870145672206
v 8.0936956601571541 3.6361483206563827 -18.119765226946281
v 3.9480538067766373 3.77450765551602 -18.13327289702957
v -19.287946731364471 4.9135775262716974 -12.333902136852782
v 6.6611504856293262 3.7038954090582417 -18.12610215854793
v -19.21302756464501 4.0001374789714159 -14.486598692377489
v -18.194576925072244 3.3203054087195367 -16.402205669463733
v -2.5082407648475336 8.4269440340169517 -8.6350821282893193
v 13.561112671191363 3.3632682766516586 -17.958094456661755
v 14.814848876643104 3.3312021272952825 -17.855231468689361
v 16.081792598988102 3.3358655385396885 -17.682383913740075
v 17.357711523251918 3.3905411723238568 -17.405900997213134
v 8.2529579764688421 8.7092716322959287 -8.678050181534525
v 16.713757794337035 7.957435461296047 -7.9532450248713982
v -16.252892342209321 2.9960945226940057 -17.587926995478647
v 14.352801667473486 8.4000988069241611 -7.9898707021683366
v 0.024270766786446196 8.5058865036189424 -8.8264904127148149
v 4.6311929513785319 8.6047423521730035 -8.8767998036031681
v -1.2170632599866358 8.4737538314056948 -8.7424147735885231
v 9.5730001159083127 3.557660143232189 -18.102611243351035
v 21.623899720791925 6.0999361701218646 -10.40142450702821
v 12.318076849389161 3.414886142446754 -18.024890550837888
v 22.111599845503086 5.6466188594141054 -11.37737316121413
v 2.3664324761569775 8.55003847580595 -8.9068360663741259
v 3.4959064250918641 8.5741702992559823 -8.9037402042307185
v 21.773875044415853 4.2886573515527173 -14.716147748213274
v -14.279753324514585 7.3130742552942323 -8.4327583519207145
v 22.204885581606213 4.7480107517128003 -13.543977496873264
v 5.797256721668866 8.6403400539338886 -8.8330289464915417
v 19.002091358117369 7.3413758458061009 -8.3692408984804079
v 17.878987274515822 7.6731204593427211 -8.0819136403958645
v 20.904106293963807 6.538794328154907 -9.567261742365023
v 20.01244754626908 6.9545988306784885 -8.8912817185073365
v 7.0064161257119704 8.6765214645770747 -8.7742505475866395
v 20.950388079548382 3.9228397931588663 -15.715442349413799
v 19.859671833246843 3.6624363744959307 -16.478616691480457
v 15.534839922968892 8.1997201164110063 -7.9350388601639636
v 18.634024871043692 3.4907895612730195 -17.027235709967826
v -8.0564661764011554 8.067559806847223 -8.1195743774089824
v 1.2157268956593019 8.5285145077477633 -8.8842439612853674
v 11.084204632947497 3.4769866330176056 -18.068222363589179
v 5.2806619309211831 3.752303397932395 -18.129019569695341
v -11.440483381346429 2.9334249125465703 -18.330069484649371
v -3.8437535664457148 8.3640934048007196 -8.5034910386576321
v 19.25999400371029 -11.888844735455262 7.8531388224960494
v 18.436408690074927 -14.167107027662347 8.5775580206667676
v 12.08663208934183 -23.436686700045538 7.8844593736995199
v 8.7370299675070715 -23.425674125591346 7.7669709081209923
v -20.379257456332393 -1.1317052577194382 5.3664349516806764
v -26.090699228164926 1.0035764449274471 3.7056796139334356
v -3.0686289241272284 -15.571758576961063 10.361510011700513
v -8.9211771400072841 -15.536281155738651 10.475269111949171
v 11.280883346890484 -16.197445990319395 10.013964313572888
v 17.743749265395227 -15.17405711836426 8.9218950383820612
v -27.279173527256418 0.54449242749366167 3.6522946361014732
v 12.331571396884454 -16.321428202262702 9.932622431174547
v -20.992794122625945 -15.817713448796177 8.121901098439384
v 21.287666366261647 -2.6615483445501846 3.652787724194785
v 10.075779173209115 -23.428280412915811 7.836163684795256
v 19.539814928836989 -10.663109036620083 7.4459412199751878
v -0.26553898314478297 -15.657835576775845 10.2942264247785
v 20.843380553042781 -3.7041480646470397 4.2786563204177703
v -28.293642116882687 -0.16790200281283085 3.7187639103720209
v 26.269712701643122 -0.50645556756720445 1.7130048124439239
v 15.65557257314582 -16.290533256051596 9.47689084637436
v 1.0613951085951032 -15.696715628994809 10.268185786846679
v 28.413938311861351 -1.5248432596073123 1.8103928137029413
v -21.443389635115107 -14.846007423089459 8.0564234636447729
v 29.253878637738651 -4.7690119431370324 3.1048510011514607
v -19.497473538533345 -3.2926380576463519 6.2423829061090936
v 27.65340008200004 -7.8371939603286673 4.4286593645402554
v -20.658099035398529 -16.830501864531929 8.1600930625241705
v 18.347714692748013 -24.214071797595672 7.3215957983287243
v -17.187060276665235 -24.346862790739429 7.3868917956753144
v 25.459521942687637 -10.763962645734363 5.250856427213467
v -18.955265567388693 -5.7211888095316681 7.0889959479122382
v 4.6443268274317262 -23.411928709451718 7.4947391900747071
v 29.359346223738456 -3.6439213587825257 2.6059689269241364
v 6.0313373059157955 -23.417193226491975 7.5913279859859024
v -18.726334191379884 -6.9903587417845898 7.4918617080018102
v 13.407418582096962 -16.438869577024104 9.8274662421382857
v -17.736200120941113 -13.095222033646817 9.2353606244727082
v 23.081293947132657 -16.617807838307485 5.9584817578908762
v 22.957511175159656 -17.992391366771379 6.0613426107225035
v 23.326269432669751 -15.319257025175295 5.851728056612572
v 21.691304671062291 -24.03471860935862 6.732583561012186
v -13.534951250554801 -23.872785304923593 7.0925794756747713
v 20.587502146110864 -24.350896020555727 6.9258339311002057
v 8.0177344539575088 -15.935212001808083 10.165253193698629
v -5.9720188804477043 -15.517077797947943 10.43472637578809
v 11.074925754357272 -23.431053698439516 7.8712654016870065
v 23.702583536722305 -14.102896406651947 5.7339141569613865
v 10.189684246986527 -16.077933017485385 10.077170762584959
v -8.6260490142338337 -23.389560610248054 7.0164899496278714
v 3.2382472897481809 -23.4055425555153 7.3993495159607718
v 27.319879430397524 -0.83826223179274451 1.686548081671968
v 25.129944644523853 -0.43576945564507658 1.8757748247452737
v -21.061098775236186 -0.23100070411086088 4.9426662375898918
v 18.917993497756438 -13.04634960456511 8.2206586551737093
v 3.5334604340277807 -15.761461356349393 10.231549213491144
v -7.3666791362423609 -23.386906735302524 7.0208430222318876
v 22.680467148810774 -22.026471587582574 6.4156581631574632
v -18.549993563487689 -8.2745549586415343 7.875890243734526
v 24.196538741532688 -12.961590553640466 5.5999507097051708
v -3.5699232503763891 -23.379796804476328 7.0754028250002383
v 6.9251008501167846 -15.883139088438007 10.190126911605734
v 24.793406037445905 -11.833213537138384 5.4389677225675985
v 7.393758301104242 -23.422316336406908 7.6837758932518474
v 20.147840447092022 -7.0820766453438306 6.0358363544628677
v 20.55825278331486 -4.8045736603774003 4.8967401232946104
v 15.174125792831754 -23.669886303601032 7.7523083550016683
v -4.5136554330062815 -15.538169740255302 10.399716716916537
v 26.91907853517808 -8.7882670782749486 4.7565084876903558
v 16.20813758185334 -23.892490742685546 7.6374915771926002
v 29.116258217706605 -2.5185891487407512 2.1427035494709012
v 23.96375982428772 -0.5839270257950433 2.1368737323154736
v -11.581558591028649 -15.664650894272778 10.453958349255332
v 21.937893924680139 -1.7272667219464459 3.0473621805169722
v 17.262695363144282 -24.091409748156352 7.4920271813118609
v 13.109247984938992 -23.453025042930328 7.8721846268449642
v -15.180559015071289 -15.617104938970924 10.158669019414805
v 5.8197964091400483 -15.838476669899055 10.207078656823306
v -17.156129672579812 -14.208819130231449 9.5814734131527004
v -22.934916898029606 0.93295560615546824 4.2417702801690558
v 19.96317645774991 -8.254539725025527 6.5440426329811867
v -2.2701248701040044 -23.380227769500991 7.1139451536263394
v -9.8651284616936188 -23.39605748210294 7.018375824579679
v -11.104883952143496 -23.432317015751195 7.0291020628244496
v 14.141130166068908 -23.512037585785404 7.8301576120758458
v 4.6932750327600701 -15.797515268154353 10.219483408210261
v 0.4307488441350058 -23.38929792803674 7.2314928667813092
v -4.8458433246672064 -23.382136447906202 7.0484832202700094
v -6.108533484404207 -23.384875374053006 7.0310263408815761
v -20.017544718772243 -22.481500070394478 7.8448087805137385
v 22.408980403217136 -23.133638037722847 6.560693310191505
v -23.084713819000363 -12.307879923339774 7.7180842189162489
v -12.334912926486219 -23.578314766088909 7.0526126914857459
v -18.417516931660423 -24.263553603697599 7.5350528063337414
v -20.162955587975365 -21.188012671894548 7.9797605294035705
v -20.454792457100947 -17.856650524062129 8.168876141567992
v 22.869888777847443 -1.0271706473874429 2.5339109958026
v -24.003880592218714 1.1616998268715155 3.9972181330471481
v -19.207368687589607 -4.4833674159438415 6.6714956321695134
v -25.071561040950613 1.1785478724429193 3.8199362603809051
v -20.24707374270919 -19.874121353637229 8.0902552161293464
v -13.971148019629201 -15.787347891484892 10.321421142850989
v -7.4410996815021342 -15.514247367188606 10.461479735721269
v 1.8276578440467903 -23.397332811804297 7.3102270222748515
v -21.925609486910602 0.47473516592177867 4.5575152149097864
v -15.962057710131358 -24.261055382328514 7.260226875776123
v -28.420630999709161 -5.3605949291388697 5.5007813428570973
v -26.345699603480014 -8.0915599693467932 6.6042593430293088
v -27.082792438464921 -7.1719772243675646 6.2622845313020639
v 26.17608031425992 -9.7539901702789109 5.0271034533484995
v -18.060990307830899 -11.971452624139669 8.912710603274995
v -29.307324199079538 -3.342457503506246 4.6595877811067759
v -29.367337005843076 -2.2225273401882819 4.2512691861392664
v -14.741313027299061 -24.122466838524069 7.1607930577019854
v -29.033924013594 -1.115125697613097 3.9170958656913095
v 20.341138227462913 -5.932411215502003 5.4859043292459191
v 28.335770716928764 -6.8695899100593403 4.0389156947780993
v -21.967912790408342 -13.933009639898023 7.9664977828478625
v -25.577577444344151 -9.0548409468564479 6.9199418062982883
v -24.779006592226551 -10.076033248908153 7.2099374207782185
v -23.94761297448229 -11.160525997618013 7.4755397456390149
v -22.525368264535448 -13.086852931300957 7.8533929705371772
v 22.795307688330475 -20.916077981450393 6.2992167720114853
v 9.1040958779883923 -15.994960153030208 10.127404587220258
v 22.886359432829629 -19.429986824752216 6.1711337425753046
v -0.93743773194433122 -23.383520410761921 7.1657658201180521
v -18.267266134586521 -10.784516859510113 8.5827650623110436
v -19.868233326422953 -2.1656231222815485 5.804694375839194
v -27.785017437892911 -6.2754815301521756 5.8940947848836709
v -12.765980181814381 -15.747889762087414 10.407433116630562
v -1.6472497370943846 -15.615889766982059 10.326286769008526
v -16.296322797151909 -15.100197743175251 9.904137094404259
v -18.413881002530935 -9.5473185888732228 8.2388606390812065
v -10.408987263138734 -15.593577285589999 10.473925132607196
v -20.324574316204554 -18.870109069755706 8.1462745403971795
v 2.3267176804026306 -15.72256202041924 10.244252012294671
v -19.503512100707315 -23.648173840902157 7.6906825697465671
v 19.45582144714259 -24.311926106521689 7.1289507193015247
v -28.929493903915951 -4.3802348184184741 5.0886798100366875
v 19.766369297276324 -9.4492225290870451 7.0121700863576724
v 28.894906028769523 -5.8509325614172027 3.5916054480854491
v 14.520556075553205 -16.471821969735466 9.6840980502913769
v 16.783403020871056 -15.91410124445288 9.2304864947523342
v 10.324491754653987 -23.274953254502492 1.8081088540773231
v 11.135223645397387 -16.760803523199428 8.1321219509614195
v 11.199065353732898 -16.485197210358848 9.0947605116825851
v 11.280883346890484 -16.197445990319395 10.013964313572888
v 11.428456320142274 -15.747362674202922 11.358808136905981
v 10.340391290082545 -1.6663193553051237 -6.2004074282729098
v 10.954186831215736 -1.7508106431573363 -15.358245398415063
v 11.012981712676002 10.146334638241051 -8.6804629317905686
v 10.905503670856113 -2.9534349824294024 -14.752272139689214
v 11.070825213101646 -17.569246561060442 3.7441327999111964
v 10.592648735846938 -9.9512000276223134 -11.601248561355408
v 10.075779173209115 -23.428280412915811 7.836163684795256
v 10.967365636106345 -10.945664377259389 -5.0092773778983117
v 10.667258920277197 -7.8977319047355916 -12.408061862943853
v 10.903349375912644 -23.649576232711311 -6.9628399731282862
v 10.524845278844897 6.7517580191376894 -7.9950313408830542
v 11.59575546566909 -15.284696177230447 12.662762130456404
v 12.162704237571539 -20.790755889285656 22.562716734608912
v 10.306811850079214 4.6616969034218059 -7.5932669994225463
v 11.176302833339371 -19.193823710020645 -12.130860552884595
v 11.97947736021376 -14.434593979615038 15.163385504380107
v 12.188107945804539 -14.09480188670269 16.368432184150592
v 13.627803513822936 17.492950487444695 -22.779219831087005
v 11.413209009873096 -21.765283293945473 -12.599982887038152
v 11.43595095065057 -22.875554964272538 -12.428893764297925
v 11.006108336599249 -17.765486007404142 -11.706161889642122
v 11.002480062289573 -23.820400476443545 -8.1585824916994447
v 14.307452856048158 22.58262942366774 -17.746371412008841
v 11.133942391187825 -17.48516287341014 1.3018523811522771
v 11.332081917923869 -20.662792404925717 -12.485199822630861
v 10.588327719622177 -23.210187782365317 -2.301762206592981
v 11.116322407673259 -23.928401998673717 -9.3557579235295272
v 10.796339635219864 8.7154997119118338 -8.376037829392402
v 11.23054634157149 11.523256879911946 -8.9962731371779867
v 11.367187851744314 -23.745414527167455 -11.686855227388854
v 11.237860902439149 -23.969154956390334 -10.543241351114887
v 14.02355187642959 22.354620053721618 -15.569490372415331
v 11.200162063865866 -15.332917806834713 -2.8033939595326545
v 10.583454435395705 -12.299683981782557 -11.025707786504892
v 12.249763439151039 -19.42767557187539 22.272990732190657
v 10.180044480935972 -23.33179846074502 4.3161305026527517
v 10.147687760717474 -23.580906633532585 13.529767386686414
v 11.08992708738548 -17.016565652214119 7.1169505086915148
v 10.575697188664702 -11.085832836611257 -11.263512880623349
v 12.616703911367935 -15.315925065392101 20.765413163224579
v 10.40483766618501 5.7149784094323675 -7.8008518497246015
v 12.792700332144086 18.780191430588225 -11.455916324083223
v 11.207522424499661 -16.068199297002792 -1.957157634505402
v 12.324240951711612 -18.4031134941056 22.004852043378861
v 10.071245254735292 -23.466155315194861 9.2497016876217835
v 10.496556977065406 -23.228820680554698 -0.88229554994134785
v 10.079583417562617 -23.499261715018726 10.661257153536271
v 10.408493818374748 -23.250448327480107 0.4877219177003369
v 10.102530758856345 -23.531410984398754 12.084898609792463
v 14.1468150589301 19.735083488401884 -22.20863296398748
v 10.713561565420003 -6.9359765647800193 -12.8368516866314
v 10.414642401494156 -2.7839062546179894 -6.0211767386907944
v 10.2762826187604 -0.57868638961222363 -6.4103122247843416
v 10.844150065932071 -16.363359476654594 -11.302340946155727
v 14.457395730116064 22.069109426868238 -19.944212431819672
v 12.498323465870971 17.701695886569475 -10.922567640812261
v 10.127847396735746 -23.362689181636981 5.5159506319066232
v 10.655594851581416 -6.2409510254400429 -5.6950013607118093
v 12.211427251602252 16.555964706852041 -10.461098485081045
v 10.88960795833556 -9.7503573965888997 -5.2700445351648302
v 14.178453147558063 22.552627449065398 -16.644135123848066
v 10.575049091742773 -5.0809609322482734 -5.7815661396587039
v 11.062256158787969 2.4885042057589208 -17.564025056074627
v 10.734676644484495 -7.403339036194045 -5.5971719748599247
v 10.812497684364605 -8.5715198480122883 -5.4641447354861281
v 11.121183049150677 4.5710097696084233 -18.613980993039789
v 14.337387115330694 20.723248084432853 -21.644805478248518
v 11.396356058782207 7.8142910236876002 -20.149032840734794
v 11.687473468524136 14.124848221273867 -9.6737476138117344
v 13.907278072409543 18.640031914855832 -22.590013297133758
v 11.96673573261852 10.978400023584797 -21.500598043513712
v 12.207462983799642 12.019971522333547 -21.894544502330987
v 11.064026832262231 -17.250883869897251 6.0474984956423778
v 10.208792792195286 -23.668446966357546 14.61414897580816
v 11.748664202456713 9.930349055938045 -21.077698147222389
v 12.41168303027203 -17.378229919695421 21.67938742679511
v 11.556931802163216 8.8760538332277008 -20.62538337490825
v 10.447440577911841 -24.085256764459299 16.852581717957928
v 10.306145085004442 -23.849065371789017 15.72256563084072
v 11.114554624859306 -13.352530958755585 -4.1687273263669891
v 11.940153468201117 15.359472642343157 -10.053644006674727
v 10.640944640924454 -24.316003523416207 17.995325866016138
v 10.626593100971778 -13.576753152001835 -10.940203556695369
v 10.99266224334794 -0.61834615736180032 -15.941276296527908
v 12.744685170553403 14.12558784054697 -22.52859276104239
v 10.8473737415492 -4.2283145735644165 -14.123959642780591
v 10.247007424651706 -23.302383231824841 3.082319150299079
v 11.196866429558714 -16.694697007163388 -0.98030817340176091
v 14.404534605375947 22.42600718493069 -18.856862014521727
v 13.03352923666926 15.217544329560432 -22.720411792468035
v 13.32831039102761 16.344087415289621 -22.796056921699268
v 11.216775110207287 -24.51146625621605 20.376611066653883
v 11.098409195447926 -17.606429171768191 2.5275830503043131
v 10.493924146090581 -3.9255204721512529 -5.8812912147662075
v 10.712859812000145 -14.966802437732451 -11.01887689104484
v 12.397813445631813 -13.868829095806804 17.555219907871695
v 12.599474443882324 -13.871969998081868 18.847468780353093
v 11.584143767886067 -24.323981042508869 21.585054520394003
v 12.675522540856495 -14.395368779506601 19.989014190620473
v 10.09311072935505 -23.395405195017794 6.6875932686027468
v 11.172418368436311 -14.4998522220606 -3.5005515695010643
v 12.514699764198125 -16.341933770348291 21.288790939983446
v 10.2010120287903 1.5241492529072715 -6.881099783756917
v 13.085633116505885 19.784064070030951 -12.055632061204905
v 10.625165082259228 -8.8959959735833838 -11.998030687809413
v 11.169832283401117 -17.175744484768778 0.11705745230255925
v 12.063674865143849 -22.152436970788955 22.708598826455095
v 11.45300438845922 12.847594564528222 -9.3248896167735076
v 10.821607374283049 -23.435529231805003 -5.7767713173941839
v 10.658053299893565 7.7552757698291135 -8.1855420397920398
v 10.663339718853782 -23.210289978052487 -3.4319794586890096
v 11.021691399666626 0.45561510208274308 -16.502579828094856
v 11.044357722772109 -12.155381409453344 -4.6622314839347236
v 11.043573227227885 1.4867334192336648 -17.042129832504024
v 12.467689064087946 13.064648473615369 -22.243378750438985
v 10.203005166567891 2.5629355985983739 -7.1263864602831752
v 10.237910633305557 3.6085195169608211 -7.3653394563020012
v 11.180517451926871 5.6605970998891735 -19.143963098745736
v 11.779949784675713 -14.843466508776061 13.931179769206585
v 13.362396132438521 20.674474033483918 -12.766257641849183
v 11.084204632947497 3.4769866330176056 -18.068222363589179
v 13.613271182307251 21.409441764497309 -13.605369943893029
v 10.782140769302572 -5.5638795191689567 -13.480179512196365
v 10.88897243135021 -24.46081039268725 19.131973168327576
v 14.441847746745248 21.515573629721054 -20.869381965633103
v 11.057837413448217 -17.448596481189224 4.9227872102769092
v 11.900890739135424 -23.457405992503709 22.492052971007318
v 11.270801128403463 6.7420510749439497 -19.656078899954515
v 13.838094076165586 21.981127739939403 -14.543306614245452
v 10.743421280650065 -23.269144175155787 -4.5968046950342583
v 10.227647884505032 0.4815645973629562 -6.6393261457241755
v -10.719357773350549 -15.91481216349073 20.600638316198019
v -10.733742321109784 -13.709452434016832 17.970054471428178
v -9.6087037472477075 11.650772548691307 -9.1202778745619142
v -9.5044333803777015 -19.644634119075782 -12.535684738285948
v -9.5067289150417178 7.9361402109522139 -8.0566655434017065
v -9.785183725902808 9.193318401164337 -21.195905546278318
v -10.135381004253851 -7.1003887230830571 -13.489803300429125
v -10.24032280285614 -1.3364977324022069 -16.17227642868405
v -9.1717683001983978 -23.892610652120062 -7.6479460571278421
v -9.1188846144722255 -23.734641930713757 -6.4896042306157637
v -9.5335649424022613 9.1713709518370337 -8.3832154277688993
v -9.7431345142242112 15.229550138396419 -10.40762922404328
v -9.6977516484524475 14.07416723782978 -9.9653883768224496
v -9.6528587552981264 12.877968716004499 -9.5322031047971763
v -9.789795815898767 16.337338966186337 -10.874650622064344
v -9.4591534613768662 5.0446848904308652 -7.3027368863241673
v -9.5679660844464749 10.410761348206471 -8.7357378485087018
v -9.5372612798716858 -20.809786991055091 -12.79905271152348
v -9.4344304751555477 3.6225842845315044 -6.9342666420078931
v -9.4054095480177473 2.2205751199149426 -6.5871994023088396
v -9.3396307180746021 -0.51662588682001531 -6.0232480090028311
v -9.37271644629703 0.84010133277898391 -6.2788107133668198
v -10.528699373685793 21.27623454594405 -22.132761213302338
v -10.025832574238121 -17.56962643381538 1.6624977413328637
v -9.5943598235543135 -12.4341427614285 -5.0268455184368603
v -10.379739684409003 20.368391724914641 -22.794775608972195
v -10.784229187416006 -14.893468565463632 19.995600941940154
v -9.7574045427816927 14.814695465836849 -23.318135946001313
v -9.573300854157651 -22.122240377647643 -12.897748306342107
v -9.7022876526074402 12.506998291983628 -22.575889084288544
v -8.7790865880062654 -23.285567018989219 1.0607191026923877
v -9.4232049688406185 -23.993960076579974 -11.355760421591045
v -9.3187287882932388 -24.037682541047353 -10.091291199877322
v -9.9496485232613203 -17.395730127851785 0.48761627095127402
v -9.4915745119545889 -18.499544650426632 -12.197514858048843
v -9.506335883011225 -17.366142406550409 -11.858775962815757
v -10.638075454505262 22.019629888201486 -21.255552210424675
v -9.9045428225457162 7.070921374022701 -20.251547499454659
v -9.2386617969625817 -23.978289406242247 -8.8518557805553755
v -9.973191176854673 6.034004444249824 -19.775166019749186
v -10.042193998295957 5.0054602205256469 -19.302612845767818
v -9.0317662739640845 -23.364360396126607 -4.2746109618484152
v -10.106355890371827 3.9886946395241862 -18.817654075508329
v -10.160189439416026 2.9734228990096518 -18.335648663175022
v -10.230388061903808 0.82409842396865296 -17.263540047218505
v -10.203422806136508 1.8982017034625576 -17.800947699880986
v -8.8969345085590472 -23.232838904225609 -1.5520567783044785
v -9.541166730720807 -23.350065475209295 -12.464331766532583
v -10.177109499379146 -17.505416720309334 4.0685137510129179
v -10.630354415024724 22.930399924076081 -18.240224018501252
v -8.6424868529611576 -23.370161254601761 5.8627305144352295
v -9.076630521758478 -23.534691953023582 -5.3727765437668227
v -8.9655698075313879 -23.252056521046114 -2.906267273323965
v -8.6090825527993573 -23.433278192058054 9.3692740740822487
v -8.6110750603280906 -23.454751059854132 10.538344693490274
v -10.192362346495853 -4.7316295137535818 -14.547426347826807
v -8.625400893560764 -23.479752376436135 11.692223341616128
v -10.230559371538451 21.340235560217195 -14.053169879475137
v -9.5512174666152454 -16.229192479090216 -11.586539980152951
v -9.7198769110497452 -13.910532026189419 -11.497549299269119
v -9.9736667106879366 -10.624700075511228 -12.186780294360116
v -8.6260490142338337 -23.389560610248054 7.0164899496278714
v -10.242021666000891 -0.24922884894162142 -16.715888686509999
v -8.6949244662969392 -23.332667587207048 3.5198181318081971
v -8.7327406309532094 -23.311341178545199 2.3087658646965012
v -9.6677751967487264 -14.60469200803999 -3.9276796084516983
v -9.7491107785519695 -16.033181043103788 -2.5556788401012893
v -9.8079118011119224 -16.619141000011325 -1.652188621489127
v -9.8761374336894434 -17.088024038154046 -0.63152498248790712
v -10.680336999335431 22.833690124795453 -19.263206908144216
v -10.212895645354504 -3.576512115121266 -15.089017371021983
v -9.5526722828179835 -11.335846794076282 -5.3381998660201155
v -9.6305914853551542 -13.530215646232527 -4.5632586736334524
v -9.5030712390776415 -10.240591173413669 -5.5191555162165677
v -10.093729939339219 -8.2876384548135373 -13.007485515393851
v -9.6950823223958391 -24.515925910988162 20.658331459229053
v -10.798908829564716 -14.0764123838897 19.119709953667645
v -10.641523717044226 -13.734764745403609 16.759853141696887
v -10.453394669674626 22.52716105505786 -16.092585972517234
v -9.3435704496038881 -6.8663678199783282 -5.5961906937572206
v -10.103652475750325 20.446977173295984 -13.235776524059581
v -9.2947425926377658 -3.1494111472966111 -5.6736654355732981
v -9.3119810703470787 -1.8456201341736747 -5.814172360918195
v -10.219534904178591 19.361558335158101 -23.256051939986943
v -10.040081090279951 -9.4689968921895691 -12.570926599446889
v -9.7022870710622335 -15.352612465869319 -3.3197016833010204
v -10.701228169556391 22.591072872731303 -20.235803530305027
v -10.558775071754884 -13.931010906938937 15.505661900094536
v -10.496507098635123 -14.228647555859695 14.258056363105162
v -10.453524400269306 -14.62183895975676 13.010085765808341
v -10.349781828549254 -16.691904661751011 7.4908739390245476
v -10.304433681314958 -17.032622118820711 6.3961383940266794
v -9.3092905337553393 -5.6668728346433372 -5.5853676986409209
v -10.349047737515587 22.042185979447972 -15.027577368103348
v -10.24588881455338 -17.319237580288117 5.2528401967156526
v -9.2929195959630491 -4.4253132673511235 -5.599856141390509
v -10.167336833765043 -5.9071277331945282 -14.011000225940471
v -9.4305272333262309 -24.509355172650771 19.555281921991813
v -10.398165227846519 -15.956770314125027 9.5249530637560547
v -9.001958239118057 -24.15606190019998 16.963185901478056
v -10.590096564882494 -18.110864710186156 21.490736100865497
v -10.649482741240893 -16.999382875385322 21.073144683264189
v -9.9084328900279566 18.448375058894605 -11.922184929113588
v -10.278652263329484 -23.267131484102592 22.48558433109897
v -10.005343619515731 -24.221900663948894 21.757308678300564
v -10.396848142137294 -21.987910578363504 22.48871802669894
v -8.6594273909907109 -23.51838068660053 12.822829858690771
v -8.8339980304645103 -23.256751895134585 -0.22712698929171715
v -9.8426556908392584 17.406714187460807 -11.374096551853917
v -8.7205791051521047 -23.602240990428726 13.923821019008624
v -9.2230643376344208 -24.412259444626411 18.481599547877906
v -10.55442809626757 22.833624291145117 -17.172744800544585
v -9.6266670288735554 -15.074531052021685 -11.469200231210005
v -9.7125103691518593 11.381684203755 -22.135264785564921
v -9.8089786578046692 -12.83744933634064 -11.623840857388547
v -9.993917366782636 19.46436231912331 -12.539563088671716
v -9.391849425616396 -8.0217192464912195 -5.6051135660502096
v -10.469931194784671 -20.687347625017615 22.256538758387482
v -10.380359071777795 -16.327868395819294 8.5337634676766498
v -9.4818211233899952 6.4857997672019057 -7.6743025497058373
v -10.408987263138734 -15.593577285589999 10.473925132607196
v -10.425718222024425 -15.089816616950051 11.753374085836501
v -9.840650445593738 8.1243408167420839 -20.722758484998529
v -8.6147656863156747 -23.410614437232176 8.193098427704065
v -9.8957244356924789 -11.746282702330044 -11.865175728164756
v -9.8287255227904531 15.989648083414163 -23.529128126361353
v -9.4475216854117718 -9.1408497578637444 -5.5918298163391871
v -9.7157816611144323 13.65146383821984 -22.982126367785021
v -9.9303115913368316 17.152811949714838 -23.589065477163238
v -10.064934724000898 18.282687622232999 -23.517361636819974
v -9.7414783095849984 10.276937881771969 -21.673044587457376
v -10.102601852333727 -17.600943665414391 2.8653233301970258
v -10.229421735626374 -2.4447209516039607 -15.631157206554523
v -10.532504771151451 -19.388363398966757 21.916984799188914
v -8.6651149317505851 -23.351879822700546 4.7011324596820625
v -8.8444195642972776 -23.835881217656429 15.457074146468155
v -17.641443212246475 -20.710679490366733 -8.8017026642587375
v -19.441041008558706 -20.412608096258555 -5.0492851810519213
v 20.596910827504278 -20.651203231972211 18.614162373089393
v -19.002728947784888 -20.533752605654726 -6.4637408804991212
v 21.164811780969178 -21.380069255238851 -6.2441202203624897
v 22.159477861295024 -21.474475634758157 -2.6233475027375546
v -20.224338021325195 -19.824406490534273 5.0356786336871373
v 21.533337209505682 -21.445493359331387 -5.1853066748037548
v -9.5372612798716858 -20.809786991055091 -12.79905271152348
v 20.681686976337293 -21.276995216378793 -7.2977217427445815
v 20.048759055557404 -21.144367830982922 -8.3040709495265901
v 18.813562184216174 -20.344288988504836 20.054480473121899
v 0.80167220354298852 -18.018667925144221 23.235652748612942
v 0.29068914529825629 -20.735837207208142 -13.670081585501265
v 22.52590971298202 -21.363748293921002 -0.11320900983139426
v 5.4164799360130402 -20.808744372607212 -13.360033097060228
v 10.192300654608285 -20.702535006782107 -12.746860692667408
v -19.357067375878568 -19.700807846876991 16.538697842099193
v 11.332081917923869 -20.662792404925717 -12.485199822630861
v -19.971053102498196 -20.069881206411182 -0.91175271154706428
v 16.131376047544901 -20.644954341831632 -11.124848620348704
v -18.439394726049592 -20.632312921117915 -7.6791653973728575
v -8.047975929902984 -20.781213078156732 -13.056705948628718
v -16.643498063069213 -20.767479014751416 -9.7785361187356798
v -15.510268144181763 -20.804177098845667 -10.591491862885494
v -14.304259544497334 -20.827664488971138 -11.245852429768071
v 18.299079640525349 -20.851443688232568 -9.9803251384075224
v 17.238261176638641 -20.732646393947547 -10.594007088015918
v -13.079764446363519 -20.839761752302174 -11.771401313568955
v -11.869081675653058 -20.840422957469919 -12.193487656501915
v -10.684968899726572 -20.831059508366181 -12.522298875559304
v 22.638887713903376 -20.956349585234655 12.753601628566392
v 21.269139536527696 -20.773244561624089 17.746486633525812
v 8.9514115319194865 -19.064985873127501 22.88434592294475
v 22.256162930186356 -20.94131863457206 15.337515785070288
v 10.058098037161976 -19.181188056742151 22.708680638280299
v -6.5874046739225598 -20.75212663496356 -13.275052886990188
v -5.1562380921496125 -20.726659391491388 -13.462349142493359
v 12.249763439151039 -19.42767557187539 22.272990732190657
v 14.466985957649126 -19.706068974260603 21.734572236669536
v -2.3786533010566844 -20.711360853440141 -13.658485434163017
v -3.7521100216663115 -20.714624595166875 -13.582102672573885
v -1.0329176630272967 -20.718623972565929 -13.690010081577402
v 1.5974669747196821 -20.758024129919484 -13.620740620021925
v 22.733887474312269 -20.932452210542856 11.414043309508216
v 22.785087580694501 -20.903431365822964 10.098948184245891
v 21.870249136362162 -20.881524353159875 16.559190407161395
v 19.240309203434855 -20.99646501391863 -9.2033684967969904
v 11.153710811110368 -19.300139471608048 22.507188296618644
v 22.781321649415425 -20.981511652004802 4.982962251105703
v -20.122102525385529 -19.918784039133406 1.6144783041463833
v -2.6080315150151203 -17.66634057168838 22.907189358639279
v 22.756736000609163 -21.070434204238758 3.6877522185229412
v -4.8465338877271211 -17.604872836994396 22.580588743094019
v -5.9684318652706683 -17.630519648841911 22.394138633560324
v 7.8459112283820049 -20.786250672041213 -13.080129256795644
v 2.889660113399886 -20.779634013752528 -13.557362122890055
v 22.375143259840968 -21.434712668286345 -1.3663992805043765
v 22.477456694990451 -20.962297009956927 14.11570190496132
v 12.56705041068324 -20.619996249861064 -12.211579796917146
v 21.885157502243338 -21.480218300583232 -3.8950470130316703
v 13.353089003376143 -19.563061662143305 22.015953790534269
v 3.1326917737897824 -18.355071299380342 23.308645544204438
v 14.972839194807477 -20.602337694622957 -11.546171582499355
v -0.34531950227796182 -17.870795253169089 23.155590006039326
v -1.4811014700390213 -17.752237374440504 23.04172287751998
v -3.7268833988883139 -17.620454338205235 22.740955488013586
v 19.771104570432712 -20.50419401278004 19.397488588341346
v -20.055308382581774 -19.985583223089854 0.3790837566079035
v -20.204333947275025 -19.837970647547593 3.9368427841016129
v -7.0998920602135431 -17.696524644408711 22.189074889982315
v -8.2448094250931234 -17.803829791457982 21.962704409965596
v 5.4964141299784863 -18.679367454358619 23.230507503195319
v 1.9608687860441711 -18.182905108606235 23.292442326123449
v -20.24707374270919 -19.874121353637229 8.0902552161293464
v -20.245716478281715 -19.846476008895465 7.1122123967972755
v -20.198517685238759 -19.943339359445819 10.635706456713034
v 22.713320190680143 -21.171857378850458 2.4087046762122655
v -20.065603828823139 -19.938608245718854 13.079629549634575
v -20.147632401326454 -19.95424292487548 11.866934544756671
v -19.92133860426523 -19.891200973260723 14.280522035265072
v -19.700689969861244 -19.812704524645294 15.429716844824952
v -18.866757202560315 -19.559882396325406 17.56605024752993
v -9.408307545889679 -17.944371504755829 21.729942200685688
v -11.661738533252308 -18.272831560411738 21.273310712363369
v -10.590096564882494 -18.110864710186156 21.490736100865497
v 6.6444218403421296 -20.804019272554854 -13.236221337782112
v 6.6698636484691773 -18.819336842570554 23.147046512184254
v -13.865468854361513 -18.62248772391861 20.736160572722611
v -12.751633744768533 -18.446994549735606 21.022381372775243
v -14.998039843076521 -18.799437470608559 20.387848936067716
v -17.214373862544011 -19.185709057491756 19.293426916302831
v -16.131692111697241 -18.983878426418659 19.933517748378875
v 15.582919976322207 -19.856496900894967 21.415920346353971
v 22.811221792324318 -20.885350969290222 7.5405919457253745
v 22.808118295237755 -20.883534910984956 8.8076981632380082
v 22.795307688330475 -20.916077981450393 6.2992167720114853
v 17.775639802866166 -20.17841352137367 20.596797890062817
v -19.86343620871223 -20.171535358255319 -2.2542493987170285
v 7.8228696885168603 -18.946810035612589 23.029142456702072
v 4.1640368920052229 -20.798780569985073 -13.468707422325901
v -18.188204650210242 -19.394844027077951 18.441609434946802
v 9.0277752005048519 -20.749321465696504 -12.923586853251784
v -20.231988193956717 -19.913582599952406 9.3785445727028396
v -20.170662050048591 -19.869440286779998 2.7980514831166836
v -20.239394972879914 -19.828349183177856 6.0945972026256232
v 22.640316666829968 -21.273377221513663 1.1427065831813066
v 13.786049151842873 -20.593978893950723 -11.913723099904754
v 4.3135712820168184 -18.524038407313579 23.283002922157912
v -19.706518832878409 -20.288200304519961 -3.6384797094138657
v 16.686326292858034 -20.016275682621561 21.03186320616534
v 22.792920285732961 -7.0074468384153192 -10.049210775223232
v -3.000494929858041 -23.158533525750855 -3.4544994755961191
v -18.724650464471409 -22.748430778364245 -6.1582250964847551
v -19.002728947784888 -20.533752605654726 -6.4637408804991212
v -19.139778732570726 -19.140317487931934 -6.7510242489980676
v 20.922202992524426 -23.733720946903183 -4.5739995877652317
v 23.135932349736493 -11.347258385290043 -8.8304474427461379
v -20.500502565379335 -11.286776703488218 -9.2193459208551616
v 21.64401753876049 -19.116494235658806 -5.7910984620158903
v -14.805676158582287 20.241843162956052 -19.801957407565823
v -20.705533528906393 -8.8748967281745568 -10.058933498140238
v 23.219373558901484 -9.1457031505542119 -9.6221563936802674
v -16.740600166439126 18.676640699758032 -19.516194168867813
v -18.868344011066178 -3.5495072822861906 -11.22482846450221
v -13.810210635596452 20.952382211270276 -19.944169610095052
v -20.672779230340311 -10.045883472497755 -9.6750236816063637
v 21.533337209505682 -21.445493359331387 -5.1853066748037548
v -5.097623269235851 24.017467973852327 -20.258266156657921
v 21.551757448791179 -0.41723350842879448 -11.526125888967874
v 22.71347210300128 8.0569439305239001 -14.96645198482685
v -19.646210778547278 -15.185653258454318 -7.7846283238154124
v -19.256670418580494 -17.772068585535166 -7.0589485735884985
v -19.42683277238309 -16.451233032096901 -7.4059030197170612
v 14.047689541268353 -23.655971040223804 -2.7849139447105538
v -19.888944722786285 -13.972637674566618 -8.1816489657071187
v -20.576016934763551 -7.7695539270115486 -10.354662648137751
v -19.81492260866127 -5.7534363829390029 -10.68640273675242
v -3.9470539403216138 24.160316325807397 -20.247151436028545
v -18.681772016897618 -1.3134262648112105 -12.098923102315295
v -18.781254809675644 -0.24900294511387638 -12.58790798736608
v -19.236954616743873 -4.6730889154223298 -10.874492186743243
v -18.725840496074202 -2.4171344149547234 -11.644974385241927
v -1.5803743697104147 24.31519731261557 -20.277662789085937
v 18.753933820932339 -24.335297516221193 -3.8313016265017641
v 17.576602178516961 -24.210511237764422 -3.518430341503036
v 21.405610821071988 -22.657175087906275 -4.9009051916705166
v 8.5282155497097953 23.559602615544051 -20.629854321489091
v 3.5720047742502929 -23.184759859373447 -2.4469478232522608
v -10.123640348896167 -23.584176030145429 -4.4038106607528089
v 19.915267869400729 -24.294855473969406 -4.1941532604846063
v -18.14663231457596 -23.732607975304319 -5.9552724464127991
v 9.4435316547664456 -23.201083172716949 -2.2175175316227529
v -18.925019880842086 -21.638247429677413 -6.298025904008961
v 10.588327719622177 -23.210187782365317 -2.301762206592981
v 11.746001133949637 -23.246052879462479 -2.4320241917072529
v -14.742044973411321 -24.172410855817915 -5.1282557509265629
v 16.388189824081728 -24.085423866180257 -3.2427640671544831
v 21.92022008225355 -16.822013061010097 -6.5234192161463014
v -11.229558947914867 -23.8229576787854 -4.5445005815426214
v -9.0317662739640845 -23.364360396126607 -4.2746109618484152
v -6.5339639160253071 -23.156878664736936 -3.9661788133287166
v -7.3532085802602865 23.677906067261006 -20.307602371860813
v -17.571106271065929 17.753955927008942 -19.321295911721602
v -0.38092850577954918 24.337430932965116 -20.329218890092406
v 5.7850934671990464 23.931970827216951 -20.676538561765895
v -2.7742953640011976 24.287550931240318 -20.257869383415617
v 21.868138262068424 -4.9017143696349681 -10.250681782503348
v -15.797906182698888 19.495888035062453 -19.665077004546674
v -7.7796657657242694 -23.202801121934101 -4.1228726134730014
v 21.521265732439197 -3.7649041841301107 -10.475866670877455
v -5.3153811112899749 -23.152836585317399 -3.8034397921576444
v 21.743942089931721 -17.952005937821632 -6.1389178904295996
v 15.206310403733241 -23.912207446162686 -2.9981282154684794
v -0.83639481810644534 -23.163632049024969 -3.0899304269981736
v -1.9052951530196225 -23.161124273989799 -3.2722605639402884
v 8.2922365629540735 -23.196849298109253 -2.181046612783351
v -19.779799599722544 8.8429718110226077 -16.405727749601642
v -19.656782789079422 7.6505035735839506 -15.958318060360535
v 7.1259657853843814 -23.192160033243681 -2.1909543711532828
v 21.433394276994605 -2.6147812122859531 -10.790428040342535
v 7.130639137606348 23.763233779051919 -20.672367768304031
v -18.849781561945505 0.81004761537855829 -13.070697016406147
v -19.21302756464501 4.0001374789714159 -14.486598692377489
v -18.953183025415282 1.8677972455832419 -13.546429178476984
v 5.943145290643157 -23.188814059980512 -2.2428267649411167
v -19.080634800502885 2.927442566944094 -14.022889150638431
v -18.768322385995731 15.667091246984285 -18.744889535484262
v 14.457395730116064 22.069109426868238 -19.944212431819672
v -18.246148380152729 16.738476331207373 -19.060550559553604
v -19.176353898580139 14.571267533831421 -18.399486917444609
v -19.676255613083143 12.333018764194668 -17.638034001847792
v -19.511714707513931 13.463857826482929 -18.03985132781451
v 4.7525731452609286 -23.186230859960212 -2.3304072194184577
v -9.5898890916408241 23.051859504866357 -20.291863949211127
v -20.249942154941976 -6.7332053158691476 -10.531599616095043
v 20.890328655859705 17.493233047740958 -18.392843032377158
v 18.595018872394412 19.803779533586816 -19.117318407547899
v 20.237062347576945 18.325685152129324 -18.657747016324848
v 19.473757653116579 19.097537332487349 -18.898508223097654
v -10.701228169556391 22.591072872731303 -20.235803530305027
v 17.645903057007772 20.478271904185249 -19.337823737956683
v 22.376765747663775 -5.9935395790549251 -10.13656483458518
v 22.890270265815726 12.460935617780891 -16.74492484729457
v 22.716733380679599 13.571058769079954 -17.144408248131555
v 15.550810431673249 21.617543521440808 -19.752348218333047
v 2.4201789865269006 -23.182191445325621 -2.5861392574656947
v 1.3067259762056751 -23.175620852917334 -2.7426191766663361
v 22.958726432240024 11.342978102367553 -16.323611566923681
v -11.742625906815782 22.115485472719357 -20.164996944858501
v 22.920051422811646 10.236954376115524 -15.879243849435017
v 4.4927504776298726 24.087156222535508 -20.6440320747407
v -12.797969638182627 21.597268153517007 -20.076271394545827
v 22.661950992079433 -13.546426906227776 -7.8336102731336803
v 11.453504248665688 23.006433686150103 -20.392071965272613
v 0.22684826138316228 -23.169549389545253 -2.9119612690172847
v -6.2302462947373618 23.865902624033534 -20.282840335616889
v 3.2419418359652408 24.190622877888579 -20.575842393745347
v 9.9786868030279514 23.343234224018694 -20.551295694017597
v 22.535300329636314 6.9767919839726265 -14.490096132537698
v 22.393523435588065 5.8698986867708687 -14.021214854915119
v 22.854957698499391 9.1388380498341171 -15.432817980216111
v 21.468022259943151 -1.4981267639001334 -11.145725999836428
v 21.94422523176959 2.7114404531064702 -12.729163416186378
v 21.661051074277967 0.63975940928875974 -11.916913182834975
v 22.084521719759167 3.7366726948964022 -13.137550319222864
v 22.204885581606213 4.7480107517128003 -13.543977496873264
v 21.800818519513875 1.6786803488061348 -12.321780004594807
v 2.0238541561506134 24.30123528698277 -20.500164078249213
v 0.8192755985613358 24.33146396260689 -20.407428819312415
v 22.386226256020773 -14.6875285457992 -7.3439379785102901
v 12.900879433669378 -23.398029048176433 -2.5980241238019781
v 22.133142110157422 -15.730197715268641 -6.9245068095260542
v 21.465879523470996 16.608599671688232 -18.113689847313694
v 21.969226919261708 15.660085165857751 -17.818181718357231
v 22.396895189004667 14.645341366564745 -17.499925620576978
v -8.4631599586752451 23.377687585346589 -20.302675513819061
v 12.954120225891682 22.593931934180315 -20.189326298474487
v 22.921378096946192 -12.436224016263225 -8.3300580874086805
v -12.375118596026484 -23.976055321630071 -4.7136797768609213
v 21.5847293105112 -20.288166961711482 -5.4726350020842283
v -19.766280910153917 11.188232015587836 -17.229450096245394
v -19.82401266588295 10.023372192580631 -16.827892047798983
v 16.628173701953571 21.09514531593441 -19.553170586105782
v -19.357422597052764 5.2227182025648613 -14.994725004896335
v -13.551004276687545 -24.074396723510795 -4.9085894335852114
v 23.085489881357923 -8.0607239961390551 -9.8946645832523945
v -4.1358113335428026 -23.155166255721305 -3.6325673149387701
v -20.205740125385518 -12.587756735904764 -8.6955185117145746
v -19.517686108707828 6.4406139828671147 -15.489699784962102
v -15.933479938289434 -24.253237259991167 -5.377137326194978
v -17.108128749055552 -24.226266404884477 -5.6626698595872105
v 23.249419195177829 -10.251415470638481 -9.2791816572812031
v 27.03022999944092 -6.9853805478713129 14.943903787735277
v 27.695218786160062 -6.0742508996351994 14.890766832966904
v 29.00378169372987 -4.2246543384144921 14.631202522712726
v -2.3629364405026272 -23.516658724839687 13.701227560372661
v -29.778362277347178 -3.0571078119860848 16.258476123484471
v -20.558479417358626 -16.431154563715623 14.53369336267377
v -21.04981263178064 -15.272016241405286 14.675409990606546
v -24.63133819435204 4.9599132746303631 14.792121552652453
v 30.109809544508007 -2.2129898705173927 14.202379363945974
v 26.375282540334801 -7.9023061991321581 14.942679356085453
v 30.48440467419956 -1.1051188177014826 13.930519639118319
v -16.657904917030542 -24.529271608564201 13.783039738947728
v 12.668803746307631 -23.816487666115826 13.597750509938976
v -1.2983372568918525 -12.727175712506233 17.98474690347328
v 1.3530514896800123 -23.522749733138632 13.623750833300235
v -22.338664613146541 3.625635844926971 15.320616404466765
v -7.4092089477496152 -23.539376613898952 13.912471947394719
v -18.518716287708102 -8.9603385689868329 16.556121701928145
v 19.180922660589736 -9.6410758092234339 16.229477936731556
v -19.903123187621787 -1.2860643247495986 16.431560796418552
v -20.233891482267758 -17.608681444514815 14.427040610975672
v 29.598121996064101 -3.2480980479869555 14.435983125710242
v 22.603102434615902 -18.649239938053007 14.110610005920318
v 23.116158976994353 -13.940873711965136 14.338863631287534
v -19.592706738402924 -2.566924991522904 16.611022929321091
v 25.729163372724763 -8.8257236319181231 14.891252876036717
v 4.7662343023053433 -12.786009009979301 17.928129613739742
v -17.931448104507751 -12.055950492802548 16.244862820943951
v 19.070977171215489 -11.090706380984239 16.322773480382757
v 22.556093743420075 -19.815612000822338 14.102319526932856
v 25.104096165924233 -9.7689370153900263 14.801742163074907
v -27.299820922580583 5.0062303452251857 14.578433113163854
v 9.8434716945068423 -13.380934938032985 17.747127504901147
v 30.402614236522641 2.4517692955207018 12.925574361757086
v -23.197123386012436 -12.125370878544681 15.236731836384354
v -10.84121114657013 -23.922553802893411 13.849629157724095
v 30.684380837403559 0.064347653119404907 13.620723335909375
v 29.707215650763807 3.4860304486045433 12.59247038197479
v 13.933651681683738 -24.098338439040369 13.643990807324343
v -11.933504624751066 -24.162914564311258 13.782673607031137
v 10.147687760717474 -23.580906633532585 13.529767386686414
v 24.512802729446264 -10.751606738104133 14.688680602421407
v -0.096568079409925539 -12.693677884566917 18.023510346543112
v 28.658156053805733 4.2179820344144332 12.341337187377626
v 1.1035833350944331 -12.68318632983171 18.028612933762616
v 2.3095135159859628 -12.692068649604193 18.004834425544146
v -21.498897405717436 2.5403757648015182 15.626190962089668
v 0.11892807253798804 -23.520048563879094 13.634988681431928
v -17.575900592675236 -12.818675475001182 16.192307492336319
v -20.292105085546524 0.028298239646370023 16.199188507005832
v 3.5291129137156423 -12.708506352616395 17.966911261358845
v -24.757735516092126 -10.195791557194791 15.664621607241399
v 17.860913770211848 -24.504638690826752 13.887546588332384
v 19.341816710446878 -4.4902919189219386 15.778347899486922
v 21.746558784055637 -23.714381555351949 14.151932241795089
v 11.1168153828283 -13.614726737616863 17.667867743426761
v 7.2927208900427889 -13.020123077231185 17.848509005042629
v 8.5683135314522296 -13.185185498240592 17.804459767363301
v -13.066011094152179 -24.338677720551676 13.730732826733444
v -1.119983362397406 -23.517889424552951 13.659435873618861
v 21.760495688832904 2.9545087831271415 13.028874996771354
v 24.903458662174721 4.6768802048904767 12.214293142620752
v 23.708849151854309 4.3199672187932983 12.387726627634162
v 23.973044873790545 -11.802597023224097 14.565744542254111
v 22.640642324900888 3.7427114847947753 12.660855585120498
v -3.7416912050112425 -12.911600709222757 17.794659895569154
v 20.546023891061864 1.0098440860230999 13.922158449077436
v 20.165686532153103 -0.056723570921495339 14.391151048491929
v 19.87629556411801 -1.1423871287915544 14.834104513382741
v 21.060416211085297 2.0303603153458916 13.456710996728244
v -6.3324608758488505 -13.169511444701953 17.456264826676009
v -7.7150441395078815 -13.316650575167969 17.239735443281269
v -9.1538154739120756 -13.513632046258175 17.003639496835596
v -10.641523717044226 -13.734764745403609 16.759853141696887
v -20.804172545032152 1.3300561372930735 15.926032982510756
v 3.8139722918768229 -23.528554369529161 13.607306975948106
v 6.0225851949216462 -12.887711304223249 17.88822865142453
v 2.5835226629748398 -23.525629734995491 13.617302249576511
v -2.5075816037771568 -12.832671330156071 17.912806880627826
v 8.8390773704959607 -23.552685589805105 13.525429666685822
v -28.436649057936364 -5.1838954491812572 16.370360469010613
v 22.477456694990451 -20.962297009956927 14.11570190496132
v -23.38748552890268 4.4704689026240469 15.029141390474265
v 28.358811706325948 -5.1589952196567186 14.784599876236161
v -13.972951981330716 -14.278509273580319 16.335062716597662
v 18.340846052405304 -13.517908471442695 16.570274783466829
v -15.100036044263266 -14.323113491398319 16.251882761839894
v -16.169460672518774 -14.133197557833572 16.184257726347681
v 19.267439562639517 -5.6822105581120219 15.945032367514941
v 19.214911364408721 -8.2548234604450634 16.147763006233212
v -22.417832728797109 -13.150732883864674 15.029659727981041
v -18.701905840910886 -7.5592594487095308 16.682129707971804
v -19.093057387804695 -5.0177150298542745 16.778555822083867
v -15.432701438358112 -24.498112743335412 13.722013073082453
v 20.557085238587362 -24.429534149790506 14.068592447410804
v 19.201978562273183 -24.558029768227968 13.975521305212059
v 12.397813445631813 -13.868829095806804 17.555219907871695
v 19.458337453270275 -3.3465995684956003 15.54035906220825
v 19.232561214253462 -6.9353182447530255 16.06020302850817
v 22.700853238914704 -16.280678477084372 14.182418855330098
v 22.31058504063736 -22.406721596990934 14.154517133181308
v -29.44361884277663 3.8569403465352337 14.79289022215066
v -19.005008571576838 -23.791099577467168 14.044904469853769
v -19.60693812110673 -22.61706810995797 14.15034739693743
v -17.90597291499413 -24.446544290397561 13.897648260060073
v -30.214950618134374 2.8946447658837999 15.017812009451411
v 5.0495528581741285 -23.530957836174931 13.589375666686536
v -19.92133860426523 -19.891200973260723 14.280522035265072
v -19.807502689950994 -21.274859535684868 14.214266714672272
v 23.509263535035892 -12.838263089868381 14.448889944162833
v -20.044254918019675 -18.766778063094726 14.345989449766181
v 16.536080880465089 -24.418638026008502 13.800292729655803
v 6.2955769395110632 -23.534660473315533 13.564815147633023
v 14.757339639449883 -14.357234802531584 17.254676204031917
v 13.558881999498116 -14.12852297309991 17.422046304065461
v 17.27049723415767 -14.250288149231459 16.788353691360413
v -25.959307378820689 5.1344830268350314 14.635557364962921
v 7.5570324872185486 -23.540115130534367 13.540287968281588
v -18.883491834427645 -6.2545941881268305 16.761276801214777
v -19.330627513541927 -3.8036134067594447 16.728472310596928
v 11.401030501674841 -23.64600157456227 13.556297846318078
v -30.263195222594078 -1.908276844907677 16.08426060542655
v -30.605717835217007 -0.71416214953163504 15.853553953865241
v 22.838871079099562 -15.095778345435882 14.246139913433154
v -17.009982168149989 -13.559085524077156 16.170497280782378
v -27.701750809859334 -6.2093582532381113 16.320631709982401
v -26.966938983019009 -7.2269404420789769 16.212062392800714
v -26.245440726457886 -8.2399231834428956 16.058215066497997
v -25.512927842584606 -9.2302721611016647 15.871197384188886
v 16.005605629045412 -14.407728714089451 17.035782959039217
v 15.225199134122402 -24.297419423296489 13.716048830861425
v -29.148703749915978 -4.1430132460872215 16.352487574033447
v 22.644306425605386 -17.469058631879857 14.139020619897835
v -6.125570499417627 -23.518691663201878 13.875309458214373
v -4.8617534700821281 -23.516174436067782 13.819747845825864
v -9.7702771468294305 -23.723039190755294 13.902510889717449
v -8.7205791051521047 -23.602240990428726 13.923821019008624
v -21.697360907366615 -14.176588425549147 14.843657980744357
v -18.291787562081808 -10.466636965992809 16.401526987161958
v -14.235190182668342 -24.431264446128473 13.708119781369795
v -28.454389931286748 4.5877450152906993 14.635566727058551
v 30.709682210274234 1.2687478272630446 13.282020126542619
v -23.983681763582869 -11.152820578971104 15.450315693319659
v 19.64493813252323 -2.2370056007461896 15.223785567223945
v 18.876033179105207 -12.337082101507526 16.419205696391284
v 27.457297601535224 4.6837682829596687 12.180600052210961
v 26.171266444093085 4.8151590486844871 12.142538834744613
v -3.6094682458844742 -23.516229008521954 13.757655828453537
v -12.845785670685597 -14.102996571219261 16.447266418542632
v -11.73374136021501 -13.898987324270124 16.5911261282195
v -30.669116771734743 1.7460481072587752 15.292391224187181
v -30.779140757496236 0.51349376137218394 15.582398782799542
v -5.0116213980790567 -13.026488500873295 17.641393103866008
v -21.109588458041923 -9.4982974416495409 19.691818109403314
v -25.83186573305008 0.45001867391070072 2.5721997295912016
v -27.207946291184371 4.6596247307822818 13.016885799545452
v -26.33061277694782 1.6147027406006804 4.968446359256701
v 24.074578387050508 -4.8339036340825334 -7.099246506764727
v -26.853344370775059 3.311287705498378 8.7782020471771212
v -26.090699228164926 1.0035764449274471 3.7056796139334356
v -15.202084034009543 -24.490785507825258 18.340291168400672
v 0.68273843938589462 -24.01293105294846 19.784541542926966
v 20.869043826979134 -23.040023358893229 17.782172550687211
v -10.135381004253851 -7.1003887230830571 -13.489803300429125
v 20.214154732347417 -23.938332986337805 17.739713639498369
v 21.238913738072384 -17.172184575514446 17.786674360193572
v 21.226455604233756 -15.966241166522481 17.82862477976489
v -20.555251802149463 -5.2955464787896211 -9.4452048386498966
v 28.594333507232598 5.1373367632281948 15.362195846550115
v -18.20745949157817 -6.5408554765063416 -12.56643379753859
v -19.81492260866127 -5.7534363829390029 -10.68640273675242
v -18.86967186970562 -6.2585453411393459 -11.977359026993881
v -17.403982583295939 -6.8092759201437216 -13.050763400931306
v 21.321429904209829 -14.802916313996155 17.990854293219009
v 21.503997537271683 -13.733038757356205 18.287298388132456
v 21.703591692019522 -12.763120925326653 18.631537725139928
v 22.225322939093182 -10.536198385949305 19.657025254775775
v 22.556665577794526 -9.2977292216371943 20.346803573215134
v -21.898961782386174 -4.3970082510772457 -7.1519536886120978
v -21.25842283329202 -4.853495434267284 -8.2693101650040646
v -22.469475309410718 -3.9356960566798884 -6.0705837195949108
v -23.007865811291012 -3.4226942387911987 -5.0439434681628308
v -23.486525406222025 -2.9196132653206215 -4.0024038827234438
v -23.934280224485676 -2.3872240190720131 -2.9561901199612262
v -24.363504295432211 -1.821836808814072 -1.8991012829539731
v 21.276197087995303 -18.386034910629576 17.773605244094739
v 24.658498346720673 -1.8770759855344283 21.905385122520244
v 19.340656164120691 -7.1300702631049706 -12.559077003330344
v 9.6047464543667722 -24.418466901773378 19.403619553700018
v 5.8570314109874655 -24.220193900219392 19.881574084311531
v 13.820460877887017 -24.523161076468078 18.34131911424614
v 27.472347554388044 4.9357007697377782 19.834343863779118
v 27.962732268054662 5.3710607886885517 18.630750832268163
v 22.855863256729435 -8.0583865794217502 20.862826943023286
v -26.982671292080568 3.7902942740632426 10.127558364405878
v -25.165986019918286 -0.67901687712764591 0.29841645560152696
v 25.938075131145698 1.6002107527022091 21.639697901722645
v 21.269139536527696 -20.773244561624089 17.746486633525812
v 23.472488406152721 -5.5945193111071401 21.496284790731387
v 21.167313237674627 -21.940380286656961 17.762988408647018
v 23.831910161478902 -4.3614874010454239 21.6842119005277
v 12.807917096100324 -24.505429735092029 18.625952021806174
v 24.230027299880511 -3.120202474449683 21.819472083566822
v -27.352634090175734 5.1018351080513629 16.677564782995468
v -11.048179435864474 -24.509592570190939 18.300537186918174
v 25.099143198945669 -0.65205055692174052 21.884799821591358
v -17.098337008796364 -23.674065856646358 18.725134134470224
v 14.864115898841394 -24.548687224365576 18.068477547140269
v -26.534114336105258 2.2187357485225649 6.2167683813706844
v -27.299820922580583 5.0062303452251857 14.578433113163854
v -11.221775599336361 -7.1630700927643947 -13.577062369165301
v -27.104567172465941 4.2578912123417858 11.531327307711271
v -26.95069300510827 4.0648268194379522 19.12736262562489
v 28.631738326801884 3.8624601301896409 11.309499290789127
v 21.902411871711422 -11.903290783625657 18.991077379841002
v 20.331743431938001 -6.9004352030804332 -12.127249823812289
v 28.492804863663167 5.3085532066217622 16.286319078935819
v -25.123046771458231 0.71907661663305478 20.675937170784376
v 28.658156053805733 4.2179820344144332 12.341337187377626
v 25.531487383732703 0.51970967458800199 21.796591524050406
v 28.656525986856188 4.897609310849985 14.382483034934101
v 7.1007664313954377 -24.290537390962157 19.77887558904478
v -27.351730746958289 5.1445104302845763 15.964213490780253
v 21.293984680642396 -19.590580933017698 17.755903857751505
v 28.660400571576059 4.5644097148011458 13.375192694027463
v -21.51944293315718 -8.3162809043371215 20.018999508857409
v 28.582552094487745 3.4748497962211355 10.272931031782424
v -26.700545364370363 2.7569056947299369 7.4936629059427036
v -20.285478148958298 -11.804645452844024 18.777998501477899
v 28.500104588455329 3.0451540653192861 9.2275454666449406
v 28.383938916557284 2.5536532547822945 8.1796521837896421
v 27.009724517530572 -1.474806243948559 0.51769351141830977
v -22.334929740690058 -5.9235286821672144 20.51138926710556
v 27.961771368775487 0.93641096527830525 4.9444364376653205
v 27.807093315802682 0.40056744897468077 3.8336106044907892
v 28.241648952814174 2.0130601723229438 7.1262919138693626
v 28.108889264484272 1.4742475665943184 6.0438275339546852
v -19.831011908795425 -13.011388412527126 18.388801284851262
v 27.319879430397524 -0.83826223179274451 1.686548081671968
v 27.586713129367247 -0.21266499561136543 2.7626699426883707
v -21.926252692755835 -7.1236586606152557 20.29435105422678
v 10.713561565420003 -6.9359765647800193 -12.8368516866314
v 8.3459650174892772 -24.36336087768294 19.619402592929802
v 25.461985028588259 -3.6108438701346337 -4.0485366848629463
v -27.332194508391844 5.1099666692613894 15.254015115810624
v -15.480468451561793 -7.1665183564930963 -13.604879513892865
v -14.436389745533454 -7.2357532171300534 -13.691195806501959
v 18.218237798733348 -7.2573562629867974 -12.784390611587543
v -13.373663608637735 -7.2453349131448999 -13.693642464236685
v -12.30136472337464 -7.215837163820213 -13.649012405068522
v 4.6044380752750724 -24.15665495778482 19.930755840485425
v 23.014589236077832 -5.6019073820593999 -9.1235029861785719
v 2.4598885704324296 -6.5511806919086641 -12.841468640560265
v -23.651058823247986 -2.3878547324325075 20.835526054197921
v 3.6954854047848675 -6.5367995342874021 -12.821150831119589
v -18.656697162919528 -16.794236447545664 18.161542378704578
v -18.380732316791153 -18.093919871439056 18.29116112677746
v -18.98015447330414 -15.49504186552995 18.041167739348353
v 25.882664540921407 -3.1460127622811527 -2.9633565557128976
v 24.563845220248222 -4.4389682656495042 -6.1036991363320308
v 3.3318149972180389 -24.095711952060149 19.929449247254418
v 14.534496573681265 -7.2291217914494021 -12.894439600453211
v -24.632076908827919 -0.24127288108617109 20.781326796632712
v -19.389913707777929 -5.9934742172902862 -11.328727450845415
v 13.262110878055367 -7.1454112121565956 -12.871115281990399
v 17.027134534165896 -7.3008332791142792 -12.88021213659351
v -22.75223326468744 -4.7254606096698115 20.679457966650574
v 15.793959078080828 -7.2875028897190663 -12.909624730110476
v -23.189225171130978 -3.5411903332939119 20.784260401984088
v 6.134014035878474 -6.5903423550103044 -12.810060333599527
v 7.3122231184146163 -6.6542053678987516 -12.81024400563355
v 2.0275624917370592 -24.035786201727554 19.882315120574383
v -8.818810940841507 -7.0237374114410578 -13.376158280839645
v -6.1862028084563052 -6.8944217379376269 -13.172524960806733
v -7.4997016880158309 -6.9542330119991664 -13.26762247401382
v -4.8909665806321776 -6.8400260124591039 -13.089175629328613
v 22.376765747663775 -5.9935395790549251 -10.13656483458518
v -24.136340633205194 -1.2826604268834902 20.82841172431214
v -2.390073352784865 -6.7389914087164833 -12.973110708215906
v 11.829873135246238 -24.489441334290177 18.896636024125264
v 8.4618376777728752 -6.7382364326805533 -12.815519230106112
v 26.30044174047277 -2.5795653405889789 -1.8633580044630618
v 11.986947178119145 -7.0449712202713606 -12.849830875480972
v 19.219942698067989 -24.39582375274999 17.631013466849325
v 9.591711096510906 -6.8364193395883293 -12.828049002338386
v 23.565838854510947 -5.2126171630613536 -8.1075974597642428
v -24.775240390178229 -1.2549077997243203 -0.81133155364577347
v -2.1168093659212737 -24.030853088386383 19.474497635717032
v -3.6243454963932091 -6.7904462879044534 -13.026538638446931
v -3.5449093996952827 -24.072487106615782 19.281453172598042
v -17.653345048092433 -22.738655673010086 18.786444008616758
v -4.9679084741409776 -24.148893573899525 19.072667274619093
v -6.3797316474047676 -24.23734720485254 18.863582131375992
v -17.912419686443286 -21.657477265723454 18.70304293940864
v -18.059481219093929 -20.535233175534731 18.577638818796174
v -7.7900299896606287 -24.323622211118678 18.665916328674946
v 4.9255513850967603 -6.5513319035077071 -12.815333238052535
v 0.023008781275127878 -6.6337330167296935 -12.89805063933175
v -10.105799214905717 -24.465833234725505 18.382927296677977
v 25.018879823942413 -4.0536902834812487 -5.0824688261024979
v -25.519234986011668 -0.12130244099113813 1.4367738907901066
v -12.045027018530252 -24.544444478964593 18.239202753318992
v -13.082976526119939 -24.572828609767406 18.210930945061186
v 21.82106579396045 -6.2963990386940436 -10.850737606526994
v -14.14328200321998 -24.572830146048297 18.236511761122415
v -16.226812090229544 -24.264826268507026 18.531208802229543
v 15.935184249060539 -24.570182789873272 17.835779300796737
v 21.161807693343867 -6.6100192498271646 -11.541597762749074
v -20.694728250887962 -10.660692993133704 19.282466292826086
v -9.2230643376344208 -24.412259444626411 18.481599547877906
v 17.027292985054288 -24.588444365073915 17.669793236751914
v -18.188204650210242 -19.394844027077951 18.441609434946802
v 23.151080765970377 -6.8200341117183658 21.217502468046902
v -16.484757449699075 -7.0268723047362549 -13.406736283346341
v -1.1797624924025745 -6.685479150237656 -12.929855869555183
v 10.88897243135021 -24.46081039268725 19.131973168327576
v 18.130419185548792 -24.558610564168603 17.595993790445299
v -19.414604395482129 -14.227001821289701 18.080095786933086
v 26.686547617014206 -2.0047044065651178 -0.70537206643919992
v 1.2338565600994784 -6.5862758117552209 -12.868267090295655
v -0.70221886058418925 -24.004486996491384 19.647528500302496
v 28.355844660728181 5.4181054044486991 17.141644989546727
v -26.702752092598452 3.5856500088938144 19.583459523651641
v -27.325897012661194 4.976615425838121 17.367502329797521
v 27.207948127902331 4.5462525307184203 20.333192744338334
v 26.934202252142292 4.0496237568336761 20.791318732857633
v 26.306778915033171 2.5522294545376338 21.397097602035
v 28.173787357859617 5.4378711834972737 17.922998002376183
v -25.589707014435131 1.5844463994478519 20.500363863381438
v 27.72291604965654 5.2003574975609625 19.263531382343274
v -26.391542845828681 3.0258974692187595 19.98169398693318
v -26.016249207290606 2.352944318955879 20.271781325104929
v 26.636174905034636 3.3700975263573336 21.1199622609047
v -27.132829238146588 4.449235178269265 18.595645361252274
v -27.260044740790789 4.7766728363505582 18.019109530694841
v 22.67046201200052 -11.903516870864411 18.353758225366818
v 19.25999400371029 -11.888844735455262 7.8531388224960494
v -17.870333368104884 -12.598294598256508 11.545539045087176
v 23.257757947930237 -14.491046319088941 -5.5570269791190068
v 6.0761412248776558 -13.516491648007548 -11.375310709004818
v -18.983775436577034 -13.947401108240491 -9.1673756618194453
v -17.806306166890113 -12.847930898721522 10.388731220489728
v -21.237745992688666 -13.805275383273177 -5.2030454284825822
v 8.3683647992425296 -13.48410086455613 -11.168814024494186
v -21.459525753059552 -13.661959780686965 -4.1487050197875641
v -15.591967089003518 -13.82216854959826 -10.94894268787564
v 4.8872974629556367 -13.566158253909425 -11.47279478055875
v -22.011860338676758 -13.148878978172554 -1.0005585750961639
v -22.933149375147714 -12.580947185494146 11.421267933961271
v -20.929617573305329 -13.911309278653885 -6.2467767250987238
v -20.493648416450473 -13.964759433351585 -7.2547026681912836
v 24.119473870507051 -13.299026332637203 3.4123598307231311
v -21.658381673956178 -13.502548026627883 -3.0983010611394239
v -19.888944722786285 -13.972637674566618 -8.1816489657071187
v 19.395904367923258 -11.339222607293717 18.161667789976939
v 20.003362483333074 -11.574510027762773 18.901717707559765
v 20.935728578329268 -11.782973228427691 19.19245383988094
v 11.742389741156751 -13.666548586701518 -10.842085947531858
v -16.537551843035381 -14.434013416403292 0.24066670238432333
v 23.294431151343069 -11.899699181215862 17.572852494422136
v 0.23446472444242566 -14.996442753260169 -3.5957221784083311
v 18.986733653618636 -14.568281592163276 -9.7442281522655634
v 1.4352483675724517 -14.995114873538716 -3.5923825623888748
v 1.2051866409790999 -13.714768435296612 -11.692421796431553
v 2.6213010715425602 -14.954005818073036 -3.5963011917143097
v 19.096835477714937 -11.068656480946615 14.897512707921098
v 3.7852642354643908 -14.875329789833458 -3.5981818421396712
v 17.697052868381697 -14.407349560580602 -10.060023832377535
v 19.251843884531301 -11.412892960154469 10.686503566182026
v -14.38673479264299 -13.804665545668747 -11.165492664851232
v 24.039995928154411 -13.632476178898886 1.1033246349376336
v 17.898283525624457 -13.595619977203864 -0.1621727026137873
v 18.637599201528321 -13.024065401375028 1.9910709362831553
v 24.08129006087708 -13.468770776998156 2.2706283334368451
v 18.323099004707515 -13.299144470377959 0.87092126266289371
v 9.4927104846594546 -13.514827519027444 -11.051519755239545
v -21.838023405091498 -13.327890802762528 -2.0505215514315678
v -17.931448104507751 -12.055950492802548 16.244862820943951
v 19.070977171215489 -11.090706380984239 16.322773480382757
v -17.736200120941113 -13.095222033646817 9.2353606244727082
v -23.0222704277151 -12.450756229898372 10.203310173099638
v -12.030321690146113 -13.856573803915843 -11.413841488625732
v 19.230082822900499 -12.100257085745785 6.7275228685066537
v -5.5804612364738162 -14.672936575652272 -3.822291463448761
v 10.191049379208657 -14.522971378236827 -3.5908114086490395
v 23.753127391601794 -14.244519628537336 -3.5071012786919118
v 4.9236597017811228 -14.782643878127843 -3.6048427134464118
v 21.902411871711422 -11.903290783625657 18.991077379841002
v 8.1678388003603715 -14.575288451021631 -3.6437668291288556
v 9.1911074917563766 -14.535563543771683 -3.6210548428715983
v -22.189141222057096 -12.973198008850941 0.058699386113407533
v -18.086581418784853 -12.176690781218387 17.365848490007814
v 7.1154451506292133 -14.617885334816606 -3.6257505860130554
v -17.936669146697817 -13.905068049499082 -9.9772307691830342
v -16.79547757564033 -13.861772065933351 -10.585607280804531
v -10.870848204835797 -13.885527755317185 -11.450615790081663
v -9.7198769110497452 -13.910532026189419 -11.497549299269119
v -6.1443596723247502 -13.878092969232753 -11.644904045715066
v -8.5396451385597487 -13.918148660423014 -11.537558085558857
v -15.453663381621141 -14.788351942346635 -1.9003021466256957
v 24.077106637911641 -11.859153571724926 13.507709205656605
v -16.077163444278007 -14.608686755872876 -0.88146017509300645
v -14.582063856629897 -14.901511510271156 -2.7335686397787544
v -19.831011908795425 -13.011388412527126 18.388801284851262
v -13.491182969917723 -14.894538938166281 -3.316290544518707
v -12.268242594099796 -14.801396918540945 -3.6576059070831755
v 24.158665312455263 -11.958934026594045 12.438215584336296
v 15.220414045722533 -14.075656720853829 -10.419638279182555
v -3.6999185707865183 -13.807797029549425 -11.714885209431959
v 15.633831913121011 -14.334723920481228 -2.472064236585235
v -10.979953789680778 -14.686618389645098 -3.8331204097918743
v -9.6677751967487264 -14.60469200803999 -3.9276796084516983
v -8.6706336742249164 -14.576000264534215 -3.9507428917997798
v 23.621091251950027 -11.83089334497086 16.61624708441818
v 23.825545320014896 -11.790804212868704 15.604899326115275
v 23.973044873790545 -11.802597023224097 14.565744542254111
v -17.960905499256818 -12.193524344567727 13.878138901924396
v -17.930944287716219 -12.073495285648157 15.055388032055554
v 6.0332116349544975 -14.678773692200497 -3.5987508316221248
v 24.196538741532688 -12.961590553640466 5.5999507097051708
v 3.6719601506146482 -13.622577915372116 -11.56974785608444
v 24.012285670477066 -13.797585665407055 -0.07524687030304314
v 24.215561952441291 -12.766555287920376 6.8018329424905337
v 19.156785589477753 -12.317024799638201 5.5684920065074373
v 24.23133907857693 -12.399015322095069 9.1260777541945473
v 16.441250813099607 -14.239779499213562 -10.278639019527336
v -7.349277795565996 -13.90610394209045 -11.582129609552318
v 23.967417240680543 -13.954833924016727 -1.2483410102170847
v -2.4745677600102645 -13.780424287438381 -11.739141819215309
v -21.630621398376046 -13.414025973826178 17.100472601095412
v -0.025378424227225638 -13.74234688634116 -11.717965028086178
v -1.2506929449058826 -13.761798467413833 -11.728877568368834
v -7.6667207491783333 -14.582403305245666 -3.9336070078197123
v -6.6403329365242652 -14.625118256832067 -3.8970982892680999
v -4.4805690377961138 -14.737022902135372 -3.7434096958440533
v 18.871420671508858 -12.773305557527079 3.1711687715496306
v -3.3403816907138735 -14.807936876830521 -3.6734447932138883
v -2.1666256179987542 -14.882020794517592 -3.6197365587023649
v -0.97027703712161428 -14.947451420531614 -3.5955350445251328
v 10.626593100971778 -13.576753152001835 -10.940203556695369
v 23.537547170067135 -14.369417645465976 -4.561798791647786
v 24.210387232910481 -12.087421040162884 11.353963872077825
v -22.417832728797109 -13.150732883864674 15.029659727981041
v 19.038466612042743 -12.539365063432879 4.3758101961037781
v 24.227405556770936 -12.234161159806579 10.250807512885562
v 14.035320890204025 -13.922571087167157 -10.563587119574722
v -17.934300720653788 -12.374576619620431 12.708317151588982
v -20.864156006365132 -13.329678830665333 17.959813884209218
v -23.084713819000363 -12.307879923339774 7.7180842189162489
v 11.172418368436311 -14.4998522220606 -3.5005515695010643
v 17.309810095688128 -13.8842992066097 -1.0790319350029653
v 16.554851609767859 -14.146598562895315 -1.8592555760929068
v 14.578660672666631 -14.417157637877208 -2.8807628716003655
v 23.898597521567638 -14.108490760378988 -2.398178891983302
v -22.813422454205714 -12.748779450287415 12.628484268257306
v 12.331329439580887 -14.497054252159876 -3.3781983931313659
v 13.473394921161892 -14.477403692266602 -3.1844252100243455
v 22.386226256020773 -14.6875285457992 -7.3439379785102901
v 19.154256276236161 -11.118486162800552 13.488731466664877
v -22.359005548921409 -12.80068913479705 1.1349020338585261
v -22.539828923272751 -12.651865811288623 2.2287029718996738
v 21.448136435570518 -14.749073347465028 -8.4352846044634546
v -22.706565833196706 -12.519635864324115 3.3365064612737374
v -23.050009008714305 -12.302755364093997 6.6457221666688344
v 19.128986985389979 -11.170354877124403 17.253359594555512
v -22.854054987563192 -12.413501385892374 4.4485454353731537
v -22.975140849818942 -12.342085045426881 5.5541299618705811
v -23.071386055900483 -12.356622953055414 8.9701163520348963
v -17.110887373102198 -14.112391691135748 2.6934271703062356
v -22.642812691062389 -12.938981502523283 13.829824142483368
v -17.31497449847145 -13.964027632987451 3.9806559068797034
v 2.4399830994820615 -13.67523757057031 -11.637744203945289
v -17.565157755907631 -13.590341364522025 6.6051414071033356
v -17.658711648996547 -13.359174788016325 7.9210283468906217
v 20.272488890484894 -14.698623856738594 -9.2391405327706906
v -13.203838852489838 -13.827486743329064 -11.348317147318291
v 19.269058864419314 -11.635792897352225 9.2764773845481692
v 24.158879095216914 -13.128737058125949 4.5218881038077816
v 7.2340721826880721 -13.486568532832166 -11.272122210219838
v 12.875034752829652 -13.78253750287568 -10.684231332935859
v -16.87275569843063 -14.271069751798752 1.4391298666160259
v -4.9250252963274219 -13.842756978103454 -11.673822735150067
v 24.241912175070759 -12.58420130955955 7.9779138080844678
v -22.107316365196027 -13.3149598166091 16.079094619107646
v 22.883103660198678 -14.60181476215763 -6.4862455883393348
v -18.766260315673943 -12.54959546381475 18.216053499667566
v -17.452290685040222 -13.789269596906976 5.2894657904863429
v 19.199746706867323 -11.233816020725143 12.087455550768313
l 36/36 2/2
l 2/2 31/31
l 31/31 32/32
l 32/32 30/30
l 30/30 10/10
l 10/10 59/59
l 59/59 28/28
l 28/28 8/8
l 8/8 7/7
l 7/7 5/5
l 5/5 71/71
l 71/71 4/4
l 4/4 3/3
l 3/3 76/76
l 76/76 40/40
l 40/40 51/51
l 51/51 49/49
l 49/49 72/72
l 72/72 56/56
l 56/56 57/57
l 57/57 50/50
l 50/50 61/61
l 61/61 66/66
l 66/66 45/45
l 45/45 17/17
l 17/17 16/16
l 16/16 9/9
l 9/9 6/6
l 6/6 48/48
l 48/48 69/69
l 69/69 46/46
l 46/46 63/63
l 63/63 62/62
l 62/62 65/65
l 65/65 64/64
l 64/64 53/53
l 53/53 55/55
l 55/55 18/18
l 18/18 60/60
l 60/60 58/58
l 58/58 67/67
l 67/67 68/68
l 68/68 70/70
l 70/70 44/44
l 44/44 43/43
l 43/43 42/42
l 42/42 41/41
l 41/41 54/54
l 54/54 73/73
l 73/73 52/52
l 52/52 34/34
l 34/34 37/37
l 37/37 74/74
l 74/74 35/35
l 35/35 27/27
l 27/27 26/26
l 26/26 25/25
l 25/25 24/24
l 24/24 11/11
l 11/11 12/12
l 12/12 13/13
l 13/13 14/14
l 14/14 15/15
l 15/15 19/19
l 19/19 20/20
l 20/20 75/75
l 75/75 21/21
l 21/21 22/22
l 22/22 23/23
l 23/23 47/47
l 47/47 29/29
l 29/29 39/39
l 39/39 1/1
l 1/1 38/38
l 38/38 33/33
l 33/33 36/36
l 172/172 104/104
l 104/104 89/89
l 89/89 100/100
l 100/100 194/194
l 194/194 198/198
l 198/198 168/168
l 168/168 197/197
l 197/197 196/196
l 196/196 195/195
l 195/195 184/184
l 184/184 185/185
l 185/185 205/205
l 205/205 183/183
l 183/183 215/215
l 215/215 188/188
l 188/188 189/189
l 189/189 191/191
l 191/191 95/95
l 95/95 87/87
l 87/87 82/82
l 82/82 176/176
l 176/176 174/174
l 174/174 156/156
l 156/156 181/181
l 181/181 130/130
l 130/130 81/81
l 81/81 204/204
l 204/204 102/102
l 102/102 175/175
l 175/175 108/108
l 108/108 112/112
l 112/112 135/135
l 135/135 209/209
l 209/209 203/203
l 203/203 187/187
l 187/187 114/114
l 114/114 155/155
l 155/155 208/208
l 208/208 153/153
l 153/153 178/178
l 178/178 206/206
l 206/206 149/149
l 149/149 210/210
l 210/210 84/84
l 84/84 179/179
l 179/179 122/122
l 122/122 144/144
l 144/144 83/83
l 83/83 207/207
l 207/207 93/93
l 93/93 98/98
l 98/98 212/212
l 212/212 132/132
l 132/132 162/162
l 162/162 154/154
l 154/154 138/138
l 138/138 121/121
l 121/121 200/200
l 200/200 125/125
l 125/125 85/85
l 85/85 88/88
l 88/88 113/113
l 113/113 218/218
l 218/218 97/97
l 97/97 219/219
l 219/219 86/86
l 86/86 78/78
l 78/78 131/131
l 131/131 77/77
l 77/77 92/92
l 92/92 216/216
l 216/216 157/157
l 157/157 141/141
l 141/141 192/192
l 192/192 142/142
l 142/142 94/94
l 94/94 90/90
l 90/90 150/150
l 150/150 173/173
l 173/173 148/148
l 148/148 129/129
l 129/129 96/96
l 96/96 128/128
l 128/128 99/99
l 99/99 147/147
l 147/147 110/110
l 110/110 101/101
l 101/101 217/217
l 217/217 193/193
l 193/193 103/103
l 103/103 145/145
l 145/145 186/186
l 186/186 107/107
l 107/107 139/139
l 139/139 136/136
l 136/136 124/124
l 124/124 117/117
l 117/117 115/115
l 115/115 116/116
l 116/116 201/201
l 201/201 199/199
l 199/199 134/134
l 134/134 167/167
l 167/167 118/118
l 118/118 120/120
l 120/120 214/214
l 214/214 105/105
l 105/105 151/151
l 151/151 146/146
l 146/146 143/143
l 143/143 161/161
l 161/161 152/152
l 152/152 79/79
l 79/79 123/123
l 123/123 91/91
l 91/91 80/80
l 80/80 140/140
l 140/140 111/111
l 111/111 109/109
l 109/109 127/127
l 127/127 180/180
l 180/180 163/163
l 163/163 202/202
l 202/202 158/158
l 158/158 137/137
l 137/137 164/164
l 164/164 165/165
l 165/165 133/133
l 133/133 126/126
l 126/126 159/159
l 159/159 160/160
l 160/160 169/169
l 169/169 119/119
l 119/119 190/190
l 190/190 182/182
l 182/182 106/106
l 106/106 170/170
l 170/170 213/213
l 213/213 166/166
l 166/166 171/171
l 171/171 177/177
l 177/177 211/211
l 211/211 172/172
l 338/338 336/336
l 336/336 308/308
l 308/308 226/226
l 226/226 228/228
l 228/228 310/310
l 310/310 347/347
l 347/347 275/275
l 275/275 233/233
l 233/233 329/329
l 329/329 230/230
l 230/230 263/263
l 263/263 258/258
l 258/258 307/307
l 307/307 319/319
l 319/319 278/278
l 278/278 245/245
l 245/245 239/239
l 239/239 249/249
l 249/249 243/243
l 243/243 244/244
l 244/244 254/254
l 254/254 255/255
l 255/255 251/251
l 251/251 246/246
l 246/246 234/234
l 234/234 333/333
l 333/333 354/354
l 354/354 335/335
l 335/335 250/250
l 250/250 270/270
l 270/270 272/272
l 272/272 220/220
l 220/220 311/311
l 311/311 260/260
l 260/260 281/281
l 281/281 324/324
l 324/324 231/231
l 231/231 269/269
l 269/269 271/271
l 271/271 273/273
l 273/273 261/261
l 261/261 298/298
l 298/298 303/303
l 303/303 302/302
l 302/302 306/306
l 306/306 348/348
l 348/348 316/316
l 316/316 322/322
l 322/322 351/351
l 351/351 331/331
l 331/331 237/237
l 237/237 259/259
l 259/259 268/268
l 268/268 300/300
l 300/300 326/326
l 326/326 264/264
l 264/264 323/323
l 323/323 321/321
l 321/321 320/320
l 320/320 241/241
l 241/241 240/240
l 240/240 343/343
l 343/343 236/236
l 236/236 224/224
l 224/224 223/223
l 223/223 222/222
l 222/222 221/221
l 221/221 262/262
l 262/262 297/297
l 297/297 350/350
l 350/350 229/229
l 229/229 317/317
l 317/317 248/248
l 248/248 330/330
l 330/330 312/312
l 312/312 267/267
l 267/267 257/257
l 257/257 325/325
l 325/325 304/304
l 304/304 337/337
l 337/337 232/232
l 232/232 284/284
l 284/284 289/289
l 289/289 288/288
l 288/288 282/282
l 282/282 286/286
l 286/286 318/318
l 318/318 276/276
l 276/276 225/225
l 225/225 277/277
l 277/277 355/355
l 355/355 327/327
l 327/327 340/340
l 340/340 341/341
l 341/341 238/238
l 238/238 265/265
l 265/265 235/235
l 235/235 334/334
l 334/334 252/252
l 252/252 227/227
l 227/227 253/253
l 253/253 332/332
l 332/332 293/293
l 293/293 305/305
l 305/305 283/283
l 283/283 280/280
l 280/280 266/266
l 266/266 328/328
l 328/328 344/344
l 344/344 346/346
l 346/346 353/353
l 353/353 256/256
l 256/256 285/285
l 285/285 247/247
l 247/247 313/313
l 313/313 279/279
l 279/279 349/349
l 349/349 291/291
l 291/291 274/274
l 274/274 294/294
l 294/294 242/242
l 242/242 315/315
l 315/315 314/314
l 314/314 309/309
l 309/309 339/339
l 339/339 296/296
l 296/296 295/295
l 295/295 299/299
l 299/299 301/301
l 301/301 292/292
l 292/292 352/352
l 352/352 342/342
l 342/342 290/290
l 290/290 345/345
l 345/345 287/287
l 287/287 338/338
l 444/444 443/443
l 443/443 433/433
l 433/433 357/357
l 357/357 432/432
l 432/432 382/382
l 382/382 356/356
l 356/356 457/457
l 457/457 456/456
l 456/456 489/489
l 489/489 473/473
l 473/473 461/461
l 461/461 459/459
l 459/459 460/460
l 460/460 431/431
l 431/431 453/453
l 453/453 466/466
l 466/466 455/455
l 455/455 491/491
l 491/491 465/465
l 465/465 462/462
l 462/462 412/412
l 412/412 410/410
l 410/410 409/409
l 409/409 479/479
l 479/479 417/417
l 417/417 406/406
l 406/406 490/490
l 490/490 419/419
l 419/419 420/420
l 420/420 386/386
l 386/386 463/463
l 463/463 402/402
l 402/402 408/408
l 408/408 397/397
l 397/397 407/407
l 407/407 365/365
l 365/365 364/364
l 364/364 394/394
l 394/394 388/388
l 388/388 387/387
l 387/387 403/403
l 403/403 384/384
l 384/384 373/373
l 373/373 359/359
l 359/359 390/390
l 390/390 391/391
l 391/391 414/414
l 414/414 468/468
l 468/468 415/415
l 415/415 470/470
l 470/470 480/480
l 480/480 416/416
l 416/416 440/440
l 440/440 430/430
l 430/430 362/362
l 362/362 452/452
l 452/452 411/411
l 411/411 426/426
l 426/426 488/488
l 488/488 363/363
l 363/363 418/418
l 418/418 400/400
l 400/400 401/401
l 401/401 399/399
l 399/399 398/398
l 398/398 396/396
l 396/396 395/395
l 395/395 393/393
l 393/393 478/478
l 478/478 361/361
l 361/361 486/486
l 486/486 469/469
l 469/469 385/385
l 385/385 483/483
l 483/483 383/383
l 383/383 481/481
l 481/481 484/484
l 484/484 485/485
l 485/485 439/439
l 439/439 381/381
l 381/381 378/378
l 378/378 392/392
l 392/392 442/442
l 442/442 425/425
l 425/425 405/405
l 405/405 467/467
l 467/467 434/434
l 434/434 449/449
l 449/449 413/413
l 413/413 436/436
l 436/436 471/471
l 471/471 458/458
l 458/458 464/464
l 464/464 370/370
l 370/370 367/367
l 367/367 368/368
l 368/368 369/369
l 369/369 358/358
l 358/358 372/372
l 372/372 366/366
l 366/366 360/360
l 360/360 475/475
l 475/475 371/371
l 371/371 374/374
l 374/374 375/375
l 375/375 377/377
l 377/377 376/376
l 376/376 438/438
l 438/438 437/437
l 437/437 451/451
l 451/451 448/448
l 448/448 435/435
l 435/435 472/472
l 472/472 482/482
l 482/482 429/429
l 429/429 427/427
l 427/427 380/380
l 380/380 428/428
l 428/428 421/421
l 421/421 441/441
l 441/441 422/422
l 422/422 423/423
l 423/423 424/424
l 424/424 389/389
l 389/389 379/379
l 379/379 487/487
l 487/487 404/404
l 404/404 450/450
l 450/450 447/447
l 447/447 446/446
l 446/446 474/474
l 474/474 454/454
l 454/454 476/476
l 476/476 477/477
l 477/477 445/445
l 445/445 444/444
l 524/524 538/538
l 538/538 526/526
l 526/526 550/550
l 550/550 523/523
l 523/523 536/536
l 536/536 537/537
l 537/537 587/587
l 587/587 586/586
l 586/586 588/588
l 588/588 541/541
l 541/541 544/544
l 544/544 569/569
l 569/569 598/598
l 598/598 506/506
l 506/506 549/549
l 549/549 497/497
l 497/497 552/552
l 552/552 499/499
l 499/499 496/496
l 496/496 501/501
l 501/501 502/502
l 502/502 539/539
l 539/539 518/518
l 518/518 519/519
l 519/519 512/512
l 512/512 555/555
l 555/555 599/599
l 599/599 551/551
l 551/551 510/510
l 510/510 508/508
l 508/508 594/594
l 594/594 547/547
l 547/547 578/578
l 578/578 507/507
l 507/507 592/592
l 592/592 548/548
l 548/548 535/535
l 535/535 505/505
l 505/505 534/534
l 534/534 532/532
l 532/532 533/533
l 533/533 529/529
l 529/529 528/528
l 528/528 514/514
l 514/514 500/500
l 500/500 522/522
l 522/522 521/521
l 521/521 520/520
l 520/520 517/517
l 517/517 516/516
l 516/516 515/515
l 515/515 492/492
l 492/492 513/513
l 513/513 495/495
l 495/495 493/493
l 493/493 601/601
l 601/601 590/590
l 590/590 511/511
l 511/511 560/560
l 560/560 542/542
l 542/542 596/596
l 596/596 561/561
l 561/561 498/498
l 498/498 597/597
l 597/597 567/567
l 567/567 566/566
l 566/566 595/595
l 595/595 568/568
l 568/568 571/571
l 571/571 570/570
l 570/570 572/572
l 572/572 573/573
l 573/573 509/509
l 509/509 574/574
l 574/574 593/593
l 593/593 583/583
l 583/583 584/584
l 584/584 582/582
l 582/582 580/580
l 580/580 581/581
l 581/581 576/576
l 576/576 577/577
l 577/577 575/575
l 575/575 563/563
l 563/563 562/562
l 562/562 546/546
l 546/546 545/545
l 545/545 558/558
l 558/558 543/543
l 543/543 557/557
l 557/557 556/556
l 556/556 504/504
l 504/504 565/565
l 565/565 554/554
l 554/554 600/600
l 600/600 564/564
l 564/564 579/579
l 579/579 591/591
l 591/591 525/525
l 525/525 527/527
l 527/527 540/540
l 540/540 530/530
l 530/530 553/553
l 553/553 531/531
l 531/531 585/585
l 585/585 602/602
l 602/602 589/589
l 589/589 503/503
l 503/503 559/559
l 559/559 494/494
l 494/494 524/524
l 677/677 671/671
l 671/671 668/668
l 668/668 644/644
l 644/644 646/646
l 646/646 647/647
l 647/647 723/723
l 723/723 626/626
l 626/626 665/665
l 665/665 649/649
l 649/649 637/637
l 637/637 636/636
l 636/636 642/642
l 642/642 608/608
l 608/608 638/638
l 638/638 619/619
l 619/619 732/732
l 732/732 611/611
l 611/611 664/664
l 664/664 650/650
l 650/650 724/724
l 724/724 722/722
l 722/722 705/705
l 705/705 730/730
l 730/730 609/609
l 609/609 744/744
l 744/744 614/614
l 614/614 738/738
l 738/738 603/603
l 603/603 694/694
l 694/694 659/659
l 659/659 662/662
l 662/662 672/672
l 672/672 714/714
l 714/714 621/621
l 621/621 716/716
l 716/716 719/719
l 719/719 715/715
l 715/715 717/717
l 717/717 718/718
l 718/718 712/712
l 712/712 711/711
l 711/711 622/622
l 622/622 713/713
l 713/713 702/702
l 702/702 700/700
l 700/700 695/695
l 695/695 696/696
l 696/696 727/727
l 727/727 726/726
l 726/726 725/725
l 725/725 688/688
l 688/688 690/690
l 690/690 691/691
l 691/691 689/689
l 689/689 693/693
l 693/693 735/735
l 735/735 697/697
l 697/697 680/680
l 680/680 729/729
l 729/729 706/706
l 706/706 710/710
l 710/710 639/639
l 639/639 673/673
l 673/673 657/657
l 657/657 703/703
l 703/703 709/709
l 709/709 720/720
l 720/720 721/721
l 721/721 656/656
l 656/656 635/635
l 635/635 658/658
l 658/658 630/630
l 630/630 620/620
l 620/620 708/708
l 708/708 654/654
l 654/654 728/728
l 728/728 686/686
l 686/686 692/692
l 692/692 701/701
l 701/701 704/704
l 704/704 617/617
l 617/617 612/612
l 612/612 660/660
l 660/660 615/615
l 615/615 655/655
l 655/655 681/681
l 681/681 679/679
l 679/679 682/682
l 682/682 684/684
l 684/684 683/683
l 683/683 733/733
l 733/733 734/734
l 734/734 669/669
l 669/669 670/670
l 670/670 741/741
l 741/741 736/736
l 736/736 675/675
l 675/675 678/678
l 678/678 676/676
l 676/676 674/674
l 674/674 632/632
l 632/632 631/631
l 631/631 634/634
l 634/634 616/616
l 616/616 633/633
l 633/633 629/629
l 629/629 687/687
l 687/687 628/628
l 628/628 613/613
l 613/613 618/618
l 618/618 610/610
l 610/610 740/740
l 740/740 627/627
l 627/627 623/623
l 623/623 625/625
l 625/625 624/624
l 624/624 607/607
l 607/607 606/606
l 606/606 645/645
l 645/645 605/605
l 605/605 643/643
l 643/643 743/743
l 743/743 742/742
l 742/742 648/648
l 648/648 737/737
l 737/737 731/731
l 731/731 651/651
l 651/651 641/641
l 641/641 652/652
l 652/652 661/661
l 661/661 653/653
l 653/653 663/663
l 663/663 739/739
l 739/739 604/604
l 604/604 667/667
l 667/667 666/666
l 666/666 707/707
l 707/707 699/699
l 699/699 698/698
l 698/698 640/640
l 640/640 685/685
l 685/685 677/677
l 878/878 879/879
l 879/879 892/892
l 892/892 748/748
l 748/748 804/804
l 804/804 792/792
l 792/792 759/759
l 759/759 822/822
l 822/822 820/820
l 820/820 851/851
l 851/851 857/857
l 857/857 862/862
l 862/862 824/824
l 824/824 785/785
l 785/785 865/865
l 865/865 757/757
l 757/757 783/783
l 783/783 875/875
l 875/875 856/856
l 856/856 797/797
l 797/797 840/840
l 840/840 839/839
l 839/839 799/799
l 799/799 845/845
l 845/845 826/826
l 826/826 774/774
l 774/774 767/767
l 767/767 877/877
l 877/877 844/844
l 844/844 868/868
l 868/868 768/768
l 768/768 854/854
l 854/854 808/808
l 808/808 786/786
l 786/786 775/775
l 775/775 770/770
l 770/770 754/754
l 754/754 745/745
l 745/745 746/746
l 746/746 828/828
l 828/828 747/747
l 747/747 766/766
l 766/766 753/753
l 753/753 755/755
l 755/755 781/781
l 781/781 886/886
l 886/886 778/778
l 778/778 782/782
l 782/782 788/788
l 788/788 890/890
l 890/890 891/891
l 891/891 806/806
l 806/806 807/807
l 807/807 809/809
l 809/809 805/805
l 805/805 814/814
l 814/814 811/811
l 811/811 812/812
l 812/812 813/813
l 813/813 888/888
l 888/888 842/842
l 842/842 798/798
l 798/798 833/833
l 833/833 843/843
l 843/843 834/834
l 834/834 763/763
l 763/763 773/773
l 773/773 889/889
l 889/889 830/830
l 830/830 860/860
l 860/860 874/874
l 874/874 858/858
l 858/858 859/859
l 859/859 841/841
l 841/841 800/800
l 800/800 777/777
l 777/777 802/802
l 802/802 801/801
l 801/801 821/821
l 821/821 771/771
l 771/771 795/795
l 795/795 790/790
l 790/790 789/789
l 789/789 787/787
l 787/787 758/758
l 758/758 823/823
l 823/823 810/810
l 810/810 897/897
l 897/897 815/815
l 815/815 816/816
l 816/816 817/817
l 817/817 818/818
l 818/818 894/894
l 894/894 893/893
l 893/893 829/829
l 829/829 831/831
l 831/831 832/832
l 832/832 869/869
l 869/869 793/793
l 793/793 772/772
l 772/772 883/883
l 883/883 762/762
l 762/762 836/836
l 836/836 863/863
l 863/863 837/837
l 837/837 864/864
l 864/864 769/769
l 769/769 764/764
l 764/764 794/794
l 794/794 819/819
l 819/819 791/791
l 791/791 760/760
l 760/760 827/827
l 827/827 752/752
l 752/752 861/861
l 861/861 776/776
l 776/776 885/885
l 885/885 846/846
l 846/846 850/850
l 850/850 895/895
l 895/895 896/896
l 896/896 867/867
l 867/867 866/866
l 866/866 749/749
l 749/749 876/876
l 876/876 825/825
l 825/825 870/870
l 870/870 871/871
l 871/871 872/872
l 872/872 873/873
l 873/873 796/796
l 796/796 887/887
l 887/887 779/779
l 779/779 835/835
l 835/835 882/882
l 882/882 751/751
l 751/751 750/750
l 750/750 765/765
l 765/765 855/855
l 855/855 852/852
l 852/852 853/853
l 853/853 848/848
l 848/848 847/847
l 847/847 849/849
l 849/849 756/756
l 756/756 838/838
l 838/838 884/884
l 884/884 803/803
l 803/803 784/784
l 784/784 780/780
l 780/780 880/880
l 880/880 881/881
l 881/881 761/761
l 761/761 878/878
l 1001/1001 1056/1056
l 1056/1056 1039/1039
l 1039/1039 1038/1038
l 1038/1038 1035/1035
l 1035/1035 951/951
l 951/951 1050/1050
l 1050/1050 905/905
l 905/905 1049/1049
l 1049/1049 1047/1047
l 1047/1047 1046/1046
l 1046/1046 949/949
l 949/949 1043/1043
l 1043/1043 1054/1054
l 1054/1054 1040/1040
l 1040/1040 1037/1037
l 1037/1037 1036/1036
l 1036/1036 1034/1034
l 1034/1034 1032/1032
l 1032/1032 1065/1065
l 1065/1065 906/906
l 906/906 1016/1016
l 1016/1016 1005/1005
l 1005/1005 995/995
l 995/995 934/934
l 934/934 966/966
l 966/966 987/987
l 987/987 933/933
l 933/933 1060/1060
l 1060/1060 1024/1024
l 1024/1024 946/946
l 946/946 935/935
l 935/935 952/952
l 952/952 1051/1051
l 1051/1051 1055/1055
l 1055/1055 1061/1061
l 1061/1061 1028/1028
l 1028/1028 909/909
l 909/909 907/907
l 907/907 944/944
l 944/944 942/942
l 942/942 968/968
l 968/968 930/930
l 930/930 910/910
l 910/910 911/911
l 911/911 918/918
l 918/918 919/919
l 919/919 920/920
l 920/920 959/959
l 959/959 921/921
l 921/921 922/922
l 922/922 938/938
l 938/938 1057/1057
l 1057/1057 943/943
l 943/943 945/945
l 945/945 947/947
l 947/947 931/931
l 931/931 950/950
l 950/950 964/964
l 964/964 941/941
l 941/941 1071/1071
l 1071/1071 1077/1077
l 1077/1077 1070/1070
l 1070/1070 1069/1069
l 1069/1069 936/936
l 936/936 1074/1074
l 1074/1074 937/937
l 937/937 1072/1072
l 1072/1072 1066/1066
l 1066/1066 961/961
l 961/961 913/913
l 913/913 965/965
l 965/965 969/969
l 969/969 963/963
l 963/963 958/958
l 958/958 971/971
l 971/971 974/974
l 974/974 975/975
l 975/975 980/980
l 980/980 981/981
l 981/981 978/978
l 978/978 979/979
l 979/979 984/984
l 984/984 983/983
l 983/983 976/976
l 976/976 1063/1063
l 1063/1063 1026/1026
l 1026/1026 1003/1003
l 1003/1003 988/988
l 988/988 1044/1044
l 1044/1044 1004/1004
l 1004/1004 902/902
l 902/902 1030/1030
l 1030/1030 996/996
l 996/996 1021/1021
l 1021/1021 1048/1048
l 1048/1048 1052/1052
l 1052/1052 960/960
l 960/960 932/932
l 932/932 992/992
l 992/992 1010/1010
l 1010/1010 1012/1012
l 1012/1012 1006/1006
l 1006/1006 1009/1009
l 1009/1009 1027/1027
l 1027/1027 986/986
l 986/986 1029/1029
l 1029/1029 1025/1025
l 1025/1025 1015/1015
l 1015/1015 1014/1014
l 1014/1014 1041/1041
l 1041/1041 999/999
l 999/999 997/997
l 997/997 1064/1064
l 1064/1064 1042/1042
l 1042/1042 1059/1059
l 1059/1059 1023/1023
l 1023/1023 1033/1033
l 1033/1033 1020/1020
l 1020/1020 1018/1018
l 1018/1018 1019/1019
l 1019/1019 1017/1017
l 1017/1017 908/908
l 908/908 955/955
l 955/955 994/994
l 994/994 993/993
l 993/993 991/991
l 991/991 990/990
l 990/990 1058/1058
l 1058/1058 917/917
l 917/917 914/914
l 914/914 916/916
l 916/916 1008/1008
l 1008/1008 915/915
l 915/915 912/912
l 912/912 924/924
l 924/924 923/923
l 923/923 925/925
l 925/925 926/926
l 926/926 927/927
l 927/927 928/928
l 928/928 929/929
l 929/929 1031/1031
l 1031/1031 940/940
l 940/940 1045/1045
l 1045/1045 899/899
l 899/899 904/904
l 904/904 901/901
l 901/901 953/953
l 953/953 972/972
l 972/972 903/903
l 903/903 939/939
l 939/939 956/956
l 956/956 900/900
l 900/900 954/954
l 954/954 989/989
l 989/989 967/967
l 967/967 948/948
l 948/948 1068/1068
l 1068/1068 1079/1079
l 1079/1079 1078/1078
l 1078/1078 957/957
l 957/957 1067/1067
l 1067/1067 1075/1075
l 1075/1075 1076/1076
l 1076/1076 1073/1073
l 1073/1073 962/962
l 962/962 1007/1007
l 1007/1007 1022/1022
l 1022/1022 998/998
l 998/998 1013/1013
l 1013/1013 1011/1011
l 1011/1011 977/977
l 977/977 985/985
l 985/985 970/970
l 970/970 898/898
l 898/898 1053/1053
l 1053/1053 973/973
l 973/973 982/982
l 982/982 1062/1062
l 1062/1062 1002/1002
l 1002/1002 1000/1000
l 1000/1000 1001/1001
l 1127/1127 1081/1081
l 1081/1081 1221/1221
l 1221/1221 1113/1113
l 1113/1113 1232/1232
l 1232/1232 1203/1203
l 1203/1203 1110/1110
l 1110/1110 1123/1123
l 1123/1123 1209/1209
l 1209/1209 1099/1099
l 1099/1099 1100/1100
l 1100/1100 1101/1101
l 1101/1101 1132/1132
l 1132/1132 1080/1080
l 1080/1080 1104/1104
l 1104/1104 1158/1158
l 1158/1158 1159/1159
l 1159/1159 1160/1160
l 1160/1160 1145/1145
l 1145/1145 1151/1151
l 1151/1151 1186/1186
l 1186/1186 1189/1189
l 1189/1189 1169/1169
l 1169/1169 1227/1227
l 1227/1227 1167/1167
l 1167/1167 1164/1164
l 1164/1164 1222/1222
l 1222/1222 1096/1096
l 1096/1096 1118/1118
l 1118/1118 1115/1115
l 1115/1115 1166/1166
l 1166/1166 1172/1172
l 1172/1172 1198/1198
l 1198/1198 1130/1130
l 1130/1130 1185/1185
l 1185/1185 1083/1083
l 1083/1083 1229/1229
l 1229/1229 1202/1202
l 1202/1202 1206/1206
l 1206/1206 1219/1219
l 1219/1219 1106/1106
l 1106/1106 1112/1112
l 1112/1112 1170/1170
l 1170/1170 1152/1152
l 1152/1152 1190/1190
l 1190/1190 1224/1224
l 1224/1224 1102/1102
l 1102/1102 1184/1184
l 1184/1184 1120/1120
l 1120/1120 1088/1088
l 1088/1088 1223/1223
l 1223/1223 1084/1084
l 1084/1084 1091/1091
l 1091/1091 1165/1165
l 1165/1165 1216/1216
l 1216/1216 1108/1108
l 1108/1108 1175/1175
l 1175/1175 1176/1176
l 1176/1176 1173/1173
l 1173/1173 1153/1153
l 1153/1153 1226/1226
l 1226/1226 1142/1142
l 1142/1142 1171/1171
l 1171/1171 1143/1143
l 1143/1143 1141/1141
l 1141/1141 1140/1140
l 1140/1140 1126/1126
l 1126/1126 1220/1220
l 1220/1220 1114/1114
l 1114/1114 1090/1090
l 1090/1090 1139/1139
l 1139/1139 1138/1138
l 1138/1138 1085/1085
l 1085/1085 1098/1098
l 1098/1098 1095/1095
l 1095/1095 1094/1094
l 1094/1094 1087/1087
l 1087/1087 1089/1089
l 1089/1089 1097/1097
l 1097/1097 1121/1121
l 1121/1121 1092/1092
l 1092/1092 1135/1135
l 1135/1135 1204/1204
l 1204/1204 1205/1205
l 1205/1205 1207/1207
l 1207/1207 1210/1210
l 1210/1210 1211/1211
l 1211/1211 1208/1208
l 1208/1208 1193/1193
l 1193/1193 1212/1212
l 1212/1212 1125/1125
l 1125/1125 1093/1093
l 1093/1093 1199/1199
l 1199/1199 1214/1214
l 1214/1214 1187/1187
l 1187/1187 1228/1228
l 1228/1228 1174/1174
l 1174/1174 1192/1192
l 1192/1192 1148/1148
l 1148/1148 1230/1230
l 1230/1230 1136/1136
l 1136/1136 1122/1122
l 1122/1122 1162/1162
l 1162/1162 1161/1161
l 1161/1161 1191/1191
l 1191/1191 1082/1082
l 1082/1082 1086/1086
l 1086/1086 1124/1124
l 1124/1124 1218/1218
l 1218/1218 1217/1217
l 1217/1217 1231/1231
l 1231/1231 1215/1215
l 1215/1215 1213/1213
l 1213/1213 1225/1225
l 1225/1225 1103/1103
l 1103/1103 1146/1146
l 1146/1146 1144/1144
l 1144/1144 1147/1147
l 1147/1147 1149/1149
l 1149/1149 1150/1150
l 1150/1150 1155/1155
l 1155/1155 1156/1156
l 1156/1156 1157/1157
l 1157/1157 1177/1177
l 1177/1177 1178/1178
l 1178/1178 1128/1128
l 1128/1128 1179/1179
l 1179/1179 1181/1181
l 1181/1181 1182/1182
l 1182/1182 1183/1183
l 1183/1183 1105/1105
l 1105/1105 1107/1107
l 1107/1107 1109/1109
l 1109/1109 1111/1111
l 1111/1111 1131/1131
l 1131/1131 1163/1163
l 1163/1163 1137/1137
l 1137/1137 1133/1133
l 1133/1133 1134/1134
l 1134/1134 1129/1129
l 1129/1129 1194/1194
l 1194/1194 1200/1200
l 1200/1200 1201/1201
l 1201/1201 1197/1197
l 1197/1197 1154/1154
l 1154/1154 1196/1196
l 1196/1196 1195/1195
l 1195/1195 1116/1116
l 1116/1116 1119/1119
l 1119/1119 1117/1117
l 1117/1117 1180/1180
l 1180/1180 1188/1188
l 1188/1188 1168/1168
l 1168/1168 1127/1127
