v -0.24891199999999999 0.27487800000000001 -0.057364999999999999
v -0.224304 0.27487800000000001 -0.056838
v -0.187002 0.27487800000000001 -0.052077999999999999
v -0.14871000000000001 0.27487800000000001 -0.042643
v -0.12565699999999999 0.27487800000000001 -0.034536999999999998
v -0.11075400000000001 0.27487800000000001 -0.028035999999999998
v -0.076349 0.27487800000000001 -0.0095980000000000006
v 0.071887999999999994 0.27487800000000001 0.20415700000000001
v 0.075762999999999997 0.27487800000000001 0.22908600000000001
v 0.077961000000000003 0.27487800000000001 0.26389499999999999
v -0.16785600000000001 0.27487800000000001 -0.0473605
v -0.093551499999999996 0.27487800000000001 -0.018817
v -0.205653 0.27487800000000001 -0.054457999999999999
v 0.033508000000000003 0.27487800000000001 0.1036045
v -0.0002195 0.27487800000000001 0.055598500000000002
v -0.021089 0.27487800000000001 0.033729500000000003
v 0.068642999999999996 0.27487800000000001 0.190724
v -0.043472499999999997 0.27487800000000001 0.013917499999999999
v 0.048082 0.27487800000000001 0.131161
v 0.016789999999999999 0.27487800000000001 0.077329499999999995
v 0.073825500000000002 0.27487800000000001 0.21662149999999999
v -0.23660800000000001 0.27487800000000001 -0.057101499999999999
v -0.13718350000000001 0.27487800000000001 -0.038589999999999999
v -0.0354854 0.27487800000000001 0.0203371
v -0.177429 0.27487800000000001 -0.049719300000000001
v -0.15828300000000001 0.27487800000000001 -0.045001699999999999
v -0.084950300000000006 0.27487800000000001 -0.0142075
v 0.037929999999999998 0.27487800000000001 0.1111848
v -0.21497849999999999 0.27487800000000001 -0.055648000000000003
v -0.19632749999999999 0.27487800000000001 -0.053268000000000003
v -0.068013900000000002 0.27487800000000001 -0.0039895
v 0.0043483000000000003 0.27487800000000001 0.060906700000000001
v 0.056708500000000002 0.27487800000000001 0.1519905
v 0.062501500000000002 0.27487800000000001 0.16885749999999999
v 0.029086000000000001 0.27487800000000001 0.096024300000000007
v -0.1021527 0.27487800000000001 -0.023426499999999999
v 0.0226955 0.27487800000000001 0.085665400000000003
v -0.11820550000000001 0.27487800000000001 -0.031286500000000002
v -0.026956000000000001 0.27487800000000001 0.028103199999999998
v -0.015221999999999999 0.27487800000000001 0.039355800000000003
v 0.076304200000000003 0.27487800000000001 0.236873
v 0.077386800000000006 0.27487800000000001 0.25244699999999998
v 0.012853 0.27487800000000001 0.071772199999999994
v 0.0089160000000000003 0.27487800000000001 0.066214999999999996
v -0.0070711000000000003 0.27487800000000001 0.047636100000000001
v -0.25864920000000002 0.27487800000000001 -0.056966000000000003
v 0.043784499999999997 0.27487800000000001 0.121864
v 0.070265499999999995 0.27487800000000001 0.19744049999999999
v 0.066209199999999996 0.27487800000000001 0.18064930000000001
v -0.051459600000000001 0.27487800000000001 0.0074979000000000001
v 0.052379500000000002 0.27487800000000001 0.140458
v 0.076845499999999997 0.27487800000000001 0.24465999999999999
v -0.059678700000000001 0.27487800000000001 0.001619
v 0.059604999999999998 0.27487800000000001 0.16042400000000001
v -0.26676359999999999 0.27487800000000001 -0.056633500000000003
v 0.07801050000000001 0.27487800000000001 0.26938649999999997
v 0.0020644000000000001 0.27487800000000001 0.058252600000000002
v 0.077116149999999994 0.27487800000000001 0.24855349999999998
v -0.25378060000000002 0.27487800000000001 -0.057165500000000001
v 0.0108845 0.27487800000000001 0.068993599999999988
v 0.0066321499999999999 0.27487800000000001 0.063560850000000002
v -0.018155499999999998 0.27487800000000001 0.036542650000000003
v 0.07657485 0.27487800000000001 0.24076649999999999
v 0.077673900000000004 0.27487800000000001 0.25817099999999998
v 0.0148215 0.27487800000000001 0.074550850000000002
v -0.0036453000000000002 0.27487800000000001 0.051617300000000005
v -0.024022500000000002 0.27487800000000001 0.030916350000000002
v -0.01114655 0.27487800000000001 0.043495950000000005
v -0.27082079999999997 0.27487800000000001 -0.056467249999999997
v -0.26270640000000001 0.27487800000000001 -0.056799750000000003
v -0.24276 0.27487800000000001 -0.057233249999999999
v -0.27487800000000001 -0.27487800000000001 -0.1342177
v -0.27487800000000001 -0.27487800000000001 0.13743900000000001
v -0.27487800000000001 -0.27487800000000001 -0.20615900000000001
v -0.27487800000000001 -0.27487800000000001 0.068719000000000002
v -0.27487800000000001 -0.27487800000000001 -0.068719000000000002
v -0.27487800000000001 -0.27487800000000001 0.20615900000000001
v -0.27487800000000001 -0.27487800000000001 -0.24051800000000001
v -0.27487800000000001 -0.27487800000000001 0.031138699999999998
v -0.27487800000000001 -0.27487800000000001 0.17179900000000001
v -0.27487800000000001 -0.27487800000000001 -0.17502019999999999
v -0.27487800000000001 -0.27487800000000001 0.103079
v -0.27487800000000001 -0.27487800000000001 0.24051800000000001
v -0.27487800000000001 -0.27487800000000001 0.021475000000000001
v -0.27487800000000001 -0.27487800000000001 0.18897900000000001
v -0.27487800000000001 -0.27487800000000001 -0.085899000000000003
v -0.27487800000000001 -0.27487800000000001 0.085899000000000003
v -0.27487800000000001 -0.27487800000000001 0.120259
v -0.27487800000000001 -0.27487800000000001 -0.017180000000000001
v -0.27487800000000001 -0.27487800000000001 -0.26199299999999998
v -0.27487800000000001 -0.27487800000000001 0.15461900000000001
v -0.27487800000000001 -0.27487800000000001 -0.15461900000000001
v -0.27487800000000001 -0.27487800000000001 0.2233385
v -0.27487800000000001 -0.27487800000000001 0.051539500000000002
v -0.27487800000000001 -0.27487800000000001 -0.051539500000000002
v -0.27487800000000001 -0.27487800000000001 -0.21474879999999999
v -0.27487800000000001 -0.27487800000000001 -0.034360000000000002
v -0.27487800000000001 -0.27487800000000001 0.26628800000000002
v -0.27487800000000001 -0.27487800000000001 0.094489000000000004
v -0.27487800000000001 -0.27487800000000001 0.16320899999999999
v -0.27487800000000001 -0.27487800000000001 -0.1148902
v -0.27487800000000001 -0.27487800000000001 -0.077309000000000003
v -0.27487800000000001 -0.27487800000000001 0.12884899999999999
v -0.27487800000000001 -0.27487800000000001 0.14602899999999999
v -0.27487800000000001 -0.27487800000000001 -0.18468399999999999
v -0.27487800000000001 -0.27487800000000001 0.19756899999999999
v -0.27487800000000001 -0.27487800000000001 -0.025770000000000001
v -0.27487800000000001 -0.27487800000000001 0.111669
v -0.27487800000000001 -0.27487800000000001 0.077309000000000003
v -0.27487800000000001 -0.27487800000000001 -0.094489000000000004
v -0.27487800000000001 -0.27487800000000001 0.249108
v -0.27487800000000001 -0.27487800000000001 -0.060129299999999997
v -0.27487800000000001 -0.27487800000000001 0.060129299999999997
v -0.27487800000000001 -0.27487800000000001 0.042949800000000003
v -0.27487800000000001 -0.27487800000000001 0.21474879999999999
v -0.27487800000000001 -0.27487800000000001 -0.0085900000000000004
v -0.27487800000000001 -0.27487800000000001 -0.042949800000000003
v -0.27487800000000001 -0.27487800000000001 -0.2319282
v -0.27487800000000001 -0.27487800000000001 -0.16320899999999999
v -0.27487800000000001 -0.27487800000000001 -0.14602899999999999
v -0.27487800000000001 -0.27487800000000001 -0.103079
v -0.27487800000000001 -0.27487800000000001 0.18038899999999999
v -0.27487800000000001 -0.27487800000000001 0.2319282
v -0.27487800000000001 -0.27487800000000001 0
v -0.27487800000000001 -0.27487800000000001 -0.124554
v -0.27487800000000001 -0.27487800000000001 0.25769799999999998
v -0.27487800000000001 -0.27487800000000001 -0.2233385
v -0.27487800000000001 -0.27487800000000001 0.011811200000000001
v -0.27487800000000001 -0.27487800000000001 -0.25232929999999998
v -0.27487800000000001 -0.27487800000000001 -0.19434770000000001
v -0.27487800000000001 -0.27487800000000001 0.176094
v -0.27487800000000001 -0.27487800000000001 -0.030065000000000001
v -0.27487800000000001 -0.27487800000000001 0.055834399999999999
v -0.27487800000000001 -0.27487800000000001 0.244813
v -0.27487800000000001 -0.27487800000000001 0.27058300000000002
v -0.27487800000000001 -0.27487800000000001 -0.021475000000000001
v -0.27487800000000001 -0.27487800000000001 0.141734
v -0.27487800000000001 -0.27487800000000001 0.25340299999999999
v -0.27487800000000001 -0.27487800000000001 -0.055834399999999999
v -0.27487800000000001 -0.27487800000000001 0.23622310000000002
v -0.27487800000000001 -0.27487800000000001 -0.047244649999999999
v -0.27487800000000001 -0.27487800000000001 0.090193999999999996
v -0.27487800000000001 -0.27487800000000001 0.124554
v -0.27487800000000001 -0.27487800000000001 0.15032400000000001
v -0.27487800000000001 -0.27487800000000001 0.11596400000000001
v -0.27487800000000001 -0.27487800000000001 0.08160400000000001
v -0.27487800000000001 -0.27487800000000001 0.16750399999999999
v -0.27487800000000001 -0.27487800000000001 0.047244649999999999
v -0.27487800000000001 -0.27487800000000001 -0.064424149999999999
v -0.27487800000000001 -0.27487800000000001 0.26199300000000003
v -0.27487800000000001 -0.27487800000000001 -0.26843549999999999
v -0.27487800000000001 -0.27487800000000001 -0.25716114999999995
v 0.18876999999999999 0.27487800000000001 0.27487800000000001
v 0.22567300000000001 0.27487800000000001 0.27487800000000001
v 0.151866 0.27487800000000001 0.27487800000000001
v 0.250276 0.27487800000000001 0.27487800000000001
v 0.170318 0.27487800000000001 0.27487800000000001
v 0.2072215 0.27487800000000001 0.27487800000000001
v 0.13341449999999999 0.27487800000000001 0.27487800000000001
v 0.0965115 0.27487800000000001 0.27487800000000001
v 0.23797450000000001 0.27487800000000001 0.27487800000000001
v 0.262577 0.27487800000000001 0.27487800000000001
v 0.16109200000000001 0.27487800000000001 0.27487800000000001
v 0.17954400000000001 0.27487800000000001 0.27487800000000001
v 0.1979958 0.27487800000000001 0.27487800000000001
v 0.21644720000000001 0.27487800000000001 0.27487800000000001
v 0.087285699999999994 0.27487800000000001 0.27487800000000001
v 0.1241888 0.27487800000000001 0.27487800000000001
v 0.114963 0.27487800000000001 0.27487800000000001
v 0.1057372 0.27487800000000001 0.27487800000000001
v 0.14264019999999999 0.27487800000000001 0.27487800000000001
v 0.1472531 0.27487800000000001 0.27487800000000001
v 0.082672849999999992 0.27487800000000001 0.27487800000000001
v 0.091898599999999997 0.27487800000000001 0.27487800000000001
v 0.26872750000000001 0.27487800000000001 0.27487800000000001
v 0.13802734999999999 0.27487800000000001 0.27487800000000001
v 0.080366424999999991 0.27487800000000001 0.27487800000000001
v -0.27487800000000001 -0.062934000000000004 0.245088
v -0.27487800000000001 -0.060282000000000002 0.22123200000000001
v -0.27487800000000001 -0.039344999999999998 0.14313100000000001
v -0.27487800000000001 -0.022091 0.107713
v -0.27487800000000001 -0.016079 0.097727999999999995
v -0.27487800000000001 0.001191 0.072299000000000002
v -0.27487800000000001 0.023077 0.046183000000000002
v -0.27487800000000001 0.059269000000000002 0.012674
v -0.27487800000000001 0.090270299999999998 -0.0088340999999999992
v -0.27487800000000001 0.15234900000000001 -0.038456999999999998
v -0.27487800000000001 0.190084 -0.048939000000000003
v -0.27487800000000001 0.253936 -0.056328999999999997
v -0.27487800000000001 -0.030717999999999999 0.12542200000000001
v -0.27487800000000001 0.17121649999999999 -0.043698000000000001
v -0.27487800000000001 -0.056654000000000003 0.202787
v -0.27487800000000001 0.046016000000000001 0.024361000000000001
v -0.27487800000000001 0.073391999999999999 0.0027130000000000001
v -0.27487800000000001 0.20711599999999999 -0.051837500000000002
v -0.27487800000000001 0.012134000000000001 0.059241000000000002
v -0.27487800000000001 -0.048376000000000002 0.16955600000000001
v -0.27487800000000001 0.239042 -0.055532499999999999
v -0.27487800000000001 0.123087 -0.026182500000000001
v -0.27487800000000001 0.098535999999999999 -0.0135925
v -0.27487800000000001 -0.061608000000000003 0.23316000000000001
v -0.27487800000000001 0.264407 -0.056314999999999997
v -0.27487800000000001 -0.026404500000000001 0.1165675
v -0.27487800000000001 -0.0350315 0.13427649999999999
v -0.27487800000000001 0.18065020000000001 -0.046318499999999999
v -0.27487800000000001 0.1617828 -0.041077500000000003
v -0.27487800000000001 -0.058467999999999999 0.21200949999999999
v -0.27487800000000001 -0.05484 0.1935645
v -0.27487800000000001 0.039389500000000001 0.030204499999999999
v -0.27487800000000001 0.052642500000000002 0.018517499999999999
v -0.27487800000000001 0.1986 -0.050388299999999997
v -0.27487800000000001 0.21563199999999999 -0.053286699999999999
v -0.27487800000000001 0.0066625 0.065769999999999995
v -0.27487800000000001 0.0176055 0.052712000000000002
v -0.27487800000000001 -0.043726000000000001 0.15476999999999999
v -0.27487800000000001 0.144483 -0.035442500000000002
v -0.27487800000000001 -0.050701000000000003 0.176949
v -0.27487800000000001 -0.046051000000000002 0.162163
v -0.27487800000000001 -0.011761499999999999 0.091370699999999999
v -0.27487800000000001 -0.0031264999999999999 0.078656199999999996
v -0.27487800000000001 0.1129395 -0.021498400000000001
v -0.27487800000000001 0.24648900000000001 -0.0559307
v -0.27487800000000001 0.2278715 -0.054935100000000001
v -0.27487800000000001 -0.063079800000000005 0.25253550000000002
v -0.27487800000000001 -0.0074440000000000001 0.085013500000000006
v -0.27487800000000001 -0.053025999999999997 0.18434200000000001
v -0.27487800000000001 0.0303415 0.038581799999999999
v -0.27487800000000001 0.13323450000000001 -0.030866600000000001
v -0.27487800000000001 0.080453499999999997 -0.0022675
v -0.27487800000000001 0.066330500000000001 0.0076934999999999998
v -0.27487800000000001 0.1040465 -0.0167647
v -0.27487800000000001 -0.063298400000000005 0.26370670000000002
v -0.27487800000000001 -0.053932999999999995 0.18895325000000002
v -0.27487800000000001 -0.00096774999999999997 0.075477600000000006
v -0.27487800000000001 -0.00528525 0.081834850000000001
v -0.27487800000000001 0.26964250000000001 -0.056307999999999997
v -0.27487800000000001 -0.0096027500000000002 0.088192099999999995
v -0.27487800000000001 0.2591715 -0.056321999999999997
v -0.27487800000000001 0.049329250000000005 0.02143925
v -0.27487800000000001 0.21137400000000001 -0.0525621
v -0.27487800000000001 0.055955749999999999 0.015595749999999999
v -0.27487800000000001 0.2502125 -0.056129849999999995
v -0.27487800000000001 -0.0518635 0.18064550000000001
v -0.27487800000000001 0.20285799999999998 -0.051112900000000003
v -0.27487800000000001 0.0039267499999999997 0.069034499999999999
v -0.27487800000000001 -0.063407700000000011 0.26929235000000001
v -0.27487800000000001 -0.116357 0.27487800000000001
v -0.27487800000000001 -0.23524800000000001 0.27487800000000001
v -0.27487800000000001 -0.19561799999999999 0.27487800000000001
v -0.27487800000000001 -0.21543300000000001 0.27487800000000001
v -0.27487800000000001 -0.25506299999999998 0.27487800000000001
v -0.27487800000000001 -0.13617199999999999 0.27487800000000001
v -0.27487800000000001 -0.18571029999999999 0.27487800000000001
v -0.27487800000000001 -0.16589470000000001 0.27487800000000001
v -0.27487800000000001 -0.2253405 0.27487800000000001
v -0.27487800000000001 -0.2451555 0.27487800000000001
v -0.27487800000000001 -0.1460795 0.27487800000000001
v -0.27487800000000001 -0.2055255 0.27487800000000001
v -0.27487800000000001 -0.1262645 0.27487800000000001
v -0.27487800000000001 -0.2649705 0.27487800000000001
v -0.27487800000000001 -0.10479819999999999 0.27487800000000001
v -0.27487800000000001 -0.1758025 0.27487800000000001
v -0.27487800000000001 -0.093652299999999994 0.27487800000000001
v -0.27487800000000001 -0.15598699999999999 0.27487800000000001
v -0.27487800000000001 -0.083332000000000003 0.27487800000000001
v -0.27487800000000001 -0.073424500000000004 0.27487800000000001
v -0.27487800000000001 -0.26992424999999998 0.27487800000000001
v -0.27487800000000001 -0.068470749999999997 0.27487800000000001
v -0.246505 -0.064688999999999997 0.27487800000000001
v -0.20915300000000001 -0.062571000000000002 0.27487800000000001
v -0.1846469 -0.058903900000000002 0.27487800000000001
v -0.092509999999999995 -0.026169000000000001 0.27487800000000001
v -0.033770000000000001 0.0145501 0.27487800000000001
v -0.015696000000000002 0.031161999999999999 0.27487800000000001
v 0.0051951000000000002 0.054733299999999999 0.27487800000000001
v 0.037175 0.10144300000000001 0.27487800000000001
v 0.051415000000000002 0.130221 0.27487800000000001
v 0.063777 0.163356 0.27487800000000001
v 0.073270000000000002 0.201791 0.27487800000000001
v 0.077668000000000001 0.239755 0.27487800000000001
v 0.068523500000000001 0.1825735 0.27487800000000001
v -0.049093100000000001 0.0024886999999999999 0.2748777
v 0.075468999999999994 0.220773 0.27487800000000001
v -0.227829 -0.063630000000000006 0.27487800000000001
v -0.1379475 -0.045749499999999999 0.27487800000000001
v 0.057596000000000001 0.14678849999999999 0.27487800000000001
v 0.077864000000000003 0.2573165 0.27487800000000001
v 0.044295000000000001 0.115832 0.27487800000000001
v 0.016813999999999999 0.070169499999999996 0.27487800000000001
v -0.1951495 -0.060475500000000001 0.27487800000000001
v -0.026023999999999999 0.021669500000000001 0.27487800000000001
v -0.20215130000000001 -0.061523300000000003 0.27487800000000001
v 0.031534 0.092091500000000007 0.27487800000000001
v 0.066150200000000006 0.1729648 0.27487800000000001
v 0.070896799999999996 0.1921822 0.27487800000000001
v -0.059311799999999998 -0.0052814999999999997 0.27487800000000001
v -0.041397099999999999 0.0083408000000000006 0.27487669999999997
v 0.074369500000000005 0.211282 0.27487800000000001
v -0.23716699999999999 -0.064159499999999994 0.27487800000000001
v -0.21849099999999999 -0.063100500000000004 0.27487800000000001
v -0.12932469999999999 -0.042722299999999998 0.27487800000000001
v 0.060686499999999997 0.1550723 0.27487800000000001
v 0.054505499999999998 0.13850470000000001 0.27487800000000001
v -0.0098382000000000001 0.037771300000000001 0.27487800000000001
v 0.077962000000000004 0.26609719999999998 0.27487800000000001
v 0.077766000000000002 0.2485358 0.27487800000000001
v 0.040735 0.1086375 0.27487800000000001
v 0.021353500000000001 0.076454800000000003 0.27487800000000001
v -0.099557999999999994 -0.0295505 0.27487800000000001
v -0.11013000000000001 -0.034622699999999999 0.27487800000000001
v 0.012274500000000001 0.063884300000000005 0.27487800000000001
v -0.120702 -0.039695000000000001 0.27487800000000001
v -0.076544399999999999 -0.016751499999999999 0.27487800000000001
v 0.047855000000000002 0.1230265 0.27487800000000001
v -0.1649254 -0.054269999999999999 0.27487800000000001
v 0.025892999999999999 0.082739999999999994 0.27487800000000001
v -0.2535982 -0.064395999999999995 0.27487800000000001
v -0.02086 0.0264158 0.27487800000000001
v 0.076568499999999998 0.230264 0.27487800000000001
v -0.066964999999999997 -0.011101 0.27487800000000001
v -0.14657029999999999 -0.048776699999999999 0.27487800000000001
v -0.155193 -0.051804000000000003 0.27487800000000001
v -0.26423809999999998 -0.063956499999999999 0.27487800000000001
v -0.086123699999999997 -0.022401999999999998 0.27487800000000001
v -0.1746577 -0.056736000000000002 0.27487800000000001
v -0.054202399999999998 -0.0013963999999999999 0.27487780000000001
v -0.0024245 0.046136099999999999 0.27487800000000001
v -0.018278000000000003 0.028788899999999999 0.27487800000000001
v -0.0127671 0.034466650000000001 0.27487800000000001
v -0.12501335 -0.041208649999999999 0.27487800000000001
v 0.059141249999999999 0.15093039999999999 0.27487800000000001
v -0.063138399999999997 -0.0081912500000000006 0.27487800000000001
v 0.062231750000000002 0.15921415 0.27487800000000001
v -0.051647749999999999 0.00054615000000000002 0.27487775000000003
v 0.077814999999999995 0.25292615000000002 0.27487800000000001
v 0.038955000000000004 0.10504025 0.27487800000000001
v 0.034354499999999996 0.096767249999999999 0.27487800000000001
v -0.13363609999999998 -0.044235899999999995 0.27487800000000001
v 0.07791300000000001 0.26170684999999999 0.27487800000000001
v 0.01908375 0.073312149999999993 0.27487800000000001
v 0.023623249999999998 0.079597399999999999 0.27487800000000001
v 0.078010999999999997 0.27048759999999999 0.27487800000000001
v -0.056757099999999998 -0.0033389499999999998 0.27487790000000001
v -0.26955804999999999 -0.063736750000000009 0.27487800000000001
v 0 -0.27487800000000001 0.27487800000000001
v 0.13743900000000001 -0.27487800000000001 0.27487800000000001
v -0.13743900000000001 -0.27487800000000001 0.27487800000000001
v 0.20615900000000001 -0.27487800000000001 0.27487800000000001
v 0.065497799999999995 -0.27487800000000001 0.27487800000000001
v 0.24051800000000001 -0.27487800000000001 0.27487800000000001
v -0.034360000000000002 -0.27487800000000001 0.27487800000000001
v 0.103079 -0.27487800000000001 0.27487800000000001
v -0.17179900000000001 -0.27487800000000001 0.27487800000000001
v -0.103079 -0.27487800000000001 0.27487800000000001
v 0.034360000000000002 -0.27487800000000001 0.27487800000000001
v -0.24051800000000001 -0.27487800000000001 0.27487800000000001
v -0.120259 -0.27487800000000001 0.27487800000000001
v 0.017180000000000001 -0.27487800000000001 0.27487800000000001
v -0.017180000000000001 -0.27487800000000001 0.27487800000000001
v 0.1857578 -0.27487800000000001 0.27487800000000001
v -0.1954215 -0.27487800000000001 0.27487800000000001
v 0.085899000000000003 -0.27487800000000001 0.27487800000000001
v -0.15461900000000001 -0.27487800000000001 0.27487800000000001
v -0.085899000000000003 -0.27487800000000001 0.27487800000000001
v 0.15461900000000001 -0.27487800000000001 0.27487800000000001
v 0.120259 -0.27487800000000001 0.27487800000000001
v 0.25769799999999998 -0.27487800000000001 0.27487800000000001
v -0.25769799999999998 -0.27487800000000001 0.27487800000000001
v 0.055834399999999999 -0.27487800000000001 0.27487800000000001
v 0.2233385 -0.27487800000000001 0.27487800000000001
v -0.051539500000000002 -0.27487800000000001 0.27487800000000001
v -0.2233385 -0.27487800000000001 0.27487800000000001
v -0.26628800000000002 -0.27487800000000001 0.27487800000000001
v -0.111669 -0.27487800000000001 0.27487800000000001
v -0.12884899999999999 -0.27487800000000001 0.27487800000000001
v 0.111669 -0.27487800000000001 0.27487800000000001
v -0.077309000000000003 -0.27487800000000001 0.27487800000000001
v -0.18414710000000001 -0.27487800000000001 0.27487800000000001
v 0.176094 -0.27487800000000001 0.27487800000000001
v 0.0085900000000000004 -0.27487800000000001 0.27487800000000001
v 0.1664303 -0.27487800000000001 0.27487800000000001
v -0.14602899999999999 -0.27487800000000001 0.27487800000000001
v 0.12884899999999999 -0.27487800000000001 0.27487800000000001
v -0.025770000000000001 -0.27487800000000001 0.27487800000000001
v 0.19756899999999999 -0.27487800000000001 0.27487800000000001
v -0.0085900000000000004 -0.27487800000000001 0.27487800000000001
v 0.077309000000000003 -0.27487800000000001 0.27487800000000001
v 0.025770000000000001 -0.27487800000000001 0.27487800000000001
v -0.16320899999999999 -0.27487800000000001 0.27487800000000001
v -0.094489000000000004 -0.27487800000000001 0.27487800000000001
v -0.249108 -0.27487800000000001 0.27487800000000001
v -0.2319282 -0.27487800000000001 0.27487800000000001
v 0.2319282 -0.27487800000000001 0.27487800000000001
v -0.060129299999999997 -0.27487800000000001 0.27487800000000001
v -0.042949800000000003 -0.27487800000000001 0.27487800000000001
v 0.21474879999999999 -0.27487800000000001 0.27487800000000001
v 0.14602899999999999 -0.27487800000000001 0.27487800000000001
v 0.249108 -0.27487800000000001 0.27487800000000001
v -0.068719000000000002 -0.27487800000000001 0.27487800000000001
v 0.094489000000000004 -0.27487800000000001 0.27487800000000001
v -0.21474879999999999 -0.27487800000000001 0.27487800000000001
v -0.2050852 -0.27487800000000001 0.27487800000000001
v 0.046170900000000001 -0.27487800000000001 0.27487800000000001
v 0.26628800000000002 -0.27487800000000001 0.27487800000000001
v -0.22763335000000001 -0.27487800000000001 0.27487800000000001
v -0.27058300000000002 -0.27487800000000001 0.27487800000000001
v -0.26199300000000003 -0.27487800000000001 0.27487800000000001
v 0.021475000000000001 -0.27487800000000001 0.27487800000000001
v -0.073013999999999996 -0.27487800000000001 0.27487800000000001
v -0.244813 -0.27487800000000001 0.27487800000000001
v -0.23622310000000002 -0.27487800000000001 0.27487800000000001
v 0.107374 -0.27487800000000001 0.27487800000000001
v 0.012885000000000001 -0.27487800000000001 0.27487800000000001
v -0.15032400000000001 -0.27487800000000001 0.27487800000000001
v 0.13314399999999998 -0.27487800000000001 0.27487800000000001
v -0.158914 -0.27487800000000001 0.27487800000000001
v -0.08160400000000001 -0.27487800000000001 0.27487800000000001
v 0.25340299999999999 -0.27487800000000001 0.27487800000000001
v 0.124554 -0.27487800000000001 0.27487800000000001
v 0.11596400000000001 -0.27487800000000001 0.27487800000000001
v 0.26199300000000003 -0.27487800000000001 0.27487800000000001
v 0.27058300000000002 -0.27487800000000001 0.27487800000000001
v 0.27487800000000001 0 0.27487800000000001
v 0.27487800000000001 -0.13743900000000001 0.27487800000000001
v 0.27487800000000001 0.13743900000000001 0.27487800000000001
v 0.27487800000000001 -0.20615900000000001 0.27487800000000001
v 0.27487800000000001 0.068719000000000002 0.27487800000000001
v 0.27487800000000001 -0.068719000000000002 0.27487800000000001
v 0.27487800000000001 0.20615900000000001 0.27487800000000001
v 0.27487800000000001 -0.24051800000000001 0.27487800000000001
v 0.27487800000000001 0.034360000000000002 0.27487800000000001
v 0.27487800000000001 -0.103079 0.27487800000000001
v 0.27487800000000001 0.17179900000000001 0.27487800000000001
v 0.27487800000000001 -0.17179900000000001 0.27487800000000001
v 0.27487800000000001 0.103079 0.27487800000000001
v 0.27487800000000001 0.24051800000000001 0.27487800000000001
v 0.27487800000000001 0.085899000000000003 0.27487800000000001
v 0.27487800000000001 0.120259 0.27487800000000001
v 0.27487800000000001 0.25769799999999998 0.27487800000000001
v 0.27487800000000001 0.017180000000000001 0.27487800000000001
v 0.27487800000000001 -0.085899000000000003 0.27487800000000001
v 0.27487800000000001 -0.120259 0.27487800000000001
v 0.27487800000000001 -0.25769799999999998 0.27487800000000001
v 0.27487800000000001 -0.18897900000000001 0.27487800000000001
v 0.27487800000000001 0.15461900000000001 0.27487800000000001
v 0.27487800000000001 -0.15461900000000001 0.27487800000000001
v 0.27487800000000001 -0.017180000000000001 0.27487800000000001
v 0.27487800000000001 -0.051539500000000002 0.27487800000000001
v 0.27487800000000001 -0.2233385 0.27487800000000001
v 0.27487800000000001 0.051539500000000002 0.27487800000000001
v 0.27487800000000001 0.2233385 0.27487800000000001
v 0.27487800000000001 0.26628800000000002 0.27487800000000001
v 0.27487800000000001 -0.111669 0.27487800000000001
v 0.27487800000000001 -0.18038899999999999 0.27487800000000001
v 0.27487800000000001 0.18038899999999999 0.27487800000000001
v 0.27487800000000001 -0.077309000000000003 0.27487800000000001
v 0.27487800000000001 0.14602899999999999 0.27487800000000001
v 0.27487800000000001 -0.094489000000000004 0.27487800000000001
v 0.27487800000000001 -0.12884899999999999 0.27487800000000001
v 0.27487800000000001 0.16320899999999999 0.27487800000000001
v 0.27487800000000001 -0.16320899999999999 0.27487800000000001
v 0.27487800000000001 -0.19756899999999999 0.27487800000000001
v 0.27487800000000001 0.19756899999999999 0.27487800000000001
v 0.27487800000000001 -0.249108 0.27487800000000001
v 0.27487800000000001 0.2319282 0.27487800000000001
v 0.27487800000000001 -0.2319282 0.27487800000000001
v 0.27487800000000001 0.060129299999999997 0.27487800000000001
v 0.27487800000000001 0.21474879999999999 0.27487800000000001
v 0.27487800000000001 -0.060129299999999997 0.27487800000000001
v 0.27487800000000001 -0.042949800000000003 0.27487800000000001
v 0.27487800000000001 0.042949800000000003 0.27487800000000001
v 0.27487800000000001 -0.0085900000000000004 0.27487800000000001
v 0.27487800000000001 -0.025770000000000001 0.27487800000000001
v 0.27487800000000001 0.0085900000000000004 0.27487800000000001
v 0.27487800000000001 0.025770000000000001 0.27487800000000001
v 0.27487800000000001 0.12884899999999999 0.27487800000000001
v 0.27487800000000001 0.111669 0.27487800000000001
v 0.27487800000000001 0.249108 0.27487800000000001
v 0.27487800000000001 0.094489000000000004 0.27487800000000001
v 0.27487800000000001 0.077309000000000003 0.27487800000000001
v 0.27487800000000001 -0.14602899999999999 0.27487800000000001
v 0.27487800000000001 0.18897900000000001 0.27487800000000001
v 0.27487800000000001 -0.034360000000000002 0.27487800000000001
v 0.27487800000000001 -0.21474879999999999 0.27487800000000001
v 0.27487800000000001 -0.26628800000000002 0.27487800000000001
v 0.27487800000000001 0.27058300000000002 0.27487800000000001
v 0.27487800000000001 -0.064424149999999999 0.27487800000000001
v 0.27487800000000001 -0.107374 0.27487800000000001
v 0.27487800000000001 -0.15032400000000001 0.27487800000000001
v 0.27487800000000001 0.23622310000000002 0.27487800000000001
v 0.27487800000000001 0.064424149999999999 0.27487800000000001
v 0.27487800000000001 0.20186399999999999 0.27487800000000001
v 0.27487800000000001 -0.030065000000000001 0.27487800000000001
v 0.27487800000000001 0.073013999999999996 0.27487800000000001
v 0.27487800000000001 0.244813 0.27487800000000001
v 0.27487800000000001 0.26199300000000003 0.27487800000000001
v 0.27487800000000001 -0.22763335000000001 0.27487800000000001
v 0.27487800000000001 -0.141734 0.27487800000000001
v 0.27487800000000001 -0.012885000000000001 0.27487800000000001
v 0.27487800000000001 0.090193999999999996 0.27487800000000001
v 0.27487800000000001 0.18468400000000001 0.27487800000000001
v 0.27487800000000001 -0.073013999999999996 0.27487800000000001
v 0.27487800000000001 0.158914 0.27487800000000001
v 0.27487800000000001 0.030065000000000001 0.27487800000000001
v 0.27487800000000001 0.22763335000000001 0.27487800000000001
v 0.27487800000000001 -0.038654900000000006 0.27487800000000001
v 0.27487800000000001 0.21904364999999998 0.27487800000000001
v 0.27487800000000001 -0.20186399999999999 0.27487800000000001
v 0.27487800000000001 -0.2104539 0.27487800000000001
v 0.27487800000000001 -0.11596400000000001 0.27487800000000001
v 0.27487800000000001 -0.098784000000000011 0.27487800000000001
v 0.27487800000000001 0.141734 0.27487800000000001
v 0.27487800000000001 0.176094 0.27487800000000001
v 0.27487800000000001 -0.23622310000000002 0.27487800000000001
v 0.27487800000000001 0.038654900000000006 0.27487800000000001
v 0.27487800000000001 0.15032400000000001 0.27487800000000001
v 0.27487800000000001 0.16750399999999999 0.27487800000000001
v 0.27487800000000001 0.08160400000000001 0.27487800000000001
v 0.27487800000000001 0.2104539 0.27487800000000001
v 0.27487800000000001 -0.021475000000000001 0.27487800000000001
v 0.27487800000000001 -0.26199300000000003 0.27487800000000001
v 0.27487800000000001 -0.27058300000000002 0.27487800000000001
v 0.27487800000000001 0.27487800000000001 0.13743900000000001
v 0.27487800000000001 0.27487800000000001 -0.13743900000000001
v 0.27487800000000001 0.27487800000000001 -0.068719000000000002
v 0.27487800000000001 0.27487800000000001 0.068719000000000002
v 0.27487800000000001 0.27487800000000001 -0.20615900000000001
v 0.27487800000000001 0.27487800000000001 0.24051800000000001
v 0.27487800000000001 0.27487800000000001 -0.034360000000000002
v 0.27487800000000001 0.27487800000000001 0.103079
v 0.27487800000000001 0.27487800000000001 0.17179900000000001
v 0.27487800000000001 0.27487800000000001 0.15461900000000001
v 0.27487800000000001 0.27487800000000001 0.18897900000000001
v 0.27487800000000001 0.27487800000000001 -0.18897900000000001
v 0.27487800000000001 0.27487800000000001 -0.15461900000000001
v 0.27487800000000001 0.27487800000000001 0.25769799999999998
v 0.27487800000000001 0.27487800000000001 0.120259
v 0.27487800000000001 0.27487800000000001 0.017180000000000001
v 0.27487800000000001 0.27487800000000001 -0.017180000000000001
v 0.27487800000000001 0.27487800000000001 -0.085899000000000003
v 0.27487800000000001 0.27487800000000001 0.085899000000000003
v 0.27487800000000001 0.27487800000000001 -0.2233385
v 0.27487800000000001 0.27487800000000001 -0.051539500000000002
v 0.27487800000000001 0.27487800000000001 0.051539500000000002
v 0.27487800000000001 0.27487800000000001 0.2233385
v 0.27487800000000001 0.27487800000000001 0.26628800000000002
v 0.27487800000000001 0.27487800000000001 -0.14602899999999999
v 0.27487800000000001 0.27487800000000001 0.16320899999999999
v 0.27487800000000001 0.27487800000000001 0.111669
v 0.27487800000000001 0.27487800000000001 0.18038899999999999
v 0.27487800000000001 0.27487800000000001 -0.16320899999999999
v 0.27487800000000001 0.27487800000000001 0.0085900000000000004
v 0.27487800000000001 0.27487800000000001 0.14602899999999999
v 0.27487800000000001 0.27487800000000001 -0.077309000000000003
v 0.27487800000000001 0.27487800000000001 0.19756899999999999
v 0.27487800000000001 0.27487800000000001 -0.0085900000000000004
v 0.27487800000000001 0.27487800000000001 -0.025770000000000001
v 0.27487800000000001 0.27487800000000001 -0.107374
v 0.27487800000000001 0.27487800000000001 0.12884899999999999
v 0.27487800000000001 0.27487800000000001 0.249108
v 0.27487800000000001 0.27487800000000001 -0.25340299999999999
v 0.27487800000000001 0.27487800000000001 0.2319282
v 0.27487800000000001 0.27487800000000001 0.060129299999999997
v 0.27487800000000001 0.27487800000000001 0.042949800000000003
v 0.27487800000000001 0.27487800000000001 0.21474879999999999
v 0.27487800000000001 0.27487800000000001 -0.17179900000000001
v 0.27487800000000001 0.27487800000000001 0.034360000000000002
v 0.27487800000000001 0.27487800000000001 -0.18038899999999999
v 0.27487800000000001 0.27487800000000001 -0.2319282
v 0.27487800000000001 0.27487800000000001 -0.21474879999999999
v 0.27487800000000001 0.27487800000000001 -0.12884899999999999
v 0.27487800000000001 0.27487800000000001 0.094489000000000004
v 0.27487800000000001 0.27487800000000001 0.077309000000000003
v 0.27487800000000001 0.27487800000000001 -0.042949800000000003
v 0.27487800000000001 0.27487800000000001 -0.060129299999999997
v 0.27487800000000001 0.27487800000000001 0
v 0.27487800000000001 0.27487800000000001 0.20615900000000001
v 0.27487800000000001 0.27487800000000001 0.025770000000000001
v 0.27487800000000001 0.27487800000000001 -0.19756899999999999
v 0.27487800000000001 0.27487800000000001 -0.0977103
v 0.27487800000000001 0.27487800000000001 -0.1170378
v 0.27487800000000001 0.27487800000000001 -0.24373919999999999
v 0.27487800000000001 0.27487800000000001 -0.26306669999999999
v 0.27487800000000001 0.27487800000000001 0.27058300000000002
v 0.27487800000000001 0.27487800000000001 0.030065000000000001
v 0.27487800000000001 0.27487800000000001 -0.158914
v 0.27487800000000001 0.27487800000000001 0.11596400000000001
v 0.27487800000000001 0.27487800000000001 0.055834399999999999
v 0.27487800000000001 0.27487800000000001 0.22763335000000001
v 0.27487800000000001 0.27487800000000001 -0.073013999999999996
v 0.27487800000000001 0.27487800000000001 0.23622310000000002
v 0.27487800000000001 0.27487800000000001 0.20186399999999999
v 0.27487800000000001 0.27487800000000001 0.26199300000000003
v 0.27487800000000001 0.27487800000000001 0.193274
v 0.27487800000000001 0.27487800000000001 0.047244649999999999
v 0.27487800000000001 0.27487800000000001 -0.064424149999999999
v 0.27487800000000001 0.27487800000000001 0.107374
v 0.27487800000000001 0.27487800000000001 0.021475000000000001
v 0.27487800000000001 0.27487800000000001 0.038654900000000006
v 0.27487800000000001 0.27487800000000001 -0.16750399999999999
v 0.27487800000000001 0.27487800000000001 0.18468400000000001
v 0.27487800000000001 0.27487800000000001 -0.26897234999999997
v -0.27487800000000001 -0.13743900000000001 -0.27487800000000001
v -0.27487800000000001 0.068719000000000002 -0.27487800000000001
v -0.27487800000000001 -0.20615900000000001 -0.27487800000000001
v -0.27487800000000001 0.24051800000000001 -0.27487800000000001
v -0.27487800000000001 -0.034360000000000002 -0.27487800000000001
v -0.27487800000000001 -0.17179900000000001 -0.27487800000000001
v -0.27487800000000001 0.17179900000000001 -0.27487800000000001
v -0.27487800000000001 -0.103079 -0.27487800000000001
v -0.27487800000000001 0.037983799999999998 -0.27487800000000001
v -0.27487800000000001 -0.120259 -0.27487800000000001
v -0.27487800000000001 -0.15461900000000001 -0.27487800000000001
v -0.27487800000000001 0.18897900000000001 -0.27487800000000001
v -0.27487800000000001 -0.085899000000000003 -0.27487800000000001
v -0.27487800000000001 0.15461900000000001 -0.27487800000000001
v -0.27487800000000001 -0.18897900000000001 -0.27487800000000001
v -0.27487800000000001 -0.017180000000000001 -0.27487800000000001
v -0.27487800000000001 0.048855200000000001 -0.27487800000000001
v -0.27487800000000001 -0.2233385 -0.27487800000000001
v -0.27487800000000001 -0.051539500000000002 -0.27487800000000001
v -0.27487800000000001 0.077309000000000003 -0.27487800000000001
v -0.27487800000000001 0.111669 -0.27487800000000001
v -0.27487800000000001 -0.060129299999999997 -0.27487800000000001
v -0.27487800000000001 0.26628800000000002 -0.27487800000000001
v -0.27487800000000001 -0.12884899999999999 -0.27487800000000001
v -0.27487800000000001 -0.094489000000000004 -0.27487800000000001
v -0.27487800000000001 0.094489000000000004 -0.27487800000000001
v -0.27487800000000001 0.12884899999999999 -0.27487800000000001
v -0.27487800000000001 0.025770000000000001 -0.27487800000000001
v -0.27487800000000001 -0.14602899999999999 -0.27487800000000001
v -0.27487800000000001 -0.077309000000000003 -0.27487800000000001
v -0.27487800000000001 0.14602899999999999 -0.27487800000000001
v -0.27487800000000001 -0.18038899999999999 -0.27487800000000001
v -0.27487800000000001 -0.025770000000000001 -0.27487800000000001
v -0.27487800000000001 -0.19756899999999999 -0.27487800000000001
v -0.27487800000000001 -0.111669 -0.27487800000000001
v -0.27487800000000001 0.249108 -0.27487800000000001
v -0.27487800000000001 -0.2319282 -0.27487800000000001
v -0.27487800000000001 0.060129299999999997 -0.27487800000000001
v -0.27487800000000001 -0.042949800000000003 -0.27487800000000001
v -0.27487800000000001 0.2190436 -0.27487800000000001
v -0.27487800000000001 -0.26628800000000002 -0.27487800000000001
v -0.27487800000000001 -0.0085900000000000004 -0.27487800000000001
v -0.27487800000000001 0.13743900000000001 -0.27487800000000001
v -0.27487800000000001 -0.21474879999999999 -0.27487800000000001
v -0.27487800000000001 -0.16320899999999999 -0.27487800000000001
v -0.27487800000000001 0.19756899999999999 -0.27487800000000001
v -0.27487800000000001 0.18038899999999999 -0.27487800000000001
v -0.27487800000000001 0.16320899999999999 -0.27487800000000001
v -0.27487800000000001 -0.068719000000000002 -0.27487800000000001
v -0.27487800000000001 0.25769799999999998 -0.27487800000000001
v -0.27487800000000001 0.103079 -0.27487800000000001
v -0.27487800000000001 0.085899000000000003 -0.27487800000000001
v -0.27487800000000001 -0.2544768 -0.27487800000000001
v -0.27487800000000001 0.120259 -0.27487800000000001
v -0.27487800000000001 -0.2415918 -0.27487800000000001
v -0.27487800000000001 0.20938010000000001 -0.27487800000000001
v -0.27487800000000001 0.2287071 -0.27487800000000001
v -0.27487800000000001 0.0026844 -0.27487800000000001
v -0.27487800000000001 0.0135561 -0.27487800000000001
v -0.27487800000000001 -0.24803430000000001 -0.27487800000000001
v -0.27487800000000001 -0.038654900000000006 -0.27487800000000001
v -0.27487800000000001 0.141734 -0.27487800000000001
v -0.27487800000000001 -0.030065000000000001 -0.27487800000000001
v -0.27487800000000001 -0.090193999999999996 -0.27487800000000001
v -0.27487800000000001 -0.18468400000000001 -0.27487800000000001
v -0.27487800000000001 0.176094 -0.27487800000000001
v -0.27487800000000001 0.090193999999999996 -0.27487800000000001
v -0.27487800000000001 0.107374 -0.27487800000000001
v -0.27487800000000001 0.26199300000000003 -0.27487800000000001
v -0.27487800000000001 -0.158914 -0.27487800000000001
v -0.27487800000000001 0.27058300000000002 -0.27487800000000001
v -0.27487800000000001 0.098784000000000011 -0.27487800000000001
v -0.27487800000000001 -0.107374 -0.27487800000000001
v -0.27487800000000001 -0.11596400000000001 -0.27487800000000001
v -0.27487800000000001 0.13314399999999998 -0.27487800000000001
v -0.27487800000000001 -0.176094 -0.27487800000000001
v -0.27487800000000001 -0.193274 -0.27487800000000001
v -0.27487800000000001 0.18468400000000001 -0.27487800000000001
v -0.27487800000000001 -0.047244649999999999 -0.27487800000000001
v -0.27487800000000001 -0.098784000000000011 -0.27487800000000001
v -0.27487800000000001 -0.23676 -0.27487800000000001
v -0.27487800000000001 -0.16750399999999999 -0.27487800000000001
v -0.27487800000000001 -0.26038240000000001 -0.27487800000000001
v -0.27487800000000001 -0.24481305 -0.27487800000000001
v -0.27487800000000001 -0.25125554999999999 -0.27487800000000001
v -0.27487800000000001 -0.27058300000000002 -0.27487800000000001
v -0.27487800000000001 0.27273049999999999 -0.27487800000000001
v 0 0.27487800000000001 -0.27487800000000001
v -0.13099649999999999 0.27487800000000001 -0.27487800000000001
v 0.13743900000000001 0.27487800000000001 -0.27487800000000001
v -0.20615900000000001 0.27487800000000001 -0.27487800000000001
v 0.068719000000000002 0.27487800000000001 -0.27487800000000001
v -0.068719000000000002 0.27487800000000001 -0.27487800000000001
v 0.20615900000000001 0.27487800000000001 -0.27487800000000001
v 0.034360000000000002 0.27487800000000001 -0.27487800000000001
v 0.17179900000000001 0.27487800000000001 -0.27487800000000001
v -0.17179900000000001 0.27487800000000001 -0.27487800000000001
v 0.103079 0.27487800000000001 -0.27487800000000001
v -0.034360000000000002 0.27487800000000001 -0.27487800000000001
v 0.24051800000000001 0.27487800000000001 -0.27487800000000001
v 0.120259 0.27487800000000001 -0.27487800000000001
v 0.15461900000000001 0.27487800000000001 -0.27487800000000001
v 0.25769799999999998 0.27487800000000001 -0.27487800000000001
v -0.017180000000000001 0.27487800000000001 -0.27487800000000001
v -0.18897900000000001 0.27487800000000001 -0.27487800000000001
v 0.18897900000000001 0.27487800000000001 -0.27487800000000001
v -0.15461900000000001 0.27487800000000001 -0.27487800000000001
v 0.085899000000000003 0.27487800000000001 -0.27487800000000001
v -0.2544768 0.27487800000000001 -0.27487800000000001
v 0.051539500000000002 0.27487800000000001 -0.27487800000000001
v -0.2233385 0.27487800000000001 -0.27487800000000001
v 0.2233385 0.27487800000000001 -0.27487800000000001
v -0.0085900000000000004 0.27487800000000001 -0.27487800000000001
v 0.111669 0.27487800000000001 -0.27487800000000001
v 0.14602899999999999 0.27487800000000001 -0.27487800000000001
v 0.18038899999999999 0.27487800000000001 -0.27487800000000001
v -0.025770000000000001 0.27487800000000001 -0.27487800000000001
v -0.111669 0.27487800000000001 -0.27487800000000001
v 0.077309000000000003 0.27487800000000001 -0.27487800000000001
v 0.12884899999999999 0.27487800000000001 -0.27487800000000001
v 0.094489000000000004 0.27487800000000001 -0.27487800000000001
v -0.19756899999999999 0.27487800000000001 -0.27487800000000001
v 0.025770000000000001 0.27487800000000001 -0.27487800000000001
v 0.16320899999999999 0.27487800000000001 -0.27487800000000001
v 0.19756899999999999 0.27487800000000001 -0.27487800000000001
v -0.244813 0.27487800000000001 -0.27487800000000001
v 0.2319282 0.27487800000000001 -0.27487800000000001
v 0.060129299999999997 0.27487800000000001 -0.27487800000000001
v 0.21474879999999999 0.27487800000000001 -0.27487800000000001
v -0.21474879999999999 0.27487800000000001 -0.27487800000000001
v 0.017180000000000001 0.27487800000000001 -0.27487800000000001
v -0.18038899999999999 0.27487800000000001 -0.27487800000000001
v -0.14602899999999999 0.27487800000000001 -0.27487800000000001
v -0.16320899999999999 0.27487800000000001 -0.27487800000000001
v 0.042949800000000003 0.27487800000000001 -0.27487800000000001
v -0.26628800000000002 0.27487800000000001 -0.27487800000000001
v -0.042949800000000003 0.27487800000000001 -0.27487800000000001
v -0.060129299999999997 0.27487800000000001 -0.27487800000000001
v -0.051539500000000002 0.27487800000000001 -0.27487800000000001
v 0.0085900000000000004 0.27487800000000001 -0.27487800000000001
v -0.090193999999999996 0.27487800000000001 -0.27487800000000001
v 0.249108 0.27487800000000001 -0.27487800000000001
v -0.23514940000000001 0.27487800000000001 -0.27487800000000001
v -0.1213327 0.27487800000000001 -0.27487800000000001
v -0.13851269999999999 0.27487800000000001 -0.27487800000000001
v 0.26628800000000002 0.27487800000000001 -0.27487800000000001
v -0.099857699999999994 0.27487800000000001 -0.27487800000000001
v -0.080530199999999996 0.27487800000000001 -0.27487800000000001
v -0.038654900000000006 0.27487800000000001 -0.27487800000000001
v 0.2104539 0.27487800000000001 -0.27487800000000001
v -0.0042950000000000002 0.27487800000000001 -0.27487800000000001
v 0.193274 0.27487800000000001 -0.27487800000000001
v -0.27058300000000002 0.27487800000000001 -0.27487800000000001
v 0.13314399999999998 0.27487800000000001 -0.27487800000000001
v 0.055834399999999999 0.27487800000000001 -0.27487800000000001
v -0.193274 0.27487800000000001 -0.27487800000000001
v -0.055834399999999999 0.27487800000000001 -0.27487800000000001
v -0.064424149999999999 0.27487800000000001 -0.27487800000000001
v -0.012885000000000001 0.27487800000000001 -0.27487800000000001
v -0.158914 0.27487800000000001 -0.27487800000000001
v 0.030065000000000001 0.27487800000000001 -0.27487800000000001
v 0.20186399999999999 0.27487800000000001 -0.27487800000000001
v -0.047244649999999999 0.27487800000000001 -0.27487800000000001
v 0.038654900000000006 0.27487800000000001 -0.27487800000000001
v 0.047244649999999999 0.27487800000000001 -0.27487800000000001
v 0.141734 0.27487800000000001 -0.27487800000000001
v 0.18468400000000001 0.27487800000000001 -0.27487800000000001
v 0.064424149999999999 0.27487800000000001 -0.27487800000000001
v -0.20186399999999999 0.27487800000000001 -0.27487800000000001
v -0.15032400000000001 0.27487800000000001 -0.27487800000000001
v 0.244813 0.27487800000000001 -0.27487800000000001
v -0.1347546 0.27487800000000001 -0.27487800000000001
v 0.25340299999999999 0.27487800000000001 -0.27487800000000001
v -0.14227085 0.27487800000000001 -0.27487800000000001
v 0.27058300000000002 0.27487800000000001 -0.27487800000000001
v 0.26199300000000003 0.27487800000000001 -0.27487800000000001
v 0.27487800000000001 0 -0.27487800000000001
v 0.27487800000000001 -0.13743900000000001 -0.27487800000000001
v 0.27487800000000001 0.20615900000000001 -0.27487800000000001
v 0.27487800000000001 -0.068719000000000002 -0.27487800000000001
v 0.27487800000000001 0.068719000000000002 -0.27487800000000001
v 0.27487800000000001 -0.20615900000000001 -0.27487800000000001
v 0.27487800000000001 0.24051800000000001 -0.27487800000000001
v 0.27487800000000001 -0.034360000000000002 -0.27487800000000001
v 0.27487800000000001 0.1067029 -0.27487800000000001
v 0.27487800000000001 -0.17179900000000001 -0.27487800000000001
v 0.27487800000000001 0.17179900000000001 -0.27487800000000001
v 0.27487800000000001 -0.103079 -0.27487800000000001
v 0.27487800000000001 0.034360000000000002 -0.27487800000000001
v 0.27487800000000001 -0.24051800000000001 -0.27487800000000001
v 0.27487800000000001 -0.15461900000000001 -0.27487800000000001
v 0.27487800000000001 0.085899000000000003 -0.27487800000000001
v 0.27487800000000001 -0.25769799999999998 -0.27487800000000001
v 0.27487800000000001 -0.18897900000000001 -0.27487800000000001
v 0.27487800000000001 0.25769799999999998 -0.27487800000000001
v 0.27487800000000001 -0.017180000000000001 -0.27487800000000001
v 0.27487800000000001 -0.120259 -0.27487800000000001
v 0.27487800000000001 -0.085899000000000003 -0.27487800000000001
v 0.27487800000000001 0.017180000000000001 -0.27487800000000001
v 0.27487800000000001 0.18897900000000001 -0.27487800000000001
v 0.27487800000000001 0.051539500000000002 -0.27487800000000001
v 0.27487800000000001 -0.051539500000000002 -0.27487800000000001
v 0.27487800000000001 0.2233385 -0.27487800000000001
v 0.27487800000000001 -0.2233385 -0.27487800000000001
v 0.27487800000000001 -0.0085900000000000004 -0.27487800000000001
v 0.27487800000000001 0.077309000000000003 -0.27487800000000001
v 0.27487800000000001 0.025770000000000001 -0.27487800000000001
v 0.27487800000000001 -0.19756899999999999 -0.27487800000000001
v 0.27487800000000001 -0.025770000000000001 -0.27487800000000001
v 0.27487800000000001 0.16320899999999999 -0.27487800000000001
v 0.27487800000000001 -0.094489000000000004 -0.27487800000000001
v 0.27487800000000001 0.0085900000000000004 -0.27487800000000001
v 0.27487800000000001 -0.077309000000000003 -0.27487800000000001
v 0.27487800000000001 0.094489000000000004 -0.27487800000000001
v 0.27487800000000001 0.12884899999999999 -0.27487800000000001
v 0.27487800000000001 -0.18038899999999999 -0.27487800000000001
v 0.27487800000000001 0.249108 -0.27487800000000001
v 0.27487800000000001 0.2319282 -0.27487800000000001
v 0.27487800000000001 -0.2319282 -0.27487800000000001
v 0.27487800000000001 0.060129299999999997 -0.27487800000000001
v 0.27487800000000001 0.042949800000000003 -0.27487800000000001
v 0.27487800000000001 -0.060129299999999997 -0.27487800000000001
v 0.27487800000000001 -0.042949800000000003 -0.27487800000000001
v 0.27487800000000001 -0.21474879999999999 -0.27487800000000001
v 0.27487800000000001 0.21474879999999999 -0.27487800000000001
v 0.27487800000000001 0.19756899999999999 -0.27487800000000001
v 0.27487800000000001 -0.16320899999999999 -0.27487800000000001
v 0.27487800000000001 -0.12884899999999999 -0.27487800000000001
v 0.27487800000000001 -0.249108 -0.27487800000000001
v 0.27487800000000001 -0.14602899999999999 -0.27487800000000001
v 0.27487800000000001 -0.111669 -0.27487800000000001
v 0.27487800000000001 -0.26628800000000002 -0.27487800000000001
v 0.27487800000000001 0.1175746 -0.27487800000000001
v 0.27487800000000001 0.18038899999999999 -0.27487800000000001
v 0.27487800000000001 0.1397207 -0.27487800000000001
v 0.27487800000000001 0.15089440000000001 -0.27487800000000001
v 0.27487800000000001 0.26628800000000002 -0.27487800000000001
v 0.27487800000000001 -0.193274 -0.27487800000000001
v 0.27487800000000001 -0.11596400000000001 -0.27487800000000001
v 0.27487800000000001 0.20186399999999999 -0.27487800000000001
v 0.27487800000000001 0.021475000000000001 -0.27487800000000001
v 0.27487800000000001 -0.124554 -0.27487800000000001
v 0.27487800000000001 0.012885000000000001 -0.27487800000000001
v 0.27487800000000001 0.064424149999999999 -0.27487800000000001
v 0.27487800000000001 -0.055834399999999999 -0.27487800000000001
v 0.27487800000000001 0.22763335000000001 -0.27487800000000001
v 0.27487800000000001 -0.18468400000000001 -0.27487800000000001
v 0.27487800000000001 0.21904364999999998 -0.27487800000000001
v 0.27487800000000001 -0.15032400000000001 -0.27487800000000001
v 0.27487800000000001 0.030065000000000001 -0.27487800000000001
v 0.27487800000000001 -0.030065000000000001 -0.27487800000000001
v 0.27487800000000001 -0.141734 -0.27487800000000001
v 0.27487800000000001 0.055834399999999999 -0.27487800000000001
v 0.27487800000000001 0.047244649999999999 -0.27487800000000001
v 0.27487800000000001 -0.064424149999999999 -0.27487800000000001
v 0.27487800000000001 0.23622310000000002 -0.27487800000000001
v 0.27487800000000001 -0.2104539 -0.27487800000000001
v 0.27487800000000001 -0.107374 -0.27487800000000001
v 0.27487800000000001 0.244813 -0.27487800000000001
v 0.27487800000000001 0.193274 -0.27487800000000001
v 0.27487800000000001 -0.26199300000000003 -0.27487800000000001
v 0.27487800000000001 -0.21904364999999998 -0.27487800000000001
v 0.27487800000000001 -0.27058300000000002 -0.27487800000000001
v 0.27487800000000001 -0.021475000000000001 -0.27487800000000001
v 0.27487800000000001 0.27058300000000002 -0.27487800000000001
v 0.27487800000000001 0.26199300000000003 -0.27487800000000001
v -0.27487800000000001 0.27487800000000001 -0.110945
v -0.27487800000000001 0.27487800000000001 -0.083623000000000003
v -0.27487800000000001 0.27487800000000001 -0.138268
v -0.27487800000000001 0.27487800000000001 -0.23389499999999999
v -0.27487800000000001 0.27487800000000001 -0.12802189999999999
v -0.27487800000000001 0.27487800000000001 -0.17925099999999999
v -0.27487800000000001 0.27487800000000001 -0.20657300000000001
v -0.27487800000000001 0.27487800000000001 -0.26121699999999998
v -0.27487800000000001 0.27487800000000001 -0.1485138
v -0.27487800000000001 0.27487800000000001 -0.18608150000000001
v -0.27487800000000001 0.27487800000000001 -0.1041145
v -0.27487800000000001 0.27487800000000001 -0.1177758
v -0.27487800000000001 0.27487800000000001 -0.093868699999999999
v -0.27487800000000001 0.27487800000000001 -0.073377300000000006
v -0.27487800000000001 0.27487800000000001 -0.2134035
v -0.27487800000000001 0.27487800000000001 -0.16900519999999999
v -0.27487800000000001 0.27487800000000001 -0.24414069999999999
v -0.27487800000000001 0.27487800000000001 -0.2236493
v -0.27487800000000001 0.27487800000000001 -0.25438650000000002
v -0.27487800000000001 0.27487800000000001 -0.19632720000000001
v -0.27487800000000001 0.27487800000000001 -0.1587595
v -0.27487800000000001 0.27487800000000001 -0.26804749999999999
v -0.27487800000000001 0.27487800000000001 -0.064839099999999997
v -0.27487800000000001 0.27487800000000001 -0.19120435000000002
v -0.27487800000000001 0.27487800000000001 -0.21852640000000001
v -0.27487800000000001 0.27487800000000001 -0.18266625
v -0.27487800000000001 0.27487800000000001 -0.10752975000000001
v -0.27487800000000001 0.27487800000000001 -0.20998824999999999
v -0.27487800000000001 0.27487800000000001 -0.069108200000000009
v -0.27487800000000001 0.27487800000000001 -0.27146274999999997
v -0.27487800000000001 0.27487800000000001 -0.1143604
v -0.27487800000000001 0.27487800000000001 -0.078500150000000005
v -0.27487800000000001 0.27487800000000001 -0.25780175
v -0.27487800000000001 0.27487800000000001 -0.26463225000000001
v -0.27487800000000001 0.27487800000000001 -0.06057005
v -0.27487800000000001 0.27487800000000001 -0.058435525000000002
v 0 -0.27487800000000001 -0.27487800000000001
v 0.13743900000000001 -0.27487800000000001 -0.27487800000000001
v 0.068719000000000002 -0.27487800000000001 -0.27487800000000001
v -0.068719000000000002 -0.27487800000000001 -0.27487800000000001
v 0.20615900000000001 -0.27487800000000001 -0.27487800000000001
v -0.24051800000000001 -0.27487800000000001 -0.27487800000000001
v 0.034360000000000002 -0.27487800000000001 -0.27487800000000001
v 0.17179900000000001 -0.27487800000000001 -0.27487800000000001
v -0.034360000000000002 -0.27487800000000001 -0.27487800000000001
v 0.18897900000000001 -0.27487800000000001 -0.27487800000000001
v 0.085899000000000003 -0.27487800000000001 -0.27487800000000001
v -0.085899000000000003 -0.27487800000000001 -0.27487800000000001
v -0.120259 -0.27487800000000001 -0.27487800000000001
v -0.017180000000000001 -0.27487800000000001 -0.27487800000000001
v 0.017180000000000001 -0.27487800000000001 -0.27487800000000001
v 0.1170378 -0.27487800000000001 -0.27487800000000001
v -0.25769799999999998 -0.27487800000000001 -0.27487800000000001
v 0.15461900000000001 -0.27487800000000001 -0.27487800000000001
v -0.051539500000000002 -0.27487800000000001 -0.27487800000000001
v 0.2233385 -0.27487800000000001 -0.27487800000000001
v -0.2233385 -0.27487800000000001 -0.27487800000000001
v 0.051539500000000002 -0.27487800000000001 -0.27487800000000001
v 0.249108 -0.27487800000000001 -0.27487800000000001
v -0.025770000000000001 -0.27487800000000001 -0.27487800000000001
v 0.18038899999999999 -0.27487800000000001 -0.27487800000000001
v -0.077309000000000003 -0.27487800000000001 -0.27487800000000001
v 0.19756899999999999 -0.27487800000000001 -0.27487800000000001
v 0.16320899999999999 -0.27487800000000001 -0.27487800000000001
v 0.14602899999999999 -0.27487800000000001 -0.27487800000000001
v -0.111669 -0.27487800000000001 -0.27487800000000001
v -0.193274 -0.27487800000000001 -0.27487800000000001
v -0.14602899999999999 -0.27487800000000001 -0.27487800000000001
v 0.077309000000000003 -0.27487800000000001 -0.27487800000000001
v -0.12884899999999999 -0.27487800000000001 -0.27487800000000001
v -0.0085900000000000004 -0.27487800000000001 -0.27487800000000001
v -0.094489000000000004 -0.27487800000000001 -0.27487800000000001
v -0.249108 -0.27487800000000001 -0.27487800000000001
v 0.2319282 -0.27487800000000001 -0.27487800000000001
v -0.2319282 -0.27487800000000001 -0.27487800000000001
v 0.060129299999999997 -0.27487800000000001 -0.27487800000000001
v -0.060129299999999997 -0.27487800000000001 -0.27487800000000001
v 0.042949800000000003 -0.27487800000000001 -0.27487800000000001
v -0.042949800000000003 -0.27487800000000001 -0.27487800000000001
v 0.21474879999999999 -0.27487800000000001 -0.27487800000000001
v -0.13743900000000001 -0.27487800000000001 -0.27487800000000001
v -0.103079 -0.27487800000000001 -0.27487800000000001
v 0.24051800000000001 -0.27487800000000001 -0.27487800000000001
v 0.12884899999999999 -0.27487800000000001 -0.27487800000000001
v 0.107374 -0.27487800000000001 -0.27487800000000001
v 0.25769799999999998 -0.27487800000000001 -0.27487800000000001
v -0.17179900000000001 -0.27487800000000001 -0.27487800000000001
v 0.025770000000000001 -0.27487800000000001 -0.27487800000000001
v 0.0085900000000000004 -0.27487800000000001 -0.27487800000000001
v -0.15461900000000001 -0.27487800000000001 -0.27487800000000001
v -0.16320899999999999 -0.27487800000000001 -0.27487800000000001
v -0.21474879999999999 -0.27487800000000001 -0.27487800000000001
v -0.1836103 -0.27487800000000001 -0.27487800000000001
v -0.2029378 -0.27487800000000001 -0.27487800000000001
v 0.26628800000000002 -0.27487800000000001 -0.27487800000000001
v 0.0977103 -0.27487800000000001 -0.27487800000000001
v -0.26628800000000002 -0.27487800000000001 -0.27487800000000001
v -0.08160400000000001 -0.27487800000000001 -0.27487800000000001
v 0.021475000000000001 -0.27487800000000001 -0.27487800000000001
v 0.16750399999999999 -0.27487800000000001 -0.27487800000000001
v -0.22763335000000001 -0.27487800000000001 -0.27487800000000001
v 0.047244649999999999 -0.27487800000000001 -0.27487800000000001
v -0.012885000000000001 -0.27487800000000001 -0.27487800000000001
v -0.030065000000000001 -0.27487800000000001 -0.27487800000000001
v 0.18468400000000001 -0.27487800000000001 -0.27487800000000001
v 0.055834399999999999 -0.27487800000000001 -0.27487800000000001
v -0.124554 -0.27487800000000001 -0.27487800000000001
v -0.090193999999999996 -0.27487800000000001 -0.27487800000000001
v -0.158914 -0.27487800000000001 -0.27487800000000001
v -0.17770465000000002 -0.27487800000000001 -0.27487800000000001
v 0.176094 -0.27487800000000001 -0.27487800000000001
v -0.11596400000000001 -0.27487800000000001 -0.27487800000000001
v 0.030065000000000001 -0.27487800000000001 -0.27487800000000001
v -0.073013999999999996 -0.27487800000000001 -0.27487800000000001
v -0.064424149999999999 -0.27487800000000001 -0.27487800000000001
v 0.27058300000000002 -0.27487800000000001 -0.27487800000000001
v 0.25340299999999999 -0.27487800000000001 -0.27487800000000001
v -0.16750399999999999 -0.27487800000000001 -0.27487800000000001
v -0.021475000000000001 -0.27487800000000001 -0.27487800000000001
v -0.21904364999999998 -0.27487800000000001 -0.27487800000000001
v 0.26199300000000003 -0.27487800000000001 -0.27487800000000001
v -0.27058300000000002 -0.27487800000000001 -0.27487800000000001
v -0.26199300000000003 -0.27487800000000001 -0.27487800000000001
v 0.27487800000000001 -0.27487800000000001 -0.13743900000000001
v 0.27487800000000001 -0.27487800000000001 0.13743900000000001
v 0.27487800000000001 -0.27487800000000001 -0.20615900000000001
v 0.27487800000000001 -0.27487800000000001 0.20615900000000001
v 0.27487800000000001 -0.27487800000000001 -0.24051800000000001
v 0.27487800000000001 -0.27487800000000001 0.034360000000000002
v 0.27487800000000001 -0.27487800000000001 -0.103079
v 0.27487800000000001 -0.27487800000000001 0.176094
v 0.27487800000000001 -0.27487800000000001 -0.17179900000000001
v 0.27487800000000001 -0.27487800000000001 0.103079
v 0.27487800000000001 -0.27487800000000001 -0.034360000000000002
v 0.27487800000000001 -0.27487800000000001 0.24051800000000001
v 0.27487800000000001 -0.27487800000000001 -0.18897900000000001
v 0.27487800000000001 -0.27487800000000001 0.085899000000000003
v 0.27487800000000001 -0.27487800000000001 -0.017180000000000001
v 0.27487800000000001 -0.27487800000000001 -0.082677799999999996
v 0.27487800000000001 -0.27487800000000001 0.120259
v 0.27487800000000001 -0.27487800000000001 0.1857578
v 0.27487800000000001 -0.27487800000000001 0.15461900000000001
v 0.27487800000000001 -0.27487800000000001 0.017180000000000001
v 0.27487800000000001 -0.27487800000000001 -0.120259
v 0.27487800000000001 -0.27487800000000001 -0.15461900000000001
v 0.27487800000000001 -0.27487800000000001 -0.051539500000000002
v 0.27487800000000001 -0.27487800000000001 -0.2233385
v 0.27487800000000001 -0.27487800000000001 0.051539500000000002
v 0.27487800000000001 -0.27487800000000001 0.2233385
v 0.27487800000000001 -0.27487800000000001 -0.073013999999999996
v 0.27487800000000001 -0.27487800000000001 0.0085900000000000004
v 0.27487800000000001 -0.27487800000000001 -0.14602899999999999
v 0.27487800000000001 -0.27487800000000001 -0.16320899999999999
v 0.27487800000000001 -0.27487800000000001 -0.18038899999999999
v 0.27487800000000001 -0.27487800000000001 0.19756899999999999
v 0.27487800000000001 -0.27487800000000001 -0.19756899999999999
v 0.27487800000000001 -0.27487800000000001 -0.249108
v 0.27487800000000001 -0.27487800000000001 0.2319282
v 0.27487800000000001 -0.27487800000000001 -0.042949800000000003
v 0.27487800000000001 -0.27487800000000001 -0.063350400000000001
v 0.27487800000000001 -0.27487800000000001 0.21474879999999999
v 0.27487800000000001 -0.27487800000000001 -0.0085900000000000004
v 0.27487800000000001 -0.27487800000000001 -0.025770000000000001
v 0.27487800000000001 -0.27487800000000001 0.111669
v 0.27487800000000001 -0.27487800000000001 0.12884899999999999
v 0.27487800000000001 -0.27487800000000001 0.14602899999999999
v 0.27487800000000001 -0.27487800000000001 0.025770000000000001
v 0.27487800000000001 -0.27487800000000001 -0.111669
v 0.27487800000000001 -0.27487800000000001 -0.12884899999999999
v 0.27487800000000001 -0.27487800000000001 -0.25769799999999998
v 0.27487800000000001 -0.27487800000000001 0.094489000000000004
v 0.27487800000000001 -0.27487800000000001 0.042949800000000003
v 0.27487800000000001 -0.27487800000000001 -0.094489000000000004
v 0.27487800000000001 -0.27487800000000001 -0.2319282
v 0.27487800000000001 -0.27487800000000001 -0.21474879999999999
v 0.27487800000000001 -0.27487800000000001 0
v 0.27487800000000001 -0.27487800000000001 0.25232929999999998
v 0.27487800000000001 -0.27487800000000001 -0.26628800000000002
v 0.27487800000000001 -0.27487800000000001 0.26199299999999998
v 0.27487800000000001 -0.27487800000000001 0.062813599999999997
v 0.27487800000000001 -0.27487800000000001 0.073685100000000003
v 0.27487800000000001 -0.27487800000000001 0.1664303
v 0.27487800000000001 -0.27487800000000001 -0.25340299999999999
v 0.27487800000000001 -0.27487800000000001 -0.098784000000000011
v 0.27487800000000001 -0.27487800000000001 0.012885000000000001
v 0.27487800000000001 -0.27487800000000001 0.11596400000000001
v 0.27487800000000001 -0.27487800000000001 0.13314399999999998
v 0.27487800000000001 -0.27487800000000001 0.124554
v 0.27487800000000001 -0.27487800000000001 -0.158914
v 0.27487800000000001 -0.27487800000000001 -0.15032400000000001
v 0.27487800000000001 -0.27487800000000001 -0.16750399999999999
v 0.27487800000000001 -0.27487800000000001 -0.193274
v 0.27487800000000001 -0.27487800000000001 0.0042950000000000002
v 0.27487800000000001 -0.27487800000000001 -0.20186399999999999
v 0.27487800000000001 -0.27487800000000001 -0.22763335000000001
v 0.27487800000000001 -0.27487800000000001 -0.27058300000000002
v 0.27487800000000001 -0.27487800000000001 -0.107374
v 0.27487800000000001 -0.27487800000000001 -0.26199300000000003
v 0.27487800000000001 -0.27487800000000001 -0.23622310000000002
v 0.27487800000000001 -0.27487800000000001 -0.244813
v 0.27487800000000001 -0.27487800000000001 0.26843549999999999
v 0.27487800000000001 -0.27487800000000001 0.27165675
v -0.27487800000000001 -0.27487800000000001 -0.27487800000000001
v -0.27487800000000001 -0.27487800000000001 0.27487800000000001
v -0.27487800000000001 -0.063517000000000004 0.27487800000000001
v -0.27487800000000001 0.27487800000000001 -0.27487800000000001
v -0.27487800000000001 0.27487800000000001 -0.056300999999999997
v 0.078060000000000004 0.27487800000000001 0.27487800000000001
v 0.27487800000000001 -0.27487800000000001 -0.27487800000000001
v 0.27487800000000001 -0.27487800000000001 0.27487800000000001
v 0.27487800000000001 0.27487800000000001 -0.27487800000000001
v 0.27487800000000001 0.27487800000000001 0.27487800000000001
v 0.27487800000000001 0.27058300000000002 0.27487800000000001
v 0.27487800000000001 0.27487800000000001 0.27058300000000002
v -0.27487800000000001 -0.27487800000000001 0.27058300000000002
v -0.27487800000000001 -0.26992424999999998 0.27487800000000001
v 0.07801050000000001 0.27487800000000001 0.26938649999999997
v -0.27058300000000002 -0.27487800000000001 0.27487800000000001
v -0.27058300000000002 0.27487800000000001 -0.27487800000000001
v -0.27487800000000001 0.26964250000000001 -0.056307999999999997
v -0.27487800000000001 0.27487800000000001 -0.27146274999999997
v 0.26872750000000001 0.27487800000000001 0.27487800000000001
v 0.078010999999999997 0.27048759999999999 0.27487800000000001
v 0.27487800000000001 -0.27058300000000002 -0.27487800000000001
v 0.27487800000000001 -0.27487800000000001 -0.27058300000000002
v 0.27058300000000002 -0.27487800000000001 -0.27487800000000001
v -0.27487800000000001 -0.063407700000000011 0.26929235000000001
v -0.27487800000000001 -0.068470749999999997 0.27487800000000001
v -0.27082079999999997 0.27487800000000001 -0.056467249999999997
v -0.26955804999999999 -0.063736750000000009 0.27487800000000001
v -0.27487800000000001 -0.27487800000000001 -0.26843549999999999
v 0.27058300000000002 0.27487800000000001 -0.27487800000000001
v 0.27487800000000001 0.27487800000000001 -0.26897234999999997
v 0.27487800000000001 0.27058300000000002 -0.27487800000000001
v -0.27058300000000002 -0.27487800000000001 -0.27487800000000001
v -0.27487800000000001 -0.27058300000000002 -0.27487800000000001
v 0.27487800000000001 -0.27058300000000002 0.27487800000000001
v 0.27058300000000002 -0.27487800000000001 0.27487800000000001
v 0.080366424999999991 0.27487800000000001 0.27487800000000001
v -0.27487800000000001 0.27273049999999999 -0.27487800000000001
v -0.27487800000000001 0.27487800000000001 -0.058435525000000002
v 0.27487800000000001 -0.27487800000000001 0.27165675
v 0.27487800000000001 0.27487800000000001 0.27487800000000001
v 0.27487800000000001 0.27487800000000001 0.27487800000000001
v 0.27487800000000001 -0.27487800000000001 -0.27487800000000001
v 0.27487800000000001 -0.27487800000000001 -0.27487800000000001
v -0.27487800000000001 -0.063517000000000004 0.27487800000000001
v -0.27487800000000001 -0.063517000000000004 0.27487800000000001
v -0.27487800000000001 -0.27487800000000001 0.27487800000000001
v -0.27487800000000001 -0.27487800000000001 0.27487800000000001
v -0.27487800000000001 0.27487800000000001 -0.056300999999999997
v -0.27487800000000001 0.27487800000000001 -0.056300999999999997
v 0.27487800000000001 0.27487800000000001 -0.27487800000000001
v 0.27487800000000001 0.27487800000000001 -0.27487800000000001
v 0.27487800000000001 -0.27487800000000001 0.27487800000000001
v 0.27487800000000001 -0.27487800000000001 0.27487800000000001
v -0.27487800000000001 0.27487800000000001 -0.27487800000000001
v -0.27487800000000001 0.27487800000000001 -0.27487800000000001
v 0.078060000000000004 0.27487800000000001 0.27487800000000001
v 0.078060000000000004 0.27487800000000001 0.27487800000000001
v -0.27487800000000001 -0.27487800000000001 -0.27487800000000001
v -0.27487800000000001 -0.27487800000000001 -0.27487800000000001
l 56/56 10/10
l 10/10 64/64
l 64/64 42/42
l 42/42 58/58
l 58/58 52/52
l 52/52 63/63
l 63/63 41/41
l 41/41 9/9
l 9/9 21/21
l 21/21 8/8
l 8/8 48/48
l 48/48 17/17
l 17/17 49/49
l 49/49 34/34
l 34/34 54/54
l 54/54 33/33
l 33/33 51/51
l 51/51 19/19
l 19/19 47/47
l 47/47 28/28
l 28/28 14/14
l 14/14 35/35
l 35/35 37/37
l 37/37 20/20
l 20/20 65/65
l 65/65 43/43
l 43/43 60/60
l 60/60 44/44
l 44/44 61/61
l 61/61 32/32
l 32/32 57/57
l 57/57 15/15
l 15/15 66/66
l 66/66 45/45
l 45/45 68/68
l 68/68 40/40
l 40/40 62/62
l 62/62 16/16
l 16/16 67/67
l 67/67 39/39
l 39/39 24/24
l 24/24 18/18
l 18/18 50/50
l 50/50 53/53
l 53/53 31/31
l 31/31 7/7
l 7/7 27/27
l 27/27 12/12
l 12/12 36/36
l 36/36 6/6
l 6/6 38/38
l 38/38 5/5
l 5/5 23/23
l 23/23 4/4
l 4/4 26/26
l 26/26 11/11
l 11/11 25/25
l 25/25 3/3
l 3/3 30/30
l 30/30 13/13
l 13/13 29/29
l 29/29 2/2
l 2/2 22/22
l 22/22 71/71
l 71/71 1/1
l 1/1 59/59
l 59/59 46/46
l 46/46 70/70
l 70/70 55/55
l 55/55 69/69
l 151/151 90/90
l 90/90 152/152
l 152/152 129/129
l 129/129 78/78
l 78/78 118/118
l 118/118 127/127
l 127/127 96/96
l 96/96 74/74
l 74/74 130/130
l 130/130 105/105
l 105/105 81/81
l 81/81 119/119
l 119/119 92/92
l 92/92 120/120
l 120/120 72/72
l 72/72 125/125
l 125/125 101/101
l 101/101 121/121
l 121/121 110/110
l 110/110 86/86
l 86/86 102/102
l 102/102 76/76
l 76/76 149/149
l 149/149 112/112
l 112/112 139/139
l 139/139 95/95
l 95/95 141/141
l 141/141 117/117
l 117/117 97/97
l 97/97 132/132
l 132/132 107/107
l 107/107 136/136
l 136/136 89/89
l 89/89 116/116
l 116/116 124/124
l 124/124 128/128
l 128/128 84/84
l 84/84 79/79
l 79/79 114/114
l 114/114 148/148
l 148/148 94/94
l 94/94 133/133
l 133/133 113/113
l 113/113 75/75
l 75/75 109/109
l 109/109 146/146
l 146/146 87/87
l 87/87 142/142
l 142/142 99/99
l 99/99 82/82
l 82/82 108/108
l 108/108 145/145
l 145/145 88/88
l 88/88 143/143
l 143/143 103/103
l 103/103 73/73
l 73/73 137/137
l 137/137 104/104
l 104/104 144/144
l 144/144 91/91
l 91/91 100/100
l 100/100 147/147
l 147/147 80/80
l 80/80 131/131
l 131/131 122/122
l 122/122 85/85
l 85/85 106/106
l 106/106 77/77
l 77/77 115/115
l 115/115 93/93
l 93/93 123/123
l 123/123 140/140
l 140/140 83/83
l 83/83 134/134
l 134/134 111/111
l 111/111 138/138
l 138/138 126/126
l 126/126 150/150
l 150/150 98/98
l 98/98 135/135
l 175/175 162/162
l 162/162 156/156
l 156/156 161/161
l 161/161 154/154
l 154/154 166/166
l 166/166 158/158
l 158/158 165/165
l 165/165 153/153
l 153/153 164/164
l 164/164 157/157
l 157/157 163/163
l 163/163 155/155
l 155/155 172/172
l 172/172 171/171
l 171/171 176/176
l 176/176 159/159
l 159/159 168/168
l 168/168 169/169
l 169/169 170/170
l 170/170 160/160
l 160/160 174/174
l 174/174 167/167
l 167/167 173/173
l 173/173 177/177
l 236/236 202/202
l 202/202 238/238
l 238/238 189/189
l 189/189 242/242
l 242/242 222/222
l 222/222 198/198
l 198/198 223/223
l 223/223 212/212
l 212/212 240/240
l 240/240 195/195
l 195/195 244/244
l 244/244 211/211
l 211/211 188/188
l 188/188 205/205
l 205/205 191/191
l 191/191 206/206
l 206/206 187/187
l 187/187 216/216
l 216/216 228/228
l 228/228 199/199
l 199/199 221/221
l 221/221 231/231
l 231/231 200/200
l 200/200 186/186
l 186/186 229/229
l 229/229 194/194
l 194/194 230/230
l 230/230 185/185
l 185/185 241/241
l 241/241 210/210
l 210/210 239/239
l 239/239 193/193
l 193/193 209/209
l 209/209 227/227
l 227/227 184/184
l 184/184 214/214
l 214/214 196/196
l 196/196 213/213
l 213/213 245/245
l 245/245 183/183
l 183/183 234/234
l 234/234 220/220
l 220/220 235/235
l 235/235 225/225
l 225/225 237/237
l 237/237 219/219
l 219/219 182/182
l 182/182 181/181
l 181/181 203/203
l 203/203 190/190
l 190/190 204/204
l 204/204 180/180
l 180/180 215/215
l 215/215 218/218
l 218/218 197/197
l 197/197 217/217
l 217/217 243/243
l 243/243 226/226
l 226/226 233/233
l 233/233 208/208
l 208/208 192/192
l 192/192 207/207
l 207/207 179/179
l 179/179 201/201
l 201/201 178/178
l 178/178 224/224
l 224/224 232/232
l 232/232 246/246
l 267/267 260/260
l 260/260 251/251
l 251/251 256/256
l 256/256 248/248
l 248/248 255/255
l 255/255 250/250
l 250/250 258/258
l 258/258 249/249
l 249/249 253/253
l 253/253 262/262
l 262/262 254/254
l 254/254 264/264
l 264/264 257/257
l 257/257 252/252
l 252/252 259/259
l 259/259 247/247
l 247/247 261/261
l 261/261 263/263
l 263/263 265/265
l 265/265 266/266
l 266/266 268/268
l 342/342 305/305
l 305/305 339/339
l 339/339 287/287
l 287/287 335/335
l 335/335 306/306
l 306/306 280/280
l 280/280 319/319
l 319/319 283/283
l 283/283 298/298
l 298/298 279/279
l 279/279 295/295
l 295/295 281/281
l 281/281 294/294
l 294/294 278/278
l 278/278 333/333
l 333/333 302/302
l 302/302 331/331
l 331/331 286/286
l 286/286 303/303
l 303/303 277/277
l 277/277 314/314
l 314/314 288/288
l 288/288 307/307
l 307/307 336/336
l 336/336 276/276
l 276/276 337/337
l 337/337 293/293
l 293/293 316/316
l 316/316 341/341
l 341/341 308/308
l 308/308 340/340
l 340/340 289/289
l 289/289 311/311
l 311/311 275/275
l 275/275 327/327
l 327/327 304/304
l 304/304 329/329
l 329/329 274/274
l 274/274 328/328
l 328/328 318/318
l 318/318 291/291
l 291/291 273/273
l 273/273 297/297
l 297/297 282/282
l 282/282 334/334
l 334/334 326/326
l 326/326 343/343
l 343/343 296/296
l 296/296 332/332
l 332/332 320/320
l 320/320 313/313
l 313/313 324/324
l 324/324 272/272
l 272/272 309/309
l 309/309 310/310
l 310/310 312/312
l 312/312 330/330
l 330/330 301/301
l 301/301 338/338
l 338/338 285/285
l 285/285 321/321
l 321/321 322/322
l 322/322 315/315
l 315/315 325/325
l 325/325 271/271
l 271/271 290/290
l 290/290 292/292
l 292/292 270/270
l 270/270 300/300
l 300/300 284/284
l 284/284 299/299
l 299/299 269/269
l 269/269 317/317
l 317/317 323/323
l 323/323 344/344
l 406/406 373/373
l 373/373 407/407
l 407/407 368/368
l 368/368 391/391
l 391/391 410/410
l 410/410 356/356
l 356/356 411/411
l 411/411 392/392
l 392/392 405/405
l 405/405 372/372
l 372/372 401/401
l 401/401 402/402
l 402/402 361/361
l 361/361 378/378
l 378/378 353/353
l 353/353 389/389
l 389/389 416/416
l 416/416 363/363
l 363/363 414/414
l 414/414 382/382
l 382/382 347/347
l 347/347 375/375
l 375/375 357/357
l 357/357 374/374
l 374/374 354/354
l 354/354 390/390
l 390/390 364/364
l 364/364 417/417
l 417/417 377/377
l 377/377 409/409
l 409/409 399/399
l 399/399 394/394
l 394/394 371/371
l 371/371 395/395
l 395/395 351/351
l 351/351 384/384
l 384/384 359/359
l 359/359 386/386
l 386/386 345/345
l 345/345 380/380
l 380/380 413/413
l 413/413 358/358
l 358/358 408/408
l 408/408 388/388
l 388/388 355/355
l 355/355 403/403
l 403/403 369/369
l 369/369 349/349
l 349/349 387/387
l 387/387 362/362
l 362/362 400/400
l 400/400 352/352
l 352/352 412/412
l 412/412 376/376
l 376/376 420/420
l 420/420 366/366
l 366/366 419/419
l 419/419 383/383
l 383/383 415/415
l 415/415 346/346
l 346/346 397/397
l 397/397 365/365
l 365/365 381/381
l 381/381 379/379
l 379/379 360/360
l 360/360 385/385
l 385/385 348/348
l 348/348 396/396
l 396/396 370/370
l 370/370 393/393
l 393/393 350/350
l 350/350 398/398
l 398/398 418/418
l 418/418 367/367
l 367/367 421/421
l 421/421 404/404
l 404/404 422/422
l 486/486 452/452
l 452/452 496/496
l 496/496 439/439
l 439/439 478/478
l 478/478 495/495
l 495/495 436/436
l 436/436 490/490
l 490/490 465/465
l 465/465 505/505
l 505/505 451/451
l 451/451 507/507
l 507/507 468/468
l 468/468 519/519
l 519/519 429/429
l 429/429 492/492
l 492/492 463/463
l 463/463 482/482
l 482/482 501/501
l 501/501 455/455
l 455/455 513/513
l 513/513 433/433
l 433/433 517/517
l 517/517 460/460
l 460/460 503/503
l 503/503 445/445
l 445/445 516/516
l 516/516 457/457
l 457/457 512/512
l 512/512 425/425
l 425/425 476/476
l 476/476 438/438
l 438/438 477/477
l 477/477 435/435
l 435/435 479/479
l 479/479 500/500
l 500/500 437/437
l 437/437 518/518
l 518/518 480/480
l 480/480 494/494
l 494/494 427/427
l 427/427 491/491
l 491/491 467/467
l 467/467 450/450
l 450/450 471/471
l 471/471 515/515
l 515/515 431/431
l 431/431 504/504
l 504/504 475/475
l 475/475 440/440
l 440/440 474/474
l 474/474 423/423
l 423/423 472/472
l 472/472 499/499
l 499/499 447/447
l 447/447 520/520
l 520/520 473/473
l 473/473 493/493
l 493/493 483/483
l 483/483 506/506
l 506/506 470/470
l 470/470 448/448
l 448/448 469/469
l 469/469 487/487
l 487/487 428/428
l 428/428 502/502
l 502/502 456/456
l 456/456 441/441
l 441/441 458/458
l 458/458 511/511
l 511/511 432/432
l 432/432 488/488
l 488/488 453/453
l 453/453 510/510
l 510/510 442/442
l 442/442 459/459
l 459/459 424/424
l 424/424 498/498
l 498/498 481/481
l 481/481 489/489
l 489/489 446/446
l 446/446 461/461
l 461/461 434/434
l 434/434 454/454
l 454/454 444/444
l 444/444 462/462
l 462/462 508/508
l 508/508 426/426
l 426/426 509/509
l 509/509 484/484
l 484/484 449/449
l 449/449 497/497
l 497/497 466/466
l 466/466 514/514
l 514/514 430/430
l 430/430 464/464
l 464/464 443/443
l 443/443 521/521
l 521/521 485/485
l 485/485 522/522
l 584/584 546/546
l 546/546 593/593
l 593/593 536/536
l 536/536 560/560
l 560/560 528/528
l 528/528 591/591
l 591/591 562/562
l 562/562 589/589
l 589/589 545/545
l 545/545 565/565
l 565/565 577/577
l 577/577 592/592
l 592/592 555/555
l 555/555 594/594
l 594/594 533/533
l 533/533 601/601
l 601/601 550/550
l 550/550 531/531
l 531/531 548/548
l 548/548 532/532
l 532/532 553/553
l 553/553 523/523
l 523/523 559/559
l 559/559 537/537
l 537/537 587/587
l 587/587 549/549
l 549/549 597/597
l 597/597 530/530
l 530/530 572/572
l 572/572 541/541
l 541/541 573/573
l 573/573 526/526
l 526/526 563/563
l 563/563 588/588
l 588/588 544/544
l 544/544 595/595
l 595/595 564/564
l 564/564 599/599
l 599/599 567/567
l 567/567 585/585
l 585/585 578/578
l 578/578 598/598
l 598/598 538/538
l 538/538 552/552
l 552/552 576/576
l 576/576 556/556
l 556/556 539/539
l 539/539 557/557
l 557/557 529/529
l 529/529 574/574
l 574/574 543/543
l 543/543 575/575
l 575/575 596/596
l 596/596 525/525
l 525/525 590/590
l 590/590 554/554
l 554/554 540/540
l 540/540 580/580
l 580/580 558/558
l 558/558 581/581
l 581/581 571/571
l 571/571 524/524
l 524/524 547/547
l 547/547 535/535
l 535/535 586/586
l 586/586 551/551
l 551/551 600/600
l 600/600 566/566
l 566/566 568/568
l 568/568 534/534
l 534/534 579/579
l 579/579 527/527
l 527/527 570/570
l 570/570 542/542
l 542/542 569/569
l 569/569 582/582
l 582/582 561/561
l 561/561 583/583
l 583/583 602/602
l 688/688 643/643
l 643/643 685/685
l 685/685 655/655
l 655/655 687/687
l 687/687 662/662
l 662/662 686/686
l 686/686 657/657
l 657/657 683/683
l 683/683 639/639
l 639/639 620/620
l 620/620 646/646
l 646/646 605/605
l 605/605 636/636
l 636/636 679/679
l 679/679 617/617
l 617/617 667/667
l 667/667 634/634
l 634/634 678/678
l 678/678 608/608
l 608/608 684/684
l 684/684 647/647
l 647/647 672/672
l 672/672 613/613
l 613/613 631/631
l 631/631 603/603
l 603/603 626/626
l 626/626 612/612
l 612/612 676/676
l 676/676 637/637
l 637/637 675/675
l 675/675 610/610
l 610/610 682/682
l 682/682 627/627
l 627/627 666/666
l 666/666 615/615
l 615/615 632/632
l 632/632 651/651
l 651/651 624/624
l 624/624 621/621
l 621/621 681/681
l 681/681 641/641
l 641/641 663/663
l 663/663 607/607
l 607/607 665/665
l 665/665 635/635
l 635/635 618/618
l 618/618 644/644
l 644/644 660/660
l 660/660 661/661
l 661/661 630/630
l 630/630 611/611
l 611/611 619/619
l 619/619 640/640
l 640/640 604/604
l 604/604 622/622
l 622/622 654/654
l 654/654 669/669
l 669/669 628/628
l 628/628 674/674
l 674/674 653/653
l 653/653 670/670
l 670/670 623/623
l 623/623 656/656
l 656/656 629/629
l 629/629 677/677
l 677/677 645/645
l 645/645 664/664
l 664/664 633/633
l 633/633 616/616
l 616/616 650/650
l 650/650 609/609
l 609/609 668/668
l 668/668 649/649
l 649/649 680/680
l 680/680 614/614
l 614/614 648/648
l 648/648 658/658
l 658/658 642/642
l 642/642 659/659
l 659/659 606/606
l 606/606 638/638
l 638/638 652/652
l 652/652 671/671
l 671/671 625/625
l 625/625 673/673
l 673/673 689/689
l 755/755 738/738
l 738/738 711/711
l 711/711 728/728
l 728/728 745/745
l 745/745 713/713
l 713/713 732/732
l 732/732 693/693
l 693/693 771/771
l 771/771 724/724
l 724/724 758/758
l 758/758 707/707
l 707/707 734/734
l 734/734 699/699
l 699/699 736/736
l 736/736 762/762
l 762/762 709/709
l 709/709 772/772
l 772/772 735/735
l 735/735 776/776
l 776/776 747/747
l 747/747 774/774
l 774/774 691/691
l 691/691 746/746
l 746/746 720/720
l 720/720 749/749
l 749/749 743/743
l 743/743 750/750
l 750/750 695/695
l 695/695 760/760
l 760/760 740/740
l 740/740 759/759
l 759/759 741/741
l 741/741 765/765
l 765/765 739/739
l 739/739 751/751
l 751/751 701/701
l 701/701 719/719
l 719/719 706/706
l 706/706 761/761
l 761/761 715/715
l 715/715 753/753
l 753/753 690/690
l 690/690 742/742
l 742/742 733/733
l 733/733 725/725
l 725/725 763/763
l 763/763 697/697
l 697/697 766/766
l 766/766 737/737
l 737/737 767/767
l 767/767 712/712
l 712/712 757/757
l 757/757 730/730
l 730/730 770/770
l 770/770 694/694
l 694/694 721/721
l 721/721 710/710
l 710/710 723/723
l 723/723 700/700
l 700/700 716/716
l 716/716 703/703
l 703/703 722/722
l 722/722 756/756
l 756/756 692/692
l 692/692 768/768
l 768/768 717/717
l 717/717 704/704
l 704/704 726/726
l 726/726 698/698
l 698/698 718/718
l 718/718 769/769
l 769/769 708/708
l 708/708 754/754
l 754/754 727/727
l 727/727 764/764
l 764/764 696/696
l 696/696 752/752
l 752/752 731/731
l 731/731 714/714
l 714/714 729/729
l 729/729 702/702
l 702/702 773/773
l 773/773 744/744
l 744/744 775/775
l 775/775 705/705
l 705/705 778/778
l 778/778 748/748
l 748/748 777/777
l 865/865 834/834
l 834/834 863/863
l 863/863 795/795
l 795/795 831/831
l 831/831 792/792
l 792/792 821/821
l 821/821 806/806
l 806/806 864/864
l 864/864 826/826
l 826/826 859/859
l 859/859 784/784
l 784/784 810/810
l 810/810 840/840
l 840/840 796/796
l 796/796 849/849
l 849/849 818/818
l 818/818 788/788
l 788/788 829/829
l 829/829 793/793
l 793/793 851/851
l 851/851 832/832
l 832/832 854/854
l 854/854 780/780
l 780/780 830/830
l 830/830 844/844
l 844/844 799/799
l 799/799 841/841
l 841/841 833/833
l 833/833 860/860
l 860/860 790/790
l 790/790 813/813
l 813/813 800/800
l 800/800 815/815
l 815/815 782/782
l 782/782 857/857
l 857/857 824/824
l 824/824 847/847
l 847/847 804/804
l 804/804 825/825
l 825/825 786/786
l 786/786 853/853
l 853/853 811/811
l 811/811 866/866
l 866/866 798/798
l 798/798 807/807
l 807/807 779/779
l 779/779 814/814
l 814/814 845/845
l 845/845 801/801
l 801/801 843/843
l 843/843 809/809
l 809/809 852/852
l 852/852 791/791
l 791/791 823/823
l 823/823 856/856
l 856/856 803/803
l 803/803 855/855
l 855/855 822/822
l 822/822 846/846
l 846/846 783/783
l 783/783 808/808
l 808/808 794/794
l 794/794 816/816
l 816/816 787/787
l 787/787 835/835
l 835/835 817/817
l 817/817 837/837
l 837/837 838/838
l 838/838 812/812
l 812/812 789/789
l 789/789 836/836
l 836/836 802/802
l 802/802 862/862
l 862/862 828/828
l 828/828 842/842
l 842/842 781/781
l 781/781 827/827
l 827/827 850/850
l 850/850 805/805
l 805/805 848/848
l 848/848 820/820
l 820/820 858/858
l 858/858 785/785
l 785/785 861/861
l 861/861 819/819
l 819/819 797/797
l 797/797 868/868
l 868/868 839/839
l 839/839 867/867
l 898/898 890/890
l 890/890 902/902
l 902/902 876/876
l 876/876 901/901
l 901/901 887/887
l 887/887 885/885
l 885/885 872/872
l 872/872 886/886
l 886/886 893/893
l 893/893 883/883
l 883/883 896/896
l 896/896 875/875
l 875/875 888/888
l 888/888 892/892
l 892/892 878/878
l 878/878 894/894
l 894/894 874/874
l 874/874 884/884
l 884/884 889/889
l 889/889 877/877
l 877/877 871/871
l 871/871 873/873
l 873/873 880/880
l 880/880 899/899
l 899/899 869/869
l 869/869 895/895
l 895/895 879/879
l 879/879 881/881
l 881/881 870/870
l 870/870 900/900
l 900/900 882/882
l 882/882 897/897
l 897/897 891/891
l 891/891 903/903
l 903/903 904/904
l 984/984 963/963
l 963/963 989/989
l 989/989 954/954
l 954/954 985/985
l 985/985 927/927
l 927/927 951/951
l 951/951 942/942
l 942/942 924/924
l 924/924 948/948
l 948/948 909/909
l 909/909 931/931
l 931/931 914/914
l 914/914 973/973
l 973/973 929/929
l 929/929 979/979
l 979/979 912/912
l 912/912 968/968
l 968/968 932/932
l 932/932 922/922
l 922/922 933/933
l 933/933 906/906
l 906/906 952/952
l 952/952 920/920
l 920/920 953/953
l 953/953 964/964
l 964/964 915/915
l 915/915 937/937
l 937/937 907/907
l 907/907 944/944
l 944/944 974/974
l 974/974 926/926
l 926/926 970/970
l 970/970 946/946
l 946/946 911/911
l 911/911 981/981
l 981/981 956/956
l 956/956 967/967
l 967/967 919/919
l 919/919 957/957
l 957/957 905/905
l 905/905 939/939
l 939/939 971/971
l 971/971 918/918
l 918/918 987/987
l 987/987 928/928
l 928/928 972/972
l 972/972 913/913
l 913/913 947/947
l 947/947 923/923
l 923/923 945/945
l 945/945 983/983
l 983/983 908/908
l 908/908 982/982
l 982/982 930/930
l 930/930 966/966
l 966/966 916/916
l 916/916 976/976
l 976/976 940/940
l 940/940 950/950
l 950/950 934/934
l 934/934 980/980
l 980/980 917/917
l 917/917 975/975
l 975/975 938/938
l 938/938 949/949
l 949/949 936/936
l 936/936 958/958
l 958/958 977/977
l 977/977 959/959
l 959/959 986/986
l 986/986 955/955
l 955/955 978/978
l 978/978 961/961
l 961/961 935/935
l 935/935 962/962
l 962/962 960/960
l 960/960 988/988
l 988/988 925/925
l 925/925 969/969
l 969/969 943/943
l 943/943 910/910
l 910/910 941/941
l 941/941 921/921
l 921/921 991/991
l 991/991 965/965
l 965/965 990/990
l 1064/1064 1046/1046
l 1046/1046 1066/1066
l 1066/1066 1038/1038
l 1038/1038 1051/1051
l 1051/1051 1025/1025
l 1025/1025 1068/1068
l 1068/1068 996/996
l 996/996 1067/1067
l 1067/1067 1042/1042
l 1042/1042 1063/1063
l 1063/1063 1015/1015
l 1015/1015 1043/1043
l 1043/1043 994/994
l 994/994 1062/1062
l 1062/1062 1024/1024
l 1024/1024 1060/1060
l 1060/1060 1004/1004
l 1004/1004 1022/1022
l 1022/1022 1000/1000
l 1000/1000 1059/1059
l 1059/1059 1021/1021
l 1021/1021 1057/1057
l 1057/1057 1013/1013
l 1013/1013 1058/1058
l 1058/1058 1020/1020
l 1020/1020 992/992
l 992/992 1037/1037
l 1037/1037 1012/1012
l 1012/1012 1036/1036
l 1036/1036 1065/1065
l 1065/1065 998/998
l 998/998 1052/1052
l 1052/1052 1041/1041
l 1041/1041 1007/1007
l 1007/1007 1018/1018
l 1018/1018 1028/1028
l 1028/1028 1014/1014
l 1014/1014 1027/1027
l 1027/1027 1002/1002
l 1002/1002 1031/1031
l 1031/1031 1006/1006
l 1006/1006 1030/1030
l 1030/1030 1044/1044
l 1044/1044 1061/1061
l 1061/1061 1019/1019
l 1019/1019 1053/1053
l 1053/1053 1011/1011
l 1011/1011 1035/1035
l 1035/1035 997/997
l 997/997 1040/1040
l 1040/1040 1016/1016
l 1016/1016 1048/1048
l 1048/1048 1049/1049
l 1049/1049 1005/1005
l 1005/1005 1039/1039
l 1039/1039 1001/1001
l 1001/1001 1032/1032
l 1032/1032 1054/1054
l 1054/1054 1008/1008
l 1008/1008 1056/1056
l 1056/1056 1033/1033
l 1033/1033 1055/1055
l 1055/1055 993/993
l 993/993 1034/1034
l 1034/1034 1010/1010
l 1010/1010 1050/1050
l 1050/1050 999/999
l 999/999 1009/1009
l 1009/1009 1023/1023
l 1023/1023 995/995
l 995/995 1029/1029
l 1029/1029 1017/1017
l 1017/1017 1026/1026
l 1026/1026 1003/1003
l 1003/1003 1045/1045
l 1045/1045 1047/1047
l 1047/1047 1069/1069
l 1069/1069 1070/1070
l 1071/1071 1099/1099
l 1071/1071 1104/1104
l 1072/1072 1084/1084
l 1072/1072 1086/1086
l 1073/1073 1095/1095
l 1073/1073 1096/1096
l 1074/1074 1087/1087
l 1074/1074 1108/1108
l 1075/1075 1088/1088
l 1075/1075 1097/1097
l 1076/1076 1085/1085
l 1076/1076 1107/1107
l 1077/1077 1092/1092
l 1077/1077 1093/1093
l 1078/1078 1105/1105
l 1078/1078 1106/1106
l 1079/1079 1100/1100
l 1079/1079 1101/1101
l 1080/1080 1081/1081
l 1080/1080 1082/1082
l 1081/1081 1112/1112
l 1082/1082 1111/1111
l 1083/1083 1117/1117
l 1083/1083 1118/1118
l 1084/1084 1117/1117
l 1085/1085 1127/1127
l 1086/1086 1118/1118
l 1087/1087 1126/1126
l 1088/1088 1120/1120
l 1089/1089 1125/1125
l 1089/1089 1126/1126
l 1090/1090 1111/1111
l 1090/1090 1112/1112
l 1091/1091 1127/1127
l 1091/1091 1128/1128
l 1092/1092 1114/1114
l 1093/1093 1113/1113
l 1094/1094 1113/1113
l 1094/1094 1114/1114
l 1095/1095 1116/1116
l 1096/1096 1115/1115
l 1097/1097 1119/1119
l 1098/1098 1115/1115
l 1098/1098 1116/1116
l 1099/1099 1130/1130
l 1100/1100 1122/1122
l 1101/1101 1121/1121
l 1102/1102 1121/1121
l 1102/1102 1122/1122
l 1103/1103 1129/1129
l 1103/1103 1130/1130
l 1104/1104 1129/1129
l 1105/1105 1124/1124
l 1106/1106 1123/1123
l 1107/1107 1128/1128
l 1108/1108 1125/1125
l 1109/1109 1119/1119
l 1109/1109 1120/1120
l 1110/1110 1123/1123
l 1110/1110 1124/1124
