v 0.0078139999999999998 2 1.7993159999999999
v 0.32014399999999998 2 1.770624
v 0.304753 2 -1.7733380000000001
v 0.60805900000000002 2 -1.6934769999999999
v 0.62274499999999999 2 1.688132
v 0.90642500000000004 2 1.5543469999999999
v 0.89644500000000005 2 -1.5605039999999999
v 1.1625639999999999 2 1.3733340999999999
v 1.3733340999999999 2 -1.1625639999999999
v 1.3833789999999999 2 1.1505920000000001
v 1.5621609999999999 2 0.89289099999999999
v 1.6934769999999999 2 0.60805900000000002
v 1.6897891 2 -0.61919100000000005
v 1.770624 2 -0.32014399999999998
v 1.7733380000000001 2 0.304753
v 1.7993159999999999 2 -0.0078139999999999998
v 0.14846899999999999 2 -1.7870109999999999
v 0.16409699999999999 2 1.7856430000000001
v 0.45652500000000001 2 -1.734081
v 0.47167799999999999 2 1.7300199999999999
v 0.75070899999999996 2 -1.6284609999999999
v 0.76492700000000002 2 1.6218311000000001
v 1.022084 2 -1.4733620000000001
v 1.034934 2 1.4643641000000001
v 1.2624021000000001 2 -1.273496
v 1.273496 2 1.2624021000000001
v 1.4643641000000001 2 -1.034934
v 1.4733620000000001 2 1.022084
v 1.6218311000000001 2 -0.76492700000000002
v 1.6284609999999999 2 0.75070899999999996
v 1.7300199999999999 2 -0.47167799999999999
v 1.734081 2 0.45652500000000001
v 1.7856430000000001 2 -0.16409699999999999
v 1.7870109999999999 2 0.14846899999999999
v 0.22270400000000001 2 -1.780516
v 0.074234999999999995 2 -1.7935049999999999
v 0.089862999999999998 2 1.792138
v 0.52850399999999997 2 -1.7147939999999999
v 0.54365699999999995 2 1.710734
v 0.818245 2 -1.5969690000000001
v 0.68317300000000003 2 -1.6599539999999999
v 0.69739099999999998 2 1.653324
v 0.83246399999999998 2 1.5903389000000001
v 1.0831249999999999 2 -1.43062
v 0.96104199999999995 2 -1.5161039999999999
v 0.97389300000000001 2 1.5071059
v 1.0959760000000001 2 1.4216219999999999
v 1.3150949000000001 2 -1.2208030000000001
v 1.2097100000000001 2 -1.3261879999999999
v 1.3261879999999999 2 1.2097100000000001
v 1.43062 2 1.0831249999999999
v 1.5161039999999999 2 0.96104199999999995
v 1.653324 2 -0.69739099999999998
v 1.5903389000000001 2 -0.83246399999999998
v 1.5969690000000001 2 0.818245
v 1.7493069999999999 2 -0.39969900000000003
v 1.7533669000000001 2 0.384546
v 1.792138 2 -0.089862999999999998
v 1.7791490999999999 2 -0.23833199999999999
v 1.780516 2 0.22270400000000001
v 1.7935049999999999 2 0.074234999999999995
v 0.39591100000000001 2 1.7503219999999999
v 1.2180299999999999 2 1.317868
v 1.710234 2 -0.54552299999999998
v 0.23833199999999999 2 1.7791490999999999
v 0.384546 2 -1.7533669000000001
v 1.153805 2 -1.38113
v 1.5565960000000001 2 -0.90321300000000004
v 1.6599539999999999 2 0.68317300000000003
v 1.7137789999999999 2 0.53229199999999999
v 1.5071059 2 -0.97389300000000001
v 1.4216219999999999 2 -1.0959760000000001
v 1.5391325 2 0.92696650000000003
v 1.5795650000000001 2 0.855568
v 0.0488385 2 1.7957269999999999
v 0.003906999999999999 2 1.7990392924593839
v 0.037117499999999998 2 -1.7961337924593841
v 0.018558749999999999 2 -1.7974481886890761
v 0.34729599999999999 -2 -1.9696149999999999
v 0.34729599999999999 -2 1.9696149999999999
v 0.68403999999999998 -2 -1.8793850000000001
v 0.68403999999999998 -2 1.8793850000000001
v 1 -2 -1.732051
v 1 -2 1.732051
v 1.2855749999999999 -2 -1.532089
v 1.2855749999999999 -2 1.532089
v 1.532089 -2 -1.2855749999999999
v 1.532089 -2 1.2855749999999999
v 1.732051 -2 -1
v 1.732051 -2 1
v 1.8793850000000001 -2 -0.68403999999999998
v 1.8793850000000001 -2 0.68403999999999998
v 1.9696149999999999 -2 -0.34729599999999999
v 1.9696149999999999 -2 0.34729599999999999
v 2 -2 0
v 0.173648 -2 -1.9848079999999999
v 0.173648 -2 1.9848079999999999
v 0.51566800000000002 -2 -1.9245000000000001
v 0.51566800000000002 -2 1.9245000000000001
v 0.84201999999999999 -2 -1.8057179000000001
v 0.84201999999999999 -2 1.8057179000000001
v 1.142787 -2 -1.6320699000000001
v 1.142787 -2 1.6320699000000001
v 1.4088320000000001 -2 -1.4088320000000001
v 1.4088320000000001 -2 1.4088320000000001
v 1.6320699000000001 -2 -1.142787
v 1.6320699000000001 -2 1.142787
v 1.8057179000000001 -2 -0.84201999999999999
v 1.8057179000000001 -2 0.84201999999999999
v 1.9245000000000001 -2 -0.51566800000000002
v 1.9245000000000001 -2 0.51566800000000002
v 1.9848079999999999 -2 -0.173648
v 1.9848079999999999 -2 0.173648
v 0.086823999999999998 -2 -1.9924040000000001
v 0.26047199999999998 -2 -1.9772110000000001
v 0.26047199999999998 -2 1.9772110000000001
v 0.086823999999999998 -2 1.9924040000000001
v 0.43148199999999998 -2 -1.947057
v 0.599854 -2 -1.9019429999999999
v 0.599854 -2 1.9019429999999999
v 0.43148199999999998 -2 1.947057
v 0.76302999999999999 -2 -1.8425518999999999
v 0.92101 -2 -1.7688839000000001
v 0.92101 -2 1.7688839000000001
v 0.76302999999999999 -2 1.8425518999999999
v 1.2141808999999999 -2 -1.5820799999999999
v 1.2141808999999999 -2 1.5820799999999999
v 1.071394 -2 1.6820600000000001
v 1.3472029999999999 -2 -1.470461
v 1.4704600999999999 -2 -1.3472029999999999
v 1.4704600999999999 -2 1.3472029999999999
v 1.3472029999999999 -2 1.470461
v 1.5820799999999999 -2 -1.2141808999999999
v 1.6820600000000001 -2 -1.071394
v 1.6820600000000001 -2 1.071394
v 1.5820799999999999 -2 1.2141808999999999
v 1.7688839000000001 -2 -0.92101
v 1.8425518999999999 -2 -0.76302999999999999
v 1.8425518999999999 -2 0.76302999999999999
v 1.7688839000000001 -2 0.92101
v 1.9019429999999999 -2 -0.599854
v 1.947057 -2 -0.43148199999999998
v 1.947057 -2 0.43148199999999998
v 1.9019429999999999 -2 0.599854
v 1.9772110000000001 -2 -0.26047199999999998
v 1.9924040000000001 -2 -0.086823999999999998
v 1.9924040000000001 -2 0.086823999999999998
v 1.9772110000000001 -2 0.26047199999999998
v 1.071394 -2 -1.6820600000000001
v 0.043411999999999999 -2 -1.996202
v 0.043411999999999999 -2 1.996202
v 0.34729599999999999 2 -1.9696149999999999
v 0.34729599999999999 2 1.9696149999999999
v 0.68403999999999998 2 -1.8793850000000001
v 0.68403999999999998 2 1.8793850000000001
v 1 2 -1.732051
v 1 2 1.732051
v 1.2855749999999999 2 -1.532089
v 1.2855749999999999 2 1.532089
v 1.532089 2 -1.2855749999999999
v 1.532089 2 1.2855749999999999
v 1.732051 2 -1
v 1.732051 2 1
v 1.8793850000000001 2 -0.68403999999999998
v 1.8793850000000001 2 0.68403999999999998
v 1.9696149999999999 2 -0.34729599999999999
v 1.9696149999999999 2 0.34729599999999999
v 2 2 0
v 0.173648 2 -1.9848079999999999
v 0.173648 2 1.9848079999999999
v 0.51566800000000002 2 -1.9245000000000001
v 0.51566800000000002 2 1.9245000000000001
v 0.84201999999999999 2 -1.8057179000000001
v 0.84201999999999999 2 1.8057179000000001
v 1.4088320000000001 2 -1.4088320000000001
v 1.4088320000000001 2 1.4088320000000001
v 1.6320699000000001 2 -1.142787
v 1.6320699000000001 2 1.142787
v 1.8057179000000001 2 -0.84201999999999999
v 1.8057179000000001 2 0.84201999999999999
v 1.9245000000000001 2 -0.51566800000000002
v 1.9848079999999999 2 -0.173648
v 1.9848079999999999 2 0.173648
v 0.086823999999999998 2 -1.9924040000000001
v 0.086823999999999998 2 1.9924040000000001
v 0.26047199999999998 2 1.9772110000000001
v 0.599854 2 -1.9019429999999999
v 0.43148199999999998 2 -1.947057
v 0.599854 2 1.9019429999999999
v 0.92101 2 -1.7688839000000001
v 0.76302999999999999 2 -1.8425518999999999
v 0.76302999999999999 2 1.8425518999999999
v 0.92101 2 1.7688839000000001
v 1.2141808999999999 2 -1.5820799999999999
v 1.071394 2 -1.6820600000000001
v 1.2141808999999999 2 1.5820799999999999
v 1.470461 2 -1.3472029999999999
v 1.3472029999999999 2 -1.4704600999999999
v 1.3472029999999999 2 1.4704600999999999
v 1.6820600000000001 2 -1.071394
v 1.5820799999999999 2 -1.2141808999999999
v 1.5820799999999999 2 1.2141808999999999
v 1.6820600000000001 2 1.071394
v 1.8425518999999999 2 -0.76302999999999999
v 1.7688839000000001 2 -0.92101
v 1.7688839000000001 2 0.92101
v 1.8425518999999999 2 0.76302999999999999
v 1.947057 2 -0.43148199999999998
v 1.9019429999999999 2 -0.599854
v 1.9019429999999999 2 0.599854
v 1.947057 2 0.43148199999999998
v 1.9924040000000001 2 -0.086823999999999998
v 1.9772110000000001 2 -0.26047199999999998
v 1.9772110000000001 2 0.26047199999999998
v 1.9924040000000001 2 0.086823999999999998
v 1.470461 2 1.3472029999999999
v 1.071394 2 1.6820600000000001
v 0.43148199999999998 2 1.947057
v 1.142787 2 1.6320699000000001
v 1.9245000000000001 2 0.51566800000000002
v 1.142787 2 -1.6320699000000001
v 0.26047199999999998 2 -1.9772110000000001
v 0.043411999999999999 2 -1.996202
v 0.043411999999999999 2 1.996202
v 0.021706 2 1.9981010000000001
v 0.31256699999999998 -1.8 -1.7726541
v 0.31256699999999998 -1.8 1.7726541
v 0.61563599999999996 -1.8 -1.6914469999999999
v 0.61563599999999996 -1.8 1.6914469999999999
v 0.90000000000000002 -1.8 1.558846
v 1.1570179 -1.8 -1.3788800000000001
v 1.1570179 -1.8 1.3788800000000001
v 1.3788800000000001 -1.8 -1.1570179
v 1.3788800000000001 -1.8 1.1570179
v 1.558846 -1.8 -0.90000000000000002
v 1.6914469999999999 -1.8 -0.61563599999999996
v 1.6914469999999999 -1.8 0.61563599999999996
v 1.7726541 -1.8 -0.31256699999999998
v 1.7726541 -1.8 0.31256699999999998
v 1.8 -1.8 0
v 0.15628300000000001 -1.8 1.786327
v 0.46410099999999999 -1.8 -1.7320499
v 0.46410099999999999 -1.8 1.7320499
v 0.75781799999999999 -1.8 -1.6251469999999999
v 0.75781799999999999 -1.8 1.6251469999999999
v 1.0285089999999999 -1.8 -1.468863
v 1.0285089999999999 -1.8 1.468863
v 1.267949 -1.8 -1.267949
v 1.267949 -1.8 1.267949
v 1.468863 -1.8 -1.0285089999999999
v 1.468863 -1.8 1.0285089999999999
v 1.6251469999999999 -1.8 -0.75781799999999999
v 1.6251469999999999 -1.8 0.75781799999999999
v 1.7320499 -1.8 -0.46410099999999999
v 1.7320499 -1.8 0.46410099999999999
v 1.786327 -1.8 -0.15628300000000001
v 1.786327 -1.8 0.15628300000000001
v 0.23442499999999999 -1.8 -1.7794909000000001
v 0.078142000000000003 -1.8 1.7931629
v 0.38833400000000001 -1.8 -1.7523519999999999
v 0.38833400000000001 -1.8 1.7523519999999999
v 0.53986900000000004 -1.8 1.711749
v 0.82890900000000001 -1.8 -1.591996
v 0.68672699999999998 -1.8 -1.6582969000000001
v 0.68672699999999998 -1.8 1.6582969000000001
v 0.82890900000000001 -1.8 1.591996
v 1.0927640000000001 -1.8 -1.4238710000000001
v 0.96425499999999997 -1.8 -1.513854
v 0.96425499999999997 -1.8 1.513854
v 1.0927640000000001 -1.8 1.4238710000000001
v 1.323415 -1.8 -1.2124839999999999
v 1.2124839999999999 -1.8 -1.3234140000000001
v 1.2124839999999999 -1.8 1.3234140000000001
v 1.323415 -1.8 1.2124839999999999
v 1.513854 -1.8 -0.96425499999999997
v 1.4238710000000001 -1.8 -1.0927640000000001
v 1.4238710000000001 -1.8 1.0927640000000001
v 1.513854 -1.8 0.96425499999999997
v 1.6582969000000001 -1.8 -0.68672699999999998
v 1.591996 -1.8 -0.82890900000000001
v 1.591996 -1.8 0.82890900000000001
v 1.6582969000000001 -1.8 0.68672699999999998
v 1.7523519999999999 -1.8 -0.38833400000000001
v 1.711749 -1.8 -0.53986900000000004
v 1.711749 -1.8 0.53986900000000004
v 1.7523519999999999 -1.8 0.38833400000000001
v 1.7794909000000001 -1.8 -0.23442499999999999
v 1.7931629 -1.8 0.078142000000000003
v 0.078142000000000003 -1.8 -1.7931629
v 0.15628300000000001 -1.8 -1.786327
v 0.53986900000000004 -1.8 -1.711749
v 1.7931629 -1.8 -0.078142000000000003
v 1.7794909000000001 -1.8 0.23442499999999999
v 0.90000000000000002 -1.8 -1.558846
v 1.558846 -1.8 0.90000000000000002
v 0.23442499999999999 -1.8 1.7794909000000001
v 0.27349599999999996 -1.8 1.7760725000000002
v 0.039071000000000002 -1.8 -1.7965814500000001
v 0.195354 -1.8 1.7829089499999999
v 0.039071000000000002 -1.8 1.7965814500000001
v 0.3504505 -1.8 1.7625030499999998
v 1.9696149999999999 -2 -0.34729599999999999
v 1.7946364664317831 -0.013284405261430317 -0.042195476121718492
v 1.5288956085978092 -1.8000000000000007 0.11747589666505504
v 1.9111882679614092 2 -0.25290109082621381
v 1.7931629 -1.8 0.078142000000000003
v 1.7820246789784147 1.5415552303967019 -0.20133859907212465
v 1.7791490999999999 2 -0.23833199999999999
v 1.8451676346291814 2 -0.24552109081789328
v 1.9772110000000001 2 -0.26047199999999998
v 0.9336350273084949 -2 -0.21330621984564058
v 0.86064954357350965 -1.8000000000000003 0.034766611050439294
v 0.72089575042620058 -1.8000000000000003 0.023519362843257306
v 1.976815240611085 1.4560545794742934 -0.26090047384666704
v 1.2446247613139509 -2 -0.21319940538711185
v 1.7891998921075345 0.55487576067940414 -0.12066324759134013
v 1.7954539145216488 -0.35719124890940657 0.0031373684438020114
v 0.45182206084300947 -2 -0.20997193609772402
v 1.7809968408326635 1.7187177896457524 -0.21332484138365199
v 1.7900669235235762 0.41589674117221909 -0.10778048153646749
v 1.2017792840540387 -1.8000000000000007 0.086596179434507717
v 1.723750217926993 -2 -0.2861180283468252
v 0.79095520534096475 -1.8000000000000005 0.028127338750053452
v 1.7888275500459414 0.62260815010450365 -0.12580560290422277
v 1.7952563080388098 -0.15380861686467839 -0.019584738719033649
v 1.1850579188225323 -2 -0.20987552855229386
v 1.4641282415870502 -1.8000000000000003 0.11799767685704216
v 0.58034491717181058 -1.8000000000000007 0.020870454966599877
v 1.7814077811090736 1.6612531703622719 -0.20942604137603921
v 1.7880980736021126 0.75389496241964871 -0.1345971272823526
v 1.9784650784184865 -0.8423981972191753 -0.24149287646598308
v 1.3993734863446319 -1.8000000000000003 0.11436798301745449
v 1.8470240748725355 -2 -0.31430085828922638
v 1.0625347319807121 -2 -0.20902087074986697
v 0.29628436261591151 -1.8000000000000007 0.027279369392683016
v 0.65064985261842656 -1.8000000000000007 0.021136155428894889
v 1.7800862733514173 1.831352789871755 -0.22179700419988685
v 1.7872293861027448 0.88173328109557225 -0.14319351189410498
v 1.7922651927534354 -1.3927447935296982 0.080766568507960546
v 1.7950450849220427 -0.97697293375292826 0.039661526988909977
v 1.9750307074901892 -0.28897629253920265 -0.27432295069582258
v 1.9773867251274186 1.7303293490656118 -0.25144658092792277
v 1.9724615713532989 0.89409247390888824 -0.29787582153895381
v 1.9743022376640891 -0.14835882939386297 -0.28086935850149031
v 1.9774559010589234 -0.63186415885905778 -0.25231261098570484
v 0.65601811465976123 -2 -0.21944913970880064
v 0.22340732886521361 -1.8000000000000007 0.026862941521352966
v 1.7906968898654638 0.34517092062811405 -0.099616919634934048
v 1.7875773319212462 0.81795197733911484 -0.13875928460195558
v 1.795375616923339 -0.22250137738112963 -0.010469191788436629
v 1.7857598964537154 1.0773617119143082 -0.16014097529555249
v 1.7823098344262847 1.4787897109538766 -0.19688979604197976
v 1.9772813790727481 1.5942950057979073 -0.25526284697425661
v 1.9746524040403051 -1.6706131208484469 -0.27945226284934843
v 1.9736545498597144 0.36863909647298554 -0.28354154167185663
v 1.9757954529430712 1.3146973232673891 -0.26761343298481666
v 1.7921470747336086 -1.7310521594960262 0.083982825682731632
v 1.9787320175627117 -0.91347909876677802 -0.23931290334696592
v 1.9745111562840982 1.1006715384033254 -0.28291119520165031
v 1.7951991680558299 -0.084046981090236839 -0.030283189467809286
v 0.32353804403375508 -2 -0.19909786052353107
v 1.973424760574904 0.63605844513685339 -0.29482496530400959
v 1.9789371494232295 -0.9846692699134747 -0.23816822931480336
v 1.9744038975581 0.22226778987892104 -0.28332816895776847
v 1.9751050960520069 1.1717255756057956 -0.27716483591504781
v 1.7922385151398696 0.20214451165995506 -0.07925647995721985
v 1.9763561775028464 1.3857371815277468 -0.26401412556418735
v 1.9739787637067678 -0.0027381034436085479 -0.28388846325972472
v 1.9722917313649031 0.69965727702408409 -0.29795123673622992
v 1.7953896735173127 -0.29021940204183377 -0.0029606407619702452
v 1.9770660286514543 1.8654139518476471 -0.25303308513874762
v 1.9718079253352718 0.82812193983659077 -0.29988058261455863
v 1.7956399513816508 -0.42372990487951123 0.0081939137528139229
v 1.9780716769935762 -0.77164195044582118 -0.24451385585501884
v 1.9761906660577153 -1.5370220215150496 -0.26646695631056305
v 1.9771641933850441 1.9327467161659508 -0.25628656143084139
v 1.973251065210069 -1.7372684646768684 -0.28798778249057289
v 1.9741565618223782 -0.076219611756237204 -0.28287155915402673
v 1.4206342149021483 -2 -0.23391184195708278
v 0.99854153873068974 -1.8000000000000007 0.052809319311219287
v 1.7943548064922372 0.058238433822365078 -0.054784777476489667
v 1.5398404316153669 -2 -0.25291074138649267
v 1.9773921032269266 1.7979511077348103 -0.25139760840945835
v 1.7840125318035307 1.2805128781875292 -0.18044513156886571
v 1.9766671742246558 -1.4700851055073523 -0.26074303863096782
v 1.7937466896446641 -1.1190693851341651 0.052249924278337675
v 1.7913972122860029 -1.5942994170632854 0.090426055974605513
v 1.2683730257851333 -1.8000000000000012 0.097666775953184862
v 0.13132185576535554 -2 -0.18576558311946623
v 1.9742090834106056 0.29635840115907824 -0.28310874107115025
v 1.9771738436200819 -0.56297323124002197 -0.2567147798984592
v 1.7927154869337407 -1.3255273188055907 0.074099053830121886
v 1.9736581539358724 0.43863202487298231 -0.28505378696254857
v 1.6620486547633344 -2 -0.27413656973530509
v 1.7263402656835254 -1.8000000000000003 0.091750409899183288
v 1.9743594318423265 -0.21921128881809607 -0.27793700329628124
v 1.9774451043690886 1.6624891650013875 -0.25292303976352559
v 1.7854665431678951 -2 -0.29946347906124987
v 1.7897164291339831 0.48588090573654397 -0.11473626031394946
v 0.065872268934714984 -2 -0.18247755048022429
v 1.7884693825621087 0.68891648580485709 -0.13037061236799297
v 1.9787994541647846 -1.0557617067537541 -0.23817100193228971
v 0.79703941767094755 -2 -0.21819425393373351
v 1.9715011140712957 0.76345716352622217 -0.29981292715934849
v 1.7952204958921367 -0.49021271492891771 0.012541384539052805
v 1.7936849492715314 -1.1888686001231097 0.05943098628929161
v 1.793366784172822 0.13017032129431674 -0.067335738365325193
v 1.9734503256211438 0.57185833024570387 -0.29107301457841073
v 0.36820960629903132 -1.8000000000000007 0.02629913621759802
v 0.1495838545031305 -1.8000000000000007 0.025044409242196849
v 1.7943279739700224 -1.0483510131533946 0.045595331262781688
v 1.7862680144400065 1.01107035698523 -0.15381210824527164
v 1.6006440691915513 -2 -0.2631839144726042
v 1.9738988721232231 1.0304985885714508 -0.28874744209750403
v 0.1960543281414614 -2 -0.1895390291445147
v 0.43934757500495192 -1.8000000000000007 0.024347899668486592
v 1.6598957186031278 -1.8000000000000007 0.10370017942038867
v 0.58622759463684548 -2 -0.21780595348961218
v 1.3034653067188908 -2.0000000000000004 -0.21851633902122325
v 1.7827700689985817 1.4141298001407319 -0.19200231450184474
v 0.8662440161862236 -2 -0.21596297081967752
v 1.9770853909692272 1.5255473860622655 -0.25800280605709125
v 1.7948834536254887 -0.83387389989244176 0.030225447722703122
v 1.3619812140057164 -2 -0.22556103495484858
v 1.7955313230258894 -0.62464526682662014 0.019893002074524106
v 1.7868309290762614 0.94593091709938903 -0.1481615565568179
v 1.1345292639825373 -1.8000000000000007 0.074986034859507056
v 1.7794275444583598 1.887429720779751 -0.2267671231818606
v 0.5099682614848533 -1.8000000000000003 0.022219999640920349
v 1.7912243880375878 -1.5267727879193655 0.089589039382314162
v 1.79142345755095 0.27387441582493699 -0.090101734232764269
v 1.7917120506021083 -1.4596922400305847 0.086170865873022612
v 0.51806788194472375 -2 -0.2145519659802895
v 1.7806203249438322 1.7752439097314152 -0.21737707530393002
v 0.075002205523680684 -1.8000000000000007 0.022147006306003157
v 1.9735711260493973 0.50626201407010007 -0.28763377117051347
v 1.7949946986362502 -0.76308078126898482 0.026557240214360317
v 1.9755972470957577 -1.6038378553504997 -0.27253828742864544
v 1.9732203476910852 0.96156396698914515 -0.29397847747335332
v 0.3872063098960814 -2 -0.2046064890067017
v 1.7915356323165876 -1.6624117318122171 0.08841746821951367
v 1.124451838744096 -2 -0.20856392702874671
v 0.99902104142595083 -2 -0.21079230013066302
v 1.9786389298050477 -1.1265413884598234 -0.23942375719384557
v 1.7788218534807507 1.943653458262014 -0.23231801114910589
v 1.7851683702507257 1.1446671506414825 -0.16692041131412216
v 1.9776170744720745 -0.70141791660570663 -0.24817283736255841
v 1.9083835867407173 -2 -0.33042494802043598
v 1.781722799842411 1.602326555237175 -0.20547492050130398
v 0.26002768360601036 -2 -0.19398264088411155
v 1.9769615577388377 -1.4028118249122388 -0.25520513116464799
v 1.3342147977361565 -1.8000000000000012 0.10726937765368286
v 0.72664073576062527 -2 -0.21949365978647206
v 1.97554394114281 1.2432219487646812 -0.27199371789931048
v 1.0667601921451979 -1.8000000000000007 0.063555784823409872
v 1.7962949399354937 -0.5570483109783777 0.01640345267772737
v 1.7932958655127278 -1.2576573145859755 0.06682999970900505
v 1.479839304153109 -2 -0.24313054125628361
v 1.5940748881937719 -1.8000000000000007 0.11258881657236929
v 1.783387816513204 1.3478844750413108 -0.18654262704051378
v 1.9714844995661083 -1.8036277663811759 -0.2989278739324
v 1.9701587401073883 -1.8695355954888764 -0.3127534703078515
v 1.7846297857171307 1.2125728987250788 -0.17381567290373684
v 1.7950963286370287 -0.90532393934100064 0.034537257607587774
v 1.9681930184468661 -1.9349764616991272 -0.32902786194490424
v 1.9778064532878519 -1.2662813135676243 -0.24549668828506338
v 1.7953245438474181 -0.69329167011257242 0.023212986132531088
v 0.92985266718337134 -1.8000000000000003 0.043106929389533512
v 1.9783092054347078 -1.1967809691061315 -0.24190084004149018
v 1.9772569287490007 -1.334941905862379 -0.25001486972543596
v 1.9742499332261798 0.071887801997005701 -0.28413403976528545
v 1.9739871019383641 0.14714907253238418 -0.28376514042560375
v 1.976309245202587 -0.42633375591240241 -0.26578464754470194
v 1.9756284716203991 -0.35791720324362863 -0.27019185340428131
v 1.9767749379257447 -0.49456637064765185 -0.26124330944302521
v 0 -2 -0.17943024881250313
v 8.6736173798840335e-19 -1.8000000000000005 0.018676529086078975
v 0 -2 -2
v 0 -2 2
v 0 -1.8 -1.8
v 0 -1.8 1.8
v 0 2 -2
v 0 2 2
v 8.6736173798840085e-19 0.10996436005185747 1.7969507816727543
v 0 -1.8 0.75448360000000003
v 8.6736173798840355e-19 1.0623633210167089 -1.7970842491770151
v 2.6020852139652106e-18 -0.3716331500362528 1.7965036321504457
v 0 1.4715654141209988 1.9961072287112451
v 0 0.77142600084754287 -1.9961209383895937
v 0 -0.74245689999999998 1.9970657999999999
v 1.7347234759767917e-18 0.76985457469775742 1.996822657085694
v 0 -1.0788013000000001 -1.7978757999999999
v 0 -1.8 -1.4426141802860575
v 0 -0.64108275114933688 -1.797363718198258
v -1.7347234759768202e-18 -2 1.3844905551408262
v 1.5720931501040369e-18 -2 -0.29501012043202235
v 0 -0.27277649999999998 -1.996847
v 0 1.8736406999999999 -1.9977931
v 0 -1.1415191931073112 -1.9956196502812218
v 1.7347234759768071e-18 -1.4111470276120792 1.9959781130676351
v 0 1.5118493117461502 1.7959478606571027
v 2.6020852139652106e-18 1.6729144398432736 -1.7964422657324903
v -3.4694469519536142e-18 -1.661291056577697 -1.9964082402391659
v -2.6020852139652106e-18 1.3732712914262293 -1.9976334369778255
v -1.7347234759768071e-18 0.94101730754150881 -1.7967998916264258
v 8.6736173798842627e-19 0.38857074695784621 -1.7970935948687272
v 0 -1.5983925000000001 -1.7972140000000001
v 8.6736173798840355e-19 1.5863050059628303 -1.9967313192700447
v -1.7347234759768071e-18 -1.0368972496740019 1.9964298841707282
v 3.4694469519536142e-18 0.82815264736884087 -1.9962586188352371
v -3.4694469519536142e-18 1.4430556814911821 -1.9974776595769386
v 3.4694469519536142e-18 -1.6056478990506904 -1.9964267457273457
v -8.6736173798838737e-19 1.3045078926213272 -1.9975751150549215
v 0 -1.1484325 -1.7975681999999999
v -3.4694469519536142e-18 0.99159164976053948 -1.7969487268496025
v -8.6736173798838814e-19 -1.127504477621347 1.796769157148459
v -8.673617379884021e-19 -0.34289455646374978 1.9964771984052927
v 0 -0.79575810324770602 1.796649377864731
v -3.4694469519536142e-18 0.031443480845893698 1.7971757443586558
v -8.6736173798840316e-19 -0.55313377758912396 1.7968028333305535
v 3.8518598887744717e-33 0.18451660399656744 1.7969353400314145
v -1.7347234759768186e-18 -1.3428062543381989 1.7965219767247231
v -8.6736173798840355e-19 -0.41438821018275074 1.9967767551875175
v 1.7347234759768071e-18 -2 -0.35234975948705616
v 0 -1.8 1.0417752
v -1.7347234759768071e-18 1.256271247665385 1.7961921313503113
v -8.6736173798840355e-19 0.16540199056016733 -1.9965816124125293
v 0 -1.2910890434578719 1.796191046898397
v 0 -1.8 -1.4983588000000001
v -3.4694469519536142e-18 -1.8 -0.44957935939303528
v 8.6736173798840355e-19 -1.7999999999999998 0.63542604855142559
v 0 -1.3010847999999999 -1.797266
v 0 -1.8 -1.1224556000000001
v 7.7037197775489434e-34 1.1342277906147387 -1.7970611555103346
v -6.9388939039072284e-18 1.7279478492826361 -1.79578796489049
v 0 1.2058938373495365 -1.79689614313541
v -1.7347234759767909e-18 -2 -0.80526416640502352
v -8.6736173798839738e-19 2 1.8761554351969132
v -8.6736173798840355e-19 -1.8 -1.1924548990808121
v -3.4694469519536142e-18 -1.8000000000000003 -1.2486796218181591
v -1.2468324983583357e-18 0.044643572143394664 -1.7973254938215022
v 3.7947076036996507e-19 2 -1.9260559242068118
v -8.6736173798840355e-19 0.90457768170431541 -1.9962540450828663
v -3.2526065174565098e-18 -1.8 1.3998019734980311
v 0 -1.8 1.333629084581063
v 3.4694469519536142e-18 2 -1.8486000662852913
v 1.2268173745746692e-31 -2 -1.0481911599528975
v -4.3368086899421757e-19 -1.8 -1.5971450733422476
v -8.6736173798840355e-19 -1.8 1.6419180075677742
v -3.4694469519536142e-18 -2 -1.4525503819865806
v -8.6736173798840355e-19 -2 -1.3406679467848535
v 4.3368086899420177e-18 -1.8 -1.3009844484098032
v -4.3368086899421622e-19 -2 1.2858371360069796
v 8.6736173798840335e-19 -2 -0.04189129348894808
v -1.7347234759768071e-18 -2 -1.2737284422730246
v -6.5052130349132192e-19 -2 -1.5226573364973173
v 1.7347234759768271e-18 -2 1.2187234747445501
v 3.0357660829594513e-18 -2 0.98450750122075359
v 0 -2 1.043293974819778
v 8.6736173798842858e-19 -1.8 -0.70282831863654538
v 1.7347234759768071e-18 -1.8000000000000003 1.5715973919293897
v -2.3852447794681098e-18 -2 -1.4009262242310698
v 0 1.9366216970060997 -1.9958943026432161
v 0 -1.9340810242353834 1.9957582879752098
v -2.1684043449709463e-19 -0.31417461302187599 -1.7972401700455456
v -3.4694469519536142e-18 -2 -0.98176586596011162
v -6.5052130349129881e-19 -2 -1.8544778903769308
v 2.1684043449709992e-18 -1.526912420219724 1.9966817981515095
v -1.084202172485504e-18 1.4158551962687707 1.9979914877750837
v 2.6020852139652106e-18 -0.66443992774053173 1.796160205769344
v 5.2041704279304213e-18 -2 -1.2015499545000563
v 1.7347234759768071e-18 -2 1.7561873417120113
v 8.6736173798839854e-19 -2 -0.73433628943252205
v 3.1441863002077787e-18 -1.8 0.97096612759665768
v -8.6736173798839218e-19 1.20579554134732 1.7964450765676228
v -1.734723475976803e-18 0.25952726437679452 1.7963739919562558
v -8.6736173798840355e-19 -2 1.5408133869752283
v -6.9388939039072284e-18 -0.42247884837476096 1.7964143892869893
v 2.6020852139652106e-18 -2 0.89584355093114221
v -4.1600086798764294e-32 -2 1.4627765158170818
v 6.5052130349131094e-19 1.5477290857562909 1.9973500965322379
v -3.4694469519536142e-18 -1.8 -1.73243470505501
v -9.7578195523694398e-19 -1.8 -1.6718852146479128
v -2.6020852139652106e-18 -1.8 -0.77313878378656253
v 1.3010426069826047e-18 -1.8000000000000003 1.4833550310255412
v 3.2526065174565133e-18 -1.8 0.89898405616851207
v -1.1926223897340553e-18 1.8065403611953521 1.7969974282231107
v -1.0842021724855275e-18 -0.85092196762948435 1.7972375908888034
v 5.4210108624274644e-19 0.87996786789110959 -1.7978432425699027
v -9.2157184661274271e-19 1.5941698615325777 -1.7960483633436946
v 8.6736173798840355e-19 -2 -0.6674691327147394
v 1.7347234759768071e-18 -2 1.0966402907319783
v -6.9388939039072284e-18 -2 1.9334167781310918
v -5.1903812001235645e-32 0.1407498454003408 1.9977128409734157
v -4.33680868994196e-19 -1.8623798713137516 1.9968988950834301
v -1.301042606982661e-18 -1.8 -0.8441466560493649
v 4.3368086899421468e-19 -1.8 -0.91358118205781835
v 2.6020852139652106e-18 -1.8 0.82637965806324276
v -3.4694469519536142e-18 1.1386450844249474 1.7955220334573183
v 0 0.40523389166311968 1.795835216370304
v 2.6020852139652106e-18 -0.74406557093363945 1.7967008823488411
v 0 0.82793286683689038 1.9961851634935757
v 0 -0.20495390430443966 1.9958848699020617
v -1.7347234759768102e-18 -0.27276505434747567 1.9959600245409295
v 0 -2 -0.17943024881250313
v -8.6736173798841048e-19 1.6799891401873501 1.9961648911139833
v -6.0715321659188241e-18 0.24236697934655532 -1.7962682226938207
v 0 1.8103784100952003 -1.9960820203242839
v -6.9388939039072284e-18 -1.8 0.58106632775948897
v 1.3481509610710651e-32 -0.34844483556724737 -1.996822669550131
v -1.0842021724855031e-18 -1.8000000000000003 0.46571788788090274
v -6.5052130349130478e-19 -0.54789989871222999 -1.9967160338594423
v -7.5894152073985156e-19 0.35924038318052365 -1.9981166487813209
v -6.5052130349130266e-19 -2 0.61337998061040033
v 3.4694469519536142e-18 -2 0.66294265554449527
v 2.6020852139652214e-18 1.6169133553044737 1.9970372366152511
v -3.9031278209478152e-18 1.4478167199878063 -1.7960632037546667
v -1.7347234759768071e-18 -0.48771944823002417 -1.7977626698971676
v -1.7347234759768071e-18 -0.55492422937985331 -1.797369247166321
v 8.6736173798840355e-19 -1.7999999999999998 0.52830975067881802
v -8.6736173798841684e-19 -0.94047226976859211 -1.7966033390465455
v 0 -0.88339624087032875 -1.7962340955836031
v 1.084202172485614e-18 1.0613018799517704 1.9974133342846325
v 4.3368086899420177e-19 1.7963246584723154 -1.796909828484393
v 1.7347234759768071e-18 1.0591236831049491 -1.9960912422687305
v -8.6736173798839719e-19 0.88758286715402668 1.9968771141520405
v -3.4694469519536142e-18 0.98616661360857738 1.9973146995961393
v -2.1684043449710119e-18 -0.81533366869421542 -1.7969859732464726
v 3.4694469519536142e-18 1.9291681350780436 1.795481148682196
v -8.6736173798840355e-19 2 1.7987625849187681
v -3.4694469519536142e-18 1.0114301718684779 1.7962989800946134
v -8.6736173798840355e-19 1.066739319575245 1.7971779164636204
v 3.4694469519536142e-18 -0.041059139733020597 1.7968556683031187
v 1.3010426069825968e-18 -0.95814160377631086 1.7965468968378908
v -2.311115933264683e-33 0.48537550843566529 -1.7967141841469179
v 4.33680868994201e-19 1.2802328108187315 -1.7971786260518319
v 2.1684043449710089e-18 0.22209802315370569 1.9977328327962194
v 2.1684043449710489e-18 -1.0115463550636283 -1.7974923904990423
v -3.4694469519536142e-18 -1.8 -0.25941589383426084
v 3.4694469519536142e-18 -2 0.090491022666064513
v 8.6736173798840335e-19 -1.8000000000000005 0.018676529086078975
v 0 -1.8000000000000005 0.098561448940172464
v 6.9388939039072284e-18 -2 -0.11327859700385162
v 2.6963019221421302e-33 -2 0.14984578068226784
v 8.6736173798840393e-19 -1.8000000000000005 -0.064804034147857986
v -3.4694469519536142e-18 -1.8000000000000005 -0.1205444669594469
v -8.6736173798838217e-19 1.5136992578655306 -1.997278073814353
v 1.7347234759768071e-18 0.5269372320407868 -1.9972317598368932
v -8.6736173798840393e-19 1.7881551435352248 1.9969603052625917
v 1.3010426069826038e-18 0.41392933461847126 1.9974704848815337
v -1.7347234759767978e-18 -0.19375362026542042 -1.9959777086123569
v -2.0800043399382147e-32 0.71285333257480321 -1.9958937226092217
v -3.4694469519536142e-18 -0.9978534572144997 -1.9962738953816266
v -2.6020852139652106e-18 -0.93898259127577632 -1.9960716364834434
v -2.6020852139651444e-18 -1.9095604891739231 -1.9967240480299806
v 2.1684043449710828e-18 1.2019515246069199 1.9976706355952021
v -1.7347234759768071e-18 0.72531066405310463 -1.7967168578983814
v 2.1684043449710119e-18 -0.29901926455866945 1.7970510235790946
v 0 0.61950545877199659 1.9959434157730653
v 8.6736173798840355e-19 0.56680426555952712 1.9961718792478047
v 0 0.31231490017652258 -1.7963604180120927
v 4.3368086899421025e-19 0.34316560560216275 1.7961669229042898
v 0 -1.4711928445942599 1.9967077974096425
v 3.4694469519536142e-18 -1.2652536794818774 1.9962035232019557
v -1.3010426069825398e-18 -1.331832342734363 1.9969080573532978
v -1.7347234759768069e-18 0.64989746701858708 -1.796396390018161
v -1.301042606982597e-18 1.9044926819897232 -1.79599415330259
v 3.4694469519536142e-18 0.88775779617546879 1.7954231751426561
v -3.4694469519536142e-18 -1.4099889298537094 -1.9957625658006548
v -6.5052130349130247e-19 0.9793166031930699 -1.9974067204607748
v 8.673617379884047e-19 -0.04533007650075771 1.9969471408598607
v -2.1684043449710397e-19 -1.1883625922725829 1.9971831906042086
v 2.6020852139652106e-18 0.057059651749260851 -1.9963058317175593
v -3.4694469519536142e-18 -0.0016308843479605709 -1.9965385791449946
v -1.7347234759768071e-18 0.074094545428054603 1.9967590480571982
v 8.6736173798840355e-19 0.023470681359465208 1.9966483846284402
v -8.6736173798843282e-19 -0.81749801902856944 1.9967661733385087
v -2.8189256484623115e-18 1.2738468120001114 1.9978217360603761
v 1.0842021724856927e-19 0.46427276664928174 -1.9973917571575681
v 8.6736173798840355e-19 0.23818844690463012 -1.9974495792430258
v 3.4694469519536142e-18 1.7343738337394874 1.9959834228363507
v 2.6020852139651925e-18 -1.6115396774690902 1.9971042789797555
v 0 -0.47004850023205835 1.9965402088061173
v -3.4694469519536142e-18 -0.52372268854825921 1.9964208361829809
v -1.3010426069825984e-18 1.3236205108833217 1.796141190651831
v 0 1.3855148057465585 1.7955694417477468
v -1.3010426069826269e-18 0.56580848891466717 -1.7963390176053304
v 8.6736173798840355e-19 -0.66912263265535987 1.996477365884634
v 1.7347234759768075e-18 -0.63384179224218429 -1.9966454584656108
v -1.7347234759768156e-18 -1.7837914945195621 1.9966012471979084
v -1.7347234759768071e-18 1.7158159447563908 1.7963797712168117
v 1.3010426069826049e-18 -1.2218229971552732 -1.7969325731165404
v 3.4694469519536138e-18 -1.1054446898170631 1.9957824241632616
v 1.6263032587283657e-18 -1.3254316694388832 -1.9973723070752958
v 8.4740917553038378e-33 1.5836005695704112 1.796768520568057
v -1.3010426069826053e-18 0.47445555692749508 1.7962583382434316
v -2.1684043449715539e-19 -1.6707481275240867 1.7969889739396117
v -4.3368086899420572e-19 -0.12622546900395842 1.9965701054466534
v -6.9388939039072284e-18 0.63953973338490266 1.7958714541915846
v 4.3368086899426148e-19 0.70404389912513443 1.7976730367261813
v 0 0.76311370571992432 1.7958593187347931
v -3.4694469519536142e-18 -1.3683951006157486 -1.7964590866368277
v -8.6736173798839411e-19 -1.6730770664120032 -1.7967111080929523
v 0 -1.7341641413563669 1.7958095886333341
v -1.5178830414797062e-18 -0.43031762789736572 -1.7980779937551494
v -1.3010426069826053e-18 -0.037918724349557231 -1.7969632485127498
v -3.0814879110195774e-33 0.16675176904595257 -1.7976929574952065
v -3.4694469519536142e-18 -1.4166658732849755 1.7966699140142706
v -4.3368086899420153e-19 -0.77952907982611663 -1.9972503878545185
v 4.3368086899418136e-19 -0.47767957723449384 1.7972928857818311
v -6.5481618109166019e-33 0.95297069889212249 1.7967827534674332
v -8.6736173798840586e-19 -2 0.47506220464143889
v 2.6020852139652145e-18 -1.5037024153272145 -1.7963077648145422
v 1.5178830414797068e-18 1.4459957563764503 1.7965599838227941
v 2.1684043449715202e-19 1.332771605790505 -1.7972991147505102
v 0 -1.8000000000000005 0.14913402535613585
v 1.0408340855860843e-17 -1.7311440469584012 -1.7958417736783618
v 0 -2 -0.23339388585250104
v -1.7347234759768202e-18 -0.85378199843875091 -1.9966004681514979
v 3.6862873864507151e-18 -1.8 -0.98055655283719556
v 1.7347234759768071e-18 -1.7999999999999998 -0.39546263468198445
v 1.7347234759768071e-18 0.56611466064491267 1.7970223920887225
v 2.6020852139652106e-18 -1.717745535871104 -1.9957465854972474
v -3.4694469519536142e-18 -1.7752295909821041 -1.995698362883175
v -3.0357660829594124e-18 -1.8 -1.3790800807045758
v 1.5178830414795059e-18 -2 1.8845119094067955
v -4.3368086899420071e-19 -1.2090312479918035 1.7956865762048961
v 4.3368086899420177e-19 -2 -0.503843873666172
v 1.3010426069826053e-18 -2 -1.7779447522815921
v 8.6736173798840355e-19 2 -1.7987625849187681
v 3.4694469519536142e-18 0.35866711938547147 1.9964093044245415
v 2.6020852139652257e-18 -1.5803719343465237 1.7969972373342564
v 4.3368086899420043e-19 -1.8 0.36051986407220016
v 2.2340787354891936e-32 -1.8000000000000003 1.2748592760414041
v 4.3368086899416643e-19 1.3477625204370076 1.9981034993924032
v 8.6736173798840374e-19 -0.054807408037622039 -1.9972641037711778
v 3.4694469519536142e-18 -1.8 0.2941554525531202
v 0 1.2355776922451946 -1.9971142165614009
v 1.7347234759768071e-18 1.6597125574583731 -1.9971104775793178
v -2.6020852139652106e-18 -0.7087693829924655 -1.7967202372604194
v -8.6736173798840335e-19 -0.89683096645473237 1.9960184041430731
v -1.7347234759768186e-18 -0.70610253955323787 -1.9971630258911748
v -3.2526065174565114e-19 -2 -0.42931083902439626
v 8.6736173798840355e-19 0.82184581036469129 1.796971024894082
v -3.4694469519536142e-18 -1.8 1.716082336304124
v -1.7347234759768067e-18 1.5238520720891384 -1.7956166616167666
v -1.7347234759768071e-18 -0.6167204775786066 1.7967240603507402
v 8.6736173798840355e-19 -1.8 0.23194666807630274
v -3.4694469519536142e-18 -2 0.55245819842577815
v -8.6736173798840181e-19 -0.19059946641682668 1.7965057587354754
v -1.0842021724855044e-18 -1.8 1.1110499537832526
v 3.0357660829594124e-18 0.30923117024675062 -1.9979411176695199
v 1.7347234759768071e-18 0.57741097193085733 -1.9965580940212595
v 8.6736173798840355e-19 -2 1.6864068512509409
v 3.4694469519536142e-18 0.10773773491558475 -1.7960689948908319
v -2.1684043449713035e-19 -1.4248439337383809 -1.7973882479345515
v 3.903127820947816e-18 -0.43237680832928538 -1.9963203166816204
v -8.6736173798840278e-19 -2 0.7370728408138647
v 1.7347234759768071e-18 -1.8322133831063612 -1.9955965834702714
v 1.7347234759768071e-18 -2 -1.1257282749153401
v 0 -0.75814015631381015 -1.7954752040722677
v -5.0074178554067995e-33 -2 -0.58736988292384251
v -1.0842021724855044e-18 -1.8 -0.33333441082373133
v 3.4694469519536142e-18 -2 1.1607072718959091
v 8.6736173798833344e-19 -1.8000000000000003 1.2060877462578499
v 3.4694469519536142e-18 -2 0.023359571590439717
v -3.4694469519536142e-18 -0.12913752875075282 -1.9954122594975126
v 1.7347234759768071e-18 -1.4934027793574434 1.7971896939149326
v -8.6736173798840355e-19 1.6358133086559303 1.7966006150427321
v -3.4694469519536142e-18 -0.38248741399868647 -1.7961692145063488
v 0 -2 1.6144274992986878
v 0 0.11111007339833379 -1.9961316894985117
v -8.6736173798840355e-19 -0.59688473436106881 1.9959294723822496
v -8.6736173798839912e-19 -1.8000000000000005 -0.19104932487201526
v -1.7347234759768171e-18 -0.98518980067709849 1.9965914416752641
v 3.4694469519536142e-18 -1.7999999999999998 0.68496786874152582
v -2.3852447794681098e-18 -2 1.8247147531757535
v -1.0842021724854834e-18 1.7422878013855494 -1.9975817961175357
v -1.7347234759768071e-18 -1.8 -1.0508010918240041
v 3.2526065174566221e-19 -1.0569681093188887 1.7978827842145457
v -1.3010426069826053e-18 -1.6804388183013588 1.9974127430287498
v 2.1684043449711942e-19 -2 0.40708121195504721
v -4.3368086899420081e-19 -2 0.23193822675090164
v -1.0408340855860843e-17 -2 -1.9284766787437353
v -3.4694469519536142e-18 -2 -1.6455747394298452
v -8.6736173798840663e-19 -2 -1.7234746892617947
v 3.4694469519536142e-18 -1.5483593268997207 -1.9964484164729697
v 1.7347234759768175e-18 -1.4904301680602354 -1.9964999998074591
v -8.67361737988397e-19 -2 -1.5956494901850533
v 3.4694469519536142e-18 1.1110153933151388 -1.9961382711485494
v -2.6020852139652106e-18 1.1651809458904634 -1.9963824050942407
v -3.8518598887744717e-34 0.69494164287327098 1.9965107984468
v 8.6736173798840355e-19 0.80495049400972229 -1.796617047905432
v 6.9388939039072284e-18 1.9188858397884925 1.9960767709610914
v 4.3368086899420216e-18 -2 0.81864174357174679
v 2.1684043449705149e-19 -1.2013474595020988 -1.9973588693706921
v -3.4694469519536142e-18 -1.2657534192601081 -1.9962860706063998
v 2.6020852139652106e-18 1.877321775844963 1.796296480591224
v 5.2041704279304174e-18 -0.23413291550622278 -1.7957403687943474
v 2.792598419361492e-33 -1.8000000000000003 -0.57093977939080898
v -3.4694469519536142e-18 -1.8 -0.65109324637007293
v -4.3368086899418406e-19 1.8474682911917293 1.9968296774083141
v 3.903127820947816e-18 -2 -0.88535840809772559
v -2.1684043449710119e-18 -1.0790908982266521 -1.9967597820772116
v 1.5178830414797089e-18 -2 0.33322669215393907
v -8.6736173798840355e-19 -1.8 -0.51063165265161936
v -8.6736173798840355e-19 -0.10472061058019357 1.7968151892329922
v -1.5178830414797118e-18 1.1120224003662251 1.9972579477181693
v 1.734723475976804e-18 0.48160381608005887 1.9960992685293071
v 1.7347234759768021e-18 0.29813729578074977 1.9975455320414912
v -4.3368086899419869e-19 2 1.9380777175984565
v -4.3368086899419763e-19 1.8504086702310194 -1.7964519908934915
v 3.0357660829594136e-18 -0.13037167006103473 -1.7965108530781937
v 1.5178830414797062e-18 0.62613436031948533 -1.9965991323368135
v -1.8431436932253317e-18 1.3902941628891556 -1.7966811592525884
v 6.5052130349130507e-19 -0.24480936548774807 1.796778391157285
v 1.6263032587282555e-18 -0.49013835352075769 -1.9965181752705314
v 0.043411999999999999 2 -1.996202
v 2.1684043449710089e-18 -2 -0.0092658609492541795
v 0 1.9683108485030498 -1.9979471513216081
v 0 -1.9670405121176917 1.9978791439876049
v -3.2526065174565233e-18 -0.45007921280462737 1.7968536375344102
v -2.2226144535952791e-18 -1.8 -1.7021599598514614
v -1.4636729328554312e-18 1.7611781529758714 1.7966885997199613
v 0.039071000000000002 -1.8 -1.7965814500000001
v 1.3010426069826019e-18 1.7071814869634188 1.996074156975167
v 1.7347234759768071e-18 0.79978932410819192 -1.9961897786124154
v 1.1384122811097804e-18 0.33423577671363713 -1.9980288832254205
v -2.1684043449710089e-18 1.0390847457218615 1.7967384482791169
v -1.0400021699691074e-32 0.74213966671117304 -1.9960073304994077
v 2.1684043449713074e-19 0.73357880242252937 1.7967661777304871
v 0.039071000000000002 -1.8 1.7965814500000001
v -3.0357660829594124e-18 -0.96841802424513801 -1.996172765932535
v -1.1926223897340002e-18 1.0237342467801738 1.9973640169403859
v 1.6263032587282549e-18 -1.146903641044823 1.9964828073837351
v 2.6020852139652106e-18 -0.70425274933708559 1.7964305440590924
v -6.505213034913146e-19 0.52559199867516626 -1.796526600876124
v -1.7347234759768071e-18 -0.49688559439015878 1.996480522494549
v -8.6736173798840355e-19 -1.4550343263212095 1.7969298039646016
v 3.2526065174567651e-19 1.3065022083046183 -1.797238870401171
v 7.5894152073985339e-19 1.4157552810615044 1.7960647127852705
v -8.1315162936408981e-19 1.3615328843398302 -1.7969901370015493
v 5.2041704279304213e-18 -1.7655720234792005 -1.7979208868391809
v 1.9515639104739072e-18 -1.8 0.32733765831266015
v -6.5052130349129804e-19 2 1.9071165763976849
v 4.3368086899420177e-19 -1.8 0.19054034671621928
v 2.168404344971005e-19 1.243063324084134 -1.7970373845936209
v -3.0357660829594124e-18 -1.7999999999999998 0.55468803921915355
v 1.0688911191349159e-32 1.5500021319141806 -1.9970046965421988
v 2.1684043449710089e-18 -1.8 0.26305106031471148
v -4.3368086899420177e-19 -1.8 -1.1574552495404062
v -2.1684043449710089e-18 -1.8 -0.48010550602232732
v 0.043411999999999999 -2 -1.996202
v 1.5720931501038894e-18 -1.8 1.0063706637983287
v -1.7347234759768071e-18 -1.8 1.758041168152062
v 0.043411999999999999 -2 1.996202
v 3.0357660829594124e-18 1.9032449554615032 1.79588881463671
v -1.3010426069826053e-18 -0.028219146192791304 -1.9969013414580861
v -5.2041704279304213e-18 -2 -1.9642383393718676
v 2.602085213965216e-18 -1.519394747479978 -1.9964742081402145
v -1.7347234759768121e-18 -1.0110435251755501 1.9965106629229963
v -1.084202172485506e-18 -0.84936495478227214 -1.7966100344150377
v -2.1684043449710066e-18 -1.8 -0.22523260935313805
v 4.3368086899420177e-19 1.138098169602801 -1.996260338121395
v -1.3010426069826103e-18 -0.94101038356591538 1.9963049229091685
v -8.6736173798841818e-19 -0.85716449274165085 1.996392288740791
v 1.0842021724854996e-18 -1.4990526324069919 1.996694797780576
v -2.16840434497098e-19 -1.8982304477745675 1.9963285915293199
v -1.3010426069825995e-18 1.2310333945063525 1.7963186039589671
v -7.5894152073985946e-19 -2 -1.5591534133411853
v 3.4694469519536142e-18 -1.5770036129752056 -1.9964375811001576
v -4.3368086899420177e-19 -1.6895182962244006 -1.9960774128682066
v -4.3368086899420038e-19 -1.8000000000000003 -0.54078571602121417
v -3.035766082959412e-18 0.27734093976153895 -1.7963143203529568
v 3.4694469519536142e-18 1.9594429198942462 1.9980383854805457
v 2.6020852139652083e-18 0.32840220758311062 1.9969774182330164
v 0.003906999999999999 2 1.7990392924593839
v -8.6736173798840047e-19 2 1.8374590100578407
v -2.1684043449710089e-18 -1.8000000000000003 -1.2205672604494855
v -1.6263032587282549e-18 -1.8 1.366715529039547
v 1.9244588561617896e-18 2 -1.8873279952460515
v 6.5052130349130545e-19 -2 1.252280305375765
v 3.198396408832146e-18 -1.8 0.93497509188258487
v -3.4694469519536142e-18 -2 1.9667083890655459
v 1.0842021724854784e-18 0.18142393427702325 1.9977228368848174
v -2.1684043449710031e-18 1.1722203128861337 1.7959835550124705
v 1.3010426069826053e-18 -0.76991183709067279 1.796675130106786
v -8.6736173798840509e-19 -0.23885947932595766 1.9959224472214956
v -3.0357660829594124e-18 -1.7999999999999998 0.60824618815545728
v -2.1684043449704889e-19 1.0866621401589978 1.9973356410014009
v 2.6020852139652106e-18 1.0850695382100439 -1.9961147567086399
v -4.3368086899419368e-19 1.2700427924332609 -1.9973446658081611
v 1.3010426069826053e-18 1.9645840675390218 1.797121866800482
v 1.3010426069826053e-18 -0.072889875156607081 1.7968354287680555
v -2.1684043449709675e-19 1.9522463409948616 -1.7973783691106791
v -2.2768245622195593e-18 -1.8 -0.29637515232899608
v -2.1684043449709981e-18 1.4783774696783563 -1.9973778666956457
v -1.7347234759768071e-18 -1.8 -1.7662173525275051
v 2.3852447794681113e-18 -0.3353262072974611 1.7967773278647701
v 4.3368086899421314e-19 0.35044282356718437 -1.7967270064404099
v 8.6736173798840355e-19 -1.4411699361031696 1.9963429552386387
v 0 1.9051311985030499 -1.996843701321608
v 8.6736173798840547e-19 1.6484512477459119 1.9966010638646172
v -6.5052130349129919e-19 1.3545676583149402 1.795855316199789
v -1.517883041479717e-18 0.60785297796662707 -1.7963677038117458
v 8.6736173798840335e-19 -1.0711709697455325 1.9961061541669949
v -1.1926223897340726e-18 1.3108046662185595 1.9979626177263896
v -1.084202172485777e-19 -1.7024561344402267 1.7963992812864729
v 0 -0.0048078294435634494 1.7970157063308871
v -2.168404344971109e-19 -0.5154066774118089 1.7970478595561923
v 1.7347234759768038e-18 0.92036424753379564 1.7961029643050446
v 0 -1.8000000000000005 0.12384773714815417
v -4.3368086899420177e-19 -1.7464875634266042 -1.9957224741902113
v -2.7105054312138612e-18 -2 1.9089643437689436
v 5.4210108624275318e-20 -2 -0.46657735634528413
v 2.385244779468109e-18 0.38629822700197136 1.9969398946530377
v 2.1684043449710089e-18 2 -1.8236813256020297
v -4.3368086899421641e-19 -0.77997745951428477 1.9969159866692543
v -3.2526065174566881e-19 1.3818088583528891 1.9980474935837433
v -1.3010426069826053e-18 1.2003793190678289 -1.9967483108278208
v -4.3368086899419706e-19 -1.6357347832060016 -1.7969625540464762
v 1.1170393677445968e-32 -1.8000000000000003 1.3042441803112337
v 4.3368086899420177e-19 0.79247975804230775 1.7964151718144374
v -4.3368086899420177e-19 -0.44221835520740455 1.9966584819968174
v -1.084202172485506e-18 -0.78673691250401279 -1.7962305886593701
v -1.3010426069826053e-18 -0.091972468394187434 -1.9963381816343451
v 2.1684043449710166e-18 -1.5368873568519836 1.7970934656245945
v -1.3010426069826061e-18 -0.30782980540561272 1.9962186114731111
v 4.7704895589362241e-18 -1.7021105566852022 -1.7962764408856571
v -4.3368086899420177e-19 0.13825603197925057 -1.9963566509555206
v 1.3010426069826053e-18 0.084084862573797325 -1.9962187606080355
v 7.0473141211557769e-19 1.8419310685201575 1.7966469544071675
v 2.6020852139652207e-18 -2 1.1897153733202295
v 1.7347234759768056e-18 0.13724475198076866 -1.7968809761930191
v -2.8731357570865737e-18 1.4190554414384811 -1.7963721815036275
v 1.951563910473908e-18 0.27370980857569038 -1.9976953484562729
v -5.5294310796760711e-18 -2 -1.8914772845603331
v 3.4694469519536142e-18 -2 0.056925297128252117
v -2.1684043449710058e-18 -2 -1.6206121148074493
v 0 -1.7670820706781836 1.7979047943166671
v -1.3010426069825722e-18 -1.9547802445869615 -1.9983620240149902
v 6.5052130349129361e-19 -1.6459892478852245 1.9972585110042527
v 2.1684043449709838e-19 -2 -0.5456068782950072
v -1.5178830414797104e-18 -1.7321151564104604 1.9970069951133291
v -2.8189256484623131e-18 -1.0384721777205759 -1.996516838729419
v -3.0357660829594136e-18 0.20455937419625395 -1.7969805900945137
v 2.1684043449710089e-18 0.85480180327008004 1.796197100018369
v -2.1684043449710089e-18 1.1026922020000962 1.7963499749604694
v -2.1684043449709935e-19 2 1.9690388587992282
v 1.8973538018498254e-19 2 -1.9630279621034059
v 1.4094628242311585e-18 -0.27191431502320873 1.7969147073681899
v -8.6736173798842955e-19 0.1074221954141977 1.9972359445153069
v 0.018558749999999999 2 -1.7974481886890761
v 1.1926223897340352e-18 -1.6255600309353051 1.7969931056369339
v 0.021706 2 1.9981010000000001
v -8.6736173798840201e-19 2 1.8181107974883044
v 2.1684043449710089e-19 1.9822920337695109 1.7979422258596252
v -0.0078139999999999998 2 1.7993159999999999
v -0.32014399999999998 2 1.770624
v -0.304753 2 -1.7733380000000001
v -0.60805900000000002 2 -1.6934769999999999
v -0.62274499999999999 2 1.688132
v -0.90642500000000004 2 1.5543469999999999
v -0.89644500000000005 2 -1.5605039999999999
v -1.1625639999999999 2 1.3733340999999999
v -1.3733340999999999 2 -1.1625639999999999
v -1.3833789999999999 2 1.1505920000000001
v -1.5621609999999999 2 0.89289099999999999
v -1.6934769999999999 2 0.60805900000000002
v -1.6897891 2 -0.61919100000000005
v -1.770624 2 -0.32014399999999998
v -1.7733380000000001 2 0.304753
v -1.7993159999999999 2 -0.0078139999999999998
v -0.14846899999999999 2 -1.7870109999999999
v -0.16409699999999999 2 1.7856430000000001
v -0.45652500000000001 2 -1.734081
v -0.47167799999999999 2 1.7300199999999999
v -0.75070899999999996 2 -1.6284609999999999
v -0.76492700000000002 2 1.6218311000000001
v -1.022084 2 -1.4733620000000001
v -1.034934 2 1.4643641000000001
v -1.2624021000000001 2 -1.273496
v -1.273496 2 1.2624021000000001
v -1.4643641000000001 2 -1.034934
v -1.4733620000000001 2 1.022084
v -1.6218311000000001 2 -0.76492700000000002
v -1.6284609999999999 2 0.75070899999999996
v -1.7300199999999999 2 -0.47167799999999999
v -1.734081 2 0.45652500000000001
v -1.7856430000000001 2 -0.16409699999999999
v -1.7870109999999999 2 0.14846899999999999
v -0.22270400000000001 2 -1.780516
v -0.074234999999999995 2 -1.7935049999999999
v -0.089862999999999998 2 1.792138
v -0.52850399999999997 2 -1.7147939999999999
v -0.54365699999999995 2 1.710734
v -0.818245 2 -1.5969690000000001
v -0.68317300000000003 2 -1.6599539999999999
v -0.69739099999999998 2 1.653324
v -0.83246399999999998 2 1.5903389000000001
v -1.0831249999999999 2 -1.43062
v -0.96104199999999995 2 -1.5161039999999999
v -0.97389300000000001 2 1.5071059
v -1.0959760000000001 2 1.4216219999999999
v -1.3150949000000001 2 -1.2208030000000001
v -1.2097100000000001 2 -1.3261879999999999
v -1.3261879999999999 2 1.2097100000000001
v -1.43062 2 1.0831249999999999
v -1.5161039999999999 2 0.96104199999999995
v -1.653324 2 -0.69739099999999998
v -1.5903389000000001 2 -0.83246399999999998
v -1.5969690000000001 2 0.818245
v -1.7493069999999999 2 -0.39969900000000003
v -1.7533669000000001 2 0.384546
v -1.792138 2 -0.089862999999999998
v -1.7791490999999999 2 -0.23833199999999999
v -1.780516 2 0.22270400000000001
v -1.7935049999999999 2 0.074234999999999995
v -0.39591100000000001 2 1.7503219999999999
v -1.2180299999999999 2 1.317868
v -1.710234 2 -0.54552299999999998
v -0.23833199999999999 2 1.7791490999999999
v -0.384546 2 -1.7533669000000001
v -1.153805 2 -1.38113
v -1.5565960000000001 2 -0.90321300000000004
v -1.6599539999999999 2 0.68317300000000003
v -1.7137789999999999 2 0.53229199999999999
v -1.5071059 2 -0.97389300000000001
v -1.4216219999999999 2 -1.0959760000000001
v -1.5391325 2 0.92696650000000003
v -1.5795650000000001 2 0.855568
v -0.0488385 2 1.7957269999999999
v -0.003906999999999999 2 1.7990392924593839
v -0.037117499999999998 2 -1.7961337924593841
v -0.018558749999999999 2 -1.7974481886890761
v -0.34729599999999999 -2 -1.9696149999999999
v -0.34729599999999999 -2 1.9696149999999999
v -0.68403999999999998 -2 -1.8793850000000001
v -0.68403999999999998 -2 1.8793850000000001
v -1 -2 -1.732051
v -1 -2 1.732051
v -1.2855749999999999 -2 -1.532089
v -1.2855749999999999 -2 1.532089
v -1.532089 -2 -1.2855749999999999
v -1.532089 -2 1.2855749999999999
v -1.732051 -2 -1
v -1.732051 -2 1
v -1.8793850000000001 -2 -0.68403999999999998
v -1.8793850000000001 -2 0.68403999999999998
v -1.9696149999999999 -2 -0.34729599999999999
v -1.9696149999999999 -2 0.34729599999999999
v -2 -2 0
v -0.173648 -2 -1.9848079999999999
v -0.173648 -2 1.9848079999999999
v -0.51566800000000002 -2 -1.9245000000000001
v -0.51566800000000002 -2 1.9245000000000001
v -0.84201999999999999 -2 -1.8057179000000001
v -0.84201999999999999 -2 1.8057179000000001
v -1.142787 -2 -1.6320699000000001
v -1.142787 -2 1.6320699000000001
v -1.4088320000000001 -2 -1.4088320000000001
v -1.4088320000000001 -2 1.4088320000000001
v -1.6320699000000001 -2 -1.142787
v -1.6320699000000001 -2 1.142787
v -1.8057179000000001 -2 -0.84201999999999999
v -1.8057179000000001 -2 0.84201999999999999
v -1.9245000000000001 -2 -0.51566800000000002
v -1.9245000000000001 -2 0.51566800000000002
v -1.9848079999999999 -2 -0.173648
v -1.9848079999999999 -2 0.173648
v -0.086823999999999998 -2 -1.9924040000000001
v -0.26047199999999998 -2 -1.9772110000000001
v -0.26047199999999998 -2 1.9772110000000001
v -0.086823999999999998 -2 1.9924040000000001
v -0.43148199999999998 -2 -1.947057
v -0.599854 -2 -1.9019429999999999
v -0.599854 -2 1.9019429999999999
v -0.43148199999999998 -2 1.947057
v -0.76302999999999999 -2 -1.8425518999999999
v -0.92101 -2 -1.7688839000000001
v -0.92101 -2 1.7688839000000001
v -0.76302999999999999 -2 1.8425518999999999
v -1.2141808999999999 -2 -1.5820799999999999
v -1.2141808999999999 -2 1.5820799999999999
v -1.071394 -2 1.6820600000000001
v -1.3472029999999999 -2 -1.470461
v -1.4704600999999999 -2 -1.3472029999999999
v -1.4704600999999999 -2 1.3472029999999999
v -1.3472029999999999 -2 1.470461
v -1.5820799999999999 -2 -1.2141808999999999
v -1.6820600000000001 -2 -1.071394
v -1.6820600000000001 -2 1.071394
v -1.5820799999999999 -2 1.2141808999999999
v -1.7688839000000001 -2 -0.92101
v -1.8425518999999999 -2 -0.76302999999999999
v -1.8425518999999999 -2 0.76302999999999999
v -1.7688839000000001 -2 0.92101
v -1.9019429999999999 -2 -0.599854
v -1.947057 -2 -0.43148199999999998
v -1.947057 -2 0.43148199999999998
v -1.9019429999999999 -2 0.599854
v -1.9772110000000001 -2 -0.26047199999999998
v -1.9924040000000001 -2 -0.086823999999999998
v -1.9924040000000001 -2 0.086823999999999998
v -1.9772110000000001 -2 0.26047199999999998
v -1.071394 -2 -1.6820600000000001
v -0.043411999999999999 -2 -1.996202
v -0.043411999999999999 -2 1.996202
v -0.34729599999999999 2 -1.9696149999999999
v -0.34729599999999999 2 1.9696149999999999
v -0.68403999999999998 2 -1.8793850000000001
v -0.68403999999999998 2 1.8793850000000001
v -1 2 -1.732051
v -1 2 1.732051
v -1.2855749999999999 2 -1.532089
v -1.2855749999999999 2 1.532089
v -1.532089 2 -1.2855749999999999
v -1.532089 2 1.2855749999999999
v -1.732051 2 -1
v -1.732051 2 1
v -1.8793850000000001 2 -0.68403999999999998
v -1.8793850000000001 2 0.68403999999999998
v -1.9696149999999999 2 -0.34729599999999999
v -1.9696149999999999 2 0.34729599999999999
v -2 2 0
v -0.173648 2 -1.9848079999999999
v -0.173648 2 1.9848079999999999
v -0.51566800000000002 2 -1.9245000000000001
v -0.51566800000000002 2 1.9245000000000001
v -0.84201999999999999 2 -1.8057179000000001
v -0.84201999999999999 2 1.8057179000000001
v -1.4088320000000001 2 -1.4088320000000001
v -1.4088320000000001 2 1.4088320000000001
v -1.6320699000000001 2 -1.142787
v -1.6320699000000001 2 1.142787
v -1.8057179000000001 2 -0.84201999999999999
v -1.8057179000000001 2 0.84201999999999999
v -1.9245000000000001 2 -0.51566800000000002
v -1.9848079999999999 2 -0.173648
v -1.9848079999999999 2 0.173648
v -0.086823999999999998 2 -1.9924040000000001
v -0.086823999999999998 2 1.9924040000000001
v -0.26047199999999998 2 1.9772110000000001
v -0.599854 2 -1.9019429999999999
v -0.43148199999999998 2 -1.947057
v -0.599854 2 1.9019429999999999
v -0.92101 2 -1.7688839000000001
v -0.76302999999999999 2 -1.8425518999999999
v -0.76302999999999999 2 1.8425518999999999
v -0.92101 2 1.7688839000000001
v -1.2141808999999999 2 -1.5820799999999999
v -1.071394 2 -1.6820600000000001
v -1.2141808999999999 2 1.5820799999999999
v -1.470461 2 -1.3472029999999999
v -1.3472029999999999 2 -1.4704600999999999
v -1.3472029999999999 2 1.4704600999999999
v -1.6820600000000001 2 -1.071394
v -1.5820799999999999 2 -1.2141808999999999
v -1.5820799999999999 2 1.2141808999999999
v -1.6820600000000001 2 1.071394
v -1.8425518999999999 2 -0.76302999999999999
v -1.7688839000000001 2 -0.92101
v -1.7688839000000001 2 0.92101
v -1.8425518999999999 2 0.76302999999999999
v -1.947057 2 -0.43148199999999998
v -1.9019429999999999 2 -0.599854
v -1.9019429999999999 2 0.599854
v -1.947057 2 0.43148199999999998
v -1.9924040000000001 2 -0.086823999999999998
v -1.9772110000000001 2 -0.26047199999999998
v -1.9772110000000001 2 0.26047199999999998
v -1.9924040000000001 2 0.086823999999999998
v -1.470461 2 1.3472029999999999
v -1.071394 2 1.6820600000000001
v -0.43148199999999998 2 1.947057
v -1.142787 2 1.6320699000000001
v -1.9245000000000001 2 0.51566800000000002
v -1.142787 2 -1.6320699000000001
v -0.26047199999999998 2 -1.9772110000000001
v -0.043411999999999999 2 -1.996202
v -0.043411999999999999 2 1.996202
v -0.021706 2 1.9981010000000001
v -0.31256699999999998 -1.8 -1.7726541
v -0.31256699999999998 -1.8 1.7726541
v -0.61563599999999996 -1.8 -1.6914469999999999
v -0.61563599999999996 -1.8 1.6914469999999999
v -0.90000000000000002 -1.8 1.558846
v -1.1570179 -1.8 -1.3788800000000001
v -1.1570179 -1.8 1.3788800000000001
v -1.3788800000000001 -1.8 -1.1570179
v -1.3788800000000001 -1.8 1.1570179
v -1.558846 -1.8 -0.90000000000000002
v -1.6914469999999999 -1.8 -0.61563599999999996
v -1.6914469999999999 -1.8 0.61563599999999996
v -1.7726541 -1.8 -0.31256699999999998
v -1.7726541 -1.8 0.31256699999999998
v -1.8 -1.8 0
v -0.15628300000000001 -1.8 1.786327
v -0.46410099999999999 -1.8 -1.7320499
v -0.46410099999999999 -1.8 1.7320499
v -0.75781799999999999 -1.8 -1.6251469999999999
v -0.75781799999999999 -1.8 1.6251469999999999
v -1.0285089999999999 -1.8 -1.468863
v -1.0285089999999999 -1.8 1.468863
v -1.267949 -1.8 -1.267949
v -1.267949 -1.8 1.267949
v -1.468863 -1.8 -1.0285089999999999
v -1.468863 -1.8 1.0285089999999999
v -1.6251469999999999 -1.8 -0.75781799999999999
v -1.6251469999999999 -1.8 0.75781799999999999
v -1.7320499 -1.8 -0.46410099999999999
v -1.7320499 -1.8 0.46410099999999999
v -1.786327 -1.8 -0.15628300000000001
v -1.786327 -1.8 0.15628300000000001
v -0.23442499999999999 -1.8 -1.7794909000000001
v -0.078142000000000003 -1.8 1.7931629
v -0.38833400000000001 -1.8 -1.7523519999999999
v -0.38833400000000001 -1.8 1.7523519999999999
v -0.53986900000000004 -1.8 1.711749
v -0.82890900000000001 -1.8 -1.591996
v -0.68672699999999998 -1.8 -1.6582969000000001
v -0.68672699999999998 -1.8 1.6582969000000001
v -0.82890900000000001 -1.8 1.591996
v -1.0927640000000001 -1.8 -1.4238710000000001
v -0.96425499999999997 -1.8 -1.513854
v -0.96425499999999997 -1.8 1.513854
v -1.0927640000000001 -1.8 1.4238710000000001
v -1.323415 -1.8 -1.2124839999999999
v -1.2124839999999999 -1.8 -1.3234140000000001
v -1.2124839999999999 -1.8 1.3234140000000001
v -1.323415 -1.8 1.2124839999999999
v -1.513854 -1.8 -0.96425499999999997
v -1.4238710000000001 -1.8 -1.0927640000000001
v -1.4238710000000001 -1.8 1.0927640000000001
v -1.513854 -1.8 0.96425499999999997
v -1.6582969000000001 -1.8 -0.68672699999999998
v -1.591996 -1.8 -0.82890900000000001
v -1.591996 -1.8 0.82890900000000001
v -1.6582969000000001 -1.8 0.68672699999999998
v -1.7523519999999999 -1.8 -0.38833400000000001
v -1.711749 -1.8 -0.53986900000000004
v -1.711749 -1.8 0.53986900000000004
v -1.7523519999999999 -1.8 0.38833400000000001
v -1.7794909000000001 -1.8 -0.23442499999999999
v -1.7931629 -1.8 0.078142000000000003
v -0.078142000000000003 -1.8 -1.7931629
v -0.15628300000000001 -1.8 -1.786327
v -0.53986900000000004 -1.8 -1.711749
v -1.7931629 -1.8 -0.078142000000000003
v -1.7794909000000001 -1.8 0.23442499999999999
v -0.90000000000000002 -1.8 -1.558846
v -1.558846 -1.8 0.90000000000000002
v -0.23442499999999999 -1.8 1.7794909000000001
v -0.27349599999999996 -1.8 1.7760725000000002
v -0.039071000000000002 -1.8 -1.7965814500000001
v -0.195354 -1.8 1.7829089499999999
v -0.039071000000000002 -1.8 1.7965814500000001
v -0.3504505 -1.8 1.7625030499999998
v 0 -2 -0.17943024881250313
v 8.6736173798840335e-19 -1.8000000000000005 0.018676529086078975
v -1.9696149999999999 -2 -0.34729599999999999
v -1.7946364664317831 -0.013284405261430317 -0.042195476121718492
v -1.5288956085978092 -1.8000000000000007 0.11747589666505504
v -1.9111882679614092 2 -0.25290109082621381
v -1.7931629 -1.8 0.078142000000000003
v -1.7820246789784147 1.5415552303967019 -0.20133859907212465
v -1.7791490999999999 2 -0.23833199999999999
v -1.8451676346291814 2 -0.24552109081789328
v -1.9772110000000001 2 -0.26047199999999998
v -0.9336350273084949 -2 -0.21330621984564058
v -0.86064954357350965 -1.8000000000000003 0.034766611050439294
v -0.72089575042620058 -1.8000000000000003 0.023519362843257306
v -1.976815240611085 1.4560545794742934 -0.26090047384666704
v -1.2446247613139509 -2 -0.21319940538711185
v -1.7891998921075345 0.55487576067940414 -0.12066324759134013
v -1.7954539145216488 -0.35719124890940657 0.0031373684438020114
v -0.45182206084300947 -2 -0.20997193609772402
v -1.7809968408326635 1.7187177896457524 -0.21332484138365199
v -1.7900669235235762 0.41589674117221909 -0.10778048153646749
v -1.2017792840540387 -1.8000000000000007 0.086596179434507717
v -1.723750217926993 -2 -0.2861180283468252
v -0.79095520534096475 -1.8000000000000005 0.028127338750053452
v -1.7888275500459414 0.62260815010450365 -0.12580560290422277
v -1.7952563080388098 -0.15380861686467839 -0.019584738719033649
v -1.1850579188225323 -2 -0.20987552855229386
v -1.4641282415870502 -1.8000000000000003 0.11799767685704216
v -0.58034491717181058 -1.8000000000000007 0.020870454966599877
v -1.7814077811090736 1.6612531703622719 -0.20942604137603921
v -1.7880980736021126 0.75389496241964871 -0.1345971272823526
v -1.9784650784184865 -0.8423981972191753 -0.24149287646598308
v -1.3993734863446319 -1.8000000000000003 0.11436798301745449
v -1.8470240748725355 -2 -0.31430085828922638
v -1.0625347319807121 -2 -0.20902087074986697
v -0.29628436261591151 -1.8000000000000007 0.027279369392683016
v -0.65064985261842656 -1.8000000000000007 0.021136155428894889
v -1.7800862733514173 1.831352789871755 -0.22179700419988685
v -1.7872293861027448 0.88173328109557225 -0.14319351189410498
v -1.7922651927534354 -1.3927447935296982 0.080766568507960546
v -1.7950450849220427 -0.97697293375292826 0.039661526988909977
v -1.9750307074901892 -0.28897629253920265 -0.27432295069582258
v -1.9773867251274186 1.7303293490656118 -0.25144658092792277
v -1.9724615713532989 0.89409247390888824 -0.29787582153895381
v -1.9743022376640891 -0.14835882939386297 -0.28086935850149031
v -1.9774559010589234 -0.63186415885905778 -0.25231261098570484
v -0.65601811465976123 -2 -0.21944913970880064
v -0.22340732886521361 -1.8000000000000007 0.026862941521352966
v -1.7906968898654638 0.34517092062811405 -0.099616919634934048
v -1.7875773319212462 0.81795197733911484 -0.13875928460195558
v -1.795375616923339 -0.22250137738112963 -0.010469191788436629
v -1.7857598964537154 1.0773617119143082 -0.16014097529555249
v -1.7823098344262847 1.4787897109538766 -0.19688979604197976
v -1.9772813790727481 1.5942950057979073 -0.25526284697425661
v -1.9746524040403051 -1.6706131208484469 -0.27945226284934843
v -1.9736545498597144 0.36863909647298554 -0.28354154167185663
v -1.9757954529430712 1.3146973232673891 -0.26761343298481666
v -1.7921470747336086 -1.7310521594960262 0.083982825682731632
v -1.9787320175627117 -0.91347909876677802 -0.23931290334696592
v -1.9745111562840982 1.1006715384033254 -0.28291119520165031
v -1.7951991680558299 -0.084046981090236839 -0.030283189467809286
v -0.32353804403375508 -2 -0.19909786052353107
v -1.973424760574904 0.63605844513685339 -0.29482496530400959
v -1.9789371494232295 -0.9846692699134747 -0.23816822931480336
v -1.9744038975581 0.22226778987892104 -0.28332816895776847
v -1.9751050960520069 1.1717255756057956 -0.27716483591504781
v -1.7922385151398696 0.20214451165995506 -0.07925647995721985
v -1.9763561775028464 1.3857371815277468 -0.26401412556418735
v -1.9739787637067678 -0.0027381034436085479 -0.28388846325972472
v -1.9722917313649031 0.69965727702408409 -0.29795123673622992
v -1.7953896735173127 -0.29021940204183377 -0.0029606407619702452
v -1.9770660286514543 1.8654139518476471 -0.25303308513874762
v -1.9718079253352718 0.82812193983659077 -0.29988058261455863
v -1.7956399513816508 -0.42372990487951123 0.0081939137528139229
v -1.9780716769935762 -0.77164195044582118 -0.24451385585501884
v -1.9761906660577153 -1.5370220215150496 -0.26646695631056305
v -1.9771641933850441 1.9327467161659508 -0.25628656143084139
v -1.973251065210069 -1.7372684646768684 -0.28798778249057289
v -1.9741565618223782 -0.076219611756237204 -0.28287155915402673
v -1.4206342149021483 -2 -0.23391184195708278
v -0.99854153873068974 -1.8000000000000007 0.052809319311219287
v -1.7943548064922372 0.058238433822365078 -0.054784777476489667
v -1.5398404316153669 -2 -0.25291074138649267
v -1.9773921032269266 1.7979511077348103 -0.25139760840945835
v -1.7840125318035307 1.2805128781875292 -0.18044513156886571
v -1.9766671742246558 -1.4700851055073523 -0.26074303863096782
v -1.7937466896446641 -1.1190693851341651 0.052249924278337675
v -1.7913972122860029 -1.5942994170632854 0.090426055974605513
v -1.2683730257851333 -1.8000000000000012 0.097666775953184862
v -0.13132185576535554 -2 -0.18576558311946623
v -1.9742090834106056 0.29635840115907824 -0.28310874107115025
v -1.9771738436200819 -0.56297323124002197 -0.2567147798984592
v -1.7927154869337407 -1.3255273188055907 0.074099053830121886
v -1.9736581539358724 0.43863202487298231 -0.28505378696254857
v -1.6620486547633344 -2 -0.27413656973530509
v -1.7263402656835254 -1.8000000000000003 0.091750409899183288
v -1.9743594318423265 -0.21921128881809607 -0.27793700329628124
v -1.9774451043690886 1.6624891650013875 -0.25292303976352559
v -1.7854665431678951 -2 -0.29946347906124987
v -1.7897164291339831 0.48588090573654397 -0.11473626031394946
v -0.065872268934714984 -2 -0.18247755048022429
v -1.7884693825621087 0.68891648580485709 -0.13037061236799297
v -1.9787994541647846 -1.0557617067537541 -0.23817100193228971
v -0.79703941767094755 -2 -0.21819425393373351
v -1.9715011140712957 0.76345716352622217 -0.29981292715934849
v -1.7952204958921367 -0.49021271492891771 0.012541384539052805
v -1.7936849492715314 -1.1888686001231097 0.05943098628929161
v -1.793366784172822 0.13017032129431674 -0.067335738365325193
v -1.9734503256211438 0.57185833024570387 -0.29107301457841073
v -0.36820960629903132 -1.8000000000000007 0.02629913621759802
v -0.1495838545031305 -1.8000000000000007 0.025044409242196849
v -1.7943279739700224 -1.0483510131533946 0.045595331262781688
v -1.7862680144400065 1.01107035698523 -0.15381210824527164
v -1.6006440691915513 -2 -0.2631839144726042
v -1.9738988721232231 1.0304985885714508 -0.28874744209750403
v -0.1960543281414614 -2 -0.1895390291445147
v -0.43934757500495192 -1.8000000000000007 0.024347899668486592
v -1.6598957186031278 -1.8000000000000007 0.10370017942038867
v -0.58622759463684548 -2 -0.21780595348961218
v -1.3034653067188908 -2.0000000000000004 -0.21851633902122325
v -1.7827700689985817 1.4141298001407319 -0.19200231450184474
v -0.8662440161862236 -2 -0.21596297081967752
v -1.9770853909692272 1.5255473860622655 -0.25800280605709125
v -1.7948834536254887 -0.83387389989244176 0.030225447722703122
v -1.3619812140057164 -2 -0.22556103495484858
v -1.7955313230258894 -0.62464526682662014 0.019893002074524106
v -1.7868309290762614 0.94593091709938903 -0.1481615565568179
v -1.1345292639825373 -1.8000000000000007 0.074986034859507056
v -1.7794275444583598 1.887429720779751 -0.2267671231818606
v -0.5099682614848533 -1.8000000000000003 0.022219999640920349
v -1.7912243880375878 -1.5267727879193655 0.089589039382314162
v -1.79142345755095 0.27387441582493699 -0.090101734232764269
v -1.7917120506021083 -1.4596922400305847 0.086170865873022612
v -0.51806788194472375 -2 -0.2145519659802895
v -1.7806203249438322 1.7752439097314152 -0.21737707530393002
v -0.075002205523680684 -1.8000000000000007 0.022147006306003157
v -1.9735711260493973 0.50626201407010007 -0.28763377117051347
v -1.7949946986362502 -0.76308078126898482 0.026557240214360317
v -1.9755972470957577 -1.6038378553504997 -0.27253828742864544
v -1.9732203476910852 0.96156396698914515 -0.29397847747335332
v -0.3872063098960814 -2 -0.2046064890067017
v -1.7915356323165876 -1.6624117318122171 0.08841746821951367
v -1.124451838744096 -2 -0.20856392702874671
v -0.99902104142595083 -2 -0.21079230013066302
v -1.9786389298050477 -1.1265413884598234 -0.23942375719384557
v -1.7788218534807507 1.943653458262014 -0.23231801114910589
v -1.7851683702507257 1.1446671506414825 -0.16692041131412216
v -1.9776170744720745 -0.70141791660570663 -0.24817283736255841
v -1.9083835867407173 -2 -0.33042494802043598
v -1.781722799842411 1.602326555237175 -0.20547492050130398
v -0.26002768360601036 -2 -0.19398264088411155
v -1.9769615577388377 -1.4028118249122388 -0.25520513116464799
v -1.3342147977361565 -1.8000000000000012 0.10726937765368286
v -0.72664073576062527 -2 -0.21949365978647206
v -1.97554394114281 1.2432219487646812 -0.27199371789931048
v -1.0667601921451979 -1.8000000000000007 0.063555784823409872
v -1.7962949399354937 -0.5570483109783777 0.01640345267772737
v -1.7932958655127278 -1.2576573145859755 0.06682999970900505
v -1.479839304153109 -2 -0.24313054125628361
v -1.5940748881937719 -1.8000000000000007 0.11258881657236929
v -1.783387816513204 1.3478844750413108 -0.18654262704051378
v -1.9714844995661083 -1.8036277663811759 -0.2989278739324
v -1.9701587401073883 -1.8695355954888764 -0.3127534703078515
v -1.7846297857171307 1.2125728987250788 -0.17381567290373684
v -1.7950963286370287 -0.90532393934100064 0.034537257607587774
v -1.9681930184468661 -1.9349764616991272 -0.32902786194490424
v -1.9778064532878519 -1.2662813135676243 -0.24549668828506338
v -1.7953245438474181 -0.69329167011257242 0.023212986132531088
v -0.92985266718337134 -1.8000000000000003 0.043106929389533512
v -1.9783092054347078 -1.1967809691061315 -0.24190084004149018
v -1.9772569287490007 -1.334941905862379 -0.25001486972543596
v -1.9742499332261798 0.071887801997005701 -0.28413403976528545
v -1.9739871019383641 0.14714907253238418 -0.28376514042560375
v -1.976309245202587 -0.42633375591240241 -0.26578464754470194
v -1.9756284716203991 -0.35791720324362863 -0.27019185340428131
v -1.9767749379257447 -0.49456637064765185 -0.26124330944302521
v 0 -2 -2
v 0 -2 2
v 0 -1.8 -1.8
v 0 -1.8 1.8
v 0 2 -2
v 0 2 2
v -8.6736173798840355e-19 2 1.7987625849187681
v 8.6736173798840355e-19 2 -1.7987625849187681
v -0.043411999999999999 2 -1.996202
v -0.039071000000000002 -1.8 -1.7965814500000001
v -0.039071000000000002 -1.8 1.7965814500000001
v -0.043411999999999999 -2 -1.996202
v -0.043411999999999999 -2 1.996202
v -0.003906999999999999 2 1.7990392924593839
v -0.018558749999999999 2 -1.7974481886890761
v -0.021706 2 1.9981010000000001
l 76/76 1/1
l 1/1 75/75
l 75/75 37/37
l 37/37 18/18
l 18/18 65/65
l 65/65 2/2
l 2/2 62/62
l 62/62 20/20
l 20/20 39/39
l 39/39 5/5
l 5/5 42/42
l 42/42 22/22
l 22/22 43/43
l 43/43 6/6
l 6/6 46/46
l 46/46 24/24
l 24/24 47/47
l 47/47 8/8
l 8/8 63/63
l 63/63 26/26
l 26/26 50/50
l 50/50 10/10
l 10/10 51/51
l 51/51 28/28
l 28/28 52/52
l 52/52 73/73
l 73/73 11/11
l 11/11 74/74
l 74/74 55/55
l 55/55 30/30
l 30/30 69/69
l 69/69 12/12
l 12/12 70/70
l 70/70 32/32
l 32/32 57/57
l 57/57 15/15
l 15/15 60/60
l 60/60 34/34
l 34/34 61/61
l 61/61 16/16
l 16/16 58/58
l 58/58 33/33
l 33/33 59/59
l 59/59 14/14
l 14/14 56/56
l 56/56 31/31
l 31/31 64/64
l 64/64 13/13
l 13/13 53/53
l 53/53 29/29
l 29/29 54/54
l 54/54 68/68
l 68/68 71/71
l 71/71 27/27
l 27/27 72/72
l 72/72 9/9
l 9/9 48/48
l 48/48 25/25
l 25/25 49/49
l 49/49 67/67
l 67/67 44/44
l 44/44 23/23
l 23/23 45/45
l 45/45 7/7
l 7/7 40/40
l 40/40 21/21
l 21/21 41/41
l 41/41 4/4
l 4/4 38/38
l 38/38 19/19
l 19/19 66/66
l 66/66 3/3
l 3/3 35/35
l 35/35 17/17
l 17/17 36/36
l 36/36 77/77
l 77/77 78/78
l 150/150 114/114
l 114/114 96/96
l 96/96 115/115
l 115/115 79/79
l 79/79 118/118
l 118/118 98/98
l 98/98 119/119
l 119/119 81/81
l 81/81 122/122
l 122/122 100/100
l 100/100 123/123
l 123/123 83/83
l 83/83 149/149
l 149/149 102/102
l 102/102 126/126
l 126/126 85/85
l 85/85 129/129
l 129/129 104/104
l 104/104 130/130
l 130/130 87/87
l 87/87 133/133
l 133/133 106/106
l 106/106 134/134
l 134/134 89/89
l 89/89 137/137
l 137/137 108/108
l 108/108 138/138
l 138/138 91/91
l 91/91 141/141
l 141/141 110/110
l 110/110 142/142
l 142/142 93/93
l 93/93 145/145
l 145/145 112/112
l 112/112 146/146
l 146/146 95/95
l 95/95 147/147
l 147/147 113/113
l 113/113 148/148
l 148/148 94/94
l 94/94 143/143
l 143/143 111/111
l 111/111 144/144
l 144/144 92/92
l 92/92 139/139
l 139/139 109/109
l 109/109 140/140
l 140/140 90/90
l 90/90 135/135
l 135/135 107/107
l 107/107 136/136
l 136/136 88/88
l 88/88 131/131
l 131/131 105/105
l 105/105 132/132
l 132/132 86/86
l 86/86 127/127
l 127/127 103/103
l 103/103 128/128
l 128/128 84/84
l 84/84 124/124
l 124/124 101/101
l 101/101 125/125
l 125/125 82/82
l 82/82 120/120
l 120/120 99/99
l 99/99 121/121
l 121/121 80/80
l 80/80 116/116
l 116/116 97/97
l 97/97 117/117
l 117/117 151/151
l 223/223 184/184
l 184/184 169/169
l 169/169 222/222
l 222/222 152/152
l 152/152 188/188
l 188/188 171/171
l 171/171 187/187
l 187/187 154/154
l 154/154 191/191
l 191/191 173/173
l 173/173 190/190
l 190/190 156/156
l 156/156 195/195
l 195/195 221/221
l 221/221 194/194
l 194/194 158/158
l 158/158 198/198
l 198/198 175/175
l 175/175 197/197
l 197/197 160/160
l 160/160 201/201
l 201/201 177/177
l 177/177 200/200
l 200/200 162/162
l 162/162 205/205
l 205/205 179/179
l 179/179 204/204
l 204/204 164/164
l 164/164 209/209
l 209/209 181/181
l 181/181 208/208
l 208/208 166/166
l 166/166 213/213
l 213/213 182/182
l 182/182 212/212
l 212/212 168/168
l 168/168 215/215
l 215/215 183/183
l 183/183 214/214
l 214/214 167/167
l 167/167 211/211
l 211/211 220/220
l 220/220 210/210
l 210/210 165/165
l 165/165 207/207
l 207/207 180/180
l 180/180 206/206
l 206/206 163/163
l 163/163 203/203
l 203/203 178/178
l 178/178 202/202
l 202/202 161/161
l 161/161 216/216
l 216/216 176/176
l 176/176 199/199
l 199/199 159/159
l 159/159 196/196
l 196/196 219/219
l 219/219 217/217
l 217/217 157/157
l 157/157 193/193
l 193/193 174/174
l 174/174 192/192
l 192/192 155/155
l 155/155 189/189
l 189/189 172/172
l 172/172 218/218
l 218/218 153/153
l 153/153 186/186
l 186/186 170/170
l 170/170 185/185
l 185/185 224/224
l 224/224 225/225
l 300/300 259/259
l 259/259 241/241
l 241/241 299/299
l 299/299 296/296
l 296/296 297/297
l 297/297 227/227
l 227/227 301/301
l 301/301 261/261
l 261/261 243/243
l 243/243 262/262
l 262/262 229/229
l 229/229 265/265
l 265/265 245/245
l 245/245 266/266
l 266/266 230/230
l 230/230 269/269
l 269/269 247/247
l 247/247 270/270
l 270/270 232/232
l 232/232 273/273
l 273/273 249/249
l 249/249 274/274
l 274/274 234/234
l 234/234 277/277
l 277/277 251/251
l 251/251 278/278
l 278/278 295/295
l 295/295 281/281
l 281/281 253/253
l 253/253 282/282
l 282/282 237/237
l 237/237 285/285
l 285/285 255/255
l 255/255 286/286
l 286/286 239/239
l 239/239 293/293
l 293/293 257/257
l 257/257 288/288
l 288/288 240/240
l 240/240 292/292
l 292/292 256/256
l 256/256 287/287
l 287/287 238/238
l 238/238 283/283
l 283/283 254/254
l 254/254 284/284
l 284/284 236/236
l 236/236 279/279
l 279/279 252/252
l 252/252 280/280
l 280/280 235/235
l 235/235 275/275
l 275/275 250/250
l 250/250 276/276
l 276/276 233/233
l 233/233 271/271
l 271/271 248/248
l 248/248 272/272
l 272/272 231/231
l 231/231 267/267
l 267/267 246/246
l 246/246 268/268
l 268/268 294/294
l 294/294 263/263
l 263/263 244/244
l 244/244 264/264
l 264/264 228/228
l 228/228 291/291
l 291/291 242/242
l 242/242 260/260
l 260/260 226/226
l 226/226 258/258
l 258/258 290/290
l 290/290 289/289
l 289/289 298/298
l 477/477 435/435
l 435/435 410/410
l 410/410 347/347
l 347/347 335/335
l 335/335 409/409
l 409/409 416/416
l 416/416 429/429
l 429/429 328/328
l 328/328 336/336
l 336/336 313/313
l 313/313 323/323
l 323/323 312/312
l 312/312 468/468
l 468/468 380/380
l 380/380 455/455
l 455/455 427/427
l 427/427 321/321
l 321/321 388/388
l 388/388 452/452
l 452/452 332/332
l 332/332 327/327
l 327/327 304/304
l 304/304 459/459
l 459/459 417/417
l 417/417 395/395
l 395/395 306/306
l 306/306 357/357
l 357/357 441/441
l 441/441 387/387
l 387/387 430/430
l 430/430 432/432
l 432/432 339/339
l 339/339 392/392
l 392/392 457/457
l 457/457 406/406
l 406/406 386/386
l 386/386 411/411
l 411/411 340/340
l 340/340 464/464
l 464/464 423/423
l 423/423 437/437
l 437/437 467/467
l 467/467 425/425
l 425/425 456/456
l 456/456 405/405
l 405/405 373/373
l 373/373 317/317
l 317/317 370/370
l 370/370 350/350
l 350/350 325/325
l 325/325 360/360
l 360/360 303/303
l 303/303 381/381
l 381/381 407/407
l 407/407 366/366
l 366/366 431/431
l 431/431 348/348
l 348/348 320/320
l 320/320 399/399
l 399/399 316/316
l 316/316 324/324
l 324/324 401/401
l 401/401 330/330
l 330/330 349/349
l 349/349 338/338
l 338/338 426/426
l 426/426 412/412
l 412/412 351/351
l 351/351 446/446
l 446/446 463/463
l 463/463 384/384
l 384/384 460/460
l 460/460 420/420
l 420/420 352/352
l 352/352 307/307
l 307/307 449/449
l 449/449 329/329
l 329/329 319/319
l 319/319 434/434
l 434/434 337/337
l 337/337 428/428
l 428/428 445/445
l 445/445 308/308
l 308/308 309/309
l 309/309 305/305
l 305/305 310/310
l 310/310 376/376
l 376/376 371/371
l 371/371 383/383
l 383/383 342/342
l 342/342 397/397
l 397/397 353/353
l 353/353 422/422
l 422/422 314/314
l 314/314 367/367
l 367/367 356/356
l 356/356 454/454
l 454/454 365/365
l 365/365 359/359
l 359/359 414/414
l 414/414 439/439
l 439/439 343/343
l 343/343 372/372
l 372/372 404/404
l 404/404 369/369
l 369/369 362/362
l 362/362 408/408
l 408/408 436/436
l 436/436 393/393
l 393/393 355/355
l 355/355 390/390
l 390/390 364/364
l 364/364 472/472
l 472/472 471/471
l 471/471 368/368
l 368/368 378/378
l 378/378 344/344
l 344/344 396/396
l 396/396 341/341
l 341/341 474/474
l 474/474 473/473
l 473/473 475/475
l 475/475 391/391
l 391/391 345/345
l 345/345 447/447
l 447/447 374/374
l 374/374 331/331
l 331/331 358/358
l 358/358 363/363
l 363/363 402/402
l 402/402 444/444
l 444/444 469/469
l 469/469 466/466
l 466/466 470/470
l 470/470 451/451
l 451/451 385/385
l 385/385 375/375
l 375/375 438/438
l 438/438 354/354
l 354/354 377/377
l 377/377 461/461
l 461/461 462/462
l 462/462 465/465
l 465/465 302/302
l 302/302 448/448
l 448/448 333/333
l 333/333 398/398
l 398/398 322/322
l 322/322 394/394
l 394/394 413/413
l 413/413 382/382
l 382/382 458/458
l 458/458 379/379
l 379/379 424/424
l 424/424 419/419
l 419/419 315/315
l 315/315 326/326
l 326/326 442/442
l 442/442 334/334
l 334/334 443/443
l 443/443 311/311
l 311/311 421/421
l 421/421 403/403
l 403/403 453/453
l 453/453 346/346
l 346/346 418/418
l 418/418 433/433
l 433/433 318/318
l 318/318 440/440
l 440/440 361/361
l 361/361 450/450
l 450/450 415/415
l 415/415 389/389
l 389/389 400/400
l 400/400 476/476
l 478/478 853/853
l 478/478 859/859
l 479/479 821/821
l 479/479 856/856
l 480/480 825/825
l 480/480 843/843
l 481/481 832/832
l 481/481 855/855
l 482/482 818/818
l 482/482 820/820
l 483/483 949/949
l 483/483 955/955
l 484/484 519/519
l 484/484 521/521
l 485/485 598/598
l 485/485 776/776
l 486/486 515/515
l 486/486 534/534
l 487/487 578/578
l 487/487 899/899
l 488/488 569/569
l 488/488 581/581
l 489/489 827/827
l 489/489 830/830
l 490/490 688/688
l 490/490 918/918
l 491/491 602/602
l 491/491 792/792
l 492/492 514/514
l 492/492 638/638
l 493/493 529/529
l 493/493 725/725
l 494/494 619/619
l 494/494 740/740
l 495/495 553/553
l 495/495 580/580
l 496/496 524/524
l 496/496 718/718
l 497/497 610/610
l 497/497 651/651
l 498/498 608/608
l 498/498 902/902
l 499/499 796/796
l 499/499 804/804
l 500/500 665/665
l 500/500 901/901
l 501/501 695/695
l 501/501 714/714
l 502/502 535/535
l 502/502 590/590
l 503/503 512/512
l 503/503 872/872
l 504/504 511/511
l 504/504 513/513
l 505/505 515/515
l 505/505 589/589
l 506/506 635/635
l 506/506 900/900
l 507/507 713/713
l 507/507 921/921
l 508/508 739/739
l 508/508 849/849
l 509/509 861/861
l 509/509 906/906
l 510/510 543/543
l 510/510 827/827
l 511/511 897/897
l 512/512 871/871
l 513/513 892/892
l 514/514 692/692
l 516/516 727/727
l 516/516 780/780
l 517/517 523/523
l 517/517 928/928
l 518/518 588/588
l 518/518 887/887
l 519/519 909/909
l 520/520 747/747
l 520/520 910/910
l 521/521 576/576
l 522/522 528/528
l 522/522 708/708
l 523/523 924/924
l 524/524 743/743
l 525/525 751/751
l 525/525 854/854
l 526/526 685/685
l 526/526 869/869
l 527/527 680/680
l 527/527 930/930
l 528/528 727/727
l 529/529 548/548
l 530/530 721/721
l 530/530 852/852
l 531/531 776/776
l 531/531 889/889
l 532/532 692/692
l 532/532 702/702
l 533/533 779/779
l 533/533 851/851
l 534/534 536/536
l 535/535 624/624
l 536/536 847/847
l 537/537 573/573
l 537/537 803/803
l 538/538 845/845
l 538/538 878/878
l 539/539 851/851
l 539/539 879/879
l 540/540 552/552
l 540/540 879/879
l 541/541 706/706
l 541/541 755/755
l 542/542 881/881
l 542/542 950/950
l 543/543 670/670
l 544/544 585/585
l 544/544 880/880
l 545/545 880/880
l 545/545 922/922
l 546/546 881/881
l 546/546 917/917
l 547/547 566/566
l 547/547 760/760
l 548/548 583/583
l 549/549 561/561
l 549/549 745/745
l 550/550 556/556
l 550/550 562/562
l 551/551 555/555
l 551/551 562/562
l 552/552 725/725
l 553/553 882/882
l 554/554 643/643
l 554/554 819/819
l 555/555 571/571
l 556/556 870/870
l 557/557 882/882
l 557/557 933/933
l 558/558 559/559
l 558/558 579/579
l 559/559 592/592
l 560/560 584/584
l 560/560 801/801
l 561/561 585/585
l 563/563 820/820
l 563/563 902/902
l 564/564 821/821
l 564/564 868/868
l 565/565 770/770
l 565/565 799/799
l 566/566 803/803
l 567/567 729/729
l 567/567 937/937
l 568/568 682/682
l 568/568 867/867
l 569/569 919/919
l 570/570 747/747
l 570/570 836/836
l 571/571 760/760
l 572/572 754/754
l 572/572 777/777
l 573/573 591/591
l 574/574 854/854
l 574/574 883/883
l 575/575 869/869
l 575/575 886/886
l 576/576 662/662
l 577/577 580/580
l 577/577 771/771
l 578/578 822/822
l 579/579 795/795
l 581/581 616/616
l 582/582 823/823
l 582/582 898/898
l 583/583 823/823
l 584/584 596/596
l 586/586 598/598
l 586/586 883/883
l 587/587 824/824
l 587/587 932/932
l 588/588 634/634
l 589/589 793/793
l 590/590 746/746
l 591/591 762/762
l 592/592 764/764
l 593/593 884/884
l 593/593 914/914
l 594/594 885/885
l 594/594 952/952
l 595/595 690/690
l 595/595 868/868
l 596/596 597/597
l 597/597 720/720
l 599/599 886/886
l 599/599 948/948
l 600/600 662/662
l 600/600 696/696
l 601/601 836/836
l 601/601 887/887
l 602/602 626/626
l 603/603 698/698
l 603/603 888/888
l 604/604 888/888
l 604/604 928/928
l 605/605 643/643
l 605/605 718/718
l 606/606 826/826
l 606/606 903/903
l 607/607 874/874
l 607/607 946/946
l 608/608 778/778
l 609/609 848/848
l 609/609 889/889
l 610/610 757/757
l 611/611 620/620
l 611/611 733/733
l 612/612 689/689
l 612/612 817/817
l 613/613 679/679
l 613/613 828/828
l 614/614 615/615
l 614/614 749/749
l 615/615 758/758
l 616/616 903/903
l 617/617 746/746
l 617/617 935/935
l 618/618 619/619
l 618/618 705/705
l 620/620 848/848
l 621/621 622/622
l 621/621 638/638
l 622/622 862/862
l 623/623 834/834
l 623/623 890/890
l 624/624 812/812
l 625/625 670/670
l 625/625 891/891
l 626/626 627/627
l 627/627 834/834
l 628/628 862/862
l 628/628 925/925
l 629/629 857/857
l 629/629 893/893
l 630/630 877/877
l 630/630 957/957
l 631/631 711/711
l 631/631 829/829
l 632/632 829/829
l 632/632 948/948
l 633/633 894/894
l 633/633 909/909
l 634/634 780/780
l 635/635 837/837
l 636/636 840/840
l 636/636 847/847
l 637/637 810/810
l 637/637 885/885
l 639/639 863/863
l 639/639 896/896
l 640/640 644/644
l 640/640 938/938
l 641/641 642/642
l 641/641 645/645
l 642/642 912/912
l 644/644 783/783
l 645/645 646/646
l 646/646 774/774
l 647/647 849/849
l 647/647 897/897
l 648/648 679/679
l 648/648 753/753
l 649/649 681/681
l 649/649 802/802
l 650/650 809/809
l 650/650 916/916
l 651/651 767/767
l 652/652 814/814
l 652/652 830/830
l 653/653 833/833
l 653/653 945/945
l 654/654 719/719
l 654/654 833/833
l 655/655 759/759
l 655/655 941/941
l 656/656 678/678
l 656/656 808/808
l 657/657 666/666
l 657/657 793/793
l 658/658 899/899
l 658/658 951/951
l 659/659 660/660
l 659/659 792/792
l 660/660 809/809
l 661/661 874/874
l 661/661 900/900
l 663/663 867/867
l 663/663 901/901
l 664/664 665/665
l 664/664 672/672
l 666/666 905/905
l 667/667 812/812
l 667/667 895/895
l 668/668 911/911
l 668/668 947/947
l 669/669 694/694
l 669/669 788/788
l 671/671 676/676
l 671/671 698/698
l 672/672 835/835
l 673/673 674/674
l 673/673 931/931
l 674/674 858/858
l 675/675 676/676
l 675/675 952/952
l 677/677 866/866
l 677/677 918/918
l 678/678 907/907
l 680/680 936/936
l 681/681 826/826
l 682/682 942/942
l 683/683 838/838
l 683/683 924/924
l 684/684 773/773
l 684/684 838/838
l 685/685 904/904
l 686/686 841/841
l 686/686 904/904
l 687/687 837/837
l 687/687 905/905
l 688/688 773/773
l 689/689 742/742
l 690/690 944/944
l 691/691 769/769
l 691/691 824/824
l 693/693 835/835
l 693/693 906/906
l 694/694 797/797
l 695/695 769/769
l 696/696 722/722
l 697/697 908/908
l 697/697 954/954
l 699/699 700/700
l 699/699 722/722
l 700/700 831/831
l 701/701 831/831
l 701/701 923/923
l 702/702 756/756
l 703/703 921/921
l 703/703 929/929
l 704/704 908/908
l 704/704 940/940
l 705/705 770/770
l 706/706 813/813
l 707/707 934/934
l 707/707 946/946
l 708/708 839/839
l 709/709 719/719
l 709/709 742/742
l 710/710 822/822
l 710/710 910/910
l 711/711 911/911
l 712/712 749/749
l 712/712 782/782
l 713/713 756/756
l 714/714 841/841
l 715/715 840/840
l 715/715 842/842
l 716/716 846/846
l 716/716 912/912
l 717/717 843/843
l 717/717 929/929
l 720/720 779/779
l 721/721 763/763
l 723/723 872/872
l 723/723 913/913
l 724/724 759/759
l 724/724 913/913
l 726/726 777/777
l 726/726 914/914
l 728/728 915/915
l 728/728 943/943
l 729/729 786/786
l 730/730 917/917
l 730/730 953/953
l 731/731 876/876
l 731/731 916/916
l 732/732 927/927
l 732/732 954/954
l 733/733 844/844
l 734/734 765/765
l 734/734 922/922
l 735/735 907/907
l 735/735 919/919
l 736/736 858/858
l 736/736 926/926
l 737/737 844/844
l 737/737 850/850
l 738/738 892/892
l 738/738 920/920
l 739/739 778/778
l 740/740 761/761
l 741/741 865/865
l 741/741 866/866
l 743/743 915/915
l 744/744 923/923
l 744/744 947/947
l 745/745 855/855
l 748/748 846/846
l 748/748 850/850
l 750/750 807/807
l 750/750 816/816
l 751/751 765/765
l 752/752 828/828
l 752/752 936/936
l 753/753 814/814
l 754/754 771/771
l 755/755 934/934
l 757/757 817/817
l 758/758 795/795
l 761/761 925/925
l 762/762 943/943
l 763/763 896/896
l 764/764 933/933
l 766/766 819/819
l 766/766 938/938
l 767/767 926/926
l 768/768 839/839
l 768/768 927/927
l 772/772 930/930
l 772/772 931/931
l 774/774 863/863
l 775/775 861/861
l 775/775 865/865
l 781/781 942/942
l 781/781 944/944
l 782/782 805/805
l 783/783 805/805
l 784/784 859/859
l 784/784 937/937
l 785/785 786/786
l 785/785 939/939
l 787/787 860/860
l 787/787 871/871
l 788/788 860/860
l 789/789 870/870
l 789/789 939/939
l 790/790 864/864
l 790/790 891/891
l 791/791 864/864
l 791/791 920/920
l 794/794 802/802
l 794/794 875/875
l 796/796 797/797
l 798/798 857/857
l 798/798 932/932
l 799/799 813/813
l 800/800 801/801
l 800/800 873/873
l 804/804 945/945
l 806/806 852/852
l 806/806 873/873
l 807/807 894/894
l 808/808 890/890
l 810/810 876/876
l 811/811 845/845
l 811/811 949/949
l 815/815 842/842
l 815/815 935/935
l 816/816 951/951
l 818/818 482/482
l 825/825 480/480
l 832/832 481/481
l 853/853 478/478
l 856/856 479/479
l 875/875 483/483
l 877/877 630/630
l 878/878 956/956
l 884/884 479/479
l 893/893 957/957
l 895/895 730/730
l 898/898 480/480
l 940/940 481/481
l 941/941 478/478
l 950/950 482/482
l 953/953 730/730
l 955/955 483/483
l 956/956 630/630
l 1033/1033 958/958
l 958/958 1032/1032
l 1032/1032 994/994
l 994/994 975/975
l 975/975 1022/1022
l 1022/1022 959/959
l 959/959 1019/1019
l 1019/1019 977/977
l 977/977 996/996
l 996/996 962/962
l 962/962 999/999
l 999/999 979/979
l 979/979 1000/1000
l 1000/1000 963/963
l 963/963 1003/1003
l 1003/1003 981/981
l 981/981 1004/1004
l 1004/1004 965/965
l 965/965 1020/1020
l 1020/1020 983/983
l 983/983 1007/1007
l 1007/1007 967/967
l 967/967 1008/1008
l 1008/1008 985/985
l 985/985 1009/1009
l 1009/1009 1030/1030
l 1030/1030 968/968
l 968/968 1031/1031
l 1031/1031 1012/1012
l 1012/1012 987/987
l 987/987 1026/1026
l 1026/1026 969/969
l 969/969 1027/1027
l 1027/1027 989/989
l 989/989 1014/1014
l 1014/1014 972/972
l 972/972 1017/1017
l 1017/1017 991/991
l 991/991 1018/1018
l 1018/1018 973/973
l 973/973 1015/1015
l 1015/1015 990/990
l 990/990 1016/1016
l 1016/1016 971/971
l 971/971 1013/1013
l 1013/1013 988/988
l 988/988 1021/1021
l 1021/1021 970/970
l 970/970 1010/1010
l 1010/1010 986/986
l 986/986 1011/1011
l 1011/1011 1025/1025
l 1025/1025 1028/1028
l 1028/1028 984/984
l 984/984 1029/1029
l 1029/1029 966/966
l 966/966 1005/1005
l 1005/1005 982/982
l 982/982 1006/1006
l 1006/1006 1024/1024
l 1024/1024 1001/1001
l 1001/1001 980/980
l 980/980 1002/1002
l 1002/1002 964/964
l 964/964 997/997
l 997/997 978/978
l 978/978 998/998
l 998/998 961/961
l 961/961 995/995
l 995/995 976/976
l 976/976 1023/1023
l 1023/1023 960/960
l 960/960 992/992
l 992/992 974/974
l 974/974 993/993
l 993/993 1034/1034
l 1034/1034 1035/1035
l 1107/1107 1071/1071
l 1071/1071 1053/1053
l 1053/1053 1072/1072
l 1072/1072 1036/1036
l 1036/1036 1075/1075
l 1075/1075 1055/1055
l 1055/1055 1076/1076
l 1076/1076 1038/1038
l 1038/1038 1079/1079
l 1079/1079 1057/1057
l 1057/1057 1080/1080
l 1080/1080 1040/1040
l 1040/1040 1106/1106
l 1106/1106 1059/1059
l 1059/1059 1083/1083
l 1083/1083 1042/1042
l 1042/1042 1086/1086
l 1086/1086 1061/1061
l 1061/1061 1087/1087
l 1087/1087 1044/1044
l 1044/1044 1090/1090
l 1090/1090 1063/1063
l 1063/1063 1091/1091
l 1091/1091 1046/1046
l 1046/1046 1094/1094
l 1094/1094 1065/1065
l 1065/1065 1095/1095
l 1095/1095 1048/1048
l 1048/1048 1098/1098
l 1098/1098 1067/1067
l 1067/1067 1099/1099
l 1099/1099 1050/1050
l 1050/1050 1102/1102
l 1102/1102 1069/1069
l 1069/1069 1103/1103
l 1103/1103 1052/1052
l 1052/1052 1104/1104
l 1104/1104 1070/1070
l 1070/1070 1105/1105
l 1105/1105 1051/1051
l 1051/1051 1100/1100
l 1100/1100 1068/1068
l 1068/1068 1101/1101
l 1101/1101 1049/1049
l 1049/1049 1096/1096
l 1096/1096 1066/1066
l 1066/1066 1097/1097
l 1097/1097 1047/1047
l 1047/1047 1092/1092
l 1092/1092 1064/1064
l 1064/1064 1093/1093
l 1093/1093 1045/1045
l 1045/1045 1088/1088
l 1088/1088 1062/1062
l 1062/1062 1089/1089
l 1089/1089 1043/1043
l 1043/1043 1084/1084
l 1084/1084 1060/1060
l 1060/1060 1085/1085
l 1085/1085 1041/1041
l 1041/1041 1081/1081
l 1081/1081 1058/1058
l 1058/1058 1082/1082
l 1082/1082 1039/1039
l 1039/1039 1077/1077
l 1077/1077 1056/1056
l 1056/1056 1078/1078
l 1078/1078 1037/1037
l 1037/1037 1073/1073
l 1073/1073 1054/1054
l 1054/1054 1074/1074
l 1074/1074 1108/1108
l 1180/1180 1141/1141
l 1141/1141 1126/1126
l 1126/1126 1179/1179
l 1179/1179 1109/1109
l 1109/1109 1145/1145
l 1145/1145 1128/1128
l 1128/1128 1144/1144
l 1144/1144 1111/1111
l 1111/1111 1148/1148
l 1148/1148 1130/1130
l 1130/1130 1147/1147
l 1147/1147 1113/1113
l 1113/1113 1152/1152
l 1152/1152 1178/1178
l 1178/1178 1151/1151
l 1151/1151 1115/1115
l 1115/1115 1155/1155
l 1155/1155 1132/1132
l 1132/1132 1154/1154
l 1154/1154 1117/1117
l 1117/1117 1158/1158
l 1158/1158 1134/1134
l 1134/1134 1157/1157
l 1157/1157 1119/1119
l 1119/1119 1162/1162
l 1162/1162 1136/1136
l 1136/1136 1161/1161
l 1161/1161 1121/1121
l 1121/1121 1166/1166
l 1166/1166 1138/1138
l 1138/1138 1165/1165
l 1165/1165 1123/1123
l 1123/1123 1170/1170
l 1170/1170 1139/1139
l 1139/1139 1169/1169
l 1169/1169 1125/1125
l 1125/1125 1172/1172
l 1172/1172 1140/1140
l 1140/1140 1171/1171
l 1171/1171 1124/1124
l 1124/1124 1168/1168
l 1168/1168 1177/1177
l 1177/1177 1167/1167
l 1167/1167 1122/1122
l 1122/1122 1164/1164
l 1164/1164 1137/1137
l 1137/1137 1163/1163
l 1163/1163 1120/1120
l 1120/1120 1160/1160
l 1160/1160 1135/1135
l 1135/1135 1159/1159
l 1159/1159 1118/1118
l 1118/1118 1173/1173
l 1173/1173 1133/1133
l 1133/1133 1156/1156
l 1156/1156 1116/1116
l 1116/1116 1153/1153
l 1153/1153 1176/1176
l 1176/1176 1174/1174
l 1174/1174 1114/1114
l 1114/1114 1150/1150
l 1150/1150 1131/1131
l 1131/1131 1149/1149
l 1149/1149 1112/1112
l 1112/1112 1146/1146
l 1146/1146 1129/1129
l 1129/1129 1175/1175
l 1175/1175 1110/1110
l 1110/1110 1143/1143
l 1143/1143 1127/1127
l 1127/1127 1142/1142
l 1142/1142 1181/1181
l 1181/1181 1182/1182
l 1257/1257 1216/1216
l 1216/1216 1198/1198
l 1198/1198 1256/1256
l 1256/1256 1253/1253
l 1253/1253 1254/1254
l 1254/1254 1184/1184
l 1184/1184 1258/1258
l 1258/1258 1218/1218
l 1218/1218 1200/1200
l 1200/1200 1219/1219
l 1219/1219 1186/1186
l 1186/1186 1222/1222
l 1222/1222 1202/1202
l 1202/1202 1223/1223
l 1223/1223 1187/1187
l 1187/1187 1226/1226
l 1226/1226 1204/1204
l 1204/1204 1227/1227
l 1227/1227 1189/1189
l 1189/1189 1230/1230
l 1230/1230 1206/1206
l 1206/1206 1231/1231
l 1231/1231 1191/1191
l 1191/1191 1234/1234
l 1234/1234 1208/1208
l 1208/1208 1235/1235
l 1235/1235 1252/1252
l 1252/1252 1238/1238
l 1238/1238 1210/1210
l 1210/1210 1239/1239
l 1239/1239 1194/1194
l 1194/1194 1242/1242
l 1242/1242 1212/1212
l 1212/1212 1243/1243
l 1243/1243 1196/1196
l 1196/1196 1250/1250
l 1250/1250 1214/1214
l 1214/1214 1245/1245
l 1245/1245 1197/1197
l 1197/1197 1249/1249
l 1249/1249 1213/1213
l 1213/1213 1244/1244
l 1244/1244 1195/1195
l 1195/1195 1240/1240
l 1240/1240 1211/1211
l 1211/1211 1241/1241
l 1241/1241 1193/1193
l 1193/1193 1236/1236
l 1236/1236 1209/1209
l 1209/1209 1237/1237
l 1237/1237 1192/1192
l 1192/1192 1232/1232
l 1232/1232 1207/1207
l 1207/1207 1233/1233
l 1233/1233 1190/1190
l 1190/1190 1228/1228
l 1228/1228 1205/1205
l 1205/1205 1229/1229
l 1229/1229 1188/1188
l 1188/1188 1224/1224
l 1224/1224 1203/1203
l 1203/1203 1225/1225
l 1225/1225 1251/1251
l 1251/1251 1220/1220
l 1220/1220 1201/1201
l 1201/1201 1221/1221
l 1221/1221 1185/1185
l 1185/1185 1248/1248
l 1248/1248 1199/1199
l 1199/1199 1217/1217
l 1217/1217 1183/1183
l 1183/1183 1215/1215
l 1215/1215 1247/1247
l 1247/1247 1246/1246
l 1246/1246 1255/1255
l 1260/1260 1394/1394
l 1394/1394 1369/1369
l 1369/1369 1306/1306
l 1306/1306 1294/1294
l 1294/1294 1368/1368
l 1368/1368 1375/1375
l 1375/1375 1388/1388
l 1388/1388 1287/1287
l 1287/1287 1295/1295
l 1295/1295 1272/1272
l 1272/1272 1282/1282
l 1282/1282 1271/1271
l 1271/1271 1427/1427
l 1427/1427 1339/1339
l 1339/1339 1414/1414
l 1414/1414 1386/1386
l 1386/1386 1280/1280
l 1280/1280 1347/1347
l 1347/1347 1411/1411
l 1411/1411 1291/1291
l 1291/1291 1286/1286
l 1286/1286 1263/1263
l 1263/1263 1418/1418
l 1418/1418 1376/1376
l 1376/1376 1354/1354
l 1354/1354 1265/1265
l 1265/1265 1316/1316
l 1316/1316 1400/1400
l 1400/1400 1346/1346
l 1346/1346 1389/1389
l 1389/1389 1391/1391
l 1391/1391 1298/1298
l 1298/1298 1351/1351
l 1351/1351 1416/1416
l 1416/1416 1365/1365
l 1365/1365 1345/1345
l 1345/1345 1370/1370
l 1370/1370 1299/1299
l 1299/1299 1423/1423
l 1423/1423 1382/1382
l 1382/1382 1396/1396
l 1396/1396 1426/1426
l 1426/1426 1384/1384
l 1384/1384 1415/1415
l 1415/1415 1364/1364
l 1364/1364 1332/1332
l 1332/1332 1276/1276
l 1276/1276 1329/1329
l 1329/1329 1309/1309
l 1309/1309 1284/1284
l 1284/1284 1319/1319
l 1319/1319 1262/1262
l 1262/1262 1340/1340
l 1340/1340 1366/1366
l 1366/1366 1325/1325
l 1325/1325 1390/1390
l 1390/1390 1307/1307
l 1307/1307 1279/1279
l 1279/1279 1358/1358
l 1358/1358 1275/1275
l 1275/1275 1283/1283
l 1283/1283 1360/1360
l 1360/1360 1289/1289
l 1289/1289 1308/1308
l 1308/1308 1297/1297
l 1297/1297 1385/1385
l 1385/1385 1371/1371
l 1371/1371 1310/1310
l 1310/1310 1405/1405
l 1405/1405 1422/1422
l 1422/1422 1343/1343
l 1343/1343 1419/1419
l 1419/1419 1379/1379
l 1379/1379 1311/1311
l 1311/1311 1266/1266
l 1266/1266 1408/1408
l 1408/1408 1288/1288
l 1288/1288 1278/1278
l 1278/1278 1393/1393
l 1393/1393 1296/1296
l 1296/1296 1387/1387
l 1387/1387 1404/1404
l 1404/1404 1267/1267
l 1267/1267 1268/1268
l 1268/1268 1264/1264
l 1264/1264 1269/1269
l 1269/1269 1335/1335
l 1335/1335 1330/1330
l 1330/1330 1342/1342
l 1342/1342 1301/1301
l 1301/1301 1356/1356
l 1356/1356 1312/1312
l 1312/1312 1381/1381
l 1381/1381 1273/1273
l 1273/1273 1326/1326
l 1326/1326 1315/1315
l 1315/1315 1413/1413
l 1413/1413 1324/1324
l 1324/1324 1318/1318
l 1318/1318 1373/1373
l 1373/1373 1398/1398
l 1398/1398 1302/1302
l 1302/1302 1331/1331
l 1331/1331 1363/1363
l 1363/1363 1328/1328
l 1328/1328 1321/1321
l 1321/1321 1367/1367
l 1367/1367 1395/1395
l 1395/1395 1352/1352
l 1352/1352 1314/1314
l 1314/1314 1349/1349
l 1349/1349 1323/1323
l 1323/1323 1431/1431
l 1431/1431 1430/1430
l 1430/1430 1327/1327
l 1327/1327 1337/1337
l 1337/1337 1303/1303
l 1303/1303 1355/1355
l 1355/1355 1300/1300
l 1300/1300 1433/1433
l 1433/1433 1432/1432
l 1432/1432 1434/1434
l 1434/1434 1350/1350
l 1350/1350 1304/1304
l 1304/1304 1406/1406
l 1406/1406 1333/1333
l 1333/1333 1290/1290
l 1290/1290 1317/1317
l 1317/1317 1322/1322
l 1322/1322 1361/1361
l 1361/1361 1403/1403
l 1403/1403 1428/1428
l 1428/1428 1425/1425
l 1425/1425 1429/1429
l 1429/1429 1410/1410
l 1410/1410 1344/1344
l 1344/1344 1334/1334
l 1334/1334 1397/1397
l 1397/1397 1313/1313
l 1313/1313 1336/1336
l 1336/1336 1420/1420
l 1420/1420 1421/1421
l 1421/1421 1424/1424
l 1424/1424 1261/1261
l 1261/1261 1407/1407
l 1407/1407 1292/1292
l 1292/1292 1357/1357
l 1357/1357 1281/1281
l 1281/1281 1353/1353
l 1353/1353 1372/1372
l 1372/1372 1341/1341
l 1341/1341 1417/1417
l 1417/1417 1338/1338
l 1338/1338 1383/1383
l 1383/1383 1378/1378
l 1378/1378 1274/1274
l 1274/1274 1285/1285
l 1285/1285 1401/1401
l 1401/1401 1293/1293
l 1293/1293 1402/1402
l 1402/1402 1270/1270
l 1270/1270 1380/1380
l 1380/1380 1362/1362
l 1362/1362 1412/1412
l 1412/1412 1305/1305
l 1305/1305 1377/1377
l 1377/1377 1392/1392
l 1392/1392 1277/1277
l 1277/1277 1399/1399
l 1399/1399 1320/1320
l 1320/1320 1409/1409
l 1409/1409 1374/1374
l 1374/1374 1348/1348
l 1348/1348 1359/1359
l 1359/1359 1259/1259
l 1435/1435 1446/1446
l 1436/1436 1447/1447
l 1437/1437 1444/1444
l 1438/1438 1445/1445
l 1439/1439 1443/1443
l 1440/1440 1450/1450
l 1441/1441 1448/1448
l 1442/1442 1449/1449
l 1443/1443 1439/1439
l 1444/1444 1437/1437
l 1445/1445 1438/1438
l 1446/1446 1435/1435
l 1447/1447 1436/1436
l 1448/1448 1441/1441
l 1449/1449 1442/1442
l 1450/1450 1440/1440
