v 143.66983187236161 -3.8443795780070675 -21.075971970282161
v 139.62046110207234 1.9177085993435112 -20.027881215173387
v 110.12296281552926 -8.0062894811468901 -11.728541828396086
v 126.12371022958555 6.680172210151885 -16.137562283148561
v 141.87894505665909 -0.88102600722644353 -20.612510688206292
v 145.03435569250624 -6.8349440236934456 -21.419868879276947
v 116.29724971616247 1.6890809030367504 -12.944768971051111
v 133.34883026048675 5.7330249405572493 -18.321612085763235
v 111.60835770284865 -4.4229502597552202 -11.798351160434382
v 119.25595490909262 4.0499970930880185 -13.873726118886974
v 122.56435234507032 5.7565141605949952 -14.966814134310493
v 113.80197142867118 -1.2341178478944594 -12.261629020905485
v 136.60627401663106 3.9901390541748292 -19.219986076861471
v 129.79453666798017 6.6920911327234185 -17.273527478674104
v 108.80669785000002 -15.5476837 -12.480148325
v 109.21186358384789 -11.750888772840753 -11.983944273297755
v 146.44429134592673 -12.708090346862839 -21.654485147529151
v 145.92723797677874 -9.807510032984915 -21.604066534299868
v 146.73305512500002 -15.5476837 -21.629558100000001
v 96.441243011854709 -10.035147253286066 29.176769001551911
v 118.802756702908 -4.8153279593567611 56.99907343949603
v 116.52554948454721 0.52088047321091946 53.981270243520598
v 108.56531914824865 6.7339009685068323 43.342195151312602
v 113.13705849291674 4.8618002802841289 49.395438555257066
v 110.96706382351846 6.168743997182335 46.495993575011283
v 103.63713935543578 4.3702431700911299 37.149811520526086
v 115.02058892117179 2.9796037487071159 51.947535574538001
v 119.51124520095944 -7.6227043911115704 57.818643082408634
v 101.48071175484637 2.0247552277363106 34.493284729638617
v 98.255891089307056 -3.967999796011787 30.820686953692807
v 99.712670252331009 -0.90893717023463072 32.428806736099624
v 106.03747097742421 6.0259434589222849 40.154282595400261
v 97.165491786595538 -7.0488226792135169 29.743357207283296
v 117.80829416793907 -2.0674761706886016 55.710589062707704
v 95.593933100000029 -15.5476837 28.90061
v 120.05133307750185 -10.353759641207382 58.321031588103708
v 95.947913433639798 -12.849037625234613 28.939864242781738
v 120.85745428750002 -15.5476837 58.750835899999998
v 120.51197782196763 -12.976020780516857 58.639551345086574
v 84.420140072927921 0.66817597003563733 -65.43901300649074
v 80.340983262066629 -2.0550699554739627 -38.166937210537604
v 85.16842404441266 -8.6288679133496551 -70.632907936089822
v 80.264683607489758 -4.8737638300150294 -36.58723689240184
v 80.257874525847711 -7.6987925934335095 -35.465920022482933
v 81.265458310459067 4.6406647218533763 -45.887217482338698
v 81.768977608761816 6.0438807116707212 -49.1376442712303
v 80.532682004825318 0.65180234811565685 -40.180944675004483
v 82.960440678688514 6.1004603318675592 -56.255908239995605
v 85.299703240060097 -12.061065881627719 -71.466467484650707
v 82.352553225779928 6.428651558423355 -52.679191616488637
v 83.539606964101523 5.2076587380434232 -59.766814564319787
v 84.022221249968098 3.2066053672740118 -62.816999000292029
v 84.997369509096529 -5.2526639643938555 -69.50099089847221
v 84.753698641745984 -2.0805521682087158 -67.807486280274958
v 80.846091356089886 2.8221587614558903 -42.881956878896439
v 85.38595964999999 -15.5476837 -71.927097349999997
v 80.295045586167703 -10.424233937619624 -34.706660513338797
v 80.379046524727698 -13.018903466228114 -34.183770702604164
v 80.501585987500007 -15.5476837 -33.949045650000002
v 67.791419449295816 -1.1417333677443808 37.971400359816485
v 60.313452032917397 1.3143419487661867 61.350213003648975
v 62.252278879296107 5.3249994364954727 55.74076624472562
v 69.189802413736629 -6.8139488022344601 35.05135347883914
v 59.466108151248093 -1.2641327425113624 63.566949131313976
v 57.591354436565254 -9.9056336282525059 67.338850432422191
v 65.326369982580871 5.2933275744754846 45.686804047303198
v 64.365721503624144 6.441243951266344 48.946712035037081
v 61.225835308987016 3.6821559615870494 58.810747074269059
v 58.15847488095303 -7.0547479738587837 66.402965963605936
v 68.514517056783887 -3.9031606317316161 36.240958973117479
v 67.050200839890991 1.5127871754149087 40.024510360703189
v 63.315829312829578 6.2892448180082035 52.402801317732091
v 66.221256083686939 3.6867077435032112 42.646625939919232
v 58.772575495632665 -4.1471886961715478 65.175954685223232
v 56.707994475000021 -15.5476837 68.102491375
v 69.796403459095984 -9.7743948985943803 34.394920994436681
v 70.397684250188348 -12.678635566585168 34.031289115842341
v 70.976673149999996 -15.5476837 33.935915449999996
v 57.117155070729581 -12.739185976882839 67.868714875258945
v 42.322391832366861 -8.2381832210873362 -3.1467671574174076
v 39.535868043483859 -2.4524212855846796 -3.0017357390025206
v 12.789560672651717 14.121625259738728 -1.2788770663412965
v 16.50396729048288 13.247508603040995 -1.4268225827448506
v 42.951112188361016 -10.866963959480636 -3.2466080682129115
v 41.249901691402982 -5.3882094705683805 -3.0677750373699735
v 27.997207063168382 8.524325994835209 -2.2365027927019296
v 34.731137174943946 3.5490872734430283 -2.7405575634189088
v 9.2757889144208114 14.659442325588561 -1.2182774267078817
v 37.310204782690334 0.52747538183562548 -2.8988284580144397
v 20.358389134025884 12.05995788836138 -1.6545034100280289
v 24.257513562862624 10.548250490425415 -1.9385697849785708
v 31.554784487135539 6.2162509085018645 -2.5173401348811
v 43.415839175000002 -15.5476837 -3.5291615750000016
v 2.946605618066231 15.334477203747875 -1.3309224613107065
v 6.0068805606758602 15.039744933251358 -1.2418828814134943
v 43.294846072572966 -13.27299467459444 -3.3732058677437777
v -1.1102230246251565e-16 15.51217402016916 -1.453938891519112
v 0 15.516506200000002 -3.2021646000000015
v 6.9388939039074826e-18 2.8524421372338136 -41.244081619313803
v 148.35842895000002 -15.5476837 16.157938499999997
v 110.75157930000003 -15.5476837 65.05569460000001
v 0.6398600562500002 -15.123534144272357 -52.284236436896308
v 2.2204460492503131e-16 5.4385978652563693 -37.983631237614148
v 75.104587549999991 -15.5476837 -71.736995699999994
v 62.472101199999997 -15.5476837 -30.02031135
v 44.27725980000001 -15.5476837 -7.0807233000000025
v 2.7755575615629357e-17 3.9849155109542296 40.189413563595416
v 43.861042949999998 -15.5476837 3.8277804500000001
v 101.53481675000002 -15.5476837 23.817434299999999
v 106.9031334 -15.5476837 16.6274333
v 104.60772704999999 -15.5476837 20.359635350000001
v -1.11022302462516e-16 14.391109845004374 -13.90980478565206
v 0 13.653825128372585 -17.909655428302845
v -5.5511151231258037e-17 -1.3555297818872794 -45.174281514035044
v 1.1102230246251565e-16 9.5659828419697028 -31.240334624822708
v 66.598121649999996 -15.5476837 -32.12638475
v 82.372985849999992 -15.5476837 33.798068999999998
v 34.387889899999998 -15.5476837 60.119785299999997
v 96.31572915000001 -15.5476837 -28.046751974999996
v 37.5493393 -15.5476837 61.392957699999997
v 136.86185455 -15.5476837 -42.476320250000001
v 118.70787047500002 -15.5476837 60.284680399999999
v 92.728073099999989 -15.5476837 -71.130523699999998
v 63.8553085 -15.5476837 -69.710990899999999
v 104.317131 -15.5476837 67.973918949999998
v 26.170433000000006 -15.5476837 -56.44759082500002
v 92.863227800000004 -15.5476837 -30.362972299999999
v 77.994815850000009 -15.5476837 34.370183900000001
v 88.816595100000001 -15.5476837 -32.038599974999997
v 16.91197395 -15.5476837 -54.099128749999998
v 98.935485799999995 -15.5476837 -26.128736499999999
v 101.555545825 -15.5476837 -23.7479625
v 50.2272301 -15.5476837 21.389890699999999
v 82.340824124999997 -15.5476837 -72.052640925000006
v 92.542736050000002 -15.5476837 30.629961450000003
v 145.00885392499998 -15.5476837 -27.537073100000011
v 146.2870178 -15.5476837 -23.280284900000009
v 138.76412582500001 -15.5476837 39.485291499999995
v 89.114833849999997 -15.5476837 -71.433681500000006
v 146.74025345000001 -15.5476837 22.192815799999998
v 88.610370649999993 -15.5476837 71.866020200000008
v 128.86128615000001 -15.5476837 -51.85714819999999
v 70.744571699999995 -15.5476837 -70.962219250000004
v 89.757476800000006 -15.5476837 32.246707899999997
v 56.707994475000021 -15.5476837 68.102491375
v 71.115993500000002 -15.5476837 71.918163300000003
v 85.581649800000008 -15.5476837 33.208781249999994
v 104.50920870000004 -15.5476837 -20.2132778
v 106.32913402500002 -15.5476837 -17.150887024999996
v 149.39732359999999 -15.5476837 -9.6304072999999999
v 149.9742737 -15.5476837 2.2088384000000003
v 127.89148710000001 -15.5476837 53.140920650000005
v 44.184333799999997 -15.5476837 7.3979583
v 108.80669785000002 -15.5476837 -12.480148325
v 43.415839175000002 -15.5476837 -3.5291615750000016
v 60.747589099999999 -15.5476837 -69.109062199999997
v 31.55245115 -15.5476837 59.164901700000001
v 85.38595964999999 -15.5476837 -71.927097349999997
v 130.12121580000002 -15.5476837 50.781942349999994
v 48.522092800000003 -15.5476837 -64.974414799999991
v 58.3036995 -15.5476837 29.288980500000001
v 56.142536149999998 -15.5476837 27.285525349999997
v 46.445232400000002 -15.5476837 15.017346399999999
v 46.782296150000001 -15.5476837 -14.057695425000002
v 111.6354675 -15.5476837 -1.5908659999999999
v 111.283426275 -15.5476837 2.5892628750000002
v 78.445531875 -15.5476837 -34.067025200000003
v 45.473400099999999 -15.5476837 11.466237800000002
v 52.099456799999999 -15.5476837 -66.501258849999999
v 68.806961099999995 -15.5476837 33.691215499999998
v 65.927330049999995 -15.5476837 32.657932249999995
v 108.63143922500001 -15.5476837 -65.502103774999995
v 4.8003686999999999 -15.5476837 51.934338574999998
v 141.72662355 -15.5476837 -34.471590050000003
v 75.412284900000003 -15.5476837 -34.1979446
v 114.17691232499999 -15.5476837 63.187620174999999
v 97.022012700000033 -15.5476837 -69.828138324999998
v 150 -15.5476837 -1.1477058
v 125.46878810000003 -15.5476837 55.22140880000002
v 80.087867700000004 -15.5476837 72.424591050000004
v 149.7658615 -15.5476837 6.6133472000000006
v 93.317209249999991 -15.5476837 71.263414400000002
v 114.893712975 -15.5476837 -62.209430699999999
v 117.30514530000001 -15.5476837 -60.653755199999999
v 9.8465366500000009 -15.5476837 52.408674249999997
v 75.554550199999994 -15.5476837 72.486187000000001
v 123.20304109999999 -15.5476837 -56.628684999999997
v 99.075563450000033 -15.5476837 26.481842499999999
v 132.6102104 -15.5476837 47.553362874999991
v 107.64672849999999 -15.5476837 66.601600599999998
v 140.80958559999999 -15.5476837 36.342910799999999
v 143.45521550000001 -15.5476837 -30.901033399999996
v 95.593933100000029 -15.5476837 28.90061
v 7.3384740500000003 -15.5476837 -52.601650250000006
v 108.38139339999999 -15.5476837 13.8591976
v 135.81585315000001 -15.5476837 43.15104865
v 102.0539589 -15.5476837 -68.114219675000001
v 105.7972031 -15.5476837 -66.728744500000005
v 147.17909245000001 -15.5476837 -19.9788313
v 148.13018800000003 -15.5476837 -16.115255399999999
v 133.80952454999999 -15.5476837 -46.24635700000001
v 43.429683700000005 -15.5476837 0.099741399999999994
v 109.88159940000003 -15.5476837 -8.4207982999999995
v 110.90489765000001 -15.5476837 -4.528542175000001
v 109.83710479999999 -15.5476837 10.929770000000005
v 139.64189145 -15.5476837 -38.680777575
v 52.935078625000003 -15.5476837 24.389621224999999
v 144.42916869999999 -15.5476837 28.846573849999999
v 48.975849199999999 -15.5476837 -17.895463899999999
v 51.548535325000003 -15.5476837 -21.214170000000006
v 78.5513306 -15.5476837 -72.211334199999996
v 48.407291424999997 -15.5476837 18.106526375000001
v 13.904069224999997 -15.5476837 53.408056224999996
v 27.458517100000002 -15.5476837 57.713426600000005
v 63.275934199999995 -15.5476837 70.171100600000003
v 60.446849800000003 -15.5476837 69.289016700000005
v 40.853668200000001 -15.5476837 -62.356775249999998
v 51.929640800000001 -15.5476837 66.473411549999994
v 44.477124224999997 -15.5476837 63.775324825000013
v 149.83055880000001 -15.5476837 -5.1658116500000002
v 149.16333005000001 -15.5476837 11.914164999999999
v 67.174625399999996 -15.5476837 71.117057799999998
v 19.394456850000001 -15.5476837 54.96577645
v 125.69021225 -15.5476837 -54.574527749999994
v 82.5576401 -15.5476837 -33.831066100000001
v 119.90976524999999 -15.5476837 -59.026333800000003
v 23.319480925000001 -15.5476837 56.217916475000003
v 40.409297899999999 -15.5476837 62.319236799999999
v 142.30164908749998 -15.5476837 33.705821962500004
v 66.583740199999994 -15.5476837 -70.189567550000007
v 73.146385199999997 -15.5476837 34.180615399999994
v 123.00703810000002 -15.5476837 57.216991399999998
v 99.175041199999995 -15.5476837 69.815611862499992
v 56.566627499999996 -15.5476837 -68.008277849999999
v 147.55474849999999 -15.5476837 19.006691
v 11.961536150000001 -15.5476837 -53.382100125000001
v 145.56024170000001 -15.5476837 25.8729534
v 36.310900724999996 -15.5476837 -60.741839425000002
v 44.964326900000003 -15.5476837 -63.650612800000005
v 131.70845030000001 -15.5476837 -48.627288800000002
v 30.982305500000002 -15.5476837 -58.49577140000001
v 84.519619000000006 -15.5476837 72.104022999999998
v 148.85184479999998 -15.5476837 -13.009351750000002
v 58.351675000000007 -15.5476837 -27.545547500000005
v 54.909774750000011 -15.5476837 -24.647450450000008
v 45.0042057 -15.5476837 -10.3314719
v 48.089221999999999 -15.5476837 65.118957499999993
v 4.2596616999999997 -15.5476837 -52.161670700000002
v 61.574275974999999 -15.5476837 30.860999124999999
v 111.6512146 -15.5476837 -64.0122681
v 21.832291599999998 -15.5476837 -55.044780750000015
v 110.705719 -15.5476837 7.1212861499999995
v 71.410982149999995 -15.5476837 -33.251158724999996
v 2.2204460492503131e-16 15.151675393984139 -6.9375679847478899
v -1.6653345369377328e-16 -6.1903183315060897 48.709947956326225
v 0 14.857391785023717 10.41828977482024
v -5.5511151231257617e-17 -2.4985926401321117 46.64822640777615
v 3.2047474274603605e-31 10.969236311751377 27.646506817191899
v 2.4035605705952699e-31 7.9113764334012773 -34.512830688410219
v -8.3266726846886568e-17 13.306941200407662 19.410817885880036
v 1.3877787807814469e-17 15.372825886556358 4.273755982615711
v -2.2204460492503131e-16 15.507841840338319 0.29428681696177617
v 5.5511151231258e-17 -9.7354315228243671 -50.55830421593474
v -5.551115123125742e-17 12.197424721128087 23.608479888626576
v -4.4408920985006262e-16 7.72692437713415 34.566530000069136
v -5.5511151231257864e-17 6.3779889905663918 37.009468105754955
v 0.34485597500000015 -14.476975126241808 51.711636218553245
v -1.1102230246251602e-16 -4.2880592613728385 -47.516269664916472
v -5.5511151231257827e-17 0.64341813446579543 43.850554123194016
v -6.2450045135164994e-17 14.791800456464951 -10.741176724314318
v 8.3266726846886741e-17 12.691080609112113 -22.360662302200883
v -1.6653345369377368e-16 -10.035210854109154 50.5028474147026
v 0 15.099259792559376 7.6400332777669835
v 1.1102230246251565e-16 9.2603701663726792 31.599249592842771
v -2.7755575615628914e-17 14.30957850929757 14.429181733248688
v 5.551115123125718e-17 11.122835605616523 -27.096636011084165
v -2.7755575615629012e-17 -7.0117453920986028 -49.037286940425602
v 85.532318099999998 -15.5476837 -33.342500700000002
v 1.1102230246251565e-16 15.33409079699207 -5.0698662923739448
v -1.1102230246251546e-16 -4.3444554858191005 47.679087182051191
v 103.03237726250001 -15.5476837 -21.98062015
v -1.6653345369377348e-16 -8.112764592807622 49.606397685514409
v 0 14.978325788791548 9.0291615262936116
v 6.9388939039072345e-18 15.236042839557868 5.9568946301913472
v 32.970170525 -15.5476837 59.642343499999996
v 60.411888100000013 -15.5476837 -28.782929424999999
v 65.21952435 -15.5476837 -69.950279225000003
v 90.839911450000002 -15.5476837 -31.200786137499996
v 51.581154362500001 -15.5476837 22.889755962499997
v 145.64793586249999 -15.5476837 -25.408679000000003
v 43.846549487499999 -15.5476837 -5.3049424375000012
v 86.564994824999999 -15.5476837 71.98502160000001
v 91.150106425000018 -15.5476837 31.438334675000004
v 54.318817637500004 -15.5476837 67.28795146249999
v 87.669563300000007 -15.5476837 32.727744574999996
v 105.41917136250001 -15.5476837 -18.682082412499998
v 149.6139412 -15.5476837 -7.398109475
v 44.828866949999998 -15.5476837 9.4320980500000005
v 47.426261912499996 -15.5476837 16.561936387500001
v 111.45944688750001 -15.5476837 0.49919843750000015
v 67.367145574999995 -15.5476837 33.174573874999993
v 44.022688375000001 -15.5476837 5.6128693750000016
v 45.959316250000001 -15.5476837 13.241792100000001
v 139.7868557125 -15.5476837 37.914101149999993
v 97.334748275000038 -15.5476837 27.69122625
v 9.6500051000000013 -15.5476837 -52.9918751875
v 109.1092491 -15.5476837 12.394483800000003
v 147.65464022500001 -15.5476837 -18.047043349999999
v 43.4227614375 -15.5476837 -1.7147100875000001
v 140.6842575 -15.5476837 -36.576183812500005
v 107.64226339999999 -15.5476837 15.243315450000001
v 50.262192262500001 -15.5476837 -19.554816950000003
v 76.827959074999995 -15.5476837 -71.974164949999988
v 35.968614599999995 -15.5476837 60.7563715
v 49.317260762499998 -15.5476837 19.748208537499998
v 47.879072675000003 -15.5476837 -15.976579662500001
v 29.505484125000002 -15.5476837 58.439164150000003
v 69.145309449999999 -15.5476837 71.517610550000001
v 127.27574920000001 -15.5476837 -53.215837974999992
v 84.04497910000002 -15.5476837 -33.586783400000002
v 141.55561734374999 -15.5476837 35.024366381250005
v 2.5726123374999998 -15.012329413120904 51.822987396776625
v 68.664155949999994 -15.5476837 -70.575893400000012
v 111.27018257500001 -15.5476837 -3.0597040875000014
v 124.2379131 -15.5476837 56.219200100000002
v 124.446626675 -15.5476837 -55.601606374999996
v 70.976673149999996 -15.5476837 33.935915449999996
v 147.14750097500001 -15.5476837 20.599753399999997
v 146.15024757500001 -15.5476837 24.032884599999999
v 80.446077362500006 -15.5476837 -72.131987562500001
v 80.501585987500007 -15.5476837 -33.949045650000002
v 144.9947052 -15.5476837 27.359763624999999
v 56.630724874999999 -15.5476837 -26.096498975000006
v 73.335271849999998 -15.5476837 72.202175150000002
v 149.12458419999999 -15.5476837 -11.319879525000001
v 50.009431400000004 -15.5476837 65.796184525000001
v 5.7990678750000004 -15.5476837 -52.381660475000004
v 94.068334574999994 -15.5476837 29.765285725000012
v 120.85745428750002 -15.5476837 58.750835899999998
v 25.388999012500001 -15.5476837 56.9656715375
v 148.49101639999998 -15.5476837 -14.562303575000001
v 94.589478475000007 -15.5476837 -29.204862137499997
v 14.43675505 -15.5476837 -53.7406144375
v 82.303743350000005 -15.5476837 72.264307024999994
v 142.590919525 -15.5476837 -32.686311724999996
v 113.2724637875 -15.5476837 -63.110849399999999
v 110.14132691250001 -15.5476837 -64.757185937499997
v 147.95658872500002 -15.5476837 17.582314749999998
v 146.73305512500002 -15.5476837 -21.629558100000001
v 2.4497608781249998 -15.335608922136178 -52.222953568448155
v -1.0408340855860843e-16 15.440333863447337 2.2840213997887435
v 0.17242798749999999 -12.256092990175482 51.107241816627919
v -1.1102230246251565e-16 15.51217402016916 -1.453938891519112
v 7.9797279894933151e-17 14.971737925224543 -8.839372354531104
v 1.3877787807814494e-17 -8.3735884574614854 -49.797795578180171
v 0.31993002812500015 -12.429482833548363 -51.421270326415524
v 16.649263037499999 -15.5476837 54.186916337499994
v -143.66983187236161 -3.8443795780070675 -21.075971970282161
v -139.62046110207234 1.9177085993435112 -20.027881215173387
v -110.12296281552926 -8.0062894811468901 -11.728541828396086
v -126.12371022958555 6.680172210151885 -16.137562283148561
v -141.87894505665909 -0.88102600722644353 -20.612510688206292
v -145.03435569250624 -6.8349440236934456 -21.419868879276947
v -116.29724971616247 1.6890809030367504 -12.944768971051111
v -133.34883026048675 5.7330249405572493 -18.321612085763235
v -111.60835770284865 -4.4229502597552202 -11.798351160434382
v -119.25595490909262 4.0499970930880185 -13.873726118886974
v -122.56435234507032 5.7565141605949952 -14.966814134310493
v -113.80197142867118 -1.2341178478944594 -12.261629020905485
v -136.60627401663106 3.9901390541748292 -19.219986076861471
v -129.79453666798017 6.6920911327234185 -17.273527478674104
v -108.80669785000002 -15.5476837 -12.480148325
v -109.21186358384789 -11.750888772840753 -11.983944273297755
v -146.44429134592673 -12.708090346862839 -21.654485147529151
v -145.92723797677874 -9.807510032984915 -21.604066534299868
v -146.73305512500002 -15.5476837 -21.629558100000001
v -96.441243011854709 -10.035147253286066 29.176769001551911
v -118.802756702908 -4.8153279593567611 56.99907343949603
v -116.52554948454721 0.52088047321091946 53.981270243520598
v -108.56531914824865 6.7339009685068323 43.342195151312602
v -113.13705849291674 4.8618002802841289 49.395438555257066
v -110.96706382351846 6.168743997182335 46.495993575011283
v -103.63713935543578 4.3702431700911299 37.149811520526086
v -115.02058892117179 2.9796037487071159 51.947535574538001
v -119.51124520095944 -7.6227043911115704 57.818643082408634
v -101.48071175484637 2.0247552277363106 34.493284729638617
v -98.255891089307056 -3.967999796011787 30.820686953692807
v -99.712670252331009 -0.90893717023463072 32.428806736099624
v -106.03747097742421 6.0259434589222849 40.154282595400261
v -97.165491786595538 -7.0488226792135169 29.743357207283296
v -117.80829416793907 -2.0674761706886016 55.710589062707704
v -95.593933100000029 -15.5476837 28.90061
v -120.05133307750185 -10.353759641207382 58.321031588103708
v -95.947913433639798 -12.849037625234613 28.939864242781738
v -120.85745428750002 -15.5476837 58.750835899999998
v -120.51197782196763 -12.976020780516857 58.639551345086574
v -84.420140072927921 0.66817597003563733 -65.43901300649074
v -80.340983262066629 -2.0550699554739627 -38.166937210537604
v -85.16842404441266 -8.6288679133496551 -70.632907936089822
v -80.264683607489758 -4.8737638300150294 -36.58723689240184
v -80.257874525847711 -7.6987925934335095 -35.465920022482933
v -81.265458310459067 4.6406647218533763 -45.887217482338698
v -81.768977608761816 6.0438807116707212 -49.1376442712303
v -80.532682004825318 0.65180234811565685 -40.180944675004483
v -82.960440678688514 6.1004603318675592 -56.255908239995605
v -85.299703240060097 -12.061065881627719 -71.466467484650707
v -82.352553225779928 6.428651558423355 -52.679191616488637
v -83.539606964101523 5.2076587380434232 -59.766814564319787
v -84.022221249968098 3.2066053672740118 -62.816999000292029
v -84.997369509096529 -5.2526639643938555 -69.50099089847221
v -84.753698641745984 -2.0805521682087158 -67.807486280274958
v -80.846091356089886 2.8221587614558903 -42.881956878896439
v -85.38595964999999 -15.5476837 -71.927097349999997
v -80.295045586167703 -10.424233937619624 -34.706660513338797
v -80.379046524727698 -13.018903466228114 -34.183770702604164
v -80.501585987500007 -15.5476837 -33.949045650000002
v -67.791419449295816 -1.1417333677443808 37.971400359816485
v -60.313452032917397 1.3143419487661867 61.350213003648975
v -62.252278879296107 5.3249994364954727 55.74076624472562
v -69.189802413736629 -6.8139488022344601 35.05135347883914
v -59.466108151248093 -1.2641327425113624 63.566949131313976
v -57.591354436565254 -9.9056336282525059 67.338850432422191
v -65.326369982580871 5.2933275744754846 45.686804047303198
v -64.365721503624144 6.441243951266344 48.946712035037081
v -61.225835308987016 3.6821559615870494 58.810747074269059
v -58.15847488095303 -7.0547479738587837 66.402965963605936
v -68.514517056783887 -3.9031606317316161 36.240958973117479
v -67.050200839890991 1.5127871754149087 40.024510360703189
v -63.315829312829578 6.2892448180082035 52.402801317732091
v -66.221256083686939 3.6867077435032112 42.646625939919232
v -58.772575495632665 -4.1471886961715478 65.175954685223232
v -56.707994475000021 -15.5476837 68.102491375
v -69.796403459095984 -9.7743948985943803 34.394920994436681
v -70.397684250188348 -12.678635566585168 34.031289115842341
v -70.976673149999996 -15.5476837 33.935915449999996
v -57.117155070729581 -12.739185976882839 67.868714875258945
v -1.1102230246251565e-16 15.51217402016916 -1.453938891519112
v -42.322391832366861 -8.2381832210873362 -3.1467671574174076
v -39.535868043483859 -2.4524212855846796 -3.0017357390025206
v -12.789560672651717 14.121625259738728 -1.2788770663412965
v -16.50396729048288 13.247508603040995 -1.4268225827448506
v -42.951112188361016 -10.866963959480636 -3.2466080682129115
v -41.249901691402982 -5.3882094705683805 -3.0677750373699735
v -27.997207063168382 8.524325994835209 -2.2365027927019296
v -34.731137174943946 3.5490872734430283 -2.7405575634189088
v -9.2757889144208114 14.659442325588561 -1.2182774267078817
v -37.310204782690334 0.52747538183562548 -2.8988284580144397
v -20.358389134025884 12.05995788836138 -1.6545034100280289
v -24.257513562862624 10.548250490425415 -1.9385697849785708
v -31.554784487135539 6.2162509085018645 -2.5173401348811
v -43.415839175000002 -15.5476837 -3.5291615750000016
v -2.946605618066231 15.334477203747875 -1.3309224613107065
v -6.0068805606758602 15.039744933251358 -1.2418828814134943
v -43.294846072572966 -13.27299467459444 -3.3732058677437777
v 5.5511151231258e-17 -9.7354315228243671 -50.55830421593474
v -1.6653345369377368e-16 -10.035210854109154 50.5028474147026
v -148.35842895000002 -15.5476837 16.157938499999997
v -110.75157930000003 -15.5476837 65.05569460000001
v -0.6398600562500002 -15.123534144272357 -52.284236436896308
v -75.104587549999991 -15.5476837 -71.736995699999994
v -62.472101199999997 -15.5476837 -30.02031135
v -44.27725980000001 -15.5476837 -7.0807233000000025
v -43.861042949999998 -15.5476837 3.8277804500000001
v -101.53481675000002 -15.5476837 23.817434299999999
v -106.9031334 -15.5476837 16.6274333
v -104.60772704999999 -15.5476837 20.359635350000001
v -66.598121649999996 -15.5476837 -32.12638475
v -82.372985849999992 -15.5476837 33.798068999999998
v -34.387889899999998 -15.5476837 60.119785299999997
v -96.31572915000001 -15.5476837 -28.046751974999996
v -37.5493393 -15.5476837 61.392957699999997
v -136.86185455 -15.5476837 -42.476320250000001
v -118.70787047500002 -15.5476837 60.284680399999999
v -92.728073099999989 -15.5476837 -71.130523699999998
v -63.8553085 -15.5476837 -69.710990899999999
v -104.317131 -15.5476837 67.973918949999998
v -26.170433000000006 -15.5476837 -56.44759082500002
v -92.863227800000004 -15.5476837 -30.362972299999999
v -77.994815850000009 -15.5476837 34.370183900000001
v -88.816595100000001 -15.5476837 -32.038599974999997
v -16.91197395 -15.5476837 -54.099128749999998
v -98.935485799999995 -15.5476837 -26.128736499999999
v -101.555545825 -15.5476837 -23.7479625
v -50.2272301 -15.5476837 21.389890699999999
v -82.340824124999997 -15.5476837 -72.052640925000006
v -92.542736050000002 -15.5476837 30.629961450000003
v -145.00885392499998 -15.5476837 -27.537073100000011
v -146.2870178 -15.5476837 -23.280284900000009
v -138.76412582500001 -15.5476837 39.485291499999995
v -89.114833849999997 -15.5476837 -71.433681500000006
v -146.74025345000001 -15.5476837 22.192815799999998
v -88.610370649999993 -15.5476837 71.866020200000008
v -128.86128615000001 -15.5476837 -51.85714819999999
v -70.744571699999995 -15.5476837 -70.962219250000004
v -89.757476800000006 -15.5476837 32.246707899999997
v -56.707994475000021 -15.5476837 68.102491375
v -71.115993500000002 -15.5476837 71.918163300000003
v -85.581649800000008 -15.5476837 33.208781249999994
v -104.50920870000004 -15.5476837 -20.2132778
v -106.32913402500002 -15.5476837 -17.150887024999996
v -149.39732359999999 -15.5476837 -9.6304072999999999
v -149.9742737 -15.5476837 2.2088384000000003
v -127.89148710000001 -15.5476837 53.140920650000005
v -44.184333799999997 -15.5476837 7.3979583
v -108.80669785000002 -15.5476837 -12.480148325
v -43.415839175000002 -15.5476837 -3.5291615750000016
v -60.747589099999999 -15.5476837 -69.109062199999997
v -31.55245115 -15.5476837 59.164901700000001
v -85.38595964999999 -15.5476837 -71.927097349999997
v -130.12121580000002 -15.5476837 50.781942349999994
v -48.522092800000003 -15.5476837 -64.974414799999991
v -58.3036995 -15.5476837 29.288980500000001
v -56.142536149999998 -15.5476837 27.285525349999997
v -46.445232400000002 -15.5476837 15.017346399999999
v -46.782296150000001 -15.5476837 -14.057695425000002
v -111.6354675 -15.5476837 -1.5908659999999999
v -111.283426275 -15.5476837 2.5892628750000002
v -78.445531875 -15.5476837 -34.067025200000003
v -45.473400099999999 -15.5476837 11.466237800000002
v -52.099456799999999 -15.5476837 -66.501258849999999
v -68.806961099999995 -15.5476837 33.691215499999998
v -65.927330049999995 -15.5476837 32.657932249999995
v -108.63143922500001 -15.5476837 -65.502103774999995
v -4.8003686999999999 -15.5476837 51.934338574999998
v -141.72662355 -15.5476837 -34.471590050000003
v -75.412284900000003 -15.5476837 -34.1979446
v -114.17691232499999 -15.5476837 63.187620174999999
v -97.022012700000033 -15.5476837 -69.828138324999998
v -150 -15.5476837 -1.1477058
v -125.46878810000003 -15.5476837 55.22140880000002
v -80.087867700000004 -15.5476837 72.424591050000004
v -149.7658615 -15.5476837 6.6133472000000006
v -93.317209249999991 -15.5476837 71.263414400000002
v -114.893712975 -15.5476837 -62.209430699999999
v -117.30514530000001 -15.5476837 -60.653755199999999
v -9.8465366500000009 -15.5476837 52.408674249999997
v -75.554550199999994 -15.5476837 72.486187000000001
v -123.20304109999999 -15.5476837 -56.628684999999997
v -99.075563450000033 -15.5476837 26.481842499999999
v -132.6102104 -15.5476837 47.553362874999991
v -107.64672849999999 -15.5476837 66.601600599999998
v -140.80958559999999 -15.5476837 36.342910799999999
v -143.45521550000001 -15.5476837 -30.901033399999996
v -95.593933100000029 -15.5476837 28.90061
v -7.3384740500000003 -15.5476837 -52.601650250000006
v -108.38139339999999 -15.5476837 13.8591976
v -135.81585315000001 -15.5476837 43.15104865
v -102.0539589 -15.5476837 -68.114219675000001
v -105.7972031 -15.5476837 -66.728744500000005
v -147.17909245000001 -15.5476837 -19.9788313
v -148.13018800000003 -15.5476837 -16.115255399999999
v -133.80952454999999 -15.5476837 -46.24635700000001
v -43.429683700000005 -15.5476837 0.099741399999999994
v -109.88159940000003 -15.5476837 -8.4207982999999995
v -110.90489765000001 -15.5476837 -4.528542175000001
v -109.83710479999999 -15.5476837 10.929770000000005
v -139.64189145 -15.5476837 -38.680777575
v -52.935078625000003 -15.5476837 24.389621224999999
v -144.42916869999999 -15.5476837 28.846573849999999
v -48.975849199999999 -15.5476837 -17.895463899999999
v -51.548535325000003 -15.5476837 -21.214170000000006
v -78.5513306 -15.5476837 -72.211334199999996
v -48.407291424999997 -15.5476837 18.106526375000001
v -13.904069224999997 -15.5476837 53.408056224999996
v -27.458517100000002 -15.5476837 57.713426600000005
v -63.275934199999995 -15.5476837 70.171100600000003
v -60.446849800000003 -15.5476837 69.289016700000005
v -40.853668200000001 -15.5476837 -62.356775249999998
v -51.929640800000001 -15.5476837 66.473411549999994
v -44.477124224999997 -15.5476837 63.775324825000013
v -149.83055880000001 -15.5476837 -5.1658116500000002
v -149.16333005000001 -15.5476837 11.914164999999999
v -67.174625399999996 -15.5476837 71.117057799999998
v -19.394456850000001 -15.5476837 54.96577645
v -125.69021225 -15.5476837 -54.574527749999994
v -82.5576401 -15.5476837 -33.831066100000001
v -119.90976524999999 -15.5476837 -59.026333800000003
v -23.319480925000001 -15.5476837 56.217916475000003
v -40.409297899999999 -15.5476837 62.319236799999999
v -142.30164908749998 -15.5476837 33.705821962500004
v -66.583740199999994 -15.5476837 -70.189567550000007
v -73.146385199999997 -15.5476837 34.180615399999994
v -123.00703810000002 -15.5476837 57.216991399999998
v -99.175041199999995 -15.5476837 69.815611862499992
v -56.566627499999996 -15.5476837 -68.008277849999999
v -147.55474849999999 -15.5476837 19.006691
v -11.961536150000001 -15.5476837 -53.382100125000001
v -145.56024170000001 -15.5476837 25.8729534
v -36.310900724999996 -15.5476837 -60.741839425000002
v -44.964326900000003 -15.5476837 -63.650612800000005
v -131.70845030000001 -15.5476837 -48.627288800000002
v -30.982305500000002 -15.5476837 -58.49577140000001
v -84.519619000000006 -15.5476837 72.104022999999998
v -148.85184479999998 -15.5476837 -13.009351750000002
v -58.351675000000007 -15.5476837 -27.545547500000005
v -54.909774750000011 -15.5476837 -24.647450450000008
v -45.0042057 -15.5476837 -10.3314719
v -48.089221999999999 -15.5476837 65.118957499999993
v -4.2596616999999997 -15.5476837 -52.161670700000002
v -61.574275974999999 -15.5476837 30.860999124999999
v -111.6512146 -15.5476837 -64.0122681
v -21.832291599999998 -15.5476837 -55.044780750000015
v -110.705719 -15.5476837 7.1212861499999995
v -71.410982149999995 -15.5476837 -33.251158724999996
v -0.34485597500000015 -14.476975126241808 51.711636218553245
v -85.532318099999998 -15.5476837 -33.342500700000002
v -103.03237726250001 -15.5476837 -21.98062015
v -32.970170525 -15.5476837 59.642343499999996
v -60.411888100000013 -15.5476837 -28.782929424999999
v -65.21952435 -15.5476837 -69.950279225000003
v -90.839911450000002 -15.5476837 -31.200786137499996
v -51.581154362500001 -15.5476837 22.889755962499997
v -145.64793586249999 -15.5476837 -25.408679000000003
v -43.846549487499999 -15.5476837 -5.3049424375000012
v -86.564994824999999 -15.5476837 71.98502160000001
v -91.150106425000018 -15.5476837 31.438334675000004
v -54.318817637500004 -15.5476837 67.28795146249999
v -87.669563300000007 -15.5476837 32.727744574999996
v -105.41917136250001 -15.5476837 -18.682082412499998
v -149.6139412 -15.5476837 -7.398109475
v -44.828866949999998 -15.5476837 9.4320980500000005
v -47.426261912499996 -15.5476837 16.561936387500001
v -111.45944688750001 -15.5476837 0.49919843750000015
v -67.367145574999995 -15.5476837 33.174573874999993
v -44.022688375000001 -15.5476837 5.6128693750000016
v -45.959316250000001 -15.5476837 13.241792100000001
v -139.7868557125 -15.5476837 37.914101149999993
v -97.334748275000038 -15.5476837 27.69122625
v -9.6500051000000013 -15.5476837 -52.9918751875
v -109.1092491 -15.5476837 12.394483800000003
v -147.65464022500001 -15.5476837 -18.047043349999999
v -43.4227614375 -15.5476837 -1.7147100875000001
v -140.6842575 -15.5476837 -36.576183812500005
v -107.64226339999999 -15.5476837 15.243315450000001
v -50.262192262500001 -15.5476837 -19.554816950000003
v -76.827959074999995 -15.5476837 -71.974164949999988
v -35.968614599999995 -15.5476837 60.7563715
v -49.317260762499998 -15.5476837 19.748208537499998
v -47.879072675000003 -15.5476837 -15.976579662500001
v -29.505484125000002 -15.5476837 58.439164150000003
v -69.145309449999999 -15.5476837 71.517610550000001
v -127.27574920000001 -15.5476837 -53.215837974999992
v -84.04497910000002 -15.5476837 -33.586783400000002
v -141.55561734374999 -15.5476837 35.024366381250005
v -2.5726123374999998 -15.012329413120904 51.822987396776625
v -68.664155949999994 -15.5476837 -70.575893400000012
v -111.27018257500001 -15.5476837 -3.0597040875000014
v -124.2379131 -15.5476837 56.219200100000002
v -124.446626675 -15.5476837 -55.601606374999996
v -70.976673149999996 -15.5476837 33.935915449999996
v -147.14750097500001 -15.5476837 20.599753399999997
v -146.15024757500001 -15.5476837 24.032884599999999
v -80.446077362500006 -15.5476837 -72.131987562500001
v -80.501585987500007 -15.5476837 -33.949045650000002
v -144.9947052 -15.5476837 27.359763624999999
v -56.630724874999999 -15.5476837 -26.096498975000006
v -73.335271849999998 -15.5476837 72.202175150000002
v -149.12458419999999 -15.5476837 -11.319879525000001
v -50.009431400000004 -15.5476837 65.796184525000001
v -5.7990678750000004 -15.5476837 -52.381660475000004
v -94.068334574999994 -15.5476837 29.765285725000012
v -120.85745428750002 -15.5476837 58.750835899999998
v -25.388999012500001 -15.5476837 56.9656715375
v -148.49101639999998 -15.5476837 -14.562303575000001
v -94.589478475000007 -15.5476837 -29.204862137499997
v -14.43675505 -15.5476837 -53.7406144375
v -82.303743350000005 -15.5476837 72.264307024999994
v -142.590919525 -15.5476837 -32.686311724999996
v -113.2724637875 -15.5476837 -63.110849399999999
v -110.14132691250001 -15.5476837 -64.757185937499997
v -147.95658872500002 -15.5476837 17.582314749999998
v -146.73305512500002 -15.5476837 -21.629558100000001
v -2.4497608781249998 -15.335608922136178 -52.222953568448155
v -0.17242798749999999 -12.256092990175482 51.107241816627919
v -0.31993002812500015 -12.429482833548363 -51.421270326415524
v -16.649263037499999 -15.5476837 54.186916337499994
l 19/19 17/17
l 17/17 18/18
l 18/18 6/6
l 6/6 1/1
l 1/1 5/5
l 5/5 2/2
l 2/2 13/13
l 13/13 8/8
l 8/8 14/14
l 14/14 4/4
l 4/4 11/11
l 11/11 10/10
l 10/10 7/7
l 7/7 12/12
l 12/12 9/9
l 9/9 3/3
l 3/3 16/16
l 16/16 15/15
l 38/38 39/39
l 39/39 36/36
l 36/36 28/28
l 28/28 21/21
l 21/21 34/34
l 34/34 22/22
l 22/22 27/27
l 27/27 24/24
l 24/24 25/25
l 25/25 23/23
l 23/23 32/32
l 32/32 26/26
l 26/26 29/29
l 29/29 31/31
l 31/31 30/30
l 30/30 33/33
l 33/33 20/20
l 20/20 37/37
l 37/37 35/35
l 59/59 58/58
l 58/58 57/57
l 57/57 44/44
l 44/44 43/43
l 43/43 41/41
l 41/41 47/47
l 47/47 55/55
l 55/55 45/45
l 45/45 46/46
l 46/46 50/50
l 50/50 48/48
l 48/48 51/51
l 51/51 52/52
l 52/52 40/40
l 40/40 54/54
l 54/54 53/53
l 53/53 42/42
l 42/42 49/49
l 49/49 56/56
l 78/78 77/77
l 77/77 76/76
l 76/76 63/63
l 63/63 70/70
l 70/70 60/60
l 60/60 71/71
l 71/71 73/73
l 73/73 66/66
l 66/66 67/67
l 67/67 72/72
l 72/72 62/62
l 62/62 68/68
l 68/68 61/61
l 61/61 64/64
l 64/64 74/74
l 74/74 69/69
l 69/69 65/65
l 65/65 79/79
l 79/79 75/75
l 97/97 94/94
l 94/94 95/95
l 95/95 88/88
l 88/88 82/82
l 82/82 83/83
l 83/83 90/90
l 90/90 91/91
l 91/91 86/86
l 86/86 92/92
l 92/92 87/87
l 87/87 89/89
l 89/89 81/81
l 81/81 85/85
l 85/85 80/80
l 80/80 84/84
l 84/84 96/96
l 96/96 93/93
l 98/98 279/279
l 98/98 353/353
l 99/99 103/103
l 99/99 114/114
l 100/100 221/221
l 100/100 348/348
l 101/101 176/176
l 101/101 190/190
l 102/102 350/350
l 102/102 356/356
l 103/103 259/259
l 104/104 143/143
l 104/104 313/313
l 105/105 116/116
l 105/105 286/286
l 106/106 246/246
l 106/106 291/291
l 107/107 266/266
l 107/107 269/269
l 108/108 202/202
l 108/108 302/302
l 109/109 111/111
l 109/109 188/188
l 110/110 111/111
l 110/110 311/311
l 112/112 113/113
l 112/112 270/270
l 113/113 271/271
l 114/114 268/268
l 115/115 259/259
l 115/115 276/276
l 116/116 253/253
l 117/117 128/128
l 117/117 147/147
l 118/118 285/285
l 118/118 314/314
l 119/119 131/131
l 119/119 342/342
l 120/120 228/228
l 120/120 314/314
l 121/121 201/201
l 121/121 206/206
l 122/122 176/176
l 122/122 339/339
l 123/123 139/139
l 123/123 177/177
l 124/124 156/156
l 124/124 287/287
l 125/125 190/190
l 125/125 233/233
l 126/126 241/241
l 126/126 251/251
l 127/127 288/288
l 127/127 342/342
l 128/128 231/231
l 129/129 278/278
l 129/129 288/288
l 130/130 251/251
l 130/130 343/343
l 131/131 132/132
l 132/132 281/281
l 133/133 289/289
l 133/133 315/315
l 134/134 158/158
l 134/134 330/330
l 135/135 293/293
l 135/135 338/338
l 136/136 192/192
l 136/136 290/290
l 137/137 290/290
l 137/137 349/349
l 138/138 196/196
l 138/138 304/304
l 139/139 158/158
l 140/140 328/328
l 140/140 329/329
l 141/141 182/182
l 141/141 292/292
l 142/142 240/240
l 142/142 319/319
l 143/143 323/323
l 144/144 293/293
l 144/144 295/295
l 145/145 216/216
l 145/145 294/294
l 146/146 318/318
l 146/146 334/334
l 147/147 295/295
l 148/148 281/281
l 148/148 296/296
l 149/149 154/154
l 149/149 296/296
l 150/150 297/297
l 150/150 335/335
l 151/151 178/178
l 151/151 181/181
l 152/152 159/159
l 152/152 179/179
l 153/153 298/298
l 153/153 302/302
l 154/154 203/203
l 155/155 291/291
l 155/155 309/309
l 156/156 234/234
l 157/157 285/285
l 157/157 317/317
l 159/159 189/189
l 160/160 169/169
l 160/160 239/239
l 161/161 162/162
l 161/161 249/249
l 162/162 207/207
l 163/163 299/299
l 163/163 303/303
l 164/164 246/246
l 164/164 316/316
l 165/165 300/300
l 165/165 324/324
l 166/166 252/252
l 166/166 300/300
l 167/167 175/175
l 167/167 331/331
l 168/168 298/298
l 168/168 303/303
l 169/169 234/234
l 170/170 301/301
l 170/170 327/327
l 171/171 249/249
l 171/171 301/301
l 172/172 198/198
l 172/172 347/347
l 173/173 185/185
l 173/173 322/322
l 174/174 310/310
l 174/174 345/345
l 175/175 253/253
l 177/177 197/197
l 178/178 220/220
l 179/179 325/325
l 180/180 186/186
l 180/180 344/344
l 181/181 221/221
l 182/182 233/233
l 183/183 184/184
l 183/183 346/346
l 184/184 226/226
l 185/185 213/213
l 186/186 334/334
l 187/187 226/226
l 187/187 326/326
l 188/188 305/305
l 189/189 196/196
l 191/191 304/304
l 191/191 321/321
l 192/192 345/345
l 193/193 305/305
l 193/193 338/338
l 194/194 306/306
l 194/194 337/337
l 195/195 307/307
l 195/195 311/311
l 197/197 198/198
l 199/199 308/308
l 199/199 349/349
l 200/200 308/308
l 200/200 341/341
l 201/201 240/240
l 202/202 309/309
l 203/203 204/204
l 204/204 324/324
l 205/205 252/252
l 205/205 307/307
l 206/206 310/310
l 207/207 289/289
l 208/208 229/229
l 208/208 332/332
l 209/209 312/312
l 209/209 316/316
l 210/210 245/245
l 210/210 312/312
l 211/211 313/313
l 211/211 330/330
l 212/212 299/299
l 212/212 315/315
l 213/213 357/357
l 214/214 317/317
l 214/214 340/340
l 215/215 216/216
l 215/215 222/222
l 217/217 238/238
l 217/217 239/239
l 218/218 294/294
l 218/218 336/336
l 219/219 228/228
l 219/219 247/247
l 220/220 297/297
l 222/222 318/318
l 223/223 227/227
l 223/223 357/357
l 224/224 319/319
l 224/224 326/326
l 225/225 320/320
l 225/225 331/331
l 227/227 340/340
l 229/229 321/321
l 230/230 287/287
l 230/230 323/323
l 231/231 327/327
l 232/232 325/325
l 232/232 339/339
l 235/235 328/328
l 235/235 348/348
l 236/236 306/306
l 236/236 343/343
l 237/237 329/329
l 237/237 332/332
l 238/238 241/241
l 242/242 292/292
l 242/242 344/344
l 243/243 335/335
l 243/243 341/341
l 244/244 286/286
l 244/244 333/333
l 245/245 333/333
l 247/247 336/336
l 248/248 337/337
l 248/248 350/350
l 250/250 346/346
l 250/250 347/347
l 254/254 279/279
l 254/254 354/354
l 255/255 280/280
l 255/255 282/282
l 256/256 275/275
l 256/256 283/283
l 257/257 269/269
l 257/257 280/280
l 258/258 264/264
l 258/258 274/274
l 260/260 264/264
l 260/260 275/275
l 261/261 284/284
l 261/261 351/351
l 262/262 351/351
l 262/262 353/353
l 263/263 355/355
l 263/263 356/356
l 265/265 266/266
l 265/265 274/274
l 267/267 322/322
l 267/267 352/352
l 268/268 277/277
l 270/270 354/354
l 271/271 276/276
l 272/272 282/282
l 272/272 352/352
l 273/273 283/283
l 273/273 284/284
l 277/277 355/355
l 278/278 320/320
l 376/376 374/374
l 374/374 375/375
l 375/375 363/363
l 363/363 358/358
l 358/358 362/362
l 362/362 359/359
l 359/359 370/370
l 370/370 365/365
l 365/365 371/371
l 371/371 361/361
l 361/361 368/368
l 368/368 367/367
l 367/367 364/364
l 364/364 369/369
l 369/369 366/366
l 366/366 360/360
l 360/360 373/373
l 373/373 372/372
l 395/395 396/396
l 396/396 393/393
l 393/393 385/385
l 385/385 378/378
l 378/378 391/391
l 391/391 379/379
l 379/379 384/384
l 384/384 381/381
l 381/381 382/382
l 382/382 380/380
l 380/380 389/389
l 389/389 383/383
l 383/383 386/386
l 386/386 388/388
l 388/388 387/387
l 387/387 390/390
l 390/390 377/377
l 377/377 394/394
l 394/394 392/392
l 416/416 415/415
l 415/415 414/414
l 414/414 401/401
l 401/401 400/400
l 400/400 398/398
l 398/398 404/404
l 404/404 412/412
l 412/412 402/402
l 402/402 403/403
l 403/403 407/407
l 407/407 405/405
l 405/405 408/408
l 408/408 409/409
l 409/409 397/397
l 397/397 411/411
l 411/411 410/410
l 410/410 399/399
l 399/399 406/406
l 406/406 413/413
l 435/435 434/434
l 434/434 433/433
l 433/433 420/420
l 420/420 427/427
l 427/427 417/417
l 417/417 428/428
l 428/428 430/430
l 430/430 423/423
l 423/423 424/424
l 424/424 429/429
l 429/429 419/419
l 419/419 425/425
l 425/425 418/418
l 418/418 421/421
l 421/421 431/431
l 431/431 426/426
l 426/426 422/422
l 422/422 436/436
l 436/436 432/432
l 437/437 452/452
l 452/452 453/453
l 453/453 446/446
l 446/446 440/440
l 440/440 441/441
l 441/441 448/448
l 448/448 449/449
l 449/449 444/444
l 444/444 450/450
l 450/450 445/445
l 445/445 447/447
l 447/447 439/439
l 439/439 443/443
l 443/443 438/438
l 438/438 442/442
l 442/442 454/454
l 454/454 451/451
l 457/457 572/572
l 457/457 671/671
l 458/458 527/527
l 458/458 541/541
l 459/459 673/673
l 459/459 675/675
l 460/460 494/494
l 460/460 636/636
l 461/461 467/467
l 461/461 609/609
l 462/462 597/597
l 462/462 614/614
l 463/463 553/553
l 463/463 625/625
l 464/464 466/466
l 464/464 539/539
l 465/465 466/466
l 465/465 634/634
l 467/467 604/604
l 468/468 479/479
l 468/468 498/498
l 469/469 608/608
l 469/469 637/637
l 470/470 482/482
l 470/470 665/665
l 471/471 579/579
l 471/471 637/637
l 472/472 552/552
l 472/472 557/557
l 473/473 527/527
l 473/473 662/662
l 474/474 490/490
l 474/474 528/528
l 475/475 507/507
l 475/475 610/610
l 476/476 541/541
l 476/476 584/584
l 477/477 592/592
l 477/477 602/602
l 478/478 611/611
l 478/478 665/665
l 479/479 582/582
l 480/480 606/606
l 480/480 611/611
l 481/481 602/602
l 481/481 666/666
l 482/482 483/483
l 483/483 607/607
l 484/484 612/612
l 484/484 638/638
l 485/485 509/509
l 485/485 653/653
l 486/486 616/616
l 486/486 661/661
l 487/487 543/543
l 487/487 613/613
l 488/488 613/613
l 488/488 672/672
l 489/489 547/547
l 489/489 627/627
l 490/490 509/509
l 491/491 651/651
l 491/491 652/652
l 492/492 533/533
l 492/492 615/615
l 493/493 591/591
l 493/493 642/642
l 494/494 646/646
l 495/495 616/616
l 495/495 618/618
l 496/496 567/567
l 496/496 617/617
l 497/497 641/641
l 497/497 657/657
l 498/498 618/618
l 499/499 607/607
l 499/499 619/619
l 500/500 505/505
l 500/500 619/619
l 501/501 620/620
l 501/501 658/658
l 502/502 529/529
l 502/502 532/532
l 503/503 510/510
l 503/503 530/530
l 504/504 621/621
l 504/504 625/625
l 505/505 554/554
l 506/506 614/614
l 506/506 632/632
l 507/507 585/585
l 508/508 608/608
l 508/508 640/640
l 510/510 540/540
l 511/511 520/520
l 511/511 590/590
l 512/512 513/513
l 512/512 600/600
l 513/513 558/558
l 514/514 622/622
l 514/514 626/626
l 515/515 597/597
l 515/515 639/639
l 516/516 623/623
l 516/516 647/647
l 517/517 603/603
l 517/517 623/623
l 518/518 526/526
l 518/518 654/654
l 519/519 621/621
l 519/519 626/626
l 520/520 585/585
l 521/521 624/624
l 521/521 650/650
l 522/522 600/600
l 522/522 624/624
l 523/523 549/549
l 523/523 670/670
l 524/524 536/536
l 524/524 645/645
l 525/525 633/633
l 525/525 668/668
l 526/526 604/604
l 528/528 548/548
l 529/529 571/571
l 530/530 648/648
l 531/531 537/537
l 531/531 667/667
l 532/532 572/572
l 533/533 584/584
l 534/534 535/535
l 534/534 669/669
l 535/535 577/577
l 536/536 564/564
l 537/537 657/657
l 538/538 577/577
l 538/538 649/649
l 539/539 628/628
l 540/540 547/547
l 542/542 627/627
l 542/542 644/644
l 543/543 668/668
l 544/544 628/628
l 544/544 661/661
l 545/545 629/629
l 545/545 660/660
l 546/546 630/630
l 546/546 634/634
l 548/548 549/549
l 550/550 631/631
l 550/550 672/672
l 551/551 631/631
l 551/551 664/664
l 552/552 591/591
l 553/553 632/632
l 554/554 555/555
l 555/555 647/647
l 556/556 603/603
l 556/556 630/630
l 557/557 633/633
l 558/558 612/612
l 559/559 580/580
l 559/559 655/655
l 560/560 635/635
l 560/560 639/639
l 561/561 596/596
l 561/561 635/635
l 562/562 636/636
l 562/562 653/653
l 563/563 622/622
l 563/563 638/638
l 564/564 676/676
l 565/565 640/640
l 565/565 663/663
l 566/566 567/567
l 566/566 573/573
l 568/568 589/589
l 568/568 590/590
l 569/569 617/617
l 569/569 659/659
l 570/570 579/579
l 570/570 598/598
l 571/571 620/620
l 573/573 641/641
l 574/574 578/578
l 574/574 676/676
l 575/575 642/642
l 575/575 649/649
l 576/576 643/643
l 576/576 654/654
l 578/578 663/663
l 580/580 644/644
l 581/581 610/610
l 581/581 646/646
l 582/582 650/650
l 583/583 648/648
l 583/583 662/662
l 586/586 651/651
l 586/586 671/671
l 587/587 629/629
l 587/587 666/666
l 588/588 652/652
l 588/588 655/655
l 589/589 592/592
l 593/593 615/615
l 593/593 667/667
l 594/594 658/658
l 594/594 664/664
l 595/595 609/609
l 595/595 656/656
l 596/596 656/656
l 598/598 659/659
l 599/599 660/660
l 599/599 673/673
l 601/601 669/669
l 601/601 670/670
l 455/455 675/675
l 605/605 645/645
l 605/605 674/674
l 456/456 674/674
l 606/606 643/643
