v 166.67795366837495 3.7527983506518607 -6.6497824911960333
v 163.00734136674242 5.2592833575312845 34.094299185095977
v 84.926288257273711 -11.471948185688042 86.04112388230503
v 125.73452741771524 -0.55063911038383695 74.682837668842723
v 141.44058843471606 -0.87358898088817938 -65.438369772781954
v 147.41028884808782 -0.30745188351992098 -56.307733276720043
v 164.48587621755027 2.8973575946563415 -17.115073983565722
v 157.37196812263062 1.1154439265947103 -37.214304902271131
v 161.32909052403357 1.9880001702877732 -27.30087317763434
v 127.59080322975886 -2.0236289378718042 -82.272484320076487
v 119.79060518254755 -2.7361485331721105 -89.603972873554824
v 134.83601151264386 -1.4195491725048952 -74.163712833273735
v 74.248890062557933 -6.6992773114294826 -114.75372698473339
v 63.713480839850561 -7.3259654819629034 -117.12521967702928
v 53.08862491599745 -7.7939726469957762 -118.74825378324222
v 111.68503751597726 -3.4990819900698988 -96.291986130556623
v 32.745567226032875 -8.4330314297173494 -119.78527875438476
v 152.34054796753429 4.3302653714455381 53.191862354785115
v 144.88288396424844 3.2571760051482768 61.70458998225677
v 74.230019188698563 -14.346105087026405 87.444562248144138
v 158.32726032107087 4.9504980997586525 43.866563446802999
v 167.75536401388644 4.9865334141807098 13.688146844033772
v 167.79800916095678 4.4577934294342665 3.4350742924357163
v 166.19422506165969 5.2711042016005107 23.978565040955978
v 22.600100654994989 -23.157674060625368 90.589626933924905
v 114.80633452134509 -3.2026694781126164 79.108608671662608
v 95.262873770407907 -8.5470349564533521 84.239120900304243
v 105.21280943456762 -5.7568195333650873 81.95811128657374
v 41.741658019429316 -20.988325887126479 89.861865052360116
v 31.739785623307533 -22.274133429527055 90.274873374509866
v 135.88762954111655 1.6198610855715279 68.902374852960875
v 63.298090736021237 -16.985120289887387 88.475527473923364
v 52.366472920567269 -19.227185758856926 89.263209032082642
v 84.358591207741782 -5.9788822888204525 -111.2966193626844
v 103.07563191289711 -4.3344921971537307 -102.08240356999544
v 93.986516556726542 -5.1754736896089302 -107.09122396323366
v 15.132243939541443 -8.7279068256550474 -119.67689406543738
v 152.73288094846049 0.34662938005334792 -46.888683703853403
v 23.54955903271653 -8.6182631815077144 -119.75986547461183
v 42.662552626050214 -8.155575456576889 -119.5656450989967
v 8.8817841970012523e-16 -8.807623168845808 -119.64796829740216
v 6.9694072434054943 -24.173373113234508 90.890348638478883
v 14.39055949242028 -23.751054612185854 90.7842321645889
v 7.3759410402889491 -8.7840084250604562 -119.62375663326729
v 2.2204460492503114e-16 -24.519715700470197 90.907745549261477
v 112.46843 460.96649200000002 -112.363899
v 52.119725389808671 456.56291429396998 -119.17245140665818
v 42.047232596060027 455.4028085380022 -118.54099050702159
v 93.336899188754458 459.81546378241342 -116.81371788943622
v 62.515895663376021 457.61439409311072 -119.61552925562471
v 23.562283387450059 453.11143825324183 -117.29420973787595
v 32.488455098051553 454.22118498968132 -117.89941946160133
v 73.008986019588292 458.49958383681667 -119.55764295884836
v 83.34545500928445 459.21134737940986 -118.58541468268534
v 15.268829757876237 452.15059603997202 -116.83661530593049
v 103.00331975455788 460.39142308651554 -114.67660985842696
v 7.4905364664898073 451.35394425179186 -116.52057372038485
v -4.0592529337855797e-16 450.66770138209733 -116.35559073852565
v 101.7799202128021 527.76949408707048 -15.10799917757522
v 109.70195000000004 525.81085199999995 -15.462242000000002
v 94.210330386571087 529.97923153490228 -14.605964890170419
v 87.135671500748359 532.33083763907075 -14.097710460280325
v 80.49041280803155 534.64297107649418 -13.710579386645982
v 74.092193500000008 536.88409449999995 -13.433451500000002
v 191.33422899999999 -546.28411900000003 11.877307999999999
v 190.14229698302552 -513.33243659948334 10.985779532484774
v 188.94633515628485 -490.4346901874253 10.316525412150909
v 187.53333403578046 -466.60808764287538 9.4424511496471482
v 185.69919138184014 -429.41778165032508 7.8026677889468719
v 182.2835245709623 -349.30188348433745 6.9418360685326714
v 180.59394822951924 -322.42404890100289 7.4823247001428861
v 178.79135587909883 -283.47403993792528 7.4970507642567181
v 177.6215275090359 -257.13376006704431 7.0773941051786684
v 176.3472498658675 -229.31356703332392 6.9728761983805176
v 179.01734775275241 -134.56016285502261 3.1412028916147627
v 180.14664280947721 -108.11486737389893 0.49165111277668794
v 179.40164225998996 -80.884951818257349 -1.9419709519126567
v 176.66000734630535 -52.946691294745179 -3.8994518123433668
v 172.29167771755613 -24.640175693637001 -5.4503811445124244
v 166.67795366837495 3.7527983506518607 -6.6497824911960333
v 161.64503103884482 27.437073231925829 -7.4214848555088739
v 156.54009119763259 51.749478132454158 -8.0202072359294796
v 146.2764448311803 88.263764537538634 -8.2801657288976518
v 138.06759386682415 111.30138650087295 -8.1343679442481296
v 126.4870412192749 142.9447815553759 -7.8304408593058454
v 118.116647638346 173.12823919282323 -8.093327334649894
v 112.77948880837813 204.56107065825745 -9.0452322928645152
v 113.39166642032592 239.12941858411352 -10.024291784208016
v 188.28499153673079 -478.62850778817756 9.9133465019290323
v 183.88915777797149 -390.1790164409382 6.7344079822720673
v 178.23965427953755 -270.46712402753718 7.2769862876657161
v 169.61293440378626 -10.451776056403668 -6.091106296880251
v 178.2906315025771 -66.983624820922245 -2.9789684930459908
v 142.20448474053984 99.97720201746435 -8.2248081378556215
v 118.8477876922546 286.64044105353241 -12.409818550831025
v 185.90118642094839 -442.01704874310076 8.3418432496043824
v 159.07279597391843 39.501977485453992 -7.7369942099758315
v 189.5265101325256 -502.00491162775904 10.667908071989057
v 190.86827053071681 -535.41508099452517 11.571911011240168
v 181.44408915529698 -335.76981509712692 7.2217113166044129
v 123.38369583029555 309.07140394680096 -14.611109318948218
v 114.49647145301896 251.04091731864338 -10.364180667022179
v 182.86747583996191 -362.95690428700709 6.7344498727348947
v 179.97817572265245 -94.603505377179999 -0.77807365525573835
v 153.68117663678231 64.064168746324725 -8.2209133414705668
v 174.63131304779162 -38.818679884461389 -4.7193902322737973
v 133.98928937553157 122.1997219995695 -8.0223151389052525
v 185.19072384136666 -416.59933653036126 7.3286784052210914
v 179.83099618973074 -121.42530771693993 1.8221504290472943
v 164.20843683042247 15.538408667085841 -7.0644218142105295
v 179.40282980061602 -296.34631934766514 7.6420970844649734
v 177.01872551605868 -243.38577419592661 6.9742454301492689
v 175.5965379710932 -173.80452588133733 6.1530215645179442
v 115.7797878587468 183.28088313785565 -8.3549298730906933
v 117.12893945295296 274.89945661079116 -11.520903979148436
v 183.23395229116807 -376.62705698256082 6.6566199144620555
v 177.82254797649711 -147.58210089972013 4.355168186614863
v 176.68281309358343 -160.62315474933973 5.3889255816537238
v 127.73506414340474 329.34167479311304 -16.624884948035728
v 125.72750068734567 319.52042466642172 -15.686855558402986
v 132.48727400000001 355.19976800000001 -18.528576000000001
v 175.75340026416933 -215.12701687526794 7.0059887055056356
v 115.77074925166923 262.99166900743126 -10.837317616674714
v 175.33303870444865 -201.06123400687102 6.9460088869115744
v 121.05251571983464 298.0605581734921 -13.489557772907901
v 112.45984857835509 215.79144420337192 -9.3962653527349733
v 112.63951987743872 227.34508564531271 -9.7256474055801494
v 120.6472681485386 163.09234404004138 -7.911952162703412
v 130.11031729500604 132.72046255500203 -7.9123935145214777
v 123.46057390986222 153.07530935461781 -7.8373462090618933
v 113.96966038162304 193.73335764536228 -8.6678122497506536
v 186.60344946415671 -454.40816837263503 8.9109468891832417
v 184.52861544977657 -403.52256953338525 6.9616321905390386
v 190.63483772650912 -524.45097844715406 11.285294380800782
v 150.17479462250046 76.262372714268082 -8.290424011664534
v 175.21617987204559 -187.27237096656302 6.6822187526693826
v 129.47048877653862 338.47542841391135 -17.390724378290429
v 179.85985657628953 -309.29460489372116 7.6279447691294084
v 131.02536386960742 347.01178828261493 -18.003824503064845
v 117.17651400000001 -545.75085400000012 117.46356200000001
v 120.70650706947544 334.13774455661314 31.798009475695913
v 116.87662346626581 -19.604975189034008 81.280575166991156
v 112.18458514067716 312.99987576176363 36.277979168687096
v 89.764178251042523 185.58981671146577 52.106883145177378
v 92.147084298321346 162.22442461142117 56.294142184184409
v 122.68594302917056 -423.46461669031351 104.09675504855923
v 122.13523877764244 -400.46009654170467 102.60680192555172
v 97.350967912094092 268.70901152150884 40.298098441014197
v 103.64349739361131 291.26619891205331 38.360834188180768
v 110.69468985689517 -194.91851738520103 89.805695935396727
v 122.87713524123035 -435.08817096557129 105.15015277186887
v 119.03715409011019 -58.073819497549188 87.140836512687486
v 118.48549962706574 -37.880739501401266 84.270342683532235
v 116.83712522253153 -100.77090425708789 91.500373086715712
v 119.10766978107351 -342.1355275133356 98.960263048469471
v 107.75976408093467 302.22091301270348 37.508122945862951
v 89.581297223954692 197.57069501328451 50.338106018443902
v 117.69494477646671 -535.97780014267846 116.44872100857023
v 116.72051937132949 323.59369836312419 34.460380210986671
v 128.966644 365.10638399999999 19.719391000000002
v 100.22785898691984 280.07295431720337 39.286808297025445
v 117.77238570385759 -28.477789452179756 82.717949128487874
v 94.008239594515118 150.91151283273973 58.659587200348241
v 119.82946641889546 -504.96581635913975 112.75166061961934
v 118.99176554650671 -515.70191999452231 114.1098493365586
v 118.30389018338468 -526.00542182104937 115.41925766117956
v 122.79777296882133 -458.65598155810665 107.64292843389788
v 122.9136275217385 -446.83320101298125 106.28939127434751
v 122.27629328485274 -470.52024750379996 108.77058679363941
v 121.60219919384873 -482.27375155652317 110.09005212116828
v 89.699280078359322 209.58962695874072 48.32464027117274
v 90.783428929041676 173.82518376338174 54.237031108161624
v 120.74894646699164 -493.79581747768293 111.42513934768103
v 91.576935903378981 233.60929101827571 44.672744147407599
v 100.51772210519292 118.21246197101414 66.214131965454612
v 102.44222563051751 107.44682790667601 68.540184967597526
v 105.26791389851105 85.388780372226108 72.042095182255537
v 106.36855211042882 73.943533980461282 73.34520051821832
v 113.21672804201904 -268.08491073274269 93.997323090590072
v 95.074000728831265 257.16361365420153 41.56220872796964
v 93.17067774153719 245.4628907747412 43.043472221200162
v 111.13979280329568 -169.77745041483104 90.742337627662508
v 109.60586430689351 37.120389434359936 75.611731109564204
v 108.35854569475414 49.823216801751343 74.91842624143176
v 98.425241060980653 129.00264104995279 63.785048018319813
v 104.00904772071834 96.533519887368215 70.482358451952024
v 114.80633452134509 -3.2026694781126164 79.108608671662608
v 112.92432348540136 10.549866963722849 77.714595528591104
v 107.31274675856275 62.092338603552406 74.196793859795292
v 111.14161680302487 24.012596423396467 76.516086485357334
v 115.8725566077859 -11.217581838890691 80.092229883006581
v 118.34661168493754 -79.319130151656253 89.44058512309887
v 117.64904769022121 -90.04492326650427 90.472875237496197
v 118.92522054134965 -47.77841784923028 85.786129316901366
v 118.83181160793768 -68.627218234404012 88.373223802870484
v 111.11612795177929 -219.67780757948836 90.63027930471921
v 111.42374014067808 -231.79051431960136 91.314252070194584
v 110.85801950728683 -207.39329741921773 90.075950542490006
v 114.8474194680097 -122.49783714705498 92.77787627978897
v 110.79026713215003 -182.33109615287469 90.116421194801006
v 113.70961922814044 -133.7443169787789 92.643901749668885
v 112.63308275541252 -145.37509149533565 92.122799478914217
v 114.1792262669837 -280.433495422448 94.960817306963946
v 111.82445463985462 -243.82395831612584 92.080667118488606
v 119.89929320361719 -354.06668388661677 99.781273644776689
v 120.60210631611989 -365.83489930651729 100.5575331102315
v 115.26174598767312 -292.87910798084113 95.908829344318917
v 116.27946113168221 -305.35918743304734 96.60470061924751
v 118.22443453874169 -330.03353072732466 98.115133597187793
v 117.26770919571965 -317.76617960203322 97.307543551108211
v 121.66287117187017 -388.99817158751682 101.84135603089175
v 111.77547459626543 -157.41763287793563 91.528704219836953
v 96.264181387534549 139.90916663832945 61.326508752485118
v 123.74829874641929 344.63027772006217 28.243162931319077
v 112.41086527467618 -255.89203626519787 92.988567734502297
v 115.92989820263969 -111.54399467750835 92.460612131144842
v 122.50898180395953 -411.92484872803755 103.40630071512106
v 121.19003289719538 -377.46724925312134 101.23503008168919
v 126.41983321406252 354.93368542992778 24.123548316413096
v 90.319135054138584 221.62755703208649 46.376815256359507
v 191.33422899999999 -546.28411900000003 11.877307999999999
v 132.36447100000001 356.22747800000008 -31.090553
v 130.42340100000001 365.33904999999999 -62.183937
v 126.26545 389.50091600000007 -91.78545400000003
v 118.102699 422.96038800000002 -108.57489
v 112.46843 460.96649200000002 -112.363899
v 112.27797700000004 499.27410900000012 -102.290031
v 114.01876100000003 529.28680399999996 -72.593192999999999
v 110.996117 531.14056400000004 -25.398457000000008
v 75.024681000000001 549.91656499999999 -37.054340000000003
v 57.306807999999997 554.69854699999996 -74.298575999999997
v 0.46645599999997228 -551.54977362271529 -62.572755431125877
v 23.90954 -551.90307600000006 -72.955482000000003
v 45.386242000000003 -551.65051300000005 -89.431847000000005
v 68.582038999999995 -551.14599599999997 -101.97978999999999
v 93.767166000000003 -550.53271500000005 -104.305679
v 118.10940600000002 -549.89642300000003 -95.175476000000003
v 139.99243200000001 -549.10382100000004 -79.229918999999995
v 159.51998900000001 -548.20636000000013 -60.183174000000008
v 175.94931 -547.36285399999997 -38.583454000000003
v 187.42742899999999 -546.69335899999999 -14.308085999999999
v -5.5511151231258258e-17 292.23748157446869 -106.14881909921262
v -1.1102230246251546e-16 110.40461235178785 -97.847140958778596
v 28.905704 482.95562699999999 40.142226999999998
v 52.927292000000001 500.99822999999998 26.699985999999999
v 70.775886999999997 527.44158900000002 -0.39053300000000013
v 105.72855400000002 501.46392800000001 8.5979810000000008
v 104.958656 462.58392300000003 31.473907000000001
v 109.79734000000001 430.81658900000008 43.011024000000006
v 119.076775 397.19183299999997 43.369068000000006
v 126.10382799999999 374.20929000000001 30.62122500000001
v 130.954071 359.019226 7.2251989999999999
v 186.25308200000003 -546.10955799999999 38.029674999999997
v 174.81890899999999 -546.04589799999997 62.624778999999997
v 159.26693700000001 -545.983521 84.949791000000005
v 140.05032299999999 -545.87768600000004 104.04801200000001
v 117.17651400000001 -545.75085400000012 117.46356200000001
v 91.940308000000002 -545.48644999999999 120.73499300000002
v 68.742194999999995 -544.88708499999996 111.20146200000001
v 50.403736000000002 -544.00329599999998 92.217429999999993
v 32.284160999999997 -543.20159899999999 72.869545000000002
v 9.9951880000000006 -543.182861 63.766768999999996
v 190.50579800000006 -546.45434599999999 -1.3454969999999999
v 106.20805400000002 -550.22558600000002 -100.95598600000002
v 34.637962000000002 -551.80407700000001 -81.162552000000005
v 1.1102230246251565e-16 -519.37064098283429 -64.752959886260882
v 182.45358300000004 -546.99951199999998 -26.766098
v 168.21933000000001 -547.76965300000006 -49.719253999999999
v 41.019011999999996 550.85479699999996 -84.657653999999994
v 128.700806 376.12420700000001 -78.080849000000001
v 122.313942 405.48297100000013 -101.639549
v 113.34986100000002 516.27948000000004 -89.782448000000002
v 112.99138600000001 533.85870399999999 -49.208838999999998
v 111.894569 480.42816199999999 -109.143562
v 129.359283 -549.52270499999997 -87.730018999999999
v 114.76950100000001 441.68438700000002 -111.88677199999999
v 68.251259000000005 554.21795699999996 -56.953437999999998
v 131.870453 358.43804900000003 -42.812328000000008
v 81.084389000000002 -550.840149 -104.663612
v 150.06146200000001 -548.65759300000013 -70.012894000000017
v 56.635376000000001 -551.42614700000001 -96.668998999999999
v 12.726883000000001 -551.99523899999997 -66.222710000000006
v 2.2204460492503131e-16 -476.47930085235259 -67.431670255219814
v -5.551115123126097e-17 125.63365493261034 -97.238672253491245
v 0 198.69716090832191 -99.611073171524538
v 0 209.636414 -100.434578
v 0 -463.18159786339197 -68.548150538036239
v 4.4408920985006262e-16 -115.20791973307874 -100.65044573917575
v 122.650887 385.39947500000011 38.676453000000002
v 79.759285000000006 -545.23242200000004 117.528053
v 104.6409 -545.65100099999995 120.63808400000001
v 167.50494399999999 -546.01977499999998 74.113326999999998
v 189.81475800000001 -546.17443800000001 25.079514
v 104.47477000000001 483.65606700000001 20.476862000000008
v 128.966644 365.10638399999999 19.719391000000002
v 106.071144 451.56597900000003 36.355193999999997
v 63.145538000000002 514.12103300000001 14.345046000000004
v 74.925842000000003 539.95062299999995 -17.984863000000001
v 108.2696 518.34393299999999 -6.674213
v 150.11834700000003 -545.93420400000002 94.999153000000007
v 181.13235499999999 -546.07171600000004 50.57447100000001
v 41.752440999999997 -543.55187999999998 81.92662
v 21.59919 -543.05224599999997 66.403107000000006
v 59.105705 -544.46716300000003 102.40746300000001
v 129.05484000000001 -545.818848 111.723473
v 9.7144514654707829e-17 208.29712639688637 84.496874848037635
v 4.4408920985006262e-16 136.63021453100788 93.954103499420853
v 2.2204460492503131e-16 128.38014288362163 95.842892433450544
v -1.1102230246251565e-16 50.434330279823193 99.339093514114126
v 120.125412 414.07427999999999 -105.5112
v 112.08342700000003 533.62542699999995 -36.798805000000002
v 0 522.69793700000014 -100.98129299999999
v 73.258544999999998 533.81756600000006 -8.8820399999999999
v 0 -19.148254000000001 90.833122000000003
v 30.471920000000001 548.17987100000005 -88.139870000000002
v 50.006965999999998 553.26080300000001 -80.218924999999999
v 129.59936500000001 370.29522700000001 -70.358131
v 127.64843 382.51275600000008 -85.348884999999996
v 124.44681500000002 397.21209700000003 -97.142471000000015
v 112.752281 508.02081299999998 -96.671310000000005
v 113.86108400000001 523.68133499999999 -81.890372999999997
v 113.69193300000001 532.52984600000002 -61.52758
v 112.000336 490.0347290000002 -106.33313800000003
v 111.99391200000001 470.68963600000018 -111.175438
v 116.330124 432.19158900000002 -110.633308
v 113.430046 451.29669200000001 -112.53279900000003
v 63.233260999999999 554.92657499999996 -66.393294999999995
v 72.388785999999996 552.694885 -46.960509999999999
v 18.857963999999999 545.90936299999998 -90.574698999999995
v 131.18606600000001 361.45379600000007 -53.160141000000003
v 19.258928000000001 478.90106200000002 42.940810999999997
v 8.7889999999999997 476.385559 44.712242000000003
v 37.919193 488.392517 36.357627999999998
v 46.090980999999999 494.61627200000009 31.829514000000003
v 104.43040500000002 473.57684300000017 26.01652
v 104.92977100000004 492.78704800000014 14.846833999999999
v 107.665291 441.14471400000002 40.234923999999999
v 58.437286 507.46392800000001 20.857857000000003
v 67.335098000000002 520.848206 7.3029210000000022
v 75.725043999999997 545.53875700000003 -27.403793000000007
v 106.87699100000003 510.001892 1.374088
v 109.70195000000004 525.81085199999995 -15.462242000000002
v 115.67641399999999 408.71978799999999 45.078743000000003
v 112.526802 419.96820100000008 44.707068999999997
v 132.48727400000001 355.19976800000001 -18.528576000000001
v 132.0737 355.91473400000007 -5.6826460000000001
v -3.8857805861880489e-16 242.30244491403425 83.741209942468743
v 1.1102230246251669e-16 438.6642358821868 60.784930982791749
v 4.4408920985006262e-16 -260.91127689538632 88.697303339678001
v 8.8817841970012523e-16 -91.777000829637842 -108.50364307132985
v -7.7715611723759814e-16 323.39168505208318 87.666920420597847
v 2.7755575615628914e-16 355.97966650430226 -112.69743445007167
v 2.2204460492503116e-16 -489.2144114931512 -66.521385367441326
v -6.9388939039072777e-17 379.53661541079265 -115.33596411655198
v -1.1102230246251329e-16 318.18309725933068 -108.49306549812401
v 2.2204460492503017e-16 254.99276441358205 -103.55036452130301
v 4.4408920985006262e-16 -384.10304034631366 -72.395595320376799
v -1.3877787807814358e-16 -372.1876193129645 -73.025744032268989
v -3.6776137690705337e-16 444.55125713305688 -116.83478242980081
v 5.5511151231258468e-17 419.90598000606951 -117.57253981815353
v 3.3306690738754701e-16 407.55573210085834 -117.3212001308589
v -4.4408920985006262e-16 -361.57530109561867 -74.169226738492981
v -5.5511151231257926e-16 -328.65519794837286 -76.244955478454813
v 6.6613381477509392e-16 245.13408603752356 -102.88636561081302
v 0 47.058086901781181 -107.68627254060431
v 5.5511151231256903e-17 -102.90754872903821 -104.71099162952409
v 2.2204460492503003e-16 -125.46540626180706 -97.692328853887574
v 2.2204460492503121e-16 -56.960189864573493 -118.03518926361835
v 2.2204460492503131e-16 26.620756934205616 -112.84453175810711
v 4.4408920985006262e-16 67.527141972634752 -103.14895042582485
v 4.4408920985006262e-16 -31.990384763160762 -120.8089628272444
v -4.4408920985006281e-16 -222.80368675450961 -84.959340148914208
v 1.1102230246251535e-16 -207.62036704519238 -85.977309582578897
v 0 460.76273492730127 51.227737577509615
v -2.2204460492501573e-16 -541.93795738873246 65.278447794482332
v 8.8817841970012523e-16 -532.10524773285204 66.074223687914085
v 0 218.22935815762452 84.058955365932547
v 2.5144941353919758e-30 195.74021583358279 85.048386799228012
v 2.4980018054066096e-16 173.11193080240417 87.257878662973823
v -2.2204460492503131e-16 -471.75494993670281 69.651620346716186
v -1.1102230246251565e-16 -450.1052116025387 71.586738714248753
v 5.5511151231257852e-17 -439.04971223078803 72.056403683254075
v -5.5511151231257852e-17 117.27219383353983 98.064076053982348
v 4.1633363423447543e-17 -495.02777120151518 67.947828516140916
v -1.9721522630525295e-31 62.266740228330804 100.68156205065293
v -5.6206339496997091e-30 161.13936404428262 88.992106346040799
v -2.7755575615628933e-16 76.426406391788078 101.60338118329656
v -1.6653345369377397e-16 -218.18607156586131 93.226723833247902
v 8.8817841970012523e-16 -207.68308702724784 94.138684162037492
v 8.8817841970012523e-16 -229.6149502462203 92.157893801936567
v 1.0824674490095255e-15 -164.5928274901203 95.966091545620102
v 6.6613381477509392e-16 -182.44673118693228 95.41253150852927
v 1.110223024625139e-16 -142.3368582781759 96.312897656976517
v 0 -64.860725623176734 93.248190602180955
v 3.3306690738755194e-16 -271.04937918610153 87.508678402809807
v 1.6653345369376744e-16 -128.80139521021908 96.319931756122031
v -6.6613381477509392e-16 -99.795448293552838 95.6052608835775
v -2.2204460492503693e-16 410.35609807728247 73.558640839063614
v 5.5511151231255263e-17 282.79523604733185 84.870436470634431
v -2.2204460492503131e-16 -333.63627705606228 81.115195461978814
v -2.2204460492503151e-16 -297.55001924892167 84.090479669639137
v 0 -403.61584171809233 75.457142496807066
v 0 -411.94972819102225 74.702992584089884
v -4.4408920985006262e-16 432.42997081751253 -117.50245642144847
v 2.2204460492503131e-16 534.54519133901113 -96.260519932619701
v 2.7755575615628914e-16 501.57704056451564 -107.64634568672683
v -1.332267629550188e-15 368.66695607060814 -114.22537197511474
v 5.5511151231257827e-17 -537.4138006460247 -63.630006864830804
v -7.2164496600635175e-16 393.82769918016407 -116.56071133707258
v -4.4408920985006262e-16 342.7914381747745 -111.13075278956885
v -6.6613381477509314e-16 92.809450424454099 -99.315270946014351
v -5.5511151231258345e-17 136.29769520787238 -97.164073654105039
v -3.3306690738754701e-16 153.31259381377154 -97.381994854654323
v -8.6281661508548166e-31 166.47496261274196 -97.944175824172675
v 6.9388939039068229e-17 232.93914067716531 -101.96776962341319
v -4.4408920985006262e-16 220.60433892701997 -100.99434737069544
v 1.3877787807814457e-16 -395.41476153330166 -71.362142207675817
v -4.4408920985006262e-16 -405.24270972789179 -71.167473357116251
v -4.4408920985006262e-16 -427.57981206129568 -70.926737587795145
v -1.6653345369376816e-16 -415.29939395311862 -70.807888737268613
v 3.3306690738754849e-16 466.69450605527203 -114.64117369165095
v -4.4408920985006262e-16 456.78414563113768 -115.87639904725052
v -4.9960036108131818e-16 478.45938570604488 -112.75219912507119
v 4.4408920985006262e-16 -449.0257215007839 -69.681713968218105
v -2.7755575615629012e-16 -350.26953886913458 -74.910652783219902
v 2.2204460492503131e-16 -181.60609190783296 -87.983097872408038
v 4.4408920985006262e-16 -288.07747979281419 -79.520478141585755
v -4.4408920985006262e-16 279.58626548403197 -105.15069869893604
v -1.3877787807812295e-16 269.15563273672615 -104.60332424745592
v 2.2204460492503131e-16 55.42831948788529 -105.72104323449665
v 0 38.095245929978404 -109.95075200678163
v -3.3306690738754701e-16 -250.31903090265075 -82.77581660296589
v 2.7755575615628933e-16 -159.97351995993245 -90.523303761021182
v 5.3248111102418297e-30 -148.77736416926183 -92.311390455466352
v 4.4408920985006262e-16 -138.76844964235744 -94.29074257528805
v -3.3306690738754706e-16 79.806557404949402 -101.01694698426186
v 8.8817841970012464e-16 -43.831748887936044 -119.96743145134306
v -8.8817841970012523e-16 -236.84330129076287 -83.915098362509042
v -4.4408920985006479e-16 -195.6849727338253 -86.813241095056426
v 1.1102230246251551e-16 449.43471641439311 55.986710328956235
v -1.1102230246251565e-16 344.83073259972792 88.423391681478876
v -1.6653345369377323e-16 425.06817355028841 66.98096314563395
v -1.1102230246251086e-16 -519.18237688559259 66.331432983350936
v 8.8817841970012523e-16 -481.14123398668909 69.163543314616931
v -1.3322676295501878e-15 186.45801480418817 85.64493608117148
v -1.3877787807814541e-16 149.31251102501977 91.288436546528047
v 4.4408920985006262e-16 -460.17176702353561 71.227378374505975
v 4.4408920985006262e-16 87.597981216803134 101.51737514528115
v 2.2204460492503106e-16 40.646035789883442 97.839649391259243
v -3.3306690738754686e-16 -247.76034562856012 90.0060760343341
v 2.2204460492503555e-16 -238.28210069589687 91.101727801408487
v -1.110223024625176e-16 -195.05276172516835 94.847621004048392
v 1.1102230246252076e-16 -154.28444775367961 96.170672621414781
v 1.332267629550188e-15 -109.10950850157207 95.965387540443686
v -1.1102230246251565e-16 -118.83092157772126 96.204100238972714
v 0 -173.4452428748059 95.731954145078959
v 2.2204460492503451e-16 -76.102120811409463 94.140603846633894
v -2.2204460492503146e-16 -55.545526958305764 92.495702520298252
v -8.8817841970012523e-16 -307.0135124830071 83.189858831616618
v -1.8041124150158794e-16 -88.893745271127514 95.035751036942827
v -9.9920072216264108e-16 397.95241860860733 78.543366449039638
v -3.3306690738754686e-16 299.93764243109302 85.966413845890514
v -2.2204460492503476e-16 311.36273848254802 86.829346264491718
v -2.7755575615628918e-16 229.36438763735356 83.902108200678342
v 2.2204460492503136e-16 -315.9226000799024 82.629027387295821
v 5.551115123126007e-17 -284.89797013505563 85.698518119425401
v 1.3877787807816537e-16 -380.87107152393628 77.381490101557631
v 1.6653345369377341e-16 -392.79862874454273 76.274364775004159
v -2.7755575615628784e-17 -364.44779473054433 78.717998461904529
v -1.1102230246251824e-16 -348.61829379641176 79.676164087079556
v 4.4408920985006262e-16 -425.31403699561878 73.382904275311176
v 0 178.14461673279186 -98.460663659755824
v -1.1102230246251563e-16 188.9962729642431 -99.161640625604264
v -2.2204460492503151e-16 269.391138976354 84.193575127061706
v -2.2204460492502771e-16 374.47277833578477 85.418355479678013
v -4.4408920985006202e-16 385.83221749318312 82.579923350102135
v 3.2429910000000022 544.37720486966532 -91.897729828604241
v -8.8817841970012523e-16 512.86521993391057 -104.38694855371565
v 4.4408920985006262e-16 -173.10347609904028 -88.815189505113665
v -6.6613381477509136e-16 -436.25030118809332 -70.16903643104537
v -1.1102230246251565e-16 -18.600737645130895 -120.49822898857776
v 8.8817841970012523e-16 -8.807623168845808 -119.64796829740216
v 1.6653345369377363e-16 11.822275944466652 -116.18665562192568
v -1.11022302462514e-16 474.15944555156523 45.88903370730484
v -6.6613381477509402e-16 361.59111296258777 87.435623189302888
v -1.1102230246250974e-16 256.60752446339819 83.836506214244096
v 2.2204460492503131e-16 -42.703244140638709 91.578756535372676
v 4.4408920985006227e-16 -29.891177400940379 90.982369098522952
v -2.7755575615628958e-16 0.17926660339466216 91.944859934403439
v -8.8817841970012523e-16 12.524550825026346 93.401775693496205
v -5.5511151231257748e-16 25.030023292209812 95.300387135414724
v 2.2204460492503427e-16 331.38373560985531 -109.8068248970924
v 8.8817841970012523e-16 491.41669850375627 -110.250391036804
v 2.2204460492503131e-16 -0.37361896650841997 -118.43169671953937
v 0 -508.51300776354799 67.130001444289121
v -6.9388939039070903e-17 -503.82461776675245 -65.49623798470958
v 5.5511151231252046e-17 -298.77250898988177 -78.500583989218768
v 5.5511151231257452e-16 -264.06562352454284 -81.588486314491874
v -2.2204460492503121e-16 304.95457270324687 -107.21372033813728
v -5.551115123124714e-17 -312.00494863148413 -77.253954401879497
v 1.1102230246251647e-16 -275.81649973743924 -80.514899364615061
v 8.8817841970012523e-16 -10.445700466493609 91.104823306929774
v -2.2204460492503441e-16 100.92540454357049 100.56348675931488
v -2.7755575615627629e-17 -71.766389624620444 -114.70360311529916
v -1.3877787807814457e-16 333.96151803654141 88.215458053104541
v -3.3306690738754696e-16 -82.959203859648866 -111.40213336949203
v -4.1633363423443469e-16 -339.46236840875372 -75.577804130837364
v 119.11405550000001 418.51733400000001 -107.04304500000001
v 7.6327832942980128e-17 -496.5195146299518 -66.008811676075453
v 1.5265566588595952e-16 -378.14532982963908 -72.710669676322908
v 72.017215999999991 530.6295775000001 -4.6362864999999998
v -6.9388939039075513e-17 155.22593753465119 90.14027144628443
v -4.5796699765787135e-16 328.67660154431229 87.941189236851187
v -1.387778780781458e-16 291.36643923921247 85.418425158262465
v 0 -407.78278495455737 75.080067540448482
v 45.512988999999997 552.05780000000004 -82.438289499999996
v 130.01138300000002 367.81713850000011 -66.271034
v 128.17461800000001 379.31848150000002 -81.714866999999998
v 125.3561325 393.35650650000002 -94.463962500000008
v 112.51512900000002 503.64746100000002 -99.480670500000002
v 113.6054725 519.98040749999996 -85.8364105
v 112.13915650000004 494.65441900000002 -104.31158450000001
v 111.94424050000002 475.55889900000011 -110.15950000000004
v 117.21641149999999 427.57598849999999 -109.60409899999999
v 114.0997735 446.49053950000001 -112.2097855
v 24.664942 547.04461700000002 -89.357284499999992
v 130.8047335 363.39642300000003 -57.672038999999998
v 6.5966694999999866 -551.77250631135757 -64.397732715562938
v 3.3306690738754632e-16 -120.3366629974429 -99.171387296531663
v 24.082315999999999 480.92834449999998 41.541518999999994
v 104.7022705 488.22155750000007 17.661847999999999
v 55.682289000000011 504.23107900000002 23.778921500000006
v 65.240318000000002 517.48461950000001 10.823983500000001
v 69.0554925 524.14489750000007 3.456194
v 3.8857805861880721e-16 -525.64381230922231 66.202828335632518
v 5.5511151231258044e-16 -233.94852547105859 91.629810801672519
v 6.106226635438361e-16 -113.97021503964666 96.084743889708193
v -2.7755575615629081e-16 305.6501904568205 86.397880055191109
v 121.21967699999999 409.77862549999998 -103.57537450000001
v 105.3291625 497.12548800000008 11.722407500000001
v 108.73131549999999 435.98065150000002 41.622973999999999
v 53.656886999999998 553.97967500000004 -77.258750499999991
v 129.15008549999999 373.20971700000001 -74.219490000000008
v 126.95694000000003 386.00683600000002 -88.567169500000006
v 123.38037850000001 401.347534 -99.391010000000009
v 113.05107100000001 512.15014650000001 -93.226878999999997
v 113.93992249999999 526.48406950000003 -77.241782999999998
v 111.9474525 485.23144550000001 -107.73835
v 112.23117099999999 465.8280640000001 -111.76966849999999
v 115.5498125 436.93798800000002 -111.26004
v 112.94923800000001 456.13159200000013 -112.44834900000001
v 11.050477500000001 545.14328393483265 -91.236214414302111
v 131.52825949999999 359.94592249999999 -47.986234500000002
v -5.5511151231257699e-16 -431.9150566246945 -70.547887009420265
v 3.6082248300317607e-16 -166.53849802948639 -89.669246633067416
v 3.3306690738754701e-16 -177.35478400343663 -88.399143688760859
v 14.023963999999999 477.64331049999998 43.8265265
v 60.791412000000022 510.79248050000001 17.6014515
v 111.162071 425.39239500000008 43.859046499999998
v 132.28048699999999 355.55725100000012 -12.105611
v 132.42587250000003 355.71362299999998 -24.809564500000008
v -1.6653345369377062e-16 262.99933171987607 84.015040670652894
v 5.5511151231257876e-17 -254.33581126197325 89.351689687006072
v 5.8286708792820718e-16 496.49686953413607 -108.9483683617654
v 5.5511151231257827e-16 -4.5906210676771142 -119.03983250847077
v 74.092193500000008 536.88409449999995 -13.433451500000002
v 2.2204460492503123e-16 -482.84685617275193 -66.97652781133057
v 2.7755575615628958e-16 -281.94698976512672 -80.017688753100401
v -3.6082248300317637e-16 -355.9224199823766 -74.539939760856441
v 106.8682175 446.3553465 38.295058999999995
v 105.51490000000001 457.07495100000006 33.914550499999997
v 4.6490589156178637e-16 -488.0845025941021 68.555685915378916
v -1.2490009027033011e-16 339.39612531813464 88.319424867291701
v 0 42.576666415879792 -108.81851227369296
v 3.3306690738755475e-16 -537.02160256079219 65.676335741198216
v 4.8572257327355172e-17 202.01867111523455 84.772630823632824
v 3.6082248300317563e-16 -212.93457929655457 93.682703997642705
v 3.6082248300317563e-16 -223.90051090604081 92.692308817592235
v -5.2735593669694936e-16 362.32331128745523 -113.46140321259321
v -7.0082828429463026e-16 374.10178574070039 -114.78066804583335
v 0.23322799999998617 -544.48178713437005 -63.101381147978344
v -1.8735013540549719e-16 226.77173980209264 -101.48105849705431
v 4.4408920985006202e-16 250.06342522555281 -103.21836506605801
v -2.2204460492503131e-16 215.12037646351004 -100.71446268534771
v 2.9143354396410359e-16 -389.75890093980752 -71.878868764026294
v -1.5265566588595902e-16 -400.32873563059667 -71.264807782396019
v -5.5511151231257087e-17 461.73932584320482 -115.25878636945073
v -4.0592529337855797e-16 450.66770138209733 -116.35559073852565
v -3.0531133177191544e-16 -410.27105184050527 -70.987681047192439
v 2.4980018054065731e-16 -293.42499439134798 -79.010531065402262
v 4.1633363423453613e-17 262.07419857515413 -104.07684438437946
v 1.1102230246251565e-16 51.243203194833235 -106.70365788755046
v 4.9975940000000003 -542.56040919436623 64.522608397241157
v 3.3306690738754696e-16 -476.44809196169592 69.407581830666558
v -6.6613381477509264e-16 191.09911531888548 85.346661440199739
v 1.2490009027032767e-16 167.12564742334339 88.124992504507304
v 1.1102230246251565e-16 -465.96335848011921 70.43949936061108
v 1.6653345369377348e-16 -455.13848931303716 71.407058544377364
v 3.885780586188038e-16 -201.36792437620809 94.493152583042942
v -5.5511151231255658e-17 -243.02122316222849 90.553901917871286
v 2.7755575615628815e-16 -188.74974645605033 95.130076256288831
v 3.3306690738754696e-16 -177.94598703086911 95.572242826804114
v -5.5511151231257837e-16 -302.28176586596442 83.640169250627878
v 2.0816681711723288e-17 -82.497933041268482 94.588177441788361
v 3.3306690738754696e-16 -104.45247839756246 95.785324212010593
v -4.2327252813834093e-16 -94.344596782340176 95.320505960260164
v -3.3306690738754696e-16 -311.46805628145478 82.90944310945622
v 8.3266726846886704e-17 -398.20723523131761 75.865753635905605
v -3.0531133177191805e-16 507.22113024921305 -106.01664712022128
v -1.1102230246251437e-16 -442.63801134443861 -69.925375199631731
v 3.8857805861880489e-16 -13.704180406988353 -120.07309864298996
v -5.5511151231257001e-17 467.46109023943325 48.558385642407231
v 2.2204460492503114e-16 -24.519715700470197 90.907745549261477
v -8.3266726846888121e-17 276.09318751184293 84.532005798848076
v 3.3306690738754676e-16 -36.297210770789547 91.280562816947821
v -3.469446951953624e-16 -344.86595363894412 -75.24422845702864
v 3.3306690738754632e-16 -132.11692795208225 -95.99153571458784
v -1.804112415015873e-16 -77.362796742134663 -113.05286824239559
v 2.7755575615628914e-16 -87.368102344643347 -109.95288822041094
v 4.3944999999999999 475.27250227578259 45.300637853652418
v 8.8817841970012523e-16 -8.807623168845808 -119.64796829740216
v 2.2204460492503114e-16 -24.519715700470197 90.907745549261477
v -166.67795366837495 3.7527983506518607 -6.6497824911960333
v -163.00734136674242 5.2592833575312845 34.094299185095977
v -84.926288257273711 -11.471948185688042 86.04112388230503
v -125.73452741771524 -0.55063911038383695 74.682837668842723
v -141.44058843471606 -0.87358898088817938 -65.438369772781954
v -147.41028884808782 -0.30745188351992098 -56.307733276720043
v -164.48587621755027 2.8973575946563415 -17.115073983565722
v -157.37196812263062 1.1154439265947103 -37.214304902271131
v -161.32909052403357 1.9880001702877732 -27.30087317763434
v -127.59080322975886 -2.0236289378718042 -82.272484320076487
v -119.79060518254755 -2.7361485331721105 -89.603972873554824
v -134.83601151264386 -1.4195491725048952 -74.163712833273735
v -74.248890062557933 -6.6992773114294826 -114.75372698473339
v -63.713480839850561 -7.3259654819629034 -117.12521967702928
v -53.08862491599745 -7.7939726469957762 -118.74825378324222
v -111.68503751597726 -3.4990819900698988 -96.291986130556623
v -32.745567226032875 -8.4330314297173494 -119.78527875438476
v -152.34054796753429 4.3302653714455381 53.191862354785115
v -144.88288396424844 3.2571760051482768 61.70458998225677
v -74.230019188698563 -14.346105087026405 87.444562248144138
v -158.32726032107087 4.9504980997586525 43.866563446802999
v -167.75536401388644 4.9865334141807098 13.688146844033772
v -167.79800916095678 4.4577934294342665 3.4350742924357163
v -166.19422506165969 5.2711042016005107 23.978565040955978
v -22.600100654994989 -23.157674060625368 90.589626933924905
v -114.80633452134509 -3.2026694781126164 79.108608671662608
v -95.262873770407907 -8.5470349564533521 84.239120900304243
v -105.21280943456762 -5.7568195333650873 81.95811128657374
v -41.741658019429316 -20.988325887126479 89.861865052360116
v -31.739785623307533 -22.274133429527055 90.274873374509866
v -135.88762954111655 1.6198610855715279 68.902374852960875
v -63.298090736021237 -16.985120289887387 88.475527473923364
v -52.366472920567269 -19.227185758856926 89.263209032082642
v -84.358591207741782 -5.9788822888204525 -111.2966193626844
v -103.07563191289711 -4.3344921971537307 -102.08240356999544
v -93.986516556726542 -5.1754736896089302 -107.09122396323366
v -15.132243939541443 -8.7279068256550474 -119.67689406543738
v -152.73288094846049 0.34662938005334792 -46.888683703853403
v -23.54955903271653 -8.6182631815077144 -119.75986547461183
v -42.662552626050214 -8.155575456576889 -119.5656450989967
v -6.9694072434054943 -24.173373113234508 90.890348638478883
v -14.39055949242028 -23.751054612185854 90.7842321645889
v -7.3759410402889491 -8.7840084250604562 -119.62375663326729
v -4.0592529337855797e-16 450.66770138209733 -116.35559073852565
v -112.46843 460.96649200000002 -112.363899
v -52.119725389808671 456.56291429396998 -119.17245140665818
v -42.047232596060027 455.4028085380022 -118.54099050702159
v -93.336899188754458 459.81546378241342 -116.81371788943622
v -62.515895663376021 457.61439409311072 -119.61552925562471
v -23.562283387450059 453.11143825324183 -117.29420973787595
v -32.488455098051553 454.22118498968132 -117.89941946160133
v -73.008986019588292 458.49958383681667 -119.55764295884836
v -83.34545500928445 459.21134737940986 -118.58541468268534
v -15.268829757876237 452.15059603997202 -116.83661530593049
v -103.00331975455788 460.39142308651554 -114.67660985842696
v -7.4905364664898073 451.35394425179186 -116.52057372038485
v -101.7799202128021 527.76949408707048 -15.10799917757522
v -109.70195000000004 525.81085199999995 -15.462242000000002
v -94.210330386571087 529.97923153490228 -14.605964890170419
v -87.135671500748359 532.33083763907075 -14.097710460280325
v -80.49041280803155 534.64297107649418 -13.710579386645982
v -74.092193500000008 536.88409449999995 -13.433451500000002
v -191.33422899999999 -546.28411900000003 11.877307999999999
v -190.14229698302552 -513.33243659948334 10.985779532484774
v -188.94633515628485 -490.4346901874253 10.316525412150909
v -187.53333403578046 -466.60808764287538 9.4424511496471482
v -185.69919138184014 -429.41778165032508 7.8026677889468719
v -182.2835245709623 -349.30188348433745 6.9418360685326714
v -180.59394822951924 -322.42404890100289 7.4823247001428861
v -178.79135587909883 -283.47403993792528 7.4970507642567181
v -177.6215275090359 -257.13376006704431 7.0773941051786684
v -176.3472498658675 -229.31356703332392 6.9728761983805176
v -179.01734775275241 -134.56016285502261 3.1412028916147627
v -180.14664280947721 -108.11486737389893 0.49165111277668794
v -179.40164225998996 -80.884951818257349 -1.9419709519126567
v -176.66000734630535 -52.946691294745179 -3.8994518123433668
v -172.29167771755613 -24.640175693637001 -5.4503811445124244
v -166.67795366837495 3.7527983506518607 -6.6497824911960333
v -161.64503103884482 27.437073231925829 -7.4214848555088739
v -156.54009119763259 51.749478132454158 -8.0202072359294796
v -146.2764448311803 88.263764537538634 -8.2801657288976518
v -138.06759386682415 111.30138650087295 -8.1343679442481296
v -126.4870412192749 142.9447815553759 -7.8304408593058454
v -118.116647638346 173.12823919282323 -8.093327334649894
v -112.77948880837813 204.56107065825745 -9.0452322928645152
v -113.39166642032592 239.12941858411352 -10.024291784208016
v -188.28499153673079 -478.62850778817756 9.9133465019290323
v -183.88915777797149 -390.1790164409382 6.7344079822720673
v -178.23965427953755 -270.46712402753718 7.2769862876657161
v -169.61293440378626 -10.451776056403668 -6.091106296880251
v -178.2906315025771 -66.983624820922245 -2.9789684930459908
v -142.20448474053984 99.97720201746435 -8.2248081378556215
v -118.8477876922546 286.64044105353241 -12.409818550831025
v -185.90118642094839 -442.01704874310076 8.3418432496043824
v -159.07279597391843 39.501977485453992 -7.7369942099758315
v -189.5265101325256 -502.00491162775904 10.667908071989057
v -190.86827053071681 -535.41508099452517 11.571911011240168
v -181.44408915529698 -335.76981509712692 7.2217113166044129
v -123.38369583029555 309.07140394680096 -14.611109318948218
v -114.49647145301896 251.04091731864338 -10.364180667022179
v -182.86747583996191 -362.95690428700709 6.7344498727348947
v -179.97817572265245 -94.603505377179999 -0.77807365525573835
v -153.68117663678231 64.064168746324725 -8.2209133414705668
v -174.63131304779162 -38.818679884461389 -4.7193902322737973
v -133.98928937553157 122.1997219995695 -8.0223151389052525
v -185.19072384136666 -416.59933653036126 7.3286784052210914
v -179.83099618973074 -121.42530771693993 1.8221504290472943
v -164.20843683042247 15.538408667085841 -7.0644218142105295
v -179.40282980061602 -296.34631934766514 7.6420970844649734
v -177.01872551605868 -243.38577419592661 6.9742454301492689
v -175.5965379710932 -173.80452588133733 6.1530215645179442
v -115.7797878587468 183.28088313785565 -8.3549298730906933
v -117.12893945295296 274.89945661079116 -11.520903979148436
v -183.23395229116807 -376.62705698256082 6.6566199144620555
v -177.82254797649711 -147.58210089972013 4.355168186614863
v -176.68281309358343 -160.62315474933973 5.3889255816537238
v -127.73506414340474 329.34167479311304 -16.624884948035728
v -125.72750068734567 319.52042466642172 -15.686855558402986
v -132.48727400000001 355.19976800000001 -18.528576000000001
v -175.75340026416933 -215.12701687526794 7.0059887055056356
v -115.77074925166923 262.99166900743126 -10.837317616674714
v -175.33303870444865 -201.06123400687102 6.9460088869115744
v -121.05251571983464 298.0605581734921 -13.489557772907901
v -112.45984857835509 215.79144420337192 -9.3962653527349733
v -112.63951987743872 227.34508564531271 -9.7256474055801494
v -120.6472681485386 163.09234404004138 -7.911952162703412
v -130.11031729500604 132.72046255500203 -7.9123935145214777
v -123.46057390986222 153.07530935461781 -7.8373462090618933
v -113.96966038162304 193.73335764536228 -8.6678122497506536
v -186.60344946415671 -454.40816837263503 8.9109468891832417
v -184.52861544977657 -403.52256953338525 6.9616321905390386
v -190.63483772650912 -524.45097844715406 11.285294380800782
v -150.17479462250046 76.262372714268082 -8.290424011664534
v -175.21617987204559 -187.27237096656302 6.6822187526693826
v -129.47048877653862 338.47542841391135 -17.390724378290429
v -179.85985657628953 -309.29460489372116 7.6279447691294084
v -131.02536386960742 347.01178828261493 -18.003824503064845
v -117.17651400000001 -545.75085400000012 117.46356200000001
v -120.70650706947544 334.13774455661314 31.798009475695913
v -116.87662346626581 -19.604975189034008 81.280575166991156
v -112.18458514067716 312.99987576176363 36.277979168687096
v -89.764178251042523 185.58981671146577 52.106883145177378
v -92.147084298321346 162.22442461142117 56.294142184184409
v -122.68594302917056 -423.46461669031351 104.09675504855923
v -122.13523877764244 -400.46009654170467 102.60680192555172
v -97.350967912094092 268.70901152150884 40.298098441014197
v -103.64349739361131 291.26619891205331 38.360834188180768
v -110.69468985689517 -194.91851738520103 89.805695935396727
v -122.87713524123035 -435.08817096557129 105.15015277186887
v -119.03715409011019 -58.073819497549188 87.140836512687486
v -118.48549962706574 -37.880739501401266 84.270342683532235
v -116.83712522253153 -100.77090425708789 91.500373086715712
v -119.10766978107351 -342.1355275133356 98.960263048469471
v -107.75976408093467 302.22091301270348 37.508122945862951
v -89.581297223954692 197.57069501328451 50.338106018443902
v -117.69494477646671 -535.97780014267846 116.44872100857023
v -116.72051937132949 323.59369836312419 34.460380210986671
v -128.966644 365.10638399999999 19.719391000000002
v -100.22785898691984 280.07295431720337 39.286808297025445
v -117.77238570385759 -28.477789452179756 82.717949128487874
v -94.008239594515118 150.91151283273973 58.659587200348241
v -119.82946641889546 -504.96581635913975 112.75166061961934
v -118.99176554650671 -515.70191999452231 114.1098493365586
v -118.30389018338468 -526.00542182104937 115.41925766117956
v -122.79777296882133 -458.65598155810665 107.64292843389788
v -122.9136275217385 -446.83320101298125 106.28939127434751
v -122.27629328485274 -470.52024750379996 108.77058679363941
v -121.60219919384873 -482.27375155652317 110.09005212116828
v -89.699280078359322 209.58962695874072 48.32464027117274
v -90.783428929041676 173.82518376338174 54.237031108161624
v -120.74894646699164 -493.79581747768293 111.42513934768103
v -91.576935903378981 233.60929101827571 44.672744147407599
v -100.51772210519292 118.21246197101414 66.214131965454612
v -102.44222563051751 107.44682790667601 68.540184967597526
v -105.26791389851105 85.388780372226108 72.042095182255537
v -106.36855211042882 73.943533980461282 73.34520051821832
v -113.21672804201904 -268.08491073274269 93.997323090590072
v -95.074000728831265 257.16361365420153 41.56220872796964
v -93.17067774153719 245.4628907747412 43.043472221200162
v -111.13979280329568 -169.77745041483104 90.742337627662508
v -109.60586430689351 37.120389434359936 75.611731109564204
v -108.35854569475414 49.823216801751343 74.91842624143176
v -98.425241060980653 129.00264104995279 63.785048018319813
v -104.00904772071834 96.533519887368215 70.482358451952024
v -114.80633452134509 -3.2026694781126164 79.108608671662608
v -112.92432348540136 10.549866963722849 77.714595528591104
v -107.31274675856275 62.092338603552406 74.196793859795292
v -111.14161680302487 24.012596423396467 76.516086485357334
v -115.8725566077859 -11.217581838890691 80.092229883006581
v -118.34661168493754 -79.319130151656253 89.44058512309887
v -117.64904769022121 -90.04492326650427 90.472875237496197
v -118.92522054134965 -47.77841784923028 85.786129316901366
v -118.83181160793768 -68.627218234404012 88.373223802870484
v -111.11612795177929 -219.67780757948836 90.63027930471921
v -111.42374014067808 -231.79051431960136 91.314252070194584
v -110.85801950728683 -207.39329741921773 90.075950542490006
v -114.8474194680097 -122.49783714705498 92.77787627978897
v -110.79026713215003 -182.33109615287469 90.116421194801006
v -113.70961922814044 -133.7443169787789 92.643901749668885
v -112.63308275541252 -145.37509149533565 92.122799478914217
v -114.1792262669837 -280.433495422448 94.960817306963946
v -111.82445463985462 -243.82395831612584 92.080667118488606
v -119.89929320361719 -354.06668388661677 99.781273644776689
v -120.60210631611989 -365.83489930651729 100.5575331102315
v -115.26174598767312 -292.87910798084113 95.908829344318917
v -116.27946113168221 -305.35918743304734 96.60470061924751
v -118.22443453874169 -330.03353072732466 98.115133597187793
v -117.26770919571965 -317.76617960203322 97.307543551108211
v -121.66287117187017 -388.99817158751682 101.84135603089175
v -111.77547459626543 -157.41763287793563 91.528704219836953
v -96.264181387534549 139.90916663832945 61.326508752485118
v -123.74829874641929 344.63027772006217 28.243162931319077
v -112.41086527467618 -255.89203626519787 92.988567734502297
v -115.92989820263969 -111.54399467750835 92.460612131144842
v -122.50898180395953 -411.92484872803755 103.40630071512106
v -121.19003289719538 -377.46724925312134 101.23503008168919
v -126.41983321406252 354.93368542992778 24.123548316413096
v -90.319135054138584 221.62755703208649 46.376815256359507
v -2.2204460492501573e-16 -541.93795738873246 65.278447794482332
v 2.2204460492503131e-16 534.54519133901113 -96.260519932619701
v 5.5511151231257827e-17 -537.4138006460247 -63.630006864830804
v -1.11022302462514e-16 474.15944555156523 45.88903370730484
v -191.33422899999999 -546.28411900000003 11.877307999999999
v -132.36447100000001 356.22747800000008 -31.090553
v -130.42340100000001 365.33904999999999 -62.183937
v -126.26545 389.50091600000007 -91.78545400000003
v -118.102699 422.96038800000002 -108.57489
v -112.46843 460.96649200000002 -112.363899
v -112.27797700000004 499.27410900000012 -102.290031
v -114.01876100000003 529.28680399999996 -72.593192999999999
v -110.996117 531.14056400000004 -25.398457000000008
v -75.024681000000001 549.91656499999999 -37.054340000000003
v -57.306807999999997 554.69854699999996 -74.298575999999997
v -0.46645599999997228 -551.54977362271529 -62.572755431125877
v -23.90954 -551.90307600000006 -72.955482000000003
v -45.386242000000003 -551.65051300000005 -89.431847000000005
v -68.582038999999995 -551.14599599999997 -101.97978999999999
v -93.767166000000003 -550.53271500000005 -104.305679
v -118.10940600000002 -549.89642300000003 -95.175476000000003
v -139.99243200000001 -549.10382100000004 -79.229918999999995
v -159.51998900000001 -548.20636000000013 -60.183174000000008
v -175.94931 -547.36285399999997 -38.583454000000003
v -187.42742899999999 -546.69335899999999 -14.308085999999999
v -28.905704 482.95562699999999 40.142226999999998
v -52.927292000000001 500.99822999999998 26.699985999999999
v -70.775886999999997 527.44158900000002 -0.39053300000000013
v -105.72855400000002 501.46392800000001 8.5979810000000008
v -104.958656 462.58392300000003 31.473907000000001
v -109.79734000000001 430.81658900000008 43.011024000000006
v -119.076775 397.19183299999997 43.369068000000006
v -126.10382799999999 374.20929000000001 30.62122500000001
v -130.954071 359.019226 7.2251989999999999
v -186.25308200000003 -546.10955799999999 38.029674999999997
v -174.81890899999999 -546.04589799999997 62.624778999999997
v -159.26693700000001 -545.983521 84.949791000000005
v -140.05032299999999 -545.87768600000004 104.04801200000001
v -117.17651400000001 -545.75085400000012 117.46356200000001
v -91.940308000000002 -545.48644999999999 120.73499300000002
v -68.742194999999995 -544.88708499999996 111.20146200000001
v -50.403736000000002 -544.00329599999998 92.217429999999993
v -32.284160999999997 -543.20159899999999 72.869545000000002
v -9.9951880000000006 -543.182861 63.766768999999996
v -190.50579800000006 -546.45434599999999 -1.3454969999999999
v -106.20805400000002 -550.22558600000002 -100.95598600000002
v -34.637962000000002 -551.80407700000001 -81.162552000000005
v -182.45358300000004 -546.99951199999998 -26.766098
v -168.21933000000001 -547.76965300000006 -49.719253999999999
v -41.019011999999996 550.85479699999996 -84.657653999999994
v -128.700806 376.12420700000001 -78.080849000000001
v -122.313942 405.48297100000013 -101.639549
v -113.34986100000002 516.27948000000004 -89.782448000000002
v -112.99138600000001 533.85870399999999 -49.208838999999998
v -111.894569 480.42816199999999 -109.143562
v -129.359283 -549.52270499999997 -87.730018999999999
v -114.76950100000001 441.68438700000002 -111.88677199999999
v -68.251259000000005 554.21795699999996 -56.953437999999998
v -131.870453 358.43804900000003 -42.812328000000008
v -81.084389000000002 -550.840149 -104.663612
v -150.06146200000001 -548.65759300000013 -70.012894000000017
v -56.635376000000001 -551.42614700000001 -96.668998999999999
v -12.726883000000001 -551.99523899999997 -66.222710000000006
v -122.650887 385.39947500000011 38.676453000000002
v -79.759285000000006 -545.23242200000004 117.528053
v -104.6409 -545.65100099999995 120.63808400000001
v -167.50494399999999 -546.01977499999998 74.113326999999998
v -189.81475800000001 -546.17443800000001 25.079514
v -104.47477000000001 483.65606700000001 20.476862000000008
v -128.966644 365.10638399999999 19.719391000000002
v -106.071144 451.56597900000003 36.355193999999997
v -63.145538000000002 514.12103300000001 14.345046000000004
v -74.925842000000003 539.95062299999995 -17.984863000000001
v -108.2696 518.34393299999999 -6.674213
v -150.11834700000003 -545.93420400000002 94.999153000000007
v -181.13235499999999 -546.07171600000004 50.57447100000001
v -41.752440999999997 -543.55187999999998 81.92662
v -21.59919 -543.05224599999997 66.403107000000006
v -59.105705 -544.46716300000003 102.40746300000001
v -129.05484000000001 -545.818848 111.723473
v -120.125412 414.07427999999999 -105.5112
v -112.08342700000003 533.62542699999995 -36.798805000000002
v -73.258544999999998 533.81756600000006 -8.8820399999999999
v -30.471920000000001 548.17987100000005 -88.139870000000002
v -50.006965999999998 553.26080300000001 -80.218924999999999
v -129.59936500000001 370.29522700000001 -70.358131
v -127.64843 382.51275600000008 -85.348884999999996
v -124.44681500000002 397.21209700000003 -97.142471000000015
v -112.752281 508.02081299999998 -96.671310000000005
v -113.86108400000001 523.68133499999999 -81.890372999999997
v -113.69193300000001 532.52984600000002 -61.52758
v -112.000336 490.0347290000002 -106.33313800000003
v -111.99391200000001 470.68963600000018 -111.175438
v -116.330124 432.19158900000002 -110.633308
v -113.430046 451.29669200000001 -112.53279900000003
v -63.233260999999999 554.92657499999996 -66.393294999999995
v -72.388785999999996 552.694885 -46.960509999999999
v -18.857963999999999 545.90936299999998 -90.574698999999995
v -131.18606600000001 361.45379600000007 -53.160141000000003
v -19.258928000000001 478.90106200000002 42.940810999999997
v -8.7889999999999997 476.385559 44.712242000000003
v -37.919193 488.392517 36.357627999999998
v -46.090980999999999 494.61627200000009 31.829514000000003
v -104.43040500000002 473.57684300000017 26.01652
v -104.92977100000004 492.78704800000014 14.846833999999999
v -107.665291 441.14471400000002 40.234923999999999
v -58.437286 507.46392800000001 20.857857000000003
v -67.335098000000002 520.848206 7.3029210000000022
v -75.725043999999997 545.53875700000003 -27.403793000000007
v -106.87699100000003 510.001892 1.374088
v -109.70195000000004 525.81085199999995 -15.462242000000002
v -115.67641399999999 408.71978799999999 45.078743000000003
v -112.526802 419.96820100000008 44.707068999999997
v -132.48727400000001 355.19976800000001 -18.528576000000001
v -132.0737 355.91473400000007 -5.6826460000000001
v -3.2429910000000022 544.37720486966532 -91.897729828604241
v -119.11405550000001 418.51733400000001 -107.04304500000001
v -72.017215999999991 530.6295775000001 -4.6362864999999998
v -45.512988999999997 552.05780000000004 -82.438289499999996
v -130.01138300000002 367.81713850000011 -66.271034
v -128.17461800000001 379.31848150000002 -81.714866999999998
v -125.3561325 393.35650650000002 -94.463962500000008
v -112.51512900000002 503.64746100000002 -99.480670500000002
v -113.6054725 519.98040749999996 -85.8364105
v -112.13915650000004 494.65441900000002 -104.31158450000001
v -111.94424050000002 475.55889900000011 -110.15950000000004
v -117.21641149999999 427.57598849999999 -109.60409899999999
v -114.0997735 446.49053950000001 -112.2097855
v -24.664942 547.04461700000002 -89.357284499999992
v -130.8047335 363.39642300000003 -57.672038999999998
v -6.5966694999999866 -551.77250631135757 -64.397732715562938
v -24.082315999999999 480.92834449999998 41.541518999999994
v -104.7022705 488.22155750000007 17.661847999999999
v -55.682289000000011 504.23107900000002 23.778921500000006
v -65.240318000000002 517.48461950000001 10.823983500000001
v -69.0554925 524.14489750000007 3.456194
v -121.21967699999999 409.77862549999998 -103.57537450000001
v -105.3291625 497.12548800000008 11.722407500000001
v -108.73131549999999 435.98065150000002 41.622973999999999
v -53.656886999999998 553.97967500000004 -77.258750499999991
v -129.15008549999999 373.20971700000001 -74.219490000000008
v -126.95694000000003 386.00683600000002 -88.567169500000006
v -123.38037850000001 401.347534 -99.391010000000009
v -113.05107100000001 512.15014650000001 -93.226878999999997
v -113.93992249999999 526.48406950000003 -77.241782999999998
v -111.9474525 485.23144550000001 -107.73835
v -112.23117099999999 465.8280640000001 -111.76966849999999
v -115.5498125 436.93798800000002 -111.26004
v -112.94923800000001 456.13159200000013 -112.44834900000001
v -11.050477500000001 545.14328393483265 -91.236214414302111
v -131.52825949999999 359.94592249999999 -47.986234500000002
v -14.023963999999999 477.64331049999998 43.8265265
v -60.791412000000022 510.79248050000001 17.6014515
v -111.162071 425.39239500000008 43.859046499999998
v -132.28048699999999 355.55725100000012 -12.105611
v -132.42587250000003 355.71362299999998 -24.809564500000008
v -74.092193500000008 536.88409449999995 -13.433451500000002
v -106.8682175 446.3553465 38.295058999999995
v -105.51490000000001 457.07495100000006 33.914550499999997
v -0.23322799999998617 -544.48178713437005 -63.101381147978344
v -4.9975940000000003 -542.56040919436623 64.522608397241157
v -4.3944999999999999 475.27250227578259 45.300637853652418
l 45/45 42/42
l 42/42 43/43
l 43/43 25/25
l 25/25 30/30
l 30/30 29/29
l 29/29 33/33
l 33/33 32/32
l 32/32 20/20
l 20/20 3/3
l 3/3 27/27
l 27/27 28/28
l 28/28 26/26
l 26/26 4/4
l 4/4 31/31
l 31/31 19/19
l 19/19 18/18
l 18/18 21/21
l 21/21 2/2
l 2/2 24/24
l 24/24 22/22
l 22/22 23/23
l 23/23 1/1
l 1/1 7/7
l 7/7 9/9
l 9/9 8/8
l 8/8 38/38
l 38/38 6/6
l 6/6 5/5
l 5/5 12/12
l 12/12 10/10
l 10/10 11/11
l 11/11 16/16
l 16/16 35/35
l 35/35 36/36
l 36/36 34/34
l 34/34 13/13
l 13/13 14/14
l 14/14 15/15
l 15/15 40/40
l 40/40 17/17
l 17/17 39/39
l 39/39 37/37
l 37/37 44/44
l 44/44 41/41
l 58/58 57/57
l 57/57 55/55
l 55/55 51/51
l 51/51 52/52
l 52/52 48/48
l 48/48 47/47
l 47/47 50/50
l 50/50 53/53
l 53/53 54/54
l 54/54 49/49
l 49/49 56/56
l 56/56 46/46
l 64/64 63/63
l 63/63 62/62
l 62/62 61/61
l 61/61 59/59
l 59/59 60/60
l 65/65 99/99
l 99/99 134/134
l 134/134 66/66
l 66/66 98/98
l 98/98 67/67
l 67/67 89/89
l 89/89 68/68
l 68/68 132/132
l 132/132 96/96
l 96/96 69/69
l 69/69 108/108
l 108/108 133/133
l 133/133 90/90
l 90/90 116/116
l 116/116 103/103
l 103/103 70/70
l 70/70 100/100
l 100/100 71/71
l 71/71 138/138
l 138/138 111/111
l 111/111 72/72
l 72/72 91/91
l 91/91 73/73
l 73/73 112/112
l 112/112 74/74
l 74/74 122/122
l 122/122 124/124
l 124/124 136/136
l 136/136 113/113
l 113/113 118/118
l 118/118 117/117
l 117/117 75/75
l 75/75 109/109
l 109/109 76/76
l 76/76 104/104
l 104/104 77/77
l 77/77 93/93
l 93/93 78/78
l 78/78 106/106
l 106/106 79/79
l 79/79 92/92
l 92/92 80/80
l 80/80 110/110
l 110/110 81/81
l 81/81 97/97
l 97/97 82/82
l 82/82 105/105
l 105/105 135/135
l 135/135 83/83
l 83/83 94/94
l 94/94 84/84
l 84/84 107/107
l 107/107 129/129
l 129/129 85/85
l 85/85 130/130
l 130/130 128/128
l 128/128 86/86
l 86/86 114/114
l 114/114 131/131
l 131/131 87/87
l 87/87 126/126
l 126/126 127/127
l 127/127 88/88
l 88/88 102/102
l 102/102 123/123
l 123/123 115/115
l 115/115 95/95
l 95/95 125/125
l 125/125 101/101
l 101/101 120/120
l 120/120 119/119
l 119/119 137/137
l 137/137 139/139
l 139/139 121/121
l 140/140 158/158
l 158/158 166/166
l 166/166 165/165
l 165/165 164/164
l 164/164 173/173
l 173/173 170/170
l 170/170 169/169
l 169/169 167/167
l 167/167 168/168
l 168/168 151/151
l 151/151 146/146
l 146/146 217/217
l 217/217 147/147
l 147/147 211/211
l 211/211 218/218
l 218/218 206/206
l 206/206 205/205
l 205/205 155/155
l 155/155 209/209
l 209/209 210/210
l 210/210 208/208
l 208/208 207/207
l 207/207 203/203
l 203/203 179/179
l 179/179 215/215
l 215/215 204/204
l 204/204 197/197
l 197/197 196/196
l 196/196 198/198
l 198/198 150/150
l 150/150 200/200
l 200/200 182/182
l 182/182 212/212
l 212/212 202/202
l 202/202 201/201
l 201/201 199/199
l 199/199 216/216
l 216/216 154/154
l 154/154 193/193
l 193/193 192/192
l 192/192 195/195
l 195/195 152/152
l 152/152 194/194
l 194/194 153/153
l 153/153 162/162
l 162/162 142/142
l 142/142 191/191
l 191/191 187/187
l 187/187 188/188
l 188/188 190/190
l 190/190 183/183
l 183/183 184/184
l 184/184 189/189
l 189/189 178/178
l 178/178 177/177
l 177/177 186/186
l 186/186 176/176
l 176/176 175/175
l 175/175 185/185
l 185/185 213/213
l 213/213 163/163
l 163/163 145/145
l 145/145 172/172
l 172/172 144/144
l 144/144 157/157
l 157/157 171/171
l 171/171 220/220
l 220/220 174/174
l 174/174 181/181
l 181/181 180/180
l 180/180 148/148
l 148/148 161/161
l 161/161 149/149
l 149/149 156/156
l 156/156 143/143
l 143/143 159/159
l 159/159 141/141
l 141/141 214/214
l 214/214 219/219
l 219/219 160/160
l 221/221 263/263
l 221/221 293/293
l 222/222 278/278
l 222/222 561/561
l 223/223 517/517
l 223/223 527/527
l 224/224 519/519
l 224/224 544/544
l 225/225 508/508
l 225/225 524/524
l 226/226 549/549
l 226/226 551/551
l 227/227 520/520
l 227/227 522/522
l 228/228 322/322
l 228/228 547/547
l 229/229 311/311
l 229/229 342/342
l 230/230 328/328
l 230/230 340/340
l 231/231 327/327
l 231/231 542/542
l 232/232 528/528
l 232/232 581/581
l 233/233 265/265
l 233/233 282/282
l 234/234 265/265
l 234/234 281/281
l 235/235 279/279
l 235/235 281/281
l 236/236 264/264
l 236/236 279/279
l 237/237 264/264
l 237/237 275/275
l 238/238 275/275
l 238/238 280/280
l 239/239 268/268
l 239/239 280/280
l 240/240 267/267
l 240/240 268/268
l 241/241 263/263
l 241/241 267/267
l 242/242 428/428
l 242/242 499/499
l 243/243 284/284
l 243/243 411/411
l 244/244 333/333
l 244/244 530/530
l 245/245 334/334
l 245/245 532/532
l 246/246 511/511
l 246/246 534/534
l 247/247 341/341
l 247/247 540/540
l 248/248 335/335
l 248/248 571/571
l 249/249 541/541
l 249/249 559/559
l 250/250 289/289
l 250/250 343/343
l 251/251 289/289
l 251/251 295/295
l 252/252 295/295
l 252/252 346/346
l 253/253 293/293
l 253/253 301/301
l 254/254 292/292
l 254/254 301/301
l 255/255 292/292
l 255/255 300/300
l 256/256 300/300
l 256/256 305/305
l 257/257 291/291
l 257/257 305/305
l 258/258 290/290
l 258/258 291/291
l 259/259 290/290
l 259/259 304/304
l 260/260 302/302
l 260/260 304/304
l 261/261 302/302
l 261/261 303/303
l 262/262 303/303
l 262/262 593/593
l 266/266 408/408
l 266/266 496/496
l 269/269 315/315
l 269/269 516/516
l 270/270 518/518
l 270/270 543/543
l 271/271 539/539
l 271/271 545/545
l 272/272 521/521
l 272/272 546/546
l 273/273 311/311
l 273/273 322/322
l 274/274 523/523
l 274/274 548/548
l 276/276 525/525
l 276/276 550/550
l 277/277 327/327
l 277/277 328/328
l 278/278 553/553
l 282/282 528/528
l 283/283 287/287
l 283/283 567/567
l 284/284 412/412
l 285/285 286/286
l 285/285 473/473
l 286/286 584/584
l 287/287 424/424
l 288/288 366/366
l 288/288 529/529
l 294/294 335/335
l 294/294 531/531
l 296/296 570/570
l 296/296 571/571
l 297/297 533/533
l 297/297 558/558
l 298/298 340/340
l 298/298 566/566
l 299/299 341/341
l 299/299 342/342
l 306/306 377/377
l 306/306 576/576
l 307/307 308/308
l 307/307 446/446
l 308/308 383/383
l 309/309 385/385
l 309/309 449/449
l 310/310 508/508
l 310/310 539/539
l 312/312 405/405
l 312/312 478/478
l 313/313 511/511
l 313/313 566/566
l 314/314 502/502
l 314/314 613/613
l 315/315 526/526
l 316/316 516/516
l 316/316 542/542
l 317/317 517/517
l 317/317 543/543
l 318/318 518/518
l 318/318 544/544
l 319/319 519/519
l 319/319 545/545
l 320/320 520/520
l 320/320 546/546
l 321/321 521/521
l 321/321 547/547
l 323/323 522/522
l 323/323 548/548
l 324/324 523/523
l 324/324 549/549
l 325/325 524/524
l 325/325 550/550
l 326/326 525/525
l 326/326 551/551
l 329/329 526/526
l 329/329 552/552
l 330/330 527/527
l 330/330 553/553
l 331/331 530/530
l 331/331 557/557
l 332/332 557/557
l 332/332 620/620
l 333/333 334/334
l 336/336 531/531
l 336/336 540/540
l 337/337 541/541
l 337/337 570/570
l 338/338 532/532
l 338/338 558/558
l 339/339 533/533
l 339/339 534/534
l 343/343 344/344
l 344/344 559/559
l 345/345 560/560
l 345/345 561/561
l 346/346 560/560
l 347/347 464/464
l 347/347 486/486
l 348/348 440/440
l 348/348 442/442
l 349/349 395/395
l 349/349 563/563
l 350/350 366/366
l 350/350 619/619
l 351/351 463/463
l 351/351 513/513
l 352/352 410/410
l 352/352 579/579
l 353/353 509/509
l 353/353 567/567
l 354/354 409/409
l 354/354 580/580
l 355/355 492/492
l 355/355 499/499
l 356/356 583/583
l 356/356 591/591
l 357/357 510/510
l 357/357 585/585
l 358/358 362/362
l 358/358 510/510
l 359/359 404/404
l 359/359 588/588
l 360/360 361/361
l 360/360 404/404
l 361/361 409/409
l 362/362 569/569
l 363/363 500/500
l 363/363 507/507
l 364/364 415/415
l 364/364 583/583
l 365/365 574/574
l 365/365 592/592
l 367/367 529/529
l 367/367 617/617
l 368/368 437/437
l 368/368 504/504
l 369/369 431/431
l 369/369 483/483
l 370/370 430/430
l 370/370 436/436
l 371/371 437/437
l 371/371 481/481
l 372/372 373/373
l 372/372 438/438
l 373/373 439/439
l 374/374 440/440
l 374/374 612/612
l 375/375 575/575
l 375/375 593/593
l 376/376 535/535
l 376/376 575/575
l 377/377 464/464
l 378/378 576/576
l 378/378 595/595
l 379/379 445/445
l 379/379 596/596
l 380/380 594/594
l 380/380 597/597
l 381/381 382/382
l 381/381 598/598
l 382/382 471/471
l 383/383 503/503
l 384/384 495/495
l 384/384 572/572
l 385/385 387/387
l 386/386 512/512
l 386/386 596/596
l 387/387 448/448
l 388/388 577/577
l 388/388 578/578
l 389/389 577/577
l 389/389 599/599
l 390/390 536/536
l 390/390 578/578
l 391/391 453/453
l 391/391 456/456
l 392/392 601/601
l 392/392 602/602
l 393/393 396/396
l 393/393 453/453
l 394/394 457/457
l 394/394 458/458
l 395/395 466/466
l 396/396 455/455
l 397/397 605/605
l 397/397 606/606
l 398/398 442/442
l 398/398 461/461
l 399/399 514/514
l 399/399 614/614
l 400/400 465/465
l 400/400 470/470
l 401/401 466/466
l 401/401 603/603
l 402/402 515/515
l 402/402 608/608
l 403/403 471/471
l 403/403 515/515
l 405/405 477/477
l 406/406 564/564
l 406/406 609/609
l 407/407 579/579
l 407/407 580/580
l 408/408 581/581
l 410/410 492/492
l 411/411 436/436
l 412/412 413/413
l 413/413 414/414
l 414/414 472/472
l 415/415 582/582
l 416/416 582/582
l 416/416 584/584
l 417/417 585/585
l 417/417 586/586
l 418/418 586/586
l 418/418 589/589
l 419/419 420/420
l 419/419 554/554
l 420/420 589/589
l 421/421 423/423
l 421/421 587/587
l 422/422 587/587
l 422/422 588/588
l 423/423 493/493
l 424/424 610/610
l 425/425 569/569
l 425/425 616/616
l 426/426 439/439
l 426/426 556/556
l 427/427 568/568
l 427/427 590/590
l 428/428 429/429
l 429/429 591/591
l 430/430 592/592
l 431/431 574/574
l 432/432 438/438
l 432/432 498/498
l 433/433 434/434
l 433/433 555/555
l 434/434 435/435
l 435/435 617/617
l 441/441 485/485
l 441/441 573/573
l 443/443 495/495
l 443/443 535/535
l 444/444 572/572
l 444/444 594/594
l 445/445 595/595
l 446/446 512/512
l 447/447 597/597
l 447/447 598/598
l 448/448 503/503
l 449/449 491/491
l 450/450 563/563
l 450/450 600/600
l 451/451 536/536
l 451/451 600/600
l 452/452 599/599
l 452/452 601/601
l 454/454 537/537
l 454/454 605/605
l 455/455 537/537
l 456/456 602/602
l 457/457 604/604
l 458/458 487/487
l 459/459 603/603
l 459/459 607/607
l 460/460 604/604
l 460/460 606/606
l 461/461 476/476
l 462/462 514/514
l 462/462 538/538
l 463/463 538/538
l 465/465 607/607
l 467/467 468/468
l 467/467 469/469
l 468/468 608/608
l 469/469 470/470
l 472/472 473/473
l 474/474 562/562
l 474/474 614/614
l 475/475 476/476
l 475/475 485/485
l 477/477 552/552
l 478/478 609/609
l 479/479 555/555
l 479/479 556/556
l 480/480 554/554
l 480/480 610/610
l 481/481 611/611
l 482/482 565/565
l 482/482 611/611
l 483/483 494/494
l 484/484 612/612
l 484/484 620/620
l 486/486 562/562
l 487/487 615/615
l 488/488 613/613
l 488/488 615/615
l 489/489 490/490
l 489/489 502/502
l 490/490 491/491
l 493/493 564/564
l 494/494 565/565
l 496/496 509/509
l 497/497 500/500
l 497/497 590/590
l 498/498 501/501
l 501/501 568/568
l 504/504 618/618
l 505/505 513/513
l 505/505 573/573
l 506/506 618/618
l 506/506 619/619
l 507/507 616/616
l 622/622 663/663
l 663/663 664/664
l 664/664 647/647
l 647/647 652/652
l 652/652 651/651
l 651/651 655/655
l 655/655 654/654
l 654/654 642/642
l 642/642 625/625
l 625/625 649/649
l 649/649 650/650
l 650/650 648/648
l 648/648 626/626
l 626/626 653/653
l 653/653 641/641
l 641/641 640/640
l 640/640 643/643
l 643/643 624/624
l 624/624 646/646
l 646/646 644/644
l 644/644 645/645
l 645/645 623/623
l 623/623 629/629
l 629/629 631/631
l 631/631 630/630
l 630/630 660/660
l 660/660 628/628
l 628/628 627/627
l 627/627 634/634
l 634/634 632/632
l 632/632 633/633
l 633/633 638/638
l 638/638 657/657
l 657/657 658/658
l 658/658 656/656
l 656/656 635/635
l 635/635 636/636
l 636/636 637/637
l 637/637 662/662
l 662/662 639/639
l 639/639 661/661
l 661/661 659/659
l 659/659 665/665
l 665/665 621/621
l 666/666 678/678
l 678/678 676/676
l 676/676 672/672
l 672/672 673/673
l 673/673 669/669
l 669/669 668/668
l 668/668 671/671
l 671/671 674/674
l 674/674 675/675
l 675/675 670/670
l 670/670 677/677
l 677/677 667/667
l 684/684 683/683
l 683/683 682/682
l 682/682 681/681
l 681/681 679/679
l 679/679 680/680
l 685/685 719/719
l 719/719 754/754
l 754/754 686/686
l 686/686 718/718
l 718/718 687/687
l 687/687 709/709
l 709/709 688/688
l 688/688 752/752
l 752/752 716/716
l 716/716 689/689
l 689/689 728/728
l 728/728 753/753
l 753/753 710/710
l 710/710 736/736
l 736/736 723/723
l 723/723 690/690
l 690/690 720/720
l 720/720 691/691
l 691/691 758/758
l 758/758 731/731
l 731/731 692/692
l 692/692 711/711
l 711/711 693/693
l 693/693 732/732
l 732/732 694/694
l 694/694 742/742
l 742/742 744/744
l 744/744 756/756
l 756/756 733/733
l 733/733 738/738
l 738/738 737/737
l 737/737 695/695
l 695/695 729/729
l 729/729 696/696
l 696/696 724/724
l 724/724 697/697
l 697/697 713/713
l 713/713 698/698
l 698/698 726/726
l 726/726 699/699
l 699/699 712/712
l 712/712 700/700
l 700/700 730/730
l 730/730 701/701
l 701/701 717/717
l 717/717 702/702
l 702/702 725/725
l 725/725 755/755
l 755/755 703/703
l 703/703 714/714
l 714/714 704/704
l 704/704 727/727
l 727/727 749/749
l 749/749 705/705
l 705/705 750/750
l 750/750 748/748
l 748/748 706/706
l 706/706 734/734
l 734/734 751/751
l 751/751 707/707
l 707/707 746/746
l 746/746 747/747
l 747/747 708/708
l 708/708 722/722
l 722/722 743/743
l 743/743 735/735
l 735/735 715/715
l 715/715 745/745
l 745/745 721/721
l 721/721 740/740
l 740/740 739/739
l 739/739 757/757
l 757/757 759/759
l 759/759 741/741
l 760/760 778/778
l 778/778 786/786
l 786/786 785/785
l 785/785 784/784
l 784/784 793/793
l 793/793 790/790
l 790/790 789/789
l 789/789 787/787
l 787/787 788/788
l 788/788 771/771
l 771/771 766/766
l 766/766 837/837
l 837/837 767/767
l 767/767 831/831
l 831/831 838/838
l 838/838 826/826
l 826/826 825/825
l 825/825 775/775
l 775/775 829/829
l 829/829 830/830
l 830/830 828/828
l 828/828 827/827
l 827/827 823/823
l 823/823 799/799
l 799/799 835/835
l 835/835 824/824
l 824/824 817/817
l 817/817 816/816
l 816/816 818/818
l 818/818 770/770
l 770/770 820/820
l 820/820 802/802
l 802/802 832/832
l 832/832 822/822
l 822/822 821/821
l 821/821 819/819
l 819/819 836/836
l 836/836 774/774
l 774/774 813/813
l 813/813 812/812
l 812/812 815/815
l 815/815 772/772
l 772/772 814/814
l 814/814 773/773
l 773/773 782/782
l 782/782 762/762
l 762/762 811/811
l 811/811 807/807
l 807/807 808/808
l 808/808 810/810
l 810/810 803/803
l 803/803 804/804
l 804/804 809/809
l 809/809 798/798
l 798/798 797/797
l 797/797 806/806
l 806/806 796/796
l 796/796 795/795
l 795/795 805/805
l 805/805 833/833
l 833/833 783/783
l 783/783 765/765
l 765/765 792/792
l 792/792 764/764
l 764/764 777/777
l 777/777 791/791
l 791/791 840/840
l 840/840 794/794
l 794/794 801/801
l 801/801 800/800
l 800/800 768/768
l 768/768 781/781
l 781/781 769/769
l 769/769 776/776
l 776/776 763/763
l 763/763 779/779
l 779/779 761/761
l 761/761 834/834
l 834/834 839/839
l 839/839 780/780
l 845/845 885/885
l 845/845 908/908
l 846/846 899/899
l 846/846 996/996
l 847/847 960/960
l 847/847 970/970
l 848/848 962/962
l 848/848 982/982
l 849/849 957/957
l 849/849 967/967
l 850/850 987/987
l 850/850 989/989
l 851/851 963/963
l 851/851 965/965
l 852/852 931/931
l 852/852 985/985
l 853/853 922/922
l 853/853 951/951
l 854/854 937/937
l 854/854 949/949
l 855/855 936/936
l 855/855 980/980
l 856/856 971/971
l 856/856 1000/1000
l 857/857 887/887
l 857/857 903/903
l 858/858 887/887
l 858/858 902/902
l 859/859 900/900
l 859/859 902/902
l 860/860 886/886
l 860/860 900/900
l 861/861 886/886
l 861/861 896/896
l 862/862 896/896
l 862/862 901/901
l 863/863 889/889
l 863/863 901/901
l 864/864 888/888
l 864/864 889/889
l 865/865 885/885
l 865/865 888/888
l 866/866 942/942
l 866/866 972/972
l 867/867 943/943
l 867/867 974/974
l 868/868 958/958
l 868/868 976/976
l 869/869 950/950
l 869/869 978/978
l 870/870 944/944
l 870/870 999/999
l 871/871 979/979
l 871/871 994/994
l 872/872 904/904
l 872/872 952/952
l 873/873 904/904
l 873/873 910/910
l 874/874 910/910
l 874/874 955/955
l 875/875 908/908
l 875/875 916/916
l 876/876 907/907
l 876/876 916/916
l 877/877 907/907
l 877/877 915/915
l 878/878 915/915
l 878/878 920/920
l 879/879 906/906
l 879/879 920/920
l 880/880 905/905
l 880/880 906/906
l 881/881 905/905
l 881/881 919/919
l 882/882 917/917
l 882/882 919/919
l 883/883 917/917
l 883/883 918/918
l 884/884 918/918
l 884/884 1001/1001
l 890/890 924/924
l 890/890 959/959
l 891/891 961/961
l 891/891 981/981
l 892/892 977/977
l 892/892 983/983
l 893/893 964/964
l 893/893 984/984
l 894/894 922/922
l 894/894 931/931
l 895/895 966/966
l 895/895 986/986
l 897/897 968/968
l 897/897 988/988
l 898/898 936/936
l 898/898 937/937
l 899/899 991/991
l 903/903 971/971
l 909/909 944/944
l 909/909 973/973
l 911/911 998/998
l 911/911 999/999
l 912/912 975/975
l 912/912 993/993
l 913/913 949/949
l 913/913 997/997
l 914/914 950/950
l 914/914 951/951
l 921/921 957/957
l 921/921 977/977
l 923/923 958/958
l 923/923 997/997
l 924/924 969/969
l 925/925 959/959
l 925/925 980/980
l 926/926 960/960
l 926/926 981/981
l 927/927 961/961
l 927/927 982/982
l 928/928 962/962
l 928/928 983/983
l 929/929 963/963
l 929/929 984/984
l 930/930 964/964
l 930/930 985/985
l 932/932 965/965
l 932/932 986/986
l 933/933 966/966
l 933/933 987/987
l 934/934 967/967
l 934/934 988/988
l 935/935 968/968
l 935/935 989/989
l 938/938 969/969
l 938/938 990/990
l 939/939 970/970
l 939/939 991/991
l 940/940 972/972
l 940/940 992/992
l 941/941 992/992
l 941/941 1002/1002
l 942/942 943/943
l 945/945 973/973
l 945/945 978/978
l 946/946 979/979
l 946/946 998/998
l 947/947 974/974
l 947/947 993/993
l 948/948 975/975
l 948/948 976/976
l 952/952 953/953
l 953/953 994/994
l 954/954 995/995
l 954/954 996/996
l 955/955 995/995
l 841/841 1001/1001
l 842/842 956/956
l 843/843 1000/1000
l 956/956 990/990
l 844/844 1002/1002
