v 33.116088187616164 9.6034726363560168 -85.443846531370539
v 30.375849732617567 19.591540850415939 -86.744247598309883
v 3.9718306748693171 -42.628511045147711 -83.049977517129477
v 25.734729946185368 27.985959201331383 -87.982072774079114
v 32.005057147412487 14.788443715360835 -86.082873574310511
v 7.8969978846856943 40.283835821501 -89.787073763815187
v 21.360623451441271 -32.843919618857647 -83.433345335485171
v 33.68405966714159 4.1023710435972394 -84.870691492148296
v 32.174508063773473 -12.437593117196736 -83.819814956403718
v 28.254256440203932 23.981781913426353 -87.388480205701455
v 23.991304203731545 -29.867456832156925 -83.424787431398812
v 15.189266620147738 -38.061496870912123 -83.468315484166794
v 28.137069083315723 -23.255847724089449 -83.504669998141381
v 18.440512576116902 -35.616730461651123 -83.458254590454985
v 26.245767650757415 -26.657203797962978 -83.446025633396019
v 33.467730980805115 -5.1431204086864177 -84.15960316834429
v 32.950619726511064 -8.7616667927863627 -83.973348320229718
v 7.8665017152210526 -41.591668366787076 -83.288586997382822
v 22.727170416282277 31.500298918811637 -88.51316227958867
v 33.730577692930751 -1.5995210004249221 -84.391409770582584
v 11.6217077326072 -40.04051410127515 -83.418468352707521
v 19.352248237705354 34.529437451985203 -88.974648485837335
v 29.778501063892609 -19.741775696301104 -83.585309560678354
v 31.149491092894891 -16.127376059708098 -83.686336605294883
v 11.838147649808857 38.934473071368615 -89.621903532326399
v 15.719672562448398 37.069026582398692 -89.355159836976242
v 1.11022302462516e-16 -43.098019155558276 -82.678051297100041
v 3.9509916132722651 41.149929113411133 -89.85248746363618
v -1.3877787807814457e-16 41.473099800225498 -89.802290344489464
v 29.698429343135423 -1.7469647215979029 -66.469657621720472
v 30.663242330349405 -0.97391787833096777 70.818109011290858
v 37.394716949988918 -2.0186826079094278 -104.60261958522804
v 38.101213843082817 0.04255824898673044 -136.24590496960394
v 37.833727862559755 -3.3831820452520125 172.83519488850459
v 38.045254672607413 -2.6785028588737214 190.81982691755582
v 37.957692631020223 1.1216174575060771 -200.9985721676243
v 38.12408714204976 0.41009343213087274 -210.75356715612938
v 38.626701400000002 -0.58684150000000002 -220.79684450000002
v 27.960805258387634 -1.2211487451994931 58.11329176549318
v 25.731985508939076 -3.4397408831426999 -12.959524342329722
v 33.511453563401716 -1.1301865466179126 83.090881059672739
v 27.211011930634935 -1.3579047808484179 53.5902773874285
v 38.168304416685174 -1.1048228625852028 -121.91200004064956
v 25.72931027303288 -1.5631416500925073 29.966088582475525
v 30.693025574967933 -1.6271612105338624 -70.853705803910117
v 35.426758620218621 -1.8495565825688951 -92.369136022959182
v 25.735716415643012 -1.7644260702533789 20.295491283395066
v 37.953938656905493 1.3632082324709023 -196.28912550492987
v 38.042884248904691 2.0862642165010215 -174.17016004353979
v 25.786485441022371 -2.3034940000464301 10.521311216645895
v 38.057011365633556 -0.7357649506645294 -126.53921907013527
v 38.090400509378505 -1.4327546392125385 -117.42649847567522
v 25.719754051348062 -3.5102050971025309 -17.474238220720224
v 38.033675262017653 -0.71285034128708868 113.93556723909104
v 38.045498706983906 0.79061087328357105 -146.33531265604989
v 38.076295590535814 1.9187158711332533 -182.82087182081267
v 38.152335447394343 0.81240516906518645 -205.82230700075152
v 37.891234142041711 -3.7214232177240918 155.47952486376801
v 38.167653901349489 -2.2895500172627692 208.35694264851475
v 38.242190707234897 -0.062378672861887703 -215.76154296305265
v 37.951454414232416 -3.1587098431928906 177.32231860177021
v 26.117635900503181 -1.549477944955981 44.242102651921499
v 36.143125751643922 -1.207126127834137 95.968474133545385
v 38.124121023270646 -2.1003503948044244 212.6591403250543
v 38.04722581315184 -2.5951285907454973 195.25668646735122
v 37.923716936309802 -0.8251181443561364 109.51607496114953
v 38.130757942536675 -1.0087281351778852 126.30870678652796
v 36.887958181047175 -1.1158501874784963 100.45294668562252
v 38.222251900000003 -1.6368104999999999 221.18955990000003
v 28.821002192625052 -1.0967308094630974 62.481687212061672
v 36.788681906979974 -2.0337916639956992 -100.48607669284172
v 25.884481180055744 -2.9685116809011101 -40.157492671920835
v 38.029382325448282 -1.7113304425917719 -113.06080562482632
v 32.748525163745882 -1.537245198491425 -79.824071894498147
v 38.115241193930572 -0.34738303723152564 -131.3208738450077
v 27.924840039795008 -2.0488870765158911 -57.823020648486434
v 37.985498727437601 1.5722138481496799 -191.69934901594087
v 25.770694338015634 -3.3232102198514606 -8.4117400908561777
v 38.067853595133897 1.1402875803300629 -151.34214078589133
v 38.0072402744876 1.9301823854931381 -165.44051334310876
v 25.794892743993628 -2.9150716337058378 0.89203858734292463
v 25.747167667655908 -1.5625645452361674 34.743554494658781
v 38.035156947130339 1.7579816494641467 -187.21720404214597
v 37.803760581182814 -3.5973102021242802 168.40483069170665
v 38.005090162686102 -3.1544993359021021 146.96287229539911
v 38.049502895461949 -2.2422564914585559 138.5137993272883
v 38.006943589869962 -2.7190014499317727 142.7178672438053
v 37.791106611416971 -3.7525371216169745 164.04558535242708
v 37.943628115115175 -2.9503737702414772 181.83716891243949
v 38.141082906148199 -0.78578852803250709 122.29269831638837
v 32.541563787560797 -1.0512386865775278 78.969949418631842
v 31.615708494249397 -0.99191585633440016 74.885576590494352
v 38.017357994467162 -2.7913454073743109 186.34380388191414
v 38.074432382139477 -2.520526546730554 199.65628221955151
v 38.106335425646016 -2.4236244365493138 204.02265921148393
v 25.7813265866004 -2.6227198145549853 5.671675765277163
v 25.769911173017576 -2.0018329439692129 15.408534113882045
v 26.556882787101991 -1.4755567039105191 48.954269043365258
v 25.722825229988239 -1.6193032591966903 25.152232266840869
v 25.719723550241291 -3.5338750325091803 -21.984426608098659
v 29.725639926596585 -1.0084351236018634 66.703982419232005
v 26.118947498331735 -2.7054252371857492 -44.667571764022412
v 25.68968401699949 -3.4972339954079965 -26.509610895668473
v 37.466649140996559 -0.97443623507288701 104.99773357896761
v 28.776094806864847 -1.889915283487873 -62.134791378821731
v 25.778227706830933 -3.1503765179280201 -3.8012925197882241
v 37.892256697487795 -3.4924443015941509 151.22077044852398
v 25.679173788595641 -3.388058082062348 -31.055420792479882
v 31.709207062922875 -1.5492154082037404 -75.308375625917137
v 33.730577692930751 -1.5995210004249221 -84.391409770582584
v 36.099731966030213 -1.9674674097946321 -96.416381113882693
v 37.824327761175176 -3.8013501327315362 159.74598710361374
v 34.439591931594009 -1.2010227534628382 87.28853574963253
v 38.146990098765215 -0.6914266344834068 118.1892211077119
v 35.300622121149942 -1.2329131696408049 91.5816525596248
v 37.999883271938053 2.0319539772978188 -178.48312588914371
v 37.749650318027157 -1.9071625186618482 -108.79535442970086
v 38.063073230358846 1.7285009823819624 -160.91361376080508
v 38.060584671373405 1.458031841406918 -156.21588429335679
v 38.002748993694269 2.0516017420226911 -169.84029814799877
v 38.081351537446153 0.42295256876496756 -141.27412406603676
v 34.646163811245643 -1.7123374561387834 -88.360355895494791
v 38.096768394985361 -1.7689252068364496 134.37742249925378
v 25.729702266045507 -3.2061007189849642 -35.6121061226943
v 25.837203168083668 -1.570870740501416 39.500667189954548
v 38.112782672727363 -1.3442631225816881 130.31705122438217
v 26.591742598875449 -2.4550022091549892 -49.111595086433098
v 38.224927894855568 -1.8811684067912315 216.93248324747543
v 27.178467850127578 -2.2342764602411207 -53.494216443328746
v -1.2818989709841442e-30 -45.313837377741322 -72.958434082215945
v 13.2837 -36.338088999999997 -220.8788452
v 23.059099199999999 -30.9889908 -220.8418427
v 31.2264996 -22.787790300000001 -220.76184079999999
v 36.572399099999998 -12.3261909 -220.71884159999999
v 38.626701400000002 -0.58684150000000002 -220.79684450000002
v 37.10250090000001 10.7535095 -220.8478394
v 31.445600500000001 22.317709000000001 -220.82484439999999
v 8.6347599000000006 37.638507799999999 -220.64685059999999
v 30.1963005 23.715284349999997 221.20315550000001
v 19.451400799999998 33.360908500000001 221.22497559999999
v 35.789299 14.351209600000001 221.13575740000002
v 38.454399100000003 3.7252594999999999 221.14628600000003
v 37.990100900000002 -6.9988804000000027 221.23284910000001
v 32.879699700000003 -20.251890199999998 221.210083
v 22.297212600000002 -31.281239500000002 221.2213974
v 9.3954401000000001 37.408309899999999 221.16323850000001
v 12.6485004 -36.579891199999999 221.19236760000001
v -1.1102230246251565e-16 -38.538730443869298 221.10514261950837
v 15.324979799999999 34.6578102 -220.6633453
v 27.909198799999999 25.8274841 -220.77047730000001
v 0 38.422386199999998 -204.9978638
v 5.551115123125779e-17 -50.424899965050514 -12.597023897361758
v -8.3266726846886741e-17 38.396890609638746 -182.58220087383694
v 1.6653345369377474e-16 -38.420054672742822 172.9184090407071
v 0 38.466362767527507 144.86176771287506
v 37.599548300000002 -6.4565158 -220.75784300000009
v 0 -38.418023453652069 204.24738832061939
v -4.4408920985006262e-16 -38.353380709617483 192.14933457624556
v 0 38.473396299999997 177.6978455
v 33.899448399999997 -17.556989700000003 -220.74034119999999
v 6.9185800999999998 -37.629840899999998 221.1501312
v 6.93889390390729e-17 38.461834844792492 148.54913817875155
v 27.142799400000001 -26.8883896 -220.80184940000001
v -5.5511151231257827e-17 38.3616860646341 194.64828715448991
v 37.864601100000002 5.0833340000000007 -220.82234190000008
v -2.2204460492503131e-16 -41.042663980346859 92.588772271179039
v 7.7243351999999996 -37.491390199999998 -220.86235049999999
v 1.6653345369377351e-16 38.49771221636167 -153.45964888183869
v -4.4408920985006262e-16 38.368577106811948 -131.57387170224624
v 3.7998850000000002 38.013458300000003 221.1915588
v 18.1714001 -33.663539900000004 -220.8603516
v 37.121849099999999 9.0382347000000003 221.14102170000001
v 14.42342 35.3846092 221.1941071
v 38.222251900000003 -1.6368104999999999 221.18955990000003
v 0 38.800937699999999 -105.9480209
v 0 46.068761292725441 70.180997902186633
v 4.18154 37.595108000000003 -220.544342
v 11.979869799999999 36.148159 -220.65509030000001
v 20.3426437 32.422286999999997 -220.6757202
v 36.712501500000002 -10.312132800000001 221.22715760000006
v 34.796100600000003 -15.282013900000004 221.21861269999999
v 0 39.073078199999998 105.69401550000002
v 27.1271381 -26.6721401 221.21974180000001
v 30.578674299999999 -22.819990199999999 221.2139435
v 24.3728008 29.337259299999999 -220.716095
v 21.937875699999999 31.283933600000001 221.22192380000001
v 25.667587300000001 28.168472300000001 221.21734620000001
v 35.688274399999997 13.644559900000001 -220.84210210000001
v 33.566940299999999 17.981134399999998 -220.83346560000001
v 16.783662799999998 -34.309040099999997 221.2048035
v -5.5511151231257827e-17 38.416200063199078 -161.92957298334264
v 33.392299700000002 18.364383700000001 221.1646423
v -2.2204460492503131e-16 38.301908248955826 152.84336937297249
v 0 -50.616332999999997 35.236747700000002
v 2.2204460492503131e-16 -49.884717784522238 47.161588871990006
v -5.5511151231256366e-17 43.287373148214236 82.311776281814048
v 0 -43.567190731926985 79.98439275368861
v 0 -38.441969573923686 -155.5652460118169
v 4.4408920985006262e-16 -38.441625194724139 176.46102871712341
v 0 -38.430282599999998 -201.1997375
v -2.2204460492503131e-16 42.184698122821104 87.055663705005173
v 2.7755575615628914e-16 -50.311773276591133 -2.1112369682398313
v -5.5511151231257827e-17 50.605894363235677 -29.710873933508321
v 2.7755575615628821e-17 50.550154903757182 29.967395786640907
v -1.1102230246251565e-16 50.597663453252409 33.669212263504278
v -1.1102230246251532e-16 -50.368244613887931 -33.215582899804716
v 0 -50.57845217103953 -29.395810091092585
v -2.2204460492503131e-16 -50.254634935691719 39.057264585822921
v -5.5511151231257827e-16 44.089151819589993 78.547270025434116
v 1.6653345369377351e-16 -44.307287451269268 -77.989536492497706
v -2.2204460492503131e-16 -40.109024909958613 -97.846834118888665
v -2.7755575615628781e-17 -38.390964277604773 -119.05617561809819
v -1.3877787807814457e-17 38.49353113841115 -114.3777800283069
v -2.2204460492503131e-16 38.30750462397792 -118.3257970177749
v -5.5511151231257544e-17 38.31823533498379 -126.38619432552008
v -8.3266726846888602e-17 38.349507345508265 128.57324039526242
v -2.2204460492503131e-16 38.304370893171161 123.71899933234191
v 2.2204460492503131e-16 -38.310820758917984 118.645437287287
v -2.775557561562843e-16 38.480622518664518 141.57941054578163
v -5.5511151231258493e-17 38.408519244529685 -136.70975914638694
v -2.081668171172167e-17 -38.477617176583784 151.59152012220389
v -8.2583876015326425e-31 38.427744618805832 157.56246735893143
v -1.6653345369377254e-16 -38.478520648443805 -173.76035713433669
v -1.3877787807814725e-16 38.42225255615282 169.30207915169942
v 2.2204460492503131e-16 38.420710831776489 165.26361147027092
v -2.7755575615628639e-17 -38.434161731282892 -178.63869927973491
v 0 38.318405302681668 173.63518830753367
v 1.1102230246251565e-16 -38.418173338033895 -196.43978289571305
v -1.6653345369377432e-16 -38.423791342710039 188.06646733894041
v -8.6736173798873055e-17 38.305907185579827 208.23859683496192
v -2.2204460492503131e-16 38.228982118775193 212.56287918424709
v 0 38.424410991468235 221.210790898184
v -5.5511151231257876e-17 37.933693224728344 -216.02835800570642
v -2.2204460492503131e-16 47.773428577229794 -61.067002378899623
v 1.7347234759767726e-17 -48.940545083666578 56.201323226149569
v -5.5511151231257827e-17 38.428806196957453 -169.83994209140519
v -1.1102230246251565e-16 50.258598968985986 -33.884924210509062
v 0 50.310009135398282 -37.343737590582741
v -1.110223024625159e-16 -49.883394193450492 -44.416563018343986
v 1.6653345369377513e-16 38.35550434779524 -193.04371858394308
v -1.3183898417423416e-16 38.360564640599158 -188.71330250417844
v 5.5511151231257864e-17 -40.730805832404556 -94.413841479979382
v -5.5511151231257617e-17 -50.243911323585458 43.318534492740525
v -1.1102230246251565e-16 40.820217560649617 -92.827244810253106
v 9.0205620750794647e-17 -50.548326889875987 -38.95093415552671
v -1.6640034719505718e-30 38.410674926162592 137.20694852090062
v -2.2204460492503131e-16 38.272585049227786 132.36555626730291
v -1.1102230246251504e-16 44.539293647592977 -76.348853806799269
v 2.2204460492503131e-16 50.415129420355193 -16.95940575157239
v -1.0755285551057417e-16 -38.615576186508164 113.76156921783833
v 1.2325951644078309e-31 48.434286974111188 58.002361559637244
v 0 50.382405904527296 -7.0176940269017898
v -2.775557561562891e-17 50.337514906957395 -2.8997803125427901
v -2.2204460492503131e-16 50.555622412650827 2.9276886948067888
v 0 50.338533353858494 15.727099400917838
v 2.2204460492503131e-16 38.297133472220771 -196.89872473954364
v 0 50.484237326700317 25.025915151036422
v -1.3877787807812257e-17 38.448915331564791 186.5056111330739
v -2.2204460492503131e-16 38.296974359870219 181.97040679501205
v -3.3306690738754696e-16 -38.398634425162768 -182.73034838574355
v -2.2204460492503128e-16 -38.468070280414807 -164.26466963420279
v -1.3877787807821634e-17 -38.541184643381847 -141.75781894135014
v -5.5511151231257759e-17 -50.564960731591235 -6.9343342497313554
v 5.5511151231257211e-17 -38.522206220266042 -160.06499016031978
v 2.2204460492503131e-16 -38.363253998549325 -129.7595823627349
v 1.6653345369377407e-16 -38.350018237316704 212.5942709493915
v 2.7755575615631299e-17 38.418440216859054 -149.29735580928468
v -1.6653345369377351e-16 42.125982039801386 -86.777335878725864
v 0 40.386716267543918 96.534129395752643
v -3.6977854932234972e-31 45.042571470337862 74.87105379253093
v -1.1102230246251565e-16 -38.420119045008917 -169.13106439698325
v 2.2204460492503131e-16 -50.454208190335315 23.05609137318428
v 9.7144514654695305e-17 -38.478923412868966 180.90265664230114
v -1.6653345369377348e-16 -38.411876198426818 -191.57069383230979
v -1.0408340855860467e-16 -46.168368313035401 70.302334662832209
v -5.5511151231259577e-17 38.395580396268272 120.26340800788105
v -6.2450045135164821e-17 46.910229693676719 66.382907733311086
v 2.2204460492503131e-16 47.54617544062004 62.260470872445069
v 0 38.589945556726519 -109.95535773614858
v 1.3877787807814491e-16 -49.682789126977809 51.336216071651151
v -2.2204460492503131e-16 49.343550892846842 52.410590415425574
v -6.6613381477509402e-16 -50.424794279859455 10.601547150718298
v -1.1102230246251565e-16 -50.581529337540942 5.0790230969807473
v -1.6653345369377348e-16 38.292574364269583 -121.81011440582915
v -1.5092094240998094e-16 -50.385547655752994 18.825817628385408
v -3.3306690738754726e-16 50.335563197885378 21.338934478137293
v -1.1102230246251565e-16 -50.496653719029268 1.56156004168685
v 1.3877787807814457e-16 -38.407184558055938 123.68505928569328
v -1.1102230246251495e-16 39.794256748709003 100.07904123220294
v -5.551115123125779e-17 -44.505149594179713 76.430089605974629
v -1.1102230246251565e-16 -42.822864744283009 84.038595466721077
v -1.8041124150158858e-16 -39.564119813783563 101.19863183397086
v -4.4408920985006262e-16 38.26413341892831 191.0001494168169
v 1.1102230246251565e-16 38.286383812215135 -200.26875972123531
v 2.7755575615628679e-17 50.13454479470974 -42.354589023551476
v -1.6653345369377412e-16 50.338551764619908 -25.394758586978348
v 2.7755575615628981e-17 -49.472045211578575 -51.670330951051156
v 2.2204460492503131e-16 50.323141089786716 -21.163378591388998
v 0 49.639804007900111 -47.306933195204849
v -1.3877787807814449e-16 -48.518455982956034 -57.486560396771452
v -5.5511151231257889e-17 50.660933819487902 -12.030034910769697
v -2.2204460492503131e-16 -46.087213591050357 -69.251578240190995
v -4.9303806576313238e-32 46.198051421252032 -68.765885236768867
v 4.4408920985006262e-16 45.195116925883056 -73.219672988288949
v -5.5511151231257864e-17 50.323304257976744 7.7515658160768997
v 1.1102230246251565e-16 49.328799192554058 -51.951220926659794
v 0 -38.379615063547362 -137.6063989377279
v 2.2204460492503131e-16 -38.444957195594327 139.54420894750163
v -1.2490009027032715e-16 -38.527769700325521 135.24127380778458
v -4.1633363423440942e-17 -38.472687932639317 168.45610131904016
v 0 -38.404438132113576 -146.66040699286552
v 4.1633363423440609e-17 -38.481382917175225 -151.50197837341119
v -1.1102230246251565e-16 -38.415316818826341 161.89185697993946
v -3.3306690738754686e-16 49.849244434461994 47.314006575298684
v -4.1633363423443629e-17 -50.477016733805961 -17.634887785756362
v -1.1102230246251565e-16 -38.433231113772393 184.73230491904826
v 0 50.387600496530538 11.805496053046678
v -5.5511151231257827e-17 -38.428771948620813 195.84087490208682
v 2.2204460492503131e-16 -38.324891886104623 217.00891853707498
v 1.11022302462516e-16 -43.098019155558276 -82.678051297100041
v -2.2204460492503131e-16 38.424472778722979 -156.95061192804184
v -2.2204460492503131e-16 39.339377885102458 -102.09238443765962
v 1.1449174941446523e-16 40.030381289724026 -98.179840071969352
v 0 -47.027951373178581 65.890822997165699
v 3.2959746043567297e-17 -47.767149568197354 61.481253289682982
v 5.5511151231254246e-17 -42.063287298360464 88.024917518577809
v 0 41.266324212257722 92.341150560222928
v -2.7755575615628914e-16 37.554355915061009 -220.44810165806135
v -5.5511151231256373e-17 38.336320716845023 -209.18640289988912
v 2.2204460492503131e-16 38.146372544461045 -212.81372509217294
v -6.9388939039072284e-17 38.500368990604443 110.91049855578966
v 0 38.364359981591456 117.0483062633669
v 1.3877787807814398e-16 -40.441138579750799 95.862919835264591
v -1.66533453693774e-16 38.412529587665354 -142.53249992132913
v 2.2204460492503229e-16 -38.401528764046375 129.95942190503115
v 1.8041124150158794e-16 -38.466428490857467 145.67386493594009
v 5.5511151231258024e-17 46.997218389879706 -64.445537497153325
v -3.8857805861879823e-16 -38.494505100836712 156.13716500007291
v -5.5511151231259121e-17 43.508860649159999 -81.227939029784423
v 1.3877787807813039e-17 38.454228636426393 -174.78680716105623
v -1.2490009027033068e-16 -38.895008056405466 107.35283119905347
v -1.3877787807814457e-17 -50.670833272085467 27.411375241163309
v 2.2204460492503131e-16 -50.456971681039605 31.37978719027204
v 8.3266726846885779e-17 -39.416010808249524 -102.6886691333771
v 2.7755575615630084e-17 -41.666714346774185 -89.425532019903301
v 5.5511151231257827e-17 -38.404096915856186 -124.95059408861331
v 5.5511151231258899e-17 38.469724211459585 161.76243137018218
v 8.3266726846886741e-17 -38.511535619812051 -133.87833323171
v 2.2204460492503131e-16 50.393168838656862 37.398228011597638
v 4.1633363423443358e-17 38.384426665349864 217.18172031695283
v 8.3266726846886753e-17 -38.434910845442829 199.69843151719752
v -5.5511151231257827e-17 -38.489146432190786 -113.7328752440457
v -2.2204460492503131e-16 -38.646498285592898 -110.39105122528176
v 8.3266726846886741e-17 -38.396472799648912 -205.35992446388283
v -2.2204460492503131e-16 -50.347051480474043 -25.65052002459322
v 2.2204460492503131e-16 -38.426851092081776 -220.81613402403667
v -1.110223024625157e-16 50.200570326487124 42.405180407746215
v 5.5511151231258024e-17 48.575204951915836 -57.299153343493288
v 2.2204460492503131e-16 -38.873320754723267 -106.30783544944775
v 2.2204460492503131e-16 -50.181733225462267 -21.96082599952037
v 1.1102230246251989e-16 -38.424956869216842 -186.80667541124177
v 5.5511151231257839e-17 38.396747515441447 198.9360431640778
v -2.2204460492503131e-16 38.305087667008259 204.00482034506649
v -4.683861624749762e-31 -47.092693862511396 -64.431785115126914
v 1.5265566588595335e-16 -38.413349619930919 207.53877746575415
v 5.5511151231259405e-17 -38.335199948227725 -209.60195744008843
v -3.4694469519536851e-17 38.425559623032569 -178.68450401744659
v 3.8621675999999998 -37.959120646040887 -220.83924226201833
v 8.326672684688817e-17 -38.364118860735601 -215.79440569598756
v -1.1102230246251565e-16 -50.645183633993582 14.133895707701697
v -5.5511151231257827e-17 38.422503130078269 -165.8847575373739
v -4.1633363423443469e-17 -49.677719702514551 -48.043446984697567
v -1.3877787807814447e-16 -50.249273129638588 41.187899539281723
v -8.3266726846886716e-17 -40.419915371181588 -96.130337799434017
v 1.8041124150158794e-16 -38.359002658486958 121.16524828649014
v 0 38.395900801340829 175.66651690376682
v 1.9310838000000001 -38.192985869061332 -220.8276881430275
v 36.395387650000004 12.199034700000002 -220.84497075000002
v -1.1102230246251565e-16 -50.435483967845855 37.147006142911465
v 5.7245874707228582e-17 -38.463198472713074 116.20350325256268
v -1.3877787807814455e-17 50.359960405742342 -4.9587371697222897
v 1.5265566588595974e-16 -38.395484976408689 -218.30526986001212
v 1.3877787807814457e-16 -38.383675457202756 -127.35508822567411
v 0 38.695441628363255 -107.9516893180743
v 3.5561831257525186e-17 -50.419877923044154 20.940954500784844
v -1.9428902930940239e-16 38.300039494123752 -120.06795571180203
v -6.9388939039108168e-18 -38.472811387747711 -144.20911296710784
v -2.7755575615628944e-17 50.521669862007599 -9.5238644688357432
v 0 50.363066925194531 13.766297726982259
v 1.3877787807814463e-17 -38.431841397031818 197.76965320964217
v 3.4592900499999999 -38.084285671934651 221.12763690975419
v 6.5976625499999999 37.710884100000001 221.17739864999999
v -5.2041704279302333e-17 -46.598159843106984 68.096578829998947
v -5.5511151231257827e-17 -43.195027738104997 82.011494110204836
v -5.5511151231257463e-17 40.09048650812646 98.306585313977791
v -2.7755575615630701e-17 -42.443076021321737 86.031756492649436
v 10.307314850000001 36.893333400000003 -220.65097044999999
v 8.3266726846886716e-17 38.040032884594694 -214.42104154893968
v 6.4081499500000003 37.616807899999998 -220.59559630000001
v 34.627607349999998 15.81284715 -220.83778384999999
v -1.5439038936195218e-16 38.26744465217751 210.40073800960451
v -2.7755575615628186e-17 38.379353458422514 -207.09213334994456
v 4.8572257327352571e-17 -38.464649232185948 132.60034785640786
v 1.387778780781434e-17 50.222276965054007 -39.849163307067101
v -1.1102230246251565e-16 -50.539091528285105 3.320291569333798
v -4.163336342344342e-17 50.573909178504792 31.818304025072592
v 1.5265566588595902e-16 -38.437394809180688 -131.81895779722245
v 5.5511151231257827e-17 50.495416145954636 35.533720137550958
v -1.1102230246251551e-16 38.305404849626683 -124.09815436567462
v 1.3877787807814511e-16 38.445217521618034 163.51302142022658
v -1.3877787807814499e-16 -38.42851122824122 186.39938612899434
v -1.3877787807814383e-16 42.736035635517666 84.683719993409611
v 0 -38.759909520158082 -108.34944333736476
v -6.9388939039072284e-18 38.541738347568838 -112.16656888222775
v -1.1796119636642288e-16 38.400517881194531 -116.35178852304091
v 4.1633363423442027e-17 38.421481693964651 167.28284531098521
v -2.4980018054066022e-16 -38.391076329119144 193.99510473916621
v 2.0816681711721679e-17 38.40441882840905 219.19625560756842
v 1.8999425000000001 38.218934645734123 221.20117484909201
v -1.6653345369377351e-16 37.744024569894677 -218.23822983188387
v -8.3266726846886642e-17 47.38532348355475 -62.756269938026477
v -2.4980018054066007e-16 38.343406220897869 -128.98003301388314
v 1.7347234759770487e-17 38.358034494197199 -190.87851054406076
v -1.1102230246251649e-16 38.341629987695185 134.78625239410178
v -1.3097162243624829e-16 -50.515365644873285 16.479856668043553
v -1.3877787807814215e-16 38.473492643096009 143.22058912932835
v 1.110223024625157e-16 47.990231207365611 60.13141621604116
v -1.1796119636642177e-16 38.372944845717505 184.23800896404299
v 2.0816681711720305e-17 -38.461676245549455 -153.53361219261404
v -1.1102230246251565e-16 38.385185329935112 179.83412614750603
v -1.3877787807814299e-16 38.445648722413551 139.39317953334114
v 0 40.826520239900816 94.437639977987786
v 1.8041124150158811e-16 -49.783753455750023 49.248902471820578
v 7.8062556418956319e-17 -49.311667105322186 53.768769648900353
v -6.9388939039073627e-17 38.370328929417241 171.46863372961658
v -7.9797279894931228e-17 -45.336758953607557 73.366212134403412
v -2.2898349882893745e-16 38.356524375246551 188.7528802749454
v -7.6327832942979685e-17 -49.780556947982518 -46.230005001520773
v 2.2204460492503131e-16 50.369135255070958 -19.061392171480694
v 2.2204460492503128e-16 45.696584173567544 -70.992779112528908
v -6.9388939039108168e-18 -38.460399853464608 -139.68210893953903
v 4.8572257327352078e-17 -38.486363447959924 137.39274137764312
v 2.0816681711720305e-17 -38.442910524644404 -149.08119268313834
v -1.5265566588595996e-16 38.311046197368029 130.46939833128266
v -6.9388939039101866e-18 -38.45607726332068 182.81748078067471
v 5.5511151231257827e-17 -38.431811164986961 219.05703057829169
v -3.8857805861880489e-16 -50.503161808700199 7.8402851238495206
v -1.0755285551056045e-16 38.378727625118955 -185.64775168900769
v -2.7755575615628895e-17 -44.036170163053349 78.207241179831612
v 2.09077 37.574731957530503 -220.49622182903067
v 8.3266726846887468e-17 38.241346630653034 -211.00006399603103
v 1.387778780781434e-17 49.887174401304932 -44.830761109378159
v 1.0408340855860843e-16 -50.563902476562532 29.395581215717673
v -6.9388939039072764e-17 -39.762517859104065 -100.26775162613288
v 1.1102230246251565e-16 -50.536652340519801 33.308267445136025
v 1.6479873021783649e-17 -47.397550470687968 63.686038143424355
v 1.3877787807814411e-17 50.517196115228749 27.496655468838664
v -9.0205620750793969e-17 38.306704392062528 214.87229975059995
v 8.3266726846886716e-17 50.538031619921547 -14.494720331171044
v -2.7755575615628932e-17 50.355452377253656 9.7785309345617897
v 5.5511151231257802e-17 50.296869582571993 39.901704209671927
v -8.3266726846886642e-17 48.174316764572815 -59.183077861196452
v 1.6653345369377378e-16 44.867205286738013 -74.784263397544109
v 1.5265566588595853e-16 -39.144665781486395 -104.49825229141243
v 0 -50.264392352968152 -23.805673012056793
v 9.0205620750793846e-17 -50.32937497963411 -19.797856892638364
v -8.3266726846886741e-17 38.350917591224857 201.47043175457213
v -2.4980018054066022e-16 38.312909741781205 192.82421828565339
v -1.5439038936195218e-16 38.305497426294039 206.12170859001421
v 1.9428902930940269e-16 -38.337455061710664 214.80159474323324
v -5.8980598183211799e-17 38.411225116335658 -180.63335244564178
v -1.0408340855861906e-17 38.439894129729481 -176.73565558925139
v 5.7932513999999999 -37.725255423020442 -220.85079638100916
v -1.1102230246251559e-16 48.888918933479019 55.206475987531405
v -1.1102230246251565e-16 41.725511167539409 89.698407132614051
v -6.9388939039072376e-18 -49.574882457046556 -49.856888967874362
v -1.3877787807814457e-16 41.473099800225498 -89.802290344489464
v 6.9388939039073788e-17 -38.349659404481663 -212.698181568038
v 1.0408340855860839e-17 38.414414909938642 220.20352325287621
v 1.11022302462516e-16 -43.098019155558276 -82.678051297100041
v -1.3877787807814457e-16 41.473099800225498 -89.802290344489464
v -33.116088187616164 9.6034726363560168 -85.443846531370539
v -30.375849732617567 19.591540850415939 -86.744247598309883
v -3.9718306748693171 -42.628511045147711 -83.049977517129477
v -25.734729946185368 27.985959201331383 -87.982072774079114
v -32.005057147412487 14.788443715360835 -86.082873574310511
v -7.8969978846856943 40.283835821501 -89.787073763815187
v -21.360623451441271 -32.843919618857647 -83.433345335485171
v -33.68405966714159 4.1023710435972394 -84.870691492148296
v -32.174508063773473 -12.437593117196736 -83.819814956403718
v -28.254256440203932 23.981781913426353 -87.388480205701455
v -23.991304203731545 -29.867456832156925 -83.424787431398812
v -15.189266620147738 -38.061496870912123 -83.468315484166794
v -28.137069083315723 -23.255847724089449 -83.504669998141381
v -18.440512576116902 -35.616730461651123 -83.458254590454985
v -26.245767650757415 -26.657203797962978 -83.446025633396019
v -33.467730980805115 -5.1431204086864177 -84.15960316834429
v -32.950619726511064 -8.7616667927863627 -83.973348320229718
v -7.8665017152210526 -41.591668366787076 -83.288586997382822
v -22.727170416282277 31.500298918811637 -88.51316227958867
v -33.730577692930751 -1.5995210004249221 -84.391409770582584
v -11.6217077326072 -40.04051410127515 -83.418468352707521
v -19.352248237705354 34.529437451985203 -88.974648485837335
v -29.778501063892609 -19.741775696301104 -83.585309560678354
v -31.149491092894891 -16.127376059708098 -83.686336605294883
v -11.838147649808857 38.934473071368615 -89.621903532326399
v -15.719672562448398 37.069026582398692 -89.355159836976242
v -3.9509916132722651 41.149929113411133 -89.85248746363618
v -29.698429343135423 -1.7469647215979029 -66.469657621720472
v -30.663242330349405 -0.97391787833096777 70.818109011290858
v -37.394716949988918 -2.0186826079094278 -104.60261958522804
v -38.101213843082817 0.04255824898673044 -136.24590496960394
v -37.833727862559755 -3.3831820452520125 172.83519488850459
v -38.045254672607413 -2.6785028588737214 190.81982691755582
v -37.957692631020223 1.1216174575060771 -200.9985721676243
v -38.12408714204976 0.41009343213087274 -210.75356715612938
v -38.626701400000002 -0.58684150000000002 -220.79684450000002
v -27.960805258387634 -1.2211487451994931 58.11329176549318
v -25.731985508939076 -3.4397408831426999 -12.959524342329722
v -33.511453563401716 -1.1301865466179126 83.090881059672739
v -27.211011930634935 -1.3579047808484179 53.5902773874285
v -38.168304416685174 -1.1048228625852028 -121.91200004064956
v -25.72931027303288 -1.5631416500925073 29.966088582475525
v -30.693025574967933 -1.6271612105338624 -70.853705803910117
v -35.426758620218621 -1.8495565825688951 -92.369136022959182
v -25.735716415643012 -1.7644260702533789 20.295491283395066
v -37.953938656905493 1.3632082324709023 -196.28912550492987
v -38.042884248904691 2.0862642165010215 -174.17016004353979
v -25.786485441022371 -2.3034940000464301 10.521311216645895
v -38.057011365633556 -0.7357649506645294 -126.53921907013527
v -38.090400509378505 -1.4327546392125385 -117.42649847567522
v -25.719754051348062 -3.5102050971025309 -17.474238220720224
v -38.033675262017653 -0.71285034128708868 113.93556723909104
v -38.045498706983906 0.79061087328357105 -146.33531265604989
v -38.076295590535814 1.9187158711332533 -182.82087182081267
v -38.152335447394343 0.81240516906518645 -205.82230700075152
v -37.891234142041711 -3.7214232177240918 155.47952486376801
v -38.167653901349489 -2.2895500172627692 208.35694264851475
v -38.242190707234897 -0.062378672861887703 -215.76154296305265
v -37.951454414232416 -3.1587098431928906 177.32231860177021
v -26.117635900503181 -1.549477944955981 44.242102651921499
v -36.143125751643922 -1.207126127834137 95.968474133545385
v -38.124121023270646 -2.1003503948044244 212.6591403250543
v -38.04722581315184 -2.5951285907454973 195.25668646735122
v -37.923716936309802 -0.8251181443561364 109.51607496114953
v -38.130757942536675 -1.0087281351778852 126.30870678652796
v -36.887958181047175 -1.1158501874784963 100.45294668562252
v -38.222251900000003 -1.6368104999999999 221.18955990000003
v -28.821002192625052 -1.0967308094630974 62.481687212061672
v -36.788681906979974 -2.0337916639956992 -100.48607669284172
v -25.884481180055744 -2.9685116809011101 -40.157492671920835
v -38.029382325448282 -1.7113304425917719 -113.06080562482632
v -32.748525163745882 -1.537245198491425 -79.824071894498147
v -38.115241193930572 -0.34738303723152564 -131.3208738450077
v -27.924840039795008 -2.0488870765158911 -57.823020648486434
v -37.985498727437601 1.5722138481496799 -191.69934901594087
v -25.770694338015634 -3.3232102198514606 -8.4117400908561777
v -38.067853595133897 1.1402875803300629 -151.34214078589133
v -38.0072402744876 1.9301823854931381 -165.44051334310876
v -25.794892743993628 -2.9150716337058378 0.89203858734292463
v -25.747167667655908 -1.5625645452361674 34.743554494658781
v -38.035156947130339 1.7579816494641467 -187.21720404214597
v -37.803760581182814 -3.5973102021242802 168.40483069170665
v -38.005090162686102 -3.1544993359021021 146.96287229539911
v -38.049502895461949 -2.2422564914585559 138.5137993272883
v -38.006943589869962 -2.7190014499317727 142.7178672438053
v -37.791106611416971 -3.7525371216169745 164.04558535242708
v -37.943628115115175 -2.9503737702414772 181.83716891243949
v -38.141082906148199 -0.78578852803250709 122.29269831638837
v -32.541563787560797 -1.0512386865775278 78.969949418631842
v -31.615708494249397 -0.99191585633440016 74.885576590494352
v -38.017357994467162 -2.7913454073743109 186.34380388191414
v -38.074432382139477 -2.520526546730554 199.65628221955151
v -38.106335425646016 -2.4236244365493138 204.02265921148393
v -25.7813265866004 -2.6227198145549853 5.671675765277163
v -25.769911173017576 -2.0018329439692129 15.408534113882045
v -26.556882787101991 -1.4755567039105191 48.954269043365258
v -25.722825229988239 -1.6193032591966903 25.152232266840869
v -25.719723550241291 -3.5338750325091803 -21.984426608098659
v -29.725639926596585 -1.0084351236018634 66.703982419232005
v -26.118947498331735 -2.7054252371857492 -44.667571764022412
v -25.68968401699949 -3.4972339954079965 -26.509610895668473
v -37.466649140996559 -0.97443623507288701 104.99773357896761
v -28.776094806864847 -1.889915283487873 -62.134791378821731
v -25.778227706830933 -3.1503765179280201 -3.8012925197882241
v -37.892256697487795 -3.4924443015941509 151.22077044852398
v -25.679173788595641 -3.388058082062348 -31.055420792479882
v -31.709207062922875 -1.5492154082037404 -75.308375625917137
v -33.730577692930751 -1.5995210004249221 -84.391409770582584
v -36.099731966030213 -1.9674674097946321 -96.416381113882693
v -37.824327761175176 -3.8013501327315362 159.74598710361374
v -34.439591931594009 -1.2010227534628382 87.28853574963253
v -38.146990098765215 -0.6914266344834068 118.1892211077119
v -35.300622121149942 -1.2329131696408049 91.5816525596248
v -37.999883271938053 2.0319539772978188 -178.48312588914371
v -37.749650318027157 -1.9071625186618482 -108.79535442970086
v -38.063073230358846 1.7285009823819624 -160.91361376080508
v -38.060584671373405 1.458031841406918 -156.21588429335679
v -38.002748993694269 2.0516017420226911 -169.84029814799877
v -38.081351537446153 0.42295256876496756 -141.27412406603676
v -34.646163811245643 -1.7123374561387834 -88.360355895494791
v -38.096768394985361 -1.7689252068364496 134.37742249925378
v -25.729702266045507 -3.2061007189849642 -35.6121061226943
v -25.837203168083668 -1.570870740501416 39.500667189954548
v -38.112782672727363 -1.3442631225816881 130.31705122438217
v -26.591742598875449 -2.4550022091549892 -49.111595086433098
v -38.224927894855568 -1.8811684067912315 216.93248324747543
v -27.178467850127578 -2.2342764602411207 -53.494216443328746
v -1.1102230246251565e-16 -38.538730443869298 221.10514261950837
v 0 38.424410991468235 221.210790898184
v -2.7755575615628914e-16 37.554355915061009 -220.44810165806135
v 2.2204460492503131e-16 -38.426851092081776 -220.81613402403667
v -13.2837 -36.338088999999997 -220.8788452
v -23.059099199999999 -30.9889908 -220.8418427
v -31.2264996 -22.787790300000001 -220.76184079999999
v -36.572399099999998 -12.3261909 -220.71884159999999
v -38.626701400000002 -0.58684150000000002 -220.79684450000002
v -37.10250090000001 10.7535095 -220.8478394
v -31.445600500000001 22.317709000000001 -220.82484439999999
v -8.6347599000000006 37.638507799999999 -220.64685059999999
v -30.1963005 23.715284349999997 221.20315550000001
v -19.451400799999998 33.360908500000001 221.22497559999999
v -35.789299 14.351209600000001 221.13575740000002
v -38.454399100000003 3.7252594999999999 221.14628600000003
v -37.990100900000002 -6.9988804000000027 221.23284910000001
v -32.879699700000003 -20.251890199999998 221.210083
v -22.297212600000002 -31.281239500000002 221.2213974
v -9.3954401000000001 37.408309899999999 221.16323850000001
v -12.6485004 -36.579891199999999 221.19236760000001
v -15.324979799999999 34.6578102 -220.6633453
v -27.909198799999999 25.8274841 -220.77047730000001
v -37.599548300000002 -6.4565158 -220.75784300000009
v -33.899448399999997 -17.556989700000003 -220.74034119999999
v -6.9185800999999998 -37.629840899999998 221.1501312
v -27.142799400000001 -26.8883896 -220.80184940000001
v -37.864601100000002 5.0833340000000007 -220.82234190000008
v -7.7243351999999996 -37.491390199999998 -220.86235049999999
v -3.7998850000000002 38.013458300000003 221.1915588
v -18.1714001 -33.663539900000004 -220.8603516
v -37.121849099999999 9.0382347000000003 221.14102170000001
v -14.42342 35.3846092 221.1941071
v -38.222251900000003 -1.6368104999999999 221.18955990000003
v -4.18154 37.595108000000003 -220.544342
v -11.979869799999999 36.148159 -220.65509030000001
v -20.3426437 32.422286999999997 -220.6757202
v -36.712501500000002 -10.312132800000001 221.22715760000006
v -34.796100600000003 -15.282013900000004 221.21861269999999
v -27.1271381 -26.6721401 221.21974180000001
v -30.578674299999999 -22.819990199999999 221.2139435
v -24.3728008 29.337259299999999 -220.716095
v -21.937875699999999 31.283933600000001 221.22192380000001
v -25.667587300000001 28.168472300000001 221.21734620000001
v -35.688274399999997 13.644559900000001 -220.84210210000001
v -33.566940299999999 17.981134399999998 -220.83346560000001
v -16.783662799999998 -34.309040099999997 221.2048035
v -33.392299700000002 18.364383700000001 221.1646423
v -3.8621675999999998 -37.959120646040887 -220.83924226201833
v -1.9310838000000001 -38.192985869061332 -220.8276881430275
v -36.395387650000004 12.199034700000002 -220.84497075000002
v -3.4592900499999999 -38.084285671934651 221.12763690975419
v -6.5976625499999999 37.710884100000001 221.17739864999999
v -10.307314850000001 36.893333400000003 -220.65097044999999
v -6.4081499500000003 37.616807899999998 -220.59559630000001
v -34.627607349999998 15.81284715 -220.83778384999999
v -1.8999425000000001 38.218934645734123 221.20117484909201
v -2.09077 37.574731957530503 -220.49622182903067
v -5.7932513999999999 -37.725255423020442 -220.85079638100916
l 29/29 28/28
l 28/28 6/6
l 6/6 25/25
l 25/25 26/26
l 26/26 22/22
l 22/22 19/19
l 19/19 4/4
l 4/4 10/10
l 10/10 2/2
l 2/2 5/5
l 5/5 1/1
l 1/1 8/8
l 8/8 20/20
l 20/20 16/16
l 16/16 17/17
l 17/17 9/9
l 9/9 24/24
l 24/24 23/23
l 23/23 13/13
l 13/13 15/15
l 15/15 11/11
l 11/11 7/7
l 7/7 14/14
l 14/14 12/12
l 12/12 21/21
l 21/21 18/18
l 18/18 3/3
l 3/3 27/27
l 38/38 60/60
l 60/60 37/37
l 37/37 57/57
l 57/57 36/36
l 36/36 48/48
l 48/48 77/77
l 77/77 83/83
l 83/83 56/56
l 56/56 116/116
l 116/116 49/49
l 49/49 120/120
l 120/120 80/80
l 80/80 118/118
l 118/118 119/119
l 119/119 79/79
l 79/79 55/55
l 55/55 121/121
l 121/121 33/33
l 33/33 75/75
l 75/75 51/51
l 51/51 43/43
l 43/43 52/52
l 52/52 73/73
l 73/73 117/117
l 117/117 32/32
l 32/32 71/71
l 71/71 111/111
l 111/111 46/46
l 46/46 122/122
l 122/122 110/110
l 110/110 74/74
l 74/74 109/109
l 109/109 45/45
l 45/45 30/30
l 30/30 105/105
l 105/105 76/76
l 76/76 129/129
l 129/129 127/127
l 127/127 102/102
l 102/102 72/72
l 72/72 124/124
l 124/124 108/108
l 108/108 103/103
l 103/103 100/100
l 100/100 53/53
l 53/53 40/40
l 40/40 78/78
l 78/78 106/106
l 106/106 81/81
l 81/81 96/96
l 96/96 50/50
l 50/50 97/97
l 97/97 47/47
l 47/47 99/99
l 99/99 44/44
l 44/44 82/82
l 82/82 125/125
l 125/125 62/62
l 62/62 98/98
l 98/98 42/42
l 42/42 39/39
l 39/39 70/70
l 70/70 101/101
l 101/101 31/31
l 31/31 92/92
l 92/92 91/91
l 91/91 41/41
l 41/41 113/113
l 113/113 115/115
l 115/115 63/63
l 63/63 68/68
l 68/68 104/104
l 104/104 66/66
l 66/66 54/54
l 54/54 114/114
l 114/114 90/90
l 90/90 67/67
l 67/67 126/126
l 126/126 123/123
l 123/123 86/86
l 86/86 87/87
l 87/87 85/85
l 85/85 107/107
l 107/107 58/58
l 58/58 112/112
l 112/112 88/88
l 88/88 84/84
l 84/84 34/34
l 34/34 61/61
l 61/61 89/89
l 89/89 93/93
l 93/93 35/35
l 35/35 65/65
l 65/65 94/94
l 94/94 95/95
l 95/95 59/59
l 59/59 64/64
l 64/64 128/128
l 128/128 69/69
l 130/130 210/210
l 130/130 302/302
l 131/131 167/167
l 131/131 171/171
l 132/132 163/163
l 132/132 171/171
l 133/133 160/160
l 133/133 163/163
l 134/134 156/156
l 134/134 160/160
l 135/135 156/156
l 135/135 165/165
l 136/136 165/165
l 136/136 378/378
l 137/137 150/150
l 137/137 189/189
l 138/138 397/397
l 138/138 399/399
l 139/139 187/187
l 139/139 192/192
l 140/140 173/173
l 140/140 186/186
l 141/141 172/172
l 141/141 192/192
l 142/142 172/172
l 142/142 174/174
l 143/143 174/174
l 143/143 180/180
l 144/144 181/181
l 144/144 184/184
l 145/145 183/183
l 145/145 190/190
l 146/146 173/173
l 146/146 392/392
l 147/147 161/161
l 147/147 190/190
l 148/148 391/391
l 148/148 446/446
l 149/149 178/178
l 149/149 179/179
l 150/150 185/185
l 151/151 294/294
l 151/151 402/402
l 152/152 263/263
l 152/152 315/315
l 153/153 448/448
l 153/153 471/471
l 154/154 199/199
l 154/154 310/310
l 155/155 162/162
l 155/155 426/426
l 157/157 351/351
l 157/157 365/365
l 158/158 229/229
l 158/158 417/417
l 159/159 376/376
l 159/159 430/430
l 161/161 391/391
l 162/162 193/193
l 164/164 362/362
l 164/164 468/468
l 166/166 326/326
l 166/166 333/333
l 167/167 473/473
l 168/168 267/267
l 168/168 321/321
l 169/169 220/220
l 169/169 422/422
l 170/170 392/392
l 170/170 419/419
l 175/175 322/322
l 175/175 384/384
l 176/176 270/270
l 176/176 277/277
l 177/177 399/399
l 177/177 450/450
l 178/178 397/397
l 179/179 185/185
l 180/180 181/181
l 182/182 289/289
l 182/182 331/331
l 183/183 184/184
l 186/186 187/187
l 188/188 378/378
l 188/188 400/400
l 189/189 400/400
l 191/191 321/321
l 191/191 371/371
l 193/193 222/222
l 194/194 379/379
l 194/194 455/455
l 195/195 243/243
l 195/195 433/433
l 196/196 209/209
l 196/196 412/412
l 197/197 394/394
l 197/197 449/449
l 198/198 264/264
l 198/198 429/429
l 199/199 273/273
l 200/200 228/228
l 200/200 354/354
l 201/201 412/412
l 201/201 475/475
l 202/202 263/263
l 202/202 287/287
l 203/203 237/237
l 203/203 296/296
l 204/204 406/406
l 204/204 457/457
l 205/205 406/406
l 205/205 408/408
l 206/206 207/207
l 206/206 245/245
l 207/207 355/355
l 208/208 373/373
l 208/208 379/379
l 209/209 270/270
l 210/210 320/320
l 211/211 374/374
l 211/211 454/454
l 212/212 346/346
l 212/212 352/352
l 213/213 414/414
l 213/213 415/415
l 214/214 386/386
l 214/214 415/415
l 215/215 409/409
l 215/215 422/422
l 216/216 217/217
l 216/216 444/444
l 217/217 276/276
l 218/218 375/375
l 218/218 380/380
l 219/219 426/426
l 219/219 431/431
l 220/220 334/334
l 221/221 336/336
l 221/221 338/338
l 222/222 347/347
l 223/223 226/226
l 223/223 271/271
l 224/224 416/416
l 224/224 435/435
l 225/225 410/410
l 225/225 416/416
l 226/226 260/260
l 227/227 376/376
l 227/227 435/435
l 228/228 274/274
l 229/229 411/411
l 230/230 401/401
l 230/230 469/469
l 231/231 401/401
l 231/231 458/458
l 232/232 419/419
l 232/232 479/479
l 233/233 398/398
l 233/233 420/420
l 234/234 421/421
l 234/234 462/462
l 235/235 325/325
l 235/235 434/434
l 236/236 340/340
l 236/236 371/371
l 237/237 238/238
l 238/238 404/404
l 239/239 245/245
l 239/239 438/438
l 240/240 256/256
l 240/240 423/423
l 241/241 423/423
l 241/241 448/448
l 242/242 345/345
l 242/242 374/374
l 243/243 373/373
l 244/244 323/323
l 244/244 477/477
l 246/246 424/424
l 246/246 431/431
l 247/247 424/424
l 247/247 444/444
l 248/248 339/339
l 248/248 463/463
l 249/249 439/439
l 249/249 459/459
l 250/250 341/341
l 250/250 380/380
l 251/251 427/427
l 251/251 474/474
l 252/252 381/381
l 252/252 388/388
l 253/253 254/254
l 253/253 381/381
l 254/254 305/305
l 255/255 286/286
l 255/255 389/389
l 256/256 294/294
l 257/257 286/286
l 257/257 457/457
l 258/258 428/428
l 258/258 437/437
l 259/259 428/428
l 259/259 430/430
l 260/260 361/361
l 261/261 264/264
l 261/261 271/271
l 262/262 387/387
l 262/262 441/441
l 265/265 383/383
l 265/265 407/407
l 266/266 365/365
l 266/266 470/470
l 267/267 334/334
l 268/268 339/339
l 268/268 477/477
l 269/269 395/395
l 269/269 432/432
l 272/272 342/342
l 272/272 385/385
l 273/273 445/445
l 274/274 361/361
l 275/275 393/393
l 275/275 436/436
l 276/276 332/332
l 277/277 278/278
l 278/278 427/427
l 279/279 384/384
l 279/279 414/414
l 280/280 433/433
l 280/280 434/434
l 281/281 314/314
l 281/281 474/474
l 282/282 370/370
l 282/282 447/447
l 283/283 405/405
l 283/283 447/447
l 284/284 386/386
l 284/284 409/409
l 285/285 385/385
l 285/285 425/425
l 287/287 405/405
l 288/288 335/335
l 288/288 375/375
l 289/289 395/395
l 290/290 436/436
l 290/290 449/449
l 291/291 394/394
l 291/291 396/396
l 292/292 333/333
l 292/292 341/341
l 293/293 437/437
l 293/293 468/468
l 295/295 404/404
l 295/295 452/452
l 296/296 298/298
l 297/297 300/300
l 297/297 476/476
l 298/298 439/439
l 299/299 306/306
l 299/299 452/452
l 300/300 364/364
l 301/301 388/388
l 301/301 459/459
l 302/302 364/364
l 303/303 337/337
l 303/303 440/440
l 304/304 440/440
l 304/304 463/463
l 305/305 460/460
l 306/306 358/358
l 307/307 348/348
l 307/307 441/441
l 308/308 336/336
l 308/308 442/442
l 309/309 403/403
l 309/309 442/442
l 310/310 313/313
l 311/311 387/387
l 311/311 443/443
l 312/312 429/429
l 312/312 443/443
l 313/313 338/338
l 314/314 357/357
l 315/315 466/466
l 316/316 411/411
l 316/316 445/445
l 317/317 389/389
l 317/317 460/460
l 318/318 390/390
l 318/318 417/417
l 319/319 446/446
l 319/319 470/470
l 320/320 345/345
l 322/322 323/323
l 324/324 393/393
l 324/324 456/456
l 325/325 456/456
l 326/326 396/396
l 327/327 432/432
l 327/327 475/475
l 328/328 420/420
l 328/328 450/450
l 329/329 402/402
l 329/329 451/451
l 330/330 398/398
l 330/330 451/451
l 331/331 332/332
l 335/335 403/403
l 337/337 421/421
l 340/340 472/472
l 342/342 453/453
l 343/343 453/453
l 343/343 455/455
l 344/344 454/454
l 344/344 464/464
l 346/346 383/383
l 347/347 410/410
l 348/348 407/407
l 349/349 408/408
l 349/349 461/461
l 350/350 418/418
l 350/350 458/458
l 351/351 390/390
l 352/352 353/353
l 353/353 413/413
l 354/354 366/366
l 355/355 465/465
l 356/356 377/377
l 356/356 382/382
l 357/357 461/461
l 358/358 462/462
l 359/359 413/413
l 359/359 464/464
l 360/360 465/465
l 360/360 466/466
l 362/362 467/467
l 363/363 467/467
l 363/363 469/469
l 366/366 478/478
l 367/367 471/471
l 367/367 472/472
l 368/368 377/377
l 368/368 473/473
l 369/369 382/382
l 369/369 478/478
l 370/370 425/425
l 372/372 438/438
l 372/372 476/476
l 418/418 479/479
l 481/481 508/508
l 508/508 487/487
l 487/487 506/506
l 506/506 507/507
l 507/507 503/503
l 503/503 500/500
l 500/500 485/485
l 485/485 491/491
l 491/491 483/483
l 483/483 486/486
l 486/486 482/482
l 482/482 489/489
l 489/489 501/501
l 501/501 497/497
l 497/497 498/498
l 498/498 490/490
l 490/490 505/505
l 505/505 504/504
l 504/504 494/494
l 494/494 496/496
l 496/496 492/492
l 492/492 488/488
l 488/488 495/495
l 495/495 493/493
l 493/493 502/502
l 502/502 499/499
l 499/499 484/484
l 484/484 480/480
l 517/517 539/539
l 539/539 516/516
l 516/516 536/536
l 536/536 515/515
l 515/515 527/527
l 527/527 556/556
l 556/556 562/562
l 562/562 535/535
l 535/535 595/595
l 595/595 528/528
l 528/528 599/599
l 599/599 559/559
l 559/559 597/597
l 597/597 598/598
l 598/598 558/558
l 558/558 534/534
l 534/534 600/600
l 600/600 512/512
l 512/512 554/554
l 554/554 530/530
l 530/530 522/522
l 522/522 531/531
l 531/531 552/552
l 552/552 596/596
l 596/596 511/511
l 511/511 550/550
l 550/550 590/590
l 590/590 525/525
l 525/525 601/601
l 601/601 589/589
l 589/589 553/553
l 553/553 588/588
l 588/588 524/524
l 524/524 509/509
l 509/509 584/584
l 584/584 555/555
l 555/555 608/608
l 608/608 606/606
l 606/606 581/581
l 581/581 551/551
l 551/551 603/603
l 603/603 587/587
l 587/587 582/582
l 582/582 579/579
l 579/579 532/532
l 532/532 519/519
l 519/519 557/557
l 557/557 585/585
l 585/585 560/560
l 560/560 575/575
l 575/575 529/529
l 529/529 576/576
l 576/576 526/526
l 526/526 578/578
l 578/578 523/523
l 523/523 561/561
l 561/561 604/604
l 604/604 541/541
l 541/541 577/577
l 577/577 521/521
l 521/521 518/518
l 518/518 549/549
l 549/549 580/580
l 580/580 510/510
l 510/510 571/571
l 571/571 570/570
l 570/570 520/520
l 520/520 592/592
l 592/592 594/594
l 594/594 542/542
l 542/542 547/547
l 547/547 583/583
l 583/583 545/545
l 545/545 533/533
l 533/533 593/593
l 593/593 569/569
l 569/569 546/546
l 546/546 605/605
l 605/605 602/602
l 602/602 565/565
l 565/565 566/566
l 566/566 564/564
l 564/564 586/586
l 586/586 537/537
l 537/537 591/591
l 591/591 567/567
l 567/567 563/563
l 563/563 513/513
l 513/513 540/540
l 540/540 568/568
l 568/568 572/572
l 572/572 514/514
l 514/514 544/544
l 544/544 573/573
l 573/573 574/574
l 574/574 538/538
l 538/538 543/543
l 543/543 607/607
l 607/607 548/548
l 613/613 637/637
l 613/613 639/639
l 614/614 635/635
l 614/614 639/639
l 615/615 633/633
l 615/615 635/635
l 616/616 632/632
l 616/616 633/633
l 617/617 632/632
l 617/617 636/636
l 618/618 636/636
l 618/618 659/659
l 619/619 631/631
l 619/619 654/654
l 620/620 662/662
l 620/620 663/663
l 621/621 652/652
l 621/621 656/656
l 622/622 641/641
l 622/622 651/651
l 623/623 640/640
l 623/623 656/656
l 624/624 640/640
l 624/624 642/642
l 625/625 642/642
l 625/625 646/646
l 626/626 647/647
l 626/626 649/649
l 627/627 648/648
l 627/627 655/655
l 628/628 641/641
l 628/628 661/661
l 629/629 634/634
l 629/629 655/655
l 609/609 660/660
l 630/630 644/644
l 630/630 645/645
l 631/631 650/650
l 634/634 660/660
l 637/637 667/667
l 638/638 661/661
l 638/638 665/665
l 643/643 663/663
l 643/643 666/666
l 644/644 662/662
l 645/645 650/650
l 646/646 647/647
l 648/648 649/649
l 651/651 652/652
l 653/653 659/659
l 653/653 664/664
l 654/654 664/664
l 610/610 665/665
l 611/611 666/666
l 612/612 658/658
l 657/657 658/658
l 657/657 667/667
