v 0.20979674187545455 -0.12570205547819441 -0.12422393577835246
v 0.24305662828967611 -0.14231587117900835 -0.0002009313771001127
v 0.24180998221227115 -0.13957875664796332 0.032473666571930272
v 0.23580455262128369 -0.13595920702609043 0.065247828278732212
v 0.22511579196138962 -0.13017068127052372 0.096672914761516765
v 0.21059905656081054 -0.1236734232924489 0.12514166383074871
v 0.19014458102123827 -0.11591788895954416 0.15340327947769278
v -0.03898125072058517 0.0084676344397824378 -0.24776421742020571
v -0.069347653529686679 0.022234478701678849 -0.24112274769401432
v -0.099125417424354573 0.039865514596864632 -0.2310856330971568
v -0.126948701261728 0.057289350631155977 -0.21690999078250942
v -0.1531595732525928 0.072271519775413656 -0.19917585102526106
v -0.17719273960391621 0.08517424864894356 -0.17769527203277458
v -0.19931124406994452 0.09489065337982075 -0.15266656600335196
v -0.23222234556503407 0.11248754332340427 -0.094736020655660516
v -0.070334148562935281 0.022260820831243065 0.24054405316127783
v -0.038429474643253532 0.0043730141170241869 0.24754837672153537
v -0.0055204141809449825 -0.012456138817673417 0.2497633239752009
v 0.026025327425623728 -0.029240310816872464 0.24755229685149394
v 0.05632662188645101 -0.047697526368123383 0.24124524711616918
v 0.087200272921264269 -0.066093884971717504 0.23032433746824071
v 0.14169182702605135 -0.095564984020710023 0.19864302285428037
v 0.1445968353421386 -0.092017768232576153 -0.19873243684381764
v 0.0071170147985232125 -0.01382037658281092 -0.25018303946442255
v -0.017651311626112699 -0.00086418328735140149 -0.24988005425037213
v -0.085940981899532587 0.030605952952483736 0.23539508187443625
v 0.1042098515747118 -0.068861137079592211 -0.22441412088112872
v -0.14127828366228967 0.056608676704101621 0.20712465424733359
v 0.13121172383141702 -0.084637554028692052 -0.20829956705471137
v -0.14009638290530002 0.064993023074411127 -0.20810293828878151
v 0.18381938223404354 -0.11360318453387203 0.16032258928049997
v 0.17491361270430028 -0.10910475987555997 -0.17041291757726862
v 0.20092888842883821 -0.11977142595550952 0.13887233261710702
v -0.2097384879655276 0.093923988880501075 0.13776008733700362
v -0.1679607923623665 0.070036720309175793 0.18635604485947627
v -0.1901289715701186 0.082951826302244513 0.16384067286474907
v 0.0104971102932082 -0.020548968997845134 0.24883213253548944
v -0.021876312808993978 -0.0041993493829624315 0.24888946748911028
v 0.07499684862351283 -0.051241958303517465 -0.23690589732164841
v -0.053880758459014029 0.014959563548033286 -0.24428706813093257
v -0.054518855153805834 0.013423274022348192 0.24436901578861908
v 0.04121040075874681 -0.038189192490196103 0.24455720371152126
v 0.044224571753403531 -0.034477138384029264 -0.24545464134365358
v -0.084352039794605677 0.030753222775726601 -0.23625548018207931
v -0.22506786454824362 0.10824287078005942 -0.11006840378433927
v -0.22577628294334051 0.1021794117786608 0.10958099388766813
v -0.23760145493421692 0.10858060198433206 0.080389318472132557
v -0.2498173925003844 0.11875407013429168 -0.016438588874826365
v -0.25014109113367888 0.11759938737727506 0.01518344142706057
v 0.10311856317533732 -0.07451342579738468 0.22255028790955361
v -0.24483277335040515 0.11802056407075115 -0.051776114668618381
v -0.11795830264238655 0.045900373155306443 0.22129832290157897
v -0.16525154457407701 0.079074752887680885 -0.18879866561800665
v -0.18849342139050709 0.09032873571801095 -0.16541888996775042
v 0.20069302843233314 -0.12145258903921795 -0.13809986981363592
v -0.20874947256000384 0.099225991026896013 -0.13896989873454599
v 0.21821878232520708 -0.12688566320379763 0.11103108835571721
v -0.23790971446039358 0.11555752433247682 -0.078093312591749689
v 0.23927210432564508 -0.13785115773294754 0.048792982593257254
v 0.23657924269319003 -0.14154843963292374 -0.049298442958891242
v 0.24262428859264978 -0.14092698103243118 0.01616319946086358
v 0.24171225152711134 -0.142523455620536 -0.016728881261097985
v -0.24601613758278573 0.1138843695714829 0.048511493360923197
v -0.031645208287825341 0.0054058253418378388 -0.24866855661108239
v 0.012684046370725715 -0.016930305566544193 -0.24981915830225337
v 0.033662249713226948 -0.033662909831211771 0.24611783554741287
v 0.036518507334315005 -0.030286083812494771 -0.24702132373325703
v 0.018305448336649426 -0.024836052287609548 0.24835995076286199
v -0.011060307099296309 -0.0041283722098226696 -0.25038195041008138
v -0.024517753219409313 0.0023160335143072109 -0.24930974788822199
v 0.002551996731403567 -0.016469333039418443 0.2494243028241751
v 0.11107325497424439 -0.073063131138401058 -0.22077827553080404
v 0.06734642323522258 -0.04697983546694913 -0.23960193175629968
v 0.048641293006570496 -0.042842003220342026 0.24307253583130956
v 0.051936845128973855 -0.03867798030626024 -0.2439649211307916
v -0.11303475006822056 0.048905863336307018 -0.22414218614535075
v 0.071529466129937241 -0.056946880392679755 0.2359806363909788
v 0.13792639651064798 -0.088339732454706957 -0.20365368197451314
v 0.097229807524184336 -0.0645403825922332 -0.22796662839142839
v 0.11114619915395199 -0.078823614170257378 0.21850166628839751
v -0.13387000472545807 0.05307963338478329 0.21227378009629341
v -0.19533539170055511 0.085956183257947766 0.1577157643714866
v -0.12001452843685581 0.053191005410609803 -0.22062292911188242
v 0.12664798781042955 -0.087259976414036655 0.2089878618212079
v 0.13421424564105558 -0.091471991890352045 0.20391942162943411
v 0.16346334893633291 -0.10258639474062797 -0.18215311021763755
v 0.15611982907898669 -0.10257698237498135 0.18662780737684848
v 0.15101145164567797 -0.09553489359812524 -0.19328209729353085
v -0.17123836608000687 0.082233087653122608 -0.18334780442828436
v 0.17719706256947626 -0.11117075377522358 0.16717866908740442
v 0.15730379755571317 -0.099047755521833786 -0.18771524517492497
v 0.16339737948827687 -0.10581341500400875 0.18054317273445045
v -0.16191339383564438 0.066729124169372142 0.19174216936788402
v 0.18025809914536711 -0.11198212084041839 -0.16422683320037917
v 0.19579641061266342 -0.11934940002453998 -0.14491844997335529
v -0.20520283497665909 0.09144821089665206 0.14466781071474544
v 0.19573259214785338 -0.1178787421248355 0.1460978505801831
v -0.17382042309282533 0.07332314702693643 0.18098806976621129
v -0.18495004834307183 0.079810746347993844 0.16985802358605601
v 0.21356264224190394 -0.1277416432877308 -0.11699319943500454
v 0.21689871687427592 -0.12978249414323462 -0.1096905267626978
v 0.228070091467104 -0.13749530405033616 -0.080267128069936036
v -0.14847348386599271 0.060050237168887285 0.20200351162444172
v -0.25038510100197631 0.11867766530362886 -0.0086972178315514858
v -0.25061908233368113 0.11813124698789312 0.0070779506508952686
v 0.22558530338055827 -0.13584805763727292 -0.087757992683778041
v 0.23470908455391842 -0.14090648669003319 -0.057189019760650578
v 0.24246824722878385 -0.14248288510664517 -0.008450455283125928
v 0.23079633758354023 -0.13319314455065462 0.081269866028288645
v -0.013678426576966086 -0.0083821031566411585 0.24954915010560358
v -0.030146695858866552 4.3336285329573025e-05 0.24825134361931497
v -0.2213883795719781 0.10596443788798149 -0.11754685011628378
v -0.046531355844365005 0.0088824032142672572 0.24610687255936126
v -0.062424307749772097 0.017909908881025692 0.24245561226262946
v -0.061575101383474592 0.018469333014179995 -0.2426906415115912
v -0.046368646311295086 0.011640172038588662 -0.24611004182586715
v -0.093932725983280091 0.034555468296952135 0.23263279157749087
v -0.09172737683119353 0.035291931644914898 -0.23359992265347507
v -0.078116927811594628 0.026507478550714867 0.23808584818343373
v -0.076913496870619366 0.026364910237597624 -0.23883570595086898
v 0.079279509112712532 -0.061527730520131468 0.23318456942430299
v 0.063924003887725303 -0.052383120621077792 0.23880839560802536
v -0.23999385130345785 0.11001360279828931 0.072684823035795099
v -0.24954036415254455 0.11690329930667248 0.023441650550901756
v 0.095127506307236501 -0.070316779645423932 0.22655813530851904
v -0.24307850366058198 0.11748057772196679 -0.060719041790892055
v -0.12604633541279348 0.049506792339923639 0.21700190511085632
v -0.10610189283317034 0.044449335702180071 -0.22767237344205529
v -0.10993373666160711 0.042199393565696186 0.22548386766946138
v -0.13361963580366348 0.061217414208892949 -0.21267218060430787
v -0.15928867615544617 0.075745256560813795 -0.19413383790057209
v 0.14890804759616211 -0.099185627453629965 0.19270648089702397
v -0.18281953545654833 0.087840746173710071 -0.1715657685160826
v -0.19386588637725605 0.092643616341413063 -0.15899135753667026
v 0.20592798962839853 -0.12174372103018158 0.13193885783397577
v 0.20545736434060657 -0.12359517200086298 -0.13125031845521579
v -0.21317814497961154 0.10141813018379442 -0.13195053589897382
v -0.20409936450654464 0.097053426383727964 -0.14585178817267994
v 0.22002341721944046 -0.13190395746131134 -0.1024296352853965
v 0.2217485415854773 -0.12851210365874455 0.10392697231077905
v -0.22871739187975093 0.1104542017872072 -0.10250306999302877
v 0.22800425551012099 -0.13167180563594927 0.089052082642710445
v 0.23329078152414398 -0.13457276312010971 0.073270961860749328
v -0.24068337765060951 0.11666811262514308 -0.06950581565069705
v -0.235092873825471 0.11416643856680631 -0.086515729005801317
v 0.23823312966739879 -0.14199829169327283 -0.041321461500751645
v 0.24059787111789629 -0.1386726176524069 0.040597632279807408
v 0.23766537052233588 -0.13696045749919136 0.057019219108563057
v 0.24253284757481405 -0.14037753842358902 0.02433465476709766
v 0.24290574032106313 -0.1416609707098675 0.0080013851715866682
v 0.24075763781422671 -0.14244903818003074 -0.025009460785062929
v -0.24667532375028123 0.11842112584152761 -0.042912967362719351
v -0.23502815357040951 0.10709470144115502 0.087910852961315469
v -0.24895678914652553 0.11605627249017306 0.031827875324721699
v -0.24841332045069103 0.11870230948612481 -0.034116971083577044
v -0.24257039562181576 0.11139458628224838 0.064901617901092903
v -0.21841716022588625 0.098354639969637864 0.12381864560215769
v -0.21761873449543429 0.1036913699730061 -0.12495075897853526
v -0.23233129956552098 0.10554647351759276 0.095302251386713582
v -0.25083599153633707 0.11849583041261297 -0.00087807918836167417
v -0.20047579374049362 0.088792549055817377 0.15139968108945429
v -0.17961383397610253 0.076581337090981139 0.17564975287750739
v -0.15543503491940455 0.063404313153243741 0.19697033422620611
v -0.10193037684206892 0.038415461249419608 0.22931169247414301
v 0.17046747532765733 -0.10868367671843027 0.17407217269731037
v 0.23969424720117163 -0.14233806872170116 -0.03326117009170456
v 0.059673107597366222 -0.042854640497075464 -0.24215244585838189
v 0.22305348864561897 -0.13406040199484315 -0.095216223457771962
v 0.090070949053824428 -0.060146473533737331 -0.23138567138761523
v 0.11790559837377858 -0.077162123263349133 -0.21712108989579926
v 0.11901474038812077 -0.083089949630406099 0.21399640432847788
v 0.23268284197354933 -0.1400556114754099 -0.064997478802923364
v 0.19090505821638101 -0.11725378534685815 -0.15173417435241876
v -0.0047382393227196357 -0.0074194605750582425 -0.25067592965065166
v 0.028732047456572235 -0.025982652868610241 -0.24838190313381125
v 0.020787694619187617 -0.021511091430731724 -0.24922209189461067
v 0.0013240712042927763 -0.010652379426838793 -0.25050566344713088
v 0.082605458941537035 -0.055633535868532064 -0.23418651244154398
v 0.12454796780664645 -0.080939106229805352 -0.21280411155902323
v -0.14659397814962119 0.068673216891574282 -0.20358043438148149
v 0.16941305903827758 -0.10602725977700778 -0.17650500844468975
v 0.21448228399918523 -0.12525847171105803 0.11804803570713232
v 0.18562244248795515 -0.11473428507606986 -0.15806643146819849
v -0.22219236690820976 0.10033339118556531 0.1166862337397617
v -0.24444432236579178 0.11267372659865088 0.056787082355211876
v 0.23038619335138541 -0.13886463843664554 -0.072660509435934328
v -0.24926246965624044 0.11878133432818155 -0.025266958489490295
v -0.24762492167022337 0.11502293263753868 0.040191612802642662
v -0.22911008367930855 0.10390908306195558 0.10244846445416339
v -0.2141767906781018 0.096221962761815105 0.13080925089059139
v -0.048539903092482913 0.18682801058686432 0.13703458830165088
v 0.0070249539392170657 0.17832690666340451 0.14696922945781241
v 0.082187840291381181 0.17480273573908622 0.12250470066898743
v 0.068472946907660703 0.17462025164162348 0.13073933476435795
v 0.13836690046049982 0.17238312222836441 0.053171384424616261
v -0.032326714118822208 0.1803849407317521 -0.14358173051281725
v -0.13044698165357207 0.2245322040593406 -0.016093236237127172
v -0.047364634058996782 0.18434805506151045 -0.13819627525939379
v 0.0079421440856054654 0.17308632895533424 -0.14838508387070021
v 0.025103374030603628 0.17068823682681439 -0.14692042481471562
v 0.094522689122394504 0.16521108819015456 -0.11667957597157254
v 0.135795898584432 0.16592613392219335 -0.063296827617561863
v 0.12875076781424141 0.16520954417218411 -0.0769681316094568
v 0.14931602966892024 0.16801518788178588 0.0076307795810448475
v 0.10114213162219599 0.17562050339599672 0.10668197400102855
v 0.058644539330550825 0.16711269058351561 -0.13763159941265518
v 0.039681426908247677 0.17556590169777048 0.14198417092741314
v -0.00047239797425370944 0.17430228128144806 -0.14826746125688017
v -0.0015490843325563003 0.17931533747614259 0.14688184595520395
v 0.13882088836112871 0.16634692020956024 -0.056374263947491621
v -0.018297782394053962 0.18171186058130359 0.14525073788552539
v 0.13254766314969693 0.16557237032132499 -0.070244588393959792
v 0.10685356755174677 0.17600789648345938 0.10096282703649234
v -0.075165169683198446 0.19316684632246844 -0.12173801319738473
v -0.075255163786732013 0.19350679669902504 0.12155451634594924
v -0.087482441157511928 0.19846358691587779 -0.11078196752470459
v -0.087253510508405907 0.19865337404053526 0.11088286741634726
v -0.098276085010120723 0.20424118234317223 -0.098325356452411736
v -0.09775975093950845 0.20446930946260072 0.09872218140351835
v -0.11124080350075712 0.21263563856185391 -0.077845819363159333
v -0.11051885096179884 0.21256230849333943 0.078930827838278025
v 0.066787799041596971 0.1665752593497567 -0.13408822189696695
v -0.11791171162415846 0.21746910145971363 -0.063434163192419873
v -0.11734082090748404 0.21670186395898372 0.065105866290914444
v 0.047221140633053563 0.17519206052851788 0.1398716382417784
v -0.12911452734956244 0.22419236349313384 -0.024577211378790598
v -0.12895702860950842 0.2221794145522405 0.029290759945825279
v -0.13121742935142483 0.22451543252142958 -0.0073450175268681478
v -0.0086933209157732949 0.17562302166846244 -0.14786026153207232
v -0.010036664114999209 0.18050221753623688 0.14645234443281552
v 0.14078395434850177 0.17131418545362473 0.047167575628590974
v 0.14128633126633655 0.1667056455323925 -0.049381383147583946
v 0.13243505254744697 0.17443454695483482 0.064982900554612005
v -0.026290505703634247 0.18301711899693984 0.14378684241398679
v 0.12127007899801391 0.17629419715654715 0.08289755767562576
v 0.14678119425141223 0.16753074941163298 -0.028625834332262616
v 0.14644833726469353 0.16891855116506482 0.028405574476239738
v -0.024572731928292416 0.17856989584601282 -0.14534417643342062
v -0.068553477103101959 0.19079114844846112 -0.12654089052255854
v -0.068838156409455412 0.19139878337278188 0.12616151854975566
v 0.016489990153758523 0.17184997698627391 -0.14785184185933128
v 0.01553217308774001 0.17744372691380644 0.14636993634686013
v -0.081497358891729058 0.19599087805414886 0.11656057581147267
v -0.081575106163229341 0.19577459615083059 -0.11659481812421421
v -0.039891047776782526 0.18228157502993436 -0.14103231587517992
v -0.041341506586438426 0.18552645934012113 0.13953997541049101
v -0.093170841635548618 0.20136744174938376 -0.10479762711171815
v -0.092790418627011859 0.20157444430470758 0.10503201695334113
v -0.10668886354408438 0.2100891101394034 0.085716173508811555
v 0.14801247884962515 0.16769150424303003 -0.021756076018015127
v 0.14781780630932456 0.16849002531653259 0.021738326680783307
v 0.033641492258281114 0.169585333526027 -0.14537982695214113
v -0.11485425398226906 0.21520454133642036 -0.070764286725316719
v 0.042017447168621033 0.16862112170692142 -0.14334532654090876
v -0.055416764506351995 0.18809304451911252 0.13375249053579924
v -0.054590249157982225 0.18639675171083739 -0.13466776262834487
v -0.12755617845990633 0.22358688872093579 -0.032819248849667908
v -0.12739245335521429 0.2214818426343281 0.036570339478205663
v 0.14302126115726049 0.17037278937800746 0.041099866963831305
v 0.023867583813405504 0.17672693555359947 0.14538986072704646
v 0.14967164856323831 0.16795540831236477 0.00026296225251215793
v 0.14876820783525427 0.16819870503716855 0.014804473104295479
v 0.14883472490580835 0.16778597075321719 -0.014921570682690333
v 0.088267903377818743 0.16545043057937042 -0.12129852089991969
v 0.14494847985400777 0.16957524171574309 0.034869560724277909
v 0.10569756775435721 0.16479757659956884 -0.10668840183214365
v -0.016714488837675297 0.1770076209631396 -0.14681864732164268
v 0.12916406365645039 0.17532911386532352 0.070980195097388621
v 0.12467397798316265 0.16493478908797071 -0.083509584207448195
v -0.12328963826750558 0.22122316169662154 -0.048497417040928317
v 0.12031154376974695 0.16475183234927718 -0.089776079303850662
v 0.11684883635309395 0.17639725599516634 0.088941113217178278
v 0.11198598740700633 0.17625454064755758 0.094930227638047565
v -0.033968283522027458 0.18430226311280395 0.1418881625068219
v -0.062235158300712787 0.18962472003124517 0.1302632148641259
v -0.061702223316741842 0.18856148090505942 -0.13088126583020479
v 0.11089971159228365 0.16472147420459798 -0.10142438844947055
v 0.11566906784203659 0.16466425141791985 -0.095710112950315535
v 0.095233630514600376 0.17531914825333345 0.11236610738671822
v 0.14939943878066037 0.16786242170699872 -0.0072679350623193412
v -0.10304137873070164 0.20714128054554476 -0.091702673289321621
v -0.10239765332749483 0.20734444187660622 0.092282567739945309
v 0.081619494553202526 0.1657667973244738 -0.1258337296885251
v 0.088777354449164458 0.17497994855974153 0.11750774700498608
v 0.14351842126371495 0.16706129603690179 -0.042459364296415752
v -0.11418316820499158 0.21483235209196389 0.072135353705875704
v -0.10736606884074028 0.20995845077358721 -0.084871111118284298
v 0.074405224743327031 0.16610769160694966 -0.13003244856078799
v 0.061539767364776857 0.17468059673571082 0.13412493524735558
v -0.12083553000953765 0.21954456545016404 -0.056079893794214603
v -0.12034167000724372 0.21830969080726093 0.058066946640635886
v 0.13555919844883471 0.17344270339106471 0.059087176762283651
v -0.12556628625842092 0.22258823203991926 -0.040773024473751342
v -0.12530929296561777 0.22060548639981065 0.043757000574735222
v 0.054444509054107922 0.17485631810111946 0.13711942557263213
v 0.12533390416851947 0.17592616944239697 0.076885470620862997
v 0.10031071737964263 0.16498723919808467 -0.11181302177816616
v 0.050131513110143452 0.16781013804678652 -0.14080834088497268
v -0.13027403563969356 0.22286552063796217 0.021988430897121398
v 0.075200536063461804 0.17464637631705615 0.12690723400411122
v -0.13112266315673088 0.2234613777950048 0.014620546694213303
v -0.13148734762769104 0.22393847543924031 0.0072271709110408389
v -0.13160654196009519 0.22434428778594018 -0.0001160929470252828
v 0.031925135097598263 0.17610036796147704 0.14390205821438223
v 0.14540098052825501 0.16735363740345463 -0.035554938833265201
v -0.12301803213776276 0.21960107468706694 0.050949366881725397
v 0.12130282332941189 -0.24375384349010512 0.020178693767646916
v 0.12264763751870555 -0.24459409982103328 0.0020157386657222243
v 0.1176755841870967 -0.24248747178512575 0.037408171847814642
v 0.11216515946665322 -0.24052873192751728 0.053672615275364807
v 0.10510285905314376 -0.23752167095682231 0.06905795117084941
v 0.096432942715822006 -0.23340489359711414 0.083553694357764136
v 0.08634614084847643 -0.22858636512035518 0.097133870749000706
v 0.07473977966235526 -0.22354041422810661 0.10904487929135701
v 0.062041451055017342 -0.21920248015978105 0.11875442450853392
v -0.043898880253890868 -0.21413917061891294 0.12729874517133702
v 0.027148736253192165 -0.21627022722456057 -0.1321683119696882
v 0.12134128222278359 -0.24461955532155238 -0.016827397761765204
v 0.11369456354176553 -0.24211544442048039 -0.048367254733899204
v 0.10742777326196651 -0.23964057155250112 -0.063363230096397966
v 0.095475837058496826 -0.23409401391130549 -0.084283425631074715
v 0.085779104385312333 -0.22918596669051625 -0.097277403153614606
v 0.074527158788729855 -0.22399862306470286 -0.10898088548811544
v 0.06197563293512208 -0.2197013681808978 -0.11855798940103232
v -0.044384872676623555 -0.214678901975278 -0.12703201077605092
v -0.059977315191671689 -0.21334706218056254 -0.12072474916779211
v -0.12577367600197908 -0.20327504568210519 -0.057573965725770962
v -0.11803655096998406 -0.20409941330520259 -0.071399576309150697
v -0.10853990708276484 -0.21064830520921318 0.081367193479731648
v -0.10804210827590037 -0.20603955878211899 -0.084575308550391054
v -0.095944545479313068 -0.20852612586568103 -0.096758874104171638
v -0.079394256440529401 -0.21338909731950212 0.10855351826468135
v -0.082242700220175657 -0.21077580501216531 -0.10761657169389205
v -0.020624372231157585 -0.2140615797373504 0.13322113956587933
v -0.020155424527240583 -0.21576500332937892 -0.13264925372026248
v 0.0034639963356635347 -0.21432025017262055 0.13515222642534763
v 0.0039159700360580302 -0.21617593667906676 -0.13447612791543911
v -0.12226511465818718 -0.20357689382595912 -0.064588562768014612
v 0.034397699929932038 -0.2149117334516667 0.13098476340202131
v 0.034474938524538298 -0.21632632569924795 -0.13039917460728273
v -0.11336412341328961 -0.2049670453640729 -0.078121777829408628
v -0.10227362058214205 -0.2072900917177668 -0.090848525464804458
v -0.085790223754876563 -0.21306918028596045 0.10383680854856575
v -0.089306532252785314 -0.20973992419417242 -0.10243532339601008
v -0.02845250484129638 -0.21408004133998026 0.13178222497983322
v -0.012165304703001961 -0.21597674522693194 -0.13374840158622608
v -0.012739680411176723 -0.21413946493588365 0.13434030831423016
v 0.12226818281114094 -0.24422687892003736 0.011204416031977815
v 0.027014757579903525 -0.21466891865622154 0.13286531987954442
v -0.1313183724212923 -0.20527104199201662 0.0415906761890453
v -0.13138922379262546 -0.20327233872578312 -0.043497126357209079
v -0.13528770864268863 -0.20338926377882424 -0.029654201948353765
v -0.1356268140677992 -0.20404739969294616 0.026805565787740925
v -0.12184534489171769 -0.207899232772639 0.061956907578352885
v -0.11335667349843881 -0.20975876607014071 0.075015891523356332
v -0.13824275465412728 -0.20311970906940879 -0.01020880234385747
v -0.1381267287759616 -0.2033326210750134 0.01027009054404603
v -0.10325402121545736 -0.21140594669668233 0.087411867468052601
v -0.091839969575794544 -0.21260831037010711 0.098659738570553296
v -0.13860803833852187 -0.20307754314076099 -0.0042639134779693354
v -0.13864218078296983 -0.20312937952869781 0.0014135760434797679
v -0.072848282388108254 -0.21371069372289642 0.11308232213017427
v 0.055346712230761472 -0.21750866863936638 0.12257434661644828
v 0.055317299399131749 -0.21816390498699206 -0.12229667157200977
v 0.019352726660314387 -0.21448469832703626 0.13403916732931559
v 0.019575435381012675 -0.21620692734187119 -0.13329455095717629
v -0.058848453948162821 -0.21408462011622664 0.12098492102612235
v 0.068316867748204751 -0.22161320240184984 -0.11396692741136488
v 0.068440460776614059 -0.22117802578729229 0.114100661087991
v -0.0046458436827267295 -0.21421395684615319 0.13494075742919129
v -0.0041024629045218475 -0.21606618478031692 -0.13425547697185586
v 0.080266481031643022 -0.22650835121974572 -0.10324904307301172
v 0.080626144881787848 -0.22598197384464677 0.1032314993420026
v -0.13768500693907376 -0.20325750995689279 -0.016451650741537586
v -0.1371437222255168 -0.20364098408591647 0.01876628859124118
v -0.036279327067536858 -0.21512559228332206 -0.12928967700643135
v -0.13362031652692369 -0.20338439824595544 -0.036544595691314678
v -0.13378133599215558 -0.20462621731481184 0.034417184029320064
v 0.09074948492219885 -0.23169074924450489 -0.090826279410915867
v 0.091511209650789016 -0.23102127257966626 0.090431116289178742
v -0.052208153431262366 -0.21401050514167255 -0.12401638265848133
v -0.051418821708924554 -0.21409597217428256 0.1242441956539061
v -0.12889789311784033 -0.20324239696063334 -0.050565592722736405
v -0.12863074386158763 -0.20609633491112134 0.04854551670659675
v 0.10088621428095712 -0.23554274117032256 0.07635819927149215
v -0.11786318008968827 -0.20885724331554134 0.06856672984818446
v 0.01149162285285146 -0.21440544577672715 0.1348482204152113
v 0.011827644905142827 -0.21620858396696147 -0.13412145445339474
v 0.10876315290804851 -0.23913634492794755 0.061436582569926693
v 0.11072721929218765 -0.24097425772313974 -0.055963514762365316
v 0.11509529201358483 -0.24160558037066343 0.045644136604530032
v 0.11616222640994252 -0.24300981392701521 -0.0405560058972943
v 0.041639244966206149 -0.21663308475056886 -0.12833350105724675
v 0.041605957312207301 -0.2154723736023553 0.12881605153980019
v 0.12004176628272141 -0.24429600768140722 -0.024743631554896485
v 0.11972346601809569 -0.24316505275213407 0.028908489413600254
v 0.12228259447505149 -0.24471805366159632 -0.0073486306171576966
v -0.097704340892573349 -0.21207628433571302 0.09321603330422229
v 0.048558363917568917 -0.21717949526986455 -0.12557853191346574
v 0.048562299425737643 -0.21629435709134642 0.12596528065686546
v -0.075027541142862697 -0.2117451307746962 -0.112498892752431
v 0.11835982246092969 -0.24378181584760761 -0.032685408755965782
v -0.13666309066721169 -0.20334930954022265 -0.022945245814744164
v -0.065926240278961379 -0.21389172072481621 0.11711249708858454
v -0.067526616051149874 -0.21254652888171893 -0.11677130861404449
v 0.10374112569603793 -0.23804267538218987 -0.070512225552661442
v -0.036180942396718305 -0.21406344674977018 0.12967517333121686
v -0.12545461386969747 -0.20697601402939639 0.055302660004023375
v -0.02801439480070245 -0.21555018802731452 -0.13134504982969369
v 0.099716465785449446 -0.23617232658326387 -0.077444576773948046
v 0.2438015081179471 -0.13555077928261491 -0.033134128100940977
v 0.24936319814676683 -0.11270244773409976 -0.030812350421726708
v 0.24765740433072531 -0.09721231040075326 -0.027796033347450233
v -0.11255753650112882 0.26397465326314795 -0.0029983523478410512
v -0.10821303005357485 0.27141849896965353 -0.0027196097309033639
v -0.098823309271333509 0.28581030592275636 -0.0031266031505210777
v -0.088335040716466959 0.29955052195819049 -0.0043475176297613043
v 0.072524627446793541 0.31400014911351604 -0.0029911172591680817
v 0.059494386650856948 0.32556477201327433 -0.0019895207494041584
v 0.037146583024952037 0.34024258161889764 -0.0016645661162922559
v 0.0014242357803769612 0.34923907893392753 -0.0035353247636568793
v 0.028465464620382304 0.34400820675720256 -0.0019362214123461383
v 0.16287304071712036 0.10311869679972466 -0.016648037212081312
v 0.13498081668949435 0.21139438310725361 -0.015304412104428195
v 0.1224301162479747 0.24163475954020924 -0.013747214660263438
v -0.064178172751109944 0.32390764925627991 -0.0061961896965246612
v -0.057666624735588576 0.32888622930946065 -0.0062760719656572055
v -0.044245191797278927 0.33730205244829808 -0.0061020502594701211
v -0.014643468919332114 0.34792340588090664 -0.0047160511276095607
v -0.022444558901715806 0.34616762957351682 -0.0052251695494155521
v 0.0096113036765749522 0.34855437185341515 -0.0029627937631076179
v 0.019194133514388832 0.34685389041508929 -0.002384558846218611
v -0.029988286096751571 0.34374840357706615 -0.0056200766439109488
v 0.23465300928196692 -0.14917740210027697 -0.033206400655313217
v 0.22156062049748673 -0.15989088976860188 -0.032362336159956151
v 0.20618949466090158 -0.16624405032992057 -0.030682587307940889
v 0.19023785496724324 -0.16913478646998265 -0.028301178150635868
v 0.18231289219952776 -0.16928346040245318 -0.02683429758647447
v 0.16685930833498017 -0.16830002003360478 -0.023534716005246481
v -0.17223835738610094 -0.019061836525339007 -0.0062983176500880853
v -0.15770369858961031 -0.13516498900636548 -0.0044095583710589449
v -0.14813578934977517 -0.17355603358080621 -0.00040569755139073071
v -0.1361407135221985 -0.21072946416144525 0.0013584960654305311
v -0.12362875214582893 -0.24063605891303347 0.00050817200464474172
v -0.10872427150213565 -0.26837350866380638 0.0011727978874867735
v -0.072021180893754547 -0.31449717822201761 0.0033533579308929421
v -0.058678096704554705 -0.32624477979761968 0.0035472887061530505
v -0.043670636888933939 -0.3366245642737139 0.0037874903009677847
v -0.0050817533265896907 -0.3490935382146968 -9.9242034093875072e-06
v -0.015930038654804496 -0.34762604059694036 0.0017111865381088235
v -0.026040286804514735 -0.34492569612109897 0.002907210669090931
v 0.13459274226431206 -0.21396670438005386 -0.017465668739375117
v 0.14260046182493913 -0.19249529375621993 -0.018587141630441201
v 0.12839145057610646 -0.22910124802570259 -0.016969300200767107
v 0.12134128222278359 -0.24461955532155238 -0.016827397761765204
v 0.11335915190196869 -0.26009786790976952 -0.017067418561067589
v 0.10429509140119286 -0.27524569420824979 -0.017596268153008177
v 0.088706403808427481 -0.29673928177496456 -0.018431651134594343
v 0.059924253277627453 -0.32563907162419115 -0.01615667227335316
v 0.071645956705800637 -0.31536809976329905 -0.017823543709123646
v 0.041782453632619843 -0.33796315826662848 -0.012162230337421587
v 0.054049430313013257 -0.33021314416117564 -0.015018905754107846
v 0.021717366893335123 -0.34640682730235117 -0.0067198476879030524
v 0.014697495304716368 -0.34802818308189709 -0.0047619791618531936
v 0.028609544308922999 -0.344028992971388 -0.0086407517265732897
v 0.15929980593043841 -0.16890389387827603 -0.021895254061758039
v 0.15282098329364763 -0.17275919591085026 -0.020577895579731168
v 0.14839441968040668 -0.17881165084941331 -0.019711215949182168
v 0.14516328764512826 -0.18551889304661226 -0.019066223342491653
v 0.15957247215454751 0.12077506899838131 -0.016110975762817822
v -0.16611336022108064 -0.084681557130467267 -0.0081116911665934655
v -0.15204371955806806 -0.15862401531780021 -0.00198621056016137
v 0.15132069093478501 0.15807311084662562 -0.014987865949808422
v -0.14111187019865401 -0.19556239971862599 0.0012692533673007527
v 0.14075671966101011 0.19423006855720767 -0.015175418883750192
v 0.16915344861223697 0.051027268702588377 -0.015630337259125913
v -0.16978110827296283 -0.05075393927829841 -0.0067457519071423538
v -0.24823950470608147 0.12762180139960805 -0.016665545112096267
v -0.24089810352209706 0.14356703528237108 -0.016750760290548852
v -0.22940512506747157 0.15598914972675704 -0.016303200211264919
v -0.2498173925003844 0.11875407013429168 -0.016438588874826365
v -0.24955990143332599 0.10346709882697985 -0.015868437544142928
v -0.2150780948021255 0.16422492116704557 -0.015246887449672106
v 0.16535632545822115 0.085642697588014488 -0.016596617647876899
v -0.24527487073006118 0.088296405497808345 -0.015094848125184517
v -0.19900805350260709 0.16867308375759638 -0.013705529567535676
v -0.24520461716751912 0.13597318762233165 -0.016774229675734456
v -0.23564330676063383 0.15033185661062237 -0.016609663376428919
v -0.13008320520650257 -0.22584644004090237 0.00092455227800500967
v 0.12857399384358567 0.22722550791727125 -0.014841323524575227
v -0.23736875270682239 0.074380946424419156 -0.014156854153844637
v 0.10003915672659366 0.2807462023168199 -0.0074021674060985292
v -0.25028515981992971 0.11115379706433556 -0.016188472025375461
v -0.22259510853115722 0.16076868697852997 -0.015858325564086267
v 0.17110356322180476 0.02597170108699863 -0.015213463319332243
v -0.24800030414335325 0.095777169732182907 -0.015507638415723946
v -0.20724094610338833 0.16695959153776896 -0.014527219254958037
v -0.22710980069451792 0.062633599226541242 -0.013036269557011778
v -0.21638708249011296 0.052785562656595689 -0.011819120580547352
v -0.11643897027334874 -0.25468169261693513 0.00049852346110924373
v 0.11571701260178807 0.25469021759629784 -0.01197081296880043
v -0.19045943425431025 0.16972294640482519 -0.012830172293024144
v -0.24184713823286902 0.081033725507847792 -0.014649556221071936
v 0.084542553188639638 0.30112981795299265 -0.0044487394087126446
v -0.084065151149474521 -0.30173279625390081 0.0033298886757407165
v -0.19200640703790378 0.030553837853902442 -0.010580150746036607
v 0.19027072405826922 -0.028670477015477723 -0.014057430879350324
v -0.13121742935142483 0.22451543252142958 -0.0073450175268681478
v -0.23247433798877298 0.068165709891920168 -0.013622177591009282
v 0.17264852705226955 0.010582857946315045 -0.014905672253368613
v 0.17773780690706431 -0.0093063873753097947 -0.014262426022131795
v -0.17763242295736087 0.0082987276824816117 -0.009426703696395429
v -0.13796184102452011 0.20719303042638859 -0.0087401100768597206
v 0.1836502061909468 -0.020017759857496171 -0.013952328888555179
v -0.18387708425718929 0.020146194853533285 -0.010429274338480577
v -0.2217395560237031 0.05749627197667212 -0.012423033797808417
v 0.066025975930809763 0.31983440687355791 -0.0024242642403807463
v -0.15834016762970943 0.16992128086496008 -0.0098819986928739469
v 0.20689278804660591 -0.044777837468309808 -0.015717992807239491
v -0.12434502744712379 0.24071126714143015 -0.0054253117658436146
v 0.1717351801459584 0.018090801364325549 -0.015070638349264101
v -0.065370680347136917 -0.32035250807441007 0.0034029673166192957
v 0.19566595664257946 -0.034609604413144229 -0.014454389709143995
v -0.19648939691858597 0.035285021452410963 -0.010566297832787227
v 0.1738543256828744 0.0034867142085479143 -0.014702554811122709
v -0.18773806011445604 0.02554811570629446 -0.010572538798941019
v 0.18691737475662951 -0.024639456818055253 -0.013935172523933155
v 0.18049932784585182 -0.014928419998673476 -0.014072222719003057
v -0.18044479272650574 0.014407832446938874 -0.010053815645811854
v 0.16758489833352913 0.068276349247510762 -0.016116804376928289
v -0.16826177035249343 -0.06762167174955791 -0.0076890422221945406
v -0.17169030065820023 -0.026605534622202887 -0.0060045070400943749
v -0.15590352984746822 -0.14316048171063478 -0.0035762874247294964
v -0.16216004341295698 -0.11023268561684368 -0.0069378961217896485
v 0.15375560700621108 0.14849572781356735 -0.01516909676537599
v 0.16126599407653863 0.11189314259937638 -0.016429218319464284
v -0.15175463317835397 0.17493018750628261 -0.0095497275674912771
v -0.16072408592942605 -0.11865208169162515 -0.006142264378124377
v -0.14743199434551235 0.18222457749980528 -0.0094233347070831475
v 0.14358354836716325 0.18545398922533698 -0.015042701743519918
v 0.094135149904608265 -0.28982240540720305 -0.018223825656616427
v -0.051367604757121918 -0.33153802449993131 0.0037170741682893763
v 0.052474011076610573 0.33075144542632395 -0.0017032309701817722
v 0.16645309952235424 0.076939624983308363 -0.016376102930327853
v -0.13864218078296983 -0.20312937952869781 0.0014135760434797679
v 0.15606811008208676 0.13910232042941556 -0.015447977982358573
v -0.1442660258951704 0.19031545977124137 -0.0093319201806034979
v -0.15012423465375477 -0.16614602414185325 -0.0011913387701036318
v 0.14883472490580835 0.16778597075321719 -0.014921570682690333
v -0.093642062837491047 0.29270109322044896 -0.0036845774085029924
v 0.045125245735887304 0.33575137534596589 -0.0015879624601526209
v -0.15923539163601788 -0.12697201797057023 -0.0052753022056709481
v -0.1411813953977582 0.19866953538709997 -0.0091275971184072678
v 0.083128975533574706 -0.30334412914991971 -0.018471598057198772
v 0.15787171507560999 0.12983611731610861 -0.015765567967484351
v 0.14643454650701559 0.17667144907422377 -0.014956758240850051
v -0.14601119361510878 -0.18089459867582608 0.00031724791500448824
v 0.13728587724550867 -0.20662654578909592 -0.017783659567863458
v 0.13791362235793847 0.20291625792641971 -0.015286612895379859
v -0.13468032971045105 0.21585827330325247 -0.0081480299567016513
v -0.082632904490327702 0.3061136752570851 -0.004999348573210066
v -0.16370963456335483 -0.10177479565144015 -0.0075816387566458865
v -0.16912369998325139 -0.059149459259797886 -0.0072440345896294927
v 0.16985340451399633 0.042515700304441795 -0.015466165572339203
v -0.12788379769823682 0.23268360185701725 -0.006429844479818916
v 0.24534944715583185 -0.089868417387946056 -0.026066105869918865
v -0.16498127174268029 -0.093240186988732016 -0.0079801607411670427
v -0.16721879831307909 -0.076136534227155023 -0.0079988384184297018
v 0.16419010965862751 0.094369666654555623 -0.016701681149978609
v 0.0774645953378508 -0.30960142907856042 -0.018287477493884811
v -0.12065506435181325 0.24862762306326142 -0.0044419510381558218
v 0.2422743866659117 -0.082892525063287426 -0.024332744767559318
v -0.076705745398097713 0.31244566815050889 -0.0055549492173418953
v 0.12504139019367144 -0.23688736966597945 -0.016858259814312868
v 0.11905985513708256 0.24822620955877245 -0.012925992958402721
v 0.11231162462040056 0.26114249117059246 -0.010904027896438039
v 0.17047825856499865 0.034138682365919333 -0.01533455499868238
v 0.24893298350327181 -0.10488324248058634 -0.029398098058706794
v 0.21398864390574551 -0.16346742655269847 -0.031600674182942934
v 0.13177214317486086 0.21948973185956572 -0.015153112885546079
v 0.12549511634157839 0.23461246051765963 -0.014375320693010197
v 0.10451053909842095 0.27411069064339727 -0.0085622842477855836
v 0.095313669687197219 0.2875827971507493 -0.0063240686173895739
v -0.094848001605897153 -0.28845887845937246 0.0028394944461952627
v -0.10423807301527251 -0.27497555397054774 0.0017310163461590612
v -0.1126117110760633 -0.26151950454280787 0.00074486955633215157
v -0.17110634866305147 -0.034430201978412553 -0.0060258204466892597
v 0.2485589315265091 -0.12053339207805357 -0.031914901117554212
v 0.2284336520241057 -0.15496618837190251 -0.032879706942763792
v 0.24677477135042386 -0.1282203214389771 -0.032701486398969512
v 0.23969424720117163 -0.14233806872170116 -0.03326117009170456
v 0.065752338178348399 -0.32066141884024657 -0.017091826886143573
v -0.099608746528987477 -0.28165803446565041 0.0023238778726847736
v -0.18154732264129597 0.16976108077202073 -0.011907650899328635
v 0.23398231623722682 -0.070307143168758413 -0.02116576115902935
v -0.13305526734696421 -0.21824815303607709 0.001170224608580908
v 0.19820479842037314 -0.16795868844878442 -0.029569506731522512
v 0.22904283604029274 -0.064653592710647453 -0.019802436795271352
v -0.070522125168791888 0.31838983113578101 -0.0059577066268144017
v 0.21817054892998949 -0.054407187955048883 -0.017507993206068748
v 0.21252186748452953 -0.049597879886132575 -0.016551371804896072
v 0.090175744429014659 0.29444221119945774 -0.0053385460422503209
v 0.10895567199091014 -0.26771022526706911 -0.017299897548485706
v 0.099363254086588249 -0.28264874060476897 -0.017924806441306208
v 0.11749629373336595 -0.25241182157649544 -0.016909261149652396
v -0.10363814578916666 0.27869271984504923 -0.0027762068373162097
v -0.20612529314923711 0.044022681699104851 -0.010881003612413179
v -0.11670668410923549 0.25637651625195501 -0.0035960898393944552
v 0.22366039661482773 -0.059450505859689889 -0.018585955882875618
v -0.05106126717163828 0.33339349320975475 -0.0062377324346621545
v -0.17408645686837146 0.16937217903171492 -0.011175882447207065
v -0.12004126644713495 -0.24770219851201933 0.00043104311864079683
v 0.16848609357574268 0.059631659346894225 -0.015855795642429671
v -0.1704569803712237 -0.042497207831790229 -0.0063051204587503719
v 0.23846004580003582 -0.076359244094027251 -0.022682846726027876
v 0.078676918466442022 0.30771165852871923 -0.0036688664471804886
v -0.03525304513552209 -0.34111738369009548 0.0035645585961658734
v -0.17403487006247056 -0.0048503766838257113 -0.0077086822397689648
v -0.21116390519218245 0.048349926400978641 -0.011284510797724173
v -0.16631308122538194 0.16886892001699477 -0.010479020448360188
v 0.1745179756186418 -0.16891514351972517 -0.025228174625898561
v 0.10867449569993279 0.26764016878684715 -0.0097570528263202557
v -0.12682643978972294 -0.23327796985611704 0.00068734124051502235
v 0.13151900022165283 -0.22141767553503461 -0.01717131004184385
v 0.2012827628573034 -0.039832922622066357 -0.015014662913275046
v -0.20124961974039537 0.039692604417355504 -0.010645471044452241
v 0.13997125360515117 -0.19950095583235611 -0.018161656350050119
v -0.1729693193095557 -0.011814767733713184 -0.0068887722266458111
v 0.035266229785290773 -0.34108799801586881 -0.010456736228417907
v -0.0372240222482218 0.34072059899314616 -0.005901416907168059
v 0.04800920167073916 -0.33430027226222458 -0.013683208804762745
v -0.089635432844903079 -0.29514303883842696 0.0031776940029632937
v -0.07823069718866088 -0.30824272989416746 0.003358961502915001
v -0.15397970597180494 -0.1509712197727795 -0.0027761569384244372
v -0.0066658057439982548 0.34897718923593646 -0.0041446398221972949
v 0.0077941115440017979 -0.34909469037591234 -0.0028975848133461083
v 0.0011576210743716286 -0.34938257809288631 -0.0012695511811657201
v -0.14353494968039321 -0.18816204762599334 0.00089585663738310137
v 0.17549009500904605 -0.0031644622292033167 -0.014477681377990031
v -0.17545174529600782 0.0018806427129027564 -0.0086007220318715452
v -0.07439836700169758 0.11193416930884155 0.1740411300808799
v -0.096993554252310987 0.12404802346439692 0.16173224722288987
v -0.11760579048185603 0.13505418199260283 0.146290216818215
v -0.13510769875068951 0.14460032747544166 0.12834115901082599
v -0.14978157657888047 0.15259496985066479 0.10825488338112324
v -0.16472429582144615 0.16120382833580382 0.079055902700092689
v -0.17292703626260525 0.16573347568021124 0.05617426051906825
v -0.18026955303896905 0.16920126972757293 0.024731350096041861
v -0.18185678434637931 0.17002040405687585 -0.0022885558335476357
v -0.17996147890295328 0.16914504326138285 -0.027451644688130307
v -0.17258852975991745 0.16534588626103597 -0.058194823851937832
v -0.16309728108272914 0.16075003331385473 -0.080215590266415351
v -0.11484385924262078 0.13592781719302977 -0.14076546142883212
v -0.070928080108286565 0.11206800773334361 -0.16952902267102932
v 0.024165031110640237 0.06160229166812782 -0.1823032236207241
v 0.048965808080040404 0.048060618846890571 -0.17844155489383745
v 0.089036940379122645 0.027114232329611535 -0.16316411695543481
v 0.10390963995592067 0.019564681382481269 -0.15331177383485572
v 0.12499210000713923 0.0092076408639138671 -0.13580003495450588
v 0.10605907277201243 0.018631173509607933 0.1516261501786029
v 0.049567525414868079 0.046846334690718888 0.18044038411867785
v 0.020101733302054281 0.061864755468218312 0.18759387698613833
v 0.00048402935402737867 0.074425582270192414 -0.18359651572188507
v 0.14936535641337298 -0.0031314488053956029 -0.10917926193775337
v 0.034894467936823784 0.054183619642657284 0.18479275330254455
v -0.0094231133823887373 0.077340140048145045 0.18911654834580599
v -0.037779964498459911 0.092279061456005937 0.18603113555673539
v -0.083929291054103766 0.11900853707305331 -0.16288764336326841
v -0.10298608565132086 0.1294226718836235 -0.15044606354491871
v -0.15792862122919987 0.15713422935643623 0.09394196629811799
v -0.17697622622710296 0.16750342187995382 -0.042917135353332456
v -0.18175664739507585 0.16989675042956121 0.0071098960742376118
v -0.0075772905626159993 0.078576888917511634 -0.18343698241830531
v -0.030797267949413919 0.090657961637397366 -0.18132647576679817
v -0.058040009000978665 0.10507979936850219 -0.17470397586947606
v 0.19027072405826922 -0.028670477015477723 -0.014057430879350324
v 0.1906476618858311 -0.028821987143932484 0.005732061873583735
v 0.08129819591069834 0.03094044736669431 -0.16729386349954367
v 0.073569116906997842 0.035103751048001779 -0.17096965848811427
v 0.07144884444357287 0.035982367742082043 0.1714301897537992
v 0.096433006792284809 0.023156454730528415 -0.15839165506154218
v 0.092076889745270424 0.025616193744685149 0.16063637864082975
v 0.012632646989466614 0.065735093318416954 0.18842851496333485
v -0.03799771862208845 0.094385406353689583 -0.18006817390514168
v 0.18740276935076694 -0.026907367647755864 0.033487643150671903
v 0.18686165198519217 -0.026549787682057683 -0.035294119717483724
v 0.12683665261639937 0.008138310126353257 0.13444775801976153
v 0.14361547269820799 -0.00025976377976951603 -0.11598111726130295
v 0.1794840166184529 -0.021670787726807597 -0.058052301925341152
v 0.17973296436631736 -0.022160516171016682 0.058960586483590247
v 0.17247360421319413 -0.017148775690141522 -0.073256349840942925
v 0.17233076228109054 -0.017502814858303004 0.075031339219327225
v 0.031951562481304249 0.057435773459298289 -0.18141471481226773
v 0.0084160693792612283 0.070053684090189069 -0.18338175207266025
v 0.056875403708966668 0.043218768758871567 0.17771231438602175
v 0.15950149965052668 -0.0090043101496554492 -0.095115368157905361
v 0.14642622569509267 -0.0021450212945136379 0.11358654301942976
v 0.13149221053685345 0.0059476432868295938 -0.12937686015959843
v 0.11125398882210469 0.016097170877069092 -0.14787135687400899
v 0.11304662004031107 0.015119701450898254 0.14638530695567786
v -0.044874449677065581 0.096099068140434202 0.1844707477126489
v -0.064483631826213444 0.10856637882616252 -0.17229096646212255
v -0.059420504969398331 0.10382072562271236 0.18010902708513188
v -0.1110970432294642 0.13146378730378105 0.15170506178872989
v -0.082015118710775992 0.11597796622552818 0.1703279691812529
v -0.09037657894810705 0.12256160470683383 -0.15906769398559945
v -0.10420098332833044 0.12783517804123223 0.15687383568760799
v -0.096744145350767849 0.12605578060610215 -0.15491450598482798
v -0.10902779841641072 0.13271962594704101 -0.14571968300970814
v -0.12045789230799578 0.13893350272066401 -0.13557439789762893
v -0.13103295471471038 0.14470276175368507 -0.12462175162432174
v -0.15917563584116329 0.15880749899879379 -0.087156036645571117
v -0.17892166944741669 0.16851351143396967 0.03291825691869113
v -0.16983165015407209 0.16392121236796381 -0.065681320781537933
v -0.13608073605125603 0.1473505053805213 -0.11883763163772637
v -0.17496235550530495 0.16655279653673222 -0.050597363237618632
v -0.17721877914122336 0.16767633211286612 0.040802754301782457
v -0.18154732264129597 0.16976108077202073 -0.011907650899328635
v -0.18122439127417703 0.16963136932614381 0.016136764348110542
v -0.18094014966894142 0.16951100382929096 -0.019676460811632997
v -0.15043727924519501 0.1547033222157877 -0.10042604766279561
v -0.15402678872700071 0.15494255640702509 0.10118345308179565
v -0.066868897743340816 0.10781759078317057 0.17728694284577823
v -0.052087846184820749 0.09992330636402659 0.18249988002907369
v -0.089584071614407249 0.12002465125897924 0.16621112163465346
v 0.17622275711290758 -0.019474667462147512 -0.065712971029401976
v -0.12377830888289107 0.13839534746281812 0.14057174262469146
v 0.18903710808731605 -0.027805740084955129 0.024515982684712043
v 0.18845796456198485 -0.027559907231046954 -0.02801389329620705
v -0.12962141766382157 0.14150332000810223 0.13456244301842341
v -0.12586090648794412 0.14179671268250871 -0.13017431038330871
v 0.16843326663776664 -0.014593222496568397 -0.080675106995144519
v 0.16799329088051806 -0.014784046220972348 0.082910152362526537
v -0.14029892163338514 0.14747549182660571 0.12186392069157811
v -0.016603951499238486 0.081070822122172453 0.18876616463926874
v -0.0021199285047753405 0.07359269747295738 0.18920443415159877
v -0.15492350664375851 0.15685950791196546 -0.093904543593246112
v -0.1786423667499939 0.16833790485260947 -0.035193754706238783
v 0.17630704202340566 -0.019918919144735928 0.067074547140610258
v -0.030721635856233442 0.088543703162343612 0.18725350256903237
v -0.14520423928691611 0.15008307947881222 0.11514639923934562
v -0.16148594951621076 0.15923227094453118 0.086559184547195522
v -0.1704309288710481 0.16432944718047077 0.063797594264860438
v 0.18489963676552656 -0.025162753269919222 -0.042774515830854218
v 0.18535563238034911 -0.025618597215409707 0.042208456070107689
v -0.16770307495531905 0.16282093411971832 0.071435496728941617
v -0.16666529888423076 0.16240464958677558 -0.073037264662478646
v -0.17520282935554865 0.16679773636181788 0.048522538900810132
v -0.051513468701136468 0.10163114434926196 -0.17680484066204027
v 0.19075176952805628 -0.028849323454535725 -0.0040576518627277814
v 0.18241560695608453 -0.023547961269450308 -0.050384052376365424
v 0.18280114925853255 -0.02402696435361406 0.050691513027506643
v 0.18960226457233678 -0.028260211663584826 -0.020942320296865619
v 0.19006550659514254 -0.028486934885123185 0.015261912874880821
v 0.027531517434210971 0.058007359045086013 0.18639265793213278
v 0.042273880124185273 0.05053410099676002 0.18283165816987751
v 0.040526654907478497 0.052761044948882299 -0.18010616248534611
v 0.016332512777604564 0.06581147982899635 -0.18296159909767468
v 0.0052185032305385078 0.069671555270399158 0.18896271806219092
v 0.057295194615745643 0.043516472174404956 -0.17641070633449357
v 0.0642144980727999 0.039650227763860332 0.17471088684073632
v 0.065485248049202277 0.03917518698027992 -0.17393310856608629
v 0.1641521389727526 -0.011827929915155602 -0.087969284012141186
v 0.1632571049458541 -0.011825118750206094 0.090729383063950259
v -0.023265423285282243 0.086832594689024628 -0.18234492814000236
v -0.02365939368512255 0.084856697517825388 0.18817003139386423
v -0.044872269699628167 0.09805458122928809 -0.17857493379666878
v 0.15451490324209044 -0.0061495257956635935 -0.10215565912328048
v 0.158025581972638 -0.0087414069106447889 0.09845831508431252
v 0.15248488390305071 -0.0054294393958816663 0.1061262951823809
v -0.07742309906818845 0.11552917426788087 -0.166386853245303
v -0.015543862782843068 0.082697809660718297 -0.18300780678686057
v 0.1200204643373422 0.01165968130346893 0.14066663207657848
v 0.11816556184267295 0.01251529362318653 -0.14194211142226243
v 0.078331830760112783 0.032558613257397367 0.16811821895324272
v 0.098991003449927506 0.022059087450085287 0.15632278001787409
v 0.14009223597206844 0.0012283259962743843 0.12084217095927251
v -0.14099824358959367 0.14988103234980876 -0.11286974530106453
v 0.13772383056864823 0.0028162126265824728 -0.12276182381737794
v -0.14578544118521597 0.15234858349654112 -0.10673737890600754
v 0.085202921851442598 0.029129748294941814 0.16454819365393764
v 0.13352905374514862 0.0046474029802010238 0.12781213114458995
v 0.079103992354468883 0.069971994369217583 0.14770109190288783
v 0.08209596665107835 0.087263360063453255 0.14364438800508214
v 0.081398643541709947 0.13999378785439412 0.13344566011675868
v 0.052166799212341131 0.26214117977838891 0.099324052684353195
v 0.043079095652074906 0.28284207159003372 0.089460059140492348
v 0.025570314994144 0.31601273400824748 0.066628912948984487
v 0.019379307690460298 0.32680739696018901 0.055274610098006674
v 0.014547208069257671 0.33564415096013162 0.042927835868615268
v 0.010726904743547063 0.34536502074137471 0.022021906818608886
v 0.010173087182002775 0.34722985757922675 0.014069702220264487
v 0.0098062544038932768 0.34831954676029087 0.0056928191488211715
v 0.011575389685199253 0.34275512549446607 0.029467393042073506
v 0.048510720617976649 0.12579495671611751 -0.15184547062018183
v 0.046112336770263627 0.10892072644125739 -0.15573681466171041
v 0.042453588524061447 0.092586271976497186 -0.15931300626535902
v 0.05024883828632265 0.1592933410715866 -0.14343801553308388
v 0.039301591732456814 0.24517180185229898 -0.11489187319798447
v 0.045040396154270204 0.21363104534753263 -0.12722656660765658
v 0.035794354981530788 0.26800837603088457 -0.10297189849114421
v 0.023855678083660077 0.31633454001044448 -0.067022207798069722
v 0.01334463654307878 0.33646854758136346 -0.041796791633446378
v 0.018226003719970501 0.32731254259676512 -0.055016261342845763
v 0.0098426795423865177 0.34634768404485827 -0.019370941822348033
v 0.0096059304622779663 0.34798342198877996 -0.01122632800707039
v 0.0096113036765749522 0.34855437185341515 -0.0029627937631076179
v 0.010477626415395538 0.34379733930745848 -0.027237413592508815
v 0.071967306483920898 0.032945357694203647 0.17815055988048012
v 0.033590434224188434 0.065170217761649343 -0.16969797591914676
v 0.035419614961776077 0.070878003862408598 -0.16538561270303401
v 0.072532791602577654 0.04655471464269885 0.15778546530328791
v -0.0032214332484762796 -0.11628308116388236 0.16141551215706149
v -0.012178136490354723 -0.22270430956045062 0.13101567036889913
v -0.0094397219890299117 -0.25683435951855327 0.11565591516444854
v -0.0082654815516125645 -0.2734267675088361 0.10624944165070396
v -0.0072253553328288679 -0.28936533071971998 0.095376935947199065
v -0.0046885397008493987 -0.31799323499451149 0.070150080006316867
v -0.0060098220649274156 -0.30432074910457257 0.083305417787957595
v -0.0039166403058530988 -0.32964357547920631 0.055337859953769872
v -0.0039387295506871246 -0.33465998917201267 0.047311267918929784
v -0.00514732853330828 -0.34639092863251719 0.020659844772486759
v -0.0053114506215255989 -0.34832145342228854 0.010586841861932594
v -0.0050817533265896907 -0.3490935382146968 -9.9242034093875072e-06
v -0.0047201754451095604 -0.34336255065597399 0.030133460172050416
v -0.022672891030685219 -0.1251161778424964 -0.1579853400353386
v -0.019546816082686474 -0.10775470195146553 -0.16142158351821451
v -0.024939739696089556 -0.14444913655000119 -0.15367698150551584
v -0.026537562967364332 -0.1644356843981829 -0.14836953770626041
v -0.027996707695084569 -0.19196406699340957 -0.13989255172176898
v -0.027610252214847978 -0.22301339234303608 -0.12841770872401839
v -0.023961683230596081 -0.25397008259545628 -0.11467792434839183
v -0.020923972397062882 -0.27045074829885118 -0.10590822394179131
v -0.016702934163796104 -0.28698182026384611 -0.09543893331609235
v -0.0065565262616515936 -0.31723665723030892 -0.070660034462216775
v -0.011577335359453263 -0.30294805932474844 -0.083752775762971493
v -0.0020245082514846698 -0.33408378689783635 -0.048422726959179818
v -0.0029744382299214164 -0.32912288624304809 -0.056147119929286296
v -0.0027419421592902722 -0.34548404884220629 -0.024256693633215271
v -0.0036921592115666197 -0.34768117485814237 -0.016009295816725208
v -0.0045532006523903157 -0.34882246499374869 -0.0078633514710209317
v -0.0020067069416256898 -0.34246024834006239 -0.032494123739143094
v -0.010445736260710469 -0.077447093878917322 -0.17159320610907047
v 0.078618620086131796 0.15710035641918701 0.13026585919851402
v 0.071835880630204574 0.18995952197909299 0.12326648818307778
v 0.064769788346895368 0.22047531096747974 0.11477292769464617
v 0.019006716159135087 -0.0032700513502449064 -0.25007957407649317
v 0.024205464407127373 0.010882615528840045 -0.246571088955159
v 0.0060047541094333566 -0.029718666518162701 -0.24584877797345694
v -0.0057591900138240885 -0.12366639805419063 0.15985123532538503
v 3.5673822115946766e-05 -0.041757238833701402 -0.23812504187545444
v 0.015968474951612896 -0.010194947845719175 -0.25056880281590621
v 0.0093107433242612322 -0.023466924253127984 -0.24851749938041723
v 0.021775333098805347 0.0038097534668816669 -0.24890622993608658
v 0.027397690488951947 -0.069486823136155645 0.2230855529270806
v 0.026407002744460874 0.017891238793097591 -0.24351578474872199
v 0.0028363866621498946 -0.035922595778088949 -0.24258779647711043
v -0.0024329348237009884 -0.047404502558992347 -0.2329372107577567
v 0.049368444129204755 0.26890987524225962 0.096202744679048727
v 0.046402095079746068 0.20556241540365658 -0.12971796077016573
v -0.007794241483373824 -0.066135817012379361 -0.19515467653459634
v 0.032226927746172827 0.28996350470470356 -0.088586557774414182
v 0.049912719456424288 0.17484551256695682 -0.13879817024013155
v 0.042053373597691304 0.22953257896743098 -0.12138954788014442
v -0.028202372919450058 -0.20793730482496089 -0.13420454307825208
v 0.015621175663630915 -0.081638086047235367 0.18574349969964452
v 0.049780955328456819 0.1425386389354481 -0.14781173679765588
v -0.006642439493070848 -0.29693744641316538 0.089416108052656845
v -0.026158460057172858 -0.23816734333255085 -0.12203793937569385
v 0.07144884444357287 0.035982367742082043 0.1714301897537992
v -0.012739680411176723 -0.21413946493588365 0.13434030831423016
v 0.026400474549426369 0.31008761571661214 -0.072548076857314861
v 0.028906476555950633 0.30979749073387958 0.071757771127273579
v 0.047455158952647798 0.11733990044501857 -0.15376971982323656
v -0.010830200591552489 -0.23987138446954875 0.12376024220438647
v 0.036875894171869941 0.26044824500975194 -0.10721331638048831
v 0.0057942111962565081 -0.096199893849795604 0.16520214803311134
v -0.015271503798013848 -0.091910583728421785 -0.1645517297049213
v -0.023891455690109586 -0.13457396767382956 -0.15591170261851894
v 0.0026134437713008296 -0.10257656842880331 0.16367484873558363
v 0.074567988024679399 0.053845921472439502 0.15331797979745282
v 0.04633960232108629 0.27582947796741408 0.092952418088223493
v -0.022566755063108006 -0.26214354102568865 -0.11047976475175644
v 0.039565735128198547 0.28975440459364166 0.085510917639872092
v 0.034703742843034353 0.27544801321896739 -0.098396490613502252
v -0.0088136108074881002 -0.26515016863557084 0.11106749857777953
v 0.021024926821725465 0.32195868940731664 -0.061085968817046948
v 0.022324345440022122 0.32157324631835171 0.0610211020104688
v -0.018950402807093161 -0.27870401063555861 -0.10079693965637551
v -0.013397886493172166 -0.17562532736372385 0.14714534126930751
v 0.031951562481304249 0.057435773459298289 -0.18141471481226773
v 0.080133250803704675 0.14852660100361748 0.13187788922293114
v 0.080847235511436438 0.078502051938870207 0.14558726568291347
v 0.082992509392384436 0.12277799715602794 0.1366079843499477
v -0.014194545662048759 -0.29505976440065801 -0.089699597211368082
v -0.0077390472188124089 -0.28144356870900589 0.10090317357089057
v 0.044432960590194318 0.100624128708247 -0.15756944574573523
v -0.021233198560370519 -0.11617284629429103 -0.15977499086980174
v -0.013396705248416452 -0.19967663330362226 0.13959915568973871
v 0.082857428753609408 0.096161620761659683 0.14174985300839721
v -0.025806433442787421 -0.15447747752994373 -0.15109744241238693
v 0.015570624291557521 0.33200184265901483 -0.048498782744626975
v 0.016751311157899507 0.33144967534365222 0.049213767672595332
v -0.011254557758875215 -0.14874995667089708 0.15428709469818672
v -0.027129233518435058 -0.17406639409420779 -0.14546476624753468
v -0.013547191389836233 -0.19208079116081744 0.14209541438463796
v 0.049468238395194652 0.18219430969761463 -0.13676698295743181
v 0.012684046370725715 -0.016930305566544193 -0.24981915830225337
v 0.071553827138375492 0.040603661932842011 0.16411772893608018
v 0.059948719146767908 -0.023992246355521593 0.24381711446948584
v 0.052599122219303372 -0.036717675234576266 0.24428706509830753
v 0.076938409024256998 0.061730060472442221 0.15016292718076352
v -0.028193846746579911 -0.20014113521364282 -0.13706079135942928
v 0.048641293006570496 -0.042842003220342026 0.24307253583130956
v -0.00040854385439349262 -0.10927347117207473 0.16259277335612032
v 0.041395933126652407 -0.052919395726624033 0.23914330295545336
v 0.075265966327892841 0.019169812030356372 0.21048547678958351
v -0.0079757618080594818 -0.13156167599876453 0.15820406272449833
v 0.033986519998178463 -0.06193929866049433 0.23242839602835036
v 0.028249410593013204 0.024447974108701566 -0.23928504470199086
v 0.066431627293389639 -0.011175946091276763 0.23974291979554102
v -0.0089494858976760065 -0.31024526248774031 -0.077269364628979986
v -0.0053248180532734822 -0.3113098050128883 0.076845038205339514
v -0.0043512390013971409 -0.052386740788216798 -0.22663450745704486
v -0.0068064626719326884 -0.06043744550251786 -0.21183522069311389
v 0.0089594273756452326 -0.090514492021768894 0.16825968208018716
v 0.056389103065490012 -0.030416318617778257 0.24462224505751654
v 0.068482894018373999 0.20548413252267428 0.11939896282723639
v 0.063370182532196506 -0.01752777766454125 0.24237620499450369
v 0.031890736604854114 0.054677769060296658 -0.18835064670828261
v 0.01719577903329176 -0.080184281690696954 0.1923080253285836
v 0.040210905971266322 0.084901594789841134 -0.16098791670630169
v 0.031066073155602128 0.035833490273926225 -0.22861755429520858
v 0.037798450994386001 0.077631854607695866 -0.16282338810478314
v -0.01275591491819732 -0.084290311245855815 -0.16698026334778521
v 0.032507274685711754 0.047327774700980207 -0.20907390733181896
v 0.024633992765313931 -0.07266035348219943 0.21762754624186478
v 0.037635334117206529 -0.057679658000471992 0.23628328074623173
v 0.069284354019824079 -0.0049124948632282726 0.23660154418789997
v 0.032079733776029976 0.052288880619789674 -0.19528535138117215
v -0.0045014819262071924 -0.32334553392511245 -0.063447050552606993
v -0.0041698032999319765 -0.32391354608938783 0.062819333279969108
v 0.056915169392300471 0.24862933575215385 0.10490549561146859
v 0.029884159989654845 0.030585105604094623 -0.23441868057205734
v 0.073352347083393526 0.0063362416139126857 0.22757464660724319
v 0.030474970144409346 -0.066065840860172226 0.22821290534596009
v 0.074947124619527947 0.02239440492757664 0.20428846272052562
v 0.038020288621267856 0.25281016610296031 -0.11113910329374627
v 0.061085403207880168 0.23495723790105652 0.11017756317437494
v -0.0058960995432343058 -0.05694036636470471 -0.21967755552252394
v 0.032032976490993958 0.040567829923275331 -0.22253035919521519
v 0.07525866669883205 0.015574564531310252 0.2165668942170115
v 0.011612125735340456 0.3402836303971406 -0.034642702549002036
v 0.012837420823845508 0.33952292918080462 0.036428917932504717
v 0.074517966218023188 0.011151094356401478 0.22217828224342939
v 0.070161702051768374 0.19773252597632374 0.12136375178226463
v 0.033562702648863241 0.28280774752403715 -0.093627728258219856
v 0.018736768063008152 -0.078794052386608762 0.1988691713234878
v -0.0074305124653551904 -0.063496280409687078 -0.20362825650524435
v 0.074331039220172868 0.025223330426660411 0.19793908818186179
v 0.020423868274543917 -0.077149504732819979 0.20532844988676993
v 0.076962949835952393 0.16579624597063719 0.12863472834616957
v 0.073526994986669508 0.027774027447718418 0.19144743196438502
v 0.062943073160676488 0.22779866754216299 0.112498346850134
v 0.073539225314176671 0.18225209239411905 0.12515151836131672
v 0.032336796332735007 0.049922943335443601 -0.20219384729214035
v 0.083321800892649719 0.11401110952772006 0.13831619480569185
v 0.082357155863499149 0.13143034321357486 0.13500481161164976
v -0.017565133520738047 -0.099725934040261435 -0.16295228521623439
v 0.047642743292898547 0.19758158485557387 -0.13213432398259822
v 0.066630229079065698 0.21303974045445581 0.11710077658516757
v 0.05466949620782563 0.25539910904146601 0.10221361044493471
v 0.072716362888626151 0.030308959936232172 0.1848515622489133
v 0.030651119259432914 0.29697525030134364 -0.083440258035506226
v 0.03600552508949792 0.29666517026450145 0.081304930810115861
v 0.050131513110143452 0.16781013804678652 -0.14080834088497268
v 0.040652161328687493 0.23741598320993187 -0.11830066533999523
v 0.043540380874291816 0.22160715892249366 -0.12437778826195001
v -0.0042497323816910754 -0.33932489284454032 0.03896878274054965
v 0.071522322935184277 0.00087604045752487261 0.23231272987860269
v 0.075200536063461804 0.17464637631705615 0.12690723400411122
v -0.02801439480070245 -0.21555018802731452 -0.13134504982969369
v 0.048695908785668623 0.18978031941341739 -0.13451658598270821
v 0.049276365464606876 0.13420011736833412 -0.14987942935515716
v 0.083274009360477408 0.10511575719945371 0.14001623320124912
v 0.050077139399490565 0.15086116022242485 -0.1456221738074264
v -0.0081630341728887237 -0.068847907561333271 -0.18665973042891987
v -0.027631340697002349 -0.18328150566233692 -0.14268980700983239
v 0.032390643267952948 0.044188001105263337 -0.21584450532790372
v -0.0098119659373954778 -0.1399445081526432 0.15630670609209218
v 0.059041252630500002 0.24184333476858724 0.10756445226827011
v -0.0017199903163318299 -0.33862118373615679 -0.040571750188791306
v -0.026969247651830487 -0.23050139801947328 -0.12525791257535629
v -0.02517117016651901 -0.24601923367418094 -0.11860458816577595
v 0.022365669992745169 -0.075114254909013065 0.21160639090228239
v -0.011528443525754984 -0.2312894266750638 0.12745767246307266
v -0.0088688055340880728 -0.072273494032170441 -0.17848728615718745
v 0.011720181913471329 -0.086200786359014514 0.17317873308619952
v 0.03245177525217232 0.06072965568803082 -0.17525007091692515
v -0.012301518904104098 -0.1577727691061003 0.15203037330540931
v 0.045083533406492432 -0.048006892074664062 0.24151320897058751
v -0.010128177969403296 -0.24843761459133756 0.11993998693120585
v 0.032429503794934596 0.30337884052804109 0.07671446109444377
v 0.028715096944444993 0.30370069158989976 -0.078092365394011057
v 0.013888279377603074 -0.083424583447119866 0.17925172782207038
v -0.013561229660959392 -0.18407327821854719 0.14461290884458614
v -0.013125280579049175 -0.20696555917303489 0.13703735613256723
v -0.012992038876079966 -0.16679017399375462 0.1495825419116949
l 70/70 25/25
l 25/25 69/69
l 69/69 174/174
l 174/174 177/177
l 177/177 24/24
l 24/24 65/65
l 65/65 176/176
l 176/176 175/175
l 175/175 67/67
l 67/67 43/43
l 43/43 75/75
l 75/75 167/167
l 167/167 73/73
l 73/73 39/39
l 39/39 178/178
l 178/178 169/169
l 169/169 79/79
l 79/79 27/27
l 27/27 72/72
l 72/72 170/170
l 170/170 179/179
l 179/179 29/29
l 29/29 78/78
l 78/78 23/23
l 23/23 88/88
l 88/88 91/91
l 91/91 86/86
l 86/86 181/181
l 181/181 32/32
l 32/32 94/94
l 94/94 183/183
l 183/183 173/173
l 173/173 95/95
l 95/95 55/55
l 55/55 136/136
l 136/136 1/1
l 1/1 100/100
l 100/100 101/101
l 101/101 139/139
l 139/139 168/168
l 168/168 106/106
l 106/106 102/102
l 102/102 186/186
l 186/186 172/172
l 172/172 107/107
l 107/107 60/60
l 60/60 146/146
l 146/146 166/166
l 166/166 151/151
l 151/151 62/62
l 62/62 108/108
l 108/108 2/2
l 2/2 150/150
l 150/150 61/61
l 61/61 149/149
l 149/149 3/3
l 3/3 147/147
l 147/147 59/59
l 59/59 148/148
l 148/148 4/4
l 4/4 143/143
l 143/143 109/109
l 109/109 142/142
l 142/142 5/5
l 5/5 140/140
l 140/140 57/57
l 57/57 182/182
l 182/182 6/6
l 6/6 135/135
l 135/135 33/33
l 33/33 97/97
l 97/97 7/7
l 7/7 31/31
l 31/31 90/90
l 90/90 165/165
l 165/165 92/92
l 92/92 87/87
l 87/87 132/132
l 132/132 22/22
l 22/22 85/85
l 85/85 84/84
l 84/84 171/171
l 171/171 80/80
l 80/80 50/50
l 50/50 125/125
l 125/125 21/21
l 21/21 121/121
l 121/121 77/77
l 77/77 122/122
l 122/122 20/20
l 20/20 74/74
l 74/74 42/42
l 42/42 66/66
l 66/66 19/19
l 19/19 68/68
l 68/68 37/37
l 37/37 71/71
l 71/71 18/18
l 18/18 110/110
l 110/110 38/38
l 38/38 111/111
l 111/111 17/17
l 17/17 113/113
l 113/113 41/41
l 41/41 114/114
l 114/114 16/16
l 16/16 119/119
l 119/119 26/26
l 26/26 117/117
l 117/117 164/164
l 164/164 129/129
l 129/129 52/52
l 52/52 127/127
l 127/127 81/81
l 81/81 28/28
l 28/28 103/103
l 103/103 163/163
l 163/163 93/93
l 93/93 35/35
l 35/35 98/98
l 98/98 162/162
l 162/162 99/99
l 99/99 36/36
l 36/36 82/82
l 82/82 161/161
l 161/161 96/96
l 96/96 34/34
l 34/34 190/190
l 190/190 157/157
l 157/157 184/184
l 184/184 46/46
l 46/46 189/189
l 189/189 159/159
l 159/159 153/153
l 153/153 47/47
l 47/47 123/123
l 123/123 156/156
l 156/156 185/185
l 185/185 63/63
l 63/63 188/188
l 188/188 154/154
l 154/154 124/124
l 124/124 49/49
l 49/49 105/105
l 105/105 160/160
l 160/160 104/104
l 104/104 48/48
l 48/48 187/187
l 187/187 155/155
l 155/155 152/152
l 152/152 51/51
l 51/51 126/126
l 126/126 144/144
l 144/144 58/58
l 58/58 145/145
l 145/145 15/15
l 15/15 141/141
l 141/141 45/45
l 45/45 112/112
l 112/112 158/158
l 158/158 137/137
l 137/137 56/56
l 56/56 138/138
l 138/138 14/14
l 14/14 134/134
l 134/134 54/54
l 54/54 133/133
l 133/133 13/13
l 13/13 89/89
l 89/89 53/53
l 53/53 131/131
l 131/131 12/12
l 12/12 180/180
l 180/180 30/30
l 30/30 130/130
l 130/130 11/11
l 11/11 83/83
l 83/83 76/76
l 76/76 128/128
l 128/128 10/10
l 10/10 118/118
l 118/118 44/44
l 44/44 120/120
l 120/120 9/9
l 9/9 115/115
l 115/115 40/40
l 40/40 116/116
l 116/116 8/8
l 8/8 64/64
l 64/64 70/70
l 226/226 197/197
l 197/197 228/228
l 228/228 303/303
l 303/303 302/302
l 302/302 301/301
l 301/301 299/299
l 299/299 227/227
l 227/227 258/258
l 258/258 294/294
l 294/294 306/306
l 306/306 291/291
l 291/291 224/224
l 224/224 286/286
l 286/286 221/221
l 221/221 249/249
l 249/249 282/282
l 282/282 219/219
l 219/219 248/248
l 248/248 217/217
l 217/217 243/243
l 243/243 215/215
l 215/215 240/240
l 240/240 275/275
l 275/275 255/255
l 255/255 191/191
l 191/191 246/246
l 246/246 274/274
l 274/274 234/234
l 234/234 211/211
l 211/211 230/230
l 230/230 209/209
l 209/209 192/192
l 192/192 242/242
l 242/242 260/260
l 260/260 304/304
l 304/304 207/207
l 207/207 225/225
l 225/225 295/295
l 295/295 289/289
l 289/289 194/194
l 194/194 300/300
l 300/300 193/193
l 193/193 284/284
l 284/284 279/279
l 279/279 205/205
l 205/205 213/213
l 213/213 273/273
l 273/273 272/272
l 272/272 235/235
l 235/235 296/296
l 296/296 268/268
l 268/268 233/233
l 233/233 292/292
l 292/292 195/195
l 195/195 231/231
l 231/231 259/259
l 259/259 265/265
l 265/265 237/237
l 237/237 251/251
l 251/251 262/262
l 262/262 204/204
l 204/204 261/261
l 261/261 280/280
l 280/280 263/263
l 263/263 250/250
l 250/250 236/236
l 236/236 305/305
l 305/305 285/285
l 285/285 232/232
l 232/232 210/210
l 210/210 202/202
l 202/202 212/212
l 212/212 203/203
l 203/203 269/269
l 269/269 271/271
l 271/271 278/278
l 278/278 277/277
l 277/277 266/266
l 266/266 297/297
l 297/297 201/201
l 201/201 264/264
l 264/264 283/283
l 283/283 288/288
l 288/288 222/222
l 222/222 206/206
l 206/206 298/298
l 298/298 254/254
l 254/254 252/252
l 252/252 200/200
l 200/200 241/241
l 241/241 199/199
l 199/199 208/208
l 208/208 229/229
l 229/229 267/267
l 267/267 238/238
l 238/238 196/196
l 196/196 245/245
l 245/245 198/198
l 198/198 256/256
l 256/256 276/276
l 276/276 239/239
l 239/239 214/214
l 214/214 244/244
l 244/244 216/216
l 216/216 247/247
l 247/247 218/218
l 218/218 281/281
l 281/281 287/287
l 287/287 220/220
l 220/220 253/253
l 253/253 223/223
l 223/223 290/290
l 290/290 270/270
l 270/270 293/293
l 293/293 257/257
l 257/257 226/226
l 342/342 331/331
l 331/331 344/344
l 344/344 333/333
l 333/333 401/401
l 401/401 405/405
l 405/405 326/326
l 326/326 381/381
l 381/381 325/325
l 325/325 376/376
l 376/376 409/409
l 409/409 335/335
l 335/335 346/346
l 346/346 371/371
l 371/371 337/337
l 337/337 388/388
l 388/388 366/366
l 366/366 317/317
l 317/317 340/340
l 340/340 393/393
l 393/393 399/399
l 399/399 364/364
l 364/364 324/324
l 324/324 368/368
l 368/368 323/323
l 323/323 372/372
l 372/372 322/322
l 322/322 379/379
l 379/379 321/321
l 321/321 410/410
l 410/410 406/406
l 406/406 320/320
l 320/320 390/390
l 390/390 319/319
l 319/319 392/392
l 392/392 402/402
l 402/402 395/395
l 395/395 318/318
l 318/318 397/397
l 397/397 308/308
l 308/308 348/348
l 348/348 307/307
l 307/307 396/396
l 396/396 309/309
l 309/309 391/391
l 391/391 310/310
l 310/310 389/389
l 389/389 311/311
l 311/311 385/385
l 385/385 312/312
l 312/312 380/380
l 380/380 313/313
l 313/313 373/373
l 373/373 314/314
l 314/314 369/369
l 369/369 315/315
l 315/315 363/363
l 363/363 400/400
l 400/400 394/394
l 394/394 339/339
l 339/339 349/349
l 349/349 365/365
l 365/365 387/387
l 387/387 336/336
l 336/336 370/370
l 370/370 347/347
l 347/347 334/334
l 334/334 345/345
l 345/345 407/407
l 407/407 316/316
l 316/316 382/382
l 382/382 367/367
l 367/367 404/404
l 404/404 362/362
l 362/362 332/332
l 332/332 343/343
l 343/343 359/359
l 359/359 398/398
l 398/398 358/358
l 358/358 329/329
l 329/329 355/355
l 355/355 386/386
l 386/386 354/354
l 354/354 408/408
l 408/408 384/384
l 384/384 350/350
l 350/350 378/378
l 378/378 353/353
l 353/353 375/375
l 375/375 357/357
l 357/357 361/361
l 361/361 360/360
l 360/360 356/356
l 356/356 374/374
l 374/374 403/403
l 403/403 352/352
l 352/352 377/377
l 377/377 351/351
l 351/351 383/383
l 383/383 327/327
l 327/327 338/338
l 338/338 328/328
l 328/328 341/341
l 341/341 330/330
l 330/330 342/342
l 607/607 619/619
l 619/619 499/499
l 499/499 516/516
l 516/516 498/498
l 498/498 509/509
l 509/509 491/491
l 491/491 503/503
l 503/503 485/485
l 485/485 496/496
l 496/496 482/482
l 482/482 493/493
l 493/493 481/481
l 481/481 478/478
l 478/478 487/487
l 487/487 479/479
l 479/479 488/488
l 488/488 480/480
l 480/480 494/494
l 494/494 483/483
l 483/483 497/497
l 497/497 486/486
l 486/486 502/502
l 502/502 594/594
l 594/594 611/611
l 611/611 620/620
l 620/620 518/518
l 518/518 537/537
l 537/537 539/539
l 539/539 547/547
l 547/547 553/553
l 553/553 513/513
l 513/513 560/560
l 560/560 508/508
l 508/508 565/565
l 565/565 520/520
l 520/520 571/571
l 571/571 608/608
l 608/608 414/414
l 414/414 415/415
l 415/415 606/606
l 606/606 416/416
l 416/416 550/550
l 550/550 417/417
l 417/417 561/561
l 561/561 573/573
l 573/573 599/599
l 599/599 426/426
l 426/426 427/427
l 427/427 610/610
l 610/610 428/428
l 428/428 630/630
l 630/630 433/433
l 433/433 430/430
l 430/430 429/429
l 429/429 635/635
l 635/635 421/421
l 421/421 431/431
l 431/431 432/432
l 432/432 422/422
l 422/422 420/420
l 420/420 551/551
l 551/551 543/543
l 543/543 419/419
l 419/419 517/517
l 517/517 418/418
l 418/418 616/616
l 616/616 504/504
l 504/504 602/602
l 602/602 583/583
l 583/583 492/492
l 492/492 582/582
l 582/582 622/622
l 622/622 576/576
l 576/576 501/501
l 501/501 575/575
l 575/575 425/425
l 425/425 581/581
l 581/581 490/490
l 490/490 580/580
l 580/580 424/424
l 424/424 559/559
l 559/559 475/475
l 475/475 540/540
l 540/540 556/556
l 556/556 549/549
l 549/549 473/473
l 473/473 535/535
l 535/535 546/546
l 546/546 555/555
l 555/555 470/470
l 470/470 536/536
l 536/536 423/423
l 423/423 569/569
l 569/569 484/484
l 484/484 544/544
l 544/544 530/530
l 530/530 613/613
l 613/613 476/476
l 476/476 564/564
l 564/564 577/577
l 577/577 495/495
l 495/495 521/521
l 521/521 510/510
l 510/510 525/525
l 525/525 639/639
l 639/639 511/511
l 511/511 528/528
l 528/528 514/514
l 514/514 527/527
l 527/527 507/507
l 507/507 523/523
l 523/523 625/625
l 625/625 519/519
l 519/519 601/601
l 601/601 600/600
l 600/600 609/609
l 609/609 598/598
l 598/598 595/595
l 595/595 615/615
l 615/615 572/572
l 572/572 566/566
l 566/566 413/413
l 413/413 578/578
l 578/578 412/412
l 412/412 588/588
l 588/588 590/590
l 590/590 411/411
l 411/411 591/591
l 591/591 434/434
l 434/434 589/589
l 589/589 435/435
l 435/435 579/579
l 579/579 436/436
l 436/436 597/597
l 597/597 437/437
l 437/437 438/438
l 438/438 621/621
l 621/621 439/439
l 439/439 466/466
l 466/466 467/467
l 467/467 468/468
l 468/468 469/469
l 469/469 453/453
l 453/453 627/627
l 627/627 558/558
l 558/558 452/452
l 452/452 624/624
l 624/624 454/454
l 454/454 574/574
l 574/574 455/455
l 455/455 605/605
l 605/605 456/456
l 456/456 603/603
l 603/603 457/457
l 457/457 604/604
l 604/604 541/541
l 541/541 458/458
l 458/458 554/554
l 554/554 570/570
l 570/570 460/460
l 460/460 592/592
l 592/592 459/459
l 459/459 462/462
l 462/462 631/631
l 631/631 461/461
l 461/461 629/629
l 629/629 465/465
l 465/465 463/463
l 463/463 464/464
l 464/464 636/636
l 636/636 637/637
l 637/637 449/449
l 449/449 450/450
l 450/450 451/451
l 451/451 617/617
l 617/617 448/448
l 448/448 542/542
l 542/542 447/447
l 447/447 522/522
l 522/522 446/446
l 446/446 633/633
l 633/633 505/505
l 505/505 632/632
l 632/632 584/584
l 584/584 593/593
l 593/593 585/585
l 585/585 445/445
l 445/445 586/586
l 586/586 500/500
l 500/500 612/612
l 612/612 444/444
l 444/444 623/623
l 623/623 489/489
l 489/489 596/596
l 596/596 443/443
l 443/443 545/545
l 545/545 474/474
l 474/474 638/638
l 638/638 557/557
l 557/557 442/442
l 442/442 548/548
l 548/548 472/472
l 472/472 634/634
l 634/634 533/533
l 533/533 441/441
l 441/441 552/552
l 552/552 538/538
l 538/538 534/534
l 534/534 562/562
l 562/562 567/567
l 567/567 471/471
l 471/471 568/568
l 568/568 531/531
l 531/531 563/563
l 563/563 477/477
l 477/477 614/614
l 614/614 587/587
l 587/587 532/532
l 532/532 440/440
l 440/440 628/628
l 628/628 618/618
l 618/618 640/640
l 640/640 512/512
l 512/512 529/529
l 529/529 515/515
l 515/515 526/526
l 526/526 506/506
l 506/506 524/524
l 524/524 626/626
l 626/626 607/607
l 651/651 714/714
l 714/714 747/747
l 747/747 652/652
l 652/652 712/712
l 712/712 737/737
l 737/737 721/721
l 721/721 780/780
l 780/780 778/778
l 778/778 715/715
l 715/715 711/711
l 711/711 731/731
l 731/731 710/710
l 710/710 653/653
l 653/653 709/709
l 709/709 669/669
l 669/669 708/708
l 708/708 706/706
l 706/706 668/668
l 668/668 771/771
l 771/771 654/654
l 654/654 702/702
l 702/702 675/675
l 675/675 749/749
l 749/749 767/767
l 767/767 684/684
l 684/684 674/674
l 674/674 765/765
l 765/765 772/772
l 772/772 673/673
l 673/673 663/663
l 663/663 694/694
l 694/694 758/758
l 758/758 655/655
l 655/655 693/693
l 693/693 757/757
l 757/757 656/656
l 656/656 760/760
l 760/760 762/762
l 762/762 679/679
l 679/679 678/678
l 678/678 657/657
l 657/657 681/681
l 681/681 658/658
l 658/658 699/699
l 699/699 774/774
l 774/774 659/659
l 659/659 698/698
l 698/698 779/779
l 779/779 688/688
l 688/688 664/664
l 664/664 768/768
l 768/768 696/696
l 696/696 763/763
l 763/763 732/732
l 732/732 691/691
l 691/691 726/726
l 726/726 689/689
l 689/689 751/751
l 751/751 744/744
l 744/744 686/686
l 686/686 729/729
l 729/729 753/753
l 753/753 676/676
l 676/676 750/750
l 750/750 677/677
l 677/677 754/754
l 754/754 728/728
l 728/728 685/685
l 685/685 745/745
l 745/745 752/752
l 752/752 690/690
l 690/690 739/739
l 739/739 692/692
l 692/692 733/733
l 733/733 764/764
l 764/764 769/769
l 769/769 770/770
l 770/770 697/697
l 697/697 777/777
l 777/777 782/782
l 782/782 687/687
l 687/687 773/773
l 773/773 700/700
l 700/700 660/660
l 660/660 776/776
l 776/776 682/682
l 682/682 781/781
l 781/781 775/775
l 775/775 680/680
l 680/680 761/761
l 761/761 695/695
l 695/695 661/661
l 661/661 756/756
l 756/756 665/665
l 665/665 755/755
l 755/755 662/662
l 662/662 683/683
l 683/683 759/759
l 759/759 736/736
l 736/736 666/666
l 666/666 735/735
l 735/735 766/766
l 766/766 740/740
l 740/740 667/667
l 667/667 701/701
l 701/701 724/724
l 724/724 703/703
l 703/703 723/723
l 723/723 641/641
l 641/641 705/705
l 705/705 725/725
l 725/725 642/642
l 642/642 707/707
l 707/707 704/704
l 704/704 643/643
l 643/643 727/727
l 727/727 730/730
l 730/730 644/644
l 644/644 734/734
l 734/734 741/741
l 741/741 645/645
l 645/645 722/722
l 722/722 670/670
l 670/670 742/742
l 742/742 646/646
l 646/646 746/746
l 746/746 743/743
l 743/743 647/647
l 647/647 748/748
l 748/748 717/717
l 717/717 713/713
l 713/713 648/648
l 648/648 719/719
l 719/719 672/672
l 672/672 649/649
l 649/649 718/718
l 718/718 720/720
l 720/720 650/650
l 650/650 738/738
l 738/738 671/671
l 671/671 716/716
l 716/716 651/651
l 931/931 866/866
l 866/866 1005/1005
l 1005/1005 998/998
l 998/998 926/926
l 926/926 877/877
l 877/877 880/880
l 880/880 915/915
l 915/915 813/813
l 813/813 850/850
l 850/850 918/918
l 918/918 990/990
l 990/990 904/904
l 904/904 1000/1000
l 1000/1000 1008/1008
l 1008/1008 890/890
l 890/890 1006/1006
l 1006/1006 906/906
l 906/906 899/899
l 899/899 1007/1007
l 1007/1007 871/871
l 871/871 814/814
l 814/814 996/996
l 996/996 875/875
l 875/875 1002/1002
l 1002/1002 815/815
l 815/815 886/886
l 886/886 816/816
l 816/816 896/896
l 896/896 817/817
l 817/817 868/868
l 868/868 819/819
l 819/819 923/923
l 923/923 818/818
l 818/818 942/942
l 942/942 820/820
l 820/820 821/821
l 821/821 979/979
l 979/979 825/825
l 825/825 822/822
l 822/822 823/823
l 823/823 824/824
l 824/824 841/841
l 841/841 840/840
l 840/840 839/839
l 839/839 842/842
l 842/842 992/992
l 992/992 837/837
l 837/837 838/838
l 838/838 941/941
l 941/941 835/835
l 835/835 922/922
l 922/922 836/836
l 836/836 895/895
l 895/895 834/834
l 834/834 889/889
l 889/889 833/833
l 833/833 883/883
l 883/883 832/832
l 832/832 994/994
l 994/994 869/869
l 869/869 993/993
l 993/993 831/831
l 831/831 982/982
l 982/982 865/865
l 865/865 913/913
l 913/913 830/830
l 830/830 988/988
l 988/988 905/905
l 905/905 829/829
l 829/829 901/901
l 901/901 828/828
l 828/828 879/879
l 879/879 826/826
l 826/826 898/898
l 898/898 827/827
l 827/827 969/969
l 969/969 878/878
l 878/878 935/935
l 935/935 843/843
l 843/843 997/997
l 997/997 987/987
l 987/987 861/861
l 861/861 959/959
l 959/959 925/925
l 925/925 950/950
l 950/950 924/924
l 924/924 858/858
l 858/858 851/851
l 851/851 857/857
l 857/857 849/849
l 849/849 853/853
l 853/853 908/908
l 908/908 852/852
l 852/852 847/847
l 847/847 854/854
l 854/854 848/848
l 848/848 856/856
l 856/856 920/920
l 920/920 944/944
l 944/944 933/933
l 933/933 951/951
l 951/951 989/989
l 989/989 936/936
l 936/936 966/966
l 966/966 940/940
l 940/940 930/930
l 930/930 891/891
l 891/891 999/999
l 999/999 810/810
l 810/810 811/811
l 811/811 934/934
l 934/934 932/932
l 932/932 797/797
l 797/797 897/897
l 897/897 796/796
l 796/796 874/874
l 874/874 795/795
l 795/795 984/984
l 984/984 867/867
l 867/867 986/986
l 986/986 798/798
l 798/798 976/976
l 976/976 863/863
l 863/863 907/907
l 907/907 983/983
l 983/983 970/970
l 970/970 860/860
l 860/860 800/800
l 800/800 978/978
l 978/978 864/864
l 864/864 977/977
l 977/977 799/799
l 799/799 948/948
l 948/948 876/876
l 876/876 801/801
l 801/801 885/885
l 885/885 957/957
l 957/957 862/862
l 862/862 974/974
l 974/974 1004/1004
l 1004/1004 872/872
l 872/872 802/802
l 802/802 887/887
l 887/887 804/804
l 804/804 902/902
l 902/902 803/803
l 803/803 953/953
l 953/953 808/808
l 808/808 805/805
l 805/805 806/806
l 806/806 807/807
l 807/807 793/793
l 793/793 792/792
l 792/792 791/791
l 791/791 794/794
l 794/794 954/954
l 954/954 790/790
l 790/790 903/903
l 903/903 789/789
l 789/789 888/888
l 888/888 788/788
l 788/788 873/873
l 873/873 1003/1003
l 1003/1003 975/975
l 975/975 884/884
l 884/884 787/787
l 787/787 882/882
l 882/882 859/859
l 859/859 786/786
l 786/786 972/972
l 972/972 943/943
l 943/943 991/991
l 991/991 949/949
l 949/949 964/964
l 964/964 846/846
l 846/846 971/971
l 971/971 928/928
l 928/928 956/956
l 956/956 845/845
l 845/845 965/965
l 965/965 981/981
l 981/981 962/962
l 962/962 844/844
l 844/844 892/892
l 892/892 785/785
l 785/785 968/968
l 968/968 894/894
l 894/894 967/967
l 967/967 985/985
l 985/985 900/900
l 900/900 784/784
l 784/784 893/893
l 893/893 783/783
l 783/783 912/912
l 912/912 881/881
l 881/881 812/812
l 812/812 909/909
l 909/909 870/870
l 870/870 809/809
l 809/809 973/973
l 973/973 963/963
l 963/963 960/960
l 960/960 947/947
l 947/947 917/917
l 917/917 952/952
l 952/952 955/955
l 955/955 945/945
l 945/945 980/980
l 980/980 939/939
l 939/939 921/921
l 921/921 929/929
l 929/929 910/910
l 910/910 927/927
l 927/927 911/911
l 911/911 914/914
l 914/914 1001/1001
l 1001/1001 916/916
l 916/916 938/938
l 938/938 919/919
l 919/919 946/946
l 946/946 855/855
l 855/855 937/937
l 937/937 995/995
l 995/995 961/961
l 961/961 958/958
l 958/958 931/931
