v 129.16787816353343 -10.358881319373147 -19.139102888059931
v 49.309521497380167 -9.5655514801649879 2.48359040380788
v 10.779056498423845 -4.0286781217678449 6.70110112522074
v -8.8773864704901904 -0.32501972028769877 8.9074138022819618
v -39.604600889475556 5.0536675437273066 11.660597376096252
v -66.906856813582593 8.1308703576225838 15.969655683390329
v -89.548647409269137 7.4959528069873365 22.136774803565601
v -125.1913309922742 -2.378991772898587 38.766904007635972
v 54.89118269970448 -10.169855003570788 1.8136920062881401
v -94.921723522787545 6.6851894164657839 24.013747558670829
v 1.1514150804439498 -2.2514988757646819 7.8704536703590886
v 86.845645420402576 -12.481103225162496 -5.6264114555845337
v 5.9983074560970362 -3.1634232013500543 7.2960713716551577
v -61.277259438972777 7.736245634968169 14.83992072995591
v 100.08503694947586 -12.370348456360537 -9.5894793925220583
v 43.506778247740932 -8.8836141884770132 3.0619105604423016
v -134.95100400000001 -5.7104697000000018 45.221157100000006
v 112.32968857299889 -11.876568811628641 -13.428722005258816
v 60.265611155418284 -10.773574293295065 1.0065168396763242
v 139.88699339999999 -8.8980303000000003 -22.962959300000001
v -115.33100795250022 1.0388982464095675 33.026925738921179
v -72.703627578475533 8.3413842546581272 17.290691842363955
v -105.27977789989865 4.2174033496020851 28.192202975232526
v -55.679199771273765 7.1931894673451566 13.853252675979814
v -3.8106845136480527 -1.3160716566926158 8.4179307376710248
v 106.33115594359401 -12.214464764920752 -11.528594558467262
v -130.08785340895474 -4.0423392349218101 41.933016323208093
v 75.263473602299143 -12.032852986631351 -2.3287656429332788
v -29.38795471901981 3.4317794704975082 10.641335953322914
v 118.10668945764974 -11.471197531002769 -15.325522017504362
v -100.15818228419687 5.5831561490050472 26.031345383568258
v 70.447612141167255 -11.695280897848711 -1.09987979989063
v -34.476072344090873 4.2523906907032938 11.12344188510119
v -19.164018946217965 1.6411680474281916 9.7786994737325443
v -44.829151710268562 5.8211465368101365 12.279990991569299
v -24.292430578753457 2.5641603134149107 10.198890380057104
v -50.18511566493558 6.5510596392065867 13.000909017315234
v 24.546261157236451 -6.2084602552443737 4.9692622722595248
v 79.914609248043092 -12.273874059245333 -3.6182730098679468
v 65.450211058626508 -11.280698087877534 0.027515778308001816
v 37.4560903447166 -8.108505232040816 3.6276126231956409
v 93.584398722465508 -12.468176400388748 -7.6199692758702806
v 134.54718142806666 -9.6571609643192975 -21.053678960045247
v -14.013643132066836 0.66294851894564999 9.358818876686211
v -84.043468686782461 8.0305780735827934 20.386598509475
v 17.728031202474288 -5.1249998436337609 5.7926844426514865
v -78.421202319874126 8.3080819889242683 18.766981351191991
v 31.13558280150178 -7.2180388810443237 4.2495727459124293
v -110.343660509956 2.7037075914817943 30.497207261768128
v -120.29081493589172 -0.65671781254891837 35.769864558547617
v 123.70292440394333 -10.956573199458491 -17.226692785859797
v 40.896227613589375 -10.709253009209217 105.53243261067084
v 38.536679976146132 -24.85710130697796 92.902343697775535
v 33.210230164041718 27.809433030886453 82.418379472056557
v 36.190151789774632 -29.942780561821515 80.139975590617198
v 35.758094737604765 25.169012717748696 92.06052336180386
v 25.321253715847831 24.661123331059638 59.459940820220815
v 10.779056498423845 -4.0286781217678449 6.70110112522074
v 11.235366992803428 -2.0818781581299639 11.026829271910358
v 13.323047554124544 4.9318514930339923 23.830200407685638
v 7.3445822757528632 -12.920910544632306 -88.355193101431723
v 6.580471691383619 -14.193069999580324 -105.55448233502783
v 6.7487432893403998 -13.108190189367566 -66.086078674888029
v 4.409161947300194 -27.540758692835702 -119.25319677470227
v 7.0122876958075295 -13.461943438022216 -99.744413372097569
v 5.0644798 -32.996551500000002 -115.90647130000001
v 27.060382504978076 26.227666528813074 64.050385237117069
v 7.1011536719413755 -12.979504105505473 -77.190725566686112
v 40.979324118047714 -1.7013750596192778 107.98362338971806
v 18.571713916987857 15.597297548408003 41.288101186169044
v 5.7829821284217591 -15.627972931582008 -111.48435169694046
v 4.4308330571811911 -21.228267100381455 -119.27809264804982
v 37.716477133594907 -27.014624688796577 88.687363268952168
v 6.761382739412678 -13.128057926145356 -54.926814579045988
v 7.9188920486944276 -12.694821517401879 -33.375749394710454
v 39.990970758938275 7.5299779855212456 107.10077698560789
v 9.1746868014334133 -10.373925236399721 -12.717807106215464
v 37.678393237727128 19.686906084574481 100.13625609247252
v 20.189911168829369 18.180830861471023 45.762388767046517
v 4.6829922118909897 -30.357846602999629 -117.71218526193005
v 10.328494236501374 -5.9707048163501479 1.9824176786655321
v 4.3119236804978778 -24.404888184567955 -120.05744229094208
v 14.381101691753997 7.525587703393521 28.143861790072769
v 38.503456821186134 16.026332063548104 103.2019543921091
v 11.777560847781341 0.068023041380027488 15.308614561847115
v 7.2714851145828563 -12.916769340337771 -82.76009745309716
v 6.6916804921584507 -13.136010776148815 -60.47995299852564
v 34.557525285025719 26.814674686179188 87.336490817863677
v 41.063955476052762 -6.2904116565775627 107.13548911626337
v 9.5253899342936563 -9.1450444287531347 -7.7288482825945035
v 5.2590983167813743 -16.901776154770594 -114.42776845529318
v 21.866349058090869 20.589117741986392 50.294264540265807
v 6.2465600572548095 -14.773782768835758 -108.49642785970769
v 9.9113225031334355 -7.671389457670692 -2.8293231484949226
v 36.916225428344902 -28.644210381498361 84.386434145815642
v 6.9032184797880021 -13.054517590343313 -71.629474914256235
v 8.2479382174992573 -12.382371261100385 -28.138083792907818
v 40.503487331800798 -14.859612557194204 103.20975565974004
v 30.353300171337935 28.00890225830058 73.255353576512022
v 7.5735346042189775 -12.908831606756216 -38.663376630027429
v 40.580652291922128 2.9486174917323904 107.92307153984449
v 4.7726204543556756 -18.726555765356554 -117.1422064377286
v 23.581823428839414 22.762690057165614 54.869517067013476
v 17.039517080408757 12.911611049160751 36.86827325982442
v 15.630767749530644 10.205915285011052 32.485831385121827
v 28.747830634216577 27.351753726148331 68.654648174646624
v 7.2383776853355357 -13.03968931799098 -44.013648423812114
v 36.796512663445938 22.799889606705193 96.399516801454098
v 31.846561796652971 28.170279044319667 77.84606704932115
v 12.459308096640225 2.4170545079740524 19.5678191204643
v 39.320201949154274 -22.11556988880389 96.86926631252571
v 7.2673604575928525 -13.065746903929085 -94.008607583286135
v 6.9534329090686615 -13.105673037863216 -49.435078884843513
v 39.993555165909669 -18.748419388035963 100.35944620475885
v 39.287428102284366 11.934196658850071 105.53428799977623
v 8.5530691057724155 -11.987083712467015 -22.938324388193578
v 8.8549629828158469 -11.333756783345166 -17.791059525301989
v 34.993854948023682 -32.020936919841674 71.959293132444515
v 35.553720167804471 -31.045414019812831 76.000475743155093
v 34.479721050000002 -32.965621900000002 67.983390799999995
v 112.61260483687482 -3.9558342414967504 53.700711026211891
v 96.63295882494495 2.6304046688580573 57.804567190002864
v 85.019372988124019 7.4041433401701475 61.369799148583226
v 33.210230164041718 27.809433030886453 82.418379472056557
v 23.882415067118746 31.197477578401603 86.726746548263407
v -11.019792671761817 43.59468328022254 100.08937501428596
v -16.249555235866705 45.059342294081297 101.73611494900629
v -37.018775181232115 49.014052312530055 107.55805960370103
v -0.76554042224101904 40.141298210085104 96.605090122673232
v 130.40523085365692 -9.7529268007832535 50.437324901277513
v -83.737742030048082 47.729621240216652 118.93373303285733
v 68.02142231166782 13.949643263282507 67.399587765384211
v 56.59371355521813 18.745422877587643 71.974529734469783
v 149.84057619999999 -11.5475101 48.6482964
v 124.28716332611808 -8.0395026239769258 51.402127471402025
v 28.570464822245707 29.533586408876797 84.585459373830417
v -5.8759315817098665 41.890788702269042 98.372976753703313
v 143.23045322491532 -11.658894670016613 48.929795166269102
v 19.146987911085056 32.994557222304849 88.83338374002075
v 107.04715019582184 -1.773199730020353 55.010818510736492
v 79.326378414475698 9.4849310862585199 63.281902128863791
v -108.63977474664637 46.421782281143834 120.96019232547872
v -47.872476687295773 50.004753858462728 110.47073336142441
v 90.751776897858917 5.1285909027624861 59.55596010304987
v -78.947040868895385 48.392814185584172 118.26374153805925
v 39.066694802176869 25.642234439576153 79.70182849096642
v 50.786119812183003 21.106558067141179 74.442343602943197
v -21.490660214911273 46.418027865274965 103.31992978158956
v -93.488234394226339 46.433740946359045 119.66867198790597
v -64.289755506991526 49.830866229363757 114.91185552069852
v -53.598697211046023 50.16474843962056 112.01806726423678
v 14.266441739303126 34.720040821403657 90.881829778977362
v -31.952796917194092 48.301732562058845 106.20446182156201
v 73.678526036166176 11.665956596561067 65.287171928950812
v -88.574691129324862 47.050436785245594 119.37953153461568
v 62.319186323002299 16.295298897457208 69.628920816416183
v -41.947557052665488 49.549866818670324 108.87144034300218
v -69.293378714460943 49.462687272519915 116.2195851104413
v 44.957303810961392 23.464643673034331 77.025295011172446
v 9.303272028996572 36.495837632983239 92.861052895819512
v 118.36439834340705 -6.0585239610266202 52.490592485242423
v -74.153744605240348 49.035845623183533 117.38408305202674
v 136.7348239082163 -11.002032387056396 49.611552444839106
v 4.2682221513459702 38.261646321101054 94.766535149189195
v -98.493614403577951 46.049496687997447 119.9434830322451
v -59.0712993184586 50.082210918725153 113.50440244714925
v -26.764113156633968 47.425178178210565 104.79434404550105
v 101.70372100776305 0.44360870736914115 56.390229422913443
v -113.71485140000004 46.994972200000007 121.6699524
v -103.56939043033353 45.968974804801533 120.29162846044008
v -38.264580420689001 35.124235579817793 128.19542026963711
v -40.368510343019594 -25.578842850069144 115.80668783543479
v -45.123099822352856 50.271840420935554 90.155580708288937
v -45.380611399999999 -32.965621900000002 80.704025300000012
v -48.605690130467281 45.099189935425869 76.334653942457976
v -61.149992527942842 -23.397829158097149 -122.42566547141806
v -64.850613565537031 13.075432653412552 26.480514685457642
v -66.906856813582593 8.1308703576225838 15.969655683390329
v -67.693248229088709 -12.07016126162374 -88.070195656240855
v -73.338863564270895 -7.2556510082226948 -39.758873696030825
v -71.402102582172432 -1.6707933215375244 -13.234846090340039
v -69.940068142662597 -11.34731696606609 -77.884184494089538
v -62.853298200000012 -42.54000090000001 -121.77623750000002
v -44.753106870145061 -32.372074154438515 86.009632772034124
v -38.843990278805208 38.989659849813947 125.1355576490599
v -58.729266687758816 26.284146900267913 47.579073684348742
v -67.938143491234001 5.6651580973738813 9.9979071952326404
v -61.862206914817918 -18.029027030657879 -115.86944699128972
v -39.625429692791911 -23.395725879005695 120.01722478075523
v -69.840496608702495 1.6066160509441292 -1.8616206555950412
v -39.531526311346575 42.454233494677382 121.62685956435207
v -62.144831322707574 19.19285264475544 37.056105703926562
v -66.499880247545775 -12.517131099570619 -93.107542156267741
v -50.054308883586877 42.625401800591185 71.77579276889513
v -47.294430090505557 47.203169276104397 80.917260203256888
v -70.883082364936371 -10.991264224102853 -72.863857731763318
v -72.009500495247437 -3.0485849991955671 -18.716130135231303
v -55.059466616333417 33.478034638310682 57.679186119535473
v -72.887208569381798 -5.3780568535431428 -29.332900687077476
v -72.394172811892673 -10.07886179932621 -61.949155355950509
v -61.145111065315966 -27.160763936082031 -124.01357119366054
v -41.936498738781722 -28.871503854953083 106.55055301937652
v -36.39525971539878 7.4200278750893593 137.12475050377014
v -53.293450123246416 36.808982497746889 62.491615877325522
v -61.408997375139066 -20.394325345949348 -119.48405659286071
v -44.106952077243989 -31.721700153702955 91.28269169962806
v -72.925238914352008 -9.4832542961837838 -56.122733108622754
v -36.862269910281512 -6.4702636203556159 134.87902990672825
v -56.88929156281057 29.941541702897887 52.700547799188271
v -44.239994318481557 51.115280593291203 94.835815895449088
v -40.303950859544727 45.429365781723476 117.70149408857424
v -43.426345447088949 -30.951713549629524 96.488286497745207
v -37.351169570357897 26.582400978483896 133.11718238532046
v -70.676056262558347 -0.11653268032891405 -7.619322387345064
v -72.502489375368881 -4.2559645799356538 -24.077947755859917
v -61.78263234094311 -35.032411455634815 -123.83010887059254
v -61.380013242131 -31.136783360791934 -124.32872960044102
v -43.460814892555092 51.257758822616339 99.560272292992209
v -73.374449855232413 -8.0890683067497946 -45.053105540490613
v -36.401650345730275 2.6240365850833207 137.01197321634641
v -41.147659938625466 -27.413655586428028 111.30946199724633
v -41.947557052665488 49.549866818670324 108.87144034300218
v -38.32626696797972 -17.808224809847708 127.35433073333476
v -36.50748897689428 12.281368519389122 136.82254868880574
v -73.16754189260692 -6.3756739252236629 -34.538923620360578
v -63.596781460600582 16.004997491218816 31.746465562656834
v -37.770924499357136 -14.427154263271238 130.41198649806495
v -60.50574199699124 22.658022224803634 42.345217609279374
v -73.246140014759419 -8.8284190639092799 -50.493959639346244
v -71.6518246619694 -10.606980314241483 -67.954075853770973
v -36.560689238339421 -2.0331148259038425 136.25594971301001
v -65.340742809854206 -13.116781057791219 -98.026249716879619
v -36.718231371140007 17.146747524333527 136.06767808988809
v -42.70195358943883 -30.023675469021313 101.59198335436142
v -64.265561311523157 -13.891261223300877 -102.79421308222916
v -37.274297474385023 -10.635660867656497 132.94675240924789
v -42.713614608329422 50.709761280296782 104.25650958852333
v -51.620529455225565 39.874771591921707 67.167899708210086
v -68.859812610367982 -11.694898474891392 -82.973490453032724
v -38.942103200083523 -20.789829751632169 123.86804232850086
v -62.491555555059819 -16.271430495215007 -111.85171914787851
v -46.133038852607484 48.961021048712766 85.513723819884632
v -41.124757129059923 47.811557862743598 113.41464833770343
v -63.310199730166147 -14.907681289886199 -107.40089396300733
v -37.006553797456633 21.934992287949516 134.81951919468702
v -68.919865483820743 3.5302219447033996 4.0212441185950567
v -65.935123915890387 10.470605072965299 21.222911141455153
v -37.774119653183632 30.964530101056482 130.84201068716771
v -62.288624118146373 -38.818905676754625 -122.90264564173376
v 128.64257810000001 6.8983197000000018 -79.440872200000001
v 107.0222264486697 1.6538905843594343 -76.172190849342527
v 91.263302389431459 -1.8582441220714507 -74.221043889132602
v 20.952081300760508 -12.433218541980278 -65.863470958651817
v 6.7487432893403998 -13.108190189367566 -66.086078674888029
v -10.623049808821122 -13.165132782512121 -67.033711734318089
v -55.421706881911462 -10.973936796399498 -67.325423547500918
v -66.368653968786248 -10.631497078070065 -67.624849427320527
v -83.148237712740894 -11.015983024253211 -69.046584011246324
v -134.09188729022776 -21.841969369260742 -78.055187481191268
v -150 -25.720378900000007 -83.280876199999994
v 75.31974290193871 -5.0350719784117146 -72.846385212471517
v 101.75733116073924 0.44350100488106314 -75.443037335445027
v -77.456484443349751 -10.725778401333629 -68.450207238948607
v -100.22317004953575 -13.05773657990283 -71.247243922221628
v -44.177827603968787 -11.594568322277016 -67.358065808607037
v 80.667645981014971 -4.009053393698462 -73.290613614180742
v 26.092921383967642 -12.04087729122721 -66.163009205591635
v 64.497712562109996 -6.9870986951092462 -71.739016947581476
v -60.943415172794715 -10.74820613774064 -67.419793856693531
v -16.165382566207711 -13.029550338219218 -67.240479625671384
v -111.78905848700066 -15.448984578982428 -73.006259414087936
v 117.72520753137573 4.1907329791352783 -77.770403317956976
v -128.68732873965794 -20.233870363011995 -76.531672568269045
v -38.49700151562736 -11.94140847698392 -67.411919645088062
v 36.847790711528816 -10.995916765738107 -67.428460651984111
v 47.912148982646251 -9.5744219898926772 -69.24130664851188
v 69.934191032633237 -6.0294233128870323 -72.34420237809303
v -21.673182150153302 -12.828174930987583 -67.374284908025885
v -88.80398372879317 -11.518969372847556 -69.719859620625328
v 16.019381044097756 -12.74623727524798 -65.783753311542426
v 85.982537317816565 -2.9510273697906029 -73.732152185560466
v -144.70326668775266 -24.591993021089486 -81.502454627599178
v -105.99993334300477 -14.160217724556505 -72.092486555774656
v 31.408010080812993 -11.563799256993768 -66.694167032140342
v 53.469865049446597 -8.765371877926265 -70.16431467580999
v 112.34176713692494 2.895089218343502 -76.955127507305605
v -117.51881687515316 -16.969215349999146 -74.029412146944793
v -139.39986802321965 -23.354302391601362 -79.742802855445262
v -71.6518246619694 -10.606980314241483 -67.954075853770973
v -123.16423543202164 -18.578411369174656 -75.193306906882526
v -94.487020325882938 -12.188971180892047 -70.455734743681603
v -4.9762796853127123 -13.23621973944711 -66.75638823778624
v -32.828171564861663 -12.269653315954784 -67.447390546502859
v 59.007139652852835 -7.903219098600033 -71.009764875522009
v 96.516958219718333 -0.73668693058307677 -74.789032471652234
v 0.81533408651781358 -13.215025382204486 -66.42683345612636
v -27.215672154879314 -12.567301826518634 -67.440248238842173
v 123.16852919653854 5.5243248155106279 -78.602676760688382
v 11.296687492561077 -12.96104772119968 -65.878250255122708
v 42.361614909783782 -10.323812529284197 -68.303531461524017
v -49.827966959964741 -11.264172768388704 -67.316726622876445
v 101.75197512344604 -3.1787368765392388 70.01264860796897
v 103.39688109637785 -9.5513495424428889 73.345265114550841
v 100.13864900000002 -32.965621900000002 57.524913800000022
v 96.63295882494495 2.6304046688580573 57.804567190002864
v 85.169722296151235 -8.5170533632108132 18.505645468987098
v 82.704808343964828 -11.324135538351442 7.6011285679957696
v 72.345867307088469 -9.5851230028187615 -28.84027748871722
v 68.495737358482643 -8.0191364206330142 -44.646888404018064
v 70.911076430869471 -8.9666042099795469 -34.015305646880947
v 57.293329817819846 -24.99247799664645 -122.47160834635878
v 57.478358266307723 -18.872658666362035 -124.3100762395697
v 81.359097041408731 -12.07892421088065 2.0165379758701949
v 62.430142969198464 -6.8485433092648087 -85.080466556783222
v 92.971910249916277 1.7511080879145484 48.08305278634105
v 100.98604750849258 -30.508316336296183 61.271207593418978
v 75.460736648782813 -10.96132811017096 -18.696504475742671
v 65.95480280131622 -7.2484373627006864 -61.027063747184371
v 69.622575212750831 -8.4595551203958763 -39.286391655909831
v 94.732187136196643 2.5108434842405973 52.899141908002662
v 86.340895715473835 -6.6976594076464941 23.756654954251992
v 64.497712562109996 -6.9870986951092462 -71.739016947581476
v 57.929431241523972 -11.149732633850807 -116.76637674128006
v 57.569058044481352 -15.745964322277363 -122.82928699665794
v 77.022696024895922 -11.616043489987682 -13.673076658199543
v 102.70070218510807 -6.0972405077892873 72.037072948361697
v 58.712369738837509 -8.6197490742086185 -108.77451486069157
v 67.532430009160265 -7.684459219709316 -50.083680360932519
v 101.82845318577989 -27.883302426085834 64.912756457406488
v 89.979989372293687 -1.074648769712804 38.585958708240064
v 57.713697135863214 -13.168770369902198 -120.16677852568405
v 63.487816064623431 -6.8804503051376251 -78.471998724864591
v 98.015666533370478 2.1709359123774323 61.186285368720505
v 91.392831916885811 0.5173260613862164 43.327284259900665
v 87.505950265741262 -4.7712956606135144 28.843179520147451
v 61.347163005034602 -6.9450359105013817 -91.596922082072467
v 57.018059691742351 -27.596240299848198 -120.72108391865295
v 100.64678322034405 -0.77656730253965556 67.455055044014884
v 103.3463955967712 -21.502565946494578 71.120851436199132
v 57.441366610196638 -22.120507158461216 -123.84710858238813
v 59.280568132738154 -7.9530569262918576 -104.59903541411995
v 66.701718280017502 -7.4350011032370276 -55.559907640747227
v 103.72265549375656 -13.45862561755933 73.650938473248246
v 58.254111689778377 -9.6394507982343516 -112.89944901866861
v 79.914609248043092 -12.273874059245333 -3.6182730098679468
v 65.236917225330288 -7.1076308394132335 -66.43419308969672
v 83.966804485588227 -10.101148696810165 13.109218965463397
v 99.389834308113223 1.0348835934366165 64.463552163333702
v 102.64516197259054 -24.942637211056109 68.301451729047201
v 60.282010930186125 -7.2737467853708901 -98.081562765504202
v 78.521128321629192 -12.090466710148675 -8.6465632189580717
v 103.72688826166866 -17.557841965728542 72.951232804581679
v 73.880844674237579 -10.271664883402302 -23.743480621358991
v 88.700199975637275 -2.8778236298706714 33.780745640384431
v 56.668710700000005 -30.05747985 -118.80307770000002
v 80.065399652743764 -4.5970728620745556 -104.9543855229042
v 64.373686274965451 -7.080158543567479 -104.36865890891758
v 36.716119188427655 -11.425467878312451 -106.08539647746321
v 6.580471691383619 -14.193069999580324 -105.55448233502783
v -7.6400448617868726 -15.029186055256345 -105.63606750409355
v -67.107275394843569 -16.337080291062939 -112.84407780882425
v -76.643473753037853 -16.343889640125994 -114.8611943459005
v -91.528570927924932 -16.402200269197994 -118.02870615278468
v -145.6687469 -14.119559300000004 -127.0529938
v -36.791323094139784 -15.890902560664905 -107.21699314716504
v -129.12069328565616 -16.686519878787458 -124.06803904615066
v -43.172383793332912 -15.903870636320377 -108.10393927396019
v 53.546836998015863 -8.8959202887996351 -105.0040290423558
v -12.9114838430737 -15.288840621515092 -105.76813667910397
v 115.74633007098876 1.7733096451630757 -112.69175810924938
v 2.0732933390436643 -14.455362070752589 -105.51351378429291
v -56.006046730097538 -16.089717409509706 -110.49350536399614
v -71.827274872395876 -16.33202431664585 -113.85750331649581
v 85.444601366074465 -3.7872535168186348 -105.61549127634373
v -24.363725414644509 -15.749620960525299 -106.17701183046614
v 25.3383694167157 -12.764742488351761 -106.10077769734546
v 119.72440277634264 2.8600834298745603 -114.0244297232727
v 106.5789362484488 -0.15326620140495062 -110.0234444335876
v 47.870291597729988 -9.7376911020691068 -105.4560458614302
v -96.628532995155737 -16.380352385407392 -119.15489560405922
v 31.108950010771004 -12.201973470617396 -106.1636018179005
v -30.493052523396376 -15.909137430117429 -106.56954365413017
v -112.53181599898556 -16.826738843926123 -121.9102286272645
v -134.6703661816444 -16.066058517535573 -124.96713817533015
v -18.488191686554153 -15.526886039285047 -105.93452219793733
v 74.756860819391164 -5.4156998816712472 -104.52234384485477
v -49.579373672107565 -15.969171402913334 -109.21623146384036
v -81.541990869251492 -16.415417520827276 -115.85950871489945
v -101.82446633782307 -16.425428636760639 -120.21848425714589
v 13.086678283770453 -13.789310560298428 -105.71646710455045
v 59.280568132738154 -7.9530569262918576 -104.59903541411995
v -107.12861841998151 -16.59255620968176 -121.13822775857007
v -123.5629714883178 -17.029502385869172 -123.25645542118869
v 111.35812448280132 0.76798109507309253 -111.34745607481443
v -86.503338350969543 -16.418166949545544 -116.91995615720374
v 101.50260909058484 -1.0751173555699982 -108.74336659238685
v -2.6571589826631108 -14.705127484238918 -105.55388063647518
v 69.527723452093653 -6.2396317152998373 -104.3303385419285
v 90.86357185583887 -2.9846308022125951 -106.48011125462585
v -62.491555555059819 -16.271430495215007 -111.85171914787851
v -118.01687266342947 -17.000717870175794 -122.59696717509603
v 42.272295984050139 -10.57434136299948 -105.84317490368156
v -140.164224139488 -15.103180914718834 -126.02102799927056
v 96.233163218567256 -2.0276749520741251 -107.5466967798655
v 19.344028772359216 -13.295573685079962 -105.9274135058108
v 126.9043808 4.8862801000000005 -116.55384060000003
v 123.39283278404771 3.9110211384602418 -115.31049738856784
v 150 -18.052949900000002 57.935070000000017
v 149.9817352 -25.301820800000002 56.873310100000012
v 149.930069 -10.157010100000001 53.863799999999998
v 149.85681149999999 -32.965621900000002 49.605270400000002
v 149.72528080000001 -13.5520496 41.944438900000016
v 149.48808289999999 -18.142410300000002 28.125299500000001
v 149.02119450000001 -21.453990900000001 13.3251896
v 148.1843719 -21.418258699999999 5.5854001000000011
v 145.29525760000001 -17.564729700000001 -6.4552803000000001
v 141.67683410000001 -11.7757206 -17.539979899999999
v 138.1686401 -6.1353597999999998 -28.169460300000004
v 133.12034610000001 1.9677601 -43.532520300000002
v 130.2849884 6.1053300000000021 -54.186931600000001
v 128.98338319999999 7.0328398000000014 -66.129150400000015
v 128.64257810000001 6.8983197000000018 -79.440872200000001
v 128.45039370000001 6.8622899000000004 -92.4312592
v 127.46616360000004 6.0815996999999999 -110.8467941
v 124.4554825 -30.565050100000001 -124.3716888
v 124.044426 -7.8897595000000003 -136.98287959999999
v 123.5105667 -24.020910300000001 -134.92372130000001
v 123.3703232 -17.1692696 -138.64541629999999
v 112.88316349999999 -30.1284885 -123.3625183
v 100.13864900000002 -32.965621900000002 57.524913800000022
v 95.910087599999997 -29.654371300000001 -121.9080658
v 86.955444299999996 -32.965621900000002 59.62460710000002
v 77.914047199999999 -29.576608700000001 -120.37854
v 68.665168800000004 -32.965621900000002 62.5380325
v 66.111747699999995 -29.793090800000002 -119.48975369999999
v 54.188129400000001 -32.965621900000002 64.844009400000004
v 53.408943200000003 -30.159420000000008 -118.56888580000003
v 40.270229300000004 -30.70946880000001 -117.6846008
v 41.7507935 -32.965621900000002 66.825119000000001
v 26.208450299999999 -31.489259700000002 -116.8510818
v 26.080560699999999 -32.965621900000002 69.321174600000006
v 11.9302197 -32.453998599999998 -116.17190550000004
v 13.532699600000001 -32.965621900000002 71.320014999999998
v -1.9603801000000001 -33.616291000000004 -115.6962891
v -4.0615801999999999 -32.965621900000002 74.122352599999999
v -16.15485 -35.086681400000003 -115.61672970000004
v -17.4324303 -32.965621900000002 76.252380400000007
v -29.97518920000001 -36.846481300000001 -116.34575650000002
v -31.8983688 -32.965621900000002 78.556564300000005
v -43.582019799999998 -38.955810499999998 -118.1142578
v -45.380611399999999 -32.965621900000002 80.704025300000012
v -56.653827700000008 -41.341079700000016 -120.51425930000001
v -58.58691020000002 -32.965621900000002 82.807647700000032
v -78.039207500000003 -32.965621900000002 85.906021100000004
v -87.537033100000002 -47.227348300000003 -125.77388759999999
v -100.4049606 -49.2270927 -126.3359985
v -109.24908450000004 -8.4563704000000008 135.7181702
v -109.2644043 4.2947702000000003 136.59881590000001
v -110.468132 24.448169700000001 133.58210750000001
v -110.34444430000001 -23.6401787 129.56762699999999
v -112.70897669999999 42.297390000000014 125.56728360000001
v -112.3876801 -32.414070100000004 105.1697693
v -112.9254608 -32.965621900000002 91.462623600000001
v -114.64446260000003 49.889457700000008 117.98933410000004
v -113.1822052 -50.7163811 -126.3002396
v -118.6304092 52.326057400000003 101.982811
v -122.63765720000002 45.428520200000008 86.810401900000031
v -126.08823390000001 35.155139900000009 74.646301300000005
v -129.1941376 22.358369799999998 64.130615199999994
v -132.67112729999999 -52.096649200000002 -126.45159150000001
v -131.4652863 11.576640100000002 56.576099400000004
v -139.88427730000001 -28.918140399999999 28.282319999999999
v -142.72653200000002 -40.703910800000003 14.846309700000004
v -143.9834137 -23.458229100000004 -134.57180790000001
v -143.9810028 -37.577907600000003 -134.6534729
v -144.8109283 -52.539539300000001 -127.08693700000001
v -145.6687469 -14.119559300000004 -127.0529938
v -147.16314700000001 -52.350090000000016 -14.927399599999999
v -148.3840179 -10.5545692 -111.0065384
v -148.6974945 -51.876270300000002 -33.378959700000003
v -149.2760925 -46.364700300000003 -51.922981299999996
v -149.53671259999999 -40.8765602 -62.369911199999997
v -149.42887880000001 -14.501490600000002 -99.370292699999993
v -149.84298709999999 -33.440040600000003 -73.260024999999999
v -150 -25.720378900000007 -83.280876199999994
v -117.29064180000002 52.623333000000017 107.3220062
v -141.7605896 -36.878311199999999 19.879560500000004
v -144.4211731 -45.993598900000002 -131.03865049999999
v 126.2933426 3.1129501000000004 -121.7678375
v -148.94970699999999 -50.633491499999998 -39.457710300000002
v 75.6749954 -32.965621900000002 61.421371499999999
v -62.853298200000012 -42.54000090000001 -121.77623750000002
v -93.7770309 -48.255447400000001 -126.16452030000001
v 5.0644798 -32.996551500000002 -115.90647130000001
v 59.928478200000015 -29.955539699999999 -119.0372696
v 123.8813705 -27.5021114 -130.52400209999999
v 131.4421844 4.5391798000000003 -49.219738
v -128.05764769999999 27.364891100000008 67.952911400000005
v 127.89731600000003 6.6464100000000004 -105.1388702
v -38.756580399999997 -32.965621900000002 79.648918199999997
v 32.097782100000003 -32.965621900000002 68.362770100000006
v -10.5760498 -32.965621900000002 75.160049400000005
v -148.93827820000001 -11.7796202 -105.68682099999999
v 149.61270139999999 -15.7544699 35.381668099999999
v -149.6937561 -37.255439799999998 -67.940643300000005
v -146.6325989 -11.877210600000002 -122.26956180000002
v -123.86750790000001 42.207630199999997 82.38395690000003
v -149.74659729999999 -18.0307198 -93.601379399999999
v -51.977306400000003 -32.965621900000002 81.754615800000025
v -149.40039060000001 -43.861740099999999 -57.146011399999999
v 93.698402400000006 -32.965621900000002 58.5505791
v 118.8949509 -30.350069000000001 -123.884964
v -9.0885295999999993 -34.315589899999999 -115.5815964
v 19.018468899999998 -32.965621900000002 70.4462738
v -112.0375748 -31.547820999999999 111.9613495
v -50.289840699999999 -40.145130199999997 -119.2855759
v 134.82101440000002 -0.75290999999999997 -38.3128204
v 143.50631709999999 -14.717370000000001 -11.9962807
v 149.84057619999999 -11.5475101 48.6482964
v 149.3394318 -20.1007195 20.955390900000005
v 149.94149780000001 -28.682430300000004 54.529228200000013
v -134.95100400000001 -5.7104697000000018 45.221157100000006
v -130.34262079999999 17.012250900000002 60.2950783
v -90.572074900000004 -32.965621900000002 87.902130099999994
v -149.95617680000004 -29.641170500000005 -78.260253899999995
v 101.6852951 -29.781690600000001 -122.404686
v -109.93428040000001 17.782110200000002 135.17048650000001
v 61.180889100000002 -32.965621900000002 63.730083499999999
v 2.0258400000000001 -32.965621900000002 73.152809099999999
v 128.56752010000002 6.8673902000000009 -86.083496100000033
v -81.300956700000015 -46.104991900000002 -125.0932236
v 72.030448899999996 -29.664869300000003 -119.92725370000002
v 19.189588499999999 -31.939350100000006 -116.4961777
v 139.88699339999999 -8.8980303000000003 -22.962959300000001
v -24.619468700000002 -32.965621900000002 77.396972700000006
v -144.70162959999999 -17.877300300000002 -131.35121150000001
v -112.6912537 -32.826629599999997 97.762649499999995
v 129.52532959999999 6.8175296999999997 -59.431858099999999
v 147.05207820000001 -20.1733799 -0.22520999999999999
v 123.5342407 -12.9488401 -138.99823000000001
v 112.6579819 -32.965621900000002 55.530601500000003
v -137.13177490000001 -16.294321100000001 38.116107900000003
v -147.81410220000001 -52.770752000000002 -21.1139698
v 47.8922691 -32.965621900000002 65.846878099999998
v 128.75067139999999 6.9664802999999997 -72.6540909
v 89.941825899999998 -29.570310599999999 -121.38800809999999
v -110.9602814 -27.364290199999999 124.7644196
v 33.026161199999997 -31.089901000000001 -117.236908
v -121.1444702 48.783298500000001 92.326164199999994
v 125.48504640000004 0.12867000000000001 -127.96668240000002
v -106.9830017 -50.056709300000001 -126.349205
v -23.118780100000006 -35.929798099999999 -115.85514070000002
v 47.221832300000003 -30.395101499999999 -118.14189150000004
v -146.42001340000002 -51.327091200000012 -9.0018004999999999
v -107.0625916 -32.965621900000002 90.528808600000005
v -148.3170624 -52.598701499999997 -27.168390299999999
v 125.0031281 -32.965621900000002 53.564186100000001
v -144.64097599999999 -47.263080600000002 3.3190501000000006
v -65.168907200000007 -32.965621900000002 83.855850200000006
v -138.17700199999999 -21.197250400000001 34.588081400000007
v -133.76075739999999 0.18842999999999999 49.070491800000013
v -36.773071299999998 -37.848751100000001 -117.1078186
v -109.1710205 -2.4103197999999999 136.41986080000004
v 106.3948517 -32.965621900000002 56.528343200000002
v -140.84631350000001 -33.077339199999997 24.194879499999999
v -71.6578217 -32.965621900000002 84.889350899999997
v -125.06796260000002 38.600608800000003 78.169822699999997
v 124.6809311 -3.8218500999999998 -133.35812379999999
v 118.8559265 -32.965621900000002 54.543327300000009
v -96.575126600000004 -32.965621900000002 88.858474700000002
v -136.04513550000001 -11.072219800000001 41.678997000000003
v -132.5663452 6.1323600000000011 52.960052500000003
v -109.5286255 11.1001501 136.17396550000001
v -115.74071500000002 51.629463199999996 113.57732390000002
v -84.342903100000001 -32.965621900000002 86.910087599999997
v -139.02311710000001 -25.078710600000001 31.597499800000001
v 128.22071840000001 6.8337602999999998 -99.128250100000002
v 136.4967651 -3.44712 -33.235740700000001
v -127.05177310000001 31.510891000000001 71.357849099999996
v -149.93515009999999 -21.829919800000003 -88.316520700000027
v -145.55436710000004 -49.623718300000021 -2.7990301
v 36.861660000000001 -32.965621900000002 67.604011499999999
v 8.0806197999999991 -32.965621900000002 72.188369800000004
v -143.7278748 -44.358089400000004 9.0635995999999999
v 107.3556595 -29.943510100000001 -122.8880997
v -147.66459660000004 -10.5665703 -116.20464320000004
v 131.1311493 -32.965621900000002 52.588020299999997
v -75.002075200000007 -44.907543199999999 -124.1275787
v -149.12205510000001 -48.878788 -45.448471099999999
v 83.883514399999996 -29.542678800000001 -120.8664627
v 81.480209400000007 -32.965621900000002 60.496860499999997
v -111.5664902 -29.9672394 118.5862808
v 143.77146909999999 -32.965621900000002 50.574806199999998
v -101.5642471 -32.965621900000002 89.653259300000002
v 149.98049930000002 -14.366670600000004 56.795249900000009
v 137.21769710000001 -32.965621900000002 51.618480699999999
v -68.940177899999995 -43.728118900000005 -123.00582120000001
v 126.9043808 4.8862801000000005 -116.55384060000003
v -113.71485140000004 46.994972200000007 121.6699524
v -143.776825 -30.375598900000007 -135.76712040000001
v -109.4998245 -14.338439899999999 134.4228363
v -139.07566829999999 -52.352191900000001 -126.7497635
v -111.09417720000003 30.737400099999999 131.49920650000001
v -126.7458038 -51.780777 -126.299942
v -120.0524139 -51.319290199999998 -126.25640869999999
v -111.8715286 36.963001300000002 128.7095032
v -109.97270970000002 -20.403991700000002 131.8985596
v -119.60652159999999 51.328288999999998 98.181510900000006
v 39.306226750000008 -32.965621900000002 67.214565249999993
v -124.46773525 40.4041195 80.276889799999992
v -112.80835725 -32.896125749999996 94.612636549999991
v -149.46855160000001 -42.369150149999996 -59.757961299999998
v 121.67521669999999 -30.457559549999999 -124.12832639999999
v 16.275584250000001 -32.965621900000002 70.883144399999992
v -149.33824155000002 -45.113220200000001 -54.534496349999998
v -126.57000350000001 33.333015450000005 73.002075200000007
v -109.99402620000001 -32.965621900000002 90.99571610000001
v 126.5988617 3.9996151000000002 -119.16083905000001
v 124.16842650000001 -29.033580749999999 -127.44784544999999
v 84.217826849999994 -32.965621900000002 60.060733800000001
v -125.57809825000001 36.877874349999999 76.408062000000001
v -139.45369720000002 -26.9984255 29.9399099
v -123.25258255000001 43.818075199999996 84.59717940000003
v -138.60005955 -23.137980500000001 33.092790600000001
v 149.89915465000001 -30.824026100000001 52.0672493
v 10.806659700000001 -32.965621900000002 71.754192399999994
v 34.479721050000002 -32.965621900000002 67.983390799999995
v 78.577602400000004 -32.965621900000002 60.959115999999995
v -99.069686850000011 -32.965621900000002 89.255866999999995
v -104.31341935 -32.965621900000002 90.091033949999996
v 146.81414029999999 -32.965621900000002 50.090038300000003
v 127.1852722 5.4839399000000002 -113.70031735000001
v -144.61605070000002 -49.266569099999998 -129.06279375
v -141.94329829999998 -52.445865600000005 -126.91835025
v -12.621689800000002 -34.701135649999998 -115.59916305000002
v 56.668710700000005 -30.05747985 -118.80307770000002
v 15.559904100000001 -32.196674349999995 -116.33404160000001
v 140.4945831 -32.965621900000002 51.096643450000002
l 17/17 27/27
l 27/27 8/8
l 8/8 50/50
l 50/50 21/21
l 21/21 49/49
l 49/49 23/23
l 23/23 31/31
l 31/31 10/10
l 10/10 7/7
l 7/7 45/45
l 45/45 47/47
l 47/47 22/22
l 22/22 6/6
l 6/6 14/14
l 14/14 24/24
l 24/24 37/37
l 37/37 35/35
l 35/35 5/5
l 5/5 33/33
l 33/33 29/29
l 29/29 36/36
l 36/36 34/34
l 34/34 44/44
l 44/44 4/4
l 4/4 25/25
l 25/25 11/11
l 11/11 13/13
l 13/13 3/3
l 3/3 46/46
l 46/46 38/38
l 38/38 48/48
l 48/48 41/41
l 41/41 16/16
l 16/16 2/2
l 2/2 9/9
l 9/9 19/19
l 19/19 40/40
l 40/40 32/32
l 32/32 28/28
l 28/28 39/39
l 39/39 12/12
l 12/12 42/42
l 42/42 15/15
l 15/15 26/26
l 26/26 18/18
l 18/18 30/30
l 30/30 51/51
l 51/51 1/1
l 1/1 43/43
l 43/43 20/20
l 120/120 118/118
l 118/118 119/119
l 119/119 55/55
l 55/55 95/95
l 95/95 73/73
l 73/73 53/53
l 53/53 111/111
l 111/111 114/114
l 114/114 98/98
l 98/98 52/52
l 52/52 89/89
l 89/89 69/69
l 69/69 101/101
l 101/101 76/76
l 76/76 115/115
l 115/115 84/84
l 84/84 78/78
l 78/78 108/108
l 108/108 56/56
l 56/56 88/88
l 88/88 54/54
l 54/54 109/109
l 109/109 99/99
l 99/99 106/106
l 106/106 67/67
l 67/67 57/57
l 57/57 103/103
l 103/103 92/92
l 92/92 79/79
l 79/79 70/70
l 70/70 104/104
l 104/104 105/105
l 105/105 83/83
l 83/83 60/60
l 60/60 110/110
l 110/110 85/85
l 85/85 59/59
l 59/59 58/58
l 58/58 81/81
l 81/81 94/94
l 94/94 90/90
l 90/90 77/77
l 77/77 117/117
l 117/117 116/116
l 116/116 97/97
l 97/97 75/75
l 75/75 100/100
l 100/100 107/107
l 107/107 113/113
l 113/113 74/74
l 74/74 87/87
l 87/87 63/63
l 63/63 96/96
l 96/96 68/68
l 68/68 86/86
l 86/86 61/61
l 61/61 112/112
l 112/112 65/65
l 65/65 62/62
l 62/62 93/93
l 93/93 71/71
l 71/71 91/91
l 91/91 102/102
l 102/102 72/72
l 72/72 82/82
l 82/82 64/64
l 64/64 80/80
l 80/80 66/66
l 169/169 142/142
l 142/142 170/170
l 170/170 165/165
l 165/165 149/149
l 149/149 155/155
l 155/155 131/131
l 131/131 145/145
l 145/145 162/162
l 162/162 158/158
l 158/158 150/150
l 150/150 166/166
l 166/166 151/151
l 151/151 143/143
l 143/143 157/157
l 157/157 128/128
l 128/128 153/153
l 153/153 167/167
l 167/167 148/148
l 148/148 127/127
l 127/127 126/126
l 126/126 137/137
l 137/137 129/129
l 129/129 164/164
l 164/164 160/160
l 160/160 152/152
l 152/152 139/139
l 139/139 125/125
l 125/125 136/136
l 136/136 124/124
l 124/124 146/146
l 146/146 159/159
l 159/159 147/147
l 147/147 133/133
l 133/133 156/156
l 156/156 132/132
l 132/132 154/154
l 154/154 141/141
l 141/141 123/123
l 123/123 144/144
l 144/144 122/122
l 122/122 168/168
l 168/168 140/140
l 140/140 121/121
l 121/121 161/161
l 161/161 135/135
l 135/135 130/130
l 130/130 163/163
l 163/163 138/138
l 138/138 134/134
l 183/183 249/249
l 249/249 216/216
l 216/216 217/217
l 217/217 201/201
l 201/201 176/176
l 176/176 205/205
l 205/205 188/188
l 188/188 241/241
l 241/241 244/244
l 244/244 235/235
l 235/235 232/232
l 232/232 193/193
l 193/193 179/179
l 179/179 239/239
l 239/239 182/182
l 182/182 196/196
l 196/196 230/230
l 230/230 200/200
l 200/200 207/207
l 207/207 229/229
l 229/229 219/219
l 219/219 180/180
l 180/180 225/225
l 225/225 199/199
l 199/199 215/215
l 215/215 197/197
l 197/197 181/181
l 181/181 214/214
l 214/214 190/190
l 190/190 246/246
l 246/246 187/187
l 187/187 178/178
l 178/178 247/247
l 247/247 177/177
l 177/177 226/226
l 226/226 192/192
l 192/192 228/228
l 228/228 186/186
l 186/186 209/209
l 209/209 198/198
l 198/198 204/204
l 204/204 238/238
l 238/238 194/194
l 194/194 175/175
l 175/175 195/195
l 195/195 242/242
l 242/242 173/173
l 173/173 210/210
l 210/210 218/218
l 218/218 237/237
l 237/237 222/222
l 222/222 243/243
l 243/243 211/211
l 211/211 191/191
l 191/191 185/185
l 185/185 171/171
l 171/171 248/248
l 248/248 213/213
l 213/213 245/245
l 245/245 233/233
l 233/233 224/224
l 224/224 203/203
l 203/203 220/220
l 220/220 231/231
l 231/231 208/208
l 208/208 236/236
l 236/236 227/227
l 227/227 223/223
l 223/223 240/240
l 240/240 189/189
l 189/189 172/172
l 172/172 221/221
l 221/221 202/202
l 202/202 234/234
l 234/234 212/212
l 212/212 206/206
l 206/206 184/184
l 184/184 174/174
l 250/250 298/298
l 298/298 272/272
l 272/272 286/286
l 286/286 251/251
l 251/251 262/262
l 262/262 295/295
l 295/295 252/252
l 252/252 281/281
l 281/281 266/266
l 266/266 261/261
l 261/261 277/277
l 277/277 268/268
l 268/268 294/294
l 294/294 285/285
l 285/285 276/276
l 276/276 300/300
l 300/300 275/275
l 275/275 284/284
l 284/284 267/267
l 267/267 253/253
l 253/253 280/280
l 280/280 299/299
l 299/299 254/254
l 254/254 296/296
l 296/296 292/292
l 292/292 255/255
l 255/255 270/270
l 270/270 278/278
l 278/278 297/297
l 297/297 293/293
l 293/293 274/274
l 274/274 265/265
l 265/265 301/301
l 301/301 256/256
l 256/256 269/269
l 269/269 257/257
l 257/257 289/289
l 289/289 263/263
l 263/263 258/258
l 258/258 279/279
l 279/279 291/291
l 291/291 264/264
l 264/264 283/283
l 283/283 271/271
l 271/271 287/287
l 287/287 290/290
l 290/290 273/273
l 273/273 259/259
l 259/259 288/288
l 288/288 282/282
l 282/282 260/260
l 355/355 337/337
l 337/337 311/311
l 311/311 340/340
l 340/340 312/312
l 312/312 324/324
l 324/324 331/331
l 331/331 323/323
l 323/323 344/344
l 344/344 327/327
l 327/327 341/341
l 341/341 350/350
l 350/350 336/336
l 336/336 314/314
l 314/314 332/332
l 332/332 322/322
l 322/322 346/346
l 346/346 318/318
l 318/318 342/342
l 342/342 328/328
l 328/328 309/309
l 309/309 319/319
l 319/319 310/310
l 310/310 308/308
l 308/308 353/353
l 353/353 317/317
l 317/317 325/325
l 325/325 351/351
l 351/351 345/345
l 345/345 313/313
l 313/313 307/307
l 307/307 347/347
l 347/347 306/306
l 306/306 321/321
l 321/321 335/335
l 335/335 354/354
l 354/354 330/330
l 330/330 334/334
l 334/334 315/315
l 315/315 320/320
l 320/320 305/305
l 305/305 333/333
l 333/333 348/348
l 348/348 338/338
l 338/338 302/302
l 302/302 326/326
l 326/326 303/303
l 303/303 343/343
l 343/343 352/352
l 352/352 339/339
l 339/339 349/349
l 349/349 329/329
l 329/329 316/316
l 316/316 304/304
l 406/406 407/407
l 407/407 377/377
l 377/377 370/370
l 370/370 394/394
l 394/394 378/378
l 378/378 396/396
l 396/396 404/404
l 404/404 399/399
l 399/399 374/374
l 374/374 356/356
l 356/356 386/386
l 386/386 398/398
l 398/398 357/357
l 357/357 391/391
l 391/391 368/368
l 368/368 379/379
l 379/379 402/402
l 402/402 358/358
l 358/358 381/381
l 381/381 376/376
l 376/376 405/405
l 405/405 390/390
l 390/390 359/359
l 359/359 371/371
l 371/371 397/397
l 397/397 360/360
l 360/360 369/369
l 369/369 385/385
l 385/385 375/375
l 375/375 382/382
l 382/382 365/365
l 365/365 367/367
l 367/367 387/387
l 387/387 372/372
l 372/372 400/400
l 400/400 361/361
l 361/361 373/373
l 373/373 362/362
l 362/362 388/388
l 388/388 395/395
l 395/395 363/363
l 363/363 380/380
l 380/380 389/389
l 389/389 392/392
l 392/392 383/383
l 383/383 401/401
l 401/401 393/393
l 393/393 366/366
l 366/366 384/384
l 384/384 403/403
l 403/403 364/364
l 408/408 409/409
l 408/408 595/595
l 409/409 521/521
l 410/410 519/519
l 410/410 595/595
l 411/411 625/625
l 411/411 631/631
l 412/412 504/504
l 412/412 519/519
l 413/413 504/504
l 413/413 520/520
l 414/414 415/415
l 414/414 520/520
l 415/415 539/539
l 416/416 518/518
l 416/416 539/539
l 417/417 518/518
l 417/417 534/534
l 418/418 534/534
l 418/418 578/578
l 419/419 497/497
l 419/419 517/517
l 420/420 497/497
l 420/420 538/538
l 421/421 538/538
l 421/421 545/545
l 422/422 530/530
l 422/422 545/545
l 423/423 530/530
l 423/423 577/577
l 424/424 499/499
l 424/424 632/632
l 425/425 613/613
l 425/425 619/619
l 426/426 540/540
l 426/426 568/568
l 427/427 428/428
l 427/427 496/496
l 428/428 540/540
l 429/429 512/512
l 429/429 585/585
l 430/430 511/511
l 430/430 564/564
l 431/431 526/526
l 431/431 546/546
l 432/432 511/511
l 432/432 620/620
l 433/433 532/532
l 433/433 590/590
l 434/434 491/491
l 434/434 528/528
l 435/435 495/495
l 435/435 532/532
l 436/436 528/528
l 436/436 544/544
l 437/437 553/553
l 437/437 636/636
l 438/438 548/548
l 438/438 553/553
l 439/439 544/544
l 439/439 609/609
l 440/440 533/533
l 440/440 548/548
l 441/441 501/501
l 441/441 514/514
l 442/442 494/494
l 442/442 637/637
l 443/443 614/614
l 443/443 626/626
l 444/444 494/494
l 444/444 513/513
l 445/445 502/502
l 445/445 529/529
l 446/446 552/552
l 446/446 635/635
l 447/447 502/502
l 447/447 535/535
l 448/448 552/552
l 448/448 562/562
l 449/449 500/500
l 449/449 535/535
l 450/450 516/516
l 450/450 562/562
l 451/451 500/500
l 451/451 509/509
l 452/452 492/492
l 452/452 516/516
l 453/453 509/509
l 453/453 559/559
l 454/454 566/566
l 454/454 575/575
l 455/455 493/493
l 455/455 531/531
l 456/456 493/493
l 456/456 551/551
l 457/457 563/563
l 457/457 601/601
l 458/458 563/563
l 458/458 573/573
l 459/459 527/527
l 459/459 603/603
l 460/460 547/547
l 460/460 607/607
l 461/461 599/599
l 461/461 606/606
l 462/462 515/515
l 462/462 537/537
l 463/463 611/611
l 463/463 617/617
l 464/464 574/574
l 464/464 599/599
l 465/465 551/551
l 465/465 605/605
l 466/466 486/486
l 466/466 608/608
l 467/467 549/549
l 467/467 623/623
l 468/468 616/616
l 468/468 621/621
l 469/469 498/498
l 469/469 523/523
l 470/470 602/602
l 470/470 604/604
l 471/471 523/523
l 471/471 572/572
l 472/472 565/565
l 472/472 622/622
l 473/473 487/487
l 473/473 584/584
l 474/474 536/536
l 474/474 600/600
l 475/475 488/488
l 475/475 600/600
l 476/476 633/633
l 476/476 634/634
l 477/477 506/506
l 477/477 536/536
l 478/478 543/543
l 478/478 554/554
l 479/479 503/503
l 479/479 586/586
l 480/480 490/490
l 480/480 556/556
l 481/481 589/589
l 481/481 615/615
l 482/482 505/505
l 482/482 612/612
l 483/483 503/503
l 483/483 508/508
l 484/484 505/505
l 484/484 525/525
l 485/485 525/525
l 485/485 580/580
l 486/486 574/574
l 487/487 565/565
l 488/488 633/633
l 489/489 550/550
l 489/489 618/618
l 490/490 589/589
l 491/491 628/628
l 492/492 597/597
l 495/495 636/636
l 496/496 619/619
l 498/498 579/579
l 499/499 577/577
l 501/501 627/627
l 506/506 586/586
l 507/507 610/610
l 507/507 623/623
l 508/508 580/580
l 510/510 612/612
l 510/510 615/615
l 512/512 613/613
l 513/513 635/635
l 514/514 614/614
l 515/515 592/592
l 517/517 578/578
l 521/521 625/625
l 522/522 561/561
l 522/522 571/571
l 524/524 570/570
l 524/524 575/575
l 526/526 585/585
l 527/527 573/573
l 529/529 583/583
l 531/531 588/588
l 533/533 637/637
l 537/537 611/611
l 541/541 564/564
l 541/541 569/569
l 542/542 560/560
l 542/542 571/571
l 543/543 556/556
l 546/546 590/590
l 547/547 592/592
l 549/549 608/608
l 550/550 568/568
l 554/554 581/581
l 555/555 617/617
l 555/555 630/630
l 557/557 569/569
l 557/557 587/587
l 558/558 581/581
l 558/558 584/584
l 559/559 566/566
l 560/560 624/624
l 561/561 572/572
l 567/567 610/610
l 567/567 621/621
l 570/570 629/629
l 576/576 622/622
l 576/576 624/624
l 579/579 616/616
l 582/582 609/609
l 582/582 627/627
l 583/583 626/626
l 587/587 596/596
l 588/588 597/597
l 591/591 620/620
l 591/591 628/628
l 593/593 631/631
l 593/593 638/638
l 594/594 629/629
l 594/594 630/630
l 596/596 638/638
l 598/598 618/618
l 598/598 632/632
l 601/601 607/607
l 602/602 634/634
l 603/603 606/606
l 604/604 605/605
