v 46.147339148267775 37.277127494584747 48.226901714417806
v 45.77729226304394 40.63074065307373 48.065690468498822
v 44.790153847224886 47.901298149792872 47.468491299393158
v 43.613297818726977 55.53892833613169 46.258982800935151
v 43.003157948567051 59.191863382343925 45.404432372376682
v 39.837824036274299 77.652421165872369 33.066593523123217
v 39.874732999999999 77.866645800000001 29.969841000000006
v 40.2448883 -78.107337999999999 29.969831500000002
v 40.766124499251184 -74.66828770409856 37.964872285653698
v 41.175210362285107 -69.646360887070216 41.432739420727728
v 42.330244494897656 -50.741974775340552 47.068221216374212
v 42.092940020564001 -54.213761811458681 46.484676173032945
v 42.599135360193728 -47.200659650105273 47.511443301009457
v 42.892900864734202 -43.656865898567389 47.81864644794652
v 43.866277385204185 -33.203134994977759 48.297483787744895
v 44.213046661737891 -29.760438417111494 48.354850512183617
v 46.341738643960497 1.8061895620931885 48.558637345399447
v 46.363187525863935 5.1727162781885223 48.560470242005877
v 46.367391273170156 8.4754992723143978 48.557839952038833
v 46.375733328794297 11.724093130749642 48.551873112611581
v 46.472574935343914 18.092618810294461 48.531773950487704
v 46.660798206199118 27.536466310573253 48.477668903885743
v 46.597391726676506 30.734881631051394 48.427064073297558
v 46.425893452127156 33.98028588991275 48.340397681142974
v 45.335510946231665 44.051603480059903 47.827401501143996
v 42.38797042590631 62.661629999941681 44.37024311587318
v 41.778064056178223 65.925430846654677 43.1733747334616
v 40.674357716453798 71.76036892827085 40.153850032450464
v 40.249785931389191 74.27396187758518 38.231076686113056
v 39.95995747410165 76.34916503007419 35.891911651545485
v 40.558889666565264 -76.626951043692571 35.674155405142635
v 40.376396027778185 -77.859689587882428 32.945252652400939
v 40.976264508335433 -72.289678141051382 39.860627190806788
v 41.35779304243809 -66.839720685516681 42.787952001004236
v 41.531371573918946 -63.882552796603278 43.930505497089591
v 43.205064196718126 -40.135459599397606 48.042235485174245
v 43.529813854636039 -36.658588757734947 48.195659884843607
v 44.565109267517528 -26.334194542236137 48.402864846021842
v 44.913996895231037 -22.926744539638101 48.440064196107457
v 45.247221843088091 -19.527446085467446 48.472819689383854
v 45.550904110539122 -16.109867232692075 48.497989537230055
v 45.811853682471124 -12.64143121967907 48.525816273686985
v 46.022490514107631 -9.0997766132671565 48.539309942260942
v 46.179499866803901 -5.4871067324370175 48.541241220475882
v 44.211209898988137 51.756115699722258 46.957910412233538
v 46.407865293470778 14.926853398963461 48.546232084730804
v 46.28354676772085 -1.8344042419332327 48.55279209298957
v 46.635222438075985 24.375946833743903 48.513268382596877
v 41.703515680365086 -60.793734279518972 44.915944938987707
v 46.558587566608239 21.235486239504791 48.526449259543597
v 41.195968514120288 68.963650342217505 41.780980304976147
v 41.886672399781695 -57.570150770148395 45.763501471760918
v 16.849988282128301 0.67221105426656447 -10.104094319871413
v 16.961760772339638 0.086842558407550577 -0.2586003890081765
v 15.877084546466953 -0.44909283253465204 8.6828098575464239
v 12.681780692411575 -0.52034866860845086 22.094143230611408
v 12.125636291616466 -0.43134580909092535 25.482358804115439
v 13.855081533863286 -0.20267721550375123 35.007356139820985
v 20.266131518179577 -0.11932565287311185 41.969573902594888
v 23.116191631876955 -0.082331723940180707 43.511200193615522
v 29.280982605922091 0.16055690249873905 45.955068331821366
v 32.584836965584891 0.40624859134734226 46.756300156180721
v 133.57465120294648 0.72891599620758551 35.162662978993431
v 39.400722223315995 1.0952416587390954 47.962161712319116
v 42.872640451563683 1.4687117123131699 48.313047788671874
v 50.015197265221943 2.0953353109563029 48.7226326428151
v 57.181033978254554 2.4048077141264592 48.702492206792982
v 11.003335703295519 0.71014621392226018 -38.299677487709268
v 16.134225317999459 0.86138264587638846 -17.041349788801789
v 16.555837774110504 0.79127881767572261 -13.542013975166768
v 17.068680542619731 0.30591835475402229 -3.4550661993404663
v 14.838352709965566 0.87716185126480839 -24.136815904907799
v 13.1728635614997 0.79448531997801197 -31.26420437459424
v 9.7113571369647858 0.70363494602600918 -41.77435064265444
v 7.051584700000002 0.73529880000000003 -48.754062699999999
v 13.468510862049515 -0.57441286714550643 18.638120182701073
v 12.148503994165363 0.74528906368163916 -34.793791916203546
v 14.09215243867871 0.84836156810797614 -27.714202848252835
v 15.574731793522744 0.88858328322259306 -20.583365412080575
v 16.353197537229981 -0.31008146272720372 5.8282075224514855
v 35.96286810510945 0.7274335209875904 47.436606049937694
v 46.341738643960497 1.8061895620931885 48.558637345399447
v 67.339799095233587 2.3943155477017362 48.184604330278901
v 64.027568154174773 2.4218928139701204 48.417653388384316
v 73.836429598731257 2.4312750330557922 47.582693575123791
v 70.602765981347289 2.3893045939081041 47.915879229309141
v 77.062303115281523 2.5287151375700478 47.217692447339857
v 83.504379601015359 2.8483849454629691 46.372530068460641
v 89.837323991017101 3.1989284689828494 45.402756979425327
v 92.906453390943739 3.3410316107054152 44.873842844537464
v 99.557931747702099 3.5269872577234622 43.632588252840591
v 95.89539600423069 3.446102704562414 44.327641329451062
v 103.10333781244998 3.5509945131761413 42.921560515659166
v 112.89740720299847 3.1723411610674161 40.738752124679223
v 109.76773812791498 3.3816083167576547 41.469666107562162
v 121.81633719118973 2.1116915738939435 38.505963373859657
v 127.67933031683461 1.2916377983030711 36.899755359821867
v 124.74271220172017 1.6890236282541116 37.723995491194046
v 12.228990762174027 -0.34165632557284553 28.81964390761943
v 26.127792293015425 0.0016494956073424358 44.836772755506331
v 144.31783165558073 0.81464732082177371 31.602375219600475
v 148.76905819999999 1.1466470000000002 29.969837200000001
v 136.46489599666967 0.61214442996903262 34.249788922168278
v 53.634794701044193 2.2957073855726655 48.749818056647186
v 60.645218107052081 2.4373567106772516 48.596183309032483
v 141.87699485085133 0.68197283464476266 32.458442868041615
v 16.715972873667603 -0.12505498435296314 2.8404330576856172
v 86.695590569233175 3.0299049010904779 45.899055640224205
v 139.2502389473164 0.60429463112936399 33.34326958891883
v 118.88889081396715 2.5197571713714244 39.272481034709728
v 115.92575393259793 2.8809024046199703 40.007101195480658
v 14.35510835345033 -0.58154559835204034 15.075294334481676
v 130.63099533020497 0.96063401949640115 36.047164042512478
v 80.287932278716056 2.6739417635606704 46.819835047919
v 15.28248832796811 -0.53304152895892976 11.373042558933639
v 8.4423858034860544 0.71240482186201781 -45.279454038084495
v 106.50705947527288 3.5060340612189078 42.194829923066479
v 17.004195740848328 0.50638653297735492 -6.7387868705994656
v 15.524946222154409 -0.16720066231145805 37.716062215200523
v 12.571918564532464 -0.24973967859176571 32.064610140858818
v 17.761690489616445 -0.13664371377241627 39.976290357640963
v 146.59338941607555 0.97543258318043724 30.778608443914813
v -24.347984300000007 0.83269610000000005 -48.754062699999999
v -30.924816065745247 -1.214550952779716 26.182539706027381
v -22.961819295034918 0.36361420137302414 -45.550099665498351
v -21.829982653216661 -0.072326954197908494 -42.207392495567674
v -20.858810051758606 -0.42138790278786148 -38.747594760805207
v -18.279603027773938 -1.1267693455595293 -28.01083432873552
v -16.981899595938067 -1.8796031693630757 -10.207339239730839
v -19.213330933726596 -1.9105866397964992 4.0022103850523782
v -20.198824501664166 -1.8420760384421346 7.4360126459873577
v -22.823162499571552 -1.6400375469997979 14.060187801076982
v -33.49747822980261 -1.1813963093617939 28.726491651416918
v -19.897803403190046 -0.7010767332527692 -35.219938043413968
v -17.742110802868787 -1.2943023487292469 -24.388359914725747
v -17.20473895880594 -1.6413068636762924 -17.249723864351061
v -24.48495680595255 -1.5188034141154612 17.282109483943579
v -26.38797335808691 -1.3946003217379508 20.415351717765589
v -28.52012305586041 -1.2859937120631064 23.416797536479827
v -36.25417327558867 -1.1861387851566731 30.967908540549324
v -45.065074715250432 -1.2096918170771693 36.165067453343575
v -18.984294571608189 -0.91388192918787559 -31.638676915830132
v -21.413834013634673 -1.7505983687013771 10.771855138581152
v -42.07521935417391 -1.2200473445995148 34.655659280617741
v -51.138169393123619 -1.1212834737989508 38.527588905199067
v -54.176030740958865 -1.0852541598561432 39.444405189444247
v -66.401448212443285 -1.6594811158066411 41.862822582324426
v -69.598397183856065 -2.0460987394945089 42.219078891137485
v -17.73443049072943 -1.9674641058796063 -3.084979218559905
v -18.393049163829232 -1.9549086352177094 0.48632947489654399
v -39.13319599410832 -1.2066947789787741 32.925738688274521
v -72.898007899801414 -2.5112065442870084 42.480972048541048
v -76.30778767607768 -3.0302877407292108 42.64099321130719
v -17.270314612681204 -1.9411926515680786 -6.6589191979353402
v -103.5472587738299 -6.7345392495627898 40.857619164566259
v -106.79534234754021 -7.1001633613259365 40.355881218299658
v -129.89993963568375 -8.59245758386189 34.918269198350622
v -132.75049149901554 -8.6104588860266453 33.965219529858103
v -137.5912349891276 -8.5454720630971917 32.183890243676728
v -79.829815659621346 -3.5776454692598394 42.696999444944836
v -83.467927023959163 -4.131418784754592 42.657034599897401
v -87.230368196919159 -4.6772752307540806 42.51745712860297
v -91.125896340381104 -5.2091744243207128 42.272864841706529
v -95.156193720909073 -5.7276586799934801 41.916100614055921
v -99.307560023018084 -6.2357909460256673 41.440162016754826
v -57.201450032039823 -1.0967869462776783 40.2297605927034
v -135.32226506225601 -8.5943427220879087 33.043408605900872
v -123.57948033294601 -8.4302469904354549 36.773180997731956
v -126.82248149461999 -8.5354519739606474 35.867086095435653
v -110.09877068545327 -7.4484730699720316 39.778974546578375
v -113.45615938631659 -7.7687838606276927 39.131299536481734
v -116.84717065842736 -8.0463556941526964 38.414950373413454
v -120.23625857501915 -8.2684572593125036 37.626070035060579
v -63.291714189165987 -1.370770986738358 41.396635442738884
v -16.988053091717859 -1.7718858748833095 -13.733242197837566
v -17.411295820539806 -1.4750430714492189 -20.796874295109053
v -60.231965592629393 -1.185025979868408 40.876819246505733
v -48.095144735862505 -1.1725063354756191 37.44446885795336
v -141.32388208356878 -8.3558040172671362 30.669324324086674
v -142.94636535000001 -8.2304036499999995 29.969837200000001
v -139.57198812117062 -8.4644140758796116 31.396845554489758
v 15.034913053207285 6.1218102784477715 10.620974436372217
v 13.815198431352806 12.465717085442073 9.1220154893100283
v 12.903576104341051 15.41718363692604 8.2011721498893237
v 10.201677140985115 20.660497227340187 6.2253193787358949
v 8.3722160167099098 22.895373816835949 5.2591280936274183
v 6.1032402826002201 24.699088597609482 4.3477848395189014
v 0.32132940198547399 26.280183878627639 2.9047390631397896
v -2.8869991171855744 25.97125000163409 2.447992666465646
v -6.1102378415420713 24.957981348547598 2.1844229546652585
v -8.4515027455840723 23.64708767672542 2.1471134000335113
v -10.627889816870907 21.842075163682928 2.2688400267902527
v -12.615177352206253 19.650967035331952 2.505115839005331
v -17.203844438157521 11.397497877293535 3.4613020788295277
v -18.86665618549236 4.9265727135279826 3.8684983489824747
v -19.213330933726596 -1.9105866397964992 4.0022103850523782
v -18.87171926410139 -5.2300018256167293 4.0359812921909066
v -16.247947243599157 -14.447909112715958 4.1240492944688452
v -14.920796949143451 -17.200130950352644 4.1071603325755124
v -13.366342289142981 -19.773617908736043 4.044582760949381
v -11.498464342118101 -22.094307012423961 3.9747315880847944
v -9.3235308063842481 -24.107728998941457 3.9434810895680692
v -6.8337401503704935 -25.686963505331345 4.0211535852233329
v -4.0929154632022273 -26.690647321883731 4.2729880264655398
v -1.2538587731405073 -27.152935742314028 4.691637229091536
v 1.5694798733768653 -27.014978025266075 5.2934982168681701
v 4.26659783717413 -26.288747660002635 6.0444505895909089
v 6.6249581376586573 -24.810994788594741 6.9445931060620438
v 8.6500232905532179 -22.825489007727533 7.8972254947526501
v 10.356905858156679 -20.422488187695549 8.8203578233025652
v 11.782504503079192 -17.677693661641179 9.6632427071389895
v 12.951905670290337 -14.643233993631439 10.381558159484621
v 13.900561467674724 -11.371790080860929 10.940016744738672
v 14.547012965113034 9.3629170348663457 9.9497521257980104
v 15.080023506230926 -4.2720638291085908 11.454637568645509
v 15.270980809784621 2.7989541850810737 11.100234007548877
v 15.28248832796811 -0.53304152895892976 11.373042558933639
v -14.381562042519056 17.140799988094464 2.8176161853729096
v -19.222499240927775 1.5230808914417886 3.954679600438924
v -15.92217846472615 14.377996037966632 3.152332747747348
v -18.24165783232564 -8.4486525192995678 4.0706774336122997
v -17.375052774414854 -11.533633216383089 4.1009725575051199
v -18.235784609165393 8.2451522274366997 3.6966983127868951
v 11.720990740772823 18.165887327195477 7.2197226767640856
v 14.613882965861215 -7.9002834104587416 11.305348918145418
v 3.3715681740660592 25.853924686695297 3.5463902458735657
v 96.184115676404176 -0.0028473113522963986 44.26931945820543
v 94.773811193281716 13.686067469163847 44.555070063833291
v 94.335798423918305 27.408297201140648 44.611790879104831
v 94.833265440985372 34.373399698781526 44.457481683768229
v 95.897946128770386 47.676102879762055 43.892177223988597
v 94.702474408646765 76.528703405660835 39.52827682177805
v 94.097751063894023 81.362494173888507 36.800327460487949
v 99.323936500000016 -84.7136383 29.969831500000002
v 98.938052082510893 -84.258432436608047 33.135291821876294
v 98.346833524113777 -79.822669981022472 37.649509418372958
v 96.801853929018591 -47.962276959135899 43.676299676253414
v 96.270603979210946 -20.800986038633958 44.256485751736051
v 96.434576395809444 -13.903453579879731 44.229733028621339
v 95.89539600423069 3.446102704562414 44.327641329451062
v 95.535883833539117 6.8846570545728571 44.404486339227283
v 95.145085614688995 10.292693863395598 44.480836098320083
v 94.24055355630307 23.938209302167998 44.640983044105809
v 94.54631091905037 30.894115976038684 44.544570998293139
v 95.145332414740921 37.817331680193774 44.329226606823838
v 95.446993969878832 41.197534410526096 44.201137046278568
v 95.702460832891973 44.488683485251173 44.045960825797806
v 96.050503851414049 51.345755437823442 43.67968398774282
v 96.128455023342411 54.895635442722735 43.450395737463815
v 95.362724364901368 70.896682026356416 41.274116291169307
v 95.037187763089662 73.778766384276281 40.494312432153208
v 94.382787744723686 79.07805064306136 38.297927150684572
v 93.618141199999997 84.349304200000006 29.969841000000006
v 97.859267514286202 -70.57803532922847 41.046333962231998
v 97.749681266775696 -67.182521921100687 41.763153803586512
v 97.448982129917084 -59.949710224480611 42.749502440749239
v 97.030927226923012 -52.124118407884836 43.419360513392022
v 97.253495017552581 -56.117319664367692 43.13044824555999
v 96.640955387349024 -44.852621793078228 43.819403975156298
v 96.496938742317951 -41.588304631674077 43.955399355860777
v 96.371320670908119 -38.201222514905552 44.051803800807193
v 96.276417305235157 -34.736256370434923 44.13993681961599
v 96.214379338567966 -31.237086156229793 44.19582544056945
v 96.19259775845731 -27.738468931601808 44.233334968310615
v 96.213074777264737 -24.259126972420745 44.254469509234411
v 96.351112437178813 -17.353829825319242 44.239868708077857
v 96.486655003394972 -10.439836637082228 44.215609895410459
v 96.476480932905559 -6.9619747491752983 44.211656972786059
v 96.380419715976331 -3.4781048186548622 44.233517177913477
v 93.867721413479444 83.070131881924098 34.803687569879301
v 97.980078606931897 -73.836558550596322 40.199063025989076
v 98.136255072890833 -76.930258308902097 39.093260075712209
v 97.615625027097224 -63.637147132208838 42.309414918646695
v 94.472747841329735 17.081929215094291 44.610106973223992
v 94.287709641120586 20.496027712373753 44.647545825788399
v 95.882193590140886 64.818461928104938 42.402215974649266
v 96.043214324359141 61.626765926592981 42.82332096763453
v 96.123006437151673 58.319645869029564 43.148205600839596
v 95.652571231229331 67.90922637218469 41.907899923549842
v 98.617017460500904 -82.404369945619976 35.745504816558558
v 93.737436859501429 84.002763528698495 32.437699245679006
v -110.36563110000003 82.330635099999995 29.969841000000006
v -110.44174960864251 73.276848909833944 37.450714324824347
v -110.42543310544232 63.064755388598442 39.316801704361353
v -110.52952301984377 45.8367234052225 40.257470645276598
v -110.81269659514305 34.907514628292084 40.332031537365452
v -110.77522249065211 27.41157668817397 40.313435434522084
v -110.09701350797421 19.920098246921082 40.338546940583967
v -108.62193470027776 12.406829987503446 40.473912743627984
v -106.61435830816801 4.8276785091449526 40.667836985099285
v -105.55680638093264 0.99601226800095877 40.752816005733123
v -103.5472587738299 -6.7345392495627898 40.857619164566259
v -99.467685831738351 -23.705173560031319 40.978409696114355
v -98.071535824024892 -30.613468104786797 40.860171346292475
v -97.446470820780121 -38.189018623098072 40.524227081799765
v -97.854461675358635 -44.44493115260795 39.958088895219376
v -100.56181561338897 -51.657735480825856 38.5935216440703
v -101.92351160696964 -54.123200579442141 37.910766969984522
v -103.40938809043647 -56.535338700095579 37.083784838264378
v -104.96679778635995 -58.893620387124244 36.13372509195213
v -108.06714575115623 -63.430326890123581 33.669681253492179
v -110.46661273683111 76.330078120292825 36.30928064351609
v -110.42501115709871 69.984509849777794 38.277773384769773
v -110.41942701290532 66.552667851947291 38.867946327799693
v -110.43403816656445 59.570545315601201 39.649842937644657
v -110.44046197405694 56.095869778740507 39.883585273696156
v -110.45278162731628 52.64941158091947 40.06408053912206
v -110.71724689787504 38.677729348535628 40.329479952166338
v -110.84969042357822 31.156148061294211 40.31988990971368
v -110.53535046465653 23.667243283078385 40.311685239238223
v -109.45143581866955 16.168019841803584 40.392491792592608
v -107.65510184478711 8.629571376259884 40.565123096199827
v -101.91374104620877 -13.579887746198818 40.923879950340101
v -100.27970095421074 -20.336567713908948 40.959500983068992
v -98.705608206638701 -27.110771364353738 40.923903937814174
v -97.629981668394294 -34.281098964982576 40.727952818723352
v -97.562464567938292 -42.401943700492225 40.17675618641249
v -98.474709577913274 -46.739744947835455 39.620053093807385
v -99.392168535416673 -49.174843947480589 39.160014688043276
v -106.53309564585831 -61.191662883658523 35.000424853793064
v -109.4974042698167 -65.545006059092572 32.019614742621314
v -110.7542572 -67.422393799999995 29.969831500000002
v -110.48112567758281 78.997229915147983 34.723269421582984
v -110.47731812460022 49.228504153879015 40.172084478272652
v -104.52779653709848 -2.8628564924045179 40.817911532171237
v -102.72126724824678 -10.166919574186235 40.903459922427146
v -101.10580900846975 -16.969060277899189 40.965324598560372
v -110.60814191691604 42.48308861272244 40.301804017200887
v -110.44254892185546 80.964328779022424 32.508854666266316
v 118.4893860099466 44.580934801881455 39.405896839156512
v 125.1153745366985 44.697628025929745 37.762394711143877
v 128.47852058795112 44.917198899311288 36.857315387012065
v 144.33344617769612 46.274006428963233 31.966925450615495
v 147.14763250364899 46.558834834941791 30.968537937136489
v 149.89620970000001 46.853168500000002 29.969837200000001
v 95.897946128770386 47.676102879762055 43.892177223988597
v 73.307888812296781 48.021319747907214 46.679693237666285
v 65.603860424274643 47.143760392937445 47.257603692205336
v 57.716452571909052 45.951823159661224 47.652957011052557
v 41.68986703724444 43.615882115334593 47.793692473610839
v 34.24227513272146 43.07772029996768 47.564557472617182
v 30.452474843833535 42.981880234964883 47.405138159047382
v 26.636892634132842 42.977686299344484 47.21288465420723
v 18.999477371157234 43.120249735311582 46.770169458110843
v 22.812788030481112 43.034843166143474 47.007152709597726
v 15.209985464527417 43.205970383727418 46.553553297256009
v 11.459469285067863 43.274053699790883 46.325295528691093
v 7.7582792821669875 43.310990305095132 46.102137509088649
v 0.55150585121491358 43.279251569713722 45.670252193556806
v -2.9286703574681843 43.214449702016751 45.451936340301486
v -6.3147970005864655 43.130113621546528 45.214163919366555
v -9.6150134750126561 43.031338743277232 45.001386679253116
v -12.848712847304331 42.934075579410276 44.783724911981707
v -20.280733903599469 42.758008723069636 44.279197231902636
v -23.907048253980946 42.685754723944527 44.115281789311766
v -27.476790217801881 42.638661334800311 43.968927970772995
v -31.010263847047163 42.614998643188969 43.822171704531769
v -34.530991690179093 42.604624708861714 43.691458227317966
v -38.054428648098884 42.605998334377958 43.582963863972253
v -41.581797984015964 42.630550907940659 43.48015581791838
v -45.099825841489505 42.690377704886423 43.386219893247009
v -48.582937459294591 42.791012767054127 43.298356313520991
v -52.002819299080102 42.917633099344954 43.236209393229004
v -58.599315955610962 43.141569103906733 43.160255247931161
v -61.80948502117856 43.184456820917802 43.114184339244574
v -65.01700099187525 43.172768577272407 43.076579217240564
v -68.26540467152509 43.129609174261574 43.012666019294628
v -78.417447848535673 43.093581770885351 42.809822704670033
v -85.395507478526753 43.189448060368377 42.574170545536646
v -95.952761139289592 43.088399683825372 41.927953619343093
v -122.41640841168039 42.400181757915313 38.26759969304166
v -133.5570888131943 42.784033194701735 35.625719709070431
v -136.92618690167666 42.90310913989677 34.658955833197751
v -140.04104223371752 42.983026693449588 33.6800985962292
v -145.42560877846762 43.021225294791705 31.775458478495008
v -149.95135500000001 42.9618568 29.969837200000001
v 115.25296465831485 44.750024017604801 40.158753836620463
v 112.05533825757085 45.07588586583455 40.865829330729774
v 121.77747130156476 44.571329237620596 38.607069653805979
v 131.8335101625961 45.183661871676179 35.912810430328804
v 99.220088504070759 47.195154707062571 43.340808451990959
v 105.69158942424235 46.071790128355644 42.163183538266047
v 102.48043563015304 46.644485677801569 42.769856046508657
v 108.87669101593421 45.531430169240352 41.535234803252266
v 84.741644983708099 48.47766571467313 45.462355914460638
v 77.129974740725942 48.299330497032528 46.303004559104252
v 88.509825325906377 48.353427541864463 44.96915095722737
v 69.468529659850304 47.62985498106994 46.975729273018558
v 61.69255002082285 46.576745542869091 47.483633947835003
v 49.534194759793905 44.653089285638018 47.834545516698469
v 45.335510946231665 44.051603480059903 47.827401501143996
v 37.990620370341574 43.287766754357747 47.708183417810488
v -71.581927060224558 43.086528152050178 42.945478556714029
v -74.97098213258522 43.071185071880876 42.891726692796986
v -81.89887842488271 43.14185756672385 42.706631968850928
v -88.898192577324551 43.207405329231399 42.397357631190772
v -99.53659411272227 42.953663188649315 41.615990289443772
v -106.87237956045271 42.624555390465915 40.815970024956869
v -118.50784537660016 42.356814866717727 39.018436298226987
v 141.40013685860083 46.000831178651161 32.953411241825847
v 80.944193698510844 48.456440340076625 45.908901100082318
v 4.1177637667370171 43.313492770946311 45.889095773097296
v -55.340232305499818 43.046108481351297 43.187453764262202
v 92.234431290180339 48.082644147792386 44.447958596416768
v -103.17642372879995 42.790581747914359 41.248587862704326
v 53.664166657774487 45.299609122150635 47.778807244755143
v 138.33493543788205 45.733171993107895 33.957251389658069
v 135.13356701381389 45.461132737203741 34.940255280943134
v -142.87185706356729 43.020255139322664 32.712567730995779
v -129.98272515316211 42.641939988017945 36.560420015507432
v -126.25410831111824 42.503710340247416 37.44536605433521
v -16.591240054439524 42.83875637863143 44.50598025619253
v -110.60814191691604 42.48308861272244 40.301804017200887
v -114.56245289799554 42.385804586048728 39.697477418420988
v -92.412715599327811 43.175790101748774 42.190257525818026
v -147.75430861438369 42.997505647255849 30.868985164426078
v -85.977633067763946 -40.97281864038866 41.895989374135524
v -89.591720025011483 -41.176795728471333 41.448168582074516
v -104.67081221674584 -45.202671134932459 38.546442433710354
v -112.06496082473171 -49.886383373642118 36.012501037388745
v -114.21743502075684 -51.526290706904334 35.024656825182731
v -72.863933521335127 -41.243584014976385 42.922138327494395
v -76.009670729079346 -41.123453348666189 42.750401986359883
v -79.225824375000684 -41.011604508752036 42.524685233953861
v -66.686821632833258 -41.457592893671588 43.166543631058474
v -69.766121584216876 -41.356813900246173 43.054150946601702
v -60.429144433757841 -41.601311383940072 43.30336851119197
v -63.587072366903428 -41.540975978841644 43.246694432410649
v -53.865721216620258 -41.640315568026267 43.384236829685882
v -57.189253090633237 -41.633408252718986 43.352007747911664
v -50.477198838017259 -41.628700599175318 43.437442204551076
v -43.611670005672515 -41.632081413039494 43.435960166285767
v -47.050250647486124 -41.622576636451114 43.426411874297571
v -40.183001940044434 -41.660957144625073 43.460951772387752
v -26.802223182351558 -41.70325237821303 43.70752187349968
v -23.541320616892193 -41.61411703551785 43.80762505268391
v -20.288102557179052 -41.494848398851396 43.921543258600238
v -17.017526159722582 -41.394064111331254 43.996378300782951
v -13.710358305204256 -41.295981852147037 44.147554685340936
v -10.339712213670889 -41.280739998227659 44.312512949789095
v -6.8891982182810052 -41.338615811668973 44.532354813041763
v -3.3625996584577256 -41.457792101374942 44.964201732128529
v 0.26084842597926972 -41.673424185558986 45.353976272991034
v 3.9647355469363461 -41.959397706973689 45.706480349977568
v 7.7219356241298716 -42.265328407489008 46.027743347732141
v 11.500601060656077 -42.54365361121372 46.292774813137783
v 15.26257779054577 -42.752101926299126 46.545687999708306
v 18.978529449242433 -42.872895669816813 46.760005752774006
v 22.621561896507558 -42.910587103799955 47.000357522524808
v 26.182261501346957 -42.897284066494407 47.202038565620413
v 29.655515178512182 -42.882043125692867 47.383254522910349
v 33.046728163008822 -42.918185928700709 47.529567798756524
v 42.892900864734202 -43.656865898567389 47.81864644794652
v 39.640377580307629 -43.299732846388544 47.763721697524829
v 68.881297968749635 -46.141947480459287 47.128975639755438
v 75.767947442084676 -46.800170469962985 46.523769618963129
v 86.361424494409448 -47.964961424673305 45.247135093633368
v 96.801853929018591 -47.962276959135899 43.676299676253414
v 109.43591066557482 -46.152910165795987 41.315990062584433
v 134.79792480935208 -43.264746551308676 34.915546834399038
v -93.436319822142195 -41.632543085107727 40.8938378226254
v -97.562464567938292 -42.401943700492225 40.17675618641249
v -99.732407009466982 -43.021841441824307 39.742388560281711
v -109.71832135320288 -48.23576455806608 36.950278012845672
v -107.2277619060219 -46.648346344075456 37.79581199145197
v -82.537313093853044 -40.942388266164805 42.245419053864026
v -116.14086046584936 -53.08897764425177 34.017161151752461
v -117.81432531475204 -54.518427019724072 32.98857249356351
v 36.36813437545019 -43.050229951287214 47.654291066117295
v 62.275309582672357 -45.7402877018569 47.522970316535378
v 65.545161718511366 -45.923020571917348 47.348896332416473
v 72.29073607820709 -46.431601744370255 46.846800734372188
v 79.291242365630723 -47.219114470641486 46.149535093419644
v 82.830817857579945 -47.630845705119434 45.715877933223211
v 89.865578932432641 -48.154641913635601 44.747868847013407
v 93.342175730862195 -48.156713943155324 44.228778524048764
v 103.06983569859715 -47.175331346873982 42.571701828769385
v 99.926042275001492 -47.626938306053049 43.136164420285553
v 106.23786692669219 -46.666484506816282 41.959636365078978
v 112.65780377391377 -45.667413393887884 40.631315744587354
v 115.89237825332611 -45.223308070576508 39.901523391868075
v 119.12915177441502 -44.820469066866288 39.14411542586528
v 125.53740353256441 -44.115255156553637 37.527873608884583
v 128.68138898729853 -43.804939911586615 36.686604914102865
v 143.63530582643082 -42.709230487990027 32.061376593061865
v 140.71988760905992 -42.854046040503945 33.045363762085813
v 146.53231039856573 -42.601693676923844 31.036546185260114
v 149.41430660000003 -42.516540499999998 29.969837200000001
v -30.088744434149863 -41.750918198920246 43.60622797556541
v 52.637219896606922 -44.951677548251098 47.820462171324579
v 46.154402143851449 -44.090256731325013 47.865593158252857
v 131.76678577726284 -43.520914514352654 35.808755009370408
v 59.051116280437832 -45.543252283958068 47.648243852430227
v 55.846762830405154 -45.28849852283706 47.749108883260234
v 137.77796075602066 -43.040422105540188 33.994278760505992
v -33.413765553340198 -41.741608017444264 43.540957379607626
v -36.78010459024437 -41.705142395195587 43.492895946523674
v 49.406950945174479 -44.539189190768326 47.851148017975135
v -102.13816541208513 -43.972147429933869 39.197399072128391
v 122.34920561407611 -44.452824078504854 38.350169204578819
v -120.52901365730477 -56.947600170148739 30.970021069365988
v -121.69332125 -58.015365600000024 29.969834350000006
v -119.25781710476443 -55.796653089242056 31.964917000179256
v -6.4720469000000014 10.313137100000001 -48.754062699999999
v -10.67064278518046 31.477249534027756 31.253848537308663
v -5.9382071013032842 12.469563622452011 -33.768167653888142
v -8.2550138003812492 29.918121888542032 16.784178296618876
v -10.076384602064969 31.163182409182738 27.780456198115964
v -11.234767385556058 32.072306073818105 34.56928296809626
v -6.1318578457307824 10.901744443365134 -41.245787160859294
v -6.514228103364518 26.334686815959301 5.8473778892809491
v -8.8748872416179427 30.659638309907606 20.484171542475348
v -9.4749404542847415 30.978726611223401 24.177799860040217
v -12.183372427042961 34.710465938509934 40.418992309438039
v -7.6222778499367827 28.846965133946249 13.127337895757321
v -12.51040370092811 37.051159925946145 42.552248811002556
v -12.848712847304331 42.934075579410276 44.783724911981707
v -12.915341830819996 46.305605538317664 45.153735446458427
v -12.955006906820742 49.688962625861066 45.149254741247788
v -12.992104286043899 53.036935073212092 44.862466698217403
v -13.034045595053804 56.330562446003704 44.359242416889856
v -13.066287269918323 59.55902711051894 43.655256260394523
v -12.988746131779408 65.734548122262709 41.623415521490756
v -12.832149112378893 68.597868633857544 40.300128912966372
v -12.593950729410913 71.184920371709666 38.716463255873293
v -12.296521126589184 73.360958426513889 36.842116254411259
v -11.972832693231776 74.9863971496913 34.691137390336181
v -11.3184538 76.568366999999995 29.969841000000006
v -5.8364453819471409 23.558684285584079 -1.3662723165000039
v -6.1102378415420713 24.957981348547598 2.1844229546652585
v -7.0238876448877008 27.633439268907118 9.4889541942083895
v -6.0135133042275655 11.59174232115358 -37.499822676120246
v -5.6899142574919352 22.138637851523423 -4.9395007370139297
v -5.8377392220110789 15.524308655941091 -22.710932409794438
v -5.8802548762614713 14.470968652992864 -26.363904945997092
v -5.7699270797444902 16.656811410699486 -19.108114696859616
v -13.061119030770048 62.705497034961979 42.747091695296021
v -12.726462892510726 39.872738437932817 43.974990824211005
v -5.9039728363369832 13.448942461140675 -30.053511655813857
v -5.7218117390499694 17.937429332476484 -15.564471385539361
v -5.6378274783398616 20.69303073229684 -8.4937996649389227
v -5.6859784527131572 19.334995650615831 -12.052032803158237
v -11.745293957755642 33.046084226669166 37.688236507353714
v -6.3076460387824689 10.44643788445309 -44.996331280503654
v -11.655506995045299 76.019075513529316 32.363727916218934
v 149.36050420000001 19.247663500000002 29.969837200000001
v 5.4284762999999998 4.5150589999999999 -48.754062699999999
v 149.7602081 28.7218266 29.969837200000001
v 150 37.959186600000002 29.969837200000001
v 149.89620970000001 46.853168500000002 29.969837200000001
v 149.2402496 55.273174300000001 29.969837200000001
v 147.79261779999999 63.057449300000002 29.969840999999999
v 1.9992424 7.7182293 -48.754062699999999
v 145.2723694 70.001441999999997 29.969840999999999
v 141.3783722 75.865364099999994 29.969840999999999
v 135.73529049999999 80.329048200000003 29.969840999999999
v 128.2332916 83.220031700000007 29.969840999999999
v 119.31729129999999 84.760391200000001 29.969840999999999
v -2.0805289999999999 9.5209799000000004 -48.754062699999999
v 110.6507721 85.141899100000003 29.969840999999999
v 100.25675200000002 84.862213100000034 29.969841000000006
v 89.620185899999996 84.000427200000004 29.969841000000006
v 79.037742600000001 82.796112100000002 29.969840999999999
v 68.734039300000006 81.4479446 29.969840999999999
v -6.4720469000000014 10.313137100000001 -48.754062699999999
v 57.650531800000003 79.9501724 29.969840999999999
v 48.425743099999998 78.778442400000003 29.969841000000006
v 39.874732999999999 77.866645800000001 29.969841000000006
v 31.858526200000004 77.186851500000003 29.969841000000006
v 24.237936000000001 76.703620900000004 29.969840999999999
v 16.905723600000002 76.393837000000005 29.969840999999999
v -10.570051200000002 10.335269 -48.753498100000002
v 9.7670507000000004 76.238517799999997 29.969840999999999
v 2.7369275000000002 76.223098800000002 29.969840999999999
v -4.2650857000000002 76.336051900000001 29.969840999999999
v -11.3184538 76.568366999999995 29.969841000000006
v -18.5054512 76.913124100000005 29.969841000000006
v -25.914781600000001 77.365097000000006 29.969840999999999
v -15.005644800000004 9.5844736000000008 -48.751148200000003
v -33.647792799999998 77.920898399999999 29.969840999999999
v -41.818679799999998 78.577674900000005 29.969841000000006
v -50.585277600000005 79.337562599999998 29.969841000000006
v -59.898872400000016 80.154380800000013 29.969841000000006
v -19.173089999999998 7.7990212000000003 -48.744399999999999
v -110.36563110000003 82.330635099999995 29.969841000000006
v -119.81523129999999 81.567794800000001 29.969841000000006
v -128.34024049999999 80.040290799999994 29.969840999999999
v -22.333343500000002 5.0245547000000004 -48.740490000000001
v -135.4895325 77.5454407 29.969840999999999
v -141.02864070000001 73.983573899999996 29.969840999999999
v -145.0767822 69.414184599999999 29.969840999999999
v -147.7799225 63.918067899999997 29.969840999999999
v -149.34728999999999 57.604347199999999 29.969837200000001
v -150 50.584560400000001 29.969837200000001
v -149.95135500000001 42.9618568 29.969837200000001
v -24.347984300000007 0.83269610000000005 -48.754062699999999
v -149.39303590000003 34.824691799999997 29.969837200000001
v -23.641687399999999 -3.1348782000000002 -48.734229999999997
v -148.48826600000001 26.2472858 29.969837200000001
v -147.38272090000001 17.284942600000001 29.969837200000001
v -146.0402679 8.0808315000000004 29.969837200000001
v -144.4139404 -1.2389181 29.969837200000001
v -142.4571838 -10.5608988 29.969837200000001
v -140.11828610000003 -19.774255799999999 29.969837200000001
v -21.070545200000002 -6.4903374000000014 -48.744098700000009
v -137.3395233 -28.763999900000002 29.969837200000001
v -134.05520630000001 -37.4045372 29.969837200000001
v -130.19052120000001 -45.553085299999999 29.969837200000001
v -125.6599808 -53.041404700000001 29.969837200000001
v -120.37110140000003 -59.673355100000016 29.969831500000002
v -17.3979645 -8.8654527999999999 -48.748584700000002
v -114.2176971 -65.201637300000002 29.969831500000002
v -107.29081730000004 -69.643158 29.969831500000002
v -99.725151100000033 -73.0661621 29.969831500000002
v -91.676795999999996 -75.569229100000001 29.969831500000002
v -83.312683100000001 -77.278770399999999 29.969831500000002
v -13.4891176 -10.0677719 -48.752601599999998
v -74.794395399999999 -78.335998500000002 29.969831500000002
v -66.2665863 -78.884902999999994 29.969831500000002
v -57.850524900000018 -79.062027 29.969831500000002
v -49.641059900000002 -78.989677400000005 29.969831500000002
v -41.7131653 -78.774482699999993 29.969831500000002
v -9.2804327000000004 -10.5288839 -48.753982499999999
v -34.106597899999997 -78.501182600000007 29.969831500000002
v -26.724399600000002 -78.199058500000007 29.969831500000002
v -19.494356199999999 -77.895393400000003 29.969831500000002
v -12.3502302 -77.613174400000005 29.969831500000002
v -5.2323035999999998 -77.373878500000004 29.969831500000002
v 1.9164407000000001 -77.198303199999998 29.969831500000002
v -5.1525764000000001 -10.2935781 -48.754062699999999
v 9.1525517000000001 -77.107780500000004 29.969831500000002
v 16.534902599999999 -77.125282299999995 29.969831500000002
v 24.127258300000001 -77.276519800000003 29.969831500000002
v 32.002494800000001 -77.591972400000003 29.969831500000002
v 40.2448883 -78.107337999999999 29.969831500000002
v 48.965988200000012 -78.873138400000016 29.969831500000002
v -1.2706232000000004 -9.3973598000000003 -48.754062699999999
v 58.280937199999997 -79.935226400000005 29.969831500000002
v 68.101753200000005 -81.189567600000004 29.969831500000002
v 87.491691599999996 -83.601852399999999 29.969831500000002
v 99.323936500000016 -84.7136383 29.969831500000002
v 2.8603244000000001 -7.2462859000000002 -48.754062699999999
v 109.61685180000001 -85.141899100000003 29.969831500000002
v 119.3291931 -84.759925800000005 29.969831500000002
v 128.04563899999999 -83.267517100000006 29.969831500000002
v 135.35856630000001 -80.4076843 29.969831500000002
v 140.85305790000001 -75.954238899999993 29.969831500000002
v 5.9663390999999999 -3.8193772000000004 -48.754062699999999
v 144.65931699999999 -70.094070400000007 29.969831500000002
v 147.1466064 -63.153362299999998 29.969831500000002
v 148.60966490000004 -55.37387080000002 29.969837200000001
v 149.3200989 -46.960125000000012 29.969837200000001
v 149.5085297 -38.072948500000003 29.969837200000001
v 7.051584700000002 0.73529880000000003 -48.754062699999999
v 149.3752136 -28.841941800000001 29.969837200000001
v 149.09677120000001 -19.372879000000001 29.969837200000001
v 149.9481049 42.406169900000002 29.969837200000001
v 149.56822199999999 51.063171400000016 29.969837200000001
v 148.51643369999999 59.165313700000013 29.969837200000001
v 146.53250120000001 66.529441800000001 29.969840999999999
v 143.32537840000001 72.933402999999998 29.969840999999999
v 138.5568237 78.097206099999994 29.969840999999999
v 131.98429870000001 81.774543800000004 29.969840999999999
v 123.7752914 83.990203899999997 29.969840999999999
v 114.36499019999999 84.978393600000004 29.969840999999999
v 104.18073270000001 85.005432100000021 29.969841000000006
v 93.618141199999997 84.349304200000006 29.969841000000006
v 83.001960800000006 83.262412999999995 29.969841000000006
v 72.583610500000006 81.959114099999994 29.969840999999999
v 53.03813550000001 79.3643036 29.969841000000006
v 44.150238000000002 78.322547900000004 29.969841000000006
v 35.866630600000001 77.526748699999999 29.969841000000006
v 28.048223500000002 76.945236199999997 29.969841000000006
v 20.571832700000002 76.548736599999998 29.969840999999999
v 13.336385699999999 76.316177400000001 29.969840999999999
v 6.2519859999999996 76.230812099999994 29.969840999999999
v -0.76407639999999999 76.279571500000003 29.969840999999999
v -7.7917695000000009 76.452209499999995 29.969841000000006
v -14.911951999999999 76.7407532 29.969841000000006
v -149.97567749999999 46.773208600000011 29.969837200000001
v -149.67219539999999 38.893276200000003 29.969837200000001
v -148.9406433 30.535995499999999 29.969837200000001
v -147.93548580000001 21.7661114 29.969837200000001
v -146.71150209999999 12.6828833 29.969837200000001
v -145.22711179999999 3.4209855 29.969837200000001
v -143.43554689999999 -5.8999084999999996 29.969837200000001
v -141.287735 -15.167578700000002 29.969837200000001
v -138.72891240000001 -24.2691269 29.969837200000001
v -135.6973572 -33.084262799999998 29.969837200000001
v -132.1228485 -41.478809400000003 29.969837200000001
v -127.92526250000002 -49.297244999999997 29.969837200000001
v -123.01554109999999 -56.357376100000003 29.969837200000001
v -117.29439540000001 -62.4375 29.969831500000002
v -110.7542572 -67.422393799999995 29.969831500000002
v -103.5079803 -71.354659999999996 29.969831500000002
v -95.700973500000003 -74.317695599999993 29.969831500000002
v -87.494743299999996 -76.424003600000006 29.969831500000002
v -79.053535499999995 -77.8073883 29.969831500000002
v -70.530502299999995 -78.610450700000001 29.969831500000002
v -62.058555599999998 -78.973472600000008 29.969831500000002
v -53.745792399999999 -79.025856000000005 29.969831500000002
v -45.677108799999999 -78.882080099999996 29.969831500000002
v -37.909881599999999 -78.637825000000007 29.969831500000002
v -30.415500600000001 -78.350120500000003 29.969831500000002
v -23.109371199999998 -78.047233599999998 29.969831500000002
v 149.44186400000001 -33.4574432 29.969837200000001
v 149.23599239999999 -24.107406600000001 29.969837200000001
v 148.99835210000001 -15.7660179 29.969837200000001
v 148.78746029999999 -4.9096513000000002 29.969837200000001
v 148.8543549 4.7807411999999996 29.969837200000001
v 149.1642914 14.4369364 29.969837200000001
v 149.5603485 23.984745 29.969837200000001
v 149.88009640000001 33.340499899999998 29.969837200000001
v -22.210119200000001 77.139106799999993 29.969840999999999
v -29.7812862 77.642997699999995 29.969840999999999
v -37.733234400000001 78.249290500000001 29.969841000000006
v -46.201976799999997 78.957618699999998 29.969841000000006
v -55.242076900000008 79.745971699999998 29.969841000000006
v -63.561782800000017 80.458435100000003 29.969841000000006
v -74.719833399999999 81.329299899999995 29.969840999999999
v -84.919021599999994 81.968811000000002 29.969840999999999
v -95.205230700000001 82.373329200000001 29.969840999999999
v -105.3555527 82.416542100000001 29.969840999999999
v -115.0904388 81.949218800000011 29.969841000000006
v -124.0777283 80.804039000000003 29.969841000000006
v -131.91488649999999 78.792869600000003 29.969840999999999
v -138.25907900000001 75.764511100000007 29.969840999999999
v -143.05271909999999 71.698875400000006 29.969840999999999
v -146.42836 66.666122400000006 29.969840999999999
v -148.56359860000001 60.761207599999999 29.969837200000001
v -149.67364499999999 54.094455699999997 29.969837200000001
v -15.922284100000001 -77.754287700000006 29.969831500000002
v -8.7912645000000005 -77.493530300000003 29.969831500000002
v -1.6579288000000001 -77.286094700000007 29.969831500000002
v 5.5344962999999998 -77.153045700000007 29.969831500000002
v 12.8437281 -77.116539000000003 29.969831500000002
v 20.331079500000001 -77.200904800000004 29.969831500000002
v 28.064870800000001 -77.4342422 29.969831500000002
v 36.123683900000003 -77.849647500000003 29.969831500000002
v 44.605445900000007 -78.490241999999995 29.969831500000002
v 53.623466499999999 -79.404174800000007 29.969831500000002
v 71.935546900000006 -81.686996500000006 29.969831500000002
v 83.563194300000006 -83.136520399999995 29.969831500000002
v 103.1837769 -84.874221800000015 29.969831500000002
v 113.2589874 -84.998649599999993 29.969831500000002
v 123.68741609999999 -84.013725300000004 29.969831500000002
v 131.70210270000001 -81.837593100000007 29.969831500000002
v 138.10580440000001 -78.180969200000007 29.969831500000002
v 142.75617980000001 -73.024154699999997 29.969831500000002
v 145.90295409999999 -66.623718299999993 29.969831500000002
v 147.8781433 -59.263614699999998 29.969831500000002
v 148.96487430000002 -51.166996000000005 29.969837200000001
v 149.41430660000003 -42.516540499999998 29.969837200000001
v 61.3256607 80.447929400000007 29.969840999999999
v 148.89991760000001 -12.159161599999999 29.969837200000001
v 148.7640533 -2.4871799999999999 29.969837200000001
v 148.76905819999999 1.1466470000000002 29.969837200000001
v 149.01712040000001 10.828883200000002 29.969837200000001
v 116.84114839999999 84.869377099999994 29.969840999999999
v 106.79672239999999 85.100914000000003 29.969840999999999
v 96.283462499999999 84.581886300000008 29.969841000000006
v 85.644760099999999 83.573257400000003 29.969840999999999
v 75.149970999999994 82.299896200000006 29.969840999999999
v 65.000778199999999 80.945709199999996 29.969840999999999
v -70.929931600000003 81.056220999999994 29.969840999999999
v -81.059532200000007 81.762245199999995 29.969840999999999
v -91.3500595 82.276504500000001 29.969840999999999
v -101.59798430000002 82.480957000000004 29.969841000000006
v 60.736141199999999 -80.2488022 29.969831500000002
v 79.634697000000003 -82.671180699999994 29.969831500000002
v 91.431877099999994 -83.99614720000001 29.969831500000002
v 148.82258610000002 -8.5433464000000008 29.9698505
v 148.91119380000001 7.2034693000000001 29.969837200000001
v 149.26240540000001 16.842304200000001 29.969837200000001
v -67.224693299999998 80.762496900000002 29.969840999999999
v -77.246437099999994 81.511337299999994 29.969840999999999
v -87.492012000000003 82.106514000000004 29.969840999999999
v -97.775352499999997 82.437881500000003 29.969840999999999
v -107.8605804 82.373588600000005 29.969841000000006
v 64.418945300000004 -80.719184900000002 29.969831500000002
v 75.769340499999998 -82.184440600000002 29.969831500000002
v 95.377914399999995 -84.354888900000006 29.969831500000002
v 107.04361720000001 -85.034835799999996 29.969831500000002
v 116.90110780000001 -84.855430600000005 29.969831500000002
v 59.488096249999998 80.199050900000003 29.969840999999999
v -2.5145810500000003 76.307811700000002 29.969840999999999
v -9.5551116500000006 76.510288250000002 29.969841000000006
v -16.708701599999998 76.826938650000017 29.969841000000006
v -149.96351625 44.867532700000005 29.969837200000001
v -142.94636535000001 -8.2304036499999995 29.969837200000001
v -51.693426150000015 -79.007766700000005 29.969831500000002
v -28.5699501 -78.274589500000005 29.969831500000002
v -86.205516799999998 82.03766250000001 29.969840999999999
v -145.75257110000001 68.040153500000002 29.969840999999999
v -17.708320149999999 -77.824840550000005 29.969831500000002
v 73.852443700000009 -81.935718550000004 29.969831500000002
v 115.60306929999999 84.923885350000006 29.969840999999999
v 55.344333650000003 79.657238000000007 29.969840999999999
v 8.0095183500000005 76.234664949999996 29.969840999999999
v 0.9864255500000001 76.251335150000003 29.969840999999999
v -6.0284276000000014 76.394130700000005 29.969841000000006
v -20.357785200000002 77.026115449999992 29.969840999999999
v -149.5104675 55.849401450000002 29.969837200000001
v -149.8117752 40.927566499999998 29.969837200000001
v -118.8327484 -61.055427550000019 29.969831500000002
v -47.659084350000001 -78.935878750000001 29.969831500000002
v 70.018650050000005 -81.438282049999998 29.969831500000002
v 149.31145480000001 18.044983850000001 29.969837200000001
v 87.632473000000019 83.786842300000032 29.969841000000006
v 4.4944567499999994 76.226955449999991 29.969840999999999
v -106.60806655000002 82.395065350000024 29.969841000000006
v -144.06475065000001 70.556530000000009 29.969840999999999
v -148.95544430000001 59.182777399999999 29.969837200000001
v -14.13625715 -77.683731050000006 29.969831500000002
v 105.11369705 -84.954528800000006 29.969831500000002
v 115.0800476 -84.927040099999999 29.969831500000002
v 148.76655575000001 -0.6702665000000001 29.969837200000001
v 148.81170655 2.9636941000000001 29.969837200000001
v 118.07921984999999 84.814884149999997 29.969840999999999
v 149.2133484 15.639620300000001 29.969837200000001
v -109.11310575000002 82.35211185 29.969841000000006
v 108.3302345 -85.088367449999993 29.969831500000002
v 118.11515045 -84.807678199999998 29.969831500000002
v -89.421035750000001 82.191509249999996 29.969840999999999
v 51.294727350000002 -79.138656600000004 29.969831500000002
v -121.69332125 -58.015365600000024 29.969834350000006
v 91.61916355000001 84.174865699999998 29.969841000000006
v -32.261049249999999 -78.425651549999998 29.969831500000002
v -143.92474364999998 -3.5694132999999999 29.969837200000001
v 46.785717050000002 -78.681690199999991 29.969831500000002
l 8/8 32/32
l 32/32 31/31
l 31/31 9/9
l 9/9 33/33
l 33/33 10/10
l 10/10 34/34
l 34/34 35/35
l 35/35 49/49
l 49/49 52/52
l 52/52 12/12
l 12/12 11/11
l 11/11 13/13
l 13/13 14/14
l 14/14 36/36
l 36/36 37/37
l 37/37 15/15
l 15/15 16/16
l 16/16 38/38
l 38/38 39/39
l 39/39 40/40
l 40/40 41/41
l 41/41 42/42
l 42/42 43/43
l 43/43 44/44
l 44/44 47/47
l 47/47 17/17
l 17/17 18/18
l 18/18 19/19
l 19/19 20/20
l 20/20 46/46
l 46/46 21/21
l 21/21 50/50
l 50/50 48/48
l 48/48 22/22
l 22/22 23/23
l 23/23 24/24
l 24/24 1/1
l 1/1 2/2
l 2/2 25/25
l 25/25 3/3
l 3/3 45/45
l 45/45 4/4
l 4/4 5/5
l 5/5 26/26
l 26/26 27/27
l 27/27 51/51
l 51/51 28/28
l 28/28 29/29
l 29/29 30/30
l 30/30 6/6
l 6/6 7/7
l 75/75 116/116
l 116/116 74/74
l 74/74 68/68
l 68/68 77/77
l 77/77 73/73
l 73/73 78/78
l 78/78 72/72
l 72/72 79/79
l 79/79 69/69
l 69/69 70/70
l 70/70 53/53
l 53/53 118/118
l 118/118 71/71
l 71/71 54/54
l 54/54 107/107
l 107/107 80/80
l 80/80 55/55
l 55/55 115/115
l 115/115 112/112
l 112/112 76/76
l 76/76 56/56
l 56/56 57/57
l 57/57 99/99
l 99/99 120/120
l 120/120 58/58
l 58/58 119/119
l 119/119 121/121
l 121/121 59/59
l 59/59 60/60
l 60/60 100/100
l 100/100 61/61
l 61/61 62/62
l 62/62 81/81
l 81/81 64/64
l 64/64 65/65
l 65/65 82/82
l 82/82 66/66
l 66/66 104/104
l 104/104 67/67
l 67/67 105/105
l 105/105 84/84
l 84/84 83/83
l 83/83 86/86
l 86/86 85/85
l 85/85 87/87
l 87/87 114/114
l 114/114 88/88
l 88/88 108/108
l 108/108 89/89
l 89/89 90/90
l 90/90 92/92
l 92/92 91/91
l 91/91 93/93
l 93/93 117/117
l 117/117 95/95
l 95/95 94/94
l 94/94 111/111
l 111/111 110/110
l 110/110 96/96
l 96/96 98/98
l 98/98 97/97
l 97/97 113/113
l 113/113 63/63
l 63/63 103/103
l 103/103 109/109
l 109/109 106/106
l 106/106 101/101
l 101/101 122/122
l 122/122 102/102
l 180/180 179/179
l 179/179 181/181
l 181/181 159/159
l 159/159 167/167
l 167/167 158/158
l 158/158 157/157
l 157/157 169/169
l 169/169 168/168
l 168/168 173/173
l 173/173 172/172
l 172/172 171/171
l 171/171 170/170
l 170/170 156/156
l 156/156 155/155
l 155/155 165/165
l 165/165 164/164
l 164/164 163/163
l 163/163 162/162
l 162/162 161/161
l 161/161 160/160
l 160/160 153/153
l 153/153 152/152
l 152/152 148/148
l 148/148 147/147
l 147/147 174/174
l 174/174 177/177
l 177/177 166/166
l 166/166 146/146
l 146/146 145/145
l 145/145 178/178
l 178/178 141/141
l 141/141 144/144
l 144/144 151/151
l 151/151 140/140
l 140/140 133/133
l 133/133 124/124
l 124/124 139/139
l 139/139 138/138
l 138/138 137/137
l 137/137 132/132
l 132/132 143/143
l 143/143 131/131
l 131/131 130/130
l 130/130 150/150
l 150/150 149/149
l 149/149 154/154
l 154/154 129/129
l 129/129 175/175
l 175/175 136/136
l 136/136 176/176
l 176/176 135/135
l 135/135 128/128
l 128/128 142/142
l 142/142 134/134
l 134/134 127/127
l 127/127 126/126
l 126/126 125/125
l 125/125 123/123
l 183/183 184/184
l 184/184 224/224
l 224/224 185/185
l 185/185 186/186
l 186/186 187/187
l 187/187 226/226
l 226/226 188/188
l 188/188 189/189
l 189/189 190/190
l 190/190 191/191
l 191/191 192/192
l 192/192 193/193
l 193/193 218/218
l 218/218 220/220
l 220/220 194/194
l 194/194 223/223
l 223/223 195/195
l 195/195 219/219
l 219/219 196/196
l 196/196 197/197
l 197/197 221/221
l 221/221 222/222
l 222/222 198/198
l 198/198 199/199
l 199/199 200/200
l 200/200 201/201
l 201/201 202/202
l 202/202 203/203
l 203/203 204/204
l 204/204 205/205
l 205/205 206/206
l 206/206 207/207
l 207/207 208/208
l 208/208 209/209
l 209/209 210/210
l 210/210 211/211
l 211/211 212/212
l 212/212 213/213
l 213/213 225/225
l 225/225 215/215
l 215/215 217/217
l 217/217 216/216
l 216/216 182/182
l 182/182 214/214
l 214/214 183/183
l 234/234 235/235
l 235/235 280/280
l 280/280 236/236
l 236/236 272/272
l 272/272 271/271
l 271/271 254/254
l 254/254 255/255
l 255/255 273/273
l 273/273 256/256
l 256/256 258/258
l 258/258 257/257
l 257/257 237/237
l 237/237 259/259
l 259/259 260/260
l 260/260 261/261
l 261/261 262/262
l 262/262 263/263
l 263/263 264/264
l 264/264 265/265
l 265/265 238/238
l 238/238 266/266
l 266/266 239/239
l 239/239 267/267
l 267/267 268/268
l 268/268 269/269
l 269/269 227/227
l 227/227 240/240
l 240/240 241/241
l 241/241 242/242
l 242/242 228/228
l 228/228 274/274
l 274/274 275/275
l 275/275 243/243
l 243/243 229/229
l 229/229 244/244
l 244/244 230/230
l 230/230 245/245
l 245/245 246/246
l 246/246 247/247
l 247/247 231/231
l 231/231 248/248
l 248/248 249/249
l 249/249 278/278
l 278/278 277/277
l 277/277 276/276
l 276/276 279/279
l 279/279 250/250
l 250/250 251/251
l 251/251 232/232
l 232/232 252/252
l 252/252 233/233
l 233/233 270/270
l 270/270 281/281
l 281/281 253/253
l 322/322 321/321
l 321/321 301/301
l 301/301 320/320
l 320/320 300/300
l 300/300 299/299
l 299/299 298/298
l 298/298 297/297
l 297/297 319/319
l 319/319 318/318
l 318/318 296/296
l 296/296 317/317
l 317/317 295/295
l 295/295 316/316
l 316/316 294/294
l 294/294 315/315
l 315/315 293/293
l 293/293 314/314
l 314/314 327/327
l 327/327 313/313
l 313/313 326/326
l 326/326 292/292
l 292/292 325/325
l 325/325 291/291
l 291/291 290/290
l 290/290 312/312
l 312/312 289/289
l 289/289 311/311
l 311/311 288/288
l 288/288 310/310
l 310/310 287/287
l 287/287 309/309
l 309/309 286/286
l 286/286 308/308
l 308/308 328/328
l 328/328 285/285
l 285/285 324/324
l 324/324 307/307
l 307/307 306/306
l 306/306 305/305
l 305/305 284/284
l 284/284 304/304
l 304/304 303/303
l 303/303 283/283
l 283/283 302/302
l 302/302 323/323
l 323/323 329/329
l 329/329 282/282
l 335/335 334/334
l 334/334 333/333
l 333/333 400/400
l 400/400 407/407
l 407/407 408/408
l 408/408 380/380
l 380/380 332/332
l 332/332 331/331
l 331/331 379/379
l 379/379 330/330
l 330/330 377/377
l 377/377 378/378
l 378/378 384/384
l 384/384 382/382
l 382/382 383/383
l 383/383 381/381
l 381/381 336/336
l 336/336 404/404
l 404/404 387/387
l 387/387 385/385
l 385/385 401/401
l 401/401 386/386
l 386/386 337/337
l 337/337 388/388
l 388/388 338/338
l 338/338 389/389
l 389/389 339/339
l 339/339 406/406
l 406/406 390/390
l 390/390 391/391
l 391/391 340/340
l 340/340 392/392
l 392/392 341/341
l 341/341 342/342
l 342/342 343/343
l 343/343 345/345
l 345/345 344/344
l 344/344 346/346
l 346/346 347/347
l 347/347 348/348
l 348/348 402/402
l 402/402 349/349
l 349/349 350/350
l 350/350 351/351
l 351/351 352/352
l 352/352 353/353
l 353/353 412/412
l 412/412 354/354
l 354/354 355/355
l 355/355 356/356
l 356/356 357/357
l 357/357 358/358
l 358/358 359/359
l 359/359 360/360
l 360/360 361/361
l 361/361 362/362
l 362/362 363/363
l 363/363 403/403
l 403/403 364/364
l 364/364 365/365
l 365/365 366/366
l 366/366 367/367
l 367/367 393/393
l 393/393 394/394
l 394/394 368/368
l 368/368 395/395
l 395/395 369/369
l 369/369 396/396
l 396/396 415/415
l 415/415 370/370
l 370/370 397/397
l 397/397 405/405
l 405/405 398/398
l 398/398 413/413
l 413/413 414/414
l 414/414 399/399
l 399/399 371/371
l 371/371 411/411
l 411/411 410/410
l 410/410 372/372
l 372/372 373/373
l 373/373 374/374
l 374/374 409/409
l 409/409 375/375
l 375/375 416/416
l 416/416 376/376
l 502/502 501/501
l 501/501 503/503
l 503/503 468/468
l 468/468 467/467
l 467/467 421/421
l 421/421 420/420
l 420/420 464/464
l 464/464 465/465
l 465/465 419/419
l 419/419 499/499
l 499/499 463/463
l 463/463 462/462
l 462/462 461/461
l 461/461 418/418
l 418/418 417/417
l 417/417 466/466
l 466/466 424/424
l 424/424 423/423
l 423/423 422/422
l 422/422 426/426
l 426/426 425/425
l 425/425 428/428
l 428/428 427/427
l 427/427 430/430
l 430/430 429/429
l 429/429 431/431
l 431/431 433/433
l 433/433 432/432
l 432/432 434/434
l 434/434 497/497
l 497/497 496/496
l 496/496 489/489
l 489/489 435/435
l 435/435 436/436
l 436/436 437/437
l 437/437 438/438
l 438/438 439/439
l 439/439 440/440
l 440/440 441/441
l 441/441 442/442
l 442/442 443/443
l 443/443 444/444
l 444/444 445/445
l 445/445 446/446
l 446/446 447/447
l 447/447 448/448
l 448/448 449/449
l 449/449 450/450
l 450/450 451/451
l 451/451 452/452
l 452/452 469/469
l 469/469 454/454
l 454/454 453/453
l 453/453 491/491
l 491/491 498/498
l 498/498 490/490
l 490/490 494/494
l 494/494 493/493
l 493/493 470/470
l 470/470 471/471
l 471/471 455/455
l 455/455 472/472
l 472/472 456/456
l 456/456 473/473
l 473/473 474/474
l 474/474 457/457
l 457/457 475/475
l 475/475 476/476
l 476/476 458/458
l 458/458 478/478
l 478/478 477/477
l 477/477 479/479
l 479/479 459/459
l 459/459 480/480
l 480/480 481/481
l 481/481 482/482
l 482/482 500/500
l 500/500 483/483
l 483/483 484/484
l 484/484 492/492
l 492/492 460/460
l 460/460 495/495
l 495/495 486/486
l 486/486 485/485
l 485/485 487/487
l 487/487 488/488
l 528/528 545/545
l 545/545 527/527
l 527/527 526/526
l 526/526 525/525
l 525/525 524/524
l 524/524 523/523
l 523/523 537/537
l 537/537 522/522
l 522/522 521/521
l 521/521 520/520
l 520/520 519/519
l 519/519 518/518
l 518/518 517/517
l 517/517 538/538
l 538/538 516/516
l 516/516 514/514
l 514/514 543/543
l 543/543 509/509
l 509/509 505/505
l 505/505 508/508
l 508/508 513/513
l 513/513 512/512
l 512/512 507/507
l 507/507 515/515
l 515/515 531/531
l 531/531 511/511
l 511/511 530/530
l 530/530 529/529
l 529/529 533/533
l 533/533 541/541
l 541/541 542/542
l 542/542 540/540
l 540/540 536/536
l 536/536 534/534
l 534/534 535/535
l 535/535 539/539
l 539/539 506/506
l 506/506 532/532
l 532/532 510/510
l 510/510 544/544
l 544/544 504/504
l 546/546 712/712
l 546/546 808/808
l 547/547 553/553
l 547/547 654/654
l 548/548 712/712
l 548/548 713/713
l 549/549 657/657
l 549/549 713/713
l 550/550 657/657
l 550/550 658/658
l 551/551 658/658
l 551/551 659/659
l 552/552 659/659
l 552/552 660/660
l 553/553 559/559
l 554/554 660/660
l 554/554 661/661
l 555/555 661/661
l 555/555 662/662
l 556/556 662/662
l 556/556 663/663
l 557/557 663/663
l 557/557 664/664
l 558/558 664/664
l 558/558 819/819
l 559/559 565/565
l 560/560 665/665
l 560/560 760/760
l 561/561 666/666
l 561/561 761/761
l 562/562 809/809
l 562/562 827/827
l 563/563 668/668
l 563/563 763/763
l 564/564 669/669
l 564/564 764/764
l 565/565 572/572
l 566/566 785/785
l 566/566 798/798
l 567/567 670/670
l 567/567 671/671
l 568/568 671/671
l 568/568 672/672
l 569/569 672/672
l 569/569 673/673
l 570/570 673/673
l 570/570 674/674
l 571/571 674/674
l 571/571 675/675
l 572/572 579/579
l 573/573 675/675
l 573/573 799/799
l 574/574 800/800
l 574/574 810/810
l 575/575 786/786
l 575/575 801/801
l 576/576 679/679
l 576/576 787/787
l 577/577 788/788
l 577/577 802/802
l 578/578 714/714
l 578/578 715/715
l 579/579 584/584
l 580/580 715/715
l 580/580 716/716
l 581/581 716/716
l 581/581 717/717
l 582/582 717/717
l 582/582 718/718
l 583/583 718/718
l 583/583 719/719
l 584/584 588/588
l 585/585 724/724
l 585/585 821/821
l 586/586 724/724
l 586/586 725/725
l 587/587 725/725
l 587/587 726/726
l 588/588 596/596
l 589/589 726/726
l 589/589 727/727
l 590/590 727/727
l 590/590 728/728
l 591/591 794/794
l 591/591 812/812
l 592/592 729/729
l 592/592 730/730
l 593/593 803/803
l 593/593 813/813
l 594/594 680/680
l 594/594 731/731
l 595/595 789/789
l 595/595 804/804
l 596/596 598/598
l 597/597 681/681
l 597/597 682/682
l 598/598 605/605
l 599/599 682/682
l 599/599 683/683
l 600/600 683/683
l 600/600 684/684
l 601/601 684/684
l 601/601 685/685
l 602/602 685/685
l 602/602 829/829
l 603/603 687/687
l 603/603 790/790
l 604/604 687/687
l 604/604 688/688
l 605/605 611/611
l 606/606 688/688
l 606/606 689/689
l 607/607 689/689
l 607/607 690/690
l 608/608 690/690
l 608/608 691/691
l 609/609 691/691
l 609/609 692/692
l 610/610 805/805
l 610/610 826/826
l 611/611 617/617
l 612/612 693/693
l 612/612 694/694
l 613/613 694/694
l 613/613 695/695
l 614/614 695/695
l 614/614 696/696
l 615/615 696/696
l 615/615 697/697
l 616/616 697/697
l 616/616 698/698
l 617/617 623/623
l 618/618 698/698
l 618/618 699/699
l 619/619 699/699
l 619/619 700/700
l 620/620 700/700
l 620/620 701/701
l 621/621 791/791
l 621/621 806/806
l 622/622 702/702
l 622/622 703/703
l 623/623 630/630
l 624/624 703/703
l 624/624 828/828
l 625/625 705/705
l 625/625 792/792
l 626/626 705/705
l 626/626 795/795
l 627/627 733/733
l 627/627 814/814
l 628/628 733/733
l 628/628 734/734
l 629/629 734/734
l 629/629 735/735
l 630/630 637/637
l 631/631 735/735
l 631/631 736/736
l 632/632 736/736
l 632/632 737/737
l 633/633 737/737
l 633/633 738/738
l 634/634 738/738
l 634/634 739/739
l 635/635 739/739
l 635/635 740/740
l 636/636 825/825
l 636/636 830/830
l 637/637 642/642
l 638/638 741/741
l 638/638 769/769
l 639/639 780/780
l 639/639 807/807
l 640/640 743/743
l 640/640 771/771
l 641/641 744/744
l 641/641 782/782
l 642/642 648/648
l 643/643 745/745
l 643/643 822/822
l 644/644 746/746
l 644/644 823/823
l 645/645 746/746
l 645/645 747/747
l 646/646 747/747
l 646/646 748/748
l 647/647 748/748
l 647/647 749/749
l 648/648 654/654
l 649/649 749/749
l 649/649 750/750
l 650/650 750/750
l 650/650 751/751
l 651/651 751/751
l 651/651 752/752
l 652/652 752/752
l 652/652 753/753
l 653/653 706/706
l 653/653 753/753
l 655/655 706/706
l 655/655 707/707
l 656/656 707/707
l 656/656 708/708
l 665/665 797/797
l 666/666 760/760
l 667/667 761/761
l 667/667 827/827
l 668/668 762/762
l 669/669 763/763
l 670/670 798/798
l 676/676 799/799
l 676/676 810/810
l 677/677 786/786
l 677/677 800/800
l 678/678 787/787
l 678/678 801/801
l 679/679 788/788
l 680/680 789/789
l 681/681 804/804
l 686/686 790/790
l 686/686 829/829
l 692/692 826/826
l 693/693 805/805
l 701/701 791/791
l 702/702 806/806
l 704/704 792/792
l 704/704 828/828
l 708/708 755/755
l 709/709 756/756
l 709/709 772/772
l 710/710 773/773
l 710/710 818/818
l 711/711 758/758
l 711/711 820/820
l 714/714 802/802
l 719/719 775/775
l 720/720 765/765
l 720/720 776/776
l 721/721 766/766
l 721/721 793/793
l 722/722 767/767
l 722/722 778/778
l 723/723 768/768
l 723/723 811/811
l 728/728 812/812
l 729/729 794/794
l 730/730 813/813
l 731/731 803/803
l 732/732 795/795
l 732/732 814/814
l 740/740 830/830
l 741/741 825/825
l 742/742 796/796
l 742/742 807/807
l 743/743 770/770
l 744/744 815/815
l 745/745 816/816
l 754/754 764/764
l 754/754 785/785
l 755/755 772/772
l 756/756 817/817
l 757/757 817/817
l 757/757 818/818
l 758/758 773/773
l 759/759 797/797
l 759/759 819/819
l 762/762 809/809
l 765/765 775/775
l 766/766 776/776
l 767/767 824/824
l 768/768 778/778
l 769/769 780/780
l 770/770 781/781
l 771/771 782/782
l 774/774 808/808
l 774/774 820/820
l 777/777 793/793
l 777/777 824/824
l 779/779 811/811
l 779/779 821/821
l 781/781 796/796
l 783/783 815/815
l 783/783 822/822
l 784/784 816/816
l 784/784 823/823
