v 0.87497999999999998 14.7714005 -7.25
v 1.1874800000000001 14.4589005 -7.25
v 0.56247999999999998 15.0839005 -7.25
v 0.40622999999999998 15.2401505 -7.25
v 0.71872999999999998 14.9276505 -7.25
v -0.87501499999999999 20.228500400000001 0.93984999999999996
v -1.1875125 20.541000400000001 1.0179750000000001
v -0.5625175 19.916000400000001 0.86172499999999996
v -1.34376125 20.697250400000001 1.0570375000000001
v -1.0312637499999999 20.384750400000001 0.97891250000000007
v -2.8901720000000002 19.463300700000001 7.25
v -1.8475505999999999 20.505950899999998 7.25
v -2.3688617000000001 19.984626800000001 7.25
v -3.1218659999999998 19.231600749999998 7.25
v -1.6737803 20.679725650000002 7.25
v -2.10820615 20.245288850000001 7.25
v -1.7606654499999999 20.592838274999998 7.25
v -1.5868951500000001 20.766613025000002 7.25
v -2.4267850000000002 19.9267006 0.86440499999999998
v -2.8901720000000002 19.463300700000001 0.74855799999999995
v -1.963398 20.390100499999999 0.98025200000000001
v -1.7317040000000001 20.621800450000002 1.038176
v -3.1218659999999998 19.231600749999998 0.69063399999999997
v -1.6158570000000001 20.737650425000002 1.0671379999999999
v -1.8475510000000002 20.505950474999999 1.0092140000000001
v 7.25 2.25 5.4024048000000002
v 7.25 2.25 6.3839397
v 7.25 2.25 4.7095566
v 7.25 2.25 4.0167083999999997
v 7.25 2.25 5.8931722999999998
v 7.25 2.25 4.3631324999999999
v 7.25 2.25 3.7857591999999998
v 7.25 2.25 6.1385559999999995
v 7.25 2.25 5.6477885499999996
v 7.25 2.25 6.8169698499999996
v 7.25 32.249900799999999 -5.5975999999999999
v 7.25 32.249900799999999 -4.7713999999999999
v 7.25 32.249900799999999 -6.4238
v 7.25 32.249900799999999 -4.3582999999999998
v 7.25 32.249900799999999 -6.8369
v 0.24998000000000001 32.249900799999999 -5.5975999999999999
v 0.24998000000000001 32.249900799999999 -6.4238
v 0.24998000000000001 32.249900799999999 -4.7713999999999999
v 0.24998000000000001 32.249900799999999 -4.3582999999999998
v 0.24998000000000001 32.249900799999999 -6.8369
v -7.25 32.249900799999999 5.5975999999999999
v -7.25 32.249900799999999 6.4238
v -7.25 32.249900799999999 4.7713999999999999
v -7.25 32.249900799999999 6.8369
v -7.25 32.249900799999999 4.3582999999999998
v -0.25002000000000002 32.249900799999999 5.5975999999999999
v -0.25002000000000002 32.249900799999999 6.4238
v -0.25002000000000002 32.249900799999999 4.7713999999999999
v -0.25002000000000002 32.249900799999999 6.8369
v -0.25002000000000002 32.249900799999999 4.3582999999999998
v -0.25002000000000002 32.249900799999999 5.1844999999999999
v -0.25002000000000002 32.249900799999999 6.0106999999999999
v -1.55179 17.198150600000002 0.18226500000000001
v -2.4526751 18.099025699999999 0.40748800000000002
v -1.101348 16.747713099999999 0.069653999999999994
v -2.9031178999999998 18.549463299999999 0.52009899999999998
v -2.0022329999999999 17.648588199999999 0.29487600000000003
v -0.65090499999999996 16.297275500000001 -0.042957000000000002
v -0.200462 15.846838 -0.15556900000000001
v 0.052911687500000006 15.644820068750001 -0.206074375
v -0.87612650000000003 16.522494299999998 0.013348499999999996
v -0.42568349999999999 16.072056750000002 -0.099263000000000004
v -3.1283389499999998 18.774682049999999 0.57640449999999999
v 0.24998000000000001 15.3964005 -3.7590899000000002
v 0.24998000000000001 15.3964005 -5.5045451999999999
v 0.24998000000000001 15.3964005 -2.0136349
v 0.24998000000000001 15.3964005 -2.8863629999999998
v 0.24998000000000001 15.3964005 -6.3772731
v 0.24998000000000001 15.3964005 -4.6318178000000003
v 0.24998000000000001 15.3964005 -1.140908
v 0.24998000000000001 15.3964005 -6.81363655
v 0.24998000000000001 15.3964005 -0.70454400000000006
v 0.24998000000000001 15.3964005 -6.595454825
v 0.24998000000000001 15.3964005 -7.031818275
v -3.3535599999999999 18.999900799999999 3.9413550000000002
v -3.3535599999999999 18.999900799999999 2.2870330999999999
v -3.3535599999999999 18.999900799999999 5.5956779000000001
v -3.3535599999999999 18.999900799999999 1.4598711
v -3.3535599999999999 18.999900799999999 3.1141939000000001
v -3.3535599999999999 18.999900799999999 4.7685161000000003
v -3.3535599999999999 18.999900799999999 6.4228392000000003
v -3.3535599999999999 18.999900799999999 1.0462905499999999
v -3.3535599999999999 18.999900799999999 6.8364196000000002
v 3.7499899999999999 32.249900799999999 -3.9451999999999998
v 5.4999951999999999 32.249900799999999 -3.9451999999999998
v 1.9999849999999999 32.249900799999999 -3.9451999999999998
v 2.8749869000000001 32.249900799999999 -3.9451999999999998
v 6.3749970999999999 32.249900799999999 -3.9451999999999998
v 4.6249928000000002 32.249900799999999 -3.9451999999999998
v 1.1249819999999999 32.249900799999999 -3.9451999999999998
v 6.8124985499999999 32.249900799999999 -3.9451999999999998
v 0.68748100000000001 32.249900799999999 -3.9451999999999998
v 3.7499899999999999 32.249900799999999 -7.25
v 1.9999849999999999 32.249900799999999 -7.25
v 5.4999951999999999 32.249900799999999 -7.25
v 1.1249819999999999 32.249900799999999 -7.25
v 2.8749869000000001 32.249900799999999 -7.25
v 4.6249928000000002 32.249900799999999 -7.25
v 6.3749970999999999 32.249900799999999 -7.25
v 6.8124985499999999 32.249900799999999 -7.25
v 0.68748100000000001 32.249900799999999 -7.25
v 1.5624834999999999 32.249900799999999 -7.25
v -3.7500100000000001 32.249900799999999 7.25
v -5.5000048000000001 32.249900799999999 7.25
v -1.1250180000000001 32.249900799999999 7.25
v -2.8750130999999999 32.249900799999999 7.25
v -4.6250080999999996 32.249900799999999 7.25
v -6.3750029000000001 32.249900799999999 7.25
v -2.0000149999999999 32.249900799999999 7.25
v -0.68751899999999999 32.249900799999999 7.25
v -6.8125014500000001 32.249900799999999 7.25
v -5.9375038500000006 32.249900799999999 7.25
v -3.7500100000000001 32.249900799999999 3.9451999999999998
v -5.5000048000000001 32.249900799999999 3.9451999999999998
v -6.3750029000000001 32.249900799999999 3.9451999999999998
v -4.6250080999999996 32.249900799999999 3.9451999999999998
v -2.8750130999999999 32.249900799999999 3.9451999999999998
v -1.1250180000000001 32.249900799999999 3.9451999999999998
v -2.0000149999999999 32.249900799999999 3.9451999999999998
v -0.68751899999999999 32.249900799999999 3.9451999999999998
v -6.8125014500000001 32.249900799999999 3.9451999999999998
v -0.25002000000000002 19.603500400000001 4.0167998999999996
v -0.25002000000000002 19.603500400000001 2.4001999000000001
v -0.25002000000000002 19.603500400000001 5.6334
v -0.25002000000000002 19.603500400000001 3.2084999000000001
v -0.25002000000000002 19.603500400000001 1.5919000000000001
v -0.25002000000000002 19.603500400000001 4.8250998999999997
v -0.25002000000000002 19.603500400000001 6.4417
v -0.25002000000000002 19.603500400000001 1.1877500000000001
v -0.25002000000000002 19.603500400000001 6.8458500000000004
v -0.25002000000000002 19.603500400000001 6.6437749999999998
v -0.25002000000000002 19.603500400000001 7.0479250000000002
v 0.24998000000000001 8.8232002000000005 -1.9114899999999999
v 0.24998000000000001 12.1098003 -1.0898350000000001
v 0.24998000000000001 5.5366001000000002 -2.7331449999999999
v 0.24998000000000001 13.753100399999999 -0.67900799999999994
v 0.24998000000000001 10.4665003 -1.5006619999999999
v 0.24998000000000001 3.8933000999999998 -3.1439731000000002
v 0.24998000000000001 7.1799001999999996 -2.3223180999999999
v 0.24998000000000001 14.5747499 -0.47359400000000001
v 0.24998000000000001 11.288149799999999 -1.2952490000000001
v 0.24998000000000001 9.6448497999999994 -1.7060759999999999
v 0.24998000000000001 12.9314499 -0.88442100000000001
v 0.24998000000000001 3.07165 -3.349386
v 0.24998000000000001 4.7149501000000003 -2.9385591
v 0.24998000000000001 6.3582501000000002 -2.5277308999999999
v 0.24998000000000001 8.0015497 -2.1169039999999999
v 0.24998000000000001 2.660825 -3.4520930000000001
v 0.27813262500000002 15.008775950000002 -0.36508681249999997
v -0.25002000000000002 25.9267006 2.3643999
v -0.25002000000000002 22.765100499999999 1.5740000000000001
v -0.25002000000000002 29.088300700000001 3.1547999
v -0.25002000000000002 24.345899599999999 1.9692000000000001
v -0.25002000000000002 21.184299500000002 1.1788000000000001
v -0.25002000000000002 27.507501600000001 2.7595999
v -0.25002000000000002 30.669101699999999 3.5499999999999998
v -0.25002000000000002 23.555499999999999 1.7716000000000001
v -0.25002000000000002 31.459501299999999 3.7476001000000001
v -0.25002000000000002 28.297901199999998 2.9572001000000001
v -0.25002000000000002 21.974700899999998 1.3764000000000001
v -0.25002000000000002 29.878700299999998 3.3524001000000001
v -0.25002000000000002 26.7171001 2.5619999999999998
v -0.25002000000000002 25.136299099999999 2.1667999999999998
v -0.25002000000000002 20.393899900000001 0.98119999999999996
v -0.25002000000000002 20.789099700000001 1.0800000000000001
v -0.25002000000000002 19.998700150000001 0.88239999999999996
v -0.25002000000000002 31.854701049999999 3.8464000499999997
v 0.24998000000000001 8.8232002000000005 -7.25
v 0.24998000000000001 12.1098003 -7.25
v 0.24998000000000001 10.4665003 -7.25
v 0.24998000000000001 13.753100399999999 -7.25
v 0.24998000000000001 7.1799001999999996 -7.25
v 0.24998000000000001 3.8933000999999998 -7.25
v 0.24998000000000001 9.6448497999999994 -7.25
v 0.24998000000000001 11.288149799999999 -7.25
v 0.24998000000000001 8.0015497 -7.25
v 0.24998000000000001 4.7149501000000003 -7.25
v 0.24998000000000001 6.3582501000000002 -7.25
v 0.24998000000000001 12.9314499 -7.25
v 0.24998000000000001 3.07165 -7.25
v 0.24998000000000001 14.5747499 -7.25
v 0.24998000000000001 5.5366001000000002 -7.25
v 0.24998000000000001 14.163925150000001 -7.25
v 0.24998000000000001 14.9855752 -7.25
v 0.24998000000000001 2.660825 -7.25
v 0.24998000000000001 14.78016255 -7.25
v 0.24998000000000001 15.190987849999999 -7.25
v -0.14160159999999999 -32.249900799999999 -7.25
v 3.3530185000000001 -32.249900799999999 -7.25
v -3.8515625 -32.249900799999999 -7.25
v 5.6923827999999999 -32.249900799999999 -7.25
v 1.8380547 -32.249900799999999 -7.25
v -1.7275391 -32.249900799999999 -7.25
v 6.4570312000000003 -32.249900799999999 -7.25
v 4.3046875 -32.249900799999999 -7.25
v 2.6007948000000001 -32.249900799999999 -7.25
v 1.1328125 -32.249900799999999 -7.25
v -4.53125 -32.249900799999999 -7.25
v -6.5703125 -32.249900799999999 -7.25
v 4.984375 -32.249900799999999 -7.25
v -2.4921875 -32.249900799999999 -7.25
v -3.171875 -32.249900799999999 -7.25
v -5.890625 -32.249900799999999 -7.25
v 0.62304689999999996 -32.249900799999999 -7.25
v -5.2109375 -32.249900799999999 -7.25
v -0.90978999999999999 -32.249900799999999 -7.25
v 3.8288530999999999 -32.249900799999999 -7.25
v -6.91015625 -32.249900799999999 -7.25
v -6.23046875 -32.249900799999999 -7.25
v 6.8535155999999997 -32.249900799999999 -7.25
v 6.0747070000000001 -32.249900799999999 -7.25
v -7.25 -32.249900799999999 0.1132812
v -7.25 -32.249900799999999 3.625
v -7.25 -32.249900799999999 -3.625
v -7.25 -32.249900799999999 5.6948166000000002
v -7.25 -32.249900799999999 1.6992187999999999
v -7.25 -32.249900799999999 -1.8125
v -7.25 -32.249900799999999 -5.4375
v -7.25 -32.249900799999999 6.4455261000000004
v -7.25 -32.249900799999999 4.3046875
v -7.25 -32.249900799999999 2.4638672000000001
v -7.25 -32.249900799999999 0.90625
v -7.25 -32.249900799999999 -1.1328125
v -7.25 -32.249900799999999 -2.4921875
v -7.25 -32.249900799999999 -6.1171875
v -7.25 -32.249900799999999 -3.171875
v -7.25 -32.249900799999999 -4.7578125
v -7.25 -32.249900799999999 -4.078125
v -7.25 -32.249900799999999 3.171875
v -7.25 -32.249900799999999 -0.50976560000000004
v -7.25 -32.249900799999999 4.9920635000000004
v -7.25 -32.249900799999999 -3.8515625
v -7.25 -32.249900799999999 -3.3984375
v -7.25 -32.249900799999999 -4.41796875
v -7.25 -32.249900799999999 6.8477630500000002
v -7.25 -32.249900799999999 -6.68359375
v -7.25 -32.249900799999999 -6.966796875
v -7.25 -32.249900799999999 -6.400390625
v -0.1675354 -32.249900799999999 7.25
v -3.625 -32.249900799999999 7.25
v -4.984375 -32.249900799999999 7.25
v -1.5859375 -32.249900799999999 7.25
v 1.5398016000000001 -32.249900799999999 7.25
v 5.4375 -32.249900799999999 7.25
v -4.3046875 -32.249900799999999 7.25
v -2.9453125 -32.249900799999999 7.25
v -0.90625 -32.249900799999999 7.25
v 0.81076720000000002 -32.249900799999999 7.25
v 4.7578125 -32.249900799999999 7.25
v 6.5703125 -32.249900799999999 7.25
v 2.265625 -32.249900799999999 7.25
v 5.890625 -32.249900799999999 7.25
v -6.5703125 -32.249900799999999 7.25
v -2.265625 -32.249900799999999 7.25
v -5.890625 -32.249900799999999 7.25
v 2.9453125 -32.249900799999999 7.25
v 4.3046875 -32.249900799999999 7.25
v 3.625 -32.249900799999999 7.25
v -5.4375 -32.249900799999999 7.25
v 0.32161590000000001 -32.249900799999999 7.25
v -3.28515625 -32.249900799999999 7.25
v 5.6640625 -32.249900799999999 7.25
v 6.23046875 -32.249900799999999 7.25
v 6.91015625 -32.249900799999999 7.25
v -2.60546875 -32.249900799999999 7.25
v -5.2109375 -32.249900799999999 7.25
v -6.91015625 -32.249900799999999 7.25
v 0.077040250000000005 -32.249900799999999 7.25
v 3.96484375 -32.249900799999999 7.25
v -6.23046875 -32.249900799999999 7.25
v 4.53125 -32.249900799999999 7.25
v -4.64453125 -32.249900799999999 7.25
v -5.6640625 -32.249900799999999 7.25
v -0.5368927 -32.249900799999999 7.25
v 0.56619154999999999 -32.249900799999999 7.25
v -7.080078125 -32.249900799999999 7.25
v 0.24998000000000001 19.103500400000001 -0.65856999999999999
v 0.24998000000000001 25.6767006 -2.3018849000000001
v 1.02586 18.327625300000001 -0.46459699999999998
v 0.24998000000000001 22.390100499999999 -1.480227
v 0.24998000000000001 28.963300700000001 -3.1235420999999999
v 0.24998000000000001 24.033399599999999 -1.8910559
v 0.24998000000000001 20.746799500000002 -1.069399
v 0.24998000000000001 27.320001600000001 -2.7127140000000001
v 0.24998000000000001 30.606601699999999 -3.5343708999999999
v 0.24998000000000001 23.211749999999999 -1.6856420000000001
v 0.24998000000000001 24.855049099999999 -2.0964711
v 0.24998000000000001 19.925149900000001 -0.86398399999999997
v 0.24998000000000001 21.568450899999998 -1.2748131
v 0.24998000000000001 26.4983501 -2.5072988999999999
v 0.24998000000000001 28.141651199999998 -2.9181279999999998
v 0.24998000000000001 29.784950299999998 -3.3289570999999998
v 0.24998000000000001 31.428251299999999 -3.7397859000000002
v 0.63792000000000004 18.715562800000001 -0.56158350000000001
v 2.96556 16.3879375 0.020334000000000001
v 1.4137999999999999 17.9396877 -0.36761100000000002
v 2.57762 16.7758751 -0.076651999999999998
v 1.9957107999999999 17.357780500000001 -0.22213150000000001
v 1.21983 18.133656500000001 -0.41610400000000003
v 0.83189000000000002 18.521594050000001 -0.51309024999999997
v 0.22573375000000001 19.48721815 -0.75450021875000006
v 0.41970375000000004 18.8824246 -0.60330003124999998
v 3.15952995 16.19396875 0.068826999999999999
v 0.24998000000000001 31.839076049999999 -3.84249295
v 2.7715899999999998 16.5819063 -0.028158999999999997
v 0.24998000000000001 31.017426499999999 -3.6370784
v 3.2565149250000003 16.096984374999998 0.093073500000000003
v 0.23785687500000002 19.295359275000003 -0.70653510937500008
v 0.33484187500000001 18.992962500000001 -0.63093501562499998
v 3.0625449749999998 16.290953125000001 0.044580500000000002
v 0.23785687500000002 19.706184024999999 -0.80924210937499996
v 3.3050074125000002 16.048492187499999 0.10519675000000001
v 0.52881187500000004 18.7989937 -0.58244176562500005
v 3.2080224375000004 16.145476562500001 0.080950250000000001
v 0.24998000000000001 19.103500400000001 -7.25
v 0.24998000000000001 25.6767006 -7.25
v 1.8017401 17.551750200000001 -7.25
v 1.02586 18.327625300000001 -7.25
v 0.24998000000000001 22.390100499999999 -7.25
v 0.24998000000000001 28.963300700000001 -7.25
v 0.24998000000000001 24.033399599999999 -7.25
v 0.24998000000000001 27.320001600000001 -7.25
v 0.24998000000000001 20.746799500000002 -7.25
v 0.24998000000000001 30.606601699999999 -7.25
v 0.24998000000000001 23.211749999999999 -7.25
v 0.24998000000000001 26.4983501 -7.25
v 0.24998000000000001 29.784950299999998 -7.25
v 0.24998000000000001 24.855049099999999 -7.25
v 0.24998000000000001 21.568450899999998 -7.25
v 0.24998000000000001 31.428251299999999 -7.25
v 0.24998000000000001 28.141651199999998 -7.25
v 1.4137999999999999 17.9396877 -7.25
v 0.63792000000000004 18.715562800000001 -7.25
v 2.1896800999999999 17.1638126 -7.25
v 2.9695858999999998 16.4024544 -7.25
v 0.24998000000000001 19.925149900000001 -7.25
v 2.57762 16.7758751 -7.25
v 1.9957100999999999 17.3577814 -7.25
v 2.7736029499999999 16.589164750000002 -7.25
v 0.41970375000000004 18.8824246 -7.25
v 1.21983 18.133656500000001 -7.25
v 3.1655689499999999 16.215744049999998 -7.25
v 0.22573375000000001 19.48721815 -7.25
v 1.6077700500000001 17.745718950000001 -7.25
v 0.24998000000000001 31.839076049999999 -7.25
v 3.2635604750000002 16.122388874999999 -7.25
v -0.25002000000000002 9.0732002000000005 1.84901
v -0.25002000000000002 12.4848003 0.99611000000000005
v -0.25002000000000002 5.6616001000000002 2.7019099999999998
v -0.25002000000000002 14.190600399999999 0.56966000000000006
v -0.25002000000000002 10.7790003 1.42256
v -0.25002000000000002 7.3674001999999996 2.2754599999999998
v -0.25002000000000002 3.9558000999999998 3.1283599999999998
v -0.25002000000000002 13.3376999 0.78288500000000005
v -0.25002000000000002 15.0434999 0.356435
v -0.25002000000000002 11.631899799999999 1.209335
v -0.25002000000000002 8.2202997 2.0622351000000001
v -0.25002000000000002 6.5145001000000002 2.4886849
v -0.25002000000000002 4.8087001000000003 2.9151349
v -0.25002000000000002 3.1029 3.3415849
v -0.25002000000000002 9.9260997999999994 1.635785
v -0.25002000000000002 14.617050150000001 0.46304750000000006
v -0.25002000000000002 2.67645 3.4481974499999999
v -0.25002000000000002 15.4699502 0.2498225
v -0.25002000000000002 15.8964005 7.25
v -1.80179 17.448150600000002 7.25
v -0.25002000000000002 9.0732002000000005 7.25
v -0.25002000000000002 12.4848003 7.25
v -1.0259050000000001 16.672275500000001 7.25
v -2.5776751 18.224025699999999 7.25
v -0.25002000000000002 5.6616001000000002 7.25
v -0.25002000000000002 14.190600399999999 7.25
v -0.25002000000000002 10.7790003 7.25
v -0.25002000000000002 7.3674001999999996 7.25
v -0.25002000000000002 3.9558000999999998 7.25
v -0.25002000000000002 15.0434999 7.25
v -0.25002000000000002 11.631899799999999 7.25
v -0.25002000000000002 8.2202997 7.25
v -0.25002000000000002 4.8087001000000003 7.25
v -0.25002000000000002 6.5145001000000002 7.25
v -0.25002000000000002 13.3376999 7.25
v -0.25002000000000002 9.9260997999999994 7.25
v -0.25002000000000002 3.1029 7.25
v -2.1897326000000001 17.836088199999999 7.25
v -0.63796249999999999 16.284338000000002 7.25
v -2.9656174000000002 18.611963299999999 7.25
v -1.4138474000000001 17.060213099999999 7.25
v -0.22577359375000003 15.499010325000002 7.25
v -0.41974484375000004 16.119429443750001 7.25
v -2.7716462499999999 18.417994499999999 7.25
v -0.25002000000000002 2.67645 7.25
v -1.9957613000000001 17.642119399999999 7.25
v -3.1595887 18.805932049999999 7.25
v -1.2198762000000001 16.866244299999998 7.25
v -2.3837038499999998 18.030056949999999 7.25
v -0.83193375000000003 16.478306750000002 7.25
v -0.25002000000000002 25.9267006 7.25
v -0.25002000000000002 29.088300700000001 7.25
v -0.25002000000000002 22.765100499999999 7.25
v -0.25002000000000002 24.345899599999999 7.25
v -0.25002000000000002 30.669101699999999 7.25
v -0.25002000000000002 27.507501600000001 7.25
v -0.25002000000000002 21.184299500000002 7.25
v -0.25002000000000002 25.136299099999999 7.25
v -0.25002000000000002 21.974700899999998 7.25
v -0.25002000000000002 28.297901199999998 7.25
v -0.25002000000000002 23.555499999999999 7.25
v -0.25002000000000002 29.878700299999998 7.25
v -0.25002000000000002 26.7171001 7.25
v -0.25002000000000002 20.393899900000001 7.25
v -0.25002000000000002 31.459501299999999 7.25
v -0.25002000000000002 28.693100950000002 7.25
v -0.25002000000000002 19.998700150000001 7.25
v -0.25002000000000002 31.854701049999999 7.25
v -0.25002000000000002 29.483500499999998 7.25
v -0.25002000000000002 20.789099700000001 7.25
v -0.25002000000000002 19.801100275000003 7.25
v -0.25002000000000002 20.196300024999999 7.25
v 1.3906092999999999 2.25 7.25
v 0.68748200000000004 2.25 7.25
v 6.5468731 2.25 7.25
v 3.4999899999999999 2.25 7.25
v 2.7968625999999999 2.25 7.25
v 0.21873100000000001 2.25 7.25
v 4.3203049 2.25 7.25
v 2.0937359 2.25 7.25
v 5.8437462 2.25 7.25
v 5.1113223999999997 2.25 7.25
v -0.015644500000000006 2.25 7.25
v 0.45310650000000002 2.25 7.25
v 6.8984365499999996 2.25 7.25
v 1.0624800000000001 14.5839005 0.471335
v 0.62497999999999998 15.0214005 0.36196
v 0.18748000000000001 15.4589005 0.252585
v 1.2812300000000001 14.3651505 0.52602249999999995
v -0.031270000000000006 15.6776505 0.1978975
v 0.84373000000000009 14.8026505 0.4166475
v 0.40622999999999998 15.2401505 0.3072725
v 1.3906050000000001 14.2557755 0.55336624999999995
v 1.4452925000000001 14.201088 0.56703812499999995
v 1.1718550000000001 14.4745255 0.49867874999999995
v 1.3359175000000001 14.310463 0.53969437499999995
v 1.4999800000000001 14.1464005 -3.0899353000000001
v 1.4999800000000001 14.1464005 -0.39812900000000001
v 1.4999800000000001 14.1464005 -2.3558061000000001
v 1.4999800000000001 14.1464005 -6.0264515999999997
v 1.4999800000000001 14.1464005 -6.7605804999999997
v 1.4999800000000001 14.1464005 0.091290499999999997
v 1.4999800000000001 14.1464005 -4.5581942
v 1.4999800000000001 14.1464005 -5.2923230999999999
v 1.4999800000000001 14.1464005 -3.8240645
v 1.4999800000000001 14.1464005 -1.8663864999999999
v 1.4999800000000001 14.1464005 -1.1322574999999999
v 1.4999800000000001 14.1464005 -0.15341925000000001
v 1.4999800000000001 14.1464005 0.33600025
v 1.4999800000000001 14.1464005 -7.0052902499999998
v 1.4999800000000001 14.1464005 0.213645375
v 1.4999800000000001 14.1464005 0.45835512499999997
v -7.25 -2.0624880999999999 -7.25
v -7.25 -10.417932499999999 -7.25
v -7.25 -19.3124371 -7.25
v -7.25 -27.667881000000001 -7.25
v -7.25 -3.9492006000000002 -7.25
v -7.25 -8.5312184999999996 -7.25
v -7.25 -12.8437071 -7.25
v -7.25 -17.1561947 -7.25
v -7.25 -21.738212600000001 -7.25
v -7.25 -26.050701100000001 -7.25
v -7.25 -30.093656500000002 -7.25
v -7.25 -22.546804399999999 -7.25
v -7.25 -17.964786499999999 -7.25
v -7.25 -13.921829199999999 -7.25
v -7.25 -9.6093407000000006 -7.25
v -7.25 -3.1406100000000001 -7.25
v -7.25 -0.98436599999999996 -7.25
v -7.25 -12.0351152 -7.25
v -7.25 -20.121028899999999 -7.25
v -7.25 -20.929620700000001 -7.25
v -7.25 -2.6015489000000001 -7.25
v -7.25 -14.7304201 -7.25
v -7.25 -18.773376500000001 -7.25
v -7.25 -31.7108402 -7.25
v -7.25 -9.0702800999999997 -7.25
v -7.25 0.63281699999999996 -7.25
v -7.25 -13.3827677 -7.25
v -7.25 -15.539011 -7.25
v -7.25 -11.226524400000001 -7.25
v -7.25 -1.5234270000000001 -7.25
v -7.25 -28.476474799999998 -7.25
v -7.25 -29.554595899999999 -7.25
v -7.25 -25.242109299999999 -7.25
v -7.25 -24.1639862 -7.25
v -7.25 -7.7226276 -7.25
v -7.25 -23.355396299999999 -7.25
v -7.25 -5.8022223000000004 -7.25
v -7.25 -0.1757745 -7.25
v -7.25 -29.015535400000001 -7.25
v -7.25 -16.347602800000001 -7.25
v -7.25 -30.902248400000001 -7.25
v -7.25 -26.8592911 -7.25
v -7.25 -24.7030487 -7.25
v -7.25 -6.5097398999999996 -7.25
v -7.25 -7.1161837999999999 -7.25
v -7.25 1.4414084 -7.25
v -7.25 -4.7433604999999996 -7.25
v -7.25 -5.2727914 -7.25
v -7.25 -2.8710794499999999 -7.25
v -7.25 -9.3398104000000011 -7.25
v -7.25 -31.980370499999999 -7.25
v -7.25 -13.113237399999999 -7.25
v -7.25 -29.28506565 -7.25
v -7.25 -8.1269230500000003 -7.25
v -7.25 -8.8007492999999997 -7.25
v -7.25 -1.2538965 -7.25
v -7.25 -1.7929575500000001 -7.25
v -7.25 -12.43941115 -7.25
v -7.25 -28.746005099999998 -7.25
v -7.25 -2.3320185000000002 -7.25
v -7.25 -29.824126200000002 -7.25
v -7.25 -6.1559811 -7.25
v -7.25 1.8457042000000001 -7.25
v -7.25 -5.0080759500000003 -7.25
v -7.25 -5.5375068499999998 -7.25
v -7.25 -31.306544299999999 -7.25
v 7.25 17.249950399999999 -0.19519500000000001
v 7.25 9.5156001999999997 1.7384018999999999
v 7.25 24.749925600000001 -2.0701980999999998
v 7.25 13.4999628 0.74230600000000002
v 7.25 28.499912299999998 -3.0076990000000001
v 7.25 20.9999371 -1.1326959999999999
v 7.25 26.624919899999998 -2.5389480999999998
v 7.25 7.4062327999999997 2.2657454000000001
v 7.25 11.6249685 1.2110569
v 7.25 15.3749571 0.27355600000000002
v 7.25 14.671834 0.44933719999999999
v 7.25 31.078029600000001 -3.652231
v 7.25 3.4218712 3.2618410999999998
v 7.25 8.8124780999999999 1.914183
v 7.25 24.046802499999998 -1.8944156999999999
v 7.25 18.187446600000001 -0.42957000000000001
v 7.25 20.531189000000001 -1.0155084999999999
v 7.25 13.968711900000001 0.62511850000000002
v 7.25 31.7811527 -3.8280124999999998
v 7.25 28.031164199999999 -2.8905110000000001
v 7.25 26.156171799999999 -2.4217605999999998
v 7.25 19.593692799999999 -0.78113350000000004
v 7.25 27.3280411 -2.7147291
v 7.25 10.218723300000001 1.5626199999999999
v 7.25 21.4686871 -1.249884
v 7.25 13.0312147 0.85949399999999998
v 7.25 18.8905697 -0.605352
v 7.25 16.078079200000001 0.097774100000000003
v 7.25 12.3280916 1.0352756999999999
v 7.25 16.7812023 -0.078007499999999994
v 7.25 23.3436813 -1.7186345000000001
v 7.25 29.906158399999999 -3.3592615000000001
v 7.25 10.9218464 1.3868381999999999
v 7.25 2.7187486000000001 3.4376224999999998
v 7.25 4.8281163999999999 2.9102777999999998
v 7.25 17.718698499999999 -0.31238250000000001
v 7.25 22.171810199999999 -1.4256660000000001
v 7.25 4.1249938000000004 3.0860590999999999
v 7.25 20.062440899999999 -0.89832100000000004
v 7.25 5.5312394999999999 2.7344965999999999
v 7.25 5.9999881000000004 2.6173090999999999
v 7.25 22.8749313 -1.6014470000000001
v 7.25 25.4530487 -2.2459793000000001
v 7.25 29.203037299999998 -3.1834804999999999
v 7.25 30.374906500000002 -3.4764490000000001
v 7.25 8.3437300000000008 2.0313704000000001
v 7.25 6.7031106999999999 2.4415271000000001
v 7.25 7.8749814000000002 2.1485579000000001
v 7.25 13.734337350000001 0.68371225000000002
v 7.25 17.01557635 -0.13660125000000001
v 7.25 10.57028485 1.4747290999999998
v 7.25 20.765563050000001 -1.0741022499999999
v 7.25 8.1093557000000001 2.0899641500000001
v 7.25 5.7656138000000006 2.6759028499999999
v 7.25 2.4843742999999998 3.4962162499999998
v 7.25 17.484324449999999 -0.25378875000000001
v 7.25 31.42959115 -3.7401217500000001
v 7.25 6.3515493999999997 2.5294181
v 7.25 32.015526749999999 -3.8866062499999998
v 7.25 5.1796779500000003 2.8223871999999997
v 7.25 22.523370749999998 -1.5135565
v 7.25 21.2343121 -1.19129
v 7.25 20.296814949999998 -0.95691474999999993
v 7.25 14.32027295 0.53722785000000006
v 7.25 9.8671617500000011 1.6505109499999999
v 7.25 21.82024865 -1.3377750000000002
v 7.25 7.6406071000000004 2.2071516500000001
v 7.25 2.3671871499999999 3.5255131249999998
v 7.25 -23.624925600000001 7.25
v 7.25 -10.6874628 7.25
v 7.25 -27.937412299999998 7.25
v 7.25 -8.5312184999999996 7.25
v 7.25 -13.113237399999999 7.25
v 7.25 -17.1561947 7.25
v 7.25 -21.199150100000001 7.25
v 7.25 -30.093656500000002 7.25
v 7.25 -11.496054600000001 7.25
v 7.25 -13.921829199999999 7.25
v 7.25 -20.390560199999999 7.25
v 7.25 -24.7030487 7.25
v 7.25 -26.8592911 7.25
v 7.25 -7.9921578999999996 7.25
v 7.25 -5.8359141000000001 7.25
v 7.25 -18.503845200000001 7.25
v 7.25 0.76758219999999999 7.25
v 7.25 -0.44530500000000001 7.25
v 7.25 -10.1484022 7.25
v 7.25 -22.816333799999999 7.25
v 7.25 -22.0077438 7.25
v 7.25 -1.7929575 7.25
v 7.25 -15.8085413 7.25
v 7.25 -29.554595899999999 7.25
v 7.25 -30.632717100000001 7.25
v 7.25 -28.746006000000001 7.25
v 7.25 -31.441310900000001 7.25
v 7.25 -24.1639862 7.25
v 7.25 -25.242109299999999 7.25
v 7.25 -16.6171322 7.25
v 7.25 -19.8514996 7.25
v 7.25 -7.1835661000000002 7.25
v 7.25 -14.4608898 7.25
v 7.25 -14.999950399999999 7.25
v 7.25 -12.304645499999999 7.25
v 7.25 -19.3124371 7.25
v 7.25 -26.050701100000001 7.25
v 7.25 -2.6015489000000001 7.25
v 7.25 -0.98436599999999996 7.25
v 7.25 -4.4882612000000002 7.25
v 7.25 -17.695255299999999 7.25
v 7.25 -27.398351699999999 7.25
v 7.25 -3.4101400000000002 7.25
v 7.25 -5.2968530999999999 7.25
v 7.25 -9.3398103999999993 7.25
v 7.25 -6.3749751999999997 7.25
v 7.25 1.4750998 7.25
v 7.25 0.16113859999999999 7.25
v 7.25 -3.9492006000000002 7.25
v 7.25 -17.425725 7.25
v 7.25 -16.88666345 7.25
v 7.25 -4.2187309000000006 7.25
v 7.25 -19.58196835 7.25
v 7.25 -20.1210299 7.25
v 7.25 -31.845605849999998 7.25
v 7.25 -23.894455900000001 7.25
v 7.25 -3.6796703000000002 7.25
v 7.25 1.8625498999999999 7.25
v 7.25 -24.43351745 7.25
v -7.25 -0 7.25
v -7.25 16.124950399999999 7.25
v -7.25 -16.376903500000001 7.25
v -7.25 23.9354744 7.25
v -7.25 -23.9354744 7.25
v -7.25 19.904235799999999 7.25
v -7.25 28.218662299999998 7.25
v -7.25 12.0937128 7.25
v -7.25 3.7792854 7.25
v -7.25 -27.966709099999999 7.25
v -7.25 -20.1561871 7.25
v -7.25 -3.7792854 7.25
v -7.25 10.0780935 7.25
v -7.25 30.234281500000002 7.25
v -7.25 26.203044899999998 7.25
v -7.25 14.1093321 7.25
v -7.25 6.0468558999999997 7.25
v -7.25 -30.234281500000002 7.25
v -7.25 -14.1093321 7.25
v -7.25 -5.7949038000000002 7.25
v -7.25 9.0702847999999996 7.25
v -7.25 16.880806 7.25
v -7.25 3.023428 7.25
v -7.25 -25.195234299999999 7.25
v -7.25 -20.9120445 7.25
v -7.25 -18.896427200000002 7.25
v -7.25 -11.3378563 7.25
v -7.25 -7.0546660000000001 7.25
v -7.25 -3.023428 7.25
v -7.25 10.833951000000001 7.25
v -7.25 26.958900499999999 7.25
v -7.25 23.179616899999999 7.25
v -7.25 -27.2108536 7.25
v -7.25 -17.132759100000001 7.25
v -7.25 -5.0390468000000004 7.25
v -7.25 30.738187799999999 7.25
v -7.25 -22.423759499999999 7.25
v -7.25 -4.5351423999999998 7.25
v -7.25 -31.7459965 7.25
v -7.25 -12.849569300000001 7.25
v -7.25 31.4940453 7.25
v -7.25 -0.7558568 7.25
v -7.25 -25.699140499999999 7.25
v -7.25 -30.990138999999999 7.25
v -7.25 -28.722568500000001 7.25
v -7.25 20.6600933 7.25
v -7.25 18.644473999999999 7.25
v -7.25 15.3690929 7.25
v -7.25 1.511714 7.25
v -7.25 -6.5507612000000002 7.25
v -7.25 11.5898085 7.25
v -7.25 -8.5663795 7.25
v -7.25 -1.511714 7.25
v -7.25 25.447187400000001 7.25
v -7.25 -13.6054268 7.25
v -7.25 28.974521599999999 7.25
v -7.25 6.8027134 7.25
v -7.25 21.667902000000002 7.25
v -7.25 -10.581998799999999 7.25
v -7.25 0.7558568 7.25
v -7.25 5.2909993999999996 7.25
v -7.25 17.8886185 7.25
v -7.25 -2.2675711999999999 7.25
v -7.25 -19.652282700000001 7.25
v -7.25 -29.478424100000002 7.25
v -7.25 -26.454998 7.25
v -7.25 -21.667902000000002 7.25
v -7.25 -24.691330000000001 7.25
v -7.25 -14.8651886 7.25
v -7.25 -9.3222369999999994 7.25
v -7.25 4.5351423999999998 7.25
v -7.25 24.691330000000001 7.25
v -7.25 19.148378399999999 7.25
v -7.25 21.163997699999999 7.25
v -7.25 -23.179616899999999 7.25
v -7.25 -17.8886185 7.25
v -7.25 22.423759499999999 7.25
v -7.25 -15.6210451 7.25
v -7.25 14.6132364 7.25
v -7.25 8.3144273999999996 7.25
v -7.25 29.7303772 7.25
v -7.25 27.714757899999999 7.25
v -7.25 -7.8105229999999999 7.25
v -7.25 7.5585703999999998 7.25
v -7.25 -10.0780935 7.25
v -7.25 13.3534746 7.25
v -7.25 12.597617100000001 7.25
v -7.25 9.5741891999999993 7.25
v -7.25 2.2675711999999999 7.25
v -7.25 -12.0937128 7.25
v -7.25 -18.392522799999998 7.25
v -7.25 17.384712199999999 7.25
v -7.25 -25.447187399999997 7.25
v -7.25 9.8261413500000003 7.25
v -7.25 12.34566495 7.25
v -7.25 -18.644475 7.25
v -7.25 9.3222369999999994 7.25
v -7.25 -24.943282150000002 7.25
v -7.25 -17.5106888 7.25
v -7.25 -18.140570650000001 7.25
v -7.25 8.6923560999999996 7.25
v -7.25 -31.368067750000002 7.25
v -7.25 12.97554585 7.25
v -7.25 -31.997948649999998 7.25
v -7.25 31.871973050000001 7.25
v 7.25 0 -7.25
v 7.25 -8.0624751999999997 -7.25
v 7.25 4.0312381000000004 -7.25
v 7.25 12.0937128 -7.25
v 7.25 -28.218662299999998 -7.25
v 7.25 -20.408140199999998 -7.25
v 7.25 -4.0312381000000004 -7.25
v 7.25 30.738187799999999 -7.25
v 7.25 9.0702847999999996 -7.25
v 7.25 -23.4315681 -7.25
v 7.25 17.8886185 -7.25
v 7.25 6.2988086000000001 -7.25
v 7.25 9.8261413999999991 -7.25
v 7.25 14.1093321 -7.25
v 7.25 -10.0780935 -7.25
v 7.25 -6.5507612000000002 -7.25
v 7.25 -13.6054268 -7.25
v 7.25 17.132759100000001 -7.25
v 7.25 23.179616899999999 -7.25
v 7.25 4.7870945999999996 -7.25
v 7.25 10.833951000000001 -7.25
v 7.25 13.3534746 -7.25
v 7.25 -21.163997699999999 -7.25
v 7.25 -17.384712199999999 -7.25
v 7.25 -15.1171408 -7.25
v 7.25 -13.1015224 -7.25
v 7.25 -11.085903200000001 -7.25
v 7.25 -5.0390468000000004 -7.25
v 7.25 -3.2753806000000001 -7.25
v 7.25 -1.2597616 -7.25
v 7.25 25.195234299999999 -7.25
v 7.25 -22.6757107 -7.25
v 7.25 -4.5351423999999998 -7.25
v 7.25 11.5898085 -7.25
v 7.25 -24.943283099999999 -7.25
v 7.25 23.683521299999999 -7.25
v 7.25 -25.699140499999999 -7.25
v 7.25 -28.974521599999999 -7.25
v 7.25 -11.841760600000001 -7.25
v 7.25 15.621046099999999 -7.25
v 7.25 1.511714 -7.25
v 7.25 -8.5663795 -7.25
v 7.25 20.9120445 -7.25
v 7.25 8.3144273999999996 -7.25
v 7.25 18.644473999999999 -7.25
v 7.25 -16.628854799999999 -7.25
v 7.25 28.722568500000001 -7.25
v 7.25 27.966709099999999 -7.25
v 7.25 -0.50390449999999998 -7.25
v 7.25 -10.581998799999999 -7.25
v 7.25 -2.5195234000000002 -7.25
v 7.25 5.5429516000000003 -7.25
v 7.25 7.5585703999999998 -7.25
v 7.25 21.667902000000002 -7.25
v 7.25 -12.597617100000001 -7.25
v 7.25 -29.7303772 -7.25
v 7.25 -27.2108536 -7.25
v 7.25 -26.454998 -7.25
v 7.25 -19.652282700000001 -7.25
v 7.25 -31.7459965 -7.25
v 7.25 -14.361284299999999 -7.25
v 7.25 -9.3222369999999994 -7.25
v 7.25 24.439376800000002 -7.25
v 7.25 12.597617100000001 -7.25
v 7.25 2.7714758000000002 -7.25
v 7.25 22.423759499999999 -7.25
v 7.25 -18.896427200000002 -7.25
v 7.25 -18.1405697 -7.25
v 7.25 7.0546660000000001 -7.25
v 7.25 27.2108536 -7.25
v 7.25 -15.8729973 -7.25
v 7.25 30.234281500000002 -7.25
v 7.25 19.400329599999999 -7.25
v 7.25 -30.486234700000001 -7.25
v 7.25 3.5273330000000001 -7.25
v 7.25 -24.187425600000001 -7.25
v 7.25 -5.7949038000000002 -7.25
v 7.25 -7.3066182 -7.25
v 7.25 0.7558568 -7.25
v 7.25 26.454998 -7.25
v 7.25 20.1561871 -7.25
v 7.25 -31.242092100000001 -7.25
v 7.25 -21.919853199999999 -7.25
v 7.25 25.699140499999999 -7.25
v 7.25 -2.015619 -7.25
v 7.25 2.015619 -7.25
v 7.25 14.8651886 -7.25
v 7.25 31.4940453 -7.25
v 7.25 29.478424100000002 -7.25
v 7.25 16.376903500000001 -7.25
v 7.25 10.330045699999999 -7.25
v 7.25 -27.714757899999999 -7.25
v 7.25 11.211879750000001 -7.25
v 7.25 -28.596591949999997 -7.25
v 7.25 -31.494044299999999 -7.25
v 7.25 -12.849569750000001 -7.25
v 7.25 -30.864163400000002 -7.25
v 7.25 3.77928555 -7.25
v 7.25 -5.4169753000000007 -7.25
v 7.25 7.3066182 -7.25
v 7.25 11.841760650000001 -7.25
v 7.25 -4.2831902500000005 -7.25
v 7.25 -13.3534746 -7.25
v 7.25 -31.997948649999998 -7.25
v 7.25 -4.7870945999999996 -7.25
v 7.25 4.4091663499999996 -7.25
v 7.25 10.581998349999999 -7.25
v 7.25 -13.983355549999999 -7.25
v 7.25 6.6767373000000001 -7.25
v 7.25 31.871973050000001 -7.25
v 7.25 10.078093549999998 -7.25
v 7.25 -27.9667101 -7.25
v -7.25 17.015575399999999 0.13660600000000001
v -7.25 20.9999371 1.1327
v -7.25 13.4999628 -0.74229999999999996
v -7.25 22.8749313 1.60145
v -7.25 19.1249447 0.66395000000000004
v -7.25 30.374906500000002 3.4764499999999998
v -7.25 25.9217987 2.3631690000000001
v -7.25 4.8281163999999999 -2.9102687999999999
v -7.25 27.3280411 2.714731
v -7.25 23.812429399999999 1.835825
v -7.25 22.171810199999999 1.4256690000000001
v -7.25 19.828067799999999 0.83973149999999996
v -7.25 8.8124780999999999 -1.914175
v -7.25 14.2030859 -0.56651870000000004
v -7.25 12.3280916 -1.0352688000000001
v -7.25 7.4062327999999997 -2.2657375000000002
v -7.25 4.1249938000000004 -3.0860500000000002
v -7.25 28.031164199999999 2.8905124999999998
v -7.25 5.5312394999999999 -2.7344875000000002
v -7.25 31.7811527 3.8280124999999998
v -7.25 10.9218464 -1.3868313000000001
v -7.25 14.906207999999999 -0.39073750000000002
v -7.25 9.5156001999999997 -1.7383938999999999
v -7.25 20.531189000000001 1.0155125
v -7.25 10.218723300000001 -1.5626125
v -7.25 23.3436813 1.7186375
v -7.25 29.906158399999999 3.3592624999999998
v -7.25 24.515552499999998 2.0116065000000001
v -7.25 21.4686871 1.2498875
v -7.25 8.1093559000000006 -2.0899562999999999
v -7.25 2.7187486000000001 -3.4376125000000002
v -7.25 15.6093311 -0.21495629999999999
v -7.25 25.2186737 2.1873874999999998
v -7.25 31.078029600000001 3.6522312000000001
v -7.25 29.203037299999998 3.1834815000000001
v -7.25 28.499912299999998 3.0076999999999998
v -7.25 13.0312147 -0.85948749999999996
v -7.25 18.421821600000001 0.48816900000000002
v -7.25 5.9999881000000004 -2.6173000000000002
v -7.25 6.7031106999999999 -2.4415187999999999
v -7.25 11.6249685 -1.21105
v -7.25 3.4218712 -3.2618312999999999
v -7.25 16.312454200000001 -0.039175000000000001
v -7.25 17.718698499999999 0.31238749999999998
v -7.25 26.624919899999998 2.5389499999999998
v -7.25 22.523370749999998 1.5135594999999999
v -7.25 23.57805535 1.77723125
v -7.25 20.179628399999999 0.92762199999999995
v -7.25 32.015526749999999 3.8866062499999998
v -7.25 30.726468050000001 3.5643406
v -7.25 2.4843742999999998 -3.4962062500000002
v -7.25 3.0703098999999998 -3.3497219
v -7.25 31.42959115 3.74012185
v -7.25 20.765563050000001 1.07410625
v -7.25 24.163990949999999 1.9237157499999999
v -7.25 5.7656138000000006 -2.6758937500000002
v -7.25 23.1093063 1.66004375
v -7.25 30.140532450000002 3.4178562499999998
v -7.25 5.1796779500000003 -2.82237815
v -7.25 2.3671871499999999 -3.5255031250000002
v -7.25 2.25 -5.4024000000000001
v -7.25 2.25 -4.7095498999999998
v -7.25 2.25 -4.0166997999999996
v -7.25 2.25 -5.8642998000000004
v -7.25 2.25 -6.5571498999999998
v -7.25 2.25 -3.7857498999999999
v -7.25 2.25 -6.2107248500000001
v -7.25 2.25 -4.3631248500000002
v -7.25 2.25 -5.6333499000000007
v -7.25 2.25 -6.9035749499999994
v 0.24998000000000001 2.25 -5.6333498999999998
v 0.24998000000000001 2.25 -6.3262
v 0.24998000000000001 2.25 -4.2476501000000004
v 0.24998000000000001 2.25 -6.7880998000000004
v 0.24998000000000001 2.25 -4.9404998000000004
v 0.24998000000000001 2.25 -6.5571499000000006
v 0.24998000000000001 2.25 -4.5940749500000004
v 0.24998000000000001 2.25 -7.0190499000000006
v 0.24998000000000001 2.25 -3.9012250500000003
v 0.24998000000000001 2.25 -3.7280125250000005
v -0.25002000000000002 2.25 5.1714554000000001
v -0.25002000000000002 2.25 5.8643036000000004
v -0.25002000000000002 2.25 4.0167083999999997
v -0.25002000000000002 2.25 4.4786071999999999
v -0.25002000000000002 2.25 6.5571517999999998
v -0.25002000000000002 2.25 6.2107276999999996
v -0.25002000000000002 2.25 4.2476577999999998
v -0.25002000000000002 2.25 3.7857591999999998
v -0.25002000000000002 2.25 4.8250313
v -0.25002000000000002 2.25 6.9035758999999999
v -0.25002000000000002 2.25 7.0767879499999999
v 2.4267398999999998 15.0732002 -7.25
v 1.96336 14.6098003 -7.25
v 2.89012 15.536600099999999 -7.25
v 1.73167 14.378100400000001 -7.25
v 3.1258360000000001 15.7828169 -7.25
v 2.19504995 14.841500249999999 -7.25
v 1.6158250000000001 14.26225045 -7.25
v 3.3534999000000001 16 -1.72451
v 3.3534999000000001 16 -5.4081701999999998
v 3.3534999000000001 16 -6.0988559999999996
v 3.3534999000000001 16 -4.7174835000000002
v 3.3534999000000001 16 -1.0338236999999999
v 3.3575260999999998 16.014516799999999 -6.7895427000000002
v 3.3534999000000001 16 -3.2214464999999999
v 3.3534999000000001 16 -0.34313749999999998
v 3.3534999000000001 16 -3.9998174
v 3.3534999000000001 16 -2.4440873000000001
v 3.3534999000000001 16 -5.7535130999999993
v 3.3534999000000001 16 -0.11290875
v 3.35953905 16.021775249999997 -7.0197713500000001
v 3.3534999000000001 16 -0.68848059999999989
v 3.3555130000000002 16.007258399999998 -6.4441993499999999
v 3.3534999000000001 16 0.0022056249999999958
v 3.3534999000000001 16 -0.22802312499999999
v 7.25 -32.249900799999999 -0.2265625
v 7.25 -32.249900799999999 -4.078125
v 7.25 -32.249900799999999 3.3984375
v 7.25 -32.249900799999999 -5.4375
v 7.25 -32.249900799999999 5.4375
v 7.25 -32.249900799999999 -4.7578125
v 7.25 -32.249900799999999 -2.265625
v 7.25 -32.249900799999999 -0.90625
v 7.25 -32.249900799999999 1.2744141
v 7.25 -32.249900799999999 2.71875
v 7.25 -32.249900799999999 -2.9453125
v 7.25 -32.249900799999999 -6.2130709
v 7.25 -32.249900799999999 -1.5859375
v 7.25 -32.249900799999999 2.0390625
v 7.25 -32.249900799999999 4.078125
v 7.25 -32.249900799999999 0.50976560000000004
v 7.25 -32.249900799999999 4.7578125
v 7.25 -32.249900799999999 -3.625
v 7.25 -32.249900799999999 5.890625
v 7.25 -32.249900799999999 6.5703125
v 7.25 -32.249900799999999 6.23046875
v 7.25 -32.249900799999999 5.09765625
v 7.25 -32.249900799999999 6.91015625
v 7.25 -32.249900799999999 5.6640625
v 7.25 -32.249900799999999 -6.73153545
v -6.0781283000000004 2.25 -7.25
v -3.5000100000000001 2.25 -7.25
v -2.0937641 2.25 -7.25
v -0.21876899999999999 2.25 -7.25
v -1.3906407000000001 2.25 -7.25
v -4.6718826 2.25 -7.25
v -2.7968874000000001 2.25 -7.25
v -5.3750048000000001 2.25 -7.25
v -0.68751799999999996 2.25 -7.25
v -3.9687591000000002 2.25 -7.25
v -6.6640644 2.25 -7.25
v -3.1484487000000003 2.25 -7.25
v -4.3203208499999999 2.25 -7.25
v -3.7343845500000001 2.25 -7.25
v -0.45314349999999998 2.25 -7.25
v 0.015605500000000008 2.25 -7.25
v -6.9570322000000004 2.25 -7.25
v 0.13279275000000001 2.25 -7.25
v -5.3750048000000001 2.25 -3.5548000000000002
v -4.2031336000000001 2.25 -3.5548000000000002
v -2.3281385999999999 2.25 -3.5548000000000002
v -3.0312614 2.25 -3.5548000000000002
v -4.9062567000000001 2.25 -3.5548000000000002
v -0.92189220000000005 2.25 -3.5548000000000002
v -3.5000100000000001 2.25 -3.5548000000000002
v -6.0781283000000004 2.25 -3.5548000000000002
v -6.7812514000000004 2.25 -3.5548000000000002
v -1.6250150000000001 2.25 -3.5548000000000002
v -0.33595609999999998 2.25 -3.5548000000000002
v -7.0156257000000002 2.25 -3.5548000000000002
v -6.4296898500000008 2.25 -3.5548000000000002
v -0.62892415000000002 2.25 -3.5548000000000002
v -0.042988049999999986 2.25 -3.5548000000000002
v -7.1328128500000005 2.25 -3.5548000000000002
v -1.5000100000000001 20.853500400000001 4.1730498999999996
v -1.5000100000000001 20.853500400000001 5.711525
v -1.5000100000000001 20.853500400000001 1.865337
v -1.5000100000000001 20.853500400000001 4.9422870000000003
v -1.5000100000000001 20.853500400000001 6.4807620000000004
v -1.5000100000000001 20.853500400000001 3.4038119
v -1.5000100000000001 20.853500400000001 2.6345749000000001
v -1.5000100000000001 20.853500400000001 6.8653810000000002
v -1.5000100000000001 20.853500400000001 1.4807185
v -1.5000100000000001 20.853500400000001 7.0576904999999996
v -1.5000100000000001 20.853500400000001 1.6730277500000001
v -1.5000100000000001 20.853500400000001 1.28840925
v -1.5000100000000001 20.853500400000001 7.1538452499999998
v -1.5000100000000001 20.853500400000001 6.9615357499999995
v -0.87501499999999999 20.228500400000001 7.25
v -0.5625175 19.916000400000001 7.25
v -1.1875125 20.541000400000001 7.25
v -1.34376125 20.697250400000001 7.25
v -0.71876625000000005 20.072250400000001 7.25
v -1.0312637499999999 20.384750400000001 7.25
v -0.40626875000000001 19.759750400000001 7.25
v 2.3281114000000001 2.25 3.5548099999999998
v 5.6093707000000004 2.25 3.5548099999999998
v 4.9062438000000004 2.25 3.5548099999999998
v 0.21873100000000001 2.25 3.5548099999999998
v 3.4999899999999999 2.25 3.5548099999999998
v 1.6249849999999999 2.25 3.5548099999999998
v 0.92185779999999995 2.25 3.5548099999999998
v 6.7812485999999996 2.25 3.5548099999999998
v 3.0312386 2.25 3.5548099999999998
v 4.2031174 2.25 3.5548099999999998
v 6.3124970999999999 2.25 3.5548099999999998
v 3.2656143000000002 2.25 3.5548099999999998
v 6.5468728499999997 2.25 3.5548099999999998
v 7.0156242999999998 2.25 3.5548099999999998
v 3.8515537000000002 2.25 3.5548099999999998
v 5.9609339000000006 2.25 3.5548099999999998
v -0.015644500000000006 2.25 3.5548099999999998
v 0.57029439999999998 2.25 3.5548099999999998
v 7.1328121499999995 2.25 3.5548099999999998
v -0.13283225000000001 2.25 3.5548099999999998
v 2.4267398999999998 15.0732002 0.34901500000000002
v 1.96336 14.6098003 0.464862
v 2.89012 15.536600099999999 0.23316799999999999
v 2.6584299499999999 15.30490015 0.2910915
v 1.73167 14.378100400000001 0.52278599999999997
v 3.1218099500000003 15.768300050000001 0.17524399999999998
v 3.2376549250000002 15.884150025 0.146282
v 1.6158250000000001 14.26225045 0.55174799999999991
v 1.847515 14.49395035 0.49382399999999999
v 3.2955774125000001 15.9420750125 0.131801
v 1.6737475000000002 14.320175425 0.53726699999999994
v 3.0059649750000004 15.652450075000001 0.204206
v 1.5579025 14.204325475000001 0.56622899999999987
v 3.1797324375000002 15.8262250375 0.16076299999999999
v -0.200462 15.846838 -0.15556900000000001
v -0.22525776281814477 15.871586066411096 -0.0060965602599363771
v -0.25002000000000002 15.8964005 0.14321
v 0.24998000000000001 15.3964005 -0.26817999999999997
v 0.18748000000000001 15.4589005 0.252585
v 0.21924979457377211 15.427374448273145 -0.0077068228715614848
v -0.25002000000000002 15.8964005 7.25
v -0.25894810885699748 15.902523136528224 3.805363849010976
v -0.25321565094043064 15.899596103308079 5.4980825601390215
v -0.30131744559675278 15.886591209704513 2.2392197460408476
v -0.25515052831147994 15.901530949400941 4.6400075099383615
v -0.27182024442021513 15.898823098945659 3.0029044971961252
v -0.30030337577060107 15.884978921795055 1.5131922354862173
v -0.25150512208209197 15.897885625004573 6.370667450487165
v -0.28642087387670678 15.88679804451373 0.81890187856687291
v -0.25002000000000002 15.8964005 0.14321
v -0.25002000000000002 21.184299500000002 1.1788000000000001
v -1.011089375159802 21.079499233924327 1.1525996725399725
v -0.45978724486055406 21.164288728966945 1.1737971852946456
v -0.66075121205982756 21.141837962337149 1.1681843689805107
v -0.84587238443293078 21.11439359501907 1.1613232422245376
v -1.3946444296283462 20.91989130404459 1.1127270971551591
v -1.2819919511985938 20.981669660453342 1.1281423527241827
v -1.1556946809968758 21.035381656803231 1.1415703116337848
v -1.5000100000000001 20.853500400000001 1.0961000000000001
v 1.4999800000000001 14.1464005 0.58070999999999995
v 0.59874769750988222 13.561760804101423 0.72686998997645091
v -0.25002000000000002 13.3376999 0.78288500000000005
v 1.291791594134724 13.975170442501025 0.62348451172757113
v 0.04520401083455336 13.399215655039246 0.76750611352864806
v 0.33053942915586537 13.471073683606772 0.74954168257459974
v 1.0762877582991028 13.815583611485595 0.66341409142418839
v 0.84685678962766398 13.676372637631571 0.69821707679921596
v 6.2774979171097378 14.775485822251152 0.42343066918176964
v 5.8171796945110952 14.848899192706579 0.4050800799462676
v 7.25 14.671834 0.44933719999999999
v 5.3877149973524165 14.943330144379701 0.38147488704534693
v 6.7586112545596198 14.718942830884584 0.43756334013292542
v 3.8164730893753385 15.668145394962913 0.20027999242339675
v 3.5816760677774044 15.833996439911488 0.15881649942599063
v 4.0660958717686952 15.503871276617048 0.24134738697790301
v 4.648354871868916 15.194526866254222 0.31868044493129039
v 4.9969196188591543 15.059353161792437 0.35247160667050009
v 4.3402614693637771 15.344427347359286 0.28120714033367866
v 3.3534999000000001 16 0.11731999999999999
v -4.3190397621579759 18.510955904563602 0.51045389387355022
v -6.6157059608220488 17.840204944834806 0.34276455143829054
v -5.9952961930955571 17.971643423946844 0.37562372081308937
v -4.8416236875588723 18.301406381292246 0.45806514989947655
v -3.8274518566317925 18.747518122899855 0.56961324767451393
v -5.4010911404313457 18.122731798111076 0.41339598509313225
v -7.25 17.718698499999999 0.31238749999999998
v -3.3535599999999999 18.999900799999999 0.63270999999999999
v -3.3535599999999999 18.999900799999999 7.25
v -5.8947257086353417 20.193894333856051 7.2500000000000036
v -3.9708334743376303 19.325701700446281 7.2499995830562689
v -5.2368741075281307 19.929754142233495 7.2500000000000018
v -6.5679069194481734 20.434086983136865 7.2500000000000018
v -7.25 20.6600933 7.25
v -4.59646380678545 19.63890575911881 7.2499999999999929
v 0.24998000000000001 2.25 -7.25
v 2.9451413692616226 2.2346516136984582 -7.2500000000000018
v 5.0484176602134649 2.1493235433814859 -7.2500000000000018
v 1.5916919403277401 2.2525430473054628 -7.2499999638556432
v 5.7743477891249722 2.1077602193388212 -7.2500000000000036
v 4.3346597029195788 2.1853038718329025 -7.2500000000000018
v 6.5096387726918792 2.0625615509962749 -7.2500000000000036
v 2.2655451446464454 2.2471434238781596 -7.2499999999498694
v 7.25 2.015619 -7.25
v 0.92046549852199933 2.2526782585015375 -7.2499954195026586
v 3.6339431399996527 2.2140543340188144 -7.2500000000000018
v 7.25 2.25 3.5548099999999998
v 7.2500000000000036 1.9079861332890911 1.7542732106297807
v 7.25 1.4951550652024694 -5.9643005588463929
v 7.2500000000000018 1.7993692223159026 1.1294839290829084
v 7.2500000000000018 1.4594831212512207 -3.4029332611406842
v 7.2499671068739957 2.1351430544371919 2.9631440735663368
v 7.25 1.503643584924629 -6.6068114981503339
v 7.2500000000000018 1.4665324510879452 -4.0432095733140105
v 7.25 1.511714 -7.25
v 7.25 1.6126692583151909 -0.15679833877342436
v 7.25 1.4761083068867151 -4.6827836462451629
v 7.2500000000000018 1.4859507642289178 -5.3229444393504028
v 7.25 1.4970376596540926 -1.4632510430148402
v 7.2500000000000018 1.4696566207596078 -2.1138442310858792
v 7.25 1.6991802691229334 0.49126135873409793
v 7.2500000000000018 2.0207608430889894 2.3647020324564743
v 7.2500000000000018 1.5444821012740011 -0.80983462887230429
v 7.2500000000000018 1.4588330282917239 -2.760283480672665
v 4.4760007914204198 18.914994738245596 -7.2500000000000018
v 4.1146552988752969 17.704008204711606 -7.2500000000000009
v 5.2385635111183504 24.997977651862872 -7.2500000000000018
v 5.4999951999999999 32.249900799999999 -7.25
v 5.4207209483009668 30.457743477772574 -7.2500000000000009
v 5.4734996490444843 31.650098396687326 -7.2500000000000018
v 5.3361598902725245 28.678479926409874 -7.25
v 4.7420211658566105 20.214456737499248 -7.2500000000000018
v 4.8530540728770131 20.888549049195682 -7.2500000000000018
v 3.6324245038444687 16.575937225293288 -7.2500000000000018
v 4.6178082256187256 19.555037360913111 -7.2500000000000018
v 5.309953165145199 28.07777292832629 -7.25
v 5.2887875763600309 27.469611893970061 -7.2500000000000053
v 5.3933345068493121 29.865497900468746 -7.2500000000000018
v 5.2632636224301521 26.234401899440542 -7.2500000000000018
v 5.2737488416595149 26.85430302835988 -7.2500000000000036
v 4.9524568722616529 21.572950586507115 -7.25
v 5.2532833667458227 25.614128704535247 -7.2500000000000018
v 5.2142149452836168 24.388917224253042 -7.2500000000000018
v 5.1127511530166547 22.964519076685395 -7.2500000000000053
v 5.1709379209590658 23.67228718445568 -7.2500000000000018
v 3.8872571762265986 17.131769529105846 -7.2500000000000009
v 5.0395419813329259 22.265068167867163 -7.2500000000000018
v 5.4471934742097368 31.052382430363096 -7.25
v 5.3647763406263991 29.273426322996301 -7.2500000000000018
v 4.3102258368760982 18.297702324994304 -7.2500000000000018
v 3.3615520000000001 16.029033699999999 -7.25
v -1.5000100000000001 20.853500400000001 7.25
v -3.2573043730093993 21.812354872688523 7.2499999999939782
v -4.170701734240323 22.034800381056549 7.2499999999936078
v -5.3067091569188385 22.209440998932283 7.2499999999997744
v -4.7146563977790743 22.127310315775599 7.2499999999986464
v -5.9350202492193986 22.284275751165701 7.2499999999999964
v -7.25 22.423759499999999 7.25
v -6.5868359235966665 22.354909482655682 7.2500000000000036
v -2.8904958916407519 21.684017495637374 7.2499999999986748
v -3.6836014176949456 21.929878709392241 7.2499999999972511
v -2.0777413846121116 21.26771885203647 7.2499999999999982
v -2.3097860806358352 21.408276683700329 7.2499999999999076
v -2.5774786210372009 21.548091632521896 7.2499999999991225
v -1.8715252854635027 21.128279870597943 7.2500000000000018
v -1.6818004474284016 20.990395619147343 7.2499995258166123
v 1.4999800000000001 14.1464005 -7.25
v 2.7968867352440374 13.751227553316829 -7.2499999999989786
v 4.08893217105111 13.461971219853226 -7.2499999999526867
v 5.3660028055332143 13.325982694636799 -7.2499999999996936
v 6.6247405153564483 13.325716108833412 -7.2500000000000018
v 4.7298629864882624 13.374429152977211 -7.2499999999768434
v 7.25 13.3534746 -7.25
v 5.9973171164942434 13.31250585063318 -7.2499999999999991
v 3.4441297493569278 13.588810157798989 -7.2499999999996021
v 2.1485668117767371 13.941202799945511 -7.2500000000000009
v -4.806286885011458 2.4054280212697234 7.2500000000000018
v -2.8867257413887542 2.3481030553308244 7.2500000000000018
v -3.5349404428117053 2.3746050795147715 7.2500000000000018
v -4.1752391345238404 2.3958514718596895 7.25
v -2.2324637172616888 2.3211173588185288 7.2499999999998774
v -6.0406801520265523 2.3694908614293717 7.2500000000000018
v -0.91270234084180102 2.2724268115246371 7.2499998769125735
v -5.4277857647708121 2.3975110984663117 7.2500000000000018
v -1.5739630443228021 2.2958529905144922 7.2499999995024798
v -6.6470831290369556 2.3237335156566798 7.2500000000000018
v -7.25 2.2675711999999999 7.25
v -0.25002000000000002 2.25 7.25
v -7.25 2.25 -3.5548000000000002
v -7.2500000000000018 1.2249308172392106 4.2464180258381017
v -7.2500000000000036 1.2331299816365062 4.8465060689707578
v -7.2500000000000018 1.3224659913728174 1.7324779615959698
v -7.2500000000000018 1.2868723876013268 2.3820139560561628
v -7.2500000000000018 1.2354511586056862 3.6383143026778093
v -7.2500000000000018 1.3275722369717036 6.04282228073785
v -7.2500000000000018 1.4126484151583223 6.6451331972289029
v -7.2500000000000018 1.7177943319708429 -1.4799181411402738
v -7.25 1.8451998375067711 -2.0473704820565586
v -7.25 1.511714 7.25
v -7.25 1.3674782434485175 1.0733651924148977
v -7.2500000000000018 1.6025595911407051 -0.87542773555279285
v -7.2500000000000018 1.4268361093293931 0.41216248687010809
v -7.2500000000000009 1.2665020401774778 5.4438935937261856
v -7.2500000000000018 1.2576461694977064 3.0176066080816519
v -7.2500000000000018 1.9788629779998597 -2.5767048273027249
v -7.2500000000000018 1.5047602400039315 -0.24118670049866536
v -7.2499902378066139 2.1144143703321987 -3.0746182083629829
v 5.4277312636986785 25.317892577140462 -2.2121797887677674
v 0.87603182755299558 24.972839323621926 -2.1259183503444006
v 0.88807350489672776 24.146818988928018 -7.2500000000000018
v 0.24998000000000001 24.033399599999999 -7.25
v 2.8021113014824128 25.215471740475977 -2.1865767196595991
v 1.5253398784471162 24.245106496081906 -7.2500000000000018
v 4.7850150975907457 25.292706530913257 -2.2058833826351698
v 7.2500000000000018 25.064060992468768 -3.5245522899228474
v 4.1275386899500699 25.27314020332048 -2.2009935151163456
v 6.0509940429127607 25.353573514935317 -2.2211025588235302
v 0.24998000000000001 24.855049099999999 -2.0964711
v 3.4636468014610307 25.250707022404278 -2.195386039517532
v 7.2500000000000018 24.491265703890708 -6.6420103815858322
v 5.9012497881340185 24.399368394146219 -7.2500000000000018
v 7.2500000000000036 24.753099406938077 -4.7899923435116056
v 0.24998000000000004 24.106794204180773 -6.5987591700728547
v 0.24998000000000004 24.183074688872033 -5.9492425080698599
v 0.24998000000000004 24.462575925765549 -4.0173468938528361
v 2.1604066710374266 24.317842839543136 -7.25
v 3.4144416697922138 24.382078096062088 -7.2500000000000018
v 7.25 24.439376800000002 -7.25
v 0.24998000000000009 24.357543668681554 -4.6588343033993569
v 2.791072099137633 24.36206147290055 -7.2500000000000036
v 1.5077371814041793 25.077222148506202 -2.152014242476314
v 4.6277528028988781 24.386508651399275 -7.2500000000000053
v 6.5783178384226559 24.417120553042658 -7.2500000000000018
v 0.24998000000000015 24.58215781134836 -3.3769676465066523
v 5.2142149452836168 24.388917224253042 -7.2500000000000018
v 4.0274739278287832 24.386880952519604 -7.2500000000000053
v 0.24998000000000009 24.71472881749596 -2.7367871556338486
v 2.1493082557376288 25.158968212757074 -2.1724503458740583
v 7.25 25.4530487 -2.2459793000000001
v 7.25 24.640245958679888 -5.4137596975533242
v 7.2500000000000018 24.554985814972994 -6.0307435111951673
v 6.6560066591910143 25.399981457736988 -2.2327081957028874
v 0.24998000000000009 24.265466207982563 -5.3025545425550451
v 7.2500000000000018 25.253103005624645 -2.8860385258321148
v 7.2500000000000018 24.895247302830338 -4.1597982084498728
v 0.24998000000000001 15.3964005 -7.25
v 0.24998000000000001 2.25 -3.5548000000000002
v 0.24998000000000001 15.3964005 -0.26817999999999997
v 0.24998000000000001 2.25 -7.25
v 1.4999800000000001 14.1464005 -7.25
v 1.4999800000000001 14.1464005 0.58070999999999995
v -0.25002000000000002 15.8964005 0.14321
v -3.3535599999999999 18.999900799999999 0.63270999999999999
v -3.3535599999999999 18.999900799999999 7.25
v -1.5000100000000001 20.853500400000001 7.25
v -1.5000100000000001 20.853500400000001 1.0961000000000001
v -7.25 32.249900799999999 3.9451999999999998
v -7.25 2.25 -3.5548000000000002
v -7.25 2.25 -7.25
v 7.25 -32.249900799999999 -7.25
v -7.25 -32.249900799999999 -7.25
v -7.25 -32.249900799999999 7.25
v 7.25 -32.249900799999999 7.25
v 7.25 2.25 7.25
v 7.25 2.25 3.5548099999999998
v 7.25 32.249900799999999 -3.9451999999999998
v 7.25 32.249900799999999 -7.25
v 3.3534999000000001 16 0.11731999999999999
v 0.24998000000000001 32.249900799999999 -3.9451999999999998
v 0.24998000000000001 32.249900799999999 -7.25
v -0.25002000000000002 2.25 3.5548099999999998
v -0.25002000000000002 2.25 7.25
v -7.25 32.249900799999999 7.25
v -0.25002000000000002 32.249900799999999 7.25
v -0.25002000000000002 32.249900799999999 3.9451999999999998
v -0.25002000000000002 19.603500400000001 0.78359999999999996
v -0.25002000000000002 19.603500400000001 7.25
v 3.3615520000000001 16.029033699999999 -7.25
v 0.052911687500000006 15.644820068750001 -0.206074375
v -3.3535599999999999 18.999900799999999 1.0462905499999999
v 1.1874800000000001 14.4589005 -7.25
v -3.1218659999999998 19.231600749999998 0.69063399999999997
v -3.1218659999999998 19.231600749999998 7.25
v 0.24998000000000001 2.660825 -3.4520930000000001
v -3.3535599999999999 18.999900799999999 6.8364196000000002
v -7.25 2.25 -3.7857498999999999
v 3.1258360000000001 15.7828169 -7.25
v 6.8124985499999999 32.249900799999999 -7.25
v -0.25002000000000002 2.67645 3.4481974499999999
v -0.25002000000000002 2.67645 7.25
v -0.68751899999999999 32.249900799999999 3.9451999999999998
v -0.25002000000000002 19.603500400000001 1.1877500000000001
v 7.25 2.25 3.7857591999999998
v -0.25002000000000002 15.4699502 0.2498225
v -0.031270000000000006 15.6776505 0.1978975
v -0.25002000000000002 31.854701049999999 7.25
v -0.25002000000000002 19.998700150000001 0.88239999999999996
v -0.68751899999999999 32.249900799999999 7.25
v -7.25 32.015526749999999 3.8866062499999998
v -7.25 -31.980370499999999 -7.25
v -0.015644500000000006 2.25 7.25
v 6.91015625 -32.249900799999999 7.25
v -3.1595887 18.805932049999999 7.25
v -6.8125014500000001 32.249900799999999 3.9451999999999998
v -3.1283389499999998 18.774682049999999 0.57640449999999999
v -0.5625175 19.916000400000001 0.86172499999999996
v -0.25002000000000002 32.249900799999999 6.8369
v 7.25 32.015526749999999 -3.8866062499999998
v -0.25002000000000002 2.25 3.7857591999999998
v 3.35953905 16.021775249999997 -7.0197713500000001
v 7.25 -31.845605849999998 7.25
v -7.25 32.249900799999999 6.8369
v 7.25 -31.997948649999998 -7.25
v 7.25 32.249900799999999 -4.3582999999999998
v 6.8124985499999999 32.249900799999999 -3.9451999999999998
v -7.25 32.249900799999999 4.3582999999999998
v 0.24998000000000001 2.660825 -7.25
v 0.24998000000000001 32.249900799999999 -4.3582999999999998
v 0.24998000000000001 31.839076049999999 -3.84249295
v 6.8984365499999996 2.25 7.25
v 7.25 1.8625498999999999 7.25
v 0.24998000000000001 2.25 -7.0190499000000006
v 7.25 32.249900799999999 -6.8369
v -6.91015625 -32.249900799999999 -7.25
v 1.4999800000000001 14.1464005 -7.0052902499999998
v -7.25 -31.997948649999998 7.25
v 7.25 31.871973050000001 -7.25
v -7.25 31.871973050000001 7.25
v 6.8535155999999997 -32.249900799999999 -7.25
v -6.8125014500000001 32.249900799999999 7.25
v -6.9570322000000004 2.25 -7.25
v 0.24998000000000001 15.3964005 -0.70454400000000006
v -7.25 2.25 -6.9035749499999994
v -7.25 -32.249900799999999 6.8477630500000002
v 7.25 -32.249900799999999 6.91015625
v 7.25 -32.249900799999999 -6.73153545
v 0.27813262500000002 15.008775950000002 -0.36508681249999997
v 7.25 2.25 6.8169698499999996
v -0.25002000000000002 31.854701049999999 3.8464000499999997
v -7.25 1.8457042000000001 -7.25
v -0.25002000000000002 32.249900799999999 4.3582999999999998
v -0.042988049999999986 2.25 -3.5548000000000002
v 0.68748100000000001 32.249900799999999 -7.25
v 0.24998000000000001 32.249900799999999 -6.8369
v 0.24998000000000001 31.839076049999999 -7.25
v 0.68748100000000001 32.249900799999999 -3.9451999999999998
v 1.6158250000000001 14.26225045 -7.25
v -7.25 2.3671871499999999 -3.5255031250000002
v 0.13279275000000001 2.25 -7.25
v 7.1328121499999995 2.25 3.5548099999999998
v 3.2635604750000002 16.122388874999999 -7.25
v -0.13283225000000001 2.25 3.5548099999999998
v -7.25 -32.249900799999999 -6.966796875
v -7.1328128500000005 2.25 -3.5548000000000002
v 7.25 2.3671871499999999 3.5255131249999998
v -0.25002000000000002 2.25 7.0767879499999999
v -7.080078125 -32.249900799999999 7.25
v 0.24998000000000001 2.25 -3.7280125250000005
v -1.6158570000000001 20.737650425000002 1.0671379999999999
v -1.34376125 20.697250400000001 1.0570375000000001
v 1.4452925000000001 14.201088 0.56703812499999995
v 0.40622999999999998 15.2401505 -7.25
v -0.25002000000000002 19.801100275000003 7.25
v -1.34376125 20.697250400000001 7.25
v -1.5000100000000001 20.853500400000001 1.28840925
v 3.3534999000000001 16 0.0022056249999999958
v 1.4999800000000001 14.1464005 0.45835512499999997
v 3.3050074125000002 16.048492187499999 0.10519675000000001
v 3.2955774125000001 15.9420750125 0.131801
v 0.24998000000000001 15.3964005 -7.031818275
v -1.5000100000000001 20.853500400000001 7.1538452499999998
v -0.25002000000000002 19.603500400000001 7.0479250000000002
v 1.5579025 14.204325475000001 0.56622899999999987
v -0.40626875000000001 19.759750400000001 7.25
v -1.5868951500000001 20.766613025000002 7.25
v 0.24998000000000001 15.190987849999999 -7.25
v -1.5000100000000001 20.853500400000001 1.0961000000000001
v -1.5000100000000001 20.853500400000001 1.0961000000000001
v -3.3535599999999999 18.999900799999999 0.63270999999999999
v -3.3535599999999999 18.999900799999999 0.63270999999999999
v -3.3535599999999999 18.999900799999999 7.25
v -3.3535599999999999 18.999900799999999 7.25
v 1.4999800000000001 14.1464005 0.58070999999999995
v 1.4999800000000001 14.1464005 0.58070999999999995
v 1.4999800000000001 14.1464005 -7.25
v 1.4999800000000001 14.1464005 -7.25
v 7.25 2.25 3.5548099999999998
v 7.25 2.25 3.5548099999999998
v -0.25002000000000002 15.8964005 0.14321
v -0.25002000000000002 32.249900799999999 7.25
v -0.25002000000000002 32.249900799999999 7.25
v -0.25002000000000002 19.603500400000001 0.78359999999999996
v -0.25002000000000002 19.603500400000001 0.78359999999999996
v -7.25 -32.249900799999999 -7.25
v -7.25 -32.249900799999999 -7.25
v 3.3615520000000001 16.029033699999999 -7.25
v 3.3615520000000001 16.029033699999999 -7.25
v 0.24998000000000001 2.25 -7.25
v 0.24998000000000001 2.25 -7.25
v -7.25 2.25 -3.5548000000000002
v -7.25 2.25 -3.5548000000000002
v -0.25002000000000002 2.25 7.25
v -0.25002000000000002 2.25 7.25
v 3.3534999000000001 16 0.11731999999999999
v 3.3534999000000001 16 0.11731999999999999
v 7.25 -32.249900799999999 7.25
v 7.25 -32.249900799999999 7.25
v 7.25 32.249900799999999 -3.9451999999999998
v 7.25 32.249900799999999 -3.9451999999999998
v -1.5000100000000001 20.853500400000001 7.25
v -1.5000100000000001 20.853500400000001 7.25
v 7.25 32.249900799999999 -7.25
v 7.25 32.249900799999999 -7.25
v -7.25 32.249900799999999 7.25
v -7.25 32.249900799999999 7.25
v 7.25 2.25 7.25
v 7.25 2.25 7.25
v -7.25 2.25 -7.25
v -7.25 2.25 -7.25
v -0.25002000000000002 2.25 3.5548099999999998
v -0.25002000000000002 2.25 3.5548099999999998
v 0.24998000000000001 32.249900799999999 -7.25
v 0.24998000000000001 32.249900799999999 -7.25
v 0.24998000000000001 32.249900799999999 -3.9451999999999998
v 0.24998000000000001 32.249900799999999 -3.9451999999999998
v 0.24998000000000001 15.3964005 -0.26817999999999997
v 0.24998000000000001 15.3964005 -0.26817999999999997
v 0.24998000000000001 2.25 -3.5548000000000002
v 0.24998000000000001 2.25 -3.5548000000000002
v -0.25002000000000002 32.249900799999999 3.9451999999999998
v -0.25002000000000002 32.249900799999999 3.9451999999999998
v -7.25 32.249900799999999 3.9451999999999998
v -7.25 32.249900799999999 3.9451999999999998
v -7.25 -32.249900799999999 7.25
v -7.25 -32.249900799999999 7.25
v 7.25 -32.249900799999999 -7.25
v 7.25 -32.249900799999999 -7.25
v -0.25002000000000002 19.603500400000001 7.25
v -0.25002000000000002 19.603500400000001 7.25
v 0.24998000000000001 15.3964005 -7.25
v 0.24998000000000001 15.3964005 -7.25
l 2/2 1/1
l 1/1 5/5
l 5/5 3/3
l 3/3 4/4
l 8/8 6/6
l 6/6 10/10
l 10/10 7/7
l 7/7 9/9
l 14/14 11/11
l 11/11 13/13
l 13/13 16/16
l 16/16 12/12
l 12/12 17/17
l 17/17 15/15
l 15/15 18/18
l 23/23 20/20
l 20/20 19/19
l 19/19 21/21
l 21/21 25/25
l 25/25 22/22
l 22/22 24/24
l 35/35 27/27
l 27/27 33/33
l 33/33 30/30
l 30/30 34/34
l 34/34 26/26
l 26/26 28/28
l 28/28 31/31
l 31/31 29/29
l 29/29 32/32
l 39/39 37/37
l 37/37 36/36
l 36/36 38/38
l 38/38 40/40
l 45/45 42/42
l 42/42 41/41
l 41/41 43/43
l 43/43 44/44
l 49/49 47/47
l 47/47 46/46
l 46/46 48/48
l 48/48 50/50
l 54/54 52/52
l 52/52 57/57
l 57/57 51/51
l 51/51 56/56
l 56/56 53/53
l 53/53 55/55
l 68/68 61/61
l 61/61 59/59
l 59/59 62/62
l 62/62 58/58
l 58/58 60/60
l 60/60 66/66
l 66/66 63/63
l 63/63 67/67
l 67/67 64/64
l 64/64 65/65
l 77/77 75/75
l 75/75 71/71
l 71/71 72/72
l 72/72 69/69
l 69/69 74/74
l 74/74 70/70
l 70/70 73/73
l 73/73 78/78
l 78/78 76/76
l 76/76 79/79
l 87/87 83/83
l 83/83 81/81
l 81/81 84/84
l 84/84 80/80
l 80/80 85/85
l 85/85 82/82
l 82/82 86/86
l 86/86 88/88
l 96/96 93/93
l 93/93 90/90
l 90/90 94/94
l 94/94 89/89
l 89/89 92/92
l 92/92 91/91
l 91/91 95/95
l 95/95 97/97
l 106/106 101/101
l 101/101 107/107
l 107/107 99/99
l 99/99 102/102
l 102/102 98/98
l 98/98 103/103
l 103/103 100/100
l 100/100 104/104
l 104/104 105/105
l 115/115 110/110
l 110/110 114/114
l 114/114 111/111
l 111/111 108/108
l 108/108 112/112
l 112/112 109/109
l 109/109 117/117
l 117/117 113/113
l 113/113 116/116
l 126/126 120/120
l 120/120 119/119
l 119/119 121/121
l 121/121 118/118
l 118/118 122/122
l 122/122 124/124
l 124/124 123/123
l 123/123 125/125
l 134/134 131/131
l 131/131 128/128
l 128/128 130/130
l 130/130 127/127
l 127/127 132/132
l 132/132 129/129
l 129/129 133/133
l 133/133 136/136
l 136/136 135/135
l 135/135 137/137
l 154/154 145/145
l 145/145 141/141
l 141/141 148/148
l 148/148 139/139
l 139/139 146/146
l 146/146 142/142
l 142/142 147/147
l 147/147 138/138
l 138/138 152/152
l 152/152 144/144
l 144/144 151/151
l 151/151 140/140
l 140/140 150/150
l 150/150 143/143
l 143/143 149/149
l 149/149 153/153
l 172/172 163/163
l 163/163 161/161
l 161/161 166/166
l 166/166 157/157
l 157/157 164/164
l 164/164 160/160
l 160/160 167/167
l 167/167 155/155
l 155/155 168/168
l 168/168 158/158
l 158/158 162/162
l 162/162 156/156
l 156/156 165/165
l 165/165 159/159
l 159/159 170/170
l 170/170 169/169
l 169/169 171/171
l 190/190 185/185
l 185/185 178/178
l 178/178 182/182
l 182/182 187/187
l 187/187 183/183
l 183/183 177/177
l 177/177 181/181
l 181/181 173/173
l 173/173 179/179
l 179/179 175/175
l 175/175 180/180
l 180/180 174/174
l 174/174 184/184
l 184/184 176/176
l 176/176 188/188
l 188/188 186/186
l 186/186 191/191
l 191/191 189/189
l 189/189 192/192
l 215/215 199/199
l 199/199 216/216
l 216/216 196/196
l 196/196 205/205
l 205/205 200/200
l 200/200 212/212
l 212/212 194/194
l 194/194 201/201
l 201/201 197/197
l 197/197 202/202
l 202/202 209/209
l 209/209 193/193
l 193/193 211/211
l 211/211 198/198
l 198/198 206/206
l 206/206 207/207
l 207/207 195/195
l 195/195 203/203
l 203/203 210/210
l 210/210 208/208
l 208/208 214/214
l 214/214 204/204
l 204/204 213/213
l 240/240 224/224
l 224/224 220/220
l 220/220 236/236
l 236/236 225/225
l 225/225 218/218
l 218/218 234/234
l 234/234 226/226
l 226/226 221/221
l 221/221 227/227
l 227/227 217/217
l 217/217 235/235
l 235/235 228/228
l 228/228 222/222
l 222/222 229/229
l 229/229 231/231
l 231/231 238/238
l 238/238 219/219
l 219/219 237/237
l 237/237 233/233
l 233/233 239/239
l 239/239 232/232
l 232/232 223/223
l 223/223 230/230
l 230/230 243/243
l 243/243 241/241
l 241/241 242/242
l 269/269 255/255
l 255/255 268/268
l 268/268 257/257
l 257/257 267/267
l 267/267 249/249
l 249/249 254/254
l 254/254 276/276
l 276/276 262/262
l 262/262 274/274
l 274/274 263/263
l 263/263 261/261
l 261/261 256/256
l 256/256 248/248
l 248/248 253/253
l 253/253 280/280
l 280/280 265/265
l 265/265 273/273
l 273/273 244/244
l 244/244 279/279
l 279/279 252/252
l 252/252 247/247
l 247/247 259/259
l 259/259 270/270
l 270/270 251/251
l 251/251 266/266
l 266/266 245/245
l 245/245 250/250
l 250/250 277/277
l 277/277 246/246
l 246/246 271/271
l 271/271 264/264
l 264/264 278/278
l 278/278 260/260
l 260/260 275/275
l 275/275 258/258
l 258/258 272/272
l 272/272 281/281
l 309/309 298/298
l 298/298 311/311
l 311/311 290/290
l 290/290 297/297
l 297/297 286/286
l 286/286 296/296
l 296/296 289/289
l 289/289 295/295
l 295/295 283/283
l 283/283 292/292
l 292/292 287/287
l 287/287 291/291
l 291/291 285/285
l 285/285 294/294
l 294/294 288/288
l 288/288 293/293
l 293/293 316/316
l 316/316 306/306
l 306/306 313/313
l 313/313 282/282
l 282/282 314/314
l 314/314 307/307
l 307/307 318/318
l 318/318 299/299
l 299/299 305/305
l 305/305 284/284
l 284/284 304/304
l 304/304 301/301
l 301/301 303/303
l 303/303 302/302
l 302/302 310/310
l 310/310 300/300
l 300/300 315/315
l 315/315 308/308
l 308/308 319/319
l 319/319 312/312
l 312/312 317/317
l 350/350 335/335
l 335/335 329/329
l 329/329 332/332
l 332/332 325/325
l 325/325 336/336
l 336/336 327/327
l 327/327 331/331
l 331/331 321/321
l 321/321 333/333
l 333/333 326/326
l 326/326 330/330
l 330/330 324/324
l 324/324 334/334
l 334/334 328/328
l 328/328 341/341
l 341/341 348/348
l 348/348 320/320
l 320/320 345/345
l 345/345 338/338
l 338/338 323/323
l 323/323 346/346
l 346/346 337/337
l 337/337 349/349
l 349/349 322/322
l 322/322 343/343
l 343/343 339/339
l 339/339 342/342
l 342/342 344/344
l 344/344 340/340
l 340/340 347/347
l 347/347 351/351
l 369/369 360/360
l 360/360 367/367
l 367/367 355/355
l 355/355 359/359
l 359/359 353/353
l 353/353 361/361
l 361/361 356/356
l 356/356 366/366
l 366/366 352/352
l 352/352 362/362
l 362/362 357/357
l 357/357 363/363
l 363/363 354/354
l 354/354 364/364
l 364/364 358/358
l 358/358 365/365
l 365/365 368/368
l 396/396 388/388
l 388/388 380/380
l 380/380 384/384
l 384/384 376/376
l 376/376 385/385
l 385/385 379/379
l 379/379 383/383
l 383/383 372/372
l 372/372 387/387
l 387/387 378/378
l 378/378 382/382
l 382/382 373/373
l 373/373 386/386
l 386/386 377/377
l 377/377 381/381
l 381/381 393/393
l 393/393 370/370
l 370/370 394/394
l 394/394 390/390
l 390/390 401/401
l 401/401 374/374
l 374/374 399/399
l 399/399 392/392
l 392/392 371/371
l 371/371 397/397
l 397/397 389/389
l 389/389 400/400
l 400/400 375/375
l 375/375 395/395
l 395/395 391/391
l 391/391 398/398
l 419/419 416/416
l 416/416 406/406
l 406/406 413/413
l 413/413 420/420
l 420/420 403/403
l 403/403 417/417
l 417/417 411/411
l 411/411 407/407
l 407/407 414/414
l 414/414 402/402
l 402/402 409/409
l 409/409 405/405
l 405/405 412/412
l 412/412 404/404
l 404/404 410/410
l 410/410 408/408
l 408/408 421/421
l 421/421 415/415
l 415/415 423/423
l 423/423 418/418
l 418/418 422/422
l 436/436 426/426
l 426/426 432/432
l 432/432 433/433
l 433/433 430/430
l 430/430 427/427
l 427/427 428/428
l 428/428 431/431
l 431/431 424/424
l 424/424 425/425
l 425/425 435/435
l 435/435 429/429
l 429/429 434/434
l 441/441 439/439
l 439/439 443/443
l 443/443 438/438
l 438/438 442/442
l 442/442 437/437
l 437/437 446/446
l 446/446 440/440
l 440/440 447/447
l 447/447 444/444
l 444/444 445/445
l 461/461 452/452
l 452/452 451/451
l 451/451 455/455
l 455/455 454/454
l 454/454 456/456
l 456/456 448/448
l 448/448 450/450
l 450/450 457/457
l 457/457 458/458
l 458/458 449/449
l 449/449 459/459
l 459/459 453/453
l 453/453 462/462
l 462/462 460/460
l 460/460 463/463
l 514/514 487/487
l 487/487 529/529
l 529/529 504/504
l 504/504 474/474
l 474/474 524/524
l 524/524 495/495
l 495/495 516/516
l 516/516 502/502
l 502/502 522/522
l 522/522 494/494
l 494/494 467/467
l 467/467 505/505
l 505/505 473/473
l 473/473 496/496
l 496/496 506/506
l 506/506 497/497
l 497/497 499/499
l 499/499 475/475
l 475/475 472/472
l 472/472 483/483
l 483/483 482/482
l 482/482 466/466
l 466/466 486/486
l 486/486 476/476
l 476/476 471/471
l 471/471 503/503
l 503/503 491/491
l 491/491 485/485
l 485/485 477/477
l 477/477 490/490
l 490/490 515/515
l 515/515 470/470
l 470/470 521/521
l 521/521 481/481
l 481/481 492/492
l 492/492 465/465
l 465/465 478/478
l 478/478 513/513
l 513/513 488/488
l 488/488 518/518
l 518/518 469/469
l 469/469 517/517
l 517/517 498/498
l 498/498 508/508
l 508/508 507/507
l 507/507 525/525
l 525/525 500/500
l 500/500 528/528
l 528/528 511/511
l 511/511 527/527
l 527/527 510/510
l 510/510 468/468
l 468/468 479/479
l 479/479 512/512
l 512/512 484/484
l 484/484 523/523
l 523/523 464/464
l 464/464 520/520
l 520/520 493/493
l 493/493 519/519
l 519/519 480/480
l 480/480 501/501
l 501/501 489/489
l 489/489 509/509
l 509/509 526/526
l 588/588 548/548
l 548/548 586/586
l 586/586 541/541
l 541/541 574/574
l 574/574 561/561
l 561/561 573/573
l 573/573 534/534
l 534/534 549/549
l 549/549 552/552
l 552/552 536/536
l 536/536 550/550
l 550/550 572/572
l 572/572 532/532
l 532/532 544/544
l 544/544 560/560
l 560/560 571/571
l 571/571 590/590
l 590/590 566/566
l 566/566 595/595
l 595/595 554/554
l 554/554 591/591
l 591/591 535/535
l 535/535 581/581
l 581/581 546/546
l 546/546 592/592
l 592/592 568/568
l 568/568 551/551
l 551/551 556/556
l 556/556 545/545
l 545/545 565/565
l 565/565 585/585
l 585/585 530/530
l 530/530 579/579
l 579/579 559/559
l 559/559 557/557
l 557/557 539/539
l 539/539 540/540
l 540/540 593/593
l 593/593 547/547
l 547/547 578/578
l 578/578 533/533
l 533/533 555/555
l 555/555 558/558
l 558/558 538/538
l 538/538 562/562
l 562/562 580/580
l 580/580 553/553
l 553/553 594/594
l 594/594 531/531
l 531/531 543/543
l 543/543 575/575
l 575/575 582/582
l 582/582 577/577
l 577/577 596/596
l 596/596 537/537
l 537/537 576/576
l 576/576 587/587
l 587/587 570/570
l 570/570 583/583
l 583/583 569/569
l 569/569 589/589
l 589/589 564/564
l 564/564 567/567
l 567/567 542/542
l 542/542 563/563
l 563/563 584/584
l 584/584 597/597
l 652/652 624/624
l 624/624 622/622
l 622/622 605/605
l 605/605 621/621
l 621/621 623/623
l 623/623 600/600
l 600/600 639/639
l 639/639 610/610
l 610/610 634/634
l 634/634 626/626
l 626/626 609/609
l 609/609 656/656
l 656/656 625/625
l 625/625 653/653
l 653/653 598/598
l 598/598 617/617
l 617/617 618/618
l 618/618 604/604
l 604/604 608/608
l 608/608 651/651
l 651/651 628/628
l 628/628 650/650
l 650/650 633/633
l 633/633 613/613
l 613/613 638/638
l 638/638 647/647
l 647/647 603/603
l 603/603 648/648
l 648/648 627/627
l 627/627 620/620
l 620/620 631/631
l 631/631 630/630
l 630/630 607/607
l 607/607 602/602
l 602/602 632/632
l 632/632 606/606
l 606/606 599/599
l 599/599 616/616
l 616/616 642/642
l 642/642 601/601
l 601/601 611/611
l 611/611 629/629
l 629/629 643/643
l 643/643 612/612
l 612/612 641/641
l 641/641 637/637
l 637/637 649/649
l 649/649 646/646
l 646/646 654/654
l 654/654 640/640
l 640/640 635/635
l 635/635 619/619
l 619/619 636/636
l 636/636 615/615
l 615/615 645/645
l 645/645 614/614
l 614/614 644/644
l 644/644 655/655
l 760/760 695/695
l 695/695 758/758
l 758/758 700/700
l 700/700 674/674
l 674/674 721/721
l 721/721 701/701
l 701/701 666/666
l 666/666 689/689
l 689/689 722/722
l 722/722 699/699
l 699/699 749/749
l 749/749 680/680
l 680/680 754/754
l 754/754 724/724
l 724/724 661/661
l 661/661 731/731
l 731/731 693/693
l 693/693 723/723
l 723/723 681/681
l 681/681 667/667
l 667/667 720/720
l 720/720 682/682
l 682/682 752/752
l 752/752 747/747
l 747/747 756/756
l 756/756 732/732
l 732/732 755/755
l 755/755 690/690
l 690/690 659/659
l 659/659 734/734
l 734/734 725/725
l 725/725 675/675
l 675/675 711/711
l 711/711 696/696
l 696/696 746/746
l 746/746 683/683
l 683/683 715/715
l 715/715 741/741
l 741/741 726/726
l 726/726 708/708
l 708/708 739/739
l 739/739 684/684
l 684/684 706/706
l 706/706 676/676
l 676/676 691/691
l 691/691 694/694
l 694/694 668/668
l 668/668 685/685
l 685/685 719/719
l 719/719 709/709
l 709/709 698/698
l 698/698 657/657
l 657/657 716/716
l 716/716 705/705
l 705/705 745/745
l 745/745 679/679
l 679/679 665/665
l 665/665 727/727
l 727/727 717/717
l 717/717 673/673
l 673/673 713/713
l 713/713 740/740
l 740/740 736/736
l 736/736 757/757
l 757/757 677/677
l 677/677 753/753
l 753/753 744/744
l 744/744 750/750
l 750/750 669/669
l 669/669 686/686
l 686/686 707/707
l 707/707 664/664
l 664/664 751/751
l 751/751 743/743
l 743/743 759/759
l 759/759 742/742
l 742/742 672/672
l 672/672 735/735
l 735/735 704/704
l 704/704 658/658
l 658/658 678/678
l 678/678 748/748
l 748/748 718/718
l 718/718 703/703
l 703/703 729/729
l 729/729 662/662
l 662/662 702/702
l 702/702 730/730
l 730/730 714/714
l 714/714 733/733
l 733/733 688/688
l 688/688 660/660
l 660/660 728/728
l 728/728 710/710
l 710/710 671/671
l 671/671 687/687
l 687/687 738/738
l 738/738 663/663
l 663/663 712/712
l 712/712 737/737
l 737/737 670/670
l 670/670 692/692
l 692/692 697/697
l 697/697 761/761
l 865/865 821/821
l 821/821 856/856
l 856/856 843/843
l 843/843 858/858
l 858/858 835/835
l 835/835 817/817
l 817/817 799/799
l 799/799 855/855
l 855/855 766/766
l 766/766 873/873
l 873/873 853/853
l 853/853 818/818
l 818/818 819/819
l 819/819 798/798
l 798/798 796/796
l 796/796 837/837
l 837/837 771/771
l 771/771 793/793
l 793/793 844/844
l 844/844 784/784
l 784/784 767/767
l 767/767 820/820
l 820/820 828/828
l 828/828 829/829
l 829/829 785/785
l 785/785 807/807
l 807/807 832/832
l 832/832 786/786
l 786/786 822/822
l 822/822 869/869
l 869/869 778/778
l 778/778 864/864
l 864/864 787/787
l 787/787 857/857
l 857/857 816/816
l 816/816 800/800
l 800/800 788/788
l 788/788 811/811
l 811/811 776/776
l 776/776 823/823
l 823/823 803/803
l 803/803 763/763
l 763/763 839/839
l 839/839 777/777
l 777/777 838/838
l 838/838 860/860
l 860/860 789/789
l 789/789 866/866
l 866/866 794/794
l 794/794 863/863
l 863/863 768/768
l 768/768 790/790
l 790/790 812/812
l 812/812 846/846
l 846/846 791/791
l 791/791 810/810
l 810/810 762/762
l 762/762 840/840
l 840/840 802/802
l 802/802 847/847
l 847/847 826/826
l 826/826 836/836
l 836/836 859/859
l 859/859 764/764
l 764/764 867/867
l 867/867 781/781
l 781/781 813/813
l 813/813 773/773
l 773/773 870/870
l 870/870 830/830
l 830/830 861/861
l 861/861 814/814
l 814/814 805/805
l 805/805 770/770
l 770/770 774/774
l 774/774 872/872
l 872/872 852/852
l 852/852 868/868
l 868/868 782/782
l 782/782 854/854
l 854/854 795/795
l 795/795 862/862
l 862/862 765/765
l 765/765 825/825
l 825/825 783/783
l 783/783 775/775
l 775/775 848/848
l 848/848 801/801
l 801/801 851/851
l 851/851 779/779
l 779/779 772/772
l 772/772 806/806
l 806/806 834/834
l 834/834 842/842
l 842/842 804/804
l 804/804 815/815
l 815/815 827/827
l 827/827 780/780
l 780/780 797/797
l 797/797 824/824
l 824/824 792/792
l 792/792 845/845
l 845/845 841/841
l 841/841 831/831
l 831/831 809/809
l 809/809 808/808
l 808/808 850/850
l 850/850 833/833
l 833/833 769/769
l 769/769 849/849
l 849/849 871/871
l 922/922 893/893
l 893/893 926/926
l 926/926 907/907
l 907/907 923/923
l 923/923 879/879
l 879/879 931/931
l 931/931 900/900
l 900/900 908/908
l 908/908 909/909
l 909/909 891/891
l 891/891 882/882
l 882/882 918/918
l 918/918 880/880
l 880/880 906/906
l 906/906 901/901
l 901/901 928/928
l 928/928 883/883
l 883/883 920/920
l 920/920 899/899
l 899/899 930/930
l 930/930 877/877
l 877/877 919/919
l 919/919 884/884
l 884/884 902/902
l 902/902 875/875
l 875/875 927/927
l 927/927 897/897
l 897/897 921/921
l 921/921 885/885
l 885/885 878/878
l 878/878 911/911
l 911/911 917/917
l 917/917 874/874
l 874/874 916/916
l 916/916 905/905
l 905/905 895/895
l 895/895 887/887
l 887/887 876/876
l 876/876 910/910
l 910/910 888/888
l 888/888 914/914
l 914/914 894/894
l 894/894 898/898
l 898/898 896/896
l 896/896 886/886
l 886/886 903/903
l 903/903 889/889
l 889/889 913/913
l 913/913 912/912
l 912/912 929/929
l 929/929 892/892
l 892/892 932/932
l 932/932 881/881
l 881/881 890/890
l 890/890 915/915
l 915/915 925/925
l 925/925 904/904
l 904/904 924/924
l 924/924 933/933
l 939/939 936/936
l 936/936 941/941
l 941/941 935/935
l 935/935 934/934
l 934/934 942/942
l 942/942 937/937
l 937/937 940/940
l 940/940 938/938
l 938/938 943/943
l 951/951 947/947
l 947/947 949/949
l 949/949 945/945
l 945/945 944/944
l 944/944 948/948
l 948/948 950/950
l 950/950 946/946
l 946/946 952/952
l 952/952 953/953
l 961/961 956/956
l 956/956 960/960
l 960/960 957/957
l 957/957 962/962
l 962/962 954/954
l 954/954 955/955
l 955/955 959/959
l 959/959 958/958
l 958/958 963/963
l 963/963 964/964
l 969/969 967/967
l 967/967 965/965
l 965/965 970/970
l 970/970 966/966
l 966/966 968/968
l 968/968 971/971
l 984/984 977/977
l 977/977 986/986
l 986/986 974/974
l 974/974 982/982
l 982/982 973/973
l 973/973 975/975
l 975/975 980/980
l 980/980 978/978
l 978/978 981/981
l 981/981 972/972
l 972/972 976/976
l 976/976 985/985
l 985/985 979/979
l 979/979 988/988
l 988/988 983/983
l 983/983 987/987
l 1013/1013 1000/1000
l 1000/1000 992/992
l 992/992 994/994
l 994/994 990/990
l 990/990 1006/1006
l 1006/1006 999/999
l 999/999 995/995
l 995/995 1001/1001
l 1001/1001 996/996
l 996/996 989/989
l 989/989 1004/1004
l 1004/1004 997/997
l 997/997 1002/1002
l 1002/1002 998/998
l 998/998 991/991
l 991/991 1003/1003
l 1003/1003 1005/1005
l 1005/1005 1010/1010
l 1010/1010 993/993
l 993/993 1012/1012
l 1012/1012 1007/1007
l 1007/1007 1009/1009
l 1009/1009 1008/1008
l 1008/1008 1011/1011
l 1030/1030 1024/1024
l 1024/1024 1014/1014
l 1014/1014 1021/1021
l 1021/1021 1019/1019
l 1019/1019 1026/1026
l 1026/1026 1023/1023
l 1023/1023 1027/1027
l 1027/1027 1015/1015
l 1015/1015 1025/1025
l 1025/1025 1020/1020
l 1020/1020 1016/1016
l 1016/1016 1018/1018
l 1018/1018 1022/1022
l 1022/1022 1028/1028
l 1028/1028 1017/1017
l 1017/1017 1029/1029
l 1029/1029 1031/1031
l 1046/1046 1042/1042
l 1042/1042 1045/1045
l 1045/1045 1037/1037
l 1037/1037 1041/1041
l 1041/1041 1034/1034
l 1034/1034 1035/1035
l 1035/1035 1038/1038
l 1038/1038 1033/1033
l 1033/1033 1036/1036
l 1036/1036 1032/1032
l 1032/1032 1039/1039
l 1039/1039 1044/1044
l 1044/1044 1040/1040
l 1040/1040 1043/1043
l 1043/1043 1047/1047
l 1059/1059 1056/1056
l 1056/1056 1058/1058
l 1058/1058 1050/1050
l 1050/1050 1054/1054
l 1054/1054 1053/1053
l 1053/1053 1048/1048
l 1048/1048 1051/1051
l 1051/1051 1049/1049
l 1049/1049 1052/1052
l 1052/1052 1055/1055
l 1055/1055 1061/1061
l 1061/1061 1057/1057
l 1057/1057 1060/1060
l 1068/1068 1063/1063
l 1063/1063 1066/1066
l 1066/1066 1062/1062
l 1062/1062 1067/1067
l 1067/1067 1064/1064
l 1064/1064 1065/1065
l 1087/1087 1082/1082
l 1082/1082 1076/1076
l 1076/1076 1081/1081
l 1081/1081 1079/1079
l 1079/1079 1084/1084
l 1084/1084 1070/1070
l 1070/1070 1071/1071
l 1071/1071 1078/1078
l 1078/1078 1083/1083
l 1083/1083 1073/1073
l 1073/1073 1080/1080
l 1080/1080 1077/1077
l 1077/1077 1069/1069
l 1069/1069 1074/1074
l 1074/1074 1075/1075
l 1075/1075 1086/1086
l 1086/1086 1072/1072
l 1072/1072 1085/1085
l 1085/1085 1088/1088
l 1098/1098 1095/1095
l 1095/1095 1102/1102
l 1102/1102 1094/1094
l 1094/1094 1100/1100
l 1100/1100 1091/1091
l 1091/1091 1092/1092
l 1092/1092 1089/1089
l 1089/1089 1090/1090
l 1090/1090 1097/1097
l 1097/1097 1093/1093
l 1093/1093 1099/1099
l 1099/1099 1096/1096
l 1096/1096 1101/1101
l 1105/1105 1104/1104
l 1104/1104 1103/1103
l 1106/1106 1108/1108
l 1108/1108 1107/1107
l 1118/1118 1117/1117
l 1117/1117 1115/1115
l 1115/1115 1112/1112
l 1112/1112 1114/1114
l 1114/1114 1110/1110
l 1110/1110 1113/1113
l 1113/1113 1111/1111
l 1111/1111 1116/1116
l 1116/1116 1109/1109
l 1127/1127 1124/1124
l 1124/1124 1125/1125
l 1125/1125 1126/1126
l 1126/1126 1120/1120
l 1120/1120 1123/1123
l 1123/1123 1122/1122
l 1122/1122 1121/1121
l 1121/1121 1119/1119
l 1128/1128 1131/1131
l 1131/1131 1134/1134
l 1134/1134 1135/1135
l 1135/1135 1129/1129
l 1129/1129 1133/1133
l 1133/1133 1132/1132
l 1132/1132 1130/1130
l 1147/1147 1142/1142
l 1142/1142 1141/1141
l 1141/1141 1143/1143
l 1143/1143 1146/1146
l 1146/1146 1144/1144
l 1144/1144 1145/1145
l 1145/1145 1139/1139
l 1139/1139 1137/1137
l 1137/1137 1136/1136
l 1136/1136 1140/1140
l 1140/1140 1138/1138
l 1155/1155 1152/1152
l 1152/1152 1148/1148
l 1148/1148 1151/1151
l 1151/1151 1153/1153
l 1153/1153 1150/1150
l 1150/1150 1149/1149
l 1149/1149 1154/1154
l 1156/1156 1158/1158
l 1158/1158 1162/1162
l 1162/1162 1159/1159
l 1159/1159 1157/1157
l 1157/1157 1160/1160
l 1160/1160 1161/1161
l 1163/1163 1172/1172
l 1172/1172 1166/1166
l 1166/1166 1170/1170
l 1170/1170 1164/1164
l 1164/1164 1173/1173
l 1173/1173 1168/1168
l 1168/1168 1165/1165
l 1165/1165 1167/1167
l 1167/1167 1169/1169
l 1169/1169 1171/1171
l 1174/1174 1179/1179
l 1179/1179 1189/1189
l 1189/1189 1175/1175
l 1175/1175 1177/1177
l 1177/1177 1188/1188
l 1188/1188 1183/1183
l 1183/1183 1190/1190
l 1190/1190 1186/1186
l 1186/1186 1187/1187
l 1187/1187 1191/1191
l 1191/1191 1178/1178
l 1178/1178 1181/1181
l 1181/1181 1184/1184
l 1184/1184 1185/1185
l 1185/1185 1176/1176
l 1176/1176 1180/1180
l 1180/1180 1182/1182
l 1218/1218 1201/1201
l 1201/1201 1213/1213
l 1213/1213 1193/1193
l 1193/1193 1217/1217
l 1217/1217 1192/1192
l 1192/1192 1202/1202
l 1202/1202 1199/1199
l 1199/1199 1200/1200
l 1200/1200 1208/1208
l 1208/1208 1214/1214
l 1214/1214 1211/1211
l 1211/1211 1212/1212
l 1212/1212 1210/1210
l 1210/1210 1194/1194
l 1194/1194 1209/1209
l 1209/1209 1206/1206
l 1206/1206 1207/1207
l 1207/1207 1204/1204
l 1204/1204 1203/1203
l 1203/1203 1198/1198
l 1198/1198 1216/1216
l 1216/1216 1205/1205
l 1205/1205 1196/1196
l 1196/1196 1215/1215
l 1215/1215 1197/1197
l 1197/1197 1195/1195
l 1219/1219 1233/1233
l 1233/1233 1232/1232
l 1232/1232 1229/1229
l 1229/1229 1230/1230
l 1230/1230 1231/1231
l 1231/1231 1227/1227
l 1227/1227 1220/1220
l 1220/1220 1228/1228
l 1228/1228 1221/1221
l 1221/1221 1223/1223
l 1223/1223 1222/1222
l 1222/1222 1224/1224
l 1224/1224 1226/1226
l 1226/1226 1225/1225
l 1234/1234 1243/1243
l 1243/1243 1235/1235
l 1235/1235 1242/1242
l 1242/1242 1236/1236
l 1236/1236 1239/1239
l 1239/1239 1237/1237
l 1237/1237 1241/1241
l 1241/1241 1238/1238
l 1238/1238 1240/1240
l 1255/1255 1250/1250
l 1250/1250 1252/1252
l 1252/1252 1248/1248
l 1248/1248 1245/1245
l 1245/1245 1246/1246
l 1246/1246 1247/1247
l 1247/1247 1244/1244
l 1244/1244 1251/1251
l 1251/1251 1249/1249
l 1249/1249 1253/1253
l 1253/1253 1254/1254
l 1256/1256 1274/1274
l 1274/1274 1272/1272
l 1272/1272 1265/1265
l 1265/1265 1264/1264
l 1264/1264 1268/1268
l 1268/1268 1273/1273
l 1273/1273 1269/1269
l 1269/1269 1267/1267
l 1267/1267 1259/1259
l 1259/1259 1260/1260
l 1260/1260 1271/1271
l 1271/1271 1261/1261
l 1261/1261 1257/1257
l 1257/1257 1258/1258
l 1258/1258 1270/1270
l 1270/1270 1262/1262
l 1262/1262 1263/1263
l 1263/1263 1266/1266
l 1284/1284 1309/1309
l 1309/1309 1306/1306
l 1306/1306 1311/1311
l 1311/1311 1282/1282
l 1282/1282 1312/1312
l 1312/1312 1289/1289
l 1289/1289 1307/1307
l 1307/1307 1308/1308
l 1308/1308 1287/1287
l 1287/1287 1295/1295
l 1295/1295 1300/1300
l 1300/1300 1288/1288
l 1288/1288 1302/1302
l 1302/1302 1299/1299
l 1299/1299 1303/1303
l 1303/1303 1294/1294
l 1294/1294 1297/1297
l 1297/1297 1293/1293
l 1293/1293 1280/1280
l 1280/1280 1277/1277
l 1277/1277 1278/1278
l 1278/1278 1290/1290
l 1290/1290 1291/1291
l 1291/1291 1310/1310
l 1310/1310 1296/1296
l 1296/1296 1292/1292
l 1292/1292 1301/1301
l 1301/1301 1304/1304
l 1304/1304 1285/1285
l 1285/1285 1276/1276
l 1276/1276 1298/1298
l 1298/1298 1305/1305
l 1305/1305 1279/1279
l 1279/1279 1286/1286
l 1286/1286 1283/1283
l 1283/1283 1281/1281
l 1281/1281 1275/1275
l 1275/1275 1284/1284
l 1313/1313 1429/1429
l 1313/1313 1443/1443
l 1314/1314 1351/1351
l 1314/1314 1425/1425
l 1315/1315 1346/1346
l 1315/1315 1399/1399
l 1316/1316 1384/1384
l 1316/1316 1416/1416
l 1317/1317 1348/1348
l 1317/1317 1414/1414
l 1318/1318 1428/1428
l 1318/1318 1440/1440
l 1319/1319 1361/1361
l 1319/1319 1362/1362
l 1320/1320 1347/1347
l 1320/1320 1372/1372
l 1321/1321 1350/1350
l 1321/1321 1370/1370
l 1322/1322 1431/1431
l 1322/1322 1442/1442
l 1323/1323 1427/1427
l 1323/1323 1432/1432
l 1324/1324 1366/1366
l 1324/1324 1383/1383
l 1325/1325 1353/1353
l 1325/1325 1415/1415
l 1326/1326 1400/1400
l 1326/1326 1407/1407
l 1327/1327 1380/1380
l 1327/1327 1396/1396
l 1328/1328 1367/1367
l 1328/1328 1391/1391
l 1329/1329 1393/1393
l 1329/1329 1424/1424
l 1330/1330 1369/1369
l 1330/1330 1378/1378
l 1331/1331 1388/1388
l 1331/1331 1405/1405
l 1332/1332 1360/1360
l 1332/1332 1422/1422
l 1333/1333 1375/1375
l 1333/1333 1382/1382
l 1334/1334 1355/1355
l 1334/1334 1394/1394
l 1335/1335 1433/1433
l 1335/1335 1435/1435
l 1336/1336 1386/1386
l 1336/1336 1413/1413
l 1337/1337 1410/1410
l 1337/1337 1412/1412
l 1338/1338 1356/1356
l 1338/1338 1419/1419
l 1339/1339 1368/1368
l 1339/1339 1423/1423
l 1340/1340 1395/1395
l 1340/1340 1397/1397
l 1341/1341 1363/1363
l 1341/1341 1374/1374
l 1342/1342 1358/1358
l 1342/1342 1408/1408
l 1343/1343 1359/1359
l 1343/1343 1364/1364
l 1344/1344 1430/1430
l 1344/1344 1441/1441
l 1345/1345 1377/1377
l 1345/1345 1418/1418
l 1346/1346 1494/1494
l 1347/1347 1447/1447
l 1348/1348 1452/1452
l 1349/1349 1446/1446
l 1349/1349 1447/1447
l 1350/1350 1449/1449
l 1351/1351 1496/1496
l 1352/1352 1448/1448
l 1352/1352 1449/1449
l 1353/1353 1468/1468
l 1354/1354 1463/1463
l 1354/1354 1464/1464
l 1355/1355 1479/1479
l 1356/1356 1487/1487
l 1357/1357 1469/1469
l 1357/1357 1470/1470
l 1358/1358 1498/1498
l 1359/1359 1459/1459
l 1360/1360 1455/1455
l 1361/1361 1456/1456
l 1362/1362 1456/1456
l 1363/1363 1458/1458
l 1364/1364 1460/1460
l 1365/1365 1457/1457
l 1365/1365 1458/1458
l 1366/1366 1500/1500
l 1367/1367 1462/1462
l 1368/1368 1470/1470
l 1369/1369 1473/1473
l 1370/1370 1448/1448
l 1371/1371 1499/1499
l 1371/1371 1500/1500
l 1372/1372 1446/1446
l 1373/1373 1459/1459
l 1373/1373 1460/1460
l 1374/1374 1457/1457
l 1375/1375 1475/1475
l 1376/1376 1487/1487
l 1376/1376 1488/1488
l 1377/1377 1464/1464
l 1378/1378 1474/1474
l 1379/1379 1481/1481
l 1379/1379 1482/1482
l 1380/1380 1503/1503
l 1381/1381 1475/1475
l 1381/1381 1476/1476
l 1382/1382 1476/1476
l 1383/1383 1499/1499
l 1384/1384 1466/1466
l 1385/1385 1491/1491
l 1385/1385 1492/1492
l 1386/1386 1492/1492
l 1387/1387 1483/1483
l 1387/1387 1484/1484
l 1388/1388 1484/1484
l 1389/1389 1465/1465
l 1389/1389 1466/1466
l 1390/1390 1479/1479
l 1390/1390 1480/1480
l 1391/1391 1461/1461
l 1392/1392 1452/1452
l 1392/1392 1453/1453
l 1393/1393 1501/1501
l 1394/1394 1480/1480
l 1395/1395 1482/1482
l 1396/1396 1504/1504
l 1397/1397 1481/1481
l 1398/1398 1485/1485
l 1398/1398 1486/1486
l 1399/1399 1493/1493
l 1400/1400 1485/1485
l 1401/1401 1501/1501
l 1401/1401 1502/1502
l 1402/1402 1473/1473
l 1402/1402 1474/1474
l 1403/1403 1503/1503
l 1403/1403 1504/1504
l 1404/1404 1493/1493
l 1404/1404 1494/1494
l 1405/1405 1483/1483
l 1406/1406 1497/1497
l 1406/1406 1498/1498
l 1407/1407 1486/1486
l 1408/1408 1497/1497
l 1409/1409 1495/1495
l 1409/1409 1496/1496
l 1410/1410 1490/1490
l 1411/1411 1489/1489
l 1411/1411 1490/1490
l 1412/1412 1489/1489
l 1413/1413 1491/1491
l 1414/1414 1453/1453
l 1415/1415 1467/1467
l 1416/1416 1465/1465
l 1417/1417 1454/1454
l 1417/1417 1455/1455
l 1418/1418 1463/1463
l 1419/1419 1488/1488
l 1420/1420 1461/1461
l 1420/1420 1462/1462
l 1421/1421 1467/1467
l 1421/1421 1468/1468
l 1422/1422 1454/1454
l 1423/1423 1469/1469
l 1424/1424 1502/1502
l 1425/1425 1495/1495
l 1426/1426 1444/1444
l 1426/1426 1445/1445
l 1427/1427 1445/1445
l 1428/1428 1451/1451
l 1429/1429 1508/1508
l 1430/1430 1506/1506
l 1431/1431 1478/1478
l 1432/1432 1444/1444
l 1433/1433 1471/1471
l 1434/1434 1450/1450
l 1434/1434 1451/1451
l 1435/1435 1472/1472
l 1436/1436 1471/1471
l 1436/1436 1472/1472
l 1437/1437 1507/1507
l 1437/1437 1508/1508
l 1438/1438 1477/1477
l 1438/1438 1478/1478
l 1439/1439 1505/1505
l 1439/1439 1506/1506
l 1440/1440 1450/1450
l 1441/1441 1505/1505
l 1442/1442 1477/1477
l 1443/1443 1507/1507
