v 22.25 -0.30593900000000002 -5.75
v 22.25 0.61187400000000003 -5.75
v 22.25 -0.76484525000000003 -5.75
v 22.25 0.15296750000000001 -5.75
v 22.25 0.91781175000000004 -5.75
v 22.25 15.3059368 -5.75
v 22.25 14.3881245 -5.75
v 22.25 14.082186700000001 -5.75
v 22.25 15.764843949999999 -5.75
v 22.25 14.847030650000001 -5.75
v 22.25 -19.236835500000002 7.25
v 22.25 -21.120033299999999 7.25
v 22.25 -18.483556700000001 7.25
v 22.25 -19.990114200000001 7.25
v 22.25 -16.976999299999999 7.25
v 22.25 -17.730277999999998 7.25
v 22.25 -16.600359949999998 7.25
v 22.25 -18.860196100000003 7.25
v 22.25 -17.353638650000001 7.25
v 22.25 -21.684991849999999 7.25
v 22.25 -18.10691735 7.25
v 37.249900799999999 -17.723711000000002 0.75
v 37.249900799999999 -17.723711000000002 -2.5
v 37.249900799999999 -17.723711000000002 4
v 37.249900799999999 -17.723711000000002 -4.8359375
v 37.249900799999999 -17.723711000000002 -0.875
v 37.249900799999999 -17.723711000000002 2.375
v 37.249900799999999 -17.723711000000002 5.625
v 37.249900799999999 -17.723711000000002 -1.6875
v 37.249900799999999 -17.723711000000002 1.5625
v 37.249900799999999 -17.723711000000002 3.1875
v 37.249900799999999 -17.723711000000002 6.4375
v 37.249900799999999 -17.723711000000002 4.8125
v 37.249900799999999 -17.723711000000002 -0.0625
v 37.249900799999999 -17.723711000000002 -3.8503151
v 37.249900799999999 -17.723711000000002 -3.1751575000000001
v 37.249900799999999 -17.723711000000002 6.03125
v 37.249900799999999 -17.723711000000002 6.84375
v 37.249900799999999 -17.723711000000002 -5.29296875
v 37.249900799999999 -17.723711000000002 -3.5127363000000003
v 37.249900799999999 -17.723711000000002 -4.3431262999999998
v 37.249900799999999 -17.723711000000002 -2.83757875
v 37.249900799999999 -17.723711000000002 7.046875
v 29.749950399999999 16.973751100000001 7.25
v 33.499927499999998 17.348751100000001 7.25
v 25.999975200000002 16.598751100000001 7.25
v 35.374912299999998 17.536251100000001 7.25
v 27.8749638 16.786251100000001 7.25
v 31.6249371 17.161251100000001 7.25
v 24.124988599999998 16.411251100000001 7.25
v 28.812456099999999 16.880001100000001 7.25
v 30.6874447 17.067501100000001 7.25
v 23.187494300000001 16.317501100000001 7.25
v 32.5624313 17.255001100000001 7.25
v 25.062480900000001 16.505001100000001 7.25
v 34.437419900000002 17.442501100000001 7.25
v 26.937469499999999 16.692501100000001 7.25
v 36.312408400000002 17.630001100000001 7.25
v 22.718747149999999 16.270626100000001 7.25
v 36.781154600000001 17.676876100000001 7.25
v 29.749950399999999 1.9737495 7.25
v 33.499927499999998 2.3487494 7.25
v 25.999975200000002 1.5987495 7.25
v 35.374912299999998 2.5362494 7.25
v 27.8749638 1.7862495 7.25
v 31.6249371 2.1612494 7.25
v 24.124988599999998 1.4112495 7.25
v 28.812456099999999 1.8799995 7.25
v 23.187494300000001 1.3174995 7.25
v 25.062480900000001 1.5049995 7.25
v 36.312408400000002 2.6299994 7.25
v 34.437419900000002 2.4424994 7.25
v 26.937469499999999 1.6924995 7.25
v 30.6874447 2.0674994 7.25
v 32.5624313 2.2549994 7.25
v 36.781154600000001 2.6768744 7.25
v 22.718747149999999 1.2706245 7.25
v 37.0155277 2.7003119 7.25
v 29.749950399999999 -13.0262156 7.25
v 33.499927499999998 -12.6512175 7.25
v 25.999975200000002 -13.4012136 7.25
v 27.8749638 -13.213714599999999 7.25
v 31.6249371 -12.8387165 7.25
v 24.124988599999998 -13.588711699999999 7.25
v 28.812456099999999 -13.119964599999999 7.25
v 23.187494300000001 -13.682461699999999 7.25
v 32.5624313 -12.7449675 7.25
v 25.062480900000001 -13.4949627 7.25
v 34.437419900000002 -12.557468399999999 7.25
v 26.937469499999999 -13.3074636 7.25
v 36.312408400000002 -12.3699694 7.25
v 30.6874447 -12.9324665 7.25
v 35.374912299999998 -12.4637194 7.25
v 36.781154600000001 -12.32309485 7.25
v 22.718747149999999 -13.729336249999999 7.25
v 37.0155277 -12.299657575000001 7.25
v 29.749950399999999 -13.0262156 -5.75
v 25.999975200000002 -13.4012136 -5.75
v 33.499927499999998 -12.6512175 -5.75
v 35.374912299999998 -12.4637194 -5.75
v 27.8749638 -13.213714599999999 -5.75
v 24.124988599999998 -13.588711699999999 -5.75
v 31.6249371 -12.8387165 -5.75
v 28.812456099999999 -13.119964599999999 -5.75
v 30.6874447 -12.9324665 -5.75
v 23.187494300000001 -13.682461699999999 -5.75
v 34.437419900000002 -12.557468399999999 -5.75
v 25.062480900000001 -13.4949627 -5.75
v 32.5624313 -12.7449675 -5.75
v 26.937469499999999 -13.3074636 -5.75
v 36.312408400000002 -12.3699694 -5.75
v 22.718747149999999 -13.729336249999999 -5.75
v 36.781154600000001 -12.32309485 -5.75
v 29.749950399999999 -1.9737515000000001 -5.75
v 33.499927499999998 -2.3487515000000001 -5.75
v 25.999975200000002 -1.5987515000000001 -5.75
v 35.374912299999998 -2.5362515000000001 -5.75
v 31.6249371 -2.1612515000000001 -5.75
v 24.124988599999998 -1.4112515000000001 -5.75
v 23.187494300000001 -1.3175015000000001 -5.75
v 26.937469499999999 -1.6925015000000001 -5.75
v 30.6874447 -2.0675015000000001 -5.75
v 34.437419900000002 -2.4425015000000001 -5.75
v 25.062480900000001 -1.5050015000000001 -5.75
v 32.5624313 -2.2550015000000001 -5.75
v 28.812456099999999 -1.8800015000000001 -5.75
v 36.312408400000002 -2.6300015000000001 -5.75
v 27.8749638 -1.7862515000000001 -5.75
v 22.718747149999999 -1.2706265000000001 -5.75
v 36.781154600000001 -2.6768765000000001 -5.75
v 29.749950399999999 1.9737495 -5.75
v 25.999975200000002 1.5987495 -5.75
v 33.499927499999998 2.3487494 -5.75
v 35.374912299999998 2.5362494 -5.75
v 27.8749638 1.7862495 -5.75
v 24.124988599999998 1.4112495 -5.75
v 31.6249371 2.1612494 -5.75
v 28.812456099999999 1.8799995 -5.75
v 30.6874447 2.0674994 -5.75
v 23.187494300000001 1.3174995 -5.75
v 34.437419900000002 2.4424994 -5.75
v 25.062480900000001 1.5049995 -5.75
v 32.5624313 2.2549994 -5.75
v 26.937469499999999 1.6924995 -5.75
v 36.312408400000002 2.6299994 -5.75
v 22.718747149999999 1.2706245 -5.75
v 36.781154600000001 2.6768744 -5.75
v 29.749950399999999 16.973751100000001 -5.75
v 25.999975200000002 16.598751100000001 -5.75
v 33.499927499999998 17.348751100000001 -5.75
v 35.374912299999998 17.536251100000001 -5.75
v 27.8749638 16.786251100000001 -5.75
v 24.124988599999998 16.411251100000001 -5.75
v 31.6249371 17.161251100000001 -5.75
v 28.812456099999999 16.880001100000001 -5.75
v 30.6874447 17.067501100000001 -5.75
v 23.187494300000001 16.317501100000001 -5.75
v 34.437419900000002 17.442501100000001 -5.75
v 25.062480900000001 16.505001100000001 -5.75
v 32.5624313 17.255001100000001 -5.75
v 26.937469499999999 16.692501100000001 -5.75
v 36.312408400000002 17.630001100000001 -5.75
v 22.718747149999999 16.270626100000001 -5.75
v 36.781154600000001 17.676876100000001 -5.75
v -37.249900799999999 -22.249950399999999 0
v -37.249900799999999 -22.249950399999999 3.625
v -37.249900799999999 -22.249950399999999 -3.625
v -37.249900799999999 -22.249950399999999 5.4375
v -37.249900799999999 -22.249950399999999 1.8125
v -37.249900799999999 -22.249950399999999 -1.8125
v -37.249900799999999 -22.249950399999999 -5.4375
v -37.249900799999999 -22.249950399999999 4.53125
v -37.249900799999999 -22.249950399999999 2.71875
v -37.249900799999999 -22.249950399999999 0.90625
v -37.249900799999999 -22.249950399999999 -0.90625
v -37.249900799999999 -22.249950399999999 -2.71875
v -37.249900799999999 -22.249950399999999 -4.53125
v -37.249900799999999 -22.249950399999999 -6.34375
v -37.249900799999999 -22.249950399999999 6.34375
v -37.249900799999999 -22.249950399999999 6.796875
v -37.249900799999999 -22.249950399999999 5.890625
v -37.249900799999999 -22.249950399999999 -6.796875
v -37.249900799999999 -22.249950399999999 7.0234375
v 22.25 -22.249950399999999 0
v 22.25 -22.249950399999999 -3.625
v 22.25 -22.249950399999999 3.625
v 22.25 -22.249950399999999 -5.4375
v 22.25 -22.249950399999999 -1.8125
v 22.25 -22.249950399999999 5.4375
v 22.25 -22.249950399999999 -6.34375
v 22.25 -22.249950399999999 -4.53125
v 22.25 -22.249950399999999 -2.71875
v 22.25 -22.249950399999999 -0.90625
v 22.25 -22.249950399999999 2.71875
v 22.25 -22.249950399999999 6.34375
v 22.25 -22.249950399999999 4.53125
v 22.25 -22.249950399999999 1.8125
v 22.25 -22.249950399999999 0.90625
v 22.25 -22.249950399999999 -6.796875
v 22.25 -22.249950399999999 -0.453125
v 22.25 -22.249950399999999 0.453125
v 22.25 -22.249950399999999 5.890625
v 22.25 -22.249950399999999 6.796875
v 29.749950399999999 -16.9737148 -5.75
v 25.999975200000002 -16.598718600000002 -5.75
v 35.374912299999998 -17.536211000000002 -5.75
v 31.6249371 -17.1612148 -5.75
v 24.124988599999998 -16.411218600000002 -5.75
v 26.937469499999999 -16.692466700000001 -5.75
v 30.6874447 -17.0674648 -5.75
v 34.437419900000002 -17.442462899999999 -5.75
v 32.5624313 -17.254962899999999 -5.75
v 28.812456099999999 -16.879966700000001 -5.75
v 25.062480900000001 -16.504968600000002 -5.75
v 23.187494300000001 -16.317468600000002 -5.75
v 36.312408400000002 -17.629961000000002 -5.75
v 33.499927499999998 -17.348712899999999 -5.75
v 27.8749638 -16.786216700000001 -5.75
v 22.718747149999999 -16.270594600000003 -5.75
v 36.781154600000001 -17.676836000000002 -5.75
v 22.25 4.9999999999999998e-07 -7.25
v 22.25 -11.4726315 -7.25
v 22.25 11.1249752 -7.25
v 22.25 -5.9101429000000003 -7.25
v 22.25 16.687461899999999 -7.25
v 22.25 0.69531100000000001 -7.25
v 22.25 13.906219500000001 -7.25
v 22.25 3.1288990999999999 -7.25
v 22.25 -19.468706099999999 -7.25
v 22.25 -8.3437318999999999 -7.25
v 22.25 -18.4257393 -7.25
v 22.25 17.730430599999998 -7.25
v 22.25 -3.8242099000000001 -7.25
v 22.25 14.949185399999999 -7.25
v 22.25 1.3906215 -7.25
v 22.25 4.1718655 -7.25
v 22.25 -15.296840700000001 -7.25
v 22.25 -9.7343530999999999 -7.25
v 22.25 -6.9531093000000004 -7.25
v 22.25 9.7343530999999999 -7.25
v 22.25 20.859329200000001 -7.25
v 22.25 -20.511672999999998 -7.25
v 22.25 5.2148323000000003 -7.25
v 22.25 6.2577987000000004 -7.25
v 22.25 -10.429664600000001 -7.25
v 22.25 -17.382774399999999 -7.25
v 22.25 -13.558564199999999 -7.25
v 22.25 -9.0390425000000008 -7.25
v 22.25 -7.6484202999999997 -7.25
v 22.25 -4.8671765000000002 -7.25
v 22.25 -0.69531050000000005 -7.25
v 22.25 2.0859325000000002 -7.25
v 22.25 7.6484202999999997 -7.25
v 22.25 8.6913871999999994 -7.25
v 22.25 11.8202868 -7.25
v 22.25 13.2109089 -7.25
v 22.25 15.9921513 -7.25
v 22.25 19.816360499999998 -7.25
v 22.25 18.773395499999999 -7.25
v 22.25 10.429664600000001 -7.25
v 22.25 -16.339805599999998 -7.25
v 22.25 -14.6015301 -7.25
v 22.25 6.9531093000000004 -7.25
v 22.25 -1.7382770000000001 -7.25
v 22.25 12.5155973 -7.25
v 22.25 -21.5546398 -7.25
v 22.25 -12.5155973 -7.25
v 22.25 -2.7812435999999998 -7.25
v 22.25 12.8632531 -7.25
v 22.25 2.6074158000000001 -7.25
v 22.25 -14.949185400000001 -7.25
v 22.25 -1.2167937500000001 -7.25
v 22.25 -7.3007647999999996 -7.25
v 22.25 -8.6913872000000012 -7.25
v 22.25 12.167942050000001 -7.25
v 22.25 7.3007647999999996 -7.25
v 22.25 15.47066835 -7.25
v 22.25 -9.3866978000000003 -7.25
v 22.25 -10.95114805 -7.25
v 22.25 -14.080047149999999 -7.25
v 22.25 -0.34765500000000005 -7.25
v 22.25 -16.861289999999997 -7.25
v 22.25 -21.9022951 -7.25
v 22.25 -15.818323149999999 -7.25
v 22.25 16.339806599999999 -7.25
v 22.25 -6.4316261000000008 -7.25
v 22.25 6.6054539999999999 -7.25
v 22.25 -10.082008850000001 -7.25
v 22.25 -7.9960760999999998 -7.25
v 22.25 1.0429662500000001 -7.25
v 22.25 1.7382770000000001 -7.25
v 22.25 13.558564199999999 -7.25
v 22.25 0.34765574999999999 -7.25
v 22.25 17.208946249999997 -7.25
v 22.25 14.42770245 -7.25
v 22.25 11.472631 -7.25
v 22.25 -13.037080749999999 -7.25
v 22.25 21.5546398 -7.25
v 22.25 -2.2597602999999999 -7.25
v -7.4999498999999998 22.249950399999999 -7.25
v -22.374925600000001 22.249950399999999 -7.25
v -29.812412299999998 22.249950399999999 -7.25
v -0.062462999999999998 22.249950399999999 -7.25
v -33.531158400000002 22.249950399999999 -7.25
v -26.093669899999998 22.249950399999999 -7.25
v -18.6561813 22.249950399999999 -7.25
v -11.218693699999999 22.249950399999999 -7.25
v 3.6562809999999999 22.249950399999999 -7.25
v 11.093769099999999 22.249950399999999 -7.25
v 18.531255699999999 22.249950399999999 -7.25
v -35.390529600000001 22.249950399999999 -7.25
v -31.671785400000001 22.249950399999999 -7.25
v -27.9530411 22.249950399999999 -7.25
v -24.2342987 22.249950399999999 -7.25
v -20.515554399999999 22.249950399999999 -7.25
v -16.796810199999999 22.249950399999999 -7.25
v -13.0780659 22.249950399999999 -7.25
v -9.3593215999999995 22.249950399999999 -7.25
v -5.6405792000000003 22.249950399999999 -7.25
v -1.9218348999999999 22.249950399999999 -7.25
v 1.7969090000000001 22.249950399999999 -7.25
v 5.5156530999999998 22.249950399999999 -7.25
v 12.953140299999999 22.249950399999999 -7.25
v 16.671884500000001 22.249950399999999 -7.25
v 20.390628800000002 22.249950399999999 -7.25
v -36.320213299999999 22.249950399999999 -7.25
v -32.601470900000002 22.249950399999999 -7.25
v -28.882726699999999 22.249950399999999 -7.25
v -25.163984299999999 22.249950399999999 -7.25
v -21.445239999999998 22.249950399999999 -7.25
v -17.726495700000001 22.249950399999999 -7.25
v -14.007752399999999 22.249950399999999 -7.25
v -6.5702648000000003 22.249950399999999 -7.25
v 0.86722299999999997 22.249950399999999 -7.25
v 4.5859671000000004 22.249950399999999 -7.25
v 8.3047112999999992 22.249950399999999 -7.25
v 12.0234547 22.249950399999999 -7.25
v 15.742198 22.249950399999999 -7.25
v 19.460941300000002 22.249950399999999 -7.25
v -34.460842100000001 22.249950399999999 -7.25
v -30.742099799999998 22.249950399999999 -7.25
v -27.023355500000001 22.249950399999999 -7.25
v -19.5858688 22.249950399999999 -7.25
v -15.867123599999999 22.249950399999999 -7.25
v -12.148380299999999 22.249950399999999 -7.25
v -0.99214899999999995 22.249950399999999 -7.25
v 2.7265948999999998 22.249950399999999 -7.25
v 13.8828259 22.249950399999999 -7.25
v 17.6015701 22.249950399999999 -7.25
v 21.320314400000001 22.249950399999999 -7.25
v -23.3046112 22.249950399999999 -7.25
v 6.4453392000000003 22.249950399999999 -7.25
v 10.164082499999999 22.249950399999999 -7.25
v -10.2890081 22.249950399999999 -7.25
v -4.7108932000000001 22.249950399999999 -7.25
v -2.851521 22.249950399999999 -7.25
v 7.3750248000000003 22.249950399999999 -7.25
v -8.4296360000000004 22.249950399999999 -7.25
v 9.2343969000000001 22.249950399999999 -7.25
v -3.7812071 22.249950399999999 -7.25
v -14.937438 22.249950399999999 -7.25
v 14.812512399999999 22.249950399999999 -7.25
v -36.785057049999999 22.249950399999999 -7.25
v 21.7851572 22.249950399999999 -7.25
v 20.855471600000001 22.249950399999999 -7.25
v -7.4999498999999998 -22.249950399999999 7.25
v -22.374925600000001 -22.249950399999999 7.25
v 7.3750248000000003 -22.249950399999999 7.25
v -29.812412299999998 -22.249950399999999 7.25
v -14.937438 -22.249950399999999 7.25
v -0.062462999999999998 -22.249950399999999 7.25
v 14.812512399999999 -22.249950399999999 7.25
v 11.093769099999999 -22.249950399999999 7.25
v -33.531158400000002 -22.249950399999999 7.25
v -18.6561813 -22.249950399999999 7.25
v -11.218693699999999 -22.249950399999999 7.25
v -3.7812071 -22.249950399999999 7.25
v 3.6562809999999999 -22.249950399999999 7.25
v 18.531255699999999 -22.249950399999999 7.25
v -13.0780659 -22.249950399999999 7.25
v -5.6405792000000003 -22.249950399999999 7.25
v 1.7969090000000001 -22.249950399999999 7.25
v 12.953140299999999 -22.249950399999999 7.25
v -35.390529600000001 -22.249950399999999 7.25
v -31.671785400000001 -22.249950399999999 7.25
v -27.9530411 -22.249950399999999 7.25
v -20.515554399999999 -22.249950399999999 7.25
v -16.796810199999999 -22.249950399999999 7.25
v -9.3593215999999995 -22.249950399999999 7.25
v -1.9218348999999999 -22.249950399999999 7.25
v 5.5156530999999998 -22.249950399999999 7.25
v 16.671884500000001 -22.249950399999999 7.25
v 8.3047112999999992 -22.249950399999999 7.25
v -14.007752399999999 -22.249950399999999 7.25
v -6.5702648000000003 -22.249950399999999 7.25
v 0.86722299999999997 -22.249950399999999 7.25
v -28.882726699999999 -22.249950399999999 7.25
v -25.163984299999999 -22.249950399999999 7.25
v -21.445239999999998 -22.249950399999999 7.25
v -17.726495700000001 -22.249950399999999 7.25
v -8.4296360000000004 -22.249950399999999 7.25
v -0.99214899999999995 -22.249950399999999 7.25
v -36.320213299999999 -22.249950399999999 7.25
v -32.601470900000002 -22.249950399999999 7.25
v -10.2890081 -22.249950399999999 7.25
v -4.7108932000000001 -22.249950399999999 7.25
v 19.460941300000002 -22.249950399999999 7.25
v 10.164082499999999 -22.249950399999999 7.25
v 2.7265948999999998 -22.249950399999999 7.25
v -34.460842100000001 -22.249950399999999 7.25
v -24.2342987 -22.249950399999999 7.25
v -15.867123599999999 -22.249950399999999 7.25
v 17.6015701 -22.249950399999999 7.25
v -30.742099799999998 -22.249950399999999 7.25
v 6.4453392000000003 -22.249950399999999 7.25
v 12.0234547 -22.249950399999999 7.25
v -27.023355500000001 -22.249950399999999 7.25
v 9.2343969000000001 -22.249950399999999 7.25
v 4.5859671000000004 -22.249950399999999 7.25
v -23.3046112 -22.249950399999999 7.25
v 21.320314400000001 -22.249950399999999 7.25
v -12.148380299999999 -22.249950399999999 7.25
v -26.093669899999998 -22.249950399999999 7.25
v 20.390628800000002 -22.249950399999999 7.25
v 13.8828259 -22.249950399999999 7.25
v -2.851521 -22.249950399999999 7.25
v 15.742198 -22.249950399999999 7.25
v -19.5858688 -22.249950399999999 7.25
v -36.785057049999999 -22.249950399999999 7.25
v -18.191338500000001 -22.249950399999999 7.25
v 21.7851572 -22.249950399999999 7.25
v -19.12102505 -22.249950399999999 7.25
v -7.4999498999999998 22.249950399999999 7.25
v 7.3750248000000003 22.249950399999999 7.25
v -14.937438 22.249950399999999 7.25
v 14.812512399999999 22.249950399999999 7.25
v -29.812412299999998 22.249950399999999 7.25
v 11.093769099999999 22.249950399999999 7.25
v -18.6561813 22.249950399999999 7.25
v -11.218693699999999 22.249950399999999 7.25
v 18.531255699999999 22.249950399999999 7.25
v 3.6562809999999999 22.249950399999999 7.25
v -3.7812071 22.249950399999999 7.25
v -26.093669899999998 22.249950399999999 7.25
v -33.531158400000002 22.249950399999999 7.25
v -13.0780659 22.249950399999999 7.25
v 5.5156530999999998 22.249950399999999 7.25
v 20.390628800000002 22.249950399999999 7.25
v 9.2343969000000001 22.249950399999999 7.25
v 12.953140299999999 22.249950399999999 7.25
v -20.515554399999999 22.249950399999999 7.25
v -16.796810199999999 22.249950399999999 7.25
v 16.671884500000001 22.249950399999999 7.25
v 1.7969090000000001 22.249950399999999 7.25
v -5.6405792000000003 22.249950399999999 7.25
v -24.2342987 22.249950399999999 7.25
v -27.9530411 22.249950399999999 7.25
v -31.671785400000001 22.249950399999999 7.25
v -35.390529600000001 22.249950399999999 7.25
v 6.4453392000000003 22.249950399999999 7.25
v -0.99214899999999995 22.249950399999999 7.25
v -21.445239999999998 22.249950399999999 7.25
v 13.8828259 22.249950399999999 7.25
v 17.6015701 22.249950399999999 7.25
v 10.164082499999999 22.249950399999999 7.25
v 2.7265948999999998 22.249950399999999 7.25
v -4.7108932000000001 22.249950399999999 7.25
v -12.148380299999999 22.249950399999999 7.25
v -15.867123599999999 22.249950399999999 7.25
v -19.5858688 22.249950399999999 7.25
v -27.023355500000001 22.249950399999999 7.25
v -30.742099799999998 22.249950399999999 7.25
v -34.460842100000001 22.249950399999999 7.25
v -25.163984299999999 22.249950399999999 7.25
v -14.007752399999999 22.249950399999999 7.25
v 19.460941300000002 22.249950399999999 7.25
v 8.3047112999999992 22.249950399999999 7.25
v -17.726495700000001 22.249950399999999 7.25
v -10.2890081 22.249950399999999 7.25
v 0.86722299999999997 22.249950399999999 7.25
v -6.5702648000000003 22.249950399999999 7.25
v -28.882726699999999 22.249950399999999 7.25
v -32.601470900000002 22.249950399999999 7.25
v 15.742198 22.249950399999999 7.25
v 21.320314400000001 22.249950399999999 7.25
v -8.4296360000000004 22.249950399999999 7.25
v 4.5859671000000004 22.249950399999999 7.25
v -36.320213299999999 22.249950399999999 7.25
v -0.062462999999999998 22.249950399999999 7.25
v -1.9218348999999999 22.249950399999999 7.25
v -9.3593215999999995 22.249950399999999 7.25
v 12.0234547 22.249950399999999 7.25
v -22.374925600000001 22.249950399999999 7.25
v -23.3046112 22.249950399999999 7.25
v -2.851521 22.249950399999999 7.25
v 21.7851572 22.249950399999999 7.25
v -26.558512700000001 22.249950399999999 7.25
v -28.4178839 22.249950399999999 7.25
v -36.785057049999999 22.249950399999999 7.25
v 20.855471600000001 22.249950399999999 7.25
v -27.488198300000001 22.249950399999999 7.25
v 19.925785050000002 22.249950399999999 7.25
v 22.25 22.249950399999999 0
v 22.25 22.249950399999999 3.625
v 22.25 22.249950399999999 -3.625
v 22.25 22.249950399999999 5.4375
v 22.25 22.249950399999999 1.8125
v 22.25 22.249950399999999 -5.4375
v 22.25 22.249950399999999 2.71875
v 22.25 22.249950399999999 -0.90625
v 22.25 22.249950399999999 0.90625
v 22.25 22.249950399999999 -2.71875
v 22.25 22.249950399999999 6.34375
v 22.25 22.249950399999999 4.53125
v 22.25 22.249950399999999 -4.53125
v 22.25 22.249950399999999 -6.34375
v 22.25 22.249950399999999 -1.8125
v 22.25 22.249950399999999 6.796875
v 22.25 22.249950399999999 -6.796875
v -7.4999498999999998 -22.249950399999999 -7.25
v 7.3750248000000003 -22.249950399999999 -7.25
v -22.374925600000001 -22.249950399999999 -7.25
v -0.062462999999999998 -22.249950399999999 -7.25
v -14.937438 -22.249950399999999 -7.25
v -29.812412299999998 -22.249950399999999 -7.25
v 14.812512399999999 -22.249950399999999 -7.25
v 18.531255699999999 -22.249950399999999 -7.25
v 11.093769099999999 -22.249950399999999 -7.25
v 3.6562809999999999 -22.249950399999999 -7.25
v -3.7812071 -22.249950399999999 -7.25
v -11.218693699999999 -22.249950399999999 -7.25
v -18.6561813 -22.249950399999999 -7.25
v -26.093669899999998 -22.249950399999999 -7.25
v -33.531158400000002 -22.249950399999999 -7.25
v 20.390628800000002 -22.249950399999999 -7.25
v 16.671884500000001 -22.249950399999999 -7.25
v 12.953140299999999 -22.249950399999999 -7.25
v 9.2343969000000001 -22.249950399999999 -7.25
v 5.5156530999999998 -22.249950399999999 -7.25
v 1.7969090000000001 -22.249950399999999 -7.25
v -1.9218348999999999 -22.249950399999999 -7.25
v -5.6405792000000003 -22.249950399999999 -7.25
v -9.3593215999999995 -22.249950399999999 -7.25
v -13.0780659 -22.249950399999999 -7.25
v -16.796810199999999 -22.249950399999999 -7.25
v -20.515554399999999 -22.249950399999999 -7.25
v -24.2342987 -22.249950399999999 -7.25
v -27.9530411 -22.249950399999999 -7.25
v -31.671785400000001 -22.249950399999999 -7.25
v -35.390529600000001 -22.249950399999999 -7.25
v 17.6015701 -22.249950399999999 -7.25
v 10.164082499999999 -22.249950399999999 -7.25
v 6.4453392000000003 -22.249950399999999 -7.25
v 2.7265948999999998 -22.249950399999999 -7.25
v -0.99214899999999995 -22.249950399999999 -7.25
v -8.4296360000000004 -22.249950399999999 -7.25
v -12.148380299999999 -22.249950399999999 -7.25
v -19.5858688 -22.249950399999999 -7.25
v -27.023355500000001 -22.249950399999999 -7.25
v -30.742099799999998 -22.249950399999999 -7.25
v -34.460842100000001 -22.249950399999999 -7.25
v 19.460941300000002 -22.249950399999999 -7.25
v 15.742198 -22.249950399999999 -7.25
v 12.0234547 -22.249950399999999 -7.25
v 8.3047112999999992 -22.249950399999999 -7.25
v -2.851521 -22.249950399999999 -7.25
v -14.007752399999999 -22.249950399999999 -7.25
v -17.726495700000001 -22.249950399999999 -7.25
v -28.882726699999999 -22.249950399999999 -7.25
v -32.601470900000002 -22.249950399999999 -7.25
v 0.86722299999999997 -22.249950399999999 -7.25
v 13.8828259 -22.249950399999999 -7.25
v 4.5859671000000004 -22.249950399999999 -7.25
v -21.445239999999998 -22.249950399999999 -7.25
v -10.2890081 -22.249950399999999 -7.25
v -36.320213299999999 -22.249950399999999 -7.25
v -25.163984299999999 -22.249950399999999 -7.25
v 21.320314400000001 -22.249950399999999 -7.25
v -15.867123599999999 -22.249950399999999 -7.25
v -4.7108932000000001 -22.249950399999999 -7.25
v -6.5702648000000003 -22.249950399999999 -7.25
v -23.3046112 -22.249950399999999 -7.25
v 21.7851572 -22.249950399999999 -7.25
v -35.85537145 -22.249950399999999 -7.25
v -36.785057049999999 -22.249950399999999 -7.25
v 22.25 -13.776210799999999 0.75
v 22.25 -13.776210799999999 -2.5
v 22.25 -13.776210799999999 3.390625
v 22.25 -13.776210799999999 -4.125
v 22.25 -13.776210799999999 -0.875
v 22.25 -13.776210799999999 2.4765625
v 22.25 -13.776210799999999 5.625
v 22.25 -13.776210799999999 6.4375
v 22.25 -13.776210799999999 -0.0625
v 22.25 -13.776210799999999 -4.9375
v 22.25 -13.776210799999999 4.4570312000000003
v 22.25 -13.776210799999999 -1.6875
v 22.25 -13.776210799999999 -3.3125
v 22.25 -13.776210799999999 1.5625
v 22.25 -13.776210799999999 -4.53125
v 22.25 -13.776210799999999 -5.34375
v 22.25 -13.776210799999999 6.84375
v 22.25 -13.776210799999999 -2.09375
v 22.25 -13.776210799999999 -1.28125
v 22.25 16.223751100000001 0.75
v 22.25 16.223751100000001 -2.5
v 22.25 16.223751100000001 4
v 22.25 16.223751100000001 -4.125
v 22.25 16.223751100000001 -0.875
v 22.25 16.223751100000001 2.375
v 22.25 16.223751100000001 5.625
v 22.25 16.223751100000001 -1.6875
v 22.25 16.223751100000001 -4.9375
v 22.25 16.223751100000001 -0.0625
v 22.25 16.223751100000001 4.8125
v 22.25 16.223751100000001 1.5625
v 22.25 16.223751100000001 -3.3125
v 22.25 16.223751100000001 6.4375
v 22.25 16.223751100000001 3.1875
v 22.25 16.223751100000001 6.84375
v 22.25 16.223751100000001 6.03125
v 22.25 16.223751100000001 -4.53125
v 22.25 16.223751100000001 1.15625
v 22.25 16.223751100000001 0.34375
v 22.25 16.223751100000001 -5.34375
v 22.25 16.223751100000001 5.21875
v 22.25 16.223751100000001 7.046875
v 37.249900799999999 17.723751100000001 0.75
v 37.249900799999999 17.723751100000001 4
v 37.249900799999999 17.723751100000001 -2.5
v 37.249900799999999 17.723751100000001 5.625
v 37.249900799999999 17.723751100000001 2.375
v 37.249900799999999 17.723751100000001 -4.125
v 37.249900799999999 17.723751100000001 3.1875
v 37.249900799999999 17.723751100000001 -3.3125
v 37.249900799999999 17.723751100000001 -1.6875
v 37.249900799999999 17.723751100000001 -4.9375
v 37.249900799999999 17.723751100000001 6.4375
v 37.249900799999999 17.723751100000001 4.8125
v 37.249900799999999 17.723751100000001 1.5625
v 37.249900799999999 17.723751100000001 -0.0625
v 37.249900799999999 17.723751100000001 -0.875
v 37.249900799999999 17.723751100000001 6.03125
v 37.249900799999999 17.723751100000001 -5.34375
v 37.249900799999999 17.723751100000001 6.84375
v 37.249900799999999 17.723751100000001 -4.53125
v 37.249900799999999 17.723751100000001 5.21875
v 37.249900799999999 17.723751100000001 1.96875
v 37.249900799999999 17.723751100000001 1.15625
v 37.249900799999999 17.723751100000001 4.40625
v 37.249900799999999 17.723751100000001 2.78125
v 37.249900799999999 12.276248900000001 0.75
v 37.249900799999999 12.276248900000001 -2.5
v 37.249900799999999 12.276248900000001 -0.875
v 37.249900799999999 12.276248900000001 2.375
v 37.249900799999999 12.276248900000001 5.625
v 37.249900799999999 12.276248900000001 -1.6875
v 37.249900799999999 12.276248900000001 1.5625
v 37.249900799999999 12.276248900000001 3.1875
v 37.249900799999999 12.276248900000001 4.8125
v 37.249900799999999 12.276248900000001 6.4375
v 37.249900799999999 12.276248900000001 -3.6171875
v 37.249900799999999 12.276248900000001 -0.0625
v 37.249900799999999 12.276248900000001 4
v 37.249900799999999 12.276248900000001 -4.6074219000000003
v 37.249900799999999 12.276248900000001 6.03125
v 37.249900799999999 12.276248900000001 6.84375
v 37.249900799999999 12.276248900000001 5.21875
v 37.249900799999999 12.276248900000001 -5.1787109500000001
v 22.25 1.2237495 0.75
v 22.25 1.2237495 -2.5
v 22.25 1.2237495 4
v 22.25 1.2237495 -4.125
v 22.25 1.2237495 -0.875
v 22.25 1.2237495 5.625
v 22.25 1.2237495 -4.9375
v 22.25 1.2237495 6.4375
v 22.25 1.2237495 -1.6875
v 22.25 1.2237495 4.8125
v 22.25 1.2237495 -3.3125
v 22.25 1.2237495 3.1875
v 22.25 1.2237495 2.375
v 22.25 1.2237495 1.5625
v 22.25 1.2237495 -0.0625
v 22.25 1.2237495 -5.34375
v 22.25 1.2237495 -2.90625
v 22.25 1.2237495 6.03125
v 22.25 1.2237495 2.78125
v 22.25 1.2237495 -2.09375
v 22.25 1.2237495 6.84375
v 22.25 1.2237495 1.96875
v 22.25 1.2237495 7.046875
v 37.249900799999999 2.7237494 0.75
v 37.249900799999999 2.7237494 4
v 37.249900799999999 2.7237494 -2.5
v 37.249900799999999 2.7237494 5.625
v 37.249900799999999 2.7237494 2.375
v 37.249900799999999 2.7237494 -0.875
v 37.249900799999999 2.7237494 -4.125
v 37.249900799999999 2.7237494 3.1875
v 37.249900799999999 2.7237494 -0.0625
v 37.249900799999999 2.7237494 -1.6875
v 37.249900799999999 2.7237494 -4.9375
v 37.249900799999999 2.7237494 1.5625
v 37.249900799999999 2.7237494 4.8125
v 37.249900799999999 2.7237494 6.4375
v 37.249900799999999 2.7237494 -3.3125
v 37.249900799999999 2.7237494 0.34375
v 37.249900799999999 2.7237494 5.21875
v 37.249900799999999 2.7237494 -2.90625
v 37.249900799999999 2.7237494 -5.34375
v 37.249900799999999 2.7237494 3.59375
v 37.249900799999999 2.7237494 1.15625
v 37.249900799999999 2.7237494 6.03125
v 37.249900799999999 2.7237494 6.84375
v 37.249900799999999 2.7237494 -3.71875
v 37.249900799999999 2.7237494 4.40625
v 37.249900799999999 2.7237494 -4.53125
v 37.249900799999999 -2.7237515000000001 0.75
v 37.249900799999999 -2.7237515000000001 -2.5
v 37.249900799999999 -2.7237515000000001 -4.125
v 37.249900799999999 -2.7237515000000001 -0.875
v 37.249900799999999 -2.7237515000000001 2.375
v 37.249900799999999 -2.7237515000000001 5.625
v 37.249900799999999 -2.7237515000000001 -4.9375
v 37.249900799999999 -2.7237515000000001 -1.6875
v 37.249900799999999 -2.7237515000000001 1.5625
v 37.249900799999999 -2.7237515000000001 4.8125
v 37.249900799999999 -2.7237515000000001 -0.0625
v 37.249900799999999 -2.7237515000000001 -3.3125
v 37.249900799999999 -2.7237515000000001 3.1875
v 37.249900799999999 -2.7237515000000001 4
v 37.249900799999999 -2.7237515000000001 6.4375
v 37.249900799999999 -2.7237515000000001 -4.53125
v 37.249900799999999 -2.7237515000000001 -1.28125
v 37.249900799999999 -2.7237515000000001 6.84375
v 37.249900799999999 -2.7237515000000001 4.40625
v 37.249900799999999 -2.7237515000000001 -0.46875
v 37.249900799999999 -2.7237515000000001 -2.90625
v 37.249900799999999 -2.7237515000000001 -3.71875
v 37.249900799999999 -2.7237515000000001 -5.34375
v 37.249900799999999 -2.7237515000000001 5.21875
v 37.249900799999999 -2.7237515000000001 6.03125
v 22.25 -1.2237515000000001 0.75
v 22.25 -1.2237515000000001 4
v 22.25 -1.2237515000000001 -2.5
v 22.25 -1.2237515000000001 5.625
v 22.25 -1.2237515000000001 2.375
v 22.25 -1.2237515000000001 -0.875
v 22.25 -1.2237515000000001 -4.125
v 22.25 -1.2237515000000001 -3.3125
v 22.25 -1.2237515000000001 3.1875
v 22.25 -1.2237515000000001 1.5625
v 22.25 -1.2237515000000001 -0.0625
v 22.25 -1.2237515000000001 -1.6875
v 22.25 -1.2237515000000001 -4.9375
v 22.25 -1.2237515000000001 6.4375
v 22.25 -1.2237515000000001 4.8125
v 22.25 -1.2237515000000001 6.03125
v 22.25 -1.2237515000000001 -5.34375
v 22.25 -1.2237515000000001 1.15625
v 22.25 -1.2237515000000001 0.34375
v 22.25 -1.2237515000000001 6.84375
v 37.249900799999999 -12.2762203 0.75
v 37.249900799999999 -12.2762203 4
v 37.249900799999999 -12.2762203 -2.5
v 37.249900799999999 -12.2762203 5.625
v 37.249900799999999 -12.2762203 2.375
v 37.249900799999999 -12.2762203 -0.875
v 37.249900799999999 -12.2762203 -4.125
v 37.249900799999999 -12.2762203 1.5625
v 37.249900799999999 -12.2762203 3.1875
v 37.249900799999999 -12.2762203 -0.0625
v 37.249900799999999 -12.2762203 -4.9375
v 37.249900799999999 -12.2762203 4.8125
v 37.249900799999999 -12.2762203 6.4375
v 37.249900799999999 -12.2762203 -3.3125
v 37.249900799999999 -12.2762203 -1.6875
v 37.249900799999999 -12.2762203 3.59375
v 37.249900799999999 -12.2762203 6.84375
v 37.249900799999999 -12.2762203 -4.53125
v 37.249900799999999 -12.2762203 6.03125
v 37.249900799999999 -12.2762203 2.78125
v 37.249900799999999 -12.2762203 -3.71875
v 37.249900799999999 -12.2762203 -2.09375
v 37.249900799999999 -12.2762203 -2.90625
v 37.249900799999999 -12.2762203 -5.34375
v 22.25 -16.2237206 0.75
v 22.25 -16.2237206 4
v 22.25 -16.2237206 -2.5
v 22.25 -16.2237206 5.625
v 22.25 -16.2237206 -3.3125
v 22.25 -16.2237206 6.4375
v 22.25 -16.2237206 4.8125
v 22.25 -16.2237206 -4.9375
v 22.25 -16.2237206 -1.6875
v 22.25 -16.2237206 3.1875
v 22.25 -16.2237206 -4.125
v 22.25 -16.2237206 -0.875
v 22.25 -16.2237206 -0.0625
v 22.25 -16.2237206 2.2734375
v 22.25 -16.2237206 1.359375
v 22.25 -16.2237206 0.34375
v 22.25 -16.2237206 -5.34375
v 22.25 -16.2237206 6.84375
v 22.25 -16.2237206 1.0546875
v 22.25 13.776248900000001 0.75
v 22.25 13.776248900000001 4
v 22.25 13.776248900000001 -2.5
v 22.25 13.776248900000001 5.625
v 22.25 13.776248900000001 -0.875
v 22.25 13.776248900000001 -4.125
v 22.25 13.776248900000001 4.8125
v 22.25 13.776248900000001 -0.0625
v 22.25 13.776248900000001 -1.6875
v 22.25 13.776248900000001 -3.3125
v 22.25 13.776248900000001 6.4375
v 22.25 13.776248900000001 -4.9375
v 22.25 13.776248900000001 2.375
v 22.25 13.776248900000001 3.1875
v 22.25 13.776248900000001 1.5625
v 22.25 13.776248900000001 1.15625
v 22.25 13.776248900000001 6.03125
v 22.25 13.776248900000001 1.96875
v 22.25 13.776248900000001 6.84375
v 22.25 13.776248900000001 -4.53125
v 22.25 13.776248900000001 -5.34375
v 22.25 13.776248900000001 3.59375
v 22.25 13.776248900000001 4.40625
v 22.25 13.776248900000001 7.046875
v 37.249900799999999 -14.999965700000001 7.25
v 37.249900799999999 -16.0213699 7.25
v 37.249900799999999 -17.0427742 7.25
v 37.249900799999999 -13.9785614 7.25
v 37.249900799999999 -12.9571571 7.25
v 37.249900799999999 -12.616688700000001 7.25
v 37.249900799999999 -17.383242600000003 7.25
v 37.249900799999999 -16.53207205 7.25
v 37.249900799999999 -13.46785925 7.25
v 22.25 7.4999985999999996 7.25
v 22.25 4.3618746000000002 7.25
v 22.25 10.638123500000001 7.25
v 22.25 5.9309362999999999 7.25
v 22.25 9.0690612999999995 7.25
v 22.25 12.207186699999999 7.25
v 22.25 2.7928114000000002 7.25
v 22.25 8.2845297000000002 7.25
v 22.25 11.4226551 7.25
v 22.25 9.8535929000000007 7.25
v 22.25 12.991717299999999 7.25
v 22.25 3.5773429999999999 7.25
v 22.25 5.1464056999999999 7.25
v 22.25 6.7154674999999999 7.25
v 22.25 2.0082805000000001 7.25
v 22.25 6.3232018999999999 7.25
v 22.25 7.8922641499999999 7.25
v 22.25 13.3839831 7.25
v 22.25 7.1077330500000002 7.25
v 22.25 1.616015 7.25
v 22.25 5.5386709999999999 7.25
v 22.25 12.599451999999999 7.25
v 22.25 -7.4999814000000002 7.25
v 22.25 -10.6380959 7.25
v 22.25 -12.2071533 7.25
v 22.25 -9.0690384000000002 7.25
v 22.25 -2.7928085 7.25
v 22.25 -5.5386591000000003 7.25
v 22.25 -3.5773375000000001 7.25
v 22.25 -12.9916821 7.25
v 22.25 -2.0082800000000001 7.25
v 22.25 -11.422624600000001 7.25
v 22.25 -4.6560649999999999 7.25
v 22.25 -9.8535670999999994 7.25
v 22.25 -8.2845096999999992 7.25
v 22.25 -6.4212541999999999 7.25
v 22.25 -13.38394645 7.25
v 22.25 -1.6160157500000001 7.25
v 22.25 -3.185073 7.25
v 22.25 -12.5994177 7.25
v 22.25 -2.4005442500000003 7.25
v 22.25 -11.81488895 7.25
v 22.25 -4.1167012500000002 7.25
v 22.25 19.236850700000002 7.25
v 22.25 17.7303009 7.25
v 22.25 19.9901257 7.25
v 22.25 18.483575800000001 7.25
v 22.25 21.120037100000001 7.25
v 22.25 16.977025999999999 7.25
v 22.25 16.600388549999998 7.25
v 22.25 17.353663449999999 7.25
v 22.25 21.68499375 7.25
v -37.249900799999999 11.1249752 -7.25
v -37.249900799999999 -11.1249752 -7.25
v -37.249900799999999 19.816360499999998 -7.25
v -37.249900799999999 7.9960760999999998 -7.25
v -37.249900799999999 2.4335879999999999 -7.25
v -37.249900799999999 -2.7812435999999998 -7.25
v -37.249900799999999 -19.468706099999999 -7.25
v -37.249900799999999 18.0780849 -7.25
v -37.249900799999999 15.296840700000001 -7.25
v -37.249900799999999 12.5155973 -7.25
v -37.249900799999999 10.082008399999999 -7.25
v -37.249900799999999 6.9531093000000004 -7.25
v -37.249900799999999 1.3906215 -7.25
v -37.249900799999999 -1.7382770000000001 -7.25
v -37.249900799999999 -3.8242099000000001 -7.25
v -37.249900799999999 -6.9531093000000004 -7.25
v -37.249900799999999 -9.7343530999999999 -7.25
v -37.249900799999999 -15.296840700000001 -7.25
v -37.249900799999999 0.34765570000000001 -7.25
v -37.249900799999999 20.859329200000001 -7.25
v -37.249900799999999 18.773395499999999 -7.25
v -37.249900799999999 21.5546398 -7.25
v -37.249900799999999 3.4765543999999999 -7.25
v -37.249900799999999 -10.429664600000001 -7.25
v -37.249900799999999 11.8202868 -7.25
v -37.249900799999999 13.2109089 -7.25
v -37.249900799999999 16.339805599999998 -7.25
v -37.249900799999999 4.8671765000000002 -7.25
v -37.249900799999999 -17.382774399999999 -7.25
v -37.249900799999999 5.9101429000000003 -7.25
v -37.249900799999999 9.0390425000000008 -7.25
v -37.249900799999999 17.382774399999999 -7.25
v -37.249900799999999 -7.6484202999999997 -7.25
v -37.249900799999999 -5.9101429000000003 -7.25
v -37.249900799999999 -21.5546398 -7.25
v -37.249900799999999 -16.339805599999998 -7.25
v -37.249900799999999 -14.2538748 -7.25
v -37.249900799999999 -20.511672999999998 -7.25
v -37.249900799999999 -18.4257393 -7.25
v -37.249900799999999 4.1718655 -7.25
v -37.249900799999999 -13.2109089 -7.25
v -37.249900799999999 -12.167942 -7.25
v -37.249900799999999 -8.6913871999999994 -7.25
v -37.249900799999999 -0.69531050000000005 -7.25
v -37.249900799999999 -4.8671765000000002 -7.25
v -37.249900799999999 14.2538748 -7.25
v -37.249900799999999 20.33784485 -7.25
v -37.249900799999999 21.206984500000001 -7.25
v -37.249900799999999 12.8632531 -7.25
v -37.249900799999999 4.5195210000000001 -7.25
v -37.249900799999999 21.9022951 -7.25
v -37.249900799999999 10.6034918 -7.25
v -37.249900799999999 12.167942050000001 -7.25
v -37.249900799999999 11.472631 -7.25
v -37.249900799999999 5.3886596999999998 -7.25
v -37.249900799999999 -21.9022951 -7.25
v -37.249900799999999 -10.7773199 7.25
v -37.249900799999999 11.1249752 7.25
v -37.249900799999999 -5.5624875999999999 7.25
v -37.249900799999999 16.687461899999999 7.25
v -37.249900799999999 -19.468706099999999 7.25
v -37.249900799999999 -8.3437318999999999 7.25
v -37.249900799999999 -2.7812435999999998 7.25
v -37.249900799999999 7.9960760999999998 7.25
v -37.249900799999999 19.468706099999999 7.25
v -37.249900799999999 17.730430599999998 7.25
v -37.249900799999999 15.296840700000001 7.25
v -37.249900799999999 -15.296840700000001 7.25
v -37.249900799999999 -4.5195207999999996 7.25
v -37.249900799999999 -1.7382770000000001 7.25
v -37.249900799999999 20.511672999999998 7.25
v -37.249900799999999 -11.8202868 7.25
v -37.249900799999999 9.0390425000000008 7.25
v -37.249900799999999 21.5546398 7.25
v -37.249900799999999 -0.69531050000000005 7.25
v -37.249900799999999 3.4765543999999999 7.25
v -37.249900799999999 10.082008399999999 7.25
v -37.249900799999999 -6.6054539999999999 7.25
v -37.249900799999999 -17.382774399999999 7.25
v -37.249900799999999 6.2577987000000004 7.25
v -37.249900799999999 18.773395499999999 7.25
v -37.249900799999999 15.9921513 7.25
v -37.249900799999999 -9.3866978000000003 7.25
v -37.249900799999999 -7.6484202999999997 7.25
v -37.249900799999999 11.8202868 7.25
v -37.249900799999999 -21.5546398 7.25
v -37.249900799999999 -20.511672999999998 7.25
v -37.249900799999999 -18.4257393 7.25
v -37.249900799999999 -15.9921513 7.25
v -37.249900799999999 -3.4765543999999999 7.25
v -37.249900799999999 -14.2538748 7.25
v -37.249900799999999 0.34765570000000001 7.25
v -37.249900799999999 14.2538748 7.25
v -37.249900799999999 12.5155973 7.25
v -37.249900799999999 5.5624875999999999 7.25
v -37.249900799999999 -16.687461899999999 7.25
v -37.249900799999999 -12.5155973 7.25
v -37.249900799999999 13.2109089 7.25
v -37.249900799999999 -13.2109089 7.25
v -37.249900799999999 1.3906215 7.25
v -37.249900799999999 6.9531093000000004 7.25
v -37.249900799999999 4.5195207999999996 7.25
v -37.249900799999999 2.4335879999999999 7.25
v -37.249900799999999 -10.082008399999999 7.25
v -37.249900799999999 21.9022951 7.25
v -37.249900799999999 -21.9022951 7.25
v -37.249900799999999 -21.033156399999999 7.25
v -37.249900799999999 15.644496 7.25
v -37.249900799999999 -12.8632531 7.25
v -37.249900799999999 21.033156399999999 7.25
v -37.249900799999999 13.732391849999999 7.25
v -37.249900799999999 12.8632531 7.25
v -37.249900799999999 12.167942050000001 7.25
v -37.249900799999999 16.339806599999999 7.25
v -37.249900799999999 -13.732391849999999 7.25
v 37.249900799999999 14.999999000000001 7.25
v 37.249900799999999 13.6381245 7.25
v 37.249900799999999 16.830019 7.25
v 37.249900799999999 14.319062199999999 7.25
v 37.249900799999999 12.957186699999999 7.25
v 37.249900799999999 15.766054199999999 7.25
v 37.249900799999999 13.978593350000001 7.25
v 37.249900799999999 13.297655599999999 7.25
v 37.249900799999999 14.6595306 7.25
v 37.249900799999999 12.6167178 7.25
v 37.249900799999999 17.276885050000001 7.25
v 22.25 -15.6118431 -5.75
v 22.25 -14.694026900000001 -5.75
v 22.25 -15.917781850000001 -5.75
v 22.25 -14.235118849999999 -5.75
v 22.25 -15.152934999999999 -5.75
v 29.749950399999999 13.026248900000001 -5.75
v 33.499927499999998 12.651248900000001 -5.75
v 25.999975200000002 13.401248900000001 -5.75
v 31.6249371 12.838748900000001 -5.75
v 27.8749638 13.213748900000001 -5.75
v 24.124988599999998 13.588748900000001 -5.75
v 26.937469499999999 13.307498900000001 -5.75
v 30.6874447 12.932498900000001 -5.75
v 34.437419900000002 12.557498900000001 -5.75
v 32.5624313 12.744998900000001 -5.75
v 25.062480900000001 13.494998900000001 -5.75
v 28.812456099999999 13.119998900000001 -5.75
v 23.187494300000001 13.682498900000001 -5.75
v 36.312408400000002 12.369998900000001 -5.75
v 35.374912299999998 12.463748900000001 -5.75
v 36.781154600000001 12.323123900000001 -5.75
v 22.718747149999999 13.729373900000001 -5.75
v 22.484373574999999 13.752811400000001 -5.75
v 37.249900799999999 -14.999965700000001 -5.75
v 37.249900799999999 -16.0213699 -5.75
v 37.249900799999999 -14.319029799999999 -5.75
v 37.249900799999999 -13.638093899999999 -5.75
v 37.249900799999999 -16.872539499999998 -5.75
v 37.249900799999999 -15.5106678 -5.75
v 37.249900799999999 -14.65949775 -5.75
v 37.249900799999999 -17.298125249999998 -5.75
v 37.249900799999999 -13.978561849999998 -5.75
v 37.249900799999999 -16.446954699999999 -5.75
v 37.249900799999999 -12.9571571 -5.75
v 29.749950399999999 -16.9737148 7.25
v 25.999975200000002 -16.598718600000002 7.25
v 24.124988599999998 -16.411218600000002 7.25
v 27.8749638 -16.786216700000001 7.25
v 31.6249371 -17.1612148 7.25
v 26.937469499999999 -16.692466700000001 7.25
v 30.6874447 -17.0674648 7.25
v 34.437419900000002 -17.442462899999999 7.25
v 25.062480900000001 -16.504968600000002 7.25
v 32.5624313 -17.254962899999999 7.25
v 28.812456099999999 -16.879966700000001 7.25
v 35.374912299999998 -17.536211000000002 7.25
v 36.312408400000002 -17.629961000000002 7.25
v 33.499927499999998 -17.348712899999999 7.25
v 23.187494300000001 -16.317468600000002 7.25
v 36.781154600000001 -17.676836000000002 7.25
v 22.718747149999999 -16.270594600000003 7.25
v 37.0155277 -17.700273500000002 7.25
v 25.999975200000002 13.401248900000001 7.25
v 24.124988599999998 13.588748900000001 7.25
v 27.8749638 13.213748900000001 7.25
v 31.6249371 12.838748900000001 7.25
v 35.374912299999998 12.463748900000001 7.25
v 26.937469499999999 13.307498900000001 7.25
v 30.6874447 12.932498900000001 7.25
v 34.437419900000002 12.557498900000001 7.25
v 25.062480900000001 13.494998900000001 7.25
v 28.812456099999999 13.119998900000001 7.25
v 32.5624313 12.744998900000001 7.25
v 36.312408400000002 12.369998900000001 7.25
v 33.499927499999998 12.651248900000001 7.25
v 29.749950399999999 13.026248900000001 7.25
v 23.187494300000001 13.682498900000001 7.25
v 36.781154600000001 12.323123900000001 7.25
v 35.84366035 12.416873900000001 7.25
v 23.65624145 13.635623900000001 7.25
v 22.718747149999999 13.729373900000001 7.25
v 37.0155277 12.299686400000001 7.25
v 37.249900799999999 14.999999000000001 -5.75
v 37.249900799999999 13.978593800000001 -5.75
v 37.249900799999999 16.0214043 -5.75
v 37.249900799999999 16.872577700000001 -5.75
v 37.249900799999999 13.127421399999999 -5.75
v 37.249900799999999 12.701835150000001 -5.75
v 37.249900799999999 17.298164400000001 -5.75
v 37.249900799999999 16.446991000000001 -5.75
v 37.249900799999999 17.510957750000003 -5.75
v 37.249900799999999 -1.5e-06 7.25
v 37.249900799999999 -1.0214076999999999 7.25
v 37.249900799999999 1.0214055 7.25
v 37.249900799999999 1.8725773999999999 7.25
v 37.249900799999999 -1.8725795999999999 7.25
v 37.249900799999999 -2.2981655500000002 7.25
v 37.249900799999999 2.2981634 7.25
v 37.249900799999999 1.4469914500000001 7.25
v 29.749950399999999 -1.9737515000000001 7.25
v 25.999975200000002 -1.5987515000000001 7.25
v 24.124988599999998 -1.4112515000000001 7.25
v 27.8749638 -1.7862515000000001 7.25
v 31.6249371 -2.1612515000000001 7.25
v 35.374912299999998 -2.5362515000000001 7.25
v 23.187494300000001 -1.3175015000000001 7.25
v 26.937469499999999 -1.6925015000000001 7.25
v 30.6874447 -2.0675015000000001 7.25
v 34.437419900000002 -2.4425015000000001 7.25
v 25.062480900000001 -1.5050015000000001 7.25
v 28.812456099999999 -1.8800015000000001 7.25
v 32.5624313 -2.2550015000000001 7.25
v 36.312408400000002 -2.6300015000000001 7.25
v 33.499927499999998 -2.3487515000000001 7.25
v 22.718747149999999 -1.2706265000000001 7.25
v 36.781154600000001 -2.6768765000000001 7.25
v 22.484373574999999 -1.2471890000000001 7.25
v 37.0155277 -2.7003140000000001 7.25
v -37.249900799999999 22.249950399999999 0
v -37.249900799999999 22.249950399999999 -3.625
v -37.249900799999999 22.249950399999999 3.625
v -37.249900799999999 22.249950399999999 -5.4375
v -37.249900799999999 22.249950399999999 -1.8125
v -37.249900799999999 22.249950399999999 1.8125
v -37.249900799999999 22.249950399999999 5.4375
v -37.249900799999999 22.249950399999999 -6.34375
v -37.249900799999999 22.249950399999999 -2.71875
v -37.249900799999999 22.249950399999999 0.90625
v -37.249900799999999 22.249950399999999 2.71875
v -37.249900799999999 22.249950399999999 4.53125
v -37.249900799999999 22.249950399999999 -4.53125
v -37.249900799999999 22.249950399999999 -0.90625
v -37.249900799999999 22.249950399999999 6.34375
v -37.249900799999999 22.249950399999999 -5.890625
v -37.249900799999999 22.249950399999999 6.796875
v -37.249900799999999 22.249950399999999 -6.796875
v -37.249900799999999 22.249950399999999 5.890625
v -37.249900799999999 22.249950399999999 7.0234375
v -37.249900799999999 22.249950399999999 -7.0234375
v 37.249900799999999 -1.5e-06 -5.75
v 37.249900799999999 1.0214055 -5.75
v 37.249900799999999 -1.0214076999999999 -5.75
v 37.249900799999999 1.8725773999999999 -5.75
v 37.249900799999999 -1.8725795999999999 -5.75
v 37.249900799999999 2.2981634 -5.75
v 37.249900799999999 1.4469914500000001 -5.75
v 37.249900799999999 -1.44699365 -5.75
v 37.249900799999999 -2.2981655500000002 -5.75
v 37.249900799999999 -2.5109585250000004 -5.75
v 37.249900799999999 2.5109564 -5.75
v 22.25 16.223751100000001 7.25
v 22.25 13.776248900000001 7.25
v 22.251065476664138 15.407878833259831 7.2499999985502903
v 22.251064128807897 14.592049511027051 7.2499998747409951
v 22.25 -16.2237206 7.25
v 22.249805593755291 -14.592217728147041 7.2499997853120774
v 22.249803843507696 -15.40804928089862 7.2499997272914998
v 22.25 -13.776210799999999 7.25
v 22.25 1.2237495 7.25
v 22.25 -1.2237515000000001 7.25
v 22.250167696460384 0.40841662916549903 7.2499999901518795
v 22.2501679756691 -0.40741325474375056 7.2499801921979614
v 22.25 13.776248900000001 -5.75
v 22.250016781413965 13.66921397548796 -6.508968786233039
v 22.250000418927833 13.614304422704443 -6.881291089652775
v 22.250148040667611 13.723064667108751 -6.1313928270348059
v 22.25 13.558564199999999 -7.25
v 22.250000004698208 16.276076781760537 -6.499596493415682
v 22.250000000000224 16.306711727173081 -6.8746904746487338
v 22.25 16.339806599999999 -7.25
v 22.250060263327786 16.248782131136245 -6.124738945352167
v 22.25 16.223751100000001 -5.75
v 22.250116030460525 -1.2338097874213196 -6.1197932085083302
v 22.250000000000007 -1.2368844092579523 -6.49261342474699
v 22.25 -1.2302274814116951 -6.8697606514114433
v 22.25 -1.2167937500000001 -7.25
v 22.25 -1.2237515000000001 -5.75
v 22.250000331997818 1.1585565258705941 -6.3601032482270314
v 22.250021322270456 1.1921777749696081 -6.0562420268291417
v 22.250000000001059 1.0831359901873037 -6.9562475611741021
v 22.250000000062986 1.1220464683800992 -6.6601066678024878
v 22.25 1.0429662500000001 -7.25
v 22.25 1.2237495 -5.75
v 22.25 -13.776210799999999 -5.75
v 22.250000319580103 -13.92155106610098 -6.4996849789302207
v 22.25000727619323 -13.847525436117973 -6.1248266671348981
v 22.25 -14.080047149999999 -7.25
v 22.250000000000007 -13.999429808294604 -6.8747279763092601
v 22.250000016502376 -16.009265038222427 -6.5010029018292936
v 22.250043647199448 -16.114071439510475 -6.1257618839903083
v 22.25 -15.818323149999999 -7.25
v 22.250000000004444 -15.91134565026498 -6.8756565625738553
v 22.25 -16.2237206 -5.75
v -37.249900799999999 22.249950399999999 -7.25
v -37.249900799999999 -22.249950399999999 7.25
v -37.249900799999999 22.249950399999999 7.25
v -37.249900799999999 -22.249950399999999 -7.25
v 22.25 -22.249950399999999 -7.25
v 22.25 22.249950399999999 -7.25
v 22.25 22.249950399999999 7.25
v 22.25 16.223751100000001 7.25
v 22.25 13.776248900000001 7.25
v 22.25 1.2237495 7.25
v 22.25 -1.2237515000000001 7.25
v 22.25 -16.2237206 7.25
v 22.25 -22.249950399999999 7.25
v 22.25 -13.776210799999999 -5.75
v 22.25 -1.2237515000000001 -5.75
v 22.25 13.776248900000001 -5.75
v 22.25 16.223751100000001 -5.75
v 37.249900799999999 17.723751100000001 7.25
v 37.249900799999999 17.723751100000001 -5.75
v 37.249900799999999 12.276248900000001 -5.75
v 37.249900799999999 12.276248900000001 7.25
v 37.249900799999999 2.7237494 7.25
v 37.249900799999999 2.7237494 -5.75
v 37.249900799999999 -2.7237515000000001 -5.75
v 37.249900799999999 -2.7237515000000001 7.25
v 37.249900799999999 -12.2762203 7.25
v 37.249900799999999 -12.2762203 -5.75
v 37.249900799999999 -17.723711000000002 -5.75
v 37.249900799999999 -17.723711000000002 7.25
v 22.25 1.2237495 -5.75
v 22.25 -16.2237206 -5.75
v 22.25 -13.776210799999999 7.25
v 37.249900799999999 -12.616688700000001 7.25
v 22.25 14.082186700000001 -5.75
v 22.25 -15.917781850000001 -5.75
v 22.25 -0.76484525000000003 -5.75
v 22.718747149999999 16.270626100000001 7.25
v 22.25 -16.2237206 -5.34375
v 22.25 1.2237495 -5.34375
v 22.25 15.764843949999999 -5.75
v 22.718747149999999 -13.729336249999999 7.25
v 22.25 16.600388549999998 7.25
v -36.785057049999999 22.249950399999999 -7.25
v 21.7851572 22.249950399999999 7.25
v -36.785057049999999 -22.249950399999999 7.25
v 37.249900799999999 17.723751100000001 -5.34375
v 37.249900799999999 2.7237494 -5.34375
v 37.249900799999999 -2.7237515000000001 6.84375
v 37.249900799999999 -2.2981655500000002 7.25
v 22.718747149999999 -1.2706265000000001 -5.75
v 22.25 -1.2237515000000001 -5.34375
v 22.25 -13.38394645 7.25
v 22.718747149999999 1.2706245 -5.75
v 37.249900799999999 12.701835150000001 -5.75
v 22.718747149999999 16.270626100000001 -5.75
v 22.718747149999999 -16.270594600000003 -5.75
v -37.249900799999999 21.9022951 7.25
v -37.249900799999999 -21.9022951 7.25
v 22.25 -1.6160157500000001 7.25
v 22.25 -16.600359949999998 7.25
v 21.7851572 -22.249950399999999 -7.25
v 22.25 -21.9022951 -7.25
v 21.7851572 22.249950399999999 -7.25
v -36.785057049999999 22.249950399999999 7.25
v 22.25 -22.249950399999999 -6.796875
v 21.7851572 -22.249950399999999 7.25
v 22.25 22.249950399999999 6.796875
v 37.249900799999999 17.723751100000001 6.84375
v 36.781154600000001 -17.676836000000002 -5.75
v -37.249900799999999 21.9022951 -7.25
v -37.249900799999999 -22.249950399999999 -6.796875
v 22.25 -22.249950399999999 6.796875
v 22.25 -16.2237206 6.84375
v 37.249900799999999 -12.2762203 6.84375
v 22.25 -13.776210799999999 -5.34375
v 22.25 -13.776210799999999 6.84375
v 22.25 13.3839831 7.25
v 37.249900799999999 12.276248900000001 6.84375
v 37.249900799999999 -17.383242600000003 7.25
v 22.25 1.616015 7.25
v 22.25 13.776248900000001 -5.34375
v 37.249900799999999 -17.298125249999998 -5.75
v 22.718747149999999 -13.729336249999999 -5.75
v 22.25 16.223751100000001 -5.34375
v 37.249900799999999 2.2981634 7.25
v 37.249900799999999 -2.7237515000000001 -5.34375
v 22.25 -21.684991849999999 7.25
v 37.249900799999999 2.7237494 6.84375
v 22.718747149999999 1.2706245 7.25
v 22.25 0.91781175000000004 -5.75
v 22.25 22.249950399999999 -6.796875
v 22.25 -14.235118849999999 -5.75
v -37.249900799999999 -21.9022951 -7.25
v 36.781154600000001 17.676876100000001 7.25
v 37.249900799999999 12.6167178 7.25
v 36.781154600000001 -2.6768765000000001 -5.75
v 36.781154600000001 2.6768744 -5.75
v 22.718747149999999 -16.270594600000003 7.25
v 22.25 -1.2237515000000001 6.84375
v 22.718747149999999 13.729373900000001 7.25
v 36.781154600000001 17.676876100000001 -5.75
v -36.785057049999999 -22.249950399999999 -7.25
v 36.781154600000001 12.323123900000001 -5.75
v 37.249900799999999 -12.2762203 -5.34375
v 22.25 21.68499375 7.25
v 37.249900799999999 17.276885050000001 7.25
v 37.249900799999999 -17.723711000000002 -5.29296875
v 37.249900799999999 -12.9571571 -5.75
v 37.249900799999999 12.276248900000001 -5.1787109500000001
v 36.781154600000001 -12.32309485 -5.75
v 22.25 21.5546398 -7.25
v 37.0155277 -12.299657575000001 7.25
v 22.484373574999999 -1.2471890000000001 7.25
v 22.25 16.223751100000001 7.046875
v -37.249900799999999 22.249950399999999 7.0234375
v 37.0155277 12.299686400000001 7.25
v 37.249900799999999 -2.5109585250000004 -5.75
v 37.0155277 -2.7003140000000001 7.25
v -37.249900799999999 22.249950399999999 -7.0234375
v -37.249900799999999 -22.249950399999999 7.0234375
v 37.249900799999999 -17.723711000000002 7.046875
v 22.25 1.2237495 7.046875
v 22.25 13.776248900000001 7.046875
v 37.0155277 2.7003119 7.25
v 37.0155277 -17.700273500000002 7.25
v 37.249900799999999 2.5109564 -5.75
v 37.249900799999999 17.510957750000003 -5.75
v 22.484373574999999 13.752811400000001 -5.75
v 37.249900799999999 -12.2762203 7.25
v 37.249900799999999 -12.2762203 7.25
v 22.25 -1.2237515000000001 -5.75
v 22.25 -1.2237515000000001 -5.75
v 22.25 -1.2237515000000001 7.25
v 22.25 -1.2237515000000001 7.25
v 22.25 16.223751100000001 7.25
v 22.25 16.223751100000001 7.25
v 37.249900799999999 -2.7237515000000001 7.25
v 37.249900799999999 -2.7237515000000001 7.25
v 22.25 1.2237495 -5.75
v 22.25 1.2237495 -5.75
v 22.25 -16.2237206 -5.75
v 22.25 -16.2237206 -5.75
v 22.25 -13.776210799999999 7.25
v 22.25 -13.776210799999999 7.25
v -37.249900799999999 22.249950399999999 7.25
v -37.249900799999999 22.249950399999999 7.25
v 22.25 -22.249950399999999 7.25
v 22.25 -22.249950399999999 7.25
v 37.249900799999999 -17.723711000000002 -5.75
v 37.249900799999999 -17.723711000000002 -5.75
v 37.249900799999999 12.276248900000001 7.25
v 37.249900799999999 12.276248900000001 7.25
v 22.25 1.2237495 7.25
v 22.25 1.2237495 7.25
v 37.249900799999999 2.7237494 7.25
v 37.249900799999999 2.7237494 7.25
v 22.25 -13.776210799999999 -5.75
v 22.25 -13.776210799999999 -5.75
v 37.249900799999999 2.7237494 -5.75
v 37.249900799999999 2.7237494 -5.75
v 37.249900799999999 17.723751100000001 -5.75
v 37.249900799999999 17.723751100000001 -5.75
v -37.249900799999999 -22.249950399999999 -7.25
v -37.249900799999999 -22.249950399999999 -7.25
v 22.25 13.776248900000001 7.25
v 22.25 13.776248900000001 7.25
v 37.249900799999999 -2.7237515000000001 -5.75
v 37.249900799999999 -2.7237515000000001 -5.75
v 22.25 -16.2237206 7.25
v 22.25 -16.2237206 7.25
v 37.249900799999999 17.723751100000001 7.25
v 37.249900799999999 17.723751100000001 7.25
v 37.249900799999999 12.276248900000001 -5.75
v 37.249900799999999 12.276248900000001 -5.75
v 37.249900799999999 -12.2762203 -5.75
v 37.249900799999999 -12.2762203 -5.75
v 22.25 22.249950399999999 7.25
v 22.25 22.249950399999999 7.25
v 22.25 16.223751100000001 -5.75
v 22.25 16.223751100000001 -5.75
v -37.249900799999999 -22.249950399999999 7.25
v -37.249900799999999 -22.249950399999999 7.25
v -37.249900799999999 22.249950399999999 -7.25
v -37.249900799999999 22.249950399999999 -7.25
v 22.25 22.249950399999999 -7.25
v 22.25 22.249950399999999 -7.25
v 22.25 -22.249950399999999 -7.25
v 22.25 -22.249950399999999 -7.25
v 37.249900799999999 -17.723711000000002 7.25
v 37.249900799999999 -17.723711000000002 7.25
v 22.25 13.776248900000001 -5.75
v 22.25 13.776248900000001 -5.75
l 3/3 1/1
l 1/1 4/4
l 4/4 2/2
l 2/2 5/5
l 9/9 6/6
l 6/6 10/10
l 10/10 7/7
l 7/7 8/8
l 20/20 12/12
l 12/12 14/14
l 14/14 11/11
l 11/11 18/18
l 18/18 13/13
l 13/13 21/21
l 21/21 16/16
l 16/16 19/19
l 19/19 15/15
l 15/15 17/17
l 39/39 25/25
l 25/25 41/41
l 41/41 35/35
l 35/35 40/40
l 40/40 36/36
l 36/36 42/42
l 42/42 23/23
l 23/23 29/29
l 29/29 26/26
l 26/26 34/34
l 34/34 22/22
l 22/22 30/30
l 30/30 27/27
l 27/27 31/31
l 31/31 24/24
l 24/24 33/33
l 33/33 28/28
l 28/28 37/37
l 37/37 32/32
l 32/32 38/38
l 38/38 43/43
l 59/59 53/53
l 53/53 50/50
l 50/50 55/55
l 55/55 46/46
l 46/46 57/57
l 57/57 48/48
l 48/48 51/51
l 51/51 44/44
l 44/44 52/52
l 52/52 49/49
l 49/49 54/54
l 54/54 45/45
l 45/45 56/56
l 56/56 47/47
l 47/47 58/58
l 58/58 60/60
l 77/77 69/69
l 69/69 67/67
l 67/67 70/70
l 70/70 63/63
l 63/63 73/73
l 73/73 65/65
l 65/65 68/68
l 68/68 61/61
l 61/61 74/74
l 74/74 66/66
l 66/66 75/75
l 75/75 62/62
l 62/62 72/72
l 72/72 64/64
l 64/64 71/71
l 71/71 76/76
l 76/76 78/78
l 95/95 86/86
l 86/86 84/84
l 84/84 88/88
l 88/88 81/81
l 81/81 90/90
l 90/90 82/82
l 82/82 85/85
l 85/85 79/79
l 79/79 92/92
l 92/92 83/83
l 83/83 87/87
l 87/87 80/80
l 80/80 89/89
l 89/89 93/93
l 93/93 91/91
l 91/91 94/94
l 94/94 96/96
l 112/112 106/106
l 106/106 102/102
l 102/102 108/108
l 108/108 98/98
l 98/98 110/110
l 110/110 101/101
l 101/101 104/104
l 104/104 97/97
l 97/97 105/105
l 105/105 103/103
l 103/103 109/109
l 109/109 99/99
l 99/99 107/107
l 107/107 100/100
l 100/100 111/111
l 111/111 113/113
l 129/129 120/120
l 120/120 119/119
l 119/119 124/124
l 124/124 116/116
l 116/116 121/121
l 121/121 128/128
l 128/128 126/126
l 126/126 114/114
l 114/114 122/122
l 122/122 118/118
l 118/118 125/125
l 125/125 115/115
l 115/115 123/123
l 123/123 117/117
l 117/117 127/127
l 127/127 130/130
l 146/146 140/140
l 140/140 136/136
l 136/136 142/142
l 142/142 132/132
l 132/132 144/144
l 144/144 135/135
l 135/135 138/138
l 138/138 131/131
l 131/131 139/139
l 139/139 137/137
l 137/137 143/143
l 143/143 133/133
l 133/133 141/141
l 141/141 134/134
l 134/134 145/145
l 145/145 147/147
l 163/163 157/157
l 157/157 153/153
l 153/153 159/159
l 159/159 149/149
l 149/149 161/161
l 161/161 152/152
l 152/152 155/155
l 155/155 148/148
l 148/148 156/156
l 156/156 154/154
l 154/154 160/160
l 160/160 150/150
l 150/150 158/158
l 158/158 151/151
l 151/151 162/162
l 162/162 164/164
l 182/182 178/178
l 178/178 171/171
l 171/171 177/177
l 177/177 167/167
l 167/167 176/176
l 176/176 170/170
l 170/170 175/175
l 175/175 165/165
l 165/165 174/174
l 174/174 169/169
l 169/169 173/173
l 173/173 166/166
l 166/166 172/172
l 172/172 168/168
l 168/168 181/181
l 181/181 179/179
l 179/179 180/180
l 180/180 183/183
l 199/199 190/190
l 190/190 187/187
l 187/187 191/191
l 191/191 185/185
l 185/185 192/192
l 192/192 188/188
l 188/188 193/193
l 193/193 200/200
l 200/200 184/184
l 184/184 201/201
l 201/201 198/198
l 198/198 197/197
l 197/197 194/194
l 194/194 186/186
l 186/186 196/196
l 196/196 189/189
l 189/189 202/202
l 202/202 195/195
l 195/195 203/203
l 219/219 215/215
l 215/215 208/208
l 208/208 214/214
l 214/214 205/205
l 205/205 209/209
l 209/209 218/218
l 218/218 213/213
l 213/213 204/204
l 204/204 210/210
l 210/210 207/207
l 207/207 212/212
l 212/212 217/217
l 217/217 211/211
l 211/211 206/206
l 206/206 216/216
l 216/216 220/220
l 298/298 241/241
l 241/241 258/258
l 258/258 259/259
l 259/259 232/232
l 232/232 294/294
l 294/294 225/225
l 225/225 285/285
l 285/285 257/257
l 257/257 277/277
l 277/277 234/234
l 234/234 295/295
l 295/295 227/227
l 227/227 292/292
l 292/292 256/256
l 256/256 269/269
l 269/269 265/265
l 265/265 275/275
l 275/275 255/255
l 255/255 296/296
l 296/296 223/223
l 223/223 260/260
l 260/260 240/240
l 240/240 254/254
l 254/254 253/253
l 253/253 276/276
l 276/276 263/263
l 263/263 287/287
l 287/287 244/244
l 244/244 243/243
l 243/243 236/236
l 236/236 228/228
l 228/228 270/270
l 270/270 252/252
l 252/252 291/291
l 291/291 235/235
l 235/235 290/290
l 290/290 226/226
l 226/226 293/293
l 293/293 221/221
l 221/221 281/281
l 281/281 251/251
l 251/251 272/272
l 272/272 264/264
l 264/264 299/299
l 299/299 268/268
l 268/268 233/233
l 233/233 250/250
l 250/250 224/224
l 224/224 286/286
l 286/286 239/239
l 239/239 273/273
l 273/273 249/249
l 249/249 289/289
l 289/289 230/230
l 230/230 274/274
l 274/274 248/248
l 248/248 278/278
l 278/278 238/238
l 238/238 288/288
l 288/288 245/245
l 245/245 279/279
l 279/279 222/222
l 222/222 267/267
l 267/267 297/297
l 297/297 247/247
l 247/247 280/280
l 280/280 262/262
l 262/262 271/271
l 271/271 237/237
l 237/237 284/284
l 284/284 261/261
l 261/261 282/282
l 282/282 246/246
l 246/246 231/231
l 231/231 229/229
l 229/229 242/242
l 242/242 266/266
l 266/266 283/283
l 363/363 326/326
l 326/326 311/311
l 311/311 340/340
l 340/340 304/304
l 304/304 327/327
l 327/327 312/312
l 312/312 341/341
l 341/341 302/302
l 302/302 328/328
l 328/328 313/313
l 313/313 342/342
l 342/342 305/305
l 305/305 329/329
l 329/329 314/314
l 314/314 351/351
l 351/351 301/301
l 301/301 330/330
l 330/330 315/315
l 315/315 343/343
l 343/343 306/306
l 306/306 331/331
l 331/331 316/316
l 316/316 344/344
l 344/344 361/361
l 361/361 332/332
l 332/332 317/317
l 317/317 345/345
l 345/345 307/307
l 307/307 354/354
l 354/354 318/318
l 318/318 358/358
l 358/358 300/300
l 300/300 333/333
l 333/333 319/319
l 319/319 355/355
l 355/355 360/360
l 360/360 356/356
l 356/356 320/320
l 320/320 346/346
l 346/346 303/303
l 303/303 334/334
l 334/334 321/321
l 321/321 347/347
l 347/347 308/308
l 308/308 335/335
l 335/335 322/322
l 322/322 352/352
l 352/352 357/357
l 357/357 336/336
l 336/336 359/359
l 359/359 353/353
l 353/353 309/309
l 309/309 337/337
l 337/337 323/323
l 323/323 348/348
l 348/348 362/362
l 362/362 338/338
l 338/338 324/324
l 324/324 349/349
l 349/349 310/310
l 310/310 339/339
l 339/339 325/325
l 325/325 365/365
l 365/365 350/350
l 350/350 364/364
l 429/429 403/403
l 403/403 384/384
l 384/384 410/410
l 410/410 374/374
l 374/374 404/404
l 404/404 385/385
l 385/385 414/414
l 414/414 369/369
l 369/369 397/397
l 397/397 386/386
l 386/386 417/417
l 417/417 423/423
l 423/423 398/398
l 398/398 411/411
l 411/411 420/420
l 420/420 367/367
l 367/367 399/399
l 399/399 387/387
l 387/387 428/428
l 428/428 432/432
l 432/432 375/375
l 375/375 430/430
l 430/430 400/400
l 400/400 388/388
l 388/388 412/412
l 412/412 370/370
l 370/370 394/394
l 394/394 380/380
l 380/380 422/422
l 422/422 376/376
l 376/376 405/405
l 405/405 389/389
l 389/389 401/401
l 401/401 366/366
l 366/366 395/395
l 395/395 381/381
l 381/381 406/406
l 406/406 377/377
l 377/377 426/426
l 426/426 390/390
l 390/390 402/402
l 402/402 371/371
l 371/371 396/396
l 396/396 382/382
l 382/382 409/409
l 409/409 378/378
l 378/378 419/419
l 419/419 391/391
l 391/391 415/415
l 415/415 368/368
l 368/368 393/393
l 393/393 418/418
l 418/418 408/408
l 408/408 373/373
l 373/373 416/416
l 416/416 383/383
l 383/383 425/425
l 425/425 372/372
l 372/372 427/427
l 427/427 392/392
l 392/392 413/413
l 413/413 379/379
l 379/379 407/407
l 407/407 424/424
l 424/424 421/421
l 421/421 431/431
l 496/496 485/485
l 485/485 500/500
l 500/500 448/448
l 448/448 502/502
l 502/502 476/476
l 476/476 441/441
l 441/441 464/464
l 464/464 453/453
l 453/453 484/484
l 484/484 436/436
l 436/436 463/463
l 463/463 450/450
l 450/450 492/492
l 492/492 438/438
l 438/438 465/465
l 465/465 449/449
l 449/449 477/477
l 477/477 434/434
l 434/434 460/460
l 460/460 447/447
l 447/447 487/487
l 487/487 442/442
l 442/442 466/466
l 466/466 454/454
l 454/454 480/480
l 480/480 489/489
l 489/489 461/461
l 461/461 490/490
l 490/490 495/495
l 495/495 443/443
l 443/443 467/467
l 467/467 455/455
l 455/455 481/481
l 481/481 433/433
l 433/433 486/486
l 486/486 491/491
l 491/491 479/479
l 479/479 440/440
l 440/440 468/468
l 468/468 446/446
l 446/446 475/475
l 475/475 435/435
l 435/435 469/469
l 469/469 452/452
l 452/452 478/478
l 478/478 439/439
l 439/439 470/470
l 470/470 451/451
l 451/451 462/462
l 462/462 493/493
l 493/493 494/494
l 494/494 456/456
l 456/456 474/474
l 474/474 444/444
l 444/444 497/497
l 497/497 471/471
l 471/471 501/501
l 501/501 457/457
l 457/457 498/498
l 498/498 482/482
l 482/482 437/437
l 437/437 472/472
l 472/472 458/458
l 458/458 483/483
l 483/483 445/445
l 445/445 473/473
l 473/473 459/459
l 459/459 488/488
l 488/488 499/499
l 518/518 513/513
l 513/513 506/506
l 506/506 514/514
l 514/514 504/504
l 504/504 509/509
l 509/509 507/507
l 507/507 511/511
l 511/511 503/503
l 503/503 510/510
l 510/510 517/517
l 517/517 512/512
l 512/512 505/505
l 505/505 515/515
l 515/515 508/508
l 508/508 516/516
l 516/516 519/519
l 585/585 576/576
l 576/576 584/584
l 584/584 550/550
l 550/550 561/561
l 561/561 534/534
l 534/534 570/570
l 570/570 549/549
l 549/549 560/560
l 560/560 525/525
l 525/525 569/569
l 569/569 548/548
l 548/548 559/559
l 559/559 533/533
l 533/533 577/577
l 577/577 547/547
l 547/547 582/582
l 582/582 522/522
l 522/522 574/574
l 574/574 546/546
l 546/546 558/558
l 558/558 532/532
l 532/532 568/568
l 568/568 545/545
l 545/545 579/579
l 579/579 524/524
l 524/524 567/567
l 567/567 544/544
l 544/544 557/557
l 557/557 531/531
l 531/531 575/575
l 575/575 543/543
l 543/543 556/556
l 556/556 520/520
l 520/520 581/581
l 581/581 542/542
l 542/542 580/580
l 580/580 530/530
l 530/530 566/566
l 566/566 541/541
l 541/541 555/555
l 555/555 523/523
l 523/523 571/571
l 571/571 540/540
l 540/540 554/554
l 554/554 529/529
l 529/529 573/573
l 573/573 539/539
l 539/539 553/553
l 553/553 521/521
l 521/521 565/565
l 565/565 538/538
l 538/538 552/552
l 552/552 528/528
l 528/528 564/564
l 564/564 537/537
l 537/537 572/572
l 572/572 526/526
l 526/526 563/563
l 563/563 536/536
l 536/536 551/551
l 551/551 527/527
l 527/527 562/562
l 562/562 535/535
l 535/535 578/578
l 578/578 583/583
l 602/602 593/593
l 593/593 592/592
l 592/592 596/596
l 596/596 588/588
l 588/588 591/591
l 591/591 599/599
l 599/599 586/586
l 586/586 594/594
l 594/594 590/590
l 590/590 604/604
l 604/604 597/597
l 597/597 603/603
l 603/603 587/587
l 587/587 598/598
l 598/598 589/589
l 589/589 600/600
l 600/600 595/595
l 595/595 601/601
l 625/625 613/613
l 613/613 622/622
l 622/622 608/608
l 608/608 617/617
l 617/617 606/606
l 606/606 612/612
l 612/612 609/609
l 609/609 614/614
l 614/614 624/624
l 624/624 605/605
l 605/605 623/623
l 623/623 616/616
l 616/616 610/610
l 610/610 619/619
l 619/619 607/607
l 607/607 615/615
l 615/615 626/626
l 626/626 611/611
l 611/611 621/621
l 621/621 618/618
l 618/618 620/620
l 620/620 627/627
l 644/644 637/637
l 637/637 646/646
l 646/646 633/633
l 633/633 635/635
l 635/635 630/630
l 630/630 636/636
l 636/636 642/642
l 642/642 641/641
l 641/641 628/628
l 628/628 649/649
l 649/649 640/640
l 640/640 648/648
l 648/648 632/632
l 632/632 651/651
l 651/651 634/634
l 634/634 629/629
l 629/629 650/650
l 650/650 639/639
l 639/639 647/647
l 647/647 631/631
l 631/631 643/643
l 643/643 638/638
l 638/638 645/645
l 667/667 661/661
l 661/661 666/666
l 666/666 656/656
l 656/656 668/668
l 668/668 660/660
l 660/660 664/664
l 664/664 659/659
l 659/659 655/655
l 655/655 658/658
l 658/658 652/652
l 652/652 663/663
l 663/663 654/654
l 654/654 657/657
l 657/657 653/653
l 653/653 662/662
l 662/662 665/665
l 665/665 669/669
l 685/685 676/676
l 676/676 673/673
l 673/673 680/680
l 680/680 686/686
l 686/686 671/671
l 671/671 689/689
l 689/689 678/678
l 678/678 674/674
l 674/674 684/684
l 684/684 670/670
l 670/670 683/683
l 683/683 691/691
l 691/691 682/682
l 682/682 688/688
l 688/688 681/681
l 681/681 672/672
l 672/672 679/679
l 679/679 675/675
l 675/675 687/687
l 687/687 677/677
l 677/677 690/690
l 690/690 692/692
l 711/711 703/703
l 703/703 718/718
l 718/718 699/699
l 699/699 716/716
l 716/716 707/707
l 707/707 710/710
l 710/710 695/695
l 695/695 702/702
l 702/702 698/698
l 698/698 701/701
l 701/701 708/708
l 708/708 693/693
l 693/693 713/713
l 713/713 704/704
l 704/704 697/697
l 697/697 700/700
l 700/700 712/712
l 712/712 694/694
l 694/694 717/717
l 717/717 705/705
l 705/705 709/709
l 709/709 696/696
l 696/696 714/714
l 714/714 706/706
l 706/706 715/715
l 741/741 725/725
l 725/725 734/734
l 734/734 721/721
l 721/721 740/740
l 740/740 730/730
l 730/730 739/739
l 739/739 720/720
l 720/720 726/726
l 726/726 735/735
l 735/735 722/722
l 722/722 738/738
l 738/738 729/729
l 729/729 719/719
l 719/719 727/727
l 727/727 723/723
l 723/723 731/731
l 731/731 732/732
l 732/732 737/737
l 737/737 728/728
l 728/728 742/742
l 742/742 724/724
l 724/724 743/743
l 743/743 733/733
l 733/733 736/736
l 760/760 756/756
l 756/756 750/750
l 750/750 751/751
l 751/751 746/746
l 746/746 755/755
l 755/755 749/749
l 749/749 754/754
l 754/754 762/762
l 762/762 744/744
l 744/744 761/761
l 761/761 753/753
l 753/753 748/748
l 748/748 752/752
l 752/752 745/745
l 745/745 758/758
l 758/758 747/747
l 747/747 759/759
l 759/759 757/757
l 757/757 763/763
l 787/787 774/774
l 774/774 781/781
l 781/781 770/770
l 770/770 784/784
l 784/784 777/777
l 777/777 786/786
l 786/786 766/766
l 766/766 785/785
l 785/785 778/778
l 778/778 769/769
l 769/769 773/773
l 773/773 764/764
l 764/764 771/771
l 771/771 768/768
l 768/768 783/783
l 783/783 772/772
l 772/772 779/779
l 779/779 765/765
l 765/765 775/775
l 775/775 767/767
l 767/767 782/782
l 782/782 776/776
l 776/776 780/780
l 805/805 793/793
l 793/793 791/791
l 791/791 794/794
l 794/794 789/789
l 789/789 797/797
l 797/797 801/801
l 801/801 802/802
l 802/802 806/806
l 806/806 788/788
l 788/788 803/803
l 803/803 800/800
l 800/800 799/799
l 799/799 796/796
l 796/796 790/790
l 790/790 792/792
l 792/792 798/798
l 798/798 795/795
l 795/795 804/804
l 827/827 818/818
l 818/818 826/826
l 826/826 812/812
l 812/812 816/816
l 816/816 809/809
l 809/809 815/815
l 815/815 811/811
l 811/811 814/814
l 814/814 807/807
l 807/807 822/822
l 822/822 821/821
l 821/821 824/824
l 824/824 819/819
l 819/819 820/820
l 820/820 828/828
l 828/828 808/808
l 808/808 829/829
l 829/829 813/813
l 813/813 810/810
l 810/810 823/823
l 823/823 817/817
l 817/817 825/825
l 825/825 830/830
l 837/837 833/833
l 833/833 838/838
l 838/838 832/832
l 832/832 831/831
l 831/831 834/834
l 834/834 839/839
l 839/839 835/835
l 835/835 836/836
l 857/857 850/850
l 850/850 861/861
l 861/861 845/845
l 845/845 848/848
l 848/848 842/842
l 842/842 849/849
l 849/849 844/844
l 844/844 847/847
l 847/847 856/856
l 856/856 840/840
l 840/840 858/858
l 858/858 853/853
l 853/853 855/855
l 855/855 843/843
l 843/843 860/860
l 860/860 852/852
l 852/852 841/841
l 841/841 851/851
l 851/851 846/846
l 846/846 854/854
l 854/854 859/859
l 876/876 869/869
l 869/869 879/879
l 879/879 864/864
l 864/864 881/881
l 881/881 871/871
l 871/871 863/863
l 863/863 873/873
l 873/873 865/865
l 865/865 874/874
l 874/874 862/862
l 862/862 875/875
l 875/875 867/867
l 867/867 872/872
l 872/872 882/882
l 882/882 868/868
l 868/868 878/878
l 878/878 866/866
l 866/866 880/880
l 880/880 870/870
l 870/870 877/877
l 891/891 887/887
l 887/887 885/885
l 885/885 883/883
l 883/883 886/886
l 886/886 884/884
l 884/884 890/890
l 890/890 888/888
l 888/888 889/889
l 942/942 913/913
l 913/913 939/939
l 939/939 911/911
l 911/911 938/938
l 938/938 894/894
l 894/894 912/912
l 912/912 899/899
l 899/899 923/923
l 923/923 918/918
l 918/918 900/900
l 900/900 937/937
l 937/937 917/917
l 917/917 940/940
l 940/940 901/901
l 901/901 944/944
l 944/944 916/916
l 916/916 945/945
l 945/945 892/892
l 892/892 943/943
l 943/943 902/902
l 902/902 922/922
l 922/922 895/895
l 895/895 903/903
l 903/903 921/921
l 921/921 946/946
l 946/946 919/919
l 919/919 941/941
l 941/941 931/931
l 931/931 914/914
l 914/914 896/896
l 896/896 904/904
l 904/904 910/910
l 910/910 935/935
l 935/935 905/905
l 905/905 897/897
l 897/897 906/906
l 906/906 936/936
l 936/936 925/925
l 925/925 907/907
l 907/907 924/924
l 924/924 934/934
l 934/934 908/908
l 908/908 915/915
l 915/915 893/893
l 893/893 933/933
l 933/933 932/932
l 932/932 928/928
l 928/928 909/909
l 909/909 927/927
l 927/927 920/920
l 920/920 930/930
l 930/930 898/898
l 898/898 929/929
l 929/929 926/926
l 926/926 947/947
l 996/996 965/965
l 965/965 1001/1001
l 1001/1001 962/962
l 962/962 956/956
l 956/956 972/972
l 972/972 957/957
l 957/957 951/951
l 951/951 1005/1005
l 1005/1005 973/973
l 973/973 999/999
l 999/999 958/958
l 958/958 984/984
l 984/984 1002/1002
l 1002/1002 989/989
l 989/989 1003/1003
l 1003/1003 985/985
l 985/985 1004/1004
l 1004/1004 976/976
l 976/976 949/949
l 949/949 968/968
l 968/968 964/964
l 964/964 955/955
l 955/955 992/992
l 992/992 971/971
l 971/971 986/986
l 986/986 993/993
l 993/993 967/967
l 967/967 994/994
l 994/994 991/991
l 991/991 983/983
l 983/983 966/966
l 966/966 961/961
l 961/961 954/954
l 954/954 981/981
l 981/981 960/960
l 960/960 950/950
l 950/950 969/969
l 969/969 975/975
l 975/975 953/953
l 953/953 974/974
l 974/974 995/995
l 995/995 948/948
l 948/948 963/963
l 963/963 988/988
l 988/988 1000/1000
l 1000/1000 990/990
l 990/990 1006/1006
l 1006/1006 982/982
l 982/982 959/959
l 959/959 980/980
l 980/980 987/987
l 987/987 970/970
l 970/970 979/979
l 979/979 952/952
l 952/952 978/978
l 978/978 998/998
l 998/998 977/977
l 977/977 997/997
l 1017/1017 1009/1009
l 1009/1009 1012/1012
l 1012/1012 1007/1007
l 1007/1007 1015/1015
l 1015/1015 1010/1010
l 1010/1010 1013/1013
l 1013/1013 1008/1008
l 1008/1008 1014/1014
l 1014/1014 1011/1011
l 1011/1011 1016/1016
l 1020/1020 1018/1018
l 1018/1018 1022/1022
l 1022/1022 1019/1019
l 1019/1019 1021/1021
l 1038/1038 1036/1036
l 1036/1036 1037/1037
l 1037/1037 1031/1031
l 1031/1031 1024/1024
l 1024/1024 1032/1032
l 1032/1032 1026/1026
l 1026/1026 1030/1030
l 1030/1030 1023/1023
l 1023/1023 1034/1034
l 1034/1034 1027/1027
l 1027/1027 1029/1029
l 1029/1029 1025/1025
l 1025/1025 1033/1033
l 1033/1033 1028/1028
l 1028/1028 1035/1035
l 1035/1035 1039/1039
l 1039/1039 1040/1040
l 1051/1051 1044/1044
l 1044/1044 1049/1049
l 1049/1049 1043/1043
l 1043/1043 1047/1047
l 1047/1047 1041/1041
l 1041/1041 1046/1046
l 1046/1046 1042/1042
l 1042/1042 1050/1050
l 1050/1050 1045/1045
l 1045/1045 1048/1048
l 1068/1068 1066/1066
l 1066/1066 1054/1054
l 1054/1054 1060/1060
l 1060/1060 1053/1053
l 1053/1053 1057/1057
l 1057/1057 1055/1055
l 1055/1055 1062/1062
l 1062/1062 1052/1052
l 1052/1052 1058/1058
l 1058/1058 1056/1056
l 1056/1056 1061/1061
l 1061/1061 1065/1065
l 1065/1065 1059/1059
l 1059/1059 1063/1063
l 1063/1063 1064/1064
l 1064/1064 1067/1067
l 1067/1067 1069/1069
l 1088/1088 1084/1084
l 1084/1084 1087/1087
l 1087/1087 1071/1071
l 1071/1071 1078/1078
l 1078/1078 1070/1070
l 1070/1070 1075/1075
l 1075/1075 1072/1072
l 1072/1072 1079/1079
l 1079/1079 1083/1083
l 1083/1083 1076/1076
l 1076/1076 1073/1073
l 1073/1073 1080/1080
l 1080/1080 1082/1082
l 1082/1082 1077/1077
l 1077/1077 1074/1074
l 1074/1074 1086/1086
l 1086/1086 1081/1081
l 1081/1081 1085/1085
l 1085/1085 1089/1089
l 1095/1095 1094/1094
l 1094/1094 1091/1091
l 1091/1091 1090/1090
l 1090/1090 1092/1092
l 1092/1092 1097/1097
l 1097/1097 1093/1093
l 1093/1093 1096/1096
l 1096/1096 1098/1098
l 1105/1105 1102/1102
l 1102/1102 1106/1106
l 1106/1106 1101/1101
l 1101/1101 1099/1099
l 1099/1099 1100/1100
l 1100/1100 1103/1103
l 1103/1103 1104/1104
l 1124/1124 1122/1122
l 1122/1122 1113/1113
l 1113/1113 1109/1109
l 1109/1109 1117/1117
l 1117/1117 1108/1108
l 1108/1108 1114/1114
l 1114/1114 1110/1110
l 1110/1110 1118/1118
l 1118/1118 1107/1107
l 1107/1107 1115/1115
l 1115/1115 1111/1111
l 1111/1111 1119/1119
l 1119/1119 1121/1121
l 1121/1121 1116/1116
l 1116/1116 1112/1112
l 1112/1112 1120/1120
l 1120/1120 1123/1123
l 1123/1123 1125/1125
l 1145/1145 1142/1142
l 1142/1142 1140/1140
l 1140/1140 1144/1144
l 1144/1144 1132/1132
l 1132/1132 1137/1137
l 1137/1137 1128/1128
l 1128/1128 1136/1136
l 1136/1136 1131/1131
l 1131/1131 1135/1135
l 1135/1135 1126/1126
l 1126/1126 1139/1139
l 1139/1139 1130/1130
l 1130/1130 1134/1134
l 1134/1134 1127/1127
l 1127/1127 1138/1138
l 1138/1138 1129/1129
l 1129/1129 1141/1141
l 1141/1141 1133/1133
l 1133/1133 1143/1143
l 1143/1143 1146/1146
l 1157/1157 1152/1152
l 1152/1152 1150/1150
l 1150/1150 1153/1153
l 1153/1153 1148/1148
l 1148/1148 1147/1147
l 1147/1147 1149/1149
l 1149/1149 1154/1154
l 1154/1154 1151/1151
l 1151/1151 1155/1155
l 1155/1155 1156/1156
l 1159/1159 1161/1161
l 1161/1161 1160/1160
l 1160/1160 1158/1158
l 1165/1165 1163/1163
l 1163/1163 1164/1164
l 1164/1164 1162/1162
l 1167/1167 1169/1169
l 1169/1169 1168/1168
l 1168/1168 1166/1166
l 1170/1170 1173/1173
l 1173/1173 1171/1171
l 1171/1171 1172/1172
l 1172/1172 1174/1174
l 1179/1179 1178/1178
l 1178/1178 1175/1175
l 1175/1175 1176/1176
l 1176/1176 1177/1177
l 1184/1184 1180/1180
l 1180/1180 1181/1181
l 1181/1181 1182/1182
l 1182/1182 1183/1183
l 1190/1190 1186/1186
l 1186/1186 1185/1185
l 1185/1185 1188/1188
l 1188/1188 1187/1187
l 1187/1187 1189/1189
l 1191/1191 1193/1193
l 1193/1193 1192/1192
l 1192/1192 1195/1195
l 1195/1195 1194/1194
l 1200/1200 1197/1197
l 1197/1197 1196/1196
l 1196/1196 1199/1199
l 1199/1199 1198/1198
l 1201/1201 1243/1243
l 1201/1201 1270/1270
l 1202/1202 1258/1258
l 1202/1202 1320/1320
l 1203/1203 1264/1264
l 1203/1203 1315/1315
l 1204/1204 1271/1271
l 1204/1204 1302/1302
l 1205/1205 1261/1261
l 1205/1205 1265/1265
l 1206/1206 1263/1263
l 1206/1206 1291/1291
l 1207/1207 1244/1244
l 1207/1207 1305/1305
l 1208/1208 1237/1237
l 1208/1208 1242/1242
l 1209/1209 1277/1277
l 1209/1209 1300/1300
l 1210/1210 1280/1280
l 1210/1210 1289/1289
l 1211/1211 1259/1259
l 1211/1211 1313/1313
l 1212/1212 1260/1260
l 1212/1212 1298/1298
l 1213/1213 1266/1266
l 1213/1213 1272/1272
l 1214/1214 1275/1275
l 1214/1214 1292/1292
l 1215/1215 1236/1236
l 1215/1215 1250/1250
l 1216/1216 1234/1234
l 1216/1216 1281/1281
l 1217/1217 1240/1240
l 1217/1217 1255/1255
l 1218/1218 1268/1268
l 1218/1218 1294/1294
l 1219/1219 1246/1246
l 1219/1219 1301/1301
l 1220/1220 1254/1254
l 1220/1220 1309/1309
l 1221/1221 1278/1278
l 1221/1221 1316/1316
l 1222/1222 1285/1285
l 1222/1222 1288/1288
l 1223/1223 1247/1247
l 1223/1223 1297/1297
l 1224/1224 1296/1296
l 1224/1224 1317/1317
l 1225/1225 1248/1248
l 1225/1225 1249/1249
l 1226/1226 1233/1233
l 1226/1226 1312/1312
l 1227/1227 1304/1304
l 1227/1227 1310/1310
l 1228/1228 1269/1269
l 1228/1228 1282/1282
l 1229/1229 1279/1279
l 1229/1229 1321/1321
l 1230/1230 1253/1253
l 1230/1230 1290/1290
l 1231/1231 1238/1238
l 1231/1231 1256/1256
l 1232/1232 1241/1241
l 1232/1232 1252/1252
l 1233/1233 1329/1329
l 1234/1234 1391/1391
l 1235/1235 1341/1341
l 1235/1235 1342/1342
l 1236/1236 1332/1332
l 1237/1237 1335/1335
l 1238/1238 1341/1341
l 1239/1239 1339/1339
l 1239/1239 1340/1340
l 1240/1240 1379/1379
l 1241/1241 1343/1343
l 1242/1242 1336/1336
l 1243/1243 1384/1384
l 1244/1244 1378/1378
l 1245/1245 1381/1381
l 1245/1245 1382/1382
l 1246/1246 1361/1361
l 1247/1247 1359/1359
l 1248/1248 1338/1338
l 1249/1249 1337/1337
l 1250/1250 1331/1331
l 1251/1251 1331/1331
l 1251/1251 1332/1332
l 1252/1252 1344/1344
l 1253/1253 1340/1340
l 1254/1254 1374/1374
l 1255/1255 1380/1380
l 1256/1256 1342/1342
l 1257/1257 1345/1345
l 1257/1257 1346/1346
l 1258/1258 1382/1382
l 1259/1259 1333/1333
l 1260/1260 1369/1369
l 1261/1261 1387/1387
l 1262/1262 1387/1387
l 1262/1262 1388/1388
l 1263/1263 1386/1386
l 1264/1264 1346/1346
l 1265/1265 1388/1388
l 1266/1266 1348/1348
l 1267/1267 1377/1377
l 1267/1267 1378/1378
l 1268/1268 1372/1372
l 1269/1269 1350/1350
l 1270/1270 1383/1383
l 1271/1271 1363/1363
l 1272/1272 1347/1347
l 1273/1273 1369/1369
l 1273/1273 1370/1370
l 1274/1274 1329/1329
l 1274/1274 1330/1330
l 1275/1275 1357/1357
l 1276/1276 1343/1343
l 1276/1276 1344/1344
l 1277/1277 1365/1365
l 1278/1278 1351/1351
l 1279/1279 1389/1389
l 1280/1280 1354/1354
l 1281/1281 1392/1392
l 1282/1282 1349/1349
l 1283/1283 1357/1357
l 1283/1283 1358/1358
l 1284/1284 1379/1379
l 1284/1284 1380/1380
l 1285/1285 1356/1356
l 1286/1286 1367/1367
l 1286/1286 1368/1368
l 1287/1287 1347/1347
l 1287/1287 1348/1348
l 1288/1288 1355/1355
l 1289/1289 1353/1353
l 1290/1290 1339/1339
l 1291/1291 1385/1385
l 1292/1292 1358/1358
l 1293/1293 1363/1363
l 1293/1293 1364/1364
l 1294/1294 1371/1371
l 1295/1295 1351/1351
l 1295/1295 1352/1352
l 1296/1296 1368/1368
l 1297/1297 1360/1360
l 1298/1298 1370/1370
l 1299/1299 1333/1333
l 1299/1299 1334/1334
l 1300/1300 1366/1366
l 1301/1301 1362/1362
l 1302/1302 1364/1364
l 1303/1303 1373/1373
l 1303/1303 1374/1374
l 1304/1304 1375/1375
l 1305/1305 1377/1377
l 1306/1306 1371/1371
l 1306/1306 1372/1372
l 1307/1307 1349/1349
l 1307/1307 1350/1350
l 1308/1308 1375/1375
l 1308/1308 1376/1376
l 1309/1309 1373/1373
l 1310/1310 1376/1376
l 1311/1311 1385/1385
l 1311/1311 1386/1386
l 1312/1312 1330/1330
l 1313/1313 1334/1334
l 1314/1314 1335/1335
l 1314/1314 1336/1336
l 1315/1315 1345/1345
l 1316/1316 1352/1352
l 1317/1317 1367/1367
l 1318/1318 1337/1337
l 1318/1318 1338/1338
l 1319/1319 1383/1383
l 1319/1319 1384/1384
l 1320/1320 1381/1381
l 1321/1321 1390/1390
l 1322/1322 1353/1353
l 1322/1322 1354/1354
l 1323/1323 1365/1365
l 1323/1323 1366/1366
l 1324/1324 1355/1355
l 1324/1324 1356/1356
l 1325/1325 1389/1389
l 1325/1325 1390/1390
l 1326/1326 1359/1359
l 1326/1326 1360/1360
l 1327/1327 1361/1361
l 1327/1327 1362/1362
l 1328/1328 1391/1391
l 1328/1328 1392/1392
