v -5.75 -20.3380814 22.249900799999999
v -5.75 -19.3821449 22.249900799999999
v -5.75 -21.294015900000002 22.249900799999999
v -5.75 -21.771983150000001 22.249900799999999
v -5.75 -20.816048649999999 22.249900799999999
v -5.75 -18.904177650000001 22.249900799999999
v -5.75 -19.86011315 22.249900799999999
v -5.75 20.338100399999998 22.249900799999999
v -5.75 19.382175400000001 22.249900799999999
v -5.75 21.294025399999999 22.249900799999999
v -5.75 21.771987899999999 22.249900799999999
v -5.75 19.860137899999998 22.249900799999999
v -5.75 20.816062899999999 22.249900799999999
v -5.75 18.904212950000002 22.249900799999999
v -5.75 -20.3380814 37.249900799999999
v -5.75 -21.294015900000002 37.249900799999999
v -5.75 -19.3821449 37.249900799999999
v -5.75 -21.771983150000001 37.249900799999999
v -5.75 -18.904177650000001 37.249900799999999
v -5.75 -22.010966775 37.249900799999999
v -5.75 19.382175400000001 37.249900799999999
v -5.75 20.338100399999998 37.249900799999999
v -5.75 21.294025399999999 37.249900799999999
v -5.75 18.904212950000002 37.249900799999999
v -5.75 21.771987899999999 37.249900799999999
v -5.75 20.816062899999999 37.249900799999999
v 0.75 22.249950399999999 37.249900799999999
v -2.5 22.249950399999999 37.249900799999999
v 4 22.249950399999999 37.249900799999999
v -4.6074219000000003 22.249950399999999 37.249900799999999
v 2.375 22.249950399999999 37.249900799999999
v 5.625 22.249950399999999 37.249900799999999
v 1.5625 22.249950399999999 37.249900799999999
v 3.1875 22.249950399999999 37.249900799999999
v 6.4375 22.249950399999999 37.249900799999999
v -0.0625 22.249950399999999 37.249900799999999
v 4.8125 22.249950399999999 37.249900799999999
v -1.6875 22.249950399999999 37.249900799999999
v -0.875 22.249950399999999 37.249900799999999
v -3.6362304999999999 22.249950399999999 37.249900799999999
v 4.40625 22.249950399999999 37.249900799999999
v 2.78125 22.249950399999999 37.249900799999999
v 6.84375 22.249950399999999 37.249900799999999
v 5.21875 22.249950399999999 37.249900799999999
v 3.59375 22.249950399999999 37.249900799999999
v 6.03125 22.249950399999999 37.249900799999999
v -5.1787109500000001 22.249950399999999 37.249900799999999
v 7.046875 22.249950399999999 37.249900799999999
v -5.75 -7.5000004999999996 37.249900799999999
v -5.75 -5.4631257 37.249900799999999
v -5.75 -9.5368756999999995 37.249900799999999
v -5.75 -4.4446883000000001 37.249900799999999
v -5.75 -6.4815636000000003 37.249900799999999
v -5.75 -8.5184382999999997 37.249900799999999
v -5.75 -10.555313099999999 37.249900799999999
v -5.75 -3.9354694000000001 37.249900799999999
v -5.75 -11.064531799999999 37.249900799999999
v 0.75 -4.0762505999999998 37.249900799999999
v -2.5 -3.7512504999999998 37.249900799999999
v 4 -4.4012494000000002 37.249900799999999
v -4.6835937999999997 -3.5328909999999998 37.249900799999999
v -1.5859375 -3.8426566000000002 37.249900799999999
v 2.375 -4.2387494999999999 37.249900799999999
v 5.625 -4.5637492999999996 37.249900799999999
v -3.6552734 -3.6357230999999999 37.249900799999999
v -0.671875 -3.9340630000000001 37.249900799999999
v 4.8125 -4.4824995999999997 37.249900799999999
v 1.5625 -4.1574998000000001 37.249900799999999
v 3.1875 -4.3199997000000003 37.249900799999999
v 6.4375 -4.6449994999999999 37.249900799999999
v 0.039062399999999997 -4.0051569999999996 37.249900799999999
v 6.84375 -4.6856246000000006 37.249900799999999
v 4.40625 -4.4418744999999999 37.249900799999999
v 5.21875 -4.5231244499999992 37.249900799999999
v 3.59375 -4.3606245500000007 37.249900799999999
v -0.31640630000000003 -3.9696099999999999 37.249900799999999
v 6.03125 -4.6043743999999993 37.249900799999999
v -1.12890625 -3.8883597999999999 37.249900799999999
v 0.39453119999999997 -4.0407037999999993 37.249900799999999
v -5.2167969000000003 -3.4795707499999997 37.249900799999999
v -4.1694335999999996 -3.5843070499999996 37.249900799999999
v 7.046875 -4.7059371500000005 37.249900799999999
v 7.25 2.3631245999999999 22.249900799999999
v 7.25 -3.6185350000000001 22.249900799999999
v 7.25 1.476953 22.249900799999999
v 7.25 -0.88617210000000002 22.249900799999999
v 7.25 3.2492966999999999 22.249900799999999
v 7.25 4.1354685 22.249900799999999
v 7.25 -1.7723435999999999 22.249900799999999
v 7.25 0.44308570000000003 22.249900799999999
v 7.25 -0.2215432 22.249900799999999
v 7.25 -2.6769772000000001 22.249900799999999
v 7.25 3.6923826000000002 22.249900799999999
v 7.25 4.4308591000000002 22.249900799999999
v 7.25 -4.17239235 22.249900799999999
v -5.75 7.5000004999999996 37.249900799999999
v -5.75 5.4631257 37.249900799999999
v -5.75 9.5368747999999997 37.249900799999999
v -5.75 6.4815626000000002 37.249900799999999
v -5.75 8.5184373999999998 37.249900799999999
v -5.75 10.555312199999999 37.249900799999999
v -5.75 4.4446877999999996 37.249900799999999
v -5.75 3.9354691499999999 37.249900799999999
v -5.75 11.064530850000001 37.249900799999999
v -5.75 7.5000004999999996 22.249900799999999
v -5.75 9.5368747999999997 22.249900799999999
v -5.75 5.4631257 22.249900799999999
v -5.75 8.5184373999999998 22.249900799999999
v -5.75 6.4815626000000002 22.249900799999999
v -5.75 4.4446874000000003 22.249900799999999
v -5.75 10.555312199999999 22.249900799999999
v -5.75 8.0092189499999993 22.249900799999999
v -5.75 6.9907815499999995 22.249900799999999
v -5.75 3.9354689500000002 22.249900799999999
v -5.75 9.0276560999999997 22.249900799999999
v -5.75 5.9723441499999996 22.249900799999999
v -5.75 11.064530850000001 22.249900799999999
v -5.75 4.9539065500000001 22.249900799999999
v -5.75 10.0460935 22.249900799999999
v 7.25 -22.249950399999999 0
v 7.25 -22.249950399999999 -18.624950399999999
v 7.25 -22.249950399999999 18.624950399999999
v 7.25 -22.249950399999999 9.3124751999999997
v 7.25 -22.249950399999999 -27.937425600000001
v 7.25 -22.249950399999999 -9.3124751999999997
v 7.25 -22.249950399999999 27.937425600000001
v 7.25 -22.249950399999999 -4.6562381000000004
v 7.25 -22.249950399999999 32.593662299999998
v 7.25 -22.249950399999999 4.6562381000000004
v 7.25 -22.249950399999999 13.9687128
v 7.25 -22.249950399999999 -32.593662299999998
v 7.25 -22.249950399999999 -23.2811871
v 7.25 -22.249950399999999 -13.9687128
v 7.25 -22.249950399999999 23.2811871
v 7.25 -22.249950399999999 -6.9843558999999997
v 7.25 -22.249950399999999 16.296831099999999
v 7.25 -22.249950399999999 30.265544899999998
v 7.25 -22.249950399999999 -2.328119
v 7.25 -22.249950399999999 34.921783400000002
v 7.25 -22.249950399999999 2.328119
v 7.25 -22.249950399999999 11.6405935
v 7.25 -22.249950399999999 20.9530697
v 7.25 -22.249950399999999 -34.921783400000002
v 7.25 -22.249950399999999 -30.265544899999998
v 7.25 -22.249950399999999 -25.6093063
v 7.25 -22.249950399999999 -20.9530697
v 7.25 -22.249950399999999 -16.296831099999999
v 7.25 -22.249950399999999 -11.6405935
v 7.25 -22.249950399999999 25.6093063
v 7.25 -22.249950399999999 -8.1484155999999999
v 7.25 -22.249950399999999 17.460891700000001
v 7.25 -22.249950399999999 29.101484299999999
v 7.25 -22.249950399999999 -3.492178
v 7.25 -22.249950399999999 36.085842100000001
v 7.25 -22.249950399999999 -31.4296036
v 7.25 -22.249950399999999 -17.460891700000001
v 7.25 -22.249950399999999 -12.804653200000001
v 7.25 -22.249950399999999 22.117128399999999
v 7.25 -22.249950399999999 26.773366899999999
v 7.25 -22.249950399999999 -5.8202968000000004
v 7.25 -22.249950399999999 15.1327724
v 7.25 -22.249950399999999 31.4296036
v 7.25 -22.249950399999999 -1.164059
v 7.25 -22.249950399999999 3.492178
v 7.25 -22.249950399999999 8.1484155999999999
v 7.25 -22.249950399999999 5.8202968000000004
v 7.25 -22.249950399999999 10.4765348
v 7.25 -22.249950399999999 12.804653200000001
v 7.25 -22.249950399999999 19.789009100000001
v 7.25 -22.249950399999999 -29.101484299999999
v 7.25 -22.249950399999999 -26.773366899999999
v 7.25 -22.249950399999999 -24.445247699999999
v 7.25 -22.249950399999999 -22.117128399999999
v 7.25 -22.249950399999999 -19.789009100000001
v 7.25 -22.249950399999999 -15.1327724
v 7.25 -22.249950399999999 -10.4765348
v 7.25 -22.249950399999999 24.445247699999999
v 7.25 -22.249950399999999 -36.085842100000001
v 7.25 -22.249950399999999 1.164059
v 7.25 -22.249950399999999 33.757724799999998
v 7.25 -22.249950399999999 -33.757724799999998
v 7.25 -22.249950399999999 6.9843558999999997
v 7.25 -22.249950399999999 -36.66787145
v 7.25 -22.249950399999999 36.66787145
v -5.75 -7.5000004999999996 22.249900799999999
v -5.75 -9.5368756999999995 22.249900799999999
v -5.75 -6.4815636000000003 22.249900799999999
v -5.75 -8.5184382999999997 22.249900799999999
v -5.75 -4.4446883000000001 22.249900799999999
v -5.75 -10.555313099999999 22.249900799999999
v -5.75 -5.4631257 22.249900799999999
v -5.75 -6.99078205 22.249900799999999
v -5.75 -3.9354694000000001 22.249900799999999
v -5.75 -4.9539070000000001 22.249900799999999
v -5.75 -8.0092193999999992 22.249900799999999
v -5.75 -11.064531799999999 22.249900799999999
v -5.75 -10.046094399999999 22.249900799999999
v -5.75 -5.9723446500000001 22.249900799999999
v -5.75 -9.0276569999999996 22.249900799999999
v 7.25 22.249950399999999 0
v 7.25 22.249950399999999 18.624950399999999
v 7.25 22.249950399999999 -18.624950399999999
v 7.25 22.249950399999999 27.937425600000001
v 7.25 22.249950399999999 -9.3124751999999997
v 7.25 22.249950399999999 -27.937425600000001
v 7.25 22.249950399999999 -4.6562381000000004
v 7.25 22.249950399999999 4.6562381000000004
v 7.25 22.249950399999999 32.593662299999998
v 7.25 22.249950399999999 23.2811871
v 7.25 22.249950399999999 13.9687128
v 7.25 22.249950399999999 -13.9687128
v 7.25 22.249950399999999 -23.2811871
v 7.25 22.249950399999999 -32.593662299999998
v 7.25 22.249950399999999 -34.921783400000002
v 7.25 22.249950399999999 -6.9843558999999997
v 7.25 22.249950399999999 -2.328119
v 7.25 22.249950399999999 2.328119
v 7.25 22.249950399999999 6.9843558999999997
v 7.25 22.249950399999999 34.921783400000002
v 7.25 22.249950399999999 30.265544899999998
v 7.25 22.249950399999999 25.6093063
v 7.25 22.249950399999999 20.9530697
v 7.25 22.249950399999999 16.296831099999999
v 7.25 22.249950399999999 11.6405935
v 7.25 22.249950399999999 -11.6405935
v 7.25 22.249950399999999 -16.296831099999999
v 7.25 22.249950399999999 -20.9530697
v 7.25 22.249950399999999 -25.6093063
v 7.25 22.249950399999999 -30.265544899999998
v 7.25 22.249950399999999 22.117128399999999
v 7.25 22.249950399999999 -31.4296036
v 7.25 22.249950399999999 -3.492178
v 7.25 22.249950399999999 -33.757724799999998
v 7.25 22.249950399999999 -5.8202968000000004
v 7.25 22.249950399999999 -8.1484155999999999
v 7.25 22.249950399999999 -1.164059
v 7.25 22.249950399999999 1.164059
v 7.25 22.249950399999999 3.492178
v 7.25 22.249950399999999 5.8202968000000004
v 7.25 22.249950399999999 8.1484155999999999
v 7.25 22.249950399999999 33.757724799999998
v 7.25 22.249950399999999 31.4296036
v 7.25 22.249950399999999 29.101484299999999
v 7.25 22.249950399999999 26.773366899999999
v 7.25 22.249950399999999 24.445247699999999
v 7.25 22.249950399999999 19.789009100000001
v 7.25 22.249950399999999 17.460891700000001
v 7.25 22.249950399999999 15.1327724
v 7.25 22.249950399999999 12.804653200000001
v 7.25 22.249950399999999 10.4765348
v 7.25 22.249950399999999 -10.4765348
v 7.25 22.249950399999999 -12.804653200000001
v 7.25 22.249950399999999 -17.460891700000001
v 7.25 22.249950399999999 -19.789009100000001
v 7.25 22.249950399999999 -24.445247699999999
v 7.25 22.249950399999999 -29.101484299999999
v 7.25 22.249950399999999 -15.1327724
v 7.25 22.249950399999999 36.085842100000001
v 7.25 22.249950399999999 -36.085842100000001
v 7.25 22.249950399999999 9.3124751999999997
v 7.25 22.249950399999999 -26.773366899999999
v 7.25 22.249950399999999 -22.117128399999999
v 7.25 22.249950399999999 -36.66787145
v 7.25 22.249950399999999 36.66787145
v -6.5 22.249950399999999 22.249900799999999
v -6.125 22.249950399999999 22.249900799999999
v -6.875 22.249950399999999 22.249900799999999
v -7.0625 22.249950399999999 22.249900799999999
v 0.75 -10.9237509 37.249900799999999
v 4 -10.5987501 37.249900799999999
v -2.5 -11.2487507 37.249900799999999
v 2.375 -10.761250499999999 37.249900799999999
v -0.875 -11.0862503 37.249900799999999
v -4.125 -11.4112501 37.249900799999999
v -4.9375 -11.4925003 37.249900799999999
v -1.6875 -11.167500499999999 37.249900799999999
v 1.5625 -10.8425007 37.249900799999999
v -3.3125 -11.3300009 37.249900799999999
v -0.0625 -11.0050001 37.249900799999999
v 4.8125 -10.5175009 37.249900799999999
v 6.4375 -10.355000499999999 37.249900799999999
v 3.1875 -10.6800003 37.249900799999999
v 5.625 -10.4362507 37.249900799999999
v 4.40625 -10.558125499999999 37.249900799999999
v -4.53125 -11.4518752 37.249900799999999
v 6.03125 -10.395625599999999 37.249900799999999
v 5.21875 -10.4768758 37.249900799999999
v 6.84375 -10.314375399999999 37.249900799999999
v 3.59375 -10.6393752 37.249900799999999
v -5.34375 -11.533125399999999 37.249900799999999
v 7.25 21.6190243 37.249900799999999
v 7.25 20.672637900000002 37.249900799999999
v 7.25 21.145831100000002 37.249900799999999
v 7.25 20.199443800000001 37.249900799999999
v 7.25 21.934487349999998 37.249900799999999
v -5.75 -22.249950399999999 29.749900799999999
v -5.75 -22.249950399999999 25.999900799999999
v -5.75 -22.249950399999999 33.499900799999999
v -5.75 -22.249950399999999 24.124900799999999
v -5.75 -22.249950399999999 27.874900799999999
v -5.75 -22.249950399999999 35.374900799999999
v -5.75 -22.249950399999999 31.624900799999999
v -5.75 -22.249950399999999 23.187400799999999
v -5.75 -22.249950399999999 25.062400799999999
v -5.75 -22.249950399999999 26.937400799999999
v -5.75 -22.249950399999999 36.312400799999999
v -5.75 -22.249950399999999 32.562400799999999
v -5.75 -22.249950399999999 34.437400799999999
v -5.75 -22.249950399999999 30.687400799999999
v -5.75 -22.249950399999999 28.812400799999999
v -5.75 -22.249950399999999 36.781150799999999
v -5.75 -22.249950399999999 29.281150799999999
v -5.75 -22.249950399999999 22.718650799999999
v -5.75 -22.249950399999999 27.406150799999999
v -5.75 -22.249950399999999 28.343650799999999
v -5.75 -22.249950399999999 30.218650799999999
v 4 4.4012494000000002 22.249900799999999
v -2.5 3.7512504999999998 22.249900799999999
v 5.625 4.5637492999999996 22.249900799999999
v -4.125 3.5887506 22.249900799999999
v -4.9375 3.5075004000000001 22.249900799999999
v -0.0625 3.9949998999999998 22.249900799999999
v 4.8125 4.4824995999999997 22.249900799999999
v -3.3125 3.6700005999999998 22.249900799999999
v 6.4375 4.6449994999999999 22.249900799999999
v 1.5625 4.1574992999999996 22.249900799999999
v 3.1875 4.3199997000000003 22.249900799999999
v -0.875 3.9137504000000001 22.249900799999999
v 0.75 4.0762495999999997 22.249900799999999
v -1.6875 3.8325005000000001 22.249900799999999
v 2.375 4.2387494999999999 22.249900799999999
v -2.09375 3.7918754999999997 22.249900799999999
v -3.71875 3.6293755999999999 22.249900799999999
v -2.90625 3.7106255499999996 22.249900799999999
v 6.84375 4.6856246000000006 22.249900799999999
v 6.03125 4.6043743999999993 22.249900799999999
v -5.34375 3.4668754499999999 22.249900799999999
v -4.53125 3.5481255000000003 22.249900799999999
v 7.046875 4.7059371500000005 22.249900799999999
v -5.75 -18.426210399999999 29.749900799999999
v -5.75 -18.426210399999999 25.999900799999999
v -5.75 -18.426210399999999 33.499900799999999
v -5.75 -18.426210399999999 24.124900799999999
v -5.75 -18.426210399999999 27.874900799999999
v -5.75 -18.426210399999999 31.624900799999999
v -5.75 -18.426210399999999 35.374900799999999
v -5.75 -18.426210399999999 23.187400799999999
v -5.75 -18.426210399999999 30.687400799999999
v -5.75 -18.426210399999999 36.312400799999999
v -5.75 -18.426210399999999 26.937400799999999
v -5.75 -18.426210399999999 34.437400799999999
v -5.75 -18.426210399999999 25.062400799999999
v -5.75 -18.426210399999999 28.812400799999999
v -5.75 -18.426210399999999 32.562400799999999
v -5.75 -18.426210399999999 22.718650799999999
v -5.75 -18.426210399999999 36.781150799999999
v -5.75 18.426250499999998 29.749900799999999
v -5.75 18.426250499999998 33.499900799999999
v -5.75 18.426250499999998 25.999900799999999
v -5.75 18.426250499999998 35.374900799999999
v -5.75 18.426250499999998 31.624900799999999
v -5.75 18.426250499999998 27.874900799999999
v -5.75 18.426250499999998 24.124900799999999
v -5.75 18.426250499999998 23.187400799999999
v -5.75 18.426250499999998 36.312400799999999
v -5.75 18.426250499999998 32.562400799999999
v -5.75 18.426250499999998 30.687400799999999
v -5.75 18.426250499999998 26.937400799999999
v -5.75 18.426250499999998 34.437400799999999
v -5.75 18.426250499999998 28.812400799999999
v -5.75 18.426250499999998 25.062400799999999
v -5.75 18.426250499999998 23.656150799999999
v -5.75 18.426250499999998 36.781150799999999
v -5.75 18.426250499999998 22.718650799999999
v -5.75 18.426250499999998 22.484275799999999
v -5.75 22.249950399999999 29.749900799999999
v -5.75 22.249950399999999 25.999900799999999
v -5.75 22.249950399999999 33.499900799999999
v -5.75 22.249950399999999 24.124900799999999
v -5.75 22.249950399999999 27.874900799999999
v -5.75 22.249950399999999 31.624900799999999
v -5.75 22.249950399999999 35.374900799999999
v -5.75 22.249950399999999 23.187400799999999
v -5.75 22.249950399999999 36.312400799999999
v -5.75 22.249950399999999 26.937400799999999
v -5.75 22.249950399999999 28.812400799999999
v -5.75 22.249950399999999 32.562400799999999
v -5.75 22.249950399999999 34.437400799999999
v -5.75 22.249950399999999 30.687400799999999
v -5.75 22.249950399999999 25.062400799999999
v -5.75 22.249950399999999 27.406150799999999
v -5.75 22.249950399999999 28.343650799999999
v -5.75 22.249950399999999 36.781150799999999
v -5.75 22.249950399999999 22.718650799999999
v -5.75 3.4262505000000001 29.749900799999999
v -5.75 3.4262505000000001 33.499900799999999
v -5.75 3.4262505000000001 25.999900799999999
v -5.75 3.4262505000000001 35.374900799999999
v -5.75 3.4262505000000001 31.624900799999999
v -5.75 3.4262505000000001 27.874900799999999
v -5.75 3.4262505000000001 24.124900799999999
v -5.75 3.4262505000000001 23.187400799999999
v -5.75 3.4262505000000001 36.312400799999999
v -5.75 3.4262505000000001 30.687400799999999
v -5.75 3.4262505000000001 34.437400799999999
v -5.75 3.4262505000000001 26.937400799999999
v -5.75 3.4262505000000001 32.562400799999999
v -5.75 3.4262505000000001 28.812400799999999
v -5.75 3.4262505000000001 25.062400799999999
v -5.75 3.4262505000000001 36.781150799999999
v -5.75 3.4262505000000001 22.718650799999999
v -5.75 -3.4262505000000001 29.749900799999999
v -5.75 -3.4262505000000001 25.999900799999999
v -5.75 -3.4262505000000001 33.499900799999999
v -5.75 -3.4262505000000001 24.124900799999999
v -5.75 -3.4262505000000001 27.874900799999999
v -5.75 -3.4262505000000001 31.624900799999999
v -5.75 -3.4262505000000001 35.374900799999999
v -5.75 -3.4262505000000001 36.312400799999999
v -5.75 -3.4262505000000001 25.062400799999999
v -5.75 -3.4262505000000001 26.937400799999999
v -5.75 -3.4262505000000001 28.812400799999999
v -5.75 -3.4262505000000001 32.562400799999999
v -5.75 -3.4262505000000001 30.687400799999999
v -5.75 -3.4262505000000001 34.437400799999999
v -5.75 -3.4262505000000001 23.187400799999999
v -5.75 -3.4262505000000001 36.781150799999999
v -5.75 -3.4262505000000001 22.718650799999999
v -5.75 -3.4262505000000001 22.484275799999999
v 7.25 10.2737503 29.749900799999999
v 7.25 10.2737503 33.499900799999999
v 7.25 10.2737503 25.999900799999999
v 7.25 10.2737503 35.374900799999999
v 7.25 10.2737503 31.624900799999999
v 7.25 10.2737503 27.874900799999999
v 7.25 10.2737503 24.124900799999999
v 7.25 10.2737503 23.187400799999999
v 7.25 10.2737503 34.437400799999999
v 7.25 10.2737503 36.312400799999999
v 7.25 10.2737503 30.687400799999999
v 7.25 10.2737503 28.812400799999999
v 7.25 10.2737503 32.562400799999999
v 7.25 10.2737503 25.062400799999999
v 7.25 10.2737503 26.937400799999999
v 7.25 10.2737503 36.781150799999999
v 7.25 10.2737503 22.718650799999999
v 7.25 10.2737503 22.484275799999999
v 7.25 19.7262497 29.749900799999999
v 7.25 19.7262497 25.999900799999999
v 7.25 19.7262497 33.499900799999999
v 7.25 19.7262497 31.624900799999999
v 7.25 19.7262497 27.874900799999999
v 7.25 19.7262497 24.124900799999999
v 7.25 19.7262497 35.374900799999999
v 7.25 19.7262497 25.062400799999999
v 7.25 19.7262497 26.937400799999999
v 7.25 19.7262497 32.562400799999999
v 7.25 19.7262497 34.437400799999999
v 7.25 19.7262497 36.312400799999999
v 7.25 19.7262497 23.187400799999999
v 7.25 19.7262497 30.687400799999999
v 7.25 19.7262497 28.812400799999999
v 7.25 19.7262497 22.718650799999999
v 7.25 19.7262497 36.781150799999999
v 7.25 19.7262497 23.656150799999999
v 7.25 -4.7262497000000003 29.749900799999999
v 7.25 -4.7262497000000003 33.499900799999999
v 7.25 -4.7262497000000003 25.999900799999999
v 7.25 -4.7262497000000003 35.374900799999999
v 7.25 -4.7262497000000003 31.624900799999999
v 7.25 -4.7262497000000003 27.874900799999999
v 7.25 -4.7262497000000003 24.124900799999999
v 7.25 -4.7262497000000003 23.187400799999999
v 7.25 -4.7262497000000003 36.312400799999999
v 7.25 -4.7262497000000003 34.437400799999999
v 7.25 -4.7262497000000003 32.562400799999999
v 7.25 -4.7262497000000003 30.687400799999999
v 7.25 -4.7262497000000003 28.812400799999999
v 7.25 -4.7262497000000003 26.937400799999999
v 7.25 -4.7262497000000003 25.062400799999999
v 7.25 -4.7262497000000003 36.781150799999999
v 7.25 -4.7262497000000003 22.718650799999999
v 7.25 -4.7262497000000003 28.343650799999999
v 7.25 -4.7262497000000003 27.406150799999999
v 7.25 -4.7262497000000003 22.484275799999999
v 7.25 4.7262497000000003 29.749900799999999
v 7.25 4.7262497000000003 25.999900799999999
v 7.25 4.7262497000000003 33.499900799999999
v 7.25 4.7262497000000003 24.124900799999999
v 7.25 4.7262497000000003 27.874900799999999
v 7.25 4.7262497000000003 31.624900799999999
v 7.25 4.7262497000000003 35.374900799999999
v 7.25 4.7262497000000003 36.312400799999999
v 7.25 4.7262497000000003 25.062400799999999
v 7.25 4.7262497000000003 26.937400799999999
v 7.25 4.7262497000000003 23.187400799999999
v 7.25 4.7262497000000003 34.437400799999999
v 7.25 4.7262497000000003 30.687400799999999
v 7.25 4.7262497000000003 28.812400799999999
v 7.25 4.7262497000000003 32.562400799999999
v 7.25 4.7262497000000003 22.718650799999999
v 7.25 4.7262497000000003 35.843650799999999
v 7.25 4.7262497000000003 36.781150799999999
v 7.25 4.7262497000000003 34.906150799999999
v 7.25 4.7262497000000003 37.015525799999999
v -5.75 11.5737495 29.749900799999999
v -5.75 11.5737495 25.999900799999999
v -5.75 11.5737495 33.499900799999999
v -5.75 11.5737495 24.124900799999999
v -5.75 11.5737495 27.874900799999999
v -5.75 11.5737495 31.624900799999999
v -5.75 11.5737495 35.374900799999999
v -5.75 11.5737495 32.562400799999999
v -5.75 11.5737495 36.312400799999999
v -5.75 11.5737495 25.062400799999999
v -5.75 11.5737495 30.687400799999999
v -5.75 11.5737495 23.187400799999999
v -5.75 11.5737495 26.937400799999999
v -5.75 11.5737495 34.437400799999999
v -5.75 11.5737495 28.812400799999999
v -5.75 11.5737495 22.718650799999999
v -5.75 11.5737495 36.781150799999999
v -5.75 11.5737495 37.015525799999999
v 0.75 19.076250099999999 37.249900799999999
v -2.5 18.751251199999999 37.249900799999999
v 4 19.401248899999999 37.249900799999999
v 5.625 19.563749300000001 37.249900799999999
v -4.125 18.5887508 37.249900799999999
v -0.875 18.9137497 37.249900799999999
v 2.375 19.238748600000001 37.249900799999999
v 6.4375 19.644998600000001 37.249900799999999
v -4.9375 18.5074997 37.249900799999999
v 3.1875 19.3199997 37.249900799999999
v 1.5625 19.157499300000001 37.249900799999999
v 4.8125 19.482500099999999 37.249900799999999
v -0.0625 18.9950008 37.249900799999999
v -3.3125 18.670000099999999 37.249900799999999
v -1.6875 18.832500499999998 37.249900799999999
v -3.71875 18.629375449999998 37.249900799999999
v -1.28125 18.873125099999999 37.249900799999999
v -4.53125 18.548125249999998 37.249900799999999
v 6.84375 19.685624150000002 37.249900799999999
v -5.34375 18.466875099999999 37.249900799999999
v -0.46875 18.954375249999998 37.249900799999999
v -7.25 22.249950399999999 -7.5
v -7.25 22.249950399999999 -22.374950399999999
v -7.25 22.249950399999999 7.3749498999999998
v -7.25 22.249950399999999 -14.9374752
v -7.25 22.249950399999999 -0.062524999999999997
v -7.25 22.249950399999999 14.812425599999999
v -7.25 22.249950399999999 -18.6562138
v -7.25 22.249950399999999 3.6562130000000002
v -7.25 22.249950399999999 18.531162299999998
v -7.25 22.249950399999999 -33.531162299999998
v -7.25 22.249950399999999 -26.0936871
v -7.25 22.249950399999999 -11.218737600000001
v -7.25 22.249950399999999 -3.7812619000000001
v -7.25 22.249950399999999 11.093688
v -7.25 22.249950399999999 5.5155820999999996
v -7.25 22.249950399999999 20.390531500000002
v -7.25 22.249950399999999 -35.390533400000002
v -7.25 22.249950399999999 -27.9530563
v -7.25 22.249950399999999 -9.3593692999999991
v -7.25 22.249950399999999 9.2343186999999993
v -7.25 22.249950399999999 -16.796844499999999
v -7.25 22.249950399999999 1.7968440000000001
v -7.25 22.249950399999999 16.671794899999998
v -7.25 22.249950399999999 -20.515581099999999
v -7.25 22.249950399999999 -31.671794899999998
v -7.25 22.249950399999999 -24.2343197
v -7.25 22.249950399999999 -13.078105900000001
v -7.25 22.249950399999999 -5.6406311999999996
v -7.25 22.249950399999999 -1.921894
v -7.25 22.249950399999999 12.953057299999999
v -7.25 22.249950399999999 -15.8671598
v -7.25 22.249950399999999 -14.0077906
v -7.25 22.249950399999999 -10.289053900000001
v -7.25 22.249950399999999 -6.5703154000000001
v -7.25 22.249950399999999 -4.7109465999999998
v -7.25 22.249950399999999 2.7265283999999999
v -7.25 22.249950399999999 4.5858974000000003
v -7.25 22.249950399999999 12.023372699999999
v -7.25 22.249950399999999 13.882741899999999
v -7.25 22.249950399999999 15.7421103
v -7.25 22.249950399999999 21.320217100000001
v -7.25 22.249950399999999 8.3046340999999995
v -7.25 22.249950399999999 -28.882741899999999
v -7.25 22.249950399999999 -36.320217100000001
v -7.25 22.249950399999999 -17.726528200000001
v -7.25 22.249950399999999 -0.99220949999999997
v -7.25 22.249950399999999 10.1640034
v -7.25 22.249950399999999 19.460847900000001
v -7.25 22.249950399999999 -21.445266700000001
v -7.25 22.249950399999999 -32.6014786
v -7.25 22.249950399999999 6.4452657999999996
v -7.25 22.249950399999999 17.6014786
v -7.25 22.249950399999999 -12.148422200000001
v -7.25 22.249950399999999 -2.8515779999999999
v -7.25 22.249950399999999 -25.164003399999999
v -7.25 22.249950399999999 0.86715949999999997
v -7.25 22.249950399999999 -30.7421112
v -7.25 22.249950399999999 -34.460845900000002
v -7.25 22.249950399999999 -27.023372699999999
v -7.25 22.249950399999999 -29.812425600000001
v -7.25 22.249950399999999 -19.5858974
v -7.25 22.249950399999999 -8.4296845999999999
v -7.25 22.249950399999999 -23.304634100000001
v -7.25 22.249950399999999 21.78505895
v -7.25 22.249950399999999 -36.78505895
v -7.25 22.249950399999999 -35.855375250000002
v -7.25 22.249950399999999 -11.683579900000002
v -7.25 22.249950399999999 -10.753895750000002
v -7.25 -22.249950399999999 -7.5
v -7.25 -22.249950399999999 -0.062524999999999997
v -7.25 -22.249950399999999 -14.9374752
v -7.25 -22.249950399999999 -29.812425600000001
v -7.25 -22.249950399999999 18.531162299999998
v -7.25 -22.249950399999999 11.093688
v -7.25 -22.249950399999999 3.6562130000000002
v -7.25 -22.249950399999999 -3.7812619000000001
v -7.25 -22.249950399999999 -11.218737600000001
v -7.25 -22.249950399999999 -26.0936871
v -7.25 -22.249950399999999 -33.531162299999998
v -7.25 -22.249950399999999 5.5155820999999996
v -7.25 -22.249950399999999 -24.2343197
v -7.25 -22.249950399999999 -31.671794899999998
v -7.25 -22.249950399999999 12.953057299999999
v -7.25 -22.249950399999999 20.390531500000002
v -7.25 -22.249950399999999 16.671794899999998
v -7.25 -22.249950399999999 9.2343186999999993
v -7.25 -22.249950399999999 1.7968440000000001
v -7.25 -22.249950399999999 -1.921894
v -7.25 -22.249950399999999 -9.3593692999999991
v -7.25 -22.249950399999999 -13.078105900000001
v -7.25 -22.249950399999999 -16.796844499999999
v -7.25 -22.249950399999999 -20.515581099999999
v -7.25 -22.249950399999999 -27.9530563
v -7.25 -22.249950399999999 -35.390533400000002
v -7.25 -22.249950399999999 -17.726528200000001
v -7.25 -22.249950399999999 -19.5858974
v -7.25 -22.249950399999999 -14.0077906
v -7.25 -22.249950399999999 21.320217100000001
v -7.25 -22.249950399999999 8.3046340999999995
v -7.25 -22.249950399999999 4.5858974000000003
v -7.25 -22.249950399999999 2.7265283999999999
v -7.25 -22.249950399999999 0.86715949999999997
v -7.25 -22.249950399999999 -0.99220949999999997
v -7.25 -22.249950399999999 -15.8671598
v -7.25 -22.249950399999999 -25.164003399999999
v -7.25 -22.249950399999999 -28.882741899999999
v -7.25 -22.249950399999999 -4.7109465999999998
v -7.25 -22.249950399999999 -30.7421112
v -7.25 -22.249950399999999 -8.4296845999999999
v -7.25 -22.249950399999999 -10.289053900000001
v -7.25 -22.249950399999999 10.1640034
v -7.25 -22.249950399999999 -27.023372699999999
v -7.25 -22.249950399999999 -21.445266700000001
v -7.25 -22.249950399999999 -23.304634100000001
v -7.25 -22.249950399999999 -32.6014786
v -7.25 -22.249950399999999 -12.148422200000001
v -7.25 -22.249950399999999 -2.8515779999999999
v -7.25 -22.249950399999999 -6.5703154000000001
v -7.25 -22.249950399999999 13.882741899999999
v -7.25 -22.249950399999999 6.4452657999999996
v -7.25 -22.249950399999999 -34.460845900000002
v -7.25 -22.249950399999999 14.812425599999999
v -7.25 -22.249950399999999 7.3749498999999998
v -7.25 -22.249950399999999 -36.320217100000001
v -7.25 -22.249950399999999 17.6014786
v -7.25 -22.249950399999999 12.023372699999999
v -7.25 -22.249950399999999 19.460847900000001
v -7.25 -22.249950399999999 -5.6406311999999996
v -7.25 -22.249950399999999 15.7421103
v -7.25 -22.249950399999999 -18.6562138
v -7.25 -22.249950399999999 -22.374950399999999
v -7.25 -22.249950399999999 -23.769476900000001
v -7.25 -22.249950399999999 -4.2461042500000001
v -7.25 -22.249950399999999 -5.1757888999999997
v -7.25 -22.249950399999999 -36.78505895
v -7.25 -22.249950399999999 -18.191371
v -7.25 -22.249950399999999 -17.261686349999998
v -7.25 -22.249950399999999 21.78505895
v -7.25 -22.249950399999999 -22.839792250000002
v -7.25 -22.249950399999999 -37.017479874999999
v 0.75 10.9237509 22.249900799999999
v -2.5 11.248749699999999 22.249900799999999
v 4 10.5987501 22.249900799999999
v -4.125 11.4112492 22.249900799999999
v -0.875 11.0862494 22.249900799999999
v 2.375 10.761250499999999 22.249900799999999
v 5.625 10.4362507 22.249900799999999
v -1.6875 11.1674995 22.249900799999999
v -4.9375 11.4924994 22.249900799999999
v 1.5625 10.8425007 22.249900799999999
v 3.1875 10.6800003 22.249900799999999
v -3.3125 11.329999900000001 22.249900799999999
v -0.0625 11.0050001 22.249900799999999
v 4.8125 10.5175009 22.249900799999999
v 6.4375 10.355000499999999 22.249900799999999
v -2.90625 11.289374800000001 22.249900799999999
v 6.03125 10.395625599999999 22.249900799999999
v -2.09375 11.2081246 22.249900799999999
v -3.71875 11.37062455 22.249900799999999
v 6.84375 10.314375399999999 22.249900799999999
v -0.46875 11.04562475 22.249900799999999
v -1.28125 11.126874449999999 22.249900799999999
v -5.34375 11.533124449999999 22.249900799999999
v -4.53125 11.4518743 22.249900799999999
v 0.75 19.076250099999999 22.249900799999999
v 4 19.401248899999999 22.249900799999999
v -2.5 18.751251199999999 22.249900799999999
v 5.625 19.563749300000001 22.249900799999999
v -0.875 18.9137497 22.249900799999999
v -4.125 18.5887508 22.249900799999999
v 3.1875 19.3199997 22.249900799999999
v 6.4375 19.644998600000001 22.249900799999999
v -4.9375 18.5074997 22.249900799999999
v 1.5625 19.157499300000001 22.249900799999999
v -1.6875 18.832500499999998 22.249900799999999
v -3.3125 18.670000099999999 22.249900799999999
v 4.8125 19.482500099999999 22.249900799999999
v 2.375 19.238748600000001 22.249900799999999
v -0.0625 18.9950008 22.249900799999999
v 1.15625 19.1168747 22.249900799999999
v -5.34375 18.466875099999999 22.249900799999999
v 6.03125 19.604373950000003 22.249900799999999
v 4.40625 19.441874499999997 22.249900799999999
v 1.96875 19.198123950000003 22.249900799999999
v -4.53125 18.548125249999998 22.249900799999999
v 5.21875 19.5231247 22.249900799999999
v 6.84375 19.685624150000002 22.249900799999999
v 0.75 4.0762495999999997 37.249900799999999
v -2.5 3.7512504999999998 37.249900799999999
v 4 4.4012494000000002 37.249900799999999
v -4.125 3.5887506 37.249900799999999
v -0.875 3.9137504000000001 37.249900799999999
v 2.375 4.2387494999999999 37.249900799999999
v -4.9375 3.5075004000000001 37.249900799999999
v 3.1875 4.3199997000000003 37.249900799999999
v -3.3125 3.6700005999999998 37.249900799999999
v -0.0625 3.9949998999999998 37.249900799999999
v -1.6875 3.8325005000000001 37.249900799999999
v 4.8125 4.4824995999999997 37.249900799999999
v 1.5625 4.1574992999999996 37.249900799999999
v 5.7265625 4.5739055000000004 37.249900799999999
v 6.4882812000000003 4.6500778 37.249900799999999
v -5.34375 3.4668754499999999 37.249900799999999
v 3.59375 4.3606245500000007 37.249900799999999
v -4.53125 3.5481255000000003 37.249900799999999
v 4.40625 4.4418744999999999 37.249900799999999
v -1.28125 3.8731254499999999 37.249900799999999
v -2.09375 3.7918754999999997 37.249900799999999
v 2.78125 4.2793746000000006 37.249900799999999
v 6.1074218499999997 4.6119916500000002 37.249900799999999
v 6.8691405999999997 4.6881637500000002 37.249900799999999
v 0.75 -10.9237509 22.249900799999999
v 4 -10.5987501 22.249900799999999
v -2.5 -11.2487507 22.249900799999999
v 5.625 -10.4362507 22.249900799999999
v 2.375 -10.761250499999999 22.249900799999999
v -0.875 -11.0862503 22.249900799999999
v -4.125 -11.4112501 22.249900799999999
v 4.8125 -10.5175009 22.249900799999999
v -4.9375 -11.4925003 22.249900799999999
v 1.5625 -10.8425007 22.249900799999999
v -0.0625 -11.0050001 22.249900799999999
v 6.4375 -10.355000499999999 22.249900799999999
v 3.1875 -10.6800003 22.249900799999999
v -3.3125 -11.3300009 22.249900799999999
v -1.6875 -11.167500499999999 22.249900799999999
v 1.15625 -10.8831258 22.249900799999999
v 6.03125 -10.395625599999999 22.249900799999999
v -4.53125 -11.4518752 22.249900799999999
v 0.34375 -10.964375499999999 22.249900799999999
v 6.84375 -10.314375399999999 22.249900799999999
v -5.34375 -11.533125399999999 22.249900799999999
v 0.75 -4.0762505999999998 22.249900799999999
v -2.5 -3.7512504999999998 22.249900799999999
v 4 -4.4012494000000002 22.249900799999999
v -4.125 -3.5887506 22.249900799999999
v -0.875 -3.9137504000000001 22.249900799999999
v 2.375 -4.2387494999999999 22.249900799999999
v -3.3125 -3.6700005999999998 22.249900799999999
v 3.1875 -4.3199997000000003 22.249900799999999
v -0.0625 -3.9950006 22.249900799999999
v -4.9375 -3.5075004000000001 22.249900799999999
v 1.5625 -4.1574998000000001 22.249900799999999
v 4.8125 -4.4824995999999997 22.249900799999999
v -1.6875 -3.8325005000000001 22.249900799999999
v 6.640625 -4.6653117999999996 22.249900799999999
v 5.7265625 -4.5739055000000004 22.249900799999999
v -2.90625 -3.7106255499999996 22.249900799999999
v 4.40625 -4.4418744999999999 22.249900799999999
v -2.09375 -3.7918754999999997 22.249900799999999
v -4.53125 -3.5481255000000003 22.249900799999999
v -5.34375 -3.4668754499999999 22.249900799999999
v 5.26953125 -4.5282025499999996 22.249900799999999
v 6.9453125 -4.6957807499999999 22.249900799999999
v 6.18359375 -4.61960865 22.249900799999999
v 0.75 10.9237509 37.249900799999999
v -2.5 11.248749699999999 37.249900799999999
v 4 10.5987501 37.249900799999999
v -0.875 11.0862494 37.249900799999999
v 2.375 10.761250499999999 37.249900799999999
v 4.8125 10.5175009 37.249900799999999
v 3.1875 10.6800003 37.249900799999999
v 6.4375 10.355000499999999 37.249900799999999
v -0.0625 11.0050001 37.249900799999999
v 5.625 10.4362507 37.249900799999999
v 1.5625 10.8425007 37.249900799999999
v -1.6875 11.1674995 37.249900799999999
v -3.6171875 11.3604679 37.249900799999999
v -4.53125 11.4518738 37.249900799999999
v -5.140625 11.5128117 37.249900799999999
v 2.78125 10.720625399999999 37.249900799999999
v 6.03125 10.395625599999999 37.249900799999999
v 3.59375 10.6393752 37.249900799999999
v 6.84375 10.314375399999999 37.249900799999999
v -4.8359375 11.482342750000001 37.249900799999999
v -5.4453125 11.543280599999999 37.249900799999999
v -4.07421875 11.406170849999999 37.249900799999999
v 0.75 -19.076206200000001 22.249900799999999
v -2.5 -18.751207399999998 22.249900799999999
v 4 -19.401203200000001 22.249900799999999
v -4.125 -18.5887089 22.249900799999999
v -0.875 -18.913705799999999 22.249900799999999
v 5.625 -19.563701600000002 22.249900799999999
v -0.0625 -18.994955099999999 22.249900799999999
v 3.1875 -19.319953900000002 22.249900799999999
v 6.4375 -19.644950900000001 22.249900799999999
v -4.9375 -18.507459600000001 22.249900799999999
v -3.3125 -18.669958099999999 22.249900799999999
v 4.8125 -19.4824524 22.249900799999999
v -1.6875 -18.8324566 22.249900799999999
v 2.375 -19.2387047 22.249900799999999
v 1.5625 -19.1574554 22.249900799999999
v -5.34375 -18.466835 22.249900799999999
v 0.34375 -19.03558065 22.249900799999999
v -3.71875 -18.629333500000001 22.249900799999999
v 1.96875 -19.198080050000002 22.249900799999999
v 6.03125 -19.60432625 22.249900799999999
v -0.46875 -18.95433045 22.249900799999999
v 6.84375 -19.685575499999999 22.249900799999999
v -2.09375 -18.791831999999999 22.249900799999999
v 1.15625 -19.116830800000002 22.249900799999999
v -2.90625 -18.71058275 22.249900799999999
v -7.25 0.34765570000000001 22.249900799999999
v -7.25 -11.1249752 22.249900799999999
v -7.25 11.1249752 22.249900799999999
v -7.25 -9.0390425000000008 22.249900799999999
v -7.25 16.687461899999999 22.249900799999999
v -7.25 -7.9960760999999998 22.249900799999999
v -7.25 -13.906219500000001 22.249900799999999
v -7.25 -2.7812435999999998 22.249900799999999
v -7.25 19.816360499999998 22.249900799999999
v -7.25 8.3437318999999999 22.249900799999999
v -7.25 1.3906215 22.249900799999999
v -7.25 12.5155973 22.249900799999999
v -7.25 -18.0780849 22.249900799999999
v -7.25 -15.644496 22.249900799999999
v -7.25 -12.167942 22.249900799999999
v -7.25 -6.9531093000000004 22.249900799999999
v -7.25 -4.1718655 22.249900799999999
v -7.25 -1.3906215 22.249900799999999
v -7.25 20.859329200000001 22.249900799999999
v -7.25 15.644496 22.249900799999999
v -7.25 10.082008399999999 22.249900799999999
v -7.25 7.3007650000000002 22.249900799999999
v -7.25 4.1718655 22.249900799999999
v -7.25 21.5546398 22.249900799999999
v -7.25 2.4335879999999999 22.249900799999999
v -7.25 18.773395499999999 22.249900799999999
v -7.25 -0.69531050000000005 22.249900799999999
v -7.25 -13.2109089 22.249900799999999
v -7.25 -2.0859325000000002 22.249900799999999
v -7.25 17.730430599999998 22.249900799999999
v -7.25 -17.382774399999999 22.249900799999999
v -7.25 -10.082008399999999 22.249900799999999
v -7.25 -5.9101429000000003 22.249900799999999
v -7.25 -4.8671765000000002 22.249900799999999
v -7.25 3.4765543999999999 22.249900799999999
v -7.25 5.2148323000000003 22.249900799999999
v -7.25 9.0390425000000008 22.249900799999999
v -7.25 -19.816360499999998 22.249900799999999
v -7.25 -18.773395499999999 22.249900799999999
v -7.25 -3.4765543999999999 22.249900799999999
v -7.25 -14.6015301 22.249900799999999
v -7.25 14.6015301 22.249900799999999
v -7.25 -20.859329200000001 22.249900799999999
v -7.25 -21.5546398 22.249900799999999
v -7.25 6.2577987000000004 22.249900799999999
v -7.25 11.8202868 22.249900799999999
v -7.25 13.558564199999999 22.249900799999999
v -7.25 -16.687461899999999 22.249900799999999
v -7.25 7.82224845 22.249900799999999
v -7.25 21.206984500000001 22.249900799999999
v -7.25 -10.6034918 22.249900799999999
v -7.25 9.5605254500000001 22.249900799999999
v -7.25 -20.33784485 22.249900799999999
v -7.25 -3.8242099500000002 22.249900799999999
v -7.25 8.6913872000000012 22.249900799999999
v -7.25 19.294877999999997 22.249900799999999
v -7.25 -4.5195210000000001 22.249900799999999
v -7.25 -9.5605254500000001 22.249900799999999
v -7.25 11.472631 22.249900799999999
v -7.25 -21.9022951 22.249900799999999
v -7.25 21.9022951 22.249900799999999
v -7.25 -1.0429660000000001 22.249900799999999
v -7.25 18.251913049999999 22.249900799999999
v -7.25 -17.730429649999998 22.249900799999999
v -7.25 20.33784485 22.249900799999999
v -7.25 -8.5175593000000003 22.249900799999999
v -7.25 -7.4745927000000005 22.249900799999999
v -7.25 3.8242099500000002 22.249900799999999
v -7.25 -18.4257402 22.249900799999999
v -7.25 -6.4316261000000008 22.249900799999999
v -7.25 -5.3886596999999998 22.249900799999999
v -7.25 4.6933489000000002 22.249900799999999
v -7.25 2.9550711999999999 22.249900799999999
v -7.25 5.7363154999999999 22.249900799999999
v -7.25 -19.294877999999997 22.249900799999999
v -7.25 -21.206984500000001 22.249900799999999
v -7.25 -11.646458599999999 22.249900799999999
v -7.25 12.167942050000001 22.249900799999999
v -7.25 -0.17382740000000002 22.249900799999999
v -7.25 6.7792818500000003 22.249900799999999
v -7.25 -3.1288989999999997 22.249900799999999
v -7.25 -17.035118149999999 22.249900799999999
v -7.25 10.6034918 22.249900799999999
v -7.25 -12.68942545 22.249900799999999
v 0 22.249950399999999 -37.249900799999999
v -3.625 22.249950399999999 -37.249900799999999
v 3.625 22.249950399999999 -37.249900799999999
v -5.4375 22.249950399999999 -37.249900799999999
v 1.8125 22.249950399999999 -37.249900799999999
v 5.4375 22.249950399999999 -37.249900799999999
v 2.71875 22.249950399999999 -37.249900799999999
v -0.90625 22.249950399999999 -37.249900799999999
v 0.90625 22.249950399999999 -37.249900799999999
v -2.71875 22.249950399999999 -37.249900799999999
v 4.53125 22.249950399999999 -37.249900799999999
v -6.34375 22.249950399999999 -37.249900799999999
v -4.53125 22.249950399999999 -37.249900799999999
v 6.34375 22.249950399999999 -37.249900799999999
v -1.8125 22.249950399999999 -37.249900799999999
v 6.796875 22.249950399999999 -37.249900799999999
v -6.796875 22.249950399999999 -37.249900799999999
v -7.25 4.9999999999999998e-07 -37.249900799999999
v -7.25 -11.4726315 -37.249900799999999
v -7.25 -5.9101429000000003 -37.249900799999999
v -7.25 19.1210518 -37.249900799999999
v -7.25 13.906219500000001 -37.249900799999999
v -7.25 2.7812435999999998 -37.249900799999999
v -7.25 -8.6913871999999994 -37.249900799999999
v -7.25 -19.816360499999998 -37.249900799999999
v -7.25 -6.9531093000000004 -37.249900799999999
v -7.25 -12.5155973 -37.249900799999999
v -7.25 18.0780849 -37.249900799999999
v -7.25 12.863252599999999 -37.249900799999999
v -7.25 1.0429662 -37.249900799999999
v -7.25 -4.1718655 -37.249900799999999
v -7.25 -9.7343530999999999 -37.249900799999999
v -7.25 -15.296840700000001 -37.249900799999999
v -7.25 -20.859329200000001 -37.249900799999999
v -7.25 2.0859325000000002 -37.249900799999999
v -7.25 15.9921513 -37.249900799999999
v -7.25 -0.69531050000000005 -37.249900799999999
v -7.25 20.164016700000001 -37.249900799999999
v -7.25 -7.6484202999999997 -37.249900799999999
v -7.25 9.0390425000000008 -37.249900799999999
v -7.25 17.035118099999998 -37.249900799999999
v -7.25 10.082008399999999 -37.249900799999999
v -7.25 -10.429664600000001 -37.249900799999999
v -7.25 11.8202868 -37.249900799999999
v -7.25 5.9101429000000003 -37.249900799999999
v -7.25 -17.382774399999999 -37.249900799999999
v -7.25 -13.2109089 -37.249900799999999
v -7.25 -21.5546398 -37.249900799999999
v -7.25 -18.4257393 -37.249900799999999
v -7.25 -3.4765543999999999 -37.249900799999999
v -7.25 -14.2538748 -37.249900799999999
v -7.25 7.9960760999999998 -37.249900799999999
v -7.25 6.9531093000000004 -37.249900799999999
v -7.25 -1.3906215 -37.249900799999999
v -7.25 -2.4335879999999999 -37.249900799999999
v -7.25 -16.339805599999998 -37.249900799999999
v -7.25 4.8671765000000002 -37.249900799999999
v -7.25 3.8242099000000001 -37.249900799999999
v -7.25 14.949185399999999 -37.249900799999999
v -7.25 -4.8671765000000002 -37.249900799999999
v -7.25 11.1249752 -37.249900799999999
v -7.25 -19.121049899999999 -37.249900799999999
v -7.25 21.206985499999998 -37.249900799999999
v -7.25 -21.9022951 -37.249900799999999
v -7.25 -3.8242099500000002 -37.249900799999999
v -7.25 11.472631 -37.249900799999999
v -7.25 -1.0429660000000001 -37.249900799999999
v -7.25 -21.206984500000001 -37.249900799999999
v -7.25 -4.5195210000000001 -37.249900799999999
v -7.25 -1.9121047499999999 -37.249900799999999
v -7.25 -0.34765500000000005 -37.249900799999999
v -7.25 12.3417697 -37.249900799999999
v -7.25 21.728467949999999 -37.249900799999999
v 7.25 -8.1934375999999993 37.249900799999999
v 7.25 -7.1532806999999998 37.249900799999999
v 7.25 -5.4196868 37.249900799999999
v 7.25 -9.5803127000000003 37.249900799999999
v 7.25 -6.1131244000000002 37.249900799999999
v 7.25 -8.8868752000000004 37.249900799999999
v 7.25 -5.7664056000000006 37.249900799999999
v 7.25 -5.0729682500000006 37.249900799999999
v 7.25 -9.9270315 37.249900799999999
v 7.25 -8.5401564000000008 37.249900799999999
v 7.25 -9.2335939499999995 37.249900799999999
v 7.25 -6.63320255 37.249900799999999
v 0 -22.249950399999999 -37.249900799999999
v 3.625 -22.249950399999999 -37.249900799999999
v -3.625 -22.249950399999999 -37.249900799999999
v 5.4375 -22.249950399999999 -37.249900799999999
v 1.8125 -22.249950399999999 -37.249900799999999
v -1.8125 -22.249950399999999 -37.249900799999999
v -5.4375 -22.249950399999999 -37.249900799999999
v 4.53125 -22.249950399999999 -37.249900799999999
v 6.34375 -22.249950399999999 -37.249900799999999
v 2.71875 -22.249950399999999 -37.249900799999999
v -0.90625 -22.249950399999999 -37.249900799999999
v -4.53125 -22.249950399999999 -37.249900799999999
v -6.34375 -22.249950399999999 -37.249900799999999
v 0.90625 -22.249950399999999 -37.249900799999999
v -2.71875 -22.249950399999999 -37.249900799999999
v 5.890625 -22.249950399999999 -37.249900799999999
v -6.796875 -22.249950399999999 -37.249900799999999
v 0.453125 -22.249950399999999 -37.249900799999999
v 1.359375 -22.249950399999999 -37.249900799999999
v 6.796875 -22.249950399999999 -37.249900799999999
v 7.0234375 -22.249950399999999 -37.249900799999999
v 4 -19.401203200000001 37.249900799999999
v -2.5 -18.751207399999998 37.249900799999999
v 5.625 -19.563701600000002 37.249900799999999
v 2.375 -19.2387047 37.249900799999999
v -0.875 -18.913705799999999 37.249900799999999
v -4.125 -18.5887089 37.249900799999999
v -3.3125 -18.669958099999999 37.249900799999999
v 1.5625 -19.1574554 37.249900799999999
v 3.1875 -19.319953900000002 37.249900799999999
v -0.0625 -18.994955099999999 37.249900799999999
v -1.6875 -18.8324566 37.249900799999999
v 4.8125 -19.4824524 37.249900799999999
v 6.4375 -19.644950900000001 37.249900799999999
v 0.75 -19.076206200000001 37.249900799999999
v -4.9375 -18.507459600000001 37.249900799999999
v 2.78125 -19.279329300000001 37.249900799999999
v -2.09375 -18.791831999999999 37.249900799999999
v 6.84375 -19.685575499999999 37.249900799999999
v -1.28125 -18.873081200000001 37.249900799999999
v 3.59375 -19.36057855 37.249900799999999
v -3.71875 -18.629333500000001 37.249900799999999
v -4.53125 -18.548084250000002 37.249900799999999
v -5.34375 -18.466835 37.249900799999999
v 7.25 -21.6190128 37.249900799999999
v 7.25 -20.988075299999998 37.249900799999999
v 7.25 -20.357137699999999 37.249900799999999
v 7.25 -21.934481599999998 37.249900799999999
v 7.25 -21.303544049999999 37.249900799999999
v 7.25 -20.672606500000001 37.249900799999999
v 7.25 -20.041668899999998 37.249900799999999
v 7.25 7.5000004999999996 37.249900799999999
v 7.25 6.4598436000000001 37.249900799999999
v 7.25 9.2335939000000007 37.249900799999999
v 7.25 8.1934375999999993 37.249900799999999
v 7.25 5.5930467000000004 37.249900799999999
v 7.25 9.7536720999999993 37.249900799999999
v 7.25 5.1596482000000004 37.249900799999999
v 7.25 11.1249752 -37.249900799999999
v 7.25 -5.5624875999999999 -37.249900799999999
v 7.25 16.339805599999998 -37.249900799999999
v 7.25 -14.2538748 -37.249900799999999
v 7.25 2.7812435999999998 -37.249900799999999
v 7.25 8.3437318999999999 -37.249900799999999
v 7.25 -19.468706099999999 -37.249900799999999
v 7.25 -8.3437318999999999 -37.249900799999999
v 7.25 -2.7812435999999998 -37.249900799999999
v 7.25 -20.511672999999998 -37.249900799999999
v 7.25 6.9531093000000004 -37.249900799999999
v 7.25 18.0780849 -37.249900799999999
v 7.25 -12.5155973 -37.249900799999999
v 7.25 4.1718655 -37.249900799999999
v 7.25 9.3866978000000003 -37.249900799999999
v 7.25 -18.4257393 -37.249900799999999
v 7.25 15.296840700000001 -37.249900799999999
v 7.25 -1.7382770000000001 -37.249900799999999
v 7.25 5.9101429000000003 -37.249900799999999
v 7.25 20.164016700000001 -37.249900799999999
v 7.25 17.382774399999999 -37.249900799999999
v 7.25 -17.382774399999999 -37.249900799999999
v 7.25 -9.3866978000000003 -37.249900799999999
v 7.25 12.167942 -37.249900799999999
v 7.25 19.1210518 -37.249900799999999
v 7.25 -4.8671765000000002 -37.249900799999999
v 7.25 3.4765543999999999 -37.249900799999999
v 7.25 10.429664600000001 -37.249900799999999
v 7.25 -13.2109089 -37.249900799999999
v 7.25 -0.69531050000000005 -37.249900799999999
v 7.25 7.6484202999999997 -37.249900799999999
v 7.25 -16.339805599999998 -37.249900799999999
v 7.25 -11.4726315 -37.249900799999999
v 7.25 -3.8242099000000001 -37.249900799999999
v 7.25 0.69531100000000001 -37.249900799999999
v 7.25 14.6015301 -37.249900799999999
v 7.25 13.558564199999999 -37.249900799999999
v 7.25 4.9999999999999998e-07 -37.249900799999999
v 7.25 1.7382770000000001 -37.249900799999999
v 7.25 4.8671765000000002 -37.249900799999999
v 7.25 -15.296840700000001 -37.249900799999999
v 7.25 -10.429664600000001 -37.249900799999999
v 7.25 -21.5546398 -37.249900799999999
v 7.25 12.863252599999999 -37.249900799999999
v 7.25 -6.4750833999999999 -37.249900799999999
v 7.25 -7.5615066999999998 -37.249900799999999
v 7.25 21.206985499999998 -37.249900799999999
v 7.25 -11.994114400000001 -37.249900799999999
v 7.25 -6.0187854999999999 -37.249900799999999
v 7.25 -4.3456932000000004 -37.249900799999999
v 7.25 -12.8632531 -37.249900799999999
v 7.25 -5.2148320500000001 -37.249900799999999
v 7.25 -21.033156399999999 -37.249900799999999
v 7.25 -21.9022951 -37.249900799999999
v 7.25 21.728467949999999 -37.249900799999999
v 0.75 -22.249950399999999 37.249900799999999
v -2.5 -22.249950399999999 37.249900799999999
v 4 -22.249950399999999 37.249900799999999
v 2.375 -22.249950399999999 37.249900799999999
v -0.875 -22.249950399999999 37.249900799999999
v 1.5625 -22.249950399999999 37.249900799999999
v 3.1875 -22.249950399999999 37.249900799999999
v 6.4375 -22.249950399999999 37.249900799999999
v -3.3125 -22.249950399999999 37.249900799999999
v -1.6875 -22.249950399999999 37.249900799999999
v -0.0625 -22.249950399999999 37.249900799999999
v 4.9140625 -22.249950399999999 37.249900799999999
v 5.828125 -22.249950399999999 37.249900799999999
v -4.2265625 -22.249950399999999 37.249900799999999
v -4.9882812000000003 -22.249950399999999 37.249900799999999
v -1.28125 -22.249950399999999 37.249900799999999
v 6.84375 -22.249950399999999 37.249900799999999
v 6.1328125 -22.249950399999999 37.249900799999999
v -0.46875 -22.249950399999999 37.249900799999999
v 5.37109375 -22.249950399999999 37.249900799999999
v -4.6074218499999997 -22.249950399999999 37.249900799999999
v -5.3691405999999997 -22.249950399999999 37.249900799999999
v 7.046875 -22.249950399999999 37.249900799999999
v 7.25 -10.2737503 29.749900799999999
v 7.25 -10.2737503 25.999900799999999
v 7.25 -10.2737503 33.499900799999999
v 7.25 -10.2737503 24.124900799999999
v 7.25 -10.2737503 27.874900799999999
v 7.25 -10.2737503 35.374900799999999
v 7.25 -10.2737503 36.312400799999999
v 7.25 -10.2737503 25.062400799999999
v 7.25 -10.2737503 26.937400799999999
v 7.25 -10.2737503 28.812400799999999
v 7.25 -10.2737503 23.187400799999999
v 7.25 -10.2737503 32.562400799999999
v 7.25 -10.2737503 30.687400799999999
v 7.25 -10.2737503 34.437400799999999
v 7.25 -10.2737503 31.624900799999999
v 7.25 -10.2737503 22.718650799999999
v 7.25 -10.2737503 36.781150799999999
v 7.25 -10.2737503 24.593650799999999
v 7.25 -10.2737503 23.656150799999999
v 7.25 -10.2737503 35.843650799999999
v 7.25 -10.2737503 22.484275799999999
v 7.25 -10.2737503 37.015525799999999
v -5.75 -11.573750499999999 29.749900799999999
v -5.75 -11.573750499999999 33.499900799999999
v -5.75 -11.573750499999999 25.999900799999999
v -5.75 -11.573750499999999 35.374900799999999
v -5.75 -11.573750499999999 31.624900799999999
v -5.75 -11.573750499999999 27.874900799999999
v -5.75 -11.573750499999999 24.124900799999999
v -5.75 -11.573750499999999 23.187400799999999
v -5.75 -11.573750499999999 36.312400799999999
v -5.75 -11.573750499999999 30.687400799999999
v -5.75 -11.573750499999999 26.937400799999999
v -5.75 -11.573750499999999 34.437400799999999
v -5.75 -11.573750499999999 32.562400799999999
v -5.75 -11.573750499999999 28.812400799999999
v -5.75 -11.573750499999999 25.062400799999999
v -5.75 -11.573750499999999 31.156150799999999
v -5.75 -11.573750499999999 22.718650799999999
v -5.75 -11.573750499999999 30.218650799999999
v -5.75 -11.573750499999999 35.843650799999999
v -5.75 -11.573750499999999 32.093650799999999
v -5.75 -11.573750499999999 36.781150799999999
v -5.75 -11.573750499999999 37.015525799999999
v -5.75 -11.573750499999999 22.484275799999999
v 7.25 -19.7262001 29.749900799999999
v 7.25 -19.7262001 25.999900799999999
v 7.25 -19.7262001 33.499900799999999
v 7.25 -19.7262001 24.124900799999999
v 7.25 -19.7262001 31.624900799999999
v 7.25 -19.7262001 27.874900799999999
v 7.25 -19.7262001 35.374900799999999
v 7.25 -19.7262001 23.187400799999999
v 7.25 -19.7262001 36.312400799999999
v 7.25 -19.7262001 34.437400799999999
v 7.25 -19.7262001 30.687400799999999
v 7.25 -19.7262001 28.812400799999999
v 7.25 -19.7262001 26.937400799999999
v 7.25 -19.7262001 25.062400799999999
v 7.25 -19.7262001 32.562400799999999
v 7.25 -19.7262001 22.718650799999999
v 7.25 -19.7262001 36.781150799999999
v 7.25 -19.7262001 22.484275799999999
v 7.25 -19.7262001 37.015525799999999
v 7.25 12.950727499999999 22.249900799999999
v 7.25 17.843135799999999 22.249900799999999
v 7.25 11.159921600000001 22.249900799999999
v 7.25 14.1138277 22.249900799999999
v 7.25 15.969249700000001 22.249900799999999
v 7.25 14.999999000000001 22.249900799999999
v 7.25 18.840076400000001 22.249900799999999
v 7.25 12.2030201 22.249900799999999
v 7.25 17.067733799999999 22.249900799999999
v 7.25 10.71683595 22.249900799999999
v 7.25 19.283163049999999 22.249900799999999
v 7.25 13.5322776 22.249900799999999
v 7.25 11.68147085 22.249900799999999
v 7.25 19.504706374999998 22.249900799999999
v 7.25 10.495293125 22.249900799999999
v 7.25 -14.9999752 22.249900799999999
v 7.25 -17.067697500000001 22.249900799999999
v 7.25 -13.2276402 22.249900799999999
v 7.25 -11.159917800000001 22.249900799999999
v 7.25 -18.840034500000002 22.249900799999999
v 7.25 -14.113807700000001 22.249900799999999
v 7.25 -16.1815319 22.249900799999999
v 7.25 -12.341472599999999 22.249900799999999
v 7.25 -17.953865100000002 22.249900799999999
v 7.25 -15.590753599999999 22.249900799999999
v 7.25 -11.750695199999999 22.249900799999999
v 7.25 -18.396949800000002 22.249900799999999
v 7.25 -19.283117300000001 22.249900799999999
v 7.25 -15.886142749999999 22.249900799999999
v 7.25 -15.2953644 22.249900799999999
v 7.25 -12.7845564 22.249900799999999
v 7.25 -10.716834049999999 22.249900799999999
v 7.25 -11.455306499999999 22.249900799999999
v 7.25 -14.55689145 22.249900799999999
v 7.25 -12.046083899999999 22.249900799999999
v 7.25 -10.495292174999999 22.249900799999999
v 7.25 -19.5046587 22.249900799999999
v -6.5 -22.249950399999999 22.249900799999999
v -6.125 -22.249950399999999 22.249900799999999
v -6.875 -22.249950399999999 22.249900799999999
v -5.7354210209920691 -16.724318324225464 22.249900800000006
v -5.7582473635094242 -13.409797754691477 22.249900800000006
v -5.7508220786892181 -14.068973949933081 22.249900799999999
v -5.7355076190285708 -15.426057612252199 22.249900800000013
v -5.7333345691389681 -16.090461699399043 22.249900800000013
v -5.7420400696320231 -14.746187088410524 22.249900800000006
v -5.7575532268345615 -12.167884409876175 22.249949137686691
v -5.76091800128013 -12.776611329485259 22.249900799999999
v -5.7451636073222252 -17.88334936092474 22.249967124553596
v -5.7400162888348394 -17.320668995751415 22.249900799999999
v -5.75 -18.426210399999999 22.249900799999999
v -5.75 -11.573750499999999 22.249900799999999
v -5.75 18.426250499999998 22.249900799999999
v -5.699760617636775 17.050332290298051 22.249900799999999
v -5.6827802727056582 16.327965822090206 22.249900799999999
v -5.700221635239096 13.405033547164315 22.249900800000006
v -5.6745964355555945 15.583840528487002 22.249900800000006
v -5.6758738505265729 14.834043682225051 22.249900800000006
v -5.6853383357931797 14.100970759633377 22.249900800000013
v -5.7340796703410231 12.152228763549736 22.249929722766886
v -5.723219113520317 17.746836925388195 22.249904848858009
v -5.7172754006034339 12.75675286243278 22.249900799999999
v -5.75 11.5737495 22.249900799999999
v -5.75 -3.4262505000000001 22.249900799999999
v -5.75 3.4262505000000001 22.249900799999999
v -5.6850591873440885 0.6860359822248836 22.249900799999999
v -5.6641224207166303 -0.68514586407215305 22.249900800000013
v -5.672014781313937 -0.0084965916880717397 22.249900799999999
v -5.6640664984312714 -1.3269061588526903 22.249900800000006
v -5.7171593715737448 2.0728523336085196 22.249900800000006
v -5.7006944231544434 1.3830652134092136 22.249900800000013
v -5.6927610008381944 -2.4613782302544953 22.249900800000006
v -5.6736283709464894 -1.9204892293519 22.249900799999999
v -5.7193772640595109 -2.9569603023233375 22.249904370689595
v -5.7336432457812405 2.7527998412551886 22.249901044004549
v 7.25 4.7262497000000003 22.249900799999999
v 7.25 10.2737503 22.249900799999999
v 7.2500000000000018 7.9143326330024912 22.112037812965493
v 7.2500000000000018 5.5246131034702834 22.189810856522204
v 7.2500000000000018 8.7047669311802309 22.138236603471704
v 7.2500000000000027 9.490724901764203 22.187450568077885
v 7.2500000000000018 6.3227209270566949 22.141163399532694
v 7.25 7.1197943526289915 22.113334497749072
v 7.25 -10.2737503 22.249900799999999
v 7.25 -4.7262497000000003 22.249900799999999
v 7.2499998928166924 -7.1821815894462055 22.285585275847708
v 7.249999999954718 -8.7515285483825487 22.275877332160217
v 7.2499999999996714 -9.5160572639262639 22.263732227581752
v 7.2499312657368922 -5.5537441505244756 22.266614548443769
v 7.2499949892202071 -6.3742253156347477 22.279470861474795
v 7.249999997305844 -7.9746070361651329 22.283986241353947
v 7.25 19.7262497 22.249900799999999
v 7.25 22.249950399999999 23.2811871
v 7.2499481580605192 20.567875824208198 22.594320605478643
v 7.2499999122749106 21.409107161858074 22.938084313644527
v -2.128445389601763 22.249950399986403 21.682250302388987
v 5.5868342351269753 22.249950400000003 20.952982442358298
v 7.25 22.249950399999999 20.9530697
v 3.9333083688746013 22.249950399999996 21.010549940213995
v 1.4066125253988471 22.249950399999996 21.254717575950629
v 2.2611816682745758 22.249950400000003 21.156440623866544
v 0.53789417112903082 22.24995040000001 21.359795084404169
v -4.8399764859931373 22.249842335166608 22.089447160077967
v 3.1022252930719123 22.249950399999996 21.072921939492172
v -1.2327328570174538 22.249950399999953 21.572040073253092
v -3.9323823827169324 22.249947583543918 21.938533895656938
v -0.34297300174472811 22.249950400000003 21.465882053913241
v -3.0284654053645221 22.249950380299527 21.802820822849931
v 4.7598190884975287 22.249950399999996 20.971440619701596
v 6.4170570451033555 22.249950399999996 20.949279632417316
v -5.75 22.249950399999999 22.249900799999999
v 7.25 -19.7262001 22.249900799999999
v -1.9161033101754192 -22.249950399999996 22.362263716352402
v -0.26709309940962195 -22.24995040000001 22.388456857774123
v 5.5755387965490222 -22.249950399999996 22.315727736810601
v 2.2485146302319916 -22.249950399999996 22.433402239071967
v 7.25 -22.249950399999999 22.117128399999999
v 3.9117236793340551 -22.249950399999996 22.42087473224435
v -5.005978266747972 -22.249904513981299 22.285108019318109
v -3.4940992672574702 -22.249950390343535 22.336477103437105
v -4.2560323528655868 -22.249947588159102 22.314868592833175
v -2.7149870247880319 -22.249950399966679 22.351033577187437
v 1.4116766951039019 -22.249950399999996 22.421338630628817
v 3.0813249561128808 -22.249950399999996 22.435604734843157
v 4.7424072459407896 -22.249950399999996 22.382200181054635
v 6.4117449324512457 -22.249950400000003 22.224013350679005
v -1.0985903754648878 -22.249950399999996 22.374060921698003
v 7.2500000000000018 -20.355949807851918 22.211817526888545
v 0.57177746495370974 -22.24995040000001 22.405025559645196
v 7.25 -20.986330590665194 22.176663349836254
v 7.2500000000000018 -21.61773348682398 22.145522427498161
v -5.75 -22.249950399999999 22.249900799999999
v 7.25 -10.2737503 37.249900799999999
v -5.75 -3.4262505000000001 37.249900799999999
v -5.75 -11.573750499999999 37.249900799999999
v 7.25 -4.7262497000000003 37.249900799999999
v 7.25 -10.2737503 22.249900799999999
v 7.25 -4.7262497000000003 22.249900799999999
v 7.25 -22.249950399999999 -37.249900799999999
v 7.25 -19.7262001 22.249900799999999
v 7.25 -19.7262001 37.249900799999999
v 7.25 -22.249950399999999 37.249900799999999
v -5.75 -22.249950399999999 37.249900799999999
v -5.75 -18.426210399999999 37.249900799999999
v -5.75 -18.426210399999999 22.249900799999999
v -5.75 -3.4262505000000001 22.249900799999999
v 7.25 4.7262497000000003 22.249900799999999
v -5.75 3.4262505000000001 22.249900799999999
v -5.75 3.4262505000000001 37.249900799999999
v 7.25 4.7262497000000003 37.249900799999999
v 7.25 10.2737503 37.249900799999999
v 7.25 10.2737503 22.249900799999999
v 7.25 19.7262497 22.249900799999999
v 7.25 22.249950399999999 -37.249900799999999
v -7.25 22.249950399999999 -37.249900799999999
v -7.25 -22.249950399999999 -37.249900799999999
v -7.25 -22.249950399999999 22.249900799999999
v -7.25 22.249950399999999 22.249900799999999
v -5.75 11.5737495 22.249900799999999
v -5.75 11.5737495 37.249900799999999
v -5.75 18.426250499999998 22.249900799999999
v -5.75 18.426250499999998 37.249900799999999
v 7.25 19.7262497 37.249900799999999
v 7.25 22.249950399999999 37.249900799999999
v -5.75 22.249950399999999 22.249900799999999
v -5.75 22.249950399999999 37.249900799999999
v -5.75 -11.573750499999999 22.249900799999999
v -5.75 -22.249950399999999 22.249900799999999
v -5.75 21.771987899999999 22.249900799999999
v 7.25 9.7536720999999993 37.249900799999999
v -5.75 -22.249950399999999 36.781150799999999
v -5.75 -21.771983150000001 22.249900799999999
v -7.25 22.249950399999999 21.78505895
v 7.25 -5.0729682500000006 37.249900799999999
v -5.34375 -18.466835 22.249900799999999
v -5.75 -3.9354694000000001 22.249900799999999
v -5.75 -3.4262505000000001 36.781150799999999
v -5.34375 3.4668754499999999 37.249900799999999
v -5.75 3.4262505000000001 36.781150799999999
v -5.75 3.9354691499999999 37.249900799999999
v -5.75 11.5737495 22.718650799999999
v -5.34375 18.466875099999999 22.249900799999999
v 7.25 -9.9270315 37.249900799999999
v 7.25 -4.7262497000000003 36.781150799999999
v 7.25 4.7262497000000003 22.718650799999999
v -7.25 -21.9022951 -37.249900799999999
v -5.75 18.904212950000002 22.249900799999999
v -6.796875 -22.249950399999999 -37.249900799999999
v -6.125 22.249950399999999 22.249900799999999
v 7.25 -22.249950399999999 -36.66787145
v -7.25 22.249950399999999 -36.78505895
v -5.75 -22.249950399999999 22.718650799999999
v -5.75 -18.904177650000001 22.249900799999999
v -5.75 18.904212950000002 37.249900799999999
v -5.75 -3.9354694000000001 37.249900799999999
v -7.25 -21.9022951 22.249900799999999
v 7.25 22.249950399999999 -36.66787145
v -5.75 -18.426210399999999 22.718650799999999
v -5.75 18.426250499999998 36.781150799999999
v -5.75 3.4262505000000001 22.718650799999999
v -5.75 -11.064531799999999 22.249900799999999
v 6.84375 19.685624150000002 37.249900799999999
v 7.25 19.7262497 22.718650799999999
v 7.25 19.7262497 36.781150799999999
v 7.25 20.199443800000001 37.249900799999999
v 6.796875 22.249950399999999 -37.249900799999999
v 7.25 -21.934481599999998 37.249900799999999
v 6.84375 -19.685575499999999 37.249900799999999
v -7.25 21.9022951 22.249900799999999
v 7.25 22.249950399999999 36.66787145
v -5.75 3.9354689500000002 22.249900799999999
v -5.75 11.064530850000001 37.249900799999999
v -5.34375 18.466875099999999 37.249900799999999
v 6.84375 10.314375399999999 22.249900799999999
v 6.84375 -19.685575499999999 22.249900799999999
v 7.25 21.934487349999998 37.249900799999999
v -5.34375 11.533124449999999 22.249900799999999
v 6.84375 10.314375399999999 37.249900799999999
v -5.75 -18.426210399999999 36.781150799999999
v -5.75 -18.904177650000001 37.249900799999999
v -5.75 22.249950399999999 36.781150799999999
v -5.75 21.771987899999999 37.249900799999999
v 7.25 10.2737503 36.781150799999999
v 6.84375 -10.314375399999999 37.249900799999999
v -7.25 21.728467949999999 -37.249900799999999
v -5.34375 3.4668754499999999 22.249900799999999
v 7.25 4.4308591000000002 22.249900799999999
v -5.75 11.064530850000001 22.249900799999999
v -5.75 22.249950399999999 22.718650799999999
v -6.796875 22.249950399999999 -37.249900799999999
v -7.25 -22.249950399999999 21.78505895
v 7.25 -4.17239235 22.249900799999999
v 6.84375 19.685624150000002 22.249900799999999
v 6.84375 -10.314375399999999 22.249900799999999
v 7.25 -21.9022951 -37.249900799999999
v -5.34375 -3.4668754499999999 22.249900799999999
v -5.34375 -11.533125399999999 37.249900799999999
v -5.34375 -11.533125399999999 22.249900799999999
v -5.2167969000000003 -3.4795707499999997 37.249900799999999
v 7.25 5.1596482000000004 37.249900799999999
v 7.25 21.728467949999999 -37.249900799999999
v -5.75 -11.064531799999999 37.249900799999999
v -5.4453125 11.543280599999999 37.249900799999999
v -5.34375 -18.466835 37.249900799999999
v 7.25 -20.041668899999998 37.249900799999999
v 7.25 -22.249950399999999 36.66787145
v 6.8691405999999997 4.6881637500000002 37.249900799999999
v -5.1787109500000001 22.249950399999999 37.249900799999999
v 6.9453125 -4.6957807499999999 22.249900799999999
v -5.3691405999999997 -22.249950399999999 37.249900799999999
v 7.25 -19.7262001 22.484275799999999
v -5.75 -3.4262505000000001 22.484275799999999
v 7.25 -4.7262497000000003 22.484275799999999
v -7.25 -22.249950399999999 -37.017479874999999
v 7.046875 -22.249950399999999 37.249900799999999
v 7.046875 4.7059371500000005 22.249900799999999
v 7.0234375 -22.249950399999999 -37.249900799999999
v 7.25 10.2737503 22.484275799999999
v 7.25 -19.7262001 37.015525799999999
v 7.25 -10.495292174999999 22.249900799999999
v 7.25 19.504706374999998 22.249900799999999
v 7.25 -10.2737503 22.484275799999999
v -5.75 -11.573750499999999 37.015525799999999
v -6.125 -22.249950399999999 22.249900799999999
v 7.046875 -4.7059371500000005 37.249900799999999
v 7.25 -10.2737503 37.015525799999999
v -5.75 -22.010966775 37.249900799999999
v -5.75 -11.573750499999999 22.484275799999999
v -7.0625 22.249950399999999 22.249900799999999
v -5.75 11.5737495 37.015525799999999
v -5.75 18.426250499999998 22.484275799999999
v 7.25 10.495293125 22.249900799999999
v 7.25 -19.5046587 22.249900799999999
v 7.046875 22.249950399999999 37.249900799999999
v 7.25 4.7262497000000003 37.015525799999999
v -6.875 -22.249950399999999 22.249900799999999
v -5.75 11.5737495 22.249900799999999
v -5.75 11.5737495 22.249900799999999
v -7.25 -22.249950399999999 -37.249900799999999
v -7.25 -22.249950399999999 -37.249900799999999
v -5.75 18.426250499999998 37.249900799999999
v -5.75 18.426250499999998 37.249900799999999
v 7.25 -19.7262001 22.249900799999999
v 7.25 -19.7262001 22.249900799999999
v 7.25 -4.7262497000000003 22.249900799999999
v 7.25 -4.7262497000000003 22.249900799999999
v 7.25 -22.249950399999999 37.249900799999999
v 7.25 -22.249950399999999 37.249900799999999
v 7.25 10.2737503 22.249900799999999
v 7.25 10.2737503 22.249900799999999
v -7.25 22.249950399999999 -37.249900799999999
v -7.25 22.249950399999999 -37.249900799999999
v 7.25 -19.7262001 37.249900799999999
v 7.25 -19.7262001 37.249900799999999
v -5.75 3.4262505000000001 22.249900799999999
v -5.75 3.4262505000000001 22.249900799999999
v 7.25 4.7262497000000003 22.249900799999999
v 7.25 4.7262497000000003 22.249900799999999
v -5.75 -22.249950399999999 22.249900799999999
v -5.75 -22.249950399999999 22.249900799999999
v -5.75 -18.426210399999999 37.249900799999999
v -5.75 -18.426210399999999 37.249900799999999
v -5.75 3.4262505000000001 37.249900799999999
v -5.75 3.4262505000000001 37.249900799999999
v -5.75 22.249950399999999 22.249900799999999
v -5.75 22.249950399999999 22.249900799999999
v -7.25 -22.249950399999999 22.249900799999999
v -7.25 -22.249950399999999 22.249900799999999
v 7.25 -10.2737503 22.249900799999999
v 7.25 -10.2737503 22.249900799999999
v 7.25 -22.249950399999999 -37.249900799999999
v 7.25 -22.249950399999999 -37.249900799999999
v -5.75 -3.4262505000000001 22.249900799999999
v -5.75 -3.4262505000000001 22.249900799999999
v -5.75 -11.573750499999999 37.249900799999999
v -5.75 -11.573750499999999 37.249900799999999
v 7.25 22.249950399999999 -37.249900799999999
v 7.25 22.249950399999999 -37.249900799999999
v -5.75 11.5737495 37.249900799999999
v -5.75 11.5737495 37.249900799999999
v 7.25 19.7262497 22.249900799999999
v 7.25 19.7262497 22.249900799999999
v -5.75 22.249950399999999 37.249900799999999
v -5.75 22.249950399999999 37.249900799999999
v 7.25 4.7262497000000003 37.249900799999999
v 7.25 4.7262497000000003 37.249900799999999
v 7.25 10.2737503 37.249900799999999
v 7.25 10.2737503 37.249900799999999
v 7.25 -4.7262497000000003 37.249900799999999
v 7.25 -4.7262497000000003 37.249900799999999
v 7.25 -10.2737503 37.249900799999999
v 7.25 -10.2737503 37.249900799999999
v -5.75 -22.249950399999999 37.249900799999999
v -5.75 -22.249950399999999 37.249900799999999
v -5.75 18.426250499999998 22.249900799999999
v -5.75 18.426250499999998 22.249900799999999
v -5.75 -18.426210399999999 22.249900799999999
v -5.75 -18.426210399999999 22.249900799999999
v -5.75 -3.4262505000000001 37.249900799999999
v -5.75 -3.4262505000000001 37.249900799999999
v -5.75 -11.573750499999999 22.249900799999999
v -5.75 -11.573750499999999 22.249900799999999
v -7.25 22.249950399999999 22.249900799999999
v -7.25 22.249950399999999 22.249900799999999
v 7.25 19.7262497 37.249900799999999
v 7.25 19.7262497 37.249900799999999
v 7.25 22.249950399999999 37.249900799999999
v 7.25 22.249950399999999 37.249900799999999
l 6/6 2/2
l 2/2 7/7
l 7/7 1/1
l 1/1 5/5
l 5/5 3/3
l 3/3 4/4
l 14/14 9/9
l 9/9 12/12
l 12/12 8/8
l 8/8 13/13
l 13/13 10/10
l 10/10 11/11
l 19/19 17/17
l 17/17 15/15
l 15/15 16/16
l 16/16 18/18
l 18/18 20/20
l 24/24 21/21
l 21/21 22/22
l 22/22 26/26
l 26/26 23/23
l 23/23 25/25
l 47/47 30/30
l 30/30 40/40
l 40/40 28/28
l 28/28 38/38
l 38/38 39/39
l 39/39 36/36
l 36/36 27/27
l 27/27 33/33
l 33/33 31/31
l 31/31 42/42
l 42/42 34/34
l 34/34 45/45
l 45/45 29/29
l 29/29 41/41
l 41/41 37/37
l 37/37 44/44
l 44/44 32/32
l 32/32 46/46
l 46/46 35/35
l 35/35 43/43
l 43/43 48/48
l 56/56 52/52
l 52/52 50/50
l 50/50 53/53
l 53/53 49/49
l 49/49 54/54
l 54/54 51/51
l 51/51 55/55
l 55/55 57/57
l 80/80 61/61
l 61/61 81/81
l 81/81 65/65
l 65/65 59/59
l 59/59 62/62
l 62/62 78/78
l 78/78 66/66
l 66/66 76/76
l 76/76 71/71
l 71/71 79/79
l 79/79 58/58
l 58/58 68/68
l 68/68 63/63
l 63/63 69/69
l 69/69 75/75
l 75/75 60/60
l 60/60 73/73
l 73/73 67/67
l 67/67 74/74
l 74/74 64/64
l 64/64 77/77
l 77/77 70/70
l 70/70 72/72
l 72/72 82/82
l 95/95 84/84
l 84/84 92/92
l 92/92 89/89
l 89/89 86/86
l 86/86 91/91
l 91/91 90/90
l 90/90 85/85
l 85/85 83/83
l 83/83 87/87
l 87/87 93/93
l 93/93 88/88
l 88/88 94/94
l 104/104 101/101
l 101/101 98/98
l 98/98 100/100
l 100/100 96/96
l 96/96 99/99
l 99/99 97/97
l 97/97 102/102
l 102/102 103/103
l 114/114 110/110
l 110/110 118/118
l 118/118 107/107
l 107/107 116/116
l 116/116 109/109
l 109/109 113/113
l 113/113 105/105
l 105/105 112/112
l 112/112 108/108
l 108/108 115/115
l 115/115 106/106
l 106/106 119/119
l 119/119 111/111
l 111/111 117/117
l 184/184 154/154
l 154/154 139/139
l 139/139 180/180
l 180/180 128/128
l 128/128 162/162
l 162/162 137/137
l 137/137 152/152
l 152/152 126/126
l 126/126 159/159
l 159/159 149/149
l 149/149 177/177
l 177/177 134/134
l 134/134 158/158
l 158/158 142/142
l 142/142 169/169
l 169/169 122/122
l 122/122 151/151
l 151/151 136/136
l 136/136 161/161
l 161/161 130/130
l 130/130 168/168
l 168/168 141/141
l 141/141 167/167
l 167/167 123/123
l 123/123 165/165
l 165/165 182/182
l 182/182 166/166
l 166/166 129/129
l 129/129 164/164
l 164/164 140/140
l 140/140 179/179
l 179/179 120/120
l 120/120 163/163
l 163/163 138/138
l 138/138 153/153
l 153/153 127/127
l 127/127 160/160
l 160/160 135/135
l 135/135 150/150
l 150/150 125/125
l 125/125 176/176
l 176/176 148/148
l 148/148 157/157
l 157/157 133/133
l 133/133 175/175
l 175/175 147/147
l 147/147 156/156
l 156/156 121/121
l 121/121 174/174
l 174/174 146/146
l 146/146 173/173
l 173/173 132/132
l 132/132 172/172
l 172/172 145/145
l 145/145 171/171
l 171/171 124/124
l 124/124 170/170
l 170/170 144/144
l 144/144 155/155
l 155/155 131/131
l 131/131 181/181
l 181/181 143/143
l 143/143 178/178
l 178/178 183/183
l 193/193 189/189
l 189/189 194/194
l 194/194 191/191
l 191/191 198/198
l 198/198 187/187
l 187/187 192/192
l 192/192 185/185
l 185/185 195/195
l 195/195 188/188
l 188/188 199/199
l 199/199 186/186
l 186/186 197/197
l 197/197 190/190
l 190/190 196/196
l 264/264 258/258
l 258/258 219/219
l 219/219 241/241
l 241/241 208/208
l 208/208 242/242
l 242/242 220/220
l 220/220 243/243
l 243/243 203/203
l 203/203 244/244
l 244/244 221/221
l 221/221 245/245
l 245/245 209/209
l 209/209 230/230
l 230/230 222/222
l 222/222 246/246
l 246/246 201/201
l 201/201 247/247
l 247/247 223/223
l 223/223 248/248
l 248/248 210/210
l 210/210 249/249
l 249/249 224/224
l 224/224 250/250
l 250/250 260/260
l 260/260 240/240
l 240/240 218/218
l 218/218 239/239
l 239/239 207/207
l 207/207 238/238
l 238/238 217/217
l 217/217 237/237
l 237/237 200/200
l 200/200 236/236
l 236/236 216/216
l 216/216 232/232
l 232/232 206/206
l 206/206 234/234
l 234/234 215/215
l 215/215 235/235
l 235/235 204/204
l 204/204 251/251
l 251/251 225/225
l 225/225 252/252
l 252/252 211/211
l 211/211 257/257
l 257/257 226/226
l 226/226 253/253
l 253/253 202/202
l 202/202 254/254
l 254/254 227/227
l 227/227 262/262
l 262/262 212/212
l 212/212 255/255
l 255/255 228/228
l 228/228 261/261
l 261/261 205/205
l 205/205 256/256
l 256/256 229/229
l 229/229 231/231
l 231/231 213/213
l 213/213 233/233
l 233/233 214/214
l 214/214 259/259
l 259/259 263/263
l 266/266 265/265
l 265/265 267/267
l 267/267 268/268
l 290/290 275/275
l 275/275 285/285
l 285/285 274/274
l 274/274 278/278
l 278/278 271/271
l 271/271 276/276
l 276/276 273/273
l 273/273 279/279
l 279/279 269/269
l 269/269 277/277
l 277/277 272/272
l 272/272 282/282
l 282/282 289/289
l 289/289 270/270
l 270/270 284/284
l 284/284 280/280
l 280/280 287/287
l 287/287 283/283
l 283/283 286/286
l 286/286 281/281
l 281/281 288/288
l 295/295 291/291
l 291/291 293/293
l 293/293 292/292
l 292/292 294/294
l 313/313 303/303
l 303/303 299/299
l 299/299 304/304
l 304/304 297/297
l 297/297 305/305
l 305/305 314/314
l 314/314 300/300
l 300/300 315/315
l 315/315 310/310
l 310/310 312/312
l 312/312 296/296
l 296/296 316/316
l 316/316 309/309
l 309/309 302/302
l 302/302 307/307
l 307/307 298/298
l 298/298 308/308
l 308/308 301/301
l 301/301 306/306
l 306/306 311/311
l 337/337 321/321
l 321/321 338/338
l 338/338 320/320
l 320/320 333/333
l 333/333 324/324
l 324/324 334/334
l 334/334 318/318
l 318/318 332/332
l 332/332 330/330
l 330/330 328/328
l 328/328 322/322
l 322/322 329/329
l 329/329 326/326
l 326/326 331/331
l 331/331 327/327
l 327/327 317/317
l 317/317 323/323
l 323/323 319/319
l 319/319 336/336
l 336/336 325/325
l 325/325 335/335
l 335/335 339/339
l 355/355 347/347
l 347/347 343/343
l 343/343 352/352
l 352/352 341/341
l 341/341 350/350
l 350/350 344/344
l 344/344 353/353
l 353/353 340/340
l 340/340 348/348
l 348/348 345/345
l 345/345 354/354
l 354/354 342/342
l 342/342 351/351
l 351/351 346/346
l 346/346 349/349
l 349/349 356/356
l 373/373 365/365
l 365/365 360/360
l 360/360 369/369
l 369/369 358/358
l 358/358 366/366
l 366/366 361/361
l 361/361 367/367
l 367/367 357/357
l 357/357 370/370
l 370/370 362/362
l 362/362 368/368
l 368/368 359/359
l 359/359 371/371
l 371/371 363/363
l 363/363 372/372
l 372/372 364/364
l 364/364 374/374
l 374/374 375/375
l 394/394 383/383
l 383/383 379/379
l 379/379 390/390
l 390/390 377/377
l 377/377 385/385
l 385/385 391/391
l 391/391 380/380
l 380/380 392/392
l 392/392 386/386
l 386/386 376/376
l 376/376 389/389
l 389/389 381/381
l 381/381 387/387
l 387/387 378/378
l 378/378 388/388
l 388/388 382/382
l 382/382 384/384
l 384/384 393/393
l 411/411 402/402
l 402/402 401/401
l 401/401 409/409
l 409/409 397/397
l 397/397 406/406
l 406/406 400/400
l 400/400 408/408
l 408/408 395/395
l 395/395 404/404
l 404/404 399/399
l 399/399 407/407
l 407/407 396/396
l 396/396 405/405
l 405/405 398/398
l 398/398 403/403
l 403/403 410/410
l 427/427 419/419
l 419/419 418/418
l 418/418 425/425
l 425/425 414/414
l 414/414 423/423
l 423/423 417/417
l 417/417 424/424
l 424/424 412/412
l 412/412 422/422
l 422/422 416/416
l 416/416 421/421
l 421/421 413/413
l 413/413 420/420
l 420/420 415/415
l 415/415 426/426
l 426/426 428/428
l 428/428 429/429
l 445/445 439/439
l 439/439 433/433
l 433/433 438/438
l 438/438 431/431
l 431/431 442/442
l 442/442 434/434
l 434/434 440/440
l 440/440 430/430
l 430/430 441/441
l 441/441 435/435
l 435/435 444/444
l 444/444 432/432
l 432/432 443/443
l 443/443 436/436
l 436/436 437/437
l 437/437 446/446
l 446/446 447/447
l 464/464 459/459
l 459/459 454/454
l 454/454 458/458
l 458/458 450/450
l 450/450 457/457
l 457/457 451/451
l 451/451 461/461
l 461/461 448/448
l 448/448 462/462
l 462/462 452/452
l 452/452 456/456
l 456/456 449/449
l 449/449 455/455
l 455/455 453/453
l 453/453 465/465
l 465/465 460/460
l 460/460 463/463
l 481/481 474/474
l 474/474 469/469
l 469/469 475/475
l 475/475 467/467
l 467/467 476/476
l 476/476 470/470
l 470/470 477/477
l 477/477 466/466
l 466/466 478/478
l 478/478 483/483
l 483/483 471/471
l 471/471 484/484
l 484/484 479/479
l 479/479 468/468
l 468/468 480/480
l 480/480 472/472
l 472/472 473/473
l 473/473 482/482
l 482/482 485/485
l 501/501 496/496
l 496/496 489/489
l 489/489 494/494
l 494/494 487/487
l 487/487 495/495
l 495/495 490/490
l 490/490 499/499
l 499/499 486/486
l 486/486 498/498
l 498/498 491/491
l 491/491 500/500
l 500/500 488/488
l 488/488 497/497
l 497/497 504/504
l 504/504 492/492
l 492/492 502/502
l 502/502 493/493
l 493/493 503/503
l 503/503 505/505
l 521/521 517/517
l 517/517 509/509
l 509/509 515/515
l 515/515 507/507
l 507/507 518/518
l 518/518 510/510
l 510/510 520/520
l 520/520 506/506
l 506/506 516/516
l 516/516 511/511
l 511/511 513/513
l 513/513 508/508
l 508/508 519/519
l 519/519 512/512
l 512/512 514/514
l 514/514 522/522
l 522/522 523/523
l 542/542 531/531
l 531/531 527/527
l 527/527 535/535
l 535/535 526/526
l 526/526 533/533
l 533/533 530/530
l 530/530 534/534
l 534/534 524/524
l 524/524 536/536
l 536/536 544/544
l 544/544 529/529
l 529/529 540/540
l 540/540 538/538
l 538/538 525/525
l 525/525 537/537
l 537/537 539/539
l 539/539 528/528
l 528/528 541/541
l 541/541 532/532
l 532/532 543/543
l 608/608 585/585
l 585/585 560/560
l 560/560 592/592
l 592/592 553/553
l 553/553 596/596
l 596/596 567/567
l 567/567 584/584
l 584/584 550/550
l 550/550 583/583
l 583/583 574/574
l 574/574 582/582
l 582/582 558/558
l 558/558 591/591
l 591/591 564/564
l 564/564 586/586
l 586/586 547/547
l 547/547 595/595
l 595/595 559/559
l 559/559 581/581
l 581/581 552/552
l 552/552 580/580
l 580/580 566/566
l 566/566 600/600
l 600/600 549/549
l 549/549 590/590
l 590/590 573/573
l 573/573 598/598
l 598/598 557/557
l 557/557 579/579
l 579/579 572/572
l 572/572 578/578
l 578/578 545/545
l 545/545 606/606
l 606/606 563/563
l 563/563 577/577
l 577/577 612/612
l 612/612 556/556
l 556/556 611/611
l 611/611 597/597
l 597/597 571/571
l 571/571 576/576
l 576/576 548/548
l 548/548 575/575
l 575/575 565/565
l 565/565 589/589
l 589/589 551/551
l 551/551 605/605
l 605/605 568/568
l 568/568 593/593
l 593/593 546/546
l 546/546 607/607
l 607/607 570/570
l 570/570 599/599
l 599/599 555/555
l 555/555 603/603
l 603/603 562/562
l 562/562 587/587
l 587/587 604/604
l 604/604 601/601
l 601/601 569/569
l 569/569 594/594
l 594/594 554/554
l 554/554 602/602
l 602/602 561/561
l 561/561 610/610
l 610/610 588/588
l 588/588 609/609
l 682/682 642/642
l 642/642 628/628
l 628/628 671/671
l 671/671 617/617
l 617/617 669/669
l 669/669 629/629
l 629/629 673/673
l 673/673 666/666
l 666/666 663/663
l 663/663 627/627
l 627/627 670/670
l 670/670 618/618
l 618/618 655/655
l 655/655 630/630
l 630/630 643/643
l 643/643 667/667
l 667/667 664/664
l 664/664 624/624
l 624/624 644/644
l 644/644 619/619
l 619/619 645/645
l 645/645 631/631
l 631/631 646/646
l 646/646 614/614
l 614/614 647/647
l 647/647 632/632
l 632/632 661/661
l 661/661 620/620
l 620/620 677/677
l 677/677 651/651
l 651/651 678/678
l 678/678 672/672
l 672/672 662/662
l 662/662 613/613
l 613/613 653/653
l 653/653 633/633
l 633/633 654/654
l 654/654 621/621
l 621/621 660/660
l 660/660 634/634
l 634/634 641/641
l 641/641 615/615
l 615/615 648/648
l 648/648 635/635
l 635/635 681/681
l 681/681 639/639
l 639/639 680/680
l 680/680 674/674
l 674/674 640/640
l 640/640 636/636
l 636/636 657/657
l 657/657 675/675
l 675/675 683/683
l 683/683 658/658
l 658/658 676/676
l 676/676 625/625
l 625/625 649/649
l 649/649 622/622
l 622/622 656/656
l 656/656 637/637
l 637/637 650/650
l 650/650 616/616
l 616/616 652/652
l 652/652 626/626
l 626/626 659/659
l 659/659 623/623
l 623/623 665/665
l 665/665 638/638
l 638/638 668/668
l 668/668 679/679
l 679/679 684/684
l 707/707 693/693
l 693/693 708/708
l 708/708 688/688
l 688/688 703/703
l 703/703 696/696
l 696/696 700/700
l 700/700 686/686
l 686/686 702/702
l 702/702 692/692
l 692/692 706/706
l 706/706 689/689
l 689/689 705/705
l 705/705 697/697
l 697/697 685/685
l 685/685 694/694
l 694/694 690/690
l 690/690 695/695
l 695/695 687/687
l 687/687 698/698
l 698/698 691/691
l 691/691 701/701
l 701/701 699/699
l 699/699 704/704
l 731/731 716/716
l 716/716 726/726
l 726/726 712/712
l 712/712 730/730
l 730/730 721/721
l 721/721 727/727
l 727/727 710/710
l 710/710 715/715
l 715/715 722/722
l 722/722 728/728
l 728/728 718/718
l 718/718 724/724
l 724/724 709/709
l 709/709 723/723
l 723/723 713/713
l 713/713 719/719
l 719/719 711/711
l 711/711 720/720
l 720/720 714/714
l 714/714 729/729
l 729/729 717/717
l 717/717 725/725
l 747/747 738/738
l 738/738 749/749
l 749/749 735/735
l 735/735 740/740
l 740/740 733/733
l 733/733 752/752
l 752/752 742/742
l 742/742 751/751
l 751/751 736/736
l 736/736 741/741
l 741/741 732/732
l 732/732 744/744
l 744/744 737/737
l 737/737 753/753
l 753/753 739/739
l 739/739 748/748
l 748/748 734/734
l 734/734 750/750
l 750/750 743/743
l 743/743 745/745
l 745/745 754/754
l 754/754 746/746
l 746/746 755/755
l 776/776 764/764
l 764/764 773/773
l 773/773 762/762
l 762/762 769/769
l 769/769 758/758
l 758/758 770/770
l 770/770 761/761
l 761/761 766/766
l 766/766 774/774
l 774/774 756/756
l 756/756 771/771
l 771/771 765/765
l 765/765 760/760
l 760/760 768/768
l 768/768 757/757
l 757/757 763/763
l 763/763 759/759
l 759/759 772/772
l 772/772 767/767
l 767/767 775/775
l 796/796 786/786
l 786/786 795/795
l 795/795 780/780
l 780/780 783/783
l 783/783 792/792
l 792/792 778/778
l 778/778 794/794
l 794/794 789/789
l 789/789 781/781
l 781/781 785/785
l 785/785 777/777
l 777/777 787/787
l 787/787 782/782
l 782/782 784/784
l 784/784 779/779
l 779/779 793/793
l 793/793 788/788
l 788/788 797/797
l 797/797 791/791
l 791/791 799/799
l 799/799 790/790
l 790/790 798/798
l 818/818 807/807
l 807/807 816/816
l 816/816 809/809
l 809/809 805/805
l 805/805 802/802
l 802/802 817/817
l 817/817 806/806
l 806/806 815/815
l 815/815 804/804
l 804/804 810/810
l 810/810 800/800
l 800/800 808/808
l 808/808 803/803
l 803/803 811/811
l 811/811 801/801
l 801/801 812/812
l 812/812 821/821
l 821/821 813/813
l 813/813 819/819
l 819/819 814/814
l 814/814 820/820
l 843/843 830/830
l 830/830 841/841
l 841/841 827/827
l 827/827 833/833
l 833/833 824/824
l 824/824 829/829
l 829/829 835/835
l 835/835 840/840
l 840/840 836/836
l 836/836 845/845
l 845/845 822/822
l 822/822 838/838
l 838/838 828/828
l 828/828 842/842
l 842/842 826/826
l 826/826 834/834
l 834/834 844/844
l 844/844 823/823
l 823/823 846/846
l 846/846 832/832
l 832/832 839/839
l 839/839 825/825
l 825/825 831/831
l 831/831 837/837
l 907/907 870/870
l 870/870 896/896
l 896/896 865/865
l 865/865 911/911
l 911/911 855/855
l 855/855 902/902
l 902/902 872/872
l 872/872 909/909
l 909/909 876/876
l 876/876 851/851
l 851/851 866/866
l 866/866 888/888
l 888/888 893/893
l 893/893 858/858
l 858/858 924/924
l 924/924 892/892
l 892/892 905/905
l 905/905 849/849
l 849/849 929/929
l 929/929 867/867
l 867/867 898/898
l 898/898 883/883
l 883/883 901/901
l 901/901 856/856
l 856/856 895/895
l 895/895 868/868
l 868/868 926/926
l 926/926 891/891
l 891/891 920/920
l 920/920 882/882
l 882/882 918/918
l 918/918 869/869
l 869/869 914/914
l 914/914 881/881
l 881/881 919/919
l 919/919 871/871
l 871/871 857/857
l 857/857 847/847
l 847/847 925/925
l 925/925 873/873
l 873/873 908/908
l 908/908 864/864
l 864/864 875/875
l 875/875 854/854
l 854/854 927/927
l 927/927 886/886
l 886/886 900/900
l 900/900 863/863
l 863/863 903/903
l 903/903 880/880
l 880/880 917/917
l 917/917 879/879
l 879/879 916/916
l 916/916 862/862
l 862/862 913/913
l 913/913 852/852
l 852/852 912/912
l 912/912 850/850
l 850/850 904/904
l 904/904 878/878
l 878/878 897/897
l 897/897 848/848
l 848/848 923/923
l 923/923 861/861
l 861/861 930/930
l 930/930 874/874
l 874/874 853/853
l 853/853 887/887
l 887/887 860/860
l 860/860 894/894
l 894/894 928/928
l 928/928 877/877
l 877/877 910/910
l 910/910 859/859
l 859/859 915/915
l 915/915 885/885
l 885/885 921/921
l 921/921 884/884
l 884/884 899/899
l 899/899 889/889
l 889/889 922/922
l 922/922 890/890
l 890/890 906/906
l 947/947 942/942
l 942/942 934/934
l 934/934 943/943
l 943/943 932/932
l 932/932 940/940
l 940/940 945/945
l 945/945 938/938
l 938/938 931/931
l 931/931 939/939
l 939/939 935/935
l 935/935 937/937
l 937/937 933/933
l 933/933 941/941
l 941/941 936/936
l 936/936 944/944
l 944/944 946/946
l 994/994 978/978
l 978/978 998/998
l 998/998 964/964
l 964/964 955/955
l 955/955 992/992
l 992/992 979/979
l 979/979 976/976
l 976/976 986/986
l 986/986 963/963
l 963/963 981/981
l 981/981 977/977
l 977/977 957/957
l 957/957 949/949
l 949/949 973/973
l 973/973 962/962
l 962/962 954/954
l 954/954 969/969
l 969/969 956/956
l 956/956 950/950
l 950/950 990/990
l 990/990 999/999
l 999/999 961/961
l 961/961 995/995
l 995/995 980/980
l 980/980 985/985
l 985/985 1000/1000
l 1000/1000 984/984
l 984/984 997/997
l 997/997 967/967
l 967/967 1001/1001
l 1001/1001 948/948
l 948/948 960/960
l 960/960 965/965
l 965/965 953/953
l 953/953 988/988
l 988/988 987/987
l 987/987 975/975
l 975/975 983/983
l 983/983 982/982
l 982/982 970/970
l 970/970 972/972
l 972/972 991/991
l 991/991 996/996
l 996/996 974/974
l 974/974 1002/1002
l 1002/1002 959/959
l 959/959 952/952
l 952/952 989/989
l 989/989 966/966
l 966/966 971/971
l 971/971 958/958
l 958/958 951/951
l 951/951 968/968
l 968/968 993/993
l 993/993 1003/1003
l 1011/1011 1006/1006
l 1006/1006 1010/1010
l 1010/1010 1008/1008
l 1008/1008 1015/1015
l 1015/1015 1005/1005
l 1005/1005 1004/1004
l 1004/1004 1013/1013
l 1013/1013 1009/1009
l 1009/1009 1014/1014
l 1014/1014 1007/1007
l 1007/1007 1012/1012
l 1032/1032 1028/1028
l 1028/1028 1022/1022
l 1022/1022 1027/1027
l 1027/1027 1018/1018
l 1018/1018 1030/1030
l 1030/1030 1021/1021
l 1021/1021 1026/1026
l 1026/1026 1016/1016
l 1016/1016 1033/1033
l 1033/1033 1029/1029
l 1029/1029 1034/1034
l 1034/1034 1020/1020
l 1020/1020 1025/1025
l 1025/1025 1017/1017
l 1017/1017 1023/1023
l 1023/1023 1019/1019
l 1019/1019 1031/1031
l 1031/1031 1024/1024
l 1024/1024 1035/1035
l 1035/1035 1036/1036
l 1054/1054 1049/1049
l 1049/1049 1039/1039
l 1039/1039 1048/1048
l 1048/1048 1037/1037
l 1037/1037 1056/1056
l 1056/1056 1045/1045
l 1045/1045 1052/1052
l 1052/1052 1040/1040
l 1040/1040 1044/1044
l 1044/1044 1050/1050
l 1050/1050 1046/1046
l 1046/1046 1041/1041
l 1041/1041 1055/1055
l 1055/1055 1047/1047
l 1047/1047 1053/1053
l 1053/1053 1038/1038
l 1038/1038 1043/1043
l 1043/1043 1057/1057
l 1057/1057 1042/1042
l 1042/1042 1058/1058
l 1058/1058 1051/1051
l 1051/1051 1059/1059
l 1063/1063 1060/1060
l 1060/1060 1064/1064
l 1064/1064 1061/1061
l 1061/1061 1065/1065
l 1065/1065 1062/1062
l 1062/1062 1066/1066
l 1072/1072 1069/1069
l 1069/1069 1070/1070
l 1070/1070 1067/1067
l 1067/1067 1068/1068
l 1068/1068 1071/1071
l 1071/1071 1073/1073
l 1127/1127 1116/1116
l 1116/1116 1126/1126
l 1126/1126 1083/1083
l 1083/1083 1080/1080
l 1080/1080 1089/1089
l 1089/1089 1095/1095
l 1095/1095 1105/1105
l 1105/1105 1114/1114
l 1114/1114 1077/1077
l 1077/1077 1102/1102
l 1102/1102 1124/1124
l 1124/1124 1086/1086
l 1086/1086 1121/1121
l 1121/1121 1106/1106
l 1106/1106 1115/1115
l 1115/1115 1096/1096
l 1096/1096 1081/1081
l 1081/1081 1119/1119
l 1119/1119 1118/1118
l 1118/1118 1122/1122
l 1122/1122 1075/1075
l 1075/1075 1125/1125
l 1125/1125 1099/1099
l 1099/1099 1123/1123
l 1123/1123 1107/1107
l 1107/1107 1082/1082
l 1082/1082 1091/1091
l 1091/1091 1103/1103
l 1103/1103 1111/1111
l 1111/1111 1108/1108
l 1108/1108 1112/1112
l 1112/1112 1078/1078
l 1078/1078 1100/1100
l 1100/1100 1087/1087
l 1087/1087 1113/1113
l 1113/1113 1092/1092
l 1092/1092 1084/1084
l 1084/1084 1104/1104
l 1104/1104 1079/1079
l 1079/1079 1088/1088
l 1088/1088 1101/1101
l 1101/1101 1074/1074
l 1074/1074 1097/1097
l 1097/1097 1117/1117
l 1117/1117 1110/1110
l 1110/1110 1109/1109
l 1109/1109 1090/1090
l 1090/1090 1076/1076
l 1076/1076 1094/1094
l 1094/1094 1085/1085
l 1085/1085 1098/1098
l 1098/1098 1093/1093
l 1093/1093 1120/1120
l 1120/1120 1128/1128
l 1150/1150 1143/1143
l 1143/1143 1149/1149
l 1149/1149 1142/1142
l 1142/1142 1137/1137
l 1137/1137 1130/1130
l 1130/1130 1138/1138
l 1138/1138 1144/1144
l 1144/1144 1133/1133
l 1133/1133 1147/1147
l 1147/1147 1139/1139
l 1139/1139 1129/1129
l 1129/1129 1134/1134
l 1134/1134 1132/1132
l 1132/1132 1135/1135
l 1135/1135 1131/1131
l 1131/1131 1140/1140
l 1140/1140 1148/1148
l 1148/1148 1141/1141
l 1141/1141 1146/1146
l 1146/1146 1136/1136
l 1136/1136 1145/1145
l 1145/1145 1151/1151
l 1172/1172 1167/1167
l 1167/1167 1162/1162
l 1162/1162 1170/1170
l 1170/1170 1155/1155
l 1155/1155 1169/1169
l 1169/1169 1159/1159
l 1159/1159 1153/1153
l 1153/1153 1160/1160
l 1160/1160 1156/1156
l 1156/1156 1161/1161
l 1161/1161 1152/1152
l 1152/1152 1164/1164
l 1164/1164 1166/1166
l 1166/1166 1163/1163
l 1163/1163 1154/1154
l 1154/1154 1165/1165
l 1165/1165 1157/1157
l 1157/1157 1171/1171
l 1171/1171 1158/1158
l 1158/1158 1168/1168
l 1168/1168 1173/1173
l 1196/1196 1190/1190
l 1190/1190 1181/1181
l 1181/1181 1180/1180
l 1180/1180 1188/1188
l 1188/1188 1176/1176
l 1176/1176 1184/1184
l 1184/1184 1179/1179
l 1179/1179 1187/1187
l 1187/1187 1174/1174
l 1174/1174 1191/1191
l 1191/1191 1183/1183
l 1183/1183 1189/1189
l 1189/1189 1178/1178
l 1178/1178 1193/1193
l 1193/1193 1186/1186
l 1186/1186 1175/1175
l 1175/1175 1185/1185
l 1185/1185 1177/1177
l 1177/1177 1192/1192
l 1192/1192 1182/1182
l 1182/1182 1194/1194
l 1194/1194 1195/1195
l 1214/1214 1212/1212
l 1212/1212 1204/1204
l 1204/1204 1200/1200
l 1200/1200 1210/1210
l 1210/1210 1198/1198
l 1198/1198 1209/1209
l 1209/1209 1202/1202
l 1202/1202 1208/1208
l 1208/1208 1197/1197
l 1197/1197 1207/1207
l 1207/1207 1201/1201
l 1201/1201 1211/1211
l 1211/1211 1199/1199
l 1199/1199 1206/1206
l 1206/1206 1203/1203
l 1203/1203 1205/1205
l 1205/1205 1213/1213
l 1213/1213 1215/1215
l 1230/1230 1225/1225
l 1225/1225 1218/1218
l 1218/1218 1228/1228
l 1228/1228 1223/1223
l 1223/1223 1216/1216
l 1216/1216 1227/1227
l 1227/1227 1219/1219
l 1219/1219 1221/1221
l 1221/1221 1220/1220
l 1220/1220 1224/1224
l 1224/1224 1217/1217
l 1217/1217 1222/1222
l 1222/1222 1226/1226
l 1226/1226 1229/1229
l 1252/1252 1243/1243
l 1243/1243 1235/1235
l 1235/1235 1242/1242
l 1242/1242 1239/1239
l 1239/1239 1232/1232
l 1232/1232 1237/1237
l 1237/1237 1244/1244
l 1244/1244 1240/1240
l 1240/1240 1245/1245
l 1245/1245 1231/1231
l 1231/1231 1249/1249
l 1249/1249 1236/1236
l 1236/1236 1233/1233
l 1233/1233 1246/1246
l 1246/1246 1238/1238
l 1238/1238 1250/1250
l 1250/1250 1241/1241
l 1241/1241 1248/1248
l 1248/1248 1234/1234
l 1234/1234 1247/1247
l 1247/1247 1251/1251
l 1254/1254 1253/1253
l 1253/1253 1255/1255
l 1266/1266 1264/1264
l 1264/1264 1265/1265
l 1265/1265 1256/1256
l 1256/1256 1260/1260
l 1260/1260 1259/1259
l 1259/1259 1261/1261
l 1261/1261 1258/1258
l 1258/1258 1257/1257
l 1257/1257 1263/1263
l 1263/1263 1262/1262
l 1262/1262 1267/1267
l 1278/1278 1275/1275
l 1275/1275 1277/1277
l 1277/1277 1271/1271
l 1271/1271 1274/1274
l 1274/1274 1273/1273
l 1273/1273 1272/1272
l 1272/1272 1270/1270
l 1270/1270 1269/1269
l 1269/1269 1276/1276
l 1276/1276 1268/1268
l 1280/1280 1290/1290
l 1290/1290 1285/1285
l 1285/1285 1286/1286
l 1286/1286 1281/1281
l 1281/1281 1283/1283
l 1283/1283 1282/1282
l 1282/1282 1284/1284
l 1284/1284 1288/1288
l 1288/1288 1287/1287
l 1287/1287 1289/1289
l 1289/1289 1279/1279
l 1292/1292 1296/1296
l 1296/1296 1295/1295
l 1295/1295 1293/1293
l 1293/1293 1298/1298
l 1298/1298 1297/1297
l 1297/1297 1294/1294
l 1294/1294 1291/1291
l 1300/1300 1304/1304
l 1304/1304 1305/1305
l 1305/1305 1301/1301
l 1301/1301 1306/1306
l 1306/1306 1302/1302
l 1302/1302 1303/1303
l 1303/1303 1299/1299
l 1307/1307 1309/1309
l 1309/1309 1310/1310
l 1310/1310 1308/1308
l 1326/1326 1318/1318
l 1318/1318 1321/1321
l 1321/1321 1323/1323
l 1323/1323 1311/1311
l 1311/1311 1320/1320
l 1320/1320 1322/1322
l 1322/1322 1317/1317
l 1317/1317 1315/1315
l 1315/1315 1316/1316
l 1316/1316 1319/1319
l 1319/1319 1314/1314
l 1314/1314 1324/1324
l 1324/1324 1312/1312
l 1312/1312 1325/1325
l 1325/1325 1313/1313
l 1347/1347 1334/1334
l 1334/1334 1336/1336
l 1336/1336 1335/1335
l 1335/1335 1337/1337
l 1337/1337 1328/1328
l 1328/1328 1342/1342
l 1342/1342 1329/1329
l 1329/1329 1344/1344
l 1344/1344 1338/1338
l 1338/1338 1331/1331
l 1331/1331 1339/1339
l 1339/1339 1333/1333
l 1333/1333 1340/1340
l 1340/1340 1330/1330
l 1330/1330 1341/1341
l 1341/1341 1332/1332
l 1332/1332 1346/1346
l 1346/1346 1345/1345
l 1345/1345 1343/1343
l 1343/1343 1327/1327
l 1348/1348 1398/1398
l 1348/1348 1481/1481
l 1349/1349 1410/1410
l 1349/1349 1454/1454
l 1350/1350 1452/1452
l 1350/1350 1457/1457
l 1351/1351 1389/1389
l 1351/1351 1480/1480
l 1352/1352 1475/1475
l 1352/1352 1477/1477
l 1353/1353 1447/1447
l 1353/1353 1468/1468
l 1354/1354 1405/1405
l 1354/1354 1450/1450
l 1355/1355 1466/1466
l 1355/1355 1488/1488
l 1356/1356 1423/1423
l 1356/1356 1474/1474
l 1357/1357 1461/1461
l 1357/1357 1470/1470
l 1358/1358 1386/1386
l 1358/1358 1482/1482
l 1359/1359 1435/1435
l 1359/1359 1459/1459
l 1360/1360 1408/1408
l 1360/1360 1413/1413
l 1361/1361 1391/1391
l 1361/1361 1451/1451
l 1362/1362 1400/1400
l 1362/1362 1442/1442
l 1363/1363 1426/1426
l 1363/1363 1441/1441
l 1364/1364 1393/1393
l 1364/1364 1395/1395
l 1365/1365 1462/1462
l 1365/1365 1490/1490
l 1366/1366 1385/1385
l 1366/1366 1438/1438
l 1367/1367 1473/1473
l 1367/1367 1487/1487
l 1368/1368 1418/1418
l 1368/1368 1476/1476
l 1369/1369 1421/1421
l 1369/1369 1456/1456
l 1370/1370 1406/1406
l 1370/1370 1440/1440
l 1371/1371 1401/1401
l 1371/1371 1403/1403
l 1372/1372 1446/1446
l 1372/1372 1491/1491
l 1373/1373 1388/1388
l 1373/1373 1484/1484
l 1374/1374 1396/1396
l 1374/1374 1432/1432
l 1375/1375 1427/1427
l 1375/1375 1458/1458
l 1376/1376 1397/1397
l 1376/1376 1402/1402
l 1377/1377 1409/1409
l 1377/1377 1414/1414
l 1378/1378 1417/1417
l 1378/1378 1419/1419
l 1379/1379 1425/1425
l 1379/1379 1489/1489
l 1380/1380 1384/1384
l 1380/1380 1404/1404
l 1381/1381 1436/1436
l 1381/1381 1463/1463
l 1382/1382 1416/1416
l 1382/1382 1483/1483
l 1383/1383 1387/1387
l 1383/1383 1407/1407
l 1384/1384 1520/1520
l 1385/1385 1543/1543
l 1386/1386 1548/1548
l 1387/1387 1514/1514
l 1388/1388 1558/1558
l 1389/1389 1544/1544
l 1390/1390 1552/1552
l 1390/1390 1553/1553
l 1391/1391 1528/1528
l 1392/1392 1554/1554
l 1392/1392 1555/1555
l 1393/1393 1519/1519
l 1394/1394 1518/1518
l 1394/1394 1519/1519
l 1395/1395 1518/1518
l 1396/1396 1493/1493
l 1397/1397 1550/1550
l 1398/1398 1546/1546
l 1399/1399 1544/1544
l 1399/1399 1545/1545
l 1400/1400 1512/1512
l 1401/1401 1495/1495
l 1402/1402 1551/1551
l 1403/1403 1494/1494
l 1404/1404 1521/1521
l 1405/1405 1526/1526
l 1406/1406 1506/1506
l 1407/1407 1515/1515
l 1408/1408 1553/1553
l 1409/1409 1497/1497
l 1410/1410 1555/1555
l 1411/1411 1522/1522
l 1411/1411 1523/1523
l 1412/1412 1532/1532
l 1412/1412 1533/1533
l 1413/1413 1552/1552
l 1414/1414 1496/1496
l 1415/1415 1510/1510
l 1415/1415 1511/1511
l 1416/1416 1556/1556
l 1417/1417 1561/1561
l 1418/1418 1536/1536
l 1419/1419 1560/1560
l 1420/1420 1560/1560
l 1420/1420 1561/1561
l 1421/1421 1532/1532
l 1422/1422 1502/1502
l 1422/1422 1503/1503
l 1423/1423 1508/1508
l 1424/1424 1558/1558
l 1424/1424 1559/1559
l 1425/1425 1563/1563
l 1426/1426 1511/1511
l 1427/1427 1535/1535
l 1428/1428 1496/1496
l 1428/1428 1497/1497
l 1429/1429 1504/1504
l 1429/1429 1505/1505
l 1430/1430 1498/1498
l 1430/1430 1499/1499
l 1431/1431 1562/1562
l 1431/1431 1563/1563
l 1432/1432 1492/1492
l 1433/1433 1542/1542
l 1433/1433 1543/1543
l 1434/1434 1516/1516
l 1434/1434 1517/1517
l 1435/1435 1517/1517
l 1436/1436 1538/1538
l 1437/1437 1538/1538
l 1437/1437 1539/1539
l 1438/1438 1542/1542
l 1439/1439 1546/1546
l 1439/1439 1547/1547
l 1440/1440 1507/1507
l 1441/1441 1510/1510
l 1442/1442 1513/1513
l 1443/1443 1492/1492
l 1443/1443 1493/1493
l 1444/1444 1520/1520
l 1444/1444 1521/1521
l 1445/1445 1506/1506
l 1445/1445 1507/1507
l 1446/1446 1523/1523
l 1447/1447 1500/1500
l 1448/1448 1536/1536
l 1448/1448 1537/1537
l 1449/1449 1524/1524
l 1449/1449 1525/1525
l 1450/1450 1527/1527
l 1451/1451 1529/1529
l 1452/1452 1531/1531
l 1453/1453 1556/1556
l 1453/1453 1557/1557
l 1454/1454 1554/1554
l 1455/1455 1540/1540
l 1455/1455 1541/1541
l 1456/1456 1533/1533
l 1457/1457 1530/1530
l 1458/1458 1534/1534
l 1459/1459 1516/1516
l 1460/1460 1508/1508
l 1460/1460 1509/1509
l 1461/1461 1502/1502
l 1462/1462 1541/1541
l 1463/1463 1539/1539
l 1464/1464 1500/1500
l 1464/1464 1501/1501
l 1465/1465 1548/1548
l 1465/1465 1549/1549
l 1466/1466 1499/1499
l 1467/1467 1528/1528
l 1467/1467 1529/1529
l 1468/1468 1501/1501
l 1469/1469 1494/1494
l 1469/1469 1495/1495
l 1470/1470 1503/1503
l 1471/1471 1512/1512
l 1471/1471 1513/1513
l 1472/1472 1526/1526
l 1472/1472 1527/1527
l 1473/1473 1505/1505
l 1474/1474 1509/1509
l 1475/1475 1525/1525
l 1476/1476 1537/1537
l 1477/1477 1524/1524
l 1478/1478 1530/1530
l 1478/1478 1531/1531
l 1479/1479 1514/1514
l 1479/1479 1515/1515
l 1480/1480 1545/1545
l 1481/1481 1547/1547
l 1482/1482 1549/1549
l 1483/1483 1557/1557
l 1484/1484 1559/1559
l 1485/1485 1534/1534
l 1485/1485 1535/1535
l 1486/1486 1550/1550
l 1486/1486 1551/1551
l 1487/1487 1504/1504
l 1488/1488 1498/1498
l 1489/1489 1562/1562
l 1490/1490 1540/1540
l 1491/1491 1522/1522
