v -20.317758974380467 36.795414229004763 -13.746388702636843
v -22.039500366297347 35.957791819655327 -10.287528858569155
v -24.977117781656759 37.338024398651172 -10.257902153779892
v -25.436724783334419 38.539544202544747 -12.063937555493265
v -24.790451269914858 39.201637044727889 -14.046552573237612
v -23.639118328766774 36.418327722592863 -9.7310518596846354
v -20.556825558338815 35.97752987937875 -11.820931576137481
v -21.207346092793564 37.952103545099746 -15.146226854070868
v -23.104053333519794 39.087197592547206 -15.432803837496564
v 6.5997549068836339 2.7639364680955669 9.9558321919719717
v -22.326600736358813 50.224621120546885 -3.7623857606820081
v 13.404961160567856 35.361906086506735 12.387277803707512
v 0.064283337014471614 -2.8870363294026156 5.9048490405672052
v -24.977117781656759 37.338024398651172 -10.257902153779892
v -24.31588197647396 38.972683938445883 -9.7214786763971155
v 25.784463512277974 69.988539635690415 7.7779620469098241
v 12.405188962987481 82.481262996410692 6.0818784954655349
v 12.571046263146584 33.101594757666945 12.391062935396112
v -22.830628621359761 51.495062903254237 -2.7414763169586065
v 10.972503959930343 81.839303787184747 6.033488227075086
v 7.5666368420819508 81.080977173420337 6.0171907492772991
v 24.259829164419138 58.582608291836848 11.587996590769155
v -3.1813606073647254 79.934359659757533 5.6754988757942915
v 23.624105581324649 50.916125871157689 13.415024701039938
v -14.579925346100881 75.03355647627032 3.9777109630706216
v 24.593148158622299 62.959372293237763 10.086369845031451
v 26.252172667072884 73.794574025867561 6.6782650918406183
v -27.508151061053148 31.034638964030513 -11.399862052807753
v 20.989253593208371 44.273577411030502 13.587324808773001
v -1.6953730245839904 -2.5526485269054104 4.6831568698540558
v -5.2484348019415261 79.3017730272515 5.4536649752749025
v -7.3372682390501067 78.445278846993844 5.1775035482714529
v 26.037207782220364 71.860828877984275 7.2163946777096415
v -25.860434023465558 35.176636308806231 -10.821088497587482
v 15.443876737967322 84.379197162331621 6.2870752433926409
v 13.883311935637376 83.390727556676268 6.1796209979607664
v 12.605194928397626 29.539765670217459 12.638054599036771
v -27.790207520410121 18.026640046610595 -11.32053579997994
v 17.871596778856528 40.221151800534074 13.112663683903564
v 24.975840183996304 65.473463923721496 9.1931769178230489
v -30.691361436868114 65.577227399105197 1.2137159715695431
v 13.756372604811052 23.544062826828785 13.025987914048569
v 10.75860737368118 12.822589589771155 11.597200448036391
v -5.1615829074993567 -2.1047030114800727 2.2531638317355798
v -28.617839431055717 22.493706614552277 -11.693419787719604
v -13.272157634633707 -2.8925207402209372 -3.1746541115199491
v 5.3170221287342443 -1.642564145338151 9.4509622618894547
v -22.664549391764442 42.340499250993204 -8.7735764731294381
v 12.931604821102997 16.836103292346959 12.50931475114692
v 23.078328180136886 48.582852800153063 13.651450540394483
v 23.995078139842569 53.350459203655859 12.996059880440104
v -18.57085302950891 -2.2069456956046496 -6.0882484338475029
v -16.822598132108268 -2.7792695719242344 -5.172134271474059
v -22.258144924947089 74.556600356007465 3.0557218172048772
v -16.125905458036833 74.541352448015601 3.7149389272810156
v 24.164168130977703 55.905626662735763 12.375001106816018
v 16.386511223804177 38.732222554216136 12.853574727603696
v 13.0149764536856 27.627090494923873 12.804100271901904
v -11.915545455802263 76.256966883294638 4.4428449472388847
v 0.99920142677301849 80.65622229607078 5.935739960004673
v 11.901685124506052 14.779843021477827 12.075151239461169
v 8.6154128326490191 8.9918060892661984 10.706157210404399
v -20.138095142694926 -1.1638403985934309 -6.9031648367197391
v -21.330408277086129 0.35498318977667687 -7.5668477932119256
v 9.6004397840727318 10.930524563878071 11.110504027356853
v 22.114732741646243 46.406706809693162 13.677579111177661
v -17.981195949426372 74.302451110979518 3.4200096851443202
v 7.194078283627559 5.1437195665795485 10.153065810961008
v 24.370205471605765 60.678962237025281 10.893257105362622
v -21.884413876653177 47.263497880063198 -5.9211525750595762
v 25.490278565253401 68.292199157470918 8.3313792417434733
v 17.152153552510111 85.260901156086277 6.3613959143578409
v -20.047243280645006 74.482035941555296 3.2398567203335009
v 3.6356656481560079 -2.6474639847023971 8.3501710955234252
v -15.026839128795771 -2.9174610272688186 -4.1956053110059903
v 4.2377127914925605 80.876683723708112 6.0027640187122167
v -21.841866644659184 45.684466020197419 -7.0315329692509883
v 14.823147506463407 37.16606426242592 12.584603308750552
v -28.160731659472916 28.974366681149746 -11.595191513776067
v 13.460038388437249 25.641708168396981 12.957164510791564
v 26.36906739334048 75.728814334918937 6.196491548285711
v -21.996928799310162 44.022677881774158 -8.041414755132676
v -25.875245674462562 11.193845683951352 -10.270512011584804
v -22.061874473989377 48.773067794749018 -4.808191133636031
v -24.272956626118003 6.7400013762729856 -9.3275490172260938
v 12.332104328028063 31.384265049175873 12.487674689807243
v -25.065555905278949 8.9657128291327872 -9.8043817276241452
v -28.74801114896675 24.698964697905289 -11.731337320342414
v 13.480471773323282 19.082074772011413 12.803365973482562
v 1.8516641743321443 -2.9114294083444063 7.1378383965540593
v 26.381397031210938 77.645050010807651 5.8201382426830968
v -30.410320025850911 64.186505250527915 1.079400598717327
v -27.223341241320007 15.754917089812389 -11.024538622797099
v -28.652252179552818 26.872520658674468 -11.681891693181246
v -23.5822673294509 40.677712121960795 -9.2191706885782345
v -23.400542480771406 4.5563521268872789 -8.7994231017598494
v 13.757917232894929 21.340136215766215 12.973527446502377
v -30.791006345433395 67.023031089503775 1.4318090619019879
v -29.799069566799936 62.185250064593447 0.89667251394141623
v -9.9299939116573626 -2.8431378137873344 -1.0341529074026576
v 19.575583756856304 42.218954246814555 13.391190040224522
v -26.714286272207701 33.087258602664463 -11.193483158436043
v -9.5336562836811218 77.424083685375123 4.8419940673100266
v -3.4459661582517489 -2.3023563826026097 3.4604216020879823
v -28.273224350484288 20.270616362378433 -11.553120253905815
v -6.7783725205652097 -2.1061861599418603 1.1194085870459558
v 6.0938198572874249 0.47166154923197234 9.8208774227247915
v -1.1037038290337589 80.370609884894932 5.8389413301542321
v -22.436986384172751 2.4167282892427124 -8.2188832144163531
v 7.7388408030783182 7.0788267428503389 10.352810770870963
v -26.586662392500546 13.468117186292622 -10.673812008764978
v -11.573854418958062 -2.8933214395157139 -2.1162826341190266
v 26.364234415449936 79.544091229662143 5.5506966610822612
v 26.263423904978481 81.419337759962175 5.4438683445318112
v -8.3504708872522571 -2.4577966510029845 0.033442555874245286
v -23.547003867778074 52.611140765369086 -1.8532256938121643
v -30.7689199086388 68.493789106288062 1.6540196730707415
v -29.030109537234345 60.335982545736442 0.71971178102446198
v -30.603695313952972 69.948126826257749 1.8571546608476561
v -30.25279793472281 71.316264418812239 2.0518327660496101
v -24.358840756034134 53.625792980421906 -1.1386841843233817
v -26.980748189323066 74.187650033659168 2.5663450074026217
v -27.904324840791467 73.914244657053814 2.4607296111239942
v -27.224364703046067 57.207162613080541 0.28052157776846109
v -26.273383177187554 55.913432036658918 -0.055097745360813619
v -28.85895609738925 73.402558362085912 2.3702567600212432
v 21.036838526539825 86.426949782740934 6.2983529707622132
v 19.017295152913576 85.947421001976494 6.364325762288729
v -28.158764998129232 58.671926960765049 0.52521848213468836
v -24.57270638207013 74.435136503356262 2.8026187099703761
v -29.659059117491772 72.498794926943447 2.2236461532821465
v -25.312978740043931 54.747560058767036 -0.51617049139221782
v 24.535840731671428 85.830060020228387 5.7309368760209169
v 23.852468908145561 86.274889555897317 5.8719081746830497
v 26.07467915441989 83.240512487067363 5.5177101837512232
v 25.730917415666799 84.280892694885111 5.5434855609106961
v 25.177705969398556 85.146264531813685 5.6060501210713278
v 23.219145781079995 86.448098069366551 5.9920622058987609
v -11.852500226708514 0.046310561421927715 16.172058473166203
v -12.612955534484893 5.9092770138034041 13.602122456137174
v -13.700076399746532 22.169932385204671 9.2739409559651591
v 2.0961020822115781 -0.51332465879295053 -8.9004992236962224
v 1.9543624560126649 1.8748979929381864 -9.0784315651893408
v -12.382179493837684 4.1257282436329321 14.607157452244738
v -1.5074695215072309 -2.9739406604511895 -3.5840054000811703
v -11.882133137109957 26.685680057396176 4.403645400360956
v -10.951059537866964 27.512207373951703 2.4998485799543575
v 1.191389060478957 -2.3985322338945041 -7.5160944204042419
v -6.3107379224205218 -2.0290415638965582 4.306667712710091
v -7.3979938625329345 -2.2808038063588345 6.39703582640586
v -13.675774707533169 13.268469629395071 12.094108129985488
v -0.25034051175933769 -2.9895658844316646 -5.4396952294327532
v 1.0242423188729983 18.462035998711983 -9.4083739231491226
v -5.1615829074993567 -2.1047030114800727 2.2531638317355798
v 1.4861935711028667 6.3089418485336726 -8.9875201855551765
v -13.99466030805657 17.897103148113956 11.18884667234636
v -4.6558550079691106 26.494427277065085 -5.9154381736781181
v -0.64065445023088397 22.442215734329643 -8.7569579938542965
v -9.8670509841927796 28.020915248923565 0.57880879384572514
v -1.8111910326012002 24.133547443811722 -8.0742028870928664
v -12.987850092355991 8.3907756190285667 12.762124817818229
v -8.4188062453540375 -2.6694915259816465 8.5342752477347084
v -8.6466870752645413 28.076353336612939 -1.3465908445350752
v -3.177068019840791 25.507137291747846 -7.1198712285797789
v -6.0984148741311497 27.229927221029289 -4.530053764503573
v -7.4287765057957751 27.797657648045615 -2.9983846986846117
v -13.360852630782896 10.862309587909337 12.365312653978917
v 1.740937813622264 13.935145484463142 -9.4658763185209693
v -13.901856164345933 15.622452371592978 11.794393741666909
v -12.181649617269164 2.2813742985595922 15.762871599646502
v -3.964384267528291 -2.2951202350393656 0.24949662096261743
v -12.667823548822941 25.572864137618485 6.2588118926379268
v -13.26548896300022 24.006809815409525 7.8778443577832622
v 0.28896957730185396 20.521174500855984 -9.1804031590936468
v -13.933556790643209 20.091948316147086 10.35144815044552
v 1.4185900313825943 16.247631369351748 -9.4653510058986363
v -9.3966050820661771 -2.9262039505375359 10.748342703994076
v -11.242281041774415 -1.9949600227707178 15.096871424390798
v -10.346736261344983 -2.8971161253949163 13.010866419659543
v -2.751074889658716 -2.7207165214086171 -1.6842036024117131
v 1.5032721346280655 4.1179889706670387 -8.8975054350548746
v 1.8795811273703813 11.497752347439757 -9.3799594519017173
v 1.7461819459726553 8.9497680202953909 -9.209431736231716
v 13.873460071276511 79.754815561191378 9.4418899221936847
v 10.972503959930343 81.839303787184747 6.033488227075086
v 10.017426425903523 80.878518528298272 0.7855851279190692
v 23.370278481004867 67.46744044246924 -2.7421408863722152
v 26.399191641658273 67.241991615854261 6.1841357039499698
v 10.34671201008663 81.68749098886218 4.1980459338913345
v 16.509985095069119 73.805732678779236 -6.8580424899856709
v 10.661688395506388 79.937997351924722 -1.9534971360371904
v 18.036041551868312 72.15179569561144 -6.6266762245443465
v 15.374521363095212 77.470802735345245 9.7056317470018865
v 17.807727169955829 74.281293563263787 9.7907784550950332
v 24.079476515248093 69.195601111403704 9.0258171827103126
v 20.804476005727317 71.342125241698028 9.5739611702509535
v 25.490278565253401 68.292199157470918 8.3313792417434733
v 10.230291282513473 80.385063589554676 -0.66776102248341662
v 25.529341631695978 66.623495928281343 1.1321511945457199
v 19.279108397965036 72.783172532968521 9.754807100087298
v 10.068171262507079 81.266520283688948 2.434503945810877
v 19.560645374578137 70.656087957387271 -6.1044049567443555
v 13.357197259739753 77.233212807574745 -5.5801534714101333
v 14.968049484752623 75.494187935958351 -6.541075531467901
v 22.514340824168901 70.201434473031597 9.4030798834451854
v 12.226348919006597 81.42201131491727 8.218318901756021
v 11.892749087080551 78.732561797203857 -4.0152702953037984
v 16.493223045240455 75.850149085993749 9.7704574256588526
v 26.219253362534783 66.722717589372692 3.7064260003607741
v 22.252392700485149 68.270415001731152 -4.0794304364995471
v 24.329426284128722 66.963863811901376 -1.261455927816288
v 20.950208081527812 69.348416689596874 -5.1862473683619532
v -1.2052859416993702 43.643144855938232 29.126022272149257
v 3.9899067676854663 50.99129543786826 32.298186489669611
v -24.64773568918617 54.339359800850531 -2.100448595164798
v 1.6941608945360929 47.439788203021408 31.096090976417024
v 4.9524596214481278 52.801229873543093 32.143430597519163
v 3.6153916681968057 70.097773385380833 -13.843856510129822
v 5.9353251928553998 70.963430156838655 -12.618397107443203
v 12.544259215396167 74.045774757275836 -8.0881009690534249
v -6.4791962826484957 39.639073644410914 23.455156757820458
v -14.072193710865783 63.197189783809677 -12.056299886262867
v 12.227612309245149 72.999118925013164 20.657457899415995
v 12.838210762494541 74.16985884361668 18.80573347999502
v 13.360635561511431 75.083975881171853 16.686397608262507
v -10.563141055722344 39.323828767415677 18.438440694791474
v 16.557385681630741 76.565242376685546 -5.7283402100270582
v 6.1757413043241085 57.413287521710657 28.429577634937591
v 22.763282379294701 80.976473606142577 -2.5766229128814029
v -23.745347169422391 52.452848295901362 0.25529584497318764
v 2.8990394660762782 49.21471191608412 31.857062573966097
v 8.3133331070774776 71.923281610684157 -11.0598295466043
v 10.340932544185051 72.867078365485668 -9.6313479140309788
v -11.88557176003212 64.206065980689345 -12.986355271627971
v -9.6820794310033413 65.150061657339535 -13.799505059663767
v -16.434104392113063 43.553036331257921 10.249019981105027
v -15.36515244039964 42.393881456244294 11.759756441064294
v -19.289149772580782 47.192644776219794 6.2076819168748125
v 15.374521363095212 77.470802735345245 9.7056317470018865
v 5.6330739062224726 54.517138217431238 31.284296733815744
v 6.0145381472427566 56.042838579753798 29.973926954549633
v -18.436776746134363 61.077813628428245 -10.314195613691428
v -16.242790706663094 62.151508815776694 -11.117062620023631
v 14.404854202752556 76.4984606108506 11.989152065849604
v 13.855278507320371 75.830480756659256 14.395071235923425
v -20.590493083535328 59.939895477488861 -9.532558398071096
v -18.444421860210319 46.135338102903617 7.3428499564279779
v -7.7775949503025101 39.355957893761939 21.801271509391171
v 9.5029603262349518 66.574427167127155 25.24447030179897
v 19.856795548258297 78.960741320551421 -4.2994509643752545
v 6.4749316207874816 59.010807666141432 27.107291054554508
v 24.020455444850455 81.763205979318656 -1.53548312753313
v -13.109855876547147 40.441323270488517 14.986814041203866
v -14.298545115271093 41.313910013215164 13.343255732394237
v -3.1517098778084889 67.576276571350917 -14.918674557561918
v -5.341132753284251 66.817740344301541 -14.794964109969399
v -7.5160258679230019 66.019697477695217 -14.427427374298885
v 26.082646486253921 82.91637181666934 0.76705762019552348
v 1.3102559273312941 69.217613659545208 -14.556151170560273
v -20.22736096050674 48.22902731901506 5.0754476194763196
v 8.6987909199717315 64.657916598861561 25.695483514632404
v 18.228670855443156 77.774053561882326 -5.0257433039225718
v 10.216753231015936 68.369601728626151 24.481680568745503
v 21.377042366974024 80.039353097462566 -3.4932171483434065
v -22.225199823110515 58.926706366003515 -8.6892321378218291
v -22.186105322022748 50.317687830552394 2.7024118576596763
v -9.1904056270277152 39.1882125649663 20.160227774769357
v -23.51713402966562 57.887479494683461 -7.4883347093906423
v 14.968049484752623 75.494187935958351 -6.541075531467901
v 18.141168901670401 79.613036908688031 7.6878958205527308
v -24.361432435550892 56.859958393555999 -6.0741744770572126
v 10.917438285060207 70.073009887441685 23.514047966728086
v -0.94638729042545655 68.37679598278352 -14.872618382823772
v 16.614901769093308 78.547380687288097 8.5060789538495847
v -5.2222712804605571 40.155355930467948 25.006935319428177
v -21.215596338266472 49.255115621236513 3.9144640077777701
v -11.869976105380131 39.758339217810018 16.696132960356003
v 19.735872510969138 80.556813477841217 7.1538599521525477
v 0.33605887072620966 45.544476390889621 30.249216616402855
v 7.1112233125187672 60.890016394009976 26.388520026160919
v -4.0251137749786148 40.879480610304547 26.447922208369341
v -24.805912420580853 55.91125594526099 -4.6301043783621942
v 11.591264118379131 71.639730696668352 22.251946487558818
v -2.8762144739352951 41.814632901217536 27.749380941848734
v -17.435479653210784 44.82079646682017 8.7809031926764476
v 26.787167951716512 83.314772235509082 3.8756448858604347
v 7.9144158655337229 62.798680549170186 26.035210805843331
v 21.270305068265699 81.354923915858208 6.7839807952953901
v -24.358840756034134 53.625792980421906 -1.1386841843233817
v 25.182859890209542 82.443463706829149 -0.4101028173260291
v -24.811572587543861 55.095255413724942 -3.2642453549494901
v -23.010467904579336 51.351439318917159 1.5257071552886792
v 22.704914262098946 82.016458018826853 6.5296555932816114
v 24.046056184097974 82.568578780720571 6.3526838233994836
v 26.665719693489066 83.214160924226448 2.1355894619949121
v 25.587912898927062 83.112952509784918 5.8663392478341159
v 26.07467915441989 83.240512487067363 5.5177101837512232
v 24.892680502262589 82.885068652444033 6.1522747446383956
v 6.8780950882252121 31.210217421802064 19.038828607955104
v 16.999081031270684 52.157127164104693 24.492317778207443
v 17.161378724216394 54.125732086534143 23.453060232974057
v 16.017949826520315 40.008410813218056 -1.2235262526411077
v 13.169836661093623 36.918574198013914 0.6618054624440578
v 10.382512393849606 32.556537034294692 2.5811600966473534
v 7.3422962108159187 -2.8943186628380801 2.8301451446754928
v 4.7705389355633638 20.567543669048213 21.807759081590994
v 1.3693317266125538 12.090209834853606 18.973182370696126
v 9.8242370825525978 16.896215774000538 0.277410891927938
v 9.3280688994881231 14.691202439260262 0.18622402086337503
v 8.8838320092696001 12.567284942157809 0.079354459453464365
v 0.43637699359889626 10.15424685044227 17.952656665472375
v 10.129490635982613 19.161682402068351 0.51430050486281487
v 9.4181170235546912 4.8027891963681473 -1.5359596826369524
v 15.412160123801883 45.437393179915219 25.057617193208564
v 16.253635553031092 47.722869597785319 25.399410962990043
v 22.970243467734747 71.425776330589883 8.404148470593384
v 8.7455823811063702 6.8603115347272201 -0.79159685683442405
v 16.736622443948427 50.009087209527735 25.182501142505458
v 14.661410102717525 38.527649251371052 -0.35196240632720144
v 9.8475313541291545 29.395990367341899 2.7533395618832799
v -1.7551654110200503 4.2309356348423366 17.7717475078449
v 4.8573030441683649 -2.7456042057437768 6.4989309598402158
v 7.2218476165042178 33.116295527528862 18.639498270893355
v 22.761540792627869 56.12195340423068 -3.0910539980931198
v -0.44810472979498506 8.1624975995779963 17.096556965823744
v 22.447214676927896 53.902828564358515 -3.422561874980242
v 24.252331236160618 80.984009117426297 6.2968990712320725
v 2.4130322042295478 -2.5358587321624464 10.224042115847441
v 12.925660110523225 41.095372148648671 23.241288326783632
v -1.2382689640122357 5.9824538770319196 16.953281766985207
v 24.22268063086112 76.139050372693305 6.7426531144200919
v 21.198003165969162 49.241756338415605 -3.5739795363988853
v 20.226783414297302 46.7012446882297 -3.3267736230650304
v 9.9349781063915348 31.119265854449296 2.8307572714894906
v 21.960420529512916 68.380360964017044 11.810130261677541
v 21.572711223478514 66.794741301707603 14.170382893950171
v 6.6265814943842862 29.291685600652372 19.893695739336774
v 17.564113194270398 56.092222574928606 22.510802989234392
v 18.871420223576063 44.088080111799812 -2.7602687081364641
v 10.272680599570144 23.565249989630413 1.3355519660681314
v 10.114429435061005 25.603055921221781 1.9017571147848975
v 8.6437837202596075 8.650284288952971 -0.45937767613779401
v 24.366584041861238 77.751106648315144 6.4768029809203203
v 23.925712113535777 74.53075076911523 7.1532465512718026
v 8.6162503643267137 -2.9059083557537875 1.0296702965623878
v 10.424074235460377 2.9788279669123878 -2.4240015430818378
v 3.6356656481560079 -2.6474639847023971 8.3501710955234252
v 26.193531911071375 76.42215621624527 -1.0144024124903148
v 3.2011239642564067 16.16784774920075 20.79413171952794
v 26.117439464042601 78.493705322805454 -0.92387628086548457
v 24.821596917234878 68.576046528783706 -1.1841631773296912
v 23.105624545973548 61.054186992072225 -2.0679215696453044
v 9.9508864560208448 27.548415312842693 2.3905620074285956
v 17.169187223803618 41.442935668739423 -1.8944071602150743
v -2.1099454715409349 0.8080195139242734 19.413124800254433
v -1.27134449955902 -2.3544559704231656 17.880233418759836
v -1.8192452781466992 -1.0343367160764552 19.176451282232591
v 26.076650791061475 74.355128121611756 -1.0812606432851961
v 11.058141352602249 -1.324959850682828 -2.4479871409146723
v 21.199779955517208 65.243349471402155 16.360112342350043
v 5.3991554971185725 22.839741132023427 21.770312509127645
v 18.198855393565275 58.041557088635528 21.665929957878426
v 11.178153849449355 0.90685150852039464 -2.9390370529455838
v 25.737133879794715 72.334156018398943 -1.0987322732001614
v 23.522022431630191 63.915922944435351 -1.5713927356514925
v -2.0717258071178342 2.6168179660235422 18.830427355237319
v 2.3114378539435472 14.058145354978464 20.001058305516722
v 25.336410161800138 70.382554094795296 -1.1524287024782021
v 23.832323342193828 83.758959146327697 6.4234079252367593
v 4.0316926386603518 18.331409624035153 21.452352790574757
v 25.728878506815967 80.509463231156019 -0.71497826167824907
v 22.928952799954459 58.368978643832236 -2.6391148508172986
v 7.911754870090828 35.161710886189702 18.945767012262518
v 21.916728199782035 51.634801185553584 -3.5874946063039381
v 9.9904447034755801 -2.6571036291568242 -0.86778404070056681
v 5.9016529108100499 25.077768396211795 21.341485458306074
v 23.489473653533814 72.938435626052808 7.701472214159212
v 22.514340824168901 70.201434473031597 9.4030798834451854
v 1.3112084549470411 -2.6536435014692987 12.151820229979363
v 0.27404758140732399 -2.7300773976872561 14.075954796131505
v 6.0898791441085187 -2.8233816822085687 4.6549520404447753
v 11.674162604667506 34.997811130772483 1.7097159288007431
v 20.653111210342743 63.572130050174792 18.258010763585371
v 18.989841384284187 59.927269747788799 20.782264328877737
v 10.308221236253777 21.409708156281994 0.8358828956313149
v 8.6471643416319424 10.546267253861764 -0.15782303125902919
v 24.329426284128722 66.963863811901376 -1.261455927816288
v -0.57411112502742245 -2.7757774638384123 16.02051585384644
v 6.3144595624475865 27.244944923341031 20.706842595777101
v 19.863843288006599 61.74094562222831 19.771586353686196
v 14.295216236341865 43.214258419166967 24.315239776042301
v 11.351154842677635 39.073792481286212 21.922187822567352
v 9.0109215698857508 36.667716277905171 19.879452410408554
v 10.218439375255251 37.877191227568318 20.938172726154832
v 24.36466252467644 79.368373620371131 6.3356612113150028
v 23.597447814545969 84.843074909022604 6.4468965732738299
v 23.392296953568874 85.783266782503091 6.3723175072733831
v 24.706978885252589 83.67851646011016 -0.078814678354337794
v 24.197609740715201 84.750354399897844 0.37188908090148587
v 23.361551230859206 86.307881456865744 1.4922667530445284
v 23.719148471203184 85.618510654312558 0.92433892805567486
v 25.182859890209542 82.443463706829149 -0.4101028173260291
v 24.046056184097974 82.568578780720571 6.3526838233994836
v 23.168189961189331 86.755114843623957 2.077173982231594
v 23.011003481313026 87.215912953570978 3.4649854632731536
v 23.033805641095014 87.241167536072595 4.835074898978589
v 23.219145781079995 86.448098069366551 5.9920622058987609
v -23.02354994040542 51.361092970086005 4.4501809323016666
v -22.426827100558768 33.274141990162207 -11.192930731712092
v -19.884437259426285 46.244902810910347 -4.345797567751541
v -7.5584627004479223 47.866554910421726 -14.141933601823968
v -22.039500366297347 35.957791819655327 -10.287528858569155
v -20.033646405897535 29.423246472407303 -9.8540085077200228
v -5.672065048018613 40.380312166737959 -8.3555193073570067
v -6.4281555900888296 42.408900720282816 -10.389372872138138
v -21.209149028443342 39.321467123924521 -8.7536556483662782
v -5.7571061537230683 27.425325799750443 0.56273851918097995
v -14.579925346100881 75.03355647627032 3.9777109630706216
v -11.13645099608453 28.691111453552821 -3.0918377671517261
v -8.2836732247585321 56.526490862354109 -16.064996889372622
v -2.9325251981755018 28.165428873762771 2.1373804323634342
v -23.513214358357562 54.085846023621116 7.0802175424798257
v -16.441266820989306 73.566032280723888 7.1148906690190241
v -18.679868604130398 67.908035889573526 8.9662984911420587
v -21.975238012319124 30.57499432869124 -11.302157215148849
v -18.018799678231268 70.01765205911515 8.7158408779141823
v -9.6820794310033413 65.150061657339535 -13.799505059663767
v -4.2461043231227826 27.429848067252415 1.4798711747217403
v -2.6587849914628539 34.942828198633734 -1.0907793604008862
v -13.014341651301095 75.03088373966294 -0.17233505102179264
v -13.7069106543582 75.178974252697813 1.9055228315597359
v -7.2783312396404156 45.918491957032003 -13.06610293095418
v -20.408850420109104 43.035485044012191 -7.1867796206536934
v -10.190497647226479 67.169084366176889 -12.763940468260841
v -10.647298104788348 69.047231947315851 -11.365448726738883
v -3.7316406869634635 36.82087734692665 -3.6437700899236996
v -8.0686746436337451 54.302323490786428 -15.921182900940881
v -1.5326837691370958 31.743271138993407 2.0106317374577172
v -8.5299531540374556 58.746894736960719 -15.852060365283315
v -8.8564974956158586 60.937244206896111 -15.403248180129815
v -11.711544093486498 73.258181587382239 -5.9676762588316929
v -11.424139820218823 72.311401306021764 -7.588772651154482
v -22.236411004423939 56.949867106180392 7.7593683513813279
v -20.712116641834029 61.111788389961021 8.4738650885156019
v -7.9295399483306355 52.085054036899329 -15.620252443761444
v -7.7630629483814229 49.93484643752015 -14.993827584141229
v -6.9019303340467193 44.105054483712351 -11.801136578007833
v -4.7622422870645114 38.55485657048628 -6.0902795258299705
v -21.654692314152449 37.580228480318254 -9.5096499920713242
v -22.186105322022748 50.317687830552394 2.7024118576596763
v -12.475547497595871 74.637509836022048 -2.2109973498892317
v -20.061507211380047 44.73247484157514 -5.9145344496393744
v -8.6466870752645413 28.076353336612939 -1.3465908445350752
v -15.760217132048773 29.302778845789803 -6.4846689049479469
v -13.500889437343117 29.081736928250553 -4.7973323464545476
v -19.37034253970992 65.71611751586002 8.9863664296304435
v -1.966184673653478 29.266370604061869 2.500179026653838
v -12.054411813896284 74.042827951872468 -4.1617742436471215
v -7.2499566987506565 27.720991923698413 -0.40873600398636289
v -9.2420890256621391 63.075866096627536 -14.706180874379555
v -15.441033747402869 74.495195300586374 5.6335230009396851
v -17.93491150039732 29.343368358514976 -8.1638628819698802
v -19.995294542647979 63.435744020964378 8.7948726710148613
v -1.6081628893648388 30.59222089013435 2.4382574710996443
v -17.264480228375476 71.94089572298688 8.1176853299284168
v -23.625273768402209 52.536120449742015 6.0176634141808041
v -1.7050529148020115 32.54103712342107 1.3912981828503885
v -20.826821943780494 41.228880659408354 -8.1620644795904695
v -11.026614028302443 70.737602238424273 -9.5956151222490966
v -21.269334812232458 59.002435557875941 8.0532256576375154
v -20.635850106650878 48.537283911222104 -0.75959523073588053
v -20.051427857212744 47.547608227806414 -2.594761901535267
v -21.382404543254435 49.441575220113478 1.0082298598820947
v -22.61636248185058 50.830896673261535 3.6018948268149802
v -23.241069913816233 54.885840173926574 7.3840505468088562
v -23.642051737004742 53.2938932358758 6.6177301400523909
v -23.367666000038099 51.917885090115455 5.263892244599397
v -12.612955534484893 5.9092770138034041 13.602122456137174
v -2.7344041808693484 5.455150157301377 -14.574533596266432
v 10.023361530043738 6.3523197982573887 3.8042069657164035
v 5.5460606190828958 6.6914372484420408 -3.7271848702785402
v -1.0895596617155316 5.7873609692173416 -12.985239226182845
v 8.7455823811063702 6.8603115347272201 -0.79159685683442405
v -10.145297333283136 5.8892706895793641 13.9086167540076
v -15.213545900230812 2.1769125970544834 -15.455253523983284
v 2.7952449753380315 5.3728853400977155 15.111020240582592
v -12.131173889837171 3.2505462062795418 -16.703703868447374
v -10.344273732767308 3.7826649241715122 -16.963752512701774
v 9.5933591555903579 5.9049568799292125 6.0597385728427788
v -1.2382689640122357 5.9824538770319196 16.953281766985207
v -18.990131528723104 0.83025262095326013 -12.059981999096347
v -17.270125659672203 1.4172401060864728 -13.920637486050758
v -16.798584987935129 5.3841620017935305 12.691810584624603
v 1.4861935711028667 6.3089418485336726 -8.9875201855551765
v -18.6517518664131 4.7907585625431466 11.621270537794025
v -20.189562087901628 4.0731128366351967 10.111168535785282
v -22.86898092088596 0.87473650379632062 -0.69002051911456208
v -6.4870376461121051 4.6935938410421656 -16.598617436665965
v -21.377609303982709 3.3144553600040028 8.2671162844598562
v 2.477029229422441 6.4597998732245392 -6.9445687384962582
v 3.8332682754687628 6.5579905723486789 -5.1388280187013748
v 4.3758351545953449 5.1514521583325399 13.510939640506061
v 9.7776143575866037 6.721152631407036 1.3765376241979994
v -13.768760465738666 2.7019369729685105 -16.192244139846764
v -20.351626068638829 0.46365534546819798 -9.9214032178624265
v -22.193467522097755 2.5889508170467259 6.1761640634314974
v -21.330408277086129 0.35498318977667687 -7.5668477932119256
v 8.5141775104152622 5.4519346024176434 8.1523913052641976
v 7.194078283627559 5.1437195665795485 10.153065810961008
v -14.73505368537192 5.7673211307228742 13.262314043698437
v -7.8279195780235131 5.9689825921218169 14.675077768046441
v 0.95794919003003975 5.6854926899957796 16.452905298443124
v -3.5674600542189792 6.1504953392606367 16.661095014056407
v -22.028541414769986 0.39488310703815355 -5.3253088730504619
v 0.37795358116593902 6.0756212734959636 -11.13463816713584
v -22.929973688473506 1.3344156668399643 1.6499118338712331
v -4.5553406330482735 5.0918891646631836 -15.797884771700321
v -22.733086182640683 1.9040749831207551 3.9609499745716281
v -8.445635953216625 4.2617299280507623 -16.963454908735308
v 7.2475498939196932 6.8137962909336744 -2.3615950396457936
v -5.6786862809175638 6.1007477408562591 15.678356361885792
v -22.526559054595179 0.58481714843719446 -3.022961649199595
v 5.8204262095352881 5.0624124174143983 11.843506714234881
v -1.2628931197176407 51.421576793586127 31.996782206343148
v -0.34111746027733097 53.406232136332306 32.373057746032856
v -16.714712491703629 44.118863765174638 -1.6445531629050847
v -15.864184746518461 43.205986953193175 -5.8352926878691163
v -15.340315613701726 43.367492968369817 -7.8063012171030035
v 24.612983081155718 58.154546117187849 9.5695924931959517
v -16.513708997625415 48.548187282756757 -11.632217156974232
v -0.71180551428148076 75.06265204229345 21.32156582578488
v -27.592269846728737 70.928732348005838 3.8692230962014209
v 24.673799948377329 57.646867100941762 5.1021577757166288
v -14.150209591605492 54.303093473708941 20.146251091918607
v -18.543544968141475 47.72948504408749 11.495719219523213
v -8.4657877751784127 59.830999563828314 25.061858433710203
v -12.186607890249537 43.263069495687979 20.706469943145088
v -8.1319634666779024 43.83131025347825 25.77134320202498
v 24.259829164419138 58.582608291836848 11.587996590769155
v 0.56791966656213633 80.546149814341092 8.4290096820879974
v 0.49523177389031148 64.591147933088848 27.406612179178659
v -0.12451358075871947 69.652303886577073 25.711114797710913
v 6.0412138792095131 64.88254177711616 26.554063522170726
v 3.2987185675861603 64.893884904607532 27.155894091860752
v 0.73984760315816822 57.284119340715314 31.410033516547124
v 0.86491188362683324 58.81013280878129 29.851621816433813
v -21.964656265774273 53.796421755721674 8.4310223276741141
v -16.358997998181476 43.587643815208772 -3.7804249375877461
v 0.31330432234544692 55.437185122797956 32.376025850219762
v -21.708257699949005 62.78503798554334 -8.7751261770441538
v 17.897309633503099 61.966792451025313 -9.8715807112752909
v 23.489950586038706 58.024306533710501 -1.1074164106088538
v -27.225816432581233 73.436315801543614 3.2178664735699378
v -18.603380732171971 54.858496099392752 -11.021741061575931
v 23.697103334266302 59.164716596478996 13.621354291848105
v -20.977215546219686 52.62227122506313 9.7081279843292911
v 8.3133331070774776 71.923281610684157 -11.0598295466043
v 7.1100213308386815 73.614620067140066 -10.148260555791627
v 0.81962666758040958 60.529140261422683 28.441813832324023
v -3.8993721188067441 47.635728539918659 30.58549976181547
v -2.4757388715200328 49.478320243249769 31.46331784958366
v -27.681925107351582 67.482795501591198 3.8175676149913214
v 12.354457000490696 64.019446949364465 24.054868079485992
v 3.1667609596973056 79.19260042371549 -3.2844153101350906
v -18.560005810902084 46.870153690114336 9.4394110148640689
v -20.045167465003153 51.396769507980615 11.002781023579907
v -0.17936050462556624 79.685027514336952 13.22267737333426
v -5.3184156477561686 62.285681900117467 26.752047499383472
v -18.340752525024214 48.72906180950276 13.472409940356719
v -6.9255501807477833 44.633024987258345 27.402744427038495
v -1.5287182408917599 64.098148246737694 27.391341579118087
v -14.7888293478254 44.679043137086239 17.623732665607115
v -20.590493083535328 59.939895477488861 -9.532558398071096
v -18.444421860210319 46.135338102903617 7.3428499564279779
v 10.5338252194208 64.383501254504623 24.902161660247785
v 0.99920142677301849 80.65622229607078 5.935739960004673
v 1.4406673586939269 80.643733615461258 3.5368782199891378
v -17.785717424616394 50.021806812370812 15.563431393505308
v -15.623743307966043 52.864933350898632 18.949090035041465
v 5.98833320593506 75.350379547228883 -8.9171264543845581
v 4.9163076957356502 76.94090844543328 -7.2569100742725254
v 0.18010951607262132 67.281544460528224 26.691287395581803
v -12.5467423613783 55.804084790193905 21.216248071006479
v -9.8084594765424136 58.535016392914358 23.828789319900686
v -17.257484646384654 50.794653509912877 -11.817932600696249
v -15.248413071580712 44.277785640653661 -9.5149381219842297
v 24.727000821125266 57.844799669582514 7.3937509261483623
v 2.5136519460346261 79.892737733155286 -1.1463503791040535
v 18.040221518317814 62.458683871587667 21.202030817717898
v -27.414337960659903 61.091248190322361 4.478596573446727
v 0.68269057371845332 62.617369839135335 27.828478955558023
v -0.38803447207032576 71.701467153290253 24.445784547705891
v 8.6987909199717315 64.657916598861561 25.695483514632404
v -27.6267228282139 65.503027330979791 3.8807090887612716
v 23.966078214181813 57.788732950983118 0.46494352638092384
v -10.794982440980757 43.11122590335448 22.346763736384453
v -3.4836975406684574 63.308053971970423 27.169330670169053
v -22.734590675691855 65.558590673232317 -7.8625038048758178
v 14.751969693830272 64.760065610589777 -11.755912228557218
v 24.31573645051806 57.650096696354524 2.0492616862713904
v 19.384519761586944 60.828221196774109 -8.4734058118012143
v -19.212264819256106 56.625904881566143 -10.273473674736783
v 24.544619012102515 57.603044041524164 3.6055822385971124
v -17.985775096423339 52.933450603316587 -11.728724845520341
v 1.9439297818329611 80.353491521239505 1.1553212779431419
v -19.911445097150789 58.330864926650975 -9.8590865301336876
v -0.64780064803720427 77.775504709833271 17.577809520577887
v 22.928952799954459 58.368978643832236 -2.6391148508172986
v 20.747235580365626 59.853064379780591 -6.7762015454034952
v 0.17229631421980174 80.2349773119481 10.862628832577744
v -9.4509301758220552 43.29951516606036 24.071765954556511
v -0.72890303521078126 76.46906432943895 19.505608135505987
v 16.096639307842104 63.060386665611667 22.241540652219321
v -23.629000560597866 68.234378722800571 -6.6312785508741436
v -25.720010896135754 74.303736227640655 -1.2012963569577535
v -24.009855173139321 69.460543259561774 -5.8882269254154558
v 22.144069712112632 60.522392785041276 17.169420969257644
v 13.084474911290144 66.36145625497538 -12.108458385339448
v -15.921348861177206 45.878448046459496 16.158563812218816
v 21.932393029911808 59.039594937477602 -4.8068534260114451
v -16.828393109662699 51.428734256407949 17.381411595805375
v 9.8662057783717394 69.989138498812139 -11.818508398631785
v -0.45752854487947725 78.843971722012185 15.467572869173463
v 21.053664936737182 61.170299727150876 18.590961926123619
v -18.184060375808539 45.469950925458015 5.0596499770023105
v -6.9876893147239159 61.100267175483367 26.062142819894198
v -11.155457792490008 57.195790806781055 22.534098427463139
v 3.9065521581903111 78.299725676254582 -5.2048694446951096
v 22.977518647736684 59.824857273911249 15.479012418593481
v -19.196929481046212 50.071374195732375 12.263256262634041
v -17.17446843610054 47.22720503882087 14.825977416313751
v 19.863843288006599 61.74094562222831 19.771586353686196
v 16.318541066590182 63.270988976596385 -10.94054471361601
v -0.59598899362885738 73.525007221752361 23.014276060476284
v -5.3743212605728381 46.025162585709261 29.15388392699494
v -15.703582202100124 46.29121101392667 -11.029700917259381
v -17.241253073420541 44.510497413178712 0.55133223000542797
v 14.2016848529267 63.577064483183257 23.174495360462799
v -13.521026656127615 43.796658581939539 19.125957960561742
v -17.754045380265829 44.952063562554173 2.7879461170096045
v 11.460864288223625 68.121042404947715 -12.156187971839817
v -27.674629321980827 63.432234529918247 4.1560031917286775
v -24.098471779165177 55.547468013293781 6.9013716145871475
v -23.241069913816233 54.885840173926574 7.3840505468088562
v -27.431620404088974 72.318701642530414 3.6376695407003226
v -25.533699534425438 57.007608078128783 5.8067712603817441
v -24.835689548642243 56.244045507518713 6.3195399515272257
v -26.147375021447477 57.876596799137914 5.356807638662108
v -27.607558628169819 62.27299986156212 4.3122273679277114
v -27.672014944625495 69.302516218385364 3.861321791675572
v -26.980748189323066 74.187650033659168 2.5663450074026217
v -26.568472912260646 74.802837523517525 1.2950169422272442
v -26.710284373869001 58.857826199429823 5.0440117103057753
v -27.155442388593876 59.944024888657253 4.7925696528290684
v -26.113052022067947 74.728168820215771 -0.00090210894989071902
v -25.032545612959247 72.724195063717389 -3.2596441345425373
v -24.718307266266443 71.763231403994254 -4.2329339020892434
v -24.370244823747406 70.640858925545132 -5.0771478692848557
v -25.36397382718296 73.599465330772034 -2.273061787239425
v 9.2745417330488618 38.916254627529852 23.445549639693052
v -23.881045144114708 24.156905825178569 -19.344389170843414
v -12.982315146169555 44.452641633971972 -9.2488555716857164
v 25.354570205299972 63.577927684549337 4.2747557699397936
v -3.7633414875764961 -2.8597276828967688 -7.8801197336018252
v 18.640035814542181 41.297877571929234 1.9092811275667718
v 16.428362565665232 38.202967099575787 6.6890138483078729
v -10.618243061401884 -2.0979078745571527 -12.486732737405109
v 10.330735212159389 -2.4184787374857626 2.3019852184928502
v -6.4281555900888296 42.408900720282816 -10.389372872138138
v 13.375754963410888 24.915328884032139 6.6406150056304423
v 0.18070872318639569 40.736284252407003 -10.876444014031044
v -18.323548971433215 41.917527827797635 -11.776682075641741
v 24.673799948377329 57.646867100941762 5.1021577757166288
v -7.8632123481918086 45.588546553674462 26.978748184691398
v -9.8422298787913221 49.218428728412761 23.754947657022868
v -14.150209591605492 54.303093473708941 20.146251091918607
v -11.634104550862293 51.806103868721117 21.562654261597082
v 4.9699106226248908 -2.9741524904034939 -1.5957146831415052
v 27.724055988891621 75.523929755793006 2.394554027246568
v 10.023361530043738 6.3523197982573887 3.8042069657164035
v 14.503697484739886 39.499731200123051 18.817054712855821
v 13.751336322443947 81.859220639222158 -0.62659206915339061
v 18.964584654125652 40.775873459645773 8.5562590717587064
v 1.2555894466026407 77.780707315814283 -6.2584592881163168
v -2.1000295721069007 41.167923015185551 -10.838099382752151
v 6.0116683752527464 78.670843717948301 -4.2262518781815093
v 16.964970069314635 39.978820256998873 15.124099569532973
v 7.0767359569757602 38.831774400075062 24.834497029732781
v -16.853623546760421 69.912288174211227 -6.9080896893978876
v -14.876377820546587 70.662157949026252 -7.1403407140143118
v -8.9033902343741076 73.682477471715146 -7.7839652531911243
v -17.219221777342586 57.111774000123589 18.090517152595236
v -15.755478184064664 55.74873739354949 19.242824916112234
v 18.023142320591568 41.394363028797159 -0.086195474366487543
v -12.107913288522251 -1.3915063786833133 -13.486720353436819
v -14.415528506908036 0.86138497680458948 -14.949612188946894
v 13.605510575927669 34.973963577849361 7.1633298320586647
v 18.564682117209717 40.503439189467954 10.844567004024086
v -8.999084273663442 -2.4406515080675528 -11.34114355206307
v -7.3036154898571262 -2.6619861965471152 -10.172182097108429
v -21.331144437739013 68.873048406525996 -6.863708755342163
v -15.213545900230812 2.1769125970544834 -15.455253523983284
v 12.24627638265045 31.091948815426385 7.3430077143092358
v 2.5022649223252671 40.452652060047456 -10.758034000503436
v -8.7046373232300809 46.746603390328602 26.200885466375023
v 17.871596778856528 40.221151800534074 13.112663683903564
v -16.550181460431855 4.871487758207655 -16.358089519304219
v -1.9990790355945285 -2.9442044473245308 -6.6866069223786244
v 1.4758535337158487 -3.0641540907350322 -4.1887477637778154
v -0.25034051175933769 -2.9895658844316646 -5.4396952294327532
v 11.640018210205803 -0.85333102645422643 3.301269645993842
v 10.989328430080993 3.9240918467466281 3.7188836536547139
v 19.119327380876548 40.989837264022256 6.2903615700904192
v 22.215497671991194 45.449541246138089 5.8973487433265586
v -1.3312376582992143 76.982772109356659 -6.9942982528245636
v 13.002152780934908 39.27819883656263 20.445786775894426
v 27.609868515044923 73.413277989098262 2.622422861111648
v -19.90827476815663 60.103557802844563 12.875289773676844
v -8.636052324744135 43.141175587865156 -10.037563257200443
v 2.234939763558546 39.71261476971965 26.760178341754489
v 9.1917594687819566 40.590347125705804 -9.1049361364866641
v -4.9397675707275024 43.014728036524957 27.809679317739075
v -6.9255501807477833 44.633024987258345 27.402744427038495
v 10.661688395506388 79.937997351924722 -1.9534971360371904
v 4.7126335166575029 39.021204679123471 25.984395568288058
v 23.263039466633572 47.765954373982069 5.7667602015272443
v -19.347942627829205 59.335389275674686 14.886268460243507
v 14.954631012285105 36.706786636900254 6.9320407466185632
v 13.029816533886859 17.968431257195984 5.5033200715935591
v 13.555037046130863 20.282176015508142 5.8468819703112072
v -5.5314221264921706 -2.8259936092296645 -9.0496414874476443
v -12.838408459714447 53.081351343589517 20.789641493103129
v -18.765845241962104 10.179254439098539 -17.686875102998098
v 12.961849867952973 41.062515373590145 -6.9116465447155999
v 10.588908577654333 11.767674846602841 4.5489435251476618
v 14.915300358236987 82.803835554043616 -0.17786779489428006
v -10.576666982395128 50.504635824218667 22.520623278039757
v 27.25765591592728 79.473366302235405 2.223601456739067
v -11.424139820218823 72.311401306021764 -7.588772651154482
v 15.823938015911853 39.74549879307375 17.031735858209256
v -6.4061613498822503 74.95283724750675 -7.7771294835809259
v -20.712116641834029 61.111788389961021 8.4738650885156019
v 26.788067934246776 68.923298620000537 3.3118385779148003
v 16.122860165412291 83.768716881724004 0.25850961347204154
v 8.6162503643267137 -2.9059083557537875 1.0296702965623878
v -15.248413071580712 44.277785640653661 -9.5149381219842297
v -19.040198131091813 69.375513480398467 -6.8719533742793093
v -22.418195947259903 61.81417351284523 5.5865692138037488
v 27.279520735910431 71.198199260753299 2.9365475448346094
v -10.776431058674859 43.903719879386685 -9.5822934238993955
v -0.29454435158669262 40.659854945250345 27.332518441665464
v -25.209884384307514 62.716296456625159 4.4366198613668004
v 3.2108696150912603 -3.0048623514519002 -2.9020514485443485
v -13.380454367071625 -0.36075436825349966 -14.301395518988912
v -22.127340445548239 36.258224824150957 -16.439506958604611
v 20.81368279618717 43.210269804373127 6.0714880092388466
v 12.302529117738185 15.754654183891176 5.1649006627595355
v -24.407801259616463 28.587341693515889 -19.550629739600499
v 19.020566622577171 41.152970587482173 4.0472256533572564
v 17.169187223803618 41.442935668739423 -1.8944071602150743
v -22.482332515477644 19.695500589679909 -18.963525918549784
v 15.952797792849992 41.407028104211165 -3.788680999001099
v -20.708108404244456 15.119652486481037 -18.48378955376436
v 13.020762078279962 27.097474260694739 6.9587773062647438
v 11.164444719291954 40.825338690616825 -8.1150784061664574
v -16.889604919228375 43.128304058225204 -10.587319667969858
v 27.591354729494299 77.539349537554216 2.2636384977199882
v -21.619349085447883 17.440040150579009 -18.743698036914942
v 24.666895645126186 55.074092780585332 5.3442741553081419
v 24.503210201859073 52.569980633754838 5.5180674137155847
v -23.657916746645341 32.664023615016518 -18.417495816049392
v 7.0584422319420073 40.420972251592161 -9.8704586386667259
v -29.64143518080034 63.880947886607508 3.1215921549324208
v 24.7886355200346 60.568359218766126 4.7454308829074652
v -17.734894028173152 7.5363889807793267 -17.14123145786602
v -27.573532886717345 66.484735150647765 -4.6576464571309213
v 4.8213246578797513 40.31500299542553 -10.464665746932576
v 13.56301094890433 22.628788279693609 6.2645424408704953
v -24.171344729671635 30.68296894509292 -19.067346902004097
v -20.295436700503643 60.669070486279729 10.721177298799839
v 12.55729336442181 29.147758964466821 7.2144211142066741
v -30.410320025850911 64.186505250527915 1.079400598717327
v 10.045968519330515 9.8839543760747013 4.258870432310248
v 12.635680974662083 81.024854924851581 -1.0888497122658192
v -25.755313472258571 67.405978185408884 -5.8873929500298345
v 11.578610530448106 80.396540803170126 -1.5508247196620291
v 9.813148687707228 8.0734706295235128 3.9783480699878866
v -23.629000560597866 68.234378722800571 -6.6312785508741436
v -4.3103676221139926 41.729632237284349 -10.67438888618573
v 12.651570752079088 32.831143266243963 7.3193530078185693
v -18.50399638705121 58.324734904222638 16.681023462792368
v 14.564541806440058 41.26287159488195 -5.4745215186039182
v 6.7773275647443612 -3.0517645635681672 -0.29685526560381181
v 11.686793111889385 1.5118329762670109 3.6513179956114326
v 11.42031982452526 13.700151782463225 4.8495521707870903
v -22.982642385237547 34.492935236580081 -17.480431602818811
v -21.207346092793564 37.952103545099746 -15.146226854070868
v -3.8778817483362724 76.035251561975556 -7.4988621549978305
v 26.219253362534783 66.722717589372692 3.7064260003607741
v -24.306636025919417 26.380038716996509 -19.521413991933013
v 3.9065521581903111 78.299725676254582 -5.2048694446951096
v 8.2520651552440398 79.16188178431409 -3.1147514457448944
v -19.759835265082387 12.703133173162065 -18.144001579098102
v -9.3893924375744202 47.988831831424932 25.110936593077586
v -29.941240667072059 64.812315715513733 -1.0610203914222525
v -23.256351565199338 21.926751558411986 -19.154425598157644
v -29.001257318251167 65.587292646496223 -3.0245713139616548
v 17.854060648816812 39.614129081270661 6.468249590776443
v 24.02464713765195 50.136269166350829 5.6506267775049928
v 11.351154842677635 39.073792481286212 21.922187822567352
v -13.083603172941306 71.489408841141312 -7.4030764894388952
v -2.8762144739352951 41.814632901217536 27.749380941848734
v -27.674629321980827 63.432234529918247 4.1560031917286775
v -21.267189495138073 61.420328942563707 6.838179570823943
v -19.320525139329568 40.576322007854351 -13.062508570047154
v -20.237230065953369 39.268161535990217 -14.253873613967802
v 26.975012085559456 81.374015491735506 2.1691066465813327
v -23.810724032650555 62.266661373778973 4.8153697409237726
v -26.505073224252541 63.113409105559789 4.2753834596100582
v 17.345129277801906 84.725866887271692 0.65513632553354195
v 18.61544973939948 85.588452142132383 1.0158151642992377
v 23.806029715475773 86.566947600150684 2.1806237757157438
v 24.575544988989691 86.129876333352144 2.2096087503446595
v 19.986141591791572 86.259651308219219 1.358652214274469
v 26.105597388831079 84.436006751105936 2.1580475954302853
v 26.665719693489066 83.214160924226448 2.1355894619949121
v 21.49503133800431 86.665825267100445 1.7081101036722968
v 25.400633394561719 85.442811144662016 2.1795177079916588
v 23.168189961189331 86.755114843623957 2.077173982231594
v 10.382512393849606 32.556537034294692 2.5811600966473534
v -3.9949057600020041 32.566425532022926 14.223176266780918
v 12.571046263146584 33.101594757666945 12.391062935396112
v 9.0292712050658928 33.259012735719374 17.509632597866645
v -4.5898587136562812 32.839073163671245 5.7699438543350432
v -5.0392731881003403 32.536610561546091 12.053777212824695
v 11.788855271343436 32.67949242930078 4.8534826042393115
v 7.2218476165042178 33.116295527528862 18.639498270893355
v -2.4337875072492721 32.591007523618458 16.212540043907861
v -0.54474912032707623 32.538980028793276 18.047848483315686
v -2.968568093543726 32.623416899351938 2.5126525340872887
v 4.7474893676307133 32.492791478268856 -0.31248056279746089
v -3.9274066742197853 32.746560465249914 4.0109422648987216
v 6.9206396054808632 32.467054013349703 0.035250228561489579
v 10.480838181872357 33.28823614238209 15.981700374049831
v 0.36872827888507337 32.540998521433025 0.3783890823479984
v -4.9525123689954347 32.892169124895531 7.7314169682552949
v 1.902570758061519 32.684781294918267 19.155901892468044
v 2.5394172862844622 32.527280732863019 -0.19723327236765847
v 4.6124146500149052 32.853592647606348 19.369013752008328
v -5.3026717803282324 32.677196464969946 9.8146290274648837
v 12.651570752079088 32.831143266243963 7.3193530078185693
v 11.710872233170981 33.190153034669336 14.285399032804762
v 12.791640435857936 33.005696456674016 9.8662756358379085
v 8.8227135087683664 32.494658733185901 1.1035355414927763
v -1.7050529148020115 32.54103712342107 1.3912981828503885
v -3.9949057600020041 32.566425532022926 14.223176266780918
v -6.8184600174392962 35.579781688844079 14.711283532543426
v -10.212832711309302 38.140269359477713 15.951474004541517
v -5.2402854011380633 34.282358820285992 14.313174789528912
v -11.869976105380131 39.758339217810018 16.696132960356003
v -8.5043385136070562 36.790305574543382 15.272372166101041
l 8/8 9/9
l 9/9 5/5
l 5/5 4/4
l 4/4 3/3
l 3/3 6/6
l 6/6 2/2
l 2/2 7/7
l 7/7 1/1
l 1/1 8/8
l 106/106 44/44
l 44/44 104/104
l 104/104 30/30
l 30/30 13/13
l 13/13 90/90
l 90/90 74/74
l 74/74 47/47
l 47/47 107/107
l 107/107 10/10
l 10/10 68/68
l 68/68 110/110
l 110/110 62/62
l 62/62 65/65
l 65/65 43/43
l 43/43 61/61
l 61/61 49/49
l 49/49 89/89
l 89/89 97/97
l 97/97 42/42
l 42/42 80/80
l 80/80 58/58
l 58/58 37/37
l 37/37 86/86
l 86/86 18/18
l 18/18 12/12
l 12/12 78/78
l 78/78 57/57
l 57/57 39/39
l 39/39 101/101
l 101/101 29/29
l 29/29 66/66
l 66/66 50/50
l 50/50 24/24
l 24/24 51/51
l 51/51 56/56
l 56/56 22/22
l 22/22 69/69
l 69/69 26/26
l 26/26 40/40
l 40/40 71/71
l 71/71 16/16
l 16/16 33/33
l 33/33 27/27
l 27/27 81/81
l 81/81 91/91
l 91/91 113/113
l 113/113 114/114
l 114/114 135/135
l 135/135 136/136
l 136/136 137/137
l 137/137 133/133
l 133/133 134/134
l 134/134 138/138
l 138/138 127/127
l 127/127 128/128
l 128/128 72/72
l 72/72 35/35
l 35/35 36/36
l 36/36 17/17
l 17/17 20/20
l 20/20 21/21
l 21/21 76/76
l 76/76 60/60
l 60/60 108/108
l 108/108 23/23
l 23/23 31/31
l 31/31 32/32
l 32/32 103/103
l 103/103 59/59
l 59/59 25/25
l 25/25 55/55
l 55/55 67/67
l 67/67 73/73
l 73/73 54/54
l 54/54 130/130
l 130/130 122/122
l 122/122 123/123
l 123/123 126/126
l 126/126 131/131
l 131/131 120/120
l 120/120 119/119
l 119/119 117/117
l 117/117 98/98
l 98/98 41/41
l 41/41 92/92
l 92/92 99/99
l 99/99 118/118
l 118/118 129/129
l 129/129 124/124
l 124/124 125/125
l 125/125 132/132
l 132/132 121/121
l 121/121 116/116
l 116/116 19/19
l 19/19 11/11
l 11/11 84/84
l 84/84 70/70
l 70/70 77/77
l 77/77 82/82
l 82/82 48/48
l 48/48 95/95
l 95/95 15/15
l 15/15 14/14
l 14/14 34/34
l 34/34 102/102
l 102/102 28/28
l 28/28 79/79
l 79/79 94/94
l 94/94 88/88
l 88/88 45/45
l 45/45 105/105
l 105/105 38/38
l 38/38 93/93
l 93/93 111/111
l 111/111 83/83
l 83/83 87/87
l 87/87 85/85
l 85/85 96/96
l 96/96 109/109
l 109/109 64/64
l 64/64 63/63
l 63/63 52/52
l 52/52 53/53
l 53/53 75/75
l 75/75 46/46
l 46/46 112/112
l 112/112 100/100
l 100/100 115/115
l 115/115 106/106
l 162/162 177/177
l 177/177 179/179
l 179/179 178/178
l 178/178 139/139
l 139/139 170/170
l 170/170 144/144
l 144/144 140/140
l 140/140 161/161
l 161/161 167/167
l 167/167 151/151
l 151/151 169/169
l 169/169 156/156
l 156/156 175/175
l 175/175 141/141
l 141/141 173/173
l 173/173 172/172
l 172/172 146/146
l 146/146 147/147
l 147/147 159/159
l 159/159 163/163
l 163/163 166/166
l 166/166 165/165
l 165/165 157/157
l 157/157 164/164
l 164/164 160/160
l 160/160 158/158
l 158/158 174/174
l 174/174 153/153
l 153/153 176/176
l 176/176 168/168
l 168/168 182/182
l 182/182 183/183
l 183/183 155/155
l 155/155 181/181
l 181/181 143/143
l 143/143 142/142
l 142/142 148/148
l 148/148 152/152
l 152/152 145/145
l 145/145 180/180
l 180/180 171/171
l 171/171 154/154
l 154/154 149/149
l 149/149 150/150
l 150/150 162/162
l 191/191 207/207
l 207/207 203/203
l 203/203 204/204
l 204/204 190/190
l 190/190 192/192
l 192/192 202/202
l 202/202 212/212
l 212/212 210/210
l 210/210 187/187
l 187/187 211/211
l 211/211 199/199
l 199/199 209/209
l 209/209 188/188
l 188/188 197/197
l 197/197 195/195
l 195/195 205/205
l 205/205 196/196
l 196/196 200/200
l 200/200 194/194
l 194/194 208/208
l 208/208 193/193
l 193/193 184/184
l 184/184 206/206
l 206/206 185/185
l 185/185 189/189
l 189/189 201/201
l 201/201 186/186
l 186/186 198/198
l 198/198 191/191
l 225/225 245/245
l 245/245 244/244
l 244/244 239/239
l 239/239 274/274
l 274/274 270/270
l 270/270 278/278
l 278/278 288/288
l 288/288 293/293
l 293/293 294/294
l 294/294 298/298
l 298/298 296/296
l 296/296 297/297
l 297/297 286/286
l 286/286 295/295
l 295/295 258/258
l 258/258 290/290
l 290/290 252/252
l 252/252 229/229
l 229/229 264/264
l 264/264 250/250
l 250/250 262/262
l 262/262 227/227
l 227/227 269/269
l 269/269 220/220
l 220/220 233/233
l 233/233 232/232
l 232/232 219/219
l 219/219 218/218
l 218/218 259/259
l 259/259 273/273
l 273/273 255/255
l 255/255 256/256
l 256/256 257/257
l 257/257 235/235
l 235/235 234/234
l 234/234 222/222
l 222/222 243/243
l 243/243 242/242
l 242/242 246/246
l 246/246 265/265
l 265/265 268/268
l 268/268 271/271
l 271/271 282/282
l 282/282 291/291
l 291/291 215/215
l 215/215 289/289
l 289/289 230/230
l 230/230 292/292
l 292/292 266/266
l 266/266 276/276
l 276/276 260/260
l 260/260 238/238
l 238/238 247/247
l 247/247 285/285
l 285/285 236/236
l 236/236 237/237
l 237/237 254/254
l 254/254 253/253
l 253/253 277/277
l 277/277 226/226
l 226/226 267/267
l 267/267 248/248
l 248/248 221/221
l 221/221 275/275
l 275/275 281/281
l 281/281 284/284
l 284/284 213/213
l 213/213 279/279
l 279/279 216/216
l 216/216 231/231
l 231/231 214/214
l 214/214 217/217
l 217/217 240/240
l 240/240 241/241
l 241/241 228/228
l 228/228 251/251
l 251/251 280/280
l 280/280 287/287
l 287/287 261/261
l 261/261 249/249
l 249/249 263/263
l 263/263 272/272
l 272/272 283/283
l 283/283 223/223
l 223/223 224/224
l 224/224 225/225
l 309/309 308/308
l 308/308 312/312
l 312/312 385/385
l 385/385 340/340
l 340/340 341/341
l 341/341 353/353
l 353/353 320/320
l 320/320 334/334
l 334/334 304/304
l 304/304 382/382
l 382/382 303/303
l 303/303 319/319
l 319/319 302/302
l 302/302 354/354
l 354/354 339/339
l 339/339 333/333
l 333/333 332/332
l 332/332 374/374
l 374/374 326/326
l 326/326 324/324
l 324/324 372/372
l 372/372 352/352
l 352/352 365/365
l 365/365 387/387
l 387/387 351/351
l 351/351 368/368
l 368/368 364/364
l 364/364 358/358
l 358/358 348/348
l 348/348 350/350
l 350/350 371/371
l 371/371 402/402
l 402/402 398/398
l 398/398 399/399
l 399/399 401/401
l 401/401 400/400
l 400/400 404/404
l 404/404 405/405
l 405/405 406/406
l 406/406 407/407
l 407/407 397/397
l 397/397 396/396
l 396/396 369/369
l 369/369 403/403
l 403/403 327/327
l 327/327 395/395
l 395/395 343/343
l 343/343 331/331
l 331/331 344/344
l 344/344 377/377
l 377/377 316/316
l 316/316 378/378
l 378/378 335/335
l 335/335 336/336
l 336/336 360/360
l 360/360 383/383
l 383/383 390/390
l 390/390 384/384
l 384/384 362/362
l 362/362 338/338
l 338/338 301/301
l 301/301 300/300
l 300/300 318/318
l 318/318 315/315
l 315/315 314/314
l 314/314 391/391
l 391/391 329/329
l 329/329 392/392
l 392/392 394/394
l 394/394 393/393
l 393/393 373/373
l 373/373 323/323
l 323/323 299/299
l 299/299 337/337
l 337/337 389/389
l 389/389 376/376
l 376/376 361/361
l 361/361 306/306
l 306/306 370/370
l 370/370 349/349
l 349/349 367/367
l 367/367 307/307
l 307/307 311/311
l 311/311 325/325
l 325/325 330/330
l 330/330 321/321
l 321/321 366/366
l 366/366 355/355
l 355/355 357/357
l 357/357 356/356
l 356/356 388/388
l 388/388 380/380
l 380/380 379/379
l 379/379 328/328
l 328/328 347/347
l 347/347 322/322
l 322/322 381/381
l 381/381 305/305
l 305/305 345/345
l 345/345 375/375
l 375/375 359/359
l 359/359 363/363
l 363/363 346/346
l 346/346 313/313
l 313/313 317/317
l 317/317 342/342
l 342/342 386/386
l 386/386 310/310
l 310/310 309/309
l 440/440 460/460
l 460/460 427/427
l 427/427 434/434
l 434/434 435/435
l 435/435 469/469
l 469/469 442/442
l 442/442 441/441
l 441/441 458/458
l 458/458 451/451
l 451/451 430/430
l 430/430 431/431
l 431/431 418/418
l 418/418 461/461
l 461/461 423/423
l 423/423 465/465
l 465/465 426/426
l 426/426 424/424
l 424/424 456/456
l 456/456 463/463
l 463/463 444/444
l 444/444 470/470
l 470/470 443/443
l 443/443 475/475
l 475/475 422/422
l 422/422 476/476
l 476/476 466/466
l 466/466 477/477
l 477/477 408/408
l 408/408 474/474
l 474/474 450/450
l 450/450 473/473
l 473/473 471/471
l 471/471 472/472
l 472/472 410/410
l 410/410 452/452
l 452/452 433/433
l 433/433 468/468
l 468/468 416/416
l 416/416 449/449
l 449/449 412/412
l 412/412 409/409
l 409/409 425/425
l 425/425 413/413
l 413/413 462/462
l 462/462 454/454
l 454/454 455/455
l 455/455 419/419
l 419/419 453/453
l 453/453 459/459
l 459/459 417/417
l 417/417 428/428
l 428/428 421/421
l 421/421 457/457
l 457/457 464/464
l 464/464 438/438
l 438/438 467/467
l 467/467 429/429
l 429/429 436/436
l 436/436 448/448
l 448/448 414/414
l 414/414 415/415
l 415/415 447/447
l 447/447 432/432
l 432/432 411/411
l 411/411 446/446
l 446/446 445/445
l 445/445 437/437
l 437/437 420/420
l 420/420 439/439
l 439/439 440/440
l 509/509 508/508
l 508/508 489/489
l 489/489 480/480
l 480/480 503/503
l 503/503 483/483
l 483/483 520/520
l 520/520 481/481
l 481/481 501/501
l 501/501 500/500
l 500/500 494/494
l 494/494 515/515
l 515/515 482/482
l 482/482 479/479
l 479/479 517/517
l 517/517 498/498
l 498/498 519/519
l 519/519 488/488
l 488/488 487/487
l 487/487 504/504
l 504/504 485/485
l 485/485 492/492
l 492/492 491/491
l 491/491 505/505
l 505/505 507/507
l 507/507 514/514
l 514/514 522/522
l 522/522 497/497
l 497/497 516/516
l 516/516 518/518
l 518/518 506/506
l 506/506 499/499
l 499/499 496/496
l 496/496 495/495
l 495/495 493/493
l 493/493 510/510
l 510/510 478/478
l 478/478 484/484
l 484/484 511/511
l 511/511 521/521
l 521/521 513/513
l 513/513 490/490
l 490/490 512/512
l 512/512 486/486
l 486/486 502/502
l 502/502 523/523
l 523/523 509/509
l 584/584 627/627
l 627/627 583/583
l 583/583 534/534
l 534/534 579/579
l 579/579 621/621
l 621/621 578/578
l 578/578 569/569
l 569/569 535/535
l 535/535 565/565
l 565/565 574/574
l 574/574 625/625
l 625/625 640/640
l 640/640 637/637
l 637/637 526/526
l 526/526 548/548
l 548/548 527/527
l 527/527 528/528
l 528/528 586/586
l 586/586 636/636
l 636/636 530/530
l 530/530 585/585
l 585/585 604/604
l 604/604 554/554
l 554/554 602/602
l 602/602 606/606
l 606/606 573/573
l 573/573 550/550
l 550/550 598/598
l 598/598 614/614
l 614/614 616/616
l 616/616 658/658
l 658/658 657/657
l 657/657 656/656
l 656/656 659/659
l 659/659 615/615
l 615/615 655/655
l 655/655 652/652
l 652/652 651/651
l 651/651 553/553
l 553/553 645/645
l 645/645 532/532
l 532/532 650/650
l 650/650 562/562
l 562/562 594/594
l 594/594 642/642
l 642/642 649/649
l 649/649 590/590
l 590/590 654/654
l 654/654 653/653
l 653/653 648/648
l 648/648 646/646
l 646/646 647/647
l 647/647 643/643
l 643/643 644/644
l 644/644 547/547
l 547/547 556/556
l 556/556 566/566
l 566/566 630/630
l 630/630 569/569
l 569/569 631/631
l 631/631 619/619
l 619/619 572/572
l 572/572 639/639
l 639/639 537/537
l 537/537 596/596
l 596/596 611/611
l 611/611 538/538
l 538/538 570/570
l 570/570 635/635
l 635/635 560/560
l 560/560 561/561
l 561/561 524/524
l 524/524 525/525
l 525/525 549/549
l 549/549 545/545
l 545/545 546/546
l 546/546 559/559
l 559/559 591/591
l 591/591 541/541
l 541/541 582/582
l 582/582 542/542
l 542/542 592/592
l 592/592 634/634
l 634/634 531/531
l 531/531 612/612
l 612/612 607/607
l 607/607 623/623
l 623/623 567/567
l 567/567 610/610
l 610/610 540/540
l 540/540 576/576
l 576/576 577/577
l 577/577 605/605
l 605/605 588/588
l 588/588 564/564
l 564/564 628/628
l 628/628 581/581
l 581/581 580/580
l 580/580 558/558
l 558/558 557/557
l 557/557 622/622
l 622/622 641/641
l 641/641 618/618
l 618/618 599/599
l 599/599 633/633
l 633/633 551/551
l 551/551 601/601
l 601/601 609/609
l 609/609 620/620
l 620/620 608/608
l 608/608 552/552
l 552/552 595/595
l 595/595 600/600
l 600/600 603/603
l 603/603 533/533
l 533/533 587/587
l 587/587 529/529
l 529/529 539/539
l 539/539 555/555
l 555/555 629/629
l 629/629 617/617
l 617/617 624/624
l 624/624 632/632
l 632/632 589/589
l 589/589 613/613
l 613/613 638/638
l 638/638 563/563
l 563/563 575/575
l 575/575 593/593
l 593/593 543/543
l 543/543 544/544
l 544/544 541/541
l 541/541 571/571
l 571/571 597/597
l 597/597 568/568
l 568/568 626/626
l 626/626 536/536
l 536/536 584/584
l 791/791 727/727
l 727/727 718/718
l 718/718 780/780
l 780/780 742/742
l 742/742 814/814
l 814/814 748/748
l 748/748 818/818
l 818/818 752/752
l 752/752 819/819
l 819/819 813/813
l 813/813 773/773
l 773/773 782/782
l 782/782 805/805
l 805/805 807/807
l 807/807 776/776
l 776/776 785/785
l 785/785 788/788
l 788/788 701/701
l 701/701 747/747
l 747/747 689/689
l 689/689 690/690
l 690/690 811/811
l 811/811 739/739
l 739/739 691/691
l 691/691 741/741
l 741/741 798/798
l 798/798 715/715
l 715/715 684/684
l 684/684 801/801
l 801/801 686/686
l 686/686 802/802
l 802/802 724/724
l 724/724 786/786
l 786/786 784/784
l 784/784 682/682
l 682/682 736/736
l 736/736 744/744
l 744/744 820/820
l 820/820 821/821
l 821/821 824/824
l 824/824 827/827
l 827/827 829/829
l 829/829 822/822
l 822/822 823/823
l 823/823 828/828
l 828/828 825/825
l 825/825 826/826
l 826/826 817/817
l 817/817 738/738
l 738/738 767/767
l 767/767 679/679
l 679/679 717/717
l 717/717 749/749
l 749/749 743/743
l 743/743 799/799
l 799/799 663/663
l 663/663 774/774
l 774/774 673/673
l 673/673 769/769
l 769/769 770/770
l 770/770 809/809
l 809/809 726/726
l 726/726 714/714
l 714/714 756/756
l 756/756 713/713
l 713/713 808/808
l 808/808 666/666
l 666/666 728/728
l 728/728 697/697
l 697/697 790/790
l 790/790 703/703
l 703/703 781/781
l 781/781 764/764
l 764/764 670/670
l 670/670 778/778
l 778/778 730/730
l 730/730 729/729
l 729/729 757/757
l 757/757 795/795
l 795/795 735/735
l 735/735 783/783
l 783/783 787/787
l 787/787 680/680
l 680/680 712/712
l 712/712 794/794
l 794/794 711/711
l 711/711 668/668
l 668/668 745/745
l 745/745 793/793
l 793/793 678/678
l 678/678 753/753
l 753/753 709/709
l 709/709 710/710
l 710/710 708/708
l 708/708 664/664
l 664/664 731/731
l 731/731 700/700
l 700/700 699/699
l 699/699 667/667
l 667/667 695/695
l 695/695 754/754
l 754/754 696/696
l 696/696 702/702
l 702/702 707/707
l 707/707 775/775
l 775/775 733/733
l 733/733 803/803
l 803/803 763/763
l 763/763 768/768
l 768/768 761/761
l 761/761 806/806
l 806/806 661/661
l 661/661 800/800
l 800/800 758/758
l 758/758 779/779
l 779/779 771/771
l 771/771 796/796
l 796/796 755/755
l 755/755 797/797
l 797/797 816/816
l 816/816 815/815
l 815/815 672/672
l 672/672 766/766
l 766/766 746/746
l 746/746 662/662
l 662/662 750/750
l 750/750 719/719
l 719/719 669/669
l 669/669 789/789
l 789/789 685/685
l 685/685 671/671
l 671/671 704/704
l 704/704 777/777
l 777/777 772/772
l 772/772 721/721
l 721/721 765/765
l 765/765 734/734
l 734/734 792/792
l 792/792 762/762
l 762/762 760/760
l 760/760 694/694
l 694/694 665/665
l 665/665 759/759
l 759/759 713/713
l 713/713 683/683
l 683/683 698/698
l 698/698 706/706
l 706/706 687/687
l 687/687 740/740
l 740/740 681/681
l 681/681 716/716
l 716/716 810/810
l 810/810 660/660
l 660/660 688/688
l 688/688 725/725
l 725/725 720/720
l 720/720 751/751
l 751/751 812/812
l 812/812 722/722
l 722/722 723/723
l 723/723 674/674
l 674/674 705/705
l 705/705 804/804
l 804/804 675/675
l 675/675 737/737
l 737/737 677/677
l 677/677 732/732
l 732/732 676/676
l 676/676 693/693
l 693/693 692/692
l 692/692 791/791
l 847/847 849/849
l 849/849 837/837
l 837/837 833/833
l 833/833 844/844
l 844/844 852/852
l 852/852 832/832
l 832/832 853/853
l 853/853 851/851
l 851/851 836/836
l 836/836 830/830
l 830/830 854/854
l 854/854 843/843
l 843/843 841/841
l 841/841 848/848
l 848/848 845/845
l 845/845 855/855
l 855/855 840/840
l 840/840 842/842
l 842/842 834/834
l 834/834 846/846
l 846/846 850/850
l 850/850 835/835
l 835/835 831/831
l 831/831 838/838
l 838/838 839/839
l 839/839 847/847
l 860/860 858/858
l 858/858 861/861
l 861/861 857/857
l 857/857 859/859
l 859/859 856/856
