v -21.456350071958891 -62.207207619109774 15.814787374366659
v -16.799183956751296 -65.269525710670393 8.1308180551005353
v -15.618426122990428 -66.076812153285786 2.4249659971443744
v -46.835181875022911 -49.415813532670029 14.575403716634508
v -49.899434447300678 -47.265654201276554 9.4249340182273649
v -42.391032837582571 -51.919166787885885 18.182652150874201
v -18.870986480221834 -64.104322222408541 -12.553015668054217
v -15.783914577556128 -65.938310554348107 -3.7249558201009929
v -16.429485390207496 -65.527015017576957 -6.9315707010867751
v -49.066132468545895 -47.627563239071321 -10.95645103144231
v -47.676848848489925 -48.592382007787322 -13.31435581246301
v -16.039459353631194 -65.795239523865718 5.2693211475588368
v -17.929097957187437 -64.489431281350605 10.93698985895897
v -19.472968305473838 -63.457354647916709 13.558927645421042
v -39.82329306761045 -53.189572100044685 19.393408200496307
v -44.762384421814154 -50.647604609293012 16.5979418277607
v -48.548019125892999 -48.27343529471257 12.151889497368261
v -17.45152668893579 -64.909908898912306 -9.9056055823165536
v -50.127246898146424 -46.83350949511798 -8.3648743308752227
v -39.574207040194949 -53.464752052873962 -19.763498963219185
v -28.93970589185788 -58.170728291113285 20.016919967199332
v -26.287425364966666 -59.491486722592043 19.041038316271042
v -29.651110029398545 -58.671164284492015 -20.425036078151702
v -32.187402112452716 -57.391872563869185 -20.862069504256361
v -50.877126066965062 -46.465573512246948 6.4793223959842443
v -24.813001251263493 -61.040387669606915 -18.361926657570017
v -51.538240611259617 -45.770100427120816 0.30840969717157901
v -37.102110219584873 -54.450449929440325 20.168334528879427
v -31.668777116595184 -56.905114672490051 20.525372653140593
v -34.728839353620103 -56.07523361783538 -20.900032568212886
v -51.381517328245778 -45.971393196574482 3.3940419566788682
v -22.62376872302076 -62.129417905700635 -16.762192236694943
v -20.608552786931519 -63.171982053953329 -14.852168292809527
v -41.93030360924628 -52.137980834009724 -18.656687885288555
v -44.078834369715445 -50.873914592844002 -17.19452001178416
v -45.999526625588459 -49.68889553689641 -15.398812572620866
v -50.891641331865344 -46.23739562693082 -5.6041205348807299
v -51.362602947341017 -45.869950913387669 -2.7048170818007407
v -23.763204966704542 -60.853851494523241 17.645967257160713
v -34.402870852604607 -55.668513311123604 20.522421791994255
v -37.214837120055506 -54.752672687126989 -20.537881256471774
v -27.183992344506457 -59.881107808535845 -19.553786888382085
v -15.510149999061507 -66.132848384944296 -0.37257304453484164
v -1.487059633317144 -134.48362809331215 -13.057299631270546
v -0.27467228131542526 -131.48484402042857 16.03428006430115
v 0.14815271227685184 -126.54919532193648 18.90172489385159
v 0.28261029168655294 -108.38703120634389 18.369426305507488
v 0.17005816811723234 -105.79267982805793 16.909298665817026
v -0.042796773729664533 -101.49770769575935 13.056087373830337
v -1.3347828139476707 -137.40560579781373 -7.960872810049243
v -1.6875766710163598 -129.98902972871338 -17.061956609450512
v -1.401980899480556 -136.13733934623522 -10.60740058040693
v -0.66429167510324327 -98.677632557525328 -8.1101212733454915
v -1.0588814982953771 -101.46271267738108 -12.977000536855027
v -0.39850824490687731 -97.352655252466633 -2.7471536688901281
v -1.4937693411983468 -105.6619162681944 -16.884960882169231
v -0.85105124518514463 -99.861400248861315 -10.645612370678833
v -1.279070263493967 -103.40247856660807 -15.080779106406176
v -0.95349432071076667 -136.83184944555822 9.2835187468426881
v -0.75775130558207127 -135.3871501298172 11.814788395595679
v -0.52475552817912763 -133.59318074791253 14.081585122575607
v -0.20226734465941953 -97.835240302840475 5.5165177489727277
v -1.589649863039345 -132.38937262566773 -15.194117726326088
v -0.51179465561436976 -97.830174415809793 -5.466706566236045
v -1.1937618513113717 -138.48876627402373 3.6424758330860376
v -1.2351752517315231 -138.74512908103577 0.69501659237285252
v -1.2846806777154052 -138.24189133377138 -5.1546496259264885
v -1.1029796312149043 -137.86076576693171 6.5307545400666145
v -1.7686230811889627 -127.28375238844961 -18.569923758732109
v -1.8853897387132621 -121.81818558159816 -20.368371105805139
v 0.44489215019923656 -117.39545998277404 20.65990592800064
v 0.43581715583577735 -114.22208854592238 20.320420208071937
v 0.37481129072900193 -111.19589569025524 19.552986137192043
v 0.28845523543753465 -123.86565932827766 19.835768900637994
v -1.8378179047090537 -124.35688346891521 -19.726176546491764
v -1.8929174567341329 -113.61319821271641 -20.256270146107525
v -1.9252908451568773 -116.40721409890932 -20.65210862479676
v -1.8114152415263316 -110.840589402991 -19.495113275142522
v -1.6764257493549337 -108.16499244119255 -18.36554886391017
v -1.9183741046261089 -119.15909318051209 -20.693471199370329
v -1.2551135459811087 -138.68106969356472 -2.2528924499665379
v -0.25253285350923904 -97.34942581672982 2.777588749045715
v -0.10944112594733729 -99.897022177566342 10.714602517806606
v -0.15865778084947615 -98.696933031081244 8.1728027380097501
v -0.31401231390829665 -97.225596830067985 0.0002951159638073166
v -0.043617197244518069 -129.10300003283214 17.624609171791647
v 0.39369838816704439 -120.64031332225517 20.492776014976982
v 0.053525665403877314 -103.48059569707296 15.13137348984294
v 16.666998860407851 -65.802189911883346 7.1933030091703731
v 16.02084176663044 -66.286168116812348 4.0805524824966559
v 19.156822225012185 -64.325642455133945 12.712746991823895
v 37.247621866643513 -54.81410487460812 20.520495777289039
v 47.774781880887858 -49.801993705375367 13.974215667155987
v 52.317371414660045 -47.928347857512158 3.9095793518020345
v 15.977775656075242 -66.623627596811815 -2.3453199186777147
v 17.429186443633384 -66.136157105246724 -8.4013604333766398
v 27.406334627594727 -61.349199366544909 -18.934529645222561
v 43.018998648602476 -53.052213729030441 -18.19092346089267
v 52.487154502616292 -47.775462107771965 -2.4847386147253627
v 50.874639188301046 -48.592509396162193 -9.0419293072826541
v 17.716947787964827 -65.141960605177076 10.099990472850768
v 39.558341719949652 -53.606411200371824 19.847265070970444
v 43.964097807172436 -51.454613556013292 17.478001790337238
v 51.608830035698119 -48.257224813446427 6.7777952209980485
v 22.536459398519696 -63.771993464005917 -15.837821614690004
v 24.878481810671278 -62.623514274824117 -17.598488496839167
v 18.762395235786936 -65.554971836156454 -11.163021223683376
v 20.464209938327443 -64.772284908631661 -13.683429885845815
v 51.932884037866131 -48.028574620771352 -5.8228728952154647
v 47.49639541817848 -50.508787376054435 -14.514898001115947
v 49.362159957136747 -49.439348811296817 -11.975000346536401
v 15.77755845339995 -66.575410752007912 0.86248824988607942
v 52.580287660937906 -47.774920160479681 0.7959990868654
v 32.770943923261001 -58.587745415845774 -20.440388337953181
v 25.156750647753995 -61.223084132651771 18.428632925880606
v 29.879685982357653 -58.766068970588876 20.411897704905257
v 34.780767674201869 -56.131375087297755 20.91681217796954
v 38.071477721349467 -55.770251301675984 -20.119026077399013
v 22.960352647354817 -62.340630480720563 16.871338506163326
v 41.807583828429458 -52.47945731253543 18.803544672012009
v 50.595244676986781 -48.681741303491549 9.4043436172818566
v 49.311493484974726 -49.190593206919495 11.802668461372523
v 27.479481041789619 -60.033406862587313 19.617713851299982
v 32.317966307300551 -57.457859585141684 20.851710343684687
v 40.575505356186298 -54.403252666913119 -19.366973440058043
v 30.044679740677289 -60.001794213614993 -19.898384599767986
v 35.558568222269784 -57.118864035882012 -20.507550503015331
v 20.918766353586946 -63.391246260993981 14.990153018206385
v 16.498150138945718 -66.496102841422754 -5.4492168433073012
v 45.968165040733517 -50.563918726943371 15.859767240445938
v 45.351124984642311 -51.736786184202806 -16.586128427302555
v -16.159829377222231 38.016501519705528 17.253607343863713
v -18.729227027447216 38.880822899084393 12.001988864529501
v -15.248973557247833 35.839347478925042 -22.138913175286689
v -11.803019430650206 33.883389437024789 -26.462423417483066
v -20.994464026542055 38.369515307597339 -9.3425018691244102
v -18.074550216921331 37.114722078310955 -17.280176242729979
v -3.2797894826538387 28.002691731091005 -34.185982379881622
v 45.398549727517832 -70.049905970915717 22.742048686414549
v 42.479478718073267 -64.938049661277347 21.470195706672936
v 89.567621026285053 -138.37506395534666 32.195059646384294
v 87.768331875817168 -128.43785800745812 37.602307391169106
v 87.067531753141168 -125.79447513350067 38.596544014801665
v 91.395678501292537 -153.24859669388655 11.674589346561593
v 90.29508974929351 -146.66662627636333 24.567954174920295
v 80.887570488818085 -112.79284288357493 41.046500228005229
v 24.327569486039231 -18.106344848377859 31.193948096064602
v 17.205806949785774 3.5081217971499781 39.474153133912765
v 21.386166502202784 -7.4850734013847955 36.285242458491766
v 28.421300518065262 -31.060675922538394 25.287045037398531
v 33.286708100773474 -45.109182537033391 21.449890165199371
v 37.247621866643513 -54.81410487460812 20.520495777289039
v 30.283931261005179 -36.408184296921164 23.513665129859724
v 5.4482988074982774 21.299104399392014 38.229141463629382
v 1.3353156133993216 25.433504479471001 36.172165348671037
v 53.473441137813765 -84.130722729710726 -28.65572524800281
v 59.041767054091764 -89.433655381744742 -32.299627695081334
v 91.820059720519907 -154.51247532680037 -3.3718533662183994
v 91.591055208409955 -150.61572356838576 -17.282860570341377
v 91.613261640978465 -152.82971483330454 -11.960178989296312
v 91.638160226594863 -149.10225162423183 -19.799102960352407
v 91.820714198035688 -145.29712279596609 -24.562160337902874
v 91.84973007172843 -140.54711339580257 -28.952038646083473
v 90.922830991990196 -132.84170562174714 -34.148000029177545
v 89.724770973169043 -128.28040679345494 -36.533333112802069
v 87.914532276843417 -123.47476880462646 -38.431354203957895
v 68.626810105663324 -98.081582586625771 -38.267615982811513
v 27.509402848856865 -37.125421889594143 -24.257150703062191
v 18.843379025277855 -13.182997752229866 -35.909904060934835
v 3.0855149001451241 21.774602738591213 -38.206101327579432
v -5.0126308388739922 31.020790042744359 31.525448980812207
v -20.504048099159007 39.291397447948711 6.798263735046719
v -21.509358213600535 39.277507146756051 1.5207014093998779
v -17.55205711834687 38.534079915022417 14.625065923564918
v -7.0630620650190679 32.632415643589368 29.547181583808552
v -9.0661941487171944 34.096905304894449 27.365168115982335
v -11.006396372070867 35.383476597648567 24.998781287504631
v -12.857629555521939 36.464953183871792 22.487466620359072
v -14.584957724539052 37.332859923455274 19.88521942522026
v -21.477540704587678 38.651504657277101 -6.6044314444564982
v -7.7890816825758851 31.360217137853695 -30.502193625724001
v -9.8702693432624091 32.70862761995734 -28.517509714337237
v -20.251049265737805 38.034414075804669 -12.055062049182888
v -19.268443733199071 37.627470939889413 -14.712338237895228
v -16.731759324062175 36.533508741982388 -19.76256686609581
v 43.927344374750675 -67.510067170599115 22.016835710762248
v 41.065270672639897 -62.391276226771645 20.970522862985575
v 54.260439133049772 -83.801797138677841 28.716679155822636
v 46.868070763519022 -72.557557329774127 23.550721462035817
v 57.359027048467524 -87.654674296031402 31.104834888935009
v 88.350732629972626 -131.03817196889941 36.444668493236627
v 88.839189767634764 -133.59063015823571 35.141955807488287
v 89.237221201368001 -136.01593060475068 33.733245411929076
v 90.15939255560815 -144.793898182378 26.689935005122763
v 90.017046379601936 -142.78606491689436 28.676921434178823
v 90.646663875461542 -149.91353388543479 19.866149180431375
v 90.443402481115186 -148.36700559144134 22.286132487611376
v 91.6216978274783 -153.93279837914105 8.7225790236451317
v 91.782404545515448 -154.39835930544814 5.7093024006676139
v 89.826938669676707 -140.63889284827542 30.510555890712492
v 90.876123635083076 -151.23500596215726 17.271666016790448
v 91.135370327905832 -152.34828715895605 14.533714512264499
v 69.364789086993113 -100.20105220970406 39.237099802587366
v 77.263433423907458 -108.17977147897332 41.111886002748349
v 67.476585339922849 -98.333029270640907 38.41305353000979
v 65.656387012536186 -96.493663127470484 37.443254653603731
v 63.90466933254914 -94.71797851090065 36.281398219431637
v 86.181957892134562 -123.11694085806039 39.348437130134258
v 22.912158672508539 -12.833284814808341 33.767370690552781
v 22.185370071911898 -10.174385898132893 35.065990032751728
v 31.248936817600704 -39.198078521163339 22.79171106330681
v 35.796097291515103 -51.510005205534895 20.644093525799498
v 34.473784509936195 -48.257885302053197 20.967038294635138
v 25.026518566345111 -20.69562139651412 29.875820312251115
v 25.807810384565414 -23.291161774340573 28.653892299813055
v 26.642234887957866 -25.875535531859239 27.471147720461907
v 11.225012779766903 14.209217792357396 39.845299260273819
v 3.4003825292944079 23.420914248331158 37.290429385249993
v 12.925479354407972 11.625874716695893 39.992740991348612
v 7.4574403979734605 19.06201198041261 38.983786610384996
v 41.001473184660362 -67.889228996603862 -21.981119705530496
v 51.637260174442758 -82.187796170835739 -27.4742406014363
v 47.972255861769781 -77.883570808317259 -25.32636604242137
v 57.171343219475304 -87.714147042363692 -31.094092583495758
v 60.923411822453737 -91.121486343238843 -33.531557820634788
v 91.788245873667293 -154.21739537376342 -6.322410438305166
v 91.88402953191391 -143.03538001348812 -26.811257152860648
v 91.711708276107515 -147.31048014592983 -22.213349872613598
v 88.884744369521513 -125.88891903126945 -37.532811788337426
v 91.657518540784295 -137.84648073286422 -30.949989297176835
v 91.294825801775488 -134.99656969246337 -32.816150024169985
v 70.607734209790152 -99.952993539489285 -39.152319606223855
v 72.574270557233589 -101.87764906519226 -39.825786836507561
v 66.661325156649909 -96.26099792765379 -37.220736421168283
v 82.880958029486109 -114.13390862489578 -40.711135327658248
v 85.602280605768215 -118.69441252587302 -39.832089201726149
v 79.80013014349322 -109.85022993744573 -41.004516059704564
v 76.348353073570962 -105.8049204351922 -40.671232944534879
v 64.722958807238285 -94.498804652981732 -36.052499033684207
v 24.402390121434401 -29.585970279235269 -27.187956668343215
v 25.389973243545477 -32.072083314507651 -26.17019245060203
v 26.41965145561468 -34.571732464323198 -25.155929423602608
v 20.404250918745454 -17.771422432772834 -33.400294232843834
v 21.909802321755272 -22.370186031684682 -30.796692515264333
v 18.056238077655582 -10.811578354415285 -37.090157351668111
v 13.719584755902975 2.5782377921848543 -40.784547485160331
v 15.592057526638865 -3.0631766846959212 -39.842538493661081
v 17.262985039960775 -8.3421379592530016 -38.168975432585043
v 31.962209176155724 -48.082217919394381 -21.422671802465469
v 33.105828433793434 -51.045256818896149 -20.936681288674222
v 30.846463731466926 -45.209030638240094 -22.021620090080759
v 29.730971893536591 -42.427842477316908 -22.680077092609515
v 22.704679915918348 -24.750800143363037 -29.580577711536026
v 6.8511933444076156 16.816126757704652 -39.891375211167428
v 8.5540284801977364 14.1075731488156 -40.466304157352567
v 5.0178178313988475 19.385106687293018 -39.145404501087178
v -21.755314624380883 39.189235824980933 -1.1647186955086988
v 39.712932612433399 -59.847655123955121 20.699208775693382
v 36.767366401756618 -59.848066807889836 -20.628127715951383
v -19.726648578413176 39.15861376174901 9.4069830614949979
v 48.33575753413119 -74.985553831958129 24.482035056128495
v 79.132226583312288 -110.43135405035912 41.1332146821251
v 23.621865247587657 -15.480134867453346 32.478377102164316
v 14.477613271428236 8.962655703837326 39.957133268629491
v 39.481612777593625 -65.237310147227845 -21.320946898793942
v 90.404225736159333 -130.6055620982539 -35.398796404990861
v 84.286574703639673 -116.37974002259389 -40.333928026948861
v 19.638067243682446 -15.498031063852032 -34.692145292446028
v 91.843020901370494 -154.61610152814583 2.6655075420268699
v -13.606824311665719 34.956513953259027 -24.370444403326896
v -21.746283235616904 38.960893015529862 -3.8784990348812816
v 49.797805820591179 -77.339470950320674 25.460589659980293
v 75.297060773273415 -106.06332810902808 40.859125181974548
v 85.125043422279319 -120.45113379389548 39.949331499289556
v 49.800597339518283 -80.098483478783649 -26.380224594661804
v 42.637171363052431 -70.510304852751432 -22.700325787133824
v 44.367031098403274 -73.074199587655286 -23.470989899114826
v 46.155392737946528 -75.541274332242139 -24.342608750227392
v 74.496700085550572 -103.82976184924783 -40.321959470175983
v 28.605807530120696 -39.731920394097813 -23.39105418624936
v 23.523480371717589 -27.15343918434225 -28.360583345894405
v 38.439170151720035 -57.32409498029007 20.572327214013285
v 38.067904375219079 -62.550154834894137 -20.896535923185535
v 35.558568222269784 -57.118864035882012 -20.507550503015331
v -2.9248880321069786 29.295247799768905 33.30823101150073
v 82.483318588013958 -115.26457422136784 40.814879179751259
v 9.3907599748331059 16.689400813547127 39.502993549208121
v 15.901922562694619 6.25124974790557 39.795572000989516
v 14.691376037489992 -0.27790703273204159 -40.408109732085549
v 10.09897256168745 11.292892091335851 -40.866886625033089
v 51.264836766490497 -79.578403970523937 26.534558532268456
v 58.946028905291413 -89.467826334994129 32.385366963356454
v 18.394672333437747 0.74823197103131389 38.960966460015754
v 27.50856831267166 -28.453761388047258 26.31938534025268
v 34.302514035586313 -54.074758032561363 -20.632158394466927
v -0.93891852375285911 25.955645199342364 -35.816107850210358
v 55.797639386764573 -85.777813841418151 29.868590391446055
v 55.322538316287833 -85.979058793734225 -29.835346829068889
v 78.118501757592412 -107.80584469321383 -40.899617585303751
v 62.81290503154554 -92.79567171048717 -34.802167383655217
v 52.750208351978813 -81.734390393105116 27.613570446309865
v 60.560788868167577 -91.22887288455118 33.704483634298626
v 62.210541404742727 -92.971933752729797 35.015572748961489
v 29.35859767926226 -33.707463431804925 24.369372509160836
v 91.583421179273586 -151.84943339523164 -14.666603402014815
v 11.459420426767053 8.3992663034403883 -41.030419220909778
v 12.65637798231602 5.4811334554617348 -40.999482956917923
v -0.80287279182834848 27.423241142303382 34.845298682659752
v -21.094629901240964 39.325368851021096 4.1729062585534802
v -5.5805017113098625 29.803903028989893 -32.405318628682458
v 83.905261977811634 -117.82468098103487 40.463851914151149
v 1.0909150056971304 23.968768680393957 -37.092935496574285
v 19.478367358841304 -2.0097885352668925 38.235104000738431
v 20.470363487040977 -4.7563275292738076 37.329442397214819
v 16.435112293897603 -5.7519523841935252 -39.06835259902801
v 21.15713771257338 -20.052885208585021 -32.092615730693993
v 32.234474237886118 -42.091087422166268 22.09578619323273
v 81.387012909891851 -111.95789584875914 -40.94422612035023
v 86.821518385258983 -121.06667738074383 -39.208139632771882
v 73.301023908152402 -104.03885778224914 40.478271522124864
v 71.313837644015706 -102.08162493326316 39.968176829113858
v 91.845707845331688 -154.64646906305441 -0.36976333948485096
v 91.715653421634215 -153.66035452963533 -9.1921620783929914
v -87.402542732917738 -128.13101747997851 37.748116584994776
v -91.092316612393546 -151.39206747533393 16.299978308431154
v -91.094445483189546 -153.64007733367592 10.267268955414977
v -91.02589539006479 -154.95620595387285 3.8101725878254955
v -90.991072571010349 -146.24359337195096 24.227689847802125
v -91.101780740327882 -149.91592788121037 19.10683536093935
v -83.640225266364808 -119.10522667002812 40.496143102681629
v -80.52224093074085 -113.30672392171857 41.230299315156714
v -68.99513162830695 -98.755555943670799 38.520855102856544
v -52.36289998225142 -79.650976392761336 26.40752057393253
v -45.891889547013733 -69.892284916629308 22.663257365158621
v -42.423397150055351 -64.180567715417141 21.15627791558515
v -33.734947707836554 -47.084378834940324 20.899656061473991
v -24.245428565261538 -18.00059361673263 31.102455039281068
v -25.981829981423189 -23.117941846000672 28.393636600769277
v -2.5281760459297535 21.687726273761569 38.295362100390101
v -90.635557205900909 -155.29964933715357 -2.8494502334460234
v -89.251628515158899 -153.05228271991538 -15.415403854616866
v -88.666991382216764 -147.10526378390216 -25.363798345575887
v -88.25466845152431 -138.60218297515425 -32.871454020817787
v -86.57424547455004 -128.63358193185894 -38.162923349064741
v -85.835804650526512 -125.99510157071035 -39.052056630765321
v -82.033375043479026 -116.34552297825917 -41.121567401352117
v -52.723976544726945 -78.025214376601696 -25.850748493719976
v -45.504702578380105 -65.046758894665672 -21.122841658535343
v -44.045662048514075 -62.224514081121868 -20.55095001809844
v -61.039282136584006 -88.746364544718688 -32.145722008627637
v -35.610823887583024 -45.806836858501171 -20.450616055191094
v -33.016009150599757 -40.680698930173932 -21.811632753015971
v -27.444066787337114 -27.850602357526533 -26.498345242196876
v -24.643988854228375 -17.870581965858928 -31.036517137238423
v 1.3353156133993216 25.433504479471001 36.172165348671037
v 12.109076078023733 33.816854584596264 26.541427068775384
v 15.288633516082792 35.720885972309361 22.285507116532386
v 18.018438080792848 37.106841540258294 17.447982042474194
v 15.037676669282463 35.600367530317904 -22.713032985918325
v 11.781059455681273 33.633984484886653 -27.008878798064536
v 19.783093255294105 38.357102904641458 -12.038477761675754
v 17.710564851244705 37.147963117249361 -17.657488369953889
v -89.797820281328598 -136.79466511742112 32.883962685322331
v -91.092333534299897 -154.42700743637408 7.0823054149331064
v -90.861911830706802 -144.14288049260225 26.596514167245644
v -91.062568393515448 -148.17412896389129 21.736027603899633
v -82.142686621961332 -116.16849572304544 40.963965869957775
v -72.985179057041634 -103.02512278320563 40.202479326894149
v -70.977784299383842 -100.82679724086407 39.408693620778244
v -67.056784991540667 -96.80472023531911 37.525661178151054
v -78.780475334599231 -110.54640314607725 41.302142743975338
v -74.979186523369549 -105.39426146360952 40.771113125589352
v -53.880120183796798 -81.814342561374133 27.524897060617739
v -44.173080118747151 -67.121208220233171 21.849981917976322
v -49.215698274112725 -75.033506172874851 24.36051692963364
v -61.630650789609959 -91.439567070723712 33.871716429481033
v -65.175761712590372 -94.969722325187945 36.391897914239721
v -85.025534925469586 -122.07733215732696 39.856674507851352
v -34.805487482993783 -49.61722489392703 20.55311853908778
v -22.461676169859537 -12.978971815875704 34.015879987308125
v -17.151904152550774 -0.065093882147006066 39.528415371685924
v -15.901503548149735 2.6026466195042475 40.099076272154008
v -20.533053549165075 -7.9293588678880234 36.717671750172855
v -32.771072761708083 -44.48027959702334 21.447873731290329
v -28.54097250162021 -31.009102440082138 25.109794245825832
v -26.836238476088401 -25.71624149256666 27.173231708421348
v -9.9652620557589646 12.848788987249208 40.516258300013959
v -4.4592775240124638 19.644308598757867 39.103446027422692
v -14.569346542100401 5.252951170185586 40.466930472798971
v -88.558439999564598 -143.11011946568468 -29.393198099344009
v -88.624442940537932 -145.18182529311099 -27.450754272923206
v -88.82348023707226 -150.4696738136397 -20.739802662094483
v -88.730439361318986 -148.88832367662178 -23.143009855261276
v -87.612807000471804 -133.72580469516771 -35.789097233030503
v -87.1482492236903 -131.20307166914375 -37.046171244898119
v -87.965254586775529 -136.18305715480656 -34.370090553594508
v -88.441476743787007 -140.91262910964724 -31.202090238622112
v -88.999509442199127 -151.87958646523828 -18.17537529941243
v -80.836326726615056 -113.9799124243464 -41.307870518916062
v -72.149065459672329 -100.46858813092557 -39.244625336746154
v -70.420278696816126 -98.364861490995338 -38.420782720076126
v -68.606219234703204 -96.331010742109527 -37.434322554016887
v -76.812694412061063 -107.05650584890691 -40.940195337254067
v -48.394789911005262 -70.436025179801533 -22.836370731248394
v -51.258329954675318 -75.602378129717792 -24.727396814741965
v -49.822947322421143 -73.06305869919791 -23.729180018090901
v -62.911968142485001 -90.624824478190504 -33.574222098259789
v -38.269127131926041 -50.925013902461075 -19.822482825920055
v -39.574207040194949 -53.464752052873962 -19.763498963219185
v -34.30171006962496 -43.244418038819276 -21.06602011816274
v -31.748885258382757 -38.116592663122333 -22.633146982745458
v -23.444355236546279 -12.977610492629267 -33.492015720278687
v -22.017898345400425 -7.973342316352146 -35.842950275801783
v -28.378326211529284 -30.410004683554128 -25.478714377801758
v -25.241736102766133 -20.322581105203469 -29.834659168255236
v -25.919958786861407 -22.815527874979672 -28.725390687227083
v -12.573303687409222 12.949369785753255 -39.749560824677218
v -4.5035889287239126 23.151448722863258 -37.297212917496381
v -13.985589995789159 10.444752723820148 -39.880830703197049
v -7.9343466071899389 19.599096872367173 -38.510925860356529
v 3.2060172542174348 27.109231699729463 34.909995886802641
v 21.351118282329459 38.929478481856847 6.3564296273193239
v 21.608173564127249 39.133080627020306 3.323294348912408
v 10.421429471196834 32.709360813882718 28.481173460053274
v 20.089240401361252 38.136016434810251 12.120071423307898
v 19.164532784162201 37.687475161261517 14.854281852923695
v 16.711250704618266 36.446351595977561 19.92003384666473
v 16.441240548062641 36.406627737767451 -20.260417162615418
v 13.475292948245256 34.655613550335502 -24.95443227291458
v 21.498911852632915 39.241659304704221 -2.8907835995205993
v 21.147405785273854 39.12240311033041 -6.005495856375763
v 18.837960176207424 37.818153661707939 -14.918024563462009
v 5.9092557540286395 30.223318708569241 -32.108891854089393
v 3.7089017365588179 28.955599025139513 -33.507960709558631
v 9.9547969291353429 32.550630692141539 -28.878660616447405
v -0.5939609979396745 23.622308946484406 37.33276207291879
v -38.869638486900158 -57.816651815935423 20.28950325146009
v -88.365795101022925 -131.13464968866407 36.3041450531571
v -47.57445779193857 -72.525871147165589 23.497236806352937
v -86.26250331237793 -125.02848393638732 38.979355083205334
v -90.318099698065851 -155.11705738838123 -6.1533376111811142
v -89.580310909603213 -153.99107537760511 -12.476547337633175
v -84.155243969427701 -121.152343039421 -40.336537048851426
v -85.042082018423429 -123.57671487013877 -39.721245456907212
v -24.052834893092932 -15.427217820582239 -32.257098264232489
v 20.580286423284189 38.839553130018565 -9.0713985453367876
v -90.861488610845868 -155.21928478148669 0.48598567781154423
v -40.651429605755233 -61.071414931096136 20.62996942852272
v -37.102110219584873 -54.450449929440325 20.168334528879427
v -90.638462625416736 -141.87084261923056 28.840062391309324
v -76.920452030446228 -107.90881182857484 41.129492758426963
v -63.364184442097958 -93.199180540539288 35.160229872732302
v -35.919012333753699 -52.070659614967724 20.253157580933806
v -29.360074563939261 -33.690737514535073 24.204461822348726
v -23.362951645049101 -15.482786486296186 32.554705426564894
v -30.151623675721865 -36.385290852961184 23.339111113895083
v -25.12172690771817 -20.548193758935099 29.715159686590503
v -89.950062105857597 -154.67936027789858 -9.3770791411234811
v -73.788854242795182 -102.6120923522362 -39.966340478031412
v -36.937587569601263 -48.372813174054471 -20.046652162387744
v 13.74914665972203 34.849816746886148 24.500097897357161
v 20.829969225777909 38.566611105964043 9.2902078226985161
v -55.822818492750997 -82.61057120756999 -28.18506070817828
v -46.954704916058361 -67.777755769017944 -21.924030587395443
v -15.345298284055339 7.8521715061948498 -39.830415569535255
v 1.4124564347983379 27.546138881403163 -34.741115788894561
v 21.650788690760212 39.236072725894616 0.23053609333432892
v -50.811795527505907 -77.389288186194392 25.365043478717553
v -21.512069396107769 -10.462261848919759 35.404319734708878
v -11.611166509011216 10.39238582364062 40.65314062293038
v -79.560344766930513 -111.6436162155497 -41.332217087583771
v -19.086588415946892 -0.12623417597874431 -38.567979836714926
v -29.413097555163109 -32.978158312409235 -24.486892388490105
v -16.663873752243276 5.2092007757243008 -39.614553054491971
v -0.93891852375285911 25.955645199342364 -35.816107850210358
v -91.088607105206933 -152.63154701162819 13.347318588532666
v -55.369785593104119 -83.877245991790801 28.742367281362405
v -59.977474298096524 -89.650178425214136 32.558459620001848
v -58.39362933659973 -87.796001281480898 31.262539677802536
v -27.685156756978532 -28.344410490835692 26.067487691913382
v -8.2064021215421334 15.212962830167239 40.200872861190604
v -54.239296873329913 -80.361183591824926 -27.005990067571638
v -57.480578197982346 -84.75050091924173 -29.444053812210818
v -64.819600941204058 -92.491730727496389 -34.961805491596181
v -17.927971425828126 2.5414246226501236 -39.216464161856578
v -22.781085846310162 -10.50017131704014 -34.707652771633448
v 6.8890776847894228 30.136801124916417 31.951528602354045
v -6.247399477581256 21.469304473815392 -37.932514124776532
v -89.169145564068643 -134.03547300390937 34.692270823622692
v -78.212280329556904 -109.34072386142648 -41.18372460206615
v -41.091336850560452 -56.416700092654487 -19.903274132603617
v -19.473764468556134 -5.3479574214506167 37.845185939659267
v -30.544350966258953 -35.549361552798914 -23.538608565732282
v 7.9975127921236995 31.419142925671181 -30.578018190326944
v -42.575720597156156 -59.342785228648921 -20.148265365364132
v -2.7241794504980472 24.639003898845687 -36.586487435881587
v -66.728815264034836 -94.381423851100891 -36.266213922465951
v -9.5594597231015932 17.558489544723599 -39.048567845539381
v -56.868982878796238 -85.89001042560497 29.956319800621898
v -59.222017335989776 -86.783262414373667 -30.779247640290386
v -75.337831631476604 -104.81635072392376 -40.516870738030597
v -31.870627959754522 -41.817830651283685 22.066192837113345
v -90.28038307654262 -139.40890780396037 30.926523417581596
v -13.139276442470406 7.8547253088006794 40.63084061000766
v -11.105975901391886 15.336164756935004 -39.478500208989658
v -30.989345810768331 -39.106788200966534 22.653067876377776
v -21.153611585970886 -5.3992860787607366 -36.888332312252913
v -20.159257896325649 -2.7762429383234459 -37.775394992823543
v 5.0615457681205989 28.671911992713341 33.489907796871776
v -26.647316148889637 -25.325562256949681 -27.614987098341452
v -83.151931507454449 -118.73710705621812 -40.815715325823923
v -6.3678219866174768 17.496384166966525 39.77140320316726
v 8.6836226171643922 31.498093198391537 30.299484341080706
v -18.334675331863831 -2.7207347998689357 38.762411915644527
v -91.961660907679203 -123.77419150755199 36.179039570253856
v -109.67783861724179 -115.18116426639068 14.904920211542048
v -104.56304167430611 -118.59946085988155 24.765594200081203
v -59.704754791325271 -126.10833054409466 41.187090288480185
v -49.420985622466134 -125.74769021037193 37.650178490386452
v -44.471768188525196 -125.66208662159922 34.854967304857695
v -34.222478078994492 -125.56168321608257 28.889255902278585
v -20.259811459159245 -124.9602347138013 23.242598713933049
v -11.533587740207759 -124.20872360535105 20.972351814797502
v -5.5988867420959938 -123.88789366017049 20.060628718147022
v -85.835804650526512 -125.99510157071035 -39.052056630765321
v -101.13902481010643 -118.53862074470132 -29.096137044395469
v -34.043943648611418 -125.17216362342776 -29.005784226176701
v -51.608332360827767 -128.02868326518683 -38.021361126714723
v -39.664124993761021 -126.109988572083 -31.938776777047117
v -28.412993551904698 -124.32303550548781 -26.514602808383913
v -14.113461268655392 -123.2152899726289 -21.718664458249247
v 14.938649091614511 -124.87105332862807 21.573786874842661
v 12.103802682975534 -124.52798037526055 20.905004790651915
v 20.508099205164328 -125.65982019705827 23.044274425829585
v 28.50049008633675 -127.16491441704842 25.721827243402984
v 59.181834486203343 -136.11116343119997 37.875898922524762
v 73.747265050298125 -137.04437669514743 38.566462226583702
v 79.78849617539521 -136.19019873860213 37.795510061290024
v 91.53477090776299 -132.59627661897827 33.979156505330138
v 96.61353620721394 -130.470047754131 30.966752444302188
v 105.2616009371108 -126.42619195783665 22.220935799521648
v 24.623351828159088 -128.38720476912511 -23.603268623869653
v 77.476789516897981 -138.9201426947221 -36.811215977379362
v 102.14368350323612 -129.08401397738993 -25.540026058613972
v 111.92787624639996 -122.58502440712596 -3.0886278418860327
v -89.205878813317383 -124.44337421418756 37.665851457250668
v -83.269861739379735 -125.50588962807878 40.021933094927292
v -73.969903937278872 -126.3973056145733 41.874145749969095
v -80.184660453473356 -125.90013350789528 40.855618629353934
v -110.53755184983224 -114.51624367530417 12.240687163976904
v -57.085951447482714 -125.97536683082444 40.541071868558461
v -41.97659146469816 -125.63776439816263 33.354632838179896
v -46.943670347631041 -125.6984686214255 36.306064358946159
v -8.5664778526739731 -124.0241969166641 20.467042976956087
v -17.391741093297963 -124.70537457828527 22.352976114006246
v -31.494157330172921 -125.52808811086599 27.585878679955744
v -36.86844110403316 -125.5934314916333 30.326231889415084
v -96.909770518406219 -122.21326537981709 32.85157077463812
v -101.08115039172512 -120.43897997319144 29.05002351915083
v -88.968848973241791 -124.66488153362646 -37.795838253419909
v -73.288288951099048 -129.09333277302815 -41.373708240141198
v -70.350298250751962 -129.28028354292252 -41.485923374165552
v -78.758646670484495 -128.22525582147716 -40.755337378411085
v -111.57146177186708 -113.57589181726115 -6.9894923462857133
v -111.06794536701848 -113.82419149374815 -9.7753563683184446
v -105.92355515819081 -116.1244176743709 -22.536408960263305
v -109.43990494883968 -114.53031190406125 -15.149970243183716
v -110.36691194987921 -114.13883188701722 -12.511032706452198
v -54.771114994731178 -128.41926306464518 -39.164108919750731
v -61.093465056299308 -129.02520632021674 -40.740600940757901
v -57.934807595210998 -128.75843893445852 -40.088627357244924
v -42.535625898986424 -126.60116474845489 -33.510237183057825
v -25.582591553601887 -123.94128428044365 -25.414357762487384
v -36.844445205905458 -125.63186581041305 -30.425271717047551
v -17.014091343286871 -123.23302139041765 -22.578252953447489
v 23.200220448204632 -126.13295941600731 23.920144183130837
v 17.740299577159778 -125.24949281479321 22.296296877235658
v 41.880996077247488 -130.95471859652986 31.653618252354072
v 56.304355319252352 -135.44828889718539 37.209713134446389
v 36.403991982889515 -129.18935443210444 29.036983686707419
v 39.117749123940285 -130.03210951891913 30.312393415246298
v 70.783555826644545 -137.17441590856168 38.682094769245964
v 88.839189767634764 -133.59063015823571 35.141955807488287
v 82.839115393615913 -135.47737773280465 37.120362713650849
v 76.751224130106365 -136.71516822860335 38.272286501787093
v 67.861482530287503 -137.10140897707447 38.603047478962402
v 101.29139652945321 -128.37637982842199 27.075168197467441
v 103.3807835048673 -127.37626876561103 24.762216150336638
v 109.85923153026681 -124.05456474735236 13.692328183789076
v 94.127810742481088 -131.54648087716919 32.591743673275602
v 98.993038332059086 -129.4007761263656 29.11419468560171
v 64.96185030756385 -136.92321177557699 38.50769316331008
v 110.80943312574496 -123.43461339842008 10.536614844031924
v 18.920385281277284 -127.40758328682954 -21.958786231057978
v 21.815492823914298 -127.87387059572781 -22.681702262968855
v 27.420716838894222 -128.89614696193223 -24.551396526845092
v 30.188702000854175 -129.45353739334766 -25.612963861546213
v 62.204444980184533 -138.87226289066507 -37.173777825458941
v 59.071580461131688 -138.32351084731425 -36.768201185253673
v 52.874254037630642 -136.73925485888077 -35.344438137385609
v 55.950615278273865 -137.60727222707783 -36.160612176683372
v 49.864602153430724 -135.75451391778319 -34.341680931705056
v 35.720302039776982 -130.80291466051824 -27.966644494256414
v 38.478236671095573 -131.64611592332005 -29.271652439385218
v 41.249310973311125 -132.60061374908699 -30.613566382908438
v 44.057995559863571 -133.63516785938305 -31.938351893404963
v 68.406991259182803 -139.4471805567083 -37.477624197640438
v 71.459596288070941 -139.44902546276916 -37.389294849473984
v 88.770863375282659 -136.01085618066341 -33.872263743515191
v 108.80436726425316 -124.68666905412587 -15.843273183900422
v 91.294825801775488 -134.99656969246337 -32.816150024169985
v 65.321201047491058 -139.24804427318782 -37.401241537099025
v 110.91723724584216 -123.3052352766818 -9.8292999860971548
v 111.56861442023285 -122.8532414115177 -6.5230989119076757
v 109.96853308397456 -123.92079960993897 -12.941161735545631
v 4.0214194701934183 -125.1334247899857 -19.630585102503598
v -112.05539653555485 -113.27205831850867 1.344391487277274
v -86.26250331237793 -125.02848393638732 38.979355083205334
v -94.530800095140648 -123.02820335479549 34.569583837575507
v -81.268262915459459 -127.57900051152134 -40.302026101757043
v -97.011485952556072 -120.74662095343089 -32.989820806697054
v -22.746118076183222 -123.61037048698776 -24.388896824470891
v 46.925813795414825 -134.70361372659181 -33.19515912703497
v 105.90613523933878 -126.62246679852029 -21.044205255916047
v -23.118541597271175 -125.16569040154741 24.167333833285795
v -102.88210189079297 -117.61864832531684 -26.988624070096272
v -45.484576936993079 -127.09468254462473 -35.088973194124918
v -48.507010174839948 -127.5797124512226 -36.629323892632605
v -99.190953914782455 -119.58451068845338 -31.100730322354714
v 25.861872546381555 -126.63039505140566 24.804905126309308
v 44.691780822187091 -131.92894728967809 33.011116875546129
v 47.587912484946301 -132.88305560049866 34.243192213696844
v 50.488659715136144 -133.82081886157084 35.400836135133801
v 15.993786338438223 -126.91644535392518 -21.254157928700209
v 80.43524644122698 -138.41386754434785 -36.322386526037306
v 99.877876034171166 -130.50650046569945 -27.580303864488616
v 97.331981692867885 -132.01750544090953 -29.504730275296364
v 94.448551809087917 -133.53343261433776 -31.243754047113708
v -111.58616728477394 -113.61133411846285 6.7974906178249368
v -108.65976956939065 -115.94841772867966 17.5169531119396
v -106.07666110640903 -117.68538858370653 22.450346937360084
v -11.134891881778923 -123.35930888585511 -21.025684130113341
v -8.0925456929173052 -123.61270390552235 -20.439029502042516
v 9.2050010756261642 -124.27988089371709 20.452133790342469
v -70.934497903791708 -126.48403145677419 42.069821086927043
v -107.47577114072323 -116.79343820468551 20.048121012943646
v -65.13776271760517 -126.39275965240091 41.993788891596239
v -28.752495553500047 -125.443295270774 26.308438226266247
v -104.4376035610898 -116.82128147575249 -24.779532157053531
v -108.40173219199285 -114.98707458013172 -17.709583617665132
v -91.883607395212124 -123.31691682637211 -36.338605175045686
v 3.3069920829656017 -123.92877433403359 19.862605192199453
v 111.8223864181126 -122.63561159167065 3.8576652634454476
v 111.43870314565989 -122.95147121208952 7.2480451109400601
v 86.11241201682185 -136.9367913423863 -34.833058017106964
v -102.91693695717184 -119.52195335798501 26.979664959139676
v -67.988209594273513 -126.4766349195655 42.111096662391773
v -111.14289971082806 -113.98966214261492 9.5225801605413523
v -62.383522290777464 -126.25401713801207 41.664021721214525
v -111.88733632705429 -113.39538262534057 -4.1910094943791325
v -107.22279542701646 -115.51862318436561 -20.168007034977073
v -4.9841221224910219 -123.97060409391895 -20.048498104725923
v -67.317039220130212 -129.31444137748053 -41.436108614417194
v -94.572116761886292 -122.00025282954357 -34.735875158678823
v -31.238937974376078 -124.73360113145246 -27.696736634500301
v 85.869989981505697 -134.59821186917338 36.235586952009157
v 6.2723707425300903 -124.0853874542445 20.119827739419165
v 7.0140459095112426 -125.52517253207293 -19.764867098487883
v 13.030535974832281 -126.41817956136489 -20.601771539328421
v 32.944517279094654 -130.0874522596595 -26.768482687203488
v -2.6365774842630763 -123.84683656383305 19.877753094748606
v 0.28845523543753465 -123.86565932827766 19.835768900637994
v 1.0734875037821341 -124.73370122966554 -19.583574359667384
v -1.8378179047090537 -124.35688346891521 -19.726176546491764
v -39.450164132648652 -125.61459910090851 31.827242070835489
v -64.22394278106772 -129.21813568391298 -41.185284030653222
v -54.502988505720644 -125.8727728524415 39.747136693197476
v -76.098438764330893 -128.74009101491805 -41.125349808746861
v 83.318081854478152 -137.73683492845635 -35.641554949082561
v 107.41013488026702 -125.58073831925907 -18.520582538410533
v 112.01192442399645 -122.51241531748789 0.39622438948389471
v -51.94636344503121 -125.80086648515768 38.790853457166165
v -14.467786869009007 -124.46022863353227 21.644502566470393
v 10.024638273626406 -125.95733200045146 -20.110921273837793
v -83.625771950876043 -126.82613047991612 -39.74004378831755
v 74.477569361027577 -139.25217647292493 -37.133746355899014
v 31.10682776986193 -127.76892962591184 26.756187801411635
v 33.735502661299392 -128.43762599101927 27.855027774639545
v -25.961255547017849 -125.31837183702322 25.159062083228179
v 104.16683547717498 -127.79197263436127 -23.384058214353608
v 106.98315058924314 -125.55316005724856 19.518680253204082
v -99.08525328154326 -121.34221388683002 31.007458753489129
v -19.889516171014588 -123.36690425981946 -23.456636997084409
v 62.066728507122406 -136.61080901733357 38.310598558453364
v 108.50337539131755 -124.75707859042308 16.662491665726236
v -111.92068543822674 -113.37290698368918 4.0777685353748172
v 53.399032505775679 -134.6856821752063 36.398722332738714
v -112.03726503653557 -113.28821056296326 -1.4094961354657003
v -77.067862612750588 -126.20187286319072 41.476351946220461
v -11.361309808468569 -95.739569072003107 0.75025512598428068
v 13.6565669063252 -94.994124685246675 -1.0092693517516707
v 15.977775656075242 -66.623627596811815 -2.3453199186777147
v 12.719750146089218 -62.136707039432196 -2.0980707214336984
v 20.781412761190673 -77.542496281939833 -2.0454791326206001
v 17.539212939888145 -69.15834115357643 -2.3629155013279668
v 19.951582125065983 -74.644519528296527 -2.2155883330476867
v -3.1126015902662001 -97.169841301195419 0.25859036095429733
v -13.967930078657984 -94.853467257883864 0.79947456299158715
v -18.443852598577877 -91.808186681217904 0.76957888982678613
v -20.879002459080404 -86.904428904519676 0.66981788155036814
v -21.171858298819572 -81.153909287145353 0.43434876934885958
v -12.303723153919282 -61.756494791943879 -0.49296769585103317
v -10.503436041206935 -59.714710458531599 -0.5190381390343286
v -8.4677884450310295 -57.908470917346349 -0.56659011110487723
v -17.255553129542403 -69.048496638323542 -0.24527913607021989
v 10.935197929713162 -95.851249617784191 -0.90313411659532261
v 5.3596045399443639 -96.895459079307898 -0.5310335012711499
v 18.387710149513509 -91.75865007031345 -1.2126249953198132
v 16.185027450421334 -93.634597929911706 -1.1101059779196503
v 20.894844935565345 -86.496063189425143 -1.4891854292956133
v 8.881756964931224 -58.2836978235663 -1.6772747121498459
v 18.915893058626427 -71.819532421951777 -2.3214113165044479
v -3.6441918449534807 -55.530620226299291 -0.72801817366828381
v 4.2319554168142934 -55.70509643816699 -1.2039345738789762
v 2.5340903744827061 -97.142310146619536 -0.27426489385447744
v -1.0116062426579624 -55.082680054109446 -0.85212638897669901
v -5.9039847417876361 -96.863988834708479 0.47453657743309507
v -20.723224908252554 -78.147212128641243 0.27059384011850929
v 8.1601509589664829 -96.458176126664824 -0.74596755562203432
v 21.195202580014083 -80.528465785363537 -1.8617669900938671
v -6.1624687514402998 -56.481473473894383 -0.62036831320816477
v -8.670716885087133 -96.433691868013739 0.63614061704106883
v -21.250860053245027 -84.085580803473206 0.5690749510289399
v 21.218844960441629 -83.531529530808513 -1.6757104948183075
v 6.6701574460933664 -56.769725378810207 -1.4256959746381224
v -19.943845434166882 -89.519400913775939 0.71864941547253647
v 19.971803662615457 -89.301952197185443 -1.3174854817740524
v 1.6420631618614543 -55.141524067054007 -1.0108777704371534
v -16.395000186272448 -93.601229644209781 0.78557172210768433
v -19.907622565275513 -75.099476606413575 0.090958183561500539
v -13.933671525016514 -63.92868393520753 -0.44636710884940783
v 14.348072571674663 -64.364638449315763 -2.262109862846871
v -0.31401231390829665 -97.225596830067985 0.0002951159638073166
v -18.739472187028539 -72.051922935437887 -0.087031430382574076
v 10.865872989395182 -60.125471077793762 -1.9067874005791166
v -15.510149999061507 -66.132848384944296 -0.37257304453484164
l 40/40 29/29
l 29/29 21/21
l 21/21 22/22
l 22/22 39/39
l 39/39 1/1
l 1/1 14/14
l 14/14 13/13
l 13/13 2/2
l 2/2 12/12
l 12/12 3/3
l 3/3 43/43
l 43/43 8/8
l 8/8 9/9
l 9/9 18/18
l 18/18 7/7
l 7/7 33/33
l 33/33 32/32
l 32/32 26/26
l 26/26 42/42
l 42/42 23/23
l 23/23 24/24
l 24/24 30/30
l 30/30 41/41
l 41/41 20/20
l 20/20 34/34
l 34/34 35/35
l 35/35 36/36
l 36/36 11/11
l 11/11 10/10
l 10/10 19/19
l 19/19 37/37
l 37/37 38/38
l 38/38 27/27
l 27/27 31/31
l 31/31 25/25
l 25/25 5/5
l 5/5 17/17
l 17/17 4/4
l 4/4 16/16
l 16/16 6/6
l 6/6 15/15
l 15/15 28/28
l 28/28 40/40
l 54/54 58/58
l 58/58 56/56
l 56/56 79/79
l 79/79 78/78
l 78/78 76/76
l 76/76 77/77
l 77/77 80/80
l 80/80 70/70
l 70/70 75/75
l 75/75 69/69
l 69/69 51/51
l 51/51 63/63
l 63/63 44/44
l 44/44 52/52
l 52/52 50/50
l 50/50 67/67
l 67/67 81/81
l 81/81 66/66
l 66/66 65/65
l 65/65 68/68
l 68/68 59/59
l 59/59 60/60
l 60/60 61/61
l 61/61 45/45
l 45/45 86/86
l 86/86 46/46
l 46/46 74/74
l 74/74 87/87
l 87/87 71/71
l 71/71 72/72
l 72/72 73/73
l 73/73 47/47
l 47/47 48/48
l 48/48 88/88
l 88/88 49/49
l 49/49 83/83
l 83/83 84/84
l 84/84 62/62
l 62/62 82/82
l 82/82 85/85
l 85/85 55/55
l 55/55 64/64
l 64/64 53/53
l 53/53 57/57
l 57/57 54/54
l 118/118 125/125
l 125/125 98/98
l 98/98 131/131
l 131/131 110/110
l 110/110 111/111
l 111/111 100/100
l 100/100 109/109
l 109/109 99/99
l 99/99 113/113
l 113/113 94/94
l 94/94 104/104
l 104/104 121/121
l 121/121 122/122
l 122/122 93/93
l 93/93 130/130
l 130/130 103/103
l 103/103 120/120
l 120/120 102/102
l 102/102 92/92
l 92/92 117/117
l 117/117 124/124
l 124/124 116/116
l 116/116 123/123
l 123/123 115/115
l 115/115 119/119
l 119/119 128/128
l 128/128 91/91
l 91/91 101/101
l 101/101 89/89
l 89/89 90/90
l 90/90 112/112
l 112/112 95/95
l 95/95 129/129
l 129/129 96/96
l 96/96 107/107
l 107/107 108/108
l 108/108 105/105
l 105/105 106/106
l 106/106 97/97
l 97/97 126/126
l 126/126 114/114
l 114/114 127/127
l 127/127 118/118
l 236/236 319/319
l 319/319 166/166
l 166/166 229/229
l 229/229 165/165
l 165/165 266/266
l 266/266 164/164
l 164/164 231/231
l 231/231 230/230
l 230/230 163/163
l 163/163 227/227
l 227/227 162/162
l 162/162 228/228
l 228/228 161/161
l 161/161 159/159
l 159/159 305/305
l 305/305 160/160
l 160/160 323/323
l 323/323 226/226
l 226/226 158/158
l 158/158 322/322
l 322/322 269/269
l 269/269 199/199
l 199/199 198/198
l 198/198 144/144
l 144/144 202/202
l 202/202 201/201
l 201/201 196/196
l 196/196 197/197
l 197/197 145/145
l 145/145 194/194
l 194/194 195/195
l 195/195 200/200
l 200/200 141/141
l 141/141 193/193
l 193/193 192/192
l 192/192 191/191
l 191/191 142/142
l 142/142 143/143
l 143/143 208/208
l 208/208 274/274
l 274/274 311/311
l 311/311 286/286
l 286/286 146/146
l 146/146 262/262
l 262/262 204/204
l 204/204 273/273
l 273/273 320/320
l 320/320 321/321
l 321/321 203/203
l 203/203 205/205
l 205/205 206/206
l 206/206 207/207
l 207/207 303/303
l 303/303 302/302
l 302/302 292/292
l 292/292 190/190
l 190/190 297/297
l 297/297 188/188
l 188/188 301/301
l 301/301 291/291
l 291/291 272/272
l 272/272 261/261
l 261/261 189/189
l 189/189 139/139
l 139/139 186/186
l 186/186 140/140
l 140/140 187/187
l 187/187 258/258
l 258/258 282/282
l 282/282 152/152
l 152/152 212/212
l 212/212 213/213
l 213/213 151/151
l 151/151 317/317
l 317/317 211/211
l 211/211 153/153
l 153/153 304/304
l 304/304 150/150
l 150/150 294/294
l 294/294 216/216
l 216/216 215/215
l 215/215 214/214
l 214/214 147/147
l 147/147 263/263
l 263/263 209/209
l 209/209 210/210
l 210/210 149/149
l 149/149 314/314
l 314/314 313/313
l 313/313 293/293
l 293/293 148/148
l 148/148 288/288
l 288/288 264/264
l 264/264 219/219
l 219/219 217/217
l 217/217 287/287
l 287/287 220/220
l 220/220 154/154
l 154/154 218/218
l 218/218 155/155
l 155/155 308/308
l 308/308 285/285
l 285/285 171/171
l 171/171 175/175
l 175/175 176/176
l 176/176 177/177
l 177/177 178/178
l 178/178 179/179
l 179/179 132/132
l 132/132 174/174
l 174/174 133/133
l 133/133 260/260
l 260/260 172/172
l 172/172 309/309
l 309/309 173/173
l 173/173 257/257
l 257/257 271/271
l 271/271 180/180
l 180/180 136/136
l 136/136 183/183
l 183/183 184/184
l 184/184 137/137
l 137/137 185/185
l 185/185 134/134
l 134/134 270/270
l 270/270 135/135
l 135/135 182/182
l 182/182 181/181
l 181/181 310/310
l 310/310 138/138
l 138/138 296/296
l 296/296 312/312
l 312/312 170/170
l 170/170 256/256
l 256/256 254/254
l 254/254 255/255
l 255/255 290/290
l 290/290 306/306
l 306/306 307/307
l 307/307 246/246
l 246/246 289/289
l 289/289 247/247
l 247/247 315/315
l 315/315 248/248
l 248/248 245/245
l 245/245 169/169
l 169/169 268/268
l 268/268 243/243
l 243/243 316/316
l 316/316 244/244
l 244/244 253/253
l 253/253 281/281
l 281/281 240/240
l 240/240 241/241
l 241/241 242/242
l 242/242 168/168
l 168/168 280/280
l 280/280 252/252
l 252/252 251/251
l 251/251 249/249
l 249/249 250/250
l 250/250 295/295
l 295/295 284/284
l 284/284 259/259
l 259/259 283/283
l 283/283 265/265
l 265/265 221/221
l 221/221 276/276
l 276/276 277/277
l 277/277 278/278
l 278/278 223/223
l 223/223 275/275
l 275/275 222/222
l 222/222 156/156
l 156/156 298/298
l 298/298 224/224
l 224/224 157/157
l 157/157 225/225
l 225/225 300/300
l 300/300 239/239
l 239/239 234/234
l 234/234 167/167
l 167/167 232/232
l 232/232 233/233
l 233/233 279/279
l 279/279 238/238
l 238/238 299/299
l 299/299 237/237
l 237/237 318/318
l 318/318 235/235
l 235/235 267/267
l 267/267 236/236
l 514/514 492/492
l 492/492 383/383
l 383/383 469/469
l 469/469 380/380
l 380/380 455/455
l 455/455 337/337
l 337/337 457/457
l 457/457 338/338
l 338/338 386/386
l 386/386 480/480
l 480/480 385/385
l 385/385 454/454
l 454/454 456/456
l 456/456 506/506
l 506/506 502/502
l 502/502 384/384
l 384/384 336/336
l 336/336 379/379
l 379/379 453/453
l 453/453 449/449
l 449/449 437/437
l 437/437 448/448
l 448/448 335/335
l 335/335 374/374
l 374/374 334/334
l 334/334 439/439
l 439/439 375/375
l 375/375 468/468
l 468/468 333/333
l 333/333 373/373
l 373/373 477/477
l 477/477 499/499
l 499/499 479/479
l 479/479 478/478
l 478/478 376/376
l 376/376 452/452
l 452/452 377/377
l 377/377 370/370
l 370/370 332/332
l 332/332 369/369
l 369/369 368/368
l 368/368 372/372
l 372/372 451/451
l 451/451 371/371
l 371/371 331/331
l 331/331 367/367
l 367/367 330/330
l 330/330 378/378
l 378/378 440/440
l 440/440 324/324
l 324/324 438/438
l 438/438 489/489
l 489/489 363/363
l 363/363 503/503
l 503/503 450/450
l 450/450 365/365
l 365/365 328/328
l 328/328 366/366
l 366/366 329/329
l 329/329 325/325
l 325/325 476/476
l 476/476 326/326
l 326/326 364/364
l 364/364 327/327
l 327/327 447/447
l 447/447 340/340
l 340/340 441/441
l 441/441 458/458
l 458/458 442/442
l 442/442 341/341
l 341/341 398/398
l 398/398 392/392
l 392/392 393/393
l 393/393 342/342
l 342/342 391/391
l 391/391 390/390
l 390/390 397/397
l 397/397 343/343
l 343/343 396/396
l 396/396 394/394
l 394/394 395/395
l 395/395 344/344
l 344/344 345/345
l 345/345 444/444
l 444/444 443/443
l 443/443 511/511
l 511/511 346/346
l 346/346 399/399
l 399/399 471/471
l 471/471 490/490
l 490/490 403/403
l 403/403 501/501
l 501/501 459/459
l 459/459 400/400
l 400/400 401/401
l 401/401 402/402
l 402/402 497/497
l 497/497 484/484
l 484/484 407/407
l 407/407 350/350
l 350/350 500/500
l 500/500 483/483
l 483/483 463/463
l 463/463 482/482
l 482/482 347/347
l 347/347 405/405
l 405/405 406/406
l 406/406 404/404
l 404/404 464/464
l 464/464 348/348
l 348/348 349/349
l 349/349 495/495
l 495/495 491/491
l 491/491 409/409
l 409/409 408/408
l 408/408 460/460
l 460/460 351/351
l 351/351 410/410
l 410/410 352/352
l 352/352 411/411
l 411/411 493/493
l 493/493 473/473
l 473/473 414/414
l 414/414 353/353
l 353/353 510/510
l 510/510 416/416
l 416/416 415/415
l 415/415 354/354
l 354/354 445/445
l 445/445 412/412
l 412/412 486/486
l 486/486 413/413
l 413/413 507/507
l 507/507 508/508
l 508/508 472/472
l 472/472 485/485
l 485/485 474/474
l 474/474 465/465
l 465/465 419/419
l 419/419 417/417
l 417/417 505/505
l 505/505 498/498
l 498/498 420/420
l 420/420 488/488
l 488/488 418/418
l 418/418 496/496
l 496/496 475/475
l 475/475 466/466
l 466/466 434/434
l 434/434 433/433
l 433/433 494/494
l 494/494 435/435
l 435/435 360/360
l 360/360 429/429
l 429/429 359/359
l 359/359 428/428
l 428/428 362/362
l 362/362 432/432
l 432/432 361/361
l 361/361 446/446
l 446/446 431/431
l 431/431 430/430
l 430/430 467/467
l 467/467 423/423
l 423/423 422/422
l 422/422 462/462
l 462/462 425/425
l 425/425 426/426
l 426/426 358/358
l 358/358 427/427
l 427/427 357/357
l 357/357 461/461
l 461/461 356/356
l 356/356 424/424
l 424/424 513/513
l 513/513 487/487
l 487/487 509/509
l 509/509 421/421
l 421/421 355/355
l 355/355 436/436
l 436/436 339/339
l 339/339 388/388
l 388/388 512/512
l 512/512 481/481
l 481/481 387/387
l 387/387 470/470
l 470/470 504/504
l 504/504 389/389
l 389/389 382/382
l 382/382 381/381
l 381/381 514/514
l 639/639 696/696
l 696/696 617/617
l 617/617 698/698
l 698/698 660/660
l 660/660 564/564
l 564/564 565/565
l 565/565 568/568
l 568/568 567/567
l 567/567 650/650
l 650/650 661/661
l 661/661 566/566
l 566/566 649/649
l 649/649 626/626
l 626/626 526/526
l 526/526 629/629
l 629/629 621/621
l 621/621 664/664
l 664/664 651/651
l 651/651 560/560
l 560/560 525/525
l 525/525 685/685
l 685/685 620/620
l 620/620 563/563
l 563/563 678/678
l 678/678 561/561
l 561/561 562/562
l 562/562 663/663
l 663/663 676/676
l 676/676 570/570
l 570/570 571/571
l 571/571 569/569
l 569/569 528/528
l 528/528 628/628
l 628/628 627/627
l 627/627 572/572
l 572/572 529/529
l 529/529 574/574
l 574/574 527/527
l 527/527 665/665
l 665/665 530/530
l 530/530 573/573
l 573/573 622/622
l 622/622 693/693
l 693/693 575/575
l 575/575 531/531
l 531/531 642/642
l 642/642 643/643
l 643/643 662/662
l 662/662 674/674
l 674/674 673/673
l 673/673 616/616
l 616/616 668/668
l 668/668 684/684
l 684/684 669/669
l 669/669 634/634
l 634/634 594/594
l 594/594 595/595
l 595/595 542/542
l 542/542 596/596
l 596/596 597/597
l 597/597 670/670
l 670/670 603/603
l 603/603 604/604
l 604/604 605/605
l 605/605 606/606
l 606/606 623/623
l 623/623 602/602
l 602/602 600/600
l 600/600 601/601
l 601/601 599/599
l 599/599 598/598
l 598/598 612/612
l 612/612 607/607
l 607/607 608/608
l 608/608 686/686
l 686/686 543/543
l 543/543 635/635
l 635/635 679/679
l 679/679 655/655
l 655/655 609/609
l 609/609 611/611
l 611/611 638/638
l 638/638 637/637
l 637/637 636/636
l 636/636 544/544
l 544/544 690/690
l 690/690 624/624
l 624/624 680/680
l 680/680 610/610
l 610/610 615/615
l 615/615 613/613
l 613/613 614/614
l 614/614 545/545
l 545/545 681/681
l 681/681 653/653
l 653/653 654/654
l 654/654 593/593
l 593/593 589/589
l 589/589 695/695
l 695/695 691/691
l 691/691 541/541
l 541/541 588/588
l 588/588 587/587
l 587/587 591/591
l 591/591 540/540
l 540/540 590/590
l 590/590 539/539
l 539/539 583/583
l 583/583 666/666
l 666/666 584/584
l 584/584 538/538
l 538/538 585/585
l 585/585 537/537
l 537/537 582/582
l 582/582 586/586
l 586/586 592/592
l 592/592 694/694
l 694/694 536/536
l 536/536 579/579
l 579/579 697/697
l 697/697 633/633
l 633/633 632/632
l 632/632 631/631
l 631/631 578/578
l 578/578 581/581
l 581/581 580/580
l 580/580 688/688
l 688/688 687/687
l 687/687 535/535
l 535/535 630/630
l 630/630 576/576
l 576/576 534/534
l 534/534 577/577
l 577/577 532/532
l 532/532 533/533
l 533/533 644/644
l 644/644 667/667
l 667/667 652/652
l 652/652 672/672
l 672/672 671/671
l 671/671 524/524
l 524/524 554/554
l 554/554 523/523
l 523/523 683/683
l 683/683 555/555
l 555/555 522/522
l 522/522 625/625
l 625/625 689/689
l 689/689 648/648
l 648/648 556/556
l 556/556 521/521
l 521/521 557/557
l 557/557 675/675
l 675/675 552/552
l 552/552 520/520
l 520/520 553/553
l 553/553 519/519
l 519/519 682/682
l 682/682 677/677
l 677/677 551/551
l 551/551 518/518
l 518/518 659/659
l 659/659 647/647
l 647/647 657/657
l 657/657 645/645
l 645/645 548/548
l 548/548 699/699
l 699/699 549/549
l 549/549 547/547
l 547/547 618/618
l 618/618 546/546
l 546/546 515/515
l 515/515 619/619
l 619/619 558/558
l 558/558 692/692
l 692/692 559/559
l 559/559 656/656
l 656/656 517/517
l 517/517 641/641
l 641/641 646/646
l 646/646 640/640
l 640/640 516/516
l 516/516 550/550
l 550/550 658/658
l 658/658 639/639
l 730/730 734/734
l 734/734 720/720
l 720/720 737/737
l 737/737 718/718
l 718/718 719/719
l 719/719 701/701
l 701/701 716/716
l 716/716 729/729
l 729/729 717/717
l 717/717 725/725
l 725/725 743/743
l 743/743 707/707
l 707/707 727/727
l 727/727 732/732
l 732/732 700/700
l 700/700 708/708
l 708/708 739/739
l 739/739 709/709
l 709/709 736/736
l 736/736 710/710
l 710/710 733/733
l 733/733 711/711
l 711/711 728/728
l 728/728 740/740
l 740/740 744/744
l 744/744 715/715
l 715/715 746/746
l 746/746 741/741
l 741/741 712/712
l 712/712 713/713
l 713/713 714/714
l 714/714 731/731
l 731/731 723/723
l 723/723 726/726
l 726/726 738/738
l 738/738 724/724
l 724/724 735/735
l 735/735 721/721
l 721/721 745/745
l 745/745 703/703
l 703/703 742/742
l 742/742 702/702
l 702/702 705/705
l 705/705 722/722
l 722/722 706/706
l 706/706 704/704
l 704/704 730/730
