v -0.25 -9.5413440000000005 -55.976357499999999
v 3.25 -9.5413440000000005 -55.976357499999999
v 1.5 -9.5413440000000005 -55.976357499999999
v -2 -9.5413440000000005 -55.976357499999999
v -3.2387790000000001 -9.4530030000000007 -56.296753500000001
v 4.125 -9.5413440000000005 -55.976357499999999
v 5 0.83879599999999999 -58.489695500000003
v 5 1.6865000000000001 53.282130500000001
v 5 1.8693040000000001 -56.728899499999997
v 5 2.806743 -54.915045499999998
v 5 3.6511170000000002 -53.048132500000001
v 5 6.5299829999999996 -42.247666500000001
v 5 2.0357430000000001 -5.5776484999999996
v 5 -0.41758200000000001 3.3333694999999999
v 5 0.45111600000000002 0.2109105
v 5 -2.8484310000000002 12.212405499999999
v 5 -4.3521660000000004 17.8062015
v 5 3.443641 -11.1020015
v 5 3.162061 -9.9971285000000005
v 5 -2.0965639999999999 9.4155154999999997
v 5 -1.2862800000000001 6.4558285
v 5 6.8565120000000004 -39.102661500000004
v 5 -7.1018400000000002 30.288249499999999
v 5 0.32354300000000003 -59.370093500000003
v 5 -3.8388100000000001 -72.846936499999998
v 5 0.88546499999999995 -1.3503235
v 5 4.360595 -14.967636499999999
v 5 2.317323 -6.6825225000000001
v 5 5.6575810000000004 -21.398846500000001
v 5 7.0176220000000002 -35.804436500000001
v 5 -1.7757149999999999 50.144343499999998
v 5 -3.9762330000000001 16.407756500000001
v 5 -2.791029 48.910189500000001
v 4.9975370000000003 -2.4544800000000002 -63.946987499999999
v 5 -3.224364 13.610858500000001
v 5 6.752281 -29.721398499999999
v 5 5.2097069999999999 55.833384500000001
v 5 -2.1706989999999999 -65.2295905
v 5 4.0733030000000001 -52.114676500000002
v 5 2.5208159999999999 53.919566500000002
v 5 -6.7163000000000004 28.073741500000001
v 5 6.2571580000000004 -44.293263500000002
v 5 -2.472496 10.8139605
v 5 -2.0824859999999998 -67.214208499999998
v 5 -0.80943699999999996 -60.929194500000001
v 5 5.8247559999999998 -46.211567500000001
v 5 -7.5510869999999999 36.011889500000002
v 5 -5.6258150000000002 23.085566499999999
v 5 -1.942418 -62.488294500000002
v 5 5.0681849999999997 -18.2794235
v 5 1.3540490000000001 -57.609297499999997
v 5 -5.8897440000000003 43.947512500000002
v 5 -6.446682 42.679522499999997
v 5 2.8804810000000001 -8.8922624999999993
v 5 0.016767000000000001 1.7721435000000001
v 5 -5.1769569999999998 21.145114499999998
v 5 6.9496019999999996 -33.4182445
v 5 -6.9090699999999998 29.180995500000002
v 5 3.2289289999999999 -53.981589499999998
v 5 -4.5695769999999998 46.445773500000001
v 5 -7.2946109999999997 31.3955035
v 5 -6.802422 41.403063500000002
v 5 -0.46176400000000001 51.394526499999998
v 5 7.2502300000000002 57.111293500000002
v 5 -5.332808 45.215502499999999
v 5 6.910215 -38.003254499999997
v 5 -7.4341590000000002 32.985079499999998
v 5 -11.455977000000001 -55.446568499999998
v 5 6.8815799999999996 -31.032055499999998
v 5 -17.784119 -77.393966500000005
v 5 -7.5284659999999999 37.449122500000001
v 5 6.2299689999999996 56.472331500000003
v 5 -8.1618099999999991 -76.862401500000004
v 5 -11.925058 -78.089452499999993
v 5 1.319814 -2.9115495
v 5 -17.338815 -55.8988005
v 5 -2.337882 -69.184300500000006
v 5 -0.85193099999999999 4.8946025000000004
v 5 5.3923550000000002 -48.129870500000003
v 5 -7.3433140000000003 38.787867499999997
v 5 -4.7281000000000004 19.204653499999999
v 5 -21.155529000000001 -75.320019500000001
v 5 -5.0393610000000004 -74.429708500000004
v 5 -13.908612 -78.199031500000004
v 5 5.8931820000000004 -22.862374500000001
v 5 -24.807219 -64.516731500000006
v 5 -1.720629 8.0170624999999998
v 5 -23.385507 -60.822624500000003
v 5 6.1287839999999996 -24.325905500000001
v 5 3.3551310000000001 54.556986500000001
v 5 6.8028079999999997 -40.2020695
v 5 6.493684 -27.1000905
v 5 -22.523119000000001 -73.879117500000007
v 5 -7.5737059999999996 34.5746495
v 5 -6.5235279999999998 26.966487499999999
v 5 6.3643850000000004 -25.789433500000001
v 5 -19.559922 -76.503458499999994
v 5 4.1894450000000001 55.194422500000002
v 5 2.384557 -55.848501499999998
v 5 -23.621703 -72.223941499999995
v 5 4.7143889999999997 -16.623528499999999
v 5 -7.1581619999999999 40.1266125
v 5 -13.43329 -55.254935500000002
v 5 -3.8063440000000002 47.676043499999999
v 5 6.6229820000000004 -28.4107445
v 5 -24.418357 -70.404098500000003
v 5 5.4219790000000003 -19.935318500000001
v 5 -3.600298 15.0093035
v 5 -20.793226000000001 -57.831343500000003
v 5 -9.9901269999999993 -77.639411499999994
v 5 -24.256847 -62.6079145
v 5 4.0068010000000003 -13.3117415
v 5 -19.149975999999999 -56.715002499999997
v 5 -15.414025000000001 -55.407200500000002
v 5 -25.020132 -66.491867499999998
v 5 -24.889202999999998 -68.4741255
v 5 1.7541629999999999 -4.4727825000000001
v 5 -15.88134 -77.964863500000007
v 5 0.852186 52.644709499999998
v 5 -6.4949019999999997 -75.781702499999994
v 5 -2.92923 -71.080823499999994
v 5 -22.219318000000001 -59.214369499999997
v 5 4.7328289999999997 -50.122273499999999
v 5 -6.0746710000000004 25.0260265
v 5 6.9155899999999999 -32.225151500000003
v 5 3.7252209999999999 -12.2068675
v 5 6.9836099999999997 -34.611340499999997
v 5 6.9639179999999996 -36.903843500000001
v 5 2.598903 -7.7873884999999996
v 5 1.0964225000000001 -58.049496500000004
v 5 2.1036580000000002 53.600848499999998
v 5 1.2693430000000001 52.963419999999999
v 5 1.6116765000000002 -57.169098499999997
v 5 -2.1265925000000001 -66.221899500000006
v 5 3.017836 -54.448317500000002
v 5 2.59565 -55.381773499999994
v 5 3.8622100000000001 -52.581404500000005
v 5 3.4400230000000001 -53.514860999999996
v 5 -0.24294699999999997 -60.149644000000002
v 5 2.7396919999999998 -8.3398254999999999
v 5 2.458113 -7.2349554999999999
v 5 2.1269305000000003 -56.288700499999997
v 5 4.1836979999999997 -14.139689000000001
v 5 3.302851 -10.549565000000001
v 5 6.9666059999999996 -34.014792499999999
v 5 6.8985849999999997 -31.628603500000001
v 5 -6.2990995000000005 25.996257
v 5 6.9325960000000002 -32.821697999999998
v 4.9987685000000006 -2.3125895000000001 -64.588289000000003
v 5 -6.6199139999999996 27.520114499999998
v 5 -3.412331 14.310081
v 5 -7.0054549999999995 29.7346225
v 5 -6.8126850000000001 28.627368500000003
v 5 2.9379735 54.238276499999998
v 5 3.7722880000000001 54.875704499999998
v 5 0.58116950000000001 -58.929894500000003
v 5 -3.0363975000000001 12.911632000000001
v 5 6.9907699999999995 -36.354140000000001
v 5 6.9370665000000002 -37.453548999999995
v 5 3.8660110000000003 -12.759304499999999
v 5 7.7603619999999998 57.430774
v 5 6.7400994999999995 56.791812500000006
v 5 7.0006159999999999 -35.207888499999996
v 5 3.5844309999999999 -11.654434500000001
v 5 6.3935705 -43.270465000000002
v 5 4.2721464999999998 -14.553662750000001
v 5 -2.1045392500000002 -66.718053999999995
v 5 4.0952494999999995 -13.72571525
v 5 21.577081 75.208460500000001
v 5 20.771684 58.474421499999998
v 5 6.1255110000000004 74.925898500000002
v 5 11.795709 56.370890500000002
v 5 13.683057 56.153895499999997
v 5 3.3288989999999998 70.024562500000002
v 5 17.42933 56.697245500000001
v 5 12.844609999999999 78.164302500000005
v 5 3.0003030000000002 68.153422500000005
v 5 10.979238 77.804362499999996
v 5 4.9149969999999996 73.461711500000007
v 5 14.744077000000001 78.199031500000004
v 5 9.9735239999999994 56.908320500000002
v 5 23.316984000000001 61.276438499999998
v 5 22.165353 59.765513499999997
v 5 24.551027000000001 70.4126385
v 5 23.841524 72.174967499999994
v 5 9.2032220000000002 77.129862500000002
v 5 18.420850000000002 77.298442499999993
v 5 25.020132 66.656352499999997
v 5 24.765832 64.773661500000003
v 5 24.192457000000001 62.962474499999999
v 5 22.840322 73.789515499999993
v 5 24.947813 68.554759500000003
v 5 15.579660000000001 56.263758500000002
v 5 7.5691730000000002 76.160807500000004
v 5 16.621358000000001 77.907542500000005
v 5 3.9734950000000002 71.811640499999996
v 5 19.177267000000001 57.441477499999998
v 5 20.089234999999999 76.389765499999996
v 5 9.1220089999999985 57.3292875
v 5 2.9988735000000002 67.203524999999999
v -0.25 8.2704939999999993 57.750254499999997
v 1.5 8.2704939999999993 57.750254499999997
v -3.496156 8.2795839999999998 58.226298499999999
v -2 8.2704939999999993 57.750254499999997
v 3.25 8.2704939999999993 57.750254499999997
v 4.125 8.2704939999999993 57.750254499999997
v 4.5625 8.2704939999999993 57.750254499999997
v 3.25 2.9974440000000002 66.253627499999993
v -0.25 2.9974440000000002 66.253627499999993
v 1.5 2.9974440000000002 66.253627499999993
v -3.2801439999999999 3.3001490000000002 66.096995500000006
v -2 2.9974440000000002 66.253627499999993
v 4.125 2.9974440000000002 66.253627499999993
v 4.5625 2.9974440000000002 66.253627499999993
v 5 -4.6967850000000002 60.987269499999996
v 5 -3.8331909999999998 61.6560925
v 5 -2.9695969999999998 62.3249165
v 5 -8.9151220000000002 -3.3910035000000001
v 5 -8.0598969999999994 -6.5483525
v 5 -11.069247000000001 4.3430125000000004
v 5 -9.992184 0.47600049999999999
v 5 -6.1597489999999997 -13.8914385
v 5 -9.4536519999999999 -1.4575015
v 5 -2.1060050000000001 62.993739499999997
v 5 -3.0651419999999998 -32.8876195
v 5 -17.413350999999999 39.165522500000002
v 5 -3.0142730000000002 -35.085369499999999
v 5 -16.475698000000001 43.943675499999998
v 5 -4.2509810000000003 -22.785916499999999
v 5 -3.0397080000000001 -33.986496500000001
v 5 -3.7999160000000001 -25.535000499999999
v 5 -14.933588 18.902545499999999
v 5 -15.688909000000001 22.1393235
v 5 0.92538600000000004 64.969721500000006
v 5 -10.530715000000001 2.4095105000000001
v 5 -6.4764410000000003 -12.6675915
v 5 -7.7432059999999998 -7.7721985
v 5 -3.3324799999999999 -29.349144500000001
v 5 -3.5374020000000002 -41.965405500000003
v 5 -7.0318909999999999 58.948725500000002
v 5 -3.4534310000000001 -28.129345499999999
v 5 -17.157662999999999 40.774432500000003
v 5 -0.085078000000000001 64.311061499999994
v 5 -15.311248000000001 20.520930499999999
v 5 -6.7931309999999998 -11.4437455
v 5 -6.7648869999999999 -51.659819499999998
v 5 -17.205957000000001 30.339785500000001
v 5 -17.518761999999999 34.010752500000002
v 5 -4.2885859999999996 -45.4421015
v 5 -5.1597850000000003 -18.263329500000001
v 5 -4.0254479999999999 -24.160458500000001
v 5 -17.503800999999999 37.478289500000002
v 5 -12.036096000000001 53.270991500000001
v 5 -11.607779000000001 6.2765155000000004
v 5 -5.3628790000000004 -48.655434499999998
v 5 -16.517605 26.103419500000001
v 5 -15.409746999999999 47.098574499999998
v 5 -5.5014209999999997 -16.6893055
v 5 -4.8181500000000002 -19.837349499999998
v 5 -3.2426740000000001 -40.1535005
v 5 -14.088156 15.498995499999999
v 5 -5.980715 -50.203978499999998
v 5 -9.7477719999999994 56.165415500000002
v 5 -1.0955410000000001 63.652400499999999
v 5 -10.992138000000001 54.751841499999998
v 5 -13.925064000000001 50.241664499999999
v 5 -16.066569000000001 23.7577085
v 5 -5.8430580000000001 -15.1152845
v 5 -13.152613000000001 11.928675500000001
v 5 -7.549061 -53.115660499999997
v 5 -7.4265140000000001 -8.9960445
v 5 -14.555928 17.284159500000001
v 5 -3.2115290000000001 -30.5689475
v 5 -3.1157569999999999 -38.168873499999997
v 5 -8.5034050000000008 57.579005500000001
v 5 -16.968641999999999 28.449130499999999
v 5 -4.7450450000000002 -47.106888499999997
v 5 -4.4765129999999997 -21.4113705
v 5 -8.3765889999999992 -5.3245054999999999
v 5 -17.443272 32.230441499999998
v 5 -12.14631 8.2100174999999993
v 5 1.9358500000000001 65.628382500000001
v 5 -16.049419 45.504000499999997
v 5 -13.620385000000001 13.713839500000001
v 5 -12.684842 10.1435195
v 5 -8.5452030000000008 -54.546009499999997
v 5 -2.988839 -36.184243500000001
v 5 -5.560378 60.3184465
v 5 -3.5743830000000001 -26.909546500000001
v 5 -3.0905770000000001 -31.788746499999998
v 5 -13.080054000000001 51.790156500000002
v 5 -17.594251 35.791064499999997
v 5 -14.770073999999999 48.693156500000001
v 5 -16.901976000000001 42.383349500000001
v 5 -3.8321290000000001 -43.777310499999999
v 5 -16.743124000000002 27.2762785
v 5 -7.1098239999999997 -10.219891499999999
v 5 -16.292086999999999 24.930560499999999
v 5 -4.2649879999999998 61.321680999999998
v 5 -5.1285815000000001 60.652857999999995
v 5 0.42015400000000003 64.640391499999993
v 5 2.466647 65.94100499999999
v 5 1.4306179999999999 65.299052000000003
v 5 -3.4013939999999998 61.9905045
v 5 -17.0872995 29.394458
v 5 -3.0269905000000001 -34.535933
v 5 -3.0015559999999999 -35.634806499999996
v 5 -2.537801 62.659328000000002
v 5 -16.855882999999999 27.8627045
v 5 -16.630364499999999 26.689849000000002
v 5 -6.3180949999999996 -13.279515
v 5 -6.6347860000000001 -12.055668499999999
v 5 -9.0432735000000015 -55.261183500000001
v 5 -6.9514774999999993 -10.831818500000001
v 5 -3.3929555000000002 -28.739245
v 5 -3.2720045 -29.959046000000001
v 5 -3.0524249999999999 -33.437058
v 5 -3.0778594999999997 -32.338183000000001
v 5 12.242203999999999 70.946696500000002
v 5 9.877637 66.655543499999993
v 5 9.9883439999999997 68.260646499999993
v 5 15.398515 63.268183499999999
v 5 14.356961999999999 71.319606500000006
v 5 16.654198999999998 70.389521500000001
v 5 18.090730000000001 67.931224499999999
v 5 18.096399000000002 66.4638475
v 5 13.272283 71.287959499999999
v 5 10.389047 65.104853500000004
v 5 11.318669999999999 63.996958499999998
v 5 16.672135999999998 63.996958499999998
v 5 11.318669999999999 70.376963500000002
v 5 13.995400999999999 63.022700499999999
v 5 15.41966 71.1000935
v 5 12.571142 63.273844500000003
v 5 17.601755000000001 69.269099499999996
v 5 17.601755000000001 65.104853500000004
v 5 10.499406 69.426707500000006
v 5 10.853858499999999 64.550905999999998
v 5 12.7572435 71.117328000000001
v 5 11.944906 63.6354015
v 5 13.814622499999999 71.30378300000001
v 5 10.243874999999999 68.843677
v 5 10.909037999999999 69.901835500000004
v -5 16.928773 64.2535965
v -5 11.615961 63.788783500000001
v -5 11.062036000000001 70.120341499999995
v -5 18.090730000000001 67.931224499999999
v -5 17.601755000000001 69.269099499999996
v -5 18.096399000000002 66.4638475
v -5 16.672135999999998 70.376963500000002
v -5 13.272283 71.287959499999999
v -5 13.272283 63.085978500000003
v -5 11.913273999999999 70.793315500000006
v -5 10.389047 69.269099499999996
v -5 16.077531 63.580607499999999
v -5 15.748601000000001 70.946696500000002
v -5 14.718519000000001 71.287959499999999
v -5 14.696714 63.0840715
v -5 10.389047 65.104853500000004
v -5 9.8944069999999993 66.4638475
v -5 17.601755000000001 65.104853500000004
v -5 9.8944069999999993 67.910075500000005
v -5 17.265264000000002 64.679225000000002
v -5 16.210368500000001 70.661830000000009
v -5 15.233560000000001 71.117328000000001
v -5 11.487655 70.4568285
v -5 10.7255415 69.694720499999988
v -5 16.503152 63.917102
v 0 -12.243352 -69.382703500000005
v 0 -15.533668 -65.038439499999996
v 0 -16.061499999999999 -66.677876499999996
v 0 -10.366712 -67.176106500000003
v 0 -11.171208999999999 -64.656774499999997
v 0 -14.173631 -63.981721499999999
v 0 -10.496155999999999 -65.6965565
v 0 -15.390236 -68.522156499999994
v 0 -10.994384999999999 -68.522156499999994
v 0 -12.210991 -63.981721499999999
v 0 -13.69054 -69.503475499999993
v 0 -11.6188685 -68.952429999999993
v 0 -10.6805485 -67.849131499999999
v 5 -10.344917000000001 -66.926992499999997
v 5 -15.296493 -64.739855500000004
v 5 -14.173631 -69.374032499999998
v 5 -15.213412999999999 -68.698980500000005
v 5 -14.400269 -64.087405500000003
v 5 -10.496155999999999 -65.6965565
v 5 -10.651494 -67.992318499999996
v 5 -12.694082 -69.503475499999993
v 5 -13.192311999999999 -63.8086895
v 5 -15.888465999999999 -65.6965565
v 5 -11.348032 -64.479951499999999
v 5 -11.348032 -68.875803500000004
v 5 -15.888465999999999 -67.659198500000002
v 5 -15.550939499999998 -68.179089500000003
v 5 -14.693522 -69.036506500000002
v 5 -13.7962905 -63.948047500000001
v 5 -10.420536500000001 -66.311774499999999
v 5 -10.498205500000001 -67.459655499999997
v 5 -14.848381 -64.413630500000011
v 0 -7.2948040000000001 -70.339490499999997
v 0 -6.7629339999999996 -69.198892499999999
v 0 -14.801140999999999 -73.839752500000003
v 0 -20.657630999999999 -67.983262499999995
v 0 -18.188282000000001 -72.260304500000004
v 0 -19.078182999999999 -71.370403499999995
v 0 -16.016770999999999 -73.514028499999995
v 0 -20.331904999999999 -69.198892499999999
v 0 -20.767319000000001 -66.729540499999999
v 0 -16.016770999999999 -59.945057499999997
v 0 -8.0166570000000004 -71.370403499999995
v 0 -19.800035999999999 -70.339490499999997
v 0 -20.331904999999999 -64.260190499999993
v 0 -8.0166570000000004 -62.0886815
v 0 -12.293697 -73.839752500000003
v 0 -20.657630999999999 -65.475818500000003
v 0 -19.800035999999999 -63.119593500000001
v 0 -13.547419 -59.509642499999998
v 0 -19.078182999999999 -62.0886815
v 0 -11.078068 -73.514028499999995
v 0 -12.293697 -59.619328500000002
v 0 -17.157368999999999 -60.4769255
v 0 -11.078068 -59.945057499999997
v 0 -18.188282000000001 -61.198778500000003
v 0 -8.9065589999999997 -72.260304500000004
v 0 -6.7629339999999996 -64.260190499999993
v 0 -7.2948040000000001 -63.119593500000001
v 0 -9.9374710000000004 -72.9821575
v 0 -9.9374710000000004 -60.4769255
v 0 -17.157368999999999 -72.9821575
v 0 -6.4372069999999999 -67.983262499999995
v 0 -6.327521 -66.729540499999999
v 0 -14.801140999999999 -59.619328500000002
v 0 -8.9065589999999997 -61.198778500000003
v 0 -6.4372069999999999 -65.475818500000003
v 0 -13.547419 -73.949440499999994
v 0 -11.6858825 -73.676890499999999
v 0 -10.5077695 -73.248092999999997
v 0 -7.6557305000000007 -70.854946999999996
v 0 -6.6000704999999993 -64.868004499999998
v 0 -6.3823639999999999 -66.102679499999994
v 0 -20.494768000000001 -64.868004499999998
v 0 -8.461608 -61.643730000000005
v 0 -9.422015 -60.837851999999998
v 0 -17.672825500000002 -72.621230999999995
v 0 -16.587069999999997 -73.248092999999997
v 0 -10.5077695 -60.210991499999999
v 0 -15.408956 -59.782192999999999
v 0 -15.408956 -73.676890499999999
v 0 -12.920558 -73.894596500000006
v 0 -14.17428 -73.894596500000006
v 0 -20.065970499999999 -63.689892
v 0 -20.712474999999998 -67.356401500000004
v 0 -20.712474999999998 -66.102679499999994
v 0 -19.439109500000001 -70.854946999999996
v 0 -16.587069999999997 -60.210991499999999
v 0 -19.439109500000001 -62.6041375
v 0 -20.065970499999999 -69.769191500000005
v 0 -9.422015 -72.621230999999995
v 0 -14.17428 -59.564485500000004
v 0 -8.461608 -71.815353999999999
v 0 -7.0288690000000003 -63.689892
v -5 -19.078182999999999 -62.0886815
v -5 -20.767319000000001 -66.729540499999999
v -5 -8.0166570000000004 -71.370403499999995
v -5 -7.2948040000000001 -63.119593500000001
v -5 -18.188282000000001 -61.198778500000003
v -5 -11.078068 -73.514028499999995
v -5 -20.331904999999999 -64.260190499999993
v -5 -7.2948040000000001 -70.339490499999997
v -5 -19.800035999999999 -63.119593500000001
v -5 -6.7629339999999996 -64.260190499999993
v -5 -12.293697 -73.839752500000003
v -5 -19.800035999999999 -70.339490499999997
v -5 -17.157368999999999 -72.9821575
v -5 -8.9065589999999997 -72.260304500000004
v -5 -14.801140999999999 -73.839752500000003
v -5 -6.4372069999999999 -65.475818500000003
v -5 -16.016770999999999 -59.945057499999997
v -5 -8.9065589999999997 -61.198778500000003
v -5 -9.9374710000000004 -60.4769255
v -5 -12.293697 -59.619328500000002
v -5 -6.7629339999999996 -69.198892499999999
v -5 -18.188282000000001 -72.260304500000004
v -5 -20.657630999999999 -67.983262499999995
v -5 -8.0166570000000004 -62.0886815
v -5 -20.657630999999999 -65.475818500000003
v -5 -17.157368999999999 -60.4769255
v -5 -16.016770999999999 -73.514028499999995
v -5 -6.327521 -66.729540499999999
v -5 -13.547419 -73.949440499999994
v -5 -9.9374710000000004 -72.9821575
v -5 -20.331904999999999 -69.198892499999999
v -5 -11.078068 -59.945057499999997
v -5 -6.4372069999999999 -67.983262499999995
v -5 -13.547419 -59.509642499999998
v -5 -19.078182999999999 -71.370403499999995
v -5 -14.801140999999999 -59.619328500000002
v -5 -20.065970499999999 -69.769191500000005
v -5 -7.6557305000000007 -70.854946999999996
v -5 -19.439109500000001 -70.854946999999996
v -5 -18.633232499999998 -71.815353999999999
v -5 -14.17428 -59.564485500000004
v -5 -12.920558 -59.564485500000004
v -5 -14.17428 -73.894596500000006
v -5 -12.920558 -73.894596500000006
v -5 -15.408956 -59.782192999999999
v -5 -18.633232499999998 -61.643730000000005
v -5 -19.439109500000001 -62.6041375
v -5 -10.5077695 -73.248092999999997
v -5 -9.422015 -72.621230999999995
v -5 -11.6858825 -73.676890499999999
v -5 -8.461608 -71.815353999999999
v -5 -15.408956 -73.676890499999999
v -5 -16.587069999999997 -73.248092999999997
v -5 -17.672825500000002 -72.621230999999995
v 4.9999981066746217 3.5571905958170849 65.133289208344053
v 4.9999999929698653 6.7648520263696845 59.758807794816562
v 4.9999999768007788 4.1312414096399914 64.020215474256617
v 4.9999999999998668 5.3704690697321968 61.842697781147976
v 4.9999999999257128 6.0488250826421215 60.788449026280247
v 4.9999664933653598 7.5098240379530754 58.749038934127185
v 4.9999999999324807 4.7325303252458522 62.921319191395469
v 5 2.9974440000000002 66.253627499999993
v 5 8.2704939999999993 57.750254499999997
v -4.9590699150178814 -9.8172770001656247 -59.287424539701192
v -3.2387790000000001 -9.4530030000000007 -56.296753500000001
v -4.7162513585359642 -9.6974610922271101 -58.120760971908432
v -5 -9.9374710000000004 -60.4769255
v -4.1403556091729783 -9.565811477979814 -57.076589827255319
v -4.3052341606591895 7.7763787921351959 58.960488681329693
v -4.3446323959818436 3.6444521197724908 65.300432729418873
v -4.9765209831544235 5.2835063430899289 62.987225132957306
v -3.496156 8.2795839999999998 58.226298499999999
v -4.8132294501981372 4.3821150263753115 64.275527752031564
v -3.2801439999999999 3.3001490000000002 66.096995500000006
v -4.8812116456092056 6.975663273105928 60.292205626698276
v -4.9887322622398367 6.1462774320180529 61.662955589018821
v 5.0000000000000018 -5.313371723675238 4.7000651348349187
v 5 -6.7691271739487835 4.6162141048406635
v -4.9800167972925129 -6.270935846270838 3.4370797047363122
v 5.0000000000000018 -9.642058660349333 4.4347547299173256
v 5 -2.3509333031183592 4.8378518028086006
v -0.053539733530301115 -10.762233265313572 3.2566812666180041
v -3.9956869252228362 -1.6593121502264236 4.1829327883726544
v 2.5066525228292535 -10.907785781391185 3.7670264081070672
v -3.8748759224169138 -9.734901759313459 2.9085790811418422
v -1.712176912002324 -0.71341388832100328 4.280264774822701
v -4.6396367283727473 -8.5918465496685563 3.0591310176001825
v 5 -11.069247000000001 4.3430125000000004
v 0.87671768736149758 -0.69849465376480135 4.3598699631032005
v -4.9364501101169971 -3.9635809061760039 3.8196323437954343
v -4.9176274154972877 -7.4429088851848384 3.2428357439434725
v 5 -3.8401945135145961 4.7742166981137402
v -4.9893002937552042 -5.1096201525947009 3.6299315705312081
v -2.9436609999564034 -0.97673025475643849 4.2675886130487672
v 3.6028451200828293 -0.79017117214835242 4.6794557723079064
v -1.3700119806212312 -10.671982062470867 3.0454913819997307
v -4.6600663413447609 -2.7267679330237748 4.0209261711832713
v 3.7579792096220634 -10.987195609428994 4.0505987645174635
v -2.6982773409910745 -10.441663711119638 2.8985290143438895
v 5 -0.85193099999999999 4.8946025000000004
v 1.238010339713655 -10.833079433822222 3.5002484534136666
v 5.0000000000000018 -8.2103683673174128 4.5264682124821221
v 2.2239770099661222 -0.73668371272367639 4.4935164852184615
v -0.43402074830276705 -0.68216992822022582 4.290682852251865
v -3.5395945947081806 17.473584468729243 69.138082491581827
v -3.9423734626858122 21.901311467870681 72.766670674127823
v 0.80183500772229555 17.434152600636242 69.015449760679715
v 3.5989250510526798 22.754072995535921 73.798265169280825
v -4.7741095447861905 20.494664797005626 71.58188745408232
v 5.0000000000000018 21.718172541617086 72.925105532442316
v -2.0785256149692195 17.473252860351717 69.07597502066271
v 3.6127798437878376 17.526700089692682 69.1602244423147
v -5 17.601755000000001 69.269099499999996
v 0.70729413839368305 22.744488981735572 73.796916948480771
v 2.2156729754740914 17.467247557730019 69.072471957078648
v 5 19.576627002940882 71.141669151677576
v 5.0000000000000018 20.624403821144174 72.04563592759439
v 2.1752607629906988 22.736057688779589 73.819309118160334
v -0.63059751114860063 17.434337000896498 69.026320949444653
v -2.453556877586085 22.632945111497332 73.463537446709807
v -4.9907003710539302 18.735137241929714 70.153371819564725
v -4.9979763988889436 18.22571208414298 69.751496812280863
v 5 18.57492972880803 70.213044310566318
v 5 17.601755000000001 69.269099499999996
v 5 22.840322 73.789515499999993
v -0.83129407436091696 22.763586970252682 73.712593413427328
v -1.7413627958633482 11.181305093906303 70.050368043238009
v 4.9999999999999858 9.860046235508257 72.64309980403101
v 0.55497237507496866 11.257476650456116 70.085844124693722
v -2.8596465933041744 11.168891196223353 70.035933036029064
v 3.7344627516030418 7.3652146690855362 75.890682095611794
v -5 11.062036000000001 70.120341499999995
v -0.094707312121880133 6.7610690770552129 75.422336044649057
v 2.4652104378589224 7.1116932534318806 75.718926693634913
v 1.6960262074530292 11.286698150552324 70.125745865360415
v 5.0000000000000018 9.110057090427194 73.799813541600429
v -4.6290721810348412 8.0402159399357842 73.585530111455341
v -0.5967870186240356 11.20248039655708 70.07648705876818
v 5 10.594263043971615 71.504464219195427
v -3.8716960102869948 7.2253549204920944 74.50940958791918
v -4.928790071177275 9.0553887086507672 72.436065973443277
v 1.1903807639462549 6.9245606067486669 75.53942571296929
v -2.7075238407972151 6.7655686574936542 75.072118199786217
v 5.0000000000000018 8.3444196333822447 74.974681526312821
v 5 11.318669999999999 70.376963500000002
v -1.3951636385465855 6.6958608409293925 75.282281599409004
v -4.9949754247888531 10.1905119609869 71.140533928449699
v 5 7.5691730000000002 76.160807500000004
v -4.9989755652212562 10.593893033070682 70.67176529582153
v 3.9166608760574753 11.338132967202863 70.248292482860137
v -3.9427926330353822 11.126803770145507 70.06354376804002
v 2.8167496080441898 11.319263566439638 70.174699316921576
v 3.478288376876459 15.874954521778623 56.389177986312802
v -2.3537886039286864 14.502674129668335 63.191779092974222
v 1.9476708497663093 16.139572235332736 56.464452394369786
v -2.7666715978481626 16.484835027278777 56.780958747998
v -1.0567033049856525 14.413547358049628 63.161508323232198
v -1.1700178559859067 16.475822961246188 56.548007066805482
v 1.4438657042902632 14.244113768728532 63.149715834381176
v 5 15.207686752851387 57.648350157384456
v 5 14.257064881227612 61.70372887411655
v 3.8309799988175399 14.069016107121277 63.149877651635357
v 0.21021888038879966 14.328035055955473 63.149384735568347
v -4.8302093327134852 15.810691142185433 59.314227304509878
v 5 14.539841907463249 60.372215597556348
v 0.4015199582979373 16.347875112612769 56.498932850919722
v -3.673150381100565 14.592530827050053 63.177420976166793
v -4.132688053792541 16.255813270738827 57.730673043336182
v 5 14.856734789185506 59.020418843756403
v -4.9825568701635872 15.269865529477734 61.153992600955426
v 5 13.995400999999999 63.022700499999999
v 2.6473707808491898 14.160341368075281 63.198917394561569
v -5 14.696714 63.0840715
v 5 15.579660000000001 56.263758500000002
v -4.9963717375088486 14.994906829660234 62.080731784051807
v -4.3031322497202904 -21.986912819670394 -71.620746609084478
v -4.5045198083727858 -2.7642020155112799 -21.475173464728229
v -4.5256780261429466 5.0950082254863709 -33.160603823630282
v -4.992392496947863 17.980445279447352 70.966299431170867
v -4.9531919543952005 -13.285976403024428 40.789999928451273
v -4.4360087886117849 5.0831415071864869 -41.119793253920577
v -4.9924302965039615 19.22126547468558 69.268241021215928
v -4.2923771739116248 -4.7024259490774956 -71.078359623006179
v -4.5477667612156925 -2.9445034362602578 -20.066184443325596
v -4.3074104150166779 -7.1093479129601604 45.250398906655278
v -4.9872213509419456 -4.7224772553603138 54.986201833306417
v -4.9487586376487211 1.9029794753329461 -19.304627660538671
v -4.1851397038659925 -10.89275561589521 -76.104961178789452
v -4.9951377871675309 14.84493810157438 72.284510965566994
v -3.2458925446776812 -7.6025427846303231 -54.2923759373694
v -4.8165132446883758 -14.402911445303047 29.515796448512788
v -3.881970080146381 -23.306536539037769 -63.229362022019131
v -4.7584702547486621 4.2168453035755578 -28.251181745404253
v -3.3729410317652091 -6.86072543313872 -53.106435255284666
v -3.2099436673554598 -8.4943315006638365 -55.335378971094968
v -4.7581524970204665 10.204743983165908 59.610133773365988
v -4.3052341606591895 7.7763787921351959 58.960488681329693
v -4.6630095690898976 -6.2064127036964072 -4.960218878210183
v -4.9947004089275246 19.476483631284424 68.270767362738866
v -4.9935708922820812 19.50683136987805 67.208801063828389
v -4.938571975522196 2.2568148796600696 -20.698824680367316
v -4.6479216945579189 -8.9393723890249213 28.672647142476283
v -4.7171509053967124 -5.7138836034128468 -6.6864961238360863
v -4.9882642428246093 16.202414535945387 61.686228766910773
v -3.8372353391464378 -2.1637340263700695 -34.578982318099541
v -4.7400986655306117 -6.7098390258931913 17.887352200451705
v -4.9649857455207327 -2.3686542058150262 -4.8443845357265776
v -4.737410321128726 -5.254920208536987 -8.3100352336841734
v -4.1368957542054776 -2.1764331387228584 -28.702539978861829
v -4.5967227671346205 -11.500359446129647 13.209383359377892
v -4.9561236816688314 -3.7693351684646927 2.6270824066962328
v -4.9616214678305912 0.46196050979746839 -14.140735232599265
v -4.7559559359907091 -6.3954088297196909 16.447382107892075
v -4.6993202070322226 -13.406796273821511 21.689790800887749
v -3.8475652239900775 -2.0930606089286723 -33.08047463919533
v -4.6396367283727473 -8.5918465496685563 3.0591310176001825
v -4.3146840736437877 -2.3414342084547313 -25.789554646243882
v -4.0765829579424189 -3.3165396184944327 -67.462536268500713
v -3.466102127803242 -5.3615367904372295 -50.557103990594499
v -4.3796370961319511 -3.0574484697304358 51.067145381890796
v -4.8855565583230955 -4.7122226814229506 8.0478305795289522
v -4.9487383347640979 1.5556062652295006 -17.967453393463288
v -4.6349762833761847 -7.9639922592371963 0.92699618785391658
v -4.2880518646856265 -15.978916431270772 -76.338771939021456
v -4.9658277103753594 14.013891491456983 60.630226678176896
v -4.5035242398805879 -9.1948472216341059 38.872149176682214
v -4.6105142520689171 -3.564961862810041 -15.80911715902225
v -4.9740706877526106 -8.4365134828102484 51.312993819031149
v -4.4553357915234422 -8.8795346659165961 40.432008154245878
v -4.9554639847823365 -9.9802418226341061 49.276385819001376
v -4.9657553099551537 12.736881182405082 60.221979338202146
v -4.535509231572922 -9.3994492860325938 37.335782176114506
v -4.7178244841385037 -7.0348687313104659 19.314382393961942
v -4.9588360867146584 -1.2298792541049246 -8.8647485702077482
v -4.4193983571590394 5.2129514228780103 -39.566387344998091
v -3.6829481259662291 -2.2371121344355669 -37.714614700293751
v -4.2310154181447945 -4.0961084002535593 -69.879694691763248
v -4.995431709281986 19.335484062688444 66.1296960905145
v -4.5269573829101368 -9.4741804126440066 32.861028558862003
v -4.0251959022594299 -23.692343885126533 -65.697431473869102
v -4.9543270786696798 7.1505673407347246 68.191307163798271
v -3.7692391233648381 -22.188949070998262 -60.936195733784551
v -3.6547143154174457 -14.111162981303748 -56.145030423186398
v -4.5335249757143039 8.9741956984219815 59.340823348396981
v -4.9248164270129138 2.8698723727678264 62.365852121931738
v -4.9364501101169971 -3.9635809061760039 3.8196323437954343
v -3.6151843900886345 -2.3020190126182993 -39.367228740946416
v -3.7600713097820302 -22.770278000795123 -62.086069496041851
v -4.6829427664617356 -4.445803707939648 -11.378116953443618
v -4.9096510434815386 2.6230505624889684 -22.144784104199339
v -3.7246262649141277 -16.969212518681964 -56.7889408753026
v -4.9890863708289324 9.0896631317447678 70.306663770908841
v -3.721707410992388 -18.252626852655709 -57.380237398436726
v -4.997515071034293 18.476555834448437 64.076790760856824
v -3.5488838747100058 -12.584525704426742 -56.085009028187301
v -4.128665477059231 -0.017660412633055282 -57.621362667558998
v -4.5925953730646114 -3.3341382213935806 -17.243190522820555
v -4.6276410536951316 -7.3489371240037729 -1.1445621292881341
v -4.3923323874131075 4.2718280733706271 -45.899260829670069
v -4.1088121298944777 -23.64511903980668 -66.958127339970176
v -4.3550205808549496 -7.3711050946501482 -74.227076062921398
v -4.66756378101989 4.5660600544033301 -29.866523399823734
v -4.3646583835245281 0.98640230749969315 54.774797953696719
v -4.8758296615052892 3.005932202340869 -23.628626100144736
v -4.6519062980688171 -13.067945836779259 19.920208667360082
v -4.9907533993541744 -5.6823242529051932 54.104194615731487
v -4.8312147435963544 -5.2435185927784778 10.816585271090421
v -4.9019120623351666 -14.385281727145514 33.703343053335807
v -4.9901585178720458 -3.7600690730814468 55.861157029929629
v -4.4219531967446528 -2.586961109955376 -22.894573490051371
v -4.318778519954364 -18.348418211959846 -75.2691894922432
v -3.7884833965173725 -21.446833402491862 -59.855950045687877
v -4.24354643825846 -14.709317858038069 -76.571932532847327
v -4.3139745066575035 -6.2472828496126107 46.827437984823085
v -4.9263220875450688 -13.587275984217225 39.406925182593042
v -4.5732626428607217 -3.1338724681493044 -18.659564875707673
v -4.7449864778183057 -14.137182162975808 26.633432472986769
v -4.988803009258195 -0.83952351494756083 58.557761413330056
v -4.7269471708443218 -13.698580022911056 23.421587864500125
v -4.6021258667479472 -12.693486164862968 18.159619963603866
v -4.6011170625545628 -10.154559222647592 8.4628560762757097
v -4.8795860123312398 3.6577197799508401 63.323412127323365
v -4.5945453754158008 -11.915353207325158 14.793890173906128
v -3.9589804051045157 -2.1191038524217425 -31.611976668012126
v -3.6495704405866998 -2.90953286313957 -42.719687670778953
v -4.7050271116674658 -7.3529171621158618 20.714945758680429
v -4.9728929782367501 -3.177571401329915 -1.0203768518884426
v -4.8502698344336519 -4.4700257299734698 6.6463461617309596
v -4.9474935958428539 1.2074009032094404 -16.676113875479139
v -4.6771776368189171 -8.7075963255282041 27.335756614299036
v -4.7741665028023501 -6.0899632118528464 15.013704918184288
v -4.3319004981898228 2.5600451925903989 55.929693980689144
v -4.996615436923582 17.829785524464864 63.163547458450786
v -3.5294423089104914 -4.134442025944578 -47.621620352032117
v -4.8671975965100653 -4.2132138284372465 5.2358637724484414
v -4.8559022139668198 -4.9753213123727633 9.4353479687627484
v -4.9666808224101544 -0.79971114068410276 -10.211756049588047
v -4.4040162589654352 3.8787331145985489 -47.57389869030964
v -4.9160008011813039 -13.849830366894594 37.99333155652549
v -4.5603544308436073 -9.4933043213797994 35.81832895238496
v -4.3604589525143673 -4.2082506270169278 49.737521217469542
v -4.9676046724112881 0.84650635825050013 -15.408457020006303
v -4.5866540441939954 -9.162619651813996 30.035148458772564
v -4.2386864811282354 0.76326650786410222 -56.024805360634602
v -4.4033109204634595 5.2780465973705688 -38.003559850024971
v -4.4631985422161975 5.2293478773639066 -34.801873053064263
v -4.3351805918200288 -7.8500839045097166 43.638778103260009
v -4.2849165997975369 4.2208739439515472 57.039990321482719
v -4.3555805560746128 -0.48649396171472081 53.590012457767187
v -4.4137853030561587 5.2840807362285691 -36.417371378023866
v -3.7159540686846677 -15.583291528262542 -56.366946430195114
v -4.6053657965345289 -9.6522073249686109 6.7408368215527599
v -4.7439228188958902 -13.944372323397973 25.074959502720773
v -4.3383180679241118 -5.2704301864836216 48.324532124411519
v -4.265821022747657 5.9664190352907944 58.057846387288777
v -4.612049488343807 -3.8095404425809019 -14.349459173218865
v -4.5365992373278026 -9.3454853576161767 31.430602853465373
v -4.872703459228509 -14.468067123847058 30.902874209934733
v -4.9825568701635872 15.269865529477734 61.153992600955426
v -3.5536041440464166 -3.6461094450864184 -46.036661600256949
v -4.9693814563022727 1.0965401562633406 60.447500403142939
v -4.9370936887235839 -14.080240640185089 36.563922844832469
v -4.6459298526008705 -7.9707339590173536 23.40452803264769
v -4.6982820450697833 -8.4644515516620107 26.021468873059881
v -3.7219862998999824 -1.700719844328074 -60.723564750226473
v -3.5039994375014212 -4.7274728724114787 -49.125462251115209
v -3.608053295851497 -3.2442196117576581 -44.395975896671843
v -4.8326572205526013 3.8266867927382453 -26.674959102448348
v -4.2132341029674381 -22.559701964575105 -70.504446437198993
v -4.2170285815295179 -2.2241096629089032 -27.245366192369005
v -3.9666694345064366 -0.83053200507270564 -59.185112324424814
v -4.6231370094029032 -11.082176113859191 11.655066265701791
v -4.9743544602314227 -2.6746929283681129 -3.5446557710896074
v -4.6212938764108031 -10.633998416976141 10.089397335057228
v -4.9907003710539302 18.735137241929714 70.153371819564725
v -4.589364838639586 -9.5013518152737895 34.324623955008484
v -4.6115146213431775 -9.1237105731873669 4.9278661072390992
v -4.3544634367883521 2.8241924918282213 -50.991170106772223
v -4.59600496759146 -12.313678285981547 16.44238368769814
v -4.9720389911607308 -9.248939611656894 50.315258390432021
v -4.3511254807763811 -2.4447042350408981 -24.334006521449361
v -4.3641075637589504 -1.8258144813234929 52.348705140934129
v -3.2387790000000001 -9.4530030000000007 -56.296753500000001
v -4.5504365210599662 4.850033572230096 -31.509906895149356
v -4.8132294501981372 4.3821150263753115 64.275527752031564
v -4.9609190626804125 -0.36626367992798003 -11.544129799059755
v -4.3501439605925354 -21.26720856307011 -72.675058451186089
v -3.7984899181589644 -3.0323582792143946 -65.216401262498096
v -4.3194871750228225 -6.3837959331018403 -73.265179958922175
v -4.4161193640064411 4.6114545618632787 -44.270720963868456
v -4.2679039053685486 -12.13336823462819 -76.507223305373572
v -4.3220283214539714 -17.202636955041115 -75.902298501209486
v -4.3131040257808966 -20.380170890767971 -73.618016736389151
v -4.9920857439470296 17.064295220057392 62.359705916558212
v -3.435892923212347 -6.0998317337181058 -51.871928808429558
v -4.3095215424153039 -19.4066771459579 -74.492184586679571
v -4.9568976536137672 -3.581660464507749 1.4256138517818178
v -4.6588067373469517 -4.1130630443113851 -12.873867309030459
v -4.0810792934509319 -2.1690703899443657 -30.158661840370339
v -4.208408229139124 -23.063238213815367 -69.374941477641272
v -4.9965133393871799 12.456207489288452 72.128642034139133
v -4.9714095246803147 8.0873370111944887 69.318339687563537
v -4.9625891680832801 -12.57777865600745 43.434121443714886
v -4.7963794612094119 -5.5189244171353984 12.199891522478154
v -4.8381698068081302 5.332216870863296 65.63405641521237
v -4.3625192622597417 3.3741027822540319 -49.270643763048483
v -4.9666042190829156 -1.6406126893155828 -7.5129441324840149
v -3.8010635714288741 -2.2432294048738877 -36.120410895291016
v -3.9518427940089635 -3.1314143553036846 -66.30240223554452
v -4.9032720942373889 -14.461692672516667 32.2946780184418
v -4.3097182653781942 -5.4784842575003783 -72.21376933157174
v -4.3035526490505429 -9.6485125159291183 -75.670739887723713
v -4.3185172195633381 1.5165200450631229 -54.389461132020344
v -4.9888560047889676 -1.8199476069234783 57.639144414012208
v -3.5288826968175893 -2.5099118361143939 -62.35757075180058
v -4.9761935921090421 -2.9427095966562904 -2.2709673289344523
v -4.9972202753729018 18.984874265000059 65.074671403721666
v -4.9693491296684531 -3.3870502515800744 0.21090633224720312
v -4.9098015068862431 6.2397134315722127 66.954809492620839
v -3.9698513023937325 -23.609000147696712 -64.44538572067512
v -3.6533984797214325 -2.9411591477644485 -64.223535160903296
v -3.7436426411342256 -20.495041307627311 -58.920061368946065
v -4.1686782568475254 -3.6286162675319833 -68.666755559959142
v -4.7996738747025969 -5.7952046897157805 13.5979858546171
v -4.9731646179326772 -12.95042862602757 42.134234231993915
v -4.2491256768285321 -13.421356165082482 -76.638407613303229
v -4.9646276725824778 -12.16744002870537 44.689489372075762
v -4.9186892863872851 11.460147431753917 59.893631519619113
v -4.1754640416251192 -23.429836342439412 -68.218005322368512
v -4.775615640805464 -14.298240059396001 28.103148990579093
v -4.9644360314340954 -2.0230011462414836 -6.1693077427082628
v -4.9865832025347832 -6.6325441268016512 53.202907266162114
v -4.9538449183808826 2.0127603811117325 61.406366774894167
v -4.9848320803014623 0.13844588572194175 59.495943514941658
v -4.9949754247888531 10.1905119609869 71.140533928449699
v -4.9917130770274314 17.049114481469925 71.60157799603337
v -4.9906516000328791 15.988741895318132 72.044277064734416
v -4.9974853116679316 11.285439280616192 71.731285013259694
v -4.6808158214315725 -8.2213775090507113 24.71617294767044
v -4.8088158535033667 3.3982340617505797 -25.140886016203776
v -4.9428850644430913 -10.630494127110818 48.195361724657687
v -4.9754543802949218 0.058698608249838038 -12.854043668848369
v -4.9889181325070489 -2.7936986190475839 56.741886827666164
v -4.3457887792545877 2.2027032131132769 -52.704423310777337
v -4.3540734571255015 -8.4674765494756201 -75.036837875847539
v -4.9457326356686755 -11.203555916437708 47.069766266368006
v -3.646223032047172 -2.5933881672736536 -41.035956607149799
v -4.6838753908342152 -7.6627445227291133 22.078402090439887
v -4.9187846419403698 -14.259329463086864 35.129403720158216
v -4.718783621699342 -4.8290183977961441 -9.8632848049640849
v -4.9945047100385178 13.6557953185564 72.31413961657023
v -3.7871467358750062 -19.477089363363739 -58.020408459749177
v -4.955608339163641 -11.712794139610402 45.901288066583469
v -4.6603683995971803 -6.7660008660328685 -3.1163411174947466
v -4.4084693819498604 -8.428042038772988 42.02038927673307
v -3.4075173989000049 -11.025050042340181 -56.150622937587116
v -4.9752485475630301 -7.5573744999841299 52.274008319424745
v -4.429448864912894 4.8788482664357034 -42.68133172589053
v 2.7613612173493856 -24.82960326673571 -68.239610856015901
v 1.6670153331631568 -15.898791668719859 -66.357951972281796
v -3.921753922764089 -20.656490461351304 -67.708374092521325
v 3.337078740910612 -15.781390622047372 -66.044548713840811
v -0.71651468427233067 -24.854392539281342 -68.194110010883065
v 3.8849399146203147 -24.821921782448079 -68.341786274411049
v 5 -23.399149311527932 -68.028525849531093
v -4.9206387642854139 -21.684693163048692 -68.076482929428067
v 5 -21.906147047009185 -67.578076266649276
v 5 -18.905216655254939 -66.651654630068791
v 5 -20.408288185771355 -67.119432980276798
v 0 -16.061499999999999 -66.677876499999996
v -2.8729874109879998 -20.672509761289177 -67.443974396400165
v -1.9386271911591741 -24.759092435362795 -68.236596503124886
v -3.1476544192053209 -24.326218871472797 -68.251764176989184
v 0.46856463946709787 -24.859281888001828 -68.16825450266515
v 1.6249814347347529 -24.849556215017358 -68.181625829511205
v -4.6506301686055824 -22.64026784996129 -68.162552950095858
v 5.0000000000000018 -17.397973253196739 -66.176247879161878
v 0 -20.767319000000001 -66.729540499999999
v 5 -15.888465999999999 -65.6965565
v -4.1754640416251192 -23.429836342439412 -68.218005322368512
v -5 -20.657630999999999 -67.983262499999995
v 0 -17.280011331654045 -66.680929425244884
v 5 -24.889202999999998 -68.4741255
v -1.8727008171168869 -20.695492218317213 -67.19359623570196
v 0 -19.632920616713594 -66.706761659997227
v 0 -18.473886336178936 -66.689760171910024
v -0.92113783569628449 -20.726396470341946 -66.957305125837138
v -2.9048216253261971 -9.2399480185422505 -72.408860315372181
v -3.9337727717236342 -6.4824315156540138 -65.64596304929168
v -2.8918284120855562 -6.4964217290252302 -65.798860346925579
v 1.9081575668897823 -6.3890765345331744 -75.598334663459454
v 4.999908301597296 -8.4712066852261358 -56.90814862746268
v 4.9999998006555142 -6.3303753147666093 -58.772055459669701
v 0 -12.243352 -69.382703500000005
v -2.9942805101436938 -6.585586903892894 -75.130552248090666
v 4.9999999998832489 -9.9887939363187215 -69.2065653517908
v 0 -9.4996870179399018 -66.925833981901974
v 2.2606633142264858 -2.0880545263622614 -62.879418486844685
v -2.182993725186114 -9.3252587338090756 -72.446610142435446
v 4.9999999999927773 -8.6283992203000039 -71.714620613704056
v -0.64295506651870415 -2.3830469809362569 -63.401201584645875
v -4.4808678690762003 -3.9318669863024986 -64.573641846424337
v 4.9999933895238193 -3.0565101743342264 -61.562038278748773
v 4.9999999998775575 -9.316233658928283 -70.441696955163394
v 0.83176933038876799 -2.2048336433071754 -63.108725417256593
v 0 -8.6595070108100174 -66.689085881038181
v -4.7287974916746469 -7.8234444810213111 -73.681680558798661
v 4.9999969453997508 -7.4016384937076127 -57.840028391949048
v 4.9999999999999183 -7.2128032502970356 -74.395065693062946
v 0 -10.366712 -67.176106500000003
v 4.9999999999980194 -7.925773639823519 -73.033735963310278
v -4.3550205808549496 -7.3711050946501482 -74.227076062921398
v 5 -1.942418 -62.488294500000002
v 4.9999998235695546 -5.2520863700754195 -59.703759860092788
v -1.3279226651737059 -6.3495634691198344 -75.46611181820515
v 3.4640583407746401 -6.4706057002017623 -75.64657324894678
v 3.6437856082235145 -2.0000528584110828 -62.68001840750928
v 4.999997857306651 -4.1612981146977024 -60.634029601182817
v 5 -9.5413440000000005 -55.976357499999999
v -4.9216043418164634 -8.3519645334828372 -72.999257795820228
v -4.8846192619818858 -5.1573844201027175 -64.995977380370476
v 0 -11.651141467716279 -70.110149062036186
v 5 -10.651494 -67.992318499999996
v -2.1613115622772572 -2.4352897584968249 -63.824526958322849
v 2.5376055420235595 -10.63591568083684 -67.549208534834122
v -5 -8.9065589999999997 -72.260304500000004
v -3.6533984797214325 -2.9411591477644485 -64.223535160903296
v -5 -6.4372069999999999 -65.475818500000003
v 0 -11.069563749905127 -70.807150806884209
v 0.31596936944210657 -6.3404108940493495 -75.549510457644402
v 5 -6.4949019999999997 -75.781702499999994
v 0 -10.505246273940847 -71.45487382969273
v -1.8908370264670595 -6.4788658923769447 -65.922865397141763
v -0.93192289455779687 -6.4445354348659576 -66.021630784553437
v 0 -6.3823639999999999 -66.102679499999994
v -3.6156828536730599 -9.1542126132222403 -72.343817595008986
v 4.1942120885050311 -10.731886867992976 -67.806234093210534
v 3.3709397038637041 -10.739558860317709 -67.659380898711333
v 0 -7.8626967463685506 -66.474315622107824
v 0 -7.1091742248914187 -66.2816404772677
v -0.72691019235592735 -9.4087962348400502 -72.556610577670909
v -1.4553495819127651 -9.3812737237589019 -72.497014933642092
v 0.84628356786051273 -10.502697399667717 -67.296135864253017
v 1.6927779314122819 -10.615685746181596 -67.410442886295755
v -4.3131197753391666 -9.0428485677068338 -72.290909861532725
v 0 -9.422015 -72.621230999999995
v 0 -9.9582582431043178 -72.053293914536226
v 5 8.2704939999999993 57.750254499999997
v 5 -11.455977000000001 -55.446568499999998
v 5 -9.5413440000000005 -55.976357499999999
v 5 2.9974440000000002 66.253627499999993
v 5 9.1220089999999985 57.3292875
v 5 2.466647 65.94100499999999
v 5 -10.4986605 -55.711462999999995
v 5 2.9988735000000002 67.203524999999999
v 5 -9.0432735000000015 -55.261183500000001
v 4.125 -9.5413440000000005 -55.976357499999999
v 5 7.7603619999999998 57.430774
v 4.5625 8.2704939999999993 57.750254499999997
v 4.5625 2.9974440000000002 66.253627499999993
v 5 8.2704939999999993 57.750254499999997
v 5 8.2704939999999993 57.750254499999997
v 5 2.9974440000000002 66.253627499999993
v 5 2.9974440000000002 66.253627499999993
v 5 -9.5413440000000005 -55.976357499999999
v 5 -9.5413440000000005 -55.976357499999999
v 5 -10.4986605 -55.711462999999995
l 6/6 2/2
l 2/2 3/3
l 3/3 1/1
l 1/1 4/4
l 4/4 5/5
l 161/161 64/64
l 64/64 162/162
l 162/162 72/72
l 72/72 37/37
l 37/37 98/98
l 98/98 155/155
l 155/155 90/90
l 90/90 154/154
l 154/154 40/40
l 40/40 131/131
l 131/131 8/8
l 8/8 132/132
l 132/132 119/119
l 119/119 63/63
l 63/63 31/31
l 31/31 33/33
l 33/33 104/104
l 104/104 60/60
l 60/60 65/65
l 65/65 52/52
l 52/52 53/53
l 53/53 62/62
l 62/62 102/102
l 102/102 80/80
l 80/80 71/71
l 71/71 47/47
l 47/47 94/94
l 94/94 67/67
l 67/67 61/61
l 61/61 23/23
l 23/23 152/152
l 152/152 58/58
l 58/58 153/153
l 153/153 41/41
l 41/41 150/150
l 150/150 95/95
l 95/95 147/147
l 147/147 124/124
l 124/124 48/48
l 48/48 56/56
l 56/56 81/81
l 81/81 17/17
l 17/17 32/32
l 32/32 108/108
l 108/108 151/151
l 151/151 35/35
l 35/35 157/157
l 157/157 16/16
l 16/16 43/43
l 43/43 20/20
l 20/20 87/87
l 87/87 21/21
l 21/21 78/78
l 78/78 14/14
l 14/14 55/55
l 55/55 15/15
l 15/15 26/26
l 26/26 75/75
l 75/75 117/117
l 117/117 13/13
l 13/13 28/28
l 28/28 141/141
l 141/141 129/129
l 129/129 140/140
l 140/140 54/54
l 54/54 19/19
l 19/19 144/144
l 144/144 18/18
l 18/18 164/164
l 164/164 126/126
l 126/126 160/160
l 160/160 112/112
l 112/112 168/168
l 168/168 143/143
l 143/143 166/166
l 166/166 27/27
l 27/27 101/101
l 101/101 50/50
l 50/50 107/107
l 107/107 29/29
l 29/29 85/85
l 85/85 89/89
l 89/89 96/96
l 96/96 92/92
l 92/92 105/105
l 105/105 36/36
l 36/36 69/69
l 69/69 146/146
l 146/146 125/125
l 125/125 148/148
l 148/148 57/57
l 57/57 145/145
l 145/145 127/127
l 127/127 163/163
l 163/163 30/30
l 30/30 158/158
l 158/158 128/128
l 128/128 159/159
l 159/159 66/66
l 66/66 22/22
l 22/22 91/91
l 91/91 12/12
l 12/12 165/165
l 165/165 42/42
l 42/42 46/46
l 46/46 79/79
l 79/79 123/123
l 123/123 39/39
l 39/39 137/137
l 137/137 11/11
l 11/11 138/138
l 138/138 59/59
l 59/59 135/135
l 135/135 10/10
l 10/10 136/136
l 136/136 99/99
l 99/99 142/142
l 142/142 9/9
l 9/9 133/133
l 133/133 51/51
l 51/51 130/130
l 130/130 7/7
l 7/7 156/156
l 156/156 24/24
l 24/24 139/139
l 139/139 45/45
l 45/45 49/49
l 49/49 34/34
l 34/34 149/149
l 149/149 38/38
l 38/38 134/134
l 134/134 167/167
l 167/167 44/44
l 44/44 77/77
l 77/77 121/121
l 121/121 25/25
l 25/25 83/83
l 83/83 120/120
l 120/120 73/73
l 73/73 110/110
l 110/110 74/74
l 74/74 84/84
l 84/84 118/118
l 118/118 70/70
l 70/70 97/97
l 97/97 82/82
l 82/82 93/93
l 93/93 100/100
l 100/100 106/106
l 106/106 116/116
l 116/116 115/115
l 115/115 86/86
l 86/86 111/111
l 111/111 88/88
l 88/88 122/122
l 122/122 109/109
l 109/109 113/113
l 113/113 76/76
l 76/76 114/114
l 114/114 103/103
l 103/103 68/68
l 200/200 177/177
l 177/177 174/174
l 174/174 196/196
l 196/196 179/179
l 179/179 171/171
l 171/171 194/194
l 194/194 186/186
l 186/186 178/178
l 178/178 176/176
l 176/176 180/180
l 180/180 195/195
l 195/195 187/187
l 187/187 198/198
l 198/198 169/169
l 169/169 191/191
l 191/191 185/185
l 185/185 184/184
l 184/184 192/192
l 192/192 188/188
l 188/188 189/189
l 189/189 190/190
l 190/190 182/182
l 182/182 183/183
l 183/183 170/170
l 170/170 197/197
l 197/197 175/175
l 175/175 193/193
l 193/193 173/173
l 173/173 172/172
l 172/172 181/181
l 181/181 199/199
l 203/203 204/204
l 204/204 201/201
l 201/201 202/202
l 202/202 205/205
l 205/205 206/206
l 206/206 207/207
l 211/211 212/212
l 212/212 209/209
l 209/209 210/210
l 210/210 208/208
l 208/208 213/213
l 213/213 214/214
l 302/302 282/282
l 282/282 303/303
l 303/303 234/234
l 234/234 301/301
l 301/301 243/243
l 243/243 264/264
l 264/264 224/224
l 224/224 308/308
l 308/308 217/217
l 217/217 304/304
l 304/304 216/216
l 216/216 299/299
l 299/299 215/215
l 215/215 300/300
l 300/300 288/288
l 288/288 240/240
l 240/240 275/275
l 275/275 263/263
l 263/263 265/265
l 265/265 253/253
l 253/253 291/291
l 291/291 266/266
l 266/266 293/293
l 293/293 257/257
l 257/257 283/283
l 283/283 228/228
l 228/228 294/294
l 294/294 242/242
l 242/242 226/226
l 226/226 252/252
l 252/252 292/292
l 292/292 248/248
l 248/248 280/280
l 280/280 247/247
l 247/247 305/305
l 305/305 276/276
l 276/276 309/309
l 309/309 296/296
l 296/296 310/310
l 310/310 256/256
l 256/256 298/298
l 298/298 267/267
l 267/267 233/233
l 233/233 244/244
l 244/244 232/232
l 232/232 272/272
l 272/272 261/261
l 261/261 284/284
l 284/284 269/269
l 269/269 285/285
l 285/285 281/281
l 281/281 254/254
l 254/254 220/220
l 220/220 235/235
l 235/235 221/221
l 221/221 223/223
l 223/223 218/218
l 218/218 279/279
l 279/279 219/219
l 219/219 237/237
l 237/237 271/271
l 271/271 297/297
l 297/297 314/314
l 314/314 245/245
l 245/245 312/312
l 312/312 236/236
l 236/236 311/311
l 311/311 222/222
l 222/222 268/268
l 268/268 258/258
l 258/258 250/250
l 250/250 259/259
l 259/259 278/278
l 278/278 229/229
l 229/229 251/251
l 251/251 231/231
l 231/231 289/289
l 289/289 241/241
l 241/241 315/315
l 315/315 238/238
l 238/238 316/316
l 316/316 273/273
l 273/273 290/290
l 290/290 318/318
l 318/318 225/225
l 225/225 317/317
l 317/317 230/230
l 230/230 306/306
l 306/306 227/227
l 227/227 307/307
l 307/307 287/287
l 287/287 274/274
l 274/274 260/260
l 260/260 239/239
l 239/239 295/295
l 295/295 249/249
l 249/249 277/277
l 277/277 255/255
l 255/255 262/262
l 262/262 246/246
l 246/246 270/270
l 270/270 286/286
l 286/286 313/313
l 319/319 331/331
l 331/331 343/343
l 343/343 337/337
l 337/337 342/342
l 342/342 321/321
l 321/321 320/320
l 320/320 328/328
l 328/328 338/338
l 338/338 329/329
l 329/329 340/340
l 340/340 334/334
l 334/334 332/332
l 332/332 322/322
l 322/322 330/330
l 330/330 336/336
l 336/336 326/326
l 326/326 325/325
l 325/325 335/335
l 335/335 324/324
l 324/324 333/333
l 333/333 323/323
l 323/323 341/341
l 341/341 327/327
l 327/327 339/339
l 339/339 319/319
l 344/344 363/363
l 363/363 361/361
l 361/361 349/349
l 349/349 347/347
l 347/347 348/348
l 348/348 350/350
l 350/350 364/364
l 364/364 356/356
l 356/356 365/365
l 365/365 357/357
l 357/357 351/351
l 351/351 353/353
l 353/353 366/366
l 366/366 346/346
l 346/346 367/367
l 367/367 354/354
l 354/354 362/362
l 362/362 360/360
l 360/360 359/359
l 359/359 345/345
l 345/345 352/352
l 352/352 358/358
l 358/358 355/355
l 355/355 368/368
l 368/368 344/344
l 369/369 379/379
l 379/379 376/376
l 376/376 371/371
l 371/371 370/370
l 370/370 374/374
l 374/374 378/378
l 378/378 373/373
l 373/373 375/375
l 375/375 372/372
l 372/372 381/381
l 381/381 377/377
l 377/377 380/380
l 380/380 369/369
l 382/382 398/398
l 398/398 387/387
l 387/387 392/392
l 392/392 390/390
l 390/390 397/397
l 397/397 386/386
l 386/386 400/400
l 400/400 383/383
l 383/383 391/391
l 391/391 394/394
l 394/394 395/395
l 395/395 385/385
l 385/385 396/396
l 396/396 384/384
l 384/384 389/389
l 389/389 393/393
l 393/393 388/388
l 388/388 399/399
l 399/399 382/382
l 401/401 402/402
l 402/402 431/431
l 431/431 432/432
l 432/432 441/441
l 441/441 435/435
l 435/435 440/440
l 440/440 426/426
l 426/426 462/462
l 462/462 427/427
l 427/427 414/414
l 414/414 443/443
l 443/443 434/434
l 434/434 444/444
l 444/444 429/429
l 429/429 447/447
l 447/447 423/423
l 423/423 421/421
l 421/421 418/418
l 418/418 460/460
l 460/460 433/433
l 433/433 448/448
l 448/448 410/410
l 410/410 456/456
l 456/456 422/422
l 422/422 424/424
l 424/424 419/419
l 419/419 457/457
l 457/457 417/417
l 417/417 452/452
l 452/452 413/413
l 413/413 442/442
l 442/442 416/416
l 416/416 454/454
l 454/454 409/409
l 409/409 453/453
l 453/453 404/404
l 404/404 408/408
l 408/408 458/458
l 458/458 412/412
l 412/412 455/455
l 455/455 406/406
l 406/406 405/405
l 405/405 445/445
l 445/445 430/430
l 430/430 446/446
l 446/446 407/407
l 407/407 449/449
l 449/449 403/403
l 403/403 451/451
l 451/451 436/436
l 436/436 450/450
l 450/450 415/415
l 415/415 437/437
l 437/437 420/420
l 420/420 438/438
l 438/438 428/428
l 428/428 459/459
l 459/459 425/425
l 425/425 461/461
l 461/461 411/411
l 411/411 439/439
l 439/439 401/401
l 463/463 508/508
l 508/508 467/467
l 467/467 488/488
l 488/488 479/479
l 479/479 507/507
l 507/507 498/498
l 498/498 503/503
l 503/503 496/496
l 496/496 504/504
l 504/504 482/482
l 482/482 494/494
l 494/494 481/481
l 481/481 480/480
l 480/480 486/486
l 486/486 466/466
l 466/466 472/472
l 472/472 478/478
l 478/478 490/490
l 490/490 495/495
l 495/495 483/483
l 483/483 470/470
l 470/470 500/500
l 500/500 465/465
l 465/465 513/513
l 513/513 476/476
l 476/476 511/511
l 511/511 492/492
l 492/492 510/510
l 510/510 468/468
l 468/468 512/512
l 512/512 473/473
l 473/473 506/506
l 506/506 491/491
l 491/491 505/505
l 505/505 477/477
l 477/477 514/514
l 514/514 489/489
l 489/489 515/515
l 515/515 475/475
l 475/475 516/516
l 516/516 484/484
l 484/484 502/502
l 502/502 497/497
l 497/497 501/501
l 501/501 474/474
l 474/474 499/499
l 499/499 493/493
l 493/493 485/485
l 485/485 464/464
l 464/464 487/487
l 487/487 469/469
l 469/469 471/471
l 471/471 509/509
l 509/509 463/463
l 524/524 517/517
l 517/517 519/519
l 519/519 523/523
l 523/523 520/520
l 520/520 521/521
l 521/521 518/518
l 518/518 522/522
l 522/522 525/525
l 527/527 530/530
l 530/530 528/528
l 528/528 526/526
l 526/526 529/529
l 536/536 532/532
l 532/532 535/535
l 535/535 533/533
l 533/533 538/538
l 538/538 537/537
l 537/537 531/531
l 531/531 534/534
l 566/566 551/551
l 551/551 565/565
l 565/565 557/557
l 557/557 562/562
l 562/562 543/543
l 543/543 554/554
l 554/554 539/539
l 539/539 540/540
l 540/540 564/564
l 564/564 542/542
l 542/542 550/550
l 550/550 560/560
l 560/560 546/546
l 546/546 563/563
l 563/563 544/544
l 544/544 558/558
l 558/558 561/561
l 561/561 547/547
l 547/547 549/549
l 549/549 553/553
l 553/553 541/541
l 541/541 555/555
l 555/555 552/552
l 552/552 559/559
l 559/559 545/545
l 545/545 556/556
l 556/556 548/548
l 548/548 566/566
l 579/579 572/572
l 572/572 587/587
l 587/587 570/570
l 570/570 580/580
l 580/580 576/576
l 576/576 588/588
l 588/588 582/582
l 582/582 568/568
l 568/568 571/571
l 571/571 583/583
l 583/583 584/584
l 584/584 575/575
l 575/575 567/567
l 567/567 573/573
l 573/573 581/581
l 581/581 569/569
l 569/569 577/577
l 577/577 574/574
l 574/574 586/586
l 586/586 585/585
l 585/585 578/578
l 578/578 579/579
l 596/596 593/593
l 593/593 610/610
l 610/610 606/606
l 606/606 598/598
l 598/598 590/590
l 590/590 601/601
l 601/601 607/607
l 607/607 612/612
l 612/612 614/614
l 614/614 597/597
l 597/597 591/591
l 591/591 600/600
l 600/600 589/589
l 589/589 592/592
l 592/592 613/613
l 613/613 594/594
l 594/594 611/611
l 611/611 609/609
l 609/609 603/603
l 603/603 599/599
l 599/599 602/602
l 602/602 605/605
l 605/605 608/608
l 608/608 595/595
l 595/595 604/604
l 604/604 596/596
l 620/620 628/628
l 628/628 617/617
l 617/617 615/615
l 615/615 636/636
l 636/636 622/622
l 622/622 631/631
l 631/631 627/627
l 627/627 623/623
l 623/623 633/633
l 633/633 624/624
l 624/624 634/634
l 634/634 621/621
l 621/621 625/625
l 625/625 619/619
l 619/619 616/616
l 616/616 629/629
l 629/629 635/635
l 635/635 637/637
l 637/637 632/632
l 632/632 626/626
l 626/626 630/630
l 630/630 618/618
l 618/618 620/620
l 829/829 853/853
l 853/853 669/669
l 669/669 795/795
l 795/795 838/838
l 838/838 749/749
l 749/749 840/840
l 840/840 819/819
l 819/819 673/673
l 673/673 708/708
l 708/708 757/757
l 757/757 750/750
l 750/750 683/683
l 683/683 758/758
l 758/758 729/729
l 729/729 826/826
l 826/826 846/846
l 846/846 753/753
l 753/753 675/675
l 675/675 668/668
l 668/668 695/695
l 695/695 748/748
l 748/748 870/870
l 870/870 785/785
l 785/785 861/861
l 861/861 786/786
l 786/786 752/752
l 752/752 664/664
l 664/664 765/765
l 765/765 779/779
l 779/779 701/701
l 701/701 798/798
l 798/798 762/762
l 762/762 694/694
l 694/694 688/688
l 688/688 691/691
l 691/691 877/877
l 877/877 769/769
l 769/769 647/647
l 647/647 736/736
l 736/736 776/776
l 776/776 763/763
l 763/763 682/682
l 682/682 804/804
l 804/804 771/771
l 771/771 725/725
l 725/725 754/754
l 754/754 770/770
l 770/770 777/777
l 777/777 659/659
l 659/659 706/706
l 706/706 658/658
l 658/658 850/850
l 850/850 693/693
l 693/693 687/687
l 687/687 781/781
l 781/781 666/666
l 666/666 816/816
l 816/816 755/755
l 755/755 716/716
l 716/716 839/839
l 839/839 700/700
l 700/700 662/662
l 662/662 661/661
l 661/661 644/644
l 644/644 797/797
l 797/797 641/641
l 641/641 858/858
l 858/858 859/859
l 859/859 651/651
l 651/651 873/873
l 873/873 823/823
l 823/823 860/860
l 860/860 857/857
l 857/857 714/714
l 714/714 824/824
l 824/824 703/703
l 703/703 841/841
l 841/841 827/827
l 827/827 807/807
l 807/807 744/744
l 744/744 707/707
l 707/707 855/855
l 855/855 783/783
l 783/783 856/856
l 856/856 740/740
l 740/740 836/836
l 836/836 865/865
l 865/865 731/731
l 731/731 648/648
l 648/648 728/728
l 728/728 854/854
l 854/854 879/879
l 879/879 690/690
l 690/690 802/802
l 802/802 692/692
l 692/692 863/863
l 863/863 868/868
l 868/868 875/875
l 875/875 849/849
l 849/849 825/825
l 825/825 847/847
l 847/847 642/642
l 642/642 737/737
l 737/737 761/761
l 761/761 784/784
l 784/784 871/871
l 871/871 730/730
l 730/730 832/832
l 832/832 780/780
l 780/780 653/653
l 653/653 852/852
l 852/852 739/739
l 739/739 775/775
l 775/775 741/741
l 741/741 676/676
l 676/676 727/727
l 727/727 742/742
l 742/742 801/801
l 801/801 745/745
l 745/745 672/672
l 672/672 794/794
l 794/794 796/796
l 796/796 743/743
l 743/743 774/774
l 774/774 799/799
l 799/799 678/678
l 678/678 685/685
l 685/685 720/720
l 720/720 876/876
l 876/876 660/660
l 660/660 665/665
l 665/665 670/670
l 670/670 872/872
l 872/872 711/711
l 711/711 820/820
l 820/820 778/778
l 778/778 689/689
l 689/689 719/719
l 719/719 738/738
l 738/738 646/646
l 646/646 639/639
l 639/639 732/732
l 732/732 803/803
l 803/803 679/679
l 679/679 792/792
l 792/792 671/671
l 671/671 821/821
l 821/821 746/746
l 746/746 677/677
l 677/677 667/667
l 667/667 830/830
l 830/830 698/698
l 698/698 709/709
l 709/709 869/869
l 869/869 747/747
l 747/747 789/789
l 789/789 782/782
l 782/782 756/756
l 756/756 788/788
l 788/788 681/681
l 681/681 817/817
l 817/817 656/656
l 656/656 652/652
l 652/652 657/657
l 657/657 805/805
l 805/805 878/878
l 878/878 717/717
l 717/717 705/705
l 705/705 773/773
l 773/773 713/713
l 713/713 715/715
l 715/715 874/874
l 874/874 844/844
l 844/844 734/734
l 734/734 704/704
l 704/704 710/710
l 710/710 654/654
l 654/654 842/842
l 842/842 702/702
l 702/702 722/722
l 722/722 851/851
l 851/851 822/822
l 822/822 791/791
l 791/791 638/638
l 638/638 809/809
l 809/809 815/815
l 815/815 818/818
l 818/818 733/733
l 733/733 814/814
l 814/814 686/686
l 686/686 735/735
l 735/735 848/848
l 848/848 813/813
l 813/813 650/650
l 650/650 834/834
l 834/834 867/867
l 867/867 723/723
l 723/723 811/811
l 811/811 833/833
l 833/833 645/645
l 645/645 699/699
l 699/699 845/845
l 845/845 680/680
l 680/680 831/831
l 831/831 810/810
l 810/810 843/843
l 843/843 837/837
l 837/837 787/787
l 787/787 793/793
l 793/793 718/718
l 718/718 766/766
l 766/766 835/835
l 835/835 866/866
l 866/866 800/800
l 800/800 828/828
l 828/828 760/760
l 760/760 721/721
l 721/721 812/812
l 812/812 880/880
l 880/880 643/643
l 643/643 697/697
l 697/697 767/767
l 767/767 772/772
l 772/772 768/768
l 768/768 640/640
l 640/640 806/806
l 806/806 724/724
l 724/724 655/655
l 655/655 790/790
l 790/790 862/862
l 862/862 726/726
l 726/726 712/712
l 712/712 663/663
l 663/663 649/649
l 649/649 684/684
l 684/684 751/751
l 751/751 764/764
l 764/764 674/674
l 674/674 864/864
l 864/864 808/808
l 808/808 759/759
l 759/759 696/696
l 696/696 829/829
l 895/895 894/894
l 894/894 885/885
l 885/885 896/896
l 896/896 897/897
l 897/897 881/881
l 881/881 886/886
l 886/886 905/905
l 905/905 887/887
l 887/887 889/889
l 889/889 891/891
l 891/891 890/890
l 890/890 899/899
l 899/899 901/901
l 901/901 884/884
l 884/884 882/882
l 882/882 892/892
l 892/892 904/904
l 904/904 908/908
l 908/908 907/907
l 907/907 900/900
l 900/900 909/909
l 909/909 906/906
l 906/906 893/893
l 893/893 883/883
l 883/883 903/903
l 903/903 888/888
l 888/888 898/898
l 898/898 902/902
l 902/902 895/895
l 941/941 914/914
l 914/914 930/930
l 930/930 915/915
l 915/915 936/936
l 936/936 940/940
l 940/940 925/925
l 925/925 935/935
l 935/935 939/939
l 939/939 920/920
l 920/920 927/927
l 927/927 923/923
l 923/923 946/946
l 946/946 949/949
l 949/949 924/924
l 924/924 943/943
l 943/943 950/950
l 950/950 911/911
l 911/911 912/912
l 912/912 955/955
l 955/955 956/956
l 956/956 957/957
l 957/957 962/962
l 962/962 961/961
l 961/961 928/928
l 928/928 919/919
l 919/919 932/932
l 932/932 965/965
l 965/965 966/966
l 966/966 947/947
l 947/947 960/960
l 960/960 959/959
l 959/959 945/945
l 945/945 918/918
l 918/918 926/926
l 926/926 922/922
l 922/922 933/933
l 933/933 931/931
l 931/931 953/953
l 953/953 938/938
l 938/938 913/913
l 913/913 952/952
l 952/952 937/937
l 937/937 917/917
l 917/917 934/934
l 934/934 929/929
l 929/929 942/942
l 942/942 948/948
l 948/948 967/967
l 967/967 958/958
l 958/958 910/910
l 910/910 921/921
l 921/921 964/964
l 964/964 963/963
l 963/963 968/968
l 968/968 969/969
l 969/969 954/954
l 954/954 951/951
l 951/951 944/944
l 944/944 916/916
l 970/970 974/974
l 970/970 981/981
l 971/971 976/976
l 971/971 989/989
l 972/972 978/978
l 972/972 989/989
l 973/973 975/975
l 973/973 977/977
l 974/974 983/983
l 975/975 986/986
l 976/976 988/988
l 977/977 985/985
l 978/978 987/987
l 979/979 987/987
l 979/979 988/988
l 980/980 983/983
l 980/980 984/984
l 981/981 984/984
l 982/982 985/985
l 982/982 986/986
