v 44.346978269755908 115.21904465761278 -30.815892083343982
v 59.241712920943172 112.75921439748188 -43.119654118177642
v 71.43360556128431 112.34095878703272 -57.815963027674165
v 87.961626671720239 117.99869126690189 -88.425092499259748
v 54.563829603008912 113.36984085184881 -38.650334526608567
v 67.697289767629016 112.23651005766787 -52.759702439842826
v 85.789415722556498 116.7292600694464 -83.537800928744275
v 95.299377399999997 122.1074066 -105.72277830000004
v 33.231973804491076 117.5728979753703 -24.842055420959611
v 27.55514591491638 118.67618211528156 -22.63884179450924
v 77.961260532913002 113.38890164964759 -68.146253257568176
v 83.413772324037581 115.47177365740457 -78.484263917013521
v 91.812550672789783 120.26749971072266 -97.492835596360919
v 49.595089721472206 114.19938823261093 -34.522405438876838
v 63.624728089137932 112.3792386696927 -47.84554067922565
v 38.867843393305115 116.37681607660012 -27.5763429894692
v 16.792110672276962 120.28267702113824 -19.609306640211507
v 74.845014868030205 112.72001824885305 -62.960424417711266
v 80.818734773822513 114.33091327489123 -73.329749757237977
v 89.952135839686321 119.19193356086805 -93.088223567544787
v 22.026367203032599 119.61114608952499 -20.893495742244806
v 11.978992198347399 120.67734010004635 -18.732495942904315
v 3.7057912435932749 120.91966943408147 -17.718318150543659
v 7.6396950915757635 120.86416838652457 -18.137831174103361
v 93.578642917758827 121.22357655769049 -101.67405907494259
v -1.1102230246251514e-16 120.88082940551487 -17.443119273916984
v 102.64265049619173 -224.71018724824319 28.874261246611731
v 13.030353039590347 -220.94411369769946 76.778688446355261
v 147.25813081494715 -237.5263666649102 -44.468700309535677
v 158.36658426524804 -241.01945639731954 -67.981281711089309
v 166.6684875 -248.35089110000001 -104.77488710000003
v 106.80745762376385 -225.47914037769334 23.763046491007046
v 38.26519267066405 -221.24711939984951 72.473231531724821
v 19.465747254697114 -220.98003997222204 76.420705743548595
v 124.59618800828582 -230.31844161782163 -4.4784508122247857
v 128.16287868206666 -231.76258169645848 -10.133431689634683
v 134.89051677019808 -233.94999877308805 -21.642711826184541
v 141.28416959415364 -236.10739034183621 -32.97921483370407
v 144.3105212899336 -236.81491986342269 -38.708908608800201
v 153.1655088130363 -239.32937062172479 -55.984751292412199
v 165.11713564165245 -245.66241608441584 -92.599109602696473
v 56.089153469761001 -221.62151612885384 64.681789904402805
v 50.293719977914158 -221.56811795190754 67.646531644384112
v 61.791388601660046 -221.9383023468248 61.562991439454308
v 44.344795468140269 -221.44577542414311 70.26230540666694
v 78.085675205575654 -222.73785667405738 50.826481411496388
v 110.59649955482777 -226.21329157496487 18.336141772449018
v 114.35197208589702 -227.46002568218782 12.926910894750204
v 117.98200249254383 -228.73440325007374 7.3688147069130316
v 131.61104397760047 -232.98832694198396 -15.858460727703541
v 163.99583004095706 -244.40973521135641 -86.435563488100371
v 165.96323222032623 -246.73275243292275 -98.762781214537398
v 83.387649331804212 -223.20380670275026 46.975343042076048
v 67.356945504331691 -222.28841515238142 58.219798289169574
v 32.087018790925512 -221.10073338341266 74.266480812572411
v 72.784587241975458 -222.5676460210926 54.639478531837206
v 88.504947376897235 -223.43710423864178 42.800591423390152
v 121.29121212700481 -229.5067926031351 1.4627412489635141
v 6.5338127661167675 -221.18325309659866 76.836937268132004
v 162.45726064340442 -243.41051713434484 -80.22502859786735
v 160.61103611966684 -242.21744305228748 -74.058861249160941
v 25.81936219270353 -221.00879665528191 75.589613359777616
v 138.09482840285398 -234.94603720274694 -27.364442255067178
v 93.495864939348564 -223.81185282597585 38.446056241620624
v 98.223628263880073 -224.20792603965918 33.799644741115372
v 150.34169747926398 -238.63777896160101 -50.110389669323538
v 155.82880200659801 -240.07821076131799 -61.962541802874959
v -3.3306690738754701e-16 -221.47881988378134 76.714795630067385
v 77.856772758132436 -110.32485820777018 56.820459597656196
v 101.13431492012788 -110.07594576957075 28.169111570489321
v 48.246502593365975 -112.80413708726815 82.149844215346647
v 16.501688223019954 -115.66904137277679 96.169890911236976
v 117.80365234317414 -110.75455510704438 2.2478697158579797
v 31.940230818943334 -114.51267572150323 91.079691218256983
v 148.3905466769518 -108.62553100132052 -61.718241148022919
v 158.5901267770279 -106.16298678897223 -89.437393300969632
v 86.247506000492038 -109.95113204223355 47.386904972774005
v 97.605129228682017 -109.96615579532721 33.025584350646938
v 93.964213065992439 -109.88717816307144 37.838487317933328
v 68.696396825438029 -110.88923308723101 65.953511770731836
v 58.756183313307396 -111.70020637111463 74.485303569181809
v 53.558043686009547 -112.22279231150185 78.447763426374294
v 111.24007619580379 -110.41314696031409 13.013401938236569
v 107.92325684814517 -110.29855646490401 18.186954938548833
v 121.05090111054652 -110.99329056172067 -3.329345019609999
v 26.582951387224579 -114.95876432238589 93.208088061717746
v 37.383741704510925 -113.99199387631076 88.505353055515286
v 130.40607911907975 -111.58670731531561 -20.63092335945371
v 146.15530412345615 -109.28301567651297 -55.974067209968425
v 152.63900475294832 -107.46925744664365 -72.96552045163449
v 156.65908045091214 -106.56829425725668 -83.976094864816147
v 162.33776154919207 -105.31976072422336 -100.31872127832382
v 90.182121147949786 -109.87635331188208 42.621606849097788
v 82.141471388565208 -110.10813115362137 52.124365269191969
v 73.376862948922266 -110.58562689518507 61.441754423125275
v 63.808941924445008 -111.25750337874827 70.304847719987052
v 104.57141861805954 -110.18813505039039 23.236998753264917
v 124.24947741765806 -111.24569523390124 -9.015655292583709
v 11.930152040223408 -115.98363796645191 97.070555145617561
v 21.405010103238325 -115.33954514123467 94.890271898716364
v 42.838892834884227 -113.41098961723367 85.515856251466033
v 127.37297004003855 -111.46247568308034 -14.790973076013799
v 133.32999420731585 -111.57276357466793 -26.518092648562998
v 136.13012220781943 -111.3945628353263 -32.437099670531047
v 143.81856283897372 -109.94295099021849 -50.156200935742405
v 150.5417036140563 -108.0143736407617 -67.382054530395123
v 154.67479078585757 -106.99436980282104 -78.491315623651232
v 160.48383466872519 -105.74988785740814 -94.881428669859019
v 164.1708984 -104.8754959 -105.75231170000002
v 138.81190901851849 -111.04613697219526 -38.364286367695236
v 141.37366170963713 -110.5485342252243 -44.2785903714028
v 114.53802159267421 -110.55753736750842 7.7037855119469878
v 7.706008101924791 -116.29597855264748 97.692037138954632
v 3.771396753047592 -116.61293164063613 98.134985118617536
v 2.7755575615628707e-17 -116.9409733187166 98.468999800805875
v 1.6653345369377348e-16 -57.400861110599479 76.21039244026673
v 125.96401210000001 30.698736199999999 -105.30850220000001
v 131.9874725 10.6138935 -105.2143478
v 151.9245148 -60.330913500000001 -104.5235291
v 142.42587280000004 -25.708761200000012 -104.92324830000001
v 137.18853759999999 -6.2848654000000002 -105.825264
v 157.34089660000001 -80.341033899999999 -104.5501862
v 162.69943240000001 -99.425872799999993 -105.55656430000001
v 119.27183530000001 52.303531599999999 -105.486908
v 113.27527619999999 70.759674099999998 -105.4596863
v 168.27659610000001 -120.988327 -105.8292694
v 172.99575809999999 -142.09756469999999 -104.8609314
v 107.0375748 89.372215299999993 -105.6031723
v 99.062965399999996 112.06641390000001 -105.7454453
v 177.27795409999999 -161.3834076 -104.7829895
v 91.321723899999995 132.3859406 -105.6941681
v 83.769638099999995 150.89019780000001 -105.72820280000001
v 181.6086578 -181.4502411 -105.6506653
v 75.2915955 169.933075 -105.78601840000005
v 184.71051030000001 -200.92784119999999 -105.58657839999999
v 65.246749899999998 190.07879639999999 -106.0662231
v 177.73278809999999 -249.28625490000002 -105.13863370000003
v 185.1252441 -240.04515079999999 -105.9388428
v 53.974445299999999 208.80502319999999 -106.2309494
v 166.6684875 -248.35089110000001 -104.77488710000003
v 151.46957399999999 -237.15777590000002 -105.0486298
v 42.611663800000002 224.74176030000001 -107.1428604
v 25.780483199999999 241.07936100000001 -108.0241776
v 8.3337851000000001 248.9938812 -108.4016724
v 122.0453796 -206.6967621 -104.9424133
v 62.043159500000002 -139.0025177 -106.2535553
v 29.099658999999999 -109.139267 -107.6446838
v 14.106256500000001 -100.9522781 -108.4938583
v 150.130661 -53.7300453 -104.5698395
v 144.33488460000001 -32.698646500000009 -104.73391720000002
v 133.877655 4.5833855000000003 -105.48448180000001
v 155.44474790000001 -73.411552400000005 -104.43540950000001
v 122.5563812 41.8646812 -105.45388029999999
v 165.58190920000001 -110.2528915 -105.8549118
v 170.6776428 -131.524765 -105.37580869999999
v 109.220932 82.934432999999999 -105.54071039999999
v 102.7866669 101.6604767 -105.7027435
v 175.70858759999999 -154.35362240000001 -104.6709518
v 2.2204460492503131e-16 160.14573360434443 -42.396343806022728
v 95.299377399999997 122.1074066 -105.72277830000004
v 183.78619380000001 -194.39343260000001 -105.70946499999999
v 185.97888180000001 -212.83079530000001 -105.22026820000001
v 70.183303800000004 180.55726619999999 -105.92902370000004
v 182.21003719999999 -245.76383970000001 -105.62287139999999
v 186.4571991 -233.236557 -105.82630159999999
v 59.830310799999999 199.41325380000001 -106.0950928
v 172.28358460000007 -250 -104.8331757
v 156.24739070000001 -241.31744380000001 -104.94924930000003
v 142.7380981 -228.69052120000001 -105.152771
v 34.410049399999998 233.75344849999999 -107.66300200000001
v 129.9424286 -215.46301270000001 -104.7740326
v 117.88140869999999 -201.7599487 -105.4374084
v 105.77708440000001 -187.68769839999999 -106.0531921
v 93.453155499999994 -174.0054016 -105.53151699999999
v 80.731613199999998 -159.62904359999999 -105.60057070000001
v 66.634849500000001 -143.95133970000001 -106.07797239999999
v 53.314990999999999 -129.9698334 -106.5273361
v 39.119464899999997 -116.77069849999999 -107.0495911
v 23.774335900000001 -105.66139219999999 -108.0296326
v 3.8857805861880454e-16 -34.975336514575758 66.3243530132643
v 3.3306690738754647e-16 -48.579486754705968 72.385313094210545
v 4.7184478546569074e-16 40.377718642537737 29.349121160328686
v -1.1102230246250789e-16 59.483541610044071 18.859536795237236
v 0 74.788092863222786 10.171246211923624
v -1.1102230246251538e-16 178.87605754147702 -55.079998131294658
v -5.5511151231258e-17 28.298428029364267 35.584179495016237
v -2.2204460492503106e-16 46.368448502447535 26.123085283169253
v 129.9487915 17.304081 -105.1116791
v 127.89814 24.191171600000001 -105.1800308
v 148.23548890000001 -46.821334800000002 -104.6036301
v 146.28482059999999 -39.756763499999998 -104.646553
v 138.8403931 -12.2774353 -105.61107640000003
v 140.58792109999999 -18.842716200000002 -105.2451859
v 135.5783539 -0.84788410000000003 -105.7583084
v 153.6575775 -66.771362300000007 -104.4610596
v 161.08000180000002 -93.622184800000014 -105.23509220000001
v 159.26750179999999 -87.220748900000004 -104.84941860000001
v 120.95038599999999 47.003093700000001 -105.4786453
v 124.1977081 36.542053199999998 -105.4042664
v 115.35819239999999 64.407234200000005 -105.4614182
v 117.40899659999999 58.098964700000003 -105.4777222
v 166.96043400000005 -115.6371994 -105.890152
v 164.1708984 -104.8754959 -105.75231170000002
v 171.82250980000001 -136.74894710000001 -105.09252170000001
v 169.50904850000001 -126.2815475 -105.64629360000001
v 111.26517490000001 76.8313141 -105.4874344
v 100.90151210000001 106.9860611 -105.7322617
v 104.8334732 95.786018400000003 -105.6593857
v 174.27268979999999 -147.8838959 -104.71248629999999
v 93.366989100000012 127.1452942 -105.7037811
v 97.19697570000001 117.09324650000001 -105.74045560000002
v 86.475799600000002 144.40837099999999 -105.7133331
v 89.03288270000003 138.1265411 -105.69882970000002
v 180.34010309999999 -175.20281979999999 -105.39942929999999
v 178.87052919999999 -168.50003050000001 -105.0597229
v 78.1237335 163.76199339999999 -105.75268550000004
v 80.985923799999995 157.3406525 -105.7387238
v 182.73361209999999 -187.75105289999999 -105.744545
v 186.4235535 -219.20030209999999 -105.2025604
v 185.42912290000001 -206.94572450000001 -105.3999252
v 67.760848999999993 185.3526459 -106.0091858
v 72.646232600000005 175.51747130000001 -105.8476105
v 186.6938782 -226.12539670000001 -105.4563828
v 56.990619700000003 204.05079649999999 -106.1209259
v 62.592254599999997 194.76405330000006 -106.0905151
v 161.32589720000001 -245.22529599999999 -104.8448868
v 46.726791400000003 219.3802948 -106.801033
v 50.5776672 213.91371150000001 -106.4679031
v 4.4408920985006262e-16 222.4051865956948 -86.819027197042203
v 0 -206.66390989999999 12.123832699999999
v 138.29679870000001 -224.14155579999999 -105.1038818
v 147.0539551 -232.99900819999999 -105.1230011
v 30.278560599999999 237.59402470000001 -107.86079410000001
v 38.480831100000003 229.53230289999999 -107.43027499999999
v 14.6204453 246.94956970000001 -108.26474
v 20.562679299999999 244.2097473 -108.1514282
v 126.067627 -211.27278140000001 -104.7136459
v 133.9541016 -219.65766909999999 -104.9575806
v 0.47933492500000008 248.24395551946151 -107.26475885864633
v 113.751152 -196.82070920000001 -105.92936709999999
v 101.72177120000001 -183.2019348 -105.8290329
v 109.7458649 -192.1531525 -106.14389799999999
v 89.242416399999996 -169.2677612 -105.5016098
v 97.6017303 -178.6377411 -105.63626859999999
v 76.245758100000003 -154.57467650000001 -105.722435
v 85.004882800000004 -164.47253420000001 -105.5269547
v 71.472518899999997 -149.26019289999999 -105.88885500000001
v 48.595127099999999 -125.3463364 -106.6740341
v 57.719104799999997 -134.4553986 -106.3972397
v 34.312168100000001 -112.9167252 -107.3068695
v 43.790714299999998 -120.86072540000001 -106.847168
v 18.7845707 -102.8583221 -108.35459899999999
v 9.2985783000000009 -99.926132199999998 -108.3926392
v 2.7755575615629092e-17 -174.91760288520635 -30.906343325816266
v -4.8572257327351418e-17 -188.04410574058312 -15.102423433771374
v -2.7755575615628958e-16 1.0413331445419014 49.342621817744373
v 5.5511151231258394e-17 -28.637995034487457 63.431680650623207
v 3.3306690738754676e-16 21.684461144025843 38.920641082379902
v 0 -62.961805125443803 78.579485028887348
v -1.6653345369377348e-16 -81.729956036159194 86.073591699266359
v -5.5511151231257827e-17 79.517017293932312 7.4711325386395258
v 1.1102230246251565e-16 92.33724885942334 -0.091914868290297158
v -5.5511151231258e-17 84.224005971603987 4.7525548845362628
v -1.1102230246251565e-16 -133.0801963429864 102.85092888322666
v -3.3306690738754558e-16 -140.45395950225804 104.54786655502338
v -2.2204460492503131e-16 137.94449555256747 -27.979310583743153
v 0 -184.13879133829701 108.18263331724066
v 0 148.34287616965932 -34.571109880042869
v -2.2204460492503363e-16 -206.82672426950575 99.807607260476388
v -1.6653345369376914e-16 164.94964641088825 -45.550678358244319
v 1.1102230246251686e-16 169.46980856240287 -48.589368237741915
v 2.0122792321329833e-16 -212.5104852127532 94.57339898304599
v -3.3306690738754701e-16 -221.47881988378134 76.714795630067385
v 8.3266726846886309e-17 186.17810899003101 -60.086612821851233
v 0 -222.8454027932487 61.048278751405874
v -3.3306690738754706e-16 -221.94957754180058 52.71110847218155
v 0 -221.01217843614475 47.231710397132609
v -4.1633363423443062e-17 -219.53403820450183 41.543965608670213
v -5.5511151231257445e-17 197.12668601850771 -68.002023966456761
v -2.7755575615628815e-16 190.98742990615816 -63.52145063048912
v -1.1102230246251565e-16 -210.17875410799201 18.542355477735214
v 8.3266726846891067e-17 236.33879566751409 -97.710234014668671
v -1.1102230246251565e-16 -199.05873249952188 -0.047414663329085505
v 2.0461079729169994e-30 -162.73952614641496 -44.263710558144687
v 0 -158.48256099630044 -48.83642782861719
v -2.2204460492503131e-16 -141.67686246149626 -66.171776927309324
v -1.6653345369377348e-16 -138.04967295305184 -69.775762727556653
v 1.387778780781405e-16 -126.72730765887422 -80.967998716562192
v 0 -108.49362001096911 -99.43151741782394
v 3.3306690738754696e-16 -22.436904680564339 60.58155357685321
v -8.3266726846886728e-17 -16.639728571007169 57.886313102768746
v 5.5511151231256964e-17 -5.0913061388806646 52.30628917443633
v -2.7755575615628904e-16 14.357142514564085 42.707601362576987
v 4.4408920985006262e-16 -67.632809020689507 80.516060909718703
v -6.9388939039073023e-17 -73.300242313361281 82.872074551885703
v -1.1102230246251565e-16 -148.59475708786519 106.24828507388133
v -8.3266726846891572e-17 -166.48643123530928 108.39865214497064
v 0 130.20054216194535 -23.155457013667142
v 0 156.2141642630252 -39.772828563858177
v 1.9428902930939912e-16 -216.24551269787844 89.641430067277753
v 4.4408920985006262e-16 -222.49638468377412 70.968201884073579
v 2.7755575615629265e-17 -214.98158847236596 28.807158385114537
v -1.5265566588595895e-16 -146.62472701395876 -61.068649190411683
v -3.7963931063761193e-30 -151.01984040907138 -56.585692624375021
v -2.7755575615629024e-17 -132.98244624556756 -74.843029320234194
v 2.7755575615631748e-17 -117.13805163687101 -90.497355170740775
v -2.7755575615628494e-17 -11.710428127669772 55.533667620466474
v -1.1102230246251551e-16 7.0173537907067072 46.433902487876225
v 2.2204460492503131e-16 34.439535599180104 32.458170706335181
v 2.7755575615629172e-17 -104.88942457378442 94.546771043751775
v 0 -96.975463414886207 91.634546591660339
v 1.3877787807814479e-16 -113.09682027554206 97.305993677757115
v 2.7755575615628914e-17 52.541502253375498 22.7270320412409
v 2.2204460492503131e-16 65.314664728480835 15.566516467065535
v 8.3266726846886543e-17 69.68762937855665 13.143084102187975
v -8.3266726846887332e-17 -120.78512636189112 99.632005923854621
v 0 -126.08321270984462 101.05077451104165
v 1.1102230246251615e-16 98.843916668362425 -3.9521132093215492
v 2.2204460492503239e-16 117.89699389840671 -15.625318384311004
v 0 111.51265517583553 -11.678014422830298
v -2.2204460492503131e-16 105.16077009313889 -7.7714103106609533
v 1.1102230246251992e-16 -159.45072408412949 107.85790932401068
v 2.2204460492503131e-16 -153.56654352603033 107.09991795213621
v 2.1447155860696258e-30 -191.18231770985045 106.89618191158138
v 1.1102230246251565e-16 144.01182866886779 -31.779470024075852
v 2.2204460492503131e-16 -200.83754270482859 103.42760092939137
v -2.2204460492503131e-16 -195.85497593941386 105.54108353879772
v -5.5511151231258369e-17 -219.37899950259734 83.41964960836718
v -1.11022302462516e-16 -222.81816197130516 66.164510485610208
v 2.7755575615628914e-16 204.53139990958448 -73.345052487945452
v -1.1102230246251565e-16 -217.26088518889901 34.486505751243506
v -2.2204460492503131e-16 -212.31623521712035 22.766277945015887
v -1.392832535780853e-30 217.44440990620876 -83.030735192903549
v -6.6613381477509392e-16 212.83313963368363 -79.664199930523623
v 5.5511151231257642e-17 242.72910581185522 -102.79150873560613
v -2.0816681711727928e-17 226.75091254286718 -90.028465630877491
v -4.4408920985006262e-16 231.17243612671416 -93.649109469434677
v 6.9388939039072345e-17 -193.36533309130706 -8.0770432317148604
v -2.2204460492503131e-16 -179.26935652231907 -25.961107300918915
v 4.4408920985006262e-16 -171.3009919694577 -35.022979774487283
v 2.7755575615628899e-16 -166.56405545384706 -40.146698121611784
v 2.2204460492503131e-16 -155.08805264854846 -52.441845434070672
v 0 -122.02945419336311 -85.630105135395638
v -2.2204460492503229e-16 -112.39577337086124 -95.370762410868437
v 1.9738977 -99.698068487167589 -108.00405941158743
v -2.0816681711721868e-16 -174.97276330971991 108.67524021972642
v -4.4408920985006262e-16 123.86466491262304 -19.260920163522968
v 5.2041704279299578e-17 209.07020947747142 -76.625919971144867
v -1.3877787807814457e-16 -103.49997048325167 -104.21942081305282
v -1.6653345369377156e-16 -182.86715095665244 -21.58482241012446
v 7.5188305028877705e-31 174.17293305193994 -51.834683184518298
v -2.4980018054065988e-16 -88.781701202366918 88.694223766220276
v -2.2204460492503131e-16 -41.088036297590754 69.101572030640313
v -4.440892098500639e-16 -202.84536745437947 5.7490561028857536
v 5.5511151231257827e-17 -151.08065030694775 106.67410151300876
v 2.7755575615631083e-17 162.54769000761632 -43.973511082133527
v 68.972076399999992 182.95495604999999 -105.96910475000001
v 5.6362380000000005 -99.812100343583793 -108.19834930579373
v 1.2490009027033011e-16 -19.538316625785754 59.233933339810974
v 1.873501354054948e-16 -70.466525667025394 81.694067730802203
v 1.9775847626134871e-16 -214.37799895531577 92.107414525161872
v 107.76147465 -189.92042544999998 -106.09854505
v 120.11111065 49.653312650000004 -105.48277665000001
v 121.75338360000001 44.43388745 -105.4662628
v 167.61851504999998 -118.31276320000001 -105.85971069999999
v 166.2711716 -112.94504545000002 -105.8725319
v 171.25007629999999 -134.13685605000001 -105.23416520000001
v 170.09334565 -128.90315624999999 -105.51105115
v 99.982238749999993 109.52623750000001 -105.7388535
v 1.1102230246251565e-16 158.17994893368481 -41.084586184940449
v 94.333183250000005 124.62635040000002 -105.7132797
v 96.248176550000011 119.60032655000001 -105.73161695000003
v 71.414768199999997 178.03736874999998 -105.88831710000001
v 183.66764065000001 -242.90449525 -105.78085709999999
v 179.97141264999999 -247.52504729999998 -105.38075255
v 185.7912216 -236.6408539 -105.8825722
v 55.482532500000005 206.42790984999999 -106.17593765000001
v 58.410465250000001 201.73202515 -106.10800935
v 32.344304999999999 235.67373659999998 -107.76189805000001
v 111.74850845 -194.48693085000002 -106.03663254999999
v 36.715816500000003 -114.84371185000001 -107.1782303
v 41.455089599999994 -118.81571195000001 -106.94837955
v 11.702417400000002 -100.43920514999999 -108.44324875000001
v 0.98694884999999988 -101.59901948520962 -106.11174011232012
v 138.01446534999999 -9.2811503500000008 -105.7181702
v -1.0408340855860934e-16 -179.55577732400846 108.42893676848354
v 16.445413600000002 -101.90530010000001 -108.42422865
v 101.8440895 104.3232689 -105.71750259999999
v 36.445440250000004 231.64287569999999 -107.5466385
v 136.38344574999999 -3.5663747500000009 -105.7917862
v 175.00818635000002 -249.64312745000001 -104.98590469999999
v -6.9388939039072284e-17 -105.99679524711038 -101.82546911543838
v 0.23966746250000007 245.48653066565836 -105.02813379712623
v 1.9428902930940269e-16 -25.5374498575259 62.006617113738209
v 8.3266726846886654e-17 31.368981814272185 34.021175100675705
v -9.7144514654701074e-17 49.454975377911516 24.425058662205075
v 0 152.27852021634226 -37.171969221950519
v -2.775557561562614e-17 167.20972748664556 -47.070023297993117
v -2.0816681711721531e-17 -220.27310832032327 44.387838002901411
v -1.1102230246251615e-16 -110.44469669091518 -97.401139914346189
v 5.5511151231257827e-17 -221.98760228377779 73.841498757070468
v -4.1633363423443198e-17 -216.12123683063248 31.646832068179023
v -5.5511151231257611e-17 -14.17507834933847 56.709990361617614
v 2.2204460492503146e-16 -31.806665774531609 64.878016831943754
v 2.2204460492503131e-16 -65.297307073066662 79.547772969303026
v 3.4694469519536102e-16 37.408627120858924 30.903645933331934
v -4.1633363423439488e-17 56.012521931709784 20.793284418239068
v 5.551115123126171e-17 62.399103169262453 17.213026631151386
v -2.7755575615628914e-17 77.152555078577549 8.8211893752815751
v 1.5265566588595893e-16 67.501147053518736 14.354800284626755
v 2.7755575615628707e-17 -116.9409733187166 98.468999800805875
v -4.1633363423443666e-17 -123.43416953586785 100.34139021744814
v -5.5511151231257913e-17 81.870511632768142 6.1118437115878947
v 1.665334536937756e-16 -156.50863380507991 107.47891363807344
v 1.3877787807814173e-17 -162.96857765971939 108.12828073449066
v -5.5511151231257827e-17 140.97816211071762 -29.879390303909503
v 1.0723577930348129e-30 -187.66055452407375 107.53940761441102
v 5.5511151231257827e-17 146.17735241926357 -33.175289952059359
v -1.1102230246251458e-16 -193.51864682463216 106.21863272518955
v 6.9388939039070373e-17 -217.81225610023785 86.53053983782246
v 1.6653345369377336e-16 -222.6572733275396 68.566356184841894
v -7.6327832942979364e-17 -218.39746169670042 38.015235679956859
v -3.3306690738754765e-16 215.1387747699462 -81.347467561713586
v 3.6082248300317578e-16 -168.93252371165238 -37.584838948049537
v 1.387778780781455e-16 -164.65179080013101 -42.205204339878236
v -1.4571677198205512e-16 -170.72959727251458 108.53694618234853
v -2.2204460492503131e-16 127.03260353728419 -21.208188588595057
v -1.1102230246251514e-16 120.88082940551487 -17.443119273916984
v -3.0704605524789717e-16 210.95167455557754 -78.145059950834252
v -5.5511151231257322e-17 176.52449529670849 -53.457340657906478
v -2.2204460492503062e-16 -144.52435829506163 105.39807581445235
v 5.5511151231258813e-17 171.82137080717141 -50.212025711130096
v 4.4065600125 248.61891835973074 -107.83321562932316
v -9.7144514654701025e-17 -213.64891184474317 25.78671816506521
v 2.4980018054065998e-16 -52.990173932652723 74.297852767238638
v -1.1102230246251514e-16 120.88082940551487 -17.443119273916984
v -44.346978269755908 115.21904465761278 -30.815892083343982
v -59.241712920943172 112.75921439748188 -43.119654118177642
v -71.43360556128431 112.34095878703272 -57.815963027674165
v -87.961626671720239 117.99869126690189 -88.425092499259748
v -54.563829603008912 113.36984085184881 -38.650334526608567
v -67.697289767629016 112.23651005766787 -52.759702439842826
v -85.789415722556498 116.7292600694464 -83.537800928744275
v -95.299377399999997 122.1074066 -105.72277830000004
v -33.231973804491076 117.5728979753703 -24.842055420959611
v -27.55514591491638 118.67618211528156 -22.63884179450924
v -77.961260532913002 113.38890164964759 -68.146253257568176
v -83.413772324037581 115.47177365740457 -78.484263917013521
v -91.812550672789783 120.26749971072266 -97.492835596360919
v -49.595089721472206 114.19938823261093 -34.522405438876838
v -63.624728089137932 112.3792386696927 -47.84554067922565
v -38.867843393305115 116.37681607660012 -27.5763429894692
v -16.792110672276962 120.28267702113824 -19.609306640211507
v -74.845014868030205 112.72001824885305 -62.960424417711266
v -80.818734773822513 114.33091327489123 -73.329749757237977
v -89.952135839686321 119.19193356086805 -93.088223567544787
v -22.026367203032599 119.61114608952499 -20.893495742244806
v -11.978992198347399 120.67734010004635 -18.732495942904315
v -3.7057912435932749 120.91966943408147 -17.718318150543659
v -7.6396950915757635 120.86416838652457 -18.137831174103361
v -93.578642917758827 121.22357655769049 -101.67405907494259
v -3.3306690738754701e-16 -221.47881988378134 76.714795630067385
v -102.64265049619173 -224.71018724824319 28.874261246611731
v -13.030353039590347 -220.94411369769946 76.778688446355261
v -147.25813081494715 -237.5263666649102 -44.468700309535677
v -158.36658426524804 -241.01945639731954 -67.981281711089309
v -166.6684875 -248.35089110000001 -104.77488710000003
v -106.80745762376385 -225.47914037769334 23.763046491007046
v -38.26519267066405 -221.24711939984951 72.473231531724821
v -19.465747254697114 -220.98003997222204 76.420705743548595
v -124.59618800828582 -230.31844161782163 -4.4784508122247857
v -128.16287868206666 -231.76258169645848 -10.133431689634683
v -134.89051677019808 -233.94999877308805 -21.642711826184541
v -141.28416959415364 -236.10739034183621 -32.97921483370407
v -144.3105212899336 -236.81491986342269 -38.708908608800201
v -153.1655088130363 -239.32937062172479 -55.984751292412199
v -165.11713564165245 -245.66241608441584 -92.599109602696473
v -56.089153469761001 -221.62151612885384 64.681789904402805
v -50.293719977914158 -221.56811795190754 67.646531644384112
v -61.791388601660046 -221.9383023468248 61.562991439454308
v -44.344795468140269 -221.44577542414311 70.26230540666694
v -78.085675205575654 -222.73785667405738 50.826481411496388
v -110.59649955482777 -226.21329157496487 18.336141772449018
v -114.35197208589702 -227.46002568218782 12.926910894750204
v -117.98200249254383 -228.73440325007374 7.3688147069130316
v -131.61104397760047 -232.98832694198396 -15.858460727703541
v -163.99583004095706 -244.40973521135641 -86.435563488100371
v -165.96323222032623 -246.73275243292275 -98.762781214537398
v -83.387649331804212 -223.20380670275026 46.975343042076048
v -67.356945504331691 -222.28841515238142 58.219798289169574
v -32.087018790925512 -221.10073338341266 74.266480812572411
v -72.784587241975458 -222.5676460210926 54.639478531837206
v -88.504947376897235 -223.43710423864178 42.800591423390152
v -121.29121212700481 -229.5067926031351 1.4627412489635141
v -6.5338127661167675 -221.18325309659866 76.836937268132004
v -162.45726064340442 -243.41051713434484 -80.22502859786735
v -160.61103611966684 -242.21744305228748 -74.058861249160941
v -25.81936219270353 -221.00879665528191 75.589613359777616
v -138.09482840285398 -234.94603720274694 -27.364442255067178
v -93.495864939348564 -223.81185282597585 38.446056241620624
v -98.223628263880073 -224.20792603965918 33.799644741115372
v -150.34169747926398 -238.63777896160101 -50.110389669323538
v -155.82880200659801 -240.07821076131799 -61.962541802874959
v 2.7755575615628707e-17 -116.9409733187166 98.468999800805875
v -77.856772758132436 -110.32485820777018 56.820459597656196
v -101.13431492012788 -110.07594576957075 28.169111570489321
v -48.246502593365975 -112.80413708726815 82.149844215346647
v -16.501688223019954 -115.66904137277679 96.169890911236976
v -117.80365234317414 -110.75455510704438 2.2478697158579797
v -31.940230818943334 -114.51267572150323 91.079691218256983
v -148.3905466769518 -108.62553100132052 -61.718241148022919
v -158.5901267770279 -106.16298678897223 -89.437393300969632
v -86.247506000492038 -109.95113204223355 47.386904972774005
v -97.605129228682017 -109.96615579532721 33.025584350646938
v -93.964213065992439 -109.88717816307144 37.838487317933328
v -68.696396825438029 -110.88923308723101 65.953511770731836
v -58.756183313307396 -111.70020637111463 74.485303569181809
v -53.558043686009547 -112.22279231150185 78.447763426374294
v -111.24007619580379 -110.41314696031409 13.013401938236569
v -107.92325684814517 -110.29855646490401 18.186954938548833
v -121.05090111054652 -110.99329056172067 -3.329345019609999
v -26.582951387224579 -114.95876432238589 93.208088061717746
v -37.383741704510925 -113.99199387631076 88.505353055515286
v -130.40607911907975 -111.58670731531561 -20.63092335945371
v -146.15530412345615 -109.28301567651297 -55.974067209968425
v -152.63900475294832 -107.46925744664365 -72.96552045163449
v -156.65908045091214 -106.56829425725668 -83.976094864816147
v -162.33776154919207 -105.31976072422336 -100.31872127832382
v -90.182121147949786 -109.87635331188208 42.621606849097788
v -82.141471388565208 -110.10813115362137 52.124365269191969
v -73.376862948922266 -110.58562689518507 61.441754423125275
v -63.808941924445008 -111.25750337874827 70.304847719987052
v -104.57141861805954 -110.18813505039039 23.236998753264917
v -124.24947741765806 -111.24569523390124 -9.015655292583709
v -11.930152040223408 -115.98363796645191 97.070555145617561
v -21.405010103238325 -115.33954514123467 94.890271898716364
v -42.838892834884227 -113.41098961723367 85.515856251466033
v -127.37297004003855 -111.46247568308034 -14.790973076013799
v -133.32999420731585 -111.57276357466793 -26.518092648562998
v -136.13012220781943 -111.3945628353263 -32.437099670531047
v -143.81856283897372 -109.94295099021849 -50.156200935742405
v -150.5417036140563 -108.0143736407617 -67.382054530395123
v -154.67479078585757 -106.99436980282104 -78.491315623651232
v -160.48383466872519 -105.74988785740814 -94.881428669859019
v -164.1708984 -104.8754959 -105.75231170000002
v -138.81190901851849 -111.04613697219526 -38.364286367695236
v -141.37366170963713 -110.5485342252243 -44.2785903714028
v -114.53802159267421 -110.55753736750842 7.7037855119469878
v -7.706008101924791 -116.29597855264748 97.692037138954632
v -3.771396753047592 -116.61293164063613 98.134985118617536
v 5.5511151231257642e-17 242.72910581185522 -102.79150873560613
v -1.3877787807814457e-16 -103.49997048325167 -104.21942081305282
v -125.96401210000001 30.698736199999999 -105.30850220000001
v -131.9874725 10.6138935 -105.2143478
v -151.9245148 -60.330913500000001 -104.5235291
v -142.42587280000004 -25.708761200000012 -104.92324830000001
v -137.18853759999999 -6.2848654000000002 -105.825264
v -157.34089660000001 -80.341033899999999 -104.5501862
v -162.69943240000001 -99.425872799999993 -105.55656430000001
v -119.27183530000001 52.303531599999999 -105.486908
v -113.27527619999999 70.759674099999998 -105.4596863
v -168.27659610000001 -120.988327 -105.8292694
v -172.99575809999999 -142.09756469999999 -104.8609314
v -107.0375748 89.372215299999993 -105.6031723
v -99.062965399999996 112.06641390000001 -105.7454453
v -177.27795409999999 -161.3834076 -104.7829895
v -91.321723899999995 132.3859406 -105.6941681
v -83.769638099999995 150.89019780000001 -105.72820280000001
v -181.6086578 -181.4502411 -105.6506653
v -75.2915955 169.933075 -105.78601840000005
v -184.71051030000001 -200.92784119999999 -105.58657839999999
v -65.246749899999998 190.07879639999999 -106.0662231
v -177.73278809999999 -249.28625490000002 -105.13863370000003
v -185.1252441 -240.04515079999999 -105.9388428
v -53.974445299999999 208.80502319999999 -106.2309494
v -166.6684875 -248.35089110000001 -104.77488710000003
v -151.46957399999999 -237.15777590000002 -105.0486298
v -42.611663800000002 224.74176030000001 -107.1428604
v -25.780483199999999 241.07936100000001 -108.0241776
v -8.3337851000000001 248.9938812 -108.4016724
v -122.0453796 -206.6967621 -104.9424133
v -62.043159500000002 -139.0025177 -106.2535553
v -29.099658999999999 -109.139267 -107.6446838
v -14.106256500000001 -100.9522781 -108.4938583
v -150.130661 -53.7300453 -104.5698395
v -144.33488460000001 -32.698646500000009 -104.73391720000002
v -133.877655 4.5833855000000003 -105.48448180000001
v -155.44474790000001 -73.411552400000005 -104.43540950000001
v -122.5563812 41.8646812 -105.45388029999999
v -165.58190920000001 -110.2528915 -105.8549118
v -170.6776428 -131.524765 -105.37580869999999
v -109.220932 82.934432999999999 -105.54071039999999
v -102.7866669 101.6604767 -105.7027435
v -175.70858759999999 -154.35362240000001 -104.6709518
v -95.299377399999997 122.1074066 -105.72277830000004
v -183.78619380000001 -194.39343260000001 -105.70946499999999
v -185.97888180000001 -212.83079530000001 -105.22026820000001
v -70.183303800000004 180.55726619999999 -105.92902370000004
v -182.21003719999999 -245.76383970000001 -105.62287139999999
v -186.4571991 -233.236557 -105.82630159999999
v -59.830310799999999 199.41325380000001 -106.0950928
v -172.28358460000007 -250 -104.8331757
v -156.24739070000001 -241.31744380000001 -104.94924930000003
v -142.7380981 -228.69052120000001 -105.152771
v -34.410049399999998 233.75344849999999 -107.66300200000001
v -129.9424286 -215.46301270000001 -104.7740326
v -117.88140869999999 -201.7599487 -105.4374084
v -105.77708440000001 -187.68769839999999 -106.0531921
v -93.453155499999994 -174.0054016 -105.53151699999999
v -80.731613199999998 -159.62904359999999 -105.60057070000001
v -66.634849500000001 -143.95133970000001 -106.07797239999999
v -53.314990999999999 -129.9698334 -106.5273361
v -39.119464899999997 -116.77069849999999 -107.0495911
v -23.774335900000001 -105.66139219999999 -108.0296326
v -129.9487915 17.304081 -105.1116791
v -127.89814 24.191171600000001 -105.1800308
v -148.23548890000001 -46.821334800000002 -104.6036301
v -146.28482059999999 -39.756763499999998 -104.646553
v -138.8403931 -12.2774353 -105.61107640000003
v -140.58792109999999 -18.842716200000002 -105.2451859
v -135.5783539 -0.84788410000000003 -105.7583084
v -153.6575775 -66.771362300000007 -104.4610596
v -161.08000180000002 -93.622184800000014 -105.23509220000001
v -159.26750179999999 -87.220748900000004 -104.84941860000001
v -120.95038599999999 47.003093700000001 -105.4786453
v -124.1977081 36.542053199999998 -105.4042664
v -115.35819239999999 64.407234200000005 -105.4614182
v -117.40899659999999 58.098964700000003 -105.4777222
v -166.96043400000005 -115.6371994 -105.890152
v -164.1708984 -104.8754959 -105.75231170000002
v -171.82250980000001 -136.74894710000001 -105.09252170000001
v -169.50904850000001 -126.2815475 -105.64629360000001
v -111.26517490000001 76.8313141 -105.4874344
v -100.90151210000001 106.9860611 -105.7322617
v -104.8334732 95.786018400000003 -105.6593857
v -174.27268979999999 -147.8838959 -104.71248629999999
v -93.366989100000012 127.1452942 -105.7037811
v -97.19697570000001 117.09324650000001 -105.74045560000002
v -86.475799600000002 144.40837099999999 -105.7133331
v -89.03288270000003 138.1265411 -105.69882970000002
v -180.34010309999999 -175.20281979999999 -105.39942929999999
v -178.87052919999999 -168.50003050000001 -105.0597229
v -78.1237335 163.76199339999999 -105.75268550000004
v -80.985923799999995 157.3406525 -105.7387238
v -182.73361209999999 -187.75105289999999 -105.744545
v -186.4235535 -219.20030209999999 -105.2025604
v -185.42912290000001 -206.94572450000001 -105.3999252
v -67.760848999999993 185.3526459 -106.0091858
v -72.646232600000005 175.51747130000001 -105.8476105
v -186.6938782 -226.12539670000001 -105.4563828
v -56.990619700000003 204.05079649999999 -106.1209259
v -62.592254599999997 194.76405330000006 -106.0905151
v -161.32589720000001 -245.22529599999999 -104.8448868
v -46.726791400000003 219.3802948 -106.801033
v -50.5776672 213.91371150000001 -106.4679031
v -138.29679870000001 -224.14155579999999 -105.1038818
v -147.0539551 -232.99900819999999 -105.1230011
v -30.278560599999999 237.59402470000001 -107.86079410000001
v -38.480831100000003 229.53230289999999 -107.43027499999999
v -14.6204453 246.94956970000001 -108.26474
v -20.562679299999999 244.2097473 -108.1514282
v -126.067627 -211.27278140000001 -104.7136459
v -133.9541016 -219.65766909999999 -104.9575806
v -0.47933492500000008 248.24395551946151 -107.26475885864633
v -113.751152 -196.82070920000001 -105.92936709999999
v -101.72177120000001 -183.2019348 -105.8290329
v -109.7458649 -192.1531525 -106.14389799999999
v -89.242416399999996 -169.2677612 -105.5016098
v -97.6017303 -178.6377411 -105.63626859999999
v -76.245758100000003 -154.57467650000001 -105.722435
v -85.004882800000004 -164.47253420000001 -105.5269547
v -71.472518899999997 -149.26019289999999 -105.88885500000001
v -48.595127099999999 -125.3463364 -106.6740341
v -57.719104799999997 -134.4553986 -106.3972397
v -34.312168100000001 -112.9167252 -107.3068695
v -43.790714299999998 -120.86072540000001 -106.847168
v -18.7845707 -102.8583221 -108.35459899999999
v -9.2985783000000009 -99.926132199999998 -108.3926392
v -1.9738977 -99.698068487167589 -108.00405941158743
v -68.972076399999992 182.95495604999999 -105.96910475000001
v -5.6362380000000005 -99.812100343583793 -108.19834930579373
v -107.76147465 -189.92042544999998 -106.09854505
v -120.11111065 49.653312650000004 -105.48277665000001
v -121.75338360000001 44.43388745 -105.4662628
v -167.61851504999998 -118.31276320000001 -105.85971069999999
v -166.2711716 -112.94504545000002 -105.8725319
v -171.25007629999999 -134.13685605000001 -105.23416520000001
v -170.09334565 -128.90315624999999 -105.51105115
v -99.982238749999993 109.52623750000001 -105.7388535
v -94.333183250000005 124.62635040000002 -105.7132797
v -96.248176550000011 119.60032655000001 -105.73161695000003
v -71.414768199999997 178.03736874999998 -105.88831710000001
v -183.66764065000001 -242.90449525 -105.78085709999999
v -179.97141264999999 -247.52504729999998 -105.38075255
v -185.7912216 -236.6408539 -105.8825722
v -55.482532500000005 206.42790984999999 -106.17593765000001
v -58.410465250000001 201.73202515 -106.10800935
v -32.344304999999999 235.67373659999998 -107.76189805000001
v -111.74850845 -194.48693085000002 -106.03663254999999
v -36.715816500000003 -114.84371185000001 -107.1782303
v -41.455089599999994 -118.81571195000001 -106.94837955
v -11.702417400000002 -100.43920514999999 -108.44324875000001
v -0.98694884999999988 -101.59901948520962 -106.11174011232012
v -138.01446534999999 -9.2811503500000008 -105.7181702
v -16.445413600000002 -101.90530010000001 -108.42422865
v -101.8440895 104.3232689 -105.71750259999999
v -36.445440250000004 231.64287569999999 -107.5466385
v -136.38344574999999 -3.5663747500000009 -105.7917862
v -175.00818635000002 -249.64312745000001 -104.98590469999999
v -0.23966746250000007 245.48653066565836 -105.02813379712623
v -4.4065600125 248.61891835973074 -107.83321562932316
l 26/26 23/23
l 23/23 24/24
l 24/24 22/22
l 22/22 17/17
l 17/17 21/21
l 21/21 10/10
l 10/10 9/9
l 9/9 16/16
l 16/16 1/1
l 1/1 14/14
l 14/14 5/5
l 5/5 2/2
l 2/2 15/15
l 15/15 6/6
l 6/6 3/3
l 3/3 18/18
l 18/18 11/11
l 11/11 19/19
l 19/19 12/12
l 12/12 7/7
l 7/7 4/4
l 4/4 20/20
l 20/20 13/13
l 13/13 25/25
l 25/25 8/8
l 68/68 59/59
l 59/59 28/28
l 28/28 34/34
l 34/34 62/62
l 62/62 55/55
l 55/55 33/33
l 33/33 45/45
l 45/45 43/43
l 43/43 42/42
l 42/42 44/44
l 44/44 54/54
l 54/54 56/56
l 56/56 46/46
l 46/46 53/53
l 53/53 57/57
l 57/57 64/64
l 64/64 65/65
l 65/65 27/27
l 27/27 32/32
l 32/32 47/47
l 47/47 48/48
l 48/48 49/49
l 49/49 58/58
l 58/58 35/35
l 35/35 36/36
l 36/36 50/50
l 50/50 37/37
l 37/37 63/63
l 63/63 38/38
l 38/38 39/39
l 39/39 29/29
l 29/29 66/66
l 66/66 40/40
l 40/40 67/67
l 67/67 30/30
l 30/30 61/61
l 61/61 60/60
l 60/60 51/51
l 51/51 41/41
l 41/41 52/52
l 52/52 31/31
l 115/115 114/114
l 114/114 113/113
l 113/113 99/99
l 99/99 72/72
l 72/72 100/100
l 100/100 86/86
l 86/86 74/74
l 74/74 87/87
l 87/87 101/101
l 101/101 71/71
l 71/71 82/82
l 82/82 81/81
l 81/81 96/96
l 96/96 80/80
l 80/80 95/95
l 95/95 69/69
l 69/69 94/94
l 94/94 77/77
l 77/77 93/93
l 93/93 79/79
l 79/79 78/78
l 78/78 70/70
l 70/70 97/97
l 97/97 84/84
l 84/84 83/83
l 83/83 112/112
l 112/112 73/73
l 73/73 85/85
l 85/85 98/98
l 98/98 102/102
l 102/102 88/88
l 88/88 103/103
l 103/103 104/104
l 104/104 110/110
l 110/110 111/111
l 111/111 105/105
l 105/105 89/89
l 89/89 75/75
l 75/75 106/106
l 106/106 90/90
l 90/90 107/107
l 107/107 91/91
l 91/91 76/76
l 76/76 108/108
l 108/108 92/92
l 92/92 109/109
l 116/116 259/259
l 116/116 435/435
l 117/117 189/189
l 117/117 199/199
l 118/118 151/151
l 118/118 188/188
l 119/119 149/149
l 119/119 195/195
l 120/120 150/150
l 120/120 193/193
l 121/121 385/385
l 121/121 390/390
l 122/122 152/152
l 122/122 197/197
l 123/123 196/196
l 123/123 203/203
l 124/124 201/201
l 124/124 363/363
l 125/125 200/200
l 125/125 206/206
l 126/126 205/205
l 126/126 365/365
l 127/127 204/204
l 127/127 209/209
l 128/128 156/156
l 128/128 208/208
l 129/129 211/211
l 129/129 369/369
l 130/130 158/158
l 130/130 215/215
l 131/131 210/210
l 131/131 213/213
l 132/132 212/212
l 132/132 217/217
l 133/133 214/214
l 133/133 218/218
l 134/134 216/216
l 134/134 222/222
l 135/135 161/161
l 135/135 220/220
l 136/136 221/221
l 136/136 225/225
l 137/137 375/375
l 137/137 391/391
l 138/138 374/374
l 138/138 376/376
l 139/139 228/228
l 139/139 377/377
l 140/140 167/167
l 140/140 226/226
l 141/141 168/168
l 141/141 232/232
l 142/142 227/227
l 142/142 234/234
l 143/143 233/233
l 143/143 236/236
l 144/144 235/235
l 144/144 433/433
l 145/145 172/172
l 145/145 237/237
l 146/146 176/176
l 146/146 249/249
l 147/147 179/179
l 147/147 250/250
l 148/148 383/383
l 148/148 387/387
l 149/149 190/190
l 150/150 191/191
l 151/151 194/194
l 152/152 195/195
l 153/153 199/199
l 153/153 364/364
l 154/154 203/203
l 154/154 366/366
l 155/155 367/367
l 155/155 368/368
l 156/156 206/206
l 157/157 208/208
l 157/157 388/388
l 158/158 209/209
l 159/159 356/356
l 159/159 370/370
l 160/160 371/371
l 160/160 372/372
l 161/161 218/218
l 162/162 219/219
l 162/162 220/220
l 163/163 357/357
l 163/163 373/373
l 164/164 374/374
l 164/164 375/375
l 165/165 223/223
l 165/165 376/376
l 166/166 225/225
l 166/166 378/378
l 167/167 391/391
l 168/168 226/226
l 169/169 231/231
l 169/169 232/232
l 170/170 379/379
l 170/170 389/389
l 171/171 237/237
l 171/171 238/238
l 172/172 240/240
l 173/173 241/241
l 173/173 362/362
l 174/174 243/243
l 174/174 244/244
l 175/175 245/245
l 175/175 246/246
l 176/176 247/247
l 177/177 248/248
l 177/177 249/249
l 178/178 381/381
l 178/178 382/382
l 179/179 252/252
l 180/180 353/353
l 180/180 404/404
l 181/181 353/353
l 181/181 435/435
l 182/182 187/187
l 182/182 406/406
l 183/183 407/407
l 183/183 408/408
l 184/184 315/315
l 184/184 409/409
l 185/185 274/274
l 185/185 430/430
l 186/186 258/258
l 186/186 395/395
l 187/187 396/396
l 188/188 189/189
l 190/190 191/191
l 192/192 193/193
l 192/192 385/385
l 194/194 390/390
l 196/196 197/197
l 198/198 363/363
l 198/198 364/364
l 200/200 201/201
l 202/202 365/365
l 202/202 366/366
l 204/204 367/367
l 205/205 368/368
l 207/207 369/369
l 207/207 388/388
l 210/210 371/371
l 211/211 372/372
l 212/212 213/213
l 214/214 215/215
l 216/216 217/217
l 219/219 223/223
l 221/221 357/357
l 222/222 373/373
l 224/224 377/377
l 224/224 378/378
l 227/227 228/228
l 229/229 333/333
l 229/229 336/336
l 230/230 281/281
l 230/230 354/354
l 231/231 238/238
l 233/233 379/379
l 234/234 389/389
l 235/235 236/236
l 239/239 393/393
l 239/239 433/433
l 240/240 380/380
l 241/241 244/244
l 242/242 362/362
l 242/242 380/380
l 243/243 246/246
l 245/245 247/247
l 248/248 251/251
l 250/250 381/381
l 251/251 382/382
l 252/252 387/387
l 253/253 358/358
l 253/253 383/383
l 254/254 339/339
l 254/254 340/340
l 255/255 338/338
l 255/255 350/350
l 256/256 292/292
l 256/256 308/308
l 257/257 394/394
l 257/257 404/404
l 258/258 293/293
l 259/259 405/405
l 260/260 295/295
l 260/260 352/352
l 261/261 409/409
l 261/261 413/413
l 262/262 263/263
l 262/262 318/318
l 263/263 413/413
l 264/264 265/265
l 264/264 317/317
l 265/265 431/431
l 266/266 298/298
l 266/266 416/416
l 267/267 386/386
l 267/267 417/417
l 268/268 397/397
l 268/268 418/418
l 269/269 272/272
l 269/269 326/326
l 270/270 356/356
l 270/270 398/398
l 271/271 398/398
l 271/271 432/432
l 272/272 361/361
l 273/273 328/328
l 273/273 401/401
l 274/274 280/280
l 275/275 276/276
l 275/275 329/329
l 276/276 277/277
l 277/277 399/399
l 278/278 399/399
l 278/278 422/422
l 279/279 280/280
l 279/279 330/330
l 281/281 332/332
l 282/282 335/335
l 282/282 337/337
l 283/283 338/338
l 283/283 354/354
l 284/284 285/285
l 284/284 425/425
l 285/285 342/342
l 286/286 287/287
l 286/286 303/303
l 287/287 305/305
l 288/288 305/305
l 288/288 343/343
l 289/289 392/392
l 289/289 400/400
l 290/290 359/359
l 290/290 394/394
l 291/291 359/359
l 291/291 403/403
l 292/292 307/307
l 293/293 308/308
l 294/294 360/360
l 294/294 405/405
l 295/295 360/360
l 296/296 355/355
l 296/296 431/431
l 297/297 415/415
l 297/297 426/426
l 298/298 427/427
l 299/299 370/370
l 299/299 397/397
l 300/300 361/361
l 300/300 420/420
l 301/301 401/401
l 301/301 421/421
l 302/302 402/402
l 302/302 434/434
l 303/303 304/304
l 304/304 342/342
l 306/306 343/343
l 306/306 344/344
l 307/307 403/403
l 309/309 395/395
l 309/309 406/406
l 310/310 311/311
l 310/310 312/312
l 311/311 352/352
l 312/312 411/411
l 313/313 396/396
l 313/313 407/407
l 314/314 408/408
l 314/314 410/410
l 315/315 410/410
l 316/316 411/411
l 316/316 412/412
l 317/317 412/412
l 318/318 321/321
l 319/319 320/320
l 319/319 428/428
l 320/320 321/321
l 322/322 414/414
l 322/322 415/415
l 323/323 355/355
l 323/323 414/414
l 324/324 417/417
l 324/324 419/419
l 325/325 416/416
l 325/325 418/418
l 326/326 327/327
l 327/327 419/419
l 328/328 420/420
l 329/329 421/421
l 330/330 348/348
l 331/331 402/402
l 331/331 422/422
l 332/332 434/434
l 333/333 423/423
l 334/334 423/423
l 334/334 429/429
l 335/335 393/393
l 336/336 337/337
l 339/339 350/350
l 340/340 424/424
l 341/341 424/424
l 341/341 425/425
l 344/344 400/400
l 345/345 358/358
l 345/345 384/384
l 346/346 386/386
l 346/346 426/426
l 347/347 427/427
l 347/347 428/428
l 348/348 429/429
l 349/349 384/384
l 349/349 392/392
l 351/351 430/430
l 351/351 432/432
l 436/436 459/459
l 459/459 460/460
l 460/460 458/458
l 458/458 453/453
l 453/453 457/457
l 457/457 446/446
l 446/446 445/445
l 445/445 452/452
l 452/452 437/437
l 437/437 450/450
l 450/450 441/441
l 441/441 438/438
l 438/438 451/451
l 451/451 442/442
l 442/442 439/439
l 439/439 454/454
l 454/454 447/447
l 447/447 455/455
l 455/455 448/448
l 448/448 443/443
l 443/443 440/440
l 440/440 456/456
l 456/456 449/449
l 449/449 461/461
l 461/461 444/444
l 462/462 495/495
l 495/495 464/464
l 464/464 470/470
l 470/470 498/498
l 498/498 491/491
l 491/491 469/469
l 469/469 481/481
l 481/481 479/479
l 479/479 478/478
l 478/478 480/480
l 480/480 490/490
l 490/490 492/492
l 492/492 482/482
l 482/482 489/489
l 489/489 493/493
l 493/493 500/500
l 500/500 501/501
l 501/501 463/463
l 463/463 468/468
l 468/468 483/483
l 483/483 484/484
l 484/484 485/485
l 485/485 494/494
l 494/494 471/471
l 471/471 472/472
l 472/472 486/486
l 486/486 473/473
l 473/473 499/499
l 499/499 474/474
l 474/474 475/475
l 475/475 465/465
l 465/465 502/502
l 502/502 476/476
l 476/476 503/503
l 503/503 466/466
l 466/466 497/497
l 497/497 496/496
l 496/496 487/487
l 487/487 477/477
l 477/477 488/488
l 488/488 467/467
l 504/504 550/550
l 550/550 549/549
l 549/549 535/535
l 535/535 508/508
l 508/508 536/536
l 536/536 522/522
l 522/522 510/510
l 510/510 523/523
l 523/523 537/537
l 537/537 507/507
l 507/507 518/518
l 518/518 517/517
l 517/517 532/532
l 532/532 516/516
l 516/516 531/531
l 531/531 505/505
l 505/505 530/530
l 530/530 513/513
l 513/513 529/529
l 529/529 515/515
l 515/515 514/514
l 514/514 506/506
l 506/506 533/533
l 533/533 520/520
l 520/520 519/519
l 519/519 548/548
l 548/548 509/509
l 509/509 521/521
l 521/521 534/534
l 534/534 538/538
l 538/538 524/524
l 524/524 539/539
l 539/539 540/540
l 540/540 546/546
l 546/546 547/547
l 547/547 541/541
l 541/541 525/525
l 525/525 511/511
l 511/511 542/542
l 542/542 526/526
l 526/526 543/543
l 543/543 527/527
l 527/527 512/512
l 512/512 544/544
l 544/544 528/528
l 528/528 545/545
l 553/553 616/616
l 553/553 626/626
l 554/554 587/587
l 554/554 615/615
l 555/555 585/585
l 555/555 622/622
l 556/556 586/586
l 556/556 620/620
l 557/557 704/704
l 557/557 708/708
l 558/558 588/588
l 558/558 624/624
l 559/559 623/623
l 559/559 630/630
l 560/560 628/628
l 560/560 683/683
l 561/561 627/627
l 561/561 633/633
l 562/562 632/632
l 562/562 685/685
l 563/563 631/631
l 563/563 636/636
l 564/564 592/592
l 564/564 635/635
l 565/565 638/638
l 565/565 689/689
l 566/566 594/594
l 566/566 642/642
l 567/567 637/637
l 567/567 640/640
l 568/568 639/639
l 568/568 644/644
l 569/569 641/641
l 569/569 645/645
l 570/570 643/643
l 570/570 649/649
l 571/571 596/596
l 571/571 647/647
l 572/572 648/648
l 572/572 652/652
l 573/573 694/694
l 573/573 709/709
l 574/574 693/693
l 574/574 695/695
l 575/575 655/655
l 575/575 696/696
l 576/576 602/602
l 576/576 653/653
l 577/577 603/603
l 577/577 657/657
l 578/578 654/654
l 578/578 659/659
l 579/579 658/658
l 579/579 661/661
l 580/580 660/660
l 580/580 711/711
l 581/581 607/607
l 581/581 662/662
l 582/582 611/611
l 582/582 674/674
l 583/583 614/614
l 583/583 675/675
l 584/584 702/702
l 584/584 705/705
l 585/585 617/617
l 586/586 618/618
l 587/587 621/621
l 588/588 622/622
l 589/589 626/626
l 589/589 684/684
l 590/590 630/630
l 590/590 686/686
l 591/591 687/687
l 591/591 688/688
l 592/592 633/633
l 593/593 635/635
l 593/593 706/706
l 594/594 636/636
l 595/595 690/690
l 595/595 691/691
l 596/596 645/645
l 597/597 646/646
l 597/597 647/647
l 598/598 680/680
l 598/598 692/692
l 599/599 693/693
l 599/599 694/694
l 600/600 650/650
l 600/600 695/695
l 601/601 652/652
l 601/601 697/697
l 602/602 709/709
l 603/603 653/653
l 604/604 656/656
l 604/604 657/657
l 605/605 698/698
l 605/605 707/707
l 606/606 662/662
l 606/606 663/663
l 607/607 665/665
l 608/608 666/666
l 608/608 682/682
l 609/609 668/668
l 609/609 669/669
l 610/610 670/670
l 610/610 671/671
l 611/611 672/672
l 612/612 673/673
l 612/612 674/674
l 613/613 700/700
l 613/613 701/701
l 614/614 677/677
l 615/615 616/616
l 617/617 618/618
l 619/619 620/620
l 619/619 704/704
l 621/621 708/708
l 623/623 624/624
l 625/625 683/683
l 625/625 684/684
l 627/627 628/628
l 629/629 685/685
l 629/629 686/686
l 631/631 687/687
l 632/632 688/688
l 634/634 689/689
l 634/634 706/706
l 637/637 690/690
l 638/638 691/691
l 639/639 640/640
l 641/641 642/642
l 643/643 644/644
l 646/646 650/650
l 648/648 680/680
l 649/649 692/692
l 651/651 696/696
l 651/651 697/697
l 654/654 655/655
l 656/656 663/663
l 658/658 698/698
l 659/659 707/707
l 660/660 661/661
l 664/664 710/710
l 664/664 711/711
l 665/665 699/699
l 666/666 669/669
l 667/667 682/682
l 667/667 699/699
l 668/668 671/671
l 670/670 672/672
l 673/673 676/676
l 675/675 700/700
l 676/676 701/701
l 677/677 705/705
l 678/678 681/681
l 678/678 702/702
l 551/551 710/710
l 679/679 681/681
l 679/679 703/703
l 552/552 703/703
