v 0.046107999999999996 -0.13297200000000001 0.16387590000000002
v 0.033312700000000001 -0.086945800000000004 0.16516600000000001
v 0.044290200000000002 -0.10232330000000001 0.16408130000000001
v 0.0144157 -0.074696299999999993 0.1667006
v 0.038801450000000001 -0.094634550000000012 0.16462365000000001
v 0.023864200000000002 -0.080821050000000005 0.16593330000000001
v 0.00720785 -0.073831510864776517 0.16684617612094083
v 0.12425700000000001 0.25430380000000002 -0.2178195
v 0.1115572 0.25446449999999998 -0.227717
v 0.164829 0.25498900000000002 0.024946699999999999
v 0.0138123 0.25529380000000002 0.11852219999999999
v 0.1905626 0.25510840000000001 -0.089721300000000004
v 0.17241699999999999 0.2550405 0.010496500000000001
v 0.1442589 0.255689 0.053168800000000002
v 0.1906138 0.25507049999999998 -0.0554411
v 0.15624215 0.25444635000000004 -0.18237010000000001
v 0.18428149999999999 0.25516830000000001 -0.021502199999999999
v 0.18840129999999999 0.25505070000000002 -0.039274900000000001
v 0.026090599999999999 0.25471120000000003 -0.26167370000000001
v 0.043401099999999998 0.25439319999999999 -0.25867099999999998
v 0.082863900000000004 0.25476900000000002 -0.24464369999999999
v 0.1264864 0.25556499999999999 0.071286500000000003
v 0.1863987 0.25475959999999997 -0.11506329999999999
v 0.0566264 0.25538470000000002 0.1104603
v 0.065132999999999996 0.25454389999999999 -0.25221369999999999
v 0.1087081 0.25509850000000001 0.085318500000000005
v 0.098000199999999996 0.25469370000000002 -0.23654749999999999
v 0.1804327 0.25460080000000002 -0.13572809999999999
v 0.0338445 0.25528820000000002 0.1161864
v 0.1374705 0.25432919999999998 -0.20522099999999999
v 0.15597349999999999 0.25520749999999998 0.038646399999999997
v 0.19138450000000001 0.25513550000000002 -0.071487700000000001
v 0.074666399999999994 0.25523439999999997 0.10392709999999999
v 0.094742800000000002 0.25512499999999999 0.093977500000000005
v 0.1726974 0.25468669999999999 -0.15468370000000001
v 0.16446977499999998 0.25456652499999999 -0.16852690000000001
v 0.17872299999999999 0.25510549999999999 -0.0042594
v 0.1603559625 0.25450643750000002 -0.17544850000000001
v 0.0069061499999999998 0.25524332554035334 0.11860383227182196
v 0.084704599999999991 0.25517970000000001 0.098952299999999993
v 0.11759725 0.25533174999999997 0.078302499999999997
v 0.18150224999999998 0.2551369 -0.0128808
v 0.0238284 0.25529100000000005 0.11735429999999999
v 0.013045299999999999 0.25477603772866436 -0.26242709670664877
v 0.17656505 0.25464375 -0.1452059
v 0.10172545 0.25511174999999997 0.089648000000000005
v 0.17557 0.25507299999999999 0.0031185500000000003
v 0.168623 0.25501475000000001 0.017721600000000001
v 0.045235449999999996 0.25533645000000005 0.11332334999999999
v 0.18634139999999999 0.25510949999999999 -0.03038855
v 0.16858358749999999 0.25462661249999996 -0.16160530000000001
v 0.065646399999999994 0.25530955 0.1071937
v 0.023588600000000001 0.078131300000000001 0.16626460000000001
v 0.040284899999999998 0.093877100000000005 0.1645875
v 0.0028760000000000001 0.072140899999999994 0.16716
v 0.037633100000000003 0.15198900000000001 0.164801
v 0.045532599999999999 0.13481499999999999 0.163996
v 0.0477934 0.1116535 0.16376560000000001
v 0.0259437 0.16069120000000001 0.166073
v 0.01297185 0.16582297106136373 0.16669018516147122
v 0.013232300000000001 0.075136099999999997 0.16671230000000001
v 0.0014379999999999998 0.072456963860124624 0.16711125109641373
v 0.006485925 0.16838885659204561 0.16699877774220684
v 0.019457775 0.16325708553068186 0.16638159258073559
v 0.042159700000000001 -0.25487650000000001 -0.25894349999999999
v 0.081114699999999998 -0.25560149999999998 0.1010148
v 0.18039959999999999 -0.25467319999999999 -0.0088199000000000003
v 0.15872449999999999 -0.25465840000000001 0.034632999999999997
v 0.14526800000000001 -0.25536569999999997 0.052296200000000001
v 0.19116949999999999 -0.25479600000000002 -0.076116699999999995
v 0.1717969 -0.25473069999999998 -0.1563881
v 0.16093479999999999 -0.25454349999999998 -0.17602880000000001
v 0.1324166 -0.2559842 0.065775200000000006
v 0.19020590000000001 -0.25471830000000001 -0.051582799999999998
v 0.087643200000000004 -0.25465749999999998 -0.24227090000000001
v 0.056882500000000003 -0.25531510000000002 0.1105071
v 0.18366615 -0.25435825000000001 -0.1260049
v 0.1858397 -0.25470169999999998 -0.026969099999999999
v 0.066911899999999996 -0.25467390000000001 -0.25134380000000001
v 0.1060281 -0.25453999999999999 -0.23147470000000001
v 0.1316417 -0.25427689999999997 -0.2111633
v 0.014266899999999999 -0.25511925000000002 -0.26295615
v 0.0128386 -0.25514940000000003 0.1187308
v 0.1132803 -0.25630550000000002 0.081927100000000003
v 0.17081874999999999 -0.25463389999999997 0.01340705
v 0.14575450000000001 -0.25436500000000001 -0.1961685
v 0.098082799999999998 -0.2560885 0.092063199999999998
v 0.037076699999999997 -0.25528089999999998 0.1154509
v 0.18978929999999999 -0.2546234 -0.096490300000000001
v 0.1192641 -0.25436740000000002 -0.2218474
v 0.177731525 -0.25454447499999999 -0.1411965
v 0.046979599999999996 -0.25529800000000002 0.112979
v 0.18069883749999999 -0.2544513625 -0.13360070000000002
v 0.17476421250000002 -0.25463758749999998 -0.14879229999999999
v 0.096835649999999995 -0.25459874999999998 -0.23687279999999999
v 0.1126461 -0.2544537 -0.22666105
v 0.024957649999999998 -0.25521515 0.11709085
v 0.16636584999999998 -0.25463709999999995 -0.16620845000000001
v 0.07727755 -0.25466569999999999 -0.24680735000000001
v 0.006419300000000001 -0.25517119289695422 0.1187275422989089
v 0.0071334499999999978 -0.25511866772763553 -0.26312852138537302
v 0.0282133 -0.25499787500000004 -0.26094982499999997
v 0.054535799999999995 -0.25477519999999998 -0.25514365
v 0.016326499999999997 -0.16405730315811914 0.16633454849859911
v 0.024489749999999998 -0.16046802657905956 0.16584289924929957
v 0.0081632499999999986 -0.16764657973717872 0.16682619774789864
v 0.028715544874834652 -0.0045205436687255698 0.25245326234678722
v 0.044602139700704278 -0.012523916298322536 0.2883221098142722
v 0.03701897051851627 -0.0068003883654377383 0.26192806621061238
v 0.033273903955174239 -0.017752322689899368 0.31381294577921792
v 0.040964355231644212 -0.015371086703229606 0.30216029665997435
v 0.042755639852131253 -0.0095424350040824706 0.27424655281585275
v -2.1684043449710038e-19 -0.021185802517951036 0.33214103994676247
v 0.019179318178059256 -0.0025664932817248826 0.24614480496976454
v 0.0095869917291775061 -0.0010817604454058459 0.24195728163283187
v 0.011791549506775894 -0.020611998185909416 0.32839023201782402
v 0.023048277767398727 -0.019505000210042478 0.32240664396390062
v 3.5236570605778793e-19 0.00027808216071945665 0.2395301277481679
v 0.03379499919375506 0.056789861151153836 0.23785056130019533
v 0.032454550180810268 0.10180056837939656 0.27864218158719622
v 0.042125736389663312 0.065964707488091176 0.24656108427278281
v 0.045668653954325664 0.077591438137479235 0.25755230126818029
v 0.0174229590724659 0.11050124353986437 0.284630292770508
v 0.042371673559219447 0.090253730192544276 0.26898211595692401
v 0.023145686536695399 0.050259219414237291 0.23180409686115883
v 2.1684043449706718e-19 0.11626110670306722 0.28704204757844654
v 0 0.043302224856619768 0.22647956636810535
v 0.011761195707531896 0.045841522399584347 0.22808787489414883
v 0.19126345216470991 0.088676842950477591 -0.071223318062562352
v 0.19098890534475499 -0.11593178032926382 -0.08371774831733958
v 0.23920247614348064 -0.067990025611436425 -0.082206291581484445
v 0.19118131041360739 -0.073712800371378395 -0.083003148821489819
v 0.19075349973397124 -0.13658958061439219 -0.084247644312091197
v 0.24030975575856786 -0.16309853533023239 -0.082994633246288418
v 0.1908845269584839 0.1643140002938418 -0.066146668047436241
v 0.22649436500498404 0.25741043714022638 -0.069046409740335504
v 0.23921766495936683 -0.049101497167128055 -0.081955364687343671
v 0.25393797288562714 0.23562906323894039 -0.068886976720277313
v 0.25644074894059432 0.19981924148613833 -0.070780466989776469
v 0.24080881612613003 0.16588061647560159 -0.0727512630329685
v 0.24241805873434996 0.24937023858060869 -0.068583571419070663
v 0.23935396700724476 -0.14489256816160867 -0.082636982714203958
v 0.2574439144426981 -0.21063108002514147 -0.085740397904802576
v 0.19114714503125127 0.0092443989808563103 -0.079281285198113199
v 0.25878412297326769 0.21816771399036261 -0.069744767151402987
v 0.25511363598738246 -0.22695069293434098 -0.086767792400921584
v 0.19073668407026284 -0.1765863979631595 -0.086426107782658995
v 0.19031091509684653 -0.21560614283129539 -0.090605980713875406
v 0.19065656478602536 0.21876176799346597 -0.068072289478931625
v 0.19116972872253718 0.10809172450028356 -0.069303124554084466
v 0.23647153478245481 -0.25247581951514575 -0.089659518908394104
v 0.1898124138928548 -0.23509559938300539 -0.093395507625259513
v 0.23916188119099996 -0.12601537841616645 -0.082446159126940893
v 0.23909488751106842 0.0042077880238956889 -0.079981222055158174
v 0.23952942711003147 0.14692871158877535 -0.073396276735656768
v 0.19116552207127366 -0.011063743104003841 -0.080715919506435488
v 0.19118459646986988 -0.031668525371172249 -0.081786741327096069
v 0.1912137346928377 0.02931901071259807 -0.077514683994625605
v 0.25413277419374902 -0.19453327378039037 -0.084483483976664248
v 0.24848306840460915 0.18246221417105538 -0.071885856916535595
v 0.19063809056316311 0.18251302553301163 -0.066227138877506628
v 0.24697571207267854 -0.17927799951599371 -0.083591200489392947
v 0.19067628452439245 0.20063197071054395 -0.066896043752135814
v 0.19129500576653155 0.049234376830791085 -0.075493746148969185
v 0.19057036890061446 -0.19613656108721672 -0.088248381850587379
v 0.19101935557226773 0.2369311438493375 -0.069672289633863932
v 0.19074510589814492 -0.15678967256222379 -0.085118815033218026
v 0.23922431055547619 -0.087274431245331296 -0.082314718214796301
v 0.20527381168057207 -0.25834455501518266 -0.093868954034558472
v 0.23941810118890688 0.1070748823340868 -0.074604428285398483
v 0.23948329928908696 0.12729229016953808 -0.073970277968697262
v 0.19138450000000001 0.25513550000000002 -0.071487700000000001
v 0.18978929999999999 -0.2546234 -0.096490300000000001
v 0.23904387297768137 0.043189954430749702 -0.077687175857211799
v 0.19115051343727893 -0.094905817603983797 -0.083354794704955035
v 0.23923392081778877 0.064976075260023747 -0.076455629079459395
v 0.23913491792900424 -0.030762785923810512 -0.081498416395589635
v 0.20876236462292222 0.25889287439253456 -0.070101242453074086
v 0.19105375854853612 0.12718144319653729 -0.067741302316032093
v 0.19126996200196392 0.069029419887291471 -0.073343685181950793
v 0.19094921638245094 0.14590690144684285 -0.066662167581460416
v 0.23937176239664898 0.08629585467222084 -0.07541673269137314
v 0.23910218856257642 -0.013017494229369483 -0.080828349919119108
v 0.23906238166714056 0.021092387496536108 -0.079009289664972213
v 0.24829921484622675 -0.24142131929039473 -0.088076086198240422
v 0.23926415643601778 -0.10671332413779647 -0.0823674019502178
v 0.19119343133690656 -0.052577470519558217 -0.082521913116503004
v 0.22131107830654637 -0.25810447801826819 -0.091563492857958728
v 0.045037664538757689 -0.082694539881574047 0.24515069789848737
v 0.044254282296480235 -0.093151722500866035 0.25462147766173182
v 0.034021801922448143 -0.063494978412462516 0.22870903343038901
v 0.021554693053807927 -0.11531837679866822 0.27549223592684613
v 0.031550414891601763 -0.11013523234080885 0.27047496574340141
v 0.04143726092915298 -0.072425394998868908 0.23613472968417892
v 0.03962612508708125 -0.102630045650555 0.26343534509629818
v 8.6736173798840355e-19 -0.12074921652808651 0.28110332476788963
v 0.01089795330942285 -0.11868232576671894 0.27889304092142309
v 0.023501217715208803 -0.057292529934776119 0.22360855891691744
v 5.4210108624275222e-19 -0.050028615942179472 0.21939513518071704
v 0.012035423210147568 -0.052735876463873302 0.22054649514719948
v 0.21181202219844264 0.027792486763808341 -0.18405611912521891
v 0.23136285274445628 0.023888271753163777 -0.13386233921502633
v 0.23710827513283234 0.018838699683863216 -0.039618982531325994
v 0.23357232622860513 0.017361343488536407 -0.019867243600594775
v 0.16362610258977928 0.0010082151195070824 0.10264528237728904
v 0.11662642690797548 -0.0053267948317137458 0.13697922236564575
v 0.13282480767574839 -0.0035889515310994968 0.12705827114010546
v 0.10023319791435614 -0.0065987549269885442 0.14535272318983006
v 0.21952340094717265 0.026370041555359994 -0.16798569995452484
v 0.22817939500983911 0.015608352072297152 -0.00028770423584390686
v 0.038166146428662243 -0.007907921280825278 0.16401658323605262
v 0.19081516243876107 0.0062568215733876439 0.072590002361151651
v 0.20247976162375675 0.0088593947039365926 0.055677741970991707
v 0.057648967036820431 0.032877947974111449 -0.30445210093664909
v 0.22099909104199475 0.013585474663617489 0.018907488908395022
v 0.19304647007220871 0.030641251332173963 -0.21412417924216176
v 0.1412109937884885 0.03417732987435261 -0.26565672573468324
v 0.083915280638955175 -0.0074160606270920471 0.15219394035795381
v 0.091646149215875744 0.033859910411726951 -0.29357950242184694
v 0.041777181773671006 0.032404550333931192 -0.30773890933823089
v 0.16962881714716621 0.03292466815514556 -0.24109999234618068
v 0.074416645166244424 0.033386739877344751 -0.29979548288574931
v 0.20297153339438356 0.029244031127129824 -0.19943195649241713
v 0.17778239809920671 0.0036091869960823081 0.088279370924835232
v 0.18187856437529479 0.031895493131346278 -0.2279947845769239
v 0.156013445362578 0.033704982106831982 -0.25391812708615968
v 0.21257106406144377 0.011323542767695089 0.037702651097730119
v 0.22602597363242619 0.025052393626141561 -0.15122561929303019
v 0.067938433719741412 -0.0078481989897023017 0.15748859153021466
v 0.23795018211622881 0.021979148953503561 -0.097608245174562541
v 0.12539315688827563 0.034336672474339081 -0.27628398082619909
v 0.23536513743169282 0.022880417145259589 -0.11594768957845188
v 0.1485837005797021 -0.0014383836269379027 0.11561598179869464
v 0.052607556840392811 -0.0079856497829747762 0.16136269186335792
v 0.10879154809673483 0.034207654373049373 -0.28569978268027385
v 0.23906238166714056 0.021092387496536108 -0.079009289664972213
v 0.2389380369461252 0.020063886842300808 -0.0593570134678683
v 0.024707854999957202 -0.0076792949874472799 0.16571784513136709
v 2.1684043449710089e-19 0.031358787821223727 -0.3119271045234655
v 0.013212788156400937 0.031658867309320091 -0.31124596862993653
v 0.026999360364231544 0.031996106031590331 -0.30989147147115786
v 0.012105880073188186 -0.0073474351451663349 0.16679043386908809
v 8.1315162936412881e-19 -0.0069660722345383196 0.16748411875741745
v 0.18169775652534853 0.20407803730192675 -0.2534165351549959
v 0.18617366203490998 -0.22206398339104738 -0.24894744808189773
v 0.16878236744633532 0.13468943321040611 -0.24196795579410216
v 0.16894382831827098 0.1155286250170917 -0.24193804029703156
v 0.16971674283446953 -0.031430475695924866 -0.24122917518902853
v 0.16918146639971648 0.095593792059671528 -0.24178893424257492
v 0.1728112773527665 -0.16992738523606679 -0.24133184430340698
v 0.17182660540305689 -0.25513675449429651 -0.22873436508518441
v 0.1694818396696266 0.054169241832637299 -0.2412069486354417
v 0.13350338528923616 0.16365624651715943 -0.20923088763157216
v 0.12962268427981849 -0.081256052511907012 -0.21274613730619885
v 0.12758500216988305 0.037134713967014524 -0.21472317987550277
v 0.17071605118087596 -0.15110395033350515 -0.24018281311653256
v 0.157939147547558 0.25819979823076056 -0.22760791765687782
v 0.12707642656115964 0.016593853612162198 -0.21496799979859027
v 0.12714972955391626 -0.022809916257379999 -0.21514525333622539
v 0.12983355926611445 0.10134560081867927 -0.21238654904099283
v 0.16976989479727239 0.011403421774159792 -0.24117112855118544
v 0.14733099063898286 0.25860943135644082 -0.21611809836285345
v 0.17006653646969705 -0.11247531265680977 -0.2407904673507249
v 0.12696100979670485 -0.0033342873072003589 -0.21517269553419566
v 0.17721118732872099 0.2408302691510294 -0.24800717565622987
v 0.16839699979205033 0.25241505086202259 -0.23870656578227395
v 0.16937094039974437 0.075088403616027283 -0.2415071779459754
v 0.16962881714716621 0.03292466815514556 -0.24109999234618068
v 0.16893573042741264 0.15288707738527252 -0.24209299313860899
v 0.18531761563386795 -0.20374439123287297 -0.25030168814526532
v 0.17941949191134191 -0.18666483188377278 -0.24640895127510071
v 0.18203884222693767 -0.24187213680658048 -0.24199836456974566
v 0.13552757470201909 0.20179878767122794 -0.20712875424211075
v 0.13634880661649695 0.21979552668103455 -0.2063777185513106
v 0.1346210599377807 0.18309900189948469 -0.20814053278771705
v 0.13117419733491045 -0.10118547515030007 -0.21138682344465354
v 0.14007136162652734 -0.198013218849006 -0.20258158712770424
v 0.13440901155863647 -0.14084811669757938 -0.2078583722430204
v 0.13819829123707195 -0.1792100965844835 -0.20444506711061133
v 0.12894198912825305 0.079768916506944065 -0.21338638075203287
v 0.13688696544378354 0.23722371700049499 -0.20567678293931271
v 0.12763661666601514 -0.042120317343645894 -0.21474729853490032
v 0.16993020745115867 -0.092797486520012462 -0.24104248195822287
v 0.16982217470103966 -0.07278159778122803 -0.24119360122106676
v 0.17025901812395877 -0.13190013033653958 -0.24044972090536643
v 0.14366445115831281 -0.23554145949607008 -0.19824678210941024
v 0.13625968521172116 -0.16020079782481161 -0.20613145721551557
v 0.16975698275906398 -0.052336993127419469 -0.24125826244499776
v 0.14575450000000001 -0.25436500000000001 -0.1961685
v 0.17636106877598912 0.18444952117875596 -0.24874620609917811
v 0.1374705 0.25432919999999998 -0.20522099999999999
v 0.15863813413736638 -0.25876223252176034 -0.21243822005745552
v 0.17151703156700043 0.16967689045437273 -0.24438620385939808
v 0.141879779298583 -0.21676092786383949 -0.20050233721015337
v 0.1284059927442559 -0.061551173666817643 -0.21387491844429901
v 0.16979524244027536 -0.010127929184296509 -0.24124504466003471
v 0.12824336237229272 0.058261635123628711 -0.21423164859314706
v 0.1327958671722686 -0.12113031826230039 -0.20972089526378368
v 0.18207924451368351 0.22381469032498294 -0.25329547767554084
v 0.13216322914349701 0.14349061029550314 -0.21024512401910045
v 0.13106996399382009 0.12266985012455199 -0.21148129636909252
v 0.11538051400382537 0.18670119423740761 -0.29542317744128122
v 0.2020872147320131 0.18349821188335319 -0.21715764608469601
v 0.17191083837103749 0.18808430334319651 0.11080928657910469
v 0.12679455827552366 0.19425263210693072 0.14842439614282801
v 0.14275609941085152 0.19215696478089067 0.13763534491500989
v 0.24403487600287763 0.18221378470448046 -0.11799352024315318
v 0.092975478019550598 0.19708651734714064 0.16600545921289778
v 0.056775845170492979 0.19804892008536418 0.17831906791822549
v 0.075157031214335479 0.19772061742224956 0.17290058370307593
v 0.23202930089813154 0.18218548293237458 -0.16106148777995413
v 0.22358664961440572 0.18235692332862324 -0.18105521264150909
v 0.16274723412463599 0.1847341940876836 -0.26198011959608458
v 0.14789122349571582 0.185151096896217 -0.2740432685876798
v 0.15775171606236649 0.19008077946151106 0.12498916897390863
v 0.24262189394370431 0.1824190160654782 -0.023525225332730888
v 0.23898988645007879 0.18210358561470444 -0.14002356039955777
v 0.13202434490469106 0.1857801571481989 -0.28516267135965995
v 0.21885260486483377 0.18252800586918466 0.044567232970082402
v 0.080535213375778403 0.19028784352848516 -0.31204440118041799
v 0.24763712995555287 0.18261076867024523 -0.055952431810215475
v 0.038013423727290448 0.19829193639402762 0.18235651342562631
v 0.19789859384505981 0.18464490383634904 0.079180508174514969
v 0.21353330075284832 0.18281389370132561 -0.1997692393297163
v 0.1898981263271193 0.18394046263556763 -0.23362921233343889
v 0.046212439841823105 0.19560040734390738 -0.32234659505449881
v 0.030188336777896417 0.19797193437829258 -0.32610263886296531
v 0.24848306840460915 0.18246221417105538 -0.071885856916535595
v 0.06308661311655489 0.19291882244556505 -0.31788928742730799
v 0.20937020708357773 0.18330924321809597 0.062215247345984312
v 0.17636106877598912 0.18444952117875596 -0.24874620609917811
v 0.24724219362258432 0.18231631443869173 -0.095204980490105409
v 0.18569082472287107 0.18601584664737608 0.095787135966129283
v 0.23885909298878527 0.18209274441580198 -0.0069240866322491023
v 0.098130868585576084 0.18812760365099723 -0.3045486663566343
v 0.11026587262795426 0.19588660407430911 0.15799160239555399
v 0.22726583730957992 0.18188906907085123 0.027210047389187069
v -8.6736173798840355e-19 0.19896000714477088 0.18746468929623983
v -1.0842021724855025e-19 0.20188897316323354 -0.33179648946607099
v 0.24555730897921529 0.18260348083468159 -0.039845979372215221
v 0.019026944906736322 0.19863469438429068 0.18511829867038931
v 0.23382544995978261 0.18179564952292743 0.0099848682868042236
v 0.014884588846656948 0.200044569294557 -0.32914541931430291
v 0.07362324747872237 -0.22126197471327225 -0.31932398686852914
v 0.12695421218563657 -0.22211141678737906 -0.29678206904919019
v 0.18617366203490998 -0.22206398339104738 -0.24894744808189773
v 0.19742423477489504 -0.22205012962394743 -0.2367620109332107
v 0.24875635880064978 -0.22362156280559228 -0.14129984300157017
v 0.25292529636668803 -0.2301464344752224 -0.046915063698735521
v 0.24601387063753027 -0.23341457545699054 -0.0096022054660847393
v 0.17180969047369687 -0.23911871450070676 0.10948647509298251
v 0.096784983079203191 -0.24217308252812947 0.15839567103171701
v 0.040843068129459016 -0.24482388863497093 0.17187633293453933
v 0.060368959622680379 -0.24374590830931026 0.16844650680021339
v 0.18512985666955578 -0.23944976499620502 0.09738462097917655
v 0.12944661093137516 -0.24101957787477429 0.14276347220263602
v 0.19777291196783756 -0.23983822202807492 0.084680198947373581
v 0.25511363598738246 -0.22695069293434098 -0.086767792400921584
v 0.21758298919684069 -0.22202609827892544 -0.20848661540051139
v 0.14346654162888084 -0.22250337589941022 -0.28691278274466603
v 0.020565917858821059 -0.2455980666319022 0.17411479909914299
v 0.217529622167487 -0.23800449972738771 0.055224963710184517
v 0.25515343272219171 -0.22878814311752893 -0.06655140623972465
v 0.24323900239219021 -0.22299128302046431 -0.15934070605083431
v 0.14416733591989755 -0.24017102321331932 0.13248534546217655
v 0.11018036725153041 -0.22184247584204014 -0.30652410206514902
v 0.25431446804206181 -0.2257255330764863 -0.10468052456038271
v 0.092400957815046231 -0.22155711491277735 -0.31448688937153613
v 0.22702542356563371 -0.23754104897913408 0.04040294769128587
v 0.2410254961001374 -0.23503418528359288 0.0079265210812133335
v 0.22740881165346211 -0.2222117185582019 -0.19321333996510098
v 0.11357729817909033 -0.24155734985943736 0.1513052172423105
v 0.25000217828487042 -0.23183896006662513 -0.027901892368705335
v 0.036469587419615382 -0.22216485600880659 -0.32729029325366715
v 0.23575326163497581 -0.22248299013741746 -0.17661443116745187
v 0.055006661481352304 -0.22155895939497139 -0.32387692637432663
v 0.159037513703221 -0.22262422683312072 -0.27585933575972832
v 0.15843152908754643 -0.23971340993582912 0.1215318988573155
v 0.2078484369590905 -0.23874574968696149 0.070021262831505185
v 0.23516086467991285 -0.23664885176507855 0.024754735642198475
v 0.25211190930769922 -0.22447126694011837 -0.12290358322891012
v 0.17347815101445702 -0.22247582241404684 -0.26340766803610527
v 0.20782665706424222 -0.22200276697253341 -0.22319065445780206
v 0.079019097064210037 -0.24281369065114966 0.16398433204430246
v 3.9979955110404002e-19 -0.22440267049919735 -0.3328290477874043
v 8.6736173798840355e-19 -0.24706102526355522 0.17620563168169101
v 0.018115454399070974 -0.22315467499283115 -0.32990243011110121
v 0 -0.065387865082402463 -0.31171917005286198
v 0.046107999999999996 -0.13297200000000001 0.16387590000000002
v 0 0.2602891 0.1357469
v 0 0.21966309490452113 -0.33348266702665552
v 0.032652999999999995 -0.15687875000000001 0.16535125000000001
v 1.0842021724855056e-19 -0.018830772330123296 -0.26393027397959157
v 8.6736173798840355e-19 -0.19814273188820314 0.1870840901505344
v 4.878909776184744e-19 0.2504733508026506 -0.31590200354945891
v 2.7105054312137433e-19 0.18481435380901395 0.17955770277745836
v 5.4210108624275222e-20 -0.16219732976439571 0.21026212581660403
v 8.6736173798840355e-19 0.13217223100904857 -0.31186019972758144
v 0 -0.25390249999999998 -0.3122858
v -1.0842021724855044e-19 -0.12884993080759599 -0.26396164483934614
v 0 0.2104287 0.1195367
v 8.6736173798840355e-19 -0.11052649877862294 -0.26382396149782539
v 2.1684043449710118e-19 0.05439025184653408 0.32413011146701343
v -5.421010862427526e-19 0.066391667711088537 -0.2637327822029899
v 4.3368086899420177e-19 -0.13250219500512006 -0.31187099284606129
v -3.5236570605778846e-19 -0.1833218971635191 0.17877767728181565
v -8.6736173798840393e-19 0.047255579242623469 0.1193395907650921
v -8.6736173798840355e-19 0.031485446817026204 0.11927904497193345
v 1.7347234759768071e-18 0.1386711188798988 0.11917342767757835
v -2.1684043449710084e-19 0.0056911983225556894 -0.31199582038602214
v 0 -0.17353922102424588 -0.31167833353232488
v 6.5052130349130324e-19 0.099265712868501527 0.3006385097952386
v -8.6736173798840355e-19 0.19896000714477088 0.18746468929623983
v -2.1684043449710195e-19 -0.073648714931381518 0.31595260966543298
v 8.6736173798840355e-19 -0.12074921652808651 0.28110332476788963
v 1.0842021724855092e-19 -0.13440454142731681 0.2655374436340483
v 1.626303258728352e-19 -0.18825483699345119 -0.32517253541458135
v 0 0.080974197127516731 -0.31181637118704564
v -1.3010426069826053e-18 0.1019208184747505 -0.3118840361633981
v -8.6736173798840355e-19 -0.030563060222584988 0.11930369960189563
v -2.1684043449710089e-19 0.084758210020233052 0.11934003334453012
v 0 0.068861856334220289 0.11923865077955524
v 8.6736173798840355e-19 -0.18603717114761001 -0.26373344614402683
v 2.1185229388259594e-33 0.23182714214551903 0.11933344358265539
v -8.6736173798840355e-19 -0.093088964146937056 0.11932466709841813
v 0 0.26021379738450257 0.15244603408542612
v -3.2526065174565172e-19 -0.073918542141875987 0.11944630472343995
v 1.0842021724854977e-19 -0.11104580846609868 0.11949774960095451
v -4.3368086899420177e-19 0.15889334978094488 -0.26369033543372655
v 5.4210108624274201e-19 -0.20364972495636013 -0.26400660662286474
v -8.6736173798840355e-19 -0.16429495852170256 0.11936076768957624
v -8.6736173798840355e-19 0.2548408754573287 -0.26318049341329752
v -8.6736173798840355e-19 -0.24133081068009654 -0.325345445459086
v -8.6736173798840355e-19 0.028636777876448142 0.16746738654552465
v -4.6703801151391099e-33 0.054206637719357853 0.21444731771170206
v 2.1684043449708748e-19 0.12912394911230626 0.27319141333097674
v -2.602085213965211e-18 0.1374137325829094 0.2602162408417909
v 0 0.0043972564757697209 -0.26369831110229658
v 8.6736173798840355e-19 -0.20640754526571048 -0.33280163569191923
v 3.9979955110404002e-19 -0.22440267049919735 -0.3328290477874043
v 0 -0.011433734818415784 -0.31177662336288248
v -2.7105054312124274e-20 -0.21465819153654614 0.18977774858580557
v 5.4210108624272802e-20 0.14961651381898311 0.24180472089662428
v -1.3010426069826053e-18 -0.14240536334152532 0.25429603289840974
v -8.6736173798840355e-19 0.23941153768469225 0.18208635782066693
v -1.7347234759768071e-18 -0.0062171409561975364 0.33360992505502951
v -2.1684043449710038e-19 -0.021185802517951036 0.33214103994676247
v 1.6263032587282502e-19 -0.14951947687950815 0.24203552929762392
v 3.252606517456521e-19 0.029602434619035965 0.33116667348030293
v 2.1684043449710098e-19 0.055408168447637005 -0.31196645025613984
v 2.5037089277034066e-33 0.2338858311436211 -0.32931772770969142
v -8.6736173798840355e-19 0.15835027995938264 0.22039726791730621
v -6.5052130349130276e-19 0.020313526964744408 -0.26381655455428332
v 2.439454888092384e-19 0.040895273116218794 -0.26392029889988633
v 2.1684043449709626e-19 -0.16631424057721816 0.1915495042004382
v 0 -0.15709927446952621 0.22352424419284075
v 1.7347234759768071e-18 -0.035018027466948931 0.32888603518966564
v 2.1684043449710363e-19 0.16494248449468049 0.1985859643567614
v -2.7105054312137654e-19 -0.052336890270622272 0.32525502337850087
v 4.3368086899420177e-19 -0.072966721729553041 0.16699175224188162
v 8.6736173798840355e-19 0.023548338749425669 -0.31190141710037178
v -4.3368086899420177e-19 0.039169236893021799 -0.31195279194655912
v -2.6020852139652106e-18 -0.25511808545527104 -0.26330089277074603
v -4.3368086899420177e-19 -0.25936341005876251 -0.2781285871478264
v 8.6736173798840355e-19 -0.24706102526355522 0.17620563168169101
v 2.1684043449706718e-19 0.11626110670306722 0.28704204757844654
v -2.1684043449710262e-19 0.21960547238566816 0.18843313526058558
v 4.3368086899420177e-19 -0.23446964195795589 0.18480466397873629
v 1.7347234759768071e-18 -0.10732799018169543 -0.31179079037417023
v 0 0.080083003764513855 0.31245725826545856
v 4.8789097761847854e-19 0.25490336742791109 0.1655761800580757
v -1.0842021724855044e-18 -0.050005572656097223 -0.31187702193101263
v -1.0842021724854946e-19 -0.020351016338608488 0.167565789850776
v -1.0842021724855025e-19 0.20188897316323354 -0.33179648946607099
v 8.6736173798840355e-19 0.18626365835872721 -0.32400079998582665
v 4.3368086899420187e-19 0.15097435029807948 -0.31186033609548058
v -2.1684043449710089e-19 -0.010850524204268769 0.11935031334174376
v -1.5178830414797104e-18 -0.069782435658904435 -0.26388336159085379
v -8.6736173798840355e-19 0.15680851560118847 0.11926031244472864
v 5.4210108624275376e-19 -0.088870300342483236 -0.26398456956634042
v 0 0.096091698318324106 -0.26373764618747692
v -1.3010426069826055e-18 0.12190669510569369 0.11932693588594084
v 8.6736173798840355e-19 0.11698707246058875 -0.31186432043263096
v -8.6736173798840355e-19 0.17235184856848965 0.11927110240637127
v -4.3368086899420177e-19 0.18851797926368072 0.11935552784570719
v 8.6736173798840355e-19 -0.055337994069733429 0.21444105384442941
v 2.1684043449710089e-19 -0.044719237814625543 0.22434921651700468
v -8.1315162936412871e-19 -0.23926490496326325 -0.2638519199018215
v -3.5236570605779019e-19 0.22295862927195675 -0.26393265127692156
v 5.4210108624275164e-19 0.01148714502237776 0.23960306092444156
v 1.626303258728241e-19 -0.010930980700938847 0.23945719457189418
v -1.3010426069826055e-18 -0.15168315773929048 -0.26388680972061662
v 6.5052130349130439e-19 0.1028531089773832 0.11953143449820515
v 0 -0.13018729962909897 0.11938234901380976
v -8.6736173798840355e-19 0.18008850170245505 -0.26367407817712618
v -1.3010426069826055e-18 0.11425780922621755 -0.26374916975741625
v 8.6736173798840355e-19 0.19594912634859901 -0.26362470481309408
v -1.0842021724855165e-19 0.13625299806546537 -0.2638484719037546
v 3.7947076036992665e-19 -0.14626322500509403 0.11957079648408103
v 3.2526065174564998e-19 -0.18343941492197571 0.11945108512256289
v 0 -0.20658696648244318 0.11932445601600838
v -8.6736173798840355e-19 0.25519285108070661 0.11868546454364393
v 8.6736173798840355e-19 -0.25519298579390842 0.11872428459781781
v 2.1684043449710089e-19 0.031294143822450875 0.23370428357797943
v -8.6736173798840355e-19 -0.029918433256431315 0.2350594190156205
v 2.1684043449710089e-19 -0.10879378233403784 0.29297696234816645
v 0 0.043302224856619768 0.22647956636810535
v -4.3368086899420148e-19 -0.041141711663749927 0.16741711765004455
v 4.3368086899420177e-19 0.071624543548833339 0.17179984764364106
v 0 -0.056939313945745529 0.16728449412810714
v -2.981555974335128e-19 0.17271457285967867 -0.3124240378694258
v 1.0842021724855044e-18 0.049476778264269786 0.16740984442401463
v 7.5894152073985147e-19 0.066762855953577366 0.1938993716263443
v -1.0842021724855012e-19 -0.25998494834487146 0.13693568725226407
v 2.710505431213762e-19 0.01398795651266339 0.11948466295107152
v 0 -0.17123585631623828 0.16731784699719821
v -8.6736173798840355e-19 0.17095474212272749 0.16730737032294246
v -4.3368086899420177e-19 0.072773027720249253 0.16706250219282748
v -1.7347234759768071e-18 -0.25998773559105287 -0.29689373439542344
v 4.3368086899420177e-19 -0.17166967622531454 -0.26386049550151836
v 4.3368086899419888e-19 -0.22129650390394839 0.11945564451316575
v 1.7347234759768071e-18 0.0064188718695318541 0.16740244766405887
v -2.4394548880923917e-19 -0.048089354904898123 -0.26401762363601139
v 1.7347234759768071e-18 0.0080644074333156394 0.3335506713490668
v -2.4394548880923551e-19 -0.08504651101678791 -0.31192026414138363
v 0 -0.093406705379183233 0.30475251631098821
v 4.3368086899420197e-19 -0.033420199868665353 -0.31189523494665117
v 5.4210108624275246e-20 -0.051479999405425123 0.11951720756770057
v 2.1684043449710156e-19 -0.23589517201102878 0.11938881120189471
v 5.4210108624275222e-20 -0.063760140887975145 0.20006827583234896
v 1.0842021724855044e-18 -0.25649486111906072 0.16212119957552354
v 2.6020852139652106e-18 -0.22164993021335899 -0.263799224824943
v 2.6020852139652106e-18 -0.070387203706689272 0.18484142839293408
v -1.3010426069826053e-18 0.25997383795434426 -0.2914205504482954
v 4.3368086899420534e-19 -0.15674424485369112 -0.3120105396996895
v -3.2526065174564998e-19 0.16794861330870398 0.18294666733985193
v -6.0986372202309682e-19 0.23889975236464273 -0.26355657234510954
v 0.024489749999999998 -0.16046802657905956 0.16584289924929957
v 4.8789097761847719e-19 -0.12757687897770165 0.27332038420096894
v -2.1684043449710089e-19 0.19947333963184036 0.11944611392285359
v 0.0069061499999999998 0.25524332554035334 0.11860383227182196
v -1.0842021724855044e-18 0.25740735670583648 -0.27730052193079646
v 1.0842021724855044e-19 0.039056778070358962 0.16743861548476963
v -5.9631119486702725e-19 -0.13840495238442108 0.25991673826622902
v -9.7578195523695399e-19 -0.013701471737074283 0.3328754825008961
v 7.5894152073985339e-19 -0.028101914992449982 0.33051353756821411
v 7.318364664277153e-19 -0.043677458868785587 0.32707052928408331
v 2.1684043449710089e-19 0.031358787821223727 -0.3119271045234655
v -1.5178830414797062e-18 -0.25724074775701677 -0.27071473995928619
v 2.0328790734103882e-19 -0.22456391674725101 0.18729120628227094
v 8.1315162936412508e-20 -0.15330937567451719 0.23277988674523234
v 2.4394548880923845e-19 0.24217959097313585 -0.32260986562957517
v 3.7947076036992665e-19 0.19407631576098039 -0.32789864472594882
v -4.3368086899420197e-19 0.058058717788421893 0.11928912077232366
v 5.4210108624275222e-19 -0.050028615942179472 0.21939513518071704
v 8.9446679230054097e-19 -0.23045741758831112 -0.26382557236338222
v 2.1684043449710175e-19 0.093805659498808092 0.11943573392136766
v -6.5052130349130266e-19 0.18043491391608518 0.11931331512603924
v -2.439454888092385e-19 -0.15527909176339832 0.11946578208682863
v 0.013045299999999999 0.25477603772866436 -0.26242709670664877
v 2.4394548880923927e-19 0.25755858240620683 0.15901110707175087
v -4.3368086899420177e-19 0.2577409755403533 0.12721618227182196
v 4.6078592330633938e-19 -0.059549067478854273 0.20725466483838917
v 3.7947076036992674e-19 -0.25758896706938994 0.12782998592504094
v 5.9631119486702667e-19 0.069193699751205345 0.18284960963499264
v -2.7105054312137543e-19 -0.030746364001179208 0.1674914537504103
v -3.5236570605778971e-19 -0.020424706978685078 0.2372583067937574
v 2.846030702774454e-19 0.17948911560920294 -0.31821241892762619
v 1.0842021724854813e-19 -0.16877504844672822 0.1794336755988182
v 0.0081632499999999986 -0.16764657973717872 0.16682619774789864
v 0.0014379999999999998 0.072456963860124624 0.16711125109641373
v 3.2526065174565133e-19 0.061124902992259519 0.16723617330842105
v -3.2526065174565046e-19 0.11237990204153843 0.11942918519207299
v -4.3368086899420177e-19 -0.16167641698230251 -0.26387365261106749
v -8.6736173798840355e-19 -0.25694511779552642 -0.30458976719771169
v 6.7762635780344533e-20 0.16184446157887908 -0.31214218698245322
v 1.0842021724855044e-19 -0.10110024385661054 0.29886473932957736
v 1.6263032587282499e-19 -0.19501319070220946 0.11938777056928564
v 0.006419300000000001 -0.25517119289695422 0.1187275422989089
v 5.421010862427526e-19 -0.2455440789024686 0.11905654789985626
v 0.00720785 -0.073831510864776517 0.16684617612094083
v 1.5178830414797062e-18 -0.071676962718121157 0.17591659031740786
v 1.3281476612947429e-18 -0.067073672297332215 0.19245485211264152
v -1.7618285302889423e-19 -0.17727887673987869 0.17304776213950696
v -1.0842021724855044e-19 0.07681003317722665 0.11928934206204268
v 0 0.26025144869225125 0.14409646704271306
v -2.7105054312137678e-19 -0.17386718672183915 0.11940592640606956
v -1.192622389734062e-18 0.13326884084760782 0.26670382708638385
v 5.1499603193061932e-19 -0.19733119112958081 -0.32898708555325029
v 2.1684043449710098e-19 -0.02242696734354057 -0.31183592915476682
v -5.6920614055489012e-19 -0.14596242011051674 0.24816578109801685
v 1.3552527156068574e-19 -0.16425578517080694 0.20090581500852112
v 2.7105054312137611e-20 -0.15964830211696096 0.21689318500472238
v -5.9631119486702676e-19 0.16945167771571573 0.1751270188313972
v 3.2526065174565138e-19 0.014619768535990684 -0.31194861874319696
v 4.2012834183813966e-19 -0.20640046171237464 0.18843091936816997
v -1.2739375526704689e-18 0.14351512320094625 0.25101048086920758
v 1.2518544638517033e-33 0.22677446302407117 -0.33140019736817344
v -4.3368086899420071e-19 0.24350999661311282 0.11900945406314967
v -2.1684043449710089e-19 0.10945394546766962 -0.31187417829801456
v -7.0473141211557788e-19 -0.14026654427344323 -0.26392422727998138
v 0 0.18801881402552706 -0.26364939149511013
v 2.1684043449709944e-19 -0.21394173519319579 0.11939005026458707
v 2.5749801596530668e-19 0.20945387781027788 -0.26377867804500782
v 0.0071334499999999978 -0.25511866772763553 -0.26312852138537302
v 8.6736173798840355e-19 0.12457965173481866 -0.3118622600801062
v -1.0842021724855044e-18 -0.25967557282490772 -0.28751116077162492
v 3.7947076036992626e-19 0.021390644422414319 0.23665367225121053
v -3.2526065174565138e-19 -0.037318835535528422 0.22970431776631259
v 5.4210108624275222e-19 -0.11477149943106218 0.28704014355802804
v -2.3351900575695549e-33 0.048754431287988814 0.22046344203990376
v 1.0842021724855044e-19 0.037298184339535322 0.23009192497304237
v 2.1684043449710089e-19 -0.064953017837649285 0.16713812318499438
v 8.1315162936412881e-19 -0.0069660722345383196 0.16748411875741745
v 3.5236570605778793e-19 0.00027808216071945665 0.2395301277481679
v 6.5052130349130266e-19 0.14157329065356403 -0.31186026791153099
v 1.0164395367056708e-20 -0.18081217075249198 -0.31792785282065922
v -2.9815559743351459e-19 0.17788454796587072 0.17343253655020041
v -1.7076184216646697e-18 -0.24719149520926714 -0.26357640633628376
v 0 0.00092363323855905151 0.33358029820204815
v -1.0842021724855095e-19 -0.083527710155282375 0.31035256298821057
v -3.2526065174565123e-19 -0.041712886262381288 -0.3118861284388319
v 1.5720931501039764e-18 -0.21264982758485951 -0.2639029157239039
v 0 0.072198785634541296 0.16943117491823428
v 2.0667603913005078e-19 -0.16573713505642884 -0.31100977067671792
v -5.4210108624273175e-20 0.16644554890169222 0.19076631584830667
v -7.3861273000575018e-19 0.24687031391098571 -0.26336853287920353
v -4.8111471404044356e-19 0.23092919081829974 -0.26374461181101555
v 0.006485925 0.16838885659204561 0.16699877774220684
v -6.5052130349130266e-19 0.25646691331052995 0.12295082340773295
v -5.4210108624275222e-20 0.066948965356254386 0.16714933775062427
v 7.0473141211557807e-19 -0.25036853234818851 0.11889041624883703
v 3.2526065174565133e-19 -0.068959869783601163 0.167064937713438
v -2.1684043449710089e-19 0.072485906677395268 0.16824683855553088
v 5.4210108624274066e-20 -0.17000545238148324 0.17337576129800819
v -0.046107999999999996 -0.13297200000000001 0.16387590000000002
v -0.033312700000000001 -0.086945800000000004 0.16516600000000001
v -0.044290200000000002 -0.10232330000000001 0.16408130000000001
v -0.0144157 -0.074696299999999993 0.1667006
v -0.038801450000000001 -0.094634550000000012 0.16462365000000001
v -0.023864200000000002 -0.080821050000000005 0.16593330000000001
v -0.00720785 -0.073831510864776517 0.16684617612094083
v -0.12425700000000001 0.25430380000000002 -0.2178195
v -0.1115572 0.25446449999999998 -0.227717
v -0.164829 0.25498900000000002 0.024946699999999999
v -0.0138123 0.25529380000000002 0.11852219999999999
v -0.1905626 0.25510840000000001 -0.089721300000000004
v -0.17241699999999999 0.2550405 0.010496500000000001
v -0.1442589 0.255689 0.053168800000000002
v -0.1906138 0.25507049999999998 -0.0554411
v -0.15624215 0.25444635000000004 -0.18237010000000001
v -0.18428149999999999 0.25516830000000001 -0.021502199999999999
v -0.18840129999999999 0.25505070000000002 -0.039274900000000001
v -0.026090599999999999 0.25471120000000003 -0.26167370000000001
v -0.043401099999999998 0.25439319999999999 -0.25867099999999998
v -0.082863900000000004 0.25476900000000002 -0.24464369999999999
v -0.1264864 0.25556499999999999 0.071286500000000003
v -0.1863987 0.25475959999999997 -0.11506329999999999
v -0.0566264 0.25538470000000002 0.1104603
v -0.065132999999999996 0.25454389999999999 -0.25221369999999999
v -0.1087081 0.25509850000000001 0.085318500000000005
v -0.098000199999999996 0.25469370000000002 -0.23654749999999999
v -0.1804327 0.25460080000000002 -0.13572809999999999
v -0.0338445 0.25528820000000002 0.1161864
v -0.1374705 0.25432919999999998 -0.20522099999999999
v -0.15597349999999999 0.25520749999999998 0.038646399999999997
v -0.19138450000000001 0.25513550000000002 -0.071487700000000001
v -0.074666399999999994 0.25523439999999997 0.10392709999999999
v -0.094742800000000002 0.25512499999999999 0.093977500000000005
v -0.1726974 0.25468669999999999 -0.15468370000000001
v -0.16446977499999998 0.25456652499999999 -0.16852690000000001
v -0.17872299999999999 0.25510549999999999 -0.0042594
v -0.1603559625 0.25450643750000002 -0.17544850000000001
v -0.0069061499999999998 0.25524332554035334 0.11860383227182196
v -0.084704599999999991 0.25517970000000001 0.098952299999999993
v -0.11759725 0.25533174999999997 0.078302499999999997
v -0.18150224999999998 0.2551369 -0.0128808
v -0.0238284 0.25529100000000005 0.11735429999999999
v -0.013045299999999999 0.25477603772866436 -0.26242709670664877
v -0.17656505 0.25464375 -0.1452059
v -0.10172545 0.25511174999999997 0.089648000000000005
v -0.17557 0.25507299999999999 0.0031185500000000003
v -0.168623 0.25501475000000001 0.017721600000000001
v -0.045235449999999996 0.25533645000000005 0.11332334999999999
v -0.18634139999999999 0.25510949999999999 -0.03038855
v -0.16858358749999999 0.25462661249999996 -0.16160530000000001
v -0.065646399999999994 0.25530955 0.1071937
v -0.023588600000000001 0.078131300000000001 0.16626460000000001
v -0.040284899999999998 0.093877100000000005 0.1645875
v -0.0028760000000000001 0.072140899999999994 0.16716
v -0.037633100000000003 0.15198900000000001 0.164801
v -0.045532599999999999 0.13481499999999999 0.163996
v -0.0477934 0.1116535 0.16376560000000001
v -0.0259437 0.16069120000000001 0.166073
v -0.01297185 0.16582297106136373 0.16669018516147122
v -0.013232300000000001 0.075136099999999997 0.16671230000000001
v -0.0014379999999999998 0.072456963860124624 0.16711125109641373
v -0.006485925 0.16838885659204561 0.16699877774220684
v -0.019457775 0.16325708553068186 0.16638159258073559
v -0.042159700000000001 -0.25487650000000001 -0.25894349999999999
v -0.081114699999999998 -0.25560149999999998 0.1010148
v -0.18039959999999999 -0.25467319999999999 -0.0088199000000000003
v -0.15872449999999999 -0.25465840000000001 0.034632999999999997
v -0.14526800000000001 -0.25536569999999997 0.052296200000000001
v -0.19116949999999999 -0.25479600000000002 -0.076116699999999995
v -0.1717969 -0.25473069999999998 -0.1563881
v -0.16093479999999999 -0.25454349999999998 -0.17602880000000001
v -0.1324166 -0.2559842 0.065775200000000006
v -0.19020590000000001 -0.25471830000000001 -0.051582799999999998
v -0.087643200000000004 -0.25465749999999998 -0.24227090000000001
v -0.056882500000000003 -0.25531510000000002 0.1105071
v -0.18366615 -0.25435825000000001 -0.1260049
v -0.1858397 -0.25470169999999998 -0.026969099999999999
v -0.066911899999999996 -0.25467390000000001 -0.25134380000000001
v -0.1060281 -0.25453999999999999 -0.23147470000000001
v -0.1316417 -0.25427689999999997 -0.2111633
v -0.014266899999999999 -0.25511925000000002 -0.26295615
v -0.0128386 -0.25514940000000003 0.1187308
v -0.1132803 -0.25630550000000002 0.081927100000000003
v -0.17081874999999999 -0.25463389999999997 0.01340705
v -0.14575450000000001 -0.25436500000000001 -0.1961685
v -0.098082799999999998 -0.2560885 0.092063199999999998
v -0.037076699999999997 -0.25528089999999998 0.1154509
v -0.18978929999999999 -0.2546234 -0.096490300000000001
v -0.1192641 -0.25436740000000002 -0.2218474
v -0.177731525 -0.25454447499999999 -0.1411965
v -0.046979599999999996 -0.25529800000000002 0.112979
v -0.18069883749999999 -0.2544513625 -0.13360070000000002
v -0.17476421250000002 -0.25463758749999998 -0.14879229999999999
v -0.096835649999999995 -0.25459874999999998 -0.23687279999999999
v -0.1126461 -0.2544537 -0.22666105
v -0.024957649999999998 -0.25521515 0.11709085
v -0.16636584999999998 -0.25463709999999995 -0.16620845000000001
v -0.07727755 -0.25466569999999999 -0.24680735000000001
v -0.006419300000000001 -0.25517119289695422 0.1187275422989089
v -0.0071334499999999978 -0.25511866772763553 -0.26312852138537302
v -0.0282133 -0.25499787500000004 -0.26094982499999997
v -0.054535799999999995 -0.25477519999999998 -0.25514365
v -0.016326499999999997 -0.16405730315811914 0.16633454849859911
v -0.024489749999999998 -0.16046802657905956 0.16584289924929957
v -0.0081632499999999986 -0.16764657973717872 0.16682619774789864
v -2.1684043449710038e-19 -0.021185802517951036 0.33214103994676247
v 3.5236570605778793e-19 0.00027808216071945665 0.2395301277481679
v -0.028715544874834652 -0.0045205436687255698 0.25245326234678722
v -0.044602139700704278 -0.012523916298322536 0.2883221098142722
v -0.03701897051851627 -0.0068003883654377383 0.26192806621061238
v -0.033273903955174239 -0.017752322689899368 0.31381294577921792
v -0.040964355231644212 -0.015371086703229606 0.30216029665997435
v -0.042755639852131253 -0.0095424350040824706 0.27424655281585275
v -0.019179318178059256 -0.0025664932817248826 0.24614480496976454
v -0.0095869917291775061 -0.0010817604454058459 0.24195728163283187
v -0.011791549506775894 -0.020611998185909416 0.32839023201782402
v -0.023048277767398727 -0.019505000210042478 0.32240664396390062
v 2.1684043449706718e-19 0.11626110670306722 0.28704204757844654
v 0 0.043302224856619768 0.22647956636810535
v -0.03379499919375506 0.056789861151153836 0.23785056130019533
v -0.032454550180810268 0.10180056837939656 0.27864218158719622
v -0.042125736389663312 0.065964707488091176 0.24656108427278281
v -0.045668653954325664 0.077591438137479235 0.25755230126818029
v -0.0174229590724659 0.11050124353986437 0.284630292770508
v -0.042371673559219447 0.090253730192544276 0.26898211595692401
v -0.023145686536695399 0.050259219414237291 0.23180409686115883
v -0.011761195707531896 0.045841522399584347 0.22808787489414883
v -0.19126345216470991 0.088676842950477591 -0.071223318062562352
v -0.19098890534475499 -0.11593178032926382 -0.08371774831733958
v -0.23920247614348064 -0.067990025611436425 -0.082206291581484445
v -0.19118131041360739 -0.073712800371378395 -0.083003148821489819
v -0.19075349973397124 -0.13658958061439219 -0.084247644312091197
v -0.24030975575856786 -0.16309853533023239 -0.082994633246288418
v -0.1908845269584839 0.1643140002938418 -0.066146668047436241
v -0.22649436500498404 0.25741043714022638 -0.069046409740335504
v -0.23921766495936683 -0.049101497167128055 -0.081955364687343671
v -0.25393797288562714 0.23562906323894039 -0.068886976720277313
v -0.25644074894059432 0.19981924148613833 -0.070780466989776469
v -0.24080881612613003 0.16588061647560159 -0.0727512630329685
v -0.24241805873434996 0.24937023858060869 -0.068583571419070663
v -0.23935396700724476 -0.14489256816160867 -0.082636982714203958
v -0.2574439144426981 -0.21063108002514147 -0.085740397904802576
v -0.19114714503125127 0.0092443989808563103 -0.079281285198113199
v -0.25878412297326769 0.21816771399036261 -0.069744767151402987
v -0.25511363598738246 -0.22695069293434098 -0.086767792400921584
v -0.19073668407026284 -0.1765863979631595 -0.086426107782658995
v -0.19031091509684653 -0.21560614283129539 -0.090605980713875406
v -0.19065656478602536 0.21876176799346597 -0.068072289478931625
v -0.19116972872253718 0.10809172450028356 -0.069303124554084466
v -0.23647153478245481 -0.25247581951514575 -0.089659518908394104
v -0.1898124138928548 -0.23509559938300539 -0.093395507625259513
v -0.23916188119099996 -0.12601537841616645 -0.082446159126940893
v -0.23909488751106842 0.0042077880238956889 -0.079981222055158174
v -0.23952942711003147 0.14692871158877535 -0.073396276735656768
v -0.19116552207127366 -0.011063743104003841 -0.080715919506435488
v -0.19118459646986988 -0.031668525371172249 -0.081786741327096069
v -0.1912137346928377 0.02931901071259807 -0.077514683994625605
v -0.25413277419374902 -0.19453327378039037 -0.084483483976664248
v -0.24848306840460915 0.18246221417105538 -0.071885856916535595
v -0.19063809056316311 0.18251302553301163 -0.066227138877506628
v -0.24697571207267854 -0.17927799951599371 -0.083591200489392947
v -0.19067628452439245 0.20063197071054395 -0.066896043752135814
v -0.19129500576653155 0.049234376830791085 -0.075493746148969185
v -0.19057036890061446 -0.19613656108721672 -0.088248381850587379
v -0.19101935557226773 0.2369311438493375 -0.069672289633863932
v -0.19074510589814492 -0.15678967256222379 -0.085118815033218026
v -0.23922431055547619 -0.087274431245331296 -0.082314718214796301
v -0.20527381168057207 -0.25834455501518266 -0.093868954034558472
v -0.23941810118890688 0.1070748823340868 -0.074604428285398483
v -0.23948329928908696 0.12729229016953808 -0.073970277968697262
v -0.19138450000000001 0.25513550000000002 -0.071487700000000001
v -0.18978929999999999 -0.2546234 -0.096490300000000001
v -0.23904387297768137 0.043189954430749702 -0.077687175857211799
v -0.19115051343727893 -0.094905817603983797 -0.083354794704955035
v -0.23923392081778877 0.064976075260023747 -0.076455629079459395
v -0.23913491792900424 -0.030762785923810512 -0.081498416395589635
v -0.20876236462292222 0.25889287439253456 -0.070101242453074086
v -0.19105375854853612 0.12718144319653729 -0.067741302316032093
v -0.19126996200196392 0.069029419887291471 -0.073343685181950793
v -0.19094921638245094 0.14590690144684285 -0.066662167581460416
v -0.23937176239664898 0.08629585467222084 -0.07541673269137314
v -0.23910218856257642 -0.013017494229369483 -0.080828349919119108
v -0.23906238166714056 0.021092387496536108 -0.079009289664972213
v -0.24829921484622675 -0.24142131929039473 -0.088076086198240422
v -0.23926415643601778 -0.10671332413779647 -0.0823674019502178
v -0.19119343133690656 -0.052577470519558217 -0.082521913116503004
v -0.22131107830654637 -0.25810447801826819 -0.091563492857958728
v 8.6736173798840355e-19 -0.12074921652808651 0.28110332476788963
v 5.4210108624275222e-19 -0.050028615942179472 0.21939513518071704
v -0.045037664538757689 -0.082694539881574047 0.24515069789848737
v -0.044254282296480235 -0.093151722500866035 0.25462147766173182
v -0.034021801922448143 -0.063494978412462516 0.22870903343038901
v -0.021554693053807927 -0.11531837679866822 0.27549223592684613
v -0.031550414891601763 -0.11013523234080885 0.27047496574340141
v -0.04143726092915298 -0.072425394998868908 0.23613472968417892
v -0.03962612508708125 -0.102630045650555 0.26343534509629818
v -0.01089795330942285 -0.11868232576671894 0.27889304092142309
v -0.023501217715208803 -0.057292529934776119 0.22360855891691744
v -0.012035423210147568 -0.052735876463873302 0.22054649514719948
v 2.1684043449710089e-19 0.031358787821223727 -0.3119271045234655
v 8.1315162936412881e-19 -0.0069660722345383196 0.16748411875741745
v -0.21181202219844264 0.027792486763808341 -0.18405611912521891
v -0.23136285274445628 0.023888271753163777 -0.13386233921502633
v -0.23710827513283234 0.018838699683863216 -0.039618982531325994
v -0.23357232622860513 0.017361343488536407 -0.019867243600594775
v -0.16362610258977928 0.0010082151195070824 0.10264528237728904
v -0.11662642690797548 -0.0053267948317137458 0.13697922236564575
v -0.13282480767574839 -0.0035889515310994968 0.12705827114010546
v -0.10023319791435614 -0.0065987549269885442 0.14535272318983006
v -0.21952340094717265 0.026370041555359994 -0.16798569995452484
v -0.22817939500983911 0.015608352072297152 -0.00028770423584390686
v -0.038166146428662243 -0.007907921280825278 0.16401658323605262
v -0.19081516243876107 0.0062568215733876439 0.072590002361151651
v -0.20247976162375675 0.0088593947039365926 0.055677741970991707
v -0.057648967036820431 0.032877947974111449 -0.30445210093664909
v -0.22099909104199475 0.013585474663617489 0.018907488908395022
v -0.19304647007220871 0.030641251332173963 -0.21412417924216176
v -0.1412109937884885 0.03417732987435261 -0.26565672573468324
v -0.083915280638955175 -0.0074160606270920471 0.15219394035795381
v -0.091646149215875744 0.033859910411726951 -0.29357950242184694
v -0.041777181773671006 0.032404550333931192 -0.30773890933823089
v -0.16962881714716621 0.03292466815514556 -0.24109999234618068
v -0.074416645166244424 0.033386739877344751 -0.29979548288574931
v -0.20297153339438356 0.029244031127129824 -0.19943195649241713
v -0.17778239809920671 0.0036091869960823081 0.088279370924835232
v -0.18187856437529479 0.031895493131346278 -0.2279947845769239
v -0.156013445362578 0.033704982106831982 -0.25391812708615968
v -0.21257106406144377 0.011323542767695089 0.037702651097730119
v -0.22602597363242619 0.025052393626141561 -0.15122561929303019
v -0.067938433719741412 -0.0078481989897023017 0.15748859153021466
v -0.23795018211622881 0.021979148953503561 -0.097608245174562541
v -0.12539315688827563 0.034336672474339081 -0.27628398082619909
v -0.23536513743169282 0.022880417145259589 -0.11594768957845188
v -0.1485837005797021 -0.0014383836269379027 0.11561598179869464
v -0.052607556840392811 -0.0079856497829747762 0.16136269186335792
v -0.10879154809673483 0.034207654373049373 -0.28569978268027385
v -0.23906238166714056 0.021092387496536108 -0.079009289664972213
v -0.2389380369461252 0.020063886842300808 -0.0593570134678683
v -0.024707854999957202 -0.0076792949874472799 0.16571784513136709
v -0.013212788156400937 0.031658867309320091 -0.31124596862993653
v -0.026999360364231544 0.031996106031590331 -0.30989147147115786
v -0.012105880073188186 -0.0073474351451663349 0.16679043386908809
v -0.18169775652534853 0.20407803730192675 -0.2534165351549959
v -0.18617366203490998 -0.22206398339104738 -0.24894744808189773
v -0.16878236744633532 0.13468943321040611 -0.24196795579410216
v -0.16894382831827098 0.1155286250170917 -0.24193804029703156
v -0.16971674283446953 -0.031430475695924866 -0.24122917518902853
v -0.16918146639971648 0.095593792059671528 -0.24178893424257492
v -0.1728112773527665 -0.16992738523606679 -0.24133184430340698
v -0.17182660540305689 -0.25513675449429651 -0.22873436508518441
v -0.1694818396696266 0.054169241832637299 -0.2412069486354417
v -0.13350338528923616 0.16365624651715943 -0.20923088763157216
v -0.12962268427981849 -0.081256052511907012 -0.21274613730619885
v -0.12758500216988305 0.037134713967014524 -0.21472317987550277
v -0.17071605118087596 -0.15110395033350515 -0.24018281311653256
v -0.157939147547558 0.25819979823076056 -0.22760791765687782
v -0.12707642656115964 0.016593853612162198 -0.21496799979859027
v -0.12714972955391626 -0.022809916257379999 -0.21514525333622539
v -0.12983355926611445 0.10134560081867927 -0.21238654904099283
v -0.16976989479727239 0.011403421774159792 -0.24117112855118544
v -0.14733099063898286 0.25860943135644082 -0.21611809836285345
v -0.17006653646969705 -0.11247531265680977 -0.2407904673507249
v -0.12696100979670485 -0.0033342873072003589 -0.21517269553419566
v -0.17721118732872099 0.2408302691510294 -0.24800717565622987
v -0.16839699979205033 0.25241505086202259 -0.23870656578227395
v -0.16937094039974437 0.075088403616027283 -0.2415071779459754
v -0.16962881714716621 0.03292466815514556 -0.24109999234618068
v -0.16893573042741264 0.15288707738527252 -0.24209299313860899
v -0.18531761563386795 -0.20374439123287297 -0.25030168814526532
v -0.17941949191134191 -0.18666483188377278 -0.24640895127510071
v -0.18203884222693767 -0.24187213680658048 -0.24199836456974566
v -0.13552757470201909 0.20179878767122794 -0.20712875424211075
v -0.13634880661649695 0.21979552668103455 -0.2063777185513106
v -0.1346210599377807 0.18309900189948469 -0.20814053278771705
v -0.13117419733491045 -0.10118547515030007 -0.21138682344465354
v -0.14007136162652734 -0.198013218849006 -0.20258158712770424
v -0.13440901155863647 -0.14084811669757938 -0.2078583722430204
v -0.13819829123707195 -0.1792100965844835 -0.20444506711061133
v -0.12894198912825305 0.079768916506944065 -0.21338638075203287
v -0.13688696544378354 0.23722371700049499 -0.20567678293931271
v -0.12763661666601514 -0.042120317343645894 -0.21474729853490032
v -0.16993020745115867 -0.092797486520012462 -0.24104248195822287
v -0.16982217470103966 -0.07278159778122803 -0.24119360122106676
v -0.17025901812395877 -0.13190013033653958 -0.24044972090536643
v -0.14366445115831281 -0.23554145949607008 -0.19824678210941024
v -0.13625968521172116 -0.16020079782481161 -0.20613145721551557
v -0.16975698275906398 -0.052336993127419469 -0.24125826244499776
v -0.14575450000000001 -0.25436500000000001 -0.1961685
v -0.17636106877598912 0.18444952117875596 -0.24874620609917811
v -0.1374705 0.25432919999999998 -0.20522099999999999
v -0.15863813413736638 -0.25876223252176034 -0.21243822005745552
v -0.17151703156700043 0.16967689045437273 -0.24438620385939808
v -0.141879779298583 -0.21676092786383949 -0.20050233721015337
v -0.1284059927442559 -0.061551173666817643 -0.21387491844429901
v -0.16979524244027536 -0.010127929184296509 -0.24124504466003471
v -0.12824336237229272 0.058261635123628711 -0.21423164859314706
v -0.1327958671722686 -0.12113031826230039 -0.20972089526378368
v -0.18207924451368351 0.22381469032498294 -0.25329547767554084
v -0.13216322914349701 0.14349061029550314 -0.21024512401910045
v -0.13106996399382009 0.12266985012455199 -0.21148129636909252
v -8.6736173798840355e-19 0.19896000714477088 0.18746468929623983
v -1.0842021724855025e-19 0.20188897316323354 -0.33179648946607099
v -0.11538051400382537 0.18670119423740761 -0.29542317744128122
v -0.2020872147320131 0.18349821188335319 -0.21715764608469601
v -0.17191083837103749 0.18808430334319651 0.11080928657910469
v -0.12679455827552366 0.19425263210693072 0.14842439614282801
v -0.14275609941085152 0.19215696478089067 0.13763534491500989
v -0.24403487600287763 0.18221378470448046 -0.11799352024315318
v -0.092975478019550598 0.19708651734714064 0.16600545921289778
v -0.056775845170492979 0.19804892008536418 0.17831906791822549
v -0.075157031214335479 0.19772061742224956 0.17290058370307593
v -0.23202930089813154 0.18218548293237458 -0.16106148777995413
v -0.22358664961440572 0.18235692332862324 -0.18105521264150909
v -0.16274723412463599 0.1847341940876836 -0.26198011959608458
v -0.14789122349571582 0.185151096896217 -0.2740432685876798
v -0.15775171606236649 0.19008077946151106 0.12498916897390863
v -0.24262189394370431 0.1824190160654782 -0.023525225332730888
v -0.23898988645007879 0.18210358561470444 -0.14002356039955777
v -0.13202434490469106 0.1857801571481989 -0.28516267135965995
v -0.21885260486483377 0.18252800586918466 0.044567232970082402
v -0.080535213375778403 0.19028784352848516 -0.31204440118041799
v -0.24763712995555287 0.18261076867024523 -0.055952431810215475
v -0.038013423727290448 0.19829193639402762 0.18235651342562631
v -0.19789859384505981 0.18464490383634904 0.079180508174514969
v -0.21353330075284832 0.18281389370132561 -0.1997692393297163
v -0.1898981263271193 0.18394046263556763 -0.23362921233343889
v -0.046212439841823105 0.19560040734390738 -0.32234659505449881
v -0.030188336777896417 0.19797193437829258 -0.32610263886296531
v -0.24848306840460915 0.18246221417105538 -0.071885856916535595
v -0.06308661311655489 0.19291882244556505 -0.31788928742730799
v -0.20937020708357773 0.18330924321809597 0.062215247345984312
v -0.17636106877598912 0.18444952117875596 -0.24874620609917811
v -0.24724219362258432 0.18231631443869173 -0.095204980490105409
v -0.18569082472287107 0.18601584664737608 0.095787135966129283
v -0.23885909298878527 0.18209274441580198 -0.0069240866322491023
v -0.098130868585576084 0.18812760365099723 -0.3045486663566343
v -0.11026587262795426 0.19588660407430911 0.15799160239555399
v -0.22726583730957992 0.18188906907085123 0.027210047389187069
v -0.24555730897921529 0.18260348083468159 -0.039845979372215221
v -0.019026944906736322 0.19863469438429068 0.18511829867038931
v -0.23382544995978261 0.18179564952292743 0.0099848682868042236
v -0.014884588846656948 0.200044569294557 -0.32914541931430291
v 3.9979955110404002e-19 -0.22440267049919735 -0.3328290477874043
v 8.6736173798840355e-19 -0.24706102526355522 0.17620563168169101
v -0.07362324747872237 -0.22126197471327225 -0.31932398686852914
v -0.12695421218563657 -0.22211141678737906 -0.29678206904919019
v -0.18617366203490998 -0.22206398339104738 -0.24894744808189773
v -0.19742423477489504 -0.22205012962394743 -0.2367620109332107
v -0.24875635880064978 -0.22362156280559228 -0.14129984300157017
v -0.25292529636668803 -0.2301464344752224 -0.046915063698735521
v -0.24601387063753027 -0.23341457545699054 -0.0096022054660847393
v -0.17180969047369687 -0.23911871450070676 0.10948647509298251
v -0.096784983079203191 -0.24217308252812947 0.15839567103171701
v -0.040843068129459016 -0.24482388863497093 0.17187633293453933
v -0.060368959622680379 -0.24374590830931026 0.16844650680021339
v -0.18512985666955578 -0.23944976499620502 0.09738462097917655
v -0.12944661093137516 -0.24101957787477429 0.14276347220263602
v -0.19777291196783756 -0.23983822202807492 0.084680198947373581
v -0.25511363598738246 -0.22695069293434098 -0.086767792400921584
v -0.21758298919684069 -0.22202609827892544 -0.20848661540051139
v -0.14346654162888084 -0.22250337589941022 -0.28691278274466603
v -0.020565917858821059 -0.2455980666319022 0.17411479909914299
v -0.217529622167487 -0.23800449972738771 0.055224963710184517
v -0.25515343272219171 -0.22878814311752893 -0.06655140623972465
v -0.24323900239219021 -0.22299128302046431 -0.15934070605083431
v -0.14416733591989755 -0.24017102321331932 0.13248534546217655
v -0.11018036725153041 -0.22184247584204014 -0.30652410206514902
v -0.25431446804206181 -0.2257255330764863 -0.10468052456038271
v -0.092400957815046231 -0.22155711491277735 -0.31448688937153613
v -0.22702542356563371 -0.23754104897913408 0.04040294769128587
v -0.2410254961001374 -0.23503418528359288 0.0079265210812133335
v -0.22740881165346211 -0.2222117185582019 -0.19321333996510098
v -0.11357729817909033 -0.24155734985943736 0.1513052172423105
v -0.25000217828487042 -0.23183896006662513 -0.027901892368705335
v -0.036469587419615382 -0.22216485600880659 -0.32729029325366715
v -0.23575326163497581 -0.22248299013741746 -0.17661443116745187
v -0.055006661481352304 -0.22155895939497139 -0.32387692637432663
v -0.159037513703221 -0.22262422683312072 -0.27585933575972832
v -0.15843152908754643 -0.23971340993582912 0.1215318988573155
v -0.2078484369590905 -0.23874574968696149 0.070021262831505185
v -0.23516086467991285 -0.23664885176507855 0.024754735642198475
v -0.25211190930769922 -0.22447126694011837 -0.12290358322891012
v -0.17347815101445702 -0.22247582241404684 -0.26340766803610527
v -0.20782665706424222 -0.22200276697253341 -0.22319065445780206
v -0.079019097064210037 -0.24281369065114966 0.16398433204430246
v -0.018115454399070974 -0.22315467499283115 -0.32990243011110121
v -8.6736173798840355e-19 0.2548408754573287 -0.26318049341329752
v 4.3368086899420177e-19 -0.072966721729553041 0.16699175224188162
v -2.6020852139652106e-18 -0.25511808545527104 -0.26330089277074603
v -8.6736173798840355e-19 0.25519285108070661 0.11868546454364393
v 8.6736173798840355e-19 -0.25519298579390842 0.11872428459781781
v 0 -0.17123585631623828 0.16731784699719821
v -8.6736173798840355e-19 0.17095474212272749 0.16730737032294246
v -4.3368086899420177e-19 0.072773027720249253 0.16706250219282748
v -0.046107999999999996 -0.13297200000000001 0.16387590000000002
v -0.032652999999999995 -0.15687875000000001 0.16535125000000001
v -0.024489749999999998 -0.16046802657905956 0.16584289924929957
v -0.0069061499999999998 0.25524332554035334 0.11860383227182196
v -0.013045299999999999 0.25477603772866436 -0.26242709670664877
v -0.0081632499999999986 -0.16764657973717872 0.16682619774789864
v -0.0014379999999999998 0.072456963860124624 0.16711125109641373
v -0.006419300000000001 -0.25517119289695422 0.1187275422989089
v -0.00720785 -0.073831510864776517 0.16684617612094083
v -0.0071334499999999978 -0.25511866772763553 -0.26312852138537302
v -0.006485925 0.16838885659204561 0.16699877774220684
l 1/1 3/3
l 3/3 5/5
l 5/5 2/2
l 2/2 6/6
l 6/6 4/4
l 4/4 7/7
l 39/39 11/11
l 11/11 43/43
l 43/43 29/29
l 29/29 49/49
l 49/49 24/24
l 24/24 52/52
l 52/52 33/33
l 33/33 40/40
l 40/40 34/34
l 34/34 46/46
l 46/46 26/26
l 26/26 41/41
l 41/41 22/22
l 22/22 14/14
l 14/14 31/31
l 31/31 10/10
l 10/10 48/48
l 48/48 13/13
l 13/13 47/47
l 47/47 37/37
l 37/37 42/42
l 42/42 17/17
l 17/17 50/50
l 50/50 18/18
l 18/18 15/15
l 15/15 32/32
l 32/32 12/12
l 12/12 23/23
l 23/23 28/28
l 28/28 45/45
l 45/45 35/35
l 35/35 51/51
l 51/51 36/36
l 36/36 38/38
l 38/38 16/16
l 16/16 30/30
l 30/30 8/8
l 8/8 9/9
l 9/9 27/27
l 27/27 21/21
l 21/21 25/25
l 25/25 20/20
l 20/20 19/19
l 19/19 44/44
l 62/62 55/55
l 55/55 61/61
l 61/61 53/53
l 53/53 54/54
l 54/54 58/58
l 58/58 57/57
l 57/57 56/56
l 56/56 59/59
l 59/59 64/64
l 64/64 60/60
l 60/60 63/63
l 101/101 82/82
l 82/82 102/102
l 102/102 65/65
l 65/65 103/103
l 103/103 79/79
l 79/79 99/99
l 99/99 75/75
l 75/75 95/95
l 95/95 80/80
l 80/80 96/96
l 96/96 90/90
l 90/90 81/81
l 81/81 86/86
l 86/86 72/72
l 72/72 98/98
l 98/98 71/71
l 71/71 94/94
l 94/94 91/91
l 91/91 93/93
l 93/93 77/77
l 77/77 89/89
l 89/89 70/70
l 70/70 74/74
l 74/74 78/78
l 78/78 67/67
l 67/67 85/85
l 85/85 68/68
l 68/68 69/69
l 69/69 73/73
l 73/73 84/84
l 84/84 87/87
l 87/87 66/66
l 66/66 76/76
l 76/76 92/92
l 92/92 88/88
l 88/88 97/97
l 97/97 83/83
l 83/83 100/100
l 105/105 104/104
l 104/104 106/106
l 118/118 115/115
l 115/115 114/114
l 114/114 107/107
l 107/107 109/109
l 109/109 112/112
l 112/112 108/108
l 108/108 111/111
l 111/111 110/110
l 110/110 117/117
l 117/117 116/116
l 116/116 113/113
l 126/126 123/123
l 123/123 120/120
l 120/120 124/124
l 124/124 122/122
l 122/122 121/121
l 121/121 119/119
l 119/119 125/125
l 125/125 128/128
l 128/128 127/127
l 141/141 138/138
l 138/138 145/145
l 145/145 139/139
l 139/139 160/160
l 160/160 140/140
l 140/140 155/155
l 155/155 171/171
l 171/171 170/170
l 170/170 182/182
l 182/182 176/176
l 176/176 174/174
l 174/174 184/184
l 184/184 154/154
l 154/154 183/183
l 183/183 177/177
l 177/177 137/137
l 137/137 131/131
l 131/131 168/168
l 168/168 186/186
l 186/186 153/153
l 153/153 142/142
l 142/142 134/134
l 134/134 162/162
l 162/162 159/159
l 159/159 143/143
l 143/143 146/146
l 146/146 185/185
l 185/185 151/151
l 151/151 188/188
l 188/188 169/169
l 169/169 173/173
l 173/173 152/152
l 152/152 148/148
l 148/148 165/165
l 165/165 147/147
l 147/147 167/167
l 167/167 133/133
l 133/133 130/130
l 130/130 175/175
l 175/175 132/132
l 132/132 187/187
l 187/187 157/157
l 157/157 156/156
l 156/156 144/144
l 144/144 158/158
l 158/158 164/164
l 164/164 180/180
l 180/180 129/129
l 129/129 150/150
l 150/150 179/179
l 179/179 181/181
l 181/181 135/135
l 135/135 161/161
l 161/161 163/163
l 163/163 149/149
l 149/149 166/166
l 166/166 172/172
l 172/172 178/178
l 178/178 136/136
l 136/136 141/141
l 199/199 200/200
l 200/200 198/198
l 198/198 191/191
l 191/191 194/194
l 194/194 189/189
l 189/189 190/190
l 190/190 195/195
l 195/195 193/193
l 193/193 192/192
l 192/192 197/197
l 197/197 196/196
l 239/239 240/240
l 240/240 241/241
l 241/241 220/220
l 220/220 214/214
l 214/214 222/222
l 222/222 219/219
l 219/219 235/235
l 235/235 231/231
l 231/231 217/217
l 217/217 226/226
l 226/226 221/221
l 221/221 225/225
l 225/225 216/216
l 216/216 223/223
l 223/223 201/201
l 201/201 209/209
l 209/209 228/228
l 228/228 202/202
l 202/202 232/232
l 232/232 230/230
l 230/230 236/236
l 236/236 237/237
l 237/237 203/203
l 203/203 204/204
l 204/204 210/210
l 210/210 215/215
l 215/215 227/227
l 227/227 213/213
l 213/213 212/212
l 212/212 224/224
l 224/224 205/205
l 205/205 233/233
l 233/233 207/207
l 207/207 206/206
l 206/206 208/208
l 208/208 218/218
l 218/218 229/229
l 229/229 234/234
l 234/234 211/211
l 211/211 238/238
l 238/238 242/242
l 242/242 243/243
l 272/272 251/251
l 251/251 292/292
l 292/292 289/289
l 289/289 286/286
l 286/286 294/294
l 294/294 277/277
l 277/277 279/279
l 279/279 287/287
l 287/287 278/278
l 278/278 298/298
l 298/298 276/276
l 276/276 254/254
l 254/254 295/295
l 295/295 282/282
l 282/282 259/259
l 259/259 264/264
l 264/264 258/258
l 258/258 255/255
l 255/255 297/297
l 297/297 280/280
l 280/280 260/260
l 260/260 301/301
l 301/301 300/300
l 300/300 253/253
l 253/253 275/275
l 275/275 273/273
l 273/273 274/274
l 274/274 281/281
l 281/281 291/291
l 291/291 262/262
l 262/262 257/257
l 257/257 266/266
l 266/266 265/265
l 265/265 299/299
l 299/299 244/244
l 244/244 290/290
l 290/290 293/293
l 293/293 269/269
l 269/269 246/246
l 246/246 247/247
l 247/247 249/249
l 249/249 267/267
l 267/267 252/252
l 252/252 268/268
l 268/268 261/261
l 261/261 296/296
l 296/296 248/248
l 248/248 288/288
l 288/288 284/284
l 284/284 283/283
l 283/283 263/263
l 263/263 285/285
l 285/285 256/256
l 256/256 250/250
l 250/250 271/271
l 271/271 270/270
l 270/270 245/245
l 245/245 272/272
l 338/338 341/341
l 341/341 322/322
l 322/322 309/309
l 309/309 310/310
l 310/310 308/308
l 308/308 336/336
l 336/336 305/305
l 305/305 306/306
l 306/306 315/315
l 315/315 304/304
l 304/304 333/333
l 333/333 323/323
l 323/323 330/330
l 330/330 319/319
l 319/319 337/337
l 337/337 342/342
l 342/342 334/334
l 334/334 316/316
l 316/316 340/340
l 340/340 321/321
l 321/321 328/328
l 328/328 332/332
l 332/332 307/307
l 307/307 317/317
l 317/317 311/311
l 311/311 312/312
l 312/312 324/324
l 324/324 303/303
l 303/303 325/325
l 325/325 331/331
l 331/331 313/313
l 313/313 314/314
l 314/314 318/318
l 318/318 302/302
l 302/302 335/335
l 335/335 320/320
l 320/320 329/329
l 329/329 326/326
l 326/326 327/327
l 327/327 343/343
l 343/343 339/339
l 385/385 387/387
l 387/387 374/374
l 374/374 376/376
l 376/376 344/344
l 344/344 368/368
l 368/368 366/366
l 366/366 345/345
l 345/345 360/360
l 360/360 377/377
l 377/377 382/382
l 382/382 346/346
l 346/346 347/347
l 347/347 383/383
l 383/383 359/359
l 359/359 371/371
l 371/371 375/375
l 375/375 364/364
l 364/364 348/348
l 348/348 381/381
l 381/381 367/367
l 367/367 358/358
l 358/358 363/363
l 363/363 349/349
l 349/349 373/373
l 373/373 350/350
l 350/350 370/370
l 370/370 380/380
l 380/380 369/369
l 369/369 362/362
l 362/362 379/379
l 379/379 357/357
l 357/357 355/355
l 355/355 351/351
l 351/351 378/378
l 378/378 365/365
l 365/365 356/356
l 356/356 372/372
l 372/372 352/352
l 352/352 384/384
l 384/384 354/354
l 354/354 353/353
l 353/353 361/361
l 361/361 386/386
l 388/388 472/472
l 388/388 525/525
l 389/389 392/392
l 389/389 392/392
l 390/390 562/562
l 390/390 586/586
l 391/391 474/474
l 391/391 598/598
l 392/392 538/538
l 393/393 438/438
l 393/393 523/523
l 394/394 406/406
l 394/394 596/596
l 395/395 534/534
l 395/395 552/552
l 396/396 413/413
l 396/396 618/618
l 397/397 592/592
l 397/397 593/593
l 398/398 606/606
l 398/398 616/616
l 399/399 433/433
l 399/399 575/575
l 400/400 402/402
l 400/400 601/601
l 401/401 424/424
l 401/401 540/540
l 402/402 480/480
l 403/403 449/449
l 403/403 470/470
l 404/404 454/454
l 404/404 481/481
l 405/405 469/469
l 405/405 535/535
l 406/406 584/584
l 407/407 408/408
l 407/407 554/554
l 408/408 515/515
l 409/409 479/479
l 409/409 482/482
l 410/410 441/441
l 410/410 595/595
l 411/411 617/617
l 411/411 625/625
l 412/412 466/466
l 412/412 470/470
l 413/413 467/467
l 414/414 459/459
l 414/414 621/621
l 415/415 539/539
l 415/415 610/610
l 416/416 539/539
l 416/416 544/544
l 417/417 589/589
l 417/417 617/617
l 418/418 419/419
l 418/418 450/450
l 419/419 600/600
l 420/420 477/477
l 420/420 528/528
l 421/421 557/557
l 421/421 585/585
l 422/422 554/554
l 422/422 585/585
l 423/423 430/430
l 423/423 520/520
l 424/424 599/599
l 425/425 427/427
l 425/425 428/428
l 426/426 561/561
l 426/426 586/586
l 427/427 528/528
l 428/428 494/494
l 429/429 495/495
l 429/429 498/498
l 430/430 623/623
l 431/431 559/559
l 431/431 587/587
l 432/432 542/542
l 432/432 560/560
l 433/433 440/440
l 434/434 522/522
l 434/434 543/543
l 435/435 513/513
l 435/435 611/611
l 436/436 466/466
l 436/436 588/588
l 437/437 588/588
l 437/437 597/597
l 438/438 453/453
l 439/439 440/440
l 439/439 589/589
l 441/441 590/590
l 442/442 550/550
l 442/442 596/596
l 443/443 452/452
l 443/443 597/597
l 444/444 544/544
l 444/444 591/591
l 445/445 467/467
l 445/445 471/471
l 446/446 545/545
l 446/446 620/620
l 447/447 545/545
l 447/447 546/546
l 448/448 551/551
l 448/448 591/591
l 449/449 524/524
l 450/450 462/462
l 451/451 552/552
l 451/451 598/598
l 452/452 458/458
l 453/453 454/454
l 455/455 569/569
l 455/455 592/592
l 456/456 551/551
l 456/456 593/593
l 457/457 546/546
l 457/457 547/547
l 458/458 626/626
l 459/459 547/547
l 460/460 581/581
l 460/460 633/633
l 461/461 548/548
l 461/461 595/595
l 462/462 548/548
l 463/463 605/605
l 463/463 619/619
l 464/464 549/549
l 464/464 607/607
l 465/465 468/468
l 465/465 531/531
l 468/468 550/550
l 469/469 525/525
l 471/471 561/561
l 472/472 622/622
l 473/473 566/566
l 473/473 614/614
l 474/474 553/553
l 475/475 553/553
l 475/475 568/568
l 476/476 576/576
l 476/476 616/616
l 477/477 515/515
l 478/478 480/480
l 478/478 523/523
l 479/479 484/484
l 481/481 496/496
l 482/482 573/573
l 483/483 600/600
l 483/483 606/606
l 484/484 558/558
l 485/485 540/540
l 485/485 558/558
l 486/486 555/555
l 486/486 563/563
l 487/487 555/555
l 487/487 609/609
l 488/488 556/556
l 488/488 619/619
l 489/489 604/604
l 489/489 628/628
l 490/490 608/608
l 490/490 615/615
l 491/491 567/567
l 491/491 615/615
l 492/492 574/574
l 492/492 601/601
l 493/493 557/557
l 493/493 573/573
l 494/494 499/499
l 495/495 602/602
l 496/496 498/498
l 497/497 602/602
l 497/497 604/604
l 499/499 559/559
l 500/500 578/578
l 500/500 587/587
l 501/501 578/578
l 501/501 603/603
l 502/502 541/541
l 502/502 599/599
l 503/503 564/564
l 503/503 579/579
l 504/504 608/608
l 504/504 612/612
l 505/505 567/567
l 505/505 609/609
l 506/506 577/577
l 506/506 610/610
l 507/507 611/611
l 507/507 612/612
l 508/508 510/510
l 508/508 566/566
l 509/509 565/565
l 509/509 624/624
l 510/510 613/613
l 511/511 568/568
l 511/511 576/576
l 512/512 543/543
l 512/512 572/572
l 513/513 565/565
l 514/514 531/531
l 514/514 564/564
l 516/516 570/570
l 516/516 635/635
l 517/517 618/618
l 517/517 629/629
l 518/518 571/571
l 518/518 634/634
l 519/519 575/575
l 519/519 607/607
l 520/520 574/574
l 521/521 529/529
l 521/521 603/603
l 522/522 614/614
l 524/524 620/620
l 526/526 577/577
l 526/526 621/621
l 527/527 590/590
l 527/527 622/622
l 529/529 580/580
l 530/530 563/563
l 530/530 583/583
l 532/532 556/556
l 532/532 623/623
l 533/533 582/582
l 533/533 583/583
l 534/534 542/542
l 535/535 625/625
l 536/536 594/594
l 536/536 626/626
l 537/537 627/627
l 537/537 628/628
l 538/538 392/392
l 541/541 502/502
l 549/549 463/463
l 560/560 432/432
l 562/562 630/630
l 569/569 635/635
l 570/570 516/516
l 571/571 518/518
l 572/572 631/631
l 579/579 503/503
l 580/580 632/632
l 581/581 460/460
l 582/582 460/460
l 584/584 516/516
l 594/594 517/517
l 605/605 463/463
l 613/613 633/633
l 624/624 634/634
l 627/627 432/432
l 629/629 517/517
l 630/630 502/502
l 631/631 518/518
l 632/632 503/503
l 636/636 638/638
l 638/638 640/640
l 640/640 637/637
l 637/637 641/641
l 641/641 639/639
l 639/639 642/642
l 674/674 646/646
l 646/646 678/678
l 678/678 664/664
l 664/664 684/684
l 684/684 659/659
l 659/659 687/687
l 687/687 668/668
l 668/668 675/675
l 675/675 669/669
l 669/669 681/681
l 681/681 661/661
l 661/661 676/676
l 676/676 657/657
l 657/657 649/649
l 649/649 666/666
l 666/666 645/645
l 645/645 683/683
l 683/683 648/648
l 648/648 682/682
l 682/682 672/672
l 672/672 677/677
l 677/677 652/652
l 652/652 685/685
l 685/685 653/653
l 653/653 650/650
l 650/650 667/667
l 667/667 647/647
l 647/647 658/658
l 658/658 663/663
l 663/663 680/680
l 680/680 670/670
l 670/670 686/686
l 686/686 671/671
l 671/671 673/673
l 673/673 651/651
l 651/651 665/665
l 665/665 643/643
l 643/643 644/644
l 644/644 662/662
l 662/662 656/656
l 656/656 660/660
l 660/660 655/655
l 655/655 654/654
l 654/654 679/679
l 697/697 690/690
l 690/690 696/696
l 696/696 688/688
l 688/688 689/689
l 689/689 693/693
l 693/693 692/692
l 692/692 691/691
l 691/691 694/694
l 694/694 699/699
l 699/699 695/695
l 695/695 698/698
l 736/736 717/717
l 717/717 737/737
l 737/737 700/700
l 700/700 738/738
l 738/738 714/714
l 714/714 734/734
l 734/734 710/710
l 710/710 730/730
l 730/730 715/715
l 715/715 731/731
l 731/731 725/725
l 725/725 716/716
l 716/716 721/721
l 721/721 707/707
l 707/707 733/733
l 733/733 706/706
l 706/706 729/729
l 729/729 726/726
l 726/726 728/728
l 728/728 712/712
l 712/712 724/724
l 724/724 705/705
l 705/705 709/709
l 709/709 713/713
l 713/713 702/702
l 702/702 720/720
l 720/720 703/703
l 703/703 704/704
l 704/704 708/708
l 708/708 719/719
l 719/719 722/722
l 722/722 701/701
l 701/701 711/711
l 711/711 727/727
l 727/727 723/723
l 723/723 732/732
l 732/732 718/718
l 718/718 735/735
l 740/740 739/739
l 739/739 741/741
l 743/743 751/751
l 751/751 750/750
l 750/750 744/744
l 744/744 746/746
l 746/746 749/749
l 749/749 745/745
l 745/745 748/748
l 748/748 747/747
l 747/747 753/753
l 753/753 752/752
l 752/752 742/742
l 754/754 760/760
l 760/760 757/757
l 757/757 761/761
l 761/761 759/759
l 759/759 758/758
l 758/758 756/756
l 756/756 762/762
l 762/762 763/763
l 763/763 755/755
l 776/776 773/773
l 773/773 780/780
l 780/780 774/774
l 774/774 795/795
l 795/795 775/775
l 775/775 790/790
l 790/790 806/806
l 806/806 805/805
l 805/805 817/817
l 817/817 811/811
l 811/811 809/809
l 809/809 819/819
l 819/819 789/789
l 789/789 818/818
l 818/818 812/812
l 812/812 772/772
l 772/772 766/766
l 766/766 803/803
l 803/803 821/821
l 821/821 788/788
l 788/788 777/777
l 777/777 769/769
l 769/769 797/797
l 797/797 794/794
l 794/794 778/778
l 778/778 781/781
l 781/781 820/820
l 820/820 786/786
l 786/786 823/823
l 823/823 804/804
l 804/804 808/808
l 808/808 787/787
l 787/787 783/783
l 783/783 800/800
l 800/800 782/782
l 782/782 802/802
l 802/802 768/768
l 768/768 765/765
l 765/765 810/810
l 810/810 767/767
l 767/767 822/822
l 822/822 792/792
l 792/792 791/791
l 791/791 779/779
l 779/779 793/793
l 793/793 799/799
l 799/799 815/815
l 815/815 764/764
l 764/764 785/785
l 785/785 814/814
l 814/814 816/816
l 816/816 770/770
l 770/770 796/796
l 796/796 798/798
l 798/798 784/784
l 784/784 801/801
l 801/801 807/807
l 807/807 813/813
l 813/813 771/771
l 771/771 776/776
l 825/825 835/835
l 835/835 834/834
l 834/834 828/828
l 828/828 831/831
l 831/831 826/826
l 826/826 827/827
l 827/827 832/832
l 832/832 830/830
l 830/830 829/829
l 829/829 833/833
l 833/833 824/824
l 836/836 876/876
l 876/876 877/877
l 877/877 857/857
l 857/857 851/851
l 851/851 859/859
l 859/859 856/856
l 856/856 872/872
l 872/872 868/868
l 868/868 854/854
l 854/854 863/863
l 863/863 858/858
l 858/858 862/862
l 862/862 853/853
l 853/853 860/860
l 860/860 838/838
l 838/838 846/846
l 846/846 865/865
l 865/865 839/839
l 839/839 869/869
l 869/869 867/867
l 867/867 873/873
l 873/873 874/874
l 874/874 840/840
l 840/840 841/841
l 841/841 847/847
l 847/847 852/852
l 852/852 864/864
l 864/864 850/850
l 850/850 849/849
l 849/849 861/861
l 861/861 842/842
l 842/842 870/870
l 870/870 844/844
l 844/844 843/843
l 843/843 845/845
l 845/845 855/855
l 855/855 866/866
l 866/866 871/871
l 871/871 848/848
l 848/848 875/875
l 875/875 878/878
l 878/878 837/837
l 907/907 886/886
l 886/886 927/927
l 927/927 924/924
l 924/924 921/921
l 921/921 929/929
l 929/929 912/912
l 912/912 914/914
l 914/914 922/922
l 922/922 913/913
l 913/913 933/933
l 933/933 911/911
l 911/911 889/889
l 889/889 930/930
l 930/930 917/917
l 917/917 894/894
l 894/894 899/899
l 899/899 893/893
l 893/893 890/890
l 890/890 932/932
l 932/932 915/915
l 915/915 895/895
l 895/895 936/936
l 936/936 935/935
l 935/935 888/888
l 888/888 910/910
l 910/910 908/908
l 908/908 909/909
l 909/909 916/916
l 916/916 926/926
l 926/926 897/897
l 897/897 892/892
l 892/892 901/901
l 901/901 900/900
l 900/900 934/934
l 934/934 879/879
l 879/879 925/925
l 925/925 928/928
l 928/928 904/904
l 904/904 881/881
l 881/881 882/882
l 882/882 884/884
l 884/884 902/902
l 902/902 887/887
l 887/887 903/903
l 903/903 896/896
l 896/896 931/931
l 931/931 883/883
l 883/883 923/923
l 923/923 919/919
l 919/919 918/918
l 918/918 898/898
l 898/898 920/920
l 920/920 891/891
l 891/891 885/885
l 885/885 906/906
l 906/906 905/905
l 905/905 880/880
l 880/880 907/907
l 937/937 976/976
l 976/976 959/959
l 959/959 946/946
l 946/946 947/947
l 947/947 945/945
l 945/945 973/973
l 973/973 942/942
l 942/942 943/943
l 943/943 952/952
l 952/952 941/941
l 941/941 970/970
l 970/970 960/960
l 960/960 967/967
l 967/967 956/956
l 956/956 974/974
l 974/974 977/977
l 977/977 971/971
l 971/971 953/953
l 953/953 975/975
l 975/975 958/958
l 958/958 965/965
l 965/965 969/969
l 969/969 944/944
l 944/944 954/954
l 954/954 948/948
l 948/948 949/949
l 949/949 961/961
l 961/961 940/940
l 940/940 962/962
l 962/962 968/968
l 968/968 950/950
l 950/950 951/951
l 951/951 955/955
l 955/955 939/939
l 939/939 972/972
l 972/972 957/957
l 957/957 966/966
l 966/966 963/963
l 963/963 964/964
l 964/964 978/978
l 978/978 938/938
l 979/979 1022/1022
l 1022/1022 1011/1011
l 1011/1011 1013/1013
l 1013/1013 981/981
l 981/981 1005/1005
l 1005/1005 1003/1003
l 1003/1003 982/982
l 982/982 997/997
l 997/997 1014/1014
l 1014/1014 1019/1019
l 1019/1019 983/983
l 983/983 984/984
l 984/984 1020/1020
l 1020/1020 996/996
l 996/996 1008/1008
l 1008/1008 1012/1012
l 1012/1012 1001/1001
l 1001/1001 985/985
l 985/985 1018/1018
l 1018/1018 1004/1004
l 1004/1004 995/995
l 995/995 1000/1000
l 1000/1000 986/986
l 986/986 1010/1010
l 1010/1010 987/987
l 987/987 1007/1007
l 1007/1007 1017/1017
l 1017/1017 1006/1006
l 1006/1006 999/999
l 999/999 1016/1016
l 1016/1016 994/994
l 994/994 992/992
l 992/992 988/988
l 988/988 1015/1015
l 1015/1015 1002/1002
l 1002/1002 993/993
l 993/993 1009/1009
l 1009/1009 989/989
l 989/989 1021/1021
l 1021/1021 991/991
l 991/991 990/990
l 990/990 998/998
l 998/998 980/980
l 1031/1031 1032/1032
l 1031/1031 1032/1032
l 1032/1032 1033/1033
l 1023/1023 1035/1035
l 1024/1024 1039/1039
l 1025/1025 1040/1040
l 1026/1026 1034/1034
l 1027/1027 1038/1038
l 1028/1028 1036/1036
l 1029/1029 1041/1041
l 1030/1030 1037/1037
l 1033/1033 1032/1032
l 1034/1034 1026/1026
l 1035/1035 1023/1023
l 1036/1036 1028/1028
l 1037/1037 1030/1030
l 1038/1038 1027/1027
l 1039/1039 1024/1024
l 1040/1040 1025/1025
l 1041/1041 1029/1029
