v 0.035279596819948703 -0.083174391390277741 -0.056282067760043714
v 0.051345079504846763 -0.082777054981591297 -0.062166049805705142
v 0.064613022889531913 -0.0836908547220101 -0.083169427368718574
v 0.062562540982057463 -0.086527629443869769 -0.12399169569946387
v 0.054423842858833893 -0.087312563059945669 -0.13850763220990289
v 0.039592740889368636 -0.087596628415431629 -0.14425813757432113
v 0.024842409251957253 -0.087857625091352587 -0.14585500737041779
v 0.018057442364032734 -0.088068829829779816 -0.14614476958291223
v 0.0089356842321445043 -0.084320466861459678 -0.054403454702402015
v 6.5052130349130276e-19 -0.084703618208382431 -0.054257239361996473
v 0.057461987746974703 -0.082889471120267372 -0.068059075992947915
v 0.06433225508248841 -0.085996885192171468 -0.11547352946613693
v 0.026624776734082992 -0.083538096656461114 -0.05517312499921749
v 0.043647869215612964 -0.082893613546965894 -0.058420589326377503
v 0.032054162871162112 -0.087704960109411534 -0.14529300146737684
v 0.065903994645964969 -0.084871685900634083 -0.099607787936592515
v 0.047238344368997903 -0.087488972537752063 -0.14227815210502354
v 0.059422157510687273 -0.086973213902268656 -0.13187915547490686
v 0.065345645361483212 -0.085461698047705328 -0.1076586700782485
v 0.061857678829754251 -0.083212506131166597 -0.075258189570284351
v 0.017825496957795513 -0.083929066545501751 -0.05462695452365765
v 0.065753854314840252 -0.084261574555490826 -0.091398835816147966
v 0.011718419264804037 -0.088339135154485909 -0.14627714362725625
v 0.0057525793295322009 -0.08865811325895942 -0.14633142159963619
v 1.8973538018496308e-19 -0.089003859524654907 -0.14634308117446229
v 0.022884687480497164 0.10041811591029987 -0.054761938235103738
v 0.053855336764955866 0.10097340483487412 -0.062902224558620101
v 0.060411702289919135 0.10168319435843046 -0.06924219434821885
v 0.06650570726737097 0.1035333027692249 -0.086321236803414664
v 0.066122454957914634 0.10522023011201223 -0.10403287610458521
v 0.062168663682806005 0.10643296788261715 -0.12345124311855223
v 0.049874904454123389 0.10663083230450471 -0.13795134199071732
v 0.03080382765271265 0.1057736816922675 -0.1421429666311283
v 0.020731696570416583 0.10531214244921805 -0.1428012088972497
v 0.010431303439391838 0.10490596775778627 -0.14310050410987016
v 0.04057745636198283 0.10624937825424734 -0.14075807467676135
v 0.030035676287324731 0.1002659395717829 -0.055450128447666766
v 0.057435040103653273 0.10669546160228577 -0.13193725737435766
v 0.016403066679500006 0.10068988251603432 -0.05439546104061628
v 0.045932460286644092 0.10050599141914052 -0.058904455110676504
v 0.064665661429139071 0.10592883126033115 -0.11392472731431011
v 0.066791779377232241 0.10444295130934858 -0.0952677760965433
v -4.3368086899420206e-19 0.10453964571950185 -0.14322863086863374
v 0.037808732824949697 0.10027851491669199 -0.056610109121913478
v 0.064590719213327735 0.10257461799287812 -0.077420883960267903
v 0.010538090471228539 0.10103273838831253 -0.054179813481648083
v 0.0051425916345465283 0.10140966898872597 -0.054039763332200223
v -1.3552527156066591e-20 0.1017980983120325 -0.053969364025618888
v 0.1105557201119183 -0.34492566096593891 -0.013850483340477292
v 0.098030261482125153 -0.35437377381212998 -0.035000271298612481
v 0.093551640502820735 -0.35759191513776661 -0.041340188089690172
v 0.11419056506836826 -0.34202400094678986 -0.0061959370580694315
v 0.12813373417753432 -0.32742641054293253 0.040906068006657817
v 0.12251408549372941 -0.33412938562694938 0.017623160737360873
v 0.082693456926079809 -0.36495015288242849 -0.055483795534396758
v 0.076332248072014816 -0.36891432510730304 -0.063277492513011069
v 0.015632171641758293 -0.31067341972679346 0.11509683183184519
v 0.069833145347060366 -0.37249811541635902 -0.07062334205387269
v 0.1304662740194909 -0.32046741864823403 0.069021030970164349
v 0.061305908131285308 -0.31325530938503882 0.11069405102846733
v 0.054715533502084905 -0.37773113810258779 -0.082159239869966469
v 0.12875434606199943 -0.31632170275911253 0.087007406252381209
v 0.12670351793211218 -0.31430698932948647 0.095609655264523946
v 0.045755000888602959 -0.37891603674725083 -0.085041754041759371
v 0.079292499442641329 -0.31285768521894231 0.10954551014800201
v 0.12235190436823887 -0.3124408094627078 0.10324109454260343
v 0.018195180977458453 -0.37911891086946387 -0.086526969772410992
v 0.088365437085775433 -0.31213721261234528 0.11021717634985784
v 0.052629091429505767 -0.31305908603970833 0.1117843246777796
v 0.036275480230940522 -0.31220006560572067 0.11369270146108953
v 0.10642724221772068 -0.31095960300974196 0.11079394032334569
v 0.12457922268804719 -0.3317563390339946 0.025508947910079145
v 0.02188656548972133 -0.31112957655270918 0.11479277958957085
v 0.1172782758048376 -0.33925450333432605 0.001712840874712759
v 0.036520616134016845 -0.37927262921874333 -0.086152182279274056
v 0.027329445427431875 -0.37925945197116329 -0.086479238495492272
v 0.13034731153845031 -0.32266152435334056 0.059747445809450364
v 0.10661010762186457 -0.34797093397361478 -0.02124186110261047
v 0.062775307963518739 -0.37552711752473678 -0.077143181181082987
v 0.089045088769641748 -0.36071682447220488 -0.047344352827957348
v 0.12992653115859859 -0.31836409052764114 0.078118759375084904
v 0.11505470185422442 -0.31131654572810957 0.10831163499730601
v 0.028785068326816172 -0.31166161655729635 0.11432963984840523
v 0.044257517338099919 -0.31268749396697748 0.11282956624786528
v 0.070220464755135492 -0.31321661904964293 0.10980878079157388
v 0.097395288548170506 -0.31135158760337411 0.1110697822867696
v 0.12647583582450628 -0.32952169457905145 0.033254070750712385
v 0.12960135333557113 -0.32498225287091775 0.050349016918585857
v 0.1024114699055112 -0.35114096064667277 -0.028302942353660217
v 0.12018043566046095 -0.33663250082821417 0.0096389427078653472
v -2.7105054312135453e-20 -0.37874135113049018 -0.086362855622863638
v 0.0090921916817387795 -0.37892229490193613 -0.086427550815079107
v 0.0099985410020229266 -0.31032836338415687 0.11529252505914184
v 0.0048609003928749084 -0.31009529837054073 0.11541567154954674
v 2.7105054312139248e-19 -0.30993428484799651 0.1154944184607036
v 0.045181610611813118 0.21032898336779349 0.025016883552733477
v 0.053424462208063822 0.21371228028150274 0.025105222573362236
v 0.069329630547129775 0.22326147060283547 0.025046366668196346
v 0.084390950693400857 0.23680935908801359 0.024908258840087842
v 0.11655012024477571 0.28372099971567188 0.027184978337195263
v 0.12649878503136305 0.31779053888779285 0.034601847625343143
v 0.018842409629616197 0.20432157134629889 0.024230504034593231
v 0.11986638172925086 0.292043775648615 0.028571817948533265
v 0.12815235353300863 0.33565946438805638 0.038815373736765371
v 8.6736173798840355e-19 0.20300300282887596 0.023444381027694815
v 0.1246904918162494 0.36388215240958799 0.044055638860859878
v 0.12195923443535629 0.37340912563357143 0.045506116709602647
v 0.11847044711204242 0.38278714206514847 0.046817855413564993
v 0.11427240221761192 0.39186026819472686 0.047988796354662758
v 0.098104744936091892 0.41553110397042387 0.050720415635289437
v 0.070755199050546849 0.43831795134897483 0.052493643776203809
v 0.054492705580827597 0.44638610847154547 0.051805753265350002
v 0.037437432768280966 0.45185746608598598 0.050009369014210853
v 0.11265634648007819 0.27565493368073751 0.026212080190871991
v 0.10347379516002433 0.26046777150112366 0.025218487782896416
v 0.098309576362871132 0.25331449660326505 0.025024695971854534
v 0.078267047743170018 0.43343793114895368 0.052353966165567693
v 0.10825614992062801 0.26790981526088287 0.025591337483782728
v 0.091897655178030363 0.42206619519097388 0.051400155936587325
v 0.076983453324195289 0.22956295790560619 0.024959738106202507
v 0.10393450414371469 0.40829451113280102 0.049927228230027064
v 0.10939673116608425 0.4004311821582317 0.049021513047236759
v 0.1266578662370329 0.35434910676527764 0.042462010648884926
v 0.12766813991383413 0.32662179999711927 0.036765394913860293
v 0.091532664070797576 0.24479466679239209 0.024914916975348485
v 0.12779539818474664 0.3449126955424191 0.040721219436833073
v 0.027914458981263261 0.20577227556219183 0.024573191849644769
v 0.12490168926867976 0.30909317735750708 0.032390244266888531
v 0.062810136703175729 0.44266312797834628 0.052320351147424671
v 0.061484074483112237 0.21796346169610947 0.02510664920672126
v 0.029123476704477777 0.45358920092417754 0.048959150321258353
v 0.085338542354392991 0.42806201145779599 0.051961217926944761
v 0.12264055334694188 0.30051993117524689 0.030339984469877686
v 0.045971050919093731 0.44947251398604138 0.050998352306022406
v 0.036686791546382373 0.20774585447296151 0.024845089076063198
v 0.02120501659823492 0.45471834644559539 0.047955021928146137
v 4.3368086899420254e-19 0.45598551468203158 0.045523221692246534
v 0.0094964528797185019 0.20346237824203228 0.023845141899153738
v 0.013766010266541336 0.45537976983979078 0.047055116881716014
v 0.0067565516259008931 0.45575016830949344 0.046259358631647249
v 0.046695275414676371 -0.20865276516101133 0.032504441105991454
v 0.028018110995277096 -0.20368156815600821 0.030833308725163138
v 0.0092737045581135595 -0.20183128623264307 0.02850002547169371
v 0.064421573473860821 -0.21698144430575272 0.032806344872776422
v 0.10037009782782431 -0.24955298293664113 0.030506164771452168
v 0.10601096348478449 -0.25759545764472697 0.030571437538295079
v 0.11108715959935583 -0.26618824201166991 0.03101653213670455
v 0.11976678102327162 -0.28486854566763353 0.033012551011567769
v 0.12813373417753432 -0.32742641054293253 0.040906068006657817
v 0.12816913801761542 -0.33407626541846502 0.042292194571472513
v 0.12714474459049174 -0.34845823579285745 0.045199141654407027
v 0.12159005954793906 -0.37345493246666328 0.050138399390784322
v 0.11832996473491758 -0.38234650485267624 0.051784594210063789
v 0.10961070371149093 -0.39987328364979913 0.054661310754554215
v 0.10413054260650972 -0.40804045909730391 0.055783514330212274
v 0.098830345012479337 -0.41490450656525552 0.056552555201720305
v 0.086749334655877336 -0.42744883720808147 0.057456396263421458
v 0.054577951658287688 -0.44694096878104483 0.056947754431036682
v 0.03590155189606252 -0.45302256138257213 0.055349003332676297
v 0.026603046422450403 -0.45495310231163655 0.054175301720328126
v 0.12733829460578019 -0.3163354552958404 0.038601495151174933
v 0.12786814653836082 -0.34104196557371214 0.043709653356986067
v 0.1242032477765696 -0.36476928298893174 0.04843469459926189
v 0.12563909431582704 -0.30548148789262242 0.036469382606423961
v 0.12597860049050311 -0.35638425329069645 0.046773226083676719
v 0.11570907976487996 -0.27527215860235349 0.031821416657484732
v 0.063564531662773829 -0.44294282296727472 0.057378021825380363
v 0.079734031776337089 -0.43311245883605481 0.057619716189405729
v 0.018605200748514059 -0.20249664942228407 0.029718122094007177
v 0.093080430942352591 -0.42137094169474953 0.057106368637123268
v 0.11437430186324957 -0.39124297441453981 0.053311414959092293
v 0.08037482186137887 -0.22831446962285917 0.031866478751613143
v 0.072649234419873449 -0.22231660213003143 0.032438148183106835
v 0.087517077558648404 -0.2349499894686673 0.031268753300199223
v 0.017528482138423902 -0.45623414379518146 0.052787956869856198
v 0.008688829426605817 -0.45695682188948628 0.051248016025204485
v 0.037426483005948571 -0.20569872349091267 0.031794019339497215
v 0.094192237913040364 -0.24202211019375316 0.030769580705471339
v 0.072029712785526029 -0.43836292273608546 0.057600567775110662
v 0.045294203868197241 -0.45035036941190565 0.05627584725369815
v 0.055732698751501594 -0.21242103100221191 0.032850957308265455
v 0.12309820550932746 -0.29496377247662436 0.034581542064518432
v 2.2268564981977415e-33 -0.20155687604148362 0.027265835154077735
v 0 -0.45734002834552201 0.04962939241737109
v 0.040933198790618214 0.38995516311953143 0.13067642739533614
v 0.012023699277981654 0.39336106654622954 0.12979753182171339
v 0.066954593892414316 0.38811552730122079 0.1325410732856826
v 0.033002058515896486 0.39105725792967749 0.13020113192547242
v 0.084924455984559777 0.39067461093643152 0.13145069056215294
v 0.025531694009393719 0.39207022053528867 0.12986038438269765
v 0.093127327076102911 0.39344778093780064 0.12874643337059649
v 0.10064309413603173 0.39802815592274426 0.1130348386717677
v 0.10336541277400471 0.40259871450996254 0.095612074601051464
v 0.10400543340777677 0.40478786312356047 0.086723371304306351
v 0.10420266372674672 0.40651641576468051 0.077687856054395821
v 0.10415798665965575 0.40768355404207002 0.068537490129847389
v 0.1040798557946184 0.4083029264879674 0.059288291084383438
v 0.10379489054613614 0.40776323962791317 0.041867998400419146
v 0.067756936695043235 0.23918723104275608 -0.081343512896101672
v 0.086288123484437373 0.32634085483302044 -0.054552407414737353
v 0.067084217567160903 0.20105444312033965 -0.089225099149703585
v 0.067242177745331033 0.21078097675643501 -0.087441880497769575
v 0.082958777605121908 0.31670134810640077 -0.057898362086944474
v 0.094899927028425202 0.36144770820521227 -0.038068138520422838
v 0.097209637147285879 0.37563955141061911 -0.027595853256817147
v 0.099468987977028231 0.38734499320583693 -0.014859696490734767
v 0.096112527021598365 0.36885518548210539 -0.033084962329304204
v 0.066646204586051278 0.17103444777449889 -0.094332597335634455
v 0.066545717596601522 0.16066371739801391 -0.095992830943864529
v 0.066458651204288413 0.15007158769113838 -0.097638616494044816
v 0.066117608899203956 0.094308813703590066 -0.10533912244032334
v 0.066122454957914634 0.10522023011201223 -0.10403287610458521
v 0.066131230640434191 0.060735984592016151 -0.10835629916386025
v 0.066130466016799991 0.072019143722410542 -0.10749097964119764
v 0.066053822099697845 0.049478744654034498 -0.10911587032438055
v 0.06583044035568697 0.017135646647208107 -0.11101842633060544
v 0.065755556375134042 0.0070844153801216236 -0.11152809333742489
v 0.06566891703763128 -0.0026957568176905868 -0.11198096429332571
v 0.065042024778336954 -0.04240255089080755 -0.11384207815619925
v 0.063941879149013836 -0.12679953538334182 -0.1137962544739588
v 0.064097836823095555 -0.16737369444368841 -0.10909847823197795
v 0.066775952162512947 -0.26138743770361883 -0.084017367227908479
v 0.07257004780446942 -0.29672974305634781 -0.071521588577959871
v 0.084559116710986343 -0.33848288041455743 -0.057787165852589362
v 0.086315216394111646 -0.34614030132359003 -0.054589093310759687
v 0.09030034673092352 -0.36847558256641511 -0.042690755312373208
v 0.096572808753442207 -0.40480317877753919 -0.002400687711846634
v 0.09861432588522126 -0.40987215723289278 0.014712760869974667
v 0.099746526482504455 -0.41088629936541987 0.023333021199081795
v 0.10413054260650972 -0.40804045909730391 0.055783514330212274
v 0.10203998055723118 -0.41052258571790112 0.040085001118853214
v 0.1062930357067883 -0.40390920537001412 0.073446418073854353
v 0.10674544761718202 -0.4014758473391179 0.081891096813276845
v 0.040418119984432413 -0.38824791953791615 0.137086232359309
v 8.6736173798840355e-19 -0.38718103564430562 0.13504550906188767
v 0.10275469183645541 -0.39266995097727475 0.11394598653885679
v 0.09461394716631466 -0.38987734741108665 0.12840794115193768
v 0.050255192454086842 -0.38791171199445473 0.13753493086067908
v 0.069531132726671968 -0.38729634536962065 0.13752781633134584
v 0.030457429580823838 -0.38837321165848382 0.13653982779819746
v 0.010211003415719143 -0.38771486725366994 0.13561281067145309
v 0.049294797068193605 0.38899524868378477 0.1311624956074213
v 0.10228784754739369 0.40026578195664614 0.10438008219894887
v 0.098369302383366664 0.38182633338225846 -0.021563441158332929
v 0.099548042273770093 -0.39121979173819765 0.12155034005281687
v 0.067402727748811675 0.22039055436447411 -0.085562510091822933
v 0.066953751762639763 0.19120402147031884 -0.090956805864603335
v 0.068625503312255753 0.25735432759250243 -0.076433469014689753
v 0.066810152727986183 0.1812063894221746 -0.092657007348434156
v 0.10393450414371469 0.40829451113280102 0.049927228230027064
v 0.10482830443488579 -0.39446245185077727 0.10610906941828536
v 0.065953960039626031 0.027565561552974814 -0.11044863631271751
v 0.10679584523155783 -0.39905653989222478 0.090136570707456537
v 0.1052954346918569 -0.40606456078846753 0.064739300187150906
v 0.095605156457405388 -0.40066228703600076 -0.010557619404422514
v 0.064823205263992656 -0.052983297004859889 -0.11437911650947107
v 0.064425236726654012 -0.1966537628652793 -0.10425568270120804
v 0.064095728165199498 -0.10633461836034119 -0.11514162625507092
v 0.10343957444874061 0.40510220550829168 0.025286822210963684
v 0.10315259535109833 -0.40949639637719049 0.048072020200064403
v 0.064329491740919786 -0.18695566337569047 -0.106088192899564
v 0.071078152325255745 0.2766504973191744 -0.070514141905400743
v 0.064671726628637571 -0.063837350059108039 -0.1148854601432885
v 0.06433225508248841 -0.085996885192171468 -0.11547352946613693
v 0.064503381688906611 -0.074881989709956298 -0.11527241462532745
v 0.082523150199514506 -0.33056260426168849 -0.060774133748331363
v 0.064203579277622935 -0.0961675035665574 -0.11543608351147061
v 0.087790090549720687 -0.35354414185880789 -0.051129856035010912
v 0.064236061149823859 -0.17721037519536001 -0.10767881628093529
v 0.065560403725850952 -0.012379599572515994 -0.11240607683773762
v 0.089045088769641748 -0.36071682447220488 -0.047344352827957348
v 0.065416619390335384 -0.022145834107186103 -0.11284184261403299
v 0.065216446452202509 -0.22531793265063324 -0.096923207925025262
v 0.077699890940444327 -0.31399422174360064 -0.066227274771365724
v 0.094641429422485143 -0.39555482807324271 -0.018242033165328131
v 0.064012922193951882 -0.1472924885801396 -0.1116794667598999
v 0.068829415258196885 -0.27907732424419501 -0.07749017767337657
v 0.076106423039747406 0.29701285211827388 -0.064119277105500638
v 0.065500557436518725 -0.23455579733339207 -0.093891460053418696
v 0.09773776946612904 0.39574335458973131 0.1213009681714613
v 0.066123008533041455 0.083231018828510278 -0.10649284815518376
v 0.066201380482675598 0.11679644404168418 -0.10250553705739426
v 0.070468230761008999 -0.28792210962696074 -0.074400826525622715
v 0.10237037743728326 0.3999582555643944 0.0084585921183869383
v 0.064036017897128275 -0.11654371304428073 -0.11459421497469222
v 0.067635980891966069 -0.27022686693550352 -0.080712200700965006
v 0.079464988749985643 0.30692698280692754 -0.061043930202200683
v 0.066316923587266915 0.1281445205734652 -0.10090799088057571
v 0.092633836551444734 -0.38305945190948865 -0.031786079564302766
v 0.091489429412134948 -0.37595662001929853 -0.037536655833935131
v 0.10055113418891568 0.39221102941308816 -0.0075526515568669992
v 0.10079600405681063 -0.4109710891906978 0.031834625797330846
v 0.093669874970633976 -0.38963741239952576 -0.025344976334302199
v 0.093421705133262242 0.35342843023939396 -0.042646379751250157
v 0.06639080124883201 0.13923669279988965 -0.099277400724160733
v 0.076036852679568473 0.38887723986315503 0.13254009704915407
v 0.064031893331587181 -0.13707116772621114 -0.11282740998035246
v 0.063951513757798728 -0.15740314589737547 -0.11041446903313965
v 0.089250368406815522 0.33576513350817572 -0.050934652851404104
v 0.091539117681009377 0.34483718081719561 -0.046904287942889818
v 0.018539788053025256 0.39283342540982302 0.12976475310124222
v 0.10302078823322387 0.40285793634775902 0.016846761517780764
v 0.080188004176439676 -0.32239160480778584 -0.063554643556712323
v 0.057982299723421053 0.38823447876596251 0.13198431014948675
v 0.066222175408780198 -0.25253409854902781 -0.087365763711206634
v 0.065803695187682615 -0.24361155145259661 -0.09067760138903988
v 0.020377980477014897 -0.38817311584931857 0.13606350322549854
v 0.05996851574325622 -0.38753692790419864 0.13771673549442648
v 0.075052158188253254 -0.30543252562973466 -0.068819257597353772
v 0.073231279491977691 0.28691729049092107 -0.067265538239606862
v 0.10616840041123729 -0.39665846387346815 0.098191996918579549
v 0.067558525210930684 0.22986789477712338 -0.083539216912784181
v 0.068078795204562809 0.24833869220829241 -0.078970979882077366
v 0.09753847854367384 -0.40785889077755555 0.0060880665283551492
v 0.066025796008574084 0.038376969349214737 -0.10981260160589618
v 0.10154172125536257 0.39641466527644686 0.00026834337387730194
v 0.10372404707200239 0.40676226417554584 0.033642676369331936
v 0.069593405291247773 0.26630973706248096 -0.073754915735053245
v 0.087350989287948683 -0.38851971915926475 0.13318811062736607
v 0.064911539473186675 -0.21588932289220775 -0.099687593812532421
v 0.064560341844631844 -0.20631129864814063 -0.10212028430522385
v 0.065239737554762534 -0.032128910388076248 -0.11331901974086604
v 0.078783572037987679 -0.38760782417869871 0.13611893661251073
v 4.3368086899420177e-19 0.39392761612296601 0.13009455556109917
v 0.0058998646196980128 0.39370471428947884 0.12991226191199989
v 0.074829622099629706 0.2566445561608568 0.10004414417809611
v 0.025416450930815116 0.25329602129346018 0.09060319892638935
v 0.082249608834252932 0.2562640528070092 0.099910967222740704
v 0.099816320415142323 0.2529245651407741 0.089866266559084723
v 0.10431039146636703 0.25132669123751755 0.067353884751322701
v 0.10238157141691361 0.25233870705245048 0.082986677550919763
v 0.10406501415138332 0.25115011357382977 0.059027787436869511
v 0.10319902820772309 0.25132254694946199 0.050567188787304929
v 0.10032238069264349 0.25240122783803443 0.033502895587232941
v 0.10185647553730398 0.25180631872021275 0.042058204154933762
v 0.096220358244705137 0.25424042554741888 0.016821176463177316
v 0.083134928692032414 0.25910196158536347 -0.023141425308853575
v 0.073163167302330689 0.26332639227905696 -0.056525704764479039
v 0.067982393881742972 0.26784841167259366 -0.081507671696262982
v 0.048632332257376287 0.2752923757995529 -0.11244831872954768
v 0.033222981624758993 0.27686040774007531 -0.11450867039806792
v 0.018765078487846719 0.27830270841388971 -0.11444970882649651
v 0.08912689526430706 0.25535293660781855 0.098344695609481989
v 0.067074374451751101 0.25653932757390696 0.099036717836255658
v 0.033965018868072988 0.25382054674088383 0.091892819210826149
v 0.042450336756802223 0.25453047740418955 0.093648106400461617
v 0.098309576362871132 0.25331449660326505 0.025024695971854534
v 0.071330817583853734 0.26475027044739996 -0.065183909909338894
v 0.059031336454556958 0.25605416486621779 0.097575849810640033
v 0.075279124855994251 0.26208291862005451 -0.047928133384861377
v 0.066358424074262665 0.26944790382314487 -0.089116146455542763
v 0.064254093787878691 0.27109749006603356 -0.096541049348200209
v 0.01689712693449303 0.25295515246853401 0.089657161804108571
v 0.077702033278494537 0.26100750594244959 -0.039484399885427013
v 0.025793760594365132 0.277598223791235 -0.11457735166435183
v 0.080293296456105945 0.26004477975248502 -0.031206452446380081
v 0.091504703730985973 0.25619483470346405 0.00064873400075499848
v 0.040919993620774392 0.27611484273674025 -0.11397308039940837
v 0.055828154239317349 0.27423857076698677 -0.10924354411200335
v 0.061245334042240682 0.2727743834195917 -0.10364540402408923
v 0.08882803785150245 0.25720359615482041 -0.0072895369186041503
v 0.085998543778108241 0.25818033784262229 -0.015188262429921322
v 0.095105755809896123 0.25416328740679289 0.094973190621147799
v 0.050824367618800867 0.25533414621853279 0.09561019352147665
v 0.093964033709262623 0.25520245540910097 0.0086856619361836106
v 0.10384528840191679 0.25173721953971595 0.075408276025591525
v 0.069593405291247773 0.26630973706248096 -0.073754915735053245
v 0 0.27988856276005081 -0.1139606605033483
v 3.388131789017158e-19 0.25270708414888188 0.088737379147953294
v 0.0084271601894952038 0.25278518003600337 0.089094830411786119
v 0.012180410741045837 0.2789232847314691 -0.11426580882401172
v 0.0059789460302068862 0.27944102113577174 -0.11409889994120415
v 0 0.43515999999999999 0.14102999999999999
v 8.6736173798840355e-19 0.20300300282887596 0.023444381027694815
v 2.7105054312137876e-20 0.20220543736337088 -0.0044987975100713234
v 1.0842021724855044e-19 0.45008187509857356 0.019280106453906664
v 2.7105054312137577e-19 0.42508940774073534 -0.04208400854308543
v 8.1315162936414542e-20 0.22191914860688416 -0.12652738566718044
v 2.1684043449710325e-19 0.3099598905657962 -0.10622292981054825
v 0 0.34388247507065295 -0.096047115440680092
v 0 0.087754000000000013 -0.14469180000000001
v 0 -0.1425063 -0.053024300000000003
v 0 -0.1991908 0.0685886
v -2.1684043449709939e-19 -0.22343339689073191 0.083513556169163922
v -4.3368086899420177e-19 -0.25403394531134238 0.091613960849210335
v 0 -0.29874630000000002 0.11169750000000001
v 3.2526065174568412e-19 -0.31366629080336628 0.11668413472305518
v -4.2012834183817751e-19 -0.3255894255643787 0.12010452587196831
v -4.3368086899420177e-19 -0.33153869685903226 -0.10233517899249296
v -4.3368086899420177e-19 -0.33558539694680145 0.12268308018133209
v 8.6736173798840355e-19 -0.38718103564430562 0.13504550906188767
v 1.8973538018496224e-19 -0.15937283422626317 -0.051845293899566158
v 6.5052130349130276e-19 -0.084703618208382431 -0.054257239361996473
v 0 0.15944320000000001 -0.051878000000000001
v 0 0.4388396 -0.013365699999999999
v 0 0.41178300000000001 -0.063519099999999995
v 1.6263032587282391e-19 0.069867897132493639 -0.14595904850058206
v -4.3368086899420206e-19 0.10453964571950185 -0.14322863086863374
v -2.439454888092385e-19 -0.34119010161084651 -0.099234608862432488
v 1.0842021724855044e-19 -0.36214401418524989 -0.092235390857668395
v -2.7105054312137423e-19 -0.39241885805590543 -0.081380287593843609
v 4.3368086899420177e-19 -0.16857056540514492 -0.05029806184112981
v 0 0.17633769999999999 -0.13456610000000002
v -1.0842021724854845e-19 0.44680962756521692 0.0083934163894474178
v 5.421010862427657e-20 0.24211815058682792 0.091832061875147308
v 2.1684043449710089e-19 -0.3796658137736808 0.13247663154552239
v 0 0.21379490000000001 0.090762300000000004
v -4.3368086899420177e-19 -0.24668499528380633 0.088313501802649796
v 3.2526065174564868e-19 0.31127622025917034 0.086418525394061502
v -1.0842021724854019e-19 0.34773624174655104 0.097307955853521658
v 0 0.36547805771597064 0.10690184051484017
v 0 0.23134547754576271 0.093931471520997123
v 1.0842021724855213e-19 0.37944183231693973 0.1178120992714233
v 0 0.20694710080306977 0.085028528447307114
v 1.3552527156068923e-19 0.38721239972237864 0.12447549304111592
v 3.7947076036992621e-19 0.20282125357954184 0.076267041243323661
v 4.3368086899420177e-19 0.39392761612296601 0.13009455556109917
v 1.084202172485517e-19 0.40165986699717326 0.13560056493413669
v -3.117081245895872e-19 0.2018209366442282 0.034096083429228194
v 8.6736173798840355e-19 0.2034268408911476 0.0046580922915357859
v -8.6736173798840355e-19 0.4552292093865814 0.09547068757366492
v 0 0.45342409729404853 0.10238359870312785
v -5.4210108624273633e-20 0.45725641423283103 0.085009805557338503
v 3.2526065174565162e-19 0.45832336364430182 0.075319747663386893
v 1.0842021724855145e-19 0.45778798103467327 0.05720191910876693
v -1.2037062152420286e-34 0.176891294264786 -0.044957020468312854
v -4.3368086899420177e-19 0.45470391789370301 0.038623891748767222
v -4.3368086899420177e-19 0.12444191199971666 -0.054191457078092281
v -2.5749801596530586e-19 0.11614457113546431 -0.054085725060683092
v 4.3368086899420177e-19 0.42956534598914053 -0.033608045674326771
v -8.6736173798840355e-19 0.26011087833653584 -0.11870073678606763
v 0 0.21041906612071698 -0.12870446520337683
v 8.1315162936412845e-20 0.22904282505088802 -0.1251657983149686
v -2.1684043449710532e-19 0.24968928486702555 -0.1210005358294642
v 2.1684043449710089e-19 0.27017795933616684 -0.11632058534123656
v 0 0.27988856276005081 -0.1139606605033483
v 8.6736173798840355e-19 0.28721155396107012 -0.11216678290769097
v -3.2526065174565114e-19 0.23931421404225781 -0.12314307820368203
v -5.421010862427527e-19 0.35227526250996866 -0.093301126874852494
v -1.084202172485503e-19 0.38327983858200187 -0.082814767828608971
v -8.1315162936413711e-20 0.39793153617660354 -0.076385450620797407
v 0 0.39009058734453761 -0.080212669043723345
v -1.3552527156069197e-20 0.37499327963765655 -0.085737234610908639
v -2.7105054312137394e-19 0.11255342591406331 -0.14244569988417549
v 4.3368086899420177e-19 0.097338823946056113 -0.14389180327194523
v 8.6736173798840355e-19 -0.13358593457972623 -0.053270244615582718
v 4.3368086899420177e-19 -0.15113111863599996 -0.052706453648507685
v 1.6263032587282569e-19 -0.19149409435882198 -0.038298743427178594
v -5.4210108624275739e-20 -0.093926155147889268 -0.14596860457252236
v 5.4210108624274673e-19 -0.13022956075239694 -0.14225276491768074
v 2.2268564981977415e-33 -0.20155687604148362 0.027265835154077735
v 0 -0.19830806176972665 0.042961822892776107
v 1.6263032587282487e-19 -0.16305139531946511 -0.13811156043386189
v 0 -0.18666055858700364 -0.13472672116241474
v 1.0842021724855117e-19 -0.17625358435838001 -0.13624987148537854
v 0 -0.20460101191955071 0.076166608249569542
v -4.4723339615026933e-19 -0.20760234444489578 -0.13136073330187792
v 2.7105054312137611e-19 -0.21933877950673394 -0.12930038685464973
v -4.3368086899420177e-19 -0.22898465337263574 -0.12753512434251793
v 3.8037116401647758e-33 -0.23695470926845019 0.085360195115832246
v -5.4210108624265953e-20 -0.27086371028451595 -0.11891226724612354
v 3.2526065174564459e-19 -0.27235247216750358 0.10039224417734006
v -1.0842021724855044e-19 -0.29590556694296877 -0.11268006207682368
v 8.6736173798840355e-19 -0.35324638599751335 0.12683527970592645
v 4.3368086899420177e-19 -0.41609477428107633 -0.068272619281814162
v 9.4867690092482372e-20 -0.43227063654768128 -0.038664971365072465
v -5.4210108624274808e-19 -0.43912347344761404 -0.017246089962649452
v 2.7105054312139262e-19 -0.43615254448407637 -0.027061653297242784
v 5.4210108624275703e-19 -0.44848378556561608 0.012561194693887293
v 1.6263032587282119e-19 -0.44216024647614727 -0.0072507347343981326
v -5.4210108624276293e-20 -0.45147348623873851 0.022289450185157132
v -1.0842021724854954e-19 -0.42201032812559103 -0.060823682300185901
v -4.3368086899420177e-19 -0.42562781523475957 -0.054511626870667233
v 4.3368086899421188e-19 -0.45410559613076529 0.032096885829705525
v -4.3368086899420177e-19 -0.43569883904063755 0.13918213194427548
v -5.4210108624275137e-20 -0.45628017925952213 0.088342036504440183
v 1.0842021724855044e-19 -0.44822952323599308 0.11519061517226314
v -5.4210108624276413e-20 -0.45465986323295626 0.095997585822842513
v -2.7105054312137611e-19 -0.44532946224057901 0.0027637150507863022
v 1.4925957069001078e-33 -0.073126276645578914 -0.05478994267558876
v 0 -0.45734002834552201 0.04962939241737109
v -2.1684043449710089e-19 -0.45612396463836336 0.041990059668527556
v -5.4210108624275289e-19 0.051388153119061461 -0.055208513463941317
v -2.7105054312133181e-20 0.096617886170263234 -0.053920059386809993
v 5.4210108624275222e-19 0.32276563156706828 -0.10257419390575104
v 8.6736173798840355e-19 -0.40354628321466884 0.14413451071024247
v 3.2526065174565095e-19 -0.094380441791676206 -0.053916309878893134
v -1.6263032587282458e-19 -0.26225074943137194 0.095550099780343956
v 3.2526065174564916e-19 -0.44481285231239742 0.12292296100129751
v -6.0986372202307506e-20 0.19561197237550537 -0.024195757129965724
v -3.2526065174565133e-19 0.14063300637967835 -0.053992409279123701
v -4.3368086899420177e-19 -0.053526084159459794 -0.055483506321858417
v 4.3368086899420177e-19 -0.061697117892326986 -0.055266546297930187
v -2.1684043449710089e-19 -0.045826927063126542 -0.055612068603538116
v -4.3368086899420177e-19 0.28746135767067932 0.083457550438471223
v 2.7105054312120166e-20 0.32031458068906515 0.088298996732855961
v -1.6263032587281936e-19 0.35518424033961143 0.1008276461734072
v 3.388131789017158e-19 0.25270708414888188 0.088737379147953294
v -4.3368086899420177e-19 0.40892727866765677 0.13938546166684346
v 6.5052130349130266e-19 0.44188419315186928 0.13084131865665063
v 2.4394548880923874e-19 0.20341478697804088 0.013672169775576755
v 1.9740781929969167e-33 0.44634722417733197 0.1220934176711518
v -1.6263032587282567e-19 0.19949205490081126 -0.015554593853492697
v 2.7105054312137601e-19 0.18699735567554912 -0.036715698391068384
v 1.0842021724855174e-19 0.45281663221305696 0.030005883059727456
v 8.6736173798840355e-19 0.15067765625864524 -0.05340076381188022
v 5.6242987697689115e-19 0.4338570510714741 -0.024803541769652146
v -8.6736173798840355e-19 0.30254694522721404 -0.10822122930033574
v -2.7105054312137635e-19 0.20088712956248245 -0.13043001988637573
v 5.4210108624273621e-20 0.33549310266555771 -0.09870185064860662
v -2.7105054312137678e-19 0.36310895039966173 -0.089727471485687105
v 0 0.14201821394139419 -0.13915001696951212
v -1.0842021724855024e-19 -0.012323998670593504 -0.055972116090867163
v 0 -0.022712149298620539 -0.055881274405606064
v -8.1315162936412965e-20 0.012935008460383129 -0.14856656585275141
v 3.2526065174565143e-19 0.022414773299161174 -0.1482284792640069
v -4.878909776184768e-19 -0.026464865867663313 -0.14928761591089831
v 1.15196480826586e-19 -0.040708224232537837 -0.14901601535460529
v -1.6263032587282593e-19 -0.053107716366028998 -0.14854849218161995
v 4.3368086899420177e-19 -0.077108864981389719 -0.14719077520501211
v -1.3552527156068805e-20 -0.067471911561304942 -0.14779375940921097
v 4.3368086899420177e-19 -0.084081563901420561 -0.14671755777640222
v 4.3368086899420177e-19 -0.11139977961452781 -0.14437949203795053
v -2.1684043449710089e-19 -0.10331705284689813 -0.14516091596917782
v 7.7037197775489434e-34 -0.20648956995445181 0.0093271908015260807
v 1.3552527156068801e-19 -0.20765418692199536 0.00037234978129755455
v -5.4210108624275183e-19 -0.11924871964150974 -0.14351178595486991
v 1.2197274440462033e-19 -0.14294129039561582 -0.14073250205235671
v 3.2526065174564555e-19 -0.1520559116814949 -0.13956629132906267
v 3.2526065174565114e-19 -0.19754577423648556 0.050046786676728995
v -4.3368086899420177e-19 -0.19760370670696109 0.059811075315086365
v 5.4210108624275222e-20 -0.21249721022003876 0.081088507449890837
v 0 -0.27800804346560726 -0.11721407054329616
v -2.1684043449710089e-19 -0.28721355122098435 -0.1149215077090194
v -3.2526065174565133e-19 -0.32443765880885644 -0.10453576977558453
v -6.7762635780344027e-20 -0.34393343090386658 0.12479332982702974
v 8.6736173798840701e-19 -0.36383163581795464 0.12889610184127845
v -2.7105054312135453e-20 -0.37874135113049018 -0.086362855622863638
v -8.6736173798840355e-19 -0.40170309298537821 -0.07766836831209703
v -8.1315162936423413e-20 -0.40909879296286045 -0.073854406669536798
v -1.2037062152420224e-34 -0.45797886945320282 0.057025744037271314
v 2.5749801596531799e-19 -0.44033746900381709 0.13187601362554968
v 0 -0.39388964918033065 0.13853425172728387
v 4.3368086899420177e-19 -0.42365368539325843 0.14778938764044947
v -9.4867690092437029e-20 -0.43089428164493238 0.14582394755562816
v 0 0.016248354755558206 -0.05585934667489495
v 3.252606517456521e-19 0.19151162471829825 -0.13208516908193493
v 1.0842021724855044e-19 0.035574490145544327 -0.055606366621654135
v 2.1684043449710089e-19 -0.30620227889262674 0.11430470219835204
v 3.2526065174564897e-19 -0.28957795008985465 0.10800741660953447
v 8.267041565201954e-19 0.44298743278525654 -0.002641652707091869
v 0 0.40567947125905407 -0.070378045077579596
v -2.1684043449710089e-19 0.026480909637895938 -0.055736216626897025
v 4.3368086899420216e-19 0.42071792116596496 -0.04980934456747485
v 2.1684043449709906e-19 -0.23899890591355208 -0.12564241116579511
v -3.2526065174565316e-19 -0.3053225987065048 -0.11011481664635804
v 4.8148248609680896e-35 0.27809973219980966 0.083685585264688514
v -3.2526065174565138e-19 0.37107595399705628 0.11108112952522078
v 0 -0.37166546252918498 0.13042054475321718
v 2.7105054312137678e-19 0.30012088524060815 0.084683870218496771
v 8.6736173798840355e-19 0.22181215438427104 0.093854339298984762
v 0 0.33046579539242482 0.091156434869191727
v 2.7105054312137486e-19 -0.19955101279342363 0.035810362870895188
v 0 0.27051784901248399 0.084614590175772206
v 0 0.10697831045380177 -0.054018668664427803
v 0 0.15732546804317227 -0.13724110028928366
v 0 0.1498057831155408 -0.13819821004271476
v -1.6263032587282518e-19 -0.20402252248225911 0.018440716939552002
v -2.7105054312137611e-19 1.1497566620312805e-05 -0.14898205903403211
v -2.1684043449709747e-19 -0.28145865710058715 0.10451870181153129
v 4.3368086899420177e-19 0.41694046512130678 -0.055991243466250298
v 4.3368086899420177e-19 0.45820662591698896 0.066614657077492145
v 4.0657581468202324e-20 0.45001542826659391 0.11297305246935734
v -2.1684043449710108e-19 0.033243132130122657 -0.14781179943917741
v 0 0.045975165619322356 -0.14726969331046391
v 0 0.078344100841757622 -0.14539114139111523
v 7.5894152073985281e-19 0.056462097356192731 -0.14675371343396215
v 5.4210108624275222e-19 -0.45167139422104785 0.10611617541153183
v -2.1684043449710089e-19 -0.24899433677551844 -0.12366320265627935
v -1.626303258727962e-19 -0.37140891968893897 -0.088984566173438445
v 1.9259299443872359e-34 -0.31583821305029997 -0.10711137431853895
v 0 -0.20662342910794165 -0.013646427002483988
v 6.5052130349130276e-19 0.12193397253452976 -0.14146085253656526
v -1.6263032587282677e-19 -0.19891542900116688 -0.029855499404191112
v -3.2526065174565138e-19 -0.17785325379595213 -0.046942516056082753
v -2.1684043449710089e-19 0.16703873498815572 -0.13593047218197818
v 3.252606517456546e-19 -0.12610666264144813 -0.053376042042426387
v 0 -0.45795206380833231 0.07651776839461448
v -5.4210108624273633e-20 0.41724917167189923 0.14146233485996418
v 0 0.42749078927713474 0.14221016967276237
v -2.710505431213756e-20 -0.0028929363840166106 -0.055973245928604108
v 0 0.0084325154082747246 -0.055933772490082981
v -3.2526065174565282e-19 -0.41537414785534993 0.14781264235391495
v 4.3368086899420177e-19 0.042802434786905236 -0.055462711959378491
v 1.0842021724855119e-19 0.062958553779311283 -0.054751701605118178
v 1.0842021724855044e-19 0.073698317226603402 -0.054291207512283564
v -3.7947076036991846e-19 0.084325199634828749 -0.053992802141222575
v -4.3368086899420177e-19 0.29528339169527784 -0.11011285245212327
v 2.6963019221421302e-33 -0.42901984756105938 -0.047138933937682301
v 8.6736173798840355e-19 0.20025549459366324 0.051459216726069748
v 4.3368086899420158e-19 0.20019019966846344 0.061379772809301208
v 0 0.16803776765299649 -0.049468383739978083
v 2.7105054312138015e-19 -0.19528823100932124 -0.13338761559516193
v 3.2526065174565403e-19 0.13191084755808891 -0.14033718067654918
v 2.168404344971031e-19 0.26371164319241358 0.085967088891026
v 4.3368086899420254e-19 0.45598551468203158 0.045523221692246534
v 4.3368086899420071e-19 -0.45831846300202289 0.069642504895515461
v 1.6263032587282651e-19 -0.11686700626280594 -0.053497105989840893
v 6.5052130349130266e-19 0.33713238665901252 0.093331743899496222
v -4.3368086899420177e-19 0.18469623300454094 -0.13324153237402139
v -1.6263032587282567e-19 0.20075072058906437 0.044322443041097677
v 1.0842021724855133e-19 0.13144968095378684 -0.054204802096911996
v 0 -0.20400353584207781 -0.021211569324501883
v -1.0842021724855044e-19 -0.35333591643676604 -0.095231785903906074
v -1.0842021724854822e-19 -0.10505086022075913 -0.053689859368086096
v 5.4210108624275053e-20 -0.033302390493608093 -0.055761669758171616
v -1.2197274440461939e-19 -0.014842153149748792 -0.14925452304232933
v -8.1315162936412845e-20 -0.184673674077387 -0.042620629741630674
v -1.6263032587282518e-19 -0.25890004254042942 -0.12158593881215569
v -1.3552527156067977e-19 0.35146024104308127 0.099067801013464435
v 2.8460307027744554e-19 0.39057000792267232 0.12728502430110755
v 4.3368086899420177e-19 -0.1380461172898631 -0.053147272307791357
v 5.4210108624275583e-20 -0.18145707147269183 -0.13548829632389664
v -2.168404344971018e-19 -0.30061408282473678 -0.11139743936159088
v -1.6263032587282569e-19 -0.2915595590819765 -0.11380078489292153
v -3.2526065174565133e-19 -0.049676505611293165 -0.05554778746269827
v 0 -0.057611601025893411 -0.055375026309894305
v -1.6263032587282506e-19 0.40529357283241502 0.13749301330049007
v 2.7105054312137611e-19 0.14565533131916181 -0.053696586545501961
v 2.8121493848844558e-19 0.43634832553573705 -0.019084620884826074
v 2.7105054312137876e-20 0.19619937714039032 -0.13125759448415536
v 6.7762635780344388e-20 -0.20707187843822356 0.0048497702914118181
v 6.7762635780344003e-20 -0.20713880801496851 -0.0066370386105932162
v 2.4394548880923522e-19 -0.15755365350048001 -0.13883892588146229
v -2.1684043449710089e-19 -0.19839725335348055 0.064199837657543182
v 1.7618285302888917e-19 -0.41259678362196839 -0.07106351297567548
v 1.6940658945088236e-19 -0.4272739835190954 0.14680666759803881
v -6.7762635780343895e-20 -0.0076084675273050588 -0.055972681009735625
v 0 0.40873123562952707 -0.066948572538789802
v 2.7105054312137611e-20 -0.20854911106979473 0.07862755784973019
v 1.3552527156068892e-19 0.45778988893856637 0.080164776610362698
v -4.6078592330633861e-19 0.45624281180970622 0.090240246565501711
v 3.5236570605778894e-19 0.42290366445335015 -0.04594667655528014
v 0 0.083049050420878817 -0.14504147069555762
v 3.659182332138576e-19 0.43872248280702225 0.13640864253537133
v -1.7618285302889447e-19 -0.34726300902380625 -0.097233197383169281
v -9.4867690092465833e-20 -0.3750751354097146 -0.087673710898151042
v 5.9631119486702908e-19 -0.12984629861058716 -0.053323143329004549
v -1.0842021724855044e-19 0.17168821749407787 -0.1352482860909891
v 3.5914196963582349e-19 0.44489853017523673 0.0028758818411777744
v -5.4210108624275559e-20 0.047095293952983348 -0.055335612711659904
v -1.2874900798265293e-19 0.11156144079463304 -0.054052196862555447
v -8.1315162936412207e-20 -0.20525604621835544 0.013883953870539043
v 1.3552527156060083e-20 0.32539018804074499 0.089727715801023858
v 2.2361669807513293e-19 -0.14749860103855536 -0.14014939669070969
v 1.0842021724855136e-19 -0.099715651006217695 -0.053803084623489615
v 4.4723339615027068e-19 0.20281613912725924 7.9647390732231257e-05
v 2.168404344970998e-19 -0.44652118777419525 0.11905678808678033
v 0 0.21037100040153489 0.087895414223653559
v 1.8973538018496311e-19 0.20488417719130581 0.080647784845315387
v 2.7105054312137678e-19 0.39779374156006964 0.13284756024761793
v -2.3716922523120641e-19 0.20128582861664635 0.039209263235162946
v 5.5565361339882112e-19 0.20342081393459421 0.0091651310335562688
v -1.6263032587282506e-19 0.45376027505338007 0.034314887404247339
v 4.3368086899420177e-19 0.28355005836056046 -0.11306372170551963
v -1.4230153513872301e-19 0.36905111501865923 -0.087732353048297892
v -1.3552527156068832e-19 -0.098621603997393698 -0.14556476027085008
v 1.3552527156068743e-19 -0.19892953728157514 0.039386092881835644
v 0 -0.20189590595977536 0.072377604124784778
v 1.6263032587282612e-19 -0.41905255120333368 -0.064548150791000028
v -2.7105054312137568e-19 -0.4238190716801753 -0.057667654585426567
v 2.4394548880923792e-19 -0.45316562872700206 0.10105688061718718
v -2.7105054312122877e-20 -0.36677646693709443 -0.090609978515553413
v 2.9137933385548355e-19 -0.44257516065810726 0.1273994873134236
v -8.1315162936409679e-20 0.36033114902779106 0.10386474334412368
v -6.7762635780343895e-20 0.20084874613209108 -0.01002669568178201
v 4.9805537298554651e-19 0.43171119853030732 -0.029205793721989459
v -5.4210108624275113e-20 -0.017518073984607023 -0.05592669524823661
v 1.6263032587282557e-19 -0.19792691800310611 0.046504304784752544
v 1.3552527156069008e-19 -0.19097439479816242 -0.13405716837878834
v -4.7433845046241349e-19 -0.40540094297411933 -0.075761387490816914
v -5.4210108624275775e-20 -0.4554700212462392 0.092169811163641341
v -2.4394548880923773e-19 0.413088225169778 0.14042389826340382
v 2.778268066994082e-19 0.20241196973655207 0.028770232228461506
v 2.7105054312139248e-19 -0.30993428484799651 0.1154944184607036
v -3.7947076036992655e-19 -0.32798817783394435 -0.10343547438403874
v 4.133520782600977e-19 0.44091351639262827 -0.0080036763535459333
v -1.1180834903756659e-19 0.19755201363815839 -0.019875175491729215
v 3.2526065174565133e-19 0.3337990910257187 0.092244089384343975
v -5.4210108624275318e-20 -0.19757474047172333 0.054928930995907677
v -1.3552527156066591e-20 0.1017980983120325 -0.053969364025618888
v 1.8973538018496308e-19 -0.089003859524654907 -0.14634308117446229
v 4.3368086899420197e-19 0.41882919314363587 -0.052900294016862574
v -4.0657581468206856e-20 0.4018055037178288 -0.073381747849188494
v -1.6263032587282557e-19 -0.32013793592957818 -0.10582357204706175
v 1.0842021724855044e-19 -0.30247428944631338 0.11300110109917605
v -5.6920614055488886e-19 -0.39706097552064173 -0.07952432795297032
v -1.0842021724855044e-19 0.16218210151566398 -0.13658578623563092
v -6.0986372202309745e-20 0.37913655910982919 -0.084276001219758798
v -3.7269449679189311e-20 0.43154523366690273 0.14230361709614042
v 2.7105054312137611e-19 0.039188462466224781 -0.055534539290516299
v 2.1684043449710089e-19 0.29124747282817398 -0.1111398176799071
v 5.4210108624274499e-20 -0.41951391662430415 0.14780101499718218
v 4.3368086899420177e-19 0.15506042812932264 -0.052639381905940121
v 8.1315162936411954e-20 0.074105998987125637 -0.14567509494584863
v 3.8518598887744717e-34 0.45534471628786738 0.042073556720506881
v -5.4210108624274849e-20 0.18810392886141961 -0.13266335072797816
v -2.1684043449709954e-19 -0.42732383139790947 -0.050825280404174764
v 0 -0.20531348247500975 -0.017428998163492936
v 0 -0.35773996531100793 -0.093733588380787242
v 4.878909776184768e-19 -0.089542030000029346 -0.054086774620444797
v -2.7105054312136816e-20 0.42236998047451701 0.14183625226636326
v 6.5052130349130276e-19 -0.084703618208382431 -0.054257239361996473
v 1.8973538018496308e-19 -0.089003859524654907 -0.14634308117446229
v -0.035279596819948703 -0.083174391390277741 -0.056282067760043714
v -0.051345079504846763 -0.082777054981591297 -0.062166049805705142
v -0.064613022889531913 -0.0836908547220101 -0.083169427368718574
v -0.062562540982057463 -0.086527629443869769 -0.12399169569946387
v -0.054423842858833893 -0.087312563059945669 -0.13850763220990289
v -0.039592740889368636 -0.087596628415431629 -0.14425813757432113
v -0.024842409251957253 -0.087857625091352587 -0.14585500737041779
v -0.018057442364032734 -0.088068829829779816 -0.14614476958291223
v -0.0089356842321445043 -0.084320466861459678 -0.054403454702402015
v -0.057461987746974703 -0.082889471120267372 -0.068059075992947915
v -0.06433225508248841 -0.085996885192171468 -0.11547352946613693
v -0.026624776734082992 -0.083538096656461114 -0.05517312499921749
v -0.043647869215612964 -0.082893613546965894 -0.058420589326377503
v -0.032054162871162112 -0.087704960109411534 -0.14529300146737684
v -0.065903994645964969 -0.084871685900634083 -0.099607787936592515
v -0.047238344368997903 -0.087488972537752063 -0.14227815210502354
v -0.059422157510687273 -0.086973213902268656 -0.13187915547490686
v -0.065345645361483212 -0.085461698047705328 -0.1076586700782485
v -0.061857678829754251 -0.083212506131166597 -0.075258189570284351
v -0.017825496957795513 -0.083929066545501751 -0.05462695452365765
v -0.065753854314840252 -0.084261574555490826 -0.091398835816147966
v -0.011718419264804037 -0.088339135154485909 -0.14627714362725625
v -0.0057525793295322009 -0.08865811325895942 -0.14633142159963619
v -4.3368086899420206e-19 0.10453964571950185 -0.14322863086863374
v -1.3552527156066591e-20 0.1017980983120325 -0.053969364025618888
v -0.022884687480497164 0.10041811591029987 -0.054761938235103738
v -0.053855336764955866 0.10097340483487412 -0.062902224558620101
v -0.060411702289919135 0.10168319435843046 -0.06924219434821885
v -0.06650570726737097 0.1035333027692249 -0.086321236803414664
v -0.066122454957914634 0.10522023011201223 -0.10403287610458521
v -0.062168663682806005 0.10643296788261715 -0.12345124311855223
v -0.049874904454123389 0.10663083230450471 -0.13795134199071732
v -0.03080382765271265 0.1057736816922675 -0.1421429666311283
v -0.020731696570416583 0.10531214244921805 -0.1428012088972497
v -0.010431303439391838 0.10490596775778627 -0.14310050410987016
v -0.04057745636198283 0.10624937825424734 -0.14075807467676135
v -0.030035676287324731 0.1002659395717829 -0.055450128447666766
v -0.057435040103653273 0.10669546160228577 -0.13193725737435766
v -0.016403066679500006 0.10068988251603432 -0.05439546104061628
v -0.045932460286644092 0.10050599141914052 -0.058904455110676504
v -0.064665661429139071 0.10592883126033115 -0.11392472731431011
v -0.066791779377232241 0.10444295130934858 -0.0952677760965433
v -0.037808732824949697 0.10027851491669199 -0.056610109121913478
v -0.064590719213327735 0.10257461799287812 -0.077420883960267903
v -0.010538090471228539 0.10103273838831253 -0.054179813481648083
v -0.0051425916345465283 0.10140966898872597 -0.054039763332200223
v -2.7105054312135453e-20 -0.37874135113049018 -0.086362855622863638
v 2.7105054312139248e-19 -0.30993428484799651 0.1154944184607036
v -0.1105557201119183 -0.34492566096593891 -0.013850483340477292
v -0.098030261482125153 -0.35437377381212998 -0.035000271298612481
v -0.093551640502820735 -0.35759191513776661 -0.041340188089690172
v -0.11419056506836826 -0.34202400094678986 -0.0061959370580694315
v -0.12813373417753432 -0.32742641054293253 0.040906068006657817
v -0.12251408549372941 -0.33412938562694938 0.017623160737360873
v -0.082693456926079809 -0.36495015288242849 -0.055483795534396758
v -0.076332248072014816 -0.36891432510730304 -0.063277492513011069
v -0.015632171641758293 -0.31067341972679346 0.11509683183184519
v -0.069833145347060366 -0.37249811541635902 -0.07062334205387269
v -0.1304662740194909 -0.32046741864823403 0.069021030970164349
v -0.061305908131285308 -0.31325530938503882 0.11069405102846733
v -0.054715533502084905 -0.37773113810258779 -0.082159239869966469
v -0.12875434606199943 -0.31632170275911253 0.087007406252381209
v -0.12670351793211218 -0.31430698932948647 0.095609655264523946
v -0.045755000888602959 -0.37891603674725083 -0.085041754041759371
v -0.079292499442641329 -0.31285768521894231 0.10954551014800201
v -0.12235190436823887 -0.3124408094627078 0.10324109454260343
v -0.018195180977458453 -0.37911891086946387 -0.086526969772410992
v -0.088365437085775433 -0.31213721261234528 0.11021717634985784
v -0.052629091429505767 -0.31305908603970833 0.1117843246777796
v -0.036275480230940522 -0.31220006560572067 0.11369270146108953
v -0.10642724221772068 -0.31095960300974196 0.11079394032334569
v -0.12457922268804719 -0.3317563390339946 0.025508947910079145
v -0.02188656548972133 -0.31112957655270918 0.11479277958957085
v -0.1172782758048376 -0.33925450333432605 0.001712840874712759
v -0.036520616134016845 -0.37927262921874333 -0.086152182279274056
v -0.027329445427431875 -0.37925945197116329 -0.086479238495492272
v -0.13034731153845031 -0.32266152435334056 0.059747445809450364
v -0.10661010762186457 -0.34797093397361478 -0.02124186110261047
v -0.062775307963518739 -0.37552711752473678 -0.077143181181082987
v -0.089045088769641748 -0.36071682447220488 -0.047344352827957348
v -0.12992653115859859 -0.31836409052764114 0.078118759375084904
v -0.11505470185422442 -0.31131654572810957 0.10831163499730601
v -0.028785068326816172 -0.31166161655729635 0.11432963984840523
v -0.044257517338099919 -0.31268749396697748 0.11282956624786528
v -0.070220464755135492 -0.31321661904964293 0.10980878079157388
v -0.097395288548170506 -0.31135158760337411 0.1110697822867696
v -0.12647583582450628 -0.32952169457905145 0.033254070750712385
v -0.12960135333557113 -0.32498225287091775 0.050349016918585857
v -0.1024114699055112 -0.35114096064667277 -0.028302942353660217
v -0.12018043566046095 -0.33663250082821417 0.0096389427078653472
v -0.0090921916817387795 -0.37892229490193613 -0.086427550815079107
v -0.0099985410020229266 -0.31032836338415687 0.11529252505914184
v -0.0048609003928749084 -0.31009529837054073 0.11541567154954674
v 8.6736173798840355e-19 0.20300300282887596 0.023444381027694815
v 4.3368086899420254e-19 0.45598551468203158 0.045523221692246534
v -0.045181610611813118 0.21032898336779349 0.025016883552733477
v -0.053424462208063822 0.21371228028150274 0.025105222573362236
v -0.069329630547129775 0.22326147060283547 0.025046366668196346
v -0.084390950693400857 0.23680935908801359 0.024908258840087842
v -0.11655012024477571 0.28372099971567188 0.027184978337195263
v -0.12649878503136305 0.31779053888779285 0.034601847625343143
v -0.018842409629616197 0.20432157134629889 0.024230504034593231
v -0.11986638172925086 0.292043775648615 0.028571817948533265
v -0.12815235353300863 0.33565946438805638 0.038815373736765371
v -0.1246904918162494 0.36388215240958799 0.044055638860859878
v -0.12195923443535629 0.37340912563357143 0.045506116709602647
v -0.11847044711204242 0.38278714206514847 0.046817855413564993
v -0.11427240221761192 0.39186026819472686 0.047988796354662758
v -0.098104744936091892 0.41553110397042387 0.050720415635289437
v -0.070755199050546849 0.43831795134897483 0.052493643776203809
v -0.054492705580827597 0.44638610847154547 0.051805753265350002
v -0.037437432768280966 0.45185746608598598 0.050009369014210853
v -0.11265634648007819 0.27565493368073751 0.026212080190871991
v -0.10347379516002433 0.26046777150112366 0.025218487782896416
v -0.098309576362871132 0.25331449660326505 0.025024695971854534
v -0.078267047743170018 0.43343793114895368 0.052353966165567693
v -0.10825614992062801 0.26790981526088287 0.025591337483782728
v -0.091897655178030363 0.42206619519097388 0.051400155936587325
v -0.076983453324195289 0.22956295790560619 0.024959738106202507
v -0.10393450414371469 0.40829451113280102 0.049927228230027064
v -0.10939673116608425 0.4004311821582317 0.049021513047236759
v -0.1266578662370329 0.35434910676527764 0.042462010648884926
v -0.12766813991383413 0.32662179999711927 0.036765394913860293
v -0.091532664070797576 0.24479466679239209 0.024914916975348485
v -0.12779539818474664 0.3449126955424191 0.040721219436833073
v -0.027914458981263261 0.20577227556219183 0.024573191849644769
v -0.12490168926867976 0.30909317735750708 0.032390244266888531
v -0.062810136703175729 0.44266312797834628 0.052320351147424671
v -0.061484074483112237 0.21796346169610947 0.02510664920672126
v -0.029123476704477777 0.45358920092417754 0.048959150321258353
v -0.085338542354392991 0.42806201145779599 0.051961217926944761
v -0.12264055334694188 0.30051993117524689 0.030339984469877686
v -0.045971050919093731 0.44947251398604138 0.050998352306022406
v -0.036686791546382373 0.20774585447296151 0.024845089076063198
v -0.02120501659823492 0.45471834644559539 0.047955021928146137
v -0.0094964528797185019 0.20346237824203228 0.023845141899153738
v -0.013766010266541336 0.45537976983979078 0.047055116881716014
v -0.0067565516259008931 0.45575016830949344 0.046259358631647249
v 2.2268564981977415e-33 -0.20155687604148362 0.027265835154077735
v 0 -0.45734002834552201 0.04962939241737109
v -0.046695275414676371 -0.20865276516101133 0.032504441105991454
v -0.028018110995277096 -0.20368156815600821 0.030833308725163138
v -0.0092737045581135595 -0.20183128623264307 0.02850002547169371
v -0.064421573473860821 -0.21698144430575272 0.032806344872776422
v -0.10037009782782431 -0.24955298293664113 0.030506164771452168
v -0.10601096348478449 -0.25759545764472697 0.030571437538295079
v -0.11108715959935583 -0.26618824201166991 0.03101653213670455
v -0.11976678102327162 -0.28486854566763353 0.033012551011567769
v -0.12813373417753432 -0.32742641054293253 0.040906068006657817
v -0.12816913801761542 -0.33407626541846502 0.042292194571472513
v -0.12714474459049174 -0.34845823579285745 0.045199141654407027
v -0.12159005954793906 -0.37345493246666328 0.050138399390784322
v -0.11832996473491758 -0.38234650485267624 0.051784594210063789
v -0.10961070371149093 -0.39987328364979913 0.054661310754554215
v -0.10413054260650972 -0.40804045909730391 0.055783514330212274
v -0.098830345012479337 -0.41490450656525552 0.056552555201720305
v -0.086749334655877336 -0.42744883720808147 0.057456396263421458
v -0.054577951658287688 -0.44694096878104483 0.056947754431036682
v -0.03590155189606252 -0.45302256138257213 0.055349003332676297
v -0.026603046422450403 -0.45495310231163655 0.054175301720328126
v -0.12733829460578019 -0.3163354552958404 0.038601495151174933
v -0.12786814653836082 -0.34104196557371214 0.043709653356986067
v -0.1242032477765696 -0.36476928298893174 0.04843469459926189
v -0.12563909431582704 -0.30548148789262242 0.036469382606423961
v -0.12597860049050311 -0.35638425329069645 0.046773226083676719
v -0.11570907976487996 -0.27527215860235349 0.031821416657484732
v -0.063564531662773829 -0.44294282296727472 0.057378021825380363
v -0.079734031776337089 -0.43311245883605481 0.057619716189405729
v -0.018605200748514059 -0.20249664942228407 0.029718122094007177
v -0.093080430942352591 -0.42137094169474953 0.057106368637123268
v -0.11437430186324957 -0.39124297441453981 0.053311414959092293
v -0.08037482186137887 -0.22831446962285917 0.031866478751613143
v -0.072649234419873449 -0.22231660213003143 0.032438148183106835
v -0.087517077558648404 -0.2349499894686673 0.031268753300199223
v -0.017528482138423902 -0.45623414379518146 0.052787956869856198
v -0.008688829426605817 -0.45695682188948628 0.051248016025204485
v -0.037426483005948571 -0.20569872349091267 0.031794019339497215
v -0.094192237913040364 -0.24202211019375316 0.030769580705471339
v -0.072029712785526029 -0.43836292273608546 0.057600567775110662
v -0.045294203868197241 -0.45035036941190565 0.05627584725369815
v -0.055732698751501594 -0.21242103100221191 0.032850957308265455
v -0.12309820550932746 -0.29496377247662436 0.034581542064518432
v 8.6736173798840355e-19 -0.38718103564430562 0.13504550906188767
v 4.3368086899420177e-19 0.39392761612296601 0.13009455556109917
v -0.040933198790618214 0.38995516311953143 0.13067642739533614
v -0.012023699277981654 0.39336106654622954 0.12979753182171339
v -0.066954593892414316 0.38811552730122079 0.1325410732856826
v -0.033002058515896486 0.39105725792967749 0.13020113192547242
v -0.084924455984559777 0.39067461093643152 0.13145069056215294
v -0.025531694009393719 0.39207022053528867 0.12986038438269765
v -0.093127327076102911 0.39344778093780064 0.12874643337059649
v -0.10064309413603173 0.39802815592274426 0.1130348386717677
v -0.10336541277400471 0.40259871450996254 0.095612074601051464
v -0.10400543340777677 0.40478786312356047 0.086723371304306351
v -0.10420266372674672 0.40651641576468051 0.077687856054395821
v -0.10415798665965575 0.40768355404207002 0.068537490129847389
v -0.1040798557946184 0.4083029264879674 0.059288291084383438
v -0.10379489054613614 0.40776323962791317 0.041867998400419146
v -0.067756936695043235 0.23918723104275608 -0.081343512896101672
v -0.086288123484437373 0.32634085483302044 -0.054552407414737353
v -0.067084217567160903 0.20105444312033965 -0.089225099149703585
v -0.067242177745331033 0.21078097675643501 -0.087441880497769575
v -0.082958777605121908 0.31670134810640077 -0.057898362086944474
v -0.094899927028425202 0.36144770820521227 -0.038068138520422838
v -0.097209637147285879 0.37563955141061911 -0.027595853256817147
v -0.099468987977028231 0.38734499320583693 -0.014859696490734767
v -0.096112527021598365 0.36885518548210539 -0.033084962329304204
v -0.066646204586051278 0.17103444777449889 -0.094332597335634455
v -0.066545717596601522 0.16066371739801391 -0.095992830943864529
v -0.066458651204288413 0.15007158769113838 -0.097638616494044816
v -0.066117608899203956 0.094308813703590066 -0.10533912244032334
v -0.066122454957914634 0.10522023011201223 -0.10403287610458521
v -0.066131230640434191 0.060735984592016151 -0.10835629916386025
v -0.066130466016799991 0.072019143722410542 -0.10749097964119764
v -0.066053822099697845 0.049478744654034498 -0.10911587032438055
v -0.06583044035568697 0.017135646647208107 -0.11101842633060544
v -0.065755556375134042 0.0070844153801216236 -0.11152809333742489
v -0.06566891703763128 -0.0026957568176905868 -0.11198096429332571
v -0.065042024778336954 -0.04240255089080755 -0.11384207815619925
v -0.063941879149013836 -0.12679953538334182 -0.1137962544739588
v -0.064097836823095555 -0.16737369444368841 -0.10909847823197795
v -0.066775952162512947 -0.26138743770361883 -0.084017367227908479
v -0.07257004780446942 -0.29672974305634781 -0.071521588577959871
v -0.084559116710986343 -0.33848288041455743 -0.057787165852589362
v -0.086315216394111646 -0.34614030132359003 -0.054589093310759687
v -0.09030034673092352 -0.36847558256641511 -0.042690755312373208
v -0.096572808753442207 -0.40480317877753919 -0.002400687711846634
v -0.09861432588522126 -0.40987215723289278 0.014712760869974667
v -0.099746526482504455 -0.41088629936541987 0.023333021199081795
v -0.10413054260650972 -0.40804045909730391 0.055783514330212274
v -0.10203998055723118 -0.41052258571790112 0.040085001118853214
v -0.1062930357067883 -0.40390920537001412 0.073446418073854353
v -0.10674544761718202 -0.4014758473391179 0.081891096813276845
v -0.040418119984432413 -0.38824791953791615 0.137086232359309
v -0.10275469183645541 -0.39266995097727475 0.11394598653885679
v -0.09461394716631466 -0.38987734741108665 0.12840794115193768
v -0.050255192454086842 -0.38791171199445473 0.13753493086067908
v -0.069531132726671968 -0.38729634536962065 0.13752781633134584
v -0.030457429580823838 -0.38837321165848382 0.13653982779819746
v -0.010211003415719143 -0.38771486725366994 0.13561281067145309
v -0.049294797068193605 0.38899524868378477 0.1311624956074213
v -0.10228784754739369 0.40026578195664614 0.10438008219894887
v -0.098369302383366664 0.38182633338225846 -0.021563441158332929
v -0.099548042273770093 -0.39121979173819765 0.12155034005281687
v -0.067402727748811675 0.22039055436447411 -0.085562510091822933
v -0.066953751762639763 0.19120402147031884 -0.090956805864603335
v -0.068625503312255753 0.25735432759250243 -0.076433469014689753
v -0.066810152727986183 0.1812063894221746 -0.092657007348434156
v -0.10393450414371469 0.40829451113280102 0.049927228230027064
v -0.10482830443488579 -0.39446245185077727 0.10610906941828536
v -0.065953960039626031 0.027565561552974814 -0.11044863631271751
v -0.10679584523155783 -0.39905653989222478 0.090136570707456537
v -0.1052954346918569 -0.40606456078846753 0.064739300187150906
v -0.095605156457405388 -0.40066228703600076 -0.010557619404422514
v -0.064823205263992656 -0.052983297004859889 -0.11437911650947107
v -0.064425236726654012 -0.1966537628652793 -0.10425568270120804
v -0.064095728165199498 -0.10633461836034119 -0.11514162625507092
v -0.10343957444874061 0.40510220550829168 0.025286822210963684
v -0.10315259535109833 -0.40949639637719049 0.048072020200064403
v -0.064329491740919786 -0.18695566337569047 -0.106088192899564
v -0.071078152325255745 0.2766504973191744 -0.070514141905400743
v -0.064671726628637571 -0.063837350059108039 -0.1148854601432885
v -0.06433225508248841 -0.085996885192171468 -0.11547352946613693
v -0.064503381688906611 -0.074881989709956298 -0.11527241462532745
v -0.082523150199514506 -0.33056260426168849 -0.060774133748331363
v -0.064203579277622935 -0.0961675035665574 -0.11543608351147061
v -0.087790090549720687 -0.35354414185880789 -0.051129856035010912
v -0.064236061149823859 -0.17721037519536001 -0.10767881628093529
v -0.065560403725850952 -0.012379599572515994 -0.11240607683773762
v -0.089045088769641748 -0.36071682447220488 -0.047344352827957348
v -0.065416619390335384 -0.022145834107186103 -0.11284184261403299
v -0.065216446452202509 -0.22531793265063324 -0.096923207925025262
v -0.077699890940444327 -0.31399422174360064 -0.066227274771365724
v -0.094641429422485143 -0.39555482807324271 -0.018242033165328131
v -0.064012922193951882 -0.1472924885801396 -0.1116794667598999
v -0.068829415258196885 -0.27907732424419501 -0.07749017767337657
v -0.076106423039747406 0.29701285211827388 -0.064119277105500638
v -0.065500557436518725 -0.23455579733339207 -0.093891460053418696
v -0.09773776946612904 0.39574335458973131 0.1213009681714613
v -0.066123008533041455 0.083231018828510278 -0.10649284815518376
v -0.066201380482675598 0.11679644404168418 -0.10250553705739426
v -0.070468230761008999 -0.28792210962696074 -0.074400826525622715
v -0.10237037743728326 0.3999582555643944 0.0084585921183869383
v -0.064036017897128275 -0.11654371304428073 -0.11459421497469222
v -0.067635980891966069 -0.27022686693550352 -0.080712200700965006
v -0.079464988749985643 0.30692698280692754 -0.061043930202200683
v -0.066316923587266915 0.1281445205734652 -0.10090799088057571
v -0.092633836551444734 -0.38305945190948865 -0.031786079564302766
v -0.091489429412134948 -0.37595662001929853 -0.037536655833935131
v -0.10055113418891568 0.39221102941308816 -0.0075526515568669992
v -0.10079600405681063 -0.4109710891906978 0.031834625797330846
v -0.093669874970633976 -0.38963741239952576 -0.025344976334302199
v -0.093421705133262242 0.35342843023939396 -0.042646379751250157
v -0.06639080124883201 0.13923669279988965 -0.099277400724160733
v -0.076036852679568473 0.38887723986315503 0.13254009704915407
v -0.064031893331587181 -0.13707116772621114 -0.11282740998035246
v -0.063951513757798728 -0.15740314589737547 -0.11041446903313965
v -0.089250368406815522 0.33576513350817572 -0.050934652851404104
v -0.091539117681009377 0.34483718081719561 -0.046904287942889818
v -0.018539788053025256 0.39283342540982302 0.12976475310124222
v -0.10302078823322387 0.40285793634775902 0.016846761517780764
v -0.080188004176439676 -0.32239160480778584 -0.063554643556712323
v -0.057982299723421053 0.38823447876596251 0.13198431014948675
v -0.066222175408780198 -0.25253409854902781 -0.087365763711206634
v -0.065803695187682615 -0.24361155145259661 -0.09067760138903988
v -0.020377980477014897 -0.38817311584931857 0.13606350322549854
v -0.05996851574325622 -0.38753692790419864 0.13771673549442648
v -0.075052158188253254 -0.30543252562973466 -0.068819257597353772
v -0.073231279491977691 0.28691729049092107 -0.067265538239606862
v -0.10616840041123729 -0.39665846387346815 0.098191996918579549
v -0.067558525210930684 0.22986789477712338 -0.083539216912784181
v -0.068078795204562809 0.24833869220829241 -0.078970979882077366
v -0.09753847854367384 -0.40785889077755555 0.0060880665283551492
v -0.066025796008574084 0.038376969349214737 -0.10981260160589618
v -0.10154172125536257 0.39641466527644686 0.00026834337387730194
v -0.10372404707200239 0.40676226417554584 0.033642676369331936
v -0.069593405291247773 0.26630973706248096 -0.073754915735053245
v -0.087350989287948683 -0.38851971915926475 0.13318811062736607
v -0.064911539473186675 -0.21588932289220775 -0.099687593812532421
v -0.064560341844631844 -0.20631129864814063 -0.10212028430522385
v -0.065239737554762534 -0.032128910388076248 -0.11331901974086604
v -0.078783572037987679 -0.38760782417869871 0.13611893661251073
v -0.0058998646196980128 0.39370471428947884 0.12991226191199989
v 0 0.27988856276005081 -0.1139606605033483
v 3.388131789017158e-19 0.25270708414888188 0.088737379147953294
v -0.074829622099629706 0.2566445561608568 0.10004414417809611
v -0.025416450930815116 0.25329602129346018 0.09060319892638935
v -0.082249608834252932 0.2562640528070092 0.099910967222740704
v -0.099816320415142323 0.2529245651407741 0.089866266559084723
v -0.10431039146636703 0.25132669123751755 0.067353884751322701
v -0.10238157141691361 0.25233870705245048 0.082986677550919763
v -0.10406501415138332 0.25115011357382977 0.059027787436869511
v -0.10319902820772309 0.25132254694946199 0.050567188787304929
v -0.10032238069264349 0.25240122783803443 0.033502895587232941
v -0.10185647553730398 0.25180631872021275 0.042058204154933762
v -0.096220358244705137 0.25424042554741888 0.016821176463177316
v -0.083134928692032414 0.25910196158536347 -0.023141425308853575
v -0.073163167302330689 0.26332639227905696 -0.056525704764479039
v -0.067982393881742972 0.26784841167259366 -0.081507671696262982
v -0.048632332257376287 0.2752923757995529 -0.11244831872954768
v -0.033222981624758993 0.27686040774007531 -0.11450867039806792
v -0.018765078487846719 0.27830270841388971 -0.11444970882649651
v -0.08912689526430706 0.25535293660781855 0.098344695609481989
v -0.067074374451751101 0.25653932757390696 0.099036717836255658
v -0.033965018868072988 0.25382054674088383 0.091892819210826149
v -0.042450336756802223 0.25453047740418955 0.093648106400461617
v -0.098309576362871132 0.25331449660326505 0.025024695971854534
v -0.071330817583853734 0.26475027044739996 -0.065183909909338894
v -0.059031336454556958 0.25605416486621779 0.097575849810640033
v -0.075279124855994251 0.26208291862005451 -0.047928133384861377
v -0.066358424074262665 0.26944790382314487 -0.089116146455542763
v -0.064254093787878691 0.27109749006603356 -0.096541049348200209
v -0.01689712693449303 0.25295515246853401 0.089657161804108571
v -0.077702033278494537 0.26100750594244959 -0.039484399885427013
v -0.025793760594365132 0.277598223791235 -0.11457735166435183
v -0.080293296456105945 0.26004477975248502 -0.031206452446380081
v -0.091504703730985973 0.25619483470346405 0.00064873400075499848
v -0.040919993620774392 0.27611484273674025 -0.11397308039940837
v -0.055828154239317349 0.27423857076698677 -0.10924354411200335
v -0.061245334042240682 0.2727743834195917 -0.10364540402408923
v -0.08882803785150245 0.25720359615482041 -0.0072895369186041503
v -0.085998543778108241 0.25818033784262229 -0.015188262429921322
v -0.095105755809896123 0.25416328740679289 0.094973190621147799
v -0.050824367618800867 0.25533414621853279 0.09561019352147665
v -0.093964033709262623 0.25520245540910097 0.0086856619361836106
v -0.10384528840191679 0.25173721953971595 0.075408276025591525
v -0.069593405291247773 0.26630973706248096 -0.073754915735053245
v -0.0084271601894952038 0.25278518003600337 0.089094830411786119
v -0.012180410741045837 0.2789232847314691 -0.11426580882401172
v -0.0059789460302068862 0.27944102113577174 -0.11409889994120415
l 25/25 24/24
l 24/24 23/23
l 23/23 8/8
l 8/8 7/7
l 7/7 15/15
l 15/15 6/6
l 6/6 17/17
l 17/17 5/5
l 5/5 18/18
l 18/18 4/4
l 4/4 12/12
l 12/12 19/19
l 19/19 16/16
l 16/16 22/22
l 22/22 3/3
l 3/3 20/20
l 20/20 11/11
l 11/11 2/2
l 2/2 14/14
l 14/14 1/1
l 1/1 13/13
l 13/13 21/21
l 21/21 9/9
l 9/9 10/10
l 48/48 47/47
l 47/47 46/46
l 46/46 39/39
l 39/39 26/26
l 26/26 37/37
l 37/37 44/44
l 44/44 40/40
l 40/40 27/27
l 27/27 28/28
l 28/28 45/45
l 45/45 29/29
l 29/29 42/42
l 42/42 30/30
l 30/30 41/41
l 41/41 31/31
l 31/31 38/38
l 38/38 32/32
l 32/32 36/36
l 36/36 33/33
l 33/33 34/34
l 34/34 35/35
l 35/35 43/43
l 91/91 92/92
l 92/92 67/67
l 67/67 76/76
l 76/76 75/75
l 75/75 64/64
l 64/64 61/61
l 61/61 79/79
l 79/79 58/58
l 58/58 56/56
l 56/56 55/55
l 55/55 80/80
l 80/80 51/51
l 51/51 50/50
l 50/50 89/89
l 89/89 78/78
l 78/78 49/49
l 49/49 52/52
l 52/52 74/74
l 74/74 90/90
l 90/90 54/54
l 54/54 72/72
l 72/72 87/87
l 87/87 53/53
l 53/53 88/88
l 88/88 77/77
l 77/77 59/59
l 59/59 81/81
l 81/81 62/62
l 62/62 63/63
l 63/63 66/66
l 66/66 82/82
l 82/82 71/71
l 71/71 86/86
l 86/86 68/68
l 68/68 65/65
l 65/65 85/85
l 85/85 60/60
l 60/60 69/69
l 69/69 84/84
l 84/84 70/70
l 70/70 83/83
l 83/83 73/73
l 73/73 57/57
l 57/57 93/93
l 93/93 94/94
l 94/94 95/95
l 137/137 140/140
l 140/140 139/139
l 139/139 136/136
l 136/136 131/131
l 131/131 113/113
l 113/113 134/134
l 134/134 112/112
l 112/112 129/129
l 129/129 111/111
l 111/111 117/117
l 117/117 132/132
l 132/132 119/119
l 119/119 110/110
l 110/110 121/121
l 121/121 122/122
l 122/122 109/109
l 109/109 108/108
l 108/108 107/107
l 107/107 106/106
l 106/106 123/123
l 123/123 126/126
l 126/126 104/104
l 104/104 124/124
l 124/124 101/101
l 101/101 128/128
l 128/128 133/133
l 133/133 103/103
l 103/103 100/100
l 100/100 114/114
l 114/114 118/118
l 118/118 115/115
l 115/115 116/116
l 116/116 125/125
l 125/125 99/99
l 99/99 120/120
l 120/120 98/98
l 98/98 130/130
l 130/130 97/97
l 97/97 96/96
l 96/96 135/135
l 135/135 127/127
l 127/127 102/102
l 102/102 138/138
l 138/138 105/105
l 184/184 176/176
l 176/176 175/175
l 175/175 160/160
l 160/160 159/159
l 159/159 180/180
l 180/180 158/158
l 158/158 167/167
l 167/167 179/179
l 179/179 168/168
l 168/168 157/157
l 157/157 170/170
l 170/170 156/156
l 156/156 155/155
l 155/155 154/154
l 154/154 171/171
l 171/171 153/153
l 153/153 152/152
l 152/152 163/163
l 163/163 165/165
l 165/165 151/151
l 151/151 162/162
l 162/162 150/150
l 150/150 149/149
l 149/149 161/161
l 161/161 164/164
l 164/164 182/182
l 182/182 148/148
l 148/148 166/166
l 166/166 147/147
l 147/147 146/146
l 146/146 145/145
l 145/145 178/178
l 178/178 174/174
l 174/174 172/172
l 172/172 173/173
l 173/173 144/144
l 144/144 181/181
l 181/181 141/141
l 141/141 177/177
l 177/177 142/142
l 142/142 169/169
l 169/169 143/143
l 143/143 183/183
l 324/324 325/325
l 325/325 186/186
l 186/186 301/301
l 301/301 190/190
l 190/190 188/188
l 188/188 185/185
l 185/185 242/242
l 242/242 304/304
l 304/304 187/187
l 187/187 296/296
l 296/296 189/189
l 189/189 191/191
l 191/191 280/280
l 280/280 192/192
l 192/192 243/243
l 243/243 193/193
l 193/193 194/194
l 194/194 195/195
l 195/195 196/196
l 196/196 197/197
l 197/197 250/250
l 250/250 198/198
l 198/198 317/317
l 317/317 259/259
l 259/259 302/302
l 302/302 284/284
l 284/284 316/316
l 316/316 291/291
l 291/291 206/206
l 206/206 244/244
l 244/244 205/205
l 205/205 207/207
l 207/207 204/204
l 204/204 294/294
l 294/294 300/300
l 300/300 299/299
l 299/299 200/200
l 200/200 203/203
l 203/203 287/287
l 287/287 278/278
l 278/278 310/310
l 310/310 262/262
l 262/262 318/318
l 318/318 248/248
l 248/248 313/313
l 313/313 199/199
l 199/199 312/312
l 312/312 246/246
l 246/246 202/202
l 202/202 201/201
l 201/201 247/247
l 247/247 249/249
l 249/249 208/208
l 208/208 209/209
l 209/209 210/210
l 210/210 295/295
l 295/295 288/288
l 288/288 282/282
l 282/282 212/212
l 212/212 211/211
l 211/211 281/281
l 281/281 214/214
l 214/214 213/213
l 213/213 215/215
l 215/215 315/315
l 315/315 252/252
l 252/252 216/216
l 216/216 217/217
l 217/217 218/218
l 218/218 270/270
l 270/270 272/272
l 272/272 322/322
l 322/322 219/219
l 219/219 256/256
l 256/256 263/263
l 263/263 265/265
l 265/265 264/264
l 264/264 267/267
l 267/267 258/258
l 258/258 285/285
l 285/285 220/220
l 220/220 297/297
l 297/297 276/276
l 276/276 298/298
l 298/298 221/221
l 221/221 269/269
l 269/269 261/261
l 261/261 257/257
l 257/257 321/321
l 321/321 320/320
l 320/320 273/273
l 273/273 279/279
l 279/279 306/306
l 306/306 305/305
l 305/305 222/222
l 222/222 286/286
l 286/286 277/277
l 277/277 283/283
l 283/283 223/223
l 223/223 309/309
l 309/309 274/274
l 274/274 303/303
l 303/303 266/266
l 266/266 224/224
l 224/224 225/225
l 225/225 268/268
l 268/268 271/271
l 271/271 226/226
l 226/226 290/290
l 290/290 289/289
l 289/289 293/293
l 293/293 275/275
l 275/275 255/255
l 255/255 227/227
l 227/227 314/314
l 314/314 228/228
l 228/228 229/229
l 229/229 292/292
l 292/292 231/231
l 231/231 260/260
l 260/260 230/230
l 230/230 254/254
l 254/254 232/232
l 232/232 233/233
l 233/233 253/253
l 253/253 311/311
l 311/311 251/251
l 251/251 236/236
l 236/236 245/245
l 245/245 237/237
l 237/237 319/319
l 319/319 323/323
l 323/323 239/239
l 239/239 308/308
l 308/308 238/238
l 238/238 234/234
l 234/234 240/240
l 240/240 307/307
l 307/307 241/241
l 241/241 235/235
l 368/368 372/372
l 372/372 371/371
l 371/371 342/342
l 342/342 355/355
l 355/355 341/341
l 341/341 358/358
l 358/358 340/340
l 340/340 359/359
l 359/359 360/360
l 360/360 352/352
l 352/352 351/351
l 351/351 339/339
l 339/339 367/367
l 367/367 348/348
l 348/348 338/338
l 338/338 350/350
l 350/350 354/354
l 354/354 356/356
l 356/356 337/337
l 337/337 362/362
l 362/362 361/361
l 361/361 357/357
l 357/357 365/365
l 365/365 336/336
l 336/336 347/347
l 347/347 334/334
l 334/334 335/335
l 335/335 333/333
l 333/333 332/332
l 332/332 330/330
l 330/330 366/366
l 366/366 331/331
l 331/331 329/329
l 329/329 363/363
l 363/363 343/343
l 343/343 328/328
l 328/328 326/326
l 326/326 344/344
l 344/344 349/349
l 349/349 364/364
l 364/364 346/346
l 346/346 345/345
l 345/345 327/327
l 327/327 353/353
l 353/353 370/370
l 370/370 369/369
l 373/373 645/645
l 373/373 700/700
l 374/374 501/501
l 374/374 684/684
l 375/375 657/657
l 375/375 676/676
l 376/376 404/404
l 376/376 505/505
l 377/377 430/430
l 377/377 643/643
l 378/378 432/432
l 378/378 433/433
l 379/379 485/485
l 379/379 508/508
l 380/380 439/439
l 380/380 510/510
l 381/381 445/445
l 381/381 644/644
l 382/382 447/447
l 382/382 622/622
l 383/383 635/635
l 383/383 669/669
l 384/384 460/460
l 384/384 532/532
l 385/385 408/408
l 385/385 488/488
l 386/386 550/550
l 386/386 696/696
l 387/387 388/388
l 387/387 685/685
l 388/388 390/390
l 389/389 399/399
l 389/389 686/686
l 390/390 536/536
l 391/391 406/406
l 391/391 543/543
l 392/392 402/402
l 392/392 447/447
l 393/393 480/480
l 393/393 711/711
l 394/394 602/602
l 394/394 704/704
l 395/395 630/630
l 395/395 687/687
l 396/396 571/571
l 396/396 639/639
l 397/397 577/577
l 397/397 705/705
l 398/398 444/444
l 398/398 445/445
l 399/399 646/646
l 400/400 673/673
l 400/400 710/710
l 401/401 538/538
l 401/401 697/697
l 402/402 585/585
l 403/403 610/610
l 403/403 649/649
l 404/404 650/650
l 405/405 412/412
l 405/405 498/498
l 406/406 559/559
l 407/407 561/561
l 407/407 659/659
l 408/408 460/460
l 409/409 496/496
l 409/409 560/560
l 410/410 609/609
l 410/410 620/620
l 411/411 558/558
l 411/411 675/675
l 412/412 561/561
l 413/413 415/415
l 413/413 558/558
l 414/414 659/659
l 414/414 660/660
l 415/415 621/621
l 416/416 601/601
l 416/416 660/660
l 417/417 621/621
l 417/417 661/661
l 418/418 628/628
l 418/418 661/661
l 419/419 662/662
l 419/419 684/684
l 420/420 657/657
l 420/420 663/663
l 421/421 422/422
l 421/421 642/642
l 422/422 573/573
l 423/423 641/641
l 423/423 642/642
l 424/424 572/572
l 424/424 641/641
l 425/425 572/572
l 425/425 606/606
l 426/426 504/504
l 426/426 602/602
l 427/427 664/664
l 427/427 706/706
l 428/428 429/429
l 428/428 612/612
l 429/429 652/652
l 430/430 677/677
l 431/431 434/434
l 431/431 435/435
l 432/432 509/509
l 433/433 438/438
l 434/434 438/438
l 435/435 436/436
l 436/436 665/665
l 437/437 665/665
l 437/437 702/702
l 439/439 511/511
l 440/440 442/442
l 440/440 699/699
l 441/441 442/442
l 441/441 694/694
l 443/443 666/666
l 443/443 699/699
l 444/444 583/583
l 446/446 622/622
l 446/446 648/648
l 448/448 584/584
l 448/448 618/618
l 449/449 667/667
l 449/449 692/692
l 450/450 527/527
l 450/450 528/528
l 451/451 563/563
l 451/451 568/568
l 452/452 668/668
l 452/452 679/679
l 453/453 455/455
l 453/453 634/634
l 454/454 623/623
l 454/454 680/680
l 455/455 623/623
l 456/456 640/640
l 456/456 669/669
l 457/457 458/458
l 457/457 603/603
l 458/458 459/459
l 459/459 555/555
l 461/461 533/533
l 461/461 619/619
l 462/462 488/488
l 462/462 570/570
l 463/463 624/624
l 463/463 625/625
l 464/464 536/536
l 464/464 537/537
l 465/465 636/636
l 465/465 670/670
l 466/466 468/468
l 466/466 599/599
l 467/467 468/468
l 467/467 470/470
l 469/469 471/471
l 469/469 479/479
l 470/470 479/479
l 471/471 474/474
l 472/472 670/670
l 472/472 671/671
l 473/473 671/671
l 473/473 708/708
l 474/474 482/482
l 475/475 542/542
l 475/475 545/545
l 476/476 588/588
l 476/476 682/682
l 477/477 578/578
l 477/477 658/658
l 478/478 672/672
l 478/478 682/682
l 480/480 493/493
l 481/481 482/482
l 481/481 541/541
l 483/483 595/595
l 483/483 651/651
l 484/484 597/597
l 484/484 691/691
l 485/485 510/510
l 486/486 543/543
l 486/486 593/593
l 487/487 656/656
l 487/487 711/711
l 489/489 658/658
l 489/489 674/674
l 490/490 504/504
l 490/490 688/688
l 491/491 612/612
l 491/491 629/629
l 492/492 626/626
l 492/492 627/627
l 493/493 627/627
l 494/494 616/616
l 494/494 626/626
l 495/495 557/557
l 495/495 560/560
l 496/496 654/654
l 497/497 620/620
l 497/497 675/675
l 498/498 605/605
l 499/499 628/628
l 499/499 683/683
l 500/500 502/502
l 500/500 645/645
l 501/501 663/663
l 502/502 573/573
l 503/503 676/676
l 503/503 688/688
l 505/505 664/664
l 506/506 629/629
l 506/506 704/704
l 507/507 630/630
l 507/507 677/677
l 508/508 598/598
l 509/509 631/631
l 511/511 666/666
l 512/512 567/567
l 512/512 604/604
l 513/513 638/638
l 513/513 678/678
l 514/514 616/616
l 514/514 678/678
l 515/515 516/516
l 515/515 569/569
l 516/516 574/574
l 517/517 518/518
l 517/517 617/617
l 518/518 519/519
l 519/519 521/521
l 520/520 521/521
l 520/520 522/522
l 522/522 692/692
l 523/523 524/524
l 523/523 527/527
l 524/524 667/667
l 525/525 632/632
l 525/525 653/653
l 526/526 632/632
l 526/526 633/633
l 528/528 655/655
l 529/529 634/634
l 529/529 655/655
l 530/530 679/679
l 530/530 690/690
l 531/531 635/635
l 531/531 690/690
l 532/532 640/640
l 533/533 534/534
l 534/534 625/625
l 535/535 686/686
l 535/535 695/695
l 537/537 559/559
l 538/538 647/647
l 539/539 681/681
l 539/539 697/697
l 540/540 636/636
l 540/540 681/681
l 541/541 607/607
l 542/542 674/674
l 544/544 637/637
l 544/544 703/703
l 545/545 637/637
l 546/546 553/553
l 546/546 592/592
l 547/547 631/631
l 547/547 707/707
l 548/548 553/553
l 548/548 701/701
l 549/549 685/685
l 549/549 696/696
l 550/550 570/570
l 551/551 650/650
l 551/551 687/687
l 552/552 639/639
l 552/552 694/694
l 554/554 643/643
l 554/554 693/693
l 555/555 579/579
l 556/556 581/581
l 556/556 624/624
l 557/557 564/564
l 562/562 654/654
l 562/562 689/689
l 563/563 668/668
l 564/564 605/605
l 565/565 652/652
l 565/565 691/691
l 566/566 567/567
l 566/566 698/698
l 568/568 653/653
l 569/569 617/617
l 571/571 693/693
l 574/574 575/575
l 575/575 577/577
l 576/576 644/644
l 576/576 705/705
l 578/578 672/672
l 579/579 619/619
l 580/580 647/647
l 580/580 673/673
l 581/581 695/695
l 582/582 633/633
l 582/582 709/709
l 583/583 604/604
l 584/584 613/613
l 585/585 618/618
l 586/586 649/649
l 586/586 698/698
l 587/587 608/608
l 587/587 648/648
l 588/588 607/607
l 589/589 683/683
l 589/589 712/712
l 590/590 700/700
l 590/590 712/712
l 591/591 592/592
l 591/591 638/638
l 593/593 703/703
l 594/594 651/651
l 594/594 701/701
l 595/595 596/596
l 596/596 597/597
l 598/598 702/702
l 599/599 708/708
l 600/600 601/601
l 600/600 611/611
l 603/603 680/680
l 606/606 706/706
l 608/608 615/615
l 609/609 689/689
l 610/610 707/707
l 611/611 662/662
l 613/613 709/709
l 614/614 646/646
l 614/614 710/710
l 615/615 656/656
l 714/714 737/737
l 737/737 736/736
l 736/736 722/722
l 722/722 721/721
l 721/721 728/728
l 728/728 720/720
l 720/720 730/730
l 730/730 719/719
l 719/719 731/731
l 731/731 718/718
l 718/718 725/725
l 725/725 732/732
l 732/732 729/729
l 729/729 735/735
l 735/735 717/717
l 717/717 733/733
l 733/733 724/724
l 724/724 716/716
l 716/716 727/727
l 727/727 715/715
l 715/715 726/726
l 726/726 734/734
l 734/734 723/723
l 723/723 713/713
l 739/739 760/760
l 760/760 759/759
l 759/759 753/753
l 753/753 740/740
l 740/740 751/751
l 751/751 757/757
l 757/757 754/754
l 754/754 741/741
l 741/741 742/742
l 742/742 758/758
l 758/758 743/743
l 743/743 756/756
l 756/756 744/744
l 744/744 755/755
l 755/755 745/745
l 745/745 752/752
l 752/752 746/746
l 746/746 750/750
l 750/750 747/747
l 747/747 748/748
l 748/748 749/749
l 749/749 738/738
l 761/761 805/805
l 805/805 781/781
l 781/781 790/790
l 790/790 789/789
l 789/789 778/778
l 778/778 775/775
l 775/775 793/793
l 793/793 772/772
l 772/772 770/770
l 770/770 769/769
l 769/769 794/794
l 794/794 765/765
l 765/765 764/764
l 764/764 803/803
l 803/803 792/792
l 792/792 763/763
l 763/763 766/766
l 766/766 788/788
l 788/788 804/804
l 804/804 768/768
l 768/768 786/786
l 786/786 801/801
l 801/801 767/767
l 767/767 802/802
l 802/802 791/791
l 791/791 773/773
l 773/773 795/795
l 795/795 776/776
l 776/776 777/777
l 777/777 780/780
l 780/780 796/796
l 796/796 785/785
l 785/785 800/800
l 800/800 782/782
l 782/782 779/779
l 779/779 799/799
l 799/799 774/774
l 774/774 783/783
l 783/783 798/798
l 798/798 784/784
l 784/784 797/797
l 797/797 787/787
l 787/787 771/771
l 771/771 806/806
l 806/806 807/807
l 807/807 762/762
l 809/809 852/852
l 852/852 851/851
l 851/851 849/849
l 849/849 844/844
l 844/844 826/826
l 826/826 847/847
l 847/847 825/825
l 825/825 842/842
l 842/842 824/824
l 824/824 830/830
l 830/830 845/845
l 845/845 832/832
l 832/832 823/823
l 823/823 834/834
l 834/834 835/835
l 835/835 822/822
l 822/822 821/821
l 821/821 820/820
l 820/820 819/819
l 819/819 836/836
l 836/836 839/839
l 839/839 818/818
l 818/818 837/837
l 837/837 815/815
l 815/815 841/841
l 841/841 846/846
l 846/846 817/817
l 817/817 814/814
l 814/814 827/827
l 827/827 831/831
l 831/831 828/828
l 828/828 829/829
l 829/829 838/838
l 838/838 813/813
l 813/813 833/833
l 833/833 812/812
l 812/812 843/843
l 843/843 811/811
l 811/811 810/810
l 810/810 848/848
l 848/848 840/840
l 840/840 816/816
l 816/816 850/850
l 850/850 808/808
l 854/854 890/890
l 890/890 889/889
l 889/889 874/874
l 874/874 873/873
l 873/873 894/894
l 894/894 872/872
l 872/872 881/881
l 881/881 893/893
l 893/893 882/882
l 882/882 871/871
l 871/871 884/884
l 884/884 870/870
l 870/870 869/869
l 869/869 868/868
l 868/868 885/885
l 885/885 867/867
l 867/867 866/866
l 866/866 877/877
l 877/877 879/879
l 879/879 865/865
l 865/865 876/876
l 876/876 864/864
l 864/864 863/863
l 863/863 875/875
l 875/875 878/878
l 878/878 896/896
l 896/896 862/862
l 862/862 880/880
l 880/880 861/861
l 861/861 860/860
l 860/860 859/859
l 859/859 892/892
l 892/892 888/888
l 888/888 886/886
l 886/886 887/887
l 887/887 858/858
l 858/858 895/895
l 895/895 855/855
l 855/855 891/891
l 891/891 856/856
l 856/856 883/883
l 883/883 857/857
l 857/857 853/853
l 898/898 1037/1037
l 1037/1037 900/900
l 900/900 1014/1014
l 1014/1014 904/904
l 904/904 902/902
l 902/902 899/899
l 899/899 955/955
l 955/955 1017/1017
l 1017/1017 901/901
l 901/901 1009/1009
l 1009/1009 903/903
l 903/903 905/905
l 905/905 993/993
l 993/993 906/906
l 906/906 956/956
l 956/956 907/907
l 907/907 908/908
l 908/908 909/909
l 909/909 910/910
l 910/910 911/911
l 911/911 963/963
l 963/963 912/912
l 912/912 1030/1030
l 1030/1030 972/972
l 972/972 1015/1015
l 1015/1015 997/997
l 997/997 1029/1029
l 1029/1029 1004/1004
l 1004/1004 920/920
l 920/920 957/957
l 957/957 919/919
l 919/919 921/921
l 921/921 918/918
l 918/918 1007/1007
l 1007/1007 1013/1013
l 1013/1013 1012/1012
l 1012/1012 914/914
l 914/914 917/917
l 917/917 1000/1000
l 1000/1000 991/991
l 991/991 1023/1023
l 1023/1023 975/975
l 975/975 1031/1031
l 1031/1031 961/961
l 961/961 1026/1026
l 1026/1026 913/913
l 913/913 1025/1025
l 1025/1025 959/959
l 959/959 916/916
l 916/916 915/915
l 915/915 960/960
l 960/960 962/962
l 962/962 922/922
l 922/922 923/923
l 923/923 924/924
l 924/924 1008/1008
l 1008/1008 1001/1001
l 1001/1001 995/995
l 995/995 926/926
l 926/926 925/925
l 925/925 994/994
l 994/994 928/928
l 928/928 927/927
l 927/927 929/929
l 929/929 1028/1028
l 1028/1028 965/965
l 965/965 930/930
l 930/930 931/931
l 931/931 932/932
l 932/932 983/983
l 983/983 985/985
l 985/985 1035/1035
l 1035/1035 933/933
l 933/933 969/969
l 969/969 976/976
l 976/976 978/978
l 978/978 977/977
l 977/977 980/980
l 980/980 971/971
l 971/971 998/998
l 998/998 934/934
l 934/934 1010/1010
l 1010/1010 989/989
l 989/989 1011/1011
l 1011/1011 935/935
l 935/935 982/982
l 982/982 974/974
l 974/974 970/970
l 970/970 1034/1034
l 1034/1034 1033/1033
l 1033/1033 986/986
l 986/986 992/992
l 992/992 1019/1019
l 1019/1019 1018/1018
l 1018/1018 936/936
l 936/936 999/999
l 999/999 990/990
l 990/990 996/996
l 996/996 937/937
l 937/937 1022/1022
l 1022/1022 987/987
l 987/987 1016/1016
l 1016/1016 979/979
l 979/979 938/938
l 938/938 939/939
l 939/939 981/981
l 981/981 984/984
l 984/984 940/940
l 940/940 1003/1003
l 1003/1003 1002/1002
l 1002/1002 1006/1006
l 1006/1006 988/988
l 988/988 968/968
l 968/968 941/941
l 941/941 1027/1027
l 1027/1027 942/942
l 942/942 943/943
l 943/943 1005/1005
l 1005/1005 945/945
l 945/945 973/973
l 973/973 944/944
l 944/944 967/967
l 967/967 946/946
l 946/946 947/947
l 947/947 966/966
l 966/966 1024/1024
l 1024/1024 964/964
l 964/964 949/949
l 949/949 958/958
l 958/958 950/950
l 950/950 1032/1032
l 1032/1032 1036/1036
l 1036/1036 952/952
l 952/952 1021/1021
l 1021/1021 951/951
l 951/951 948/948
l 948/948 953/953
l 953/953 1020/1020
l 1020/1020 954/954
l 954/954 897/897
l 1038/1038 1084/1084
l 1084/1084 1083/1083
l 1083/1083 1056/1056
l 1056/1056 1069/1069
l 1069/1069 1055/1055
l 1055/1055 1072/1072
l 1072/1072 1054/1054
l 1054/1054 1073/1073
l 1073/1073 1074/1074
l 1074/1074 1066/1066
l 1066/1066 1065/1065
l 1065/1065 1053/1053
l 1053/1053 1081/1081
l 1081/1081 1062/1062
l 1062/1062 1052/1052
l 1052/1052 1064/1064
l 1064/1064 1068/1068
l 1068/1068 1070/1070
l 1070/1070 1051/1051
l 1051/1051 1076/1076
l 1076/1076 1075/1075
l 1075/1075 1071/1071
l 1071/1071 1079/1079
l 1079/1079 1050/1050
l 1050/1050 1061/1061
l 1061/1061 1048/1048
l 1048/1048 1049/1049
l 1049/1049 1047/1047
l 1047/1047 1046/1046
l 1046/1046 1044/1044
l 1044/1044 1080/1080
l 1080/1080 1045/1045
l 1045/1045 1043/1043
l 1043/1043 1077/1077
l 1077/1077 1057/1057
l 1057/1057 1042/1042
l 1042/1042 1040/1040
l 1040/1040 1058/1058
l 1058/1058 1063/1063
l 1063/1063 1078/1078
l 1078/1078 1060/1060
l 1060/1060 1059/1059
l 1059/1059 1041/1041
l 1041/1041 1067/1067
l 1067/1067 1082/1082
l 1082/1082 1039/1039
