v 0.085696499999999995 -0.23614054000000001 0.51721649999999997
v 0.26211649999999997 -0.23614054000000001 0.4416235
v 0.44952150000000002 -0.23614054000000001 0.18211749999999999
v 0.46588550000000001 -0.23614054000000001 0.0787775
v 0.46358949999999999 -0.23614054000000001 -0.0110075
v 0.41777449999999999 -0.23614054000000001 -0.15577350000000001
v 0.36694650000000001 -0.23614054000000001 -0.2359155
v 0.26069350000000002 -0.23614054000000001 -0.3352195
v 0.32410650000000002 -0.23614054000000001 -0.28366550000000001
v 0.11309950000000001 -0.23614054000000001 -0.40168549999999997
v 0.1857905 -0.23614054000000001 -0.37682650000000001
v 0.1494595 -0.23614054000000001 -0.39104450000000002
v 0.46700750000000002 -0.23614054000000001 0.031486500000000001
v 0.45671650000000003 -0.23614054000000001 -0.050791500000000003
v 0.34592250000000002 -0.23614054000000001 -0.26212950000000002
v 0.2234515 -0.23614054000000001 -0.35814750000000001
v 0.12375650000000001 -0.23614054000000001 0.50837449999999995
v 0.40101750000000003 -0.23614054000000001 0.29580650000000003
v 0.45949250000000003 -0.23614054000000001 0.13181950000000001
v 0.29517749999999998 -0.23614054000000001 -0.3089865
v 0.36737150000000002 -0.23614054000000001 0.3469835
v 0.33559050000000001 -0.23614054000000001 -0.27283449999999998
v 0.46579549999999997 -0.23614054000000001 0.0097984999999999999
v 0.1880975 -0.23614054000000001 0.48264849999999998
v 0.43029050000000002 -0.23614054000000001 0.23975050000000001
v 0.45482349999999999 -0.23614054000000001 0.15794050000000001
v 0.37824449999999998 -0.23614054000000001 0.33184950000000002
v 0.3105155 -0.23614054000000001 -0.29591450000000002
v 0.16429350000000001 -0.23614054000000001 0.49353049999999998
v 0.094322500000000004 -0.23614054000000001 -0.40599750000000001
v 0.075176499999999993 -0.23614054000000001 -0.40962850000000001
v 0.31794549999999999 -0.23614054000000001 0.3994375
v 0.43753249999999999 -0.23614054000000001 0.22194249999999999
v 0.16751150000000001 -0.23614054000000001 -0.3844495
v 0.45223449999999998 -0.23614054000000001 -0.069518499999999997
v 0.2045315 -0.23614054000000001 -0.36804249999999999
v 0.020969499999999999 -0.23614054000000001 0.52511850000000004
v 0.1049375 -0.23614054000000001 0.51330450000000005
v 0.28311950000000002 -0.23614054000000001 0.4272975
v 0.38962550000000001 -0.23614054000000001 0.31451449999999997
v 0.40594649999999999 -0.23614054000000001 -0.17626849999999999
v 0.42737550000000002 -0.23614054000000001 -0.13743649999999999
v 0.055772500000000003 -0.23614054000000001 -0.41252450000000002
v 0.46708450000000001 -0.23614054000000001 0.054374499999999999
v 0.46053250000000001 -0.23614054000000001 -0.0312465
v 0.35605550000000002 -0.23614054000000001 -0.25025449999999999
v 0.016619499999999999 -0.23614054000000001 -0.4158945
v 0.1431935 -0.23614054000000001 0.50194450000000002
v 0.23837050000000001 -0.23614054000000001 0.45605250000000003
v 0.4632675 -0.23614054000000001 0.10501149999999999
v 0.37954850000000001 -0.23614054000000001 -0.2178185
v 0.27845049999999999 -0.23614054000000001 -0.3222875
v 0.44164049999999999 -0.23614054000000001 -0.1040065
v 0.064989500000000006 -0.23614054000000001 0.52059549999999999
v 0.41192250000000002 -0.23614054000000001 0.27655750000000001
v 0.2132435 -0.23614054000000001 0.46994150000000001
v 0.2422665 -0.23614054000000001 -0.34718949999999998
v 0.34494550000000002 -0.23614054000000001 0.37343349999999997
v 0.42184650000000001 -0.23614054000000001 0.25759549999999998
v 0.30164150000000001 -0.23614054000000001 0.41319549999999999
v 0.043264499999999997 -0.23614054000000001 0.52328249999999998
v 0.1314005 -0.23614054000000001 -0.39674549999999997
v 0.22580700000000001 -0.23614054000000001 0.46299699999999999
v 0.35645549999999998 -0.23614054000000001 0.3606125
v 0.2006705 -0.23614054000000001 0.47629500000000002
v 0.39287650000000002 -0.23614054000000001 -0.19744349999999999
v 0.46138000000000001 -0.23614054000000001 0.11841550000000001
v 0.4351855 -0.23614054000000001 -0.1204505
v 0.036216499999999999 -0.23614054000000001 -0.41463050000000001
v 0.33229249999999999 -0.23614054000000001 0.38614349999999997
v 0.25024350000000001 -0.23614054000000001 0.44883800000000001
v 0.44385049999999998 -0.23614054000000001 0.20309150000000001
v 0.44717849999999998 -0.23614054000000001 -0.087298500000000001
v 0.44440950000000001 -0.23614054000000001 -0.095652500000000001
v 0.010484749999999999 -0.23614054000000001 0.52550483195788922
v 0.37280800000000003 -0.23614054000000001 0.33941650000000001
v 0.38393500000000003 -0.23614054000000001 0.32318199999999997
v 0.32984849999999999 -0.23614054000000001 -0.27825
v 0.31731100000000001 -0.23614054000000001 -0.28978999999999999
v 0.026417999999999997 -0.23614054000000001 -0.41526249999999998
v 0.46232375000000003 -0.23614054000000001 0.11171349999999999
v 0.0083097499999999994 -0.23614054000000001 -0.41612525423309366
v 0.206957 -0.23614054000000001 0.47311825000000002
v 0.35070049999999997 -0.23614054000000001 0.36702299999999999
v 0.438413 -0.23614054000000001 -0.11222850000000001
v 0.34075650000000002 -0.23614054000000001 -0.267482
v 0.338619 -0.23614054000000001 0.37978849999999997
v 0.21952525000000001 -0.23614054000000001 0.46646925
v 0.46043624999999999 -0.23614054000000001 0.12511749999999999
v 0.45217249999999998 -0.23614054000000001 0.17002899999999999
v 0.032117 -0.23614054000000001 0.52420050000000007
v 0.45361558624817294 -0.12193261650502785 0.060557637579190998
v 0.46588550000000001 -0.23614054000000001 0.0787775
v 0.52399217431410861 -0.23614054000000007 0.073946920935572327
v 0.59270092071526137 -0.23614054000000001 0.079464560964115888
v 0.68791350000000018 -0.23614054000000001 0.086003499999999997
v 0.036433461606649918 0.23311676200185261 0.032057122967737273
v 0.087465330076895942 0.22605635330042795 0.033417122192228046
v 0.14895172067075657 0.2096015519859146 0.03335844872358136
v 0.21139735860255676 0.18305768839330205 0.033028231833728508
v 0.27035244986406304 0.1471780665657646 0.032988660527328642
v 0.32358553738558643 0.10283279884449451 0.033492771712548719
v 0.36885875609630631 0.052358115669828967 0.035604206477485828
v 0.40444861783920083 1.8489031054825925e-05 0.041579492067759696
v 0.43051313343969799 -0.051726713231128249 0.05111119859369008
v 0.44338656839544843 -0.086644481517861333 0.05674387496726644
v 0.46081261186250677 -0.15670343482046767 0.063659234475635318
v 0.46479427329034695 -0.18975574805301959 0.068096754367527934
v 0.45759148633594449 -0.13947430277757067 0.06207061233103886
v 0.46328984745121748 -0.17347583560244789 0.065603433060241717
v 0.41422875525028047 -0.01721556038853039 0.044561960995781358
v 0.49526221725707009 -0.23614054000000001 0.075169309648580707
v 0.068771525572270245 0.22930713341513975 0.033159429642900945
v 0.051677109414171016 0.23160266442403166 0.032703853439682913
v 0.12797386923390569 0.21623232705547146 0.03346478269776812
v 0.10734877780573163 0.22172118939127383 0.033502585521200959
v 0.19083484947804769 0.19297160788800344 0.033116390031876677
v 0.1699758719774126 0.20183734704024184 0.033231710309416337
v 0.2512298043906665 0.16013055500585954 0.032960453984210332
v 0.23155471943313988 0.17210110737541273 0.032975229933952355
v 0.30660416892441872 0.11845015131329674 0.033228253897998869
v 0.28883264666354724 0.13325987158302102 0.033071635116710157
v 0.35479001093056856 0.069621524019708392 0.03459133039481628
v 0.3396686923197787 0.08649997668297936 0.033921269864973638
v 0.39365958065317808 0.017397446799621005 0.039053369578460236
v 0.38180996804777362 0.034886122444765258 0.037065831220752146
v 0.42290472373071764 -0.034431560268497433 0.047825435995535875
v 0.43732356541035122 -0.069109983740041209 0.054147249869333711
v 0.44889807830104034 -0.10425980815917263 0.058854947472185365
v 0.65352178129028493 -0.23614054000000001 0.083879865356086908
v 0.56537444451888863 -0.23614054000000007 0.076666903600976249
v 0.62162244600800842 -0.23614054000000012 0.081839774991524256
v 0.55176666140672836 -0.23614054000000012 0.075370851135731248
v 0.57895389110769124 -0.23614054000000001 0.078083524260923437
v 0.50973897686482983 -0.23614054000000001 0.074187265490102572
v 0.48061843808745885 -0.23614054000000001 0.076788276576296471
v 0.46571163197724913 -0.22095049823134413 0.074828177349220121
v 0.67053069433341284 -0.23614054000000001 0.084923883076101908
v 0.63717273119990336 -0.23614054000000012 0.082868708944010508
v 0.60684913583441547 -0.23614054000000007 0.080721088852765244
v 0.46555210636101141 -0.20554480740678885 0.071199877024261671
v 0.5379960586706114 -0.23614054000000012 0.074395230019828729
v 0.023023676519933485 0.23408023377898535 0.031253800345148387
v 0.011096201994893383 0.23467400223396745 0.03034824824319679
v 1.6263032587282562e-19 0.23508831301978783 0.029394372513141462
v 0.68791349999999996 -0.23614054000000001 0.51593549999999999
v 0.68791349999999996 -0.23614054000000001 0.42994549999999998
v 0.68791349999999996 -0.23614054000000001 0.3439565
v 0.68791349999999996 -0.23614054000000001 0.25796750000000002
v 0.68791349999999996 -0.23614054000000001 0.17199249999999999
v 0.68791350000000018 -0.23614054000000001 0.086003499999999997
v 0.68791349999999996 -0.23614054000000001 1.3499999999999999e-05
v 0.68791349999999996 -0.23614054000000001 -0.085989499999999996
v 0.68791349999999996 -0.23614054000000001 -0.17197850000000001
v 0.68791349999999996 -0.23614054000000001 -0.25796750000000002
v 0.68791349999999996 -0.23614054000000001 -0.3439565
v 0.68791349999999996 -0.23614054000000001 -0.42994549999999998
v 0.68791349999999996 -0.23614054000000001 -0.51593449999999996
v 0.68791349999999996 -0.23614054000000001 -0.60192449999999997
v 0.68791349999999996 -0.23614054000000001 -0.68791349999999996
v 0.60192449999999997 -0.23614054000000001 -0.68791349999999996
v 0.51593549999999999 -0.23614054000000001 -0.68791349999999996
v 0.42994650000000001 -0.23614054000000001 -0.68791349999999996
v 0.34395750000000003 -0.23614054000000001 -0.68791349999999996
v 0.25796750000000002 -0.23614054000000001 -0.68791349999999996
v 0.17197850000000001 -0.23614054000000001 -0.68791349999999996
v 0.085920499999999997 -0.23614054000000001 -0.68791349999999996
v 0 -0.23614054000000001 -0.68791349999999996
v 0 -0.23614054000000001 0.68791349999999996
v 0.085920499999999997 -0.23614054000000001 0.68791349999999996
v 0.17197850000000001 -0.23614054000000001 0.68791349999999996
v 0.25796750000000002 -0.23614054000000001 0.68791349999999996
v 0.34395750000000003 -0.23614054000000001 0.68791349999999996
v 0.42994650000000001 -0.23614054000000001 0.68791349999999996
v 0.51593549999999999 -0.23614054000000001 0.68791349999999996
v 0.60192449999999997 -0.23614054000000001 0.68791349999999996
v 0.68791349999999996 -0.23614054000000001 0.68791349999999996
v 0.68791349999999996 -0.23614054000000001 0.60192449999999997
v 0 0.1216710794132406 0.36163588330579266
v 1.7347234759768071e-18 -0.19403856299030642 0.5240560334267671
v 3.2526065174565692e-19 0.13745984350198154 0.34227294942612763
v 3.8518598887744709e-34 0.23582017572173833 0.067584226554800564
v -4.6078592330638233e-19 0.21228932142448764 0.20138820897017451
v 0 -0.19080180999999999 -0.41462632999999999
v 1.4907779871676124e-19 -0.17645881755416354 0.52233367459677282
v 0 -0.17472326614747932 -0.41306901092692117
v 0.68791349999999996 -0.23614054000000001 0.47294049999999999
v 0.68791349999999996 -0.23614054000000001 0.55893000000000004
v 0.68791349999999996 -0.23614054000000001 0.38695099999999999
v 0.68791349999999996 -0.23614054000000001 0.30096200000000001
v 0.68791349999999996 -0.23614054000000001 0.21498
v 0.68791350000000018 -0.23614054000000001 0.128998
v 0.68791350000000018 -0.23614054000000001 0.043008500000000012
v 0.68791349999999996 -0.23614054000000001 -0.042987999999999998
v 0.68791349999999996 -0.23614054000000001 -0.12898399999999999
v 0.68791349999999996 -0.23614054000000001 -0.214973
v 0.68791349999999996 -0.23614054000000001 -0.30096200000000001
v 0.68791349999999996 -0.23614054000000001 -0.38695099999999999
v 0.68791349999999996 -0.23614054000000001 -0.47294000000000003
v 0.68791349999999996 -0.23614054000000001 -0.55892949999999997
v 0.68791349999999996 -0.23614054000000001 -0.64491900000000002
v 0.64491900000000002 -0.23614054000000001 -0.68791349999999996
v 0.55893000000000004 -0.23614054000000001 -0.68791349999999996
v 0.472941 -0.23614054000000001 -0.68791349999999996
v 0.38695200000000002 -0.23614054000000001 -0.68791349999999996
v 0.30096250000000002 -0.23614054000000001 -0.68791349999999996
v 0.214973 -0.23614054000000001 -0.68791349999999996
v 0.12894949999999999 -0.23614054000000001 -0.68791349999999996
v 0.042925999999999999 -0.23614054000000001 -0.68791349999999996
v 0.042925999999999999 -0.23614054000000001 0.68791349999999996
v 0.12894949999999999 -0.23614054000000001 0.68791349999999996
v 0.214973 -0.23614054000000001 0.68791349999999996
v 0.30096250000000002 -0.23614054000000001 0.68791349999999996
v 0.38695200000000002 -0.23614054000000001 0.68791349999999996
v 0.472941 -0.23614054000000001 0.68791349999999996
v 0.55893000000000004 -0.23614054000000001 0.68791349999999996
v 0.64491900000000002 -0.23614054000000001 0.68791349999999996
v 0.68791349999999996 -0.23614054000000001 0.64491900000000002
v 0.68791349999999996 -0.23614054000000001 0.40844825000000001
v 0.68791349999999996 -0.23614054000000001 0.36545375000000002
v 0.68791349999999996 -0.23614054000000001 0.32245924999999998
v 0.68791349999999996 -0.23614054000000001 0.27946474999999998
v 0.68791349999999996 -0.23614054000000001 0.23647375000000001
v 0.68791349999999996 -0.23614054000000001 0.19348625
v 0.68791350000000018 -0.23614054000000001 0.15049525000000002
v 0.68791350000000018 -0.23614054000000001 0.10750075000000001
v 0.68791350000000018 -0.23614054000000001 0.064505999999999994
v 0.68791350000000018 -0.23614054000000001 0.021510999999999999
v 0.68791349999999996 -0.23614054000000001 -0.021487249999999999
v 0.68791349999999996 -0.23614054000000001 -0.064488749999999997
v 0.68791349999999996 -0.23614054000000001 -0.10748675000000001
v 0.68791349999999996 -0.23614054000000001 -0.15048125000000001
v 0.68791349999999996 -0.23614054000000001 -0.19347575
v 0.68791349999999996 -0.23614054000000001 -0.23647024999999999
v 0.68791349999999996 -0.23614054000000001 -0.27946474999999998
v 0.68791349999999996 -0.23614054000000001 -0.32245924999999998
v 0.68791349999999996 -0.23614054000000001 -0.36545375000000002
v 0.68791349999999996 -0.23614054000000001 -0.40844825000000001
v 0.68791349999999996 -0.23614054000000001 -0.45144275
v 0.68791349999999996 -0.23614054000000001 -0.49443724999999999
v 0.66641625000000004 -0.23614054000000001 -0.68791349999999996
v 0.62342175 -0.23614054000000001 -0.68791349999999996
v 0.58042724999999995 -0.23614054000000001 -0.68791349999999996
v 0.53743275000000001 -0.23614054000000001 -0.68791349999999996
v 0.49443825000000002 -0.23614054000000001 -0.68791349999999996
v 0.45144374999999998 -0.23614054000000001 -0.68791349999999996
v 0.40844924999999999 -0.23614054000000001 -0.68791349999999996
v 0.36545474999999999 -0.23614054000000001 -0.68791349999999996
v 0.32246000000000002 -0.23614054000000001 -0.68791349999999996
v 0.27946500000000002 -0.23614054000000001 -0.68791349999999996
v 0.23647024999999999 -0.23614054000000001 -0.68791349999999996
v 0.19347575 -0.23614054000000001 -0.68791349999999996
v 0.15046399999999999 -0.23614054000000001 -0.68791349999999996
v 0.107435 -0.23614054000000001 -0.68791349999999996
v 0.064423250000000001 -0.23614054000000001 -0.68791349999999996
v 0.02142875 -0.23614054000000001 -0.68791349999999996
v 0.02142875 -0.23614054000000001 0.68791349999999996
v 0.064423250000000001 -0.23614054000000001 0.68791349999999996
v 0.107435 -0.23614054000000001 0.68791349999999996
v 0.15046399999999999 -0.23614054000000001 0.68791349999999996
v 0.19347575 -0.23614054000000001 0.68791349999999996
v 0.23647024999999999 -0.23614054000000001 0.68791349999999996
v 0.27946500000000002 -0.23614054000000001 0.68791349999999996
v 0.32246000000000002 -0.23614054000000001 0.68791349999999996
v 0.36545474999999999 -0.23614054000000001 0.68791349999999996
v 0.40844924999999999 -0.23614054000000001 0.68791349999999996
v 0.68791349999999996 -0.23614054000000001 0.49443799999999999
v 0.68791349999999996 -0.23614054000000001 -0.53743200000000002
v 0.68791349999999996 -0.23614054000000001 0.45144299999999998
v 0.68791349999999996 -0.23614054000000001 -0.58042700000000003
v 0.58042724999999995 -0.23614054000000001 0.68791349999999996
v 0.68791349999999996 -0.23614054000000001 -0.62342175
v 0.68791349999999996 -0.23614054000000001 0.53743275000000001
v 0.68791349999999996 -0.23614054000000001 -0.66641625000000004
v 0.49443825000000002 -0.23614054000000001 0.68791349999999996
v 0.68791349999999996 -0.23614054000000001 0.62342175
v 0.66641625000000004 -0.23614054000000001 0.68791349999999996
v 0.45144374999999998 -0.23614054000000001 0.68791349999999996
v 0.53743275000000001 -0.23614054000000001 0.68791349999999996
v 0.68791349999999996 -0.23614054000000001 0.58042724999999995
v 0.62342175 -0.23614054000000001 0.68791349999999996
v 0.68791349999999996 -0.23614054000000001 0.66641625000000004
v 5.4210108624275376e-19 -0.23614054000000001 -0.59688419204761334
v -8.6736173798840355e-19 0.20548961496851983 -0.11165337435336016
v -3.2526065174565297e-19 0.18182511278654304 -0.16449892119083698
v 1.7347234759768071e-18 0.17062418987695901 -0.18455306534019353
v 4.3368086899420062e-19 0.053893454181276668 -0.31743398932764944
v 1.0842021724855025e-19 0.2301031680406935 0.12711405586623895
v 8.6736173798840355e-19 0.23300854690214384 0.105247452149985
v 0 0.17062432515288847 0.29324363082549953
v 4.3368086899420177e-19 -0.0011321392625911679 0.46320039162798143
v 8.6736173798840355e-19 -0.097844365082468882 -0.3966103012638974
v 4.878909776184796e-19 0.019408397530582447 -0.34200250928849452
v 1.7347234759768082e-18 -0.11312565753942722 0.50970005441808952
v -8.6736173798840355e-19 -0.097663288172291196 0.50524448095634789
v 1.0842021724856807e-19 -0.23614054000000001 -0.46153550875631044
v 8.6736173798840355e-19 0.23300842664727084 0.0034417944059811898
v 2.1684043449710084e-19 0.23435642977104459 0.017678197518477434
v -2.6427427954334392e-19 0.21228939688820669 -0.092697882035818011
v -2.1684043449710195e-19 0.1908588192417246 -0.14630381588577407
v -1.0842021724855081e-18 0.14919481207208005 -0.21777614314654786
v 2.7105054312137192e-19 0.077885245246997276 -0.29750216668759405
v -4.3368086899420177e-19 0.2360619080742507 0.054334500643563703
v 4.3368086899420177e-19 0.20410072223314138 0.22393123248643362
v -2.1684043449710026e-19 0.18182499123075344 0.27318927508361529
v 4.3368086899420177e-19 0.14919498273019946 0.3264667335607695
v 8.6736173798840085e-19 0.053893192647689082 0.42612423670372179
v 8.6736173798840355e-19 -0.12781081982844725 -0.40474752098071398
v 2.168404344971019e-19 -0.11345407950310026 -0.40109812341711948
v 2.1684043449710016e-19 -0.0011288815490392448 -0.35450790822240152
v 8.6736173798840355e-19 -0.017318468717394241 -0.36339582449356633
v 8.6736173798840355e-19 -0.1281768198834633 0.5135229655448319
v -4.3368086899420457e-19 -0.1411832126437596 0.51640980095678701
v 8.6736173798840355e-19 -0.01731844848789154 0.47208612867059313
v 8.6736173798840355e-19 -0.23614054000000001 0.52589116391577828
v 8.6736173798840355e-19 -0.23614054000000001 -0.41635600846618731
v -4.3368086899420129e-19 0.22660149594893536 -0.037964810696045063
v 1.7347234759768071e-18 0.22288773974049741 -0.05471067649091698
v 8.6736173798840355e-19 0.20036790780342326 -0.12450812777139734
v -8.6736173798840355e-19 0.16272511926172759 -0.19742348148024444
v 0 0.1216711945615509 -0.25294571508225305
v -4.336808689942064e-19 0.11104194231632329 -0.26480302854073179
v -8.6736173798840355e-19 0.040178355962521783 -0.32778063116536532
v 2.1684043449709988e-19 0.23435671445787284 0.091007832456184518
v -4.3368086899420177e-19 0.22660150190452052 0.14665509929342158
v 0 0.2188596344475085 0.17915637552197314
v 0 0.22288775365516969 0.16340106741732174
v -5.585196838722984e-33 0.093345978555125789 0.39181043492818268
v -6.5052130349130189e-19 -0.16113800517079196 -0.41126303482740495
v -1.8973538018496053e-19 -0.037646323906160406 -0.3735355072923392
v -8.6736173798840355e-19 -0.05743207907793163 -0.38209332390291573
v 8.6736173798840355e-19 -0.057420945213045069 0.4907773942249849
v -4.0657581468206296e-19 -0.21502773328510222 0.52522684283795629
v 1.0842021724855042e-19 0.23582019626853093 0.041110547507805489
v -8.1315162936412765e-19 0.23010315391046149 -0.01842363791618825
v 0 0.21885967085806632 -0.070466019918244041
v -1.0842021724855044e-19 0.13745986324605944 -0.23358264006085686
v -8.6736173798840682e-19 0.19085868208876536 0.25499414879814664
v 1.7347234759768071e-18 0.19802367883095831 0.23887818367970731
v 1.7347234759768071e-18 0.16272513892905013 0.30611395867970564
v -4.3368086899420216e-19 0.11104181265821214 0.37349317790636821
v -2.6481536735324493e-34 0.07788546309385827 0.40619196170698235
v -2.1684043449710228e-19 0.019410480248313829 0.4506920327239351
v 8.6736173798840355e-19 0.040178374767414836 0.43647076542863028
v 1.0842021724855092e-19 -0.21631674256781211 -0.41578571927734764
v -2.1684043449709908e-19 -0.14261363915310321 -0.4079840914591582
v 2.1684043449710062e-19 -0.079691613667494166 -0.39057954692397578
v -1.7347234759768071e-18 -0.1576277429314773 0.51945985385264737
v 1.0842021724855102e-19 -0.079562422207642758 0.49922794806542231
v 1.0833355937178202e-33 -0.037622746482471631 0.48221616445255394
v 7.5894152073985426e-19 -0.23614054000000001 0.6589747215088676
v -9.7578195523695399e-19 -0.23614054000000001 -0.66871779837751288
v 6.5052130349130266e-19 -0.23614054000000001 -0.54108935003957992
v 3.7947076036994726e-19 -0.23614054000000001 0.58021913269216174
v 1.9259299443872359e-33 -0.23614054000000001 -0.43570881166868614
v 3.7947076036992655e-19 -0.23614054000000001 0.59991692295458754
v 2.6020852139652106e-18 -0.23614054000000001 0.62273866157901514
v 1.6263032587280395e-19 -0.23614054000000001 0.6393636609825325
v -3.3881317890172322e-19 -0.23614054000000001 -0.55866358998199617
v -6.5052130349130266e-19 -0.23614054000000001 -0.52114326810793332
v 0 -0.23614054000000001 -0.63181936956215889
v 4.3368086899420177e-19 -0.23614054000000001 -0.47566953410766066
v 1.7347234759768071e-18 -0.23614054000000001 -0.50570626404619745
v 2.7105054312136178e-20 -0.23614054000000001 -0.48921906744521981
v 2.1684043449708615e-19 -0.23614054000000001 -0.57822189855172068
v -3.2526065174565017e-19 -0.23614054000000001 -0.64986535109118782
v 1.6263032587281394e-19 -0.23614054000000001 -0.61669404247922555
v -2.7105054312137611e-19 -0.23614054000000001 0.55196273691977826
v -8.6736173798840355e-19 -0.23614054000000001 0.56533560598604515
v -6.5052130349130449e-19 0.093346118200589898 -0.28312029233068214
v 4.3368086899420028e-19 0.065889327870773673 0.41615809920535207
v 3.5236570605778624e-19 0.065889349714136972 -0.30746807800762177
v 5.421010862427527e-19 -0.10564922229278456 -0.39885421234050844
v 5.4210108624275222e-19 0.23368242820915777 0.010559995962229309
v -5.6581800876587378e-19 0.20888950592836325 -0.10217562819458909
v 3.9302328752599343e-19 0.05989140194770682 -0.3124510336676356
v 2.1684043449710002e-19 0.071887395482315972 0.41117503045616721
v -1.6263032587282569e-19 0.23594105217139089 0.0477225240756846
v 2.1684043449709949e-19 -0.13468001626361145 0.51496638325080946
v 2.3039296165317027e-19 -0.22558413664255111 0.52555900337686734
v 0.010484749999999999 -0.23614054000000001 0.52550483195788922
v -2.1684043449710146e-19 0.047035905071899226 -0.32260731024650735
v 0.0083097499999999994 -0.23614054000000001 -0.41612525423309366
v 1.6263032587282562e-19 0.23508831301978783 0.029394372513141462
v -1.3213713977167196e-19 0.21557453387313652 -0.081581950977031026
v 4.3368086899420177e-19 0.1666746545693433 -0.19098827341021898
v -5.4210108624275222e-20 0.12956552890380518 -0.24326417757155494
v -1.8973538018496629e-19 0.08561568172379358 -0.29031122950913812
v -3.2526065174565147e-19 -0.068561846372712898 -0.38633643541344576
v -1.0842021724855058e-18 -0.14940547778761845 0.51793482740471719
v -3.7947076036992626e-19 -0.088612855189966977 0.50223621451088507
v 0.68791349999999996 -0.23614054000000001 0.677164875
v 0.68791349999999996 -0.23614054000000001 -0.677164875
v -4.87890977618477e-19 -0.23614054000000001 -0.67831564918875642
v 3.7947076036992713e-19 -0.23614054000000001 0.67344411075443378
v 0.010714375 -0.23614054000000001 0.68791349999999996
v 1.3823577699190074e-18 -0.23614054000000001 0.63105116128077388
v 3.7947076036991996e-19 -0.23614054000000001 -0.58755304529966701
v 0.677164875 -0.23614054000000001 -0.68791349999999996
v 0.677164875 -0.23614054000000001 0.68791349999999996
v -6.0986372202318532e-20 -0.23614054000000001 -0.56844274426685848
v 0 -0.23614054000000001 -0.53111630907375662
v -2.4394548880922815e-19 -0.23614054000000001 0.57277736933910339
v 8.8091426514447158e-19 -0.23614054000000001 -0.49746266574570863
v 7.0473141211557711e-19 0.17622465133175103 -0.17452599326551527
v 3.523657060577899e-19 0.0091397579907716003 -0.34825520875544802
v 4.3368086899420235e-19 -0.10539447285585921 0.50747226768721876
v 2.7105054312137948e-20 0.23155579027886616 -0.0074909217551035303
v -1.355252715609028e-20 0.2081950218288145 0.21265972072830408
v 5.4210108624275174e-19 0.23368263068000833 0.098127642303084767
v 5.4210108624275183e-19 -0.0092236751332167438 -0.35895186635798393
v 4.3368086899420274e-19 -0.23614054000000001 -0.42603241006743675
v -2.168404344971032e-19 0.1163565684389371 -0.25887437181149242
v -5.2854855908668206e-19 -0.047539201492046018 -0.37781441559762746
v -6.2341624917916447e-19 0.22835232492969842 -0.028194224306116657
v 6.5052130349130285e-19 0.22474461784471639 -0.046337743593481022
v 1.0842021724855044e-18 0.20106220053204985 0.23140470808307045
v 1.0842021724855013e-19 0.23508844508980559 0.079296029505492568
v 5.4210108624275212e-19 -0.088767989374981524 -0.39359492409393659
v 4.3368086899420235e-19 -0.04752184584775835 0.48649677933876945
v 4.8789097761847719e-19 -0.22622864128390607 -0.4160708638717675
v 1.5585406229478972e-19 -0.23614054000000001 -0.5498764700107881
v 5.4210108624275222e-19 -0.23614054000000001 -0.51342476607706544
v 1.4907779871675686e-18 -0.23614054000000001 0.61132779226680134
v -5.6920614055488983e-19 -0.23614054000000001 0.55864917145291171
v 2.9815559743351372e-19 -0.23614054000000001 0.53892695041777827
v -6.5052130349130208e-19 -0.23614054000000001 -0.65929157473435041
v 0.010714375 -0.23614054000000001 -0.68791349999999996
v 6.5052130349130054e-19 0.059891260259231374 0.42114116795453693
v 3.1170812458957906e-19 0.071887297480567131 -0.30248512234760794
v 4.3368086899420235e-19 -0.027470597485181585 0.47715114656157354
v 0.65566762499999998 -0.23614054000000001 0.68791349999999996
v 5.4210108624284996e-20 -0.23614054000000001 -0.44862216021249829
v 0.65566762499999998 -0.23614054000000001 -0.68791349999999996
v 6.7762635780344037e-19 -0.23118459064195304 -0.41621343616897744
v -0.085696499999999995 -0.23614054000000001 0.51721649999999997
v -0.26211649999999997 -0.23614054000000001 0.4416235
v -0.44952150000000002 -0.23614054000000001 0.18211749999999999
v -0.46588550000000001 -0.23614054000000001 0.0787775
v -0.46358949999999999 -0.23614054000000001 -0.0110075
v -0.41777449999999999 -0.23614054000000001 -0.15577350000000001
v -0.36694650000000001 -0.23614054000000001 -0.2359155
v -0.26069350000000002 -0.23614054000000001 -0.3352195
v -0.32410650000000002 -0.23614054000000001 -0.28366550000000001
v -0.11309950000000001 -0.23614054000000001 -0.40168549999999997
v -0.1857905 -0.23614054000000001 -0.37682650000000001
v -0.1494595 -0.23614054000000001 -0.39104450000000002
v -0.46700750000000002 -0.23614054000000001 0.031486500000000001
v -0.45671650000000003 -0.23614054000000001 -0.050791500000000003
v -0.34592250000000002 -0.23614054000000001 -0.26212950000000002
v -0.2234515 -0.23614054000000001 -0.35814750000000001
v -0.12375650000000001 -0.23614054000000001 0.50837449999999995
v -0.40101750000000003 -0.23614054000000001 0.29580650000000003
v -0.45949250000000003 -0.23614054000000001 0.13181950000000001
v -0.29517749999999998 -0.23614054000000001 -0.3089865
v -0.36737150000000002 -0.23614054000000001 0.3469835
v -0.33559050000000001 -0.23614054000000001 -0.27283449999999998
v -0.46579549999999997 -0.23614054000000001 0.0097984999999999999
v -0.1880975 -0.23614054000000001 0.48264849999999998
v -0.43029050000000002 -0.23614054000000001 0.23975050000000001
v -0.45482349999999999 -0.23614054000000001 0.15794050000000001
v -0.37824449999999998 -0.23614054000000001 0.33184950000000002
v -0.3105155 -0.23614054000000001 -0.29591450000000002
v -0.16429350000000001 -0.23614054000000001 0.49353049999999998
v -0.094322500000000004 -0.23614054000000001 -0.40599750000000001
v -0.075176499999999993 -0.23614054000000001 -0.40962850000000001
v -0.31794549999999999 -0.23614054000000001 0.3994375
v -0.43753249999999999 -0.23614054000000001 0.22194249999999999
v -0.16751150000000001 -0.23614054000000001 -0.3844495
v -0.45223449999999998 -0.23614054000000001 -0.069518499999999997
v -0.2045315 -0.23614054000000001 -0.36804249999999999
v -0.020969499999999999 -0.23614054000000001 0.52511850000000004
v -0.1049375 -0.23614054000000001 0.51330450000000005
v -0.28311950000000002 -0.23614054000000001 0.4272975
v -0.38962550000000001 -0.23614054000000001 0.31451449999999997
v -0.40594649999999999 -0.23614054000000001 -0.17626849999999999
v -0.42737550000000002 -0.23614054000000001 -0.13743649999999999
v -0.055772500000000003 -0.23614054000000001 -0.41252450000000002
v -0.46708450000000001 -0.23614054000000001 0.054374499999999999
v -0.46053250000000001 -0.23614054000000001 -0.0312465
v -0.35605550000000002 -0.23614054000000001 -0.25025449999999999
v -0.016619499999999999 -0.23614054000000001 -0.4158945
v -0.1431935 -0.23614054000000001 0.50194450000000002
v -0.23837050000000001 -0.23614054000000001 0.45605250000000003
v -0.4632675 -0.23614054000000001 0.10501149999999999
v -0.37954850000000001 -0.23614054000000001 -0.2178185
v -0.27845049999999999 -0.23614054000000001 -0.3222875
v -0.44164049999999999 -0.23614054000000001 -0.1040065
v -0.064989500000000006 -0.23614054000000001 0.52059549999999999
v -0.41192250000000002 -0.23614054000000001 0.27655750000000001
v -0.2132435 -0.23614054000000001 0.46994150000000001
v -0.2422665 -0.23614054000000001 -0.34718949999999998
v -0.34494550000000002 -0.23614054000000001 0.37343349999999997
v -0.42184650000000001 -0.23614054000000001 0.25759549999999998
v -0.30164150000000001 -0.23614054000000001 0.41319549999999999
v -0.043264499999999997 -0.23614054000000001 0.52328249999999998
v -0.1314005 -0.23614054000000001 -0.39674549999999997
v -0.22580700000000001 -0.23614054000000001 0.46299699999999999
v -0.35645549999999998 -0.23614054000000001 0.3606125
v -0.2006705 -0.23614054000000001 0.47629500000000002
v -0.39287650000000002 -0.23614054000000001 -0.19744349999999999
v -0.46138000000000001 -0.23614054000000001 0.11841550000000001
v -0.4351855 -0.23614054000000001 -0.1204505
v -0.036216499999999999 -0.23614054000000001 -0.41463050000000001
v -0.33229249999999999 -0.23614054000000001 0.38614349999999997
v -0.25024350000000001 -0.23614054000000001 0.44883800000000001
v -0.44385049999999998 -0.23614054000000001 0.20309150000000001
v -0.44717849999999998 -0.23614054000000001 -0.087298500000000001
v -0.44440950000000001 -0.23614054000000001 -0.095652500000000001
v -0.010484749999999999 -0.23614054000000001 0.52550483195788922
v -0.37280800000000003 -0.23614054000000001 0.33941650000000001
v -0.38393500000000003 -0.23614054000000001 0.32318199999999997
v -0.32984849999999999 -0.23614054000000001 -0.27825
v -0.31731100000000001 -0.23614054000000001 -0.28978999999999999
v -0.026417999999999997 -0.23614054000000001 -0.41526249999999998
v -0.46232375000000003 -0.23614054000000001 0.11171349999999999
v -0.0083097499999999994 -0.23614054000000001 -0.41612525423309366
v -0.206957 -0.23614054000000001 0.47311825000000002
v -0.35070049999999997 -0.23614054000000001 0.36702299999999999
v -0.438413 -0.23614054000000001 -0.11222850000000001
v -0.34075650000000002 -0.23614054000000001 -0.267482
v -0.338619 -0.23614054000000001 0.37978849999999997
v -0.21952525000000001 -0.23614054000000001 0.46646925
v -0.46043624999999999 -0.23614054000000001 0.12511749999999999
v -0.45217249999999998 -0.23614054000000001 0.17002899999999999
v -0.032117 -0.23614054000000001 0.52420050000000007
v 1.6263032587282562e-19 0.23508831301978783 0.029394372513141462
v -0.45361558624817294 -0.12193261650502785 0.060557637579190998
v -0.46588550000000001 -0.23614054000000001 0.0787775
v -0.52399217431410861 -0.23614054000000007 0.073946920935572327
v -0.59270092071526137 -0.23614054000000001 0.079464560964115888
v -0.68791350000000018 -0.23614054000000001 0.086003499999999997
v -0.036433461606649918 0.23311676200185261 0.032057122967737273
v -0.087465330076895942 0.22605635330042795 0.033417122192228046
v -0.14895172067075657 0.2096015519859146 0.03335844872358136
v -0.21139735860255676 0.18305768839330205 0.033028231833728508
v -0.27035244986406304 0.1471780665657646 0.032988660527328642
v -0.32358553738558643 0.10283279884449451 0.033492771712548719
v -0.36885875609630631 0.052358115669828967 0.035604206477485828
v -0.40444861783920083 1.8489031054825925e-05 0.041579492067759696
v -0.43051313343969799 -0.051726713231128249 0.05111119859369008
v -0.44338656839544843 -0.086644481517861333 0.05674387496726644
v -0.46081261186250677 -0.15670343482046767 0.063659234475635318
v -0.46479427329034695 -0.18975574805301959 0.068096754367527934
v -0.45759148633594449 -0.13947430277757067 0.06207061233103886
v -0.46328984745121748 -0.17347583560244789 0.065603433060241717
v -0.41422875525028047 -0.01721556038853039 0.044561960995781358
v -0.49526221725707009 -0.23614054000000001 0.075169309648580707
v -0.068771525572270245 0.22930713341513975 0.033159429642900945
v -0.051677109414171016 0.23160266442403166 0.032703853439682913
v -0.12797386923390569 0.21623232705547146 0.03346478269776812
v -0.10734877780573163 0.22172118939127383 0.033502585521200959
v -0.19083484947804769 0.19297160788800344 0.033116390031876677
v -0.1699758719774126 0.20183734704024184 0.033231710309416337
v -0.2512298043906665 0.16013055500585954 0.032960453984210332
v -0.23155471943313988 0.17210110737541273 0.032975229933952355
v -0.30660416892441872 0.11845015131329674 0.033228253897998869
v -0.28883264666354724 0.13325987158302102 0.033071635116710157
v -0.35479001093056856 0.069621524019708392 0.03459133039481628
v -0.3396686923197787 0.08649997668297936 0.033921269864973638
v -0.39365958065317808 0.017397446799621005 0.039053369578460236
v -0.38180996804777362 0.034886122444765258 0.037065831220752146
v -0.42290472373071764 -0.034431560268497433 0.047825435995535875
v -0.43732356541035122 -0.069109983740041209 0.054147249869333711
v -0.44889807830104034 -0.10425980815917263 0.058854947472185365
v -0.65352178129028493 -0.23614054000000001 0.083879865356086908
v -0.56537444451888863 -0.23614054000000007 0.076666903600976249
v -0.62162244600800842 -0.23614054000000012 0.081839774991524256
v -0.55176666140672836 -0.23614054000000012 0.075370851135731248
v -0.57895389110769124 -0.23614054000000001 0.078083524260923437
v -0.50973897686482983 -0.23614054000000001 0.074187265490102572
v -0.48061843808745885 -0.23614054000000001 0.076788276576296471
v -0.46571163197724913 -0.22095049823134413 0.074828177349220121
v -0.67053069433341284 -0.23614054000000001 0.084923883076101908
v -0.63717273119990336 -0.23614054000000012 0.082868708944010508
v -0.60684913583441547 -0.23614054000000007 0.080721088852765244
v -0.46555210636101141 -0.20554480740678885 0.071199877024261671
v -0.5379960586706114 -0.23614054000000012 0.074395230019828729
v -0.023023676519933485 0.23408023377898535 0.031253800345148387
v -0.011096201994893383 0.23467400223396745 0.03034824824319679
v 0 -0.23614054000000001 -0.68791349999999996
v 0 -0.23614054000000001 0.68791349999999996
v 8.6736173798840355e-19 -0.23614054000000001 0.52589116391577828
v 8.6736173798840355e-19 -0.23614054000000001 -0.41635600846618731
v -0.68791349999999996 -0.23614054000000001 0.51593549999999999
v -0.68791349999999996 -0.23614054000000001 0.42994549999999998
v -0.68791349999999996 -0.23614054000000001 0.3439565
v -0.68791349999999996 -0.23614054000000001 0.25796750000000002
v -0.68791349999999996 -0.23614054000000001 0.17199249999999999
v -0.68791350000000018 -0.23614054000000001 0.086003499999999997
v -0.68791349999999996 -0.23614054000000001 1.3499999999999999e-05
v -0.68791349999999996 -0.23614054000000001 -0.085989499999999996
v -0.68791349999999996 -0.23614054000000001 -0.17197850000000001
v -0.68791349999999996 -0.23614054000000001 -0.25796750000000002
v -0.68791349999999996 -0.23614054000000001 -0.3439565
v -0.68791349999999996 -0.23614054000000001 -0.42994549999999998
v -0.68791349999999996 -0.23614054000000001 -0.51593449999999996
v -0.68791349999999996 -0.23614054000000001 -0.60192449999999997
v -0.68791349999999996 -0.23614054000000001 -0.68791349999999996
v -0.60192449999999997 -0.23614054000000001 -0.68791349999999996
v -0.51593549999999999 -0.23614054000000001 -0.68791349999999996
v -0.42994650000000001 -0.23614054000000001 -0.68791349999999996
v -0.34395750000000003 -0.23614054000000001 -0.68791349999999996
v -0.25796750000000002 -0.23614054000000001 -0.68791349999999996
v -0.17197850000000001 -0.23614054000000001 -0.68791349999999996
v -0.085920499999999997 -0.23614054000000001 -0.68791349999999996
v -0.085920499999999997 -0.23614054000000001 0.68791349999999996
v -0.17197850000000001 -0.23614054000000001 0.68791349999999996
v -0.25796750000000002 -0.23614054000000001 0.68791349999999996
v -0.34395750000000003 -0.23614054000000001 0.68791349999999996
v -0.42994650000000001 -0.23614054000000001 0.68791349999999996
v -0.51593549999999999 -0.23614054000000001 0.68791349999999996
v -0.60192449999999997 -0.23614054000000001 0.68791349999999996
v -0.68791349999999996 -0.23614054000000001 0.68791349999999996
v -0.68791349999999996 -0.23614054000000001 0.60192449999999997
v -0.68791349999999996 -0.23614054000000001 0.47294049999999999
v -0.68791349999999996 -0.23614054000000001 0.55893000000000004
v -0.68791349999999996 -0.23614054000000001 0.38695099999999999
v -0.68791349999999996 -0.23614054000000001 0.30096200000000001
v -0.68791349999999996 -0.23614054000000001 0.21498
v -0.68791350000000018 -0.23614054000000001 0.128998
v -0.68791350000000018 -0.23614054000000001 0.043008500000000012
v -0.68791349999999996 -0.23614054000000001 -0.042987999999999998
v -0.68791349999999996 -0.23614054000000001 -0.12898399999999999
v -0.68791349999999996 -0.23614054000000001 -0.214973
v -0.68791349999999996 -0.23614054000000001 -0.30096200000000001
v -0.68791349999999996 -0.23614054000000001 -0.38695099999999999
v -0.68791349999999996 -0.23614054000000001 -0.47294000000000003
v -0.68791349999999996 -0.23614054000000001 -0.55892949999999997
v -0.68791349999999996 -0.23614054000000001 -0.64491900000000002
v -0.64491900000000002 -0.23614054000000001 -0.68791349999999996
v -0.55893000000000004 -0.23614054000000001 -0.68791349999999996
v -0.472941 -0.23614054000000001 -0.68791349999999996
v -0.38695200000000002 -0.23614054000000001 -0.68791349999999996
v -0.30096250000000002 -0.23614054000000001 -0.68791349999999996
v -0.214973 -0.23614054000000001 -0.68791349999999996
v -0.12894949999999999 -0.23614054000000001 -0.68791349999999996
v -0.042925999999999999 -0.23614054000000001 -0.68791349999999996
v -0.042925999999999999 -0.23614054000000001 0.68791349999999996
v -0.12894949999999999 -0.23614054000000001 0.68791349999999996
v -0.214973 -0.23614054000000001 0.68791349999999996
v -0.30096250000000002 -0.23614054000000001 0.68791349999999996
v -0.38695200000000002 -0.23614054000000001 0.68791349999999996
v -0.472941 -0.23614054000000001 0.68791349999999996
v -0.55893000000000004 -0.23614054000000001 0.68791349999999996
v -0.64491900000000002 -0.23614054000000001 0.68791349999999996
v -0.68791349999999996 -0.23614054000000001 0.64491900000000002
v -0.68791349999999996 -0.23614054000000001 0.40844825000000001
v -0.68791349999999996 -0.23614054000000001 0.36545375000000002
v -0.68791349999999996 -0.23614054000000001 0.32245924999999998
v -0.68791349999999996 -0.23614054000000001 0.27946474999999998
v -0.68791349999999996 -0.23614054000000001 0.23647375000000001
v -0.68791349999999996 -0.23614054000000001 0.19348625
v -0.68791350000000018 -0.23614054000000001 0.15049525000000002
v -0.68791350000000018 -0.23614054000000001 0.10750075000000001
v -0.68791350000000018 -0.23614054000000001 0.064505999999999994
v -0.68791350000000018 -0.23614054000000001 0.021510999999999999
v -0.68791349999999996 -0.23614054000000001 -0.021487249999999999
v -0.68791349999999996 -0.23614054000000001 -0.064488749999999997
v -0.68791349999999996 -0.23614054000000001 -0.10748675000000001
v -0.68791349999999996 -0.23614054000000001 -0.15048125000000001
v -0.68791349999999996 -0.23614054000000001 -0.19347575
v -0.68791349999999996 -0.23614054000000001 -0.23647024999999999
v -0.68791349999999996 -0.23614054000000001 -0.27946474999999998
v -0.68791349999999996 -0.23614054000000001 -0.32245924999999998
v -0.68791349999999996 -0.23614054000000001 -0.36545375000000002
v -0.68791349999999996 -0.23614054000000001 -0.40844825000000001
v -0.68791349999999996 -0.23614054000000001 -0.45144275
v -0.68791349999999996 -0.23614054000000001 -0.49443724999999999
v -0.66641625000000004 -0.23614054000000001 -0.68791349999999996
v -0.62342175 -0.23614054000000001 -0.68791349999999996
v -0.58042724999999995 -0.23614054000000001 -0.68791349999999996
v -0.53743275000000001 -0.23614054000000001 -0.68791349999999996
v -0.49443825000000002 -0.23614054000000001 -0.68791349999999996
v -0.45144374999999998 -0.23614054000000001 -0.68791349999999996
v -0.40844924999999999 -0.23614054000000001 -0.68791349999999996
v -0.36545474999999999 -0.23614054000000001 -0.68791349999999996
v -0.32246000000000002 -0.23614054000000001 -0.68791349999999996
v -0.27946500000000002 -0.23614054000000001 -0.68791349999999996
v -0.23647024999999999 -0.23614054000000001 -0.68791349999999996
v -0.19347575 -0.23614054000000001 -0.68791349999999996
v -0.15046399999999999 -0.23614054000000001 -0.68791349999999996
v -0.107435 -0.23614054000000001 -0.68791349999999996
v -0.064423250000000001 -0.23614054000000001 -0.68791349999999996
v -0.02142875 -0.23614054000000001 -0.68791349999999996
v -0.02142875 -0.23614054000000001 0.68791349999999996
v -0.064423250000000001 -0.23614054000000001 0.68791349999999996
v -0.107435 -0.23614054000000001 0.68791349999999996
v -0.15046399999999999 -0.23614054000000001 0.68791349999999996
v -0.19347575 -0.23614054000000001 0.68791349999999996
v -0.23647024999999999 -0.23614054000000001 0.68791349999999996
v -0.27946500000000002 -0.23614054000000001 0.68791349999999996
v -0.32246000000000002 -0.23614054000000001 0.68791349999999996
v -0.36545474999999999 -0.23614054000000001 0.68791349999999996
v -0.40844924999999999 -0.23614054000000001 0.68791349999999996
v -0.68791349999999996 -0.23614054000000001 0.49443799999999999
v -0.68791349999999996 -0.23614054000000001 -0.53743200000000002
v -0.68791349999999996 -0.23614054000000001 0.45144299999999998
v -0.68791349999999996 -0.23614054000000001 -0.58042700000000003
v -0.58042724999999995 -0.23614054000000001 0.68791349999999996
v -0.68791349999999996 -0.23614054000000001 -0.62342175
v -0.68791349999999996 -0.23614054000000001 0.53743275000000001
v -0.68791349999999996 -0.23614054000000001 -0.66641625000000004
v -0.49443825000000002 -0.23614054000000001 0.68791349999999996
v -0.68791349999999996 -0.23614054000000001 0.62342175
v -0.66641625000000004 -0.23614054000000001 0.68791349999999996
v -0.45144374999999998 -0.23614054000000001 0.68791349999999996
v -0.53743275000000001 -0.23614054000000001 0.68791349999999996
v -0.68791349999999996 -0.23614054000000001 0.58042724999999995
v -0.62342175 -0.23614054000000001 0.68791349999999996
v -0.68791349999999996 -0.23614054000000001 0.66641625000000004
v -0.010484749999999999 -0.23614054000000001 0.52550483195788922
v -0.0083097499999999994 -0.23614054000000001 -0.41612525423309366
v -0.68791349999999996 -0.23614054000000001 0.677164875
v -0.68791349999999996 -0.23614054000000001 -0.677164875
v -0.010714375 -0.23614054000000001 0.68791349999999996
v -0.677164875 -0.23614054000000001 -0.68791349999999996
v -0.677164875 -0.23614054000000001 0.68791349999999996
v -0.010714375 -0.23614054000000001 -0.68791349999999996
v -0.65566762499999998 -0.23614054000000001 0.68791349999999996
v -0.65566762499999998 -0.23614054000000001 -0.68791349999999996
l 75/75 37/37
l 37/37 91/91
l 91/91 61/61
l 61/61 54/54
l 54/54 1/1
l 1/1 38/38
l 38/38 17/17
l 17/17 48/48
l 48/48 29/29
l 29/29 24/24
l 24/24 65/65
l 65/65 83/83
l 83/83 56/56
l 56/56 88/88
l 88/88 63/63
l 63/63 49/49
l 49/49 71/71
l 71/71 2/2
l 2/2 39/39
l 39/39 60/60
l 60/60 32/32
l 32/32 70/70
l 70/70 87/87
l 87/87 58/58
l 58/58 84/84
l 84/84 64/64
l 64/64 21/21
l 21/21 76/76
l 76/76 27/27
l 27/27 77/77
l 77/77 40/40
l 40/40 18/18
l 18/18 55/55
l 55/55 59/59
l 59/59 25/25
l 25/25 33/33
l 33/33 72/72
l 72/72 3/3
l 3/3 90/90
l 90/90 26/26
l 26/26 19/19
l 19/19 89/89
l 89/89 67/67
l 67/67 81/81
l 81/81 50/50
l 50/50 4/4
l 4/4 44/44
l 44/44 13/13
l 13/13 23/23
l 23/23 5/5
l 5/5 45/45
l 45/45 14/14
l 14/14 35/35
l 35/35 73/73
l 73/73 74/74
l 74/74 53/53
l 53/53 85/85
l 85/85 68/68
l 68/68 42/42
l 42/42 6/6
l 6/6 41/41
l 41/41 66/66
l 66/66 51/51
l 51/51 7/7
l 7/7 46/46
l 46/46 15/15
l 15/15 86/86
l 86/86 22/22
l 22/22 78/78
l 78/78 9/9
l 9/9 79/79
l 79/79 28/28
l 28/28 20/20
l 20/20 52/52
l 52/52 8/8
l 8/8 57/57
l 57/57 16/16
l 16/16 36/36
l 36/36 11/11
l 11/11 34/34
l 34/34 12/12
l 12/12 62/62
l 62/62 10/10
l 10/10 30/30
l 30/30 31/31
l 31/31 43/43
l 43/43 69/69
l 69/69 80/80
l 80/80 47/47
l 47/47 82/82
l 145/145 144/144
l 144/144 143/143
l 143/143 97/97
l 97/97 114/114
l 114/114 113/113
l 113/113 98/98
l 98/98 116/116
l 116/116 115/115
l 115/115 99/99
l 99/99 118/118
l 118/118 117/117
l 117/117 100/100
l 100/100 120/120
l 120/120 119/119
l 119/119 101/101
l 101/101 122/122
l 122/122 121/121
l 121/121 102/102
l 102/102 124/124
l 124/124 123/123
l 123/123 103/103
l 103/103 126/126
l 126/126 125/125
l 125/125 104/104
l 104/104 111/111
l 111/111 127/127
l 127/127 105/105
l 105/105 128/128
l 128/128 106/106
l 106/106 129/129
l 129/129 92/92
l 92/92 109/109
l 109/109 107/107
l 107/107 110/110
l 110/110 108/108
l 108/108 141/141
l 141/141 137/137
l 137/137 93/93
l 93/93 136/136
l 136/136 112/112
l 112/112 135/135
l 135/135 94/94
l 94/94 142/142
l 142/142 133/133
l 133/133 131/131
l 131/131 134/134
l 134/134 95/95
l 95/95 140/140
l 140/140 132/132
l 132/132 139/139
l 139/139 130/130
l 130/130 138/138
l 138/138 96/96
l 146/146 267/267
l 146/146 273/273
l 147/147 219/219
l 147/147 269/269
l 148/148 220/220
l 148/148 221/221
l 149/149 222/222
l 149/149 223/223
l 150/150 224/224
l 150/150 225/225
l 151/151 226/226
l 151/151 227/227
l 152/152 228/228
l 152/152 229/229
l 153/153 230/230
l 153/153 231/231
l 154/154 232/232
l 154/154 233/233
l 155/155 234/234
l 155/155 235/235
l 156/156 236/236
l 156/156 237/237
l 157/157 238/238
l 157/157 239/239
l 158/158 240/240
l 158/158 268/268
l 159/159 270/270
l 159/159 272/272
l 160/160 393/393
l 160/160 399/399
l 161/161 242/242
l 161/161 243/243
l 162/162 244/244
l 162/162 245/245
l 163/163 246/246
l 163/163 247/247
l 164/164 248/248
l 164/164 249/249
l 165/165 250/250
l 165/165 251/251
l 166/166 252/252
l 166/166 253/253
l 167/167 254/254
l 167/167 255/255
l 168/168 394/394
l 168/168 428/428
l 169/169 395/395
l 169/169 396/396
l 170/170 258/258
l 170/170 259/259
l 171/171 260/260
l 171/171 261/261
l 172/172 262/262
l 172/172 263/263
l 173/173 264/264
l 173/173 265/265
l 174/174 266/266
l 174/174 278/278
l 175/175 275/275
l 175/175 279/279
l 176/176 271/271
l 176/176 281/281
l 177/177 392/392
l 177/177 400/400
l 178/178 276/276
l 178/178 280/280
l 179/179 181/181
l 179/179 341/341
l 180/180 185/185
l 180/180 333/333
l 181/181 306/306
l 182/182 303/303
l 182/182 418/418
l 183/183 326/326
l 183/183 409/409
l 184/184 186/186
l 184/184 345/345
l 185/185 348/348
l 186/186 329/329
l 187/187 267/267
l 187/187 269/269
l 188/188 273/273
l 188/188 280/280
l 189/189 219/219
l 189/189 220/220
l 190/190 221/221
l 190/190 222/222
l 191/191 223/223
l 191/191 224/224
l 192/192 225/225
l 192/192 226/226
l 193/193 227/227
l 193/193 228/228
l 194/194 229/229
l 194/194 230/230
l 195/195 231/231
l 195/195 232/232
l 196/196 233/233
l 196/196 234/234
l 197/197 235/235
l 197/197 236/236
l 198/198 237/237
l 198/198 238/238
l 199/199 239/239
l 199/199 240/240
l 200/200 268/268
l 200/200 270/270
l 201/201 272/272
l 201/201 274/274
l 202/202 242/242
l 202/202 434/434
l 203/203 243/243
l 203/203 244/244
l 204/204 245/245
l 204/204 246/246
l 205/205 247/247
l 205/205 248/248
l 206/206 249/249
l 206/206 250/250
l 207/207 251/251
l 207/207 252/252
l 208/208 253/253
l 208/208 254/254
l 209/209 255/255
l 209/209 256/256
l 210/210 257/257
l 210/210 258/258
l 211/211 259/259
l 211/211 260/260
l 212/212 261/261
l 212/212 262/262
l 213/213 263/263
l 213/213 264/264
l 214/214 265/265
l 214/214 266/266
l 215/215 275/275
l 215/215 278/278
l 216/216 271/271
l 216/216 279/279
l 217/217 281/281
l 217/217 432/432
l 218/218 276/276
l 218/218 282/282
l 241/241 399/399
l 241/241 434/434
l 256/256 428/428
l 257/257 396/396
l 274/274 393/393
l 277/277 400/400
l 277/277 432/432
l 282/282 392/392
l 283/283 367/367
l 283/283 398/398
l 284/284 319/319
l 284/284 375/375
l 285/285 300/300
l 285/285 405/405
l 286/286 386/386
l 286/286 405/405
l 287/287 376/376
l 287/287 382/382
l 288/288 289/289
l 288/288 325/325
l 289/289 410/410
l 290/290 305/305
l 290/290 340/340
l 291/291 314/314
l 291/291 343/343
l 292/292 373/373
l 292/292 419/419
l 293/293 323/323
l 293/293 406/406
l 294/294 312/312
l 294/294 407/407
l 295/295 391/391
l 295/295 407/407
l 296/296 362/362
l 296/296 433/433
l 297/297 374/374
l 297/297 408/408
l 298/298 374/374
l 298/298 384/384
l 299/299 375/375
l 299/299 385/385
l 300/300 319/319
l 301/301 320/320
l 301/301 337/337
l 302/302 388/388
l 302/302 430/430
l 303/303 378/378
l 304/304 409/409
l 304/304 417/417
l 305/305 338/338
l 306/306 340/340
l 307/307 344/344
l 307/307 429/429
l 308/308 309/309
l 308/308 346/346
l 309/309 373/373
l 310/310 406/406
l 310/310 411/411
l 311/311 330/330
l 311/311 411/411
l 312/312 379/379
l 313/313 379/379
l 313/313 390/390
l 314/314 431/431
l 315/315 380/380
l 315/315 381/381
l 316/316 383/383
l 316/316 412/412
l 317/317 415/415
l 317/317 416/416
l 318/318 336/336
l 318/318 416/416
l 320/320 386/386
l 321/321 387/387
l 321/321 413/413
l 322/322 370/370
l 322/322 413/413
l 323/323 382/382
l 324/324 410/410
l 324/324 418/418
l 325/325 327/327
l 326/326 327/327
l 328/328 341/341
l 328/328 342/342
l 329/329 346/346
l 330/330 414/414
l 331/331 389/389
l 331/331 414/414
l 332/332 349/349
l 332/332 420/420
l 333/333 380/380
l 334/334 378/378
l 334/334 384/384
l 335/335 408/408
l 335/335 415/415
l 336/336 385/385
l 337/337 387/387
l 338/338 339/339
l 339/339 417/417
l 342/342 377/377
l 343/343 344/344
l 345/345 421/421
l 347/347 389/389
l 347/347 419/419
l 348/348 390/390
l 349/349 391/391
l 350/350 420/420
l 350/350 431/431
l 351/351 358/358
l 351/351 395/395
l 352/352 394/394
l 352/352 427/427
l 353/353 402/402
l 353/353 422/422
l 354/354 356/356
l 354/354 403/403
l 355/355 412/412
l 355/355 433/433
l 356/356 424/424
l 357/357 397/397
l 357/357 424/424
l 358/358 397/397
l 359/359 401/401
l 359/359 422/422
l 360/360 402/402
l 360/360 423/423
l 361/361 366/366
l 361/361 367/367
l 362/362 364/364
l 363/363 404/404
l 363/363 423/423
l 364/364 404/404
l 365/365 398/398
l 365/365 401/401
l 366/366 427/427
l 368/368 425/425
l 368/368 426/426
l 369/369 403/403
l 369/369 425/425
l 370/370 388/388
l 371/371 377/377
l 371/371 429/429
l 372/372 376/376
l 372/372 430/430
l 381/381 315/315
l 383/383 316/316
l 421/421 435/435
l 426/426 315/315
l 435/435 316/316
l 510/510 472/472
l 472/472 526/526
l 526/526 496/496
l 496/496 489/489
l 489/489 436/436
l 436/436 473/473
l 473/473 452/452
l 452/452 483/483
l 483/483 464/464
l 464/464 459/459
l 459/459 500/500
l 500/500 518/518
l 518/518 491/491
l 491/491 523/523
l 523/523 498/498
l 498/498 484/484
l 484/484 506/506
l 506/506 437/437
l 437/437 474/474
l 474/474 495/495
l 495/495 467/467
l 467/467 505/505
l 505/505 522/522
l 522/522 493/493
l 493/493 519/519
l 519/519 499/499
l 499/499 456/456
l 456/456 511/511
l 511/511 462/462
l 462/462 512/512
l 512/512 475/475
l 475/475 453/453
l 453/453 490/490
l 490/490 494/494
l 494/494 460/460
l 460/460 468/468
l 468/468 507/507
l 507/507 438/438
l 438/438 525/525
l 525/525 461/461
l 461/461 454/454
l 454/454 524/524
l 524/524 502/502
l 502/502 516/516
l 516/516 485/485
l 485/485 439/439
l 439/439 479/479
l 479/479 448/448
l 448/448 458/458
l 458/458 440/440
l 440/440 480/480
l 480/480 449/449
l 449/449 470/470
l 470/470 508/508
l 508/508 509/509
l 509/509 488/488
l 488/488 520/520
l 520/520 503/503
l 503/503 477/477
l 477/477 441/441
l 441/441 476/476
l 476/476 501/501
l 501/501 486/486
l 486/486 442/442
l 442/442 481/481
l 481/481 450/450
l 450/450 521/521
l 521/521 457/457
l 457/457 513/513
l 513/513 444/444
l 444/444 514/514
l 514/514 463/463
l 463/463 455/455
l 455/455 487/487
l 487/487 443/443
l 443/443 492/492
l 492/492 451/451
l 451/451 471/471
l 471/471 446/446
l 446/446 469/469
l 469/469 447/447
l 447/447 497/497
l 497/497 445/445
l 445/445 465/465
l 465/465 466/466
l 466/466 478/478
l 478/478 504/504
l 504/504 515/515
l 515/515 482/482
l 482/482 517/517
l 527/527 580/580
l 580/580 579/579
l 579/579 533/533
l 533/533 550/550
l 550/550 549/549
l 549/549 534/534
l 534/534 552/552
l 552/552 551/551
l 551/551 535/535
l 535/535 554/554
l 554/554 553/553
l 553/553 536/536
l 536/536 556/556
l 556/556 555/555
l 555/555 537/537
l 537/537 558/558
l 558/558 557/557
l 557/557 538/538
l 538/538 560/560
l 560/560 559/559
l 559/559 539/539
l 539/539 562/562
l 562/562 561/561
l 561/561 540/540
l 540/540 547/547
l 547/547 563/563
l 563/563 541/541
l 541/541 564/564
l 564/564 542/542
l 542/542 565/565
l 565/565 528/528
l 528/528 545/545
l 545/545 543/543
l 543/543 546/546
l 546/546 544/544
l 544/544 577/577
l 577/577 573/573
l 573/573 529/529
l 529/529 572/572
l 572/572 548/548
l 548/548 571/571
l 571/571 530/530
l 530/530 578/578
l 578/578 569/569
l 569/569 567/567
l 567/567 570/570
l 570/570 531/531
l 531/531 576/576
l 576/576 568/568
l 568/568 575/575
l 575/575 566/566
l 566/566 574/574
l 574/574 532/532
l 585/585 696/696
l 585/585 702/702
l 586/586 648/648
l 586/586 698/698
l 587/587 649/649
l 587/587 650/650
l 588/588 651/651
l 588/588 652/652
l 589/589 653/653
l 589/589 654/654
l 590/590 655/655
l 590/590 656/656
l 591/591 657/657
l 591/591 658/658
l 592/592 659/659
l 592/592 660/660
l 593/593 661/661
l 593/593 662/662
l 594/594 663/663
l 594/594 664/664
l 595/595 665/665
l 595/595 666/666
l 596/596 667/667
l 596/596 668/668
l 597/597 669/669
l 597/597 697/697
l 598/598 699/699
l 598/598 701/701
l 599/599 715/715
l 599/599 717/717
l 600/600 671/671
l 600/600 672/672
l 601/601 673/673
l 601/601 674/674
l 602/602 675/675
l 602/602 676/676
l 603/603 677/677
l 603/603 678/678
l 604/604 679/679
l 604/604 680/680
l 605/605 681/681
l 605/605 682/682
l 606/606 683/683
l 606/606 684/684
l 581/581 719/719
l 582/582 716/716
l 607/607 687/687
l 607/607 688/688
l 608/608 689/689
l 608/608 690/690
l 609/609 691/691
l 609/609 692/692
l 610/610 693/693
l 610/610 694/694
l 611/611 695/695
l 611/611 707/707
l 612/612 704/704
l 612/612 708/708
l 613/613 700/700
l 613/613 710/710
l 614/614 714/714
l 614/614 718/718
l 615/615 705/705
l 615/615 709/709
l 616/616 696/696
l 616/616 698/698
l 617/617 702/702
l 617/617 709/709
l 618/618 648/648
l 618/618 649/649
l 619/619 650/650
l 619/619 651/651
l 620/620 652/652
l 620/620 653/653
l 621/621 654/654
l 621/621 655/655
l 622/622 656/656
l 622/622 657/657
l 623/623 658/658
l 623/623 659/659
l 624/624 660/660
l 624/624 661/661
l 625/625 662/662
l 625/625 663/663
l 626/626 664/664
l 626/626 665/665
l 627/627 666/666
l 627/627 667/667
l 628/628 668/668
l 628/628 669/669
l 629/629 697/697
l 629/629 699/699
l 630/630 701/701
l 630/630 703/703
l 631/631 671/671
l 631/631 721/721
l 632/632 672/672
l 632/632 673/673
l 633/633 674/674
l 633/633 675/675
l 634/634 676/676
l 634/634 677/677
l 635/635 678/678
l 635/635 679/679
l 636/636 680/680
l 636/636 681/681
l 637/637 682/682
l 637/637 683/683
l 638/638 684/684
l 638/638 685/685
l 639/639 686/686
l 639/639 687/687
l 640/640 688/688
l 640/640 689/689
l 641/641 690/690
l 641/641 691/691
l 642/642 692/692
l 642/642 693/693
l 643/643 694/694
l 643/643 695/695
l 644/644 704/704
l 644/644 707/707
l 645/645 700/700
l 645/645 708/708
l 646/646 710/710
l 646/646 720/720
l 647/647 705/705
l 647/647 711/711
l 670/670 717/717
l 670/670 721/721
l 685/685 719/719
l 686/686 716/716
l 703/703 715/715
l 706/706 718/718
l 706/706 720/720
l 711/711 714/714
l 583/583 712/712
l 584/584 713/713
l 712/712 583/583
l 713/713 584/584
