v 36.931499500000001 -6.6373252999999997 3.2970798000000001
v 36.056167600000002 -8.1920204000000005 2.2822277999999998
v 34.982669799999996 -10.079463000000001 1.1239309
v 33.245048500000003 -13.0976 -0.58501380000000003
v 29.757142999999999 -19.034746200000001 -3.4715557000000001
v 26.752756099999999 -24.0406151 -5.4720696999999996
v 25.823359499999999 -25.571696250000002 -6.0125756499999996
v 25.075324999999999 -26.799053199999999 -6.4252647999999999
v 21.677324299999999 -32.3148956 -8.0331048999999997
v 18.3302917 -37.665557900000003 -9.2466220999999997
v 27.549703600000001 -22.7216053 -4.9811873000000002
v 30.305423699999999 -18.111103100000001 -3.0611467000000001
v 37.5 -3.8638846999999998 4.7114563
v 37.5 -4.7081871 4.3578124000000003
v 37.5 1.1558037000000001 7.0570135000000001
v 37.5 22.608305000000001 24.481735199999999
v 37.5 23.539394399999999 25.6894417
v 37.5 24.4637928 26.943697
v 37.5 20.494337099999999 21.944871899999999
v 37.5 19.920947999999999 21.3005733
v 37.5 18.93229105 20.233676899999999
v 37.5 11.9119034 13.867541299999999
v 37.5 8.1211319 11.1364698
v 37.5 6.4453354000000003 10.052950900000001
v 37.5 0.069200499999999998 6.5108766999999999
v 37.5 -5.6204337999999998 3.9883738000000002
v 34.476821899999997 -10.963068 0.6040373
v 24.327182799999999 -28.0208607 -6.8124298999999997
v 22.460170699999999 -31.052045799999998 -7.6981959
v 37.5 -1.0265960000000001 5.9819956000000003
v 37.5 5.6015968000000003 9.5334339000000003
v 37.5 4.4562631000000001 8.8552475000000008
v 37.5 9.9529733999999994 12.405231499999999
v 37.5 10.918016400000001 13.110573799999999
v 37.5 14.5965405 16.074438099999998
v 37.5 15.450859100000001 16.831310299999998
v 37.5 16.923669799999999 18.205619800000001
v 37.5 7.2419333000000004 10.5589333
v 37.5 21.959651900000001 23.6742268
v 37.5 17.8404007 19.1076984
v 37.5 21.1458969 22.6980495
v 32.468402850000004 -14.432567599999999 -1.2859611499999992
v 31.897102400000001 -15.410232499999999 -1.7820307
v 29.086845400000001 -20.159767200000001 -3.9546456000000001
v 37.5 -2.4506242 5.3289862000000001
v 33.860729200000002 -12.0333538 -0.0026821000000000002
v 28.403114299999999 -21.302267100000002 -4.4245672000000003
v 30.760742199999999 -17.3416061 -2.7092461999999999
v 37.5 3.4237339000000002 8.2669344000000002
v 35.668014499999998 -8.8765897999999996 1.85395
v 19.580745700000001 -35.675437899999999 -8.8331575000000004
v 18.9605484 -36.6639366 -9.0446881999999995
v 37.5 16.1110039 17.435489700000002
v 20.250177399999998 -34.605449700000001 -8.5912866999999995
v 27.9770164 -22.011472699999999 -4.7049707999999999
v 37.5 2.5077607999999998 7.7653302999999996
v 36.4785118 -7.4435539000000004 2.7644403
v 23.707008399999999 -29.031045899999999 -7.1214914
v 23.112922699999999 -29.995542499999999 -7.4032121000000002
v 21.074356099999999 -33.284645099999999 -8.2778845000000008
v 37.5 8.8572120999999999 11.6347437
v 31.3746109 -16.300142300000001 -2.2168383999999999
v 37.5 12.918350200000001 14.667036100000001
v 37.5 25.3228054 28.174078000000002
v 37.5 13.8792305 15.4601202
v 37.215749750000001 -6.1288795499999997 3.6427268000000002
v 36.705005650000004 -7.0404396 3.03076005
v 36.267339700000001 -7.8177871500000009 2.5233340499999999
v 35.862091050000004 -8.534305100000001 2.0680888999999998
v 37.5 -5.1643104500000003 4.1730931
v 37.5 7.6815326000000006 10.84770155
v 37.5 15.023699799999999 16.452874199999997
v 37.5 15.780931500000001 17.133400000000002
v 37.5 6.8436343500000003 10.305942099999999
v 37.5 24.8932991 27.558887500000001
v 37.5 16.51733685 17.820554749999999
v 37.5 25.693371750000001 28.724875449999999
v 18.023338299999999 -38.15228845 -9.3400649999999992
v 18.645420049999998 -37.164747250000005 -9.1456551499999996
v 27.763359999999999 -22.366539 -4.8430790500000001
v 28.190065349999998 -21.6568699 -4.5647690000000001
v 37.5 13.398790350000001 15.063578150000001
v 37.5 14.237885500000001 15.76727915
v 28.74497985 -20.73101715 -4.1896064000000006
v 37.5 25.878654924999999 29.000274175000001
v 15.866779299999999 -38.493728599999997 -9.7450790000000005
v 13.4486694 -38.3283463 -10.0997419
v 14.626388499999999 -38.4052048 -9.9349164999999999
v 11.082045600000001 -38.194835699999999 -10.386061700000001
v 12.267082200000001 -38.258274100000001 -10.2500257
v 9.8939743 -38.1378822 -10.5082006
v 4.5573654000000001 -37.961826299999998 -10.885752699999999
v 2.1590878999999998 -37.925411199999999 -10.963843300000001
v 3.3585509999999998 -37.940284699999999 -10.9319487
v 6.9549637000000004 -38.024875600000001 -10.7505445
v 8.5722351000000003 -38.0823593 -10.6272717
v 0.95941149999999997 -37.9170418 -10.9817877
v 5.7551651000000001 -37.990051299999998 -10.825223899999999
v 5.1562652500000006 -37.975938799999994 -10.855488299999999
v 0.47970574999999999 -37.9158039 -10.984446550000001
v 1.5592496999999998 -37.921226500000003 -10.972815499999999
v 6.3550643999999998 -38.007463450000003 -10.787884200000001
v 16.791582099999999 -38.566373799999994 -9.5892934499999996
v 35.710014299999997 26.462654100000002 28.420614199999999
v 33.477680200000002 26.916448599999999 27.4474716
v 10.642423600000001 29.436298399999998 22.043611500000001
v 11.762166000000001 29.382257500000001 22.159521099999999
v 4.7446136000000001 29.631158800000001 21.6257381
v 1.0327326999999999 29.677726700000001 21.525869400000001
v 3.5239239000000002 29.652263600000001 21.580482499999999
v 2.0867391 29.670305299999999 21.541789999999999
v 5.6959295000000001 29.609655400000001 21.671854
v 7.9820165999999997 29.542060899999999 21.8168106
v 6.7857174999999996 29.580328000000002 21.734750699999999
v 12.7512636 29.329564999999999 22.272527700000001
v 15.0525818 29.188812299999999 22.574358
v 16.1794701 29.1105366 22.742218000000001
v 18.906164199999999 28.892871899999999 23.2090073
v 21.732818600000002 28.624671899999999 23.784170199999998
v 23.610839800000001 28.418397899999999 24.2265224
v 26.954940799999999 27.993062999999999 25.138649000000001
v 29.512607599999999 27.612138699999999 25.955543500000001
v 30.5444031 27.444145200000001 26.315803500000001
v 31.563974399999999 27.269624700000001 26.690067299999999
v 36.473377200000002 26.2962189 28.777540200000001
v 9.5287465999999998 29.4844875 21.940288500000001
v 13.9658699 29.258354199999999 22.425226200000001
v 24.480955099999999 28.314910900000001 24.448442499999999
v 28.455837200000001 27.775474500000001 25.605272299999999
v 25.6335449 28.170602800000001 24.757921199999998
v 22.6024265 28.531789799999999 23.983339300000001
v 20.279033699999999 28.7675266 23.477806099999999
v 17.307559999999999 29.025638600000001 22.9242764
v 32.532188400000003 27.094985999999999 27.064588499999999
v 34.616767899999999 26.690448799999999 27.9321117
v 35.163391099999998 26.57655145 28.176362949999998
v 0.51636634999999997 29.678893548441852 21.523372459707382
v 1.5597359 29.674016000000002 21.533829699999998
v 36.09169575 26.379436500000001 28.5990772
v 36.986688600000001 26.1800785 29.02660655
v 23.10663315 28.47509385 24.104930850000002
v 24.045897449999998 28.366654400000002 24.33748245
v 34.047224049999997 26.803448699999997 27.68979165
v 15.616025950000001 29.149674449999999 22.658287999999999
v 16.743515049999999 29.068087599999998 22.833247200000002
v 32.048081400000001 27.18230535 26.877327899999997
v 33.004934300000002 27.005717300000001 27.25603005
v 37.5 -10.8270464 -19.386243799999999
v 36.985149399999997 -11.633422899999999 -19.788892700000002
v 37.5 29.496471400000001 1.7584888000000001
v 37.5 32.197574600000003 4.3557711000000001
v 37.5 31.235807399999999 3.4035915999999999
v 37.5 34.9966431 7.3155812999999998
v 37.5 33.120735199999999 5.2989401999999997
v 37.5 28.804704699999998 1.1331205
v 37.5 27.799104700000001 0.2450658
v 37.5 26.53897855 -0.82473795000000005
v 37.5 25.484909099999999 -1.6889312000000001
v 37.5 20.656234699999999 -5.2952642000000001
v 37.5 18.369762399999999 -6.8269295999999997
v 37.5 17.371257799999999 -7.4621924999999996
v 37.5 14.985815000000001 -8.9044018000000005
v 37.5 11.803978000000001 -10.6784277
v 37.5 10.8357086 -11.1849585
v 37.5 9.6931267000000005 -11.764516800000001
v 37.5 7.4208190500000004 -12.85759595
v 37.5 4.8508076999999998 -14.015474299999999
v 37.5 2.6068761 -14.952082600000001
v 37.5 -9.3614444999999993 -18.989383700000001
v 37.5 1.3520219999999996 -15.448670400000001
v 37.5 -7.4259681999999998 -18.436304100000001
v 37.5 -6.1779938000000003 -18.0607243
v 37.5 -4.9572358000000003 -17.6783371
v 37.5 -2.4879378999999999 -16.858327899999999
v 37.5 -1.2826595000000001 -16.433458300000002
v 37.5 30.314033500000001 2.5206444000000001
v 37.5 22.666782399999999 -3.8597705000000002
v 37.5 -0.17769299999999999 -16.0302334
v 33.268268599999999 -17.576198600000001 -22.4356136
v 31.321678200000001 -20.772478100000001 -23.641744599999999
v 34.074264499999998 -16.2701855 -21.8988686
v 37.5 -3.7089884 -17.271833399999998
v 37.5 3.7396463999999998 -14.487265600000001
v 37.5 5.8723425999999996 -13.566279400000001
v 37.5 13.8771439 -9.5417088999999997
v 37.5 16.378360700000002 -8.0750989999999998
v 37.5 19.3475647 -6.1850386000000004
v 37.5 21.728530899999999 -4.5408163000000004
v 26.9865952 -28.078870800000001 -25.924058899999999
v 28.979017299999999 -24.6883774 -24.944648699999998
v 35.111496000000002 -14.6025429 -21.180082299999999
v 27.5683975 -27.083725000000001 -25.6490078
v 36.375526399999998 -12.594810499999999 -20.251577399999999
v 34.643035900000001 -15.3539543 -21.5085354
v 32.022811900000001 -19.613941199999999 -23.222959500000002
v 26.2217789 -29.395217899999999 -26.2681179
v 32.5267944 -18.787010200000001 -22.909368499999999
v 35.635452299999997 -13.767070800000001 -20.802156400000001
v 37.5 33.966136900000002 6.1904954999999999
v 37.5 -8.4123964000000004 -18.723671
v 28.269455000000001 -25.889219300000001 -25.307642000000001
v 30.680175800000001 -21.8363209 -24.016664500000001
v 37.5 23.948588399999998 -2.894617450000001
v 37.5 8.5499401000000006 -12.324711799999999
v 37.5 13.0539913 -10.0005579
v 29.59478 -23.651081099999999 -24.6193867
v 37.5 24.716748750000001 -2.2917743250000004
v 30.066040000000001 -22.861106899999999 -24.362064400000001
v 37.5 24.332668575 -2.5931958875000007
v 30.373107900000001 -22.3487139 -24.189364449999999
v 37.5 23.307685399999997 -3.3771939750000008
v 37.5 34.481390000000005 6.7530383999999994
v 37.5 35.425466549999996 7.7978820500000001
v 25.860889450000002 -30.019466399999999 -26.42380335
v 36.005489349999998 -13.18094065 -20.526866900000002
v 35.37347415 -14.184806850000001 -20.991119349999998
v 29.830410000000001 -23.256093999999997 -24.490725550000001
v 37.5 0.58716449999999987 -15.739451900000001
v 37.5 12.42898465 -10.3394928
v 31.544469800000002 36.730094899999997 6.4020213999999998
v 35.191215499999998 36.2186661 7.4987879
v 32.963241600000003 36.539997100000001 6.8096966999999999
v 29.551666300000001 36.978950500000003 5.8683471999999997
v 27.090370199999999 37.257854500000001 5.2702445999999998
v 25.841422999999999 37.387931799999997 4.9912828999999999
v 22.478591900000001 37.702613800000002 4.3164606000000001
v 15.945385 38.172538799999998 3.3086905
v 12.2141953 38.365856200000003 2.8941317
v 18.841392500000001 37.986316700000003 3.7080662000000002
v 17.302799199999999 38.089351700000002 3.4870698
v 11.0115433 38.416908300000003 2.7846462999999999
v 0.95137000000000005 38.637191799999997 2.3122457999999999
v 7.4194488999999999 38.537689200000003 2.5256321000000002
v 8.6153259000000002 38.502872500000002 2.6002898000000001
v 4.8747482 38.594203899999997 2.4044392000000001
v 2.126236 38.630260499999999 2.3271153
v 3.3048245999999999 38.618263200000001 2.3528264000000001
v 28.334472699999999 37.1206131 5.5645423000000003
v 20.053688000000001 37.897987399999998 3.8974771000000001
v 21.339923899999999 37.797359499999999 4.1132726999999996
v 14.6266403 38.247184799999999 3.1486331999999999
v 13.419311499999999 38.3093109 3.0153932999999999
v 10.1100616 38.4512863 2.7109206000000001
v 6.2279048000000001 38.567253100000002 2.4622278
v 24.904121400000001 37.481189700000002 4.7912993000000004
v 30.657012900000002 36.844066599999998 6.1576247000000004
v 34.234867100000002 36.359710700000001 7.1963191000000002
v 36.087341299999999 36.080459599999998 7.7951708000000002
v 23.691261300000001 37.5952415 4.5467123999999997
v 0.47568500000000002 38.638105400000001 2.3102867499999999
v 34.7130413 36.2891884 7.3475535000000001
v 24.297691350000001 37.538215600000001 4.6690058499999996
v 23.084926600000003 37.648927650000005 4.4315864999999999
v 36.793670649999996 35.967374800000002 8.0376767999999998
v 35.639278399999995 36.149562849999995 7.6469793500000005
v 37.146835324999998 35.910832400000004 8.1589297999999992
v 20.845806100000001 -30.219017000000001 -27.490259200000001
v 18.1309814 -30.012682000000002 -27.9327431
v 19.286407499999999 -30.096483200000002 -27.753034599999999
v 14.7092133 -29.7965889 -28.396156300000001
v 15.8519974 -29.863384199999999 -28.252912500000001
v 16.992622399999998 -29.935430499999999 -28.098405799999998
v 13.5644226 -29.734857600000002 -28.5285358
v 4.9623407999999998 -29.432312 -29.177351000000002
v 8.4239502000000002 -29.520166400000001 -28.9889507
v 9.7333297999999999 -29.565753900000001 -28.891185799999999
v 11.2693253 -29.626545 -28.760818499999999
v 7.2712168999999998 -29.485820799999999 -29.0626049
v 6.1173171999999996 -29.4564743 -29.125532199999999
v 23.1987305 -30.421926500000001 -27.055120500000001
v 22.071289100000001 -30.321561800000001 -27.270347600000001
v 3.8064494 -29.413309099999999 -29.2181091
v 2.6497723999999998 -29.399324400000001 -29.248094600000002
v 1.492424 -29.390371300000002 -29.267292000000001
v 24.323349 -30.527555499999998 -26.8285999
v 12.417747500000001 -29.6781826 -28.6500816
v 23.761039750000002 -30.474741000000002 -26.941860200000001
v 11.843536400000001 -29.6523638 -28.70545005
v 0.7462120000000001 -29.388948140132715 -29.2703474203227
v 12.991085050000001 -29.706520099999999 -28.5893087
v 24.9116745 -30.585635199999999 -26.70404435
v 37.5 30.959114100000001 18.777927399999999
v 37.5 28.511526100000001 24.0268002
v 37.5 33.406700100000002 13.5290556
v 37.5 29.123422600000001 22.714582400000001
v 37.5 32.182907100000001 16.153492
v 37.5 27.2877312 26.651237500000001
v 37.5 34.630496999999998 10.904619200000001
v 37.5 26.675834699999999 27.963455199999999
v 37.5 30.3472176 20.090147000000002
v 37.5 35.242393499999999 9.5924005999999995
v 37.5 32.794803600000002 14.841273299999999
v 37.5 31.571010600000001 17.465709700000001
v 37.5 34.018600499999998 12.216836900000001
v 37.5 27.899629600000001 25.339019799999999
v 37.5 29.735319100000002 21.4023647
v 37.5 26.369886399999999 28.619564050000001
v 37.5 26.981782949999999 27.30734635
v 37.5 35.548341749999999 8.9362916999999999
v 37.5 26.21691225 28.947618474999999
v 21.6081924 -34.641368900000003 -18.006498300000001
v 19.662288700000001 -36.6401939 -13.7200031
v 24.527048099999998 -31.643127400000001 -24.4362411
v 20.635240599999999 -35.640781400000002 -15.8632507
v 22.581144299999998 -33.641952500000002 -20.149745899999999
v 18.6893368 -37.639606499999999 -11.576755500000001
v 18.202861800000001 -38.139312699999998 -10.5051317
v 25.013525000000001 -31.143421199999999 -25.507865899999999
v 24.0405731 -32.142833699999997 -23.3646183
v 20.148765600000001 -36.140487700000001 -14.791626900000001
v 23.067621200000001 -33.142246200000002 -21.221370700000001
v 19.175813699999999 -37.1399002 -12.6483793
v 22.0946693 -34.141658800000002 -19.078123099999999
v 21.121717499999999 -35.141075100000002 -16.9348755
v 23.5540962 -32.642539999999997 -22.292993500000001
v 25.256762500000001 -30.893568049999999 -26.043677349999999
v 17.959623350000001 -38.389165849999998 -9.969319800000001
v 18.4460993 -37.889459599999995 -11.0409436
v 35.069531474447757 -5.084277716696894 2.9953077888316937
v 34.259223937664508 -4.7218972681717144 2.76011480698239
v 31.444971751081376 -3.6904666384992826 1.957240140524465
v 32.444633173764132 -4.0167049652562214 2.2429535491147359
v 33.384376271939225 -4.3627345406500098 2.5100089054635744
v 25.825276212626797 -2.3542666236956338 0.48373825578494645
v 26.9994369755149 -2.5963604591708744 0.76290081182332392
v 28.157705390645617 -2.8465275336910811 1.0561640690995371
v 29.291463032578836 -3.1089044308886002 1.3579524683514488
v 22.250219168782337 -1.6628713788141434 -0.26187379101659547
v 17.271554731407022 -0.94582967333326029 -1.107682337260619
v 18.550805572536952 -1.0896721320996607 -0.90289813268489505
v 19.804839043573722 -1.2602353149566563 -0.69400594455313769
v 30.390679624868923 -3.3886247801994687 1.6606713997269726
v 2.011711339031653 -0.60892602440790489 -2.6253006758606268
v 3.0840331693028391 -0.58916065697474385 -2.5872375509906806
v 4.2190326959841409 -0.57564012264896292 -2.536923100495331
v 5.4161470497832287 -0.56803226608194102 -2.4706565581832471
v 6.6665916875932769 -0.56574903411853183 -2.3861035455263586
v 7.957850560107758 -0.56890176484311372 -2.2823178711684529
v 9.2772244763237772 -0.57923917870298691 -2.1582635574077704
v 10.613966794069475 -0.59851527086103762 -2.0160220680418628
v 11.959278388385275 -0.62905198473421375 -1.8586428899963088
v 13.3050303182638 -0.67515265289092041 -1.6864135258200244
v 14.643551353029036 -0.74103521786450233 -1.5013315984535969
v 15.967768990874379 -0.83020511091254445 -1.3074629390932238
v 37.5 3.7396463999999998 -14.487265600000001
v 1.2298755181244432 6.6469915724633939 -20.210175053072444
v 35.454932484892794 4.5589076329588405 -14.917161088143647
v 36.478985154745246 4.1653418479976807 -14.698530511078356
v 34.424081993565068 4.8967312887200531 -15.147937186927168
v 33.384532538456178 5.1730691574732104 -15.399996913255732
v 32.328985994436451 5.3921048619061285 -15.666749154152969
v 30.143662565635722 5.7253902355959161 -16.213033780446082
v 31.250037832690637 5.5690011249737426 -15.938932172912473
v 29.008594637647093 5.8787259941388532 -16.486328501750165
v 27.846275100964746 6.0351328626367717 -16.752847000257404
v 2.4635634422576445 6.5276496050663582 -20.239058814571706
v 3.7034817713160915 6.417644654161557 -20.249447855088846
v 4.9499309441601786 6.3232297522079461 -20.238584793564321
v 7.4539733033858617 6.200031853170783 -20.142382791867746
v 6.2011434966811372 6.2496253590216835 -20.204067006718216
v 8.7053999294267221 6.1780771569735844 -20.05623094987115
v 11.19386387324866 6.2130785356739429 -19.811982988197819
v 12.42696701284323 6.2611876537843658 -19.656160471779575
v 13.650211021367816 6.3215039817943772 -19.481765917445259
v 16.059315989976501 6.4533681849338729 -19.088987669031241
v 14.861511423320538 6.387351695669337 -19.291466998695697
v 17.243121173530888 6.5142530653781199 -18.876097837848477
v 18.414721168602096 6.5651825612153552 -18.655335985129142
v 19.578420449069583 6.600524181095782 -18.429084164528405
v 20.740318860563342 6.6131785095591544 -18.19862227347987
v 21.907022104109039 6.5959169008893355 -17.96513052468865
v 23.083612419225275 6.5434611658603377 -17.729761435649721
v 24.271480675940985 6.4545898506614279 -17.492749997687909
v 25.466902116842853 6.3332758120466845 -17.252132880293711
v 37.499997966907308 -0.97180554319181034 -4.961334430017331
v 37.499766513966193 -3.2515247444657409 -1.1581235655202569
v 37.499999997051418 1.2940625194707009 -9.1279819880957724
v 37.476153255012228 -4.8259266358014354 1.3608786683135865
v 37.499999983742065 0.7455289578308375 -8.069308402710103
v 37.499972696911527 -2.1262386393480774 -2.9999309051301233
v 37.499999999965965 2.8182800931955425 -12.329519495173137
v 37.499999999992284 3.2847186462261662 -13.406581750071211
v 37.499940246230466 -2.6936397151057996 -2.0632214224785907
v 37.49999999940718 1.8239739428171897 -10.190983167237089
v 37.499999999905292 2.3323632753465713 -11.257805714671198
v 37.499999888673194 0.18200282546326832 -7.018223167912053
v 37.499991826436755 -1.5513391415750182 -3.9667220708031952
v 37.446969750880321 -5.2986144446840084 2.1396296552525182
v 37.499999695750446 -0.39218489050242766 -5.9802090303980346
v 9.9527836947495096 6.1837447297269126 -19.9464325339043
v 37.495610515083783 -4.3238712148088414 0.55361282006861923
v 24.641221203032636 -2.1178635412260221 0.22097474381244975
v 37.49923865731413 -3.7967716529509108 -0.28572155787046938
v 26.66191790512157 6.1892783068850221 -17.006014329611133
v 23.450664057168201 -1.8856334788243148 -0.02930853792517131
v 21.036952366076427 -1.4521469809274672 -0.48344557907770008
v -5.5511151231257827e-17 -0.66281415477556382 -2.6813227777866899
v 1.3877787807814506e-17 6.7697802575724904 -20.168564756337986
v 37.391306474922843 -5.743749910541931 2.8949291053035111
v 37.215749750000001 -6.1288795499999997 3.6427268000000002
v 35.821800684467995 -5.4413203926833855 3.2189945248523024
v 36.530962732731403 -5.7883148953293322 3.4325147245538101
v 0.99114212295424386 -0.6341213499154863 -2.6554949928947083
v 17.716384900000001 -38.639018999999998 -9.4335079000000004
v -5.5511151231257827e-17 -11.184563186200828 -6.4157872897835606
v -2.7755575615628914e-17 -26.598753714777857 -9.7443978734969789
v 3.4694469519536339e-17 -35.175628514765265 -10.760238295740249
v 2.7755575615628914e-17 9.6577687945772368 2.6373181274353863
v 2.4286128663674483e-17 13.699736711597584 5.3261968560627659
v -6.2450045135164365e-17 14.654243657319711 6.0243296875751255
v -2.7755575615629024e-17 16.640596163980096 7.5622675388788636
v 5.5511151231257827e-17 27.312985406355075 18.358803307823607
v 37.5 26.063938100000001 29.2756729
v -1.1102230246251565e-16 3.264469162151066 -0.88230114763166811
v 25.5 -30.643714899999999 -26.5794888
v 0 18.431816099999999 9.0533275999999994
v -2.7755575615629105e-17 15.644378339915068 6.7756617082172124
v -2.7755575615628914e-17 11.733977091307748 3.9676038976102235
v 0 8.6316964131564902 2.0149079007646473
v 37.5 35.854289999999999 8.2801828000000004
v 0 38.639018999999998 2.3083277
v -5.5511151231257827e-17 12.162587418382657 -17.682233587025706
v 0 13.972710599999999 -16.759252499999999
v 0 34.462776553525018 -2.0196340209724704
v 1.3877787807814457e-17 35.230188173598421 -1.2683616049195572
v -1.1102230246251565e-16 -37.444501992918006 -11.995158651373007
v 5.5511151231257827e-17 -34.051418161974439 -19.271649343706386
v 5.5511151231257827e-17 -31.390879565097272 -10.375818016178696
v 0 -37.914566000000001 -10.987105400000001
v 0 -8.4573689000000005 -25.379661599999999
v 0 31.5637474 -4.7030944999999997
v 0 34.8589439 10.4147234
v -6.9388939039071336e-18 21.172993458931156 11.559024953171541
v 2.7755575615628926e-17 -23.590417980099964 -28.505623783426731
v -9.7144514654701296e-17 3.3324431208011376 -21.561605549197402
v -3.4694469519536111e-18 -12.331041375744512 -6.7408365237792935
v -4.163336342344337e-17 -19.792952866091959 -8.5379345803081215
v -1.2143064331837875e-17 -7.1995839354833926 -5.166274918640493
v 0 19.207727388797441 9.734902906199066
v -2.6020852139652603e-17 24.509923564459989 15.021781156562463
v 5.5511151231257827e-17 25.227829973041125 15.836835984178455
v 1.3877787807814201e-17 26.562872639243217 17.423293059175222
v -2.4286128663675386e-17 27.977880019661306 19.212810936301771
v 2.4651903288156619e-32 -29.3143986247062 -10.122956989882869
v -1.3877787807814617e-17 -25.339208524420449 -9.5483321459696793
v 0 -23.625455627922484 -9.2631302847264489
v 1.3877787807814716e-17 -18.524370012805882 -8.2693483577641551
v -8.3266726846886753e-17 -16.634191061009183 -7.8416034419899106
v 5.5511151231257827e-17 -13.910536554405233 -7.1658252780689073
v 2.0816681711721713e-17 -10.097321214964444 -6.0926886261072744
v 4.8572257327350605e-17 -2.820853029042711 -3.5656878048503851
v -5.5511151231257827e-17 -0.66281415477556382 -2.6813227777866899
v 1.3877787807814469e-17 0.36016582981400258 -2.2374250045468709
v -5.5511151231257827e-17 1.3615063269206609 -1.7857488350900976
v -4.1633363423443376e-17 2.2196324341485933 -1.3849527902246233
v -2.7755575615627921e-17 -33.830366691126898 -10.635704779494045
v 4.163336342344337e-17 25.792290985637411 16.496094143303473
v -1.1102230246251565e-16 5.2405149529313642 0.1176954170387793
v -2.4286128663675373e-17 4.1864467561487171 -0.42607310456407871
v 6.9388939039072299e-18 6.4381207738041608 0.76274462595719306
v -2.7755575615628904e-17 7.5110843389316182 1.3628723095595432
v -1.3877787807814484e-17 10.701293572845186 3.2934231086310968
v 5.5511151231257741e-17 12.74577837608661 4.6546841459374306
v 1.3877787807814457e-17 17.561301040506759 8.316606477798592
v 1.3877787807814497e-17 23.087603653475036 13.487523018518779
v -1.1102230246251565e-16 23.72292889615624 14.161784643256716
v -4.1633363423443407e-17 28.782638070435162 20.286335130919174
v 2.7755575615628987e-17 19.843456005008242 10.30892950997336
v 0 20.509259232244663 10.925929892357644
v 2.0816681711721704e-17 -20.909162765808503 -8.7633443287073014
v -1.3877787807814414e-17 -4.9467384167355828 -4.3739080714170431
v -5.5511151231257827e-17 -3.8980257209492799 -3.9836087776018472
v -5.5511151231257827e-17 -1.5157203959345689 -3.0383982841387658
v -1.1102230246251565e-16 -6.1632333351813795 -4.8096800078958033
v 1.5612511283791443e-17 35.721613114877094 8.5647353649653528
v 5.5511151231257827e-17 36.184602426124258 7.5718468663168217
v -5.5511151231258123e-17 -18.848725382940742 -27.71111587145932
v -6.9388939039074364e-18 -16.457924850445522 -27.250335528818887
v 2.428612866367557e-17 36.081825576826759 -0.40940163648339323
v 2.4286128663675352e-17 26.972918629480446 -8.4791269630948296
v -1.3877787807814432e-17 20.213803856018448 -13.172909565569691
v -1.3877787807814635e-17 17.674680023819498 -14.706988329971553
v 5.5466782398352393e-32 10.953468303372336 -18.272521132034431
v -1.3877787807814703e-17 12.96734014331442 -17.277036965749232
v 1.3877787807814669e-17 0.94732904005020513 -22.449732867874395
v 2.0816681711720748e-17 -24.847770874481935 -28.691510369618186
v -6.9388939039072284e-18 1.9948851677716541 -22.067087013984889
v -5.5511151231257827e-17 37.033811975646927 0.5789694836160354
v -2.7755575615629179e-17 33.783009501074488 -2.6695585045393848
v 4.1633363423443376e-17 9.9007496093420162 -18.771451835612972
v -5.5511151231257876e-17 -7.0366163160292352 -24.989983061043031
v 2.7755575615628855e-17 -9.9308369264786975 -25.762449221515226
v 0 -12.117885468458461 -26.299942625731731
v -5.5511151231257827e-17 -26.027935123582402 -28.853358917450876
v -2.7755575615628914e-17 -26.90982721152227 -28.969304581592979
v 1.3877787807814424e-17 21.511254813474636 -12.343300288195399
v 2.7755575615628192e-17 22.863780270173116 -11.444359877446137
v 2.7755575615628914e-17 37.671541015007243 1.259499277531446
v -2.0522709487390557e-30 -3.5354945809279585 -23.953817614467098
v -5.5511151231257827e-17 5.8776083238152594 -20.54319897051824
v 1.3877787807814506e-17 6.7697802575724904 -20.168564756337986
v 0 14.987701274375329 -16.215459851824249
v -5.2041704279323195e-18 16.34000791875842 -15.472675108547389
v 4.1633363423443481e-17 19.249630130763194 -13.770044179983461
v -1.1102230246251565e-16 30.119004017585844 20.579556929779827
v -1.3877787807814343e-17 30.681103559909047 19.374125457867535
v -2.0954117794933126e-31 -30.312659427125411 -27.28944946771297
v 1.3877787807814449e-17 -32.586483496032734 -22.413211419830461
v 0 -33.0520131285232 -21.414881586641101
v 4.8572257327349853e-17 -32.088749352958985 -23.480609342274018
v 4.163336342344337e-17 29.680060396883704 21.520875519414759
v 2.7755575615628914e-17 37.138892012499404 5.5253652422035575
v 0 37.705676360252916 4.3098856309087363
v -6.9388939039072114e-18 32.934876527039457 14.540899301209048
v 6.9388939039072518e-17 36.590347012752972 6.7017222375861394
v 8.3266726846886741e-17 31.580446500672977 17.445483292161601
v 8.3266726846886741e-17 35.278239883455861 9.5155378668553876
v 0 33.452008100652066 13.431902508037714
v 1.6653345369377348e-16 -29.387524980265429 -29.273402840645399
v -8.6736173798580277e-19 -33.564156994015953 -20.316583722348735
v 5.5511151231257716e-17 -35.944074221968691 -15.212839649123065
v 1.3877787807814383e-17 -36.922995208805403 -13.113533501711293
v 0 -31.474870614771746 -24.797074036665464
v -6.9388939039069017e-18 -30.884797784381867 -26.062483179329011
v 0 -29.904905207581383 -28.163873720410688
v -1.3877787807814457e-17 -28.264344742261063 -29.139671288140917
v 0 -17.687544984371314 -8.0844531421913821
v 0 -21.841229344224942 -28.229503182126976
v 2.775557561562875e-17 -22.173090840587186 -9.0020605778259437
v 2.0816681711721423e-17 -20.373060132423802 -27.984100320538452
v -1.3877787807814448e-17 -2.1014377340738775 -23.494159736420631
v -6.1629758220391547e-33 -15.456568504418783 -7.5596133934274672
v -4.3368086899419912e-17 24.031043853624254 -10.638273796879403
v 1.3877787807814605e-17 30.223149793184398 -5.859195216102087
v 4.1633363423443315e-17 -0.38757732444929544 -22.917657115142241
v -3.4694469519536074e-17 -32.863685691862059 -10.536857941583039
v -3.4694469519538522e-18 38.204694173965422 3.2397395737186154
v -2.7755575615629111e-17 33.881749863089198 12.510319334413314
v 1.1102230246251565e-16 34.392122364286777 11.415821886543208
v -1.3877787807814642e-17 31.219380572076673 18.219786581735487
v -1.3877787807813503e-17 -27.782120765724837 -9.9171518061820372
v 0 32.524682540537938 15.420558081827805
v -2.0816681711721728e-17 31.995888102866754 16.55456018082576
v -3.469446951953625e-18 22.244012229793334 12.616371030812209
v 2.7755575615628174e-17 27.791418152492518 -7.8451516367290655
v 0 -36.595527947410851 -10.881165828693543
v 8.3266726846886851e-17 28.922646733641862 -6.9365848659018825
v 2.4286128663675879e-17 -34.559332765174894 -18.182419109756136
v -6.9388939039072333e-17 -14.918871157373459 -26.931005692416708
v -4.3140830754274083e-32 -17.679506375612238 -27.492292913386429
v 5.5511151231257827e-17 -11.086296863713081 -26.051015896210515
v 2.7755575615628901e-17 -35.373219877329539 -16.437041645806858
v 2.0816681711721701e-17 -13.494880703133422 -26.617555604981256
v 8.3266726846886617e-17 -8.509625009581633 -5.5955601664088732
v -1.1102230246251565e-16 -36.485887346323111 -14.05091450566119
v 5.5511151231257827e-17 -5.9934147667655058 -24.692548110414105
v 2.7755575615628667e-17 -4.9463985695103778 -24.383526841397199
v 3.4694469519536062e-17 25.332600417743265 -9.7043466826938456
v -2.7755575615628753e-17 -30.497190702685813 -10.270568754742174
v 1.1102230246251565e-16 -34.996738139545926 -17.244409688633894
v 1.3877787807814407e-17 8.2203352619336023 -19.536173705919172
v -4.1633363423443247e-17 4.8133667823638104 -20.978046106292606
v -1.3877787807814457e-17 32.749620421780691 -3.6344567516930715
v 2.9490299091605708e-17 26.152759523611856 -9.0917368228943367
v 1.3877787807814494e-17 19.525591696902843 10.021916208086214
v 0.51636634999999997 29.678893548441852 21.523372459707382
v -1.8488927466117464e-32 29.231349233659433 20.903605325166964
v -6.7654215563095514e-17 3.7254579591498915 -0.65418712609787344
v -3.4694469519536111e-18 -3.3594393749959952 -3.7746482912261161
v -6.1582683397176763e-17 -6.681408635332386 -4.9879774632681482
v 36.986688600000001 26.1800785 29.02660655
v 2.4286128663674837e-17 -24.219094427290948 -28.598567076522457
v 1.3877787807814457e-17 38.15528000750362 1.7839134887657231
v 0.47568500000000002 38.638105400000001 2.3102867499999999
v -6.9388939039073516e-18 13.47002537165721 -17.018144732874617
v 37.5 35.425466549999996 7.7978820500000001
v 25.256762500000001 -30.893568049999999 -26.043677349999999
v -5.5511151231257827e-17 -37.679533996459 -11.491132025686504
v 25.860889450000002 -30.019466399999999 -26.42380335
v 37.5 35.548341749999999 8.9362916999999999
v 0.47970574999999999 -37.9158039 -10.984446550000001
v 0.7462120000000001 -29.388948140132715 -29.2703474203227
v 18.023338299999999 -38.15228845 -9.3400649999999992
v 17.959623350000001 -38.389165849999998 -9.969319800000001
v 7.6327832942979512e-17 -28.825934861263246 -29.20653706439316
v 2.6020852139652106e-17 -13.120788965074873 -6.9533309009241009
v -6.2450045135164994e-17 30.400053788747446 19.976841193823681
v 3.4694469519536049e-17 31.399913536374825 17.832634936948544
v -1.0408340855860864e-17 32.260285321702348 15.987559131326783
v 24.9116745 -30.585635199999999 -26.70404435
v 1.734723475976817e-17 -35.885578231088061 -10.820702062216895
v 1.3877787807814427e-17 -9.1941029132393481 -25.571055410757612
v 4.1633363423443339e-17 -10.508566895095889 -25.906732558862871
v 4.163336342344337e-17 35.068591891727934 9.9651306334276946
v 0 -37.255046973705426 -10.934135614346772
v 1.3877787807813307e-17 -4.2409465752191684 -24.168672227932149
v -2.0816681711721697e-17 11.217635332076467 3.6305135031206603
v 6.9388939039072284e-17 -35.184979008437736 -16.840725667220376
v 4.1633363423443309e-17 -35.658647049649119 -15.824940647464961
v 16.791582099999999 -38.566373799999994 -9.5892934499999996
v -6.9388939039072271e-17 4.0729049515824745 -21.269825827745002
v -4.8572257327350549e-17 5.3454875530895354 -20.760622538405421
v -2.9490299091605721e-17 -11.757802280972669 -6.5783119067814271
v -6.7654215563095514e-17 4.7134808545400411 -0.15418884376264971
v 6.9388939039072145e-18 10.179531183711212 2.9653706180332415
v 6.9388939039072284e-18 17.996558570253377 8.6849670388992948
v -4.857225732735058e-17 23.405266274815638 13.824653830887748
v 1.3877787807814494e-17 20.176357618626454 10.617429701165502
v -6.8521577301084127e-17 24.116426230308114 14.591782899909589
v -3.4694469519536117e-17 -4.4223820688424311 -4.1787584245094447
v -5.5511151231257827e-17 -1.0892672753550661 -2.8598605309627279
v -3.4694469519536115e-18 -2.1682867124886398 -3.3020430444945759
v -6.2450045135165031e-17 -5.5549858759584811 -4.5917940396564232
v 3.5561831257524632e-17 35.953107770500679 8.0682911156410881
v -1.5612511283791128e-17 36.557818776236843 0.084783923566321084
v -2.4651903288156619e-32 -6.5150155413973705 -24.841265585728568
v -1.7347234759768539e-17 -25.437852999032167 -28.772434643534531
v -1.3877787807814457e-17 37.352676495327088 0.91923438057374063
v -3.4694469519536265e-17 12.564963780848538 -17.479635276387469
v -3.4694469519536142e-17 29.899532207234774 21.050216224597293
v 3.1225022567582503e-17 31.788167301769867 17.000021736493679
v 4.9439619065339088e-17 35.499926499166477 9.0401366159103702
v -3.4694469519536057e-18 33.193442313845765 13.98640090462338
v -2.7755575615628938e-17 -7.7469926080146179 -25.184822330521513
v -1.7347234759769261e-18 38.421856586982713 2.7740336368593077
v 4.1633363423443272e-17 34.136936113687987 11.963070610478262
v 8.3266726846886741e-17 -29.646215093923406 -28.718638280528044
v -3.4694469519536057e-18 32.729779533788701 14.980728691518426
v -6.9388939039072838e-18 17.100948602243427 7.9394370083387278
v -1.3877787807814555e-17 33.666878981870632 12.971110921225513
v 5.5511151231257827e-17 34.625533132143389 10.915272643271603
v -1.7347234759769261e-18 37.955185267109172 3.7748126023136761
v 1.040834085586085e-17 -12.806383085795941 -26.458749115356493
v -2.4286128663675318e-17 -14.206875930253441 -26.774280648698983
v -2.7755575615628969e-17 -36.214980784145901 -14.631877077392128
v -4.8572257327350636e-17 -36.704441277564257 -13.582224003686242
v 4.1633363423443247e-17 -5.4699066681379414 -24.538037475905654
v 6.2450045135165179e-17 36.387474719438615 7.1367845519514805
v 3.2092384305570882e-17 25.74267997067756 -9.3980417527940912
v -1.3877787807814589e-17 34.122893027299753 -2.3445962627559274
v -2.0816681711721818e-17 33.266314961427589 -3.1520076281162281
v -2.0816681711721685e-17 -27.587085976891665 -29.054487934866948
v 2.6888213877640528e-17 26.562839076546151 -8.785431892994584
v -3.2959746043559396e-17 28.380259045048234 19.749573033610474
v 37.5 26.21691225 28.947618474999999
v 1.3877787807814463e-17 -22.715823662162453 -28.367563482776852
v 2.0816681711721676e-17 29.455704815271567 21.212240422290861
v 37.146835324999998 35.910832400000004 8.1589297999999992
v 37.5 25.878654924999999 29.000274175000001
v 3.4694469519536142e-18 29.789796302059237 21.285545872006026
v 0 -37.584806486852713 -10.960620507173386
v -36.931499500000001 -6.6373252999999997 3.2970798000000001
v -36.056167600000002 -8.1920204000000005 2.2822277999999998
v -34.982669799999996 -10.079463000000001 1.1239309
v -33.245048500000003 -13.0976 -0.58501380000000003
v -29.757142999999999 -19.034746200000001 -3.4715557000000001
v -26.752756099999999 -24.0406151 -5.4720696999999996
v -25.823359499999999 -25.571696250000002 -6.0125756499999996
v -25.075324999999999 -26.799053199999999 -6.4252647999999999
v -21.677324299999999 -32.3148956 -8.0331048999999997
v -18.3302917 -37.665557900000003 -9.2466220999999997
v -27.549703600000001 -22.7216053 -4.9811873000000002
v -30.305423699999999 -18.111103100000001 -3.0611467000000001
v -37.5 -3.8638846999999998 4.7114563
v -37.5 -4.7081871 4.3578124000000003
v -37.5 1.1558037000000001 7.0570135000000001
v -37.5 22.608305000000001 24.481735199999999
v -37.5 23.539394399999999 25.6894417
v -37.5 24.4637928 26.943697
v -37.5 20.494337099999999 21.944871899999999
v -37.5 19.920947999999999 21.3005733
v -37.5 18.93229105 20.233676899999999
v -37.5 11.9119034 13.867541299999999
v -37.5 8.1211319 11.1364698
v -37.5 6.4453354000000003 10.052950900000001
v -37.5 0.069200499999999998 6.5108766999999999
v -37.5 -5.6204337999999998 3.9883738000000002
v -34.476821899999997 -10.963068 0.6040373
v -24.327182799999999 -28.0208607 -6.8124298999999997
v -22.460170699999999 -31.052045799999998 -7.6981959
v -37.5 -1.0265960000000001 5.9819956000000003
v -37.5 5.6015968000000003 9.5334339000000003
v -37.5 4.4562631000000001 8.8552475000000008
v -37.5 9.9529733999999994 12.405231499999999
v -37.5 10.918016400000001 13.110573799999999
v -37.5 14.5965405 16.074438099999998
v -37.5 15.450859100000001 16.831310299999998
v -37.5 16.923669799999999 18.205619800000001
v -37.5 7.2419333000000004 10.5589333
v -37.5 21.959651900000001 23.6742268
v -37.5 17.8404007 19.1076984
v -37.5 21.1458969 22.6980495
v -32.468402850000004 -14.432567599999999 -1.2859611499999992
v -31.897102400000001 -15.410232499999999 -1.7820307
v -29.086845400000001 -20.159767200000001 -3.9546456000000001
v -37.5 -2.4506242 5.3289862000000001
v -33.860729200000002 -12.0333538 -0.0026821000000000002
v -28.403114299999999 -21.302267100000002 -4.4245672000000003
v -30.760742199999999 -17.3416061 -2.7092461999999999
v -37.5 3.4237339000000002 8.2669344000000002
v -35.668014499999998 -8.8765897999999996 1.85395
v -19.580745700000001 -35.675437899999999 -8.8331575000000004
v -18.9605484 -36.6639366 -9.0446881999999995
v -37.5 16.1110039 17.435489700000002
v -20.250177399999998 -34.605449700000001 -8.5912866999999995
v -27.9770164 -22.011472699999999 -4.7049707999999999
v -37.5 2.5077607999999998 7.7653302999999996
v -36.4785118 -7.4435539000000004 2.7644403
v -23.707008399999999 -29.031045899999999 -7.1214914
v -23.112922699999999 -29.995542499999999 -7.4032121000000002
v -21.074356099999999 -33.284645099999999 -8.2778845000000008
v -37.5 8.8572120999999999 11.6347437
v -31.3746109 -16.300142300000001 -2.2168383999999999
v -37.5 12.918350200000001 14.667036100000001
v -37.5 25.3228054 28.174078000000002
v -37.5 13.8792305 15.4601202
v -37.215749750000001 -6.1288795499999997 3.6427268000000002
v -36.705005650000004 -7.0404396 3.03076005
v -36.267339700000001 -7.8177871500000009 2.5233340499999999
v -35.862091050000004 -8.534305100000001 2.0680888999999998
v -37.5 -5.1643104500000003 4.1730931
v -37.5 7.6815326000000006 10.84770155
v -37.5 15.023699799999999 16.452874199999997
v -37.5 15.780931500000001 17.133400000000002
v -37.5 6.8436343500000003 10.305942099999999
v -37.5 24.8932991 27.558887500000001
v -37.5 16.51733685 17.820554749999999
v -37.5 25.693371750000001 28.724875449999999
v -18.023338299999999 -38.15228845 -9.3400649999999992
v -18.645420049999998 -37.164747250000005 -9.1456551499999996
v -27.763359999999999 -22.366539 -4.8430790500000001
v -28.190065349999998 -21.6568699 -4.5647690000000001
v -37.5 13.398790350000001 15.063578150000001
v -37.5 14.237885500000001 15.76727915
v -28.74497985 -20.73101715 -4.1896064000000006
v -37.5 25.878654924999999 29.000274175000001
v -15.866779299999999 -38.493728599999997 -9.7450790000000005
v -13.4486694 -38.3283463 -10.0997419
v -14.626388499999999 -38.4052048 -9.9349164999999999
v -11.082045600000001 -38.194835699999999 -10.386061700000001
v -12.267082200000001 -38.258274100000001 -10.2500257
v -9.8939743 -38.1378822 -10.5082006
v -4.5573654000000001 -37.961826299999998 -10.885752699999999
v -2.1590878999999998 -37.925411199999999 -10.963843300000001
v -3.3585509999999998 -37.940284699999999 -10.9319487
v -6.9549637000000004 -38.024875600000001 -10.7505445
v -8.5722351000000003 -38.0823593 -10.6272717
v -0.95941149999999997 -37.9170418 -10.9817877
v -5.7551651000000001 -37.990051299999998 -10.825223899999999
v -5.1562652500000006 -37.975938799999994 -10.855488299999999
v -0.47970574999999999 -37.9158039 -10.984446550000001
v -1.5592496999999998 -37.921226500000003 -10.972815499999999
v -6.3550643999999998 -38.007463450000003 -10.787884200000001
v -16.791582099999999 -38.566373799999994 -9.5892934499999996
v -35.710014299999997 26.462654100000002 28.420614199999999
v -33.477680200000002 26.916448599999999 27.4474716
v -10.642423600000001 29.436298399999998 22.043611500000001
v -11.762166000000001 29.382257500000001 22.159521099999999
v -4.7446136000000001 29.631158800000001 21.6257381
v -1.0327326999999999 29.677726700000001 21.525869400000001
v -3.5239239000000002 29.652263600000001 21.580482499999999
v -2.0867391 29.670305299999999 21.541789999999999
v -5.6959295000000001 29.609655400000001 21.671854
v -7.9820165999999997 29.542060899999999 21.8168106
v -6.7857174999999996 29.580328000000002 21.734750699999999
v -12.7512636 29.329564999999999 22.272527700000001
v -15.0525818 29.188812299999999 22.574358
v -16.1794701 29.1105366 22.742218000000001
v -18.906164199999999 28.892871899999999 23.2090073
v -21.732818600000002 28.624671899999999 23.784170199999998
v -23.610839800000001 28.418397899999999 24.2265224
v -26.954940799999999 27.993062999999999 25.138649000000001
v -29.512607599999999 27.612138699999999 25.955543500000001
v -30.5444031 27.444145200000001 26.315803500000001
v -31.563974399999999 27.269624700000001 26.690067299999999
v -36.473377200000002 26.2962189 28.777540200000001
v -9.5287465999999998 29.4844875 21.940288500000001
v -13.9658699 29.258354199999999 22.425226200000001
v -24.480955099999999 28.314910900000001 24.448442499999999
v -28.455837200000001 27.775474500000001 25.605272299999999
v -25.6335449 28.170602800000001 24.757921199999998
v -22.6024265 28.531789799999999 23.983339300000001
v -20.279033699999999 28.7675266 23.477806099999999
v -17.307559999999999 29.025638600000001 22.9242764
v -32.532188400000003 27.094985999999999 27.064588499999999
v -34.616767899999999 26.690448799999999 27.9321117
v -35.163391099999998 26.57655145 28.176362949999998
v -0.51636634999999997 29.678893548441852 21.523372459707382
v -1.5597359 29.674016000000002 21.533829699999998
v -36.09169575 26.379436500000001 28.5990772
v -36.986688600000001 26.1800785 29.02660655
v -23.10663315 28.47509385 24.104930850000002
v -24.045897449999998 28.366654400000002 24.33748245
v -34.047224049999997 26.803448699999997 27.68979165
v -15.616025950000001 29.149674449999999 22.658287999999999
v -16.743515049999999 29.068087599999998 22.833247200000002
v -32.048081400000001 27.18230535 26.877327899999997
v -33.004934300000002 27.005717300000001 27.25603005
v -37.5 -10.8270464 -19.386243799999999
v -36.985149399999997 -11.633422899999999 -19.788892700000002
v -37.5 29.496471400000001 1.7584888000000001
v -37.5 32.197574600000003 4.3557711000000001
v -37.5 31.235807399999999 3.4035915999999999
v -37.5 34.9966431 7.3155812999999998
v -37.5 33.120735199999999 5.2989401999999997
v -37.5 28.804704699999998 1.1331205
v -37.5 27.799104700000001 0.2450658
v -37.5 26.53897855 -0.82473795000000005
v -37.5 25.484909099999999 -1.6889312000000001
v -37.5 20.656234699999999 -5.2952642000000001
v -37.5 18.369762399999999 -6.8269295999999997
v -37.5 17.371257799999999 -7.4621924999999996
v -37.5 14.985815000000001 -8.9044018000000005
v -37.5 11.803978000000001 -10.6784277
v -37.5 10.8357086 -11.1849585
v -37.5 9.6931267000000005 -11.764516800000001
v -37.5 7.4208190500000004 -12.85759595
v -37.5 4.8508076999999998 -14.015474299999999
v -37.5 2.6068761 -14.952082600000001
v -37.5 -9.3614444999999993 -18.989383700000001
v -37.5 1.3520219999999996 -15.448670400000001
v -37.5 -7.4259681999999998 -18.436304100000001
v -37.5 -6.1779938000000003 -18.0607243
v -37.5 -4.9572358000000003 -17.6783371
v -37.5 -2.4879378999999999 -16.858327899999999
v -37.5 -1.2826595000000001 -16.433458300000002
v -37.5 30.314033500000001 2.5206444000000001
v -37.5 22.666782399999999 -3.8597705000000002
v -37.5 -0.17769299999999999 -16.0302334
v -33.268268599999999 -17.576198600000001 -22.4356136
v -31.321678200000001 -20.772478100000001 -23.641744599999999
v -34.074264499999998 -16.2701855 -21.8988686
v -37.5 -3.7089884 -17.271833399999998
v -37.5 3.7396463999999998 -14.487265600000001
v -37.5 5.8723425999999996 -13.566279400000001
v -37.5 13.8771439 -9.5417088999999997
v -37.5 16.378360700000002 -8.0750989999999998
v -37.5 19.3475647 -6.1850386000000004
v -37.5 21.728530899999999 -4.5408163000000004
v -26.9865952 -28.078870800000001 -25.924058899999999
v -28.979017299999999 -24.6883774 -24.944648699999998
v -35.111496000000002 -14.6025429 -21.180082299999999
v -27.5683975 -27.083725000000001 -25.6490078
v -36.375526399999998 -12.594810499999999 -20.251577399999999
v -34.643035900000001 -15.3539543 -21.5085354
v -32.022811900000001 -19.613941199999999 -23.222959500000002
v -26.2217789 -29.395217899999999 -26.2681179
v -32.5267944 -18.787010200000001 -22.909368499999999
v -35.635452299999997 -13.767070800000001 -20.802156400000001
v -37.5 33.966136900000002 6.1904954999999999
v -37.5 -8.4123964000000004 -18.723671
v -28.269455000000001 -25.889219300000001 -25.307642000000001
v -30.680175800000001 -21.8363209 -24.016664500000001
v -37.5 23.948588399999998 -2.894617450000001
v -37.5 8.5499401000000006 -12.324711799999999
v -37.5 13.0539913 -10.0005579
v -29.59478 -23.651081099999999 -24.6193867
v -37.5 24.716748750000001 -2.2917743250000004
v -30.066040000000001 -22.861106899999999 -24.362064400000001
v -37.5 24.332668575 -2.5931958875000007
v -30.373107900000001 -22.3487139 -24.189364449999999
v -37.5 23.307685399999997 -3.3771939750000008
v -37.5 34.481390000000005 6.7530383999999994
v -37.5 35.425466549999996 7.7978820500000001
v -25.860889450000002 -30.019466399999999 -26.42380335
v -36.005489349999998 -13.18094065 -20.526866900000002
v -35.37347415 -14.184806850000001 -20.991119349999998
v -29.830410000000001 -23.256093999999997 -24.490725550000001
v -37.5 0.58716449999999987 -15.739451900000001
v -37.5 12.42898465 -10.3394928
v -31.544469800000002 36.730094899999997 6.4020213999999998
v -35.191215499999998 36.2186661 7.4987879
v -32.963241600000003 36.539997100000001 6.8096966999999999
v -29.551666300000001 36.978950500000003 5.8683471999999997
v -27.090370199999999 37.257854500000001 5.2702445999999998
v -25.841422999999999 37.387931799999997 4.9912828999999999
v -22.478591900000001 37.702613800000002 4.3164606000000001
v -15.945385 38.172538799999998 3.3086905
v -12.2141953 38.365856200000003 2.8941317
v -18.841392500000001 37.986316700000003 3.7080662000000002
v -17.302799199999999 38.089351700000002 3.4870698
v -11.0115433 38.416908300000003 2.7846462999999999
v -0.95137000000000005 38.637191799999997 2.3122457999999999
v -7.4194488999999999 38.537689200000003 2.5256321000000002
v -8.6153259000000002 38.502872500000002 2.6002898000000001
v -4.8747482 38.594203899999997 2.4044392000000001
v -2.126236 38.630260499999999 2.3271153
v -3.3048245999999999 38.618263200000001 2.3528264000000001
v -28.334472699999999 37.1206131 5.5645423000000003
v -20.053688000000001 37.897987399999998 3.8974771000000001
v -21.339923899999999 37.797359499999999 4.1132726999999996
v -14.6266403 38.247184799999999 3.1486331999999999
v -13.419311499999999 38.3093109 3.0153932999999999
v -10.1100616 38.4512863 2.7109206000000001
v -6.2279048000000001 38.567253100000002 2.4622278
v -24.904121400000001 37.481189700000002 4.7912993000000004
v -30.657012900000002 36.844066599999998 6.1576247000000004
v -34.234867100000002 36.359710700000001 7.1963191000000002
v -36.087341299999999 36.080459599999998 7.7951708000000002
v -23.691261300000001 37.5952415 4.5467123999999997
v -0.47568500000000002 38.638105400000001 2.3102867499999999
v -34.7130413 36.2891884 7.3475535000000001
v -24.297691350000001 37.538215600000001 4.6690058499999996
v -23.084926600000003 37.648927650000005 4.4315864999999999
v -36.793670649999996 35.967374800000002 8.0376767999999998
v -35.639278399999995 36.149562849999995 7.6469793500000005
v -37.146835324999998 35.910832400000004 8.1589297999999992
v -20.845806100000001 -30.219017000000001 -27.490259200000001
v -18.1309814 -30.012682000000002 -27.9327431
v -19.286407499999999 -30.096483200000002 -27.753034599999999
v -14.7092133 -29.7965889 -28.396156300000001
v -15.8519974 -29.863384199999999 -28.252912500000001
v -16.992622399999998 -29.935430499999999 -28.098405799999998
v -13.5644226 -29.734857600000002 -28.5285358
v -4.9623407999999998 -29.432312 -29.177351000000002
v -8.4239502000000002 -29.520166400000001 -28.9889507
v -9.7333297999999999 -29.565753900000001 -28.891185799999999
v -11.2693253 -29.626545 -28.760818499999999
v -7.2712168999999998 -29.485820799999999 -29.0626049
v -6.1173171999999996 -29.4564743 -29.125532199999999
v -23.1987305 -30.421926500000001 -27.055120500000001
v -22.071289100000001 -30.321561800000001 -27.270347600000001
v -3.8064494 -29.413309099999999 -29.2181091
v -2.6497723999999998 -29.399324400000001 -29.248094600000002
v -1.492424 -29.390371300000002 -29.267292000000001
v -24.323349 -30.527555499999998 -26.8285999
v -12.417747500000001 -29.6781826 -28.6500816
v -23.761039750000002 -30.474741000000002 -26.941860200000001
v -11.843536400000001 -29.6523638 -28.70545005
v -0.7462120000000001 -29.388948140132715 -29.2703474203227
v -12.991085050000001 -29.706520099999999 -28.5893087
v -24.9116745 -30.585635199999999 -26.70404435
v -37.5 30.959114100000001 18.777927399999999
v -37.5 28.511526100000001 24.0268002
v -37.5 33.406700100000002 13.5290556
v -37.5 29.123422600000001 22.714582400000001
v -37.5 32.182907100000001 16.153492
v -37.5 27.2877312 26.651237500000001
v -37.5 34.630496999999998 10.904619200000001
v -37.5 26.675834699999999 27.963455199999999
v -37.5 30.3472176 20.090147000000002
v -37.5 35.242393499999999 9.5924005999999995
v -37.5 32.794803600000002 14.841273299999999
v -37.5 31.571010600000001 17.465709700000001
v -37.5 34.018600499999998 12.216836900000001
v -37.5 27.899629600000001 25.339019799999999
v -37.5 29.735319100000002 21.4023647
v -37.5 26.369886399999999 28.619564050000001
v -37.5 26.981782949999999 27.30734635
v -37.5 35.548341749999999 8.9362916999999999
v -37.5 26.21691225 28.947618474999999
v -21.6081924 -34.641368900000003 -18.006498300000001
v -19.662288700000001 -36.6401939 -13.7200031
v -24.527048099999998 -31.643127400000001 -24.4362411
v -20.635240599999999 -35.640781400000002 -15.8632507
v -22.581144299999998 -33.641952500000002 -20.149745899999999
v -18.6893368 -37.639606499999999 -11.576755500000001
v -18.202861800000001 -38.139312699999998 -10.5051317
v -25.013525000000001 -31.143421199999999 -25.507865899999999
v -24.0405731 -32.142833699999997 -23.3646183
v -20.148765600000001 -36.140487700000001 -14.791626900000001
v -23.067621200000001 -33.142246200000002 -21.221370700000001
v -19.175813699999999 -37.1399002 -12.6483793
v -22.0946693 -34.141658800000002 -19.078123099999999
v -21.121717499999999 -35.141075100000002 -16.9348755
v -23.5540962 -32.642539999999997 -22.292993500000001
v -25.256762500000001 -30.893568049999999 -26.043677349999999
v -17.959623350000001 -38.389165849999998 -9.969319800000001
v -18.4460993 -37.889459599999995 -11.0409436
v -5.5511151231257827e-17 -0.66281415477556382 -2.6813227777866899
v 1.3877787807814506e-17 6.7697802575724904 -20.168564756337986
v -35.069531474447757 -5.084277716696894 2.9953077888316937
v -34.259223937664508 -4.7218972681717144 2.76011480698239
v -31.444971751081376 -3.6904666384992826 1.957240140524465
v -32.444633173764132 -4.0167049652562214 2.2429535491147359
v -33.384376271939225 -4.3627345406500098 2.5100089054635744
v -25.825276212626797 -2.3542666236956338 0.48373825578494645
v -26.9994369755149 -2.5963604591708744 0.76290081182332392
v -28.157705390645617 -2.8465275336910811 1.0561640690995371
v -29.291463032578836 -3.1089044308886002 1.3579524683514488
v -22.250219168782337 -1.6628713788141434 -0.26187379101659547
v -17.271554731407022 -0.94582967333326029 -1.107682337260619
v -18.550805572536952 -1.0896721320996607 -0.90289813268489505
v -19.804839043573722 -1.2602353149566563 -0.69400594455313769
v -30.390679624868923 -3.3886247801994687 1.6606713997269726
v -2.011711339031653 -0.60892602440790489 -2.6253006758606268
v -3.0840331693028391 -0.58916065697474385 -2.5872375509906806
v -4.2190326959841409 -0.57564012264896292 -2.536923100495331
v -5.4161470497832287 -0.56803226608194102 -2.4706565581832471
v -6.6665916875932769 -0.56574903411853183 -2.3861035455263586
v -7.957850560107758 -0.56890176484311372 -2.2823178711684529
v -9.2772244763237772 -0.57923917870298691 -2.1582635574077704
v -10.613966794069475 -0.59851527086103762 -2.0160220680418628
v -11.959278388385275 -0.62905198473421375 -1.8586428899963088
v -13.3050303182638 -0.67515265289092041 -1.6864135258200244
v -14.643551353029036 -0.74103521786450233 -1.5013315984535969
v -15.967768990874379 -0.83020511091254445 -1.3074629390932238
v -37.5 3.7396463999999998 -14.487265600000001
v -1.2298755181244432 6.6469915724633939 -20.210175053072444
v -35.454932484892794 4.5589076329588405 -14.917161088143647
v -36.478985154745246 4.1653418479976807 -14.698530511078356
v -34.424081993565068 4.8967312887200531 -15.147937186927168
v -33.384532538456178 5.1730691574732104 -15.399996913255732
v -32.328985994436451 5.3921048619061285 -15.666749154152969
v -30.143662565635722 5.7253902355959161 -16.213033780446082
v -31.250037832690637 5.5690011249737426 -15.938932172912473
v -29.008594637647093 5.8787259941388532 -16.486328501750165
v -27.846275100964746 6.0351328626367717 -16.752847000257404
v -2.4635634422576445 6.5276496050663582 -20.239058814571706
v -3.7034817713160915 6.417644654161557 -20.249447855088846
v -4.9499309441601786 6.3232297522079461 -20.238584793564321
v -7.4539733033858617 6.200031853170783 -20.142382791867746
v -6.2011434966811372 6.2496253590216835 -20.204067006718216
v -8.7053999294267221 6.1780771569735844 -20.05623094987115
v -11.19386387324866 6.2130785356739429 -19.811982988197819
v -12.42696701284323 6.2611876537843658 -19.656160471779575
v -13.650211021367816 6.3215039817943772 -19.481765917445259
v -16.059315989976501 6.4533681849338729 -19.088987669031241
v -14.861511423320538 6.387351695669337 -19.291466998695697
v -17.243121173530888 6.5142530653781199 -18.876097837848477
v -18.414721168602096 6.5651825612153552 -18.655335985129142
v -19.578420449069583 6.600524181095782 -18.429084164528405
v -20.740318860563342 6.6131785095591544 -18.19862227347987
v -21.907022104109039 6.5959169008893355 -17.96513052468865
v -23.083612419225275 6.5434611658603377 -17.729761435649721
v -24.271480675940985 6.4545898506614279 -17.492749997687909
v -25.466902116842853 6.3332758120466845 -17.252132880293711
v -37.499997966907308 -0.97180554319181034 -4.961334430017331
v -37.499766513966193 -3.2515247444657409 -1.1581235655202569
v -37.499999997051418 1.2940625194707009 -9.1279819880957724
v -37.476153255012228 -4.8259266358014354 1.3608786683135865
v -37.499999983742065 0.7455289578308375 -8.069308402710103
v -37.499972696911527 -2.1262386393480774 -2.9999309051301233
v -37.499999999965965 2.8182800931955425 -12.329519495173137
v -37.499999999992284 3.2847186462261662 -13.406581750071211
v -37.499940246230466 -2.6936397151057996 -2.0632214224785907
v -37.49999999940718 1.8239739428171897 -10.190983167237089
v -37.499999999905292 2.3323632753465713 -11.257805714671198
v -37.499999888673194 0.18200282546326832 -7.018223167912053
v -37.499991826436755 -1.5513391415750182 -3.9667220708031952
v -37.446969750880321 -5.2986144446840084 2.1396296552525182
v -37.499999695750446 -0.39218489050242766 -5.9802090303980346
v -9.9527836947495096 6.1837447297269126 -19.9464325339043
v -37.495610515083783 -4.3238712148088414 0.55361282006861923
v -24.641221203032636 -2.1178635412260221 0.22097474381244975
v -37.49923865731413 -3.7967716529509108 -0.28572155787046938
v -26.66191790512157 6.1892783068850221 -17.006014329611133
v -23.450664057168201 -1.8856334788243148 -0.02930853792517131
v -21.036952366076427 -1.4521469809274672 -0.48344557907770008
v -37.391306474922843 -5.743749910541931 2.8949291053035111
v -37.215749750000001 -6.1288795499999997 3.6427268000000002
v -35.821800684467995 -5.4413203926833855 3.2189945248523024
v -36.530962732731403 -5.7883148953293322 3.4325147245538101
v -0.99114212295424386 -0.6341213499154863 -2.6554949928947083
v 0 38.639018999999998 2.3083277
v 0 -37.914566000000001 -10.987105400000001
v 4.163336342344337e-17 29.680060396883704 21.520875519414759
v 1.6653345369377348e-16 -29.387524980265429 -29.273402840645399
v -17.716384900000001 -38.639018999999998 -9.4335079000000004
v -37.5 26.063938100000001 29.2756729
v -25.5 -30.643714899999999 -26.5794888
v -37.5 35.854289999999999 8.2801828000000004
v -0.51636634999999997 29.678893548441852 21.523372459707382
v -36.986688600000001 26.1800785 29.02660655
v -0.47568500000000002 38.638105400000001 2.3102867499999999
v -37.5 35.425466549999996 7.7978820500000001
v -25.256762500000001 -30.893568049999999 -26.043677349999999
v -25.860889450000002 -30.019466399999999 -26.42380335
v -37.5 35.548341749999999 8.9362916999999999
v -0.47970574999999999 -37.9158039 -10.984446550000001
v -0.7462120000000001 -29.388948140132715 -29.2703474203227
v -18.023338299999999 -38.15228845 -9.3400649999999992
v -17.959623350000001 -38.389165849999998 -9.969319800000001
v -24.9116745 -30.585635199999999 -26.70404435
v -16.791582099999999 -38.566373799999994 -9.5892934499999996
v -37.5 26.21691225 28.947618474999999
v -37.146835324999998 35.910832400000004 8.1589297999999992
v -37.5 25.878654924999999 29.000274175000001
l 78/78 10/10
l 10/10 79/79
l 79/79 52/52
l 52/52 51/51
l 51/51 54/54
l 54/54 60/60
l 60/60 9/9
l 9/9 29/29
l 29/29 59/59
l 59/59 58/58
l 58/58 28/28
l 28/28 8/8
l 8/8 7/7
l 7/7 6/6
l 6/6 11/11
l 11/11 80/80
l 80/80 55/55
l 55/55 81/81
l 81/81 47/47
l 47/47 84/84
l 84/84 44/44
l 44/44 5/5
l 5/5 12/12
l 12/12 48/48
l 48/48 62/62
l 62/62 43/43
l 43/43 42/42
l 42/42 4/4
l 4/4 46/46
l 46/46 27/27
l 27/27 3/3
l 3/3 50/50
l 50/50 69/69
l 69/69 2/2
l 2/2 68/68
l 68/68 57/57
l 57/57 67/67
l 67/67 1/1
l 1/1 66/66
l 66/66 26/26
l 26/26 70/70
l 70/70 14/14
l 14/14 13/13
l 13/13 45/45
l 45/45 30/30
l 30/30 25/25
l 25/25 15/15
l 15/15 56/56
l 56/56 49/49
l 49/49 32/32
l 32/32 31/31
l 31/31 24/24
l 24/24 74/74
l 74/74 38/38
l 38/38 71/71
l 71/71 23/23
l 23/23 61/61
l 61/61 33/33
l 33/33 34/34
l 34/34 22/22
l 22/22 63/63
l 63/63 82/82
l 82/82 65/65
l 65/65 83/83
l 83/83 35/35
l 35/35 72/72
l 72/72 36/36
l 36/36 73/73
l 73/73 53/53
l 53/53 76/76
l 76/76 37/37
l 37/37 40/40
l 40/40 21/21
l 21/21 20/20
l 20/20 19/19
l 19/19 41/41
l 41/41 39/39
l 39/39 16/16
l 16/16 17/17
l 17/17 18/18
l 18/18 75/75
l 75/75 64/64
l 64/64 77/77
l 77/77 85/85
l 103/103 86/86
l 86/86 88/88
l 88/88 87/87
l 87/87 90/90
l 90/90 89/89
l 89/89 91/91
l 91/91 96/96
l 96/96 95/95
l 95/95 102/102
l 102/102 98/98
l 98/98 99/99
l 99/99 92/92
l 92/92 94/94
l 94/94 93/93
l 93/93 101/101
l 101/101 97/97
l 97/97 100/100
l 137/137 109/109
l 109/109 138/138
l 138/138 111/111
l 111/111 110/110
l 110/110 108/108
l 108/108 112/112
l 112/112 114/114
l 114/114 113/113
l 113/113 126/126
l 126/126 106/106
l 106/106 107/107
l 107/107 115/115
l 115/115 127/127
l 127/127 116/116
l 116/116 144/144
l 144/144 117/117
l 117/117 145/145
l 145/145 133/133
l 133/133 118/118
l 118/118 132/132
l 132/132 119/119
l 119/119 131/131
l 131/131 141/141
l 141/141 120/120
l 120/120 142/142
l 142/142 128/128
l 128/128 130/130
l 130/130 121/121
l 121/121 129/129
l 129/129 122/122
l 122/122 123/123
l 123/123 124/124
l 124/124 146/146
l 146/146 134/134
l 134/134 147/147
l 147/147 105/105
l 105/105 143/143
l 143/143 135/135
l 135/135 136/136
l 136/136 104/104
l 104/104 139/139
l 139/139 125/125
l 125/125 140/140
l 213/213 153/153
l 153/153 212/212
l 212/212 199/199
l 199/199 154/154
l 154/154 151/151
l 151/151 152/152
l 152/152 176/176
l 176/176 150/150
l 150/150 155/155
l 155/155 156/156
l 156/156 157/157
l 157/157 158/158
l 158/158 207/207
l 207/207 209/209
l 209/209 203/203
l 203/203 211/211
l 211/211 177/177
l 177/177 188/188
l 188/188 159/159
l 159/159 187/187
l 187/187 160/160
l 160/160 161/161
l 161/161 186/186
l 186/186 162/162
l 162/162 185/185
l 185/185 205/205
l 205/205 219/219
l 219/219 163/163
l 163/163 164/164
l 164/164 165/165
l 165/165 204/204
l 204/204 166/166
l 166/166 184/184
l 184/184 167/167
l 167/167 183/183
l 183/183 168/168
l 168/168 170/170
l 170/170 218/218
l 218/218 178/178
l 178/178 175/175
l 175/175 174/174
l 174/174 182/182
l 182/182 173/173
l 173/173 172/172
l 172/172 171/171
l 171/171 200/200
l 200/200 169/169
l 169/169 148/148
l 148/148 149/149
l 149/149 193/193
l 193/193 215/215
l 215/215 198/198
l 198/198 216/216
l 216/216 191/191
l 191/191 194/194
l 194/194 181/181
l 181/181 179/179
l 179/179 197/197
l 197/197 195/195
l 195/195 180/180
l 180/180 202/202
l 202/202 210/210
l 210/210 208/208
l 208/208 217/217
l 217/217 206/206
l 206/206 190/190
l 190/190 201/201
l 201/201 192/192
l 192/192 189/189
l 189/189 196/196
l 196/196 214/214
l 250/250 232/232
l 232/232 236/236
l 236/236 237/237
l 237/237 235/235
l 235/235 244/244
l 244/244 233/233
l 233/233 234/234
l 234/234 243/243
l 243/243 231/231
l 231/231 228/228
l 228/228 242/242
l 242/242 241/241
l 241/241 227/227
l 227/227 230/230
l 230/230 229/229
l 229/229 239/239
l 239/239 240/240
l 240/240 226/226
l 226/226 253/253
l 253/253 249/249
l 249/249 252/252
l 252/252 245/245
l 245/245 225/225
l 225/225 224/224
l 224/224 238/238
l 238/238 223/223
l 223/223 246/246
l 246/246 220/220
l 220/220 222/222
l 222/222 247/247
l 247/247 251/251
l 251/251 221/221
l 221/221 255/255
l 255/255 248/248
l 248/248 254/254
l 254/254 256/256
l 279/279 274/274
l 274/274 273/273
l 273/273 272/272
l 272/272 264/264
l 264/264 269/269
l 269/269 268/268
l 268/268 265/265
l 265/265 266/266
l 266/266 267/267
l 267/267 278/278
l 278/278 276/276
l 276/276 280/280
l 280/280 263/263
l 263/263 260/260
l 260/260 261/261
l 261/261 262/262
l 262/262 258/258
l 258/258 259/259
l 259/259 257/257
l 257/257 271/271
l 271/271 270/270
l 270/270 277/277
l 277/277 275/275
l 275/275 281/281
l 299/299 291/291
l 291/291 288/288
l 288/288 294/294
l 294/294 284/284
l 284/284 292/292
l 292/292 286/286
l 286/286 293/293
l 293/293 282/282
l 282/282 290/290
l 290/290 296/296
l 296/296 285/285
l 285/285 283/283
l 283/283 295/295
l 295/295 287/287
l 287/287 298/298
l 298/298 289/289
l 289/289 297/297
l 297/297 300/300
l 317/317 307/307
l 307/307 318/318
l 318/318 306/306
l 306/306 312/312
l 312/312 302/302
l 302/302 310/310
l 310/310 304/304
l 304/304 314/314
l 314/314 301/301
l 301/301 313/313
l 313/313 305/305
l 305/305 311/311
l 311/311 315/315
l 315/315 309/309
l 309/309 303/303
l 303/303 308/308
l 308/308 316/316
l 397/397 403/403
l 403/403 333/333
l 333/333 334/334
l 334/334 335/335
l 335/335 336/336
l 336/336 337/337
l 337/337 338/338
l 338/338 339/339
l 339/339 340/340
l 340/340 341/341
l 341/341 342/342
l 342/342 343/343
l 343/343 344/344
l 344/344 329/329
l 329/329 330/330
l 330/330 331/331
l 331/331 396/396
l 396/396 328/328
l 328/328 395/395
l 395/395 392/392
l 392/392 324/324
l 324/324 325/325
l 325/325 326/326
l 326/326 327/327
l 327/327 332/332
l 332/332 321/321
l 321/321 322/322
l 322/322 323/323
l 323/323 320/320
l 320/320 319/319
l 319/319 401/401
l 401/401 402/402
l 402/402 400/400
l 400/400 399/399
l 399/399 388/388
l 388/388 378/378
l 378/378 391/391
l 391/391 393/393
l 393/393 376/376
l 376/376 383/383
l 383/383 380/380
l 380/380 387/387
l 387/387 375/375
l 375/375 389/389
l 389/389 386/386
l 386/386 379/379
l 379/379 377/377
l 377/377 384/384
l 384/384 385/385
l 385/385 381/381
l 381/381 382/382
l 382/382 345/345
l 345/345 348/348
l 348/348 347/347
l 347/347 349/349
l 349/349 350/350
l 350/350 351/351
l 351/351 353/353
l 353/353 352/352
l 352/352 354/354
l 354/354 355/355
l 355/355 394/394
l 394/394 374/374
l 374/374 373/373
l 373/373 372/372
l 372/372 371/371
l 371/371 370/370
l 370/370 369/369
l 369/369 368/368
l 368/368 367/367
l 367/367 365/365
l 365/365 366/366
l 366/366 364/364
l 364/364 363/363
l 363/363 362/362
l 362/362 390/390
l 390/390 361/361
l 361/361 359/359
l 359/359 360/360
l 360/360 358/358
l 358/358 357/357
l 357/357 356/356
l 356/356 346/346
l 346/346 398/398
l 404/404 583/583
l 404/404 584/584
l 405/405 450/450
l 405/405 603/603
l 406/406 445/445
l 406/406 541/541
l 407/407 456/456
l 407/407 591/591
l 408/408 419/419
l 408/408 605/605
l 409/409 410/410
l 409/409 463/463
l 410/410 417/417
l 411/411 417/417
l 411/411 629/629
l 412/412 442/442
l 412/412 443/443
l 413/413 571/571
l 413/413 645/645
l 414/414 455/455
l 414/414 568/568
l 415/415 579/579
l 415/415 590/590
l 416/416 439/439
l 416/416 606/606
l 418/418 463/463
l 418/418 597/597
l 419/419 461/461
l 420/420 576/576
l 420/420 580/580
l 421/421 573/573
l 421/421 574/574
l 422/422 483/483
l 422/422 619/619
l 423/423 502/502
l 423/423 575/575
l 424/424 425/425
l 424/424 640/640
l 425/425 479/479
l 426/426 522/522
l 426/426 578/578
l 427/427 520/520
l 427/427 548/548
l 428/428 536/536
l 428/428 559/559
l 429/429 581/581
l 429/429 651/651
l 430/430 592/592
l 430/430 624/624
l 431/431 534/534
l 431/431 563/563
l 432/432 594/594
l 432/432 631/631
l 433/433 469/469
l 433/433 544/544
l 434/434 572/572
l 434/434 646/646
l 435/435 487/487
l 435/435 601/601
l 436/436 586/586
l 436/436 603/603
l 437/437 447/447
l 437/437 470/470
l 438/438 554/554
l 438/438 570/570
l 439/439 565/565
l 440/440 441/441
l 440/440 609/609
l 441/441 457/457
l 442/442 457/457
l 443/443 644/644
l 444/444 541/541
l 444/444 559/559
l 445/445 446/446
l 446/446 529/529
l 447/447 527/527
l 448/448 527/527
l 448/448 532/532
l 449/449 532/532
l 449/449 586/586
l 450/450 554/554
l 451/451 569/569
l 451/451 612/612
l 452/452 453/453
l 452/452 611/611
l 453/453 454/454
l 454/454 455/455
l 456/456 536/536
l 458/458 460/460
l 458/458 604/604
l 459/459 568/568
l 459/459 604/604
l 460/460 461/461
l 462/462 597/597
l 462/462 605/605
l 464/464 606/606
l 464/464 629/629
l 465/465 544/544
l 465/465 607/607
l 466/466 607/607
l 466/466 609/609
l 467/467 567/567
l 467/467 644/644
l 468/468 565/565
l 468/468 608/608
l 469/469 608/608
l 470/470 529/529
l 471/471 610/610
l 471/471 613/613
l 472/472 569/569
l 472/472 610/610
l 473/473 611/611
l 473/473 612/612
l 474/474 570/570
l 474/474 613/613
l 475/475 614/614
l 475/475 622/622
l 476/476 614/614
l 476/476 638/638
l 477/477 530/530
l 477/477 550/550
l 478/478 549/549
l 478/478 550/550
l 479/479 615/615
l 480/480 545/545
l 480/480 643/643
l 481/481 496/496
l 481/481 504/504
l 482/482 503/503
l 482/482 504/504
l 483/483 490/490
l 484/484 575/575
l 484/484 619/619
l 485/485 487/487
l 485/485 535/535
l 486/486 572/572
l 486/486 617/617
l 488/488 615/615
l 488/488 618/618
l 489/489 640/640
l 489/489 641/641
l 490/490 561/561
l 491/491 616/616
l 491/491 624/624
l 492/492 592/592
l 492/492 593/593
l 493/493 551/551
l 493/493 633/633
l 494/494 495/495
l 494/494 617/617
l 495/495 642/642
l 496/496 497/497
l 497/497 533/533
l 498/498 573/573
l 498/498 618/618
l 499/499 531/531
l 499/499 596/596
l 500/500 501/501
l 500/500 602/602
l 501/501 561/561
l 502/502 503/503
l 505/505 587/587
l 505/505 620/620
l 506/506 540/540
l 506/506 587/587
l 507/507 524/524
l 507/507 525/525
l 508/508 509/509
l 508/508 510/510
l 509/509 520/520
l 510/510 523/523
l 511/511 566/566
l 511/511 650/650
l 512/512 513/513
l 512/512 515/515
l 513/513 632/632
l 514/514 623/623
l 514/514 628/628
l 515/515 638/638
l 516/516 588/588
l 516/516 621/621
l 517/517 594/594
l 517/517 622/622
l 518/518 623/623
l 518/518 630/630
l 519/519 582/582
l 519/519 627/627
l 521/521 599/599
l 521/521 635/635
l 522/522 636/636
l 523/523 524/524
l 525/525 627/627
l 526/526 585/585
l 526/526 642/642
l 528/528 530/530
l 528/528 646/646
l 531/531 535/535
l 533/533 558/558
l 534/534 547/547
l 537/537 625/625
l 537/537 632/632
l 538/538 626/626
l 538/538 630/630
l 539/539 626/626
l 539/539 631/631
l 540/540 588/588
l 542/542 589/589
l 542/542 628/628
l 543/543 589/589
l 543/543 621/621
l 545/545 547/547
l 546/546 591/591
l 546/546 595/595
l 548/548 560/560
l 549/549 634/634
l 551/551 593/593
l 552/552 598/598
l 552/552 599/599
l 553/553 633/633
l 553/553 634/634
l 555/555 635/635
l 555/555 636/636
l 556/556 616/616
l 556/556 637/637
l 557/557 596/596
l 557/557 637/637
l 558/558 639/639
l 560/560 598/598
l 562/562 601/601
l 562/562 602/602
l 563/563 641/641
l 564/564 639/639
l 564/564 643/643
l 566/566 511/511
l 567/567 647/647
l 571/571 413/413
l 574/574 421/421
l 576/576 420/420
l 577/577 415/415
l 577/577 415/415
l 578/578 429/429
l 579/579 415/415
l 580/580 420/420
l 581/581 429/429
l 582/582 519/519
l 583/583 404/404
l 584/584 404/404
l 585/585 519/519
l 590/590 415/415
l 595/595 651/651
l 600/600 404/404
l 600/600 404/404
l 620/620 650/650
l 625/625 421/421
l 645/645 413/413
l 647/647 511/511
l 648/648 420/420
l 648/648 420/420
l 649/649 413/413
l 649/649 413/413
l 729/729 661/661
l 661/661 730/730
l 730/730 703/703
l 703/703 702/702
l 702/702 705/705
l 705/705 711/711
l 711/711 660/660
l 660/660 680/680
l 680/680 710/710
l 710/710 709/709
l 709/709 679/679
l 679/679 659/659
l 659/659 658/658
l 658/658 657/657
l 657/657 662/662
l 662/662 731/731
l 731/731 706/706
l 706/706 732/732
l 732/732 698/698
l 698/698 735/735
l 735/735 695/695
l 695/695 656/656
l 656/656 663/663
l 663/663 699/699
l 699/699 713/713
l 713/713 694/694
l 694/694 693/693
l 693/693 655/655
l 655/655 697/697
l 697/697 678/678
l 678/678 654/654
l 654/654 701/701
l 701/701 720/720
l 720/720 653/653
l 653/653 719/719
l 719/719 708/708
l 708/708 718/718
l 718/718 652/652
l 652/652 717/717
l 717/717 677/677
l 677/677 721/721
l 721/721 665/665
l 665/665 664/664
l 664/664 696/696
l 696/696 681/681
l 681/681 676/676
l 676/676 666/666
l 666/666 707/707
l 707/707 700/700
l 700/700 683/683
l 683/683 682/682
l 682/682 675/675
l 675/675 725/725
l 725/725 689/689
l 689/689 722/722
l 722/722 674/674
l 674/674 712/712
l 712/712 684/684
l 684/684 685/685
l 685/685 673/673
l 673/673 714/714
l 714/714 733/733
l 733/733 716/716
l 716/716 734/734
l 734/734 686/686
l 686/686 723/723
l 723/723 687/687
l 687/687 724/724
l 724/724 704/704
l 704/704 727/727
l 727/727 688/688
l 688/688 691/691
l 691/691 672/672
l 672/672 671/671
l 671/671 670/670
l 670/670 692/692
l 692/692 690/690
l 690/690 667/667
l 667/667 668/668
l 668/668 669/669
l 669/669 726/726
l 726/726 715/715
l 715/715 728/728
l 728/728 736/736
l 754/754 737/737
l 737/737 739/739
l 739/739 738/738
l 738/738 741/741
l 741/741 740/740
l 740/740 742/742
l 742/742 747/747
l 747/747 746/746
l 746/746 753/753
l 753/753 749/749
l 749/749 750/750
l 750/750 743/743
l 743/743 745/745
l 745/745 744/744
l 744/744 752/752
l 752/752 748/748
l 748/748 751/751
l 788/788 760/760
l 760/760 789/789
l 789/789 762/762
l 762/762 761/761
l 761/761 759/759
l 759/759 763/763
l 763/763 765/765
l 765/765 764/764
l 764/764 777/777
l 777/777 757/757
l 757/757 758/758
l 758/758 766/766
l 766/766 778/778
l 778/778 767/767
l 767/767 795/795
l 795/795 768/768
l 768/768 796/796
l 796/796 784/784
l 784/784 769/769
l 769/769 783/783
l 783/783 770/770
l 770/770 782/782
l 782/782 792/792
l 792/792 771/771
l 771/771 793/793
l 793/793 779/779
l 779/779 781/781
l 781/781 772/772
l 772/772 780/780
l 780/780 773/773
l 773/773 774/774
l 774/774 775/775
l 775/775 797/797
l 797/797 785/785
l 785/785 798/798
l 798/798 756/756
l 756/756 794/794
l 794/794 786/786
l 786/786 787/787
l 787/787 755/755
l 755/755 790/790
l 790/790 776/776
l 776/776 791/791
l 864/864 804/804
l 804/804 863/863
l 863/863 850/850
l 850/850 805/805
l 805/805 802/802
l 802/802 803/803
l 803/803 827/827
l 827/827 801/801
l 801/801 806/806
l 806/806 807/807
l 807/807 808/808
l 808/808 809/809
l 809/809 858/858
l 858/858 860/860
l 860/860 854/854
l 854/854 862/862
l 862/862 828/828
l 828/828 839/839
l 839/839 810/810
l 810/810 838/838
l 838/838 811/811
l 811/811 812/812
l 812/812 837/837
l 837/837 813/813
l 813/813 836/836
l 836/836 856/856
l 856/856 870/870
l 870/870 814/814
l 814/814 815/815
l 815/815 816/816
l 816/816 855/855
l 855/855 817/817
l 817/817 835/835
l 835/835 818/818
l 818/818 834/834
l 834/834 819/819
l 819/819 821/821
l 821/821 869/869
l 869/869 829/829
l 829/829 826/826
l 826/826 825/825
l 825/825 833/833
l 833/833 824/824
l 824/824 823/823
l 823/823 822/822
l 822/822 851/851
l 851/851 820/820
l 820/820 799/799
l 799/799 800/800
l 800/800 844/844
l 844/844 866/866
l 866/866 849/849
l 849/849 867/867
l 867/867 842/842
l 842/842 845/845
l 845/845 832/832
l 832/832 830/830
l 830/830 848/848
l 848/848 846/846
l 846/846 831/831
l 831/831 853/853
l 853/853 861/861
l 861/861 859/859
l 859/859 868/868
l 868/868 857/857
l 857/857 841/841
l 841/841 852/852
l 852/852 843/843
l 843/843 840/840
l 840/840 847/847
l 847/847 865/865
l 901/901 883/883
l 883/883 887/887
l 887/887 888/888
l 888/888 886/886
l 886/886 895/895
l 895/895 884/884
l 884/884 885/885
l 885/885 894/894
l 894/894 882/882
l 882/882 879/879
l 879/879 893/893
l 893/893 892/892
l 892/892 878/878
l 878/878 881/881
l 881/881 880/880
l 880/880 890/890
l 890/890 891/891
l 891/891 877/877
l 877/877 904/904
l 904/904 900/900
l 900/900 903/903
l 903/903 896/896
l 896/896 876/876
l 876/876 875/875
l 875/875 889/889
l 889/889 874/874
l 874/874 897/897
l 897/897 871/871
l 871/871 873/873
l 873/873 898/898
l 898/898 902/902
l 902/902 872/872
l 872/872 906/906
l 906/906 899/899
l 899/899 905/905
l 905/905 907/907
l 930/930 925/925
l 925/925 924/924
l 924/924 923/923
l 923/923 915/915
l 915/915 920/920
l 920/920 919/919
l 919/919 916/916
l 916/916 917/917
l 917/917 918/918
l 918/918 929/929
l 929/929 927/927
l 927/927 931/931
l 931/931 914/914
l 914/914 911/911
l 911/911 912/912
l 912/912 913/913
l 913/913 909/909
l 909/909 910/910
l 910/910 908/908
l 908/908 922/922
l 922/922 921/921
l 921/921 928/928
l 928/928 926/926
l 926/926 932/932
l 950/950 942/942
l 942/942 939/939
l 939/939 945/945
l 945/945 935/935
l 935/935 943/943
l 943/943 937/937
l 937/937 944/944
l 944/944 933/933
l 933/933 941/941
l 941/941 947/947
l 947/947 936/936
l 936/936 934/934
l 934/934 946/946
l 946/946 938/938
l 938/938 949/949
l 949/949 940/940
l 940/940 948/948
l 948/948 951/951
l 968/968 958/958
l 958/958 969/969
l 969/969 957/957
l 957/957 963/963
l 963/963 953/953
l 953/953 961/961
l 961/961 955/955
l 955/955 965/965
l 965/965 952/952
l 952/952 964/964
l 964/964 956/956
l 956/956 962/962
l 962/962 966/966
l 966/966 960/960
l 960/960 954/954
l 954/954 959/959
l 959/959 967/967
l 970/970 1054/1054
l 1054/1054 986/986
l 986/986 987/987
l 987/987 988/988
l 988/988 989/989
l 989/989 990/990
l 990/990 991/991
l 991/991 992/992
l 992/992 993/993
l 993/993 994/994
l 994/994 995/995
l 995/995 996/996
l 996/996 997/997
l 997/997 982/982
l 982/982 983/983
l 983/983 984/984
l 984/984 1049/1049
l 1049/1049 981/981
l 981/981 1048/1048
l 1048/1048 1045/1045
l 1045/1045 977/977
l 977/977 978/978
l 978/978 979/979
l 979/979 980/980
l 980/980 985/985
l 985/985 974/974
l 974/974 975/975
l 975/975 976/976
l 976/976 973/973
l 973/973 972/972
l 972/972 1052/1052
l 1052/1052 1053/1053
l 1053/1053 1051/1051
l 1051/1051 1050/1050
l 1050/1050 1041/1041
l 1041/1041 1031/1031
l 1031/1031 1044/1044
l 1044/1044 1046/1046
l 1046/1046 1029/1029
l 1029/1029 1036/1036
l 1036/1036 1033/1033
l 1033/1033 1040/1040
l 1040/1040 1028/1028
l 1028/1028 1042/1042
l 1042/1042 1039/1039
l 1039/1039 1032/1032
l 1032/1032 1030/1030
l 1030/1030 1037/1037
l 1037/1037 1038/1038
l 1038/1038 1034/1034
l 1034/1034 1035/1035
l 1035/1035 998/998
l 998/998 1001/1001
l 1001/1001 1000/1000
l 1000/1000 1002/1002
l 1002/1002 1003/1003
l 1003/1003 1004/1004
l 1004/1004 1006/1006
l 1006/1006 1005/1005
l 1005/1005 1007/1007
l 1007/1007 1008/1008
l 1008/1008 1047/1047
l 1047/1047 1027/1027
l 1027/1027 1026/1026
l 1026/1026 1025/1025
l 1025/1025 1024/1024
l 1024/1024 1023/1023
l 1023/1023 1022/1022
l 1022/1022 1021/1021
l 1021/1021 1020/1020
l 1020/1020 1018/1018
l 1018/1018 1019/1019
l 1019/1019 1017/1017
l 1017/1017 1016/1016
l 1016/1016 1015/1015
l 1015/1015 1043/1043
l 1043/1043 1014/1014
l 1014/1014 1012/1012
l 1012/1012 1013/1013
l 1013/1013 1011/1011
l 1011/1011 1010/1010
l 1010/1010 1009/1009
l 1009/1009 999/999
l 999/999 971/971
l 1059/1059 1072/1072
l 1059/1059 1073/1073
l 1060/1060 1064/1064
l 1060/1060 1076/1076
l 1061/1061 1068/1068
l 1061/1061 1074/1074
l 1062/1062 1066/1066
l 1062/1062 1069/1069
l 1055/1055 1065/1065
l 1056/1056 1070/1070
l 1057/1057 1063/1063
l 1058/1058 1071/1071
l 1063/1063 1057/1057
l 1064/1064 1060/1060
l 1065/1065 1055/1055
l 1066/1066 1062/1062
l 1067/1067 1061/1061
l 1067/1067 1061/1061
l 1068/1068 1061/1061
l 1069/1069 1062/1062
l 1070/1070 1056/1056
l 1071/1071 1058/1058
l 1072/1072 1059/1059
l 1073/1073 1059/1059
l 1074/1074 1061/1061
l 1075/1075 1059/1059
l 1075/1075 1059/1059
l 1076/1076 1060/1060
l 1077/1077 1062/1062
l 1077/1077 1062/1062
l 1078/1078 1060/1060
l 1078/1078 1060/1060
