v 83.234663283801751 6.869618780949228 -17.454958706471682
v 87.225598062835402 4.7832934278416301 -13.099061282463071
v 103.45923685867177 -9.2190165035025604 -9.1222424512123403
v 108.81853806881861 -15.724992398860755 -13.946003768648218
v 79.747502310579733 8.2757541377396819 -22.364434855564991
v 85.161387895242797 5.9298536524406602 -15.192213347731606
v 78.0834045 8.8879327999999997 -24.894090700000007
v 111.31342457368328 -19.333383878669444 -18.435430776954352
v 112.27476978383987 -20.906893016178298 -20.76612234526214
v 107.24243076797954 -13.676703994610646 -11.978923733372476
v 105.44766777069671 -11.49208196011951 -10.340532734187416
v 94.280134577379243 -0.3111418674580213 -8.7737812638712303
v 96.744886971948404 -2.4608537068899299 -8.1928523708751442
v 81.443956865658663 7.6270937500007854 -19.864951023075122
v 110.16247992230819 -17.605946212818484 -16.142723408675405
v 113.10882986445426 -22.364663745129008 -23.066503274532252
v 113.86550951953831 -23.744123216765608 -25.318187644710633
v 89.464263759929167 3.3483090803395941 -11.303135790305589
v 91.82845541818574 1.6488144889724095 -9.8240310357580345
v 99.077688644854987 -4.6504552551294811 -8.0573832002779646
v 101.31845183567584 -6.9184064023220246 -8.3795977072994283
v 114.56108860000001 -25.066307999999999 -27.555044150000008
v -68.257806727972394 26.028278846806899 2.0104285594784077
v -71.049832369908984 37.367193681443851 26.650959110657986
v -72.649427152804918 43.564212182444621 28.794187772020479
v -69.844057271253348 31.981013222736934 22.144346137182726
v -74.353968293905623 49.226636829256151 28.705203752892707
v -69.077520646684604 28.441542650763402 15.987089767144134
v -78.500226333375153 62.323074920837399 23.311145835000779
v -83.291420000000031 80.883461000000011 4.1465358999999999
v -68.207268164224985 25.943359633097351 -1.5994296778654824
v -71.810802945963886 40.451707412671496 28.042310266806382
v -70.383794422591052 34.483570387248207 24.670542319723801
v -73.524419887088627 46.527027102457438 28.944525212616941
v -68.789112858847659 27.343102522894274 12.614910358883792
v -69.415459593108352 29.957231315872676 19.206099948508189
v -68.568278343091947 26.684199974466068 9.1284806542281185
v -68.194129900000007 25.931196199999999 -5.2250428000000007
v -75.090191751622299 51.630957727574746 28.230055460295162
v -77.465288862301989 59.169176940248555 25.272839902283923
v -82.927140345975715 78.847111247857754 6.6703469103996769
v -82.081883268385099 74.634920412154145 11.664176394354058
v -68.40941725594223 26.313832128320385 5.5843127647391944
v -76.326556447140916 55.593916574840108 26.907570791945862
v -80.232512289536857 67.758223902259815 18.926370804324065
v -81.555463267191399 72.440663829894817 14.132489585283119
v -80.941615537686488 70.159849495883748 16.560391368387911
v -82.532723616980604 76.769831901093838 9.1774567401019844
v -79.421177758431398 65.164736328672717 21.184097423864621
v 3.9546112044977271 2.9871585676973376 14.853473613937467
v 9.5527096 2.5082979000000001 -4.2572269
v -31.044762459748107 6.5010034968728307 10.585381278599375
v -34.908908669702726 9.3009436646502515 -2.0981813931843964
v 2.0583456916632432 3.1538088397671276 17.37866458391175
v -5.3149783932702181 3.6507792702523911 22.904894631860444
v -13.973266459697282 4.1725339054855706 24.772319213110485
v -27.901519789735062 5.6042130289898502 16.412283459508487
v -29.590273029748573 6.0182750252021435 13.563080512967222
v -34.161841537699068 8.4861634821477168 1.1362001605281247
v -36.487853999999999 11.009203899999999 -8.5499763000000009
v 7.8038000799755327 2.620917357817163 5.8826233312061245
v 6.7954365697562302 2.7063683055650412 9.0565992286399783
v -8.1467107135738956 3.8108215392335296 23.965203125948058
v 8.6037838008611445 2.567716328908733 2.5853680389788831
v -20.575202883998813 4.6797382601911135 23.109457428524628
v -11.057970008025285 3.9800872632382207 24.583199155569318
v 9.1295500290040508 2.5252848263734311 -0.8153757254634515
v -2.6206640046166285 3.4903560043858857 21.449373521814017
v -17.394372495099283 4.4257154500694025 24.31647293394731
v -23.39641725810008 4.955317260690669 21.28015042753583
v -35.728807658313272 10.136622191158002 -5.3190572677812762
v -32.227195585551712 7.0786829514149048 7.4867761753770177
v -33.296019254426035 7.7327225745351331 4.3411054907235034
v -25.850781253060838 5.261992887226425 19.02290691800836
v -0.15648464069401102 3.3251599090238582 19.579475580662802
v 5.5452793953540702 2.8308638653259841 12.071633535672319
v -85.851725537580592 -0.66636440516520645 1.8927176749771006
v -88.106944263460051 -2.3644988077308597 23.626224838168973
v -92.11873420877096 -3.8424481518694646 29.880057544412523
v -98.211257969237309 -6.1032308706737908 34.061575347618081
v -108.45851233184609 -10.115580470788174 35.334628128859919
v -129.01856676336087 -19.176877833926167 24.754052431703158
v -138.83837202573633 -24.182976006123237 14.686349375420232
v -85.649942464454426 -0.90494166011192045 5.4890400607320711
v -86.164972437052157 -0.40382080721687119 -1.6764927578291737
v -86.343421899999996 -0.093831600000000015 -5.2422713999999999
v -86.235898408277578 -1.5940667935507933 16.437123753134252
v -86.967329069674719 -1.9298678822528648 20.074208058645311
v -89.839317384466 -3.0021658600497614 26.929611179887353
v -94.948730129063378 -4.8874394142336257 32.297692943824558
v -105.25817728757059 -8.8217240333217077 35.480861459842302
v -114.5826113273865 -12.692579430197398 33.831814674499476
v -120.54679330924071 -15.295016921549536 30.935069913105714
v -123.45439436303005 -16.601083727812437 29.073517965251344
v -126.29107822032108 -17.900600443348935 27.009215672768118
v -131.63122969715008 -20.431287742802255 22.358304271475312
v -134.13700550452492 -21.674807830077356 19.868620846831625
v -136.53105135253003 -22.918477600178186 17.299673537471818
v -141.09267109029886 -25.478227320871888 12.057370102001912
v -143.30787659999999 -26.789810200000002 9.4102621000000006
v -111.54682458082291 -11.401992509771548 34.769933652387124
v -117.58334607292076 -13.98970633989245 32.536310461642827
v -101.7185854548438 -7.4329923788875343 35.137525197271202
v -85.669940123395065 -1.1184641776562061 9.1178426492355342
v -85.866861806629146 -1.3448255100857698 12.769088276257957
v 120.4016795366818 22.696325346417716 -13.95671616451577
v 134.98912874204649 13.516702806393724 -26.964335462180912
v 138.3974762 11.544919 -33.586399100000001
v 92.452438400000005 31.290275600000008 -30.223663300000005
v 98.54092762022313 30.496191936426811 -22.630343340085712
v 105.80590010514189 28.685527231853122 -16.574252010233728
v 111.41555789405837 26.753397345079954 -14.22032843396401
v 128.8291745373923 17.627783883434397 -18.503501990259821
v 133.12605724252214 14.712717553841316 -23.866455132633639
v 136.71307541248137 12.488823085791154 -30.24119628348619
v 117.1624067268184 24.306979754532456 -13.571662943928233
v 131.0978016016673 16.086794234896402 -21.009736759568156
v 123.45398244091271 21.005556651618477 -14.936270958378145
v 126.27855082739765 19.290432390236781 -16.454846239036055
v 114.30701545167884 25.58832870968385 -13.668150683761407
v 103.20962593532025 29.432036844424765 -18.318945421677761
v 108.55871547321689 27.790711349443249 -15.193443978488805
v 96.435899855229636 30.835715714062463 -25.07548743735105
v 100.77741953616987 30.042534576796285 -20.34265057133198
v 94.42055092135152 31.087861252431082 -27.623199625167182
v -14.01152707504378 49.186998415724723 17.777262596327027
v -13.883315392026425 42.662946788323708 20.486423355940026
v -13.809913747660941 35.097740086272829 22.349327310319293
v -15.478660639914342 66.49706925487412 3.1875419035433357
v -11.310318458748434 -39.103911550588663 27.020895608068173
v -9.388241963409854 -60.433118689847845 17.616458579786372
v -8.9295704219715901 -65.860458546862702 12.783513097574193
v -8.7027181140432397 -71.052036325943703 7.31527843608594
v -8.7243595000000003 -76.101188699999994 1.4880650000000004
v -13.843960798263057 38.869495868596132 21.570167700011169
v -14.40595542819786 57.122549159887839 12.434304654399776
v -14.843896500176827 61.972474629253483 7.9969850247280281
v -14.602428208861907 59.608748509831472 10.290725315550002
v -13.769695061071982 31.349656621527906 22.875454586107438
v -15.133546067130954 64.266038807327362 5.625054215329115
v -13.636417962666094 16.891837407503893 24.165572585550169
v -15.882485926600737 68.660163923405548 0.68456101570768391
v -16.318002700000001 70.804298399999993 -1.8384263999999999
v -13.899059360100885 7.1760223290920546 24.609987475197507
v -13.973266459697282 4.1725339054855706 24.772319213110485
v -14.005862260239041 0.2936462585038313 24.957569374114613
v -13.954805454445113 -3.4519979892250561 25.298109540688131
v -13.620228291619796 -10.407649783463381 26.116764095622113
v -13.385323426225256 -13.63930633007622 26.444449525046892
v -13.816223528253387 -7.0250931714198295 25.673079395583606
v -12.270458639862113 -29.090088030480821 27.458274913623878
v -11.989576580990221 -32.335211551794245 27.445070247920579
v -11.662336137546832 -35.676513026784455 27.333202205407243
v -9.8994423471390416 -54.691684853700707 21.639440019329449
v -8.7792234436323415 -68.480088409814556 10.113487027525982
v -12.926394679699829 -19.804866237811645 26.995752995006512
v -13.145726836134989 -16.750299036224618 26.767238524897394
v -13.646343122798566 23.985376233117208 23.699045556550466
v -10.675288354557644 -45.440222068795677 25.796470951583728
v -10.984776122187185 -42.257274145178883 26.547953954710259
v -10.401154264887136 -48.59416512219272 24.698512241056775
v -8.6930438518143749 -73.58883075762202 4.427192550553519
v -13.797547072064742 10.280330892087042 24.447692162151544
v -13.703175575023799 27.647418676404211 23.352111245529617
v -9.6451613999415891 -57.608936406440016 19.741221120497094
v -13.701637486796852 13.516803782710639 24.31065802189363
v -12.510378850285964 -25.934982617682394 27.366463668823616
v -12.724458933977374 -22.853273927019899 27.166659024150782
v -9.1420942779178702 -63.177373553507437 15.287995524485364
v -14.241868023406479 54.548532722473837 14.429605412080843
v -13.616264710098676 20.391563909949987 23.984983460793664
v -10.145133183728458 -51.690951713561134 23.313725341635163
v -14.109347896697532 51.898038848563999 16.232324472707269
v -13.944223266552665 46.471444400855248 19.054048764517756
v 1.0801683116697816 47.41423842157549 16.336361130857298
v 17.576119486888704 49.146653509271275 13.228886262734079
v -20.451407533746028 46.811031751519877 19.95493496788999
v -50.164299731224439 51.820029421106781 23.035970195475251
v 5.110081118079604 -37.110997262268995 22.966109592689769
v -1.3439042839871758 -37.733012955550592 24.888556001890464
v -11.310318458748434 -39.103911550588663 27.020895608068173
v 28.791045642154685 -35.887750817060692 13.862548861323004
v -30.861957623678663 -43.310752882961793 28.145857840032754
v -87.338462118897283 46.326343166404669 31.589347715637089
v 43.751127907643479 -33.845018216894161 9.1531004867411738
v -102.78195567893582 29.750886808689934 34.699657225764668
v 63.056352001726765 -27.67828281310145 3.0425827684707905
v -55.45561999411197 -45.175611525205468 29.211521162574986
v 69.190482438339188 -24.803652909370193 1.1278690628606511
v -108.04315754532513 8.9493343304913981 35.367092173565808
v -69.137479389431689 -42.50239604653256 30.589022331573986
v -99.629786296385106 -20.444734464190105 35.001338704010095
v -95.097559169904599 -25.834953045845364 34.432037701208486
v 126.38298114444027 39.109048514682684 -15.826792756750638
v 133.28970340000001 53.222553300000008 -17.4635715
v 7.4676110197484906 47.988403583615948 15.158963869479255
v 24.600769000000007 50.181426999999999 11.789767300000003
v -17.200740843294085 46.568827918356213 19.535971819486043
v -23.69060664110447 47.222846198019745 20.374809606821138
v -26.945554259203831 47.72945890019637 20.689478461962231
v -40.127305417496018 50.247584223547832 21.772276327373753
v -46.818022487451756 51.363148790728872 22.490136015717237
v -53.50443864647103 52.194491982550417 23.657918689811076
v -56.836015397612059 52.466118919747075 24.279819908216396
v -60.127236076158084 52.645017656033005 24.925382256780544
v -63.366248190658055 52.709817470294531 25.501079249896325
v -72.355627403081542 52.19837351118273 27.582149095567292
v -4.6373173906002174 -38.127730232520861 25.757939626624271
v -17.695588883933148 -40.33675116235699 27.821793012733419
v -14.491294944770289 -39.687017681757972 27.528250090119535
v -75.090191751622299 51.630957727574746 28.230055460295162
v -78.428239046923949 50.635144385810889 29.082190262018258
v -81.578483775561153 49.429310167461821 30.013492174288096
v 20.049892237239408 -36.180588320267184 17.106087305667401
v 17.13999120160738 -36.312740694386925 18.274675242097445
v 11.255520447325807 -36.652484470574045 20.70618856162109
v -24.204125712940247 -41.802508182172559 28.092293663808459
v -37.678859322270142 -44.558181727088382 28.147842423539366
v 31.715793313564113 -35.746170215355207 12.825348620852026
v 37.656142013436906 -35.089297627816393 10.974235806416857
v -34.247496516461304 -43.987347892038898 28.167095058114924
v -92.42272766872145 42.499031135691197 32.850596466747064
v -41.161168428406008 -44.986992012119927 28.316987719212339
v 53.36684358418163 -31.181329428926929 6.0563108781278068
v 56.621654345308897 -30.15153271826528 4.9272984517314686
v -101.0173115972007 32.728442541549143 34.520687303491243
v 59.867257295663052 -28.964062939817467 3.9627023405620236
v -51.869982923080407 -45.36226647243933 28.957755714391148
v -104.3389013653956 26.583137343164488 35.013770091330116
v 66.161296646243173 -26.297855021516252 2.0854017832948362
v -62.469237175893767 -44.265503820740108 29.856424587878095
v -106.6932108420839 19.750669851026526 35.352465070685213
v -107.44569916693048 16.181818805730771 35.44618907417928
v -107.89379124582742 12.569524591265441 35.459643728818783
v -65.845305237035575 -43.496102986511943 30.286626104626375
v -105.25817728757059 -8.8217240333217077 35.480861459842302
v -107.54453043160544 1.756805099588048 35.416334608261685
v -107.91468012170657 5.3412734752957016 35.425310803248081
v -75.35907879052823 -39.897848913618546 31.665047920938463
v -101.47482357999935 -17.603537751379761 35.197135563428773
v -104.25879056035643 -11.780350307612515 35.499226604668451
v -97.488911777282325 -23.200125737319269 34.751748636332763
v 90.358759181534907 -9.2000066019938451 -6.1711109041200611
v 92.554498276134694 -6.9540503667220737 -6.8578308929937428
v -87.005320970671448 -32.799180462530884 33.381372809917565
v -92.513862906226777 -28.32212874830833 34.091084928512814
v 105.30386204825243 7.5985613199966284 -10.680521371627805
v 107.33448573628279 10.21713654759956 -11.307126603603976
v 113.31900667520812 18.554504849852126 -12.671788283062661
v 115.26560561757266 21.431021731986533 -13.13315378719701
v 122.90050194205253 33.309480854346475 -14.999325738560364
v 124.69274736990266 36.229365035319312 -15.38203511644859
v 127.95859295966187 41.951700167513067 -16.308080192635515
v 103.23399273206402 5.0219014501832806 -10.124279992811053
v 21.078566234839947 49.651226047983812 12.549413447427607
v -66.492354324298901 52.68313001003861 26.169687290125509
v -20.932285422955871 -41.045721766774328 27.975526063964196
v 34.658425241500453 -35.508818515404315 11.825289468224234
v 72.149013372404852 -23.195310659011717 0.16328288658265652
v -81.284813182952234 -36.632610595164401 32.531056351403919
v -84.180259059055899 -34.790794119649661 32.868182104475004
v 109.34746615722845 12.939057729991635 -11.709288428765515
v 117.1624067268184 24.306979754532456 -13.571662943928233
v 14.140659499638536 48.708771371791741 13.938538205185434
v -33.50142826633143 48.957447889218386 21.214020186042017
v -69.487175051235823 52.53572217930661 26.894405690713867
v -7.9668862875376316 -38.582868765282399 26.479307418823769
v -44.698205717998405 -45.268856869451938 28.477652296097379
v -99.072201817786663 35.48345300482903 34.253198037118565
v -89.798558587049456 -30.645144056020754 33.754006178202474
v 96.744886971948404 -2.4608537068899299 -8.1928523708751442
v 101.11813045184847 2.4830975436646279 -9.5865482921604226
v 98.951286128362483 0.0035810373281643833 -8.913602245140007
v -30.214194074760016 48.320476086543863 20.963849583286084
v 130.77308255382331 47.594592668454283 -17.04809353983088
v 50.112704404201835 -32.141834777740712 7.1531360613387349
v 85.694867315716692 -13.590884557316258 -4.5882629018378545
v 40.677957689646483 -34.534802670357791 10.083851902004588
v 80.562801325120802 -17.75179675477947 -2.8625528152008011
v -72.302463635202486 -41.289045156272749 31.081810406361591
v 75.034428896204645 -21.483973923635816 -0.837815983947239
v -2.0193574510377683 47.148391361472534 16.928501867135722
v 111.34423876224375 15.721304493502631 -12.156799275173846
v 119.13568114084745 27.356922910316079 -14.041711972510008
v -106.9626195977692 -1.7951110692952659 35.5843464854117
v 83.193223828398118 -15.701356339406157 -3.7078988451972119
v 121.04645908155388 30.355551141825039 -14.528130171790199
v 77.837170681265718 -19.67530523565096 -1.8824426432350156
v 129.42141729957615 44.780553562838364 -16.683524330881156
v -106.1995178306102 -5.3233445260320851 35.589422415535594
v -103.0101381607268 -14.708535774096262 35.368669225429734
v 8.2289503984125432 -36.864918549324116 21.887836381007297
v -96.979558823343979 38.02186979084415 33.902913659821706
v 4.2390384275905104 47.692566476742599 15.738346501315652
v -5.0643490293453812 46.891846318510808 17.505252283320537
v -36.808250764469207 49.605980378189116 21.461262126221726
v -43.460026491720555 50.848076140816474 22.140351947700982
v 1.910714651948545 -37.397069631480292 23.954254440481293
v -48.278589596204036 -45.396040767678201 28.649400835228647
v 14.212812200873191 -36.468034371803164 19.477105854116814
v 10.770171821255271 48.327594928468031 14.583197481388964
v -105.65268153669437 23.236342063221088 35.258228998576477
v -84.554601164625211 47.970834855281723 30.809566141558761
v -78.356433084746755 -38.337034781397193 32.083606174634426
v 22.943655467981106 -36.082739109050692 15.947748594566482
v 25.855990915129485 -35.997071062516383 14.866927470680274
v -11.014603194839001 46.517697769427144 18.584313200083962
v 88.077582533087337 -11.430776746096722 -5.4525745657606102
v -13.944223266552665 46.471444400855248 19.054048764517756
v 94.674846857474449 -4.7265218059925154 -7.6091568582225619
v -8.0568800157145937 46.676867612703788 18.078970502931973
v -94.763263269013379 40.339387333067606 33.356750376575434
v -89.956375201893877 44.485882881987521 32.226948314366368
v 46.890573934784008 -33.049164156617174 8.1505331722133594
v 132.04927244764121 50.410438900317246 -17.276775547084824
v -58.997882904169913 -44.818192022316836 29.50835738775157
v -27.515988912100042 -42.567049455361641 28.062253001500466
v 22.202861800000001 61.5412216 8.0287676000000001
v 23.759315500000003 54.168380700000007 11.2701435
v 25.503694500000002 46.110244800000004 11.5534067
v 4.1138314999999999 71.303680400000005 -2.4802944999999998
v 11.417104699999999 71.046241800000004 -1.4873932999999999
v 19.7053318 67.201385500000001 3.2786417000000001
v -4.0313287000000013 70.903182999999999 -2.6426308000000005
v 27.299921000000005 38.1703568 8.9956551000000005
v 28.419595699999999 31.484851800000001 3.9380712999999998
v -20.270702400000001 71.173828099999994 -1.3528055999999999
v -12.2880173 70.661872900000006 -2.2372563000000003
v -28.051591899999998 72.450271599999994 -0.24895710000000001
v 27.883819599999999 26.504472700000001 -2.2802910999999999
v -35.710426300000002 74.048187299999995 0.86151049999999996
v 24.385066999999999 22.4099407 -6.4139160999999998
v 16.735538500000001 16.114326500000001 -6.6321864000000001
v 11.938270600000001 9.9155331000000011 -5.4365764000000008
v 9.5527096 2.5082979000000001 -4.2572269
v -43.271652199999998 75.781059299999995 1.6771859
v 11.9351997 -7.1757903000000001 -3.3354878000000001
v -50.978824600000003 77.511657700000001 2.2519049999999998
v 17.0967159 -12.4916182 -4.1732129999999996
v -58.912372599999998 78.998085000000003 2.8038789999999998
v 24.088722199999999 -15.9136057 -5.8260740999999996
v -35.901157400000002 7.0430822000000015 -9.1752871999999996
v -37.761726400000001 14.866094600000004 -7.9485722000000001
v -42.183414499999998 21.714471799999998 -6.844639800000003
v -48.5789185 26.4571972 -5.9133310000000003
v -56.262508400000009 28.384428 -5.2634486999999996
v -64.248290999999995 27.414321900000012 -5.1368561000000001
v -66.930335999999997 80.180114700000004 3.2157154000000001
v 31.917997400000004 -16.815797799999999 -8.0726757000000013
v -36.765716599999998 -0.75051489999999998 -10.419487999999999
v -72.030731200000005 23.851425200000001 -5.2872062
v -75.130058300000002 80.863166800000016 3.6572311000000002
v 40.080322300000006 -15.7062101 -10.740428
v -40.0980797 -7.6671939 -11.4493513
v -78.929168700000005 18.2735786 -5.1322861
v -83.291420000000031 80.883461000000011 4.1465358999999999
v 48.035537700000006 -13.292820000000001 -13.4042788
v -45.374034899999998 -13.321221400000001 -12.0736103
v -83.982933000000003 11.446497000000003 -4.9366044999999996
v -91.548385600000003 80.177002000000002 4.6590166000000002
v 55.655273399999999 -9.8103446999999999 -16.127864800000001
v -52.121692700000004 -17.599058200000002 -11.8942204
v -86.369201700000019 3.7923657999999998 -5.0342792999999997
v -99.697524999999999 78.615867600000001 5.1466284
v 62.7854271 -5.4870367 -18.7680969
v -59.751144400000001 -19.883533499999999 -10.656944299999999
v -67.3870316 -19.645191199999999 -9.1425304000000001
v -85.487991300000004 -3.8932039999999999 -5.5985469999999999
v -107.81265260000001 75.991615300000007 5.7172828000000004
v 69.220024100000018 -0.38792680000000002 -21.379457500000001
v -74.147644 -17.273166700000001 -7.8415641999999997
v -81.800506600000006 -10.6986866 -6.5900778999999998
v -115.4212112 72.231712299999998 6.4261837000000002
v 75.252983099999994 5.6342062999999998 -23.822172200000008
v 43.726070399999998 -66.393432600000011 -4.3816781000000002
v 35.9237289 -68.1564178 -2.6484622999999998
v 28.223026300000001 -69.656707800000007 -1.2581259
v 20.612998999999999 -71.023971599999996 -0.27357749999999997
v 13.055316899999999 -72.280212399999996 0.38503890000000002
v 51.452549000000012 -64.271179200000006 -6.3486165999999997
v 5.5820346000000001 -73.505615199999994 0.81660080000000002
v -1.6938474000000003 -74.7766266 1.1172328
v -8.7243595000000003 -76.101188699999994 1.4880650000000004
v -15.740646399999999 -77.343658399999995 2.2016868999999999
v -22.967878299999999 -78.685394299999999 2.8455455000000001
v -30.4990101 -79.9069061 3.4511305999999999
v -122.3572693 67.582557699999995 7.0632242999999999
v -128.6384888 62.086986500000002 7.5721049000000002
v 80.756462100000007 12.2923765 -25.906726800000008
v 58.917644500000002 -61.857235000000017 -8.4852656999999994
v 66.121719400000003 -59.176433600000003 -10.799787500000001
v 73.169990499999997 -56.194751699999998 -13.3129101
v -38.190166499999997 -80.648750300000003 4.2124324
v -45.684654199999997 -80.910911600000006 4.9590673000000001
v -134.1938782 55.831645999999999 7.9830370000000004
v 85.706214900000006 19.583282500000003 -27.845827100000005
v -53.052608499999998 -80.945724499999997 5.4218105999999997
v -60.251598399999999 -80.629920999999996 5.8102879999999999
v 80.158943199999996 -52.788906100000013 -15.923251199999999
v -138.96078489999999 48.931117999999998 8.2600937000000005
v 93.157310499999994 -44.4722443 -20.356527300000003
v 86.905082700000008 -48.802734399999999 -18.286073699999999
v 90.2858047 27.304121000000006 -29.4946442
v -67.334754900000007 -79.957672099999996 6.1235948000000029
v -74.612976099999997 -78.795379600000004 6.4808073000000022
v -82.140594500000006 -77.072723400000001 6.8831954000000017
v -142.9574585 41.469634999999997 8.4552955999999995
v -146.06967159999999 33.459526099999998 8.6190318999999995
v 104.93170929999999 -34.8221664 -24.344804799999999
v 99.200958299999996 -39.8218155 -22.4371014
v 94.543579100000002 35.329021500000003 -30.889656100000007
v -89.712455700000007 -74.817970299999999 7.2528262000000003
v -97.093162500000005 -72.010643000000002 7.6281137000000001
v -148.28706360000001 25.2313118 8.8208608999999996
v -149.55029300000001 16.978828400000001 9.0201758999999999
v 110.53598020000003 -29.397214900000002 -26.227506600000012
v 115.88656620000002 -23.580511099999999 -27.9847927
v 98.505676300000005 43.424858100000002 -32.014621699999999
v -104.1245041 -68.682029700000001 7.9887362
v -149.9999847 8.7554435999999995 9.2726544999999998
v -149.70018010000001 0.93202569999999996 9.4806375999999997
v 121.09940340000001 -17.170896500000001 -29.571220400000001
v 102.1397552 51.472347300000003 -32.993930800000001
v -110.7138901 -64.945419299999998 8.2666225000000004
v -148.98910520000001 -6.9676495000000003 9.3343620000000005
v 125.9430237 -10.334397299999999 -30.840473200000002
v 130.4772644 -3.1587624999999999 -31.915069599999999
v 105.7874374 58.265335100000001 -32.711216
v -116.9583282 -60.835704800000002 8.3565492999999993
v -147.39125060000001 -15.102766000000001 9.2686644000000005
v -144.82844539999999 -22.986530300000002 9.3802337999999992
v -141.62544249999999 -30.507532099999999 9.4016266000000002
v -137.7207794 -37.679344200000003 9.3007746000000004
v -133.203598 -44.4366798 9.1273899000000007
v 134.6287231 4.1954507999999997 -32.802169800000001
v 138.3974762 11.544919 -33.586399100000001
v 109.9816132 60.788204200000003 -28.986034400000001
v 114.52659610000001 59.647144300000001 -23.816680900000001
v 119.92239379999999 57.871540099999997 -19.721578600000001
v -122.7146759 -56.1470032 8.5634460000000008
v -128.1173096 -50.622974399999997 8.8756170000000001
v 141.99649049999999 19.0050621 -34.478465999999997
v 126.37802890000003 55.838489500000001 -17.484848
v 133.28970340000001 53.222553300000008 -17.4635715
v 139.63049319999999 50.479061100000003 -19.777627899999999
v 144.77301030000001 48.184173600000001 -24.2112236
v 145.45501709999999 26.773258200000001 -35.3450737
v 148.58670040000001 46.027336099999999 -29.808586099999999
v 149.9999847 41.6877785 -34.277298000000002
v 148.4804077 34.736125899999998 -35.680152900000003
v 22.9722404 57.989944500000021 9.9844340999999996
v 24.600769000000007 50.181426999999999 11.789767300000003
v 7.9341979 71.329101600000001 -2.1411737999999998
v 17.4065628 69.065269499999999 1.2118293
v 21.243041999999999 64.668472300000005 5.6629829000000003
v 0.0865258 71.125526399999998 -2.6316728999999999
v 26.437425600000001 42.057132699999997 10.609180500000001
v 27.983947799999999 34.609169000000001 6.7456621999999999
v -16.318002700000001 70.804298399999993 -1.8384263999999999
v -8.1771221000000001 70.719268799999995 -2.5115590000000005
v -24.175722100000002 71.744026199999993 -0.81629459999999998
v 28.470750800000001 28.8133926 0.79410429999999999
v -31.898677800000002 73.228858900000006 0.32524690000000001
v 26.4863453 24.4115219 -4.804214
v 14.204621299999999 13.285203000000001 -6.0709619999999997
v 10.3057737 6.2284274000000028 -4.8195028000000004
v -39.492015799999997 74.901100200000002 1.3161655999999999
v -47.090271000000001 76.664741500000005 1.9725003999999999
v 14.1791649 -9.9673891000000001 -3.6091614000000001
v -54.932704899999997 78.290535000000006 2.5384929000000001
v 20.455245999999999 -14.5203896 -4.9272479999999996
v -36.487853999999999 11.009203899999999 -8.5499763000000009
v -39.686401400000001 18.484590499999999 -7.3777255999999998
v -45.169120800000002 24.4092579 -6.3551121000000004
v -52.324275999999998 27.7908802 -5.5367230999999997
v -60.259239200000003 28.247324000000003 -5.1298308000000006
v -62.899673499999999 79.635177600000006 3.0214436
v 27.926342000000002 -16.661865200000001 -6.8731351000000007
v -36.000831599999998 3.0843112000000006 -9.8087692000000004
v -68.194129900000007 25.931196199999999 -5.2250428000000007
v -71.024070699999996 80.598396300000005 3.4257314000000005
v 35.996978800000001 -16.460817299999999 -9.3884620999999999
v -38.153305099999997 -4.3577142000000002 -10.9740658
v -75.651672399999995 21.259143800000007 -5.2492728
v -79.206581099999994 80.960228000000001 3.8980057000000001
v 44.101047500000014 -14.6392326 -12.073054300000001
v -42.526512099999998 -10.653112399999999 -11.8264809
v -81.740470900000005 14.991002099999999 -5.0092277999999997
v -87.420310999999998 80.626701400000002 4.4036759999999999
v 51.887580900000003 -11.6752129 -14.763700500000001
v -48.589385999999998 -15.6592932 -12.1246758
v -85.559288000000024 7.6789947000000014 -4.9405941999999996
v -95.630020099999996 79.514747600000007 4.9037223000000001
v 59.306556700000002 -7.7373791000000001 -17.460750600000001
v -55.885520900000003 -19.0379963 -11.368243200000004
v -63.607154800000004 -20.082382200000005 -9.8951206000000003
v -86.343421899999996 -0.093831600000000015 -5.2422713999999999
v -103.7793427 77.450767499999998 5.4107041000000002
v 66.072418200000001 -3.0522117999999998 -20.074592600000006
v -70.964645399999995 -18.664781600000001 -8.4346323000000005
v -83.906379700000002 -7.4900599000000012 -6.0834556000000006
v -111.70507050000001 74.2386932 6.0657110000000003
v 72.283805799999996 2.5243573000000001 -22.645824399999999
v 39.819240600000001 -67.318244899999996 -3.4795918000000015
v 32.057941399999997 -68.928222700000006 -1.9032117
v 24.410507200000001 -70.355384799999996 -0.71807989999999999
v 16.827487900000001 -71.661895799999996 0.090371400000000005
v 47.613925899999998 -65.3748322 -5.3416461999999996
v 9.3028688000000006 -72.892600999999999 0.62190590000000001
v 1.9105151 -74.128372200000001 0.97972429999999999
v -5.2300738999999998 -75.446220400000001 1.2633429
v -12.216497400000002 -76.722389199999995 1.8217033000000005
v -19.319799400000001 -78.002838100000005 2.547178300000001
v -26.694063199999999 -79.338149999999999 3.1347467999999998
v -118.9694824 70.011077900000004 6.7635794000000002
v -125.58229830000001 64.938247700000005 7.3295722000000003
v 78.0834045 8.8879327999999997 -24.894090700000007
v 55.221900900000023 -63.096340200000007 -7.3964562000000011
v 62.546852100000017 -60.552391100000023 -9.6185531999999991
v 69.657363899999993 -57.725349399999999 -12.031752600000001
v -34.352634399999999 -80.350593599999996 3.8120348000000002
v -41.964179999999999 -80.818374599999999 4.6149278000000002
v -131.51425169999999 59.047203099999997 7.7928633999999999
v 83.287300099999996 15.866652500000002 -26.898887600000005
v -49.3808632 -80.960228000000001 5.2160668000000001
v -56.679412800000001 -80.834915199999998 5.6208105000000002
v 76.671676600000012 -54.562900499999998 -14.6244335
v -136.6722412 52.453315699999997 8.1363392000000001
v 90.073341400000004 -46.672981299999996 -19.3302975
v 83.592498800000001 -50.856426200000016 -17.155830399999999
v 88.037048299999995 23.400047300000001 -28.709007300000007
v -63.788108800000003 -80.342460599999995 5.9731040000000002
v -70.936912500000005 -79.447227499999997 6.2899032000000021
v -78.355087299999994 -78.001769999999993 6.6843862999999999
v -141.0631104 45.273456600000003 8.3652181999999993
v -144.62420650000001 37.519348100000002 8.5352268000000002
v 102.0945511 -37.373634299999999 -23.407655699999999
v 96.210128800000021 -42.187835700000001 -21.4054623
v 92.452438400000005 31.290275600000008 -30.223663300000005
v -85.938003499999994 -76.012374899999998 7.0699018999999996
v -93.436286899999999 -73.484268200000002 7.4404449000000001
v -147.29791259999999 29.348270400000001 8.7164335000000008
v -149.02731320000001 21.1160107 8.9215468999999992
v 107.75594330000004 -32.156406400000002 -25.289802600000009
v 113.23561100000001 -26.5521049 -27.125295600000001
v 96.56373600000002 39.381050100000003 -31.481126800000006
v -100.66463469999999 -70.404808000000003 7.8101006000000002
v -149.880661 12.831741299999999 9.1326655999999993
v -149.9140778 4.8064112999999997 9.4131736999999998
v 118.5209122 -20.446456900000001 -28.810054800000007
v 100.3600998 47.464221999999999 -32.5249138
v -107.46553040000001 -66.858787500000005 8.1525145000000006
v -149.4115448 -2.9724955999999998 9.4355782999999995
v 123.5707855 -13.795685799999999 -30.242210400000001
v 128.24647519999999 -6.7847337999999997 -31.396736099999998
v 103.9113693 55.228286699999998 -33.199932099999998
v -113.88684840000001 -62.942325599999997 8.3194207999999996
v -148.33010859999999 -11.0363159 9.2663335999999994
v -146.2026367 -19.0937214 9.3211975000000002
v -143.30787659999999 -26.789810200000002 9.4102621000000006
v -139.75787349999999 -34.137718200000002 9.3621006000000015
v -135.53758239999999 -41.121372200000003 9.2223778000000003
v 132.60920719999999 0.51311419999999996 -32.383659399999999
v 136.54765320000001 7.8692926999999999 -33.191345200000001
v 107.8279343 60.149833700000002 -31.2480659
v 112.1957932 60.459297200000002 -26.374397299999998
v 117.08217620000001 58.748939499999999 -21.561227800000001
v -119.8976059 -58.588497199999999 8.4341010999999995
v -125.4460907 -53.483436599999997 8.7200422
v -130.71794130000001 -47.604160299999997 9.0128260000000004
v 140.20945739999999 15.248498900000005 -34.015487700000001
v 123.04006200000003 56.929977399999999 -18.3467865
v 129.83793639999999 54.584224700000021 -17.182352099999999
v 136.59307860000001 51.832111400000009 -18.332353600000001
v 142.35112000000001 49.239730799999997 -21.7637882
v 143.75234990000001 22.840152700000008 -34.941589399999998
v 146.8895416 47.222877500000003 -26.972375899999999
v 149.67687989999999 44.234981500000004 -32.3726044
v 149.5421753 38.453689599999997 -35.3302269
v 147.0603638 30.776533100000002 -35.620861099999999
v 14.5682039 70.318542500000007 -0.386465
v 19.310707099999998 18.4162827 -7.0199813999999998
v 21.8955746 20.438939999999999 -7.0585545999999999
v 10.454008100000001 -4.2182484000000002 -3.4107003000000002
v 9.6541262000000003 -1.0102267 -3.7626374
v -79.420188899999999 -13.3757877 -7.0194101
v -76.904869099999999 -15.5313082 -7.3962149999999998
v 20.474186899999999 65.934928900000003 4.4708123000000004
v 108.90477375 60.469018950000006 -30.117050150000001
v 113.36119465 60.053220750000001 -25.0955391
v 111.0887032 60.623750700000002 -27.68021585
v 27.185082449999999 25.457997300000002 -3.5422525499999997
v 23.140320799999998 21.424440349999998 -6.7362353499999994
v 10.054067150000002 -2.6142375500000004 -3.5866688499999997
v 149.77107999999998 40.070734049999999 -34.803762450000001
v 11.194603900000001 -5.6970193499999997 -3.3730940499999997
v -58.4655056 -80.73241809999999 5.7155492500000005
v -72.774944300000016 -79.121303549999993 6.3853552499999999
v 104.84940335 56.7468109 -32.955574049999996
v 106.80768585 59.207584400000002 -31.97964095
v 18.5559473 68.133327500000007 2.2452355000000002
v 20.603140849999999 19.427611349999999 -7.0392679999999999
v -69.135833700000006 -79.702449800000011 6.2067490000000003
v 149.83843229999999 42.961380000000005 -33.324951200000001
v 115.80438615 59.1980419 -22.688954350000003
v -62.019853600000005 -80.486190800000003 5.8916959999999996
v 28.1772852 27.658932650000001 -0.74309340000000002
v 114.56108860000001 -25.066307999999999 -27.555044150000008
l 22/22 17/17
l 17/17 16/16
l 16/16 9/9
l 9/9 8/8
l 8/8 15/15
l 15/15 4/4
l 4/4 10/10
l 10/10 11/11
l 11/11 3/3
l 3/3 21/21
l 21/21 20/20
l 20/20 13/13
l 13/13 12/12
l 12/12 19/19
l 19/19 18/18
l 18/18 2/2
l 2/2 6/6
l 6/6 1/1
l 1/1 14/14
l 14/14 5/5
l 5/5 7/7
l 30/30 41/41
l 41/41 48/48
l 48/48 42/42
l 42/42 46/46
l 46/46 47/47
l 47/47 45/45
l 45/45 49/49
l 49/49 29/29
l 29/29 40/40
l 40/40 44/44
l 44/44 39/39
l 39/39 27/27
l 27/27 34/34
l 34/34 25/25
l 25/25 32/32
l 32/32 24/24
l 24/24 33/33
l 33/33 26/26
l 26/26 36/36
l 36/36 28/28
l 28/28 35/35
l 35/35 37/37
l 37/37 43/43
l 43/43 23/23
l 23/23 31/31
l 31/31 38/38
l 60/60 71/71
l 71/71 53/53
l 53/53 59/59
l 59/59 73/73
l 73/73 72/72
l 72/72 52/52
l 52/52 58/58
l 58/58 57/57
l 57/57 74/74
l 74/74 70/70
l 70/70 65/65
l 65/65 69/69
l 69/69 56/56
l 56/56 66/66
l 66/66 63/63
l 63/63 55/55
l 55/55 68/68
l 68/68 75/75
l 75/75 54/54
l 54/54 50/50
l 50/50 76/76
l 76/76 62/62
l 62/62 61/61
l 61/61 64/64
l 64/64 67/67
l 67/67 51/51
l 100/100 99/99
l 99/99 83/83
l 83/83 98/98
l 98/98 97/97
l 97/97 96/96
l 96/96 82/82
l 82/82 95/95
l 95/95 94/94
l 94/94 93/93
l 93/93 102/102
l 102/102 92/92
l 92/92 101/101
l 101/101 81/81
l 81/81 91/91
l 91/91 103/103
l 103/103 80/80
l 80/80 90/90
l 90/90 79/79
l 79/79 89/89
l 89/89 78/78
l 78/78 88/88
l 88/88 87/87
l 87/87 105/105
l 105/105 104/104
l 104/104 84/84
l 84/84 77/77
l 77/77 85/85
l 85/85 86/86
l 108/108 115/115
l 115/115 107/107
l 107/107 114/114
l 114/114 117/117
l 117/117 113/113
l 113/113 119/119
l 119/119 118/118
l 118/118 106/106
l 106/106 116/116
l 116/116 120/120
l 120/120 112/112
l 112/112 122/122
l 122/122 111/111
l 111/111 121/121
l 121/121 124/124
l 124/124 110/110
l 110/110 123/123
l 123/123 125/125
l 125/125 109/109
l 143/143 142/142
l 142/142 129/129
l 129/129 140/140
l 140/140 137/137
l 137/137 138/138
l 138/138 136/136
l 136/136 170/170
l 170/170 173/173
l 173/173 126/126
l 126/126 174/174
l 174/174 127/127
l 127/127 135/135
l 135/135 128/128
l 128/128 139/139
l 139/139 164/164
l 164/164 158/158
l 158/158 171/171
l 171/171 141/141
l 141/141 166/166
l 166/166 163/163
l 163/163 144/144
l 144/144 145/145
l 145/145 146/146
l 146/146 147/147
l 147/147 150/150
l 150/150 148/148
l 148/148 149/149
l 149/149 157/157
l 157/157 156/156
l 156/156 168/168
l 168/168 167/167
l 167/167 151/151
l 151/151 152/152
l 152/152 153/153
l 153/153 130/130
l 130/130 160/160
l 160/160 159/159
l 159/159 161/161
l 161/161 172/172
l 172/172 154/154
l 154/154 165/165
l 165/165 131/131
l 131/131 169/169
l 169/169 132/132
l 132/132 155/155
l 155/155 133/133
l 133/133 162/162
l 162/162 134/134
l 195/195 315/315
l 315/315 275/275
l 275/275 289/289
l 289/289 253/253
l 253/253 194/194
l 194/194 252/252
l 252/252 251/251
l 251/251 287/287
l 287/287 284/284
l 284/284 263/263
l 263/263 250/250
l 250/250 249/249
l 249/249 283/283
l 283/283 262/262
l 262/262 248/248
l 248/248 247/247
l 247/247 254/254
l 254/254 272/272
l 272/272 273/273
l 273/273 271/271
l 271/271 310/310
l 310/310 244/244
l 244/244 243/243
l 243/243 308/308
l 308/308 277/277
l 277/277 286/286
l 286/286 279/279
l 279/279 288/288
l 288/288 281/281
l 281/281 259/259
l 259/259 189/189
l 189/189 230/230
l 230/230 187/187
l 187/187 227/227
l 227/227 225/225
l 225/225 224/224
l 224/224 276/276
l 276/276 314/314
l 314/314 185/185
l 185/185 278/278
l 278/278 220/220
l 220/220 258/258
l 258/258 219/219
l 219/219 182/182
l 182/182 306/306
l 306/306 305/305
l 305/305 214/214
l 214/214 215/215
l 215/215 300/300
l 300/300 216/216
l 216/216 292/292
l 292/292 179/179
l 179/179 298/298
l 298/298 180/180
l 180/180 208/208
l 208/208 267/267
l 267/267 181/181
l 181/181 210/210
l 210/210 209/209
l 209/209 257/257
l 257/257 217/217
l 217/217 317/317
l 317/317 183/183
l 183/183 221/221
l 221/221 218/218
l 218/218 223/223
l 223/223 268/268
l 268/268 299/299
l 299/299 228/228
l 228/228 188/188
l 188/188 316/316
l 316/316 231/231
l 231/231 235/235
l 235/235 191/191
l 191/191 280/280
l 280/280 239/239
l 239/239 304/304
l 304/304 260/260
l 260/260 261/261
l 261/261 245/245
l 245/245 270/270
l 270/270 246/246
l 246/246 193/193
l 193/193 242/242
l 242/242 192/192
l 192/192 240/240
l 240/240 291/291
l 291/291 241/241
l 241/241 236/236
l 236/236 290/290
l 290/290 285/285
l 285/285 237/237
l 237/237 238/238
l 238/238 190/190
l 190/190 234/234
l 234/234 233/233
l 233/233 232/232
l 232/232 302/302
l 302/302 229/229
l 229/229 186/186
l 186/186 226/226
l 226/226 269/269
l 269/269 293/293
l 293/293 312/312
l 312/312 222/222
l 222/222 313/313
l 313/313 184/184
l 184/184 303/303
l 303/303 213/213
l 213/213 212/212
l 212/212 211/211
l 211/211 207/207
l 207/207 266/266
l 266/266 256/256
l 256/256 206/206
l 206/206 205/205
l 205/205 204/204
l 204/204 203/203
l 203/203 178/178
l 178/178 202/202
l 202/202 297/297
l 297/297 201/201
l 201/201 296/296
l 296/296 265/265
l 265/265 274/274
l 274/274 200/200
l 200/200 199/199
l 199/199 177/177
l 177/177 198/198
l 198/198 309/309
l 309/309 307/307
l 307/307 311/311
l 311/311 295/295
l 295/295 282/282
l 282/282 175/175
l 175/175 294/294
l 294/294 196/196
l 196/196 301/301
l 301/301 264/264
l 264/264 176/176
l 176/176 255/255
l 255/255 197/197
l 318/318 451/451
l 318/318 455/455
l 319/319 451/451
l 319/319 452/452
l 320/320 452/452
l 320/320 457/457
l 321/321 453/453
l 321/321 456/456
l 322/322 453/453
l 322/322 581/581
l 323/323 588/588
l 323/323 601/601
l 324/324 456/456
l 324/324 460/460
l 325/325 457/457
l 325/325 458/458
l 326/326 458/458
l 326/326 462/462
l 327/327 459/459
l 327/327 461/461
l 328/328 459/459
l 328/328 460/460
l 329/329 461/461
l 329/329 463/463
l 330/330 592/592
l 330/330 607/607
l 331/331 463/463
l 331/331 467/467
l 332/332 464/464
l 332/332 593/593
l 333/333 465/465
l 333/333 582/582
l 334/334 465/465
l 334/334 466/466
l 335/335 466/466
l 335/335 585/585
l 336/336 467/467
l 336/336 468/468
l 337/337 469/469
l 337/337 596/596
l 338/338 468/468
l 338/338 470/470
l 339/339 469/469
l 339/339 471/471
l 340/340 470/470
l 340/340 477/477
l 341/341 471/471
l 341/341 478/478
l 342/342 472/472
l 342/342 479/479
l 343/343 472/472
l 343/343 473/473
l 344/344 473/473
l 344/344 474/474
l 345/345 474/474
l 345/345 475/475
l 346/346 475/475
l 346/346 476/476
l 347/347 476/476
l 347/347 480/480
l 348/348 477/477
l 348/348 481/481
l 349/349 478/478
l 349/349 482/482
l 350/350 479/479
l 350/350 483/483
l 351/351 480/480
l 351/351 484/484
l 352/352 481/481
l 352/352 485/485
l 353/353 482/482
l 353/353 486/486
l 354/354 483/483
l 354/354 487/487
l 355/355 484/484
l 355/355 488/488
l 356/356 485/485
l 356/356 489/489
l 357/357 486/486
l 357/357 490/490
l 358/358 487/487
l 358/358 491/491
l 359/359 488/488
l 359/359 492/492
l 360/360 489/489
l 360/360 493/493
l 361/361 490/490
l 361/361 494/494
l 362/362 491/491
l 362/362 495/495
l 363/363 492/492
l 363/363 497/497
l 364/364 493/493
l 364/364 498/498
l 365/365 494/494
l 365/365 499/499
l 366/366 495/495
l 366/366 496/496
l 367/367 496/496
l 367/367 500/500
l 368/368 497/497
l 368/368 501/501
l 369/369 498/498
l 369/369 502/502
l 370/370 499/499
l 370/370 503/503
l 371/371 500/500
l 371/371 587/587
l 372/372 501/501
l 372/372 586/586
l 373/373 502/502
l 373/373 515/515
l 374/374 503/503
l 374/374 517/517
l 375/375 504/504
l 375/375 508/508
l 376/376 504/504
l 376/376 505/505
l 377/377 505/505
l 377/377 506/506
l 378/378 506/506
l 378/378 507/507
l 379/379 507/507
l 379/379 509/509
l 380/380 508/508
l 380/380 518/518
l 381/381 509/509
l 381/381 510/510
l 382/382 510/510
l 382/382 511/511
l 383/383 511/511
l 383/383 512/512
l 384/384 512/512
l 384/384 513/513
l 385/385 513/513
l 385/385 514/514
l 386/386 514/514
l 386/386 521/521
l 387/387 515/515
l 387/387 516/516
l 388/388 516/516
l 388/388 523/523
l 389/389 517/517
l 389/389 524/524
l 390/390 518/518
l 390/390 519/519
l 391/391 519/519
l 391/391 520/520
l 392/392 520/520
l 392/392 527/527
l 393/393 521/521
l 393/393 522/522
l 394/394 522/522
l 394/394 525/525
l 395/395 523/523
l 395/395 528/528
l 396/396 524/524
l 396/396 531/531
l 397/397 525/525
l 397/397 526/526
l 398/398 597/597
l 398/398 606/606
l 399/399 527/527
l 399/399 530/530
l 400/400 528/528
l 400/400 535/535
l 401/401 529/529
l 401/401 538/538
l 402/402 529/529
l 402/402 530/530
l 403/403 531/531
l 403/403 539/539
l 404/404 532/532
l 404/404 603/603
l 405/405 534/534
l 405/405 598/598
l 406/406 534/534
l 406/406 540/540
l 407/407 535/535
l 407/407 536/536
l 408/408 536/536
l 408/408 542/542
l 409/409 537/537
l 409/409 544/544
l 410/410 537/537
l 410/410 538/538
l 411/411 539/539
l 411/411 546/546
l 412/412 540/540
l 412/412 541/541
l 413/413 541/541
l 413/413 547/547
l 414/414 542/542
l 414/414 543/543
l 415/415 543/543
l 415/415 548/548
l 416/416 544/544
l 416/416 545/545
l 417/417 550/550
l 417/417 608/608
l 418/418 546/546
l 418/418 551/551
l 419/419 547/547
l 419/419 552/552
l 420/420 548/548
l 420/420 549/549
l 421/421 549/549
l 421/421 553/553
l 422/422 550/550
l 422/422 554/554
l 423/423 551/551
l 423/423 556/556
l 424/424 552/552
l 424/424 557/557
l 425/425 553/553
l 425/425 558/558
l 426/426 554/554
l 426/426 555/555
l 427/427 555/555
l 427/427 563/563
l 428/428 599/599
l 428/428 600/600
l 429/429 557/557
l 429/429 568/568
l 430/430 558/558
l 430/430 559/559
l 431/431 559/559
l 431/431 560/560
l 432/432 560/560
l 432/432 561/561
l 433/433 561/561
l 433/433 562/562
l 434/434 562/562
l 434/434 570/570
l 435/435 563/563
l 435/435 564/564
l 436/436 564/564
l 436/436 571/571
l 437/437 589/589
l 437/437 591/591
l 438/438 590/590
l 438/438 605/605
l 439/439 567/567
l 439/439 572/572
l 440/440 568/568
l 440/440 569/569
l 441/441 569/569
l 441/441 570/570
l 442/442 571/571
l 442/442 576/576
l 443/443 572/572
l 443/443 573/573
l 444/444 573/573
l 444/444 574/574
l 445/445 574/574
l 445/445 575/575
l 446/446 575/575
l 446/446 577/577
l 447/447 576/576
l 447/447 580/580
l 448/448 577/577
l 448/448 578/578
l 449/449 595/595
l 449/449 604/604
l 450/450 579/579
l 450/450 580/580
l 454/454 581/581
l 454/454 601/601
l 455/455 588/588
l 462/462 607/607
l 464/464 592/592
l 526/526 597/597
l 532/532 606/606
l 533/533 598/598
l 533/533 603/603
l 545/545 608/608
l 556/556 599/599
l 565/565 589/589
l 565/565 600/600
l 566/566 590/590
l 566/566 591/591
l 567/567 605/605
l 578/578 604/604
l 579/579 595/595
l 582/582 602/602
l 583/583 593/593
l 583/583 602/602
l 584/584 594/594
l 584/584 596/596
l 585/585 594/594
l 586/586 587/587
