v 0.0703125 1 1.1823729000000001
v 0.8828125 1 0.75707959999999996
v 0.95898439999999996 1 0.75128159999999999
v 0.8203125 1 0.76635719999999996
v 0.0390625 1 1.2121580999999999
v 0.1640625 1 1.0998532999999999
v 0.41308590000000001 1 0.92269869999999998
v 0.66308590000000001 1 0.80722020000000005
v 0.7890625 1 0.77270499999999998
v 0.9140625 1 0.75415019999999999
v 0.2265625 1 1.0495604999999999
v 0.3203125 1 0.98120099999999999
v 0.6093537 1 0.82666835000000005
v 0.1015625 1 1.1540524000000001
v 0.1328125 1 1.1262201999999999
v 0.1953125 1 1.0739745000000001
v 0.3515625 1 0.96069300000000002
v 0.56152340000000001 1 0.84652700000000003
v 0.37890620000000003 1 0.94299270000000002
v 0.8515625 1 0.76147430000000005
v 0.47900389999999998 1 0.8861542
v 0.51953119999999997 1 0.86584470000000002
v 0.2890625 1 1.0031737000000001
v 0.45233109999999999 1 0.90054579999999995
v 0.2578125 1 1.0256348
v 0.7578125 1 0.77954100000000004
v 0.019531199999999999 1 1.2310791000000001
v 0.71484375 1 0.7911376
v 0.7734375 1 0.77612300000000001
v 0.36523435000000004 1 0.95184285000000002
v 0.8046875 1 0.76953110000000002
v 0.8671875 1 0.75927695000000006
v 0.0546875 1 1.1972654999999999
v 0.2421875 1 1.0375976499999999
v 0.736328125 1 0.78533929999999996
v 0.8984375 1 0.75561489999999998
v 0.39599605000000004 1 0.9328457
v 0.8359375 1 0.76391575
v 0.2734375 1 1.0144042500000001
v 0.97949219999999992 1 0.7506408
v 0.0097655999999999993 1 1.24053955
v 0.029296849999999999 1 1.2216186
v 1 1 -0.0117188
v 1 1 0.4765625
v 1 1 0.2070312
v 1 1 -0.1953125
v 1 1 -0.2421875
v 1 1 -0.88574219999999992
v 1 1 0.0234375
v 1 1 -0.2890625
v 1 1 0.71875
v 1 1 0.2421875
v 1 1 0.2734375
v 1 1 0.5078125
v 1 1 0.3359375
v 1 1 0.3671875
v 1 1 0.63671880000000003
v 1 1 -0.7265625
v 1 1 -0.1328125
v 1 1 -0.5390625
v 1 1 -0.3828125
v 1 1 0.6015625
v 1 1 -1.1328125
v 1 1 -1.0585937999999999
v 1 1 -1.1015625
v 1 1 -0.0546875
v 1 1 -0.7578125
v 1 1 -1.1953125
v 1 1 0.1601562
v 1 1 -0.1640625
v 1 1 -0.41796879999999997
v 1 1 -0.6328125
v 1 1 -0.6953125
v 1 1 -0.98046880000000003
v 1 1 -0.84765619999999997
v 1 1 -0.089843800000000001
v 1 1 -0.4609375
v 1 1 -0.50390619999999997
v 1 1 -1.0234375
v 1 1 0.68359380000000003
v 1 1 0.5390625
v 1 1 -0.3359375
v 1 1 -0.80078119999999997
v 1 1 0.0859375
v 1 1 0.3046875
v 1 1 -0.5703125
v 1 1 0.5703125
v 1 1 -0.6015625
v 1 1 0.1171875
v 1 1 -0.6640625
v 1 1 0.43359379999999997
v 1 1 -0.9453125
v 1 1 0.0546875
v 1 1 -0.91552734999999996
v 1 1 -1.2226562000000001
v 1 1 -1.1640625
v 1 1 0.3984375
v 1 1 0.0703125
v 1 1 -0.6796875
v 1 1 0.0390625
v 1 1 -0.7109375
v 1 1 0.61914065000000007
v 1 1 0.70117190000000007
v 1 1 0.3515625
v 1 1 0.3828125
v 1 1 0.2890625
v 1 1 0.1015625
v 1 1 0.3203125
v 1 1 -0.5859375
v 1 1 -0.96289065000000007
v 1 1 0.5546875
v 1 1 -0.6484375
v 1 1 0.0058593500000000001
v 1 1 0.5859375
v 1 1 0.5234375
v 1 1 0.734375
v 1 1 -1.2363281000000002
v 1 1 0.41601564999999996
v 1 1 -0.93041992500000004
v 1 1 -1.2089843500000002
v 1 1 -1.1484375
v 1 1 -0.6171875
v 1 1 -1.1796875
v 1 0.1054688 0.75
v 1 -0.6015625 0.75
v 1 -0.5546875 0.75
v 1 -0.0703125 0.75
v 1 0.39453120000000003 0.75
v 1 0.54296880000000003 0.75
v 1 0.7890625 0.75
v 1 0.4609375 0.75
v 1 -0.7578125 0.75
v 1 -0.43359379999999997 0.75
v 1 -0.3984375 0.75
v 1 -0.4765625 0.75
v 1 -0.3203125 0.75
v 1 -0.1757812 0.75
v 1 -0.2109375 0.75
v 1 0.0703125 0.75
v 1 0.1484375 0.75
v 1 0.3515625 0.75
v 1 0.27050780000000002 0.75
v 1 0.3203125 0.75
v 1 0.5859375 0.75
v 1 0.70703119999999997 0.75
v 1 0.8828125 0.75
v 1 0.9140625 0.75
v 1 0.8515625 0.75
v 1 -0.9453125 0.75
v 1 -0.66796880000000003 0.75
v 1 0.0390625 0.75
v 1 -0.6328125 0.75
v 1 -0.71484380000000003 0.75
v 1 -0.1328125 0.75
v 1 -0.8203125 0.75
v 1 -0.25390620000000003 0.75
v 1 -0.2890625 0.75
v 1 0.4296875 0.75
v 1 0.49609379999999997 0.75
v 1 -0.5078125 0.75
v 1 0.0078125 0.75
v 1 0.2265625 0.75
v 1 0.6171875 0.75
v 1 0.66015625 0.75
v 1 0.75390619999999997 0.75
v 1 0.95703125 0.75
v 1 -0.7890625 0.75
v 1 -0.35546879999999997 0.75
v 1 0.1796875 0.75
v 1 -0.1015625 0.75
v 1 -0.8515625 0.75
v 1 -0.9140625 0.75
v 1 0.8203125 0.75
v 1 -0.8828125 0.75
v 1 -0.035156199999999999 0.75
v 1 -0.97265625 0.75
v 1 -0.8359375 0.75
v 1 -0.7734375 0.75
v 1 0.56445315000000007 0.75
v 1 0.8671875 0.75
v 1 0.6015625 0.75
v 1 0.8046875 0.75
v 1 -0.8046875 0.75
v 1 -0.15429684999999999 0.75
v 1 -0.1171875 0.75
v 1 0.8359375 0.75
v 1 -0.8671875 0.75
v 1 -0.8984375 0.75
v 1 0.978515625 0.75
v 1 -0.013671849999999999 0.75
v 1 0.9892578125 0.75
v 0.38671879999999997 -1 0.75
v 0.8828125 -1 0.75
v 0.92578119999999997 -1 0.75
v 0.068847649999999996 -1 0.75
v 0.15820310000000001 -1 0.75
v 0.27734379999999997 -1 0.75
v 0.3203125 -1 0.75
v 0.4296875 -1 0.75
v 0.47265620000000003 -1 0.75
v 0.51953119999999997 -1 0.75
v 0.56640619999999997 -1 0.75
v 0.6640625 -1 0.75
v 0.69921880000000003 -1 0.75
v 0.7734375 -1 0.75
v 0.9609375 -1 0.75
v 0.0390625 -1 0.75
v 0.6328125 -1 0.75
v 0.3515625 -1 0.75
v 0.098632799999999993 -1 0.75
v 0.2421875 -1 0.75
v 0.83984380000000003 -1 0.75
v 0.8046875 -1 0.75
v 0.19775390000000001 -1 0.75
v 0.7421875 -1 0.75
v 0.6015625 -1 0.75
v 0.12841795 -1 0.75
v 0.053955074999999998 -1 0.75
v 0.82226565000000007 -1 0.75
v 0.01953125 -1 0.75
v 0.98046875 -1 0.75
v 0.94335934999999993 -1 0.75
v 0.86132815000000007 -1 0.75
v 0.113525375 -1 0.75
v 0.083740225000000001 -1 0.75
v 0.990234375 -1 0.75
v 0.3046875 -1 -1.25
v 0.6796875 -1 -1.25
v 0.5078125 -1 -1.25
v 0.60546880000000003 -1 -1.25
v 0.5703125 -1 -1.25
v 0.5390625 -1 -1.25
v 0.0703125 -1 -1.25
v 0.1132812 -1 -1.25
v 0.0390625 -1 -1.25
v 0.3828125 -1 -1.25
v 0.33984379999999997 -1 -1.25
v 0.8515625 -1 -1.25
v 0.7890625 -1 -1.25
v 0.74609380000000003 -1 -1.25
v 0.7109375 -1 -1.25
v 0.4140625 -1 -1.25
v 0.4609375 -1 -1.25
v 0.94140619999999997 -1 -1.25
v 0.8203125 -1 -1.25
v 0.89453119999999997 -1 -1.25
v 0.1601562 -1 -1.25
v 0.6484375 -1 -1.25
v 0.97070310000000004 -1 -1.25
v 0.2734375 -1 -1.25
v 0.1953125 -1 -1.25
v 0.2304688 -1 -1.25
v 0.01953125 -1 -1.25
v 0.21289065000000001 -1 -1.25
v 0.95605465000000001 -1 -1.25
v 0.98535155000000008 -1 -1.25
v 0.25195315000000001 -1 -1.25
v 1 -1 -0.73828119999999997
v 1 -1 -0.019531199999999999
v 1 -1 -0.1679688
v 1 -1 -0.4765625
v 1 -1 -0.7734375
v 1 -1 0.1171875
v 1 -1 0.4453125
v 1 -1 0.62109380000000003
v 1 -1 0.5390625
v 1 -1 -0.59765619999999997
v 1 -1 -0.4140625
v 1 -1 -0.4453125
v 1 -1 -0.9609375
v 1 -1 -0.2890625
v 1 -1 0.41015620000000003
v 1 -1 -0.8359375
v 1 -1 -0.2109375
v 1 -1 -0.1210938
v 1 -1 0.0546875
v 1 -1 0.3046875
v 1 -1 -1.1679687999999999
v 1 -1 -1.2109375
v 1 -1 0.0234375
v 1 -1 0.2109375
v 1 -1 0.4921875
v 1 -1 0.3359375
v 1 -1 0.3671875
v 1 -1 0.57421880000000003
v 1 -1 -0.6640625
v 1 -1 -0.6328125
v 1 -1 -0.3828125
v 1 -1 -0.8828125
v 1 -1 0.65625
v 1 -1 -0.3515625
v 1 -1 -0.25390620000000003
v 1 -1 -1.04296875
v 1 -1 0.2734375
v 1 -1 -0.6953125
v 1 -1 0.1484375
v 1 -1 -0.0859375
v 1 -1 -1.1328125
v 1 -1 0.69726560000000004
v 1 -1 -1.0976562000000001
v 1 -1 0.72363279999999996
v 1 -1 -0.5546875
v 1 -1 -0.3203125
v 1 -1 -0.0546875
v 1 -1 0.0859375
v 1 -1 -0.99609380000000003
v 1 -1 -0.9296875
v 1 -1 0.2421875
v 1 -1 -0.8046875
v 1 -1 -0.51953119999999997
v 1 -1 0.1796875
v 1 -1 0.1015625
v 1 -1 0.2265625
v 1 -1 -0.0703125
v 1 -1 0.0390625
v 1 -1 0.2578125
v 1 -1 0.2890625
v 1 -1 -0.53710934999999993
v 1 -1 0.1328125
v 1 -1 -0.10351565
v 1 -1 0.1640625
v 1 -1 -1.1894531499999998
v 1 -1 -0.4609375
v 1 -1 0.0019531500000000007
v 1 -1 -0.75585934999999993
v 1 -1 -0.037109349999999999
v 1 -1 -0.49804684999999999
v 1 -1 0.67675780000000008
v 1 -1 0.7104492
v 1 -1 0.0703125
v 1 -1 0.73681639999999993
v 1 -1 -0.7890625
v 1 -1 -1.23046875
v 1 -1 0.1953125
v 1 -1 -0.90625
v 1 -1 -1.240234375
v 1 -1 -1.220703125
v 0.1953125 1 -1.25
v 0.1132812 1 -1.25
v 0.76171880000000003 1 -1.25
v 0.36328120000000003 1 -1.25
v 0.4765625 1 -1.25
v 0.2265625 1 -1.25
v 0.035156199999999999 1 -1.25
v 0.91015619999999997 1 -1.25
v 0.3984375 1 -1.25
v 0.51953119999999997 1 -1.25
v 0.8046875 1 -1.25
v 0.8671875 1 -1.25
v 0.8359375 1 -1.25
v 0.0703125 1 -1.25
v 0.44140620000000003 1 -1.25
v 0.6484375 1 -1.25
v 0.55761720000000004 1 -1.25
v 0.2578125 1 -1.25
v 0.1601562 1 -1.25
v 0.3203125 1 -1.25
v 0.95898439999999996 1 -1.25
v 0.60229489999999997 1 -1.25
v 0.71484380000000003 1 -1.25
v 0.6796875 1 -1.25
v 0.2890625 1 -1.25
v 0.97949219999999992 1 -1.25
v 0.017578099999999999 1 -1.25
v 0.052734349999999999 1 -1.25
v 0.38085935000000004 1 -1.25
v 0.34179685000000004 1 -1.25
v 0.57995605000000006 1 -1.25
v 0.73828130000000003 1 -1.25
v 0.3046875 1 -1.25
v 0.2734375 1 -1.25
v 0.6640625 1 -1.25
v 0.62536619999999998 1 -1.25
v 0.69726565000000007 1 -1.25
v 0.0087890499999999996 1 -1.25
v 1 -0.2148438 -1.25
v 1 0.027343800000000001 -1.25
v 1 0.9296875 -1.25
v 1 0.10546875 -1.25
v 1 -0.3984375 -1.25
v 1 -0.73828119999999997 -1.25
v 1 0.9609375 -1.25
v 1 -0.3671875 -1.25
v 1 -0.43359379999999997 -1.25
v 1 -0.074218800000000001 -1.25
v 1 -0.0390625 -1.25
v 1 -0.66015625 -1.25
v 1 -0.5078125 -1.25
v 1 0.2148438 -1.25
v 1 0.1484375 -1.25
v 1 0.0703125 -1.25
v 1 0.72265619999999997 -1.25
v 1 0.4140625 -1.25
v 1 -0.89676210000000001 -1.25
v 1 0.3515625 -1.25
v 1 0.3828125 -1.25
v 1 0.2890625 -1.25
v 1 -0.33203120000000003 -1.25
v 1 0.53515619999999997 -1.25
v 1 -0.6953125 -1.25
v 1 -0.1796875 -1.25
v 1 0.7890625 -1.25
v 1 -0.8046875 -1.25
v 1 -0.7734375 -1.25
v 1 0.1796875 -1.25
v 1 -0.5703125 -1.25
v 1 0.45703120000000003 -1.25
v 1 -0.8515625 -1.25
v 1 0.4921875 -1.25
v 1 0.7578125 -1.25
v 1 0.57324220000000004 -1.25
v 1 -0.4765625 -1.25
v 1 0.3203125 -1.25
v 1 0.2578125 -1.25
v 1 -0.1171875 -1.25
v 1 -0.2890625 -1.25
v 1 0.62402345000000004 -1.25
v 1 0.6796875 -1.25
v 1 -0.0078125 -1.25
v 1 -0.95703119999999997 -1.25
v 1 -0.1484375 -1.25
v 1 0.89453119999999997 -1.25
v 1 -0.60546880000000003 -1.25
v 1 0.8515625 -1.25
v 1 -0.92689670000000002 -1.25
v 1 0.8203125 -1.25
v 1 -0.5390625 -1.25
v 1 -0.2578125 -1.25
v 1 0.9453125 -1.25
v 1 -0.1640625 -1.25
v 1 -0.19726565000000001 -1.25
v 1 0.8046875 -1.25
v 1 0.91210934999999993 -1.25
v 1 0.74023434999999993 -1.25
v 1 0.087890625 -1.25
v 1 -0.2734375 -1.25
v 1 -0.34960935000000004 -1.25
v 1 -0.4921875 -1.25
v 1 -0.3828125 -1.25
v 1 0.70117184999999993 -1.25
v 1 -0.0234375 -1.25
v 1 -0.31054685000000004 -1.25
v 1 0.048828150000000001 -1.25
v 1 0.0097656500000000007 -1.25
v 1 -0.5546875 -1.25
v 1 -0.5234375 -1.25
v 1 0.98046875 -1.25
v 1 0.87304684999999993 -1.25
v 1 -0.23632815000000001 -1.25
v 1 0.8359375 -1.25
v 1 -0.94196394999999999 -1.25
v 1 -0.91182940000000001 -1.25
v 1 -0.97851559999999993 -1.25
v 1 0.990234375 -1.25
v 1 -0.98925779999999996 -1.25
v 0 0.3046875 0.9628295
v 1 1 0.75
v -1.3010426069826053e-18 -1 -0.17446693253944112
v 0 1 0.1724695
v -4.3368086899420014e-19 -1 -1.0485621649954151
v 0 -1 0.44457608263452525
v 3.4694469519536142e-18 -1 -0.56689121998765968
v 6.5052130349130266e-19 -1 0.20241511899230197
v -1.7347234759768071e-18 1 -0.27476016882560617
v -1.1555579666323415e-32 -0.9462058434368259 -1.25
v -1.7347234759768071e-18 1 -1.1151951491504226
v 0 1 -0.62101459999999997
v 1.8431436932253622e-18 -0.3590491471079334 -1.25
v 0 -1 0.60937580000000002
v 0 -1 -0.36402030000000002
v -1.7347234759768071e-18 1 1.0751333351572441
v 0 0.2109375 0.93341079999999998
v 0 0.2734375 0.95281950000000004
v 0 0.3984375 0.99456789999999995
v 0 0.4609375 1.0169068999999999
v 0 0.5859375 1.0645142999999999
v 1 -1 0.75
v 0 0.1328125 0.91046139999999998
v 0 0.2421875 0.94293179999999999
v 0 0.4296875 1.0055544000000001
v 0 0.3671875 0.98370349999999995
v 0 0.5234375 1.0402222999999999
v 0 0.5546875 1.0521853000000001
v 0 0.66015619999999997 1.094635
v 0 0.73046880000000003 1.1244198000000001
v 0 0.8046875 1.1571659000000001
v 0 0.8671875 1.1858521
v 0 0.9296875 1.2155149000000001
v 0 1 1.25
v 1 1 -1.25
v 0 0.0625 0.89111300000000004
v 0 0.1679688 0.92062409999999995
v 0 0.4921875 1.0283812999999999
v 0 0.6171875 1.0769652000000001
v 0 0.6953125 1.1093138
v 0 0.7734375 1.1432494
v 0 0.8359375 1.171448
v 0 0.8984375 1.2006224000000001
v 1 -1 -1.25
v 2.1684043449710089e-19 1 0.85995900010548265
v 1.0842021724854981e-18 1 1.1164050436327018
v -1.7347234759768071e-18 -0.490331468015407 -1.25
v -1.3010426069826053e-18 1 0.99600909823464845
v 4.3368086899420177e-19 -0.26221051966999953 0.81558726186854424
v 0 -1 0.57708619999999999
v 0 -1 -0.33169270000000001
v 0 -1 -0.63527622489277535
v -3.2526065174564912e-19 1 0.35110133495231027
v 4.3368086899420177e-19 -0.9031752615128118 -1.25
v -6.5052130349134946e-19 1 0.64347809352636198
v 1.7347234759768071e-18 1 0.68407468034982921
v -1.7347234759768113e-18 1 -0.90194368363853172
v 4.3368086899420177e-19 -1 -0.21492322313972248
v 0 0.16194810000000001 -1.25
v -4.3368086899420177e-19 -1 0.23938481056228594
v 1.7347234759768071e-18 1 -1.2162671649195522
v -3.4694469519536142e-18 1 0.89731578237107334
v 0 0.1015625 0.90179430000000005
v 0 1 -1.25
v 0 0.3359375 0.97320549999999995
v 0 0.9648679 1.2327083000000001
v -8.6736173798840355e-19 -0.51712409683095029 -1.25
v 4.3368086899420832e-19 -0.71156317471003261 0.76022650935393665
v -5.9631119486702426e-19 1 -0.96996459562127724
v 0 1 -1.0071138014647969
v -3.4694469519536142e-18 0.19785999212080599 -1.25
v 6.5052130349130266e-19 -0.82493066091924572 -1.25
v 1.8973538018499426e-19 -1 -0.42511509644358536
v -3.4694469519536142e-18 -1 -0.39084567235115109
v -1.7347234759768071e-18 -1 -0.93367361358737155
v -1.5817903374495907e-31 -0.61898915650746256 -1.25
v -3.4694469519536142e-18 -1 0.34280937130369782
v 4.3368086899420177e-19 -0.57953087912046064 -1.25
v 0 -1 0.30334917967190039
v -9.7578195523695399e-19 -1 0.68563393351042046
v -1.7347234759768071e-18 1 -0.38933337974136745
v -2.6020852139652106e-18 0.89521309130744897 -1.25
v 8.6736173798840355e-19 0.5764758307807607 -1.25
v 4.336808689942089e-19 0.42963427340054849 -1.25
v -1.3010426069826009e-18 1 -0.80763448576133223
v 2.1684043449711966e-19 -1 -0.86531813840613969
v -1.7347234759768071e-18 -1 0.16618789383192256
v -1.3010426069826053e-18 -1 0.27613283832730595
v -4.3368086899415627e-19 0.81423715397129937 -1.25
v 8.673617379883918e-19 1 -1.0748732338976601
v -1.7347234759768071e-18 -1 -1.1289845336895223
v -1.7347234759768071e-18 -1 -0.45953858838697537
v -8.1315162936432116e-20 -1 -0.4959223503895982
v 8.6736173798840855e-19 0.30017884899274316 -1.25
v 2.1684043449710089e-19 0.49527991416799139 -1.25
v -1.1362986671884692e-32 -1 -0.7388657053127059
v 1.3010426069826053e-18 1 -0.4640405395753765
v 2.710505431213763e-19 -1 0.059883441836878139
v 2.6020852139652106e-18 0.11765737111506706 -1.25
v -4.3368086899420081e-19 -0.23162229013330216 -1.25
v -1.7347234759768071e-18 1 -0.13168011970713561
v -3.7947076036992044e-19 1 0.75778864987307737
v 3.2526065174566038e-19 1 -1.1792594605468427
v -4.3368086899420177e-19 -1 0.12626228808718984
v 4.3368086899417491e-19 -0.55439252986044973 0.77424832672406319
v 1.0842021724855066e-18 -0.62728034241556063 0.76684531904058473
v -2.1684043449710089e-18 -1 0.75
v 0 -0.12648249641816797 0.84124454080987998
v 1.0842021724855177e-19 -0.16002243523991921 0.83576642658284284
v -4.3368086899420177e-19 -0.20689202539751028 0.82578640495953959
v 6.5052130349130902e-19 1 0.93144235579306067
v -1.7347234759768071e-18 0.9652460106886015 -1.25
v -1.3010426069826046e-18 -0.10119228374857425 0.84680422276837863
v 4.3368086899420264e-19 -0.055737032004577802 0.85728257536310948
v -3.0357660829594124e-18 -1 -1.25
v -3.2526065174565143e-19 -0.0093866183380626987 0.8692467085218345
v -8.6736173798840355e-19 1 0.96879301706778798
v -3.4694469519536142e-18 -0.23384124881185694 0.82042300292748649
v 0 -0.48316698762422461 0.78208897550548406
v 1.0842021724854404e-19 -0.81686850665053723 0.75420905015884787
v -1.0014835710813626e-32 -0.67935435581217174 0.7624994241010471
v -1.7347234759768071e-18 -0.96547053733034027 0.75027489032660688
v 1.0842021724855427e-19 -0.92806968863042116 0.75080829764953838
v 1.3010426069826053e-18 1 -0.85810529360410104
v -4.3368086899419407e-19 -1 -0.66406130647007122
v 1.0842021724855044e-18 -1 -0.82742056357308558
v -6.5052130349130266e-19 -1 0.019253435655021581
v 8.6736173798840355e-19 -1 0.47260333571234997
v 1.0842021724855044e-18 -1 0.64706847097906761
v 3.4694469519536142e-18 -1 0.54958703606341586
v 4.6078592330633033e-19 0.3342743315737019 -1.25
v 1.7347234759768202e-18 -1 -0.59556950607023484
v 6.5052130349130266e-19 0.024143364660898062 -1.25
v 5.4210108624275222e-20 1 -0.20836501857938963
v 8.6736173798840355e-19 1 0.42607673461278533
v 0 0.93615050809072176 -1.25
v 0 1 0.11063551726257409
v 0 1 -0.58780253362371959
v 2.1684043449710715e-19 1 -0.55202702496058675
v 0 -0.092418485120666041 -1.25
v -2.1684043449710089e-19 -1 -0.97156345622427476
v -2.1684043449710089e-18 -0.27258866222735356 -1.25
v -2.1684043449710093e-19 -1 -0.067236266596112135
v 0 1 -1.1425733729095959
v -4.3368086899420177e-19 -1 -1.160102277316462
v -1.7347234759768071e-18 0.26900888776300447 -1.25
v 1.7347234759768071e-18 0.45911079375928904 -1.25
v -4.3368086899420235e-19 -1 -0.11759100113034034
v 0 -1 -1.0101402611218488
v 6.5052130349130266e-19 -1 -0.25473485995634898
v 3.7947076036992655e-19 -1 -0.2938101326479543
v -1.7347234759768071e-18 -0.8581975094828298 -1.25
v 4.5259353693100043e-32 -1 -1.0964297557626885
v -8.6736173798840432e-19 1 0.071289104781818269
v -2.6020852139652106e-18 1 -0.024946970992857288
v 4.3368086899419407e-19 -1 -0.78466315796228869
v 4.336808689942062e-19 0.7314092991725103 -1.25
v 1.084202172485504e-18 -0.13915529479891489 -1.25
v 9.7578195523695399e-19 -0.31115238370668902 -1.25
v 1.7347234759768071e-18 -0.54623264327147691 -1.25
v 2.1684043449710724e-19 0.69305007941307073 -1.25
v 0 -0.78379671756657321 -1.25
v 1.3010426069826086e-18 1 0.60231567909864925
v 1.0028870095491128e-18 1 0.47305752529117706
v -4.3368086899420466e-19 1 -0.66454993724212663
v 8.6736173798841818e-19 1 1.0353113384468715
v -4.3368086899420177e-19 -1 -1.2056983887539809
v 0 -0.97231599838033089 -1.25
v -1.7347234759768025e-18 -0.30009339369674115 0.80900277140724997
v -1.3010426069826053e-18 -0.45268419157175044 0.78606992194052361
v -1.3552527156068276e-19 -0.58567947659944053 0.7712410656717773
v 0 -0.37577571587367098 0.79675554410602201
v -8.6736173798840133e-19 -0.41373403760771676 0.79186202504940151
v -8.6736173798840355e-19 -0.51246009650100233 0.77871711020038237
v 1.7347234759768071e-18 -0.78473031969629625 0.75569779855634145
v 2.1684043449710058e-18 -0.75788698869939997 0.7572269674494192
v 1.3010426069826053e-18 -0.89070967894582564 0.75160263646389736
v 3.4694469519536142e-18 -0.85717714750512808 0.75257540406918944
v -5.4210108624275222e-20 -0.65416787162857437 -1.25
v -4.3368086899420177e-19 0.61403020022731858 -1.25
v 1.0842021724855044e-19 1 -0.72809051018575377
v 8.6736173798841703e-19 1 -0.76688338416092439
v 1.3010426069826053e-18 -1 -0.032317680992821951
v 3.2526065174565119e-19 1 0.02503457270157261
v -2.6020852139651972e-18 1 0.71075813841975921
v -1.7347234759768071e-18 1 -0.099502854951933006
v 0 -1 0.09556275350727117
v 1.3010426069826053e-18 -1 -0.90228606410076306
v 1.5178830414797062e-18 -0.0433481087311062 -1.25
v 3.6592668943357481e-33 1 -0.17025606983325614
v 8.6736173798840104e-19 -1 0.38006602693516378
v 6.5052130349130266e-19 -0.18801289254541909 -1.25
v 1.7347234759768071e-18 1 0.54901284819759677
v 8.6736173798840355e-19 1 -0.36324756469230252
v -8.6736173798840663e-19 1 -0.31146134233644251
v 1.7347234759768071e-18 0.074962032377611162 -1.25
v -6.5052130349130401e-19 -0.44617003828138951 -1.25
v 0 0.22799329240717175 -1.25
v -6.5052130349135842e-19 0.53931549142148638 -1.25
v -2.6020852139652106e-18 0.37286814095467896 -1.25
v 4.3368086899419421e-19 0.85621150585603245 -1.25
v -1.7347234759768071e-18 1 -0.50536380566757499
v 0 1 0.30738774790731671
v 2.1684043449710073e-18 1 0.2812590234457647
v 3.2526065174565133e-19 -1 0.51346727510315393
v -8.6736173798840355e-19 -0.4080215879018847 -1.25
v -4.3368086899420668e-19 -1 0.41591188475640029
v -3.4694469519536142e-18 1 -0.6922142603493262
v -8.6736173798840355e-19 1 0.5162361427096025
v -3.0899761915837793e-18 -0.69555632189631766 -1.25
v 6.5052130349130025e-19 -0.74214948634389066 -1.25
v 1.7347234759768071e-18 -1 -0.70710061877293817
v 1.3010426069826144e-18 1 -1.0390363028299845
v 0 -1 -0.53665121599023213
v -1.4155585091246184e-32 1 1.1677633821325859
v 6.5052130349129785e-19 1 1.2058282963849885
v 1.7347234759768071e-18 0.65277936906148704 -1.25
v 9.2444637330586664e-33 0.77892737346330021 -1.25
v 1.7347234759768071e-18 1 -0.93440682667447772
v -8.6736173798840355e-19 0.39888236718438896 -1.25
v -1.7347234759768071e-18 1 0.1391800262964844
v -5.4210108624277822e-19 1 -0.42409051376827783
v 0 1 -0.070968969561737705
v -4.3368086899420177e-19 1 0.24459484643745888
v 0 1 0.20638497137984757
v -2.6020852139652106e-18 0.024897663799916564 0.87693587703008546
v -4.3368086899420177e-19 1 0.81990901328522736
v 1.7347234759768071e-18 1 0.79270833014858755
v 2.7105054312137722e-19 1 0.3885890347825478
v -4.336808689941986e-19 1 -0.2455048763483601
v 2.1684043449709951e-19 -0.34498146197058316 0.80167836868000264
v 1.0842021724855044e-18 -0.0096023720351040686 -1.25
v -1.5720931501039814e-18 -1 0.71781696675521023
v -2.71050543122167e-20 -0.63657851406801846 -1.25
v 0.97949219999999992 1 -1.25
v -2.1684043449711432e-19 -0.53342631318072598 0.77648271846222272
v 5.4210108624275884e-20 -0.14325246582904361 0.83850548369636146
v 1 -0.97265625 0.75
v -8.6736173798840355e-19 0.95069825938966157 -1.25
v 0.01953125 -1 0.75
v 0 0.3828125 0.98913569999999995
v 0 0.5703125 1.0583498
v 0.01953125 -1 -1.25
v 0 0.8828125 1.1932372500000001
v 0 0.9140625 1.20806865
v 8.6736173798840355e-19 1 -1.233133582459776
v -7.5894152073985378e-19 -0.42709581309163713 -1.25
v 1.6263032587283019e-19 1 -1.1609164167282193
v -4.3368086899419927e-19 0.28459386837787382 -1.25
v 1.0842021724855079e-18 0.44437253357991879 -1.25
v 2.1684043449709511e-19 -0.92469055247481879 -1.25
v -1.5178830414797062e-18 -0.98615799919016545 -1.25
v 1.4907779871674607e-19 -0.57003600322994519 0.7727446961979203
v 1.9515639104739064e-18 -0.77130865419784811 0.75646238300288027
v 9.2157184661267549e-19 -0.80079941317341674 0.7549534243575946
v -1.5720931501040273e-18 -0.67486209676244602 -1.25
v 1.8973538018496328e-19 -1 -0.31275141632397718
v -1.1926223897340556e-18 -0.46825075314839826 -1.25
v 5.1499603193061461e-19 -1 -0.27427249630215167
v -2.1684043449710007e-19 -1 -1.029351213058632
v 0 0.6015625 1.07073975
v -6.5052130349130228e-19 -0.11383739008337111 0.84402438178912931
v 1 1 0.734375
v 1 1 -1.2363281000000002
v -8.6736173798840355e-19 0.9826230053443008 -1.25
v 1 -1 0.73681639999999993
v 0.98535155000000008 -1 -1.25
v 0 0.9472777 1.2241116000000001
v 5.6920614055489137e-19 1 -0.95218571114787753
v -8.6736173798840355e-19 1 0.12490777177952925
v 0 0.3515625 0.9784545
v 1.0842021724855037e-18 1 0.29432338567654071
v 0.97949219999999992 1 0.7506408
v -8.6736173798840355e-19 0.24850109008508811 -1.25
v -8.6736173798840355e-19 1 0.1558247631482422
v 6.7762635780344335e-19 1 0.77524849001083251
v 6.5052130349130266e-19 1 0.80630867171690745
v 3.2526065174564892e-19 1 1.2279141481924942
v 0.0097655999999999993 1 1.24053955
v 0 0.98243395 1.24135415
v -2.9815559743351213e-19 1 -0.98853919854303707
v -1.7347234759768071e-18 0.179904046060403 -1.25
v -1.63985578588431e-18 -1 -0.40798038439736822
v 8.673617379884101e-19 -1 -0.61542286548150504
v -1.3010426069826065e-18 -1 0.3614376991194308
v -5.4210108624275222e-19 -0.84156408520103776 -1.25
v -1.7347234759768071e-18 -1 0.32307927548779913
v -1.1384122811097928e-18 1 -0.40671194675482264
v -8.6736173798838092e-19 -1 -1.1127071447261054
v -1.7347234759768071e-18 -1 -1.2278491943769905
v -1.0842021724855044e-18 1 0.98240105765121821
v -1.0842021724854727e-19 1 0.95011768643042438
v -1.5178830414797062e-18 -0.24802588424092825 0.81800513239801531
v 5.9631119486702744e-19 -1 0.49303530540775198
v -1.0842021724855044e-19 -1 -0.9908518586730618
v 4.3368086899420177e-19 -0.53167837005121354 -1.25
v 2.168404344970218e-19 -0.59926001781396154 -1.25
v 3.2526065174565133e-19 -0.80436368924290946 -1.25
v -2.1684043449709357e-19 1 1.0156602183407599
v -1.951563910473908e-18 -0.22036663710468363 0.82310470394351309
v -8.6736173798840355e-19 1 -1.1288842610300094
v -4.3368086899420765e-19 1 -1.0950341915240414
v -1.7347234759768071e-18 1 -0.11559148732953431
v -2.1684043449710089e-19 -1 0.1109125207972305
v 9.7578195523695399e-19 0.47719535396364021 -1.25
v -7.7249404789590641e-19 -1 -0.44232684241528036
v -5.7777898331617076e-33 -0.9592609209085784 -1.25
v -1.6263032587282456e-19 1 0.32924454142981352
v -4.3368086899420177e-19 1 -0.37629047221683498
v -1.7347234759768071e-18 0.21292664226398889 -1.25
v -1.0842021724855044e-18 -1 -1.1445434055029922
v 1.8973538018496328e-18 -1 0.53152715558328489
v -1.2197274440462395e-18 -0.71885290412010416 -1.25
v 6.5052130349130651e-19 -1 -0.6855809626215047
v 8.6736173798839787e-19 -1 -0.72298316204282198
v 1.0842021724855044e-18 -0.56288176119596878 -1.25
v -4.3368086899419446e-19 1 1.0552223368020579
v -1.951563910473908e-18 -0.98273526866517014 0.75013744516330338
v 1.0842021724855031e-18 1 -1.0569547683638223
v 1.3552527156068815e-19 -1 0.077723097672074651
v -1.463672932855431e-18 0.0077555227309269326 0.87309129277595998
v -1.3010426069826053e-18 0.043698831899958282 0.88402443851504275
v -8.6736173798840355e-19 1 -0.085235912256835356
v 2.1684043449710772e-19 0.75516833631790525 -1.25
v -2.1684043449707351e-19 0.79658226371729979 -1.25
v -1.8702487475374951e-18 -1 0.73390848337760506
v 2.6020852139652172e-18 -1 -0.58123036302894726
v 3.2526065174564184e-19 1 1.1867958392587872
v -1.2739375526704677e-18 -1 0.7017254501328154
v 0.0087890499999999996 1 -1.25
v 1 0.9892578125 0.75
v 0.990234375 -1 0.75
v 1 -1 -1.240234375
v 0 0.99121697499999994 1.2456770750000001
v 1 0.990234375 -1.25
v 1.0299920638612338e-18 1 -1.1977633127331975
v 1 -0.98925779999999996 -1.25
v 1.6263032587282446e-19 1 1.238957074096247
v -0.0703125 1 1.1823729000000001
v -0.8828125 1 0.75707959999999996
v -0.95898439999999996 1 0.75128159999999999
v -0.8203125 1 0.76635719999999996
v -0.0390625 1 1.2121580999999999
v -0.1640625 1 1.0998532999999999
v -0.41308590000000001 1 0.92269869999999998
v -0.66308590000000001 1 0.80722020000000005
v -0.7890625 1 0.77270499999999998
v -0.9140625 1 0.75415019999999999
v -0.2265625 1 1.0495604999999999
v -0.3203125 1 0.98120099999999999
v -0.6093537 1 0.82666835000000005
v -0.1015625 1 1.1540524000000001
v -0.1328125 1 1.1262201999999999
v -0.1953125 1 1.0739745000000001
v -0.3515625 1 0.96069300000000002
v -0.56152340000000001 1 0.84652700000000003
v -0.37890620000000003 1 0.94299270000000002
v -0.8515625 1 0.76147430000000005
v -0.47900389999999998 1 0.8861542
v -0.51953119999999997 1 0.86584470000000002
v -0.2890625 1 1.0031737000000001
v -0.45233109999999999 1 0.90054579999999995
v -0.2578125 1 1.0256348
v -0.7578125 1 0.77954100000000004
v -0.019531199999999999 1 1.2310791000000001
v -0.71484375 1 0.7911376
v -0.7734375 1 0.77612300000000001
v -0.36523435000000004 1 0.95184285000000002
v -0.8046875 1 0.76953110000000002
v -0.8671875 1 0.75927695000000006
v -0.0546875 1 1.1972654999999999
v -0.2421875 1 1.0375976499999999
v -0.736328125 1 0.78533929999999996
v -0.8984375 1 0.75561489999999998
v -0.39599605000000004 1 0.9328457
v -0.8359375 1 0.76391575
v -0.2734375 1 1.0144042500000001
v -0.97949219999999992 1 0.7506408
v -0.0097655999999999993 1 1.24053955
v -0.029296849999999999 1 1.2216186
v -1 1 -0.0117188
v -1 1 0.4765625
v -1 1 0.2070312
v -1 1 -0.1953125
v -1 1 -0.2421875
v -1 1 -0.88574219999999992
v -1 1 0.0234375
v -1 1 -0.2890625
v -1 1 0.71875
v -1 1 0.2421875
v -1 1 0.2734375
v -1 1 0.5078125
v -1 1 0.3359375
v -1 1 0.3671875
v -1 1 0.63671880000000003
v -1 1 -0.7265625
v -1 1 -0.1328125
v -1 1 -0.5390625
v -1 1 -0.3828125
v -1 1 0.6015625
v -1 1 -1.1328125
v -1 1 -1.0585937999999999
v -1 1 -1.1015625
v -1 1 -0.0546875
v -1 1 -0.7578125
v -1 1 -1.1953125
v -1 1 0.1601562
v -1 1 -0.1640625
v -1 1 -0.41796879999999997
v -1 1 -0.6328125
v -1 1 -0.6953125
v -1 1 -0.98046880000000003
v -1 1 -0.84765619999999997
v -1 1 -0.089843800000000001
v -1 1 -0.4609375
v -1 1 -0.50390619999999997
v -1 1 -1.0234375
v -1 1 0.68359380000000003
v -1 1 0.5390625
v -1 1 -0.3359375
v -1 1 -0.80078119999999997
v -1 1 0.0859375
v -1 1 0.3046875
v -1 1 -0.5703125
v -1 1 0.5703125
v -1 1 -0.6015625
v -1 1 0.1171875
v -1 1 -0.6640625
v -1 1 0.43359379999999997
v -1 1 -0.9453125
v -1 1 0.0546875
v -1 1 -0.91552734999999996
v -1 1 -1.2226562000000001
v -1 1 -1.1640625
v -1 1 0.3984375
v -1 1 0.0703125
v -1 1 -0.6796875
v -1 1 0.0390625
v -1 1 -0.7109375
v -1 1 0.61914065000000007
v -1 1 0.70117190000000007
v -1 1 0.3515625
v -1 1 0.3828125
v -1 1 0.2890625
v -1 1 0.1015625
v -1 1 0.3203125
v -1 1 -0.5859375
v -1 1 -0.96289065000000007
v -1 1 0.5546875
v -1 1 -0.6484375
v -1 1 0.0058593500000000001
v -1 1 0.5859375
v -1 1 0.5234375
v -1 1 0.734375
v -1 1 -1.2363281000000002
v -1 1 0.41601564999999996
v -1 1 -0.93041992500000004
v -1 1 -1.2089843500000002
v -1 1 -1.1484375
v -1 1 -0.6171875
v -1 1 -1.1796875
v -1 0.1054688 0.75
v -1 -0.6015625 0.75
v -1 -0.5546875 0.75
v -1 -0.0703125 0.75
v -1 0.39453120000000003 0.75
v -1 0.54296880000000003 0.75
v -1 0.7890625 0.75
v -1 0.4609375 0.75
v -1 -0.7578125 0.75
v -1 -0.43359379999999997 0.75
v -1 -0.3984375 0.75
v -1 -0.4765625 0.75
v -1 -0.3203125 0.75
v -1 -0.1757812 0.75
v -1 -0.2109375 0.75
v -1 0.0703125 0.75
v -1 0.1484375 0.75
v -1 0.3515625 0.75
v -1 0.27050780000000002 0.75
v -1 0.3203125 0.75
v -1 0.5859375 0.75
v -1 0.70703119999999997 0.75
v -1 0.8828125 0.75
v -1 0.9140625 0.75
v -1 0.8515625 0.75
v -1 -0.9453125 0.75
v -1 -0.66796880000000003 0.75
v -1 0.0390625 0.75
v -1 -0.6328125 0.75
v -1 -0.71484380000000003 0.75
v -1 -0.1328125 0.75
v -1 -0.8203125 0.75
v -1 -0.25390620000000003 0.75
v -1 -0.2890625 0.75
v -1 0.4296875 0.75
v -1 0.49609379999999997 0.75
v -1 -0.5078125 0.75
v -1 0.0078125 0.75
v -1 0.2265625 0.75
v -1 0.6171875 0.75
v -1 0.66015625 0.75
v -1 0.75390619999999997 0.75
v -1 0.95703125 0.75
v -1 -0.7890625 0.75
v -1 -0.35546879999999997 0.75
v -1 0.1796875 0.75
v -1 -0.1015625 0.75
v -1 -0.8515625 0.75
v -1 -0.9140625 0.75
v -1 0.8203125 0.75
v -1 -0.8828125 0.75
v -1 -0.035156199999999999 0.75
v -1 -0.97265625 0.75
v -1 -0.8359375 0.75
v -1 -0.7734375 0.75
v -1 0.56445315000000007 0.75
v -1 0.8671875 0.75
v -1 0.6015625 0.75
v -1 0.8046875 0.75
v -1 -0.8046875 0.75
v -1 -0.15429684999999999 0.75
v -1 -0.1171875 0.75
v -1 0.8359375 0.75
v -1 -0.8671875 0.75
v -1 -0.8984375 0.75
v -1 0.978515625 0.75
v -1 -0.013671849999999999 0.75
v -1 0.9892578125 0.75
v -0.38671879999999997 -1 0.75
v -0.8828125 -1 0.75
v -0.92578119999999997 -1 0.75
v -0.068847649999999996 -1 0.75
v -0.15820310000000001 -1 0.75
v -0.27734379999999997 -1 0.75
v -0.3203125 -1 0.75
v -0.4296875 -1 0.75
v -0.47265620000000003 -1 0.75
v -0.51953119999999997 -1 0.75
v -0.56640619999999997 -1 0.75
v -0.6640625 -1 0.75
v -0.69921880000000003 -1 0.75
v -0.7734375 -1 0.75
v -0.9609375 -1 0.75
v -0.0390625 -1 0.75
v -0.6328125 -1 0.75
v -0.3515625 -1 0.75
v -0.098632799999999993 -1 0.75
v -0.2421875 -1 0.75
v -0.83984380000000003 -1 0.75
v -0.8046875 -1 0.75
v -0.19775390000000001 -1 0.75
v -0.7421875 -1 0.75
v -0.6015625 -1 0.75
v -0.12841795 -1 0.75
v -0.053955074999999998 -1 0.75
v -0.82226565000000007 -1 0.75
v -0.01953125 -1 0.75
v -0.98046875 -1 0.75
v -0.94335934999999993 -1 0.75
v -0.86132815000000007 -1 0.75
v -0.113525375 -1 0.75
v -0.083740225000000001 -1 0.75
v -0.990234375 -1 0.75
v -0.3046875 -1 -1.25
v -0.6796875 -1 -1.25
v -0.5078125 -1 -1.25
v -0.60546880000000003 -1 -1.25
v -0.5703125 -1 -1.25
v -0.5390625 -1 -1.25
v -0.0703125 -1 -1.25
v -0.1132812 -1 -1.25
v -0.0390625 -1 -1.25
v -0.3828125 -1 -1.25
v -0.33984379999999997 -1 -1.25
v -0.8515625 -1 -1.25
v -0.7890625 -1 -1.25
v -0.74609380000000003 -1 -1.25
v -0.7109375 -1 -1.25
v -0.4140625 -1 -1.25
v -0.4609375 -1 -1.25
v -0.94140619999999997 -1 -1.25
v -0.8203125 -1 -1.25
v -0.89453119999999997 -1 -1.25
v -0.1601562 -1 -1.25
v -0.6484375 -1 -1.25
v -0.97070310000000004 -1 -1.25
v -0.2734375 -1 -1.25
v -0.1953125 -1 -1.25
v -0.2304688 -1 -1.25
v -0.01953125 -1 -1.25
v -0.21289065000000001 -1 -1.25
v -0.95605465000000001 -1 -1.25
v -0.98535155000000008 -1 -1.25
v -0.25195315000000001 -1 -1.25
v -1 -1 -0.73828119999999997
v -1 -1 -0.019531199999999999
v -1 -1 -0.1679688
v -1 -1 -0.4765625
v -1 -1 -0.7734375
v -1 -1 0.1171875
v -1 -1 0.4453125
v -1 -1 0.62109380000000003
v -1 -1 0.5390625
v -1 -1 -0.59765619999999997
v -1 -1 -0.4140625
v -1 -1 -0.4453125
v -1 -1 -0.9609375
v -1 -1 -0.2890625
v -1 -1 0.41015620000000003
v -1 -1 -0.8359375
v -1 -1 -0.2109375
v -1 -1 -0.1210938
v -1 -1 0.0546875
v -1 -1 0.3046875
v -1 -1 -1.1679687999999999
v -1 -1 -1.2109375
v -1 -1 0.0234375
v -1 -1 0.2109375
v -1 -1 0.4921875
v -1 -1 0.3359375
v -1 -1 0.3671875
v -1 -1 0.57421880000000003
v -1 -1 -0.6640625
v -1 -1 -0.6328125
v -1 -1 -0.3828125
v -1 -1 -0.8828125
v -1 -1 0.65625
v -1 -1 -0.3515625
v -1 -1 -0.25390620000000003
v -1 -1 -1.04296875
v -1 -1 0.2734375
v -1 -1 -0.6953125
v -1 -1 0.1484375
v -1 -1 -0.0859375
v -1 -1 -1.1328125
v -1 -1 0.69726560000000004
v -1 -1 -1.0976562000000001
v -1 -1 0.72363279999999996
v -1 -1 -0.5546875
v -1 -1 -0.3203125
v -1 -1 -0.0546875
v -1 -1 0.0859375
v -1 -1 -0.99609380000000003
v -1 -1 -0.9296875
v -1 -1 0.2421875
v -1 -1 -0.8046875
v -1 -1 -0.51953119999999997
v -1 -1 0.1796875
v -1 -1 0.1015625
v -1 -1 0.2265625
v -1 -1 -0.0703125
v -1 -1 0.0390625
v -1 -1 0.2578125
v -1 -1 0.2890625
v -1 -1 -0.53710934999999993
v -1 -1 0.1328125
v -1 -1 -0.10351565
v -1 -1 0.1640625
v -1 -1 -1.1894531499999998
v -1 -1 -0.4609375
v -1 -1 0.0019531500000000007
v -1 -1 -0.75585934999999993
v -1 -1 -0.037109349999999999
v -1 -1 -0.49804684999999999
v -1 -1 0.67675780000000008
v -1 -1 0.7104492
v -1 -1 0.0703125
v -1 -1 0.73681639999999993
v -1 -1 -0.7890625
v -1 -1 -1.23046875
v -1 -1 0.1953125
v -1 -1 -0.90625
v -1 -1 -1.240234375
v -1 -1 -1.220703125
v -0.1953125 1 -1.25
v -0.1132812 1 -1.25
v -0.76171880000000003 1 -1.25
v -0.36328120000000003 1 -1.25
v -0.4765625 1 -1.25
v -0.2265625 1 -1.25
v -0.035156199999999999 1 -1.25
v -0.91015619999999997 1 -1.25
v -0.3984375 1 -1.25
v -0.51953119999999997 1 -1.25
v -0.8046875 1 -1.25
v -0.8671875 1 -1.25
v -0.8359375 1 -1.25
v -0.0703125 1 -1.25
v -0.44140620000000003 1 -1.25
v -0.6484375 1 -1.25
v -0.55761720000000004 1 -1.25
v -0.2578125 1 -1.25
v -0.1601562 1 -1.25
v -0.3203125 1 -1.25
v -0.95898439999999996 1 -1.25
v -0.60229489999999997 1 -1.25
v -0.71484380000000003 1 -1.25
v -0.6796875 1 -1.25
v -0.2890625 1 -1.25
v -0.97949219999999992 1 -1.25
v -0.017578099999999999 1 -1.25
v -0.052734349999999999 1 -1.25
v -0.38085935000000004 1 -1.25
v -0.34179685000000004 1 -1.25
v -0.57995605000000006 1 -1.25
v -0.73828130000000003 1 -1.25
v -0.3046875 1 -1.25
v -0.2734375 1 -1.25
v -0.6640625 1 -1.25
v -0.62536619999999998 1 -1.25
v -0.69726565000000007 1 -1.25
v -0.0087890499999999996 1 -1.25
v -1 -0.2148438 -1.25
v -1 0.027343800000000001 -1.25
v -1 0.9296875 -1.25
v -1 0.10546875 -1.25
v -1 -0.3984375 -1.25
v -1 -0.73828119999999997 -1.25
v -1 0.9609375 -1.25
v -1 -0.3671875 -1.25
v -1 -0.43359379999999997 -1.25
v -1 -0.074218800000000001 -1.25
v -1 -0.0390625 -1.25
v -1 -0.66015625 -1.25
v -1 -0.5078125 -1.25
v -1 0.2148438 -1.25
v -1 0.1484375 -1.25
v -1 0.0703125 -1.25
v -1 0.72265619999999997 -1.25
v -1 0.4140625 -1.25
v -1 -0.89676210000000001 -1.25
v -1 0.3515625 -1.25
v -1 0.3828125 -1.25
v -1 0.2890625 -1.25
v -1 -0.33203120000000003 -1.25
v -1 0.53515619999999997 -1.25
v -1 -0.6953125 -1.25
v -1 -0.1796875 -1.25
v -1 0.7890625 -1.25
v -1 -0.8046875 -1.25
v -1 -0.7734375 -1.25
v -1 0.1796875 -1.25
v -1 -0.5703125 -1.25
v -1 0.45703120000000003 -1.25
v -1 -0.8515625 -1.25
v -1 0.4921875 -1.25
v -1 0.7578125 -1.25
v -1 0.57324220000000004 -1.25
v -1 -0.4765625 -1.25
v -1 0.3203125 -1.25
v -1 0.2578125 -1.25
v -1 -0.1171875 -1.25
v -1 -0.2890625 -1.25
v -1 0.62402345000000004 -1.25
v -1 0.6796875 -1.25
v -1 -0.0078125 -1.25
v -1 -0.95703119999999997 -1.25
v -1 -0.1484375 -1.25
v -1 0.89453119999999997 -1.25
v -1 -0.60546880000000003 -1.25
v -1 0.8515625 -1.25
v -1 -0.92689670000000002 -1.25
v -1 0.8203125 -1.25
v -1 -0.5390625 -1.25
v -1 -0.2578125 -1.25
v -1 0.9453125 -1.25
v -1 -0.1640625 -1.25
v -1 -0.19726565000000001 -1.25
v -1 0.8046875 -1.25
v -1 0.91210934999999993 -1.25
v -1 0.74023434999999993 -1.25
v -1 0.087890625 -1.25
v -1 -0.2734375 -1.25
v -1 -0.34960935000000004 -1.25
v -1 -0.4921875 -1.25
v -1 -0.3828125 -1.25
v -1 0.70117184999999993 -1.25
v -1 -0.0234375 -1.25
v -1 -0.31054685000000004 -1.25
v -1 0.048828150000000001 -1.25
v -1 0.0097656500000000007 -1.25
v -1 -0.5546875 -1.25
v -1 -0.5234375 -1.25
v -1 0.98046875 -1.25
v -1 0.87304684999999993 -1.25
v -1 -0.23632815000000001 -1.25
v -1 0.8359375 -1.25
v -1 -0.94196394999999999 -1.25
v -1 -0.91182940000000001 -1.25
v -1 -0.97851559999999993 -1.25
v -1 0.990234375 -1.25
v -1 -0.98925779999999996 -1.25
v 0 1 1.25
v 0 1 -1.25
v -2.1684043449710089e-18 -1 0.75
v -3.0357660829594124e-18 -1 -1.25
v -1 1 0.75
v -1 -1 0.75
v -1 1 -1.25
v -1 -1 -1.25
v -0.97949219999999992 1 -1.25
v -1 -0.97265625 0.75
v -0.01953125 -1 0.75
v -0.01953125 -1 -1.25
v -1 1 0.734375
v -1 1 -1.2363281000000002
v -1 -1 0.73681639999999993
v -0.98535155000000008 -1 -1.25
v -0.97949219999999992 1 0.7506408
v -0.0097655999999999993 1 1.24053955
v -0.0087890499999999996 1 -1.25
v -1 0.9892578125 0.75
v -0.990234375 -1 0.75
v -1 -1 -1.240234375
v -1 0.990234375 -1.25
v -1 -0.98925779999999996 -1.25
l 40/40 3/3
l 3/3 10/10
l 10/10 36/36
l 36/36 2/2
l 2/2 32/32
l 32/32 20/20
l 20/20 38/38
l 38/38 4/4
l 4/4 31/31
l 31/31 9/9
l 9/9 29/29
l 29/29 26/26
l 26/26 35/35
l 35/35 28/28
l 28/28 8/8
l 8/8 13/13
l 13/13 18/18
l 18/18 22/22
l 22/22 21/21
l 21/21 24/24
l 24/24 7/7
l 7/7 37/37
l 37/37 19/19
l 19/19 30/30
l 30/30 17/17
l 17/17 12/12
l 12/12 23/23
l 23/23 39/39
l 39/39 25/25
l 25/25 34/34
l 34/34 11/11
l 11/11 16/16
l 16/16 6/6
l 6/6 15/15
l 15/15 14/14
l 14/14 1/1
l 1/1 33/33
l 33/33 5/5
l 5/5 42/42
l 42/42 27/27
l 27/27 41/41
l 116/116 51/51
l 51/51 103/103
l 103/103 80/80
l 80/80 57/57
l 57/57 102/102
l 102/102 62/62
l 62/62 114/114
l 114/114 87/87
l 87/87 111/111
l 111/111 81/81
l 81/81 115/115
l 115/115 54/54
l 54/54 44/44
l 44/44 91/91
l 91/91 118/118
l 118/118 97/97
l 97/97 105/105
l 105/105 56/56
l 56/56 104/104
l 104/104 55/55
l 55/55 108/108
l 108/108 85/85
l 85/85 106/106
l 106/106 53/53
l 53/53 52/52
l 52/52 45/45
l 45/45 69/69
l 69/69 89/89
l 89/89 107/107
l 107/107 84/84
l 84/84 98/98
l 98/98 93/93
l 93/93 100/100
l 100/100 49/49
l 49/49 113/113
l 113/113 43/43
l 43/43 66/66
l 66/66 76/76
l 76/76 59/59
l 59/59 70/70
l 70/70 46/46
l 46/46 47/47
l 47/47 50/50
l 50/50 82/82
l 82/82 61/61
l 61/61 71/71
l 71/71 77/77
l 77/77 78/78
l 78/78 60/60
l 60/60 86/86
l 86/86 109/109
l 109/109 88/88
l 88/88 122/122
l 122/122 72/72
l 72/72 112/112
l 112/112 90/90
l 90/90 99/99
l 99/99 73/73
l 73/73 101/101
l 101/101 58/58
l 58/58 67/67
l 67/67 83/83
l 83/83 75/75
l 75/75 48/48
l 48/48 94/94
l 94/94 119/119
l 119/119 92/92
l 92/92 110/110
l 110/110 74/74
l 74/74 79/79
l 79/79 64/64
l 64/64 65/65
l 65/65 63/63
l 63/63 121/121
l 121/121 96/96
l 96/96 123/123
l 123/123 68/68
l 68/68 120/120
l 120/120 95/95
l 95/95 117/117
l 176/176 149/149
l 149/149 172/172
l 172/172 188/188
l 188/188 174/174
l 174/174 187/187
l 187/187 171/171
l 171/171 177/177
l 177/177 155/155
l 155/155 183/183
l 183/183 167/167
l 167/167 178/178
l 178/178 132/132
l 132/132 153/153
l 153/153 150/150
l 150/150 152/152
l 152/152 125/125
l 125/125 126/126
l 126/126 160/160
l 160/160 135/135
l 135/135 133/133
l 133/133 134/134
l 134/134 168/168
l 168/168 136/136
l 136/136 157/157
l 157/157 156/156
l 156/156 138/138
l 138/138 137/137
l 137/137 184/184
l 184/184 154/154
l 154/154 185/185
l 185/185 170/170
l 170/170 127/127
l 127/127 175/175
l 175/175 190/190
l 190/190 161/161
l 161/161 151/151
l 151/151 139/139
l 139/139 124/124
l 124/124 140/140
l 140/140 169/169
l 169/169 162/162
l 162/162 142/142
l 142/142 143/143
l 143/143 141/141
l 141/141 128/128
l 128/128 158/158
l 158/158 131/131
l 131/131 159/159
l 159/159 129/129
l 129/129 179/179
l 179/179 144/144
l 144/144 181/181
l 181/181 163/163
l 163/163 164/164
l 164/164 145/145
l 145/145 165/165
l 165/165 130/130
l 130/130 182/182
l 182/182 173/173
l 173/173 186/186
l 186/186 148/148
l 148/148 180/180
l 180/180 146/146
l 146/146 147/147
l 147/147 166/166
l 166/166 189/189
l 189/189 191/191
l 220/220 207/207
l 207/207 218/218
l 218/218 195/195
l 195/195 225/225
l 225/225 210/210
l 210/210 224/224
l 224/224 217/217
l 217/217 196/196
l 196/196 214/214
l 214/214 211/211
l 211/211 197/197
l 197/197 198/198
l 198/198 209/209
l 209/209 192/192
l 192/192 199/199
l 199/199 200/200
l 200/200 201/201
l 201/201 202/202
l 202/202 216/216
l 216/216 208/208
l 208/208 203/203
l 203/203 204/204
l 204/204 215/215
l 215/215 205/205
l 205/205 213/213
l 213/213 219/219
l 219/219 212/212
l 212/212 223/223
l 223/223 193/193
l 193/193 194/194
l 194/194 222/222
l 222/222 206/206
l 206/206 221/221
l 221/221 226/226
l 253/253 235/235
l 235/235 233/233
l 233/233 234/234
l 234/234 247/247
l 247/247 251/251
l 251/251 254/254
l 254/254 252/252
l 252/252 257/257
l 257/257 250/250
l 250/250 227/227
l 227/227 237/237
l 237/237 236/236
l 236/236 242/242
l 242/242 243/243
l 243/243 229/229
l 229/229 232/232
l 232/232 231/231
l 231/231 230/230
l 230/230 248/248
l 248/248 228/228
l 228/228 241/241
l 241/241 240/240
l 240/240 239/239
l 239/239 245/245
l 245/245 238/238
l 238/238 246/246
l 246/246 244/244
l 244/244 255/255
l 255/255 249/249
l 249/249 256/256
l 331/331 301/301
l 301/301 329/329
l 329/329 299/299
l 299/299 328/328
l 328/328 290/290
l 290/290 265/265
l 265/265 285/285
l 285/285 266/266
l 266/266 282/282
l 282/282 264/264
l 264/264 272/272
l 272/272 284/284
l 284/284 283/283
l 283/283 277/277
l 277/277 317/317
l 317/317 294/294
l 294/294 316/316
l 316/316 308/308
l 308/308 313/313
l 313/313 281/281
l 281/281 334/334
l 334/334 311/311
l 311/311 321/321
l 321/321 296/296
l 296/296 319/319
l 319/319 263/263
l 263/263 312/312
l 312/312 305/305
l 305/305 330/330
l 330/330 276/276
l 276/276 315/315
l 315/315 280/280
l 280/280 324/324
l 324/324 259/259
l 259/259 326/326
l 326/326 304/304
l 304/304 314/314
l 314/314 297/297
l 297/297 320/320
l 320/320 275/275
l 275/275 260/260
l 260/260 274/274
l 274/274 292/292
l 292/292 271/271
l 271/271 303/303
l 303/303 291/291
l 291/291 288/288
l 288/288 268/268
l 268/268 269/269
l 269/269 323/323
l 323/323 261/261
l 261/261 327/327
l 327/327 310/310
l 310/310 318/318
l 318/318 302/302
l 302/302 267/267
l 267/267 287/287
l 287/287 286/286
l 286/286 295/295
l 295/295 258/258
l 258/258 325/325
l 325/325 262/262
l 262/262 332/332
l 332/332 309/309
l 309/309 273/273
l 273/273 289/289
l 289/289 335/335
l 335/335 307/307
l 307/307 270/270
l 270/270 306/306
l 306/306 293/293
l 293/293 300/300
l 300/300 298/298
l 298/298 278/278
l 278/278 322/322
l 322/322 279/279
l 279/279 337/337
l 337/337 333/333
l 333/333 336/336
l 363/363 358/358
l 358/358 345/345
l 345/345 349/349
l 349/349 350/350
l 350/350 348/348
l 348/348 340/340
l 340/340 369/369
l 369/369 360/360
l 360/360 374/374
l 374/374 361/361
l 361/361 372/372
l 372/372 353/353
l 353/353 373/373
l 373/373 359/359
l 359/359 368/368
l 368/368 354/354
l 354/354 347/347
l 347/347 342/342
l 342/342 352/352
l 352/352 346/346
l 346/346 366/366
l 366/366 341/341
l 341/341 367/367
l 367/367 357/357
l 357/357 370/370
l 370/370 362/362
l 362/362 371/371
l 371/371 355/355
l 355/355 343/343
l 343/343 338/338
l 338/338 356/356
l 356/356 339/339
l 339/339 351/351
l 351/351 365/365
l 365/365 344/344
l 344/344 364/364
l 364/364 375/375
l 454/454 447/447
l 447/447 382/382
l 382/382 429/429
l 429/429 378/378
l 378/378 433/433
l 433/433 422/422
l 422/422 448/448
l 448/448 424/424
l 424/424 450/450
l 450/450 426/426
l 426/426 432/432
l 432/432 402/402
l 402/402 410/410
l 410/410 434/434
l 434/434 392/392
l 392/392 440/440
l 440/440 418/418
l 418/418 417/417
l 417/417 411/411
l 411/411 399/399
l 399/399 409/409
l 409/409 407/407
l 407/407 393/393
l 393/393 396/396
l 396/396 395/395
l 395/395 413/413
l 413/413 397/397
l 397/397 414/414
l 414/414 389/389
l 389/389 405/405
l 405/405 390/390
l 390/390 379/379
l 379/379 435/435
l 435/435 391/391
l 391/391 443/443
l 443/443 377/377
l 377/377 444/444
l 444/444 419/419
l 419/419 441/441
l 441/441 386/386
l 386/386 385/385
l 385/385 415/415
l 415/415 421/421
l 421/421 430/430
l 430/430 401/401
l 401/401 431/431
l 431/431 376/376
l 376/376 449/449
l 449/449 428/428
l 428/428 436/436
l 436/436 416/416
l 416/416 442/442
l 442/442 398/398
l 398/398 437/437
l 437/437 383/383
l 383/383 439/439
l 439/439 380/380
l 380/380 384/384
l 384/384 412/412
l 412/412 438/438
l 438/438 388/388
l 388/388 446/446
l 446/446 427/427
l 427/427 445/445
l 445/445 406/406
l 406/406 423/423
l 423/423 387/387
l 387/387 400/400
l 400/400 381/381
l 381/381 404/404
l 404/404 403/403
l 403/403 408/408
l 408/408 394/394
l 394/394 452/452
l 452/452 425/425
l 425/425 451/451
l 451/451 420/420
l 420/420 453/453
l 453/453 455/455
l 456/456 473/473
l 456/456 520/520
l 457/457 718/718
l 457/457 786/786
l 458/458 513/513
l 458/458 603/603
l 459/459 680/680
l 459/459 730/730
l 460/460 608/608
l 460/460 715/715
l 461/461 583/583
l 461/461 662/662
l 462/462 669/669
l 462/462 782/782
l 463/463 515/515
l 463/463 542/542
l 464/464 650/650
l 464/464 685/685
l 465/465 706/706
l 465/465 762/762
l 466/466 756/756
l 466/466 757/757
l 467/467 593/593
l 467/467 620/620
l 468/468 614/614
l 468/468 661/661
l 469/469 505/505
l 469/469 584/584
l 470/470 506/506
l 470/470 529/529
l 471/471 501/501
l 471/471 772/772
l 472/472 479/479
l 472/472 492/492
l 473/473 479/479
l 474/474 480/480
l 474/474 696/696
l 475/475 480/480
l 475/475 493/493
l 476/476 697/697
l 476/476 716/716
l 477/477 693/693
l 477/477 787/787
l 478/478 492/492
l 478/478 518/518
l 481/481 696/696
l 481/481 726/726
l 482/482 483/483
l 482/482 493/493
l 483/483 697/697
l 484/484 494/494
l 484/484 495/495
l 485/485 495/495
l 485/485 496/496
l 486/486 496/496
l 486/486 497/497
l 487/487 497/497
l 487/487 699/699
l 488/488 700/700
l 488/488 723/723
l 489/489 734/734
l 489/489 793/793
l 490/490 719/719
l 490/490 790/790
l 491/491 518/518
l 491/491 777/777
l 494/494 716/716
l 498/498 699/699
l 498/498 700/700
l 499/499 722/722
l 499/499 788/788
l 500/500 517/517
l 500/500 682/682
l 501/501 670/670
l 502/502 522/522
l 502/502 713/713
l 503/503 746/746
l 503/503 754/754
l 504/504 624/624
l 504/504 748/748
l 505/505 585/585
l 506/506 712/712
l 507/507 580/580
l 507/507 739/739
l 508/508 684/684
l 508/508 763/763
l 509/509 607/607
l 509/509 706/706
l 510/510 511/511
l 510/510 618/618
l 511/511 640/640
l 512/512 579/579
l 512/512 674/674
l 513/513 605/605
l 514/514 554/554
l 514/514 737/737
l 515/515 543/543
l 516/516 701/701
l 516/516 791/791
l 517/517 566/566
l 519/519 720/720
l 519/519 785/785
l 520/520 726/726
l 521/521 723/723
l 521/521 735/735
l 522/522 751/751
l 523/523 576/576
l 523/523 631/631
l 524/524 724/724
l 524/524 736/736
l 525/525 668/668
l 525/525 736/736
l 526/526 737/737
l 526/526 765/765
l 527/527 741/741
l 527/527 753/753
l 528/528 738/738
l 528/528 761/761
l 529/529 738/738
l 530/530 596/596
l 530/530 643/643
l 531/531 689/689
l 531/531 752/752
l 532/532 740/740
l 532/532 742/742
l 533/533 752/752
l 533/533 771/771
l 534/534 543/543
l 534/534 742/742
l 535/535 584/584
l 535/535 784/784
l 536/536 743/743
l 536/536 764/764
l 537/537 591/591
l 537/537 656/656
l 538/538 635/635
l 538/538 654/654
l 539/539 675/675
l 539/539 705/705
l 540/540 579/579
l 540/540 637/637
l 541/541 581/581
l 541/541 643/643
l 542/542 559/559
l 544/544 656/656
l 544/544 780/780
l 545/545 757/757
l 545/545 774/774
l 546/546 744/744
l 546/546 766/766
l 547/547 548/548
l 547/547 761/761
l 548/548 669/669
l 549/549 586/586
l 549/549 704/704
l 550/550 654/654
l 550/550 760/760
l 551/551 611/611
l 551/551 770/770
l 552/552 657/657
l 552/552 677/677
l 553/553 582/582
l 553/553 775/775
l 554/554 651/651
l 555/555 597/597
l 555/555 647/647
l 556/556 645/645
l 556/556 758/758
l 557/557 640/640
l 557/557 731/731
l 558/558 703/703
l 558/558 791/791
l 559/559 759/759
l 560/560 691/691
l 560/560 708/708
l 561/561 576/576
l 561/561 626/626
l 562/562 695/695
l 562/562 773/773
l 563/563 692/692
l 563/563 717/717
l 564/564 565/565
l 564/564 692/692
l 565/565 755/755
l 566/566 747/747
l 567/567 694/694
l 567/567 720/720
l 568/568 569/569
l 568/568 717/717
l 569/569 571/571
l 570/570 698/698
l 570/570 745/745
l 571/571 776/776
l 572/572 746/746
l 572/572 747/747
l 573/573 748/748
l 573/573 755/755
l 574/574 625/625
l 574/574 629/629
l 575/575 633/633
l 575/575 710/710
l 577/577 578/578
l 577/577 773/773
l 578/578 632/632
l 580/580 769/769
l 581/581 611/611
l 582/582 638/638
l 583/583 749/749
l 585/585 767/767
l 586/586 655/655
l 587/587 739/739
l 587/587 782/782
l 588/588 651/651
l 588/588 687/687
l 589/589 645/645
l 589/589 685/685
l 590/590 619/619
l 590/590 684/684
l 591/591 694/694
l 592/592 609/609
l 592/592 725/725
l 593/593 594/594
l 594/594 657/657
l 595/595 613/613
l 595/595 644/644
l 596/596 750/750
l 597/597 614/614
l 598/598 603/603
l 598/598 638/638
l 599/599 703/703
l 599/599 756/756
l 600/600 622/622
l 600/600 766/766
l 601/601 704/704
l 601/601 729/729
l 602/602 705/705
l 602/602 760/760
l 604/604 715/715
l 604/604 750/750
l 605/605 714/714
l 606/606 712/712
l 606/606 714/714
l 607/607 741/741
l 608/608 744/744
l 609/609 639/639
l 610/610 639/639
l 610/610 678/678
l 612/612 616/616
l 612/612 779/779
l 613/613 647/647
l 615/615 751/751
l 615/615 771/771
l 616/616 672/672
l 617/617 666/666
l 617/617 753/753
l 618/618 648/648
l 619/619 664/664
l 620/620 663/663
l 621/621 754/754
l 621/621 772/772
l 622/622 745/745
l 623/623 707/707
l 623/623 762/762
l 624/624 686/686
l 625/625 628/628
l 626/626 708/708
l 627/627 628/628
l 627/627 686/686
l 629/629 691/691
l 630/630 709/709
l 630/630 710/710
l 631/631 709/709
l 632/632 633/633
l 634/634 689/689
l 634/634 711/711
l 635/635 672/672
l 636/636 637/637
l 636/636 663/663
l 641/641 758/758
l 641/641 778/778
l 642/642 759/759
l 642/642 775/775
l 644/644 687/687
l 646/646 662/662
l 646/646 740/740
l 648/648 664/664
l 649/649 650/650
l 649/649 764/764
l 652/652 702/702
l 652/652 713/713
l 653/653 729/729
l 653/653 765/765
l 655/655 675/675
l 658/658 727/727
l 658/658 763/763
l 659/659 679/679
l 659/659 727/727
l 660/660 749/749
l 660/660 767/767
l 661/661 702/702
l 665/665 711/711
l 665/665 768/768
l 666/666 768/768
l 667/667 769/769
l 667/667 770/770
l 668/668 774/774
l 670/670 783/783
l 671/671 733/733
l 671/671 783/783
l 673/673 779/779
l 673/673 780/780
l 674/674 724/724
l 676/676 725/725
l 676/676 730/730
l 677/677 743/743
l 678/678 778/778
l 679/679 680/680
l 681/681 776/776
l 681/681 777/777
l 682/682 732/732
l 683/683 731/731
l 683/683 732/732
l 688/688 781/781
l 688/688 784/784
l 690/690 490/490
l 690/690 490/490
l 693/693 477/477
l 695/695 562/562
l 698/698 570/570
l 701/701 519/519
l 707/707 570/570
l 718/718 457/457
l 719/719 490/490
l 721/721 477/477
l 721/721 477/477
l 722/722 499/499
l 728/728 457/457
l 728/728 457/457
l 733/733 793/793
l 734/734 489/489
l 735/735 789/789
l 781/781 562/562
l 785/785 519/519
l 786/786 457/457
l 787/787 477/477
l 788/788 499/499
l 789/789 489/489
l 790/790 490/490
l 792/792 499/499
l 792/792 499/499
l 833/833 796/796
l 796/796 803/803
l 803/803 829/829
l 829/829 795/795
l 795/795 825/825
l 825/825 813/813
l 813/813 831/831
l 831/831 797/797
l 797/797 824/824
l 824/824 802/802
l 802/802 822/822
l 822/822 819/819
l 819/819 828/828
l 828/828 821/821
l 821/821 801/801
l 801/801 806/806
l 806/806 811/811
l 811/811 815/815
l 815/815 814/814
l 814/814 817/817
l 817/817 800/800
l 800/800 830/830
l 830/830 812/812
l 812/812 823/823
l 823/823 810/810
l 810/810 805/805
l 805/805 816/816
l 816/816 832/832
l 832/832 818/818
l 818/818 827/827
l 827/827 804/804
l 804/804 809/809
l 809/809 799/799
l 799/799 808/808
l 808/808 807/807
l 807/807 794/794
l 794/794 826/826
l 826/826 798/798
l 798/798 835/835
l 835/835 820/820
l 820/820 834/834
l 909/909 844/844
l 844/844 896/896
l 896/896 873/873
l 873/873 850/850
l 850/850 895/895
l 895/895 855/855
l 855/855 907/907
l 907/907 880/880
l 880/880 904/904
l 904/904 874/874
l 874/874 908/908
l 908/908 847/847
l 847/847 837/837
l 837/837 884/884
l 884/884 911/911
l 911/911 890/890
l 890/890 898/898
l 898/898 849/849
l 849/849 897/897
l 897/897 848/848
l 848/848 901/901
l 901/901 878/878
l 878/878 899/899
l 899/899 846/846
l 846/846 845/845
l 845/845 838/838
l 838/838 862/862
l 862/862 882/882
l 882/882 900/900
l 900/900 877/877
l 877/877 891/891
l 891/891 886/886
l 886/886 893/893
l 893/893 842/842
l 842/842 906/906
l 906/906 836/836
l 836/836 859/859
l 859/859 869/869
l 869/869 852/852
l 852/852 863/863
l 863/863 839/839
l 839/839 840/840
l 840/840 843/843
l 843/843 875/875
l 875/875 854/854
l 854/854 864/864
l 864/864 870/870
l 870/870 871/871
l 871/871 853/853
l 853/853 879/879
l 879/879 902/902
l 902/902 881/881
l 881/881 915/915
l 915/915 865/865
l 865/865 905/905
l 905/905 883/883
l 883/883 892/892
l 892/892 866/866
l 866/866 894/894
l 894/894 851/851
l 851/851 860/860
l 860/860 876/876
l 876/876 868/868
l 868/868 841/841
l 841/841 887/887
l 887/887 912/912
l 912/912 885/885
l 885/885 903/903
l 903/903 867/867
l 867/867 872/872
l 872/872 857/857
l 857/857 858/858
l 858/858 856/856
l 856/856 914/914
l 914/914 889/889
l 889/889 916/916
l 916/916 861/861
l 861/861 913/913
l 913/913 888/888
l 888/888 910/910
l 969/969 942/942
l 942/942 965/965
l 965/965 981/981
l 981/981 967/967
l 967/967 980/980
l 980/980 964/964
l 964/964 970/970
l 970/970 948/948
l 948/948 976/976
l 976/976 960/960
l 960/960 971/971
l 971/971 925/925
l 925/925 946/946
l 946/946 943/943
l 943/943 945/945
l 945/945 918/918
l 918/918 919/919
l 919/919 953/953
l 953/953 928/928
l 928/928 926/926
l 926/926 927/927
l 927/927 961/961
l 961/961 929/929
l 929/929 950/950
l 950/950 949/949
l 949/949 931/931
l 931/931 930/930
l 930/930 977/977
l 977/977 947/947
l 947/947 978/978
l 978/978 963/963
l 963/963 920/920
l 920/920 968/968
l 968/968 983/983
l 983/983 954/954
l 954/954 944/944
l 944/944 932/932
l 932/932 917/917
l 917/917 933/933
l 933/933 962/962
l 962/962 955/955
l 955/955 935/935
l 935/935 936/936
l 936/936 934/934
l 934/934 921/921
l 921/921 951/951
l 951/951 924/924
l 924/924 952/952
l 952/952 922/922
l 922/922 972/972
l 972/972 937/937
l 937/937 974/974
l 974/974 956/956
l 956/956 957/957
l 957/957 938/938
l 938/938 958/958
l 958/958 923/923
l 923/923 975/975
l 975/975 966/966
l 966/966 979/979
l 979/979 941/941
l 941/941 973/973
l 973/973 939/939
l 939/939 940/940
l 940/940 959/959
l 959/959 982/982
l 982/982 984/984
l 1013/1013 1000/1000
l 1000/1000 1011/1011
l 1011/1011 988/988
l 988/988 1018/1018
l 1018/1018 1003/1003
l 1003/1003 1017/1017
l 1017/1017 1010/1010
l 1010/1010 989/989
l 989/989 1007/1007
l 1007/1007 1004/1004
l 1004/1004 990/990
l 990/990 991/991
l 991/991 1002/1002
l 1002/1002 985/985
l 985/985 992/992
l 992/992 993/993
l 993/993 994/994
l 994/994 995/995
l 995/995 1009/1009
l 1009/1009 1001/1001
l 1001/1001 996/996
l 996/996 997/997
l 997/997 1008/1008
l 1008/1008 998/998
l 998/998 1006/1006
l 1006/1006 1012/1012
l 1012/1012 1005/1005
l 1005/1005 1016/1016
l 1016/1016 986/986
l 986/986 987/987
l 987/987 1015/1015
l 1015/1015 999/999
l 999/999 1014/1014
l 1014/1014 1019/1019
l 1046/1046 1028/1028
l 1028/1028 1026/1026
l 1026/1026 1027/1027
l 1027/1027 1040/1040
l 1040/1040 1044/1044
l 1044/1044 1047/1047
l 1047/1047 1045/1045
l 1045/1045 1050/1050
l 1050/1050 1043/1043
l 1043/1043 1020/1020
l 1020/1020 1030/1030
l 1030/1030 1029/1029
l 1029/1029 1035/1035
l 1035/1035 1036/1036
l 1036/1036 1022/1022
l 1022/1022 1025/1025
l 1025/1025 1024/1024
l 1024/1024 1023/1023
l 1023/1023 1041/1041
l 1041/1041 1021/1021
l 1021/1021 1034/1034
l 1034/1034 1033/1033
l 1033/1033 1032/1032
l 1032/1032 1038/1038
l 1038/1038 1031/1031
l 1031/1031 1039/1039
l 1039/1039 1037/1037
l 1037/1037 1048/1048
l 1048/1048 1042/1042
l 1042/1042 1049/1049
l 1124/1124 1094/1094
l 1094/1094 1122/1122
l 1122/1122 1092/1092
l 1092/1092 1121/1121
l 1121/1121 1083/1083
l 1083/1083 1058/1058
l 1058/1058 1078/1078
l 1078/1078 1059/1059
l 1059/1059 1075/1075
l 1075/1075 1057/1057
l 1057/1057 1065/1065
l 1065/1065 1077/1077
l 1077/1077 1076/1076
l 1076/1076 1070/1070
l 1070/1070 1110/1110
l 1110/1110 1087/1087
l 1087/1087 1109/1109
l 1109/1109 1101/1101
l 1101/1101 1106/1106
l 1106/1106 1074/1074
l 1074/1074 1127/1127
l 1127/1127 1104/1104
l 1104/1104 1114/1114
l 1114/1114 1089/1089
l 1089/1089 1112/1112
l 1112/1112 1056/1056
l 1056/1056 1105/1105
l 1105/1105 1098/1098
l 1098/1098 1123/1123
l 1123/1123 1069/1069
l 1069/1069 1108/1108
l 1108/1108 1073/1073
l 1073/1073 1117/1117
l 1117/1117 1052/1052
l 1052/1052 1119/1119
l 1119/1119 1097/1097
l 1097/1097 1107/1107
l 1107/1107 1090/1090
l 1090/1090 1113/1113
l 1113/1113 1068/1068
l 1068/1068 1053/1053
l 1053/1053 1067/1067
l 1067/1067 1085/1085
l 1085/1085 1064/1064
l 1064/1064 1096/1096
l 1096/1096 1084/1084
l 1084/1084 1081/1081
l 1081/1081 1061/1061
l 1061/1061 1062/1062
l 1062/1062 1116/1116
l 1116/1116 1054/1054
l 1054/1054 1120/1120
l 1120/1120 1103/1103
l 1103/1103 1111/1111
l 1111/1111 1095/1095
l 1095/1095 1060/1060
l 1060/1060 1080/1080
l 1080/1080 1079/1079
l 1079/1079 1088/1088
l 1088/1088 1051/1051
l 1051/1051 1118/1118
l 1118/1118 1055/1055
l 1055/1055 1125/1125
l 1125/1125 1102/1102
l 1102/1102 1066/1066
l 1066/1066 1082/1082
l 1082/1082 1128/1128
l 1128/1128 1100/1100
l 1100/1100 1063/1063
l 1063/1063 1099/1099
l 1099/1099 1086/1086
l 1086/1086 1093/1093
l 1093/1093 1091/1091
l 1091/1091 1071/1071
l 1071/1071 1115/1115
l 1115/1115 1072/1072
l 1072/1072 1130/1130
l 1130/1130 1126/1126
l 1126/1126 1129/1129
l 1156/1156 1151/1151
l 1151/1151 1138/1138
l 1138/1138 1142/1142
l 1142/1142 1143/1143
l 1143/1143 1141/1141
l 1141/1141 1133/1133
l 1133/1133 1162/1162
l 1162/1162 1153/1153
l 1153/1153 1167/1167
l 1167/1167 1154/1154
l 1154/1154 1165/1165
l 1165/1165 1146/1146
l 1146/1146 1166/1166
l 1166/1166 1152/1152
l 1152/1152 1161/1161
l 1161/1161 1147/1147
l 1147/1147 1140/1140
l 1140/1140 1135/1135
l 1135/1135 1145/1145
l 1145/1145 1139/1139
l 1139/1139 1159/1159
l 1159/1159 1134/1134
l 1134/1134 1160/1160
l 1160/1160 1150/1150
l 1150/1150 1163/1163
l 1163/1163 1155/1155
l 1155/1155 1164/1164
l 1164/1164 1148/1148
l 1148/1148 1136/1136
l 1136/1136 1131/1131
l 1131/1131 1149/1149
l 1149/1149 1132/1132
l 1132/1132 1144/1144
l 1144/1144 1158/1158
l 1158/1158 1137/1137
l 1137/1137 1157/1157
l 1157/1157 1168/1168
l 1247/1247 1240/1240
l 1240/1240 1175/1175
l 1175/1175 1222/1222
l 1222/1222 1171/1171
l 1171/1171 1226/1226
l 1226/1226 1215/1215
l 1215/1215 1241/1241
l 1241/1241 1217/1217
l 1217/1217 1243/1243
l 1243/1243 1219/1219
l 1219/1219 1225/1225
l 1225/1225 1195/1195
l 1195/1195 1203/1203
l 1203/1203 1227/1227
l 1227/1227 1185/1185
l 1185/1185 1233/1233
l 1233/1233 1211/1211
l 1211/1211 1210/1210
l 1210/1210 1204/1204
l 1204/1204 1192/1192
l 1192/1192 1202/1202
l 1202/1202 1200/1200
l 1200/1200 1186/1186
l 1186/1186 1189/1189
l 1189/1189 1188/1188
l 1188/1188 1206/1206
l 1206/1206 1190/1190
l 1190/1190 1207/1207
l 1207/1207 1182/1182
l 1182/1182 1198/1198
l 1198/1198 1183/1183
l 1183/1183 1172/1172
l 1172/1172 1228/1228
l 1228/1228 1184/1184
l 1184/1184 1236/1236
l 1236/1236 1170/1170
l 1170/1170 1237/1237
l 1237/1237 1212/1212
l 1212/1212 1234/1234
l 1234/1234 1179/1179
l 1179/1179 1178/1178
l 1178/1178 1208/1208
l 1208/1208 1214/1214
l 1214/1214 1223/1223
l 1223/1223 1194/1194
l 1194/1194 1224/1224
l 1224/1224 1169/1169
l 1169/1169 1242/1242
l 1242/1242 1221/1221
l 1221/1221 1229/1229
l 1229/1229 1209/1209
l 1209/1209 1235/1235
l 1235/1235 1191/1191
l 1191/1191 1230/1230
l 1230/1230 1176/1176
l 1176/1176 1232/1232
l 1232/1232 1173/1173
l 1173/1173 1177/1177
l 1177/1177 1205/1205
l 1205/1205 1231/1231
l 1231/1231 1181/1181
l 1181/1181 1239/1239
l 1239/1239 1220/1220
l 1220/1220 1238/1238
l 1238/1238 1199/1199
l 1199/1199 1216/1216
l 1216/1216 1180/1180
l 1180/1180 1193/1193
l 1193/1193 1174/1174
l 1174/1174 1197/1197
l 1197/1197 1196/1196
l 1196/1196 1201/1201
l 1201/1201 1187/1187
l 1187/1187 1245/1245
l 1245/1245 1218/1218
l 1218/1218 1244/1244
l 1244/1244 1213/1213
l 1213/1213 1246/1246
l 1246/1246 1248/1248
l 1253/1253 1261/1261
l 1253/1253 1268/1268
l 1254/1254 1258/1258
l 1254/1254 1269/1269
l 1249/1249 1266/1266
l 1255/1255 1262/1262
l 1255/1255 1271/1271
l 1256/1256 1264/1264
l 1256/1256 1270/1270
l 1250/1250 1267/1267
l 1251/1251 1259/1259
l 1252/1252 1260/1260
l 1257/1257 1255/1255
l 1257/1257 1255/1255
l 1258/1258 1254/1254
l 1259/1259 1251/1251
l 1260/1260 1252/1252
l 1261/1261 1253/1253
l 1262/1262 1255/1255
l 1263/1263 1254/1254
l 1263/1263 1254/1254
l 1264/1264 1256/1256
l 1265/1265 1253/1253
l 1265/1265 1253/1253
l 1266/1266 1249/1249
l 1267/1267 1250/1250
l 1268/1268 1253/1253
l 1269/1269 1254/1254
l 1270/1270 1256/1256
l 1271/1271 1255/1255
l 1272/1272 1256/1256
l 1272/1272 1256/1256
