v 0.024507399999999999 0.38438299999999997 0.123205
v 0.048072299999999998 0.38438299999999997 0.11605699999999999
v 0.069790400000000002 0.38438299999999997 0.104448
v 0.088826000000000002 0.38438299999999997 0.088826000000000002
v 0.104448 0.38438299999999997 0.069789500000000004
v 0.11605699999999999 0.38438299999999997 0.048072299999999998
v 0.123205 0.38438299999999997 0.024506500000000001
v 0.12561900000000001 0.38438299999999997 -0
v 0.123205 0.38438299999999997 -0.024507399999999999
v 0.11605699999999999 0.38438299999999997 -0.048072299999999998
v 0.104448 0.38438299999999997 -0.069790400000000002
v 0.088826000000000002 0.38438299999999997 -0.088826000000000002
v 0.069789500000000004 0.38438299999999997 -0.104448
v 0.048072299999999998 0.38438299999999997 -0.11605699999999999
v 0.024506500000000001 0.38438299999999997 -0.123205
v 0.1102525 0.38438299999999997 -0.05893135
v 0.05893135 0.38438299999999997 0.1102525
v 0.036289399999999999 0.38438299999999997 -0.11963099999999999
v 0.11963099999999999 0.38438299999999997 0.036289399999999999
v 0.12441199999999999 0.38438299999999997 -0.012253699999999999
v 0.012253699999999999 0.38438299999999997 0.12441199999999999
v 0.07930775000000001 0.38438299999999997 -0.096637000000000001
v 0.096637000000000001 0.38438299999999997 0.07930775000000001
v 0.1102525 0.38438299999999997 0.058930900000000001
v 0.058930900000000001 0.38438299999999997 -0.1102525
v 0.096637000000000001 0.38438299999999997 -0.079308199999999995
v 0.079308199999999995 0.38438299999999997 0.096637000000000001
v 0.036289849999999998 0.38438299999999997 0.11963099999999999
v 0.11963099999999999 0.38438299999999997 -0.036289849999999998
v 0.01225325 0.38438299999999997 -0.12441199999999999
v 0.12441199999999999 0.38438299999999997 0.01225325
v 0.0061266250000000001 0.38438299999999997 -0.1250155
v 0.0061268499999999997 0.38438299999999997 0.1250155
v 0.064360200000000006 0.38438299999999997 -0.10735025000000001
v 0.0030633125000000001 0.38438299999999997 -0.12531724999999999
v 0.024507399999999999 0.0297259 0.123205
v 0.048072299999999998 0.0297259 0.11605699999999999
v 0.069790400000000002 0.0297259 0.104448
v 0.088826000000000002 0.0297259 0.088826000000000002
v 0.104448 0.0297259 0.069789500000000004
v 0.11605699999999999 0.0297259 0.048072299999999998
v 0.123205 0.0297259 0.024506500000000001
v 0.12561900000000001 0.0297259 -0
v 0.123205 0.0297259 -0.024507399999999999
v 0.11605699999999999 0.0297259 -0.048072299999999998
v 0.104448 0.0297259 -0.069790400000000002
v 0.088826000000000002 0.0297259 -0.088826000000000002
v 0.069789500000000004 0.0297259 -0.104448
v 0.048072299999999998 0.0297259 -0.11605699999999999
v 0.024506500000000001 0.0297259 -0.123205
v 0.1102525 0.0297259 -0.05893135
v 0.05893135 0.0297259 0.1102525
v 0.036289399999999999 0.0297259 -0.11963099999999999
v 0.11963099999999999 0.0297259 0.036289399999999999
v 0.12441199999999999 0.0297259 -0.012253699999999999
v 0.012253699999999999 0.0297259 0.12441199999999999
v 0.096637000000000001 0.0297259 0.07930775000000001
v 0.07930775000000001 0.029725899999999993 -0.096637000000000001
v 0.058930900000000001 0.0297259 -0.1102525
v 0.1102525 0.0297259 0.058930900000000001
v 0.079308199999999995 0.0297259 0.096637000000000001
v 0.096637000000000001 0.0297259 -0.079308199999999995
v 0.036289849999999998 0.0297259 0.11963099999999999
v 0.11963099999999999 0.0297259 -0.036289849999999998
v 0.01225325 0.0297259 -0.12441199999999999
v 0.12441199999999999 0.0297259 0.01225325
v 0.0061266250000000001 0.0297259 -0.1250155
v 0.0061268499999999997 0.0297259 0.1250155
v 0.0030634249999999998 0.0297259 0.12531724999999999
v 2.7105054312136889e-20 -0.24509682807229996 -0.20803704623933536
v 0.11531663654386148 -0.24197290055003789 0.17389299839347927
v 0.077624852257807075 -0.24211057817717974 -0.19376104690542484
v 0.040773113257154735 -0.24531338415929271 -0.20358465028895811
v 0.18791570484378778 -0.21904201486581973 -0.10587378740277047
v 0.16302770302624614 -0.22645864157498852 0.13774938441867951
v 0.17992525103450874 -0.22132404133176928 -0.11855460354918879
v 0.17879340150838349 -0.22204345791665947 0.11990006744712071
v 0.059765930061301001 -0.24405374472339952 -0.19894319758764079
v 0.020617291179931687 -0.24537506965733408 -0.20609950800503171
v 0.19532030982501408 -0.21658627015691906 -0.093563504911492332
v 0.14086909430613104 -0.23275454934067999 0.15783935849106598
v 0.12483343240700853 -0.23370504244633866 -0.1706194821573975
v 0.1578278785304682 -0.22795269216035852 0.14327641163837818
v 0.046510965978704334 -0.25658096340648207 0.1964892496597779
v 0.026909092047034538 -0.25757803155906622 0.19934762434026271
v 0.040042739412391795 -0.25710444255545406 0.19781477019628529
v 0.020263052667742372 -0.25768022785050326 0.19997380793508368
v 0.080069295128849263 -0.25228055857873993 0.18780190880773909
v 0.059556445941318412 -0.25524578943183174 0.19331024224542598
v 0.2020187188207781 -0.2140119908263147 -0.081070175827901519
v 0.20135404125498574 -0.21399712357265244 0.082687191110139696
v 0.21840330097593608 -0.21099000831543474 -0.00097387299790406339
v 0.20958362004472303 -0.21080878159129057 -0.060040545174748348
v 0.13475164815472263 -0.2347239616215529 0.16213003963391676
v 0.15255394864713262 -0.22950961341452591 0.14858818777970756
v 0.1320448746634752 -0.23215252270880948 -0.16541475722417903
v 0.11746079162094403 -0.23520775695952001 -0.1754742785757577
v 0.1926503161162833 -0.21689169905231925 0.098368268656376712
v 0.18405873408689991 -0.22020886595619477 -0.1121934379454384
v 0.15883435887088465 -0.22601539751911107 -0.14289795406370345
v 0.17356774094210198 -0.22355532787478083 0.12614670140962719
v 0.16996026344245241 -0.22337669509093458 -0.13074172369572265
v 0.050415533593472679 -0.24478916235219289 -0.20138617566045616
v 0.068839734038070532 -0.24315971950866666 -0.19641093565363205
v 0.10828770355889424 -0.24437139364487132 0.17705842696746998
v 0.030790705864857729 -0.24544315745914735 -0.20502526461365805
v 0.010338150625806218 -0.24525840063733045 -0.20711160836662579
v 0.21549098277308132 -0.21006412520753032 -0.036262887095768588
v 0.21730685612944017 -0.21038719413902399 -0.019202517459462193
v 0.18810065599463399 -0.21857490252274089 0.10582557940938524
v 0.20775299661629829 -0.21181329688976619 0.065386799207065638
v 0.21312326629920952 -0.21106699820307595 0.047133563259966066
v 0.21722037129629854 -0.21105199755157167 0.018304066997155019
v 0.21501160757280516 -0.21101693569598662 0.037641555566150647
v 0.16826726606050896 -0.22500428600287184 0.13205035988278202
v 0.20717865746371295 -0.21162527982390927 -0.067351952312971169
v 0.21408210330581959 -0.21012973446687289 -0.044524411677996728
v 0.14683320849529169 -0.23105178299406731 0.15337153805817677
v 0.16452248414360796 -0.22459745954479238 -0.13680510267799106
v 0.15281556814219943 -0.2275792365106788 -0.1489474294070951
v 0.073124591619927279 -0.25352014448535831 0.1898594848552021
v 0.013556728850401784 -0.25769197292455437 0.20060487728629028
v 0.10113880466416775 -0.24662062077312202 0.1799218793593001
v 0.087036172753571672 -0.25066556679659002 0.18537362601425833
v 0.21200668133594486 -0.21034239999352722 -0.052453774131848666
v 0.20466296021500988 -0.21271610567632243 -0.074350312783493813
v 0.1916563708853985 -0.21783263547601397 -0.099673105131711459
v 0.12847759322954216 -0.23697197355885768 0.16626988645946666
v 0.18354252563780177 -0.22033453233072281 0.11304845501949312
v 0.14626043601257332 -0.22913898236050723 -0.15471143539391585
v 0.21802977479729202 -0.21107998327912272 0.0086404795973860637
v 0.21800671118581055 -0.21069804645389245 -0.010468656262423
v 0.21650202319771866 -0.21015769010855981 -0.027802178622248121
v 0.21624393187263904 -0.21101266578010897 0.027989607345515387
v 0.2047113311026838 -0.21273845435437172 0.074173792289666363
v 0.21059760413425049 -0.2112780968452255 0.056375913876112599
v 0.094044188234742476 -0.2393520934627999 -0.1871366479423287
v 0.10975134611146611 -0.2365635682172616 -0.17964387546676952
v 0.17514345122115982 -0.22232489793465315 -0.12469515015686232
v 0.12204850790530807 -0.23945143664301027 0.17026721562618524
v 0.19715635444301313 -0.21536079921765583 0.090690658566372234
v 0.19882123214915665 -0.21530634076672628 -0.087416811935431174
v 0.13922368132077817 -0.23063325048438932 -0.1601167198467503
v 0.066270211680526214 -0.25446846570982201 0.19164623924209662
v 0.052981240296597162 -0.25593334665995626 0.19491927480019172
v 0.0067964000473806664 -0.25759822296068435 0.20122669439343893
v 0.09402948442134873 -0.24872761108265357 0.1826689858315329
v 0.033496914656223398 -0.25738458716539542 0.19865196392734538
v 0.086006175983027372 -0.24080243195624418 -0.19064721780306323
v 0.10192828532427078 -0.23792269211892586 -0.18346465794310529
v 2.1684043449710089e-19 -0.25740023473287821 0.20177436947736646
v 0.15891381090688167 -0.31790193828698932 -0.0023486174982578186
v 0.052204352042194736 -0.37712066576309144 -0.0064084190414861689
v 0.12504327972349255 0.20342516628108004 -0.0019090387838803784
v 0.12508282710558283 0.11911970071011907 0.00046647609038028817
v 0.063962407725917297 0.38438299999999992 -0.0020138414316606262
v 0.12435327607648755 0.336340175894002 -0.012037273180403544
v 0.12485300206455929 0.072963235623369066 -0.0040224152146365183
v 0.12483455710173477 0.25308305017669475 -0.0064644268401271915
v 0.09426117471280604 0.38438299999999992 -0.0073688018815827594
v 0.031979832270625258 0.38438300000000003 0.00036040174041917247
v 0.068732086324304831 -0.37226268002832386 -0.0060674515398320538
v 0.12465055978120576 0.27222139241305188 -0.0085545669620827915
v 0.12506012213988427 0.10019575356347168 -0.0011343597688697753
v 0.1243653564250105 0.31877465518643699 -0.011658043903255397
v 0.12482042568185436 0.055560359827995842 -0.0065962814220680592
v 0.12513372916659293 0.18395924940633376 -0.00030695701734102446
v 0.12505672847157398 0.13798341602566511 0.0014090990816980785
v 0.1249687388615015 0.23347057884402983 -0.0044735904638124619
v 0.13828534868066367 -0.33519790271172112 -0.0028110508448355928
v 0.029248686795033493 -0.38123458345700789 -0.007530532338077503
v 0.17056594554265797 -0.30441335483095777 -0.0032083508929444792
v 0.10918618675809585 0.38438300000000014 -0.0099803091145670812
v 0.048056139642866133 0.38438300000000014 -0.00035117850212738107
v 0.015962077433942717 0.38438300000000014 0.00039269170177301342
v 0.07935189422012795 0.38438299999999992 -0.0045300006611714017
v 0.22376658252783341 -0.17071653482298771 -0.010187230111721729
v 0.22201993209720949 -0.1876471134672078 -0.010819807128592297
v 0.21510161329671199 -0.22070288352998335 -0.0097810696707115834
v 0.16496384480625775 -0.0057664911514954155 -0.0082621307873409974
v 0.12430455991714741 0.36883068124689877 -0.012311378366869942
v 0.10885355353144796 -0.35478206416051977 -0.0053145664430147557
v 0.14601500228238282 0.012102620449534359 -0.0090796740516965839
v 0.12441199999999999 0.38438299999999997 -0.012253699999999999
v 0.12441199999999999 0.0297259 -0.012253699999999999
v 0.13894144234159028 0.017867337125022212 -0.0099147467857554038
v 0.10116521513181989 -0.35892791266578161 -0.0057002807830031574
v 0.12505625358383382 0.22347797392269864 -0.0035824954371355515
v 0.12452392954336737 0.28167982277002601 -0.0094857905874117538
v 0.1243945051965584 0.30967613939544669 -0.011342286566171962
v 0.12478663983748267 0.064216537143203786 -0.0051930363461311566
v 0.12493814549330395 0.24334516782743837 -0.0054376335413206436
v 0.12500202585242326 0.10961864633464165 -0.00028001369540169252
v 0.12508233745063924 0.12860273234389352 0.0010476026246474229
v 0.12434540817824505 0.32767486760563846 -0.011877313047566875
v 0.12472834108765653 0.26269825414259945 -0.0075244261278584468
v 0.12498909354406243 0.081853135557630491 -0.0029962457417134439
v 0.12508988278095512 0.17459587292685083 0.00040589907387781726
v 0.12468527140440358 0.04694431830221088 -0.0082666425752902159
v 0.12514369803160799 0.19357452736814301 -0.0010948596666514785
v 0.044219760845026192 -0.3790105488545521 -0.0067437997341545097
v 0.093401520654014553 -0.36294877215307897 -0.0059236000405596765
v 0.11656532591915258 -0.35060931719392574 -0.0047724813004717953
v 0.022466241123275669 -0.38184569827353598 -0.0078030691096621528
v 0.15218949755608097 -0.32382254007374145 -0.0022373116557629601
v 0.016217300314908704 -0.38231709521029644 -0.0078807192556705104
v 0.060392048358946675 -0.37479102232028372 -0.0061793942211073238
v 0.036530013533356449 -0.38035399348996513 -0.007145340438220734
v 0.16481590012051184 -0.31120441994460679 -0.0026822076980150904
v 0.17615434096402069 -0.29749703636326014 -0.003863196703728769
v 0.22288964524900712 -0.17934587207066205 -0.0105425332828129
v 0.21977789015563209 -0.20326994029780543 -0.010821192561033775
v 0.22034700771077617 -0.1151521392840779 -0.0087267901375107093
v 0.13130416957577945 -0.34080468527439023 -0.003419846092528875
v 0.13169072712504165 0.023724414724953034 -0.011009925722632681
v 0.19894316639069129 -0.055063304594858267 -0.0092901527192265042
v 0.20696356586737857 -0.070980409416244519 -0.0089809663188737884
v 0.12452001727904786 0.038337711298286919 -0.010189723751065383
v 0.1870601493011973 -0.28325162530539549 -0.0052855047022826035
v 0.18609975567036702 -0.032263586647986578 -0.0091415727208837526
v 0.10168971488557596 0.38438300000000014 -0.0087231359987968299
v 0.085450972534026448 -0.36668021365946252 -0.0060218851556452565
v 0.086840594915117836 0.38438300000000014 -0.0059497358781558816
v 0.071733860423040557 0.38438299999999992 -0.0031912922619469638
v 0.040018073902962227 0.38438299999999992 0.00011137363485980013
v 0.077150793517900704 -0.36966406063277657 -0.0060400244914811142
v 0.056054758800258647 0.38438300000000003 -0.0010577835461726762
v 0.0239605185250093 0.38438300000000003 0.00043901478139111148
v 0.007977845831300439 0.38438299999999992 0.00026477068609048488
v 0.15930590462784722 0.00060872397268472034 -0.0083068481104636351
v 0.22442925684097464 -0.16178365148973209 -0.0098279723787949736
v 0.2210670207504713 -0.19561304456526213 -0.010931326722900481
v 0.22267534389014554 -0.13393527270274902 -0.0090110812463525848
v 0.22354019298612959 -0.14331703785937677 -0.0092150072514779937
v 0.2217065575504697 -0.12451916764037381 -0.0088587516443496966
v 0.20503193167100131 -0.24970832310430835 -0.007667545011662575
v 0.19617824101054471 -0.26708268112432509 -0.0064881390370606033
v 0.19481876306065377 -0.047283135449546376 -0.0093417911746030233
v 0.21291412033691531 -0.088146422262898164 -0.0086068108270673828
v 0.21810353814604694 -0.1060000968747509 -0.0085972706577736521
v 0.21217955209186318 -0.23066413891006035 -0.0090463794553724483
v 0.21800671118581055 -0.21069804645389245 -0.010468656262423
v 0.2101303610271873 -0.079443183648927287 -0.0087689564555732541
v 0.21557121777738839 -0.09700282677470598 -0.0085473678409812241
v 0.20900520804728007 -0.24043021924515501 -0.0083350832455899269
v 0.1703438481434601 -0.012272607270942568 -0.0083835150544074102
v 0.18175483941507004 -0.29054578448306823 -0.0045808873874851695
v 0.19172458892722358 -0.27534709212058833 -0.0059123378206880073
v 0.20064619868555117 -0.2585533825806029 -0.0070589226273158768
v 0.20307711070955586 -0.062918256164406175 -0.0091624992869654281
v 0.19061833035095255 -0.039630995232457465 -0.0092946605972121614
v 0.15286953504422127 0.0064340118342484931 -0.0085532154802976032
v 0.1757022709773709 -0.018782374603231053 -0.0086169699650937674
v 0.18099974248517259 -0.025398133132108917 -0.0088919283177736098
v 0.12435494518640894 0.35295118970700945 -0.012247981203778404
v 0.12447831446842006 0.30043024630584475 -0.010894590664239045
v 0.12434705483723366 0.36095697892586009 -0.012302202978355868
v 0.12450822407882789 0.29108657567699331 -0.010276181316036529
v 0.12492935646639139 0.21343032578496574 -0.0027305851856
v 0.1242555323334034 0.37662495325616457 -0.012279634957224742
v 0.12502984158515817 0.15634131398189749 0.0013702448967462897
v 0.12505168279013545 0.16542662662832522 0.00098658311521876776
v 0.1243613160261494 0.34475957413865577 -0.012158740432863184
v 0.12418175941773538 -0.34613981530159077 -0.0041176845176292094
v 0.12511815944706503 0.090928216955320218 -0.0020464523685995825
v 0.14521922435784351 -0.32948774806654091 -0.0023959744843249468
v 0.12500226404645071 0.1472217747232617 0.0015192426137311801
v 0.11676962242329506 0.38438300000000003 -0.011144866494346156
v 1.0842021724855044e-19 0.38438299999999992 9.6460517662683262e-05
v 0.22435551590075231 -0.15260838400930296 -0.0094997192557611191
v 0.010471341840869076 -0.38270588083110013 -0.0077286911768436866
v 0.0051241138681711587 -0.38305275238260661 -0.007371198589300779
v -2.8460307027744482e-19 -0.38340283658976632 -0.0068953295735419383
v -0 0.0297259 -0.12561900000000001
v 0 0.0297259 0.12561900000000001
v -1.2197274440461896e-19 -0.075249626960501803 0.20949624137135886
v 2.7105054312136889e-20 -0.24509682807229996 -0.20803704623933536
v -1.6263032587282567e-19 -0.36537032201735742 -0.089365666177661146
v -2.7105054312138275e-19 -0.36728316584573706 0.084956444072082374
v -0 0.38438299999999997 -0.12561900000000001
v 0 0.38438299999999997 0.12561900000000001
v 2.1684043449710089e-19 0.33752578748817663 -0.12515931907428871
v -8.1315162936421307e-20 0.38438299999999992 0.097563227941478994
v 2.1684043449710098e-19 0.186324607935618 0.12523141174602725
v 5.9631119486702744e-19 0.18332227470350099 -0.12525633024561503
v -1.0842021724855044e-19 0.32003936081992029 0.12523510812944688
v -1.219727444046187e-19 -0.37373110881653249 -0.064577916425318752
v -7.7927031147395535e-20 0.38438299999999992 0.047412704984232203
v 0 -0.3701997048541239 -0.075947216103202569
v 2.1684043449710089e-19 0.11218363893330904 0.12538507758819395
v 0 0.13202288414608723 0.12544293211793667
v -4.7433845046240819e-20 0.28442452772798882 0.12542214433384388
v -2.1684043449710089e-19 0.26242087436056966 0.12515805503383329
v -8.6736173798840355e-19 0.060874413341422726 -0.12519870020142199
v 0 0.15308881030123911 -0.12515391697912651
v 3.2526065174565138e-19 -0.25578929722990873 -0.20263583219531286
v 0 -0.38252936873324844 0.017904004084047472
v 0 -0.35233702945647283 0.11400913297042679
v -1.8055593228630336e-33 -0.33854734232547939 -0.13454040855167415
v 0 0.021357453564843257 0.1355985623159297
v 4.3368086899420283e-19 -0.21698089787162883 0.21683839150033676
v 1.6263032587282422e-19 -0.14699536460955517 -0.22469092741535346
v -2.1684043449710089e-19 -0.36827274265073057 -0.08204380059285607
v -4.3368086899420177e-19 0.38438299999999992 0.038560149635126287
v -5.4210108624274174e-20 0.38438299999999997 -0.10506439570837489
v 1.6263032587282518e-19 -0.042359044160225456 0.19290318896856817
v -1.084202172485504e-19 -0.023618523533261042 0.18017736522575706
v -4.3368086899420177e-19 -0.32725404079609882 -0.14827849942498378
v 1.6263032587282567e-19 0.30782170293631239 -0.1252927572416159
v 2.1684043449709819e-19 0.29509943864663413 0.12534899987246223
v -9.6296497219361793e-35 0.10251563589989049 -0.12527138194470677
v 1.0842021724855442e-19 -0.093577933463485696 -0.2152272716503818
v 5.4210108624275366e-20 -0.15747181816827621 0.22549077157005892
v -1.3552527156068858e-19 -0.15781111551604721 -0.2254987083368874
v 9.4867690092473429e-20 -0.20327924482031284 0.22097512173044756
v 0 -0.33198171680447891 -0.14257754969624226
v 9.4867690092482192e-20 -0.38033054156692514 0.038969009126763342
v 6.5052130349130276e-19 -0.38168357009300963 -0.026639639568126074
v -8.1315162936413242e-20 0.31065641727875226 0.12533009376002996
v 2.1684043449709771e-19 0.38438300000000003 0.11475837980485515
v -2.1684043449710093e-19 0.37399688543797044 -0.12505017328907175
v -2.7105054312137611e-20 0.32989995436631459 -0.1253851374808177
v 5.4210108624277533e-20 0.34670362735890214 -0.12528807607321676
v 0 0.17377314700487972 -0.1251180881353729
v 3.2526065174565167e-19 0.081925390113835289 0.12524987132924162
v 1.0842021724855194e-19 0.25274903922453695 -0.12521801243409106
v -8.8091426514447235e-20 0.38438300000000003 0.074038652453846693
v 7.4538899358379814e-20 0.38438300000000003 -0.074042057516256032
v 1.8973538018496332e-19 0.38438299999999992 -0.024794126082753193
v 2.7105054312137611e-19 0.38438299999999992 0.086769770360129769
v -8.6736173798840355e-19 -0.19477771464601723 0.22181241159029996
v -5.4210108624277208e-20 -0.10051542828725117 -0.21731528286194546
v -2.7105054312137611e-20 -0.27967394873860096 -0.18972421332809031
v 4.3368086899420177e-19 -0.066159605262505222 -0.20517835133239448
v 0 -0.021410941254097239 -0.17836584681408274
v 2.7105054312137582e-19 0.0082249634448699448 -0.15137209968390353
v 2.1684043449709405e-19 0.36886916800848346 0.12526851961264995
v 0 -0.37613350297897141 0.05641788433742892
v -7.4629785345005389e-34 -0.37836724440715486 0.048785641423741609
v 2.1684043449710089e-19 0.21548754425296704 0.12516657715458945
v -9.4867690092493398e-20 0.22243955396926599 -0.12539944576270712
v 3.2526065174565133e-19 0.35953392372504717 0.12517876323138283
v 0 0.34532107686195712 0.12510172956306095
v 0 0.33652330851173584 0.12514173308858623
v 8.1852022636457524e-34 0.053537886848217017 -0.125333482425522
v 4.3368086899420177e-19 0.23135641473986529 -0.12518258031923529
v 2.1684043449710089e-19 0.36552871354632377 -0.12514344957829127
v 5.4210108624274861e-20 0.17653811444711193 0.12531633200696446
v -1.3552527156068805e-19 0.16315579550586809 -0.12533259189255005
v -2.7105054312137611e-20 0.12239474946443024 0.12542061380338498
v 4.3368086899420177e-19 0.094740053036014113 -0.12514362111232771
v -9.1479558303464051e-20 0.10047784551872777 0.12541832408120529
v -1.6263032587282427e-19 0.24195328214791659 -0.12530178564079761
v 0 0.23556887987069147 0.12525112241403794
v 0 0.24252292356339467 0.1252046620925657
v 0 0.30125967443317792 0.12517445704209629
v 1.6263032587282567e-19 0.25125791609406128 0.12530777201026363
v 2.7105054312137755e-19 0.27323709651991435 0.12534797168560385
v 4.3368086899420177e-19 -0.064246889334431956 0.20420270427892884
v 2.1684043449710089e-19 -0.3796134415525993 -0.043400588715065497
v 0 -0.38327844812235473 0.0072849791500731896
v -1.3552527156068784e-19 -0.38370776379595656 -0.002913359711403855
v -5.9631119486702378e-19 -0.35258165432307964 -0.11343058974843021
v 0 -0.10641305772163179 0.21865875414012367
v -1.6263032587282644e-19 -0.11675925370859525 0.2214769295866206
v 2.7105054312137173e-19 0.022802431009189793 -0.13347164100178607
v 4.0657581468208843e-19 0.014345401386926682 0.14412443746868581
v 1.0842021724855011e-19 -0.38107400327378937 -0.032648388516929153
v -4.3368086899420177e-19 -0.3724487248094937 0.068584855356306429
v -2.1684043449710089e-19 -0.37438657474996728 0.062373683914754709
v 8.1315162936410871e-20 -0.032903657453613434 0.18746029285052229
v 0 0.38438300000000003 -0.11418003468556637
v 1.0842021724855044e-19 0.38438299999999992 -0.086758015702993407
v -2.5072175238726178e-19 0.38438299999999992 -0.047336405795429387
v 7.4538899358378514e-20 0.38438299999999992 0.016284165778999798
v -2.1684043449710089e-19 0.38438299999999992 -0.014327930054849841
v -1.0842021724855177e-19 -0.17832268107247085 0.22366988365462709
v -6.7762635780360975e-20 -0.16828753226207682 -0.22482117626695972
v 1.0842021724854459e-19 -0.22560681097605151 0.21434240523689163
v -3.7947076036993007e-19 -0.21492727013862822 -0.21766295361434784
v -3.2526065174565133e-19 -0.042079433978708433 -0.19268824934225565
v -1.0842021724855044e-19 -0.015452024799341777 0.17355837464931551
v -3.2526065174565133e-19 -0.32294615909348023 -0.15358431761157598
v 5.4210108624275703e-20 0.0073123863883269233 0.15257763164480848
v 5.4210108624248596e-20 0.00053571225593832482 0.16010772431171288
v 0 -0.3433956737395446 -0.12834843134055107
v 5.4210108624275222e-19 0.015307072405640157 -0.14274660854807791
v 2.1684043449710089e-19 -0.33234023305065652 0.14208260375235857
v 2.3472271197219358e-33 -0.36970774881571666 0.077721397274498186
v 1.0842021724855102e-19 -0.35668377378230892 0.10573746355647073
v 1.0842021724854948e-19 -0.35677962463111135 -0.10572660832406434
v 0 0.21314294122985872 -0.12511483442400073
v 2.1684043449710021e-19 -0.36369617254659714 0.092469307078867857
v 1.6263032587282372e-19 -0.36158482887829801 -0.096682927883843375
v 1.6263032587282567e-19 -0.38149233838910795 0.028790493670536717
v 0 -0.37651546704603578 -0.054989555070087792
v 0 0.12331083707508451 -0.12523133138176037
v 1.0842021724855061e-19 0.047558798974740656 0.12527818429275139
v -4.3368086899420177e-19 0.05551729728197799 0.12513878030284786
v 0 0.15027085091965853 0.12510343755347439
v -1.9651164376299253e-19 0.15919634834066024 0.12540693397824948
v -1.6263032587282562e-19 0.091518330847470214 0.12539065282051848
v -4.8148248609680896e-35 0.19584297692500632 -0.12521402450907387
v 2.1684043449710089e-19 0.29759026203360767 -0.1252181795679225
v -8.1315162936413266e-20 0.22551139988111857 0.12529807575089977
v -4.3368086899420177e-19 0.35128395447246941 0.12510013657635652
v -3.2526065174564748e-19 0.356901120915464 -0.12517238988280835
v -2.1684043449710089e-19 0.16727977432389107 0.12519866972230792
v -2.1684043449710098e-19 0.042848630404972721 -0.12518106044765026
v 0 0.1331612967799681 -0.12519975982372936
v -1.3552527156068586e-19 0.06478712781249088 0.12538666184164468
v -8.6736173798840355e-19 0.074824028976093609 0.12521724737598608
v 0 0.067860185267311898 -0.12525361414466929
v -4.4045713257220464e-20 0.32173405611068101 -0.12542336163758899
v -1.3552527156062907e-20 0.20484745389505787 0.12536998870065891
v 1.0842021724855044e-19 0.087544382945531754 -0.12523621232454527
v 6.776263578034091e-20 0.14421147860798317 -0.12537370895961095
v -1.6940658945086019e-20 0.28639033368389782 -0.12542747030638096
v -4.3368086899420177e-19 0.27866831431062816 -0.12527198398688372
v 0 0.19342285965205402 0.12518485446677394
v 1.0842021724855499e-19 0.14189021950700559 0.12530640438272597
v 0 0.32728955352554445 0.12514253453805152
v -1.0842021724855044e-19 0.20581535482323579 -0.1251622820597563
v -4.3368086899420177e-19 0.37513092938657155 0.12494391662569816
v 4.3368086899420177e-19 0.2612155700945859 -0.12514343630326827
v 6.7762635780365664e-21 0.27043721449497471 -0.12541650145583921
v 1.0842021724855256e-19 -0.2647512848659197 -0.19775693678484932
v 2.1684043449710089e-19 -0.2747180490857643 0.19254422879868657
v 2.1684043449710089e-19 -0.25740023473287821 0.20177436947736646
v -4.0657581468206488e-20 -0.16634466797927472 0.22494733626438226
v 8.6736173798840355e-19 -0.36034147861986537 0.098699899078887765
v 1.084202172485495e-19 -0.34734988884946372 -0.1225325234587632
v 2.1684043449710219e-19 -0.073239888432451314 -0.20838157801473439
v 2.439454888092385e-19 -0.082346246835722961 0.21183921373180351
v -2.1684043449710089e-19 -0.099200225732637606 0.21666813193059908
v 1.5407439555097887e-33 -0.3396380958882772 0.13309647886887777
v 1.0842021724854878e-19 -0.32212198670556386 0.15441164050497064
v -4.3368086899420177e-19 -0.38309790938357624 -0.010877299435680022
v -3.3881317890140182e-20 -0.23453474857059664 0.21175316513150966
v 0 -0.21087794266845883 0.21857030217964712
v 0 -0.38240716719817192 -0.018800079050065668
v -1.0842021724853646e-19 -0.13703099508813876 -0.22359631094843491
v 1.0842021724854445e-19 -0.13735274033742056 0.22363096747502709
v 1.7618285302889445e-19 -0.00152709835848625 -0.16196835569172294
v -4.3368086899420177e-19 -0.30845694866604445 -0.16739070410551538
v -1.0842021724855044e-19 -0.30308674710672484 -0.17176701500059532
v 3.7947076036992655e-19 -0.30778881025583871 0.16807197034798504
v 8.1315162936413567e-20 -0.28550920176900407 -0.18612476554029261
v 0 -0.29381205699477025 0.17959827807243761
v 5.4210108624274403e-20 -0.031272734812267888 -0.18620193100256696
v -2.1684043449710089e-19 0.38438299999999997 0.10546707134650128
v 4.8148248609680896e-34 0.38438299999999992 -0.098376173504161696
v -6.7762635780344027e-20 0.38438299999999992 -0.063406704714438905
v 2.1684043449710089e-19 0.38438299999999992 0.054853814537120911
v -1.2536087619364143e-19 0.38438299999999992 0.063405045356553003
v 1.0842021724855044e-19 0.38438299999999992 -0.054873877499913397
v -8.1315162936412447e-20 0.38438299999999992 0.030985109311619505
v 1.6263032587282567e-19 0.38438299999999992 -0.036015346921419389
v 4.3368086899420177e-19 0.38438299999999992 0.024045650594660649
v -5.4210108624275222e-20 0.38438299999999992 0.0087314170391853026
v 1.0842021724855044e-19 0.38438299999999992 9.6460517662683262e-05
v 0 0.38438299999999992 -0.0077175409240503798
v 1.0842021724854884e-19 -0.317089345484453 -0.15987588844179867
v -4.3368086899420177e-19 -0.18783962386697572 0.22261674783447175
v -5.4210108624271418e-20 -0.19013427832536126 -0.22272285820853902
v 4.3368086899420177e-19 -0.18044653252971693 -0.22350584769322096
v 1.0842021724855131e-19 -0.14695887199678451 0.22468904450186739
v 1.0842021724852505e-19 -0.12800567310804595 0.22285776577202576
v 2.1684043449709997e-19 -0.11427362694363752 -0.22085305262908714
v 2.9815559743351372e-19 -0.27415547232753695 -0.19292036323021347
v 1.4444474582904269e-33 -0.057892594971642133 0.20098482151088592
v 0 -0.058483286912966698 -0.20135829000448538
v -5.4210108624275202e-19 -0.09040908087922106 0.21415256020957316
v -4.3368086899420177e-19 -0.084042674892486763 -0.21218802707317905
v 1.3552527156069826e-19 -0.23227962668223734 -0.21243709251548928
v 8.1315162936414939e-20 -0.2246105619366536 -0.21475817059611574
v 8.1315162936413326e-20 -0.20000256825823437 -0.22147113250938996
v 2.7105054312139832e-20 -0.24595646133529331 0.20756029441686311
v 0 -0.010757906233659945 -0.16958227069770376
v 5.4210108624284298e-20 -0.0082225170222698669 0.16760048227665197
v 1.084202172485522e-19 -0.29471056363120041 -0.17875331444567497
v 2.168404344970927e-19 -0.28506688312819733 0.18643955249081742
v 4.3368086899420177e-19 -0.26613774596987405 0.19703481362133268
v 4.6944542394438874e-33 -0.050184806266155797 -0.19704176102392024
v -2.7105054312137611e-19 -0.30081460389667508 0.17384960695213722
v 2.1684043449710281e-19 -0.31481064270551962 0.16209574305947749
v 4.3368086899420177e-19 -0.015961427177538526 -0.17379558990545996
v -8.6736173798840355e-19 0.038360815638318162 0.12509114837408961
v 0 -0.32702426421549202 0.14849969052271156
v 0 -0.34669169718230552 0.12350834880094198
v -5.42101086242748e-20 0.078700362704981597 -0.12532052769286212
v 2.5277830520082471e-34 0.11147407892771929 -0.1253612470451852
v -1.2197274440461901e-19 -0.20733756935077774 -0.21960478608758044
v 2.2361669807513515e-19 0.0033489325431918472 -0.15667022768781325
v -1.0842021724855129e-19 -0.12753962857368689 -0.22274691841745986
v 8.1315162936411388e-20 -0.10739452761544435 -0.21908416774551631
v 5.9292306307802601e-20 0.31477787952349667 -0.12535805943960243
v 1.0842021724855044e-19 -0.049855046832693678 0.1968570095506903
v 8.1315162936417599e-20 -0.23868822737726864 -0.21023706937741235
v -2.7105054312137087e-20 0.38438300000000003 -0.10962221519697063
v 4.5739779151729727e-20 0.38438299999999992 0.059129429946836953
v -4.3368086899420139e-19 0.057206150094819871 -0.12526609131347199
v -3.7314892672502695e-34 -0.37725037369306313 0.052601762880585268
v 1.626303258728255e-19 -0.38034372241319436 -0.038024488615997325
v 1.0842021724854885e-19 0.38438300000000003 0.12018868990242758
v -2.7105054312133073e-20 -0.011837270910805822 0.17057942846298374
v 0.0061266250000000001 0.0297259 -0.1250155
v -9.0277966143151681e-34 -0.34097150803251197 -0.13144441994611261
v 4.7433845046240723e-20 -0.37934889298704 0.043877325275252475
v -1.0842021724854979e-19 -0.078641281662469031 -0.21028480254395671
v 1.3552527156068586e-19 0.026264165504594896 -0.12954532050089304
v 0 0.025541676782421627 0.13060878115796487
v 6.9456701674852676e-20 0.38438299999999992 0.051133259760676557
v 1.8973538018496518e-19 -0.18529040542753911 -0.22311435295088
v 1.0842021724853475e-19 -0.13267920672273326 0.22324436662352642
v -6.5052130349130266e-19 -0.19130866925649648 0.22221457971238584
v 1.3552527156070954e-20 -0.1950684232917978 -0.22209699535896449
v 2.1684043449710161e-19 -0.061069742153037045 0.20259376289490738
v 1.0842021724855661e-19 -0.22844509430944548 -0.21359763155580253
v -1.0842021724855047e-19 0.37918994271898521 -0.12533458664453589
v -4.3368086899420177e-19 0.034043357819159084 0.12535507418704481
v -2.1684043449710089e-19 -0.32961787880028887 -0.14542802456061302
v 1.0842021724855044e-19 -0.32968224863307427 0.14529114713753505
v -3.7947076036992646e-19 0.042959807306529409 0.12518466633342051
v -1.0842021724855008e-19 0.048193258626594869 -0.12525727143658613
v 2.1684043449710084e-19 0.098627844467952308 -0.12520750152851723
v -4.0657581468206621e-20 0.30595804585596509 0.12525227540106312
v -6.7762635780343919e-20 -0.38349310595915564 0.0021858097193346673
v 3.7947076036992641e-19 -0.38137878668339953 -0.029644014042527617
v 0 0.38438300000000003 -0.11989951734278319
v 2.710505431213737e-19 -0.22129385442384017 0.21559039836861421
v 4.8789097761847728e-19 -0.35851262620108715 0.10221868131767925
v 5.4210108624275511e-20 -0.35451040161939085 0.10987329826344877
v -5.4210108624275222e-20 0.20947914802654732 -0.12513855824187853
v -9.8255821881496263e-20 0.15473359963015937 0.12525518576586192
v -1.6263032587282557e-19 0.051538048128359326 0.12520848229779963
v 8.1315162936413025e-20 0.086721860480652752 0.12532026207488006
v 1.084202172485491e-19 0.29817955653990602 0.12526172845727926
v -5.4210108624275222e-20 0.35540893909875826 0.12513944990386966
v -2.1684043449710089e-19 0.34830251566721326 0.12510093306970874
v 5.4210108624277497e-20 0.14608053521333206 0.12520492096810018
v -2.8460307027744381e-19 0.060152212547234435 0.12526272107224629
v 2.7105054312137611e-19 0.091142217990772934 -0.12518991671843649
v -9.0277966143151681e-34 -0.33526452956497915 -0.1385589791239582
v -2.8460307027744482e-19 -0.38340283658976632 -0.0068953295735419383
v 2.0328790734103208e-20 0.38438299999999992 -0.059140291107176154
v -7.1150767569355667e-20 0.38438299999999992 -0.051105141647671395
v -2.7105054312137678e-19 -0.18308115246972329 0.22314331574454943
v -2.7105054312150695e-20 -0.1223824634083206 0.22216734767932317
v -1.6263032587282369e-19 -0.08881030417798623 -0.21370764936178044
v 3.7269449679202203e-20 -0.2300707797733241 0.21304778518420067
v -1.4907779871675756e-19 -0.21976891603764093 -0.21621056210523179
v 5.4210108624277232e-20 -0.24189252772478426 -0.20913705780837386
v 5.4210108624266447e-20 -0.0038434023831657709 0.16385410329418243
v 2.1684043449710089e-19 -0.013359666705599234 -0.17168893030158186
v 2.1684043449710089e-19 -0.018686184215817882 -0.17608071835977135
v -1.0842021724855049e-19 0.03628726520248636 -0.12540003022382512
v -4.7433845046246699e-20 0.21779124759956234 -0.12525714009335392
v 5.4210108624274391e-20 -0.32457312546052797 0.1514556655138411
v 5.4210108624274752e-20 -0.34537278129450416 -0.12544047739965714
v -1.2705494208814483e-19 0.09599808818309899 0.12540448845086188
v 0.0061268499999999997 0.38438299999999997 0.1250155
v 5.4210108624275944e-20 -0.053873820902167906 0.19892091553078811
v 1.0842021724855791e-19 -0.23548392702975304 -0.21133708094645084
v 0 0.23904590171704307 0.12522789225330183
v 8.1315162936412833e-20 0.24689041982872797 0.12525621705141465
v -2.1684043449710089e-19 0.37975696469328579 0.12528145831284909
v 0.0030634249999999998 0.0297259 0.12531724999999999
v 8.7870553712667636e-34 -0.29889865536896265 -0.17526016472313516
v 0.0030633125000000001 0.38438299999999997 -0.12531724999999999
v 0 0.027633788391210813 0.12811389057898243
v -0.024507399999999999 0.38438299999999997 0.123205
v -0.048072299999999998 0.38438299999999997 0.11605699999999999
v -0.069790400000000002 0.38438299999999997 0.104448
v -0.088826000000000002 0.38438299999999997 0.088826000000000002
v -0.104448 0.38438299999999997 0.069789500000000004
v -0.11605699999999999 0.38438299999999997 0.048072299999999998
v -0.123205 0.38438299999999997 0.024506500000000001
v -0.12561900000000001 0.38438299999999997 0
v -0.123205 0.38438299999999997 -0.024507399999999999
v -0.11605699999999999 0.38438299999999997 -0.048072299999999998
v -0.104448 0.38438299999999997 -0.069790400000000002
v -0.088826000000000002 0.38438299999999997 -0.088826000000000002
v -0.069789500000000004 0.38438299999999997 -0.104448
v -0.048072299999999998 0.38438299999999997 -0.11605699999999999
v -0.024506500000000001 0.38438299999999997 -0.123205
v -0.1102525 0.38438299999999997 -0.05893135
v -0.05893135 0.38438299999999997 0.1102525
v -0.036289399999999999 0.38438299999999997 -0.11963099999999999
v -0.11963099999999999 0.38438299999999997 0.036289399999999999
v -0.12441199999999999 0.38438299999999997 -0.012253699999999999
v -0.012253699999999999 0.38438299999999997 0.12441199999999999
v -0.07930775000000001 0.38438299999999997 -0.096637000000000001
v -0.096637000000000001 0.38438299999999997 0.07930775000000001
v -0.1102525 0.38438299999999997 0.058930900000000001
v -0.058930900000000001 0.38438299999999997 -0.1102525
v -0.096637000000000001 0.38438299999999997 -0.079308199999999995
v -0.079308199999999995 0.38438299999999997 0.096637000000000001
v -0.036289849999999998 0.38438299999999997 0.11963099999999999
v -0.11963099999999999 0.38438299999999997 -0.036289849999999998
v -0.01225325 0.38438299999999997 -0.12441199999999999
v -0.12441199999999999 0.38438299999999997 0.01225325
v -0.0061266250000000001 0.38438299999999997 -0.1250155
v -0.0061268499999999997 0.38438299999999997 0.1250155
v -0.064360200000000006 0.38438299999999997 -0.10735025000000001
v -0.0030633125000000001 0.38438299999999997 -0.12531724999999999
v -0.024507399999999999 0.0297259 0.123205
v -0.048072299999999998 0.0297259 0.11605699999999999
v -0.069790400000000002 0.0297259 0.104448
v -0.088826000000000002 0.0297259 0.088826000000000002
v -0.104448 0.0297259 0.069789500000000004
v -0.11605699999999999 0.0297259 0.048072299999999998
v -0.123205 0.0297259 0.024506500000000001
v -0.12561900000000001 0.0297259 0
v -0.123205 0.0297259 -0.024507399999999999
v -0.11605699999999999 0.0297259 -0.048072299999999998
v -0.104448 0.0297259 -0.069790400000000002
v -0.088826000000000002 0.0297259 -0.088826000000000002
v -0.069789500000000004 0.0297259 -0.104448
v -0.048072299999999998 0.0297259 -0.11605699999999999
v -0.024506500000000001 0.0297259 -0.123205
v -0.1102525 0.0297259 -0.05893135
v -0.05893135 0.0297259 0.1102525
v -0.036289399999999999 0.0297259 -0.11963099999999999
v -0.11963099999999999 0.0297259 0.036289399999999999
v -0.12441199999999999 0.0297259 -0.012253699999999999
v -0.012253699999999999 0.0297259 0.12441199999999999
v -0.096637000000000001 0.0297259 0.07930775000000001
v -0.07930775000000001 0.029725899999999993 -0.096637000000000001
v -0.058930900000000001 0.0297259 -0.1102525
v -0.1102525 0.0297259 0.058930900000000001
v -0.079308199999999995 0.0297259 0.096637000000000001
v -0.096637000000000001 0.0297259 -0.079308199999999995
v -0.036289849999999998 0.0297259 0.11963099999999999
v -0.11963099999999999 0.0297259 -0.036289849999999998
v -0.01225325 0.0297259 -0.12441199999999999
v -0.12441199999999999 0.0297259 0.01225325
v -0.0061266250000000001 0.0297259 -0.1250155
v -0.0061268499999999997 0.0297259 0.1250155
v -0.0030634249999999998 0.0297259 0.12531724999999999
v 2.7105054312136889e-20 -0.24509682807229996 -0.20803704623933536
v 2.1684043449710089e-19 -0.25740023473287821 0.20177436947736646
v -0.11531663654386148 -0.24197290055003789 0.17389299839347927
v -0.077624852257807075 -0.24211057817717974 -0.19376104690542484
v -0.040773113257154735 -0.24531338415929271 -0.20358465028895811
v -0.18791570484378778 -0.21904201486581973 -0.10587378740277047
v -0.16302770302624614 -0.22645864157498852 0.13774938441867951
v -0.17992525103450874 -0.22132404133176928 -0.11855460354918879
v -0.17879340150838349 -0.22204345791665947 0.11990006744712071
v -0.059765930061301001 -0.24405374472339952 -0.19894319758764079
v -0.020617291179931687 -0.24537506965733408 -0.20609950800503171
v -0.19532030982501408 -0.21658627015691906 -0.093563504911492332
v -0.14086909430613104 -0.23275454934067999 0.15783935849106598
v -0.12483343240700853 -0.23370504244633866 -0.1706194821573975
v -0.1578278785304682 -0.22795269216035852 0.14327641163837818
v -0.046510965978704334 -0.25658096340648207 0.1964892496597779
v -0.026909092047034538 -0.25757803155906622 0.19934762434026271
v -0.040042739412391795 -0.25710444255545406 0.19781477019628529
v -0.020263052667742372 -0.25768022785050326 0.19997380793508368
v -0.080069295128849263 -0.25228055857873993 0.18780190880773909
v -0.059556445941318412 -0.25524578943183174 0.19331024224542598
v -0.2020187188207781 -0.2140119908263147 -0.081070175827901519
v -0.20135404125498574 -0.21399712357265244 0.082687191110139696
v -0.21840330097593608 -0.21099000831543474 -0.00097387299790406339
v -0.20958362004472303 -0.21080878159129057 -0.060040545174748348
v -0.13475164815472263 -0.2347239616215529 0.16213003963391676
v -0.15255394864713262 -0.22950961341452591 0.14858818777970756
v -0.1320448746634752 -0.23215252270880948 -0.16541475722417903
v -0.11746079162094403 -0.23520775695952001 -0.1754742785757577
v -0.1926503161162833 -0.21689169905231925 0.098368268656376712
v -0.18405873408689991 -0.22020886595619477 -0.1121934379454384
v -0.15883435887088465 -0.22601539751911107 -0.14289795406370345
v -0.17356774094210198 -0.22355532787478083 0.12614670140962719
v -0.16996026344245241 -0.22337669509093458 -0.13074172369572265
v -0.050415533593472679 -0.24478916235219289 -0.20138617566045616
v -0.068839734038070532 -0.24315971950866666 -0.19641093565363205
v -0.10828770355889424 -0.24437139364487132 0.17705842696746998
v -0.030790705864857729 -0.24544315745914735 -0.20502526461365805
v -0.010338150625806218 -0.24525840063733045 -0.20711160836662579
v -0.21549098277308132 -0.21006412520753032 -0.036262887095768588
v -0.21730685612944017 -0.21038719413902399 -0.019202517459462193
v -0.18810065599463399 -0.21857490252274089 0.10582557940938524
v -0.20775299661629829 -0.21181329688976619 0.065386799207065638
v -0.21312326629920952 -0.21106699820307595 0.047133563259966066
v -0.21722037129629854 -0.21105199755157167 0.018304066997155019
v -0.21501160757280516 -0.21101693569598662 0.037641555566150647
v -0.16826726606050896 -0.22500428600287184 0.13205035988278202
v -0.20717865746371295 -0.21162527982390927 -0.067351952312971169
v -0.21408210330581959 -0.21012973446687289 -0.044524411677996728
v -0.14683320849529169 -0.23105178299406731 0.15337153805817677
v -0.16452248414360796 -0.22459745954479238 -0.13680510267799106
v -0.15281556814219943 -0.2275792365106788 -0.1489474294070951
v -0.073124591619927279 -0.25352014448535831 0.1898594848552021
v -0.013556728850401784 -0.25769197292455437 0.20060487728629028
v -0.10113880466416775 -0.24662062077312202 0.1799218793593001
v -0.087036172753571672 -0.25066556679659002 0.18537362601425833
v -0.21200668133594486 -0.21034239999352722 -0.052453774131848666
v -0.20466296021500988 -0.21271610567632243 -0.074350312783493813
v -0.1916563708853985 -0.21783263547601397 -0.099673105131711459
v -0.12847759322954216 -0.23697197355885768 0.16626988645946666
v -0.18354252563780177 -0.22033453233072281 0.11304845501949312
v -0.14626043601257332 -0.22913898236050723 -0.15471143539391585
v -0.21802977479729202 -0.21107998327912272 0.0086404795973860637
v -0.21800671118581055 -0.21069804645389245 -0.010468656262423
v -0.21650202319771866 -0.21015769010855981 -0.027802178622248121
v -0.21624393187263904 -0.21101266578010897 0.027989607345515387
v -0.2047113311026838 -0.21273845435437172 0.074173792289666363
v -0.21059760413425049 -0.2112780968452255 0.056375913876112599
v -0.094044188234742476 -0.2393520934627999 -0.1871366479423287
v -0.10975134611146611 -0.2365635682172616 -0.17964387546676952
v -0.17514345122115982 -0.22232489793465315 -0.12469515015686232
v -0.12204850790530807 -0.23945143664301027 0.17026721562618524
v -0.19715635444301313 -0.21536079921765583 0.090690658566372234
v -0.19882123214915665 -0.21530634076672628 -0.087416811935431174
v -0.13922368132077817 -0.23063325048438932 -0.1601167198467503
v -0.066270211680526214 -0.25446846570982201 0.19164623924209662
v -0.052981240296597162 -0.25593334665995626 0.19491927480019172
v -0.0067964000473806664 -0.25759822296068435 0.20122669439343893
v -0.09402948442134873 -0.24872761108265357 0.1826689858315329
v -0.033496914656223398 -0.25738458716539542 0.19865196392734538
v -0.086006175983027372 -0.24080243195624418 -0.19064721780306323
v -0.10192828532427078 -0.23792269211892586 -0.18346465794310529
v 1.0842021724855044e-19 0.38438299999999992 9.6460517662683262e-05
v -2.8460307027744482e-19 -0.38340283658976632 -0.0068953295735419383
v -0.15891381090688167 -0.31790193828698932 -0.0023486174982578186
v -0.052204352042194736 -0.37712066576309144 -0.0064084190414861689
v -0.12504327972349255 0.20342516628108004 -0.0019090387838803784
v -0.12508282710558283 0.11911970071011907 0.00046647609038028817
v -0.063962407725917297 0.38438299999999992 -0.0020138414316606262
v -0.12435327607648755 0.336340175894002 -0.012037273180403544
v -0.12485300206455929 0.072963235623369066 -0.0040224152146365183
v -0.12483455710173477 0.25308305017669475 -0.0064644268401271915
v -0.09426117471280604 0.38438299999999992 -0.0073688018815827594
v -0.031979832270625258 0.38438300000000003 0.00036040174041917247
v -0.068732086324304831 -0.37226268002832386 -0.0060674515398320538
v -0.12465055978120576 0.27222139241305188 -0.0085545669620827915
v -0.12506012213988427 0.10019575356347168 -0.0011343597688697753
v -0.1243653564250105 0.31877465518643699 -0.011658043903255397
v -0.12482042568185436 0.055560359827995842 -0.0065962814220680592
v -0.12513372916659293 0.18395924940633376 -0.00030695701734102446
v -0.12505672847157398 0.13798341602566511 0.0014090990816980785
v -0.1249687388615015 0.23347057884402983 -0.0044735904638124619
v -0.13828534868066367 -0.33519790271172112 -0.0028110508448355928
v -0.029248686795033493 -0.38123458345700789 -0.007530532338077503
v -0.17056594554265797 -0.30441335483095777 -0.0032083508929444792
v -0.10918618675809585 0.38438300000000014 -0.0099803091145670812
v -0.048056139642866133 0.38438300000000014 -0.00035117850212738107
v -0.015962077433942717 0.38438300000000014 0.00039269170177301342
v -0.07935189422012795 0.38438299999999992 -0.0045300006611714017
v -0.22376658252783341 -0.17071653482298771 -0.010187230111721729
v -0.22201993209720949 -0.1876471134672078 -0.010819807128592297
v -0.21510161329671199 -0.22070288352998335 -0.0097810696707115834
v -0.16496384480625775 -0.0057664911514954155 -0.0082621307873409974
v -0.12430455991714741 0.36883068124689877 -0.012311378366869942
v -0.10885355353144796 -0.35478206416051977 -0.0053145664430147557
v -0.14601500228238282 0.012102620449534359 -0.0090796740516965839
v -0.12441199999999999 0.38438299999999997 -0.012253699999999999
v -0.12441199999999999 0.0297259 -0.012253699999999999
v -0.13894144234159028 0.017867337125022212 -0.0099147467857554038
v -0.10116521513181989 -0.35892791266578161 -0.0057002807830031574
v -0.12505625358383382 0.22347797392269864 -0.0035824954371355515
v -0.12452392954336737 0.28167982277002601 -0.0094857905874117538
v -0.1243945051965584 0.30967613939544669 -0.011342286566171962
v -0.12478663983748267 0.064216537143203786 -0.0051930363461311566
v -0.12493814549330395 0.24334516782743837 -0.0054376335413206436
v -0.12500202585242326 0.10961864633464165 -0.00028001369540169252
v -0.12508233745063924 0.12860273234389352 0.0010476026246474229
v -0.12434540817824505 0.32767486760563846 -0.011877313047566875
v -0.12472834108765653 0.26269825414259945 -0.0075244261278584468
v -0.12498909354406243 0.081853135557630491 -0.0029962457417134439
v -0.12508988278095512 0.17459587292685083 0.00040589907387781726
v -0.12468527140440358 0.04694431830221088 -0.0082666425752902159
v -0.12514369803160799 0.19357452736814301 -0.0010948596666514785
v -0.044219760845026192 -0.3790105488545521 -0.0067437997341545097
v -0.093401520654014553 -0.36294877215307897 -0.0059236000405596765
v -0.11656532591915258 -0.35060931719392574 -0.0047724813004717953
v -0.022466241123275669 -0.38184569827353598 -0.0078030691096621528
v -0.15218949755608097 -0.32382254007374145 -0.0022373116557629601
v -0.016217300314908704 -0.38231709521029644 -0.0078807192556705104
v -0.060392048358946675 -0.37479102232028372 -0.0061793942211073238
v -0.036530013533356449 -0.38035399348996513 -0.007145340438220734
v -0.16481590012051184 -0.31120441994460679 -0.0026822076980150904
v -0.17615434096402069 -0.29749703636326014 -0.003863196703728769
v -0.22288964524900712 -0.17934587207066205 -0.0105425332828129
v -0.21977789015563209 -0.20326994029780543 -0.010821192561033775
v -0.22034700771077617 -0.1151521392840779 -0.0087267901375107093
v -0.13130416957577945 -0.34080468527439023 -0.003419846092528875
v -0.13169072712504165 0.023724414724953034 -0.011009925722632681
v -0.19894316639069129 -0.055063304594858267 -0.0092901527192265042
v -0.20696356586737857 -0.070980409416244519 -0.0089809663188737884
v -0.12452001727904786 0.038337711298286919 -0.010189723751065383
v -0.1870601493011973 -0.28325162530539549 -0.0052855047022826035
v -0.18609975567036702 -0.032263586647986578 -0.0091415727208837526
v -0.10168971488557596 0.38438300000000014 -0.0087231359987968299
v -0.085450972534026448 -0.36668021365946252 -0.0060218851556452565
v -0.086840594915117836 0.38438300000000014 -0.0059497358781558816
v -0.071733860423040557 0.38438299999999992 -0.0031912922619469638
v -0.040018073902962227 0.38438299999999992 0.00011137363485980013
v -0.077150793517900704 -0.36966406063277657 -0.0060400244914811142
v -0.056054758800258647 0.38438300000000003 -0.0010577835461726762
v -0.0239605185250093 0.38438300000000003 0.00043901478139111148
v -0.007977845831300439 0.38438299999999992 0.00026477068609048488
v -0.15930590462784722 0.00060872397268472034 -0.0083068481104636351
v -0.22442925684097464 -0.16178365148973209 -0.0098279723787949736
v -0.2210670207504713 -0.19561304456526213 -0.010931326722900481
v -0.22267534389014554 -0.13393527270274902 -0.0090110812463525848
v -0.22354019298612959 -0.14331703785937677 -0.0092150072514779937
v -0.2217065575504697 -0.12451916764037381 -0.0088587516443496966
v -0.20503193167100131 -0.24970832310430835 -0.007667545011662575
v -0.19617824101054471 -0.26708268112432509 -0.0064881390370606033
v -0.19481876306065377 -0.047283135449546376 -0.0093417911746030233
v -0.21291412033691531 -0.088146422262898164 -0.0086068108270673828
v -0.21810353814604694 -0.1060000968747509 -0.0085972706577736521
v -0.21217955209186318 -0.23066413891006035 -0.0090463794553724483
v -0.21800671118581055 -0.21069804645389245 -0.010468656262423
v -0.2101303610271873 -0.079443183648927287 -0.0087689564555732541
v -0.21557121777738839 -0.09700282677470598 -0.0085473678409812241
v -0.20900520804728007 -0.24043021924515501 -0.0083350832455899269
v -0.1703438481434601 -0.012272607270942568 -0.0083835150544074102
v -0.18175483941507004 -0.29054578448306823 -0.0045808873874851695
v -0.19172458892722358 -0.27534709212058833 -0.0059123378206880073
v -0.20064619868555117 -0.2585533825806029 -0.0070589226273158768
v -0.20307711070955586 -0.062918256164406175 -0.0091624992869654281
v -0.19061833035095255 -0.039630995232457465 -0.0092946605972121614
v -0.15286953504422127 0.0064340118342484931 -0.0085532154802976032
v -0.1757022709773709 -0.018782374603231053 -0.0086169699650937674
v -0.18099974248517259 -0.025398133132108917 -0.0088919283177736098
v -0.12435494518640894 0.35295118970700945 -0.012247981203778404
v -0.12447831446842006 0.30043024630584475 -0.010894590664239045
v -0.12434705483723366 0.36095697892586009 -0.012302202978355868
v -0.12450822407882789 0.29108657567699331 -0.010276181316036529
v -0.12492935646639139 0.21343032578496574 -0.0027305851856
v -0.1242555323334034 0.37662495325616457 -0.012279634957224742
v -0.12502984158515817 0.15634131398189749 0.0013702448967462897
v -0.12505168279013545 0.16542662662832522 0.00098658311521876776
v -0.1243613160261494 0.34475957413865577 -0.012158740432863184
v -0.12418175941773538 -0.34613981530159077 -0.0041176845176292094
v -0.12511815944706503 0.090928216955320218 -0.0020464523685995825
v -0.14521922435784351 -0.32948774806654091 -0.0023959744843249468
v -0.12500226404645071 0.1472217747232617 0.0015192426137311801
v -0.11676962242329506 0.38438300000000003 -0.011144866494346156
v -0.22435551590075231 -0.15260838400930296 -0.0094997192557611191
v -0.010471341840869076 -0.38270588083110013 -0.0077286911768436866
v -0.0051241138681711587 -0.38305275238260661 -0.007371198589300779
v -0 0.0297259 -0.12561900000000001
v 0 0.0297259 0.12561900000000001
v -0 0.38438299999999997 -0.12561900000000001
v 0 0.38438299999999997 0.12561900000000001
v -0.0061266250000000001 0.0297259 -0.1250155
v -0.0061268499999999997 0.38438299999999997 0.1250155
v -0.0030634249999999998 0.0297259 0.12531724999999999
v -0.0030633125000000001 0.38438299999999997 -0.12531724999999999
l 33/33 21/21
l 21/21 1/1
l 1/1 28/28
l 28/28 2/2
l 2/2 17/17
l 17/17 3/3
l 3/3 27/27
l 27/27 4/4
l 4/4 23/23
l 23/23 5/5
l 5/5 24/24
l 24/24 6/6
l 6/6 19/19
l 19/19 7/7
l 7/7 31/31
l 31/31 8/8
l 8/8 20/20
l 20/20 9/9
l 9/9 29/29
l 29/29 10/10
l 10/10 16/16
l 16/16 11/11
l 11/11 26/26
l 26/26 12/12
l 12/12 22/22
l 22/22 13/13
l 13/13 34/34
l 34/34 25/25
l 25/25 14/14
l 14/14 18/18
l 18/18 15/15
l 15/15 30/30
l 30/30 32/32
l 32/32 35/35
l 67/67 65/65
l 65/65 50/50
l 50/50 53/53
l 53/53 49/49
l 49/49 59/59
l 59/59 48/48
l 48/48 58/58
l 58/58 47/47
l 47/47 62/62
l 62/62 46/46
l 46/46 51/51
l 51/51 45/45
l 45/45 64/64
l 64/64 44/44
l 44/44 55/55
l 55/55 43/43
l 43/43 66/66
l 66/66 42/42
l 42/42 54/54
l 54/54 41/41
l 41/41 60/60
l 60/60 40/40
l 40/40 57/57
l 57/57 39/39
l 39/39 61/61
l 61/61 38/38
l 38/38 52/52
l 52/52 37/37
l 37/37 63/63
l 63/63 36/36
l 36/36 56/56
l 56/56 68/68
l 68/68 69/69
l 151/151 146/146
l 146/146 122/122
l 122/122 87/87
l 87/87 85/85
l 85/85 148/148
l 148/148 86/86
l 86/86 84/84
l 84/84 145/145
l 145/145 89/89
l 89/89 144/144
l 144/144 121/121
l 121/121 88/88
l 88/88 124/124
l 124/124 147/147
l 147/147 123/123
l 123/123 105/105
l 105/105 71/71
l 71/71 140/140
l 140/140 128/128
l 128/128 94/94
l 94/94 81/81
l 81/81 118/118
l 118/118 95/95
l 95/95 83/83
l 83/83 75/75
l 75/75 115/115
l 115/115 101/101
l 101/101 77/77
l 77/77 129/129
l 129/129 110/110
l 110/110 98/98
l 98/98 141/141
l 141/141 91/91
l 91/91 135/135
l 135/135 111/111
l 111/111 136/136
l 136/136 112/112
l 112/112 114/114
l 114/114 134/134
l 134/134 113/113
l 113/113 131/131
l 131/131 92/92
l 92/92 132/132
l 132/132 109/109
l 109/109 133/133
l 133/133 108/108
l 108/108 117/117
l 117/117 125/125
l 125/125 93/93
l 93/93 116/116
l 116/116 126/126
l 126/126 90/90
l 90/90 142/142
l 142/142 80/80
l 80/80 127/127
l 127/127 74/74
l 74/74 99/99
l 99/99 76/76
l 76/76 139/139
l 139/139 102/102
l 102/102 119/119
l 119/119 100/100
l 100/100 120/120
l 120/120 130/130
l 130/130 143/143
l 143/143 96/96
l 96/96 82/82
l 82/82 97/97
l 97/97 138/138
l 138/138 150/150
l 150/150 137/137
l 137/137 149/149
l 149/149 72/72
l 72/72 104/104
l 104/104 78/78
l 78/78 103/103
l 103/103 73/73
l 73/73 106/106
l 106/106 79/79
l 79/79 107/107
l 107/107 70/70
l 269/269 229/229
l 229/229 175/175
l 175/175 228/228
l 228/228 161/161
l 161/161 225/225
l 225/225 174/174
l 174/174 227/227
l 227/227 156/156
l 156/156 224/224
l 224/224 176/176
l 176/176 223/223
l 223/223 160/160
l 160/160 221/221
l 221/221 173/173
l 173/173 268/268
l 268/268 184/184
l 184/184 260/260
l 260/260 181/181
l 181/181 257/257
l 257/257 255/255
l 255/255 263/263
l 263/263 157/157
l 157/157 195/195
l 195/195 165/165
l 165/165 190/190
l 190/190 256/256
l 256/256 258/258
l 258/258 189/189
l 189/189 163/163
l 163/163 196/196
l 196/196 159/159
l 159/159 192/192
l 192/192 169/169
l 169/169 188/188
l 188/188 259/259
l 259/259 154/154
l 154/154 200/200
l 200/200 167/167
l 167/167 198/198
l 198/198 262/262
l 262/262 261/261
l 261/261 267/267
l 267/267 168/168
l 168/168 194/194
l 194/194 155/155
l 155/155 193/193
l 193/193 164/164
l 164/164 265/265
l 265/265 197/197
l 197/197 158/158
l 158/158 191/191
l 191/191 166/166
l 166/166 199/199
l 199/199 218/218
l 218/218 185/185
l 185/185 215/215
l 215/215 186/186
l 186/186 183/183
l 183/183 252/252
l 252/252 230/230
l 230/230 180/180
l 180/180 246/246
l 246/246 253/253
l 253/253 254/254
l 254/254 220/220
l 220/220 251/251
l 251/251 238/238
l 238/238 216/216
l 216/216 250/250
l 250/250 217/217
l 217/217 243/243
l 243/243 239/239
l 239/239 244/244
l 244/244 240/240
l 240/240 213/213
l 213/213 235/235
l 235/235 233/233
l 233/233 234/234
l 234/234 270/270
l 270/270 231/231
l 231/231 177/177
l 177/177 211/211
l 211/211 178/178
l 178/178 232/232
l 232/232 212/212
l 212/212 242/242
l 242/242 179/179
l 179/179 241/241
l 241/241 245/245
l 245/245 236/236
l 236/236 249/249
l 249/249 237/237
l 237/237 248/248
l 248/248 219/219
l 219/219 247/247
l 247/247 210/210
l 210/210 172/172
l 172/172 209/209
l 209/209 152/152
l 152/152 205/205
l 205/205 266/266
l 266/266 170/170
l 170/170 214/214
l 214/214 264/264
l 264/264 203/203
l 203/203 182/182
l 182/182 187/187
l 187/187 202/202
l 202/202 222/222
l 222/222 226/226
l 226/226 162/162
l 162/162 207/207
l 207/207 153/153
l 153/153 201/201
l 201/201 208/208
l 208/208 171/171
l 171/171 204/204
l 204/204 206/206
l 206/206 271/271
l 271/271 272/272
l 272/272 273/273
l 274/274 507/507
l 274/274 511/511
l 275/275 521/521
l 275/275 568/568
l 276/276 359/359
l 276/276 434/434
l 277/277 296/296
l 277/277 553/553
l 278/278 303/303
l 278/278 394/394
l 279/279 389/389
l 279/279 393/393
l 280/280 520/520
l 280/280 570/570
l 281/281 505/505
l 281/281 562/562
l 282/282 322/322
l 282/282 323/323
l 283/283 330/330
l 283/283 451/451
l 284/284 348/348
l 284/284 420/420
l 285/285 324/324
l 285/285 403/403
l 286/286 319/319
l 286/286 422/422
l 287/287 289/289
l 287/287 396/396
l 288/288 304/304
l 288/288 513/513
l 289/289 303/303
l 290/290 350/350
l 290/290 352/352
l 291/291 350/350
l 291/291 421/421
l 292/292 310/310
l 292/292 358/358
l 293/293 357/357
l 293/293 358/358
l 294/294 413/413
l 294/294 502/502
l 295/295 349/349
l 295/295 417/417
l 296/296 427/427
l 297/297 361/361
l 297/297 395/395
l 298/298 490/490
l 298/298 533/533
l 299/299 508/508
l 299/299 544/544
l 300/300 367/367
l 300/300 512/512
l 301/301 440/440
l 301/301 531/531
l 302/302 314/314
l 302/302 442/442
l 304/304 457/457
l 305/305 452/452
l 305/305 500/500
l 306/306 371/371
l 306/306 498/498
l 307/307 371/371
l 307/307 382/382
l 308/308 383/383
l 308/308 522/522
l 309/309 404/404
l 309/309 497/497
l 310/310 538/538
l 311/311 492/492
l 311/311 526/526
l 312/312 332/332
l 312/312 550/550
l 313/313 430/430
l 313/313 467/467
l 314/314 378/378
l 315/315 331/331
l 315/315 440/440
l 316/316 522/522
l 316/316 544/544
l 317/317 395/395
l 317/317 509/509
l 318/318 441/441
l 318/318 529/529
l 319/319 527/527
l 320/320 451/451
l 320/320 505/505
l 321/321 347/347
l 321/321 520/520
l 322/322 414/414
l 323/323 407/407
l 324/324 349/349
l 325/325 412/412
l 325/325 537/537
l 326/326 353/353
l 326/326 425/425
l 327/327 330/330
l 327/327 455/455
l 328/328 373/373
l 328/328 453/453
l 329/329 376/376
l 329/329 458/458
l 331/331 516/516
l 332/332 496/496
l 333/333 448/448
l 333/333 470/470
l 334/334 433/433
l 334/334 472/472
l 335/335 450/450
l 335/335 556/556
l 336/336 387/387
l 336/336 494/494
l 337/337 342/342
l 337/337 424/424
l 338/338 370/370
l 338/338 503/503
l 339/339 503/503
l 339/339 509/509
l 340/340 405/405
l 340/340 415/415
l 341/341 346/346
l 341/341 558/558
l 342/342 539/539
l 343/343 344/344
l 343/343 540/540
l 344/344 422/422
l 345/345 502/502
l 345/345 525/525
l 346/346 353/353
l 347/347 407/407
l 348/348 408/408
l 351/351 526/526
l 351/351 543/543
l 352/352 561/561
l 354/354 405/405
l 354/354 565/565
l 355/355 565/565
l 355/355 566/566
l 356/356 527/527
l 356/356 538/538
l 357/357 566/566
l 359/359 518/518
l 360/360 396/396
l 360/360 504/504
l 361/361 528/528
l 362/362 528/528
l 362/362 545/545
l 363/363 391/391
l 363/363 432/432
l 364/364 365/365
l 364/364 435/435
l 365/365 549/549
l 366/366 387/387
l 366/366 511/511
l 367/367 384/384
l 368/368 504/504
l 368/368 529/529
l 369/369 370/370
l 369/369 389/389
l 372/372 500/500
l 372/372 530/530
l 373/373 452/452
l 374/374 458/458
l 374/374 547/547
l 375/375 459/459
l 375/375 460/460
l 376/376 462/462
l 377/377 430/430
l 377/377 548/548
l 378/378 466/466
l 379/379 531/531
l 379/379 551/551
l 380/380 493/493
l 380/380 552/552
l 381/381 450/450
l 381/381 484/484
l 382/382 506/506
l 383/383 463/463
l 384/384 385/385
l 385/385 554/554
l 386/386 508/508
l 386/386 560/560
l 388/388 436/436
l 388/388 523/523
l 390/390 532/532
l 390/390 533/533
l 391/391 394/394
l 392/392 534/534
l 392/392 558/558
l 393/393 431/431
l 397/397 410/410
l 397/397 492/492
l 398/398 524/524
l 398/398 536/536
l 399/399 536/536
l 399/399 542/542
l 400/400 535/535
l 400/400 541/541
l 401/401 408/408
l 401/401 535/535
l 402/402 537/537
l 402/402 561/561
l 403/403 423/423
l 404/404 418/418
l 406/406 539/539
l 406/406 540/540
l 409/409 525/525
l 409/409 557/557
l 410/410 417/417
l 411/411 412/412
l 411/411 542/542
l 413/413 491/491
l 414/414 497/497
l 415/415 420/420
l 416/416 491/491
l 416/416 543/543
l 418/418 419/419
l 419/419 426/426
l 421/421 541/541
l 423/423 534/534
l 424/424 567/567
l 425/425 426/426
l 427/427 470/470
l 428/428 482/482
l 428/428 483/483
l 429/429 478/478
l 429/429 483/483
l 431/431 532/532
l 432/432 560/560
l 433/433 510/510
l 434/434 473/473
l 435/435 473/473
l 436/436 490/490
l 437/437 486/486
l 437/437 559/559
l 438/438 441/441
l 438/438 545/545
l 439/439 478/478
l 439/439 551/551
l 442/442 495/495
l 443/443 467/467
l 443/443 515/515
l 444/444 479/479
l 444/444 494/494
l 445/445 446/446
l 445/445 463/463
l 446/446 569/569
l 447/447 485/485
l 447/447 486/486
l 448/448 481/481
l 449/449 482/482
l 449/449 485/485
l 453/453 546/546
l 454/454 501/501
l 454/454 513/513
l 455/455 501/501
l 456/456 546/546
l 456/456 547/547
l 457/457 459/459
l 460/460 461/461
l 461/461 462/462
l 464/464 516/516
l 464/464 548/548
l 465/465 514/514
l 465/465 517/517
l 466/466 514/514
l 468/468 515/515
l 468/468 549/549
l 469/469 495/495
l 469/469 496/496
l 471/471 518/518
l 471/471 563/563
l 472/472 484/484
l 474/474 510/510
l 474/474 550/550
l 475/475 519/519
l 475/475 564/564
l 476/476 519/519
l 476/476 552/552
l 477/477 493/493
l 477/477 517/517
l 479/479 555/555
l 480/480 506/506
l 480/480 554/554
l 481/481 569/569
l 487/487 555/555
l 487/487 556/556
l 488/488 521/521
l 488/488 524/524
l 489/489 523/523
l 489/489 559/559
l 498/498 563/563
l 499/499 553/553
l 499/499 564/564
l 507/507 274/274
l 512/512 571/571
l 530/530 280/280
l 557/557 274/274
l 562/562 281/281
l 567/567 281/281
l 568/568 275/275
l 570/570 280/280
l 571/571 275/275
l 604/604 592/592
l 592/592 572/572
l 572/572 599/599
l 599/599 573/573
l 573/573 588/588
l 588/588 574/574
l 574/574 598/598
l 598/598 575/575
l 575/575 594/594
l 594/594 576/576
l 576/576 595/595
l 595/595 577/577
l 577/577 590/590
l 590/590 578/578
l 578/578 602/602
l 602/602 579/579
l 579/579 591/591
l 591/591 580/580
l 580/580 600/600
l 600/600 581/581
l 581/581 587/587
l 587/587 582/582
l 582/582 597/597
l 597/597 583/583
l 583/583 593/593
l 593/593 584/584
l 584/584 605/605
l 605/605 596/596
l 596/596 585/585
l 585/585 589/589
l 589/589 586/586
l 586/586 601/601
l 601/601 603/603
l 603/603 606/606
l 638/638 636/636
l 636/636 621/621
l 621/621 624/624
l 624/624 620/620
l 620/620 630/630
l 630/630 619/619
l 619/619 629/629
l 629/629 618/618
l 618/618 633/633
l 633/633 617/617
l 617/617 622/622
l 622/622 616/616
l 616/616 635/635
l 635/635 615/615
l 615/615 626/626
l 626/626 614/614
l 614/614 637/637
l 637/637 613/613
l 613/613 625/625
l 625/625 612/612
l 612/612 631/631
l 631/631 611/611
l 611/611 628/628
l 628/628 610/610
l 610/610 632/632
l 632/632 609/609
l 609/609 623/623
l 623/623 608/608
l 608/608 634/634
l 634/634 607/607
l 607/607 627/627
l 627/627 639/639
l 639/639 640/640
l 642/642 718/718
l 718/718 694/694
l 694/694 659/659
l 659/659 657/657
l 657/657 720/720
l 720/720 658/658
l 658/658 656/656
l 656/656 717/717
l 717/717 661/661
l 661/661 716/716
l 716/716 693/693
l 693/693 660/660
l 660/660 696/696
l 696/696 719/719
l 719/719 695/695
l 695/695 677/677
l 677/677 643/643
l 643/643 712/712
l 712/712 700/700
l 700/700 666/666
l 666/666 653/653
l 653/653 690/690
l 690/690 667/667
l 667/667 655/655
l 655/655 647/647
l 647/647 687/687
l 687/687 673/673
l 673/673 649/649
l 649/649 701/701
l 701/701 682/682
l 682/682 670/670
l 670/670 713/713
l 713/713 663/663
l 663/663 707/707
l 707/707 683/683
l 683/683 708/708
l 708/708 684/684
l 684/684 686/686
l 686/686 706/706
l 706/706 685/685
l 685/685 703/703
l 703/703 664/664
l 664/664 704/704
l 704/704 681/681
l 681/681 705/705
l 705/705 680/680
l 680/680 689/689
l 689/689 697/697
l 697/697 665/665
l 665/665 688/688
l 688/688 698/698
l 698/698 662/662
l 662/662 714/714
l 714/714 652/652
l 652/652 699/699
l 699/699 646/646
l 646/646 671/671
l 671/671 648/648
l 648/648 711/711
l 711/711 674/674
l 674/674 691/691
l 691/691 672/672
l 672/672 692/692
l 692/692 702/702
l 702/702 715/715
l 715/715 668/668
l 668/668 654/654
l 654/654 669/669
l 669/669 710/710
l 710/710 722/722
l 722/722 709/709
l 709/709 721/721
l 721/721 644/644
l 644/644 676/676
l 676/676 650/650
l 650/650 675/675
l 675/675 645/645
l 645/645 678/678
l 678/678 651/651
l 651/651 679/679
l 679/679 641/641
l 723/723 802/802
l 802/802 748/748
l 748/748 801/801
l 801/801 734/734
l 734/734 798/798
l 798/798 747/747
l 747/747 800/800
l 800/800 729/729
l 729/729 797/797
l 797/797 749/749
l 749/749 796/796
l 796/796 733/733
l 733/733 794/794
l 794/794 746/746
l 746/746 841/841
l 841/841 757/757
l 757/757 833/833
l 833/833 754/754
l 754/754 830/830
l 830/830 828/828
l 828/828 836/836
l 836/836 730/730
l 730/730 768/768
l 768/768 738/738
l 738/738 763/763
l 763/763 829/829
l 829/829 831/831
l 831/831 762/762
l 762/762 736/736
l 736/736 769/769
l 769/769 732/732
l 732/732 765/765
l 765/765 742/742
l 742/742 761/761
l 761/761 832/832
l 832/832 727/727
l 727/727 773/773
l 773/773 740/740
l 740/740 771/771
l 771/771 835/835
l 835/835 834/834
l 834/834 840/840
l 840/840 741/741
l 741/741 767/767
l 767/767 728/728
l 728/728 766/766
l 766/766 737/737
l 737/737 838/838
l 838/838 770/770
l 770/770 731/731
l 731/731 764/764
l 764/764 739/739
l 739/739 772/772
l 772/772 791/791
l 791/791 758/758
l 758/758 788/788
l 788/788 759/759
l 759/759 756/756
l 756/756 825/825
l 825/825 803/803
l 803/803 753/753
l 753/753 819/819
l 819/819 826/826
l 826/826 827/827
l 827/827 793/793
l 793/793 824/824
l 824/824 811/811
l 811/811 789/789
l 789/789 823/823
l 823/823 790/790
l 790/790 816/816
l 816/816 812/812
l 812/812 817/817
l 817/817 813/813
l 813/813 786/786
l 786/786 808/808
l 808/808 806/806
l 806/806 807/807
l 807/807 842/842
l 842/842 804/804
l 804/804 750/750
l 750/750 784/784
l 784/784 751/751
l 751/751 805/805
l 805/805 785/785
l 785/785 815/815
l 815/815 752/752
l 752/752 814/814
l 814/814 818/818
l 818/818 809/809
l 809/809 822/822
l 822/822 810/810
l 810/810 821/821
l 821/821 792/792
l 792/792 820/820
l 820/820 783/783
l 783/783 745/745
l 745/745 782/782
l 782/782 725/725
l 725/725 778/778
l 778/778 839/839
l 839/839 743/743
l 743/743 787/787
l 787/787 837/837
l 837/837 776/776
l 776/776 755/755
l 755/755 760/760
l 760/760 775/775
l 775/775 795/795
l 795/795 799/799
l 799/799 735/735
l 735/735 780/780
l 780/780 726/726
l 726/726 774/774
l 774/774 781/781
l 781/781 744/744
l 744/744 777/777
l 777/777 779/779
l 779/779 843/843
l 843/843 844/844
l 844/844 724/724
l 845/845 849/849
l 846/846 851/851
l 847/847 852/852
l 848/848 850/850
l 849/849 845/845
l 850/850 848/848
l 851/851 846/846
l 852/852 847/847
