v 0.51057740409575825 2.8066307041417846 -3.5408115069812856
v 1.0173697309915244 2.83938222523371 -3.4843227698551007
v 1.5182160076544884 2.8829689871999862 -3.4293776455541414
v 2.0149850000000002 2.9309661900000004 -3.3751180000000014
v -6.9388939039071899e-18 2.7749016738886101 -3.5974899829451701
v 2.0152516030043501 6.8656263204753429 42.753093584883224
v 4.4054156626934624 7.7410514322284874 42.823824310532999
v 2.7799986963365022 7.0672158219436412 42.793237839530931
v 5.2261850000000001 8.1859646900000005 42.823730500000003
v 3.5852605370017354 7.355980178518438 42.815772111602271
v 1.3019672643118194 6.7385195123058725 42.693829063515636
v 0.63744268930024872 6.6521212629908764 42.619393242557237
v -2.0816681711721765e-17 6.6019980792833888 42.536071980783888
v 4.6167227585860324 -8.2438270943917438 -29.231347169937962
v 5.6688907403495357 -7.9639702763710591 -29.046116314586651
v 6.6442130283706566 -7.6456682444738648 -28.826479604417486
v 1.1804667622560925 -8.7619045095741228 -29.620576095359965
v 2.3526651860168064 -8.643356067516148 -29.510290316126177
v 3.5044245220257224 -8.4730504358971697 -29.383721735998563
v -3.989863994746734e-17 -8.8357521976306295 -29.726789542020811
v 9.1440750000000008 -6.5780593100000004 -28.024968500000007
v 8.359465740222074 -6.9380704888872149 -28.307834944055401
v 7.535423299292062 -7.2947734965330557 -28.579022094204745
v 7.0232150000000004 -0.99923430999999996 -62.356329500000001
v 6.3434150000000002 -0.89343430999999995 -62.815189500000002
v 8.7725650000000002 -1.4993343100000001 -60.681279500000002
v 9.6998549999999994 -1.94983431 -59.384839499999998
v 1.8715850000000001 2.2240656900000002 -7.8887704999999997
v 11.562905000000001 -3.0833343100000001 -55.857509499999999
v 1.7578850000000001 0.37206569 -12.6630705
v 12.705825000000001 -3.8795243099999999 -52.844569499999999
v 12.936145 -4.06650431 -52.069269499999997
v 3.7028850000000002 6.5337666900000002 26.474930499999999
v 13.497394999999999 -4.5924343099999998 -49.701068499999998
v 2.3469850000000001 4.1075656900000004 5.2027285000000001
v 13.763335 -4.9123943099999998 -48.094070500000001
v 13.641415 -4.7555143099999997 -48.900069500000001
v 2.5959850000000002 4.7219666900000004 10.109230500000004
v 14.020535000000001 -5.7229543100000004 -43.192668500000003
v 2.5495850000000004 4.6216666899999996 9.2914275000000011
v 2.5008849999999998 4.5199666900000004 8.4739304999999998
v 13.983045000000001 -5.8356443100000002 -42.3710685
v 13.838475000000001 -6.0408543100000003 -40.729968499999998
v -2.7755575615628162e-17 -3.9498630134662704 -60.092093211820142
v 13.264754999999999 -6.3710543099999999 -37.477569500000001
v 2.869285000000001 5.2947656900000002 15.019531500000003
v 3.4301849999999998 6.1874656899999998 23.203727500000003
v 12.588295 -6.5431643099999999 -35.087569500000001
v 2.8177850000000011 5.2013646900000001 14.201233500000001
v 9.8144449999999992 -6.6303943100000007 -29.072669500000003
v 4.8072850000000003 7.7689656899999999 38.740730499999998
v 4.729285 7.6880646900000027 37.9237295
v 6.8879549999999998 -6.28138431 -25.067168500000001
v 4.6310849999999997 -5.7907943100000017 -22.683868500000003
v 3.6231849999999999 -5.3508843100000005 -21.445869500000004
v -6.1629758220391547e-33 6.5507255209267097 40.796117102612719
v 2.2636850000000002 -3.9798243100000001 -18.7651705
v 2.521385 -4.3741243100000009 -19.448169499999999
v 4.9623850000000003 7.9285666900000002 40.376732500000003
v 5.0462850000000001 8.0121656899999998 41.192733500000003
v 3.1518850000000009 5.7552646900000006 19.109932499999999
v 6.4498150000000001 9.3779666899999992 53.4137275
v 3.2615850000000002 5.9307656900000003 20.747329499999999
v -2.7755575615628886e-17 -8.8642307411326549 -48.801090076540781
v 0 -0.85843431000000003 -64.283729500000007
v 6.8647650000000002 9.7246646899999991 60.665733500000002
v 2.4801850000000001 -0.75523430999999996 -64.190029499999994
v 3.2945850000000001 -0.73663431000000001 -64.046629499999995
v -6.9388939039071766e-17 -0.27875265797006915 -13.547976709764278
v 6.0439450000000017 8.97896669 50.162727500000003
v 5.6846150000000009 8.6282656899999992 46.900734499999999
v 5.7751150000000004 8.71556569 47.715728499999997
v 4.0943849999999999 -0.73953431000000003 -63.835769499999998
v 1.9498850000000001 2.6296656899999999 -5.4149705000000017
v 5.6249849999999997 -0.81593431000000005 -63.217329499999998
v 7.6573450000000003 -1.1359343099999999 -61.843849499999997
v -2.0816681711724668e-17 -8.1646132690776803 -27.429664535175675
v 8.2431549999999998 -1.3015343100000001 -61.2839995
v 9.2561049999999998 -1.71793431 -60.045699499999998
v 2.1338849999999998 3.4481666900000008 0.30013250000000002
v 10.503344999999999 -2.4198343100000002 -58.010559499999999
v 10.111855 -2.18703431 -58.704349499999999
v 1.791385 1.16326569 -11.1423685
v 11.227824999999999 -2.8691343100000002 -56.586099500000003
v 10.873965 -2.6483343100000001 -57.303729500000003
v 11.878825000000001 -3.2914343100000001 -55.1185695
v 2.2780849999999999 3.894665690000001 3.5675275000000006
v 1.7429850000000002 -0.083834309999999995 -13.389568499999999
v 1.7270850000000004 -0.58413431000000005 -14.084968500000006
v 2.2057850000000001 3.6758656900000002 1.9332275000000001
v 12.174944999999999 -3.4933043100000001 -54.369669500000001
v 12.451255 -3.6890343099999998 -53.611569500000002
v 3.6346850000000002 6.4479656900000002 25.65702850000001
v 13.331614999999999 -4.4233943099999999 -50.496769499999999
v 13.144225 -4.2481743099999996 -51.286269500000003
v 2.416185 4.31496469 6.8385315000000002
v 3.4955850000000011 6.2740656900000014 24.021827500000001
v 4.6507849999999999 7.6066646900000023 37.105728499999998
v 4.5719849999999997 7.52396669 36.2887275
v 4.412185 7.3581666900000009 34.654731499999997
v 13.862954999999999 -5.0631943100000001 -47.283868499999997
v 3.9044850000000002 6.7831656900000015 28.929634499999999
v 13.994545 -5.3460843100000002 -45.653468500000002
v 13.940045 -5.2077243099999997 -46.4701685
v 2.6416849999999998 4.8206656900000002 10.927231500000001
v 14.034915 -5.60378431 -44.014070500000003
v 4.1682850000000009 7.1032666900000008 32.204231500000006
v 4.2479849999999999 7.1885646899999998 33.021133499999998
v 2.4545849999999998 4.4171666900000002 7.6564335000000003
v 5.4114850000000017 8.3638656900000008 44.454727499999997
v 14.026195 -5.4780743100000002 -44.834569500000001
v 13.922314999999999 -5.9416143100000003 -41.549970500000001
v 4.0359850000000002 6.9445656900000019 30.566932500000004
v 3.970485 6.863765690000001 29.748230499999998
v 13.599735000000001 -6.21923431 -39.096669499999997
v 13.731045 -6.1333043099999998 -39.911969499999998
v 3.838085 6.7003656900000008 28.111328499999999
v 13.444455 -6.2983643100000002 -38.284869499999999
v 3.3687850000000008 6.1010646900000021 22.385429500000001
v 12.836264999999999 -6.49377431 -35.878268499999997
v 13.061655 -6.4363743099999997 -36.675269499999999
v 2.7309850000000009 5.0138646900000001 12.563827500000002
v 2.773285 5.10806469 13.3825305
v 12.317835000000001 -6.5845243099999999 -34.303869499999998
v 4.4922850000000007 7.4416656899999998 35.471733499999999
v 11.709965 -6.6423343099999999 -32.760268500000002
v 12.025035000000001 -6.6175743100000002 -33.527869500000001
v 1.717185 -1.11103431 -14.762267500000004
v 1.712785 -1.6299343100000008 -15.410770500000002
v 1.7329850000000002 -2.1459343099999999 -16.059970499999999
v 11.373044999999999 -6.6583643099999996 -32.0018685
v 11.014605 -6.6655543100000001 -31.253268500000001
v -1.3877787807814676e-17 -9.6653244926727027 -44.738883607996527
v 10.635075000000001 -6.6634343100000004 -30.515067500000001
v 10.234945 -6.6519643100000003 -29.787971500000001
v 4.8837849999999996 7.8485666900000002 39.558731500000007
v 1.7966850000000001 -2.6381343099999999 -16.7255705
v 9.3740649999999999 -6.5990543099999996 -28.369769500000004
v 8.4349349999999994 -6.5048843099999996 -27.004367500000001
v 8.914085 -6.5570643100000003 -27.68016750000001
v 1.9034850000000003 -3.1083343100000005 -17.400768500000005
v 7.421335 -6.3673243099999999 -25.697170499999999
v 2.0585849999999999 -3.5565643100000011 -18.081870500000001
v 7.937195 -6.4416143100000003 -26.343269500000002
v -2.7755575615628692e-17 5.1640299680549528 17.472559948379754
v 6.3347550000000004 -6.1857243100000003 -24.455871500000001
v 5.134385 8.0975646900000005 42.008728499999997
v 5.1938849999999999 -5.9471443099999997 -23.272571500000009
v 5.7703850000000001 -6.0742043099999998 -23.8576695
v 4.1052850000000003 -5.5912243100000003 -22.074168499999999
v 1.3877787807814457e-17 6.475845783067804 38.788115823814209
v 3.200485 -5.0630043100000002 -20.793571499999999
v -1.3877787807814454e-17 -9.6195055586361988 -33.589806884145538
v 2.8328850000000001 -4.7369343099999996 -20.1254685
v 3.0959850000000011 5.6656646899999998 18.291527500000001
v 3.039485 5.5746656899999998 17.4733275
v 6.5522049999999998 9.4809646900000004 54.225731500000016
v 2.9814850000000002 5.4822656900000002 16.655433500000001
v 2.9241850000000009 5.3889656900000018 15.8375325
v 6.3460150000000004 9.2750646900000007 52.601730500000002
v 3.3140849999999999 6.0161656900000002 21.566429500000002
v 6.7575550000000018 9.6865656900000001 55.850731500000002
v 6.856905000000002 9.7931656900000004 56.663727500000007
v 3.206985 5.8436666900000001 19.928528499999999
v 4.4592850000000004 7.7577656900000003 63.254738500000002
v 3.777085 7.41216469 63.561729499999998
v 5.5029849999999998 8.4520646900000003 45.269729499999997
v 5.0807849999999997 8.1507646900000008 62.885734499999998
v 3.049185 7.1169646899999996 63.8127365
v 2.0022850000000005 2.8716666900000005 -3.7832675000000004
v 2.3811849999999999 4.2118646899999996 6.0205304999999996
v 0 4.3072417900000008 8.8562649199999992
v 2.2425850000000001 3.7859656899999998 2.7503285000000006
v 2.3130850000000001 4.0019646900000003 4.3849334999999998
v 2.7755575615628892e-17 -9.3125570000036717 -46.807195851304996
v 1.3877787807814457e-17 3.9297248790019212 5.4000494157358769
v 1.3877787807814531e-17 -8.5096690259906751 -28.561133698124586
v 2.1694849999999999 3.563865690000001 1.1164324999999999
v 2.285285 6.8824656900000001 64.018730500000004
v 0 -7.7432576800000001 -52.441538850000001
v 7.0666650000000004 9.9820656900000007 59.920730499999998
v 7.1082650000000003 10.04336569 59.114731499999998
v 7.0578450000000004 10.004366689999999 58.286728500000002
v 1.658385 -0.80443430999999999 -64.251119500000001
v 0.83198499999999997 -0.85073430999999999 -64.269349500000004
v 5.8648249999999997 8.8037646899999995 48.531730500000023
v 5.9532749999999997 8.8900666900000012 49.347732499999999
v 4.8730849999999997 -0.76523430999999997 -63.558179500000001
v 2.7755575615628914e-17 6.7455324658606175 56.831127392295393
v 1.850185 2.0289656900000002 -8.7231714999999994
v 1.829485 1.7840656900000007 -9.5447694999999992
v 2.1009850000000001 3.3370656900000006 -0.51676949999999999
v 1.809885 1.4959656900000005 -10.352268499999999
v 3.7707850000000001 6.6176646899999998 27.293029499999999
v 6.9685949999999997 9.9139656899999995 57.473732499999997
v 5.6468850000000002 8.5551646899999998 62.447731500000003
v 6.2432550000000004 9.1734666899999997 51.789734500000002
v 6.1413950000000002 9.0749646899999998 50.976730500000002
v 2.686585 4.9184646900000004 11.745430500000003
v 5.3196849999999998 8.2752656899999995 43.638733500000001
v 5.5936849999999998 8.5405656899999993 46.084732500000001
v 0 6.6765293600000009 46.36450407000001
v 1.9763850000000005 2.7514656899999999 -4.5991704999999996
v 1.922085 2.5104656900000006 -6.2311705000000028
v 1.8952850000000001 2.3812656900000002 -7.0456695000000025
v 0 6.7231685079705104 58.91531968421603
v 5.5466782398352393e-32 2.7074560857851404 -4.0952043463380514
v 2.027685 2.9902656900000002 -2.9669685000000001
v 2.0753849999999998 3.2254666900000006 -1.3339684999999999
v 2.0525850000000001 3.1074666900000003 -2.1504705
v 8.3816471179732504e-31 6.7201660756738697 48.776175059640821
v 1.7739850000000001 0.78866568999999997 -11.913867500000002
v 0 5.83467571 26.238907000000005
v 3.564385000000001 6.3615646899999998 24.8394315
v 4.3315850000000005 7.2738656900000009 33.837631500000001
v 4.0999850000000002 7.0237656900000012 31.385727500000002
v 5.5511151231257827e-17 6.1109170596888696 30.566480022511922
v 0 -9.7766402784974424 -43.900589396804904
v 5.2261850000000001 8.1859646900000005 42.823730500000003
v 6.6542849999999998 9.58446569 55.0387275
v 6.1377449999999998 8.9737646899999994 61.935730499999998
v 6.5444950000000004 9.3745656900000007 61.3447265
v 1.493085 6.7141656899999997 64.170723499999994
v -2.7755575615628914e-17 -9.9718923290391945 -36.856612934962804
v 2.7755575615628907e-17 1.2999707477908151 -10.618964872295006
v -1.3877787807814743e-17 -7.7909407870714986 -26.346988001771003
v 6.9388939039069341e-18 0.19871804316235211 -12.789608153054584
v -3.4694469519532213e-18 -10.00033732911155 -41.258477640665376
v 2.7755575615628914e-17 2.5377354142845605 -5.2618338802139011
v 2.7755575615628914e-17 5.0234709371161603 15.887120295629488
v 3.469446951953433e-17 6.2750574367992762 33.796823924263379
v -1.7347234759771063e-17 6.6351651109701262 63.160194954023275
v -2.7755575615628932e-17 -9.5016658401741871 -45.778670874166245
v 2.0816681711721688e-17 -2.6963071415212321 -16.714616203001668
v -1.3877787807814642e-17 5.2462695869232769 18.451524809251644
v 2.7755575615628914e-17 6.4380316472682297 37.830424878149856
v 0 -3.3737149245532878 -60.951687907734282
v 0 -9.3919490079616494 -32.288820139554161
v -1.2143064331837508e-17 -3.2538653628359331 -17.500735539498791
v 5.5511151231257827e-17 -3.8271485173876041 -18.357218089311289
v -2.0816681711721546e-17 -4.415859304225159 -19.301154011517983
v 1.3877787807814457e-17 -9.7847992599870004 -34.811914964712443
v 5.5511151231257827e-17 -5.6705769378631654 -57.128144632041327
v -6.9388939039062808e-18 -6.1323585199497606 -56.228619775055293
v 0 5.4876884723068855 21.357727276183041
v 6.0715321659181022e-18 5.3154315425182395 19.371146528768129
v 6.9388939039070497e-18 -5.3913069152694861 -20.981688324363809
v -5.5511151231257827e-17 -9.895749293522119 -35.874082064563552
v 0 -6.6205349283871984 -23.450472835425785
v 0 5.6819421179219933 23.818502846227119
v 1.3877787807815273e-17 5.7566707331499813 24.891956715502708
v -1.3877787807814272e-17 -6.9581329047220875 -24.231537289939737
v 1.3877787807814457e-17 6.595973773355615 64.279505083823537
v 2.0816681711721269e-17 4.4234282067607982 9.8864856018825336
v -2.7755575615628926e-17 4.1990376802474252 7.7193763102443533
v 2.7755575615629024e-17 3.8000678843641515 4.3306439999730895
v 4.163336342344342e-17 3.6729772245782266 3.2922741032452696
v -2.7755575615629524e-17 -8.1337405736152402 -51.300595142084944
v 1.3877787807814457e-17 3.2799796149810634 0.17364850501666249
v -1.3877787807814454e-17 3.5252128741813542 2.109667458721658
v 0 3.3894173553814531 1.0321755019697523
v 0 -1.7699981985958115 -63.130976353724741
v 5.5511151231257827e-17 -0.79494109000798729 -14.271331722145394
v 1.1102230246251565e-16 0.80605047447680489 -11.716575769335831
v -6.9388939039072284e-18 6.70257844362283 59.904442414076584
v -3.4694469519536142e-17 6.7014797779532076 47.547014322177958
v 2.7755575615628914e-17 1.6903329394700983 -9.5273542193910661
v -6.9388939039074687e-18 -10.024017870424673 -37.94446249937323
v 0 -10.044810627757371 -38.985887378560776
v -2.7755575615628914e-17 6.6643404506135626 45.235009010928593
v -4.857225732735058e-17 2.3350133472124637 -6.652482467085834
v -2.7755575615628914e-17 -5.2592857816280167 -57.892459735278379
v 6.9388939039072333e-17 2.1067904717018537 -7.9218508640526064
v -5.5511151231257827e-17 1.9271166452698245 -8.7378347167369022
v 6.9388939039072284e-18 -10.042143499948253 -40.119474522811288
v -2.7755575615628914e-17 6.1567159451009186 31.474839847623429
v -1.1102230246251565e-16 -7.409513053629877 -25.346933014667712
v 2.6020852139652208e-17 -2.677104275931939 -61.948932759568486
v 5.5511151231257827e-17 6.7558870352656228 52.833514438337701
v -6.9388939039040683e-18 6.3767051245015471 36.283518036798469
v -1.3877787807813868e-17 6.3290510705414382 34.898908133554571
v -3.1225022567583021e-17 5.9293612511375073 27.678774004438047
v -2.7755575615629185e-17 4.5359045138517207 10.961516890629486
v -6.9388939039071261e-17 -7.3090922893808168 -53.567879896604254
v 5.5511151231257827e-17 -9.8589965597120646 -43.103246637712004
v 8.5511289530793272e-32 -4.492957994654188 -59.222630466561469
v -2.4286128663675244e-17 6.0388171629230003 29.528866993612368
v 2.7755575615628914e-17 5.9988393360398771 28.674142322028931
v 2.7755575615628914e-17 5.1015394835094288 16.734708120981935
v 0 -1.3271428626615343 -14.958056226761233
v -1.3877787807814457e-17 -2.0650835782374162 -15.883540674066543
v -1.3877787807814599e-17 6.5873050019188861 41.991704915743114
v 2.7755575615627089e-17 6.5141007813517247 39.773619848135937
v -2.7755575615628914e-17 6.6401044237578164 44.079494397248375
v -2.7755575615628914e-17 6.6166911566478888 43.080439045824654
v -1.3877787807813763e-17 -4.9357579221589019 -20.178075106729661
v -3.6429192995510262e-17 -6.9159984711979448 -54.531975648750304
v 0 -5.8428382060891506 -21.840414826955559
v -1.3877787807814457e-17 5.4057218600949959 20.359311448401055
v -6.9388939039071822e-18 -6.2834034759880364 -22.728574401213926
v -6.9388939039072284e-17 5.617909072445614 23.01165859230116
v 0 5.5543091794307022 22.20434285117102
v 0 -6.5139630277633724 -55.416286414621723
v -1.3877787807814457e-17 6.7522510246942691 52.025041451573472
v -3.989863994746734e-17 -8.8357521976306295 -29.726789542020811
v -1.1102230246251565e-16 6.6953315533528901 61.013018382023731
v 1.3877787807814814e-17 6.6701193014605069 61.96810654710292
v 0 3.0341184295847849 -1.8695775639349688
v -2.7755575615628864e-17 -9.1322589439786377 -30.984993465915647
v 4.1633363423443383e-17 4.6478892127189422 12.062771395520432
v 0 -9.0991605170254566 -47.819245557212696
v 1.3877787807814457e-17 4.0628467858304926 6.5285991496217211
v -2.7755575615628914e-17 -8.5682727869036839 -49.884440422550171
v 1.3877787807814438e-17 3.1396494849926593 -0.95831188671216161
v -2.7755575615630183e-17 6.7310893993367493 49.891036019610695
v 5.5511151231257827e-17 6.7628301970226978 55.222026575796903
v -1.3877787807814438e-17 2.8423472619920798 -3.0997756195522879
v 5.3926038442842604e-31 6.743036334989613 50.943670560152427
v 2.0816681711722351e-17 4.7516581222761349 13.153295978026875
v -5.5511151231257827e-17 6.756609391099011 56.009341790089493
v 1.3877787807814709e-17 6.7332137584613472 57.873171933679188
v 6.938893903907082e-18 6.7622050356777503 53.675691397913461
v 9.5409791178724513e-18 4.9372168958700779 15.013645801988833
v -8.6736173798840124e-18 4.8509628546239947 14.140171308348179
v 2.6020852139652304e-17 -9.9296669444118066 -42.18086213918869
v 6.9388939039072345e-18 6.208390360169096 32.591620002656605
v 7.9502500000000005 -1.2187343099999999 -61.563924499999999
v 9.905854999999999 -2.0684343099999998 -59.044594500000002
v 2.1516849999999996 3.5060161900000009 0.70828249999999993
v 1.7659349999999998 0.58036569000000005 -12.288468999999999
v 4.7682850000000006 7.7285151900000004 38.332229999999996
v 13.414504999999998 -4.5079143100000003 -50.098918999999995
v 13.901499999999999 -5.1354593099999999 -46.877018499999998
v 14.027725 -5.6633693100000002 -43.603369499999999
v 13.522095 -6.2587993100000006 -38.690769500000002
v 3.462885 6.2307656900000019 23.6127775
v 2.7955350000000001 5.1547146900000005 13.791882000000001
v 12.171435000000001 -6.6010493100000005 -33.915869499999999
v 11.541505000000001 -6.6503493099999993 -32.381068499999998
v 10.024694999999999 -6.6411793100000001 -29.430320500000001
v 9.1440750000000008 -6.5780593100000004 -28.024968500000007
v 7.1546450000000004 -6.3243543100000004 -25.3821695
v 6.0525700000000002 -6.1299643100000001 -24.1567705
v 2.3925350000000001 -4.1769743100000003 -19.106670000000001
v -2.0816681711721685e-17 -9.8402742767545597 -35.342998514637998
v 3.2342849999999999 5.8872161900000011 20.337928999999999
v -6.9388939039072284e-18 5.4467051662009416 20.858519362292043
v 5.3638349999999999 8.3529646900000003 62.666733000000001
v 6.09267 9.0269656900000008 50.569729000000002
v 1.7221350000000002 -0.84758431000000023 -14.423618000000005
v 1.8891849999999999 6.7983156899999999 64.094727000000006
v 2.0692849999999998 -0.77983431000000003 -64.220574499999998
v 5.2490349999999992 -0.79058431000000007 -63.3877545
v 5.7298650000000002 8.6719156899999987 47.308231499999998
v 8.5078600000000009 -1.4004343100000001 -60.982639500000005
v 9.4779799999999987 -1.83388431 -59.715269499999998
v 2.117435 3.39261619 -0.10831849999999998
v 1.7826849999999999 0.97596569 -11.528117999999999
v 1.7504350000000002 0.14411569000000002 -13.026319500000003
v 2.260335 3.8403156900000002 3.1589280000000008
v 1.7350350000000003 -0.33398431000000001 -13.737268499999999
v 2.1876350000000002 3.6198656900000001 1.5248300000000004
v 12.313099999999999 -3.5911693099999997 -53.990619500000001
v 12.026885 -3.3923693100000003 -54.744119499999996
v 2.0816681711721741e-17 3.8648963816830362 4.8653467078544832
v 13.237919999999999 -4.3357843099999993 -50.891519500000001
v 2.398685 4.2634146899999994 6.4295309999999999
v 6.9657150000000003 9.8533651899999999 60.293232000000003
v 2.3640850000000002 4.15971519 5.6116294999999994
v 3.5299849999999999 6.3178151900000001 24.430629500000002
v 13.967295 -5.2769043099999999 -46.061818500000001
v 2.6188349999999998 4.7713161900000003 10.518231
v 4.0679850000000002 6.9841656900000002 30.976330000000001
v 4.1341350000000006 7.0635161899999996 31.7949795
v 14.00179 -5.7792993100000007 -42.781868500000002
v 3.8044349999999998 6.6590151899999999 27.702179000000001
v 13.354604999999999 -6.33470931 -37.8812195
v -1.7347234759770505e-18 5.9641002935886913 28.176458163233484
v 2.752135 5.0609646900000005 12.973179000000004
v 12.453065 -6.5638443100000003 -34.695719499999996
v 4.4522349999999999 7.3999161899999999 35.063232499999998
v 11.8675 -6.6299543100000005 -33.144069000000002
v 1.714985 -1.3704843100000001 -15.086519000000003
v 1.7228850000000007 -1.8879343100000001 -15.735370499999998
v -2.0816681711721802e-17 -9.5834951664234449 -45.25877724108139
v 11.193825 -6.6619593100000003 -31.627568500000002
v 10.43501 -6.6576993099999999 -30.151519499999999
v 4.8455349999999999 7.8087661900000001 39.149731000000003
v 1.7648350000000002 -2.3920343099999997 -16.392770499999997
v 1.8500850000000002 -2.87323431 -17.063169500000001
v 8.6745099999999997 -6.5309743099999995 -27.342267499999998
v 7.679265 -6.4044693099999996 -26.020220000000002
v 2.1611349999999998 -3.7681943100000002 -18.423520500000002
v 5.4821350000000004 -6.0106743100000015 -23.565120499999999
v 6.50101 9.4294656900000007 53.819729500000001
v 2.9528350000000003 5.4356156900000006 16.246483000000001
v 3.1794349999999998 5.7994656899999999 19.519230499999999
v -3.4694469519536142e-17 5.5861091259381581 22.60800072173609
v 4.770035 7.954265190000001 63.0702365
v 2.0401350000000003 3.04886619 -2.5587195
v 2.6641350000000004 4.8695651900000003 11.336330999999999
v 12.71228 -6.5184693100000004 -35.482918999999995
v 2.295585 3.9483151900000002 3.9762304999999998
v 1.3877787807814448e-17 3.2098145499868607 -0.39233169084774955
v 1.9893350000000001 2.8115661899999997 -4.1912190000000002
v 2.6672349999999998 6.9997151899999999 63.915733500000002
v 5.3655849999999994 8.319565690000001 44.046730499999995
v 7.0830549999999999 10.02386619 58.70073
v 1.245185 -0.82758430999999999 -64.260234499999996
v -6.9388939039069695e-18 -0.53684687398902819 -13.909654215954836
v 0.41599249999999999 -0.85458431000000001 -64.276539500000013
v 4.4837349999999994 -0.75238431000000006 -63.696974499999996
v 1.8398349999999999 1.9065156900000002 -9.1339705000000002
v 1.883435 2.3026656900000004 -7.4672200000000011
v 2.0881850000000002 3.2812661900000006 -0.92536899999999989
v 1.8006350000000004 1.32961569 -10.747318499999999
v 3.7368350000000001 6.57571569 26.883980000000001
v 3.5995350000000004 6.40476519 25.24823
v 6.6032449999999994 9.5327151900000011 54.632229500000022
v 7.0132200000000022 9.9591661899999995 57.880230499999996
v 5.892315 8.7644646900000005 62.191731000000004
v 6.1923250000000003 9.1242156899999998 51.383232500000005
v 5.6391500000000008 8.5844156900000002 46.492733500000007
v 5.4572349999999998 8.4079651900000005 44.862228500000001
v 6.7046299999999999 9.5496151900000008 61.005229999999997
v 1.9359850000000001 2.5700656900000003 -5.8230705
v 1.9631350000000003 2.6905656899999997 -5.0070704999999993
v 1.9086850000000002 2.4458656900000002 -6.63842
v 1.3877787807814484e-17 2.6225957500348502 -4.6785191132759767
v 2.0149850000000002 2.9309661900000004 -3.3751180000000014
v -1.3877787807814457e-17 1.8087247923699612 -9.132594468063985
v 1.819685 1.6400156900000007 -9.948519000000001
v 1.8608850000000001 2.1265156900000006 -8.3059709999999995
v 2.0639849999999997 3.1664666900000005 -1.7422195
v 3.1225022567582454e-17 6.7590460354716866 53.254602918125585
v 3.6687850000000011 6.490866190000002 26.065979499999997
v 6.9388939039076367e-18 5.7956732215749902 25.565431857751356
v 6.3411200000000001 9.1741651900000001 61.640228499999999
v 0.7465425 6.6550697316778074 64.225114291911765
v -1.7347234759783032e-18 6.6155694421628706 63.71985001892341
v 2.8967350000000009 5.3418656900000006 15.428532000000001
v 4.3718849999999998 7.3160161900000009 34.246181499999999
v -1.0408340855860835e-17 2.4363743807485116 -5.9571581736498675
v -2.0029671421627253e-32 -9.4071114200889294 -46.292933362735624
v 4.3368086899420886e-18 -2.9750862521785821 -17.10767587125023
v 1.0408340855862423e-17 6.4073683858848884 37.056971457474162
v 2.1684043449710166e-17 -3.5405069401117695 -17.92897681440504
v 1.7347234759768139e-17 -4.1215039108063811 -18.829186050414634
v -1.7347234759767655e-17 -4.6758086131920304 -19.739614559123822
v -6.9388939039071359e-18 -6.7893339165546429 -23.841005062682761
v 6.9388939039076367e-18 5.7193064255359873 24.355229780864924
v 3.4694469519536228e-17 3.7365225544711889 3.8114590516091793
v -6.9388939039072268e-18 3.4573151147814034 1.5709214803457052
v 2.7755575615628914e-17 -1.0610419763347607 -14.614693974453314
v 5.8980598183211293e-17 0.50238425881957838 -12.253091961195203
v 6.9388939039072284e-17 1.05301061113381 -11.167770320815418
v 2.775557561562891e-17 1.4951518436304565 -10.073159545843037
v 6.9388939039072284e-18 3.3346984851812578 0.60291200349320739
v 1.040834085586087e-17 2.2209019094571589 -7.2871666655692202
v 6.9388939039072469e-18 2.0169535584858389 -8.3298427903947534
v 2.0816681711721685e-17 6.754069029979946 52.429277944955587
v 1.7347234759768348e-18 6.0188282494814382 29.101504657820652
v -6.9388939039072284e-18 -1.6961132204494755 -15.420798450413891
v 1.3877787807813538e-17 6.5324131511392167 40.284868475374324
v 2.0816681711720776e-17 6.4949732822097648 39.280867835975073
v 2.0816681711721688e-17 6.4569387151680164 38.309270350982032
v -2.7755575615628914e-17 6.6283977902028521 43.579966721536508
v 6.9388939039073532e-18 6.7281911332159279 58.394245808947609
v -3.4694469519533577e-18 -5.163532418714194 -20.579881715546733
v 3.4694469519535241e-18 -5.6170725606793175 -21.411051575659684
v -3.4694469519535911e-18 -6.0631208410385939 -22.284494614084743
v -3.903127820948178e-18 5.3605767013066181 19.86522898858459
v -3.4694469519535911e-18 -6.4519692021876196 -23.089523618319852
v 0 5.5209988258687934 21.781035063677031
v -1.8214596497755131e-17 -6.7149807494806586 -54.974131031686014
v -6.9388939039069587e-18 6.747643679841941 51.484356005862949
v 1.1093356479670479e-31 5.1327847257821908 17.103634034680844
v -5.8980598183211441e-17 6.69895499848786 60.458730398050157
v -6.9388939039072191e-18 2.9382328457884328 -2.4846765917436282
v 1.3877787807814446e-17 -9.2058587585145641 -47.313220704258846
v -1.3877787807814443e-17 -8.9816956290790557 -48.310167816876742
v -1.7347234759768071e-17 6.6890045689766042 46.955759196088984
v -3.1225022567582417e-17 -0.040017307403858532 -13.168792431409431
v -1.7347234759767652e-17 6.71082292681354 48.161594690909411
v 6.9388939039072191e-18 3.0868839572887219 -1.4139447253235651
v 1.3877787807814457e-17 6.1338165023948932 31.02065993506768
v -1.387778780781482e-17 6.7370628671631803 50.417353289881568
v 3.4694469519536142e-18 -2.3806953598793239 -16.299078438534107
v -2.0816681711721765e-17 6.6019980792833888 42.536071980783888
v -1.0408340855860839e-17 6.1825531526350064 32.03322992514002
v -3.4694469519531404e-18 -6.3231607738565661 -55.822453094838508
v -4.857225732735042e-17 6.6827254274066981 61.490562464563325
v 0 6.7597197940608531 55.615684182943212
v 2.0816681711721811e-17 6.7393731121609823 57.352149662987287
v -1.3877787807814457e-17 6.7510709284798143 56.42023459119244
v -4.163336342344337e-17 -9.9338208112806576 -36.365347499763175
v -6.9388939039071899e-18 2.7749016738886101 -3.5974899829451701
v 4.0766001685455065e-17 -9.8943317520619356 -42.642054388450347
v -2.081668171172167e-17 5.2051497774891153 17.962042378815699
v 1.1275702593849542e-17 -9.9650021367616795 -41.719669889927033
v 0 -1.3142162542979059 -63.70735292686237
v -6.9388939039071899e-18 2.7749016738886101 -3.5974899829451701
v -0.51057740409575825 2.8066307041417846 -3.5408115069812856
v -1.0173697309915244 2.83938222523371 -3.4843227698551007
v -1.5182160076544884 2.8829689871999862 -3.4293776455541414
v -2.0149850000000002 2.9309661900000004 -3.3751180000000014
v -2.0816681711721765e-17 6.6019980792833888 42.536071980783888
v -2.0152516030043501 6.8656263204753429 42.753093584883224
v -4.4054156626934624 7.7410514322284874 42.823824310532999
v -2.7799986963365022 7.0672158219436412 42.793237839530931
v -5.2261850000000001 8.1859646900000005 42.823730500000003
v -3.5852605370017354 7.355980178518438 42.815772111602271
v -1.3019672643118194 6.7385195123058725 42.693829063515636
v -0.63744268930024872 6.6521212629908764 42.619393242557237
v -3.989863994746734e-17 -8.8357521976306295 -29.726789542020811
v -4.6167227585860324 -8.2438270943917438 -29.231347169937962
v -5.6688907403495357 -7.9639702763710591 -29.046116314586651
v -6.6442130283706566 -7.6456682444738648 -28.826479604417486
v -1.1804667622560925 -8.7619045095741228 -29.620576095359965
v -2.3526651860168064 -8.643356067516148 -29.510290316126177
v -3.5044245220257224 -8.4730504358971697 -29.383721735998563
v -9.1440750000000008 -6.5780593100000004 -28.024968500000007
v -8.359465740222074 -6.9380704888872149 -28.307834944055401
v -7.535423299292062 -7.2947734965330557 -28.579022094204745
v 0 -0.85843431000000003 -64.283729500000007
v 1.3877787807814457e-17 6.595973773355615 64.279505083823537
v -7.0232150000000004 -0.99923430999999996 -62.356329500000001
v -6.3434150000000002 -0.89343430999999995 -62.815189500000002
v -8.7725650000000002 -1.4993343100000001 -60.681279500000002
v -9.6998549999999994 -1.94983431 -59.384839499999998
v -1.8715850000000001 2.2240656900000002 -7.8887704999999997
v -11.562905000000001 -3.0833343100000001 -55.857509499999999
v -1.7578850000000001 0.37206569 -12.6630705
v -12.705825000000001 -3.8795243099999999 -52.844569499999999
v -12.936145 -4.06650431 -52.069269499999997
v -3.7028850000000002 6.5337666900000002 26.474930499999999
v -13.497394999999999 -4.5924343099999998 -49.701068499999998
v -2.3469850000000001 4.1075656900000004 5.2027285000000001
v -13.763335 -4.9123943099999998 -48.094070500000001
v -13.641415 -4.7555143099999997 -48.900069500000001
v -2.5959850000000002 4.7219666900000004 10.109230500000004
v -14.020535000000001 -5.7229543100000004 -43.192668500000003
v -2.5495850000000004 4.6216666899999996 9.2914275000000011
v -2.5008849999999998 4.5199666900000004 8.4739304999999998
v -13.983045000000001 -5.8356443100000002 -42.3710685
v -13.838475000000001 -6.0408543100000003 -40.729968499999998
v -13.264754999999999 -6.3710543099999999 -37.477569500000001
v -2.869285000000001 5.2947656900000002 15.019531500000003
v -3.4301849999999998 6.1874656899999998 23.203727500000003
v -12.588295 -6.5431643099999999 -35.087569500000001
v -2.8177850000000011 5.2013646900000001 14.201233500000001
v -9.8144449999999992 -6.6303943100000007 -29.072669500000003
v -4.8072850000000003 7.7689656899999999 38.740730499999998
v -4.729285 7.6880646900000027 37.9237295
v -6.8879549999999998 -6.28138431 -25.067168500000001
v -4.6310849999999997 -5.7907943100000017 -22.683868500000003
v -3.6231849999999999 -5.3508843100000005 -21.445869500000004
v -2.2636850000000002 -3.9798243100000001 -18.7651705
v -2.521385 -4.3741243100000009 -19.448169499999999
v -4.9623850000000003 7.9285666900000002 40.376732500000003
v -5.0462850000000001 8.0121656899999998 41.192733500000003
v -3.1518850000000009 5.7552646900000006 19.109932499999999
v -6.4498150000000001 9.3779666899999992 53.4137275
v -3.2615850000000002 5.9307656900000003 20.747329499999999
v -6.8647650000000002 9.7246646899999991 60.665733500000002
v -2.4801850000000001 -0.75523430999999996 -64.190029499999994
v -3.2945850000000001 -0.73663431000000001 -64.046629499999995
v -6.0439450000000017 8.97896669 50.162727500000003
v -5.6846150000000009 8.6282656899999992 46.900734499999999
v -5.7751150000000004 8.71556569 47.715728499999997
v -4.0943849999999999 -0.73953431000000003 -63.835769499999998
v -1.9498850000000001 2.6296656899999999 -5.4149705000000017
v -5.6249849999999997 -0.81593431000000005 -63.217329499999998
v -7.6573450000000003 -1.1359343099999999 -61.843849499999997
v -8.2431549999999998 -1.3015343100000001 -61.2839995
v -9.2561049999999998 -1.71793431 -60.045699499999998
v -2.1338849999999998 3.4481666900000008 0.30013250000000002
v -10.503344999999999 -2.4198343100000002 -58.010559499999999
v -10.111855 -2.18703431 -58.704349499999999
v -1.791385 1.16326569 -11.1423685
v -11.227824999999999 -2.8691343100000002 -56.586099500000003
v -10.873965 -2.6483343100000001 -57.303729500000003
v -11.878825000000001 -3.2914343100000001 -55.1185695
v -2.2780849999999999 3.894665690000001 3.5675275000000006
v -1.7429850000000002 -0.083834309999999995 -13.389568499999999
v -1.7270850000000004 -0.58413431000000005 -14.084968500000006
v -2.2057850000000001 3.6758656900000002 1.9332275000000001
v -12.174944999999999 -3.4933043100000001 -54.369669500000001
v -12.451255 -3.6890343099999998 -53.611569500000002
v -3.6346850000000002 6.4479656900000002 25.65702850000001
v -13.331614999999999 -4.4233943099999999 -50.496769499999999
v -13.144225 -4.2481743099999996 -51.286269500000003
v -2.416185 4.31496469 6.8385315000000002
v -3.4955850000000011 6.2740656900000014 24.021827500000001
v -4.6507849999999999 7.6066646900000023 37.105728499999998
v -4.5719849999999997 7.52396669 36.2887275
v -4.412185 7.3581666900000009 34.654731499999997
v -13.862954999999999 -5.0631943100000001 -47.283868499999997
v -3.9044850000000002 6.7831656900000015 28.929634499999999
v -13.994545 -5.3460843100000002 -45.653468500000002
v -13.940045 -5.2077243099999997 -46.4701685
v -2.6416849999999998 4.8206656900000002 10.927231500000001
v -14.034915 -5.60378431 -44.014070500000003
v -4.1682850000000009 7.1032666900000008 32.204231500000006
v -4.2479849999999999 7.1885646899999998 33.021133499999998
v -2.4545849999999998 4.4171666900000002 7.6564335000000003
v -5.4114850000000017 8.3638656900000008 44.454727499999997
v -14.026195 -5.4780743100000002 -44.834569500000001
v -13.922314999999999 -5.9416143100000003 -41.549970500000001
v -4.0359850000000002 6.9445656900000019 30.566932500000004
v -3.970485 6.863765690000001 29.748230499999998
v -13.599735000000001 -6.21923431 -39.096669499999997
v -13.731045 -6.1333043099999998 -39.911969499999998
v -3.838085 6.7003656900000008 28.111328499999999
v -13.444455 -6.2983643100000002 -38.284869499999999
v -3.3687850000000008 6.1010646900000021 22.385429500000001
v -12.836264999999999 -6.49377431 -35.878268499999997
v -13.061655 -6.4363743099999997 -36.675269499999999
v -2.7309850000000009 5.0138646900000001 12.563827500000002
v -2.773285 5.10806469 13.3825305
v -12.317835000000001 -6.5845243099999999 -34.303869499999998
v -4.4922850000000007 7.4416656899999998 35.471733499999999
v -11.709965 -6.6423343099999999 -32.760268500000002
v -12.025035000000001 -6.6175743100000002 -33.527869500000001
v -1.717185 -1.11103431 -14.762267500000004
v -1.712785 -1.6299343100000008 -15.410770500000002
v -1.7329850000000002 -2.1459343099999999 -16.059970499999999
v -11.373044999999999 -6.6583643099999996 -32.0018685
v -11.014605 -6.6655543100000001 -31.253268500000001
v -10.635075000000001 -6.6634343100000004 -30.515067500000001
v -10.234945 -6.6519643100000003 -29.787971500000001
v -4.8837849999999996 7.8485666900000002 39.558731500000007
v -1.7966850000000001 -2.6381343099999999 -16.7255705
v -9.3740649999999999 -6.5990543099999996 -28.369769500000004
v -8.4349349999999994 -6.5048843099999996 -27.004367500000001
v -8.914085 -6.5570643100000003 -27.68016750000001
v -1.9034850000000003 -3.1083343100000005 -17.400768500000005
v -7.421335 -6.3673243099999999 -25.697170499999999
v -2.0585849999999999 -3.5565643100000011 -18.081870500000001
v -7.937195 -6.4416143100000003 -26.343269500000002
v -6.3347550000000004 -6.1857243100000003 -24.455871500000001
v -5.134385 8.0975646900000005 42.008728499999997
v -5.1938849999999999 -5.9471443099999997 -23.272571500000009
v -5.7703850000000001 -6.0742043099999998 -23.8576695
v -4.1052850000000003 -5.5912243100000003 -22.074168499999999
v -3.200485 -5.0630043100000002 -20.793571499999999
v -2.8328850000000001 -4.7369343099999996 -20.1254685
v -3.0959850000000011 5.6656646899999998 18.291527500000001
v -3.039485 5.5746656899999998 17.4733275
v -6.5522049999999998 9.4809646900000004 54.225731500000016
v -2.9814850000000002 5.4822656900000002 16.655433500000001
v -2.9241850000000009 5.3889656900000018 15.8375325
v -6.3460150000000004 9.2750646900000007 52.601730500000002
v -3.3140849999999999 6.0161656900000002 21.566429500000002
v -6.7575550000000018 9.6865656900000001 55.850731500000002
v -6.856905000000002 9.7931656900000004 56.663727500000007
v -3.206985 5.8436666900000001 19.928528499999999
v -4.4592850000000004 7.7577656900000003 63.254738500000002
v -3.777085 7.41216469 63.561729499999998
v -5.5029849999999998 8.4520646900000003 45.269729499999997
v -5.0807849999999997 8.1507646900000008 62.885734499999998
v -3.049185 7.1169646899999996 63.8127365
v -2.0022850000000005 2.8716666900000005 -3.7832675000000004
v -2.3811849999999999 4.2118646899999996 6.0205304999999996
v -2.2425850000000001 3.7859656899999998 2.7503285000000006
v -2.3130850000000001 4.0019646900000003 4.3849334999999998
v -2.1694849999999999 3.563865690000001 1.1164324999999999
v -2.285285 6.8824656900000001 64.018730500000004
v -7.0666650000000004 9.9820656900000007 59.920730499999998
v -7.1082650000000003 10.04336569 59.114731499999998
v -7.0578450000000004 10.004366689999999 58.286728500000002
v -1.658385 -0.80443430999999999 -64.251119500000001
v -0.83198499999999997 -0.85073430999999999 -64.269349500000004
v -5.8648249999999997 8.8037646899999995 48.531730500000023
v -5.9532749999999997 8.8900666900000012 49.347732499999999
v -4.8730849999999997 -0.76523430999999997 -63.558179500000001
v -1.850185 2.0289656900000002 -8.7231714999999994
v -1.829485 1.7840656900000007 -9.5447694999999992
v -2.1009850000000001 3.3370656900000006 -0.51676949999999999
v -1.809885 1.4959656900000005 -10.352268499999999
v -3.7707850000000001 6.6176646899999998 27.293029499999999
v -6.9685949999999997 9.9139656899999995 57.473732499999997
v -5.6468850000000002 8.5551646899999998 62.447731500000003
v -6.2432550000000004 9.1734666899999997 51.789734500000002
v -6.1413950000000002 9.0749646899999998 50.976730500000002
v -2.686585 4.9184646900000004 11.745430500000003
v -5.3196849999999998 8.2752656899999995 43.638733500000001
v -5.5936849999999998 8.5405656899999993 46.084732500000001
v -1.9763850000000005 2.7514656899999999 -4.5991704999999996
v -1.922085 2.5104656900000006 -6.2311705000000028
v -1.8952850000000001 2.3812656900000002 -7.0456695000000025
v -2.027685 2.9902656900000002 -2.9669685000000001
v -2.0753849999999998 3.2254666900000006 -1.3339684999999999
v -2.0525850000000001 3.1074666900000003 -2.1504705
v -1.7739850000000001 0.78866568999999997 -11.913867500000002
v -3.564385000000001 6.3615646899999998 24.8394315
v -4.3315850000000005 7.2738656900000009 33.837631500000001
v -4.0999850000000002 7.0237656900000012 31.385727500000002
v -5.2261850000000001 8.1859646900000005 42.823730500000003
v -6.6542849999999998 9.58446569 55.0387275
v -6.1377449999999998 8.9737646899999994 61.935730499999998
v -6.5444950000000004 9.3745656900000007 61.3447265
v -1.493085 6.7141656899999997 64.170723499999994
v -7.9502500000000005 -1.2187343099999999 -61.563924499999999
v -9.905854999999999 -2.0684343099999998 -59.044594500000002
v -2.1516849999999996 3.5060161900000009 0.70828249999999993
v -1.7659349999999998 0.58036569000000005 -12.288468999999999
v -4.7682850000000006 7.7285151900000004 38.332229999999996
v -13.414504999999998 -4.5079143100000003 -50.098918999999995
v -13.901499999999999 -5.1354593099999999 -46.877018499999998
v -14.027725 -5.6633693100000002 -43.603369499999999
v -13.522095 -6.2587993100000006 -38.690769500000002
v -3.462885 6.2307656900000019 23.6127775
v -2.7955350000000001 5.1547146900000005 13.791882000000001
v -12.171435000000001 -6.6010493100000005 -33.915869499999999
v -11.541505000000001 -6.6503493099999993 -32.381068499999998
v -10.024694999999999 -6.6411793100000001 -29.430320500000001
v -9.1440750000000008 -6.5780593100000004 -28.024968500000007
v -7.1546450000000004 -6.3243543100000004 -25.3821695
v -6.0525700000000002 -6.1299643100000001 -24.1567705
v -2.3925350000000001 -4.1769743100000003 -19.106670000000001
v -3.2342849999999999 5.8872161900000011 20.337928999999999
v -5.3638349999999999 8.3529646900000003 62.666733000000001
v -6.09267 9.0269656900000008 50.569729000000002
v -1.7221350000000002 -0.84758431000000023 -14.423618000000005
v -1.8891849999999999 6.7983156899999999 64.094727000000006
v -2.0692849999999998 -0.77983431000000003 -64.220574499999998
v -5.2490349999999992 -0.79058431000000007 -63.3877545
v -5.7298650000000002 8.6719156899999987 47.308231499999998
v -8.5078600000000009 -1.4004343100000001 -60.982639500000005
v -9.4779799999999987 -1.83388431 -59.715269499999998
v -2.117435 3.39261619 -0.10831849999999998
v -1.7826849999999999 0.97596569 -11.528117999999999
v -1.7504350000000002 0.14411569000000002 -13.026319500000003
v -2.260335 3.8403156900000002 3.1589280000000008
v -1.7350350000000003 -0.33398431000000001 -13.737268499999999
v -2.1876350000000002 3.6198656900000001 1.5248300000000004
v -12.313099999999999 -3.5911693099999997 -53.990619500000001
v -12.026885 -3.3923693100000003 -54.744119499999996
v -13.237919999999999 -4.3357843099999993 -50.891519500000001
v -2.398685 4.2634146899999994 6.4295309999999999
v -6.9657150000000003 9.8533651899999999 60.293232000000003
v -2.3640850000000002 4.15971519 5.6116294999999994
v -3.5299849999999999 6.3178151900000001 24.430629500000002
v -13.967295 -5.2769043099999999 -46.061818500000001
v -2.6188349999999998 4.7713161900000003 10.518231
v -4.0679850000000002 6.9841656900000002 30.976330000000001
v -4.1341350000000006 7.0635161899999996 31.7949795
v -14.00179 -5.7792993100000007 -42.781868500000002
v -3.8044349999999998 6.6590151899999999 27.702179000000001
v -13.354604999999999 -6.33470931 -37.8812195
v -2.752135 5.0609646900000005 12.973179000000004
v -12.453065 -6.5638443100000003 -34.695719499999996
v -4.4522349999999999 7.3999161899999999 35.063232499999998
v -11.8675 -6.6299543100000005 -33.144069000000002
v -1.714985 -1.3704843100000001 -15.086519000000003
v -1.7228850000000007 -1.8879343100000001 -15.735370499999998
v -11.193825 -6.6619593100000003 -31.627568500000002
v -10.43501 -6.6576993099999999 -30.151519499999999
v -4.8455349999999999 7.8087661900000001 39.149731000000003
v -1.7648350000000002 -2.3920343099999997 -16.392770499999997
v -1.8500850000000002 -2.87323431 -17.063169500000001
v -8.6745099999999997 -6.5309743099999995 -27.342267499999998
v -7.679265 -6.4044693099999996 -26.020220000000002
v -2.1611349999999998 -3.7681943100000002 -18.423520500000002
v -5.4821350000000004 -6.0106743100000015 -23.565120499999999
v -6.50101 9.4294656900000007 53.819729500000001
v -2.9528350000000003 5.4356156900000006 16.246483000000001
v -3.1794349999999998 5.7994656899999999 19.519230499999999
v -4.770035 7.954265190000001 63.0702365
v -2.0401350000000003 3.04886619 -2.5587195
v -2.6641350000000004 4.8695651900000003 11.336330999999999
v -12.71228 -6.5184693100000004 -35.482918999999995
v -2.295585 3.9483151900000002 3.9762304999999998
v -1.9893350000000001 2.8115661899999997 -4.1912190000000002
v -2.6672349999999998 6.9997151899999999 63.915733500000002
v -5.3655849999999994 8.319565690000001 44.046730499999995
v -7.0830549999999999 10.02386619 58.70073
v -1.245185 -0.82758430999999999 -64.260234499999996
v -0.41599249999999999 -0.85458431000000001 -64.276539500000013
v -4.4837349999999994 -0.75238431000000006 -63.696974499999996
v -1.8398349999999999 1.9065156900000002 -9.1339705000000002
v -1.883435 2.3026656900000004 -7.4672200000000011
v -2.0881850000000002 3.2812661900000006 -0.92536899999999989
v -1.8006350000000004 1.32961569 -10.747318499999999
v -3.7368350000000001 6.57571569 26.883980000000001
v -3.5995350000000004 6.40476519 25.24823
v -6.6032449999999994 9.5327151900000011 54.632229500000022
v -7.0132200000000022 9.9591661899999995 57.880230499999996
v -5.892315 8.7644646900000005 62.191731000000004
v -6.1923250000000003 9.1242156899999998 51.383232500000005
v -5.6391500000000008 8.5844156900000002 46.492733500000007
v -5.4572349999999998 8.4079651900000005 44.862228500000001
v -6.7046299999999999 9.5496151900000008 61.005229999999997
v -1.9359850000000001 2.5700656900000003 -5.8230705
v -1.9631350000000003 2.6905656899999997 -5.0070704999999993
v -1.9086850000000002 2.4458656900000002 -6.63842
v -2.0149850000000002 2.9309661900000004 -3.3751180000000014
v -1.819685 1.6400156900000007 -9.948519000000001
v -1.8608850000000001 2.1265156900000006 -8.3059709999999995
v -2.0639849999999997 3.1664666900000005 -1.7422195
v -3.6687850000000011 6.490866190000002 26.065979499999997
v -6.3411200000000001 9.1741651900000001 61.640228499999999
v -0.7465425 6.6550697316778074 64.225114291911765
v -2.8967350000000009 5.3418656900000006 15.428532000000001
v -4.3718849999999998 7.3160161900000009 34.246181499999999
l 5/5 1/1
l 1/1 2/2
l 2/2 3/3
l 3/3 4/4
l 13/13 12/12
l 12/12 11/11
l 11/11 6/6
l 6/6 8/8
l 8/8 10/10
l 10/10 7/7
l 7/7 9/9
l 20/20 17/17
l 17/17 18/18
l 18/18 19/19
l 19/19 14/14
l 14/14 15/15
l 15/15 16/16
l 16/16 23/23
l 23/23 22/22
l 22/22 21/21
l 24/24 25/25
l 24/24 76/76
l 25/25 75/75
l 26/26 79/79
l 26/26 355/355
l 27/27 328/328
l 27/27 356/356
l 28/28 414/414
l 28/28 433/433
l 29/29 84/84
l 29/29 86/86
l 30/30 330/330
l 30/30 359/359
l 31/31 32/32
l 31/31 92/92
l 32/32 95/95
l 33/33 417/417
l 33/33 436/436
l 34/34 37/37
l 34/34 332/332
l 35/35 174/174
l 35/35 369/369
l 36/36 37/37
l 36/36 101/101
l 38/38 40/40
l 38/38 372/372
l 39/39 334/334
l 39/39 375/375
l 40/40 41/41
l 41/41 109/109
l 42/42 112/112
l 42/42 375/375
l 43/43 112/112
l 43/43 116/116
l 44/44 237/237
l 44/44 286/286
l 45/45 121/121
l 45/45 377/377
l 46/46 49/49
l 46/46 441/441
l 47/47 119/119
l 47/47 336/336
l 48/48 380/380
l 48/48 402/402
l 49/49 337/337
l 50/50 138/138
l 50/50 340/340
l 51/51 331/331
l 51/51 388/388
l 52/52 98/98
l 52/52 331/331
l 53/53 146/146
l 53/53 342/342
l 54/54 148/148
l 54/54 150/150
l 55/55 150/150
l 55/55 152/152
l 56/56 292/292
l 56/56 464/464
l 57/57 344/344
l 57/57 393/393
l 58/58 154/154
l 58/58 344/344
l 59/59 60/60
l 59/59 136/136
l 60/60 147/147
l 61/61 155/155
l 61/61 397/397
l 62/62 160/160
l 62/62 395/395
l 63/63 161/161
l 63/63 346/346
l 64/64 313/313
l 64/64 481/481
l 65/65 411/411
l 65/65 501/501
l 66/66 368/368
l 66/66 425/425
l 67/67 68/68
l 67/67 352/352
l 68/68 73/73
l 69/69 410/410
l 69/69 483/483
l 70/70 187/187
l 70/70 349/349
l 71/71 354/354
l 71/71 423/423
l 72/72 186/186
l 72/72 354/354
l 73/73 412/412
l 74/74 426/426
l 74/74 427/427
l 75/75 353/353
l 76/76 327/327
l 77/77 177/177
l 77/77 226/226
l 78/78 327/327
l 78/78 355/355
l 79/79 356/356
l 80/80 329/329
l 80/80 357/357
l 81/81 82/82
l 81/81 85/85
l 82/82 328/328
l 83/83 358/358
l 83/83 416/416
l 84/84 85/85
l 86/86 364/364
l 87/87 360/360
l 87/87 403/403
l 88/88 359/359
l 88/88 361/361
l 89/89 350/350
l 89/89 361/361
l 90/90 173/173
l 90/90 362/362
l 91/91 363/363
l 91/91 364/364
l 92/92 363/363
l 93/93 418/418
l 93/93 436/436
l 94/94 332/332
l 94/94 366/366
l 95/95 366/366
l 96/96 109/109
l 96/96 367/367
l 97/97 336/336
l 97/97 370/370
l 98/98 99/99
l 99/99 125/125
l 100/100 381/381
l 100/100 442/442
l 101/101 333/333
l 102/102 114/114
l 102/102 117/117
l 103/103 111/111
l 103/103 371/371
l 104/104 333/333
l 104/104 371/371
l 105/105 372/372
l 105/105 401/401
l 106/106 111/111
l 106/106 334/334
l 107/107 108/108
l 107/107 374/374
l 108/108 215/215
l 110/110 407/407
l 110/110 424/424
l 113/113 114/114
l 113/113 373/373
l 115/115 116/116
l 115/115 335/335
l 117/117 376/376
l 118/118 335/335
l 118/118 377/377
l 119/119 161/161
l 120/120 121/121
l 120/120 402/402
l 122/122 199/199
l 122/122 379/379
l 123/123 337/337
l 123/123 379/379
l 124/124 338/338
l 124/124 380/380
l 125/125 381/381
l 126/126 339/339
l 126/126 382/382
l 127/127 338/338
l 127/127 382/382
l 128/128 350/350
l 128/128 383/383
l 129/129 383/383
l 129/129 384/384
l 130/130 384/384
l 130/130 389/389
l 131/131 339/339
l 131/131 386/386
l 132/132 134/134
l 132/132 386/386
l 133/133 218/218
l 133/133 385/385
l 134/134 387/387
l 135/135 340/340
l 135/135 387/387
l 136/136 388/388
l 137/137 389/389
l 137/137 390/390
l 138/138 341/341
l 139/139 144/144
l 139/139 391/391
l 140/140 341/341
l 140/140 391/391
l 141/141 143/143
l 141/141 390/390
l 142/142 342/342
l 142/142 392/392
l 143/143 393/393
l 144/144 392/392
l 145/145 477/477
l 145/145 499/499
l 146/146 343/343
l 147/147 219/219
l 148/148 394/394
l 149/149 343/343
l 149/149 394/394
l 151/151 465/465
l 151/151 466/466
l 152/152 154/154
l 153/153 238/238
l 153/153 242/242
l 155/155 156/156
l 156/156 158/158
l 157/157 395/395
l 157/157 419/419
l 158/158 396/396
l 159/159 396/396
l 159/159 441/441
l 160/160 197/197
l 162/162 163/163
l 162/162 220/220
l 163/163 195/195
l 164/164 346/346
l 164/164 397/397
l 165/165 166/166
l 165/165 399/399
l 166/166 169/169
l 167/167 201/201
l 167/167 424/424
l 168/168 348/348
l 168/168 399/399
l 169/169 406/406
l 170/170 405/405
l 170/170 430/430
l 171/171 367/367
l 171/171 369/369
l 172/172 254/254
l 172/172 255/255
l 173/173 360/360
l 174/174 403/403
l 175/175 444/444
l 175/175 480/480
l 176/176 312/312
l 176/176 365/365
l 177/177 305/305
l 178/178 329/329
l 178/178 362/362
l 179/179 351/351
l 179/179 406/406
l 180/180 258/258
l 180/180 284/284
l 181/181 182/182
l 181/181 368/368
l 182/182 408/408
l 183/183 408/408
l 183/183 420/420
l 184/184 352/352
l 184/184 409/409
l 185/185 409/409
l 185/185 411/411
l 186/186 187/187
l 188/188 353/353
l 188/188 412/412
l 189/189 494/494
l 189/189 495/495
l 190/190 413/413
l 190/190 433/433
l 191/191 413/413
l 191/191 432/432
l 192/192 357/357
l 192/192 415/415
l 193/193 416/416
l 193/193 432/432
l 194/194 376/376
l 194/194 417/417
l 195/195 420/420
l 196/196 348/348
l 196/196 421/421
l 197/197 422/422
l 198/198 349/349
l 198/198 422/422
l 199/199 401/401
l 200/200 219/219
l 200/200 407/407
l 201/201 423/423
l 202/202 270/270
l 202/202 482/482
l 203/203 405/405
l 203/203 427/427
l 204/204 426/426
l 204/204 428/428
l 205/205 414/414
l 205/205 428/428
l 206/206 265/265
l 206/206 468/468
l 207/207 429/429
l 207/207 497/497
l 208/208 400/400
l 208/208 430/430
l 209/209 415/415
l 209/209 434/434
l 210/210 400/400
l 210/210 434/434
l 211/211 315/315
l 211/211 484/484
l 212/212 330/330
l 212/212 358/358
l 213/213 282/282
l 213/213 437/437
l 214/214 370/370
l 214/214 418/418
l 215/215 442/442
l 216/216 373/373
l 216/216 374/374
l 217/217 287/287
l 217/217 486/486
l 218/218 285/285
l 220/220 419/419
l 221/221 421/421
l 221/221 438/438
l 222/222 425/425
l 222/222 438/438
l 223/223 351/351
l 223/223 439/439
l 224/224 268/268
l 224/224 496/496
l 225/225 456/456
l 225/225 457/457
l 226/226 277/277
l 227/227 455/455
l 227/227 483/483
l 228/228 275/275
l 228/228 500/500
l 229/229 429/429
l 229/229 443/443
l 230/230 289/289
l 230/230 323/323
l 231/231 281/281
l 231/231 326/326
l 232/232 307/307
l 232/232 440/440
l 233/233 385/385
l 233/233 444/444
l 234/234 445/445
l 234/234 488/488
l 235/235 246/246
l 235/235 499/499
l 236/236 446/446
l 236/236 466/466
l 237/237 278/278
l 238/238 309/309
l 239/239 445/445
l 239/239 447/447
l 240/240 447/447
l 240/240 448/448
l 241/241 448/448
l 241/241 449/449
l 242/242 345/345
l 243/243 244/244
l 243/243 272/272
l 244/244 491/491
l 245/245 347/347
l 245/245 474/474
l 246/246 472/472
l 247/247 469/469
l 247/247 470/470
l 248/248 345/345
l 248/248 496/496
l 249/249 450/450
l 249/249 473/473
l 250/250 301/301
l 250/250 451/451
l 251/251 437/437
l 251/251 451/451
l 252/252 277/277
l 252/252 450/450
l 253/253 439/439
l 253/253 440/440
l 254/254 283/283
l 255/255 312/312
l 256/256 365/365
l 256/256 452/452
l 257/257 260/260
l 257/257 452/452
l 258/258 313/313
l 259/259 404/404
l 259/259 458/458
l 260/260 453/453
l 261/261 453/453
l 261/261 458/458
l 262/262 278/278
l 262/262 501/501
l 263/263 410/410
l 263/263 454/454
l 264/264 455/455
l 264/264 456/456
l 265/265 478/478
l 266/266 482/482
l 266/266 484/484
l 267/267 431/431
l 267/267 457/457
l 268/268 269/269
l 269/269 275/275
l 270/270 294/294
l 271/271 443/443
l 271/271 459/459
l 272/272 286/286
l 273/273 459/459
l 273/273 460/460
l 274/274 431/431
l 274/274 460/460
l 276/276 486/486
l 276/276 490/490
l 279/279 435/435
l 279/279 461/461
l 280/280 281/281
l 280/280 446/446
l 282/282 378/378
l 283/283 310/310
l 284/284 297/297
l 285/285 498/498
l 287/287 462/462
l 288/288 378/378
l 288/288 462/462
l 289/289 477/477
l 290/290 454/454
l 290/290 463/463
l 291/291 463/463
l 291/291 488/488
l 292/292 489/489
l 293/293 464/464
l 293/293 465/465
l 294/294 467/467
l 295/295 467/467
l 295/295 489/489
l 296/296 449/449
l 296/296 469/469
l 297/297 475/475
l 298/298 470/470
l 298/298 471/471
l 299/299 347/347
l 299/299 472/472
l 300/300 471/471
l 300/300 473/473
l 301/301 398/398
l 302/302 398/398
l 302/302 474/474
l 303/303 475/475
l 303/303 491/491
l 304/304 461/461
l 304/304 476/476
l 305/305 309/309
l 306/306 478/478
l 306/306 492/492
l 307/307 492/492
l 308/308 479/479
l 308/308 485/485
l 310/310 319/319
l 311/311 480/480
l 311/311 481/481
l 314/314 404/404
l 314/314 485/485
l 315/315 487/487
l 316/316 322/322
l 316/316 493/493
l 317/317 479/479
l 317/317 497/497
l 318/318 476/476
l 318/318 487/487
l 319/319 324/324
l 320/320 493/493
l 320/320 495/495
l 321/321 468/468
l 321/321 494/494
l 322/322 435/435
l 323/323 324/324
l 325/325 498/498
l 325/325 500/500
l 326/326 490/490
l 502/502 503/503
l 503/503 504/504
l 504/504 505/505
l 505/505 506/506
l 507/507 514/514
l 514/514 513/513
l 513/513 508/508
l 508/508 510/510
l 510/510 512/512
l 512/512 509/509
l 509/509 511/511
l 515/515 519/519
l 519/519 520/520
l 520/520 521/521
l 521/521 516/516
l 516/516 517/517
l 517/517 518/518
l 518/518 524/524
l 524/524 523/523
l 523/523 522/522
l 527/527 528/528
l 527/527 574/574
l 528/528 573/573
l 529/529 576/576
l 529/529 730/730
l 530/530 705/705
l 530/530 731/731
l 531/531 783/783
l 531/531 800/800
l 532/532 581/581
l 532/532 583/583
l 533/533 707/707
l 533/533 734/734
l 534/534 535/535
l 534/534 589/589
l 535/535 592/592
l 536/536 786/786
l 536/536 802/802
l 537/537 540/540
l 537/537 709/709
l 538/538 666/666
l 538/538 743/743
l 539/539 540/540
l 539/539 598/598
l 541/541 543/543
l 541/541 746/746
l 542/542 711/711
l 542/542 749/749
l 543/543 544/544
l 544/544 606/606
l 545/545 609/609
l 545/545 749/749
l 546/546 609/609
l 546/546 613/613
l 547/547 618/618
l 547/547 751/751
l 548/548 551/551
l 548/548 805/805
l 549/549 616/616
l 549/549 713/713
l 550/550 753/753
l 550/550 773/773
l 551/551 714/714
l 552/552 634/634
l 552/552 717/717
l 553/553 708/708
l 553/553 760/760
l 554/554 595/595
l 554/554 708/708
l 555/555 641/641
l 555/555 719/719
l 556/556 643/643
l 556/556 645/645
l 557/557 645/645
l 557/557 646/646
l 558/558 721/721
l 558/558 765/765
l 559/559 647/647
l 559/559 721/721
l 560/560 561/561
l 560/560 632/632
l 561/561 642/642
l 562/562 648/648
l 562/562 769/769
l 563/563 653/653
l 563/563 767/767
l 564/564 654/654
l 564/564 722/722
l 525/525 780/780
l 565/565 742/742
l 565/565 794/794
l 566/566 567/567
l 566/566 727/727
l 567/567 571/571
l 568/568 675/675
l 568/568 724/724
l 569/569 729/729
l 569/569 792/792
l 570/570 674/674
l 570/570 729/729
l 571/571 781/781
l 572/572 795/795
l 572/572 796/796
l 573/573 728/728
l 574/574 704/704
l 575/575 704/704
l 575/575 730/730
l 576/576 731/731
l 577/577 706/706
l 577/577 732/732
l 578/578 579/579
l 578/578 582/582
l 579/579 705/705
l 580/580 733/733
l 580/580 785/785
l 581/581 582/582
l 583/583 739/739
l 584/584 735/735
l 584/584 774/774
l 585/585 734/734
l 585/585 736/736
l 586/586 725/725
l 586/586 736/736
l 587/587 665/665
l 587/587 737/737
l 588/588 738/738
l 588/588 739/739
l 589/589 738/738
l 590/590 787/787
l 590/590 802/802
l 591/591 709/709
l 591/591 740/740
l 592/592 740/740
l 593/593 606/606
l 593/593 741/741
l 594/594 713/713
l 594/594 744/744
l 595/595 596/596
l 596/596 622/622
l 597/597 754/754
l 597/597 806/806
l 598/598 710/710
l 599/599 611/611
l 599/599 614/614
l 600/600 608/608
l 600/600 745/745
l 601/601 710/710
l 601/601 745/745
l 602/602 746/746
l 602/602 772/772
l 603/603 608/608
l 603/603 711/711
l 604/604 605/605
l 604/604 748/748
l 605/605 697/697
l 607/607 777/777
l 607/607 793/793
l 610/610 611/611
l 610/610 747/747
l 612/612 613/613
l 612/612 712/712
l 614/614 750/750
l 615/615 712/712
l 615/615 751/751
l 616/616 654/654
l 617/617 618/618
l 617/617 773/773
l 619/619 686/686
l 619/619 752/752
l 620/620 714/714
l 620/620 752/752
l 621/621 715/715
l 621/621 753/753
l 622/622 754/754
l 623/623 716/716
l 623/623 755/755
l 624/624 715/715
l 624/624 755/755
l 625/625 725/725
l 625/625 756/756
l 626/626 756/756
l 626/626 757/757
l 627/627 757/757
l 627/627 761/761
l 628/628 716/716
l 628/628 758/758
l 629/629 630/630
l 629/629 758/758
l 630/630 759/759
l 631/631 717/717
l 631/631 759/759
l 632/632 760/760
l 633/633 761/761
l 633/633 762/762
l 634/634 718/718
l 635/635 640/640
l 635/635 763/763
l 636/636 718/718
l 636/636 763/763
l 637/637 639/639
l 637/637 762/762
l 638/638 719/719
l 638/638 764/764
l 639/639 765/765
l 640/640 764/764
l 641/641 720/720
l 642/642 699/699
l 643/643 766/766
l 644/644 720/720
l 644/644 766/766
l 646/646 647/647
l 648/648 649/649
l 649/649 651/651
l 650/650 767/767
l 650/650 788/788
l 651/651 768/768
l 652/652 768/768
l 652/652 805/805
l 653/653 684/684
l 655/655 656/656
l 655/655 700/700
l 656/656 682/682
l 657/657 722/722
l 657/657 769/769
l 658/658 659/659
l 658/658 770/770
l 659/659 662/662
l 660/660 688/688
l 660/660 793/793
l 661/661 723/723
l 661/661 770/770
l 662/662 776/776
l 663/663 775/775
l 663/663 798/798
l 664/664 741/741
l 664/664 743/743
l 665/665 735/735
l 666/666 774/774
l 667/667 706/706
l 667/667 737/737
l 668/668 726/726
l 668/668 776/776
l 669/669 670/670
l 669/669 742/742
l 670/670 778/778
l 671/671 778/778
l 671/671 789/789
l 672/672 727/727
l 672/672 779/779
l 673/673 779/779
l 673/673 780/780
l 674/674 675/675
l 676/676 728/728
l 676/676 781/781
l 677/677 782/782
l 677/677 800/800
l 678/678 782/782
l 678/678 799/799
l 679/679 732/732
l 679/679 784/784
l 680/680 785/785
l 680/680 799/799
l 681/681 750/750
l 681/681 786/786
l 682/682 789/789
l 683/683 723/723
l 683/683 790/790
l 684/684 791/791
l 685/685 724/724
l 685/685 791/791
l 686/686 772/772
l 687/687 699/699
l 687/687 777/777
l 688/688 792/792
l 689/689 775/775
l 689/689 796/796
l 690/690 795/795
l 690/690 797/797
l 691/691 783/783
l 691/691 797/797
l 692/692 771/771
l 692/692 798/798
l 693/693 784/784
l 693/693 801/801
l 694/694 771/771
l 694/694 801/801
l 695/695 707/707
l 695/695 733/733
l 696/696 744/744
l 696/696 787/787
l 697/697 806/806
l 698/698 747/747
l 698/698 748/748
l 700/700 788/788
l 701/701 790/790
l 701/701 803/803
l 702/702 794/794
l 702/702 803/803
l 703/703 726/726
l 703/703 804/804
l 526/526 804/804
