v 0.25293341502705258 -0.097277802794894758 -0.0010063862621996502
v 0.03184200357371933 -0.097648479641011587 0.24654844972055062
v 0.050787392062657144 -0.097518655089725778 0.24269779114080964
v 0.070502281008481021 -0.097518550947839344 0.23733728113350289
v 0.089673215336296991 -0.097726420827000476 0.230482036488729
v 0.11662251832547035 -0.097902123945513314 0.21781993073327369
v 0.13351353076600542 -0.097633948241888868 0.20811306221638703
v 0.15699326144778855 -0.097932485573817424 0.19155860748914846
v 0.1788020626039889 -0.097748172201554254 0.17119250006763165
v 0.1929188201865201 -0.097575884267125101 0.15465081335773995
v 0.20630912801470558 -0.097616489606439011 0.13572979146539549
v 0.21828652422662656 -0.09727320740722678 0.11493840666476243
v 0.22851789188556912 -0.097394530635635385 0.093129864389625575
v 0.23693286172992137 -0.097400879658750245 0.071308659532272473
v 0.24347786706281271 -0.097618997602950786 0.050234697382643481
v 0.24818378181197737 -0.097275483145254416 0.02982011193019456
v 0.08814048105764824 -0.095141944411454071 -0.251301539093502
v 0.24980935618512501 -0.095460115364941062 -0.087024806180289266
v 0.040394883890271578 -0.095325422799872744 -0.26224288587806366
v 0.064398506896175253 -0.095144529268031741 -0.25825008675785421
v 0.16350382808670955 -0.094878518744453577 -0.21184477239948724
v 0.21316465311824617 -0.094646547276250964 -0.16324390342329118
v 0.18258117371303156 -0.094917650916548316 -0.19554149495577955
v 0.20136208628189833 -0.094766698539184374 -0.17696242885616564
v 0.24246641749442155 -0.095115401888686266 -0.1104595694736899
v 0.11186071141234213 -0.095047589791080522 -0.24211854521986739
v 0.13535366204180485 -0.094849830243213168 -0.2306812880916842
v 0.23199843149412541 -0.094827221390550581 -0.13371223874395827
v 0.048342866869223164 -0.095273710209518581 -0.26126429076721103
v 0.16995294066136118 -0.094926460595741266 -0.20662369942121761
v 0.20741164665597894 -0.094721303927628522 -0.17022182793468188
v 0.080271716804540455 -0.095164483887062931 -0.25390502932888348
v 0.24532413005817122 -0.095180116019816713 -0.10264312883273016
v 0.10392336306781008 -0.095128053796186246 -0.24541162160904911
v 0.23576947078106761 -0.094933636790732939 -0.12602637161564106
v 0.12765403030734152 -0.094893871688690956 -0.23476849840634464
v 0.14999131539562199 -0.09486137780901932 -0.22171607584428848
v 0.22345007172919057 -0.094714960367019124 -0.14876150373235689
v 0.19974882941251876 -0.097497051253718853 0.14546373388949632
v 0.14159688248298313 -0.097704028707851207 0.20289161337097222
v 0.25157438580912872 -0.097401716657462417 0.009364507973501128
v 0.08020431510400193 -0.097561449451620777 0.23408414384532714
v 0.23295319716482299 -0.097320292726624263 0.082159268932532226
v 0.04111843705874909 -0.097643894173971166 0.24480105928373519
v 0.24044526970005259 -0.097533720354435388 0.060660691319425919
v 0.06064705515181136 -0.097531333274844922 0.24021055525914828
v 0.014972912221152452 -0.097533864094252645 0.24914862283496803
v 0.10786009170941105 -0.097697669628486583 0.22231078735581167
v 0.22363099662592983 -0.097208897396738492 0.10409987888699951
v 0.21250520683391366 -0.097451093612233253 0.12552045797089054
v 0.12518126142563279 -0.097886650242685933 0.21308422596075666
v 0.18591135411091758 -0.097684871759371295 0.16323490434995847
v 0.1716273684643933 -0.097713452684222074 0.17853331311770354
v 0.056375690610843861 -0.095205773171202268 -0.25993590712915637
v 0.25369686305748873 -0.09719234326470344 -0.0081791852999173534
v 0.25470122708696202 -0.096503828635605776 -0.047022229941959544
v 0.25425067516538769 -0.09632919321018768 -0.055167940181003336
v 0.25470352557482101 -0.096912997462699935 -0.023089405081505754
v 0.25140968613083714 -0.095655790643557087 -0.079182835074423544
v 0.2549199011596946 -0.096609306390452093 -0.03890229568593738
v 0.25357042130396557 -0.09611088309249774 -0.063265044063640169
v 0.25264034510075339 -0.095877307469799888 -0.071271376726294383
v 0.25490885447127765 -0.096679967237121522 -0.030897531825389436
v 0.018350372564929267 -0.095528082753701948 -0.26352140709988775
v 0.096015927237663695 -0.095150307208182155 -0.24846891722378545
v 0.21852950849865244 -0.094642554009554042 -0.1560798031243073
v 0.15687281823509749 -0.094858406189416961 -0.21687917213475122
v 0.24778186464156193 -0.095282682483224163 -0.094833740909846392
v 0.032663355883540794 -0.095413748621900524 -0.262917431577331
v 0.19515093824885291 -0.09484640483301654 -0.18344107769769416
v 0.18887402310969009 -0.094914094418149367 -0.18963484161275962
v 0.072365663444992595 -0.095143828600031108 -0.2562309930522314
v 0.23926159088403187 -0.095023705770983347 -0.11826344919171579
v 0.11979541676034466 -0.094975179327773218 -0.23857988574727401
v 0.22791374428429043 -0.094741840778635955 -0.14129602610398073
v 0.14281590295761826 -0.094847638882724433 -0.22632453677693581
v 0.16437662492821162 -0.097860027405172578 0.18529956891665128
v 0.14941374285107512 -0.097580168390215896 0.19738577568510934
v 0.02311127644863506 -0.097516529382263073 0.24797686756189119
v 0.25428450264624708 -0.097011481200114769 -0.015517686252812878
v 0.24603870738739816 -0.097539083763296175 0.039984143443855265
v 0.176286681442684 -0.094918085383971618 -0.20119377606014932
v 0.025282167753390566 -0.095495851127284703 -0.26332877924742448
v 0.24999694890823171 -0.097256997603428444 0.01963431609950099
v 3.2526065174565364e-19 -0.097673654545817681 0.25101538441069082
v 0.098885088844926736 -0.097709169477720931 0.22654356747679355
v 0.011892676806534662 -0.095595232360478427 -0.26356286271579638
v 0.0058325900548596692 -0.095667876733511834 -0.2634993643303194
v 0.0073408625737880562 -0.097609006572947271 0.25013231393973445
v -2.7105054312137611e-19 -0.095755958212094747 -0.26338487666766086
v 0.33725077386705571 0.037723606700588469 -0.0018305728565206709
v 0.31643406905715432 0.06914410041748531 -0.0012323858583725472
v 0.24942555240769243 0.097532093467977921 -0.0022595892191742675
v 0.21005345110116461 0.090299012921498015 -0.0017902582610017062
v 0.17727937582078795 0.068680584272926115 -0.00070801629542299217
v 0.156174091155729 0.036213584321506571 -0.0011511055533219409
v 0.14953360346331457 -0.0043495545328728381 0.00027103640112153171
v 0.1571820361169774 -0.038493367035648748 0.00062040224956522129
v 0.17727571933257941 -0.068400520191754105 -7.0283474611906096e-05
v 0.25293341502705258 -0.097277802794894758 -0.0010063862621996502
v 0.28596719918019664 -0.08983454321178691 -0.002634034249433633
v 0.31565024436884209 -0.069812241886114401 -0.0032803217973886791
v 0.33598028626190457 -0.040936987070577455 -0.003606310539038603
v 0.15226864968245468 0.020462787830137923 -0.00078530395229963888
v 0.32786783540716474 0.054001984740678924 -0.0014985153531124609
v 0.16822316780442398 0.056485339083659256 -0.00081545418835974584
v 0.16656091009958526 -0.053956260978464794 0.00030664218465310561
v 0.30154452603262394 0.080421162635970295 -0.0011003232221824047
v 0.1948035883692702 0.081669552023665562 -0.0011900300483935716
v 0.19121208681841306 -0.079344830280060008 -0.00022665679533332323
v 0.15081890684574195 0.01234201125021646 -0.00043488337171363102
v 0.15255986535565796 -0.02134386920534944 0.00065780045839081234
v 0.34208288999911912 0.020288768259792998 -0.0022500532115307739
v 0.3412126472175635 -0.024524736204940459 -0.0033747364969149915
v 0.26811188738969871 0.094782968277864962 -0.0017870548417370257
v 0.22989370544942689 0.095475976118170214 -0.0022822088626233278
v 0.23357263916264831 -0.096089824051430517 -0.00025753362179796414
v 0.34385038930127904 0.010962755988196096 -0.0025075948110736173
v 0.33918366513102433 -0.032919199022296133 -0.0035330122941380358
v 0.32242562851114137 0.061798272604790525 -0.0013632431917675737
v 0.25890271273956167 0.096493347371068822 -0.0020617858781936463
v 0.24321800893223422 -0.097308440749052844 -0.00055999678652298118
v 0.198667704514293 -0.084183648245119785 -0.00019464375776243894
v 0.17260291675807796 0.062764997577400491 -0.00071086121050620754
v 0.14956001788982948 0.0040961487993851969 -6.2024093028446289e-05
v 0.15967189554777708 0.043386369501042119 -0.0011175647106163506
v 0.16385461703267634 0.050061555699165497 -0.00097558231333232516
v 0.33289259395670423 0.045984607596760277 -0.0016495205912370114
v 0.33153958141679973 -0.048411369225279249 -0.0036053049794153727
v 0.17165012841479135 -0.06141981017202975 0.00010825196218829255
v 0.32150146319234596 -0.062983913426801513 -0.0034254645301212278
v 0.3091682620652807 0.075103761030981833 -0.0011406966761412355
v 0.30863291227970346 -0.075512895091059962 -0.0031294734701241148
v 0.29383657481710845 0.085455092713863923 -0.0011409091218260903
v 0.29368840534633689 -0.085539049978711534 -0.002838635914999184
v 0.20646342375706911 -0.088687040203552808 -0.00012861818403342405
v 0.20069336867586413 0.085361710979672378 -0.0014317738686361622
v 0.18396399770228078 -0.074258463466521596 -0.00018323849175087497
v 0.34007249718963439 0.02900906106396247 -0.0020296287469097176
v 0.15393044929626401 0.028455396254557723 -0.0010426616188551662
v 0.15441972768555956 -0.02997929706769014 0.00068400631571294388
v 0.15082720683120029 -0.012818281835550074 0.00052119683322628498
v 0.27712641816984673 0.092749666832435712 -0.0015066730536128217
v 0.27772960536583635 -0.092520975564108682 -0.0023172154889217712
v 0.26123393223810376 -0.096076398147392911 -0.0014637906475147076
v 0.23970467091023082 0.097086191756500739 -0.0023444732629185599
v 0.2199615702801466 0.093353327668475566 -0.0020852428382417132
v 0.21501303830900059 -0.092048675218876247 -7.4100726721004241e-05
v 0.34489670190875166 0.0017607729826081284 -0.0027627318103232179
v 0.18295509248309427 0.073458853863836382 -0.00079084242773022867
v 0.32665520908834822 -0.055724073598440137 -0.0035401624704161014
v 0.16162526714310263 -0.046357052105826024 0.00048570314619708854
v 0.26945847753367091 -0.094460121861526275 -0.0019153554611759482
v 0.30120906894546084 -0.080660531730252977 -0.0029898418524772017
v 0.28585951356324735 0.089955039135681286 -0.0012870599545039124
v 0.22413677728018877 -0.094322110074871707 -0.00010131333112665666
v 0.34299223077932706 -0.015998017601826529 -0.0031925756116597528
v 0.34444498827127285 -0.007267899105885072 -0.0029909895867582638
v 0.18887992475859267 0.077698381660157523 -0.00096276653501169488
v 0.17568428349473331 0.084755117407069508 -0.094879546227228329
v 0.14498509265538856 0.087501781474164375 -0.14364000035390118
v 0.13205696928437158 0.088723289240061648 -0.15875225595045817
v 0.11744468955937373 0.089676047618843374 -0.17195234926824235
v 0.10099806543971633 0.089926145741289348 -0.18307802159155853
v 0.082741202529417773 0.089940515192375725 -0.19208487429956955
v 0.063055185226553845 0.08966820153897237 -0.19901767503592194
v 0.04241624063224024 0.089121994931373238 -0.20374646771263427
v 0.021256782417407274 0.089097996324541642 -0.20593937263316242
v 0.02544818700061087 0.090212215831668247 0.20825475521555756
v 0.043425808198008335 0.090381303521069434 0.2051196245799351
v 0.062171474871530311 0.090362526796030559 0.20000519315330167
v 0.081253070247260681 0.090149395040377348 0.1932244163153079
v 0.099855353482468517 0.090180150457404934 0.18475940896782872
v 0.11712155341334676 0.090420580531264977 0.17444028594336469
v 0.13286263255079009 0.090311347026544031 0.16232015398047564
v 0.14727500369710328 0.090041383757886354 0.14833123050800603
v 0.16063682616654817 0.0895264384787402 0.13262592424482159
v 0.17273983107902952 0.088954680764266325 0.11540845854580012
v 0.18274664446983335 0.089022162155787149 0.096907105648088604
v 0.19058476318172107 0.088528680455667821 0.077710825475932777
v 0.19076512985105418 0.084525774772385862 -0.05811123861556531
v 0.20084797791541709 0.085559346229092892 0.0082500205648607453
v 0.19282616760029606 0.08467416217568377 -0.051389793739502233
v 0.1976980325748566 0.084967058987599167 -0.031200115852482703
v 0.18838959876943717 0.08450588786819907 -0.064975876688359802
v 0.20025542717211137 0.085367974977807529 -0.0091663503918046046
v 0.17149491137154821 0.08501422367794173 -0.10287852050216388
v 0.18571834975985882 0.084551106736394266 -0.072064453996419225
v 0.19468172255104382 0.084791083373730702 -0.044742248019777553
v 0.17802555660738434 0.088954431920464899 0.10627661807254113
v 0.10945166854655064 0.089898107816304709 -0.17776886380001267
v 0.12515121875483706 0.090507866162556072 0.16857910066892956
v 0.16688348411621151 0.089211725616567192 0.12419035172322918
v 0.034323174800462319 0.090334186031286332 0.20694203663397989
v 0.031867047408895774 0.089053101011333596 -0.2051252107939662
v 0.052811161364482023 0.089533442383128825 -0.20162225088902169
v 0.19367503377890916 0.087949088879084675 0.067910656677278566
v 0.071704443860964695 0.090314902225271346 0.19679109624928831
v 0.073030872379043404 0.089962362908470747 -0.19577272201171614
v 0.016794015628955959 0.090286450121827733 0.20899771906516634
v 0.010632090567099245 0.088943482162736356 -0.20644449067719939
v 0.092046351218893055 0.090127113333440076 -0.18777902569723745
v 0.090639139909747354 0.090340936507202166 0.18913504318102364
v 0.18696084863085038 0.088842688881172277 0.087389004378632035
v 0.15408291606053923 0.089828916497616818 0.14067889400601871
v 0.13868356036537507 0.088204775890949383 -0.15136664034296207
v 0.14022744741600873 0.090131168440937548 0.15556997264491143
v 0.20069336867586413 0.085361710979672378 -0.0014317738686361622
v 0.15661863629595837 0.086216417006471535 -0.1274706574630195
v 0.20063025018308356 0.085940351938152165 0.018006863280278253
v 0.19966028277786674 0.085226648662549503 -0.016756676790646564
v 0.18277357130349198 0.084543650748303223 -0.079432906630208147
v 0.19631073508220914 0.084883934799939498 -0.038048963961743648
v 0.19919451231474938 0.086771607581110757 0.0378558332170408
v 0.19616954923331528 0.087344709624614408 0.057976233508176878
v 0.19878382423929769 0.085128173947491087 -0.024108757923468026
v 0.19789766262715947 0.087130789451204768 0.047908084484969027
v 0.2000797739196491 0.086377487879868736 0.027874484653544279
v 0.15094169786355383 0.086874273587955131 -0.13562009562293698
v 0.10868099449894775 0.090319144240980587 0.17982270926240945
v 0.052723063988199113 0.090393642963120274 0.20279016653157611
v 0.16690421005389799 0.085323336364962393 -0.11101242931172448
v 0.17941630477131998 0.084656452706120794 -0.087037904503532687
v 0.16191457368415801 0.085764240870878236 -0.1192152746432015
v 0.1249564582227688 0.089340725979584451 -0.16558759779388571
v 0 0.08921151797765757 -0.20655246815401249
v -1.084202172485517e-19 0.090636987476230543 0.20940358058762046
v 0.0083385602841818049 0.090414484895404906 0.20932911020555789
v 0.28112753836141857 0.034678587400895702 -0.18808455687137191
v 0.25953676721453467 0.037576621374453167 -0.21553190037748943
v 0.24111668806645806 0.03797293070321358 -0.23594460508280138
v 0.21384008562846171 0.035878621627122034 -0.26136540659734775
v 0.17343393787823799 0.017606556753088677 0.2953892872135051
v 0.29305163189149619 0.018197760752078025 0.17715620919039435
v 0.11426271717387837 0.015919776384876953 0.32327498808642419
v 0.32182141637001227 0.01909477493550274 0.11646858366834981
v 0.34189472982481639 0.018755106838537088 0.016229907358658112
v 0.05231325848468675 0.016897033890894697 0.33867421063104575
v 0.34109905981813265 0.022143611985196543 -0.017840727893611519
v 0.27481599440183746 0.018748278256157935 0.20396627076643029
v 0.33831027564318 0.018515881683810222 0.052185746462542683
v 0.02009751319351474 0.018299006153812948 0.34178766632521251
v 0.25241640895997525 0.01971749059422313 0.23088482728259893
v 0.30838648598524854 0.018773609937300154 0.14866281584887783
v 0.22877812797821517 0.019084915071296088 0.25455601565934616
v 0.20532315521629829 0.0178145142979447 0.27412225751829722
v 0.068991999322956424 0.016136892804384323 0.33595758225576172
v 0.33505482993432123 0.019061921085300026 0.070541723352892563
v 0.28461214693216641 0.018336576384810399 0.19072357094152095
v 0.19321409534581718 0.017482244071261425 0.28294255737870688
v 0.34081131029675249 0.01824604835580489 0.034291622004467712
v 0.035619632664176427 0.017696873804976802 0.34075587204868812
v 0.3397068915373867 0.024290972870488075 -0.033826206395016489
v 0.21724558947637163 0.018470630293551948 0.26491044284249188
v 0.24061528423472478 0.019612014219558528 0.24341638334946619
v 0.12905480312004119 0.016742746317380083 0.31762656056227301
v 0.31544269022645621 0.019034649379857174 0.13321655227321411
v 0.15909485158379655 0.017735454584582241 0.3035069288309894
v 0.3011392326662421 0.018456128948930277 0.16333214696819442
v 0.34208288999911912 0.020288768259792998 -0.0022500532115307739
v 0.32786112194778083 0.019212073940111575 0.098560809254623905
v 0.26416484638986693 0.01939071701325289 0.21761505544895043
v 0.099740475675045015 0.0154454255147005 0.32830216504722537
v 0.22748037597874782 0.037174492608343511 -0.24887766128392275
v 0.29106751594911384 0.032789488003907144 -0.17366011952571586
v 0.27080812973150759 0.036449214572333348 -0.20200603440746917
v 0.092333461926307675 0.015392215042388106 0.33035991028463191
v 0.16550918793411978 0.030234399998655549 -0.29676928816666071
v 0.32256470620565181 0.028329499521600618 -0.10846361966750476
v 0.1078676619794833 0.028128035631155759 -0.3227827068004438
v 0.040530707397960421 0.028793695442544082 -0.33780168402230154
v 0.33846470335092632 0.025196687698781809 -0.041964585667531355
v 0.012206437403516285 0.029101006868704052 -0.33983725156562394
v 0.093262189043330418 0.028240538937079514 -0.32740295920174201
v 0.32777828782527618 0.027878540128683918 -0.091762603873165483
v 0.30046285344310897 0.03101044911517236 -0.15835213952510874
v 0.15098153968305505 0.029573196239875695 -0.30467315913449877
v 0.20707664988645177 0.035008418233160421 -0.26726657756590744
v 0.31274025879186973 0.029153849127441483 -0.13373319040230047
v 0.13658947286687068 0.028922065801646465 -0.31159708902056088
v 0.33209080322234041 0.027356776963158268 -0.075140250460732028
v 0.19365607329972048 0.033076748737945597 -0.27828001846686218
v 0.33570761265585553 0.026591903228198432 -0.05851710392595752
v 0.025682646061262832 0.029207395441328415 -0.33913446176849998
v 0.078447008971425397 0.028217949433131405 -0.33099052549675012
v 0.28614968284828679 0.033739090581315516 -0.1809643208342808
v 0.17975302490393541 0.031280587057629219 -0.28786974558256129
v 0.3163703491000518 0.028834249258085899 -0.12534106345221155
v 0.26526977015818121 0.037096077942048354 -0.20877367763909238
v 0.33408821855575555 0.027055842857530946 -0.066850637176612632
v 0.33712599163893786 0.025968197968279226 -0.050204253482353009
v 0.33000394387450543 0.027622401988829544 -0.083442442097042296
v 0.063540878053239047 0.028292031267258766 -0.33442474622042073
v 0.08586559784088324 0.028246038396250211 -0.32927723627612937
v 0.048199839824134505 0.028522908275460078 -0.33673397932306476
v 0.18680850683641442 0.032133045364549709 -0.28327614121120814
v 0.17259682393312462 0.030620373329290934 -0.29227790130561893
v 0.20039648604266105 0.034068265759009696 -0.2729501016975005
v 0.03298591049046791 0.029062576089667905 -0.33866089667603383
v 0.018744975976151039 0.029224538487083878 -0.33948194724376701
v 0.30859601247981938 0.029529335960260403 -0.14194302613329679
v 0.31954611662524812 0.028547685603069764 -0.11686798899199927
v 0.11507661925036157 0.02815214141657664 -0.32015799262146899
v 0.12947566904565727 0.028621904670000559 -0.31475539934556368
v 0.15825832089788799 0.029894809922555887 -0.30086426781317643
v 0 0.028539595630706262 -0.34068244266252212
v 0.32536840349112905 0.028131934197653016 -0.10011631524785827
v 0.084770998092966621 0.015508919883281156 0.33230210786677511
v 0.10061852937636091 0.028197888167286668 -0.32528638282213412
v 0.10701479167852576 0.015624696407905921 0.3259143259331943
v 0.33041171174216732 0.019219103709252512 0.089234396148341277
v 0.29711942773862704 0.018285113491738392 0.17029087796885575
v 0.16638106071645509 0.017710187459659223 0.29951152389135999
v 0.34212253733943376 0.019409995650364154 0.0070338939952806646
v 0.0438866043912527 0.017289670835624923 0.33975316178511039
v 0.34169057662673319 0.021152455062331731 -0.01001432416714261
v 0.25834163003217547 0.019604135425220631 0.22430420505766813
v 0.23466290009622837 0.019377124533125581 0.24912060560054222
v 0.32490167594993302 0.019144116240877366 0.10764266298022593
v 0.013040856436152359 0.018493425484185352 0.34213319666326025
v 0.21130135606276845 0.018120938980802945 0.26959638538202646
v 0.26962438045823311 0.019072820596526235 0.21076931469626059
v 0.33965217226073685 0.018299480331181648 0.043211538908919565
v 0.15158260483012997 0.017620568281907965 0.30721659673219159
v 0.30484717476113132 0.01862025313636323 0.1561038119930433
v 0.23445501722568743 0.037703754781149491 -0.24257307979126397
v 0.24745532222675948 0.0380036257905014 -0.22912246936047082
v 0.22081482687348139 0.036703451161470273 -0.25541509790783284
v 0.24653001834841792 0.019729561323824626 0.23731627413203338
v 0.25366149434375607 0.037913210572404002 -0.22236575576614476
v 0.27983175579409159 0.018497329877687145 0.19731160084135718
v 0.055899608266561623 0.028355257508169987 -0.33563496725348935
v 0.34149831731782854 0.018374700511448759 0.025311302014670078
v 0.34049998020135452 0.023230521071208144 -0.025774390233316565
v 0.14372894183318666 0.029221853665788208 -0.30819220613651288
v 0.31193655143213339 0.018921510234039991 0.14105831967110111
v 0.06072809909400026 0.016513574682939489 0.33742828960388976
v 0.18028895314903276 0.017509809388439768 0.29130210173759152
v 0.28893720347953988 0.018220712046179546 0.18397708380619154
v 0.3328225718030533 0.019181279808551069 0.079861748828162049
v 0.077003373807353587 0.015776351151895879 0.33418784140437924
v 0.027639807579337816 0.018030312737765473 0.34136139414071132
v 0.22301853583948122 0.018785960923335277 0.25984868509246473
v 0.33682278585281805 0.018809029638878653 0.061292967932241676
v 0.3187086295731289 0.01907626428353823 0.1250128721473136
v 0.12160249948102503 0.016312732823594911 0.32052679900836678
v 0.19931102790201161 0.017593681040960957 0.27856025061468698
v 0.27583952393878797 0.035514962466107532 -0.19495652131274327
v 0.13653608163385955 0.017116992666034628 0.31437037296231729
v 0.2957074389788763 0.03181188632298533 -0.16604616288243268
v 0.18691860615921443 0.017469602095617869 0.28722615517278061
v 0.14404027048799622 0.017409141074614734 0.31084433359703728
v 0.30465047579089971 0.030199154268681267 -0.15023859384522059
v 0.12229516866248719 0.028336942954964077 -0.31755004937208575
v 0.07102990465017979 0.028230786555208762 -0.33276087358226242
v -1.6263032587282554e-19 0.018670078530575666 0.34263085795866116
v 0.0064002710415787673 0.018608535463351915 0.34240875651242342
v 0.0060064820050406142 0.028857170452084968 -0.34024480055441908
v -1.084202172485547e-19 0.068518211800240092 -0.17702146364834351
v 2.7105054312138935e-20 0.036427869402303394 -0.15629278025501653
v 8.1315162936425423e-20 0.07405063693280324 0.31123033672765876
v 0 -0.038456482117233515 0.15678240861659729
v 0 -0.067215485745302672 0.17584712014797355
v 0 -0.055211877839389675 0.3272968512768325
v 3.2526065174566881e-19 -0.057520990921754056 -0.3257120750488105
v 1.4444474582904269e-34 0.014956864345379829 -0.15130592093862449
v 0 -0.015793502978104924 0.15157643750585542
v 0 -0.095768815941896387 0.23119752219156078
v -4.3368086899420177e-19 -0.028705613958855149 0.34044306507400612
v 0 0.046939513588960154 -0.33257475526803021
v 4.3368086899420177e-19 -0.097116157253658159 0.23846632339844825
v -8.6736173798840355e-19 0.0078724181018871679 -0.14988528164271483
v -1.0842021724855124e-19 0.048933428439272716 0.3313552981038953
v -3.1777844082389392e-33 -0.046483556072453108 -0.16169673624988185
v 1.0842021724854645e-19 0.076395569385376755 -0.1870699623672972
v 0 0.028539595630706262 -0.34068244266252212
v 4.3368086899420177e-19 0.042496455961243268 0.33542588273970531
v -4.3368086899420177e-19 0.044848180547998426 -0.16057271427528852
v -2.1684043449710089e-19 0.081263408465112291 -0.30047810417428755
v -4.3368086899420177e-19 -0.080504739465601993 0.30162453054188731
v 0 -0.094588760700667573 -0.22511427190367123
v -8.6736173798840355e-19 0.069483954813262874 0.31714121563836073
v -3.2526065174565268e-19 0.069606132062783641 -0.31637198605178107
v -4.3368086899420177e-19 0.0633679887874357 -0.32154981137112276
v 3.2526065174565133e-19 0.024498038065600455 -0.15324232186299055
v -1.0842021724854958e-19 -0.0087471912169099931 -0.15009961640299635
v -1.8973538018496308e-19 0.053502230332759707 0.16636023812762307
v -2.9815559743351444e-19 -0.094568295754535639 0.26945651323364506
v 2.1684043449709992e-19 -0.07010383256367872 0.31603949876023246
v 0 -0.063465941570616108 0.32147905380910752
v 1.0842021724855013e-19 -0.019998528411444373 0.34233638579812453
v 1.0842021724855225e-19 -0.038483848061517639 0.3378083670274008
v -2.7105054312137404e-19 0.04790357783726916 0.16263203990243455
v 2.7105054312137505e-19 0.040483073564593998 0.15793690662900139
v -2.7105054312137548e-19 -0.010387140573080211 0.34414948604429341
v -5.8259380817713891e-33 0.039146217108829665 -0.33736936105139737
v -1.6263032587282545e-19 0.033885892988936524 0.33928246673650597
v 4.3368086899420177e-19 -0.047011701646970321 0.33256922708540132
v 8.131516293641211e-20 0.055913399116431742 -0.32674496497071931
v 1.0842021724855015e-19 0.063765406543933756 0.3214051360584736
v -2.7105054312137423e-19 0.098421290025389144 -0.24724765971020934
v 3.2526065174565355e-19 0.096649498194631395 0.25905798871708707
v 8.6736173798840355e-19 0.093468237385752412 0.21963062949436465
v -3.252606517456521e-19 0.095452022117492735 0.22958400497376918
v 0 0.094644763156140094 -0.22536827722869843
v -1.8973538018496224e-19 0.092973892797995214 -0.21753893370742711
v -2.1684043449710291e-19 -0.08148352328898667 -0.19447258255322458
v 2.7105054312137611e-19 0.074157735193397079 0.18379579922747161
v -5.4210108624275732e-19 -0.053647452723491341 -0.16645828355258824
v -4.3368086899420081e-19 0.022979492622886538 0.15296369164284265
v -4.3368086899420177e-19 0.054701316120910795 0.32746014287951108
v 8.1315162936412833e-20 -0.049527287880292523 -0.33106191522690137
v -2.4394548880923869e-19 0.063606539886731761 0.17318166710770455
v 3.117081245895896e-19 -0.047728809288781752 0.16250442563243195
v 2.1684043449710089e-19 -0.077560156801102703 -0.30600711049356644
v -2.1684043449710089e-19 -0.081076283708127639 -0.30077770842311391
v 2.913793338554694e-19 0.080019782190786717 0.30241009586670065
v -1.0842021724855015e-19 -0.086173735930026502 -0.20168597776209976
v -2.1684043449710089e-19 0.084642176632149846 -0.19928759161003853
v 0 0.085024385737359848 0.19992164672162971
v -5.4210108624275414e-20 -0.031794209617981302 -0.15497065884591665
v 2.1684043449710223e-19 -0.0078200856120145493 0.14998037498849953
v 2.1684043449709954e-19 0.0094076810700037018 -0.34436237977531869
v -2.168404344970992e-19 0.032075163335086185 0.15492056875971766
v -5.4210108624269131e-20 -0.092834774561898203 -0.27766961566738224
v -4.3368086899420177e-19 -0.094746499209652502 -0.26862085810608693
v 2.1684043449711254e-19 0.095817734028171855 -0.26335258806958917
v 1.6263032587282709e-19 0.093134588981009875 0.27625101195490281
v 0 0.095410156239633795 0.265350261020531
v 4.3368086899420177e-19 0.097108895152462155 0.23818001896881796
v 3.2526065174565143e-19 -0.09620905120154806 -0.23348431073625708
v -4.3368086899420177e-19 0.0025708372441562962 0.34532271830134109
v 1.4907779871677145e-19 0.093301289582705851 -0.27562782801252284
v -5.4210108624274066e-20 -0.037602265233562665 -0.33814151452042079
v 1.0842021724855044e-19 -0.091770550173078905 0.28107416330456347
v 2.1684043449710089e-19 -0.089258420014439788 0.28803210640210086
v 1.3552527156068854e-19 -0.075134546572328209 0.30951714860587798
v -5.4210108624275968e-20 0.075601750031752082 -0.30880598862510511
v 8.8091426514440434e-20 -0.070915401522410201 -0.3152637490872402
v 2.1684043449710084e-19 -0.098036259467915512 -0.24830484432584649
v 0 -0.097607289770503342 -0.24109395060107427
v 2.0328790734103295e-19 -0.084965187354116928 0.29498282607882215
v 1.3552527156071583e-20 0.085992310081613843 -0.29341169625582536
v 1.3552527156068175e-19 0.086443289568687659 0.29269983605333416
v -1.0842021724855042e-19 -0.096765417214536992 -0.25814889522923484
v 0 0.097291930808405952 -0.25578138230328723
v -2.1684043449710089e-19 -0.09646395507455427 0.2598931986949764
v -1.0842021724854495e-19 -0.090150351636991755 0.20904123337755007
v 0 -0.094566407825218496 0.22502088404667614
v -8.6736173798840355e-19 -0.09020116581470948 -0.20812854449457691
v 1.0842021724855319e-19 -0.092619321407774624 -0.21626691824559841
v -2.7105054312138297e-20 -0.074758811775362116 -0.18470073753819949
v -1.0842021724855044e-19 -0.084512470049013536 0.19913540807562116
v 5.4210108624276052e-20 0.08046335723736904 -0.19303975040333005
v 2.7105054312137737e-20 0.060944528761488009 -0.17146995726517447
v -1.084202172485481e-19 -0.061736065459361972 -0.17194139183693008
v 1.0842021724855189e-19 0.05217841997251247 -0.16547607415273352
v -3.7947076036992569e-19 -0.079609205895356708 0.19173769999685353
v -3.2526065174564262e-19 -0.073946823128813371 0.18345256750597161
v 1.6263032587282427e-19 0.080163637758883161 0.19256860261765096
v 2.710505431213808e-20 -0.020263195621700477 -0.15243494439078192
v -5.421010862427533e-20 -0.024717887790660233 0.15322605385280097
v 1.3552527156068805e-19 -0.00068650210823122332 -0.14911616105748418
v 1.8973538018496301e-19 0.00071936626614038234 0.14936384683367426
v 0 0.08921151797765757 -0.20655246815401249
v -3.5236570605778836e-19 -0.057703894302192464 0.16913663963171982
v -8.131516293641341e-20 -0.085474079578323703 -0.29418364310585787
v -1.084202172485517e-19 0.090636987476230543 0.20940358058762046
v 2.7105054312137688e-19 -0.017261786633762228 -0.34288963546460394
v 4.3368086899420177e-19 0.012846700217804676 0.15085850239698709
v 0 0.01860590062904089 -0.3426606353019942
v -4.3368086899420177e-19 0.00081209841188370577 -0.3455738694022506
v -1.6263032587282554e-19 0.018670078530575666 0.34263085795866116
v -5.4210108624274939e-20 0.097972732967593193 0.24712028320814555
v 8.6736173798840355e-19 0.090695461358119497 -0.28558794370449075
v 0 0.090846187668782857 0.28525618740137837
v 3.2526065174565364e-19 -0.097673654545817681 0.25101538441069082
v 0 0.097474876184149656 -0.23995707037321831
v -2.1684043449710089e-19 0.095861128522747696 -0.23156123638198578
v 0 -0.090214156041221821 -0.28638989667886006
v 2.7105054312137173e-19 -0.070390320200341736 -0.17879016746729182
v 4.3368086899420091e-19 -0.0072391411509832538 -0.3446906643637655
v -2.1684043449710089e-19 0.027400019237824542 0.3408502825709489
v -3.2526065174565138e-19 0.010014259022909859 0.34423221669549842
v 8.6736173798840355e-19 -0.027238858574398436 -0.34081346080467623
v -2.1684043449710089e-19 -0.064511490853118761 -0.32082387357308273
v 8.6666847497425613e-34 -0.039462487565370977 -0.15729843069867933
v -2.1684043449710065e-19 -0.09304577465134739 0.21785119051990004
v -2.7105054312137665e-20 -0.03158718495394687 0.15500423123469914
v 1.3552527156068709e-20 0.06888213754006442 0.17848873316758807
v -4.0657581468208487e-20 0.064731370280864051 -0.17424571045675899
v -3.9302328752598905e-19 0.071767295873033057 0.31418577618300975
v -2.7105054312137665e-20 -0.020255695384382578 0.1524012456793282
v -3.794707603699267e-19 0.066624680678598308 0.31927317584841719
v -9.486769009248112e-20 0.093809327977067647 -0.22145360546806275
v 2.7105054312137702e-19 -0.042747774854243983 0.33518879705640103
v -2.9129690408856946e-33 0.043042865348894906 -0.33497205815971376
v -1.7618285302889483e-19 0.059640693951933721 -0.32414738817092104
v -2.5749801596530769e-19 -0.095516125414544933 0.26467485596431073
v -3.2526065174565273e-19 -0.057691759091426653 -0.16919983769475916
v 1.6263032587282574e-19 0.019727451205490142 -0.15227412140080754
v 2.0328790734103261e-19 -0.0035503596729370836 0.1496721109110869
v -2.7105054312134565e-20 -0.091524465301560012 -0.28202975617312115
v 1.6263032587282571e-19 -0.096908170486025708 -0.23728913066866569
v 1.2197274440461672e-19 -0.072574565987851919 -0.18174545250274565
v 0 0.023572748129873575 -0.34167153898225827
v -1.897353801849632e-19 0.023035048884200104 0.34174057026480498
v -2.439454888092384e-19 0.014342168776742764 0.34343153732707976
v 5.6920614055489021e-19 -0.02225032260408033 -0.34185154813464008
v 4.0657581468206474e-19 -0.032420561903980551 -0.33947748766254848
v -1.897353801849632e-19 0.030642956113380533 0.34006637465372747
v -6.437450399133022e-20 -0.067713446187764481 -0.31804381133016146
v 5.4210108624283961e-20 -0.061016240887436408 -0.32326797431094662
v -1.6263032587282494e-19 0.048513300260255451 -0.16302439421401102
v -1.4907779871675715e-19 -0.083275181643225671 -0.29748067576448589
v 1.6263032587282677e-19 0.096029827217132602 0.26220412486880906
v -3.7947076036992723e-19 0.06648706042510967 -0.31896089871145195
v 1.7618285302889514e-19 0.030462953733951924 -0.15476755105900353
v -2.3039296165316854e-19 0.050702904085014433 0.1644961390150288
v -2.9129690408856946e-33 0.033842906369767958 -0.33902590185695974
v 3.7947076036992593e-19 0.092052612430991471 0.21451710504099253
v 2.7105054312137572e-19 0.094460129751622601 0.22460731723406693
v 0 -0.079318220254615171 -0.30339240945834017
v 1.0842021724855112e-19 -0.011806794295059736 0.15077840624717748
v -2.4394548880923546e-19 -0.093790636885775353 -0.27314523688673459
v 8.1315162936413543e-20 0.094272372610321842 0.27080063648771691
v 5.4210108624274837e-20 0.096280458634977445 0.23388201197129357
v 1.6263032587282567e-19 -0.090514485093759339 0.28455313485333217
v 1.0842021724855042e-19 -0.09782177461920942 -0.24469939746346037
v 0 -0.095167611883557462 0.22810920311911848
v -3.794707603699252e-19 -0.091410243611242059 -0.21219773137008766
v 5.0555661040164941e-34 0.044193325700931582 0.16028447326571799
v -2.7105054312138025e-19 -0.050065504397972221 -0.16407750990123504
v -3.7947076036992665e-19 0.0062925481335330772 0.34477746749841975
v 1.0842021724854977e-19 0.014006790849522296 -0.34351150753865645
v -4.3333423748712807e-34 -0.003213521369549774 -0.34513226688300802
v 1.8973538018496342e-19 0.097540814060027681 0.24265015108848176
v 5.4210108624276377e-20 -0.097068804810185955 0.25545429155283361
v 8.1315162936411821e-20 -0.066063192829851847 -0.17536577965211095
v -1.0842021724855112e-19 0.0051098897409437034 -0.34496812458878467
v -1.6263032587282475e-19 -0.033594731010186396 0.33912571605070346
v -2.7105054312137611e-19 -0.095755958212094747 -0.26338487666766086
v 2.1006417091906692e-19 -0.087111803684278358 0.29150746624046153
v -4.0657581468206705e-20 -0.087844117809772762 -0.29028676989235896
v 5.4210108624276594e-20 -0.093604041054221099 -0.22069059507463482
v -1.0842021724855032e-19 -0.093806091238282943 0.22143603728328809
v -4.0657581468206501e-20 -0.028152536372303551 0.15411514254375006
v -1.0842021724855044e-19 0.095252945839443895 -0.22846475680534209
v 6.776263578034481e-20 0.056561474367000236 -0.16847301570895401
v -2.0328790734103141e-19 0.040638024975150913 -0.15843274726515252
v -3.5236570605778865e-19 -0.003908151664461958 0.34473610217281725
v 1.3552527156068931e-19 0.097311115581112301 0.25308913596261629
v -9.4867690092481999e-20 -0.093169422963807272 0.27526533826910426
v 3.2526065174565364e-19 -0.097673654545817681 0.25101538441069082
v -2.7105054312137611e-19 -0.095755958212094747 -0.26338487666766086
v -0.25293341502705258 -0.097277802794894758 -0.0010063862621996502
v -0.03184200357371933 -0.097648479641011587 0.24654844972055062
v -0.050787392062657144 -0.097518655089725778 0.24269779114080964
v -0.070502281008481021 -0.097518550947839344 0.23733728113350289
v -0.089673215336296991 -0.097726420827000476 0.230482036488729
v -0.11662251832547035 -0.097902123945513314 0.21781993073327369
v -0.13351353076600542 -0.097633948241888868 0.20811306221638703
v -0.15699326144778855 -0.097932485573817424 0.19155860748914846
v -0.1788020626039889 -0.097748172201554254 0.17119250006763165
v -0.1929188201865201 -0.097575884267125101 0.15465081335773995
v -0.20630912801470558 -0.097616489606439011 0.13572979146539549
v -0.21828652422662656 -0.09727320740722678 0.11493840666476243
v -0.22851789188556912 -0.097394530635635385 0.093129864389625575
v -0.23693286172992137 -0.097400879658750245 0.071308659532272473
v -0.24347786706281271 -0.097618997602950786 0.050234697382643481
v -0.24818378181197737 -0.097275483145254416 0.02982011193019456
v -0.08814048105764824 -0.095141944411454071 -0.251301539093502
v -0.24980935618512501 -0.095460115364941062 -0.087024806180289266
v -0.040394883890271578 -0.095325422799872744 -0.26224288587806366
v -0.064398506896175253 -0.095144529268031741 -0.25825008675785421
v -0.16350382808670955 -0.094878518744453577 -0.21184477239948724
v -0.21316465311824617 -0.094646547276250964 -0.16324390342329118
v -0.18258117371303156 -0.094917650916548316 -0.19554149495577955
v -0.20136208628189833 -0.094766698539184374 -0.17696242885616564
v -0.24246641749442155 -0.095115401888686266 -0.1104595694736899
v -0.11186071141234213 -0.095047589791080522 -0.24211854521986739
v -0.13535366204180485 -0.094849830243213168 -0.2306812880916842
v -0.23199843149412541 -0.094827221390550581 -0.13371223874395827
v -0.048342866869223164 -0.095273710209518581 -0.26126429076721103
v -0.16995294066136118 -0.094926460595741266 -0.20662369942121761
v -0.20741164665597894 -0.094721303927628522 -0.17022182793468188
v -0.080271716804540455 -0.095164483887062931 -0.25390502932888348
v -0.24532413005817122 -0.095180116019816713 -0.10264312883273016
v -0.10392336306781008 -0.095128053796186246 -0.24541162160904911
v -0.23576947078106761 -0.094933636790732939 -0.12602637161564106
v -0.12765403030734152 -0.094893871688690956 -0.23476849840634464
v -0.14999131539562199 -0.09486137780901932 -0.22171607584428848
v -0.22345007172919057 -0.094714960367019124 -0.14876150373235689
v -0.19974882941251876 -0.097497051253718853 0.14546373388949632
v -0.14159688248298313 -0.097704028707851207 0.20289161337097222
v -0.25157438580912872 -0.097401716657462417 0.009364507973501128
v -0.08020431510400193 -0.097561449451620777 0.23408414384532714
v -0.23295319716482299 -0.097320292726624263 0.082159268932532226
v -0.04111843705874909 -0.097643894173971166 0.24480105928373519
v -0.24044526970005259 -0.097533720354435388 0.060660691319425919
v -0.06064705515181136 -0.097531333274844922 0.24021055525914828
v -0.014972912221152452 -0.097533864094252645 0.24914862283496803
v -0.10786009170941105 -0.097697669628486583 0.22231078735581167
v -0.22363099662592983 -0.097208897396738492 0.10409987888699951
v -0.21250520683391366 -0.097451093612233253 0.12552045797089054
v -0.12518126142563279 -0.097886650242685933 0.21308422596075666
v -0.18591135411091758 -0.097684871759371295 0.16323490434995847
v -0.1716273684643933 -0.097713452684222074 0.17853331311770354
v -0.056375690610843861 -0.095205773171202268 -0.25993590712915637
v -0.25369686305748873 -0.09719234326470344 -0.0081791852999173534
v -0.25470122708696202 -0.096503828635605776 -0.047022229941959544
v -0.25425067516538769 -0.09632919321018768 -0.055167940181003336
v -0.25470352557482101 -0.096912997462699935 -0.023089405081505754
v -0.25140968613083714 -0.095655790643557087 -0.079182835074423544
v -0.2549199011596946 -0.096609306390452093 -0.03890229568593738
v -0.25357042130396557 -0.09611088309249774 -0.063265044063640169
v -0.25264034510075339 -0.095877307469799888 -0.071271376726294383
v -0.25490885447127765 -0.096679967237121522 -0.030897531825389436
v -0.018350372564929267 -0.095528082753701948 -0.26352140709988775
v -0.096015927237663695 -0.095150307208182155 -0.24846891722378545
v -0.21852950849865244 -0.094642554009554042 -0.1560798031243073
v -0.15687281823509749 -0.094858406189416961 -0.21687917213475122
v -0.24778186464156193 -0.095282682483224163 -0.094833740909846392
v -0.032663355883540794 -0.095413748621900524 -0.262917431577331
v -0.19515093824885291 -0.09484640483301654 -0.18344107769769416
v -0.18887402310969009 -0.094914094418149367 -0.18963484161275962
v -0.072365663444992595 -0.095143828600031108 -0.2562309930522314
v -0.23926159088403187 -0.095023705770983347 -0.11826344919171579
v -0.11979541676034466 -0.094975179327773218 -0.23857988574727401
v -0.22791374428429043 -0.094741840778635955 -0.14129602610398073
v -0.14281590295761826 -0.094847638882724433 -0.22632453677693581
v -0.16437662492821162 -0.097860027405172578 0.18529956891665128
v -0.14941374285107512 -0.097580168390215896 0.19738577568510934
v -0.02311127644863506 -0.097516529382263073 0.24797686756189119
v -0.25428450264624708 -0.097011481200114769 -0.015517686252812878
v -0.24603870738739816 -0.097539083763296175 0.039984143443855265
v -0.176286681442684 -0.094918085383971618 -0.20119377606014932
v -0.025282167753390566 -0.095495851127284703 -0.26332877924742448
v -0.24999694890823171 -0.097256997603428444 0.01963431609950099
v -0.098885088844926736 -0.097709169477720931 0.22654356747679355
v -0.011892676806534662 -0.095595232360478427 -0.26356286271579638
v -0.0058325900548596692 -0.095667876733511834 -0.2634993643303194
v -0.0073408625737880562 -0.097609006572947271 0.25013231393973445
v -0.33725077386705571 0.037723606700588469 -0.0018305728565206709
v -0.31643406905715432 0.06914410041748531 -0.0012323858583725472
v -0.24942555240769243 0.097532093467977921 -0.0022595892191742675
v -0.21005345110116461 0.090299012921498015 -0.0017902582610017062
v -0.17727937582078795 0.068680584272926115 -0.00070801629542299217
v -0.156174091155729 0.036213584321506571 -0.0011511055533219409
v -0.14953360346331457 -0.0043495545328728381 0.00027103640112153171
v -0.1571820361169774 -0.038493367035648748 0.00062040224956522129
v -0.17727571933257941 -0.068400520191754105 -7.0283474611906096e-05
v -0.25293341502705258 -0.097277802794894758 -0.0010063862621996502
v -0.28596719918019664 -0.08983454321178691 -0.002634034249433633
v -0.31565024436884209 -0.069812241886114401 -0.0032803217973886791
v -0.33598028626190457 -0.040936987070577455 -0.003606310539038603
v -0.15226864968245468 0.020462787830137923 -0.00078530395229963888
v -0.32786783540716474 0.054001984740678924 -0.0014985153531124609
v -0.16822316780442398 0.056485339083659256 -0.00081545418835974584
v -0.16656091009958526 -0.053956260978464794 0.00030664218465310561
v -0.30154452603262394 0.080421162635970295 -0.0011003232221824047
v -0.1948035883692702 0.081669552023665562 -0.0011900300483935716
v -0.19121208681841306 -0.079344830280060008 -0.00022665679533332323
v -0.15081890684574195 0.01234201125021646 -0.00043488337171363102
v -0.15255986535565796 -0.02134386920534944 0.00065780045839081234
v -0.34208288999911912 0.020288768259792998 -0.0022500532115307739
v -0.3412126472175635 -0.024524736204940459 -0.0033747364969149915
v -0.26811188738969871 0.094782968277864962 -0.0017870548417370257
v -0.22989370544942689 0.095475976118170214 -0.0022822088626233278
v -0.23357263916264831 -0.096089824051430517 -0.00025753362179796414
v -0.34385038930127904 0.010962755988196096 -0.0025075948110736173
v -0.33918366513102433 -0.032919199022296133 -0.0035330122941380358
v -0.32242562851114137 0.061798272604790525 -0.0013632431917675737
v -0.25890271273956167 0.096493347371068822 -0.0020617858781936463
v -0.24321800893223422 -0.097308440749052844 -0.00055999678652298118
v -0.198667704514293 -0.084183648245119785 -0.00019464375776243894
v -0.17260291675807796 0.062764997577400491 -0.00071086121050620754
v -0.14956001788982948 0.0040961487993851969 -6.2024093028446289e-05
v -0.15967189554777708 0.043386369501042119 -0.0011175647106163506
v -0.16385461703267634 0.050061555699165497 -0.00097558231333232516
v -0.33289259395670423 0.045984607596760277 -0.0016495205912370114
v -0.33153958141679973 -0.048411369225279249 -0.0036053049794153727
v -0.17165012841479135 -0.06141981017202975 0.00010825196218829255
v -0.32150146319234596 -0.062983913426801513 -0.0034254645301212278
v -0.3091682620652807 0.075103761030981833 -0.0011406966761412355
v -0.30863291227970346 -0.075512895091059962 -0.0031294734701241148
v -0.29383657481710845 0.085455092713863923 -0.0011409091218260903
v -0.29368840534633689 -0.085539049978711534 -0.002838635914999184
v -0.20646342375706911 -0.088687040203552808 -0.00012861818403342405
v -0.20069336867586413 0.085361710979672378 -0.0014317738686361622
v -0.18396399770228078 -0.074258463466521596 -0.00018323849175087497
v -0.34007249718963439 0.02900906106396247 -0.0020296287469097176
v -0.15393044929626401 0.028455396254557723 -0.0010426616188551662
v -0.15441972768555956 -0.02997929706769014 0.00068400631571294388
v -0.15082720683120029 -0.012818281835550074 0.00052119683322628498
v -0.27712641816984673 0.092749666832435712 -0.0015066730536128217
v -0.27772960536583635 -0.092520975564108682 -0.0023172154889217712
v -0.26123393223810376 -0.096076398147392911 -0.0014637906475147076
v -0.23970467091023082 0.097086191756500739 -0.0023444732629185599
v -0.2199615702801466 0.093353327668475566 -0.0020852428382417132
v -0.21501303830900059 -0.092048675218876247 -7.4100726721004241e-05
v -0.34489670190875166 0.0017607729826081284 -0.0027627318103232179
v -0.18295509248309427 0.073458853863836382 -0.00079084242773022867
v -0.32665520908834822 -0.055724073598440137 -0.0035401624704161014
v -0.16162526714310263 -0.046357052105826024 0.00048570314619708854
v -0.26945847753367091 -0.094460121861526275 -0.0019153554611759482
v -0.30120906894546084 -0.080660531730252977 -0.0029898418524772017
v -0.28585951356324735 0.089955039135681286 -0.0012870599545039124
v -0.22413677728018877 -0.094322110074871707 -0.00010131333112665666
v -0.34299223077932706 -0.015998017601826529 -0.0031925756116597528
v -0.34444498827127285 -0.007267899105885072 -0.0029909895867582638
v -0.18887992475859267 0.077698381660157523 -0.00096276653501169488
v 0 0.08921151797765757 -0.20655246815401249
v -1.084202172485517e-19 0.090636987476230543 0.20940358058762046
v -0.17568428349473331 0.084755117407069508 -0.094879546227228329
v -0.14498509265538856 0.087501781474164375 -0.14364000035390118
v -0.13205696928437158 0.088723289240061648 -0.15875225595045817
v -0.11744468955937373 0.089676047618843374 -0.17195234926824235
v -0.10099806543971633 0.089926145741289348 -0.18307802159155853
v -0.082741202529417773 0.089940515192375725 -0.19208487429956955
v -0.063055185226553845 0.08966820153897237 -0.19901767503592194
v -0.04241624063224024 0.089121994931373238 -0.20374646771263427
v -0.021256782417407274 0.089097996324541642 -0.20593937263316242
v -0.02544818700061087 0.090212215831668247 0.20825475521555756
v -0.043425808198008335 0.090381303521069434 0.2051196245799351
v -0.062171474871530311 0.090362526796030559 0.20000519315330167
v -0.081253070247260681 0.090149395040377348 0.1932244163153079
v -0.099855353482468517 0.090180150457404934 0.18475940896782872
v -0.11712155341334676 0.090420580531264977 0.17444028594336469
v -0.13286263255079009 0.090311347026544031 0.16232015398047564
v -0.14727500369710328 0.090041383757886354 0.14833123050800603
v -0.16063682616654817 0.0895264384787402 0.13262592424482159
v -0.17273983107902952 0.088954680764266325 0.11540845854580012
v -0.18274664446983335 0.089022162155787149 0.096907105648088604
v -0.19058476318172107 0.088528680455667821 0.077710825475932777
v -0.19076512985105418 0.084525774772385862 -0.05811123861556531
v -0.20084797791541709 0.085559346229092892 0.0082500205648607453
v -0.19282616760029606 0.08467416217568377 -0.051389793739502233
v -0.1976980325748566 0.084967058987599167 -0.031200115852482703
v -0.18838959876943717 0.08450588786819907 -0.064975876688359802
v -0.20025542717211137 0.085367974977807529 -0.0091663503918046046
v -0.17149491137154821 0.08501422367794173 -0.10287852050216388
v -0.18571834975985882 0.084551106736394266 -0.072064453996419225
v -0.19468172255104382 0.084791083373730702 -0.044742248019777553
v -0.17802555660738434 0.088954431920464899 0.10627661807254113
v -0.10945166854655064 0.089898107816304709 -0.17776886380001267
v -0.12515121875483706 0.090507866162556072 0.16857910066892956
v -0.16688348411621151 0.089211725616567192 0.12419035172322918
v -0.034323174800462319 0.090334186031286332 0.20694203663397989
v -0.031867047408895774 0.089053101011333596 -0.2051252107939662
v -0.052811161364482023 0.089533442383128825 -0.20162225088902169
v -0.19367503377890916 0.087949088879084675 0.067910656677278566
v -0.071704443860964695 0.090314902225271346 0.19679109624928831
v -0.073030872379043404 0.089962362908470747 -0.19577272201171614
v -0.016794015628955959 0.090286450121827733 0.20899771906516634
v -0.010632090567099245 0.088943482162736356 -0.20644449067719939
v -0.092046351218893055 0.090127113333440076 -0.18777902569723745
v -0.090639139909747354 0.090340936507202166 0.18913504318102364
v -0.18696084863085038 0.088842688881172277 0.087389004378632035
v -0.15408291606053923 0.089828916497616818 0.14067889400601871
v -0.13868356036537507 0.088204775890949383 -0.15136664034296207
v -0.14022744741600873 0.090131168440937548 0.15556997264491143
v -0.20069336867586413 0.085361710979672378 -0.0014317738686361622
v -0.15661863629595837 0.086216417006471535 -0.1274706574630195
v -0.20063025018308356 0.085940351938152165 0.018006863280278253
v -0.19966028277786674 0.085226648662549503 -0.016756676790646564
v -0.18277357130349198 0.084543650748303223 -0.079432906630208147
v -0.19631073508220914 0.084883934799939498 -0.038048963961743648
v -0.19919451231474938 0.086771607581110757 0.0378558332170408
v -0.19616954923331528 0.087344709624614408 0.057976233508176878
v -0.19878382423929769 0.085128173947491087 -0.024108757923468026
v -0.19789766262715947 0.087130789451204768 0.047908084484969027
v -0.2000797739196491 0.086377487879868736 0.027874484653544279
v -0.15094169786355383 0.086874273587955131 -0.13562009562293698
v -0.10868099449894775 0.090319144240980587 0.17982270926240945
v -0.052723063988199113 0.090393642963120274 0.20279016653157611
v -0.16690421005389799 0.085323336364962393 -0.11101242931172448
v -0.17941630477131998 0.084656452706120794 -0.087037904503532687
v -0.16191457368415801 0.085764240870878236 -0.1192152746432015
v -0.1249564582227688 0.089340725979584451 -0.16558759779388571
v -0.0083385602841818049 0.090414484895404906 0.20932911020555789
v 0 0.028539595630706262 -0.34068244266252212
v -1.6263032587282554e-19 0.018670078530575666 0.34263085795866116
v -0.28112753836141857 0.034678587400895702 -0.18808455687137191
v -0.25953676721453467 0.037576621374453167 -0.21553190037748943
v -0.24111668806645806 0.03797293070321358 -0.23594460508280138
v -0.21384008562846171 0.035878621627122034 -0.26136540659734775
v -0.17343393787823799 0.017606556753088677 0.2953892872135051
v -0.29305163189149619 0.018197760752078025 0.17715620919039435
v -0.11426271717387837 0.015919776384876953 0.32327498808642419
v -0.32182141637001227 0.01909477493550274 0.11646858366834981
v -0.34189472982481639 0.018755106838537088 0.016229907358658112
v -0.05231325848468675 0.016897033890894697 0.33867421063104575
v -0.34109905981813265 0.022143611985196543 -0.017840727893611519
v -0.27481599440183746 0.018748278256157935 0.20396627076643029
v -0.33831027564318 0.018515881683810222 0.052185746462542683
v -0.02009751319351474 0.018299006153812948 0.34178766632521251
v -0.25241640895997525 0.01971749059422313 0.23088482728259893
v -0.30838648598524854 0.018773609937300154 0.14866281584887783
v -0.22877812797821517 0.019084915071296088 0.25455601565934616
v -0.20532315521629829 0.0178145142979447 0.27412225751829722
v -0.068991999322956424 0.016136892804384323 0.33595758225576172
v -0.33505482993432123 0.019061921085300026 0.070541723352892563
v -0.28461214693216641 0.018336576384810399 0.19072357094152095
v -0.19321409534581718 0.017482244071261425 0.28294255737870688
v -0.34081131029675249 0.01824604835580489 0.034291622004467712
v -0.035619632664176427 0.017696873804976802 0.34075587204868812
v -0.3397068915373867 0.024290972870488075 -0.033826206395016489
v -0.21724558947637163 0.018470630293551948 0.26491044284249188
v -0.24061528423472478 0.019612014219558528 0.24341638334946619
v -0.12905480312004119 0.016742746317380083 0.31762656056227301
v -0.31544269022645621 0.019034649379857174 0.13321655227321411
v -0.15909485158379655 0.017735454584582241 0.3035069288309894
v -0.3011392326662421 0.018456128948930277 0.16333214696819442
v -0.34208288999911912 0.020288768259792998 -0.0022500532115307739
v -0.32786112194778083 0.019212073940111575 0.098560809254623905
v -0.26416484638986693 0.01939071701325289 0.21761505544895043
v -0.099740475675045015 0.0154454255147005 0.32830216504722537
v -0.22748037597874782 0.037174492608343511 -0.24887766128392275
v -0.29106751594911384 0.032789488003907144 -0.17366011952571586
v -0.27080812973150759 0.036449214572333348 -0.20200603440746917
v -0.092333461926307675 0.015392215042388106 0.33035991028463191
v -0.16550918793411978 0.030234399998655549 -0.29676928816666071
v -0.32256470620565181 0.028329499521600618 -0.10846361966750476
v -0.1078676619794833 0.028128035631155759 -0.3227827068004438
v -0.040530707397960421 0.028793695442544082 -0.33780168402230154
v -0.33846470335092632 0.025196687698781809 -0.041964585667531355
v -0.012206437403516285 0.029101006868704052 -0.33983725156562394
v -0.093262189043330418 0.028240538937079514 -0.32740295920174201
v -0.32777828782527618 0.027878540128683918 -0.091762603873165483
v -0.30046285344310897 0.03101044911517236 -0.15835213952510874
v -0.15098153968305505 0.029573196239875695 -0.30467315913449877
v -0.20707664988645177 0.035008418233160421 -0.26726657756590744
v -0.31274025879186973 0.029153849127441483 -0.13373319040230047
v -0.13658947286687068 0.028922065801646465 -0.31159708902056088
v -0.33209080322234041 0.027356776963158268 -0.075140250460732028
v -0.19365607329972048 0.033076748737945597 -0.27828001846686218
v -0.33570761265585553 0.026591903228198432 -0.05851710392595752
v -0.025682646061262832 0.029207395441328415 -0.33913446176849998
v -0.078447008971425397 0.028217949433131405 -0.33099052549675012
v -0.28614968284828679 0.033739090581315516 -0.1809643208342808
v -0.17975302490393541 0.031280587057629219 -0.28786974558256129
v -0.3163703491000518 0.028834249258085899 -0.12534106345221155
v -0.26526977015818121 0.037096077942048354 -0.20877367763909238
v -0.33408821855575555 0.027055842857530946 -0.066850637176612632
v -0.33712599163893786 0.025968197968279226 -0.050204253482353009
v -0.33000394387450543 0.027622401988829544 -0.083442442097042296
v -0.063540878053239047 0.028292031267258766 -0.33442474622042073
v -0.08586559784088324 0.028246038396250211 -0.32927723627612937
v -0.048199839824134505 0.028522908275460078 -0.33673397932306476
v -0.18680850683641442 0.032133045364549709 -0.28327614121120814
v -0.17259682393312462 0.030620373329290934 -0.29227790130561893
v -0.20039648604266105 0.034068265759009696 -0.2729501016975005
v -0.03298591049046791 0.029062576089667905 -0.33866089667603383
v -0.018744975976151039 0.029224538487083878 -0.33948194724376701
v -0.30859601247981938 0.029529335960260403 -0.14194302613329679
v -0.31954611662524812 0.028547685603069764 -0.11686798899199927
v -0.11507661925036157 0.02815214141657664 -0.32015799262146899
v -0.12947566904565727 0.028621904670000559 -0.31475539934556368
v -0.15825832089788799 0.029894809922555887 -0.30086426781317643
v -0.32536840349112905 0.028131934197653016 -0.10011631524785827
v -0.084770998092966621 0.015508919883281156 0.33230210786677511
v -0.10061852937636091 0.028197888167286668 -0.32528638282213412
v -0.10701479167852576 0.015624696407905921 0.3259143259331943
v -0.33041171174216732 0.019219103709252512 0.089234396148341277
v -0.29711942773862704 0.018285113491738392 0.17029087796885575
v -0.16638106071645509 0.017710187459659223 0.29951152389135999
v -0.34212253733943376 0.019409995650364154 0.0070338939952806646
v -0.0438866043912527 0.017289670835624923 0.33975316178511039
v -0.34169057662673319 0.021152455062331731 -0.01001432416714261
v -0.25834163003217547 0.019604135425220631 0.22430420505766813
v -0.23466290009622837 0.019377124533125581 0.24912060560054222
v -0.32490167594993302 0.019144116240877366 0.10764266298022593
v -0.013040856436152359 0.018493425484185352 0.34213319666326025
v -0.21130135606276845 0.018120938980802945 0.26959638538202646
v -0.26962438045823311 0.019072820596526235 0.21076931469626059
v -0.33965217226073685 0.018299480331181648 0.043211538908919565
v -0.15158260483012997 0.017620568281907965 0.30721659673219159
v -0.30484717476113132 0.01862025313636323 0.1561038119930433
v -0.23445501722568743 0.037703754781149491 -0.24257307979126397
v -0.24745532222675948 0.0380036257905014 -0.22912246936047082
v -0.22081482687348139 0.036703451161470273 -0.25541509790783284
v -0.24653001834841792 0.019729561323824626 0.23731627413203338
v -0.25366149434375607 0.037913210572404002 -0.22236575576614476
v -0.27983175579409159 0.018497329877687145 0.19731160084135718
v -0.055899608266561623 0.028355257508169987 -0.33563496725348935
v -0.34149831731782854 0.018374700511448759 0.025311302014670078
v -0.34049998020135452 0.023230521071208144 -0.025774390233316565
v -0.14372894183318666 0.029221853665788208 -0.30819220613651288
v -0.31193655143213339 0.018921510234039991 0.14105831967110111
v -0.06072809909400026 0.016513574682939489 0.33742828960388976
v -0.18028895314903276 0.017509809388439768 0.29130210173759152
v -0.28893720347953988 0.018220712046179546 0.18397708380619154
v -0.3328225718030533 0.019181279808551069 0.079861748828162049
v -0.077003373807353587 0.015776351151895879 0.33418784140437924
v -0.027639807579337816 0.018030312737765473 0.34136139414071132
v -0.22301853583948122 0.018785960923335277 0.25984868509246473
v -0.33682278585281805 0.018809029638878653 0.061292967932241676
v -0.3187086295731289 0.01907626428353823 0.1250128721473136
v -0.12160249948102503 0.016312732823594911 0.32052679900836678
v -0.19931102790201161 0.017593681040960957 0.27856025061468698
v -0.27583952393878797 0.035514962466107532 -0.19495652131274327
v -0.13653608163385955 0.017116992666034628 0.31437037296231729
v -0.2957074389788763 0.03181188632298533 -0.16604616288243268
v -0.18691860615921443 0.017469602095617869 0.28722615517278061
v -0.14404027048799622 0.017409141074614734 0.31084433359703728
v -0.30465047579089971 0.030199154268681267 -0.15023859384522059
v -0.12229516866248719 0.028336942954964077 -0.31755004937208575
v -0.07102990465017979 0.028230786555208762 -0.33276087358226242
v -0.0064002710415787673 0.018608535463351915 0.34240875651242342
v -0.0060064820050406142 0.028857170452084968 -0.34024480055441908
l 90/90 88/88
l 88/88 87/87
l 87/87 64/64
l 64/64 83/83
l 83/83 69/69
l 69/69 19/19
l 19/19 29/29
l 29/29 54/54
l 54/54 20/20
l 20/20 72/72
l 72/72 32/32
l 32/32 17/17
l 17/17 65/65
l 65/65 34/34
l 34/34 26/26
l 26/26 74/74
l 74/74 36/36
l 36/36 27/27
l 27/27 76/76
l 76/76 37/37
l 37/37 67/67
l 67/67 21/21
l 21/21 30/30
l 30/30 82/82
l 82/82 23/23
l 23/23 71/71
l 71/71 70/70
l 70/70 24/24
l 24/24 31/31
l 31/31 22/22
l 22/22 66/66
l 66/66 38/38
l 38/38 75/75
l 75/75 28/28
l 28/28 35/35
l 35/35 73/73
l 73/73 25/25
l 25/25 33/33
l 33/33 68/68
l 68/68 18/18
l 18/18 59/59
l 59/59 62/62
l 62/62 61/61
l 61/61 57/57
l 57/57 56/56
l 56/56 60/60
l 60/60 63/63
l 63/63 58/58
l 58/58 80/80
l 80/80 55/55
l 55/55 1/1
l 1/1 41/41
l 41/41 84/84
l 84/84 16/16
l 16/16 81/81
l 81/81 15/15
l 15/15 45/45
l 45/45 14/14
l 14/14 43/43
l 43/43 13/13
l 13/13 49/49
l 49/49 12/12
l 12/12 50/50
l 50/50 11/11
l 11/11 39/39
l 39/39 10/10
l 10/10 52/52
l 52/52 9/9
l 9/9 53/53
l 53/53 77/77
l 77/77 8/8
l 8/8 78/78
l 78/78 40/40
l 40/40 7/7
l 7/7 51/51
l 51/51 6/6
l 6/6 48/48
l 48/48 86/86
l 86/86 5/5
l 5/5 42/42
l 42/42 4/4
l 4/4 46/46
l 46/46 3/3
l 3/3 44/44
l 44/44 2/2
l 2/2 79/79
l 79/79 47/47
l 47/47 89/89
l 89/89 85/85
l 133/133 102/102
l 102/102 131/131
l 131/131 151/151
l 151/151 129/129
l 129/129 103/103
l 103/103 119/119
l 119/119 114/114
l 114/114 157/157
l 157/157 158/158
l 158/158 149/149
l 149/149 118/118
l 118/118 113/113
l 113/113 139/139
l 139/139 91/91
l 91/91 128/128
l 128/128 105/105
l 105/105 120/120
l 120/120 92/92
l 92/92 132/132
l 132/132 108/108
l 108/108 134/134
l 134/134 155/155
l 155/155 143/143
l 143/143 115/115
l 115/115 121/121
l 121/121 93/93
l 93/93 146/146
l 146/146 116/116
l 116/116 147/147
l 147/147 94/94
l 94/94 137/137
l 137/137 109/109
l 109/109 159/159
l 159/159 150/150
l 150/150 95/95
l 95/95 124/124
l 124/124 106/106
l 106/106 127/127
l 127/127 126/126
l 126/126 96/96
l 96/96 140/140
l 140/140 104/104
l 104/104 111/111
l 111/111 125/125
l 125/125 97/97
l 97/97 142/142
l 142/142 112/112
l 112/112 141/141
l 141/141 98/98
l 98/98 152/152
l 152/152 107/107
l 107/107 130/130
l 130/130 99/99
l 99/99 138/138
l 138/138 110/110
l 110/110 123/123
l 123/123 136/136
l 136/136 148/148
l 148/148 156/156
l 156/156 117/117
l 117/117 122/122
l 122/122 100/100
l 100/100 145/145
l 145/145 153/153
l 153/153 144/144
l 144/144 101/101
l 101/101 135/135
l 135/135 154/154
l 154/154 133/133
l 226/226 201/201
l 201/201 168/168
l 168/168 195/195
l 195/195 167/167
l 167/167 196/196
l 196/196 166/166
l 166/166 199/199
l 199/199 165/165
l 165/165 202/202
l 202/202 164/164
l 164/164 191/191
l 191/191 163/163
l 163/163 225/225
l 225/225 162/162
l 162/162 206/206
l 206/206 161/161
l 161/161 219/219
l 219/219 209/209
l 209/209 224/224
l 224/224 222/222
l 222/222 187/187
l 187/187 160/160
l 160/160 223/223
l 223/223 212/212
l 212/212 188/188
l 188/188 185/185
l 185/185 181/181
l 181/181 183/183
l 183/183 189/189
l 189/189 213/213
l 213/213 184/184
l 184/184 216/216
l 216/216 211/211
l 211/211 186/186
l 186/186 208/208
l 208/208 182/182
l 182/182 210/210
l 210/210 218/218
l 218/218 214/214
l 214/214 217/217
l 217/217 215/215
l 215/215 197/197
l 197/197 180/180
l 180/180 204/204
l 204/204 179/179
l 179/179 190/190
l 190/190 178/178
l 178/178 193/193
l 193/193 177/177
l 177/177 205/205
l 205/205 176/176
l 176/176 207/207
l 207/207 175/175
l 175/175 192/192
l 192/192 174/174
l 174/174 220/220
l 220/220 173/173
l 173/173 203/203
l 203/203 172/172
l 172/172 198/198
l 198/198 171/171
l 171/171 221/221
l 221/221 170/170
l 170/170 194/194
l 194/194 169/169
l 169/169 200/200
l 200/200 228/228
l 228/228 227/227
l 306/306 358/358
l 358/358 273/273
l 273/273 300/300
l 300/300 284/284
l 284/284 299/299
l 299/299 271/271
l 271/271 295/295
l 295/295 332/332
l 332/332 293/293
l 293/293 355/355
l 355/355 285/285
l 285/285 294/294
l 294/294 274/274
l 274/274 309/309
l 309/309 270/270
l 270/270 303/303
l 303/303 354/354
l 354/354 304/304
l 304/304 280/280
l 280/280 335/335
l 335/335 277/277
l 277/277 305/305
l 305/305 268/268
l 268/268 297/297
l 297/297 287/287
l 287/287 296/296
l 296/296 282/282
l 282/282 298/298
l 298/298 278/278
l 278/278 232/232
l 232/232 328/328
l 328/328 264/264
l 264/264 326/326
l 326/326 231/231
l 231/231 327/327
l 327/327 330/330
l 330/330 230/230
l 230/230 289/289
l 289/289 266/266
l 266/266 348/348
l 348/348 229/229
l 229/229 286/286
l 286/286 265/265
l 265/265 350/350
l 350/350 276/276
l 276/276 353/353
l 353/353 301/301
l 301/301 279/279
l 279/279 288/288
l 288/288 302/302
l 302/302 269/269
l 269/269 307/307
l 307/307 275/275
l 275/275 292/292
l 292/292 281/281
l 281/281 290/290
l 290/290 283/283
l 283/283 291/291
l 291/291 272/272
l 272/272 253/253
l 253/253 334/334
l 334/334 239/239
l 239/239 316/316
l 316/316 260/260
l 260/260 314/314
l 314/314 237/237
l 237/237 333/333
l 333/333 251/251
l 251/251 323/323
l 323/323 241/241
l 241/241 344/344
l 344/344 248/248
l 248/248 340/340
l 340/340 311/311
l 311/311 261/261
l 261/261 319/319
l 319/319 236/236
l 236/236 345/345
l 345/345 257/257
l 257/257 336/336
l 336/336 244/244
l 244/244 325/325
l 325/325 259/259
l 259/259 312/312
l 312/312 234/234
l 234/234 339/339
l 339/339 249/249
l 249/249 331/331
l 331/331 240/240
l 240/240 322/322
l 322/322 262/262
l 262/262 317/317
l 317/317 243/243
l 243/243 329/329
l 329/329 255/255
l 255/255 318/318
l 318/318 245/245
l 245/245 343/343
l 343/343 254/254
l 254/254 321/321
l 321/321 246/246
l 246/246 347/347
l 347/347 250/250
l 250/250 351/351
l 351/351 338/338
l 338/338 233/233
l 233/233 313/313
l 313/313 258/258
l 258/258 324/324
l 324/324 352/352
l 352/352 349/349
l 349/349 256/256
l 256/256 346/346
l 346/346 235/235
l 235/235 310/310
l 310/310 263/263
l 263/263 267/267
l 267/267 308/308
l 308/308 341/341
l 341/341 247/247
l 247/247 337/337
l 337/337 238/238
l 238/238 315/315
l 315/315 252/252
l 252/252 342/342
l 342/342 242/242
l 242/242 320/320
l 320/320 357/357
l 357/357 356/356
l 359/359 375/375
l 359/359 491/491
l 360/360 518/518
l 360/360 550/550
l 361/361 417/417
l 361/361 492/492
l 362/362 414/414
l 362/362 489/489
l 363/363 459/459
l 363/363 466/466
l 364/364 390/390
l 364/364 398/398
l 365/365 412/412
l 365/365 513/513
l 366/366 372/372
l 366/366 501/501
l 367/367 493/493
l 367/367 524/524
l 368/368 371/371
l 368/368 530/530
l 369/369 391/391
l 369/369 541/541
l 370/370 399/399
l 370/370 497/497
l 371/371 477/477
l 372/372 463/463
l 373/373 377/377
l 373/373 411/411
l 374/374 487/487
l 374/374 533/533
l 375/375 454/454
l 376/376 506/506
l 376/376 520/520
l 377/377 397/397
l 378/378 514/514
l 378/378 550/550
l 379/379 438/438
l 379/379 443/443
l 380/380 437/437
l 380/380 442/442
l 381/381 431/431
l 381/381 545/545
l 382/382 492/492
l 382/382 494/494
l 383/383 438/438
l 383/383 517/517
l 384/384 498/498
l 384/384 517/517
l 385/385 501/501
l 385/385 518/518
l 386/386 461/461
l 386/386 463/463
l 387/387 413/413
l 387/387 519/519
l 388/388 499/499
l 388/388 553/553
l 389/389 390/390
l 389/389 437/437
l 391/391 395/395
l 392/392 496/496
l 392/392 541/541
l 393/393 519/519
l 393/393 532/532
l 394/394 424/424
l 394/394 532/532
l 395/395 551/551
l 396/396 497/497
l 396/396 520/520
l 397/397 511/511
l 398/398 496/496
l 399/399 498/498
l 400/400 411/411
l 400/400 494/494
l 401/401 446/446
l 401/401 478/478
l 402/402 516/516
l 402/402 552/552
l 403/403 521/521
l 403/403 522/522
l 404/404 522/522
l 404/404 527/527
l 405/405 495/495
l 405/405 548/548
l 406/406 465/465
l 406/406 495/495
l 407/407 418/418
l 407/407 452/452
l 408/408 460/460
l 408/408 490/490
l 409/409 500/500
l 409/409 533/533
l 410/410 424/424
l 410/410 470/470
l 412/412 434/434
l 413/413 490/490
l 414/414 466/466
l 415/415 439/439
l 415/415 523/523
l 416/416 515/515
l 416/416 523/523
l 417/417 444/444
l 418/418 450/450
l 419/419 454/454
l 419/419 465/465
l 420/420 460/460
l 420/420 468/468
l 421/421 461/461
l 421/421 487/487
l 422/422 502/502
l 422/422 524/524
l 423/423 535/535
l 423/423 540/540
l 425/425 503/503
l 425/425 525/525
l 426/426 525/525
l 426/426 542/542
l 427/427 433/433
l 427/427 446/446
l 428/428 476/476
l 428/428 526/526
l 429/429 516/516
l 429/429 526/526
l 430/430 527/527
l 430/430 537/537
l 431/431 504/504
l 432/432 534/534
l 432/432 551/551
l 433/433 475/475
l 434/434 510/510
l 435/435 528/528
l 435/435 553/553
l 436/436 528/528
l 436/436 543/543
l 439/439 512/512
l 440/440 445/445
l 440/440 529/529
l 441/441 504/504
l 441/441 529/529
l 442/442 543/543
l 443/443 475/475
l 444/444 476/476
l 445/445 542/542
l 447/447 499/499
l 447/447 538/538
l 448/448 453/453
l 448/448 488/488
l 449/449 530/530
l 449/449 546/546
l 450/450 531/531
l 451/451 531/531
l 451/451 545/545
l 452/452 505/505
l 453/453 458/458
l 455/455 491/491
l 455/455 549/549
l 456/456 500/500
l 456/456 539/539
l 457/457 514/514
l 457/457 549/549
l 458/458 459/459
l 462/462 493/493
l 462/462 547/547
l 464/464 470/470
l 464/464 502/502
l 467/467 515/515
l 467/467 544/544
l 468/468 521/521
l 469/469 482/482
l 469/469 509/509
l 471/471 506/506
l 471/471 535/535
l 472/472 536/536
l 472/472 540/540
l 473/473 507/507
l 473/473 508/508
l 474/474 537/537
l 474/474 552/552
l 477/477 538/538
l 478/478 479/479
l 479/479 548/548
l 480/480 503/503
l 480/480 544/544
l 481/481 505/505
l 481/481 539/539
l 482/482 536/536
l 483/483 507/507
l 483/483 511/511
l 484/484 508/508
l 484/484 534/534
l 485/485 509/509
l 485/485 510/510
l 486/486 512/512
l 486/486 513/513
l 488/488 546/546
l 489/489 547/547
l 555/555 642/642
l 642/642 641/641
l 641/641 619/619
l 619/619 638/638
l 638/638 624/624
l 624/624 574/574
l 574/574 584/584
l 584/584 609/609
l 609/609 575/575
l 575/575 627/627
l 627/627 587/587
l 587/587 572/572
l 572/572 620/620
l 620/620 589/589
l 589/589 581/581
l 581/581 629/629
l 629/629 591/591
l 591/591 582/582
l 582/582 631/631
l 631/631 592/592
l 592/592 622/622
l 622/622 576/576
l 576/576 585/585
l 585/585 637/637
l 637/637 578/578
l 578/578 626/626
l 626/626 625/625
l 625/625 579/579
l 579/579 586/586
l 586/586 577/577
l 577/577 621/621
l 621/621 593/593
l 593/593 630/630
l 630/630 583/583
l 583/583 590/590
l 590/590 628/628
l 628/628 580/580
l 580/580 588/588
l 588/588 623/623
l 623/623 573/573
l 573/573 614/614
l 614/614 617/617
l 617/617 616/616
l 616/616 612/612
l 612/612 611/611
l 611/611 615/615
l 615/615 618/618
l 618/618 613/613
l 613/613 635/635
l 635/635 610/610
l 610/610 556/556
l 556/556 596/596
l 596/596 639/639
l 639/639 571/571
l 571/571 636/636
l 636/636 570/570
l 570/570 600/600
l 600/600 569/569
l 569/569 598/598
l 598/598 568/568
l 568/568 604/604
l 604/604 567/567
l 567/567 605/605
l 605/605 566/566
l 566/566 594/594
l 594/594 565/565
l 565/565 607/607
l 607/607 564/564
l 564/564 608/608
l 608/608 632/632
l 632/632 563/563
l 563/563 633/633
l 633/633 595/595
l 595/595 562/562
l 562/562 606/606
l 606/606 561/561
l 561/561 603/603
l 603/603 640/640
l 640/640 560/560
l 560/560 597/597
l 597/597 559/559
l 559/559 601/601
l 601/601 558/558
l 558/558 599/599
l 599/599 557/557
l 557/557 634/634
l 634/634 602/602
l 602/602 643/643
l 643/643 554/554
l 686/686 655/655
l 655/655 684/684
l 684/684 704/704
l 704/704 682/682
l 682/682 656/656
l 656/656 672/672
l 672/672 667/667
l 667/667 710/710
l 710/710 711/711
l 711/711 702/702
l 702/702 671/671
l 671/671 666/666
l 666/666 692/692
l 692/692 644/644
l 644/644 681/681
l 681/681 658/658
l 658/658 673/673
l 673/673 645/645
l 645/645 685/685
l 685/685 661/661
l 661/661 687/687
l 687/687 708/708
l 708/708 696/696
l 696/696 668/668
l 668/668 674/674
l 674/674 646/646
l 646/646 699/699
l 699/699 669/669
l 669/669 700/700
l 700/700 647/647
l 647/647 690/690
l 690/690 662/662
l 662/662 712/712
l 712/712 703/703
l 703/703 648/648
l 648/648 677/677
l 677/677 659/659
l 659/659 680/680
l 680/680 679/679
l 679/679 649/649
l 649/649 693/693
l 693/693 657/657
l 657/657 664/664
l 664/664 678/678
l 678/678 650/650
l 650/650 695/695
l 695/695 665/665
l 665/665 694/694
l 694/694 651/651
l 651/651 705/705
l 705/705 660/660
l 660/660 683/683
l 683/683 652/652
l 652/652 691/691
l 691/691 663/663
l 663/663 676/676
l 676/676 689/689
l 689/689 701/701
l 701/701 709/709
l 709/709 670/670
l 670/670 675/675
l 675/675 653/653
l 653/653 698/698
l 698/698 706/706
l 706/706 697/697
l 697/697 654/654
l 654/654 688/688
l 688/688 707/707
l 707/707 686/686
l 713/713 756/756
l 756/756 723/723
l 723/723 750/750
l 750/750 722/722
l 722/722 751/751
l 751/751 721/721
l 721/721 754/754
l 754/754 720/720
l 720/720 757/757
l 757/757 719/719
l 719/719 746/746
l 746/746 718/718
l 718/718 780/780
l 780/780 717/717
l 717/717 761/761
l 761/761 716/716
l 716/716 774/774
l 774/774 764/764
l 764/764 779/779
l 779/779 777/777
l 777/777 742/742
l 742/742 715/715
l 715/715 778/778
l 778/778 767/767
l 767/767 743/743
l 743/743 740/740
l 740/740 736/736
l 736/736 738/738
l 738/738 744/744
l 744/744 768/768
l 768/768 739/739
l 739/739 771/771
l 771/771 766/766
l 766/766 741/741
l 741/741 763/763
l 763/763 737/737
l 737/737 765/765
l 765/765 773/773
l 773/773 769/769
l 769/769 772/772
l 772/772 770/770
l 770/770 752/752
l 752/752 735/735
l 735/735 759/759
l 759/759 734/734
l 734/734 745/745
l 745/745 733/733
l 733/733 748/748
l 748/748 732/732
l 732/732 760/760
l 760/760 731/731
l 731/731 762/762
l 762/762 730/730
l 730/730 747/747
l 747/747 729/729
l 729/729 775/775
l 775/775 728/728
l 728/728 758/758
l 758/758 727/727
l 727/727 753/753
l 753/753 726/726
l 726/726 776/776
l 776/776 725/725
l 725/725 749/749
l 749/749 724/724
l 724/724 755/755
l 755/755 781/781
l 781/781 714/714
l 782/782 911/911
l 911/911 828/828
l 828/828 855/855
l 855/855 839/839
l 839/839 854/854
l 854/854 826/826
l 826/826 850/850
l 850/850 886/886
l 886/886 848/848
l 848/848 909/909
l 909/909 840/840
l 840/840 849/849
l 849/849 829/829
l 829/829 863/863
l 863/863 825/825
l 825/825 858/858
l 858/858 908/908
l 908/908 859/859
l 859/859 835/835
l 835/835 889/889
l 889/889 832/832
l 832/832 860/860
l 860/860 823/823
l 823/823 852/852
l 852/852 842/842
l 842/842 851/851
l 851/851 837/837
l 837/837 853/853
l 853/853 833/833
l 833/833 787/787
l 787/787 882/882
l 882/882 819/819
l 819/819 880/880
l 880/880 786/786
l 786/786 881/881
l 881/881 884/884
l 884/884 785/785
l 785/785 844/844
l 844/844 821/821
l 821/821 902/902
l 902/902 784/784
l 784/784 841/841
l 841/841 820/820
l 820/820 904/904
l 904/904 831/831
l 831/831 907/907
l 907/907 856/856
l 856/856 834/834
l 834/834 843/843
l 843/843 857/857
l 857/857 824/824
l 824/824 861/861
l 861/861 830/830
l 830/830 847/847
l 847/847 836/836
l 836/836 845/845
l 845/845 838/838
l 838/838 846/846
l 846/846 827/827
l 827/827 808/808
l 808/808 888/888
l 888/888 794/794
l 794/794 870/870
l 870/870 815/815
l 815/815 868/868
l 868/868 792/792
l 792/792 887/887
l 887/887 806/806
l 806/806 877/877
l 877/877 796/796
l 796/796 898/898
l 898/898 803/803
l 803/803 894/894
l 894/894 865/865
l 865/865 816/816
l 816/816 873/873
l 873/873 791/791
l 791/791 899/899
l 899/899 812/812
l 812/812 890/890
l 890/890 799/799
l 799/799 879/879
l 879/879 814/814
l 814/814 866/866
l 866/866 789/789
l 789/789 893/893
l 893/893 804/804
l 804/804 885/885
l 885/885 795/795
l 795/795 876/876
l 876/876 817/817
l 817/817 871/871
l 871/871 798/798
l 798/798 883/883
l 883/883 810/810
l 810/810 872/872
l 872/872 800/800
l 800/800 897/897
l 897/897 809/809
l 809/809 875/875
l 875/875 801/801
l 801/801 901/901
l 901/901 805/805
l 805/805 905/905
l 905/905 892/892
l 892/892 788/788
l 788/788 867/867
l 867/867 813/813
l 813/813 878/878
l 878/878 906/906
l 906/906 903/903
l 903/903 811/811
l 811/811 900/900
l 900/900 790/790
l 790/790 864/864
l 864/864 818/818
l 818/818 822/822
l 822/822 862/862
l 862/862 895/895
l 895/895 802/802
l 802/802 891/891
l 891/891 793/793
l 793/793 869/869
l 869/869 807/807
l 807/807 896/896
l 896/896 797/797
l 797/797 874/874
l 874/874 910/910
l 910/910 783/783
