v 0.12299871600871568 0.0037725426042136924 -0.32257880241206494
v 0.15908340295745571 0.0046294019552916626 -0.30629526332400669
v 0.042109162416351847 0.0024602200382418046 0.34268289903786675
v -1.6263032587282581e-19 -0.00046931473534001108 0.34612638707477639
v 0.29408559851258598 0.01637275122550693 -0.17582391477705189
v 0.021326124055167553 0.0011171539757234821 0.34440559286212913
v 0.14120497848037356 0.003634347603671647 -0.31481278227429366
v 0.061790568967788811 0.0035184859025134164 0.33925506381106457
v 0.10427514919844943 0.0048812797804316044 -0.32848781216207756
v 0.34297780692139768 0.0080060080770989247 0.02963657841707712
v 0.27644653457979024 0.012099733287955328 0.20418567190197476
v 0.20600986591351261 0.0097717911702996131 0.2756333261685241
v 0.24840184524576786 0.013566072028772386 0.23692521303432057
v 0.33706728903339467 0.0083925807638075139 -0.070532619755891909
v 0.26593482201137453 0.013123922422480047 0.21723354407143181
v 0.30886925293160106 0.013444070675860327 -0.15015758810917967
v 0.29792626719339454 0.015831113217969706 -0.16962287262374962
v 0.25695330142260497 0.012364478644695854 -0.22829878102505999
v 0.24185174111695174 0.013274020364151387 0.2434819729731775
v 0.22831651611711778 0.012243437987246118 0.25693988762502462
v 0.25468858546106421 0.013659970959858513 0.23044714163403007
v 0.30543513782179421 0.014330732357560976 -0.15693008306425982
v 0.31223533888252719 0.012565611857018644 -0.14311728661720197
v 0.32247412824671517 0.010353288124900689 -0.12061732543009544
v 0.17600693844613535 0.0058881544917511889 -0.29627075190393737
v 0.27122781555924025 0.012638783291379619 0.21068827723301481
v 0.21354745186842006 0.010616816032954484 0.26950465467924989
v 0.28153580839498277 0.0115303339055275 0.19758818491216334
v 0.19834455705857568 0.0089630454780600787 0.28163301395248325
v 0.29539005549741815 0.0096774767778768297 0.17605929103877044
v 0.33858744889099124 0.0083444568516982311 -0.061921051019800069
v 0.031830725632481405 0.0018297352326707502 0.3437351353883713
v 0.010701470750384157 0.00034782949102131998 0.34531227200587367
v 0.1502175951485803 0.0040315458577526199 -0.31068503667092773
v 0.13215386058785375 0.0035427238204649544 -0.3188504433764402
v 0.052089223592679541 0.0030147742827649421 0.34111240830835521
v 0.16755468242795685 0.0052650337519136638 -0.3012526062930882
v 0.28623983777032053 0.016769765674711293 -0.18841215315781479
v 0.113676293817043 0.0042543406596368275 -0.32573526184885426
v 0.037271696996413833 0.007188981912124727 -0.34262317269633502
v 0.018329362748641328 0.0073829414290556465 -0.34405861143848077
v 0.34425224961314371 0.0081560544366781722 0.011197257102955714
v 0.34226801859037348 0.0079489832757718808 0.039051688938530935
v 0.34268667577089551 0.0082965331816949369 -0.035326182590221161
v 0.34388967719315333 0.0081848503551901521 -0.016868088578794044
v 0.23776217449045409 0.0095229025346482768 -0.24884443178163831
v 0.094983204877874275 0.0055719807743402541 -0.33147200347560041
v 0.11824362574112976 0.004992830608587356 0.32406981913135924
v 0.099339676788869347 0.0047788777278129184 0.33027350850237758
v 0.33066696501010351 0.0088159923764095129 -0.095906243348845621
v 0.33054821549895197 0.0077301131804264345 0.097007193530584346
v 0.32531199358777718 0.0097075600409413307 -0.11250839871471406
v 0.32448639958326853 0.0076648046347921658 0.11629318961576689
v 0.31917364889551803 0.011026725032010118 -0.12838720088931865
v 0.31295846654470982 0.0078870042872752882 0.14361089338853472
v 0.32102248046530729 0.0076631636731272681 0.12568984263817054
v 0.15575031740811213 0.0057669646511623752 0.30762954138264981
v 0.13710801184705343 0.0052040378610541697 0.3162726217192755
v 0.19261203822410605 0.0068504098271314675 -0.28604056244111792
v 0.29021111743970673 0.016701770722613925 -0.18207080151172353
v 0.28629715513859111 0.010906901687969154 0.19067539843728254
v 0.30018945846871814 0.0091740091952068302 0.16855642881191213
v 0.17343897020143717 0.0067400706959007571 0.29767393013260585
v 0.19030410516819646 0.0081526291597817831 0.28720334918381074
v 0.046949535786316207 0.0070848713553712936 -0.34138702738678661
v 0.066388845157823576 0.0068081485365382444 -0.33810186061433617
v 0.071352320640037922 0.0039801317133144332 0.33761292565930923
v 0.20056897195352452 0.0071578920143024359 -0.28043180772673515
v 0.21591798310739777 0.0077770447187628239 -0.26834500710815479
v 0.27273229723403603 0.015275677219782326 -0.20782034711254838
v 0.34090087811372427 0.0078531594974745114 0.048511693118727765
v 0.3417009213704193 0.0083538770332342253 -0.04438773444516099
v 0.33758275930222681 0.0077636025078274499 0.067736714652540844
v 0.32752331366734588 0.0076765090195404341 0.10667072601389119
v 0.32802377822122508 0.0091839249698028938 -0.1042452325508105
v 0.33338301496192707 0.0077795324533502137 0.08729566690839112
v 0.33318320489590725 0.0085999378382099964 -0.08752576826955695
v 0.076049790246054585 0.0065623289243139319 -0.33626282697725229
v 0.080769161105234605 0.004363745089929507 0.33568028796191451
v 0.23087958037889544 0.0088485916412402964 -0.25570856529296349
v 0.25085957554388283 0.011318186566345529 -0.23511780687220368
v 0.23521379461413019 0.012842048526455062 0.25024112197133985
v 0.12769630020495792 0.005075852515699579 0.32033633339473078
v 0.1464761544125277 0.0054239182825647266 0.3120283204446388
v 0.33537834087363427 0.0084824841452495539 -0.079080128892894189
v 0.33580767037885728 0.0077937784475198696 0.07753332941456946
v 0.34025389591547267 0.0083576549970254734 -0.053243320540386795
v 0.3393053319992666 0.007779858006132713 0.05806470578447899
v 0.27754764789763242 0.016031234228054241 -0.20129623611741748
v 0.2625062146080045 0.013388316534799277 -0.22136380795049179
v 0.22350901499094744 0.0082520774554352139 -0.26214569199896126
v 0.26773130020195368 0.014374596778913517 -0.21451351140673475
v 0.20825828832682183 0.0074262010488265126 -0.27443031275143459
v 0.22101343309981969 0.011465741849431717 0.26329990606020731
v 0.30891579372381806 0.0082294563810356314 0.15227880161772545
v 0.31701812720044742 0.0077021687080378936 0.13474551285598513
v 0.31568962329247635 0.011756815250460743 -0.13586638069888651
v 0.28208558113937765 0.016554150624201226 -0.1948555408950563
v 0.1843520486791311 0.0064197354247695695 -0.29119675830467434
v 0.16468204048420776 0.006192945097502579 0.30270564125235866
v 0.30478777210862296 0.0086940742972108319 0.1606696462007558
v 0.29087412977889859 0.010281138732461888 0.18348944050508226
v 0.18197024235498735 0.0073942889963523016 0.2924893124834323
v 0.027709945579721122 0.007279746617891391 -0.34343335165785455
v 0.0091164620474513541 0.0074917846413471122 -0.34455112050495373
v 0.34324292597334982 0.0082076008466545787 -0.026121800915153176
v 0.34369348838301239 0.0080871966469587171 0.020346082727045675
v 0.34461278163105474 0.0082092423107753623 0.0017566014069817113
v 0.34446598516385779 0.0082083308435169939 -0.0075852426773636876
v 0.0856187189573452 0.0061749813975128902 -0.33420504999112044
v 0.10873013631649819 0.0048914002745225607 0.32723954049633669
v 0.090055250358966749 0.0046176545431076983 0.33315151183476854
v 0.26048831483637686 0.013493362173056505 0.22385098472773043
v 0.30176371485218001 0.015141181227783115 -0.16338645237044735
v 0.24441147032943639 0.010347102656468491 -0.24193981369591555
v 4.3368086899420177e-19 0.0075853135278357731 -0.34488123982848407
v 0.056675182970156612 0.0069648586076245514 -0.33983430869238507
v 0.018591423414400093 0.022515433280356646 0.012364177949371492
v 0.080864205202605788 0.032107677892435155 0.011083381415732632
v 0.11844186587616881 0.044230246448318765 0.012186796426997513
v 0.26442063572243146 -0.095277441794965112 0.0017532428350010513
v 0.22844032070399745 -0.094614053832322687 -7.9486730083144362e-05
v 0.025806283909809907 -0.022975678037574641 0.0068799623249472374
v 0.050272481875565843 -0.025765271064799783 0.0054792256338802433
v 0.084036641798454839 -0.032785498898574475 0.0031216484981449692
v 0.11768876855343147 -0.043746473517578016 0.0020631078989571741
v 0.24789868895018596 0.095644216347770705 0.012558174024174518
v 0.21395168039379681 0.089887728081668672 0.011571001403682682
v 0.14068081608181793 0.053828377087638712 0.012805506088102641
v 0.24642563543013118 -0.09563803048075159 0.00017080321845918244
v 0.17350373517749823 0.070563014386177986 0.012244299728032693
v 0.21121526381230288 -0.088535238032731847 0.00085371290636806411
v 0.13300763002195823 0.050467696272369508 0.012722207442867024
v 0.13500988443712669 -0.051071939809393258 0.0027758300701240901
v 0.10063079412456699 -0.037949883014677957 0.0021953517807381528
v 0.096462652589585113 0.036814654498460067 0.011127307053845605
v 0.067264084470938401 -0.028936222200940828 0.004351822308140291
v 0.063973299294878244 0.028435772393749656 0.01162007265232497
v 0.26614852076185358 0.095061162100886387 0.013300055139162943
v 0.037056034217047 0.024250503575068704 0.012433497739333655
v 0.32747333935128431 0.053898198046804249 0.014127624544283474
v 0.34288826885229373 0.014909595106661899 0.011233041099295359
v 0.34355646267904533 -0.011808910255001552 0.011636418635651343
v 0.33978776538501632 0.028422224009178827 0.011926709388547719
v 0.33889238049275178 -0.031976674883059997 0.011600825712194271
v 0.29912927794200361 0.081520468490295095 0.0142393901647809
v 0.31589808020122367 -0.068558378419595487 0.0094272758253866468
v 0.27497241470379175 0.092636049909822549 0.013605889711006352
v 0.2218865929986904 0.092918714627876348 0.011661494073288849
v 0.20614110067564273 0.086591668692183155 0.011586310810353048
v 0.19036274458189822 0.079503628843065083 0.011827577408070295
v 0.23895466977073376 0.09558076675730276 0.012189459447650978
v 0.25542950555253052 -0.09560039593847218 0.00081869263776340804
v 0.23742366230746409 -0.095456869010817 -0.0001332363799901103
v 0.2814583418312413 -0.090367185449980195 0.0041472517463428081
v 0.16516597927904286 0.065842128337115016 0.012464081540026041
v 0.219746578114278 -0.091978680519688716 0.0002680925885908752
v 0.20259834848540367 -0.084850141697028758 0.0015880948439716753
v 0.12563222145893338 0.047260323721290895 0.012511460112608177
v 0.12629882362314832 -0.047296882728021135 0.0023391774883898689
v 0.1438167829064359 -0.054963995179300514 0.0032657270368668528
v 0.34524154561311804 0.0015231707459112693 0.011323100769375481
v 0.16969627275283466 -0.068142503876343352 0.0038489308842005552
v 0.34137915605057989 0.02165729472116491 0.011478452246545371
v 0.34210408410953841 -0.0184577104629579 0.011720434390495027
v 0.32525519027718364 -0.057002600546336615 0.01044718914628899
v 0.33557627355037201 0.04184285639152073 0.013154089856206932
v 0.33380588065670957 -0.045282888160890676 0.011148791596018327
v 0.10390910422966176 0.039199884315953379 0.011406948094181045
v 0.19829537308981388 0.083172279180079745 0.011679163153564376
v 0.088807910039736343 0.034410860605784854 0.011013755203284292
v 0.15689483824159717 0.061353496593423179 0.012652883343283893
v 0.0093013787582752715 0.02206161837506632 0.012123359437552546
v 0.17797389355741272 -0.072849258071365636 0.0035331813826862402
v 0.18190032027908165 0.07523162275374666 0.012022326294080541
v 0.28934401128778431 -0.086651247084087557 0.0054254475084102782
v 0.30644881260989609 0.077275400069325539 0.01442401034781279
v 0.30423290554918958 -0.078976636776362658 0.0077622510198609388
v 0.092305412408260817 -0.035279616182604029 0.0025859247322620885
v 0.11122487197040072 0.041588773297521558 0.011790702919581727
v 0.072556576650323057 0.030188846974410065 0.011302188744855359
v 0.055178920182337499 0.026751104342500061 0.011965738753036774
v 0.058780069659347664 -0.027270495231344782 0.0049406118346816495
v 0.0756928007323385 -0.030710556231907764 0.0037317446706259232
v 0.14867428251235579 0.057403056741931122 0.012774215922593606
v 0.16128600339826449 -0.063415598409453822 0.0038964323438753722
v 0.027845699892897806 0.023311448194982074 0.012471701140987952
v 0.041820689784848764 -0.024604711191258795 0.005970080968171811
v 0.34425224961314371 0.0081560544366781722 0.011197257102955714
v 0.34476040090461357 -0.005172569891181358 0.011489412506525238
v 0.033603007495915126 -0.023700757728689043 0.0064306458384563881
v 0.046195335170096663 0.025298397607056312 0.01225804379113095
v 0.32280897694401012 0.059820548256832556 0.014405357763088631
v 0.32965570937042987 -0.051201710916905577 0.010820013632771637
v 0.33801192076769437 0.035194898837830217 0.012520479586768479
v 0.33679619230123292 -0.038759703597529865 0.011408619844805783
v 0.34054856038690673 -0.025175105384526296 0.011708533617324865
v 0.29138623004800923 0.08544486215774201 0.014040371652245079
v 0.33187750957056439 0.048015694927198073 0.01370270671235208
v 0.31791850028126578 0.065843824744773904 0.014534264415261223
v 0.32068932425929675 -0.062780526103522152 0.0099976069430898068
v 0.31055979113330762 -0.074126992733236197 0.0086931899853100424
v 0.31261468137437137 0.071824422994122589 0.014533675423753589
v 0.25699217116915968 0.095543141236622164 0.012940876094045331
v 0.27323556107269836 -0.093684358399660356 0.0028881530584737762
v 0.28335983381082941 0.089246535107295827 0.013835445553440897
v 0.2969762290482334 -0.082895656038086157 0.0066513266853939889
v 0.23020768328947777 0.095077127494011066 0.011876185763640062
v 0.1090989344203965 -0.040716134761897872 0.002010533360192134
v 0.018567157247491299 -0.022461907968905633 0.0073279961103687851
v 0.19443387534898776 -0.081258018941430588 0.0023156944099747053
v 0.1861943241352455 -0.077299452556671033 0.0029944549007760559
v 6.7762635780344015e-20 0.021803517567618107 0.011807136957581671
v 1.0842021724855049e-19 -0.021734523612385787 0.0086745873637044286
v 0.011932677406257936 -0.022125586945886431 0.0077771594985598849
v 0.1526629425660867 -0.058951111129350572 0.0036810170349841206
v 0.0058165391290037737 -0.021898969836460502 0.0082264198076797603
v 0.043729361115041415 -0.081380747934056114 0.18985375985118033
v 0.026004415841914878 -0.080514243099669008 0.19118291784811148
v 0.008588714392805041 -0.080329903822016629 0.19219554376967207
v 0.18871527359893508 -0.087720668907632804 -0.090509323023679228
v 0.1288821023415842 -0.089234920018308392 -0.16932188811601698
v 0.17008987191727246 -0.089158217702466624 -0.12762999448578533
v 0.16626373401219746 -0.087726353672781421 0.12697352605914727
v 0.15092844159519317 -0.087952272779571627 0.14570613350017658
v 0.10806988592510329 -0.08735686380556526 -0.17812889915592317
v 0.18220242983032281 -0.088374114671640552 -0.10600361728279331
v 0.20097447470983412 -0.084817275569160508 0.024775440052558509
v 0.10061977117009753 -0.086618285218818591 -0.18053272889331068
v 0.18568060864508129 -0.088009335101361219 -0.098357834583781861
v 0.12226570669816958 -0.08864678182818192 -0.17258291699392456
v 0.17436153921617459 -0.088847163350347813 -0.12068215533815393
v 0.17047708631853153 -0.087376868410246888 0.12003791067333501
v 0.16119089997281805 -0.089627085134339909 -0.14065095965791402
v 0.15648156562359022 -0.087962527633619864 0.13986861811673029
v 0.13894775215572153 -0.087573331817466224 0.15606089152347433
v 0.15651126699370399 -0.089886765688081793 -0.14658663014971651
v 0.13513682654672596 -0.089671576465732289 -0.16569294133172935
v 0.20227906495538017 -0.084844876090271609 0.0091699266386065618
v 0.077497811241645426 -0.083858899689499278 0.1847304082537366
v 0.085233578526654252 -0.0852407883343098 -0.18472418068825391
v 0.18696604644478365 -0.085544987942114681 0.081913275434954982
v 0.19695883087764299 -0.086091777706210793 -0.058281513452978911
v 0.19481583230292032 -0.085112516253789988 0.057564213758726848
v 0.052527202087658875 -0.081985829116454953 0.18895117818156915
v 0.061297489800446317 -0.083542700451981339 -0.18993354284310124
v 0.146489710335579 -0.090072092125055167 -0.15710720951818102
v 0.03591265306551443 -0.082495875239581851 -0.19389631186565365
v 0.19943917850628973 -0.08543167984451111 -0.042411395912341714
v 0.20043511527578495 -0.085241799567885787 -0.034699531518335956
v 0.19993171710119145 -0.084863584688811583 0.032848013507945792
v 0.180933464728881 -0.086177261491838825 0.097678149323597974
v 0.099672703790572414 -0.085441791450308835 0.1779188272418899
v 0.085180094112696364 -0.084446915486999841 0.18274016971861223
v 0.092995070136341007 -0.085897437841261054 -0.18272316986667675
v 0.184007509957474 -0.08582111738604227 0.089855677405987058
v 0.20174098726604936 -0.084826183894669338 0.01688194769551777
v 0.20196387571593921 -0.085023346725569382 -0.019814185143195287
v 0.12629983659938421 -0.087013945907025367 0.1646937472166761
v 0.061140048186944421 -0.082627560666199612 0.18781823246678123
v 0.069405774225027306 -0.083996930685293042 -0.18833901438212713
v 0.1954043790380349 -0.086503897140395553 -0.066359546961680838
v 0.19244573553567229 -0.085187121416049824 0.065762455927883046
v 0.20130456808931296 -0.085069577158579365 -0.027171453182830416
v 0.092565285276772963 -0.084939034359452409 0.18048371326095464
v 0.20259834848540367 -0.084850141697028758 0.0015880948439716753
v 0.11984662385148151 -0.086629378619997477 0.16848143238690005
v 0.14101123016307776 -0.089923659052978916 -0.16164491146443866
v 0.15162796254415783 -0.090069266684990199 -0.1520778019926447
v 0.18981221832157716 -0.085303144638230993 0.073884405254540292
v 0.19356690489051065 -0.086900194163224989 -0.074466285068210833
v 0.069483891100470319 -0.083234509848533714 0.18642819466571875
v 0.044571878746866883 -0.082753450488378927 -0.19275131603128237
v 0.19830101784183385 -0.085690481502258886 -0.050286864762476208
v 0.19688219348777969 -0.085002453487099838 0.049315663609660734
v 0.034852112114763766 -0.080902602727221107 0.19056417497582478
v 0.027082814577142345 -0.082274523419206394 -0.19486545070572375
v 0.017245327621979771 -0.080313282195762989 0.1917211697087845
v 0.01811983701664863 -0.082193125475707007 -0.19561309253099007
v 0.20263705842115526 -0.084912402946894144 -0.0054936390379917979
v 0.19134499397650312 -0.08733466134040474 -0.082531704264003955
v 0.14505875602988921 -0.087794244562802534 0.15111197607177149
v 0.16160208663256412 -0.087913845236529425 0.13360204456458319
v 0.13267484828909398 -0.087318832833900267 0.16057151565702094
v 0.16570485952695646 -0.089389965738181587 -0.13430932649554117
v 0.10656069550877076 -0.085884918136816923 0.17506879192535602
v 0.1153064771930289 -0.088029175595022005 -0.17549735093741439
v 0.17425111125599879 -0.087015891535573681 0.11280682396102021
v 0.17840478935903331 -0.088646247991777796 -0.11345272532315587
v 0.009078174372371928 -0.082184037062605297 -0.19619931188701281
v 0.053031570502211918 -0.083108427534871895 -0.19142009370689131
v 0.2024143829690678 -0.08498634822114301 -0.012604900405737389
v 0.07737324971541884 -0.084589677879853775 -0.18659480592701644
v 0.17769697151869326 -0.086618159205997622 0.10533637778621294
v 0.1132757644231922 -0.086261556811990131 0.17193201660001767
v 8.6736173798840355e-19 -0.082320299759493801 -0.19664782451153121
v -3.252606517456521e-19 -0.080473790530603953 0.19263745570332533
v 0.19857771014305173 -0.084934855385059252 0.04105205469654917
v 0.18777844487988438 0.080461109887006027 -0.043332626925572729
v 0.19034436399268612 0.079365251389402564 0.00035550617578864623
v 0.08101892141078304 0.085974436434961887 0.18846109564615698
v 0.16662035493627952 0.087852483693876826 -0.12698730453900814
v 0.16327260285927017 0.086637389773916634 0.1267982974180038
v 0.12474040423730406 0.087399124308440157 -0.16704952243681176
v 0.14909389663794242 0.087527137153951051 0.14612831703267884
v 0.1494163870596002 0.088619429934061328 -0.14939305354762478
v 0.17582146100225296 0.086556488405426901 -0.10832342021738815
v 0.18019578221412724 0.085255955935415642 -0.094822041409318686
v 0.17004745438892832 0.08744848286664178 -0.12093941789144934
v 0.13703733697178749 0.087489058002287484 0.15747344017200149
v 0.15439822650724214 0.087327118214989272 0.13996503276049604
v 0.13820705142510076 0.088291285339729228 -0.15901118436797471
v 0.15431136271759036 0.088529894913192464 -0.14412951839192556
v 0.015126858542247452 0.083011327016721176 0.19774026345532103
v 0.057728071728726994 0.084885388489245622 0.1943119329968902
v 0.042114237984663454 0.084206988577839606 0.19665329165658169
v 0.17305554468232107 0.084883220516826854 0.10531752773601019
v 0.034654718591517211 0.083902814393470013 0.19734611181803557
v 0.10281497713901069 0.086748316547117621 0.17956798573955135
v 0.17818037586233093 0.085959220862031477 -0.10171583651365232
v 0.17573927608979623 0.084183225172894005 0.097562607828022979
v 0.10035484715686779 0.08501983508362379 -0.17633943221276957
v 0.18187482530720295 0.084534798814269951 -0.08753754894280677
v 0.082004755702086957 0.083355035904952218 -0.18146446309791128
v 0.02108400567832 0.083284001809656907 0.19786759189454517
v 0.16692731771949737 0.086104253378730289 0.11988289941257796
v 0.12369056694011518 0.087247144931806797 0.16736813268605888
v 0.11714451712899193 0.08665935649977316 -0.1704821826773481
v 0.065611375281751955 0.085256532288648379 0.19267019808160524
v 0.19036274458189822 0.079503628843065083 0.011827577408070295
v 0.18678551717172476 0.081167466542526517 -0.053269115065773642
v 0.18866784478023341 0.079932703131063376 -0.03292181199424217
v 0.027611193275547626 0.083572702748332839 0.19775225086970846
v 0.02546474225599879 0.08132570134150785 -0.1929823816702278
v 0.17825863754611182 0.083463871101300866 0.089390583798090673
v 0.091339422086063687 0.084116260326115716 -0.17897390259981305
v 0.17015788128326115 0.085503857322530866 0.11273952570754431
v 0.11680288239596021 0.087070669038159826 0.17179629056379978
v 0.15879045960812316 0.088342418300660475 -0.13862043664047319
v 0.073403030926945209 0.085592206852076913 0.19073699673856084
v 0.049855167627143343 0.08450673189153235 0.19565329706824705
v 0.18062079270415091 0.082802700272957663 0.08074258971996201
v 0.1893002691488852 0.080098250731452103 0.032133487891269033
v 0.034440725740682319 0.081438976289676959 -0.19179485579329342
v 0.016779384353516641 0.081223078771034879 -0.19380032106602479
v 0.19001148092793751 0.079381884869687641 -0.010991761453746186
v 0.062827152182680979 0.082177912447588347 -0.18619085599316412
v 0.18573620768774113 0.081946563080852075 -0.062680792791290796
v 0.18491467201312961 0.081489332328483932 0.062124774959131226
v 0.14406885468993583 0.088538100312164192 -0.15437450125620938
v 0.14329066521850503 0.087525766173372752 0.1519874052301044
v 0.16287233880119537 0.08814972577013136 -0.1328867980852052
v 0.13176416412816402 0.087943612866519888 -0.16323314731873004
v 0.13046080359176887 0.087408790589906499 0.16259121550237327
v 0.15912827895085763 0.087010845734332626 0.13351172971278075
v 0.10898570316616185 0.085880650808217718 -0.17354053754010407
v 0.17311633329589018 0.087027269209769886 -0.11472177242133597
v 0.18819035625423802 0.080488789326155996 0.042262998766433968
v 0.053204145471847333 0.081790760488684194 -0.18834852118621997
v 0.18331305930211825 0.083719875879057409 -0.079792740108825005
v 0.04370742125700583 0.081569504504986234 -0.19023896553429337
v 0.095707737675728877 0.086504059903125166 0.18291523753085254
v 0.18946396627324344 0.079498991223649632 -0.022118192865109718
v 0.18285825072020645 0.0821234342769189 0.071638182729287292
v 0.18458974265094996 0.082818443193272251 -0.071522888043991567
v 0.0083249441598980192 0.081201622576822438 -0.19427720343772423
v 0.1867091863409546 0.080955820814700097 0.0522933935046965
v 0.088450581571509895 0.086273533925329299 0.18586502737623117
v 0.072472550728204299 0.082659168880163669 -0.18389356926597161
v 0.10983524915228793 0.086937921759935866 0.17585566894084637
v 4.3368086899420177e-19 0.081366253852019343 -0.19450137943635679
v 0.19004310348355807 0.079721690496155406 0.021979124593034579
v 0.0097158049608342383 0.082735342898149197 0.1974245123978946
v 0.0047379643450532801 0.082441098348738778 0.1969835798056882
v 9.4867690092481301e-20 0.082170990502989011 0.19646281179385944
v -1.6263032587282581e-19 -0.00046931473534001108 0.34612638707477639
v 0 0.04347326813691399 0.11752302978601914
v -1.6263032587282663e-19 -0.095180956229540606 -0.26794552662772075
v 5.4210108624275198e-20 -0.095216105873386692 0.26917985351466828
v -4.3368086899420177e-19 -0.095350867808884368 0.23029073311064185
v 0 -0.02226111093194226 0.01969175046519249
v -4.3368086899420177e-19 -0.025554916344981148 -0.050243081452727739
v 0 -0.060154131401305072 -0.15587727300589738
v 0 -0.059551156970396923 0.15454504840772945
v 0 -0.088776009442150305 0.21183454886619338
v 0 0.050846910333892506 -0.1346303215622375
v -2.1684043449710089e-19 0.037426158388938702 -0.099198923012988299
v 4.3368086899420177e-19 0.09323475470163331 0.22239236071493068
v 0 -0.066176303149590776 -0.31852298165152504
v 0 0.095657672732000598 -0.25541762149328573
v 0 0.095627963371861413 0.25784852128517177
v -2.7105054312158495e-20 -0.095657499481841546 -0.25591997467528638
v 0 0.073125585060077436 -0.1785736485166276
v -2.1684043449710089e-19 0.074753817455076782 0.18149446804857394
v 5.4210108624278062e-20 0.064862350657905077 -0.1641813998344494
v 0 -0.030756341248981058 -0.07634000789321807
v 0 -0.027411915261191272 0.06013451055825187
v 6.5052130349130276e-19 0.026040008380905314 0.34083124145411697
v 2.9815559743351406e-19 0.032793881213985854 -0.33922855380200373
v 0 -0.071257734141467965 0.31418729486241503
v 0 0.071467811480947482 -0.31395060078913251
v 0 0.084776880801764293 0.29355968922087128
v 4.3368086899420177e-19 0.0075853135278357731 -0.34488123982848407
v 1.0842021724855978e-19 0.095359091134476062 -0.26600926288253268
v 4.3368086899420177e-19 0.0069379459790249697 0.34500006476246842
v -6.7762635780345869e-20 0.043542846202601876 0.33583093793046936
v 1.0842021724855044e-19 0.07738869645465847 0.30767991363474767
v -1.0842021724855044e-19 0.089029738815274623 -0.21233357818316506
v 6.7762635780344015e-20 0.021803517567618107 0.011807136957581671
v -2.1684043449710089e-19 0.023470032590658722 -0.032572171200892661
v -2.7105054312137611e-19 0.029159862697208602 -0.068740597493644862
v -3.2526065174565123e-19 0.031516838961872289 0.07951552301062656
v 2.1006417091906704e-19 0.027291463921735641 0.059487296862933248
v 2.7105054312137617e-20 0.027508282841495334 -0.060530353332790762
v -1.0842021724854962e-19 0.035292906615404504 0.092629582727555337
v 7.589415207398531e-19 0.056470433526563231 0.14749339828493255
v 4.0657581468207692e-20 -0.086291217626515759 -0.29046131813436654
v 1.6263032587282569e-19 -0.084384540226208879 0.20158301456415784
v 8.1315162936414217e-20 -0.044256001871492243 0.33528365588260411
v -8.6736173798840355e-19 -0.0069218366285172996 -0.3450562068366802
v 1.8973538018496332e-19 2.6385363768072385e-05 -0.34613651933650619
v 4.8148248609680896e-35 -0.024488677797390584 -0.042168042922656176
v -2.1666711874356403e-34 -0.02370631039516128 0.034792011082326636
v -4.3368086899420177e-19 -0.024754746145236775 0.044289259262010182
v -5.4210108624275222e-20 -0.027488570314332949 -0.060435499411563808
v -1.3552527156069085e-19 -0.039924879199829851 -0.10702064538725278
v 4.0657581468206416e-20 -0.052174088638104334 -0.13775978695139693
v 3.2526065174565133e-19 -0.050947415181557196 0.13493123782118061
v -1.8973538018496284e-19 0.021819430806420265 -0.012060887248924703
v -3.2526065174565138e-19 -0.022901397003803073 0.026855817183030328
v 9.6296497219361793e-35 -0.022536890789834695 -0.02318639871423191
v -2.1684043449709833e-19 -0.077292545037612251 -0.30785452038356675
v 1.3552527156068235e-19 -0.092398639806729174 -0.22047969812395546
v 5.4210108624266796e-20 0.043672820507116357 -0.33574836472410846
v -1.0842021724855112e-19 0.095664182265751296 0.24535313035877687
v 1.3552527156075462e-20 -0.095668513151217188 0.24735476598898315
v 2.1684043449710089e-19 -0.095667022199688839 -0.24679454197162426
v -2.1684043449709658e-19 0.095660743557109934 -0.24401015255897723
v -5.4210108624274656e-20 -0.079589992829557366 0.30381227347595674
v 2.1684043449711239e-19 0.077706287319710104 0.18689262770877307
v 1.897353801849626e-19 0.083714881125495785 0.20004132691499837
v 0 0.086807701688651623 0.20706394941986561
v 2.9815559743351439e-19 -0.089349403012982387 -0.21313880387524314
v 2.1684043449709443e-19 -0.055324488539227765 0.14492849005907305
v -2.1684043449710089e-19 0.048435791131697457 -0.12904914242539467
v -2.7105054312139085e-20 0.051969753138297416 0.13723414840635573
v 2.1684043449710089e-19 0.039486316520347189 -0.10560160004039749
v -1.6263032587282646e-19 -0.035199115751628207 -0.092348640560156736
v 0 0.064924577926469135 0.16428429232514849
v 1.219727444046172e-19 0.069593715616306867 -0.17256195351365053
v 3.2526065174565306e-19 -0.070570974076004545 0.17421706584133234
v 2.1684043449710089e-19 -0.069287098170724412 -0.17193886932015751
v 3.794707603699267e-19 -0.072666389054584307 -0.17781470428778406
v -4.3368086899420177e-19 0.037217778738400778 0.098541513935654301
v 2.1684043449710089e-19 -0.037278077475904496 0.09873891915058991
v 4.3368086899420177e-19 -0.037222106014248621 -0.098540075618887446
v 1.0842021724855088e-19 0.032658235668845521 -0.083912743037086124
v 0 -0.033162043263975302 0.085729507840131045
v 1.0842021724855124e-19 -0.031553116562800833 0.079650458487542902
v -5.4210108624275279e-19 -0.029347238546550469 0.069639694463226071
v 2.439454888092385e-19 0.023589205026015112 0.033704579598089479
v 0 0.022554126868307239 -0.023399878135317624
v 1.0842021724855044e-19 0.025617646280085071 0.05039970929902992
v 1.0842021724855044e-19 0.015725065188687833 0.34322547866615127
v -1.6263032587282559e-19 -0.017339716898490974 -0.34287928807325951
v 1.4230153513871791e-19 0.066170328155906538 -0.31851036818825107
v -1.5585406229479538e-19 -0.066159516106683552 0.31852352593824113
v 1.0842021724855035e-19 -0.093538570105404367 0.2237151484061366
v 0 0.093050445642826829 -0.22215075744984533
v -8.1315162936416408e-20 0.095466931505117467 -0.23485679195708914
v 0 0.095642093371574283 0.23857989643505592
v -8.6736173798840355e-19 -0.095621042831698339 -0.23815713127303223
v 5.4210108624272224e-20 -0.095623089204646503 0.23835142604813919
v 2.7105054312137611e-20 0.054892157778783264 -0.14398598519951386
v 8.1315162936414181e-20 0.061100878479980379 0.15750778370569263
v -2.1684043449710089e-19 -0.056597065904952108 -0.14789721568574385
v -2.7105054312136726e-20 -0.047011140668592438 0.12586174565359992
v 4.3368086899420177e-19 0.081366253852019343 -0.19450137943635679
v 2.7105054312137611e-20 0.077298820237486951 -0.1862419986452582
v 0 0.080627099880482223 0.19288429667272056
v -2.1684043449710036e-19 -0.032897376843826369 0.33920546180579658
v 0 -0.0080328350031370604 0.34477272028480582
v 5.4210108624273789e-20 0.033067586206169126 0.33916917633358867
v 8.6736173798840355e-19 -0.035618453681556424 -0.33850482709902402
v 0 -0.071370994023554124 -0.3140790179128331
v 5.421010862427214e-20 0.077597278475791745 -0.30724655600811362
v -3.2526065174565133e-19 -0.076218336437937961 0.30947978257217867
v 2.1684043449710089e-19 -0.058188345792570373 -0.32473462278745385
v -5.4210108624275222e-20 -0.09539911216717338 -0.23057806158329569
v 1.0842021724855044e-19 0.09164510435850047 0.27902667355865024
v 8.6736173798840355e-19 0.093820832058928702 -0.27411275493234266
v -8.377795258084476e-33 -0.09242714098744409 -0.27745492426424967
v -1.8973538018496229e-19 0.085563523593127355 -0.29188391961404248
v 2.3039296165317441e-19 0.071637565143030671 0.17612196913089156
v -1.6263032587282569e-19 -0.078236151049236244 -0.18789730313282613
v 5.4210108624275838e-19 -0.076128063794717662 0.1840077139286499
v 5.4210108624273013e-20 0.089737637521817903 0.21401752076680886
v 3.2526065174564998e-19 0.084618205409906 -0.2020315444598289
v 8.6736173798840355e-19 -0.082320299759493801 -0.19664782451153121
v 0 -0.085239089716774089 -0.20345918137340255
v 1.6851887013388314e-33 0.043538627720278306 -0.11753035283428384
v -2.7105054312137688e-19 -0.047398753775153638 -0.12676374479567493
v -2.9815559743351386e-19 0.047324847270076187 0.12657979827792765
v 4.3368086899419956e-19 0.059272263509916982 -0.15365053592232236
v 1.626303258728253e-19 -0.065101817528926312 -0.16455333870321565
v -2.1684043449710089e-19 0.033101943217775869 0.085538024681462405
v -1.0842021724855044e-19 -0.032568024904980938 -0.083595901477742068
v -5.4210108624274403e-20 0.039879705593154936 0.10688526901148138
v 1.6263032587282569e-19 0.022595209900446323 0.0238246884582528
v -4.3368086899420177e-19 -0.021550345676884075 -0.00077665759622589487
v -5.4210108624275222e-19 0.021526111939429299 -0.00027195523557935371
v 1.6263032587282569e-19 -0.021779846845318449 -0.010483073358519035
v -5.4210108624275222e-20 -0.035345721965792012 0.092801501244805532
v 5.4210108624275222e-20 0.035277492104607455 -0.092624270678302215
v 1.0842021724855049e-19 -0.021734523612385787 0.0086745873637044286
v 0 -0.066257687740368526 0.16656353257969148
v 6.7762635780348962e-20 -0.063241562773050014 0.16143654430190052
v 0 0.068040860644361503 0.16965671298907645
v 4.3368086899420177e-19 0.071508537102497521 0.31393110300053662
v -4.3368086899420177e-19 0.030790319427049354 -0.076490632496457628
v 1.0842021724855095e-19 0.029331075352657558 0.069557859064784067
v -2.8888949165808538e-33 -0.029141048159084797 -0.068650225547627175
v 0 0.025563900910257842 -0.050285504150275911
v -3.2526065174565133e-19 -0.025693122973147277 0.050868970613174462
v -1.0842021724855384e-19 0.094540649884219771 0.2704974789383976
v 4.3368086899420177e-19 -0.09561942511207272 0.26011488905026237
v -6.7762635780344039e-20 0.024489929720712136 -0.042178003900026628
v -4.3368086899420177e-19 0.024599332490289061 0.042779710030034099
v 2.1684043449710045e-19 -0.023463729436271577 -0.032507293393658779
v 2.7105054312137462e-19 0.058550510699796374 0.32448011191135018
v -3.2526065174565316e-19 -0.051017428990508491 -0.33036324058791255
v -2.1684043449710089e-19 -0.050992711611334313 0.33038937645060851
v -1.0842021724855044e-19 0.050979767888507707 -0.33036962293572031
v -2.4394548880923989e-19 -0.044324323306584056 -0.33523733680507317
v 8.1315162936412231e-20 0.014347946034717011 -0.34361976557060381
v 2.10064170919066e-19 -0.019768754742247176 0.34232960769566645
v -2.1684043449710089e-19 0.020997690293881075 -0.34203088738387288
v 2.710505431213764e-19 -0.028572435663527643 -0.34023777118223097
v 0 -0.089548662996982123 -0.28355813497430882
v 0 0.088294661208251413 -0.28628991169538875
v 0 0.091135761279277402 -0.28023615344879343
v -6.5052130349130266e-19 0.080781682233303356 0.30151779950231167
v -8.1315162936407344e-20 -0.086216353008542995 0.29060744086701262
v 2.7105054312137428e-19 -0.091509636587941257 0.27948689777912805
v 5.4210108624274721e-19 0.081887829003761431 -0.29931440245795937
v -2.1684043449710089e-19 0.088946237529098443 0.2848549179491362
v -2.7105054312137424e-20 0.065600267045994198 0.31892336392388593
v -2.710505431213762e-19 0.05937063694205124 -0.32380371256058577
v -2.1684043449710089e-19 -0.059432277264149611 0.32376536360922603
v 1.6263032587282533e-19 0.050946914900396684 0.33042854667504606
v 2.1684043449710089e-19 -0.043273263598614456 0.11701025735591936
v -2.7105054312137611e-19 -0.043483678271204813 -0.1175020891494688
v -4.0657581468201457e-20 -0.039892409791810614 0.10695910772244863
v 0 -0.083274208276292241 0.29655525532382726
v -1.6263032587282716e-19 -0.082160816785736251 -0.2988003796551717
v -1.0842021724855145e-19 0.095318180059909177 0.23101083146357992
v -3.252606517456521e-19 -0.080473790530603953 0.19263745570332533
v -3.3881317890171773e-21 -0.026333065793036771 0.34076753475073152
v 4.743384504623973e-20 0.04724488055149928 0.33312974230275771
v -1.8973538018496477e-19 -0.095486978506765435 0.23432107957939052
v 1.490777987167572e-19 -0.087294246364878231 -0.20829899262432283
v -2.7105054312137202e-20 0.041676486865034459 0.11220414939875026
v 6.0986372202308601e-20 0.071359650338192165 -0.17556780101513908
v 4.3368086899420582e-19 -0.073349518935361097 0.17911238988499112
v 5.4210108624275619e-20 -0.032357579913388071 0.082689983163836966
v -2.4394548880923811e-19 0.038548742165777861 0.10271339147356784
v -1.6263032587282526e-19 0.034197424916590183 0.089083803704508871
v -1.3552527156068844e-19 -0.033883570328304573 -0.087972271018949402
v 5.4210108624275246e-20 -0.021997817272164027 0.014183168914448461
v 8.8091426514447632e-20 0.067228033137105972 -0.16837167667404995
v -3.5236570605778894e-19 0.029975091062128978 -0.072615614995051245
v -1.8634724839594814e-19 -0.062795896685416575 0.32114444477373361
v 5.6920614055489002e-19 -0.032095444672542037 -0.33937129914062747
v 0 0.089715211243764414 -0.28326303257209107
v -2.7105054312137328e-20 -0.081432100552924797 0.30018376439989203
v 0 -0.06877364858657245 -0.31630099978217907
v -7.792703114739769e-20 -0.068708625124075759 0.31635541040032811
v 4.3368086899420177e-19 0.092478296669103052 -0.27717445419056808
v 5.421010862427518e-20 -0.091157289773777364 0.21777484863616497
v 8.8091426514449715e-20 -0.041582836695212538 0.11198468253918399
v 9.4867690092481301e-20 0.082170990502989011 0.19646281179385944
v 1.5924219408380875e-19 0.026454555100910354 0.054943503080981587
v -2.439454888092385e-19 -0.026521743329657049 -0.055339290432145777
v 1.4907779871675546e-19 -0.038573492607039239 -0.10278036050307011
v -5.4210108624275559e-20 0.09565313781866279 0.24196651339691638
v 1.3552527156068767e-19 -0.036210610882938414 -0.095444358089522091
v -1.6263032587282571e-19 -0.094444718957144375 0.22700294075838923
v -3.2526065174565133e-19 -0.095644032515693589 -0.24247583662232824
v 3.3881317890173843e-20 -0.095645801177931838 0.24285309601856117
v 2.7105054312137288e-19 -0.05313595186039248 0.13992986394012683
v 1.4907779871675729e-19 -0.048979277925074817 0.13039649173739026
v 1.084202172485562e-19 0.07916669360009615 0.18988846219074682
v 1.0333801956502442e-19 -0.023050910267641972 0.34154857122319909
v 3.1170812458958185e-19 -0.03997138849407024 -0.33687108195204862
v -1.0842021724854917e-19 -0.07433176953058318 -0.31096676914819993
v -1.6263032587282567e-19 -0.073738035289702963 0.31183353871729685
v -5.4210108624275727e-20 0.095480136715741737 0.23479536394931794
v -2.7105054312137606e-19 0.032309391089824079 0.082526773846044482
v -2.7105054312137611e-20 -0.034253882614883657 0.089265504542468288
v -2.7105054312139055e-20 -0.028314809236708871 -0.064542862479595495
v -5.4210108624275222e-20 -0.031662183076981001 -0.079967954685480069
v -1.6263032587282545e-19 0.03172427754794744 -0.080201687766771876
v -1.6263032587282567e-19 0.025108489385187067 0.046589709664532006
v -2.8460307027744655e-19 -0.047670876148546273 -0.33280028869649286
v -1.8973538018496299e-19 -0.077904164633747663 0.30664602802406771
v -2.7105054312137611e-19 0.079085189343980913 0.3045988565685297
v -3.2526065174565133e-19 0.082779281517533831 0.29753874436159145
v 2.1684043449709997e-19 0.054748712800096529 0.32745432929319812
v -5.4210108624276137e-20 -0.054602887391539429 -0.32754893168768318
v 9.4867690092482083e-20 -0.045142202133603447 0.12143600150475964
v -4.0657581468203672e-20 -0.084745280642417625 0.29358134809541991
v -4.6078592330633938e-19 -0.095510077499435853 -0.23436759642816396
v 2.1684043449709838e-19 -0.090874021409855787 -0.2168092509995993
v -1.6263032587282569e-19 -0.021642434644634931 0.0039489648837392668
v 1.6263032587282653e-19 -0.068414330908186535 0.17039029921051191
v -1.1011428314305876e-19 -0.02961522131843157 0.33998649827826405
v -4.188897629042238e-33 -0.090987901992213099 -0.28050652961927924
v -8.1315162936417503e-20 -0.093804048608492341 -0.27270022544598521
v -1.6263032587282581e-19 -0.00046931473534001108 0.34612638707477639
v 4.3368086899420177e-19 0.0075853135278357731 -0.34488123982848407
v -0.12299871600871568 0.0037725426042136924 -0.32257880241206494
v -0.15908340295745571 0.0046294019552916626 -0.30629526332400669
v -0.042109162416351847 0.0024602200382418046 0.34268289903786675
v -0.29408559851258598 0.01637275122550693 -0.17582391477705189
v -0.021326124055167553 0.0011171539757234821 0.34440559286212913
v -0.14120497848037356 0.003634347603671647 -0.31481278227429366
v -0.061790568967788811 0.0035184859025134164 0.33925506381106457
v -0.10427514919844943 0.0048812797804316044 -0.32848781216207756
v -0.34297780692139768 0.0080060080770989247 0.02963657841707712
v -0.27644653457979024 0.012099733287955328 0.20418567190197476
v -0.20600986591351261 0.0097717911702996131 0.2756333261685241
v -0.24840184524576786 0.013566072028772386 0.23692521303432057
v -0.33706728903339467 0.0083925807638075139 -0.070532619755891909
v -0.26593482201137453 0.013123922422480047 0.21723354407143181
v -0.30886925293160106 0.013444070675860327 -0.15015758810917967
v -0.29792626719339454 0.015831113217969706 -0.16962287262374962
v -0.25695330142260497 0.012364478644695854 -0.22829878102505999
v -0.24185174111695174 0.013274020364151387 0.2434819729731775
v -0.22831651611711778 0.012243437987246118 0.25693988762502462
v -0.25468858546106421 0.013659970959858513 0.23044714163403007
v -0.30543513782179421 0.014330732357560976 -0.15693008306425982
v -0.31223533888252719 0.012565611857018644 -0.14311728661720197
v -0.32247412824671517 0.010353288124900689 -0.12061732543009544
v -0.17600693844613535 0.0058881544917511889 -0.29627075190393737
v -0.27122781555924025 0.012638783291379619 0.21068827723301481
v -0.21354745186842006 0.010616816032954484 0.26950465467924989
v -0.28153580839498277 0.0115303339055275 0.19758818491216334
v -0.19834455705857568 0.0089630454780600787 0.28163301395248325
v -0.29539005549741815 0.0096774767778768297 0.17605929103877044
v -0.33858744889099124 0.0083444568516982311 -0.061921051019800069
v -0.031830725632481405 0.0018297352326707502 0.3437351353883713
v -0.010701470750384157 0.00034782949102131998 0.34531227200587367
v -0.1502175951485803 0.0040315458577526199 -0.31068503667092773
v -0.13215386058785375 0.0035427238204649544 -0.3188504433764402
v -0.052089223592679541 0.0030147742827649421 0.34111240830835521
v -0.16755468242795685 0.0052650337519136638 -0.3012526062930882
v -0.28623983777032053 0.016769765674711293 -0.18841215315781479
v -0.113676293817043 0.0042543406596368275 -0.32573526184885426
v -0.037271696996413833 0.007188981912124727 -0.34262317269633502
v -0.018329362748641328 0.0073829414290556465 -0.34405861143848077
v -0.34425224961314371 0.0081560544366781722 0.011197257102955714
v -0.34226801859037348 0.0079489832757718808 0.039051688938530935
v -0.34268667577089551 0.0082965331816949369 -0.035326182590221161
v -0.34388967719315333 0.0081848503551901521 -0.016868088578794044
v -0.23776217449045409 0.0095229025346482768 -0.24884443178163831
v -0.094983204877874275 0.0055719807743402541 -0.33147200347560041
v -0.11824362574112976 0.004992830608587356 0.32406981913135924
v -0.099339676788869347 0.0047788777278129184 0.33027350850237758
v -0.33066696501010351 0.0088159923764095129 -0.095906243348845621
v -0.33054821549895197 0.0077301131804264345 0.097007193530584346
v -0.32531199358777718 0.0097075600409413307 -0.11250839871471406
v -0.32448639958326853 0.0076648046347921658 0.11629318961576689
v -0.31917364889551803 0.011026725032010118 -0.12838720088931865
v -0.31295846654470982 0.0078870042872752882 0.14361089338853472
v -0.32102248046530729 0.0076631636731272681 0.12568984263817054
v -0.15575031740811213 0.0057669646511623752 0.30762954138264981
v -0.13710801184705343 0.0052040378610541697 0.3162726217192755
v -0.19261203822410605 0.0068504098271314675 -0.28604056244111792
v -0.29021111743970673 0.016701770722613925 -0.18207080151172353
v -0.28629715513859111 0.010906901687969154 0.19067539843728254
v -0.30018945846871814 0.0091740091952068302 0.16855642881191213
v -0.17343897020143717 0.0067400706959007571 0.29767393013260585
v -0.19030410516819646 0.0081526291597817831 0.28720334918381074
v -0.046949535786316207 0.0070848713553712936 -0.34138702738678661
v -0.066388845157823576 0.0068081485365382444 -0.33810186061433617
v -0.071352320640037922 0.0039801317133144332 0.33761292565930923
v -0.20056897195352452 0.0071578920143024359 -0.28043180772673515
v -0.21591798310739777 0.0077770447187628239 -0.26834500710815479
v -0.27273229723403603 0.015275677219782326 -0.20782034711254838
v -0.34090087811372427 0.0078531594974745114 0.048511693118727765
v -0.3417009213704193 0.0083538770332342253 -0.04438773444516099
v -0.33758275930222681 0.0077636025078274499 0.067736714652540844
v -0.32752331366734588 0.0076765090195404341 0.10667072601389119
v -0.32802377822122508 0.0091839249698028938 -0.1042452325508105
v -0.33338301496192707 0.0077795324533502137 0.08729566690839112
v -0.33318320489590725 0.0085999378382099964 -0.08752576826955695
v -0.076049790246054585 0.0065623289243139319 -0.33626282697725229
v -0.080769161105234605 0.004363745089929507 0.33568028796191451
v -0.23087958037889544 0.0088485916412402964 -0.25570856529296349
v -0.25085957554388283 0.011318186566345529 -0.23511780687220368
v -0.23521379461413019 0.012842048526455062 0.25024112197133985
v -0.12769630020495792 0.005075852515699579 0.32033633339473078
v -0.1464761544125277 0.0054239182825647266 0.3120283204446388
v -0.33537834087363427 0.0084824841452495539 -0.079080128892894189
v -0.33580767037885728 0.0077937784475198696 0.07753332941456946
v -0.34025389591547267 0.0083576549970254734 -0.053243320540386795
v -0.3393053319992666 0.007779858006132713 0.05806470578447899
v -0.27754764789763242 0.016031234228054241 -0.20129623611741748
v -0.2625062146080045 0.013388316534799277 -0.22136380795049179
v -0.22350901499094744 0.0082520774554352139 -0.26214569199896126
v -0.26773130020195368 0.014374596778913517 -0.21451351140673475
v -0.20825828832682183 0.0074262010488265126 -0.27443031275143459
v -0.22101343309981969 0.011465741849431717 0.26329990606020731
v -0.30891579372381806 0.0082294563810356314 0.15227880161772545
v -0.31701812720044742 0.0077021687080378936 0.13474551285598513
v -0.31568962329247635 0.011756815250460743 -0.13586638069888651
v -0.28208558113937765 0.016554150624201226 -0.1948555408950563
v -0.1843520486791311 0.0064197354247695695 -0.29119675830467434
v -0.16468204048420776 0.006192945097502579 0.30270564125235866
v -0.30478777210862296 0.0086940742972108319 0.1606696462007558
v -0.29087412977889859 0.010281138732461888 0.18348944050508226
v -0.18197024235498735 0.0073942889963523016 0.2924893124834323
v -0.027709945579721122 0.007279746617891391 -0.34343335165785455
v -0.0091164620474513541 0.0074917846413471122 -0.34455112050495373
v -0.34324292597334982 0.0082076008466545787 -0.026121800915153176
v -0.34369348838301239 0.0080871966469587171 0.020346082727045675
v -0.34461278163105474 0.0082092423107753623 0.0017566014069817113
v -0.34446598516385779 0.0082083308435169939 -0.0075852426773636876
v -0.0856187189573452 0.0061749813975128902 -0.33420504999112044
v -0.10873013631649819 0.0048914002745225607 0.32723954049633669
v -0.090055250358966749 0.0046176545431076983 0.33315151183476854
v -0.26048831483637686 0.013493362173056505 0.22385098472773043
v -0.30176371485218001 0.015141181227783115 -0.16338645237044735
v -0.24441147032943639 0.010347102656468491 -0.24193981369591555
v -0.056675182970156612 0.0069648586076245514 -0.33983430869238507
v 6.7762635780344015e-20 0.021803517567618107 0.011807136957581671
v 1.0842021724855049e-19 -0.021734523612385787 0.0086745873637044286
v -0.018591423414400093 0.022515433280356646 0.012364177949371492
v -0.080864205202605788 0.032107677892435155 0.011083381415732632
v -0.11844186587616881 0.044230246448318765 0.012186796426997513
v -0.26442063572243146 -0.095277441794965112 0.0017532428350010513
v -0.22844032070399745 -0.094614053832322687 -7.9486730083144362e-05
v -0.025806283909809907 -0.022975678037574641 0.0068799623249472374
v -0.050272481875565843 -0.025765271064799783 0.0054792256338802433
v -0.084036641798454839 -0.032785498898574475 0.0031216484981449692
v -0.11768876855343147 -0.043746473517578016 0.0020631078989571741
v -0.24789868895018596 0.095644216347770705 0.012558174024174518
v -0.21395168039379681 0.089887728081668672 0.011571001403682682
v -0.14068081608181793 0.053828377087638712 0.012805506088102641
v -0.24642563543013118 -0.09563803048075159 0.00017080321845918244
v -0.17350373517749823 0.070563014386177986 0.012244299728032693
v -0.21121526381230288 -0.088535238032731847 0.00085371290636806411
v -0.13300763002195823 0.050467696272369508 0.012722207442867024
v -0.13500988443712669 -0.051071939809393258 0.0027758300701240901
v -0.10063079412456699 -0.037949883014677957 0.0021953517807381528
v -0.096462652589585113 0.036814654498460067 0.011127307053845605
v -0.067264084470938401 -0.028936222200940828 0.004351822308140291
v -0.063973299294878244 0.028435772393749656 0.01162007265232497
v -0.26614852076185358 0.095061162100886387 0.013300055139162943
v -0.037056034217047 0.024250503575068704 0.012433497739333655
v -0.32747333935128431 0.053898198046804249 0.014127624544283474
v -0.34288826885229373 0.014909595106661899 0.011233041099295359
v -0.34355646267904533 -0.011808910255001552 0.011636418635651343
v -0.33978776538501632 0.028422224009178827 0.011926709388547719
v -0.33889238049275178 -0.031976674883059997 0.011600825712194271
v -0.29912927794200361 0.081520468490295095 0.0142393901647809
v -0.31589808020122367 -0.068558378419595487 0.0094272758253866468
v -0.27497241470379175 0.092636049909822549 0.013605889711006352
v -0.2218865929986904 0.092918714627876348 0.011661494073288849
v -0.20614110067564273 0.086591668692183155 0.011586310810353048
v -0.19036274458189822 0.079503628843065083 0.011827577408070295
v -0.23895466977073376 0.09558076675730276 0.012189459447650978
v -0.25542950555253052 -0.09560039593847218 0.00081869263776340804
v -0.23742366230746409 -0.095456869010817 -0.0001332363799901103
v -0.2814583418312413 -0.090367185449980195 0.0041472517463428081
v -0.16516597927904286 0.065842128337115016 0.012464081540026041
v -0.219746578114278 -0.091978680519688716 0.0002680925885908752
v -0.20259834848540367 -0.084850141697028758 0.0015880948439716753
v -0.12563222145893338 0.047260323721290895 0.012511460112608177
v -0.12629882362314832 -0.047296882728021135 0.0023391774883898689
v -0.1438167829064359 -0.054963995179300514 0.0032657270368668528
v -0.34524154561311804 0.0015231707459112693 0.011323100769375481
v -0.16969627275283466 -0.068142503876343352 0.0038489308842005552
v -0.34137915605057989 0.02165729472116491 0.011478452246545371
v -0.34210408410953841 -0.0184577104629579 0.011720434390495027
v -0.32525519027718364 -0.057002600546336615 0.01044718914628899
v -0.33557627355037201 0.04184285639152073 0.013154089856206932
v -0.33380588065670957 -0.045282888160890676 0.011148791596018327
v -0.10390910422966176 0.039199884315953379 0.011406948094181045
v -0.19829537308981388 0.083172279180079745 0.011679163153564376
v -0.088807910039736343 0.034410860605784854 0.011013755203284292
v -0.15689483824159717 0.061353496593423179 0.012652883343283893
v -0.0093013787582752715 0.02206161837506632 0.012123359437552546
v -0.17797389355741272 -0.072849258071365636 0.0035331813826862402
v -0.18190032027908165 0.07523162275374666 0.012022326294080541
v -0.28934401128778431 -0.086651247084087557 0.0054254475084102782
v -0.30644881260989609 0.077275400069325539 0.01442401034781279
v -0.30423290554918958 -0.078976636776362658 0.0077622510198609388
v -0.092305412408260817 -0.035279616182604029 0.0025859247322620885
v -0.11122487197040072 0.041588773297521558 0.011790702919581727
v -0.072556576650323057 0.030188846974410065 0.011302188744855359
v -0.055178920182337499 0.026751104342500061 0.011965738753036774
v -0.058780069659347664 -0.027270495231344782 0.0049406118346816495
v -0.0756928007323385 -0.030710556231907764 0.0037317446706259232
v -0.14867428251235579 0.057403056741931122 0.012774215922593606
v -0.16128600339826449 -0.063415598409453822 0.0038964323438753722
v -0.027845699892897806 0.023311448194982074 0.012471701140987952
v -0.041820689784848764 -0.024604711191258795 0.005970080968171811
v -0.34425224961314371 0.0081560544366781722 0.011197257102955714
v -0.34476040090461357 -0.005172569891181358 0.011489412506525238
v -0.033603007495915126 -0.023700757728689043 0.0064306458384563881
v -0.046195335170096663 0.025298397607056312 0.01225804379113095
v -0.32280897694401012 0.059820548256832556 0.014405357763088631
v -0.32965570937042987 -0.051201710916905577 0.010820013632771637
v -0.33801192076769437 0.035194898837830217 0.012520479586768479
v -0.33679619230123292 -0.038759703597529865 0.011408619844805783
v -0.34054856038690673 -0.025175105384526296 0.011708533617324865
v -0.29138623004800923 0.08544486215774201 0.014040371652245079
v -0.33187750957056439 0.048015694927198073 0.01370270671235208
v -0.31791850028126578 0.065843824744773904 0.014534264415261223
v -0.32068932425929675 -0.062780526103522152 0.0099976069430898068
v -0.31055979113330762 -0.074126992733236197 0.0086931899853100424
v -0.31261468137437137 0.071824422994122589 0.014533675423753589
v -0.25699217116915968 0.095543141236622164 0.012940876094045331
v -0.27323556107269836 -0.093684358399660356 0.0028881530584737762
v -0.28335983381082941 0.089246535107295827 0.013835445553440897
v -0.2969762290482334 -0.082895656038086157 0.0066513266853939889
v -0.23020768328947777 0.095077127494011066 0.011876185763640062
v -0.1090989344203965 -0.040716134761897872 0.002010533360192134
v -0.018567157247491299 -0.022461907968905633 0.0073279961103687851
v -0.19443387534898776 -0.081258018941430588 0.0023156944099747053
v -0.1861943241352455 -0.077299452556671033 0.0029944549007760559
v -0.011932677406257936 -0.022125586945886431 0.0077771594985598849
v -0.1526629425660867 -0.058951111129350572 0.0036810170349841206
v -0.0058165391290037737 -0.021898969836460502 0.0082264198076797603
v 8.6736173798840355e-19 -0.082320299759493801 -0.19664782451153121
v -3.252606517456521e-19 -0.080473790530603953 0.19263745570332533
v -0.043729361115041415 -0.081380747934056114 0.18985375985118033
v -0.026004415841914878 -0.080514243099669008 0.19118291784811148
v -0.008588714392805041 -0.080329903822016629 0.19219554376967207
v -0.18871527359893508 -0.087720668907632804 -0.090509323023679228
v -0.1288821023415842 -0.089234920018308392 -0.16932188811601698
v -0.17008987191727246 -0.089158217702466624 -0.12762999448578533
v -0.16626373401219746 -0.087726353672781421 0.12697352605914727
v -0.15092844159519317 -0.087952272779571627 0.14570613350017658
v -0.10806988592510329 -0.08735686380556526 -0.17812889915592317
v -0.18220242983032281 -0.088374114671640552 -0.10600361728279331
v -0.20097447470983412 -0.084817275569160508 0.024775440052558509
v -0.10061977117009753 -0.086618285218818591 -0.18053272889331068
v -0.18568060864508129 -0.088009335101361219 -0.098357834583781861
v -0.12226570669816958 -0.08864678182818192 -0.17258291699392456
v -0.17436153921617459 -0.088847163350347813 -0.12068215533815393
v -0.17047708631853153 -0.087376868410246888 0.12003791067333501
v -0.16119089997281805 -0.089627085134339909 -0.14065095965791402
v -0.15648156562359022 -0.087962527633619864 0.13986861811673029
v -0.13894775215572153 -0.087573331817466224 0.15606089152347433
v -0.15651126699370399 -0.089886765688081793 -0.14658663014971651
v -0.13513682654672596 -0.089671576465732289 -0.16569294133172935
v -0.20227906495538017 -0.084844876090271609 0.0091699266386065618
v -0.077497811241645426 -0.083858899689499278 0.1847304082537366
v -0.085233578526654252 -0.0852407883343098 -0.18472418068825391
v -0.18696604644478365 -0.085544987942114681 0.081913275434954982
v -0.19695883087764299 -0.086091777706210793 -0.058281513452978911
v -0.19481583230292032 -0.085112516253789988 0.057564213758726848
v -0.052527202087658875 -0.081985829116454953 0.18895117818156915
v -0.061297489800446317 -0.083542700451981339 -0.18993354284310124
v -0.146489710335579 -0.090072092125055167 -0.15710720951818102
v -0.03591265306551443 -0.082495875239581851 -0.19389631186565365
v -0.19943917850628973 -0.08543167984451111 -0.042411395912341714
v -0.20043511527578495 -0.085241799567885787 -0.034699531518335956
v -0.19993171710119145 -0.084863584688811583 0.032848013507945792
v -0.180933464728881 -0.086177261491838825 0.097678149323597974
v -0.099672703790572414 -0.085441791450308835 0.1779188272418899
v -0.085180094112696364 -0.084446915486999841 0.18274016971861223
v -0.092995070136341007 -0.085897437841261054 -0.18272316986667675
v -0.184007509957474 -0.08582111738604227 0.089855677405987058
v -0.20174098726604936 -0.084826183894669338 0.01688194769551777
v -0.20196387571593921 -0.085023346725569382 -0.019814185143195287
v -0.12629983659938421 -0.087013945907025367 0.1646937472166761
v -0.061140048186944421 -0.082627560666199612 0.18781823246678123
v -0.069405774225027306 -0.083996930685293042 -0.18833901438212713
v -0.1954043790380349 -0.086503897140395553 -0.066359546961680838
v -0.19244573553567229 -0.085187121416049824 0.065762455927883046
v -0.20130456808931296 -0.085069577158579365 -0.027171453182830416
v -0.092565285276772963 -0.084939034359452409 0.18048371326095464
v -0.20259834848540367 -0.084850141697028758 0.0015880948439716753
v -0.11984662385148151 -0.086629378619997477 0.16848143238690005
v -0.14101123016307776 -0.089923659052978916 -0.16164491146443866
v -0.15162796254415783 -0.090069266684990199 -0.1520778019926447
v -0.18981221832157716 -0.085303144638230993 0.073884405254540292
v -0.19356690489051065 -0.086900194163224989 -0.074466285068210833
v -0.069483891100470319 -0.083234509848533714 0.18642819466571875
v -0.044571878746866883 -0.082753450488378927 -0.19275131603128237
v -0.19830101784183385 -0.085690481502258886 -0.050286864762476208
v -0.19688219348777969 -0.085002453487099838 0.049315663609660734
v -0.034852112114763766 -0.080902602727221107 0.19056417497582478
v -0.027082814577142345 -0.082274523419206394 -0.19486545070572375
v -0.017245327621979771 -0.080313282195762989 0.1917211697087845
v -0.01811983701664863 -0.082193125475707007 -0.19561309253099007
v -0.20263705842115526 -0.084912402946894144 -0.0054936390379917979
v -0.19134499397650312 -0.08733466134040474 -0.082531704264003955
v -0.14505875602988921 -0.087794244562802534 0.15111197607177149
v -0.16160208663256412 -0.087913845236529425 0.13360204456458319
v -0.13267484828909398 -0.087318832833900267 0.16057151565702094
v -0.16570485952695646 -0.089389965738181587 -0.13430932649554117
v -0.10656069550877076 -0.085884918136816923 0.17506879192535602
v -0.1153064771930289 -0.088029175595022005 -0.17549735093741439
v -0.17425111125599879 -0.087015891535573681 0.11280682396102021
v -0.17840478935903331 -0.088646247991777796 -0.11345272532315587
v -0.009078174372371928 -0.082184037062605297 -0.19619931188701281
v -0.053031570502211918 -0.083108427534871895 -0.19142009370689131
v -0.2024143829690678 -0.08498634822114301 -0.012604900405737389
v -0.07737324971541884 -0.084589677879853775 -0.18659480592701644
v -0.17769697151869326 -0.086618159205997622 0.10533637778621294
v -0.1132757644231922 -0.086261556811990131 0.17193201660001767
v -0.19857771014305173 -0.084934855385059252 0.04105205469654917
v 4.3368086899420177e-19 0.081366253852019343 -0.19450137943635679
v 9.4867690092481301e-20 0.082170990502989011 0.19646281179385944
v -0.18777844487988438 0.080461109887006027 -0.043332626925572729
v -0.19034436399268612 0.079365251389402564 0.00035550617578864623
v -0.08101892141078304 0.085974436434961887 0.18846109564615698
v -0.16662035493627952 0.087852483693876826 -0.12698730453900814
v -0.16327260285927017 0.086637389773916634 0.1267982974180038
v -0.12474040423730406 0.087399124308440157 -0.16704952243681176
v -0.14909389663794242 0.087527137153951051 0.14612831703267884
v -0.1494163870596002 0.088619429934061328 -0.14939305354762478
v -0.17582146100225296 0.086556488405426901 -0.10832342021738815
v -0.18019578221412724 0.085255955935415642 -0.094822041409318686
v -0.17004745438892832 0.08744848286664178 -0.12093941789144934
v -0.13703733697178749 0.087489058002287484 0.15747344017200149
v -0.15439822650724214 0.087327118214989272 0.13996503276049604
v -0.13820705142510076 0.088291285339729228 -0.15901118436797471
v -0.15431136271759036 0.088529894913192464 -0.14412951839192556
v -0.015126858542247452 0.083011327016721176 0.19774026345532103
v -0.057728071728726994 0.084885388489245622 0.1943119329968902
v -0.042114237984663454 0.084206988577839606 0.19665329165658169
v -0.17305554468232107 0.084883220516826854 0.10531752773601019
v -0.034654718591517211 0.083902814393470013 0.19734611181803557
v -0.10281497713901069 0.086748316547117621 0.17956798573955135
v -0.17818037586233093 0.085959220862031477 -0.10171583651365232
v -0.17573927608979623 0.084183225172894005 0.097562607828022979
v -0.10035484715686779 0.08501983508362379 -0.17633943221276957
v -0.18187482530720295 0.084534798814269951 -0.08753754894280677
v -0.082004755702086957 0.083355035904952218 -0.18146446309791128
v -0.02108400567832 0.083284001809656907 0.19786759189454517
v -0.16692731771949737 0.086104253378730289 0.11988289941257796
v -0.12369056694011518 0.087247144931806797 0.16736813268605888
v -0.11714451712899193 0.08665935649977316 -0.1704821826773481
v -0.065611375281751955 0.085256532288648379 0.19267019808160524
v -0.19036274458189822 0.079503628843065083 0.011827577408070295
v -0.18678551717172476 0.081167466542526517 -0.053269115065773642
v -0.18866784478023341 0.079932703131063376 -0.03292181199424217
v -0.027611193275547626 0.083572702748332839 0.19775225086970846
v -0.02546474225599879 0.08132570134150785 -0.1929823816702278
v -0.17825863754611182 0.083463871101300866 0.089390583798090673
v -0.091339422086063687 0.084116260326115716 -0.17897390259981305
v -0.17015788128326115 0.085503857322530866 0.11273952570754431
v -0.11680288239596021 0.087070669038159826 0.17179629056379978
v -0.15879045960812316 0.088342418300660475 -0.13862043664047319
v -0.073403030926945209 0.085592206852076913 0.19073699673856084
v -0.049855167627143343 0.08450673189153235 0.19565329706824705
v -0.18062079270415091 0.082802700272957663 0.08074258971996201
v -0.1893002691488852 0.080098250731452103 0.032133487891269033
v -0.034440725740682319 0.081438976289676959 -0.19179485579329342
v -0.016779384353516641 0.081223078771034879 -0.19380032106602479
v -0.19001148092793751 0.079381884869687641 -0.010991761453746186
v -0.062827152182680979 0.082177912447588347 -0.18619085599316412
v -0.18573620768774113 0.081946563080852075 -0.062680792791290796
v -0.18491467201312961 0.081489332328483932 0.062124774959131226
v -0.14406885468993583 0.088538100312164192 -0.15437450125620938
v -0.14329066521850503 0.087525766173372752 0.1519874052301044
v -0.16287233880119537 0.08814972577013136 -0.1328867980852052
v -0.13176416412816402 0.087943612866519888 -0.16323314731873004
v -0.13046080359176887 0.087408790589906499 0.16259121550237327
v -0.15912827895085763 0.087010845734332626 0.13351172971278075
v -0.10898570316616185 0.085880650808217718 -0.17354053754010407
v -0.17311633329589018 0.087027269209769886 -0.11472177242133597
v -0.18819035625423802 0.080488789326155996 0.042262998766433968
v -0.053204145471847333 0.081790760488684194 -0.18834852118621997
v -0.18331305930211825 0.083719875879057409 -0.079792740108825005
v -0.04370742125700583 0.081569504504986234 -0.19023896553429337
v -0.095707737675728877 0.086504059903125166 0.18291523753085254
v -0.18946396627324344 0.079498991223649632 -0.022118192865109718
v -0.18285825072020645 0.0821234342769189 0.071638182729287292
v -0.18458974265094996 0.082818443193272251 -0.071522888043991567
v -0.0083249441598980192 0.081201622576822438 -0.19427720343772423
v -0.1867091863409546 0.080955820814700097 0.0522933935046965
v -0.088450581571509895 0.086273533925329299 0.18586502737623117
v -0.072472550728204299 0.082659168880163669 -0.18389356926597161
v -0.10983524915228793 0.086937921759935866 0.17585566894084637
v -0.19004310348355807 0.079721690496155406 0.021979124593034579
v -0.0097158049608342383 0.082735342898149197 0.1974245123978946
v -0.0047379643450532801 0.082441098348738778 0.1969835798056882
l 116/116 105/105
l 105/105 41/41
l 41/41 104/104
l 104/104 40/40
l 40/40 65/65
l 65/65 117/117
l 117/117 66/66
l 66/66 78/78
l 78/78 110/110
l 110/110 47/47
l 47/47 9/9
l 9/9 39/39
l 39/39 1/1
l 1/1 35/35
l 35/35 7/7
l 7/7 34/34
l 34/34 2/2
l 2/2 37/37
l 37/37 25/25
l 25/25 99/99
l 99/99 59/59
l 59/59 68/68
l 68/68 93/93
l 93/93 69/69
l 69/69 91/91
l 91/91 80/80
l 80/80 46/46
l 46/46 115/115
l 115/115 81/81
l 81/81 18/18
l 18/18 90/90
l 90/90 92/92
l 92/92 70/70
l 70/70 89/89
l 89/89 98/98
l 98/98 38/38
l 38/38 60/60
l 60/60 5/5
l 5/5 17/17
l 17/17 114/114
l 114/114 22/22
l 22/22 16/16
l 16/16 23/23
l 23/23 97/97
l 97/97 54/54
l 54/54 24/24
l 24/24 52/52
l 52/52 75/75
l 75/75 50/50
l 50/50 77/77
l 77/77 85/85
l 85/85 14/14
l 14/14 31/31
l 31/31 87/87
l 87/87 72/72
l 72/72 44/44
l 44/44 106/106
l 106/106 45/45
l 45/45 109/109
l 109/109 108/108
l 108/108 42/42
l 42/42 107/107
l 107/107 10/10
l 10/10 43/43
l 43/43 71/71
l 71/71 88/88
l 88/88 73/73
l 73/73 86/86
l 86/86 76/76
l 76/76 51/51
l 51/51 74/74
l 74/74 53/53
l 53/53 56/56
l 56/56 96/96
l 96/96 55/55
l 55/55 95/95
l 95/95 101/101
l 101/101 62/62
l 62/62 30/30
l 30/30 102/102
l 102/102 61/61
l 61/61 28/28
l 28/28 11/11
l 11/11 26/26
l 26/26 15/15
l 15/15 113/113
l 113/113 21/21
l 21/21 13/13
l 13/13 19/19
l 19/19 82/82
l 82/82 20/20
l 20/20 94/94
l 94/94 27/27
l 27/27 12/12
l 12/12 29/29
l 29/29 64/64
l 64/64 103/103
l 103/103 63/63
l 63/63 100/100
l 100/100 57/57
l 57/57 84/84
l 84/84 58/58
l 58/58 83/83
l 83/83 48/48
l 48/48 111/111
l 111/111 49/49
l 49/49 112/112
l 112/112 79/79
l 79/79 67/67
l 67/67 8/8
l 8/8 36/36
l 36/36 3/3
l 3/3 32/32
l 32/32 6/6
l 6/6 33/33
l 33/33 4/4
l 214/214 217/217
l 217/217 215/215
l 215/215 210/210
l 210/210 123/123
l 123/123 191/191
l 191/191 188/188
l 188/188 124/124
l 124/124 183/183
l 183/183 137/137
l 137/137 184/184
l 184/184 125/125
l 125/125 179/179
l 179/179 135/135
l 135/135 209/209
l 209/209 126/126
l 126/126 160/160
l 160/160 134/134
l 134/134 161/161
l 161/161 216/216
l 216/216 186/186
l 186/186 163/163
l 163/163 174/174
l 174/174 212/212
l 212/212 211/211
l 211/211 158/158
l 158/158 132/132
l 132/132 157/157
l 157/157 122/122
l 122/122 154/154
l 154/154 130/130
l 130/130 153/153
l 153/153 121/121
l 121/121 205/205
l 205/205 155/155
l 155/155 176/176
l 176/176 207/207
l 207/207 178/178
l 178/178 202/202
l 202/202 147/147
l 147/147 201/201
l 201/201 166/166
l 166/166 194/194
l 194/194 168/168
l 168/168 196/196
l 196/196 145/145
l 145/145 197/197
l 197/197 165/165
l 165/165 143/143
l 143/143 190/190
l 190/190 162/162
l 162/162 189/189
l 189/189 142/142
l 142/142 164/164
l 164/164 144/144
l 144/144 195/195
l 195/195 167/167
l 167/167 199/199
l 199/199 141/141
l 141/141 193/193
l 193/193 200/200
l 200/200 203/203
l 203/203 177/177
l 177/177 146/146
l 146/146 198/198
l 198/198 206/206
l 206/206 148/148
l 148/148 139/139
l 139/139 204/204
l 204/204 127/127
l 127/127 152/152
l 152/152 208/208
l 208/208 149/149
l 149/149 128/128
l 128/128 150/150
l 150/150 170/170
l 170/170 151/151
l 151/151 175/175
l 175/175 131/131
l 131/131 156/156
l 156/156 172/172
l 172/172 185/185
l 185/185 129/129
l 129/129 133/133
l 133/133 159/159
l 159/159 120/120
l 120/120 180/180
l 180/180 169/169
l 169/169 136/136
l 136/136 171/171
l 171/171 119/119
l 119/119 181/181
l 181/181 138/138
l 138/138 182/182
l 182/182 192/192
l 192/192 140/140
l 140/140 187/187
l 187/187 118/118
l 118/118 173/173
l 173/173 213/213
l 296/296 290/290
l 290/290 279/279
l 279/279 277/277
l 277/277 248/248
l 248/248 273/273
l 273/273 291/291
l 291/291 246/246
l 246/246 261/261
l 261/261 293/293
l 293/293 241/241
l 241/241 255/255
l 255/255 229/229
l 229/229 226/226
l 226/226 287/287
l 287/287 231/231
l 231/231 222/222
l 222/222 238/238
l 238/238 268/268
l 268/268 247/247
l 247/247 269/269
l 269/269 237/237
l 237/237 234/234
l 234/234 285/285
l 285/285 223/223
l 223/223 232/232
l 232/232 289/289
l 289/289 227/227
l 227/227 230/230
l 230/230 221/221
l 221/221 281/281
l 281/281 271/271
l 271/271 262/262
l 262/262 243/243
l 243/243 274/274
l 274/274 249/249
l 249/249 250/250
l 250/250 264/264
l 264/264 258/258
l 258/258 292/292
l 292/292 280/280
l 280/280 266/266
l 266/266 239/239
l 239/239 257/257
l 257/257 228/228
l 228/228 251/251
l 251/251 298/298
l 298/298 275/275
l 275/275 244/244
l 244/244 263/263
l 263/263 270/270
l 270/270 242/242
l 242/242 256/256
l 256/256 252/252
l 252/252 294/294
l 294/294 288/288
l 288/288 233/233
l 233/233 224/224
l 224/224 283/283
l 283/283 235/235
l 235/235 225/225
l 225/225 282/282
l 282/282 236/236
l 236/236 284/284
l 284/284 259/259
l 259/259 267/267
l 267/267 295/295
l 295/295 286/286
l 286/286 253/253
l 253/253 265/265
l 265/265 254/254
l 254/254 240/240
l 240/240 272/272
l 272/272 260/260
l 260/260 245/245
l 245/245 218/218
l 218/218 276/276
l 276/276 219/219
l 219/219 278/278
l 278/278 220/220
l 220/220 297/297
l 371/371 366/366
l 366/366 345/345
l 345/345 334/334
l 334/334 344/344
l 344/344 361/361
l 361/361 359/359
l 359/359 347/347
l 347/347 369/369
l 369/369 324/324
l 324/324 336/336
l 336/336 322/322
l 322/322 356/356
l 356/356 328/328
l 328/328 304/304
l 304/304 353/353
l 353/353 312/312
l 312/312 350/350
l 350/350 306/306
l 306/306 313/313
l 313/313 339/339
l 339/339 352/352
l 352/352 302/302
l 302/302 309/309
l 309/309 357/357
l 357/357 307/307
l 307/307 320/320
l 320/320 308/308
l 308/308 323/323
l 323/323 360/360
l 360/360 365/365
l 365/365 348/348
l 348/348 331/331
l 331/331 299/299
l 299/299 332/332
l 332/332 363/363
l 363/363 346/346
l 346/346 300/300
l 300/300 330/330
l 330/330 372/372
l 372/372 343/343
l 343/343 358/358
l 358/358 367/367
l 367/367 349/349
l 349/349 364/364
l 364/364 342/342
l 342/342 335/335
l 335/335 321/321
l 321/321 317/317
l 317/317 337/337
l 337/337 326/326
l 326/326 303/303
l 303/303 355/355
l 355/355 311/311
l 311/311 305/305
l 305/305 351/351
l 351/351 310/310
l 310/310 354/354
l 354/354 327/327
l 327/327 338/338
l 338/338 370/370
l 370/370 319/319
l 319/319 362/362
l 362/362 368/368
l 368/368 301/301
l 301/301 340/340
l 340/340 329/329
l 329/329 315/315
l 315/315 341/341
l 341/341 316/316
l 316/316 318/318
l 318/318 333/333
l 333/333 325/325
l 325/325 314/314
l 314/314 373/373
l 373/373 374/374
l 374/374 375/375
l 376/376 405/405
l 376/376 482/482
l 377/377 503/503
l 377/377 562/562
l 378/378 392/392
l 378/378 618/618
l 379/379 526/526
l 379/379 544/544
l 380/380 560/560
l 380/380 587/587
l 381/381 430/430
l 381/381 569/569
l 382/382 422/422
l 382/382 583/583
l 383/383 476/476
l 383/383 505/505
l 384/384 444/444
l 384/384 517/517
l 385/385 418/418
l 385/385 579/579
l 386/386 445/445
l 386/386 474/474
l 387/387 447/447
l 387/387 514/514
l 388/388 497/497
l 388/388 556/556
l 389/389 488/488
l 389/389 576/576
l 390/390 404/404
l 390/390 438/438
l 391/391 435/435
l 391/391 525/525
l 392/392 437/437
l 393/393 479/479
l 393/393 563/563
l 394/394 440/440
l 394/394 494/494
l 395/395 504/504
l 395/395 570/570
l 396/396 522/522
l 396/396 601/601
l 397/397 460/460
l 397/397 524/524
l 398/398 464/464
l 398/398 483/483
l 399/399 434/434
l 399/399 537/537
l 400/400 577/577
l 400/400 596/596
l 401/401 466/466
l 401/401 486/486
l 402/402 546/546
l 402/402 607/607
l 403/403 421/421
l 403/403 535/535
l 404/404 491/491
l 405/405 464/464
l 406/406 483/483
l 406/406 559/559
l 407/407 519/519
l 407/407 606/606
l 408/408 469/469
l 408/408 498/498
l 409/409 509/509
l 409/409 511/511
l 410/410 462/462
l 410/410 527/527
l 411/411 414/414
l 411/411 571/571
l 412/412 521/521
l 412/412 598/598
l 413/413 521/521
l 413/413 582/582
l 414/414 523/523
l 415/415 454/454
l 415/415 567/567
l 416/416 446/446
l 416/416 475/475
l 417/417 539/539
l 417/417 555/555
l 418/418 557/557
l 419/419 481/481
l 419/419 532/532
l 420/420 421/421
l 420/420 465/465
l 422/422 529/529
l 423/423 424/424
l 423/423 430/430
l 424/424 524/524
l 425/425 583/583
l 425/425 600/600
l 426/426 552/552
l 426/426 584/584
l 427/427 476/476
l 427/427 502/502
l 428/428 590/590
l 428/428 591/591
l 429/429 462/462
l 429/429 511/511
l 431/431 512/512
l 431/431 529/529
l 432/432 555/555
l 432/432 595/595
l 433/433 489/489
l 433/433 613/613
l 434/434 533/533
l 435/435 585/585
l 436/436 526/526
l 436/436 589/589
l 437/437 588/588
l 438/438 470/470
l 439/439 575/575
l 439/439 605/605
l 440/440 592/592
l 441/441 442/442
l 441/441 581/581
l 442/442 497/497
l 443/443 561/561
l 443/443 613/613
l 444/444 590/590
l 445/445 501/501
l 446/446 503/503
l 447/447 501/501
l 448/448 568/568
l 448/448 586/586
l 449/449 475/475
l 449/449 518/518
l 450/450 563/563
l 450/450 570/570
l 451/451 564/564
l 451/451 615/615
l 452/452 453/453
l 452/452 505/505
l 453/453 495/495
l 454/454 566/566
l 455/455 513/513
l 455/455 553/553
l 456/456 584/584
l 456/456 586/586
l 457/457 514/514
l 457/457 602/602
l 458/458 565/565
l 458/458 599/599
l 459/459 460/460
l 459/459 565/565
l 461/461 509/509
l 461/461 528/528
l 463/463 582/582
l 463/463 603/603
l 465/465 538/538
l 466/466 548/548
l 467/467 572/572
l 467/467 577/577
l 468/468 579/579
l 468/468 587/587
l 469/469 470/470
l 471/471 585/585
l 471/471 597/597
l 472/472 588/588
l 472/472 612/612
l 473/473 560/560
l 473/473 589/589
l 474/474 504/504
l 477/477 591/591
l 477/477 610/610
l 478/478 479/479
l 478/478 498/498
l 480/480 581/581
l 480/480 592/592
l 481/481 616/616
l 482/482 536/536
l 484/484 573/573
l 484/484 594/594
l 485/485 576/576
l 485/485 595/595
l 486/486 545/545
l 487/487 596/596
l 487/487 605/605
l 488/488 609/609
l 489/489 612/612
l 490/490 525/525
l 490/490 546/546
l 491/491 578/578
l 492/492 617/617
l 492/492 618/618
l 493/493 540/540
l 493/493 545/545
l 494/494 518/518
l 495/495 499/499
l 496/496 557/557
l 496/496 564/564
l 499/499 500/500
l 500/500 561/561
l 502/502 552/552
l 506/506 567/567
l 506/506 598/598
l 507/507 568/568
l 507/507 601/601
l 508/508 562/562
l 508/508 566/566
l 510/510 512/512
l 510/510 614/614
l 513/513 599/599
l 515/515 569/569
l 515/515 614/614
l 516/516 517/517
l 516/516 615/615
l 519/519 547/547
l 520/520 571/571
l 520/520 602/602
l 522/522 600/600
l 523/523 527/527
l 528/528 603/603
l 530/530 547/547
l 530/530 608/608
l 531/531 604/604
l 531/531 609/609
l 532/532 549/549
l 533/533 548/548
l 534/534 594/594
l 534/534 604/604
l 535/535 537/537
l 536/536 593/593
l 538/538 573/573
l 539/539 617/617
l 540/540 574/574
l 541/541 574/574
l 541/541 578/578
l 542/542 606/606
l 542/542 607/607
l 543/543 544/544
l 543/543 611/611
l 549/549 572/572
l 550/550 559/559
l 550/550 608/608
l 551/551 580/580
l 551/551 610/610
l 553/553 580/580
l 554/554 575/575
l 554/554 611/611
l 556/556 597/597
l 558/558 593/593
l 558/558 616/616
l 620/620 724/724
l 724/724 660/660
l 660/660 723/723
l 723/723 659/659
l 659/659 684/684
l 684/684 735/735
l 735/735 685/685
l 685/685 697/697
l 697/697 729/729
l 729/729 666/666
l 666/666 628/628
l 628/628 658/658
l 658/658 621/621
l 621/621 654/654
l 654/654 626/626
l 626/626 653/653
l 653/653 622/622
l 622/622 656/656
l 656/656 644/644
l 644/644 718/718
l 718/718 678/678
l 678/678 687/687
l 687/687 712/712
l 712/712 688/688
l 688/688 710/710
l 710/710 699/699
l 699/699 665/665
l 665/665 734/734
l 734/734 700/700
l 700/700 637/637
l 637/637 709/709
l 709/709 711/711
l 711/711 689/689
l 689/689 708/708
l 708/708 717/717
l 717/717 657/657
l 657/657 679/679
l 679/679 624/624
l 624/624 636/636
l 636/636 733/733
l 733/733 641/641
l 641/641 635/635
l 635/635 642/642
l 642/642 716/716
l 716/716 673/673
l 673/673 643/643
l 643/643 671/671
l 671/671 694/694
l 694/694 669/669
l 669/669 696/696
l 696/696 704/704
l 704/704 633/633
l 633/633 650/650
l 650/650 706/706
l 706/706 691/691
l 691/691 663/663
l 663/663 725/725
l 725/725 664/664
l 664/664 728/728
l 728/728 727/727
l 727/727 661/661
l 661/661 726/726
l 726/726 629/629
l 629/629 662/662
l 662/662 690/690
l 690/690 707/707
l 707/707 692/692
l 692/692 705/705
l 705/705 695/695
l 695/695 670/670
l 670/670 693/693
l 693/693 672/672
l 672/672 675/675
l 675/675 715/715
l 715/715 674/674
l 674/674 714/714
l 714/714 720/720
l 720/720 681/681
l 681/681 649/649
l 649/649 721/721
l 721/721 680/680
l 680/680 647/647
l 647/647 630/630
l 630/630 645/645
l 645/645 634/634
l 634/634 732/732
l 732/732 640/640
l 640/640 632/632
l 632/632 638/638
l 638/638 701/701
l 701/701 639/639
l 639/639 713/713
l 713/713 646/646
l 646/646 631/631
l 631/631 648/648
l 648/648 683/683
l 683/683 722/722
l 722/722 682/682
l 682/682 719/719
l 719/719 676/676
l 676/676 703/703
l 703/703 677/677
l 677/677 702/702
l 702/702 667/667
l 667/667 730/730
l 730/730 668/668
l 668/668 731/731
l 731/731 698/698
l 698/698 686/686
l 686/686 627/627
l 627/627 655/655
l 655/655 623/623
l 623/623 651/651
l 651/651 625/625
l 625/625 652/652
l 652/652 619/619
l 737/737 835/835
l 835/835 833/833
l 833/833 830/830
l 830/830 743/743
l 743/743 811/811
l 811/811 808/808
l 808/808 744/744
l 744/744 803/803
l 803/803 757/757
l 757/757 804/804
l 804/804 745/745
l 745/745 799/799
l 799/799 755/755
l 755/755 829/829
l 829/829 746/746
l 746/746 780/780
l 780/780 754/754
l 754/754 781/781
l 781/781 834/834
l 834/834 806/806
l 806/806 783/783
l 783/783 794/794
l 794/794 832/832
l 832/832 831/831
l 831/831 778/778
l 778/778 752/752
l 752/752 777/777
l 777/777 742/742
l 742/742 774/774
l 774/774 750/750
l 750/750 773/773
l 773/773 741/741
l 741/741 825/825
l 825/825 775/775
l 775/775 796/796
l 796/796 827/827
l 827/827 798/798
l 798/798 822/822
l 822/822 767/767
l 767/767 821/821
l 821/821 786/786
l 786/786 814/814
l 814/814 788/788
l 788/788 816/816
l 816/816 765/765
l 765/765 817/817
l 817/817 785/785
l 785/785 763/763
l 763/763 810/810
l 810/810 782/782
l 782/782 809/809
l 809/809 762/762
l 762/762 784/784
l 784/784 764/764
l 764/764 815/815
l 815/815 787/787
l 787/787 819/819
l 819/819 761/761
l 761/761 813/813
l 813/813 820/820
l 820/820 823/823
l 823/823 797/797
l 797/797 766/766
l 766/766 818/818
l 818/818 826/826
l 826/826 768/768
l 768/768 759/759
l 759/759 824/824
l 824/824 747/747
l 747/747 772/772
l 772/772 828/828
l 828/828 769/769
l 769/769 748/748
l 748/748 770/770
l 770/770 790/790
l 790/790 771/771
l 771/771 795/795
l 795/795 751/751
l 751/751 776/776
l 776/776 792/792
l 792/792 805/805
l 805/805 749/749
l 749/749 753/753
l 753/753 779/779
l 779/779 740/740
l 740/740 800/800
l 800/800 789/789
l 789/789 756/756
l 756/756 791/791
l 791/791 739/739
l 739/739 801/801
l 801/801 758/758
l 758/758 802/802
l 802/802 812/812
l 812/812 760/760
l 760/760 807/807
l 807/807 738/738
l 738/738 793/793
l 793/793 736/736
l 836/836 910/910
l 910/910 899/899
l 899/899 897/897
l 897/897 868/868
l 868/868 893/893
l 893/893 911/911
l 911/911 866/866
l 866/866 881/881
l 881/881 913/913
l 913/913 861/861
l 861/861 875/875
l 875/875 849/849
l 849/849 846/846
l 846/846 907/907
l 907/907 851/851
l 851/851 842/842
l 842/842 858/858
l 858/858 888/888
l 888/888 867/867
l 867/867 889/889
l 889/889 857/857
l 857/857 854/854
l 854/854 905/905
l 905/905 843/843
l 843/843 852/852
l 852/852 909/909
l 909/909 847/847
l 847/847 850/850
l 850/850 841/841
l 841/841 901/901
l 901/901 891/891
l 891/891 882/882
l 882/882 863/863
l 863/863 894/894
l 894/894 869/869
l 869/869 870/870
l 870/870 884/884
l 884/884 878/878
l 878/878 912/912
l 912/912 900/900
l 900/900 886/886
l 886/886 859/859
l 859/859 877/877
l 877/877 848/848
l 848/848 871/871
l 871/871 916/916
l 916/916 895/895
l 895/895 864/864
l 864/864 883/883
l 883/883 890/890
l 890/890 862/862
l 862/862 876/876
l 876/876 872/872
l 872/872 914/914
l 914/914 908/908
l 908/908 853/853
l 853/853 844/844
l 844/844 903/903
l 903/903 855/855
l 855/855 845/845
l 845/845 902/902
l 902/902 856/856
l 856/856 904/904
l 904/904 879/879
l 879/879 887/887
l 887/887 915/915
l 915/915 906/906
l 906/906 873/873
l 873/873 885/885
l 885/885 874/874
l 874/874 860/860
l 860/860 892/892
l 892/892 880/880
l 880/880 865/865
l 865/865 838/838
l 838/838 896/896
l 896/896 839/839
l 839/839 898/898
l 898/898 840/840
l 840/840 837/837
l 917/917 986/986
l 986/986 965/965
l 965/965 954/954
l 954/954 964/964
l 964/964 981/981
l 981/981 979/979
l 979/979 967/967
l 967/967 989/989
l 989/989 944/944
l 944/944 956/956
l 956/956 942/942
l 942/942 976/976
l 976/976 948/948
l 948/948 924/924
l 924/924 973/973
l 973/973 932/932
l 932/932 970/970
l 970/970 926/926
l 926/926 933/933
l 933/933 959/959
l 959/959 972/972
l 972/972 922/922
l 922/922 929/929
l 929/929 977/977
l 977/977 927/927
l 927/927 940/940
l 940/940 928/928
l 928/928 943/943
l 943/943 980/980
l 980/980 985/985
l 985/985 968/968
l 968/968 951/951
l 951/951 919/919
l 919/919 952/952
l 952/952 983/983
l 983/983 966/966
l 966/966 920/920
l 920/920 950/950
l 950/950 991/991
l 991/991 963/963
l 963/963 978/978
l 978/978 987/987
l 987/987 969/969
l 969/969 984/984
l 984/984 962/962
l 962/962 955/955
l 955/955 941/941
l 941/941 937/937
l 937/937 957/957
l 957/957 946/946
l 946/946 923/923
l 923/923 975/975
l 975/975 931/931
l 931/931 925/925
l 925/925 971/971
l 971/971 930/930
l 930/930 974/974
l 974/974 947/947
l 947/947 958/958
l 958/958 990/990
l 990/990 939/939
l 939/939 982/982
l 982/982 988/988
l 988/988 921/921
l 921/921 960/960
l 960/960 949/949
l 949/949 935/935
l 935/935 961/961
l 961/961 936/936
l 936/936 938/938
l 938/938 953/953
l 953/953 945/945
l 945/945 934/934
l 934/934 992/992
l 992/992 993/993
l 993/993 918/918
