v 31.623984241360461 27.941072715233595 33.659157116626609
v 9.3320263145800233 27.08828891981338 29.078267481203895
v 51.932521960036851 28.503322267826938 31.172410949481403
v 60.026291402487232 28.557098573516367 25.717135804732635
v 69.922451841619178 29.749429526247205 5.2168314541153293
v 13.093080006576216 27.327194452764925 29.798445389027592
v 56.340557169761851 28.550487401218909 28.863521793659196
v 63.087790615860321 28.581926443755879 22.081823183746771
v 42.029027421913739 28.28149012142152 33.64755440317002
v 36.837533662465887 28.118035156047249 33.942270276286862
v 17.236438521628042 27.512827001321881 30.747160098954861
v 26.554137606609455 27.787364513202011 32.876361786207042
v 68.816218342050433 29.269714212143963 9.5724672988104658
v 65.54668741010083 28.684477988000204 18.103938536272057
v 21.735250666848316 27.650533098484054 31.83975595287011
v 70.904647800000021 30.298090000000002 0.85942000000000018
v 47.009895296301522 28.408762384722948 32.692848802933156
v 67.422761057685221 28.908536720236402 13.896709432593026
v 5.9555688973817826 26.807764378252017 28.525935264942142
v 2.8909470683542935 26.506011560621779 28.089049145001958
v 2.0816681711721889e-17 26.189419183651403 27.728408666883738
v 47.351968759069877 111.5998702275281 17.261857034754318
v 57.985615005891447 112.13125374017324 8.6918971057149967
v 38.365488998212157 111.80915910056302 18.893584212926946
v 60.526846915353381 112.42898935344174 4.8695739162796761
v 33.662198584884997 112.18779524808772 18.355157886731284
v 42.941763534925599 111.63086822139289 18.556012426187369
v 22.036864900167231 113.85269338073022 9.9961118714599753
v 19.564546785011547 114.50978838649695 5.5596144114075434
v 17.488800000000001 115.22110750000003 0.86252240000000002
v 62.744148300000013 112.74221799999999 0.85745750000000009
v 25.24769579351215 113.24450340788371 13.802377985736648
v 29.198474963639939 112.67999400259369 16.647149639408173
v 51.403150886706307 111.68977410308359 15.078261199424354
v 54.955442647065695 111.87365826039056 12.150391939260594
v 14.197957611035415 -85.282887467700135 24.26533096274796
v 64.557664836449376 -85.556683418665244 8.4973351928312599
v 10.25434091839746 -85.050180049742636 23.85462400409348
v 48.6876520325537 -86.567215206958636 22.782105472269066
v 56.445700395680674 -86.507584494605197 18.603265754917786
v 28.225101337732802 -85.97881559841943 25.514873036931576
v 59.671064404615379 -86.312438274012948 15.609562724210274
v 44.438157565856287 -86.483024392602672 24.022938539388495
v 23.193156403335337 -85.768673556024055 25.225361071908935
v 33.525813238556992 -86.178690636356777 25.519052709488605
v 52.744237613835928 -86.578950095829072 21.017063348354466
v 66.395124055883826 -85.043936811241764 4.6971094258938395
v 38.980803599043647 -86.351481197735694 25.060517093168226
v 18.506596124768912 -85.533507029128259 24.76469841210114
v 68.013237000000004 -84.4853363 0.8454602
v 62.346045955597091 -85.987373202278789 12.172364593697312
v 6.6293045210996633 -84.847420354767692 23.611853779955506
v 3.2490908569745454 -84.662404109662873 23.494278871475665
v -2.8449465006019646e-16 -84.5308830834731 23.52035447974373
v 10.985623801258015 -42.936398390827996 -8.7512278803830981
v 8.3714251534810877 -46.206671634573937 -6.5675424038299957
v 12.085836672467959 -39.175964796179159 -11.068205329493082
v 10.116202553366625 -31.875280198330593 -15.191903511823748
v 4.6362450217880724 -48.715836176725247 -4.6768782987761082
v 7.5253808542616145 -28.891901371882462 -16.733312691060455
v 11.686990619155804 -35.379753485846017 -13.261687339333752
v 0 -49.903679390178127 -3.336730757918267
v -1.1102230246251565e-16 -25.458413525674146 -17.705759035479161
v 4.0222204087539275 -26.711955835841536 -17.613230029505551
v 21.701164889687437 -125.60686614436131 8.4275675200550211
v 24.815794722810899 -124.91223470970395 11.581402098090297
v 28.521935177356717 -124.33146668587653 14.033158821806165
v 32.720029675562529 -123.86026833336848 15.656821323204881
v 19.094847855084485 -126.43400824623228 4.8301060693570861
v 60.344275156431721 -121.56996510439784 4.7819504093814817
v 16.908328999999998 -127.33107760000003 0.94496240000000009
v 62.997100800000005 -121.1504745 0.89206359999999996
v 41.988690553781552 -123.11268169152871 16.181548756983169
v 53.93549802500992 -122.30009739844824 11.412142558307245
v 57.365504121033887 -121.96316493306639 8.3724518469714155
v 46.096965539255521 -122.84557099811559 15.335753744630781
v 37.267210150647628 -123.46655563342193 16.383474978488376
v 50.124855717825326 -122.58514499055431 13.743940708925845
v 46.22614035449989 33.239732897550049 32.651055466144541
v 49.429060796659002 -30.797731845785279 32.378146825256209
v 38.392308408113145 95.35425925701999 22.909522226707558
v 48.3384379631228 13.690929054978181 33.589237776357137
v 43.292490376286977 -101.1640992784114 21.034462867963718
v 49.516231702504612 -26.118999741641709 32.707840819809874
v 45.297326510428036 -75.919628637902989 26.36578830791391
v 42.473532250967267 -111.79296612660455 18.742735475717687
v 47.64456471166428 23.5530705177177 33.00796279685153
v 38.379356175460643 132.84491199922064 14.476348195113934
v 38.365488998212157 111.80915910056302 18.893584212926946
v 48.471570537827233 8.651548284578702 33.730046188531659
v 46.315146832423324 -65.249601966182524 28.330061698693576
v 44.845485082607809 -81.189005031431137 25.18417998703007
v 47.9920968353699 -49.725299067470075 30.566416811741398
v 44.438157565856287 -86.483024392602672 24.022938539388495
v 38.315262090836114 106.00071571515956 20.191393596710633
v 38.460897448863676 121.87571889790142 16.622944884378292
v 38.422458101383327 116.69407885121099 17.782715242065805
v 46.880514170891509 -59.939227235480161 29.16040805963128
v 48.554445150946151 3.5583481879333805 33.720100375482673
v 45.224793206564456 38.074789685086081 32.462194520998722
v 48.081925737629959 18.656171682528885 33.320255891073359
v 39.928397656670043 66.771093194425276 29.376075457311572
v 48.815903918837684 -6.6290686761309647 33.297155630330394
v 48.85178458069727 -40.114333353395978 31.477467571111774
v 38.450560096530396 127.28293922119667 15.494807220277568
v 39.579276431732815 71.40049059166526 28.506121997166144
v 43.716812199268531 -96.120829909632619 22.110303394808987
v 44.090881555644536 -91.236288762294691 23.093915222429981
v 49.054994995180003 -11.645307580900958 33.271202359618911
v 49.253155811218498 -16.562498732853445 33.038000634513175
v 44.12235595361328 42.93302950766909 32.254551163606749
v 49.195968878835956 -35.44978289166184 31.959707396980246
v 41.984112726406849 -133.17348029363342 13.963258991965697
v 41.988690553781552 -123.11268169152871 16.181548756983169
v 42.32427220000001 -148.53698729999999 10.659750900000001
v 42.851491827165859 -106.37664212406519 19.858482628636636
v 42.17689943303823 -117.36840317393165 17.509501165104282
v 37.8633728 149.72724909999999 11.188532800000001
v 41.095654336931261 57.41606920658726 30.913256020074442
v 41.968193109319898 52.634098164351968 31.489837298917017
v 39.292278752762243 76.033657379692457 27.510296952660639
v 40.423535475082218 62.128681041366924 30.224623576455411
v 48.46352685094736 -44.860585487158353 31.080146418115525
v 45.772366629546198 -70.591009588167594 27.3679005744157
v 47.009895296301522 28.408762384722948 32.692848802933156
v 38.791705447031688 85.499687845538745 25.412357643718508
v 49.443246900191589 -21.381396672838534 32.892986749818434
v 38.06006585414022 144.05499801004521 12.099830140171095
v 38.249663615225927 138.42047744615382 13.203210794609159
v 39.028163514242799 80.718189425490266 26.452694265108697
v 47.42966621445099 -54.737639835578392 29.84899120176058
v 43.004559682580023 47.796867566500708 31.942503093863401
v 38.559331786129462 90.330675696938627 24.091110348377981
v 38.309628419115469 100.55041004173674 21.58333953277694
v 48.634176196168248 -1.5465908880024144 33.456412752988911
v 42.166374245607379 -143.39440376922266 11.61945781765063
v 42.066415589651847 -138.28664172536367 12.801159478078588
v 41.941161383321401 -128.08547041709002 15.063365344783865
v 42.180664100000001 149.04859920000001 10.897035600000001
v 21.720106099999999 145.2441254 4.9680467000000004
v 4.5056462000000002 -61.223102599999997 -34.5279083
v 23.3465843 -149.2368774 6.7084850999999999
v 24.6266365 148.23504639999999 7.2237514999999997
v 67.894615200000004 67.986648599999995 0.84808879999999998
v 55.957950599999997 141.1407318 4.5440253999999998
v 55.887649500000002 -143.43763730000001 4.7316646999999996
v 53.307594299999998 144.20091249999999 6.3983468999999999
v 18.6220341 -139.39801030000001 1.7969750000000007
v 31.387271900000009 -149.88139340000001 10.717181200000001
v 0.14200976249999955 -61.360815437114496 -32.737260008657742
v 66.441726700000004 81.992446900000004 0.84333009999999997
v 69.224861099999998 53.412132300000003 0.85291680000000003
v 66.971481299999994 77.081535300000013 0.84501870000000001
v 20.918125199999999 -147.32432560000001 4.4721580000000003
v 72.058219900000012 -30.995004700000006 0.86174120000000021
v 1.5578344000000004 85.686195775004364 1.453593813960772
v 68.351303099999996 63.197273299999999 0.84969249999999996
v 26.8818512 -150 9.0391110999999995
v 46.241085099999999 147.96653749999999 9.8639344999999992
v 61.846057899999998 119.28914640000002 0.94507859999999999
v 63.593410500000012 106.11778260000001 0.83930790000000033
v 64.406761200000005 99.537239100000008 0.83796230000000027
v 59.588886300000006 131.71446230000001 1.8651981000000006
v 69.651657099999994 48.171455399999999 0.85456630000000033
v 63.909633600000006 -115.16407780000002 0.84226389999999995
v 65.6162949 -103.15464780000001 0.83695200000000025
v 69.384582499999993 -71.908470199999996 0.85062800000000005
v 71.247413600000002 24.244674700000001 0.86068279999999997
v 10.9691372 92.428146400000003 0.83415030000000001
v 28.61433980000001 149.6566315 9.2582702999999995
v 47.702674900000012 -147.6612854 9.0858468999999999
v 7.3596434999999998 88.395912199999998 0.83233860000000004
v 10.4813128 -110.6964188 0.78959539999999995
v -2.2204460492503131e-16 1.2283890717325416 9.8932265212741548
v 69.980560299999993 -65.601989700000004 0.85299159999999996
v 71.899009699999993 -35.685539200000001 0.8610070000000003
v 65.161659200000003 93.234039300000006 0.83954700000000004
v 0 29.376947399999999 29.204736700000002
v 72.011413599999997 5.0361323000000002 0.86307900000000004
v 70.970428499999997 -53.023342100000015 0.8570719
v 72.234321600000001 -21.332372700000001 0.86275710000000005
v 16.908328999999998 -127.33107760000003 0.94496240000000009
v 17.871290200000001 -133.6221161 1.2180616
v 15.5259666 103.06636050000002 0.83948220000000018
v 64.771202099999996 -109.2054749 0.83530910000000003
v 52.279205300000001 -146.19581600000001 6.9478711999999998
v 58.599170700000016 -139.04454039999999 2.8860257000000007
v 71.667549100000002 -40.996482800000003 0.86000450000000006
v 50.020271299999997 146.3972626 8.2740650000000002
v 68.798278800000006 58.3183212 0.85131409999999996
v 70.089607200000017 42.412662500000017 0.85627730000000013
v 62.997100800000005 -121.1504745 0.89206359999999996
v 67.249977099999995 -90.752914399999995 0.84266630000000009
v 18.414211300000002 128.21427919999999 1.1513997
v 33.237995099999999 150 10.641358400000003
v -1.3183898417423739e-16 4.2779519580082352 12.358438354384393
v 67.443054200000006 72.534713699999998 0.84655990000000014
v 70.516136200000005 36.3628578 0.85793699999999995
v 13.683388700000005 97.459335300000021 0.83637980000000001
v -5.5511151231257938e-17 18.541083303122306 23.680287024180675
v 5.5511151231257827e-17 12.067267635993831 19.201867728291202
v 4.4408920985006262e-16 -53.100362422022442 31.005721760820286
v 72.164237999999997 -26.457571000000009 0.86229109999999998
v 70.510467500000004 -59.295581800000008 0.85515750000000001
v 17.488800000000001 115.22110750000003 0.86252240000000002
v 13.334887500000001 -115.37586210000001 0.80488620000000011
v 42.32427220000001 -148.53698729999999 10.659750900000001
v 15.459045400000004 -121.0842056 0.84175650000000002
v 36.669971500000003 -149.2794189 11.274826000000003
v 68.013237000000004 -84.4853363 0.8454602
v 72.266845700000005 -15.2969913 0.86313930000000005
v 16.718214 109.0140457 0.8455184
v 61.939331099999997 -127.27188870000001 1.0962601999999999
v 66.446701000000004 -96.989372299999999 0.83977279999999999
v 18.939918500000001 134.68457029999999 1.7706223000000001
v 71.357261699999995 -46.864013700000001 0.85869799999999996
v 7.9261961000000003 -53.3391266 -34.522480000000002
v 19.486865999999999 -144.0671844 2.8271533999999998
v 60.829822500000006 125.68601990000005 1.2252331000000001
v 68.727058400000004 -78.203132600000004 0.84811340000000013
v 18.003950100000001 121.6500092 0.92603930000000001
v 65.839752200000007 87.378074600000005 0.84147720000000037
v 60.551933300000016 -133.40773010000001 1.6819249000000003
v 62.744148300000013 112.74221799999999 0.85745750000000009
v 7.6108794 -48.473171200000003 -34.519699099999997
v 6.903594 -107.3841248 0.78300829999999999
v 70.904647800000021 30.298090000000002 0.85942000000000018
v 6.8429222000000003 -57.879818 -34.525390600000001
v 72.2463379 -8.6318350000000006 0.8633651
v 71.803733800000003 11.6710539 0.86253140000000006
v 71.547088599999995 18.071081199999998 0.86172220000000022
v 58.008098599999997 136.97616579999999 2.9784758
v 5.7731795000000004 -44.111267099999999 -34.517124199999998
v 37.8633728 149.72724909999999 11.188532800000001
v 19.915292699999998 140.58024599999999 3.0347240000000002
v 72.161285399999997 -1.7698066000000001 0.86335500000000009
v 2.4980018054066032e-16 81.992112888026284 20.706169775273665
v -1.3877787807814469e-16 -44.001035986836243 20.615067682861881
v 2.7755575615628741e-17 -19.521369182631567 -11.662441887595641
v -1.1102230246251541e-16 57.114734560453556 32.454573857373092
v -4.9303806576313238e-32 -62.918788287466889 31.56614566232718
v 1.1102230246251565e-16 -56.933201616635571 31.60816256120907
v 2.7755575615628914e-17 34.867533444164657 31.024690152200343
v 1.6653345369377353e-16 -6.3296271217912059 2.2625490581271004
v -5.5511151231257827e-17 -94.886148210901013 15.005346686723712
v 3.4694469519536216e-17 -45.943244037203385 25.953026313677263
v 1.1102230246251565e-16 -98.910126715703569 10.517129915858753
v 8.3266726846886901e-17 -102.08674437701151 5.7621610978337516
v -4.4408920985006262e-16 62.41405039863043 31.648010981337862
v 1.3877787807816034e-17 -89.936597982930437 19.573919589845207
v -3.3306690738754696e-16 50.539932036710582 32.922437554200116
v -5.5511151231257827e-17 -55.217142607031199 -17.531066968047735
v 1.6653345369377363e-16 -73.607998655702019 28.852992226461218
v -2.2204460492503131e-16 85.927913890549505 5.5833361485402584
v -5.5511151231257451e-17 -52.284731986312387 -9.6645879824082481
v 0 -49.903679390178127 -3.336730757918267
v 1.1102230246251532e-16 77.091223874534137 25.711675828765443
v 5.5511151231258074e-17 45.270168129722848 32.798448873385283
v 2.7755575615628864e-17 -12.944332141531346 -4.4902928851779542
v -2.2204460492503131e-16 -53.862160893271252 -13.985390507816575
v 1.1102230246251501e-16 -79.090413236995602 26.524220180224049
v -6.6613381477509402e-16 -82.872013154492862 24.594354908051628
v -5.5511151231257827e-17 72.617458826866795 28.380929474496632
v -5.5511151231257876e-17 7.7399307997730293 15.559306931492623
v 0 84.825689747708267 15.923146453206671
v 9.7144514654701037e-17 -86.189753012453338 22.446354051435833
v -2.2204460492503131e-16 -16.328233023640713 -8.0701938304323093
v 1.3877787807814521e-16 -29.681151698835556 -22.273334779734629
v 2.7755575615629542e-17 -57.165649870472947 -22.900092198462779
v -4.163336342344276e-17 -68.268964424656218 30.538930874067539
v 0 15.2831276862347 21.597317078581316
v 1.3767519999999998 -105.387193167806 0.78004134022149374
v -7.6327832942980165e-17 -58.879467286867389 -27.159427243407087
v -1.6653345369377351e-16 -48.003502347426029 1.1980622891381723
v 1.3305396999999981 -40.448065861661931 -34.08860111243969
v -2.2204460492503131e-16 -37.167831852499944 -29.772243357507584
v -1.3877787807814278e-17 85.708249018443084 10.184344263652122
v -1.1102230246251565e-16 -25.458413525674146 -17.705759035479161
v 4.1633363423443777e-17 23.001890967302817 26.25208063376747
v -2.2204460492503131e-16 40.158899123439966 32.189229643673983
v -5.551115123125493e-17 -48.717271029810298 28.866644175023861
v -2.7755575615629006e-17 67.879717684102189 30.199053008011298
v -5.5511151231257852e-17 -2.3323363907656489 6.1001892460745744
v 1.1102230246251565e-16 -45.767878323531093 7.0393585257908873
v -3.3306690738754701e-16 -44.161853549805599 13.269480326236334
v -5.5511151231258e-17 -34.206393191746407 -26.6732281009633
v -4.1633363423443469e-17 -22.489891354152856 -14.684100461537401
v 9.7144514654701197e-17 -9.6369796316612764 -1.1138719135254271
v 2.32382798125 -61.29195901855725 -33.632584154328867
v 64.340417849999994 -112.18477634999999 0.83878649999999999
v 26.620488150000003 148.94583895 8.2410108999999991
v 4.4587389499999999 87.041053987502181 1.1429662069803861
v 54.083427400000019 -144.81672665000002 5.8397679499999997
v 51.663932799999998 145.29908755 7.3362059500000001
v 48.130678200000006 147.18190005 9.0689997499999997
v 69.011569949999995 55.865226750000005 0.85211545
v 68.574790949999993 60.757797250000003 0.85050330000000007
v 63.453367200000002 -118.15727615 0.86716375000000012
v -1.3877787807814457e-16 -54.539651750151222 -15.758228737932155
v 2.7755575615628914e-17 13.675197661114264 20.399592403436259
v 5.5511151231257802e-17 -59.925994952051227 31.587154111768125
v -9.3675067702747632e-17 6.0089413788906327 13.958872642938509
v 22.132354749999998 -148.28060149999999 5.5903215500000005
v 19.05445005 -141.73259734999999 2.3120642
v 20.202495599999999 -145.69575500000002 3.6496557000000003
v 23.173371299999999 146.73958590000001 6.0958991000000005
v 56.983024599999993 139.05844880000001 3.7612505999999999
v 54.632772449999997 142.67082214999999 5.4711861499999994
v 57.243410100000006 -141.24108884999998 3.8088451999999995
v 5.6742842000000007 -59.551460300000002 -34.526649450000001
v 34.028621700000002 -149.58040614999999 10.9960036
v 29.134561550000001 -149.94069669999999 9.8781461499999992
v -1.3877787807814467e-16 -35.687112522123172 -28.222735729235442
v 2.7755575615628914e-16 -55.016782019329007 31.306942161014675
v 9.7144514654701271e-17 -100.49843554635754 8.1396455068462519
v 0.77891720000000009 85.807054832776942 3.5184649812505153
v -1.3877787807814437e-16 -53.073446439791816 -11.824989245112414
v 1.9428902930940392e-16 -50.90881672591636 29.936182967922065
v -2.7755575615628958e-16 -80.981213195744232 25.559287544137845
v -2.4651903288156619e-32 9.9035992178834302 17.380587329891913
v -2.8449465006019646e-16 -84.5308830834731 23.52035447974373
v -2.7755575615628969e-17 16.912105494678503 22.638802051380996
v -6.9388939039070882e-18 20.77148713521256 24.966183828974078
v 0.68837599999999988 -103.73696877240876 3.2711012190276225
v 5.5511151231257852e-17 -4.330981756278427 4.181369152100836
v -2.4286128663675312e-17 -58.022558578670171 -25.029759720934933
v 0.66526984999999894 -38.807948857080937 -31.930422234973637
v 0.071004881249999735 -60.120141361990946 -29.948343626032415
v 2.0816681711721889e-17 26.189419183651403 27.728408666883738
v -1.0408340855859357e-17 -47.330257533506838 27.409835244350553
v 1.3183898417423736e-16 -7.9833033767262407 0.5743385723008364
v -1.1796119636642278e-16 85.818081454496294 7.8838402060961901
v -1.3877787807814457e-16 -0.55197365951655364 7.9967078836743628
v 6.2450045135165031e-17 -11.290655886596312 -2.8020823993516908
v 4.1401729999999999 -106.385658983903 0.78152482011074687
v 2.0816681711721889e-17 26.189419183651403 27.728408666883738
v -31.623984241360461 27.941072715233595 33.659157116626609
v -9.3320263145800233 27.08828891981338 29.078267481203895
v -51.932521960036851 28.503322267826938 31.172410949481403
v -60.026291402487232 28.557098573516367 25.717135804732635
v -69.922451841619178 29.749429526247205 5.2168314541153293
v -13.093080006576216 27.327194452764925 29.798445389027592
v -56.340557169761851 28.550487401218909 28.863521793659196
v -63.087790615860321 28.581926443755879 22.081823183746771
v -42.029027421913739 28.28149012142152 33.64755440317002
v -36.837533662465887 28.118035156047249 33.942270276286862
v -17.236438521628042 27.512827001321881 30.747160098954861
v -26.554137606609455 27.787364513202011 32.876361786207042
v -68.816218342050433 29.269714212143963 9.5724672988104658
v -65.54668741010083 28.684477988000204 18.103938536272057
v -21.735250666848316 27.650533098484054 31.83975595287011
v -70.904647800000021 30.298090000000002 0.85942000000000018
v -47.009895296301522 28.408762384722948 32.692848802933156
v -67.422761057685221 28.908536720236402 13.896709432593026
v -5.9555688973817826 26.807764378252017 28.525935264942142
v -2.8909470683542935 26.506011560621779 28.089049145001958
v -47.351968759069877 111.5998702275281 17.261857034754318
v -57.985615005891447 112.13125374017324 8.6918971057149967
v -38.365488998212157 111.80915910056302 18.893584212926946
v -60.526846915353381 112.42898935344174 4.8695739162796761
v -33.662198584884997 112.18779524808772 18.355157886731284
v -42.941763534925599 111.63086822139289 18.556012426187369
v -22.036864900167231 113.85269338073022 9.9961118714599753
v -19.564546785011547 114.50978838649695 5.5596144114075434
v -17.488800000000001 115.22110750000003 0.86252240000000002
v -62.744148300000013 112.74221799999999 0.85745750000000009
v -25.24769579351215 113.24450340788371 13.802377985736648
v -29.198474963639939 112.67999400259369 16.647149639408173
v -51.403150886706307 111.68977410308359 15.078261199424354
v -54.955442647065695 111.87365826039056 12.150391939260594
v -2.8449465006019646e-16 -84.5308830834731 23.52035447974373
v -14.197957611035415 -85.282887467700135 24.26533096274796
v -64.557664836449376 -85.556683418665244 8.4973351928312599
v -10.25434091839746 -85.050180049742636 23.85462400409348
v -48.6876520325537 -86.567215206958636 22.782105472269066
v -56.445700395680674 -86.507584494605197 18.603265754917786
v -28.225101337732802 -85.97881559841943 25.514873036931576
v -59.671064404615379 -86.312438274012948 15.609562724210274
v -44.438157565856287 -86.483024392602672 24.022938539388495
v -23.193156403335337 -85.768673556024055 25.225361071908935
v -33.525813238556992 -86.178690636356777 25.519052709488605
v -52.744237613835928 -86.578950095829072 21.017063348354466
v -66.395124055883826 -85.043936811241764 4.6971094258938395
v -38.980803599043647 -86.351481197735694 25.060517093168226
v -18.506596124768912 -85.533507029128259 24.76469841210114
v -68.013237000000004 -84.4853363 0.8454602
v -62.346045955597091 -85.987373202278789 12.172364593697312
v -6.6293045210996633 -84.847420354767692 23.611853779955506
v -3.2490908569745454 -84.662404109662873 23.494278871475665
v 0 -49.903679390178127 -3.336730757918267
v -1.1102230246251565e-16 -25.458413525674146 -17.705759035479161
v -10.985623801258015 -42.936398390827996 -8.7512278803830981
v -8.3714251534810877 -46.206671634573937 -6.5675424038299957
v -12.085836672467959 -39.175964796179159 -11.068205329493082
v -10.116202553366625 -31.875280198330593 -15.191903511823748
v -4.6362450217880724 -48.715836176725247 -4.6768782987761082
v -7.5253808542616145 -28.891901371882462 -16.733312691060455
v -11.686990619155804 -35.379753485846017 -13.261687339333752
v -4.0222204087539275 -26.711955835841536 -17.613230029505551
v -21.701164889687437 -125.60686614436131 8.4275675200550211
v -24.815794722810899 -124.91223470970395 11.581402098090297
v -28.521935177356717 -124.33146668587653 14.033158821806165
v -32.720029675562529 -123.86026833336848 15.656821323204881
v -19.094847855084485 -126.43400824623228 4.8301060693570861
v -60.344275156431721 -121.56996510439784 4.7819504093814817
v -16.908328999999998 -127.33107760000003 0.94496240000000009
v -62.997100800000005 -121.1504745 0.89206359999999996
v -41.988690553781552 -123.11268169152871 16.181548756983169
v -53.93549802500992 -122.30009739844824 11.412142558307245
v -57.365504121033887 -121.96316493306639 8.3724518469714155
v -46.096965539255521 -122.84557099811559 15.335753744630781
v -37.267210150647628 -123.46655563342193 16.383474978488376
v -50.124855717825326 -122.58514499055431 13.743940708925845
v -46.22614035449989 33.239732897550049 32.651055466144541
v -49.429060796659002 -30.797731845785279 32.378146825256209
v -38.392308408113145 95.35425925701999 22.909522226707558
v -48.3384379631228 13.690929054978181 33.589237776357137
v -43.292490376286977 -101.1640992784114 21.034462867963718
v -49.516231702504612 -26.118999741641709 32.707840819809874
v -45.297326510428036 -75.919628637902989 26.36578830791391
v -42.473532250967267 -111.79296612660455 18.742735475717687
v -47.64456471166428 23.5530705177177 33.00796279685153
v -38.379356175460643 132.84491199922064 14.476348195113934
v -38.365488998212157 111.80915910056302 18.893584212926946
v -48.471570537827233 8.651548284578702 33.730046188531659
v -46.315146832423324 -65.249601966182524 28.330061698693576
v -44.845485082607809 -81.189005031431137 25.18417998703007
v -47.9920968353699 -49.725299067470075 30.566416811741398
v -44.438157565856287 -86.483024392602672 24.022938539388495
v -38.315262090836114 106.00071571515956 20.191393596710633
v -38.460897448863676 121.87571889790142 16.622944884378292
v -38.422458101383327 116.69407885121099 17.782715242065805
v -46.880514170891509 -59.939227235480161 29.16040805963128
v -48.554445150946151 3.5583481879333805 33.720100375482673
v -45.224793206564456 38.074789685086081 32.462194520998722
v -48.081925737629959 18.656171682528885 33.320255891073359
v -39.928397656670043 66.771093194425276 29.376075457311572
v -48.815903918837684 -6.6290686761309647 33.297155630330394
v -48.85178458069727 -40.114333353395978 31.477467571111774
v -38.450560096530396 127.28293922119667 15.494807220277568
v -39.579276431732815 71.40049059166526 28.506121997166144
v -43.716812199268531 -96.120829909632619 22.110303394808987
v -44.090881555644536 -91.236288762294691 23.093915222429981
v -49.054994995180003 -11.645307580900958 33.271202359618911
v -49.253155811218498 -16.562498732853445 33.038000634513175
v -44.12235595361328 42.93302950766909 32.254551163606749
v -49.195968878835956 -35.44978289166184 31.959707396980246
v -41.984112726406849 -133.17348029363342 13.963258991965697
v -41.988690553781552 -123.11268169152871 16.181548756983169
v -42.32427220000001 -148.53698729999999 10.659750900000001
v -42.851491827165859 -106.37664212406519 19.858482628636636
v -42.17689943303823 -117.36840317393165 17.509501165104282
v -37.8633728 149.72724909999999 11.188532800000001
v -41.095654336931261 57.41606920658726 30.913256020074442
v -41.968193109319898 52.634098164351968 31.489837298917017
v -39.292278752762243 76.033657379692457 27.510296952660639
v -40.423535475082218 62.128681041366924 30.224623576455411
v -48.46352685094736 -44.860585487158353 31.080146418115525
v -45.772366629546198 -70.591009588167594 27.3679005744157
v -47.009895296301522 28.408762384722948 32.692848802933156
v -38.791705447031688 85.499687845538745 25.412357643718508
v -49.443246900191589 -21.381396672838534 32.892986749818434
v -38.06006585414022 144.05499801004521 12.099830140171095
v -38.249663615225927 138.42047744615382 13.203210794609159
v -39.028163514242799 80.718189425490266 26.452694265108697
v -47.42966621445099 -54.737639835578392 29.84899120176058
v -43.004559682580023 47.796867566500708 31.942503093863401
v -38.559331786129462 90.330675696938627 24.091110348377981
v -38.309628419115469 100.55041004173674 21.58333953277694
v -48.634176196168248 -1.5465908880024144 33.456412752988911
v -42.166374245607379 -143.39440376922266 11.61945781765063
v -42.066415589651847 -138.28664172536367 12.801159478078588
v -41.941161383321401 -128.08547041709002 15.063365344783865
v 8.3266726846886901e-17 -102.08674437701151 5.7621610978337516
v -2.2204460492503131e-16 85.927913890549505 5.5833361485402584
v -7.6327832942980165e-17 -58.879467286867389 -27.159427243407087
v -2.2204460492503131e-16 -37.167831852499944 -29.772243357507584
v -42.180664100000001 149.04859920000001 10.897035600000001
v -21.720106099999999 145.2441254 4.9680467000000004
v -4.5056462000000002 -61.223102599999997 -34.5279083
v -23.3465843 -149.2368774 6.7084850999999999
v -24.6266365 148.23504639999999 7.2237514999999997
v -67.894615200000004 67.986648599999995 0.84808879999999998
v -55.957950599999997 141.1407318 4.5440253999999998
v -55.887649500000002 -143.43763730000001 4.7316646999999996
v -53.307594299999998 144.20091249999999 6.3983468999999999
v -18.6220341 -139.39801030000001 1.7969750000000007
v -31.387271900000009 -149.88139340000001 10.717181200000001
v -0.14200976249999955 -61.360815437114496 -32.737260008657742
v -66.441726700000004 81.992446900000004 0.84333009999999997
v -69.224861099999998 53.412132300000003 0.85291680000000003
v -66.971481299999994 77.081535300000013 0.84501870000000001
v -20.918125199999999 -147.32432560000001 4.4721580000000003
v -72.058219900000012 -30.995004700000006 0.86174120000000021
v -1.5578344000000004 85.686195775004364 1.453593813960772
v -68.351303099999996 63.197273299999999 0.84969249999999996
v -26.8818512 -150 9.0391110999999995
v -46.241085099999999 147.96653749999999 9.8639344999999992
v -61.846057899999998 119.28914640000002 0.94507859999999999
v -63.593410500000012 106.11778260000001 0.83930790000000033
v -64.406761200000005 99.537239100000008 0.83796230000000027
v -59.588886300000006 131.71446230000001 1.8651981000000006
v -69.651657099999994 48.171455399999999 0.85456630000000033
v -63.909633600000006 -115.16407780000002 0.84226389999999995
v -65.6162949 -103.15464780000001 0.83695200000000025
v -69.384582499999993 -71.908470199999996 0.85062800000000005
v -71.247413600000002 24.244674700000001 0.86068279999999997
v -10.9691372 92.428146400000003 0.83415030000000001
v -28.61433980000001 149.6566315 9.2582702999999995
v -47.702674900000012 -147.6612854 9.0858468999999999
v -7.3596434999999998 88.395912199999998 0.83233860000000004
v -10.4813128 -110.6964188 0.78959539999999995
v -69.980560299999993 -65.601989700000004 0.85299159999999996
v -71.899009699999993 -35.685539200000001 0.8610070000000003
v -65.161659200000003 93.234039300000006 0.83954700000000004
v -72.011413599999997 5.0361323000000002 0.86307900000000004
v -70.970428499999997 -53.023342100000015 0.8570719
v -72.234321600000001 -21.332372700000001 0.86275710000000005
v -16.908328999999998 -127.33107760000003 0.94496240000000009
v -17.871290200000001 -133.6221161 1.2180616
v -15.5259666 103.06636050000002 0.83948220000000018
v -64.771202099999996 -109.2054749 0.83530910000000003
v -52.279205300000001 -146.19581600000001 6.9478711999999998
v -58.599170700000016 -139.04454039999999 2.8860257000000007
v -71.667549100000002 -40.996482800000003 0.86000450000000006
v -50.020271299999997 146.3972626 8.2740650000000002
v -68.798278800000006 58.3183212 0.85131409999999996
v -70.089607200000017 42.412662500000017 0.85627730000000013
v -62.997100800000005 -121.1504745 0.89206359999999996
v -67.249977099999995 -90.752914399999995 0.84266630000000009
v -18.414211300000002 128.21427919999999 1.1513997
v -33.237995099999999 150 10.641358400000003
v -67.443054200000006 72.534713699999998 0.84655990000000014
v -70.516136200000005 36.3628578 0.85793699999999995
v -13.683388700000005 97.459335300000021 0.83637980000000001
v -72.164237999999997 -26.457571000000009 0.86229109999999998
v -70.510467500000004 -59.295581800000008 0.85515750000000001
v -17.488800000000001 115.22110750000003 0.86252240000000002
v -13.334887500000001 -115.37586210000001 0.80488620000000011
v -42.32427220000001 -148.53698729999999 10.659750900000001
v -15.459045400000004 -121.0842056 0.84175650000000002
v -36.669971500000003 -149.2794189 11.274826000000003
v -68.013237000000004 -84.4853363 0.8454602
v -72.266845700000005 -15.2969913 0.86313930000000005
v -16.718214 109.0140457 0.8455184
v -61.939331099999997 -127.27188870000001 1.0962601999999999
v -66.446701000000004 -96.989372299999999 0.83977279999999999
v -18.939918500000001 134.68457029999999 1.7706223000000001
v -71.357261699999995 -46.864013700000001 0.85869799999999996
v -7.9261961000000003 -53.3391266 -34.522480000000002
v -19.486865999999999 -144.0671844 2.8271533999999998
v -60.829822500000006 125.68601990000005 1.2252331000000001
v -68.727058400000004 -78.203132600000004 0.84811340000000013
v -18.003950100000001 121.6500092 0.92603930000000001
v -65.839752200000007 87.378074600000005 0.84147720000000037
v -60.551933300000016 -133.40773010000001 1.6819249000000003
v -62.744148300000013 112.74221799999999 0.85745750000000009
v -7.6108794 -48.473171200000003 -34.519699099999997
v -6.903594 -107.3841248 0.78300829999999999
v -70.904647800000021 30.298090000000002 0.85942000000000018
v -6.8429222000000003 -57.879818 -34.525390600000001
v -72.2463379 -8.6318350000000006 0.8633651
v -71.803733800000003 11.6710539 0.86253140000000006
v -71.547088599999995 18.071081199999998 0.86172220000000022
v -58.008098599999997 136.97616579999999 2.9784758
v -5.7731795000000004 -44.111267099999999 -34.517124199999998
v -37.8633728 149.72724909999999 11.188532800000001
v -19.915292699999998 140.58024599999999 3.0347240000000002
v -72.161285399999997 -1.7698066000000001 0.86335500000000009
v -1.3767519999999998 -105.387193167806 0.78004134022149374
v -1.3305396999999981 -40.448065861661931 -34.08860111243969
v -2.32382798125 -61.29195901855725 -33.632584154328867
v -64.340417849999994 -112.18477634999999 0.83878649999999999
v -26.620488150000003 148.94583895 8.2410108999999991
v -4.4587389499999999 87.041053987502181 1.1429662069803861
v -54.083427400000019 -144.81672665000002 5.8397679499999997
v -51.663932799999998 145.29908755 7.3362059500000001
v -48.130678200000006 147.18190005 9.0689997499999997
v -69.011569949999995 55.865226750000005 0.85211545
v -68.574790949999993 60.757797250000003 0.85050330000000007
v -63.453367200000002 -118.15727615 0.86716375000000012
v -22.132354749999998 -148.28060149999999 5.5903215500000005
v -19.05445005 -141.73259734999999 2.3120642
v -20.202495599999999 -145.69575500000002 3.6496557000000003
v -23.173371299999999 146.73958590000001 6.0958991000000005
v -56.983024599999993 139.05844880000001 3.7612505999999999
v -54.632772449999997 142.67082214999999 5.4711861499999994
v -57.243410100000006 -141.24108884999998 3.8088451999999995
v -5.6742842000000007 -59.551460300000002 -34.526649450000001
v -34.028621700000002 -149.58040614999999 10.9960036
v -29.134561550000001 -149.94069669999999 9.8781461499999992
v -0.77891720000000009 85.807054832776942 3.5184649812505153
v -0.68837599999999988 -103.73696877240876 3.2711012190276225
v -0.66526984999999894 -38.807948857080937 -31.930422234973637
v -0.071004881249999735 -60.120141361990946 -29.948343626032415
v -4.1401729999999999 -106.385658983903 0.78152482011074687
l 21/21 20/20
l 20/20 19/19
l 19/19 2/2
l 2/2 6/6
l 6/6 11/11
l 11/11 15/15
l 15/15 12/12
l 12/12 1/1
l 1/1 10/10
l 10/10 9/9
l 9/9 17/17
l 17/17 3/3
l 3/3 7/7
l 7/7 4/4
l 4/4 8/8
l 8/8 14/14
l 14/14 18/18
l 18/18 13/13
l 13/13 5/5
l 5/5 16/16
l 31/31 25/25
l 25/25 23/23
l 23/23 35/35
l 35/35 34/34
l 34/34 22/22
l 22/22 27/27
l 27/27 24/24
l 24/24 26/26
l 26/26 33/33
l 33/33 32/32
l 32/32 28/28
l 28/28 29/29
l 29/29 30/30
l 54/54 53/53
l 53/53 52/52
l 52/52 38/38
l 38/38 36/36
l 36/36 49/49
l 49/49 44/44
l 44/44 41/41
l 41/41 45/45
l 45/45 48/48
l 48/48 43/43
l 43/43 39/39
l 39/39 46/46
l 46/46 40/40
l 40/40 42/42
l 42/42 51/51
l 51/51 37/37
l 37/37 47/47
l 47/47 50/50
l 63/63 64/64
l 64/64 60/60
l 60/60 58/58
l 58/58 61/61
l 61/61 57/57
l 57/57 55/55
l 55/55 56/56
l 56/56 59/59
l 59/59 62/62
l 72/72 70/70
l 70/70 75/75
l 75/75 74/74
l 74/74 78/78
l 78/78 76/76
l 76/76 73/73
l 73/73 77/77
l 77/77 68/68
l 68/68 67/67
l 67/67 66/66
l 66/66 65/65
l 65/65 69/69
l 69/69 71/71
l 115/115 136/136
l 136/136 137/137
l 137/137 113/113
l 113/113 138/138
l 138/138 114/114
l 114/114 117/117
l 117/117 86/86
l 86/86 116/116
l 116/116 83/83
l 83/83 107/107
l 107/107 108/108
l 108/108 94/94
l 94/94 92/92
l 92/92 85/85
l 85/85 124/124
l 124/124 91/91
l 91/91 98/98
l 98/98 131/131
l 131/131 93/93
l 93/93 123/123
l 123/123 104/104
l 104/104 112/112
l 112/112 80/80
l 80/80 84/84
l 84/84 127/127
l 127/127 110/110
l 110/110 109/109
l 109/109 103/103
l 103/103 135/135
l 135/135 99/99
l 99/99 90/90
l 90/90 82/82
l 82/82 101/101
l 101/101 87/87
l 87/87 125/125
l 125/125 79/79
l 79/79 100/100
l 100/100 111/111
l 111/111 132/132
l 132/132 120/120
l 120/120 119/119
l 119/119 122/122
l 122/122 102/102
l 102/102 106/106
l 106/106 121/121
l 121/121 130/130
l 130/130 126/126
l 126/126 133/133
l 133/133 81/81
l 81/81 134/134
l 134/134 95/95
l 95/95 89/89
l 89/89 97/97
l 97/97 96/96
l 96/96 105/105
l 105/105 88/88
l 88/88 129/129
l 129/129 128/128
l 128/128 118/118
l 139/139 159/159
l 139/139 234/234
l 140/140 235/235
l 140/140 306/306
l 141/141 289/289
l 141/141 310/310
l 142/142 158/158
l 142/142 303/303
l 143/143 291/291
l 143/143 306/306
l 144/144 157/157
l 144/144 197/197
l 145/145 307/307
l 145/145 308/308
l 146/146 293/293
l 146/146 309/309
l 147/147 294/294
l 147/147 308/308
l 148/148 183/183
l 148/148 304/304
l 149/149 311/311
l 149/149 312/312
l 150/150 289/289
l 150/150 328/328
l 151/151 153/153
l 151/151 222/222
l 152/152 164/164
l 152/152 296/296
l 153/153 197/197
l 154/154 303/303
l 154/154 305/305
l 155/155 176/176
l 155/155 203/203
l 156/156 292/292
l 156/156 316/316
l 157/157 297/297
l 158/158 312/312
l 159/159 295/295
l 160/160 219/219
l 160/160 224/224
l 161/161 162/162
l 161/161 224/224
l 162/162 177/177
l 163/163 219/219
l 163/163 232/232
l 164/164 191/191
l 165/165 290/290
l 165/165 298/298
l 166/166 185/185
l 166/166 214/214
l 167/167 175/175
l 167/167 220/220
l 168/168 227/227
l 168/168 231/231
l 169/169 172/172
l 169/169 199/199
l 170/170 195/195
l 170/170 291/291
l 171/171 186/186
l 171/171 207/207
l 172/172 292/292
l 173/173 206/206
l 173/173 226/226
l 174/174 196/196
l 174/174 333/333
l 175/175 204/204
l 176/176 188/188
l 177/177 222/222
l 178/178 243/243
l 178/178 329/329
l 179/179 230/230
l 179/179 236/236
l 180/180 204/204
l 180/180 216/216
l 181/181 203/203
l 181/181 211/211
l 182/182 183/183
l 182/182 208/208
l 184/184 199/199
l 184/184 212/212
l 185/185 290/290
l 186/186 293/293
l 187/187 223/223
l 187/187 309/309
l 188/188 216/216
l 189/189 294/294
l 189/189 295/295
l 190/190 296/296
l 190/190 297/297
l 191/191 198/198
l 192/192 213/213
l 192/192 298/298
l 193/193 210/210
l 193/193 214/214
l 194/194 215/215
l 194/194 221/221
l 195/195 234/234
l 196/196 302/302
l 198/198 227/227
l 200/200 322/322
l 200/200 323/323
l 201/201 300/300
l 201/201 320/320
l 202/202 314/314
l 202/202 318/318
l 205/205 212/212
l 205/205 221/221
l 206/206 208/208
l 207/207 209/209
l 209/209 311/311
l 210/210 220/220
l 211/211 229/229
l 213/213 223/223
l 215/215 235/235
l 217/217 225/225
l 217/217 228/228
l 218/218 304/304
l 218/218 305/305
l 225/225 233/233
l 226/226 335/335
l 228/228 310/310
l 229/229 236/236
l 230/230 231/231
l 232/232 307/307
l 233/233 275/275
l 237/237 257/257
l 237/237 265/265
l 238/238 246/246
l 238/238 285/285
l 239/239 267/267
l 239/239 287/287
l 240/240 249/249
l 240/240 251/251
l 241/241 270/270
l 241/241 301/301
l 242/242 301/301
l 242/242 314/314
l 243/243 280/280
l 244/244 325/325
l 244/244 331/331
l 245/245 247/247
l 245/245 250/250
l 246/246 330/330
l 247/247 315/315
l 248/248 315/315
l 248/248 324/324
l 249/249 282/282
l 250/250 266/266
l 251/251 258/258
l 252/252 269/269
l 252/252 299/299
l 253/253 261/261
l 253/253 270/270
l 254/254 316/316
l 254/254 332/332
l 255/255 256/256
l 255/255 317/317
l 256/256 274/274
l 257/257 263/263
l 258/258 280/280
l 259/259 267/267
l 259/259 334/334
l 260/260 299/299
l 260/260 317/317
l 261/261 319/319
l 262/262 319/319
l 262/262 321/321
l 263/263 282/282
l 264/264 302/302
l 264/264 320/320
l 265/265 277/277
l 266/266 321/321
l 268/268 278/278
l 268/268 286/286
l 269/269 326/326
l 271/271 300/300
l 271/271 322/322
l 272/272 324/324
l 272/272 335/335
l 273/273 326/326
l 273/273 328/328
l 274/274 284/284
l 275/275 327/327
l 276/276 313/313
l 276/276 327/327
l 277/277 332/332
l 278/278 287/287
l 279/279 323/323
l 279/279 329/329
l 281/281 318/318
l 281/281 330/330
l 283/283 325/325
l 283/283 333/333
l 284/284 285/285
l 286/286 313/313
l 288/288 331/331
l 288/288 334/334
l 336/336 356/356
l 356/356 355/355
l 355/355 338/338
l 338/338 342/342
l 342/342 347/347
l 347/347 351/351
l 351/351 348/348
l 348/348 337/337
l 337/337 346/346
l 346/346 345/345
l 345/345 353/353
l 353/353 339/339
l 339/339 343/343
l 343/343 340/340
l 340/340 344/344
l 344/344 350/350
l 350/350 354/354
l 354/354 349/349
l 349/349 341/341
l 341/341 352/352
l 366/366 360/360
l 360/360 358/358
l 358/358 370/370
l 370/370 369/369
l 369/369 357/357
l 357/357 362/362
l 362/362 359/359
l 359/359 361/361
l 361/361 368/368
l 368/368 367/367
l 367/367 363/363
l 363/363 364/364
l 364/364 365/365
l 371/371 389/389
l 389/389 388/388
l 388/388 374/374
l 374/374 372/372
l 372/372 385/385
l 385/385 380/380
l 380/380 377/377
l 377/377 381/381
l 381/381 384/384
l 384/384 379/379
l 379/379 375/375
l 375/375 382/382
l 382/382 376/376
l 376/376 378/378
l 378/378 387/387
l 387/387 373/373
l 373/373 383/383
l 383/383 386/386
l 391/391 399/399
l 399/399 397/397
l 397/397 395/395
l 395/395 398/398
l 398/398 394/394
l 394/394 392/392
l 392/392 393/393
l 393/393 396/396
l 396/396 390/390
l 407/407 405/405
l 405/405 410/410
l 410/410 409/409
l 409/409 413/413
l 413/413 411/411
l 411/411 408/408
l 408/408 412/412
l 412/412 403/403
l 403/403 402/402
l 402/402 401/401
l 401/401 400/400
l 400/400 404/404
l 404/404 406/406
l 450/450 471/471
l 471/471 472/472
l 472/472 448/448
l 448/448 473/473
l 473/473 449/449
l 449/449 452/452
l 452/452 421/421
l 421/421 451/451
l 451/451 418/418
l 418/418 442/442
l 442/442 443/443
l 443/443 429/429
l 429/429 427/427
l 427/427 420/420
l 420/420 459/459
l 459/459 426/426
l 426/426 433/433
l 433/433 466/466
l 466/466 428/428
l 428/428 458/458
l 458/458 439/439
l 439/439 447/447
l 447/447 415/415
l 415/415 419/419
l 419/419 462/462
l 462/462 445/445
l 445/445 444/444
l 444/444 438/438
l 438/438 470/470
l 470/470 434/434
l 434/434 425/425
l 425/425 417/417
l 417/417 436/436
l 436/436 422/422
l 422/422 460/460
l 460/460 414/414
l 414/414 435/435
l 435/435 446/446
l 446/446 467/467
l 467/467 455/455
l 455/455 454/454
l 454/454 457/457
l 457/457 437/437
l 437/437 441/441
l 441/441 456/456
l 456/456 465/465
l 465/465 461/461
l 461/461 468/468
l 468/468 416/416
l 416/416 469/469
l 469/469 430/430
l 430/430 424/424
l 424/424 432/432
l 432/432 431/431
l 431/431 440/440
l 440/440 423/423
l 423/423 464/464
l 464/464 463/463
l 463/463 453/453
l 478/478 498/498
l 478/478 567/567
l 479/479 568/568
l 479/479 585/585
l 480/480 572/572
l 480/480 589/589
l 481/481 497/497
l 481/481 582/582
l 482/482 574/574
l 482/482 585/585
l 483/483 496/496
l 483/483 533/533
l 484/484 586/586
l 484/484 587/587
l 485/485 576/576
l 485/485 588/588
l 486/486 577/577
l 486/486 587/587
l 487/487 520/520
l 487/487 583/583
l 488/488 590/590
l 488/488 591/591
l 489/489 572/572
l 489/489 595/595
l 490/490 492/492
l 490/490 555/555
l 491/491 503/503
l 491/491 579/579
l 492/492 533/533
l 493/493 582/582
l 493/493 584/584
l 494/494 514/514
l 494/494 536/536
l 495/495 575/575
l 495/495 592/592
l 496/496 580/580
l 497/497 591/591
l 498/498 578/578
l 499/499 552/552
l 499/499 557/557
l 500/500 501/501
l 500/500 557/557
l 501/501 515/515
l 502/502 552/552
l 502/502 565/565
l 503/503 528/528
l 504/504 573/573
l 504/504 581/581
l 505/505 522/522
l 505/505 547/547
l 506/506 513/513
l 506/506 553/553
l 507/507 560/560
l 507/507 564/564
l 508/508 511/511
l 508/508 535/535
l 509/509 532/532
l 509/509 574/574
l 510/510 523/523
l 510/510 540/540
l 511/511 575/575
l 512/512 539/539
l 512/512 559/559
l 513/513 537/537
l 514/514 525/525
l 515/515 555/555
l 516/516 563/563
l 516/516 569/569
l 517/517 537/537
l 517/517 549/549
l 518/518 536/536
l 518/518 544/544
l 519/519 520/520
l 519/519 541/541
l 521/521 535/535
l 521/521 545/545
l 522/522 573/573
l 523/523 576/576
l 524/524 556/556
l 524/524 588/588
l 525/525 549/549
l 526/526 577/577
l 526/526 578/578
l 527/527 579/579
l 527/527 580/580
l 528/528 534/534
l 529/529 546/546
l 529/529 581/581
l 530/530 543/543
l 530/530 547/547
l 531/531 548/548
l 531/531 554/554
l 532/532 567/567
l 534/534 560/560
l 538/538 545/545
l 538/538 554/554
l 539/539 541/541
l 540/540 542/542
l 542/542 590/590
l 543/543 553/553
l 544/544 562/562
l 546/546 556/556
l 548/548 568/568
l 550/550 558/558
l 550/550 561/561
l 551/551 583/583
l 551/551 584/584
l 558/558 566/566
l 559/559 596/596
l 561/561 589/589
l 562/562 569/569
l 563/563 564/564
l 565/565 586/586
l 566/566 571/571
l 474/474 593/593
l 475/475 592/592
l 570/570 593/593
l 570/570 596/596
l 476/476 595/595
l 571/571 594/594
l 477/477 594/594
