v 0.063014585481979579 -0.24429661078657222 0.12227305614274422
v 0.061606224875283118 -0.2386484723561339 0.12733669335262715
v 0.074290780860605712 -0.2680800049240521 0.095071661068846861
v 0.064625191626571724 -0.24963150287597691 0.1170603009166922
v 0.05846263571225839 -0.21934409132227728 0.14152700481897768
v 0.059331314018517774 -0.22620302386828234 0.13696277338818014
v 0.071295791444323825 -0.26391018267620053 0.10069892491447852
v 0.068717553149559893 -0.25942725599910543 0.10624636308136515
v 0.077697796477498707 -0.27192238373723387 0.089375513795840994
v 0.081515682365417744 -0.27537347433526971 0.083606368872105846
v 0.066503725542917697 -0.2546734766708677 0.11171077981746509
v 0.095060121626873814 -0.28280632468377503 0.065989166352953529
v 0.10005236660787549 -0.28422004932598832 0.060089548036990313
v 0.060385832569858314 -0.2326285159534085 0.13223083203560476
v 0.057791038749861023 -0.21207910080984771 0.14592815614596358
v 0.057440978376342398 -0.20659019871386886 0.14899542140782918
v 0.085718777835007476 -0.27836897124876381 0.077772091035901658
v 0.090263281935244105 -0.28084312777189713 0.071891487101291021
v 0.092120394153606344 -0.10410718523493145 0.18371946551997176
v 0.080994230921471247 -0.11879962496702087 0.18237920564288493
v 0.086361705205614453 -0.1112275561553844 0.18329931432285304
v 0.10461234480164863 -0.091350412930893923 0.18318643918508887
v 0.076111711287778855 -0.12674225126214081 0.18093162458839285
v 0.11127401565231826 -0.085671921870629913 0.18236792952673664
v 0.11819722892973385 -0.080444546767965391 0.18121329884993051
v 0.06053093872995792 -0.16689279133163629 0.167728420603624
v 0.12533318418675443 -0.075626896564457924 0.17976455041667544
v 0.13262195449025549 -0.071208851968205769 0.17799373798376505
v 0.057235651598972932 -0.20077077863615089 0.15203679636945761
v 0.07182744222173329 -0.13492407812689494 0.17893977360703678
v 0.13997771508520079 -0.067152922768328266 0.17588707500662187
v 0.15461046605092577 -0.059889720780829735 0.17068970309970444
v 0.14732051938855567 -0.063391382402826935 0.17345751744566698
v 0.16184733446816135 -0.056635956516355924 0.16757329576638885
v 0.057205898403679158 -0.19461674335322915 0.15511379487861626
v 0.065099930573956605 -0.15130676305041196 0.17373207751645131
v 0.06817548682375163 -0.1431673071263814 0.17648777498421112
v 0.16905515346150346 -0.053610577490386779 0.16413170569965355
v 0.058053634778313962 -0.1813369411067377 0.16137521076876515
v 0.062549636211923401 -0.15923427756386066 0.17079655277516953
v 0.057476929295512236 -0.18812246665116902 0.1582062331620181
v 0.059053957443978553 -0.17425946783816751 0.1645622780364614
v 0.098211293185101967 -0.097476336295613752 0.18367350037560912
v 0.20654595408834731 -0.043251389923127659 0.14187643766165281
v 0.20056642472710123 -0.044140580630594707 0.14586392703134382
v 0.21238752484413564 -0.042676047536087933 0.13775462824489756
v 0.18232339481767176 -0.048711331753826276 0.15704314469976574
v 0.21806477990917028 -0.042343513351346271 0.13348449617989253
v 0.1884089281225314 -0.046881894878138999 0.15347411809115435
v 0.19450308379601317 -0.045353386238117258 0.1497342528344256
v 0.24316674382852327 -0.044229919665401053 0.10814040573079592
v 0.17626697192928883 -0.050815541493016356 0.16039925711663847
v 0.22878477916149412 -0.042373307429800042 0.12421568435082578
v 0.23380394538163313 -0.042724300810214166 0.11913988039368652
v 0.2386046995106188 -0.04331782672056287 0.11377407617539513
v 0.2235244862096446 -0.042270552816535439 0.12897479401710843
v 0.10517964549818455 -0.28508102736316399 0.054218154166792487
v 0.12093930365385389 -0.28494031574640843 0.037069841953652226
v 0.11563559994807304 -0.28538790919594881 0.042664020705475168
v 0.11038451808224159 -0.28544575841258402 0.048398987360587106
v 0.13740466103204263 -0.28192850289922916 0.021560339447866957
v 0.1317873324842751 -0.28318505503436797 0.026487398473225288
v 0.14319191759032598 -0.2804057944207432 0.016869420355095061
v 0.14915758384092809 -0.27861642204673609 0.012366716988678278
v 0.15528766253883797 -0.27652153675971758 0.0080104961928695977
v 0.12631442116202529 -0.28417381101457606 0.031669400600422531
v 0.16154511052532089 -0.27409129803691573 0.003770587204130307
v 0.16786976365250753 -0.2712700989036802 -0.00034418479543713048
v 0.25143753454814144 -0.047318395278312823 0.096280819914525306
v 0.24744518714960134 -0.045558156214467065 0.10228193405295606
v 0.25508854394991026 -0.049547477820956663 0.090198776713067391
v 0.26820723767723276 -0.065386108294358883 0.059969914131415059
v 0.26979724400295724 -0.069231841214158749 0.053968658985932366
v 0.26403311805716084 -0.058334514554321731 0.071984109360744328
v 0.26630960582812502 -0.061753796392931076 0.065969110684370613
v 0.27221523674404491 -0.077862512271310164 0.041920603665337744
v 0.27111519676408302 -0.073361957427594146 0.047953125644584815
v 0.27397614668717207 -0.088278328032602896 0.029858400583943703
v 0.27315304604784674 -0.082816197186265539 0.035881534465173406
v 0.2751307847952677 -0.10083453254768246 0.018073904250547407
v 0.27532085365164161 -0.10787559051092196 0.012464740375334085
v 0.27523363751733576 -0.11529954746637261 0.0071378849488826744
v 0.27466012812767998 -0.094284625280648127 0.023898779565303327
v 0.25841085565427535 -0.052173544433804356 0.084102285268961144
v 0.27500154566185797 -0.12106246831333478 0.0034315538621479515
v 0.26139721004717764 -0.055124646280257109 0.078026651862492774
v 0.17419099904907848 -0.26803105780683401 -0.004302852396731581
v 0.21685565566160486 -0.23505040940012822 -0.022935298658743736
v 0.18523848235281509 -0.26142342538352026 -0.010879761579363463
v 0.17975033764844855 -0.26490569588515955 -0.0076906408941691175
v 0.24158310919710041 -0.20787611346178378 -0.022771375186781236
v 0.22716629955053225 -0.22474478766540118 -0.023739613116836936
v 0.22203766490597893 -0.22999983686666053 -0.023515681199965662
v 0.26966184279366462 -0.15302786182093442 -0.010908278878395225
v 0.20124246402765023 -0.24915205344340627 -0.018708153878066909
v 0.19597905078402464 -0.25349914657982164 -0.016450478136180967
v 0.19064722641644649 -0.25760538672538258 -0.01381934642314572
v 0.21166786769142421 -0.23992616413013235 -0.021964724883947778
v 0.20646772163967164 -0.2446260614996113 -0.020557800936639226
v 0.25353426574011267 -0.19023633898674777 -0.02022602596541901
v 0.24985333766085305 -0.1961382743504142 -0.021202306884193209
v 0.26539628729421483 -0.16595600504067973 -0.014825000005506513
v 0.26283817372342572 -0.17220148641431704 -0.016440252492154864
v 0.26767453122587948 -0.15955702614777062 -0.012987773613262091
v 0.24586521479038156 -0.20202123834744787 -0.0220516118420164
v 0.23219593552784332 -0.21930002210951699 -0.023671522266067981
v 0.27377730591967919 -0.13336821772170387 -0.0031118972409478777
v 0.2569277217042108 -0.18430823156115428 -0.01912559186611993
v 0.23701999642820604 -0.21365871036269696 -0.02333066475221961
v 0.27450766651031411 -0.12709186101809244 2.9264729540768928e-05
v 0.27272662624693705 -0.13984309835340325 -0.0059783135594761987
v 0.26001981670907492 -0.17830836771989136 -0.017867024956309732
v 0.27137239883047659 -0.14642949674744302 -0.0085853883495802148
v -0.11785860113577118 -0.17502120745441621 0.092226690270822281
v -0.11641762518185214 -0.18149899625896787 0.088923264490400361
v -0.12279537186709277 -0.15522229409282345 0.1001604377670598
v -0.12104426692867895 -0.16190100999988549 0.097820015393798143
v -0.11940001822078232 -0.16849118534037688 0.095174100163002331
v -0.1246479485201368 -0.14843640178053508 0.10222056798285424
v -0.13338664841862202 -0.11946509011701703 0.10706014302716202
v -0.13093696927283921 -0.12705294960928112 0.10641656875137168
v -0.12660548490798074 -0.14150700251315698 0.10397868675765001
v -0.139001826902929 -0.10352156776584111 0.10676216000867331
v -0.13607405461920083 -0.11161210281042161 0.107223488387611
v -0.12869197375244407 -0.1343884297137862 0.10536766607517049
v -0.14213173177874397 -0.095274084011110163 0.10560261894888023
v -0.15206498858705675 -0.071000250946848364 0.097779101578987934
v -0.15535455629685985 -0.063568307796365381 0.093913095680712017
v -0.16171875130010699 -0.050215281332671891 0.084938849497098415
v -0.16484163937504942 -0.044266796137083564 0.080027965765544315
v -0.15856882827093011 -0.056643715797336722 0.08958103758453892
v -0.17122165788689858 -0.033559637637243372 0.069365860566763624
v -0.17453380259033671 -0.028708726871414902 0.063448147732843643
v -0.17790864647873317 -0.024109038509570385 0.057075741033810246
v -0.1812785787481046 -0.019738360780699071 0.050236239556827621
v -0.18765690206339392 -0.011780400016948793 0.035338010917897039
v -0.18454961691151028 -0.015627146984610152 0.042953863096525616
v -0.14539843603244143 -0.086992560340108799 0.10372616931437079
v -0.14873065082469875 -0.078848964551361422 0.10109030664049481
v -0.16799526371021428 -0.038729432090098548 0.074863956053756953
v -0.10828485723172694 -0.24574903901893352 0.0037260046284228335
v -0.10825479432107378 -0.25090522695918949 -0.025153417105414945
v -0.10795800892209592 -0.25004615201425318 -0.017843124778171536
v -0.10965452389061786 -0.25165203617724313 -0.039724164946971285
v -0.11080693214642136 -0.25152946866955739 -0.04690277559712764
v -0.11395925685787588 -0.25025611866040842 -0.060959823620395218
v -0.11225654797246373 -0.2510557669652328 -0.053979128582898037
v -0.1158585234481511 -0.24910917993847459 -0.067868161568319568
v -0.11790262593042258 -0.24751185671141956 -0.074721120720986647
v -0.12003350861998859 -0.24548187986379322 -0.081567212936824049
v -0.12220846555166426 -0.24299228343186252 -0.088442499695688542
v -0.10871207481300021 -0.24375332679792794 0.010755566777909151
v -0.10923519378307539 -0.24143518534372738 0.017721894080948875
v -0.10799864157886334 -0.24745340218005485 -0.0033828212138294015
v -0.10880752909842732 -0.25145349494352331 -0.032462135870271185
v -0.10788260929033242 -0.24888533801030507 -0.010576624722537998
v -0.12439609339715732 -0.24000360221501996 -0.095359928522613657
v -0.12657207809827498 -0.23654155450610753 -0.10232966270122576
v -0.11139897872378851 -0.21484030588521785 0.063307842990264984
v -0.11175939778914472 -0.20971981818022958 0.068666772905090767
v -0.11064241224407433 -0.23239277702795708 0.038355224519066325
v -0.11105293591407263 -0.22431512959732833 0.051431856459453924
v -0.11119038039791132 -0.21972570103710415 0.057552336413244226
v -0.11089218647260765 -0.22856278699620403 0.045013969642011306
v -0.11234140558506882 -0.2043238268694465 0.073520011253061263
v -0.11312559914262052 -0.19878528636710271 0.077972434315245087
v -0.11409374084866604 -0.19310160666283896 0.081996277464911282
v -0.11520135396393885 -0.18733009331050315 0.085646145509048241
v -0.11026366462127002 -0.23580131454721498 0.031546840714575759
v -0.10977791895171846 -0.23879015482659682 0.024650585717954067
v -0.12966566506669774 -0.2304968397919672 -0.11255419663140596
v -0.13287904976301745 -0.22320893806602682 -0.12285403596650452
v -0.13123426459937534 -0.22698697032492315 -0.11772119114581192
v -0.13660939934445268 -0.21498910382162939 -0.13273818979144214
v -0.13465592083161643 -0.21920501992813513 -0.12788582346425753
v -0.13876304167985459 -0.21059019224434739 -0.13736235950483364
v -0.14110489341784391 -0.20601340026605636 -0.14170545216897523
v -0.14359589897159644 -0.20129840388118747 -0.14575949230080584
v -0.14617139789063027 -0.19644127200739481 -0.14947957953221705
v -0.15138178855738066 -0.186358547080093 -0.15584512060584027
v -0.14877341462288288 -0.19144873394199785 -0.15283435986268817
v -0.15400310483292792 -0.18115687924939558 -0.15848527445277572
v -0.15939864356971414 -0.17033837225818166 -0.16266180856856827
v -0.16217498363889662 -0.16459443311581831 -0.1641014261016136
v -0.1650163615650948 -0.15862525699218774 -0.1652629973060229
v -0.16784324238287945 -0.15235816672422789 -0.16604969240195239
v -0.17060122666149874 -0.14577923155509215 -0.16644584835853682
v -0.17579700351376276 -0.13175401227866679 -0.16592636847016792
v -0.17828519048429931 -0.12438955470155585 -0.16503525066837488
v -0.18307999117910087 -0.10907331107645724 -0.16181581310057427
v -0.18533946043292127 -0.10112521509762518 -0.15943262500914046
v -0.18747286556462278 -0.092977424964267419 -0.15655663907196452
v -0.1894136475039612 -0.084672993979485911 -0.1531207446157361
v -0.19114396691791341 -0.07628290738739546 -0.14913301351244435
v -0.19265599052183308 -0.067929964475040017 -0.14459330860420583
v -0.12812333218191685 -0.23369153180048166 -0.10741002319155302
v -0.15667569979974855 -0.17584886886130771 -0.16079525787399843
v -0.17324125027204842 -0.13889543826905049 -0.16638311161060731
v -0.1807230295533227 -0.11682585783348205 -0.16369030702066922
v -0.19482910748399271 -0.055403528413440525 -0.13673192288158778
v -0.20023053926815104 -0.033103267113147747 -0.11773520783970838
v -0.20183519285867757 -0.028443048795836527 -0.11249679929017778
v -0.19726400622867318 -0.043589637732022152 -0.12769743950180934
v -0.19868688920791261 -0.038151739952876983 -0.12281221935071204
v -0.1937507646723729 -0.061603506298675968 -0.14083011384609612
v -0.20624383545486968 -0.016244754119789644 -0.095740986621067892
v -0.20492614954934238 -0.020063953267441745 -0.10155053208883534
v -0.20874032033208975 -0.0058925206751209522 -0.0762425285967607
v -0.20734786633459065 -0.012595199204351088 -0.089636467319217039
v -0.20341767147213591 -0.024131017508282261 -0.10709828994724961
v -0.19598025547762635 -0.049372514729840604 -0.1323428641239851
v -0.19047564800507039 -0.0082930539197726433 0.027867277629420324
v -0.19309956021164515 -0.005128063218775329 0.020208620293566973
v -0.19555729711781619 -0.0023191798348581169 0.012400599181496816
v -0.19785396209540074 3.6874505030688655e-05 0.0044632443315696709
v -0.20000910879679898 0.0019185999364517376 -0.0035554537598395286
v -0.20201018460987558 0.0032907954266632039 -0.011640814516417207
v -0.20382157912541837 0.0041182862098976918 -0.019803893673281697
v -0.20672722313605063 0.0040644243917654713 -0.036392334686734515
v -0.2077802418066923 0.0031872355846858606 -0.044758059446289078
v -0.208519207293347 0.0017063977226788314 -0.053052820979579862
v -0.20893631872184107 -0.00033786292676219311 -0.061146606173002646
v -0.2090004853203537 -0.0029195767698732633 -0.06890108208305018
v -0.20818034760983295 -0.009146031899678591 -0.0831456696746848
v -0.20541229743931982 0.0043967692747565118 -0.028055937549580058
v 0.12202711467389735 0.09805745778463229 0.11261476702866545
v 0.11452118348032968 0.095903340487617589 0.11611141988929842
v 0.15029730138026628 0.10804800011367452 0.091868678181481353
v 0.15539456951429986 0.11018253447819482 0.08634650147687993
v 0.13954464784973947 0.10386142777703861 0.10158430767875495
v 0.16023538912614435 0.11229465534919261 0.080448000460257324
v 0.17603033501756188 0.12004404053334321 0.054430396355396954
v 0.17263855000735051 0.11819867979515999 0.061185094175268746
v 0.1838700733451851 0.1257626219054617 0.033132849076008303
v 0.18161310127935071 0.12379150989129573 0.040392452096913611
v 0.17901298960030099 0.12189494763364339 0.04749925124894594
v 0.18577192080852456 0.12780219521438052 0.025753937084286686
v 0.18914119513572547 0.13409068686543751 0.0036478694989308994
v 0.18952659803074012 0.13622528892333324 -0.0034134801968840681
v 0.18952492680304014 0.13840067282145127 -0.010235694938091516
v 0.18913217788382966 0.14063296694834185 -0.01682019020006165
v 0.18840111257908795 0.14293451734529072 -0.02319988986007479
v 0.187316545163487 0.14529137285315177 -0.029421619228136422
v 0.18587494159731996 0.14768231000330129 -0.035528752933693231
v 0.18408451670369552 0.15009019981978189 -0.041551837500091914
v 0.16884820215699342 0.1163063975641843 0.067774141831613441
v 0.12806954920624991 0.099922389665169656 0.10936766777809456
v 0.13390439962159686 0.10185665591489507 0.10571332404714696
v 0.1449955114672575 0.1059315255959174 0.096950537415355337
v 0.16468897767778645 0.1143404148609789 0.074198257069504087
v 0.18726949423751005 0.12988112369857707 0.018314109188086972
v 0.18840090635341655 0.13198075065382414 0.01091589002360082
v 0.18195267817801306 0.15250450621318182 -0.047502774981747695
v 0.17951311903528927 0.15492647530894435 -0.053382394666645065
v 0.17675105036102501 0.15734478283819031 -0.05916125260053922
v 0.059281971907131241 0.086661712668695601 0.1282984067506823
v 0.067137587653034542 0.087234018131436927 0.12766356166092074
v 0.082984453055749891 0.089123947708314555 0.12536189674165313
v 0.10677373799955023 0.093889216508368317 0.11908649825646872
v 0.098895071559483183 0.09206026615325108 0.12160752332449112
v -0.038778646136311101 0.10429682678958462 0.095762075921382292
v -0.055532098426206183 0.1135458996542946 0.077872682559108702
v -0.050173787195334822 0.11013844129359779 0.084299423459339246
v -0.060628397389306234 0.11729140568997268 0.070992385633124322
v -0.06541416614569881 0.12134915824030749 0.063654703407917734
v 0.090949163398925226 0.090462172598973739 0.12369143129049251
v 0.05148447862365535 0.086327426456719342 0.12854963437459269
v 0.036105270021057005 0.08639638259374352 0.12793561832289024
v 0.075044630186428568 0.088047065263827842 0.12669913699854374
v -0.044581275735257164 0.10706461750124088 0.090268438209225269
v 0.021045995232354821 0.087601304572641508 0.12580640585860819
v 0.013663384541267379 0.088673769597066354 0.12412240082173503
v 0.028529821277125382 0.086839298145250571 0.12709090609130241
v 0.043757176693986183 0.086235674353757896 0.12841635745197594
v 0.0064080763141634318 0.090030099771246916 0.12205148666370902
v -0.020534128410114285 0.09734317624688954 0.10956612685116018
v -0.014141658964857298 0.095316672895341084 0.11331788097022741
v -0.026751413025656236 0.099488827609992558 0.10539991893698006
v -0.032839699691410311 0.10178718376677165 0.10081556117180505
v -0.069895780324807477 0.12565522844083557 0.055919371117885003
v -0.072511697297754918 0.12850966330051533 0.050774571520139693
v -0.00066232370324828299 0.091629000902235913 0.11954763708260677
v -0.0075101449531363579 0.093409609093575541 0.1166215752707345
v 0.17032257199801765 0.16212422060061424 -0.070289694049616491
v 0.16673664996541043 0.16446327394023558 -0.07560258796545935
v 0.1629265081811378 0.16673740250155578 -0.080726016727020913
v 0.17367393602965328 0.15974693726971712 -0.064804635074732511
v 0.15858778456989661 0.16915618658179501 -0.086165388357709038
v 0.15400603416242925 0.17144687565174543 -0.091411367309043479
v 0.14915893686193243 0.17356938660250831 -0.096461106634375293
v 0.14405066560273089 0.17548905288853145 -0.10131316465815407
v 0.12151452605260664 0.18088576947188006 -0.11840026156406511
v 0.12742765697089245 0.1798594901927599 -0.1145462275326888
v 0.10898551318558009 0.18253011187167067 -0.12497981787910387
v 0.11539152501057143 0.18176277381043407 -0.12190179704038873
v 0.095081957098585301 0.18392569801971012 -0.12972720784045361
v 0.08752713418021224 0.18459826043802391 -0.13136798888428358
v 0.079605097736656208 0.18523395160978534 -0.13250984952684172
v 0.071409783902189897 0.18577640105256849 -0.13314408175240089
v 0.063080006500156188 0.1861154442925313 -0.13320679519860096
v 0.04669335545435456 0.18604185081034824 -0.13193472531116032
v 0.054789073422160509 0.18621351065894032 -0.13277671088078219
v 0.038904303575991506 0.1856099257428028 -0.13077878058789016
v 0.031476388750937334 0.18494874799614552 -0.12937155472869943
v 0.024404579756932887 0.18411223471238794 -0.12774444182816197
v 0.017627178253750365 0.18317719772042879 -0.12592368861496223
v 0.0046436202707179908 0.18117718672541899 -0.12154851959316212
v 0.011069372415632429 0.1821866640385949 -0.12386801187600222
v 0.13871580253787238 0.17718638359879083 -0.10597028077228551
v 0.13316992860773175 0.17864243447585071 -0.11039712848724961
v 0.10222560426621376 0.18323084722586608 -0.12758109360668862
v -0.001715473808464841 0.18015053226791194 -0.11891983880067095
v -0.08361639050695388 0.15949257484633336 -0.032894734726940572
v -0.08506034761893505 0.15769295431465061 -0.025613571605905976
v -0.073161815527467644 0.16506783109563145 -0.059632406702097011
v -0.069541534208518524 0.16624309844664878 -0.06556289659454223
v -0.065605756841877083 0.16740863505992698 -0.071153374296014371
v -0.06138726444566759 0.16856744343113858 -0.076401708997476336
v -0.056946939739342152 0.16972600057432097 -0.081349534925206052
v -0.052312373110980803 0.17088043622179269 -0.08604240256922438
v -0.04742320852048041 0.17198971233169544 -0.090464596258333224
v -0.013807135190172092 0.1781955635517693 -0.11309733690254772
v -0.0077665421020993997 0.17917458783283319 -0.11614120767824107
v -0.019796534431795382 0.17720476871920154 -0.10980849142471028
v -0.025688371044725728 0.17619953415866529 -0.10630604126017548
v -0.036979941334516958 0.17413440774505259 -0.098732755674632258
v -0.031428042380118378 0.17517504035972703 -0.10260603744251398
v -0.079286170488254037 0.16255604200613361 -0.046813612041994648
v -0.076423695034010558 0.16385475449824216 -0.053374433494158907
v -0.086358863373396322 0.1535857992301167 -0.010602915730010726
v -0.085971755400896965 0.15571553153008749 -0.018165661154155192
v -0.081685389411643383 0.16111020615040239 -0.039972986582023085
v -0.042313863179039249 0.17307357832938874 -0.094687164713255514
v -0.075010050233319275 0.1315149465653962 0.045303095853083723
v -0.077396334835654779 0.13462172798906033 0.039439074419745271
v -0.081582072959763108 0.14078644168552851 0.026450847673841947
v -0.08328128498738796 0.14368130202092383 0.019410030416522686
v -0.084664377401146101 0.14639769411871667 0.012102758403735297
v -0.08568311899012207 0.14894066529651304 0.0046111354018444663
v -0.086248169750212503 0.15132766455180885 -0.0029867436521173489
v -0.079599538003645942 0.13774275607756403 0.033145140013972521
v -0.17609694757049571 -0.0053474764800998291 0.033098643532488634
v -0.18765690206339392 -0.011780400016948793 0.035338010917897039
v 0.073684125544929549 -0.18429639322102159 -0.17431126300224942
v -0.018685053046883671 -0.20962490077653856 -0.14474637382457456
v -0.12067515188463165 -0.23519984030582158 -0.10472615020400741
v 0.061139686956548409 -0.18895126126142936 -0.17064431610659558
v 0.0059812013841909614 -0.20334379877300293 -0.15431871618659609
v -0.12657207809827498 -0.23654155450610753 -0.10232966270122576
v 0.07970153633820809 -0.18167935217238229 -0.1761634291682101
v -0.10030244986466974 0.055523778038544074 0.031807476554849917
v -0.10428440999998342 0.050247657234570808 0.030175248704954503
v -0.092928741886728825 0.066529201517778691 0.03545021241288767
v -0.09649716744046602 0.060932251309843449 0.03355870110190786
v -0.086525537452198875 0.078348365557507141 0.039571353868412422
v -0.089615177512854291 0.072332176821334568 0.037477602207233368
v -0.080875769413729898 0.091008571944847169 0.043801903902025201
v -0.083597897157919931 0.08457063763553932 0.041668360901711388
v -0.071787260962628829 0.1184357741364967 0.053323132405133575
v -0.078381313543881947 0.097647255369295527 0.04602105804736583
v -0.075980556893496587 0.10443473262024328 0.048301154152179955
v -0.073769313685032853 0.11136398173735521 0.050735309246139726
v 0.054128946575660197 0.29775303745819837 0.061085887504231461
v -0.1684936848494385 -0.24357703641699141 -0.087012051984498545
v -0.18270795604775131 -0.24497414032350737 -0.081612032986500771
v -0.069895780324807477 0.12565522844083557 0.055919371117885003
v -0.068447688505892598 0.1321452138923534 0.058187143028378741
v -0.065879695955659429 0.14591825469473441 0.062519335487022626
v -0.067118242879273704 0.13888892615811133 0.060377354682958344
v -0.063391218403132915 0.16069860285327808 0.066889043252564895
v -0.06199107055294998 0.1683087744831385 0.069217135584885597
v -0.060414758794816746 0.1759714598606692 0.071641037356502679
v -0.054358014305131527 0.19889863833616492 0.078729631310850687
v -0.01165223783506189 0.26290795790218408 0.084772556518776743
v -0.0063004791732869511 0.26765683182585709 0.083341391301292117
v -0.064664224476539078 0.15320926541994739 0.064668999851768189
v -0.056605927363307273 0.19128725927868434 0.076480143017571778
v -0.058631141370030851 0.18363990402931568 0.074096522624289035
v -0.05179103211053547 0.20644063552053005 0.080753620216745287
v -0.048826825823561376 0.21385861337011824 0.082517480222958545
v -0.037104387014998186 0.23466130064271462 0.086103314238983
v -0.032424003560520324 0.24098988741144625 0.086706919314988445
v -0.027442308148505477 0.2469623369723479 0.086890466417504489
v -0.022269222457674043 0.25259498246225098 0.086621921821198045
v 0.067516663724097245 -0.18668838022427425 -0.17245854724407261
v 0.054505193214427691 -0.1910592829657338 -0.1688224336889359
v 0.02622069496788363 -0.19840307950606573 -0.16111767314187841
v 0.019236405266768338 -0.2000543802694898 -0.15894720391207989
v -0.00031333612171815541 -0.2049642082108957 -0.15190246615544001
v -0.006471810670018209 -0.20653956527227846 -0.14946449149847726
v -0.012573743962146037 -0.20810970698996109 -0.14707942651025474
v -0.050343684569787286 -0.21688829965745982 -0.13388709083459632
v -0.056904583374620774 -0.21832487598489603 -0.13171616111023338
v -0.063495284478491024 -0.21979965068490587 -0.12948212577960722
v -0.070085238088055862 -0.2213194927194124 -0.12713427944076766
v -0.076648303039737617 -0.22296930398735376 -0.12466859482275311
v -0.031091316759726543 -0.21256238321810916 -0.14028870788439246
v -0.024849092179247557 -0.21113342991793888 -0.14250258057685181
v -0.083171470683653215 -0.22467738728324915 -0.12200720027297274
v 0.012484687021231362 -0.20170475831185347 -0.15667839693452146
v -0.089643509345814179 -0.22648326495131105 -0.1191758568212436
v -0.11469439955789137 -0.23368714554208486 -0.10735128133212828
v -0.10859664769282809 -0.23203631252842702 -0.11020564727113163
v -0.13359138951553012 -0.23794663034833563 -0.09964582516515591
v -0.14057824190234586 -0.23920808928712883 -0.097072023271137203
v -0.14754214777244798 -0.24044824676486859 -0.094590319893880365
v -0.037421788461528549 -0.21402665846156993 -0.13815250038291288
v 0.047619099060102928 -0.19304925099562947 -0.1669913470647636
v 0.040536795555294894 -0.194933315872792 -0.16512365710825455
v 0.033361185672237628 -0.19671738522880156 -0.16317998283472337
v -0.04384260138314279 -0.21545254829194921 -0.1360187005120489
v -0.096051835613375283 -0.22837280581045893 -0.11622291703672585
v -0.10237706494517756 -0.23025803701854458 -0.11320493565615736
v 0.086585639902075684 -0.17836497311374194 -0.17831397787342362
v 0.13085779291979718 -0.14751497413043818 -0.19101740538301368
v 0.09996186940513628 -0.17092575450252692 -0.18247005269858702
v 0.1063979452864512 -0.16679482932828654 -0.18442276305942013
v 0.12486250154220216 -0.15277208913910051 -0.18964486103539308
v 0.1188138649771659 -0.1577299160238273 -0.18804441747790673
v 0.093352175821687255 -0.17478217168590288 -0.18042763474827589
v 0.112667870599545 -0.16238973622060099 -0.18627985803677166
v 0.15946127835614635 -0.11719252341569616 -0.19220708197585318
v 0.15420668391906212 -0.12377512545020145 -0.19287431985152537
v 0.16844993792266663 -0.10331618440424994 -0.18971161946380186
v 0.16423533290984116 -0.11036216528664272 -0.1911257007785758
v 0.18309676616101278 -0.034903722451083558 -0.16949471181328385
v 0.18301151553126113 -0.028506079093922949 -0.16725596318829472
v 0.14276008705958593 -0.13616243809300177 -0.19279757980051387
v 0.13683444209997153 -0.1419814511166855 -0.19210196015419517
v 0.17741887626185554 -0.081482602698941031 -0.18420627051202254
v 0.18065187713423203 -0.067253307728907197 -0.18004404769564153
v 0.18166186436469658 -0.060465225240356746 -0.17793284817230759
v 0.17927712504610038 -0.074274037817345567 -0.18215484815055938
v 0.17206467180816909 -0.096104833640280218 -0.18805072102217307
v 0.17505501355082836 -0.088796052399025299 -0.18620341803127971
v 0.18280476234528473 -0.047515312401261722 -0.17373481024687298
v 0.18303357548848898 -0.041213505812962431 -0.17163452440864241
v 0.14858968147581572 -0.13009465355047686 -0.19306877045453583
v 0.18236238363083312 -0.05390405168886498 -0.17582894658453829
v 0.1828427817222098 -0.021953897930392027 -0.16488394235096682
v 0.18237396846727452 -0.0080894678610914702 -0.15948309527583038
v 0.18178993737175114 0.0063316176614908737 -0.15319948685326557
v 0.18145010458401634 0.013671049515113519 -0.14982501400438147
v 0.18099110193243473 0.021045169986753202 -0.1463851611690104
v 0.18208644631916432 -0.00093401754845909215 -0.15643750603706832
v 0.18040192110109343 0.02843904056720448 -0.14299748221808428
v 0.17966253711107011 0.035826521244314402 -0.13974744669419065
v 0.18263622929139112 -0.015104493597877102 -0.16229952416511439
v 0.17115297695746534 0.091696894445712551 -0.11820381174212119
v 0.1732904919609915 0.078205612387145185 -0.12345359158639313
v 0.17217862514736509 0.08493701224252484 -0.12085963644302791
v 0.1743612765473514 0.071411189179682394 -0.12595333210557733
v 0.17877509010122439 0.043171418521867039 -0.13668172851711458
v 0.1682745864622289 0.11206546416723878 -0.10955947762409286
v 0.17016230003960733 0.098483491358398997 -0.11543558383996845
v 0.16919617651242747 0.10528102559089043 -0.11254781022114306
v 0.1673911816059715 0.11880209423171291 -0.10646736355618949
v 0.16525447468569149 0.13889674708750449 -0.096530008917057653
v 0.16466621294285358 0.14569491026484999 -0.092875321297634872
v 0.1666064898742397 0.12550411284416246 -0.10329212256189033
v 0.16589293736891558 0.13218425704555212 -0.099990062287290182
v 0.16409235858186538 0.15260991243606575 -0.089005935881124543
v 0.16350985987648825 0.15963696617617057 -0.084936908208038397
v 0.1629265081811378 0.16673740250155578 -0.080726016727020913
v 0.16246473372576692 0.17232001175324149 -0.077346722065147575
v 0.16198509993406451 0.17796462996854917 -0.073873226991690605
v 0.16079848114891804 0.1896008114940175 -0.066609125800581009
v 0.16142374892814226 0.18370536859949005 -0.070278284417147188
v 0.16009323017536695 0.19568310074632811 -0.062922130758348904
v 0.17546608291370583 0.064533930595212979 -0.1284643672648898
v 0.17662680744343423 0.057549926677148575 -0.13107103945944987
v 0.17775388331232778 0.050426841268632117 -0.1338005150144822
v -0.15450167394229997 -0.241617961338987 -0.092118058424188076
v -0.16147543555101007 -0.24260846598528335 -0.08956772077776308
v -0.17556620935997327 -0.24434756557619258 -0.084353712210116283
v -0.18992038603209455 -0.24544075183495417 -0.07877760114270943
v -0.1971837520536589 -0.24570180822433224 -0.07583732175951835
v -0.21883841387627123 -0.24510843356652573 -0.066583261877284125
v -0.22578500566966103 -0.24435364792707531 -0.063352901994058269
v -0.23250396040248106 -0.24332285548704344 -0.060016813358982936
v -0.23899681147391061 -0.24206622906523148 -0.056558026784700531
v -0.2452698868340879 -0.24054728926295232 -0.052948510350495422
v -0.257130080262848 -0.23637274400728756 -0.045257131961645311
v -0.262718794224719 -0.23362923565156507 -0.041264875608588887
v -0.26800292244926055 -0.23034474418447853 -0.037243248300334125
v -0.27293936463069612 -0.22651140931922431 -0.033251111822484969
v -0.27763945663588396 -0.22228435340691655 -0.029339544651225374
v -0.28202365146000058 -0.2175959499428155 -0.025504737368474334
v -0.28604948598394919 -0.21244302595240538 -0.021727233555998322
v -0.2897322336584649 -0.20688741554889373 -0.017981784752402582
v -0.29306967714992865 -0.2009968014911992 -0.014243591849726664
v -0.29600404213347209 -0.19482734592208018 -0.010499466035121044
v -0.29850804638441514 -0.18845977514412077 -0.0067456568827281588
v -0.30360265991401747 -0.1688323504161803 0.0045908400996887205
v -0.30067492272321655 -0.18201074221916425 -0.002966004672342024
v -0.30237719007598923 -0.17546402211541356 0.00081445257115338621
v -0.2044685733699162 -0.24577143508676702 -0.072824493208579755
v -0.21170679255079677 -0.24556541564515377 -0.069729948165885736
v -0.25133219348383412 -0.23870544935535426 -0.049180357287948562
v -0.30463358866952728 -0.1613177116184645 0.0088526584440918581
v 0.15926284098269894 0.2019551744308643 -0.059267605293548201
v 0.15820792783909754 0.20837691891790247 -0.055656884590927616
v 0.1568917909074162 0.21490883776235259 -0.052097796299763757
v 0.15537564611072163 0.22153137055018918 -0.048597317470851692
v 0.153668141638862 0.22817788003130429 -0.045082166878862379
v 0.15177036549084441 0.23476753249926613 -0.041441112224347931
v 0.1498271024882839 0.24131130435768158 -0.037630139847885012
v 0.14547538937616009 0.25388245985877389 -0.029011161691817427
v 0.1430636917276264 0.25987278138800562 -0.024183722448972218
v 0.14772342749249273 0.24768931142472789 -0.033497229223735589
v 0.13738919854532411 0.27100544082409539 -0.013660622078640394
v 0.14040089920275931 0.26560356405793611 -0.019047836498952773
v 0.13401682998882519 0.27607441094794349 -0.0081032939155938517
v 0.13019435949436198 0.2807332389489865 -0.0024199775269969385
v 0.11578365660010201 0.29159735480562932 0.015106248243615533
v 0.12101615456299675 0.28847336893392878 0.0092286203593193276
v 0.091739205921617384 0.29858452458409579 0.037360288990076547
v 0.098044073257560926 0.29757400156938546 0.032144882636463576
v 0.085364928913696042 0.29920046707867576 0.042239043642516336
v 0.12582925572222717 0.28484613419562516 0.0033711625601226796
v 0.11017909425755734 0.29419312976725454 0.020944502142948587
v 0.10422797663979685 0.29615416149469737 0.026653850193357385
v 0.0789762201816466 0.2994613354445827 0.046746030389747249
v 0.066346320540691922 0.29911112573603993 0.054621590784693919
v 0.072624437049734397 0.29942368124265561 0.050872774595051316
v 0.060171396964825694 0.29853699962131852 0.058009738916578416
v 0.042513479322899617 0.29517209861641019 0.066258591956127599
v 0.048231910225527273 0.29665967145986211 0.063836929726757113
v -0.12860906390473514 0.02580205839715656 0.026050707208134224
v -0.12314241609199203 0.030468012218350583 0.026184425495899187
v -0.1179487282697084 0.035232133110431718 0.026683080638406693
v -0.10856765723099385 0.045138618048346138 0.028768590053840807
v -0.13426251636799783 0.021202046416772272 0.026229470430976461
v -0.11308928818147163 0.04011992795215176 0.027566875964577339
v -0.1581958284089785 0.0049017710150510317 0.029597178682275252
v -0.15216004455763943 0.0086732579917160827 0.028522397120988582
v -0.14011514983833329 0.016790534784190139 0.026746342111175089
v -0.14610062984031577 0.012603971539838802 0.027528469039066215
v -0.16421865426668114 0.0013496397432522962 0.030753281848196146
v -0.045374244403064826 0.22107233053954226 0.083987707930270716
v -0.041473495750870913 0.22803142732070711 0.085200940268855163
v -0.00088473705697673542 0.27213445501370925 0.081668471891483491
v 0.0046695600622239514 0.27629902949611718 0.079798559746755926
v 0.010370115200545576 0.28024721844981476 0.077859430158587081
v 0.016285177362742514 0.28392949288322333 0.075844513375491432
v 0.022456367251490472 0.28729136137246186 0.073721250952511405
v 0.028892333338600133 0.29030161178057001 0.071451053794191408
v 0.035580172052393569 0.29296102171441674 0.068997268520309546
v -0.016964498083458939 0.25787565078455765 0.085875289363013418
v -0.17019684467528187 -0.0020383268495393365 0.031941103149248543
v -0.18191624567062736 -0.0085916225869676014 0.034226662160385335
v -0.19383967313187234 -0.015157555748927808 0.036580350916433954
v -0.2060407391515276 -0.022114737357769681 0.03902716213882404
v -0.21826234864884236 -0.02957571383842483 0.041455154165107963
v -0.21213384105304911 -0.025770428148138756 0.040243066501790631
v -0.22440965964872306 -0.033578828420770757 0.04262888137977721
v -0.230548164831476 -0.03778107583928228 0.043741578841033101
v -0.23663375122430691 -0.042165119062091763 0.044760059727119966
v -0.26494561046337362 -0.066038939095304089 0.046724692709380442
v -0.25960271080561736 -0.061047522428419446 0.046885316836171857
v -0.24260997825878711 -0.046713848410205913 0.045629764931480479
v -0.27016132385636538 -0.071159919796857374 0.046252759061335323
v -0.27515280357426231 -0.076523847484318092 0.045371388729946838
v -0.27997485452726001 -0.082084096577064836 0.044155317050682437
v -0.28452626728784014 -0.087883651256877846 0.04259023610353551
v -0.28867196002121431 -0.093935729831924455 0.040666363928301155
v -0.29820884620337251 -0.11297220713191025 0.033278812978361411
v -0.29232993077916358 -0.10018946759584946 0.038425441324560383
v -0.29554049725560949 -0.10654782621827721 0.035968318123015507
v -0.30041209066631053 -0.11942205374100723 0.030407003691804456
v -0.30229685833802511 -0.1259200115858766 0.027406684909156487
v -0.30461199712793147 -0.13939928640127586 0.02068702573188428
v -0.30507804164628871 -0.14649233350772561 0.016950664680225623
v -0.30368688264780597 -0.13255446548033623 0.024168215376781394
v -0.30510193132796193 -0.15382464856957836 0.012991740774980675
v -0.19995539058496456 -0.018588969672212519 0.037807039869799872
v -0.2540946376658173 -0.056182206983115823 0.046724746969720038
v -0.24843371849238077 -0.051398950592925929 0.046296566265489197
v 0.24391825117433671 -0.2371447816451937 0.20769048764786202
v 0.24430381454155559 -0.23137895704023242 0.21057841680272193
v 0.2434777935925409 -0.2428882989897293 0.2043058796083066
v 0.24301795426546918 -0.24852394465069796 0.20041721559225983
v 0.24262281137042435 -0.25403532279549557 0.19610472971593923
v 0.24212741880592595 -0.26445025425774799 0.18614367638606408
v 0.24216628922759029 -0.27404500519604236 0.17451114178674848
v 0.24223916446253382 -0.27837355414569764 0.16800584491249854
v 0.24183198207092704 -0.28900338271102832 0.14636690593770926
v 0.24008773874574407 -0.29381053080462038 0.13085834341360908
v 0.24117839062171678 -0.29165524816239841 0.13868096240542155
v 0.23631412765928972 -0.29659149160443687 0.11495715948604568
v 0.23356759249848136 -0.29720430042083246 0.10693031781106922
v 0.22674599145022023 -0.29701841670119966 0.090768149440250051
v 0.23034034280762172 -0.29734782741275873 0.09886508815442735
v 0.22289759420263242 -0.29617682755324615 0.08266943909867433
v 0.20708832609217676 -0.28868071298712755 0.05100135347567647
v 0.2032948859207597 -0.28615542099319857 0.043502522767746632
v 0.19958165139705542 -0.28360820442275525 0.036263083473378449
v 0.19591131329468253 -0.28107260473555395 0.029370612312243048
v 0.19225645604619285 -0.27859000958819879 0.022888230553100006
v 0.24231926867942477 -0.25935801148072218 0.19135145838952847
v 0.24211443116853748 -0.26939760325700624 0.18056975584987531
v 0.24228855266897131 -0.28238363558990115 0.1611264700324167
v 0.24217213766583001 -0.28592101655302821 0.15387753537207532
v 0.2384966694032723 -0.29548240058284719 0.12294220218178892
v 0.21891884897466776 -0.29485623829066754 0.074603918170401046
v 0.21492342677761733 -0.29313966645036682 0.066598857625752877
v 0.21097185492216616 -0.29106431629897356 0.058709158615590909
v 0.2447334114525623 -0.22410402410863001 0.21383703700559525
v 0.24492617373847239 -0.21680523497034937 0.21658052089548682
v 0.24475575655129406 -0.20944428435783286 0.21881109263815623
v 0.24337679442450888 -0.1946215937471035 0.22238363476420417
v 0.24077410368858651 -0.17979071883251702 0.22478330997797569
v 0.24219773475789641 -0.18718621452895035 0.22375713972480357
v 0.23924573879065852 -0.17248973665303069 0.22550393664329932
v 0.2360401996929849 -0.15828538452730254 0.22578000905068918
v 0.23766871132875397 -0.16531627873259996 0.22585535462104067
v 0.23431888033495157 -0.15139125395107753 0.22528091502402667
v 0.23246194227876951 -0.14460207797796404 0.22443072888064386
v 0.2303440640987037 -0.13794683184781981 0.22306902747116139
v 0.22542438991994018 -0.12488938669379826 0.21933455988779366
v 0.22257794658417412 -0.11861473661496016 0.21679872402433184
v 0.21953867890686102 -0.11256489997821409 0.21385305492015466
v 0.21635513370447906 -0.10678773056075802 0.21051681545004211
v 0.21307409984276821 -0.1012734145420722 0.20686625171911971
v 0.20971736099745886 -0.095967659336485517 0.20298889583394442
v 0.20269533282920621 -0.085856008722630522 0.19462835476248619
v 0.206266034304117 -0.090834771415325949 0.19891448427945208
v 0.19519948119415656 -0.076109038418905206 0.18549850302427681
v 0.19900015274459504 -0.080969256900881734 0.19014991911294368
v 0.19133632431335074 -0.071217834574577796 0.18069272259997926
v 0.18746506829747184 -0.06627082859044528 0.17573668004110954
v 0.18364335463189496 -0.061226056621625641 0.17067152921773077
v 0.17990562463875637 -0.056095484625582115 0.16551806525039275
v 0.1728889226581985 -0.045773275136296726 0.15558979670225492
v 0.24424540022940069 -0.2020509892439081 0.22073856188788657
v 0.22802125826538167 -0.1313505313479163 0.22142197666860106
v 0.17626697192928883 -0.050815541493016356 0.16039925711663847
v 0.10779122510199088 -0.21044370075442503 -0.12637537382117892
v 0.1695336360793625 -0.040657318115656642 0.15091768927695939
v 0.16615638069874417 -0.035465748551211082 0.14646727403491194
v 0.16272827576590135 -0.03023817939922497 0.14225470610533927
v 0.15926916811875586 -0.024954151583454633 0.13830789524516102
v 0.15583989957186184 -0.019573039586854985 0.13462105846020503
v 0.15248866097450953 -0.014130429932589606 0.13106183796593293
v 0.14630309068667297 -0.0027252362120290712 0.12442839937383643
v 0.14929198265865162 -0.0085337603406390669 0.12765457166849165
v 0.14090502655399534 0.0093800639754692463 0.11846668876145142
v 0.13848208253985911 0.015658825918229431 0.115925016835975
v 0.13414512143653706 0.028477903455655394 0.11206329752546298
v 0.13622368650472569 0.022038828634418743 0.11378515499063226
v 0.13048077319116669 0.041343009818067294 0.10964485376321215
v 0.13219650529169225 0.034894393473526228 0.11061785316535522
v 0.12773856184097754 0.054205539403321179 0.10871910790153172
v 0.12899729604883708 0.047785085988329645 0.10902485062352713
v 0.12580537833098962 0.066943474346501677 0.10887850916170423
v 0.12668810770077391 0.060594578518935668 0.10867454140056351
v 0.12425255833999688 0.079503773165471137 0.10978742936484717
v 0.12500382972902011 0.073246635276093042 0.10923464099988106
v 0.12352710470432432 0.085714274126021672 0.11057509037602267
v 0.12281431422374881 0.091886934324022312 0.11157787808611519
v 0.12202711467389735 0.09805745778463229 0.11261476702866545
v 0.14351326257215349 0.0032529648074686298 0.12134668430520007
v 0.18862491737823581 -0.27627482851581697 0.016798875391981716
v 0.1850156178648833 -0.27414224983837582 0.011082921055808676
v 0.18139230978792775 -0.27201989705212015 0.0057653841093453454
v 0.17779229341158787 -0.27003488601692371 0.00065929397733011184
v 0.17419099904907848 -0.26803105780683401 -0.004302852396731581
v 0.17028597795677997 -0.26587045505246354 -0.009746796660819651
v 0.16642811628447099 -0.26363327625665711 -0.015283286147761799
v 0.16265307534736867 -0.26122275487062718 -0.020935512644792383
v 0.15901029271300091 -0.25861267733914023 -0.026728797284131738
v 0.14616006471537402 -0.24712209529250528 -0.051342261277462345
v 0.14917377618871391 -0.25013764851467679 -0.045089661344246877
v 0.14318279944804274 -0.24408651088825928 -0.057571496328625252
v 0.1401961219047933 -0.24109088811565102 -0.063756135435900502
v 0.13717376201707396 -0.23813970334743473 -0.069882095520143489
v 0.13412251062460195 -0.23526004416764401 -0.075990206728133503
v 0.13103422522011074 -0.23234853364721733 -0.082074822691084501
v 0.12791418939130075 -0.22939720840306793 -0.088192136785630287
v 0.12475111381511314 -0.22638960261055691 -0.094378988748371181
v 0.12152572659207728 -0.2233233451634678 -0.10065464111018005
v 0.11821949550826738 -0.22019747887515856 -0.10701488171624023
v 0.11482469467928737 -0.21701452325382042 -0.11344251833369379
v 0.11134301622438726 -0.21376052456583053 -0.11990381917992134
v 0.10419378968539797 -0.20707379739541198 -0.13283148168220005
v 0.10057975525776938 -0.20365362215961214 -0.13924013321437084
v 0.096988580874888097 -0.20021427687097801 -0.14559323192803583
v 0.093441550821126262 -0.19671331215700827 -0.1518490197918716
v 0.089954912227145786 -0.19313837470365847 -0.15800875204182868
v 0.08652313100336001 -0.18946516220903417 -0.16409096705839332
v 0.083115452547556812 -0.18564210338100995 -0.17011539223499592
v 0.07970153633820809 -0.18167935217238229 -0.1761634291682101
v 0.15555445651205296 -0.25590179316805695 -0.032719168576553187
v 0.15228385275595618 -0.25306317342192197 -0.038853797894242093
v 0.12008174274135547 0.11344599690891288 0.11552465914616061
v 0.1210660431066535 0.10574647302486682 0.1140725415363938
v 0.11912968373803545 0.12112805666313953 0.11704185929457761
v 0.11709741744978247 0.13640068251246079 0.11994149170319765
v 0.11809734775650826 0.12879574942290678 0.11843428025604821
v 0.11481995908723389 0.15139583814591973 0.12273000235643858
v 0.11600592025012105 0.1439417261997134 0.12138035678938738
v 0.11352513434750665 0.15874188415591392 0.12389572892416251
v 0.11213959538145404 0.16594919405779576 0.12481897389730873
v 0.1107714216817299 0.17298883623341937 0.12563634819123892
v 0.10940823364280033 0.17985642730864188 0.12630069381569814
v 0.10801284838804345 0.18656840548995457 0.12677894151087699
v 0.10648978200542031 0.19315456665572875 0.12695127775729972
v 0.10483903859832557 0.19966642069167484 0.12688435644370422
v 0.10310285736703279 0.20617618057826431 0.1267213629930859
v 0.10115969763437212 0.2126829731305907 0.12621621785137482
v 0.099073789870174817 0.21922474208493228 0.12550716253124578
v 0.096777659143844938 0.22574772142201649 0.12447508868181885
v 0.094242750901415762 0.2321836831183611 0.12310327514090169
v 0.091451050292397945 0.23844765907095761 0.1213981227197892
v 0.085127677036745009 0.25014806193667077 0.11709504381922169
v 0.088395355454453872 0.24444286381377389 0.11935724867239426
v 0.07804331492073438 0.26037991364329416 0.11167927761114338
v 0.081644546805420826 0.25543955336233348 0.11449920284138876
v 0.074350715852042282 0.26491522662727518 0.10854855995954878
v 0.070638372104563363 0.26918496769107342 0.10520628978418201
v 0.066925636968507826 0.2731550779434152 0.10153445657955196
v 0.059600877960685403 0.28039028901543706 0.093121223895129682
v 0.063238648339610098 0.27686628387931933 0.097504117402793661
v 0.056012627302184204 0.28366359984706158 0.088330615662550405
v 0.049039737712678194 0.28979650882495939 0.07784104573144647
v 0.045702962320515864 0.29256663860815846 0.072161488036077748
v 0.052484764201549731 0.28682553826157275 0.083244030164819363
v 0.0338006718542209 -0.11806062798775672 -0.22922040751177186
v 0.024303701785765963 -0.097109717823644151 -0.23256930385923821
v 0.021915684291872212 -0.089603914701368331 -0.23295308712443449
v 0.015118409101458678 -0.059070570530288233 -0.23124204056858125
v 0.0051864282817523002 -0.017303159234745319 -0.22025224877275978
v 0.0037926821784286949 -0.010621160771260279 -0.21765655929373143
v 0.027107482025907848 -0.10437998921565084 -0.23181187702069955
v 0.019905970019858318 -0.081945685119112766 -0.2329910863591281
v 0.018182434009027616 -0.074237699757457337 -0.23272121709806914
v 0.016630959955346702 -0.066584945157807968 -0.23211968254298743
v 0.013561558711505113 -0.051741565204634681 -0.23006903043514532
v 0.011915542529291234 -0.044601269716354877 -0.22862033225679484
v 0.0084660007360176561 -0.030784712389168647 -0.22485802062484675
v 0.010205661716628438 -0.037632433245658389 -0.22685565267868385
v 0.0067658156325859607 -0.024017287024128565 -0.22265610458360943
v 0.037541653847512207 -0.12441222827709189 -0.22727321949845641
v 0.076660516772873333 -0.1780030769614222 -0.18149002362633565
v 0.073554836510995633 -0.17409938117263801 -0.18682820510513437
v 0.070379520035546789 -0.1699735004231793 -0.19212734025515338
v 0.067124930687307086 -0.16563777142888206 -0.1973042769018139
v 0.06377285172673014 -0.16108687092705665 -0.20223330608563805
v 0.060315612382966677 -0.15641481295571288 -0.20690083906469528
v 0.056740409314949836 -0.15164719846314503 -0.21127840408675769
v 0.049226834268467308 -0.14153317777341812 -0.2188539506357024
v 0.041417517489514256 -0.13042612179420582 -0.22487605999265947
v 0.030293893690342303 -0.11137401739659791 -0.23071257615806151
v 0.053038880650611853 -0.14669921875638126 -0.21526635900240415
v 0.045336418762227416 -0.13612263048726803 -0.22206159103141143
v -0.0024289054907639454 0.19215400526016146 -0.11163993413087374
v -0.00278422351485633 0.19848492799745904 -0.10775095869200459
v -0.0001379803777142215 0.12688076605728424 -0.1485287761850724
v -0.00036998051762949141 0.13350140044372899 -0.14488081151753995
v -9.6195050601752982e-05 0.093385205778396985 -0.16632914065484605
v 0.00017320357064132909 0.10010978541465591 -0.16285977358540771
v 0.00028821685787656579 0.10683130828213268 -0.1593507271957024
v 0.00025036320442363164 0.11353715202018512 -0.15578103119208353
v 9.011293196047397e-05 0.12022249776792365 -0.15216584128620753
v -0.00057215288406151034 0.14009668856540636 -0.14125293655299626
v -0.0020500147078033773 0.18606521440488891 -0.11536472737248588
v -0.0011711172582999519 0.16659737001716909 -0.1267318457867882
v -0.0014045955706598124 0.17334021937064573 -0.1229034331263219
v -0.0010009656266381861 0.15991492912517524 -0.13043407229610254
v -0.001715473808464841 0.18015053226791194 -0.11891983880067095
v 0.042513479322899617 0.29517209861641019 0.066258591956127599
v 0.031152207898220388 0.30316909229566175 0.039014753880929176
v 0.028837855790816921 0.3041974912054965 0.031846660203027642
v 0.026628923900097298 0.30481764772433528 0.02463450066349205
v 0.022371882620435615 0.30456884617275148 0.010119261560328142
v 0.020334779585201253 0.30363513125241703 0.002843039183913142
v -0.00095518678861851013 0.23273812555986842 -0.086648434391324233
v -0.0019634488644023934 0.22578697327212874 -0.090969075841930799
v 0.011556062501796409 0.28784420476516859 -0.037272095945379488
v 0.0060117309475592167 0.2642655409693635 -0.063614129522006985
v 0.010487963044358232 0.28384799585863874 -0.042923310826747163
v 0.0083506386293255644 0.27476988839891059 -0.05356435155258811
v 0.0072192423104841417 0.26970388635303211 -0.058663469251008911
v 0.00031175564616796022 0.23955302887414659 -0.08227425849250386
v 0.018422365809588333 0.3021657215042669 -0.0043979910939591291
v 0.012626235384293921 0.29156869024534104 -0.031365933370866274
v 0.013807864832707364 0.29487970042014588 -0.025088891811790331
v 0.039326810233412168 0.29769615566553315 0.059760507439509038
v 0.036379905712943847 0.29981657729056732 0.05299917659070677
v 0.024483743706144503 0.30492039458005649 0.017388310417813614
v 0.0032364171766333439 0.25247586753001616 -0.073191560321175103
v 0.0046749631033841188 0.25852491159369495 -0.068466780879517075
v 0.0017498401383709956 0.24614330956163813 -0.077791365901813347
v 0.015148480212271578 0.29776298269838369 -0.018454826318176912
v 0.0094445955916920166 0.27945293567853724 -0.048306204868921523
v 0.016661148643726097 0.30026534675968131 -0.011543381821758545
v 0.0016085761157161489 0.002981150737072009 -0.21197767682495355
v 0.00081806270612627978 0.0099496709574637895 -0.20889131271821915
v -0.00068060110374406496 0.031264780379114759 -0.19877092669669638
v -0.00046317347546459911 0.086645846377050029 -0.16975679707186858
v -0.0015221523684286933 0.059501325787817305 -0.18392127021247806
v -0.00086485767165861253 0.079904221751593174 -0.17320522759040757
v -0.0029784124455364746 0.20503437082565223 -0.10365098454397331
v -0.0014534024379595021 0.052564689326080619 -0.18763882483764205
v -0.0012676397412178927 0.045532012800439281 -0.1913841998399555
v -0.0010041149392153964 0.038421097509543423 -0.19511546152827924
v -0.0012093194217333526 0.073140087873559495 -0.17668955944047621
v -0.00087440372546282723 0.15329081376877532 -0.1340730503434947
v -0.00073857505260206094 0.14668885140192175 -0.13766135922843076
v 0.0026079716023302657 -0.0039409256466578363 -0.2149263267978751
v -0.0014441745001143066 0.066353933866176648 -0.18027070077691404
v 0.0002020978840837958 0.016988300666399565 -0.2056591458689
v -0.00028399607536949668 0.024101099763761069 -0.20228353917219757
v 0.033654585398998196 0.30167886867006333 0.046079098808585087
v -0.0029471478787621384 0.21181378289689157 -0.099451849107524859
v -0.0026318888789057205 0.2187758180166072 -0.095234837249108695
v 0.23794493880323314 -0.23337211527468532 0.21298477161933227
v 0.24430381454155559 -0.23137895704023242 0.21057841680272193
v 0.25994918202979167 -0.22606260983230664 0.2022227186051439
v 0.26715747422245395 -0.22343347446959827 0.19728482176948103
v 0.27382632068613388 -0.22077677151541492 0.19194358980608184
v 0.28003350099569513 -0.21806751714048803 0.18639363437104536
v 0.28575900882905547 -0.21521963229865387 0.18067229001459836
v 0.29094488603998914 -0.21214223520568032 0.17477233324904456
v 0.29570356379206908 -0.20886171552642968 0.16878486822829886
v 0.29992313945480636 -0.20536810755916254 0.16265028885552385
v 0.30648737663018244 -0.19798559230089563 0.14989369684207474
v 0.30882888678137221 -0.19425075567080957 0.14332530356649956
v 0.31055295369392177 -0.19055564177697021 0.13667346407571457
v 0.31168786798149717 -0.18692229553551853 0.12996975582398834
v 0.31224844194089985 -0.18335275739738818 0.1232360364061794
v 0.31228243897003793 -0.17983907052121112 0.11649240126019256
v 0.31193699774721528 -0.17638699118400092 0.10973901952765711
v 0.31117395760721167 -0.17298983977632626 0.10299249502449453
v 0.31006775809346554 -0.16963646855294318 0.096280918294062795
v 0.30860893201926715 -0.16631705594528548 0.089657830405195926
v 0.30500948635709368 -0.15971359247350053 0.076813339640871475
v 0.30094802112916114 -0.15307494566504559 0.064519411366228158
v 0.29878255190511749 -0.14972180482715869 0.058529364256057453
v 0.29649512912580522 -0.14633571077303198 0.052629168201752327
v 0.29415169499033805 -0.14289907561500045 0.046808475399554302
v 0.29171407564911028 -0.13941513186259763 0.041119084519310678
v -0.10932494697969911 -0.17987470081530227 0.088692429266265638
v -0.10225136020166506 -0.17840946983739175 0.088405452834021181
v -0.11641762518185214 -0.18149899625896787 0.088923264490400361
v -0.1237112159217898 -0.18328560643166153 0.0890846934034389
v -0.13104142283767645 -0.18515373339098495 0.089160807626101665
v -0.15307954776901256 -0.19078717797702094 0.088980220186867215
v 0.25233423373512887 -0.22874372115367164 0.2067340936608858
v 0.30354234820987158 -0.2017194569543406 0.1563541053454546
v 0.30689983198871518 -0.16301391187920744 0.08316070539987902
v 0.30302956524303842 -0.15640182484568915 0.070603800144236839
v -0.13839354092707512 -0.18706388932896192 0.089164118558488603
v -0.14574436630520149 -0.18897653773361334 0.089127120009530797
v -0.16037649091717895 -0.19242886286106284 0.088723522829889129
v 0.23149355144717365 -0.23538218905294073 0.21499941116126703
v 0.1975688040503813 -0.24245882287514783 0.21992693886085926
v 0.19064932639672211 -0.24300176093328579 0.22020493906089256
v 0.17688856806964642 -0.24351185899485578 0.22004225440168465
v 0.18375059270480404 -0.24332885330123541 0.22026243069229381
v 0.150047815130568 -0.24346033738560466 0.21549855754228678
v 0.15665625757169732 -0.24359759603926101 0.21723217603791298
v 0.1434884641147442 -0.24319518145773616 0.21338217315256663
v 0.13055771773848424 -0.24196561152586565 0.20781707710037203
v 0.10006408141802407 -0.23412905589760757 0.18679225337184774
v 0.10586718397979832 -0.23622488887289961 0.19167410889674769
v 0.094401909282512811 -0.23182369679531539 0.18173158169721187
v 0.088901673914360366 -0.22932997409485692 0.17654901423498737
v 0.083534773365089576 -0.22670119291404223 0.17132911769298792
v 0.078291988343574884 -0.22397097951793982 0.16611845907354142
v 0.068059278240278409 -0.21825508573151631 0.15585237268252444
v 0.062961353281518084 -0.21523917260441561 0.15084241067062099
v 0.048447771555280336 -0.20621429180998802 0.13767619931646324
v 0.053184700933565032 -0.20921866922305313 0.14178317067406132
v 0.12419013978027527 -0.24096328930810967 0.20440285251637491
v 0.11182332340550623 -0.2380794179917482 0.19628657648745551
v 0.2249198728452142 -0.23731494063390912 0.21663475887360623
v 0.21820264455846256 -0.23904213322370682 0.21786833708584052
v 0.21137955180483037 -0.24049816361530568 0.21878858535028906
v 0.20448828726030693 -0.24163555840790457 0.21945569512229707
v 0.1633314891042662 -0.24363523261115205 0.21856302741615652
v 0.17007774292209674 -0.24360434092550137 0.21949355649315988
v 0.13700336740865596 -0.24269226044990677 0.2107936819990647
v 0.117946567381744 -0.23965751789454071 0.20053521063889657
v 0.07315110509734439 -0.22115615541591932 0.16094911800861381
v 0.057791038749861023 -0.21207910080984771 0.14592815614596358
v 0.043528661106858678 -0.20315859130139713 0.13360652478677232
v 0.033199490204433177 -0.1972989049107676 0.12553005515421606
v 0.03843652140309585 -0.20015393766542466 0.12955595678376219
v 0.016918590132556702 -0.19002062944208964 0.11404261322040138
v 0.022372679676845794 -0.19227362947613269 0.11776902369647502
v 0.0057041477700832521 -0.1858481039503509 0.10717093594476881
v 0.011359903037429356 -0.18791368832435179 0.11053032253688291
v -0.00018800089552634103 -0.18383596172857603 0.1040315139644773
v -0.0063501702166741721 -0.18184488139981264 0.10103399609795187
v -0.080811763666022413 -0.17518056779752905 0.087490755365640674
v 0.27523363751733576 -0.11529954746637261 0.0071378849488826744
v 0.26354633184981774 -0.098590766927775228 -0.015082668929300252
v 0.26654124548639702 -0.10271964016994352 -0.0095611240119587923
v 0.2544880783361354 -0.08604069039185766 -0.031945357889355999
v 0.25149188718012466 -0.081825236322265196 -0.037634211795376141
v 0.24850040078469687 -0.077635201640596813 -0.043341679148232358
v 0.24255696523661879 -0.069498433654894151 -0.054867215615375692
v 0.23957540004586886 -0.065651909961744137 -0.060732089637446432
v 0.23043134703660401 -0.055245942602244982 -0.079227209434386908
v 0.23354282320080127 -0.058530792601087407 -0.07287770322803705
v 0.22722083202255677 -0.052117521427969216 -0.085779931462154554
v 0.22392074783621543 -0.049126195481170046 -0.092531285166599725
v 0.22051102212861218 -0.046278941905086371 -0.099439728768739383
v 0.21699757504399031 -0.043596303178544342 -0.10645428452329914
v 0.20975717712543765 -0.038800382598555339 -0.12056704210133354
v 0.2134062508917747 -0.041100670971675191 -0.11351881310845466
v 0.20606430152951299 -0.036667835412678124 -0.12752893403652113
v 0.19859254937105475 -0.032554615786984556 -0.14095825277957361
v 0.20234259507394053 -0.034625662466554338 -0.13434313273395784
v 0.19093235491585647 -0.027824941931411527 -0.15345628275915962
v 0.19480556617259309 -0.03032135433881069 -0.14734072174755417
v 0.27237840556666887 -0.11101399507701515 0.0014687232234759347
v 0.26947612611305755 -0.10684699355872507 -0.0040610946936420218
v 0.26057263020026894 -0.094424274363249072 -0.020674028694437838
v 0.25755318549218842 -0.090236942328596997 -0.026300908829848951
v 0.24550779641683462 -0.073513086949098527 -0.049073797986874904
v 0.23658748645853261 -0.061992843516415125 -0.066724888823590053
v 0.27960801005659464 -0.12180902589864895 0.015740047713860512
v 0.27736513209349578 -0.11848032429642393 0.011335781209100408
v 0.28925631208906544 -0.13588317292213428 0.035592887063593454
v 0.28680518405862965 -0.13232235622030122 0.030273017997777381
v 0.28436411734922834 -0.12876546897370394 0.025191809549115693
v 0.28194755374224023 -0.12524961046267616 0.020355282604380152
v 0.027841895723940194 -0.19466391562394664 0.12157476845578481
v -0.01288509756826273 -0.17995187482717839 0.098235461966141288
v -0.01982991404763066 -0.178227110044514 0.095700062737606229
v -0.042538155043515199 -0.17470569869528926 0.089941364015776945
v -0.050400249578716874 -0.17422056968234059 0.088791012010607642
v -0.058217299659528321 -0.17406060305722948 0.088011049492788568
v -0.073443209336016946 -0.17457284457295447 0.087433132780264156
v -0.08803986585494164 -0.17603582124240513 0.087727606478952946
v -0.095170832424026755 -0.17711767526328698 0.088058135030096019
v -0.027152001074734977 -0.17675486529404821 0.093460887975586063
v -0.034736800308322012 -0.17553531393217237 0.091466799958100697
v -0.065911295239112766 -0.1741856933998398 0.087568768935862837
v -0.16761864147233135 -0.19388158715938691 0.088406587134755965
v -0.17481032816297276 -0.19511735496984861 0.088001297552496305
v -0.18196527522481903 -0.19612800748404116 0.087437395321894595
v -0.18909881910550608 -0.1970195874855295 0.08677349581903962
v -0.19621589560239938 -0.19776054144961119 0.085821827279857765
v -0.20331117495432649 -0.19841409998924814 0.084575509724402587
v -0.21038788036690281 -0.19904739106775687 0.083099660741698361
v -0.21743109765696611 -0.19956566158597866 0.08129535480715136
v -0.23145054170261437 -0.19991132495172592 0.076662926198882583
v -0.22445142595092477 -0.19990045309803778 0.079172013355851098
v -0.23846780753561719 -0.19955056768347185 0.07380843452657046
v -0.24549720820439322 -0.19877127052874594 0.070546643243852958
v -0.25250032234065278 -0.19757902278714579 0.066818595337222231
v -0.25935273946353288 -0.19596196835953136 0.062527002605794024
v -0.26595950137567753 -0.19400025637457485 0.057710094309230894
v -0.27219647871018865 -0.19176045162939331 0.052428352330823991
v -0.27791675139752137 -0.18927508727002756 0.046762361954388959
v -0.28765602132906209 -0.18382277597331431 0.034846033454464104
v -0.28303437461349229 -0.18659205963017317 0.040838431569255366
v -0.29178424924380486 -0.18097976025689744 0.028838056539364866
v -0.29536222197698769 -0.17804409920705661 0.022790268945098904
v -0.29849613822140186 -0.17503784530220381 0.016733380383532462
v -0.054113907519282106 -0.02511526004965154 -0.19874624565069471
v -0.089495555738788202 -0.036492733830851491 -0.18533334244943303
v -0.19265599052183308 -0.067929964475040017 -0.14459330860420583
v -0.20634927575113488 -0.072246054523872977 -0.13863128336470287
v -0.19947396674875006 -0.07006302692697286 -0.14165888420242789
v -0.04738655918150457 -0.022578609613619217 -0.20107846859376433
v -0.060918093947926154 -0.027596871973723985 -0.19631023615226068
v -0.082160782517831127 -0.034437148907325146 -0.18823842855235864
v -0.074931869042032195 -0.032273575745369515 -0.1910515022828429
v -0.067848077487612846 -0.029991410191849401 -0.19374573143541277
v -0.096888063971119168 -0.038458966099655073 -0.18238954126958518
v -0.10427449943550755 -0.040377441549443296 -0.1794296902585209
v -0.11161212359799391 -0.042293871891779425 -0.17648271463104531
v -0.11888743390182502 -0.044252923470030715 -0.17357715842041208
v -0.12610956365025749 -0.046297239525713921 -0.17072201313814811
v -0.1333081390125494 -0.048456550623334926 -0.16791167622637054
v -0.14052251797173887 -0.050741236102289963 -0.1651275417246682
v -0.14779314983264025 -0.053135677440475093 -0.16235176022483325
v -0.15516425907783965 -0.055589352295170577 -0.15960170085626035
v -0.16260015431931904 -0.058091774018520996 -0.15678648773098577
v -0.17008687818763801 -0.060598608086273653 -0.1538945792264737
v -0.17760425577098443 -0.063075306662002617 -0.15091651805375805
v 0.18694322564635713 -0.025025102006912131 -0.15929644672212684
v 0.17844442411445263 -0.018608642530766439 -0.17042742924708967
v 0.1828427817222098 -0.021953897930392027 -0.16488394235096682
v 0.17382765854150906 -0.015235804466892676 -0.17576966719123852
v 0.1637989274041971 -0.0088063411966783009 -0.18607934320352248
v 0.16895557338113232 -0.011946396988748812 -0.18096975070062171
v 0.14576582936341045 -0.00051823387293451276 -0.20041526012006652
v 0.13140116934647544 0.0041722502947778546 -0.20838021436536483
v 0.1073946834814811 0.009313388387287392 -0.21633356398157649
v 0.090970009839073551 0.010910644634189941 -0.21918355747550744
v 0.082839219171284673 0.011122741127867273 -0.22005520775710352
v 0.074795613908385822 0.010983969861904513 -0.22061621444087975
v 0.066847383593880427 0.010544665623903444 -0.22091362741632126
v 0.058998003948341926 0.0098387451424724118 -0.22097454911261666
v 0.051257887681926392 0.0088682333977981882 -0.22078722109835563
v 0.036196830025554357 0.0061507266077814558 -0.21978921814770574
v 0.028951465844193634 0.0044182897492458031 -0.21902502865071058
v 0.021946301278579529 0.0024910116416340272 -0.21815433863564995
v 0.015219670124424767 0.00041365173951698347 -0.21717246591739381
v 0.0087804954242453222 -0.0017495485135180515 -0.21609582174994618
v 0.1582668700581395 -0.0058552608496535638 -0.19107518424066672
v 0.15224438256665318 -0.0031089577900025129 -0.19585724461205001
v 0.13882473181057595 0.001926866768592933 -0.20465079721719098
v 0.1236227397756383 0.0061988082369923087 -0.21159602924497856
v 0.11557897550186677 0.0079292612639419568 -0.21423271245574715
v 0.099167085928221196 0.010309019059424543 -0.21795391950694787
v 0.043647867271284037 0.007635128580915156 -0.22037510668446619
v -0.30124161199836269 -0.17197102432476119 0.01066590186644422
v -0.30360265991401747 -0.1688323504161803 0.0045908400996887205
v -0.30856111464340807 -0.15976526997058788 -0.012203372787227679
v -0.30724551779373066 -0.16292652416995967 -0.006520593904669492
v -0.30963101543863053 -0.1564518900132644 -0.018009015053885628
v -0.21328311031023572 -0.074562264837394823 -0.13551933915614506
v -0.31041234436638354 -0.1529766988624246 -0.023956933075685975
v -0.22029871390996347 -0.077071442221230635 -0.13239281027838878
v -0.30779002488591056 -0.13426634387890329 -0.0555207402770488
v -0.31085349873595397 -0.14935720838477173 -0.03005104106426728
v -0.30302868205273226 -0.1268102502973607 -0.068125366469646551
v -0.2544203142061664 -0.09342472011842462 -0.11530788085414345
v -0.2606802473125131 -0.096877893350962974 -0.11142796411229425
v -0.30932664768457696 -0.13804330813209459 -0.049060550015705084
v -0.30572924829383519 -0.13052055821146916 -0.061927306818530543
v -0.27240817183733573 -0.10331101486174055 -0.10322605894112999
v -0.26669730800290992 -0.10016253700378416 -0.10741041925520387
v -0.28756909247862977 -0.11271736039100519 -0.089698663607544526
v -0.29196632663634864 -0.11606836134079171 -0.084772767018281903
v -0.27777317135558888 -0.10640085013084731 -0.09886641846182706
v -0.28282133084476463 -0.10951103864955328 -0.094363690980754311
v -0.3056148908200832 -0.1659427798286579 -0.00093473063597495189
v -0.31084428907249884 -0.14562523925631798 -0.03628079811430375
v -0.22730765218513221 -0.079884165910629398 -0.12916860859316209
v -0.23430188546096972 -0.08298715512161145 -0.12590476737875811
v -0.31034684725994699 -0.14183651935047073 -0.042628048504300915
v -0.24119948888953932 -0.086348217794233698 -0.12254182606866118
v -0.29972905887387835 -0.12315058668161202 -0.073997923480244338
v -0.29600646842416756 -0.11955876430742561 -0.079535805256302078
v -0.019942317956165904 -0.012255947773015924 -0.20959626266522552
v -0.012664022332804791 -0.0095627304946586857 -0.2114867767515588
v -0.005150287571675875 -0.0067819142743386282 -0.21326902162577935
v -0.040659177949520939 -0.020028328212538062 -0.20330268828376963
v -0.185124651640278 -0.065517785006167367 -0.14781659025933896
v -0.027001193608656375 -0.014880677428253046 -0.20758387258985259
v 0.0026079716023302657 -0.0039409256466578363 -0.2149263267978751
v -0.033887517415417595 -0.01746314805178497 -0.20547821448937217
v -0.24792364500102998 -0.089871469457793673 -0.11902060612704873
l 106/106 92/92
l 92/92 93/93
l 93/93 88/88
l 88/88 98/98
l 98/98 99/99
l 99/99 95/95
l 95/95 96/96
l 96/96 97/97
l 97/97 89/89
l 89/89 90/90
l 90/90 87/87
l 87/87 68/68
l 68/68 67/67
l 67/67 65/65
l 65/65 64/64
l 64/64 63/63
l 63/63 61/61
l 61/61 62/62
l 62/62 66/66
l 66/66 58/58
l 58/58 59/59
l 59/59 60/60
l 60/60 57/57
l 57/57 13/13
l 13/13 12/12
l 12/12 18/18
l 18/18 17/17
l 17/17 10/10
l 10/10 9/9
l 9/9 3/3
l 3/3 7/7
l 7/7 8/8
l 8/8 11/11
l 11/11 4/4
l 4/4 1/1
l 1/1 2/2
l 2/2 14/14
l 14/14 6/6
l 6/6 5/5
l 5/5 15/15
l 15/15 16/16
l 16/16 29/29
l 29/29 35/35
l 35/35 41/41
l 41/41 39/39
l 39/39 42/42
l 42/42 26/26
l 26/26 40/40
l 40/40 36/36
l 36/36 37/37
l 37/37 30/30
l 30/30 23/23
l 23/23 20/20
l 20/20 21/21
l 21/21 19/19
l 19/19 43/43
l 43/43 22/22
l 22/22 24/24
l 24/24 25/25
l 25/25 27/27
l 27/27 28/28
l 28/28 31/31
l 31/31 33/33
l 33/33 32/32
l 32/32 34/34
l 34/34 38/38
l 38/38 52/52
l 52/52 47/47
l 47/47 49/49
l 49/49 50/50
l 50/50 45/45
l 45/45 44/44
l 44/44 46/46
l 46/46 48/48
l 48/48 56/56
l 56/56 53/53
l 53/53 54/54
l 54/54 55/55
l 55/55 51/51
l 51/51 70/70
l 70/70 69/69
l 69/69 71/71
l 71/71 84/84
l 84/84 86/86
l 86/86 74/74
l 74/74 75/75
l 75/75 72/72
l 72/72 73/73
l 73/73 77/77
l 77/77 76/76
l 76/76 79/79
l 79/79 78/78
l 78/78 83/83
l 83/83 80/80
l 80/80 81/81
l 81/81 82/82
l 82/82 85/85
l 85/85 110/110
l 110/110 107/107
l 107/107 111/111
l 111/111 113/113
l 113/113 94/94
l 94/94 104/104
l 104/104 102/102
l 102/102 103/103
l 103/103 112/112
l 112/112 108/108
l 108/108 100/100
l 100/100 101/101
l 101/101 105/105
l 105/105 91/91
l 91/91 109/109
l 109/109 106/106
l 183/183 197/197
l 197/197 182/182
l 182/182 180/180
l 180/180 181/181
l 181/181 179/179
l 179/179 178/178
l 178/178 177/177
l 177/177 176/176
l 176/176 174/174
l 174/174 175/175
l 175/175 172/172
l 172/172 173/173
l 173/173 171/171
l 171/171 196/196
l 196/196 158/158
l 158/158 157/157
l 157/157 151/151
l 151/151 150/150
l 150/150 149/149
l 149/149 148/148
l 148/148 146/146
l 146/146 147/147
l 147/147 145/145
l 145/145 144/144
l 144/144 155/155
l 155/155 142/142
l 142/142 143/143
l 143/143 156/156
l 156/156 154/154
l 154/154 141/141
l 141/141 152/152
l 152/152 153/153
l 153/153 170/170
l 170/170 169/169
l 169/169 161/161
l 161/161 164/164
l 164/164 162/162
l 162/162 163/163
l 163/163 159/159
l 159/159 160/160
l 160/160 165/165
l 165/165 166/166
l 166/166 167/167
l 167/167 168/168
l 168/168 115/115
l 115/115 114/114
l 114/114 118/118
l 118/118 117/117
l 117/117 116/116
l 116/116 119/119
l 119/119 122/122
l 122/122 125/125
l 125/125 121/121
l 121/121 120/120
l 120/120 124/124
l 124/124 123/123
l 123/123 126/126
l 126/126 138/138
l 138/138 139/139
l 139/139 127/127
l 127/127 128/128
l 128/128 131/131
l 131/131 129/129
l 129/129 130/130
l 130/130 140/140
l 140/140 132/132
l 132/132 133/133
l 133/133 134/134
l 134/134 135/135
l 135/135 137/137
l 137/137 136/136
l 136/136 212/212
l 212/212 213/213
l 213/213 214/214
l 214/214 215/215
l 215/215 216/216
l 216/216 217/217
l 217/217 218/218
l 218/218 225/225
l 225/225 219/219
l 219/219 220/220
l 220/220 221/221
l 221/221 222/222
l 222/222 223/223
l 223/223 208/208
l 208/208 224/224
l 224/224 209/209
l 209/209 206/206
l 206/206 207/207
l 207/207 210/210
l 210/210 202/202
l 202/202 201/201
l 201/201 204/204
l 204/204 203/203
l 203/203 211/211
l 211/211 200/200
l 200/200 205/205
l 205/205 195/195
l 195/195 194/194
l 194/194 193/193
l 193/193 192/192
l 192/192 191/191
l 191/191 190/190
l 190/190 199/199
l 199/199 189/189
l 189/189 188/188
l 188/188 198/198
l 198/198 187/187
l 187/187 186/186
l 186/186 185/185
l 185/185 184/184
l 184/184 183/183
l 306/306 305/305
l 305/305 304/304
l 304/304 303/303
l 303/303 301/301
l 301/301 302/302
l 302/302 300/300
l 300/300 299/299
l 299/299 298/298
l 298/298 297/297
l 297/297 296/296
l 296/296 311/311
l 311/311 294/294
l 294/294 295/295
l 295/295 292/292
l 292/292 293/293
l 293/293 310/310
l 310/310 309/309
l 309/309 291/291
l 291/291 290/290
l 290/290 289/289
l 289/289 288/288
l 288/288 286/286
l 286/286 285/285
l 285/285 284/284
l 284/284 287/287
l 287/287 255/255
l 255/255 254/254
l 254/254 253/253
l 253/253 245/245
l 245/245 244/244
l 244/244 243/243
l 243/243 242/242
l 242/242 241/241
l 241/241 240/240
l 240/240 239/239
l 239/239 238/238
l 238/238 252/252
l 252/252 251/251
l 251/251 237/237
l 237/237 234/234
l 234/234 235/235
l 235/235 236/236
l 236/236 232/232
l 232/232 233/233
l 233/233 246/246
l 246/246 250/250
l 250/250 231/231
l 231/231 229/229
l 229/229 228/228
l 228/228 249/249
l 249/249 230/230
l 230/230 248/248
l 248/248 247/247
l 247/247 226/226
l 226/226 227/227
l 227/227 259/259
l 259/259 260/260
l 260/260 266/266
l 266/266 258/258
l 258/258 269/269
l 269/269 257/257
l 257/257 256/256
l 256/256 267/267
l 267/267 274/274
l 274/274 268/268
l 268/268 273/273
l 273/273 271/271
l 271/271 272/272
l 272/272 275/275
l 275/275 282/282
l 282/282 283/283
l 283/283 277/277
l 277/277 276/276
l 276/276 278/278
l 278/278 279/279
l 279/279 261/261
l 261/261 270/270
l 270/270 263/263
l 263/263 262/262
l 262/262 264/264
l 264/264 265/265
l 265/265 280/280
l 280/280 281/281
l 281/281 334/334
l 334/334 335/335
l 335/335 341/341
l 341/341 336/336
l 336/336 337/337
l 337/337 338/338
l 338/338 339/339
l 339/339 340/340
l 340/340 330/330
l 330/330 331/331
l 331/331 314/314
l 314/314 313/313
l 313/313 332/332
l 332/332 328/328
l 328/328 329/329
l 329/329 315/315
l 315/315 316/316
l 316/316 317/317
l 317/317 318/318
l 318/318 319/319
l 319/319 320/320
l 320/320 321/321
l 321/321 333/333
l 333/333 326/326
l 326/326 327/327
l 327/327 325/325
l 325/325 324/324
l 324/324 322/322
l 322/322 323/323
l 323/323 312/312
l 312/312 307/307
l 307/307 308/308
l 308/308 306/306
l 359/359 362/362
l 362/362 361/361
l 361/361 360/360
l 360/360 357/357
l 357/357 358/358
l 358/358 355/355
l 355/355 356/356
l 356/356 353/353
l 353/353 354/354
l 354/354 351/351
l 351/351 352/352
l 352/352 532/532
l 532/532 534/534
l 534/534 531/531
l 531/531 530/530
l 530/530 529/529
l 529/529 533/533
l 533/533 537/537
l 537/537 538/538
l 538/538 536/536
l 536/536 535/535
l 535/535 539/539
l 539/539 550/550
l 550/550 342/342
l 342/342 551/551
l 551/551 343/343
l 343/343 552/552
l 552/552 576/576
l 576/576 553/553
l 553/553 555/555
l 555/555 554/554
l 554/554 556/556
l 556/556 557/557
l 557/557 558/558
l 558/558 561/561
l 561/561 578/578
l 578/578 577/577
l 577/577 560/560
l 560/560 559/559
l 559/559 562/562
l 562/562 563/563
l 563/563 564/564
l 564/564 565/565
l 565/565 566/566
l 566/566 568/568
l 568/568 569/569
l 569/569 567/567
l 567/567 570/570
l 570/570 571/571
l 571/571 574/574
l 574/574 572/572
l 572/572 573/573
l 573/573 575/575
l 575/575 500/500
l 500/500 494/494
l 494/494 496/496
l 496/496 495/495
l 495/495 493/493
l 493/493 492/492
l 492/492 491/491
l 491/491 490/490
l 490/490 489/489
l 489/489 488/488
l 488/488 487/487
l 487/487 486/486
l 486/486 485/485
l 485/485 484/484
l 484/484 483/483
l 483/483 499/499
l 499/499 482/482
l 482/482 481/481
l 481/481 480/480
l 480/480 479/479
l 479/479 478/478
l 478/478 498/498
l 498/498 497/497
l 497/497 477/477
l 477/477 476/476
l 476/476 365/365
l 365/365 475/475
l 475/475 364/364
l 364/364 474/474
l 474/474 473/473
l 473/473 406/406
l 406/406 405/405
l 405/405 404/404
l 404/404 349/349
l 349/349 346/346
l 346/346 402/402
l 402/402 403/403
l 403/403 413/413
l 413/413 412/412
l 412/412 401/401
l 401/401 399/399
l 399/399 396/396
l 396/396 395/395
l 395/395 394/394
l 394/394 393/393
l 393/393 392/392
l 392/392 411/411
l 411/411 407/407
l 407/407 397/397
l 397/397 398/398
l 398/398 345/345
l 345/345 391/391
l 391/391 390/390
l 390/390 389/389
l 389/389 348/348
l 348/348 400/400
l 400/400 388/388
l 388/388 387/387
l 387/387 410/410
l 410/410 409/409
l 409/409 408/408
l 408/408 386/386
l 386/386 347/347
l 347/347 385/385
l 385/385 344/344
l 344/344 350/350
l 350/350 414/414
l 414/414 420/420
l 420/420 416/416
l 416/416 417/417
l 417/417 421/421
l 421/421 419/419
l 419/419 418/418
l 418/418 415/415
l 415/415 429/429
l 429/429 428/428
l 428/428 438/438
l 438/438 423/423
l 423/423 422/422
l 422/422 425/425
l 425/425 424/424
l 424/424 434/434
l 434/434 435/435
l 435/435 430/430
l 430/430 433/433
l 433/433 431/431
l 431/431 432/432
l 432/432 439/439
l 439/439 436/436
l 436/436 437/437
l 437/437 426/426
l 426/426 427/427
l 427/427 440/440
l 440/440 448/448
l 448/448 441/441
l 441/441 445/445
l 445/445 442/442
l 442/442 443/443
l 443/443 444/444
l 444/444 446/446
l 446/446 447/447
l 447/447 453/453
l 453/453 472/472
l 472/472 471/471
l 471/471 470/470
l 470/470 452/452
l 452/452 450/450
l 450/450 451/451
l 451/451 449/449
l 449/449 455/455
l 455/455 456/456
l 456/456 454/454
l 454/454 457/457
l 457/457 460/460
l 460/460 461/461
l 461/461 458/458
l 458/458 459/459
l 459/459 462/462
l 462/462 463/463
l 463/463 464/464
l 464/464 465/465
l 465/465 466/466
l 466/466 468/468
l 468/468 467/467
l 467/467 469/469
l 469/469 501/501
l 501/501 502/502
l 502/502 503/503
l 503/503 504/504
l 504/504 505/505
l 505/505 506/506
l 506/506 507/507
l 507/507 510/510
l 510/510 508/508
l 508/508 509/509
l 509/509 512/512
l 512/512 511/511
l 511/511 513/513
l 513/513 514/514
l 514/514 520/520
l 520/520 516/516
l 516/516 515/515
l 515/515 521/521
l 521/521 522/522
l 522/522 518/518
l 518/518 517/517
l 517/517 519/519
l 519/519 523/523
l 523/523 525/525
l 525/525 524/524
l 524/524 526/526
l 526/526 363/363
l 363/363 528/528
l 528/528 527/527
l 527/527 548/548
l 548/548 547/547
l 547/547 546/546
l 546/546 545/545
l 545/545 544/544
l 544/544 543/543
l 543/543 542/542
l 542/542 375/375
l 375/375 374/374
l 374/374 549/549
l 549/549 384/384
l 384/384 383/383
l 383/383 382/382
l 382/382 381/381
l 381/381 541/541
l 541/541 540/540
l 540/540 380/380
l 380/380 379/379
l 379/379 373/373
l 373/373 377/377
l 377/377 378/378
l 378/378 372/372
l 372/372 371/371
l 371/371 370/370
l 370/370 376/376
l 376/376 368/368
l 368/368 369/369
l 369/369 367/367
l 367/367 366/366
l 366/366 359/359
l 747/747 748/748
l 748/748 749/749
l 749/749 750/750
l 750/750 754/754
l 754/754 751/751
l 751/751 755/755
l 755/755 752/752
l 752/752 743/743
l 743/743 728/728
l 728/728 753/753
l 753/753 734/734
l 734/734 729/729
l 729/729 730/730
l 730/730 735/735
l 735/735 736/736
l 736/736 737/737
l 737/737 731/731
l 731/731 738/738
l 738/738 739/739
l 739/739 741/741
l 741/741 740/740
l 740/740 742/742
l 742/742 732/732
l 732/732 733/733
l 733/733 810/810
l 810/810 797/797
l 797/797 798/798
l 798/798 812/812
l 812/812 813/813
l 813/813 799/799
l 799/799 806/806
l 806/806 805/805
l 805/805 804/804
l 804/804 801/801
l 801/801 811/811
l 811/811 807/807
l 807/807 802/802
l 802/802 800/800
l 800/800 760/760
l 760/760 761/761
l 761/761 762/762
l 762/762 763/763
l 763/763 764/764
l 764/764 758/758
l 758/758 759/759
l 759/759 765/765
l 765/765 809/809
l 809/809 808/808
l 808/808 769/769
l 769/769 767/767
l 767/767 768/768
l 768/768 770/770
l 770/770 766/766
l 766/766 756/756
l 756/756 757/757
l 757/757 803/803
l 803/803 815/815
l 815/815 816/816
l 816/816 778/778
l 778/778 777/777
l 777/777 784/784
l 784/784 793/793
l 793/793 791/791
l 791/791 792/792
l 792/792 780/780
l 780/780 783/783
l 783/783 782/782
l 782/782 795/795
l 795/795 781/781
l 781/781 779/779
l 779/779 786/786
l 786/786 787/787
l 787/787 794/794
l 794/794 796/796
l 796/796 785/785
l 785/785 776/776
l 776/776 775/775
l 775/775 790/790
l 790/790 774/774
l 774/774 773/773
l 773/773 772/772
l 772/772 814/814
l 814/814 789/789
l 789/789 788/788
l 788/788 771/771
l 771/771 726/726
l 726/726 725/725
l 725/725 727/727
l 727/727 724/724
l 724/724 722/722
l 722/722 723/723
l 723/723 721/721
l 721/721 720/720
l 720/720 719/719
l 719/719 717/717
l 717/717 718/718
l 718/718 715/715
l 715/715 716/716
l 716/716 714/714
l 714/714 713/713
l 713/713 712/712
l 712/712 711/711
l 711/711 710/710
l 710/710 709/709
l 709/709 708/708
l 708/708 707/707
l 707/707 706/706
l 706/706 705/705
l 705/705 704/704
l 704/704 703/703
l 703/703 702/702
l 702/702 700/700
l 700/700 701/701
l 701/701 698/698
l 698/698 699/699
l 699/699 697/697
l 697/697 695/695
l 695/695 696/696
l 696/696 661/661
l 661/661 660/660
l 660/660 659/659
l 659/659 657/657
l 657/657 658/658
l 658/658 655/655
l 655/655 656/656
l 656/656 653/653
l 653/653 654/654
l 654/654 651/651
l 651/651 652/652
l 652/652 649/649
l 649/649 650/650
l 650/650 648/648
l 648/648 647/647
l 647/647 662/662
l 662/662 645/645
l 645/645 646/646
l 646/646 644/644
l 644/644 643/643
l 643/643 642/642
l 642/642 641/641
l 641/641 640/640
l 640/640 639/639
l 639/639 634/634
l 634/634 637/637
l 637/637 633/633
l 633/633 632/632
l 632/632 631/631
l 631/631 630/630
l 630/630 628/628
l 628/628 629/629
l 629/629 626/626
l 626/626 627/627
l 627/627 625/625
l 625/625 624/624
l 624/624 623/623
l 623/623 622/622
l 622/622 621/621
l 621/621 620/620
l 620/620 636/636
l 636/636 619/619
l 619/619 618/618
l 618/618 617/617
l 617/617 615/615
l 615/615 616/616
l 616/616 614/614
l 614/614 612/612
l 612/612 613/613
l 613/613 611/611
l 611/611 635/635
l 635/635 610/610
l 610/610 609/609
l 609/609 608/608
l 608/608 580/580
l 580/580 579/579
l 579/579 581/581
l 581/581 582/582
l 582/582 583/583
l 583/583 600/600
l 600/600 584/584
l 584/584 601/601
l 601/601 585/585
l 585/585 586/586
l 586/586 602/602
l 602/602 603/603
l 603/603 587/587
l 587/587 589/589
l 589/589 588/588
l 588/588 604/604
l 604/604 590/590
l 590/590 591/591
l 591/591 593/593
l 593/593 592/592
l 592/592 594/594
l 594/594 605/605
l 605/605 606/606
l 606/606 607/607
l 607/607 595/595
l 595/595 596/596
l 596/596 597/597
l 597/597 598/598
l 598/598 599/599
l 599/599 663/663
l 663/663 664/664
l 664/664 665/665
l 665/665 666/666
l 666/666 667/667
l 667/667 668/668
l 668/668 669/669
l 669/669 670/670
l 670/670 671/671
l 671/671 693/693
l 693/693 694/694
l 694/694 673/673
l 673/673 672/672
l 672/672 674/674
l 674/674 675/675
l 675/675 676/676
l 676/676 677/677
l 677/677 678/678
l 678/678 679/679
l 679/679 680/680
l 680/680 681/681
l 681/681 682/682
l 682/682 683/683
l 683/683 684/684
l 684/684 638/638
l 638/638 685/685
l 685/685 686/686
l 686/686 687/687
l 687/687 688/688
l 688/688 689/689
l 689/689 690/690
l 690/690 691/691
l 691/691 692/692
l 692/692 744/744
l 744/744 745/745
l 745/745 746/746
l 746/746 747/747
l 988/988 986/986
l 986/986 916/916
l 916/916 917/917
l 917/917 914/914
l 914/914 915/915
l 915/915 913/913
l 913/913 911/911
l 911/911 912/912
l 912/912 910/910
l 910/910 909/909
l 909/909 908/908
l 908/908 907/907
l 907/907 905/905
l 905/905 906/906
l 906/906 923/923
l 923/923 904/904
l 904/904 903/903
l 903/903 922/922
l 922/922 902/902
l 902/902 901/901
l 901/901 900/900
l 900/900 921/921
l 921/921 920/920
l 920/920 898/898
l 898/898 899/899
l 899/899 919/919
l 919/919 918/918
l 918/918 897/897
l 897/897 925/925
l 925/925 924/924
l 924/924 929/929
l 929/929 928/928
l 928/928 927/927
l 927/927 926/926
l 926/926 842/842
l 842/842 841/841
l 841/841 840/840
l 840/840 839/839
l 839/839 838/838
l 838/838 852/852
l 852/852 837/837
l 837/837 851/851
l 851/851 836/836
l 836/836 835/835
l 835/835 834/834
l 834/834 833/833
l 833/833 832/832
l 832/832 831/831
l 831/831 830/830
l 830/830 829/829
l 829/829 828/828
l 828/828 827/827
l 827/827 850/850
l 850/850 826/826
l 826/826 825/825
l 825/825 824/824
l 824/824 823/823
l 823/823 822/822
l 822/822 821/821
l 821/821 820/820
l 820/820 819/819
l 819/819 849/849
l 849/849 818/818
l 818/818 817/817
l 817/817 856/856
l 856/856 877/877
l 877/877 878/878
l 878/878 879/879
l 879/879 880/880
l 880/880 857/857
l 857/857 858/858
l 858/858 860/860
l 860/860 859/859
l 859/859 882/882
l 882/882 881/881
l 881/881 862/862
l 862/862 861/861
l 861/861 863/863
l 863/863 883/883
l 883/883 864/864
l 864/864 875/875
l 875/875 884/884
l 884/884 876/876
l 876/876 866/866
l 866/866 865/865
l 865/865 867/867
l 867/867 868/868
l 868/868 869/869
l 869/869 870/870
l 870/870 885/885
l 885/885 871/871
l 871/871 872/872
l 872/872 886/886
l 886/886 874/874
l 874/874 873/873
l 873/873 887/887
l 887/887 889/889
l 889/889 888/888
l 888/888 930/930
l 930/930 891/891
l 891/891 890/890
l 890/890 893/893
l 893/893 892/892
l 892/892 894/894
l 894/894 895/895
l 895/895 931/931
l 931/931 932/932
l 932/932 939/939
l 939/939 940/940
l 940/940 933/933
l 933/933 934/934
l 934/934 935/935
l 935/935 941/941
l 941/941 936/936
l 936/936 896/896
l 896/896 937/937
l 937/937 938/938
l 938/938 844/844
l 844/844 843/843
l 843/843 845/845
l 845/845 846/846
l 846/846 847/847
l 847/847 853/853
l 853/853 854/854
l 854/854 848/848
l 848/848 855/855
l 855/855 942/942
l 942/942 943/943
l 943/943 944/944
l 944/944 945/945
l 945/945 946/946
l 946/946 947/947
l 947/947 948/948
l 948/948 949/949
l 949/949 951/951
l 951/951 950/950
l 950/950 952/952
l 952/952 953/953
l 953/953 954/954
l 954/954 955/955
l 955/955 956/956
l 956/956 957/957
l 957/957 958/958
l 958/958 960/960
l 960/960 959/959
l 959/959 961/961
l 961/961 962/962
l 962/962 963/963
l 963/963 1013/1013
l 1013/1013 1014/1014
l 1014/1014 1034/1034
l 1034/1034 1016/1016
l 1016/1016 1015/1015
l 1015/1015 1017/1017
l 1017/1017 1019/1019
l 1019/1019 1022/1022
l 1022/1022 1035/1035
l 1035/1035 1038/1038
l 1038/1038 1026/1026
l 1026/1026 1021/1021
l 1021/1021 1027/1027
l 1027/1027 1023/1023
l 1023/1023 1040/1040
l 1040/1040 1041/1041
l 1041/1041 1031/1031
l 1031/1031 1030/1030
l 1030/1030 1033/1033
l 1033/1033 1032/1032
l 1032/1032 1028/1028
l 1028/1028 1029/1029
l 1029/1029 1025/1025
l 1025/1025 1024/1024
l 1024/1024 1050/1050
l 1050/1050 1039/1039
l 1039/1039 1037/1037
l 1037/1037 1036/1036
l 1036/1036 1020/1020
l 1020/1020 1018/1018
l 1018/1018 967/967
l 967/967 968/968
l 968/968 966/966
l 966/966 1046/1046
l 1046/1046 985/985
l 985/985 984/984
l 984/984 983/983
l 983/983 982/982
l 982/982 981/981
l 981/981 980/980
l 980/980 979/979
l 979/979 978/978
l 978/978 977/977
l 977/977 976/976
l 976/976 975/975
l 975/975 974/974
l 974/974 965/965
l 965/965 971/971
l 971/971 972/972
l 972/972 973/973
l 973/973 970/970
l 970/970 964/964
l 964/964 969/969
l 969/969 1045/1045
l 1045/1045 1049/1049
l 1049/1049 1047/1047
l 1047/1047 1042/1042
l 1042/1042 1043/1043
l 1043/1043 1044/1044
l 1044/1044 1048/1048
l 1048/1048 1005/1005
l 1005/1005 1004/1004
l 1004/1004 1003/1003
l 1003/1003 1002/1002
l 1002/1002 1001/1001
l 1001/1001 1012/1012
l 1012/1012 1000/1000
l 1000/1000 999/999
l 999/999 998/998
l 998/998 997/997
l 997/997 996/996
l 996/996 995/995
l 995/995 1011/1011
l 1011/1011 994/994
l 994/994 1010/1010
l 1010/1010 1009/1009
l 1009/1009 993/993
l 993/993 1008/1008
l 1008/1008 992/992
l 992/992 1007/1007
l 1007/1007 1006/1006
l 1006/1006 990/990
l 990/990 991/991
l 991/991 989/989
l 989/989 987/987
l 987/987 988/988
