v -22.634436958582334 -31.165928706805502 51.018360018250931
v -55.272353107473677 2.4732961959162738 72.234347818439119
v -49.992682289021857 -1.2143757110680573 72.507825820351272
v -30.282280412779354 -19.097455729185612 65.793134439786826
v -41.910047722825553 -7.4425203347175177 71.635438292859064
v -44.576063918071995 -5.2641643520468815 72.120820621276408
v -19.541962642167981 -34.664963054379044 18.407369261536481
v -62.247776786486455 7.1208440211749 70.830588828191708
v -21.061446390368594 -35.71107592521939 25.885858597516702
v -36.821921765621916 -12.07611296927222 69.965685846961236
v -34.448392939356062 -14.480479733191945 68.785426082539729
v -21.91234398517598 -34.853055473965654 40.600322958601978
v -22.212173772072859 -32.670880310118406 47.67353079747167
v -26.889534188047669 -23.430042832950434 61.977050813161611
v -24.260632709734249 -27.547872377030238 57.0578387181653
v -28.497545509442411 -21.314409312544583 64.052267446576195
v -21.494422486356605 -35.947504738505287 29.604722818121488
v -16.091026299999999 -32.830654099999997 7.0604334
v -52.668850891700167 0.67604451146703437 72.444973126383658
v -18.510042327157908 -33.998571718668117 14.642666215002556
v -60.086943031886875 5.7173773066774389 71.368337762011606
v -57.753029067668677 4.1634115038427897 71.84316271424467
v -21.743419463200311 -35.89088242846389 33.302571425299092
v -39.316251754506666 -9.7221847987597201 70.926364359098088
v -17.355476566210001 -33.444358691410272 10.842949159703513
v -21.852190000297643 -35.539257770697546 36.972823825137411
v -23.313457164151302 -29.434624884926272 54.159340881204528
v -47.284399988834338 -3.1962099418749865 72.425817828164327
v -32.221398852962693 -16.867000446125239 67.335993602395376
v -20.400064757171251 -35.336522942132333 22.144287239501665
v -22.006523670609774 -33.864884458764458 44.168887066528953
v -25.465388655909603 -25.522026355543804 59.657401326762958
v -64.233624880548632 8.3783034277671753 70.255363201177204
v -66.066448574891083 9.5193705659110641 69.638397477597351
v -67.819000250000002 10.59561635 69.023284899999993
v 61.960185287610742 83.103047831772514 0.16654690036137348
v 63.86748149931978 80.478219078302061 1.705653560407246
v 80.402973373743379 23.228714692734741 18.695661749015297
v 76.154566581497761 51.882071695182816 13.932804479475347
v 73.141479725638632 -14.728365935240443 18.637462261982549
v 55.950821407442795 90.085930718697526 -4.9901582650649949
v 71.630346857189693 -18.011267792172571 18.460684250571461
v 53.284865371186314 -44.167457784601574 14.553027788829239
v 37.216297894294179 -57.641100379033773 8.0050739588843669
v 65.677373707196324 77.711140554765763 3.2002067652726902
v 77.607022624284582 -1.3658699130730305 19.19378455605284
v 79.220944594663266 37.716379837805832 16.925513238831183
v 74.108083256054542 58.723304074214255 11.792620625356854
v 69.971060409014342 -21.241332922006563 18.268075531205479
v 59.991840555773557 85.590697519649353 -1.4423747701930534
v 71.742282385383518 65.417530304315505 9.1355673158645541
v 47.930268341704732 96.905539542221589 -13.188216829116834
v 28.611330682964336 -62.738546937176125 3.3525867287773492
v 25.731302300000003 -64.222122200000001 1.6809320000000005
v 62.254262061141574 -33.405251439273798 17.020740334179401
v 60.131724807524144 -36.225693336488874 16.511516754772074
v 66.27849227019199 -27.484299643641407 17.766773402642336
v 80.05212090825006 30.435511397084053 17.966427556509863
v 49.911206394840022 95.535012334099093 -11.070364355312588
v 70.407807222460576 68.658556486029681 7.6758548623545346
v 42.816813133421412 -53.521743890893106 10.626222942651982
v 79.561752346984278 9.0800014175777495 19.278429953787292
v 34.36136112642027 -59.468308219379523 6.5206214909056133
v 74.477580879383538 -11.400573625831836 18.788247201400438
v 64.30826457109373 -30.493936195275282 17.441985795811753
v 57.936825356950102 -38.957940097870534 15.924630970125795
v 79.980217499451157 12.610259466532174 19.226170172752163
v 80.240195658879969 16.136928705736029 19.100699055094928
v 53.925300024857052 92.087778771220599 -6.9347088498395415
v 75.157523766211796 55.310696543156496 12.922308045602637
v 40.03953780587004 -55.653846124607526 9.3787667363652858
v 45.991843468866527 97.999333237628889 -15.273282092923242
v 44.152045346681554 98.892315498054188 -17.270441433310886
v 80.276758280782246 26.814808859789892 18.362787317368095
v 77.876262846425433 44.891505452980127 15.579950155471105
v 78.352620527318678 1.9692854129759303 19.259608156918389
v 51.912011028500501 93.915614307150463 -8.9712020485010502
v 48.220742642588249 -49.023055276530613 12.831032972795308
v 79.694543244625137 34.075097269198842 17.479555679846442
v 76.707598115320195 -4.7080044858614691 19.077447051435726
v 45.550920123937409 -51.314881035537013 11.788118172569771
v 75.65336119179662 -8.0516487642785037 18.926517860001141
v 55.667753916841939 -41.616126433889015 15.285111436971853
v 68.18776680344331 -24.408315229844952 18.052345170611368
v 72.970169186430184 62.096506610095986 10.519744019980628
v 68.951540806900027 71.793603019502953 6.1802683536547454
v 77.052049715370885 48.406675530313748 14.799931677295174
v 67.380133277505507 74.818986615659369 4.6900493006615962
v 80.37460322559167 19.671366970553816 18.922741421962229
v 79.02307721266493 5.5332488418659729 19.292426103652396
v 50.804737402523259 -46.64227574331062 13.749272538843275
v 42.416775480940984 99.579936140437241 -19.166692857975178
v 78.604835712306993 41.32624145993077 16.285604685440418
v 57.968148677460036 87.901843550319342 -3.16691004275767
v 31.49012829979204 -61.169025835625945 4.9735438241853487
v 40.774784361506903 100.10080391633173 -20.972494517671755
v 39.189233799999997 100.5304184 -22.724122049999998
v -17.34874580430327 -3.92067023251394 71.683783821667362
v -20.190072578374533 -6.4940044575640368 71.148938360033284
v -105.58152038202803 -84.670272864932173 -21.046948989546507
v -99.664776202558016 -71.529784639266325 3.9126551260381399
v 7.967534108738346 8.9916477050391528 69.018952326184092
v -48.705352635930694 -28.669193006812293 59.775888985335285
v -26.008486655226157 -11.735528474550939 69.568215928136411
v 139.21081322547522 -6.4450842666002348 -63.204272825772051
v 115.41591343639897 -3.1711603942379227 -30.175819373849027
v -56.826964180292435 -34.345540779523247 54.775321384578376
v 21.889663570394116 9.6507972540729945 63.877358899488513
v 25.388361145738077 9.2959253564319511 62.212715113274825
v 146.49169149985761 -8.4278688503655701 -72.508340428756043
v 69.383571318114676 2.4713128087991136 28.901266806271369
v -23.063601896288112 -9.1239429588320355 70.457095521014921
v 107.05794648949365 -1.5076827385378824 -18.104476050413211
v -67.532856215307277 -42.247261960658257 46.561417237359329
v -100.67360138267742 -73.609911283519182 0.29838670463658412
v 11.454168578422866 9.5043285054709692 67.949843025929724
v 42.550260345203078 6.4667603915344181 51.979635715994561
v 128.45363073487266 -4.5762639092759301 -48.642221940379699
v 130.46908663744989 -4.6709672404039004 -51.382554954358341
v 97.583979531257455 -0.16476490957342699 -4.8627407928844946
v 92.760895890780859 0.53043337847514294 1.5865234854524606
v -8.6208163649940346 2.8245880834978956 72.118576342789225
v 35.889871392288946 7.6529815581770055 56.392210624831947
v -85.467120501584787 -55.600027840693528 29.161026532770194
v 104.7377817339304 -1.1729597996806549 -14.808432210504996
v -54.138287670550582 -32.419265419830822 56.530508326569475
v -77.980934002657932 -49.930013282191865 36.992346739515128
v 87.977940936248174 1.1405090429573597 7.7644286616045459
v 109.33471993746849 -1.8732396595015617 -21.352848075748099
v 80.806977088119936 1.8101677983935183 16.462676947226516
v 141.5732545191367 -7.1032789106865009 -66.303556652556196
v 75.411726698205669 2.1302333470630583 22.534637644135024
v 72.417474013654726 2.2883497607200542 25.767078069361062
v 102.3722147772703 -0.84520610450471145 -11.491377972635263
v 124.60818509179207 -4.5847157247987038 -43.357925369184287
v -75.411760738976966 -48.055070137432736 39.477328744418266
v -87.82246910677604 -57.440086614986697 26.324022720296099
v -90.056503220978527 -59.324355989362054 23.411762432838671
v 149.05339050000003 -9.0834732000000002 -75.560790999999995
v -104.78648380000003 -94.925148000000007 -45.554542499999997
v 51.728996748230124 4.7789339763169085 45.031044021172022
v 48.7735253849103 5.3238854315342925 47.393798952959685
v -106.6154710829756 -89.257187217403441 -30.932920413191471
v -106.48510674883936 -87.813448575685015 -27.689145044342183
v -29.051913424165598 -14.310052268741387 68.516243530478718
v -104.11709310514371 -81.231367183365904 -14.199126646091418
v -106.23442674682545 -91.872970979065059 -37.114474381959639
v 136.9113636639805 -5.82801715869304 -60.145434413100851
v 117.27184036845438 -3.6326084041564277 -32.896935092663924
v -102.45588788377052 -77.583195719635967 -7.0249484856538844
v -2.2823909664253579 6.0562619746551496 71.403249217138608
v -11.610289539905809 0.80616652145985968 72.152221037751644
v 132.53562677718156 -4.9063558181517593 -54.223544519559539
v -94.036711095572059 -63.252494440156696 17.35920325787022
v -101.59084465272196 -75.655787347157883 -3.3512326241630874
v 134.68851896319222 -5.3006486152583632 -57.143414434304972
v 113.51093835643249 -2.7096410736216141 -27.394753782212796
v 120.91570972209982 -4.3504027303135242 -38.182098920545727
v 119.09154265377416 -4.0413828424268559 -35.566936305164916
v 28.909378837769445 8.8095222379285367 60.410475720301086
v -83.020636967715291 -53.665417435161345 31.826141342949949
v -14.504049041125281 -1.4625291203063469 72.016858385241136
v 85.592433250213716 1.3985893700307863 10.731212725082834
v -103.29545273357293 -79.461690845878252 -10.639407493205535
v 143.99869287935525 -7.7686910895935544 -69.414838809363829
v -95.731380200145324 -65.271290530271074 14.171381529862916
v -106.51730670837111 -90.634930562023968 -34.076191345679135
v 122.74889897362078 -4.5277111567395654 -40.770957310411788
v 83.208015135855845 1.6217514460688127 13.625892206832344
v 60.407002557835838 3.3554715161829223 37.520034470279242
v 78.352620527318678 1.9692854129759303 19.259608156918389
v -97.222500146718744 -67.324545250287301 10.860983484464011
v -80.520011802142378 -51.800229662566039 34.449256337376013
v 90.351971240214993 0.8529693277631657 4.7039558429766037
v 63.348129405647221 2.9954290459250927 34.7816485890284
v 126.50793056533888 -4.574656152326078 -45.971072993228773
v 45.717311790717261 5.8887854928827181 49.704546544199722
v 54.634847802046487 4.2583502768935961 42.625348784708038
v 57.519480884859931 3.7778099129306679 40.136602830401884
v -92.14013381730814 -61.272902929204662 20.436538678114349
v -106.12816233629937 -86.300501746970212 -24.38073167995254
v 66.35031323583749 2.7013961626866987 31.912360965683579
v 111.55449810301232 -2.2859609850459819 -24.547877561836497
v -105.821986455196 -92.959313127487917 -40.035391766952202
v 4.4924747760783719 8.2490381491400946 69.956086698610051
v -5.5175032797782126 4.579188430250964 71.851700062120926
v -32.221398852962693 -16.867000446125239 67.335993602395376
v -70.18481644811007 -44.182691641961398 44.238463563263196
v -37.581012906578295 -20.90768286115209 65.166135108718578
v -40.361111505031488 -22.936420139070361 63.994979557455451
v -98.524981687389186 -69.410085750590852 7.4328742196548978
v 18.39952142154926 9.8283322607546317 65.363376643303354
v -43.160677343767077 -24.85253121956513 62.631136079267002
v -62.186547824772035 -38.219305248285707 50.839835460247762
v 14.922067447481036 9.7863741775300337 66.709088093073206
v -34.849579124202428 -18.896246076117002 66.309568559129616
v 95.176863822799902 0.18614899354869463 -1.6031181958434937
v 99.983541376182387 -0.51055517237883896 -8.1681047208711597
v 39.269523365141104 7.0568383853382972 54.213294379305708
v 32.416141471430834 8.2489636272415012 58.452916738273473
v -45.945049366983802 -26.797932488430916 61.274067775531584
v 1.0683671948755136 7.2715051165111397 70.776736774346602
v -72.813002350422693 -46.153031479732775 41.902852441243411
v -64.863367669258025 -40.24893747336273 48.763664611025959
v -51.434213751829894 -30.572853560869831 58.239595771825748
v -59.508291463845616 -36.266980396027584 52.865484133224754
v -104.88971129320197 -82.995554341357007 -17.651090552922149
v -105.32494376432135 -93.960505647891324 -42.833759357182117
v 109.9481154583645 47.175973635882002 -29.273589177826629
v 90.462801480715498 82.121294694131123 -47.600439661967023
v 101.6132226154096 -39.181029908812064 -29.073029073461367
v 94.797148779607042 -60.281702375636257 -37.838548728724909
v 92.552657056817282 -66.333741013233265 -41.158295894480787
v 108.00539608373739 54.17146119938532 -31.48785127165317
v 87.888068448650372 -76.72259264229865 -48.197903348745101
v 91.40355051348007 -69.151166231425648 -42.847421098286631
v 73.267418572257128 88.555972548590148 -62.809995326960632
v 70.138893100000004 88.450622600000003 -65.229492199999996
v 101.04851518474652 69.496565455935567 -38.077025439004714
v 95.181338803395803 77.5055802240568 -43.283381126761846
v 111.44474306395276 39.800305114102372 -27.363455786262854
v 112.41316725405406 32.277124287677566 -25.900212726076496
v 92.914299434880036 79.93396119091426 -45.350247292695023
v 86.664215100000007 -78.984062199999997 -50.102016399999997
v 112.72985633938734 28.54792133010125 -25.34785095082708
v 112.93359207390989 24.858735124745159 -24.931044972346648
v 104.1930437276484 63.68640057253446 -35.252722047842184
v 87.859818799962483 84.036834951860754 -50.005922943906043
v 85.149243229687329 85.679949723722785 -52.527443476941741
v 103.90591802914358 -31.656631374502297 -27.133573771505411
v 98.141137588072098 -50.216029973671588 -33.060553443816431
v 109.22958597221853 -13.153025176952855 -24.895679391150647
v 93.673879407119045 -63.366890352683583 -39.499740214230783
v 108.24613388394792 -16.828039422605819 -25.102621223751949
v 79.353798529740317 87.800184856713116 -57.725360794915304
v 89.061375801980546 -74.329462390904467 -46.364648638152978
v 95.910314187471883 -57.062639179691885 -36.196626398287222
v 113.06306855476666 21.201910198078309 -24.627601447020925
v 97.014274431375298 -53.701046909888646 -34.601086202150981
v 107.20515234869535 -20.513691309746921 -25.404357046630189
v 113.11268171689431 17.540706332374828 -24.434085268136251
v 112.89705554954649 9.9988999202330078 -24.330597361786644
v 105.57571165497961 60.634599216741627 -33.950112441098298
v 90.231358228262039 -71.80990278003776 -44.58368236667382
v 100.44669405974345 -42.925036381379414 -30.274917742065032
v 110.75667649652772 43.523017837491729 -28.272181468736328
v 111.55449810301232 -2.2859609850459819 -24.547877561836497
v 99.247376546619776 72.260001935940608 -39.661749459521815
v 110.12999165843317 -9.4977592657582299 -24.749002489396183
v 112.15250942675425 1.9268431694449373 -24.453760861349693
v 102.76501222945879 -35.413569962343686 -28.026087226230999
v 112.59571326410216 6.0342036756936741 -24.377478937543291
v 82.3039109831806 86.933525165165491 -55.120821985814672
v 111.99080513093985 36.037921353819002 -26.572507200669335
v 110.91166322862466 -5.8723664928736508 -24.6395926927833
v 97.301941347937543 74.945739218460943 -41.386532531254623
v 109.02894623972983 50.731766573834349 -30.350406918127746
v 102.69484121713205 66.641483455319218 -36.616270378788904
v 106.84801836060208 57.46849980371605 -32.694291788959738
v 99.288201496746041 -46.61632299268468 -31.608827150244178
v 76.341092969767288 88.345863331354892 -60.300988670635746
v 105.02499706615305 -27.920610650521922 -26.404686016678347
v 106.12722131372635 -24.209063311090471 -25.831380814059912
v 113.05107222781587 13.823552098740464 -24.350020491970362
v -147.41574100000003 -99.623748800000001 -72.303230299999996
v -149.13717650000001 -97.076736500000038 -71.648109399999996
v 94.008499099999995 79.552688599999996 -74.436210599999995
v -52.759475700000003 -40.046211200000002 -74.555084199999996
v -53.071868899999998 -41.851528199999997 -72.573493999999997
v 49.937145200000003 97.873634300000006 -38.056263000000001
v 13.303277 -53.572361000000001 7.9450808000000004
v 16.2375145 -56.067176799999999 6.7383828000000001
v 140.6760864 -36.047622699999998 -75.522521999999995
v 70.138893100000004 88.450622600000003 -65.229492199999996
v 127.3546753 57.420642899999997 -74.996986399999997
v 134.68539430000001 -46.599895500000002 -75.463729900000004
v 136.83442690000001 -43.180023200000001 -75.486976600000006
v 81.154403700000003 83.372024499999995 -74.266723600000006
v 77.152259799999996 84.114219700000007 -74.254638700000001
v -102.4858856 -28.943224000000001 41.491592400000002
v 5.1597923999999997 -46.873096500000003 10.280057899999999
v -135.3597412 -73.754188499999998 -24.594804799999999
v -141.3468475 -83.399108900000002 -43.104343399999998
v -142.4104462 -85.133567799999994 -46.6195412
v -6.8527436000000002 -38.093189199999998 10.313845600000001
v -4.6453156 -39.575488999999997 10.656713500000004
v 72.472282399999997 87.062797500000002 -68.256683300000006
v 87.664382900000007 81.729171800000003 -74.335578900000002
v 85.065704299999993 82.456001299999997 -74.310836800000004
v -107.581543 -35.237426800000001 34.328895600000003
v 34.069957700000003 -71.041191100000006 -3.9045897000000007
v 36.810291300000003 -73.118469200000007 -5.9745172999999996
v -100.4954529 -26.5189381 44.053466800000002
v -114.62339020000002 -44.252448999999999 22.811992600000007
v 130.09260560000001 54.474601700000001 -75.053939799999995
v -109.41403200000003 -37.531242399999996 31.533424400000001
v 97.735931399999998 78.0343704 -74.486457799999997
v 138.82275390000001 -39.650913199999998 -75.506118799999996
v 90.213546800000003 80.924850500000005 -74.374610899999993
v 8.2577543000000002 -49.369182600000002 9.5975245999999999
v -143.44982909999999 -86.867507900000007 -50.1682396
v -149.99998470000003 -98.751205400000003 -75.259765600000009
v -9.1683377999999998 -36.621387499999997 9.7584447999999995
v -134.16099550000001 -71.884574900000004 -21.1772995
v -140.26748660000001 -81.6327438 -39.5877075
v 132.3948517 -49.953872699999998 -75.441284199999998
v 127.3702469 -56.281143200000002 -75.353851300000002
v 129.1096191 -54.231246900000002 -75.394828799999999
v 18.889318500000002 99.183166499999999 7.3588610000000001
v 20.371667899999998 99.622421299999999 5.1375998999999997
v 24.083259600000002 100.4563065 -0.41415410000000002
v 26.3241844 100.80313870000001 -3.7682076000000002
v 42.2417564 99.977371199999993 -27.153335599999998
v 30.078439700000001 101.09294130000001 -9.3553409999999992
v 32.3446274 101.12265010000002 -12.7140656
v 63.126052900000005 92.275421100000003 -56.045120200000014
v 149.05339050000003 -9.0834732000000002 -75.560790999999995
v 149.56829830000001 -5.0673355999999998 -75.556976300000002
v -35.019695300000002 -28.3079319 -14.079722400000003
v -32.959865600000001 -28.2492886 -10.459854099999999
v -104.43571470000001 -31.336805300000002 38.864780400000001
v -105.70965579999999 -32.909530599999997 37.073238400000001
v -26.754098899999999 57.720764199999998 62.730556499999999
v -29.093669899999998 54.792480500000003 64.237754800000005
v -30.6806622 52.825054199999997 65.162239099999994
v -33.097572300000003 49.845245400000003 66.434844999999996
v -12.666579199999999 75.017044100000007 50.333145100000003
v -14.826605799999999 72.470222500000006 52.6033592
v -80.240554799999998 -3.1080787000000001 62.980785400000002
v -82.694503800000007 -5.8481059000000002 61.324409500000002
v 124.4938812 60.262027699999997 -74.920059199999997
v 53.811153400000002 96.474693299999998 -43.422756200000002
v 52.253784199999998 97.064514200000005 -41.276454899999997
v -116.27778630000002 -46.426998099999999 19.819765100000001
v -117.3622665 -47.871334099999999 17.786871000000001
v 46.093578299999997 99.050842299999999 -32.623737300000002
v 44.553951300000001 99.453514100000007 -30.428522099999999
v -139.174057 -79.849151599999999 -36.106258400000002
v -42.066833500000001 -29.820421199999998 -30.477779399999999
v -41.143768300000005 -29.462568300000001 -27.92381670000001
v -43.373054500000002 -30.4393101 -34.349380500000002
v -44.598007199999998 -31.1282043 -38.233627300000002
v -120.516655 -52.089519500000002 11.604477899999999
v 10.319556199999999 -51.0680008 9.0000686999999999
v 137.45114140000001 44.864795700000002 -75.202835100000001
v 135.16522219999999 48.175186199999999 -75.159210200000004
v 149.87139890000003 -1.0336246 -75.548362699999998
v 149.99998470000003 3.0009198000000001 -75.5354691
v -89.513237000000004 -87.274269099999998 -43.5678062
v -92.934295700000007 -89.309272800000002 -43.608726500000003
v 38.429187800000001 100.64672090000002 -21.619823500000003
v 36.902126299999999 100.83543400000003 -19.389167799999999
v -69.145683300000002 9.1456994999999992 68.584770199999994
v -71.7637024 6.2660751000000001 67.533187900000001
v 81.6475449 -80.488586400000003 -45.793750799999998
v 83.655937199999997 -79.919899000000001 -47.530139900000002
v -61.124839800000004 17.914325699999999 70.742599499999997
v -63.81938550000001 14.9668112 70.19416050000001
v 86.664215100000007 -78.984062199999997 -50.102016399999997
v -77.842018100000004 -78.717872600000007 -45.433727300000001
v -79.8388214 -80.383903500000002 -44.868366199999997
v -24.449777600000001 60.614108999999999 61.107501999999997
v 108.72113040000001 -70.0902557 -68.173919699999999
v 111.7251282 -68.668106100000003 -70.524810799999997
v -96.343315099999998 -21.574459099999999 48.943519600000002
v -98.440864599999998 -24.062051799999999 46.535324099999997
v 145.2573395 -24.807607699999998 -75.554534899999993
v 146.4741669 -20.944204299999999 -75.561050399999999
v 98.690872200000001 -74.521591200000003 -60.137977599999999
v 101.69829559999999 -73.254829400000006 -62.583034499999997
v 50.925117499999999 -80.813041699999999 -17.9564743
v -122.0260239 -54.177242300000003 8.4538163999999991
v -17.001569700000001 69.850212099999993 54.772266399999999
v -18.467779199999999 68.063850400000007 56.1450958
v -55.7188339 23.8527241 71.349609400000006
v -58.425624800000001 20.878650700000001 71.139404299999995
v -108.394165 -96.250862100000006 -46.633392299999997
v -104.78648380000003 -94.925148000000007 -45.554542499999997
v -20.687538100000001 65.313713100000001 58.104343399999998
v 114.73675540000001 -67.208465599999997 -72.869079600000006
v 117.7618332 -65.704223600000006 -75.189369200000002
v 119.8111801 -63.937160499999997 -75.220771799999994
v 28.536298800000001 -66.573554999999999 -0.079281799999999999
v 31.295070599999999 -68.858543400000002 -1.9308451000000004
v -8.3740368000000007 79.808372500000004 45.470687900000001
v -10.513704300000002 77.453880299999994 47.949745200000002
v -48.534599300000004 31.840730700000002 71.106590299999993
v -45.865207699999999 34.847145099999999 70.720619200000002
v -86.171005199999996 -85.105018599999994 -43.748249100000002
v -74.353080700000007 3.4113019000000002 66.344734200000005
v -76.057685899999996 1.5364776 65.465171799999993
v -144.44572450000004 -88.616668700000005 -53.726608300000009
v 147.50195310000004 -17.0264816 -75.5626678
v 148.37528990000004 -13.0738106 -75.561798100000004
v -127.2689819 -61.609329199999998 -3.3468339
v -128.1833038 -62.922714200000001 -5.5422200999999998
v -129.08949279999999 -64.221809399999998 -7.7527618
v 40.5207367 -75.645668000000001 -8.9194583999999999
v 43.330573999999999 -77.328125 -11.266123800000001
v 145.86650090000001 28.093376200000002 -75.401214600000003
v 144.42495729999999 31.8644295 -75.365737899999999
v 141.55482480000001 37.926704399999998 -75.2939911
v 139.5956573 41.459648100000003 -75.250541699999999
v 148.6721039 17.730070099999999 -75.480041499999999
v 147.8163452 21.6766796 -75.453826899999996
v 104.9896011 74.472717299999999 -74.589248699999999
v 108.4669037 72.460853599999993 -74.649688699999999
v -38.583160399999997 -28.739578200000011 -21.5641003
v 130.79438780000001 -52.1020088 -75.417465199999995
v -45.721347799999997 -31.8817673 -42.106861100000003
v -46.783004800000001 -32.691638900000001 -46.006755800000001
v -43.234317799999999 37.842472100000002 70.159210200000004
v -40.625747699999998 40.849357599999998 69.456535299999999
v -36.866252900000006 -28.430730799999999 -17.780759799999998
v 21.8514099 99.998260500000001 2.9314268000000001
v -16.091026299999999 -32.830654099999997 7.0604334
v 78.643364000000005 -81.237319900000017 -43.155586200000002
v 75.639999399999994 -81.895729099999997 -40.5079536
v 142.3554077 -32.366874699999997 -75.536499000000006
v 143.89466859999999 -28.620817200000001 -75.545463600000005
v 34.619018599999997 101.02708440000001 -16.056764600000001
v 27.820651999999999 100.9599686 -5.9949311999999999
v 89.670646700000006 -77.975631700000008 -52.649021100000013
v 92.678451499999994 -76.887687700000001 -55.173828100000009
v 115.1918793 67.990943900000005 -74.758834800000002
v 111.874855 70.311676000000006 -74.711769099999998
v -66.492317200000002 12.045533200000005 69.461799600000006
v -74.962043800000004 -76.140770000000003 -46.479839300000002
v -72.210578900000002 -73.499427800000007 -47.7016335
v -144.75164790000002 -100.26472470000002 -69.444862400000005
v -142.85127259999999 -100.60401150000004 -67.579139700000013
v -147.63502500000001 -94.286384600000005 -65.643661499999993
v -148.2277679 -95.418113700000035 -68.032714799999994
v -1.2922159 -41.958725000000001 10.8411589
v 23.881717699999999 -62.623397800000014 2.7992436999999999
v 25.731302300000003 -64.222122200000001 1.6809320000000005
v 101.3974152 76.325393700000006 -74.536697399999994
v 46.1421852 -78.8313141 -13.694443700000001
v -124.90499880000002 -100.33110050000005 -54.067085300000002
v -121.4472809 -99.759582499999993 -52.147953000000001
v -91.994232199999999 -16.481628400000002 53.483737900000001
v 143.3489075 34.308734899999997 -75.335098299999999
v 147.1179199 24.2557449 -75.433998099999997
v -140.9267883 -100.83487700000001 -65.764099099999996
v -137.9289551 -101.05367280000003 -63.1764565
v -35.555946400000003 46.8494606 67.588661200000004
v 149.63861080000001 11.0850344 -75.515762300000006
v 149.331604 13.7440281 -75.504417399999994
v 149.91206360000001 7.0416350000000003 -75.527221699999998
v 56.139972700000001 95.528343199999995 -46.598411599999999
v 95.685768100000018 -75.735565199999996 -57.667121899999998
v 103.7034836 -72.3777008 -64.194328299999995
v 105.70851140000001 -71.481246900000002 -65.797027600000007
v 18.195732100000001 -57.741554300000004 5.8322639000000001
v -47.765686000000002 -33.5606346 -49.897674600000002
v -102.39965060000003 -93.949249300000005 -44.959495500000003
v -99.999160799999999 -92.897949199999999 -44.473724400000016
v -51.218032800000003 28.8361053 71.347366300000004
v -53.009113300000003 26.833742099999998 71.411201500000004
v 74.801658599999996 85.617790200000016 -71.252990699999998
v -82.957321199999996 -82.797958399999999 -44.2007713
v -132.92263790000001 -70.008247400000002 -17.782514599999999
v 16.698308900000001 98.405830399999999 10.660304099999999
v 14.511381099999999 97.514572099999995 13.931499499999999
v -94.190330500000002 -19.045177500000001 51.255210900000002
v -138.06555180000001 -78.026916499999999 -32.6241226
v -48.691803 -34.468570700000001 -53.795444500000002
v -49.277534500000002 -35.104702000000003 -56.404796599999997
v -69.625015300000001 -70.789161699999994 -49.123214699999998
v -67.178687999999994 -68.037994400000002 -50.704521200000002
v -65.641548200000003 -66.179077100000001 -51.857181500000003
v -40.1602058 -29.139890699999999 -25.352951000000008
v 38.674217200000001 -74.426910399999997 -7.4322065999999998
v -77.748237599999996 -0.33698080000000002 64.519103999999999
v 122.75562290000001 -61.165866899999997 -75.268821700000004
v -30.6978893 -28.416797599999999 -6.9417477000000005
v 132.69366460000001 51.377128599999999 -75.107101400000005
v -53.741252899999999 -44.560997 -69.719001800000001
v -54.617683399999997 -47.325736999999997 -66.954185499999994
v -51.385669700000001 -37.830719000000002 -66.782737699999998
v -50.888408699999999 -37.115955399999997 -64.195076
v -125.86846920000001 -59.6280365 -0.0842725
v -123.4882965 -56.258041400000003 5.2797378999999998
v -89.736923200000007 -13.879330599999999 55.604740100000001
v -87.431991600000003 -11.244947399999999 57.633232100000001
v -134.81486509999999 -101.12265010000002 -60.678299000000003
v 1.9881641000000005 -44.399017299999997 10.728194200000001
v -118.9385834 -50.002193499999997 14.725543
v 47.626510600000003 98.611358600000003 -34.795745799999999
v 60.781505600000003 93.428359999999998 -52.916343699999999
v 58.470447499999999 94.517044100000007 -49.760036499999998
v -50.1091537 -36.109252900000001 -60.287368800000003
v -131.60459900000001 -101.01013950000002 -58.339271500000009
v -128.28393550000001 -100.7632828 -56.120517700000008
v 39.949279799999999 100.41411590000003 -23.828420600000001
v 121.50243380000001 62.963047000000003 -74.855346699999998
v -12.578247100000004 -34.631877899999999 8.5690613000000013
v 12.3331394 96.470863300000005 17.175424599999999
v 53.831298799999999 -81.714408899999995 -20.599496800000001
v 55.773120900000002 -82.180061300000006 -22.386304899999999
v 125.5799713 -58.271469099999997 -75.318252599999994
v -55.729545600000002 -50.116252899999999 -64.321327199999999
v -57.034084300000004 -52.949443799999997 -61.796256999999997
v 72.636856100000003 -82.400329600000006 -37.8120537
v 69.643600500000005 -82.780769300000003 -35.1069794
v -19.406894699999999 -31.3913631 4.9576187000000003
v -22.638795900000002 -30.241216699999999 2.5049119000000002
v -111.97556299999999 -97.429420500000006 -47.889125800000002
v 48.0542412 -79.707115200000004 -15.378006900000001
v -3.3981642999999999 84.874191300000007 39.286251100000001
v -1.2680746000000001 86.863777200000015 36.494354199999997
v -58.017154699999999 -54.8388481 -60.196739200000003
v -59.663955700000002 -57.6843529 -57.895114900000003
v -136.526535 -75.608963000000003 -28.018831299999999
v 8.7229586000000001 94.459075900000002 22.483716999999999
v 6.5693625999999998 93.060951200000005 25.600822399999998
v 65.478561400000004 91.060958900000003 -59.106601699999999
v 4.4218983999999999 91.5517349 28.657436400000002
v -115.57077030000001 -98.430534399999999 -49.3502808
v -130.37110899999999 -66.196945200000002 -11.0639334
v -28.240047499999999 -28.780904799999998 -3.5332800999999998
v -146.04577639999999 -91.483154299999995 -59.6531448
v -119.1291962 -99.282478299999994 -50.9636116
v -38.066421499999997 43.845859500000003 68.589378400000001
v -5.5316609999999997 82.781127900000001 42.0013237
v -6.9456782000000006 81.316116300000004 43.759147599999999
v -124.436615 -57.6310997 3.1520784000000002
v -131.6509552 -68.129142799999997 -14.4074869
v -22.9255295 62.509235400000001 59.953826900000003
v 66.653343199999995 -82.987052899999995 -32.381442999999997
v 0.86244469999999995 88.717453000000006 33.615047500000003
v 67.808952300000001 89.788589500000015 -62.179698899999998
v -63.482944500000002 -63.364982599999998 -53.729328199999998
v 58.725765199999998 -82.666969300000005 -25.098522200000001
v 61.684196499999999 -82.970779399999998 -27.831682199999999
v -25.536169100000006 -29.383769999999998 -0.4119078000000001
v 63.670379599999997 -83.039672899999999 -29.6489525
v 118.4122086 65.548545799999999 -74.806243899999998
v -111.18051149999999 -39.8176804 28.676855100000012
v -112.91522980000003 -42.050014500000003 25.782312400000009
v -96.447837800000002 -91.173873900000032 -43.925830800000007
v 21.0633354 -60.188655900000008 4.3800701999999996
v -61.472743999999999 -60.527576400000001 -55.738758099999998
v -137.2980804 -76.830055200000004 -30.3206825
v 2.9953126999999999 90.460189799999995 30.670126
v -85.084602399999994 -8.5706606000000001 59.530025500000001
v -145.07206730000001 -89.786422700000003 -56.082450900000005
v 10.169718700000001 95.307502700000001 20.381658600000002
v -52.094291699999999 -38.934539800000003 -70.676696800000002
v -147.00862119999999 -93.157959000000005 -63.232093800000015
v -52.915672299999997 -40.948869700000003 -73.564289099999996
v -52.426883700000005 -39.490375499999999 -72.615890500000006
v 86.365043600000007 82.092586549999993 -74.323207850000003
v 88.938964850000005 81.327011150000004 -74.355094899999997
v -149.56858060000002 -97.913970950000007 -73.453937499999995
v -148.70786285000003 -99.187477099999995 -73.781497949999988
v 9.2886552499999997 -50.218591700000005 9.2987966499999999
v -121.27133945 -53.133380900000006 10.02914715
v -17.73467445 68.95703125 55.4586811
v 131.59461974999999 -51.027940749999999 -75.429374699999997
v -143.80146024999999 -100.43436810000003 -68.512001050000009
v 143.88693239999998 33.086582199999995 -75.350418099999999
v 149.77533720000002 9.0633347000000004 -75.521491999999995
v 104.7059975 -71.929473849999994 -64.995677950000001
v -52.113573049999999 27.834923699999997 71.379283900000004
v -133.54181670000003 -70.946411150000003 -19.479907050000001
v -49.693344100000004 -35.606977450000002 -58.346082699999997
v 39.189233799999997 100.5304184 -22.724122049999998
v 124.1677971 -59.718667999999994 -75.293537149999992
v 126.4751091 -57.276306149999996 -75.336051949999998
v -56.381814950000006 -51.532848349999995 -63.058792099999998
v -110.184864 -96.840141300000013 -47.26125905
v 5.4956304999999999 92.306343050000009 27.1291294
v -113.77316665000001 -97.929977449999996 -48.619703299999998
v -6.2386695999999997 82.048622100000003 42.880235650000003
v -125.15254210000001 -58.6295681 1.5339029500000001
v -123.96245575 -56.944570550000002 4.2159081499999997
v -23.68765355 61.561672200000004 60.530664450000003
v -64.562246350000009 -64.772029849999996 -52.793254849999997
v -137.68181609999999 -77.428485850000001 -31.472402549999998
v -136.91230769999999 -76.21950910000001 -29.169756899999999
v -62.477844250000004 -61.946279500000003 -54.734043149999998
v -5.749029600000001 -38.834339099999994 10.485279550000001
v 75.976959199999996 84.866004950000033 -72.753814699999992
v 25.203721999999999 100.62972260000001 -2.0911808500000002
v -108.4977875 -36.384334600000003 32.931160000000006
v -116.8200264 -47.149166100000002 18.803318050000001
v 11.811416599999999 -52.320180899999997 8.4725747499999997
v -25.60193825 59.167436600000002 61.919029249999994
v -106.59032440000004 -95.588005049999992 -46.093967400000004
v -143.94777679999999 -87.742088300000006 -51.947423950000001
v 129.95200345000001 -53.166627849999998 -75.406147000000004
v 21.111538899999999 99.8103409 4.0345133500000001
v 27.072418200000001 100.88155365 -4.8815694000000001
v 54.975563050000005 96.001518250000004 -45.0105839
v 53.032468800000004 96.769603750000002 -42.34960555
v 102.7008896 -72.81626510000001 -63.388681399999996
v -76.902961750000003 0.59974839999999996 64.992137899999989
v -75.205383299999994 2.4738897500000001 65.904953000000006
v -119.72761919999999 -51.045856499999999 13.16501045
v -118.15042495 -48.936763799999994 16.256207
v -50.498781199999996 -36.612604149999996 -62.241222399999998
v -8.0105407 -37.357288349999997 10.0361452
v 54.802209849999997 -81.9472351 -21.492900849999998
v -7.6598575000000002 80.562244399999997 44.614917750000004
v -127.72614285 -62.266021699999996 -4.4445269999999999
v -148.68247220000001 -96.247425100000044 -69.840412099999995
v 52.378208149999999 -81.263725300000004 -19.27798555
v 60.204980849999998 -82.818874350000002 -26.4651022
v 3.7086055499999997 91.005962350000004 29.663781200000003
v 79.153331750000007 83.743122099999994 -74.260681150000011
v -19.57765865 66.688781750000004 57.124719599999999
v 22.967334749999999 100.2272835 1.25863635
v -106.64559939999999 -34.073478699999995 35.701067000000002
v -70.454692850000001 7.7058873000000006 68.058979050000005
v 37.742254250000002 -73.772689799999995 -6.7033619499999997
v -144.75889590000003 -89.201545699999997 -54.904529600000004
v 37.66565705 100.74107745000001 -20.504495650000006
v 62.677288050000001 -83.005226149999999 -28.740317349999998
v -126.56872555000001 -60.618682849999999 -1.7155532
v 35.440124500000003 -72.079830150000006 -4.9395534999999997
v -54.363973600000001 25.343233099999999 71.380405450000012
v -117.34998325000001 -98.856506349999989 -50.1569462
v -141.88903045000001 -100.71944425000001 -66.671619399999997
v -147.32182310000002 -93.722171800000012 -64.43787764999999
v 149.4851074 12.41453125 -75.51008985
v -146.08369445 -99.944236750000002 -70.87404635
v -147.93139645000002 -94.85224915000002 -66.838188149999993
v 116.2492943 -66.456344599999994 -74.029224400000004
v 118.78650665000001 -64.820692050000005 -75.205070500000005
v -132.28679655000002 -69.068695099999999 -16.095000750000001
v -57.525619500000005 -53.894145949999995 -60.996498099999997
v 142.45186615 36.117719649999998 -75.314544699999999
v -51.137039200000004 -37.473337200000003 -65.488906850000006
v -67.819000250000002 10.59561635 69.023284899999993
v -51.739980700000004 -38.382629399999999 -68.729717249999993
v -53.406560900000002 -43.206262600000002 -71.146247899999992
v -54.179468149999998 -45.943366999999995 -68.336593649999998
v -52.593179700000007 -39.76829335 -73.585487349999994
l 35/35 34/34
l 34/34 33/33
l 33/33 8/8
l 8/8 21/21
l 21/21 22/22
l 22/22 2/2
l 2/2 19/19
l 19/19 3/3
l 3/3 28/28
l 28/28 6/6
l 6/6 5/5
l 5/5 24/24
l 24/24 10/10
l 10/10 11/11
l 11/11 29/29
l 29/29 4/4
l 4/4 16/16
l 16/16 14/14
l 14/14 32/32
l 32/32 15/15
l 15/15 27/27
l 27/27 1/1
l 1/1 13/13
l 13/13 31/31
l 31/31 12/12
l 12/12 26/26
l 26/26 23/23
l 23/23 17/17
l 17/17 9/9
l 9/9 30/30
l 30/30 7/7
l 7/7 20/20
l 20/20 25/25
l 25/25 18/18
l 97/97 96/96
l 96/96 92/92
l 92/92 73/73
l 73/73 72/72
l 72/72 52/52
l 52/52 59/59
l 59/59 77/77
l 77/77 69/69
l 69/69 41/41
l 41/41 94/94
l 94/94 50/50
l 50/50 36/36
l 36/36 37/37
l 37/37 45/45
l 45/45 88/88
l 88/88 86/86
l 86/86 60/60
l 60/60 51/51
l 51/51 85/85
l 85/85 48/48
l 48/48 70/70
l 70/70 39/39
l 39/39 87/87
l 87/87 75/75
l 75/75 93/93
l 93/93 47/47
l 47/47 79/79
l 79/79 58/58
l 58/58 74/74
l 74/74 38/38
l 38/38 89/89
l 89/89 68/68
l 68/68 67/67
l 67/67 62/62
l 62/62 90/90
l 90/90 76/76
l 76/76 46/46
l 46/46 80/80
l 80/80 82/82
l 82/82 64/64
l 64/64 40/40
l 40/40 42/42
l 42/42 49/49
l 49/49 84/84
l 84/84 57/57
l 57/57 65/65
l 65/65 55/55
l 55/55 56/56
l 56/56 66/66
l 66/66 83/83
l 83/83 43/43
l 43/43 91/91
l 91/91 78/78
l 78/78 81/81
l 81/81 61/61
l 61/61 71/71
l 71/71 44/44
l 44/44 63/63
l 63/63 95/95
l 95/95 53/53
l 53/53 54/54
l 139/139 110/110
l 110/110 165/165
l 165/165 131/131
l 131/131 105/105
l 105/105 148/148
l 148/148 156/156
l 156/156 153/153
l 153/153 119/119
l 119/119 118/118
l 118/118 176/176
l 176/176 135/135
l 135/135 168/168
l 168/168 158/158
l 158/158 159/159
l 159/159 149/149
l 149/149 106/106
l 106/106 157/157
l 157/157 183/183
l 183/183 129/129
l 129/129 113/113
l 113/113 125/125
l 125/125 134/134
l 134/134 198/198
l 198/198 120/120
l 120/120 197/197
l 197/197 121/121
l 121/121 174/174
l 174/174 128/128
l 128/128 163/163
l 163/163 169/169
l 169/169 130/130
l 130/130 171/171
l 171/171 132/132
l 132/132 133/133
l 133/133 111/111
l 111/111 182/182
l 182/182 175/175
l 175/175 170/170
l 170/170 179/179
l 179/179 178/178
l 178/178 141/141
l 141/141 142/142
l 142/142 177/177
l 177/177 117/117
l 117/117 199/199
l 199/199 123/123
l 123/123 200/200
l 200/200 160/160
l 160/160 109/109
l 109/109 108/108
l 108/108 192/192
l 192/192 195/195
l 195/195 116/116
l 116/116 102/102
l 102/102 185/185
l 185/185 202/202
l 202/202 151/151
l 151/151 186/186
l 186/186 122/122
l 122/122 152/152
l 152/152 162/162
l 162/162 98/98
l 98/98 99/99
l 99/99 112/112
l 112/112 104/104
l 104/104 145/145
l 145/145 187/187
l 187/187 196/196
l 196/196 189/189
l 189/189 190/190
l 190/190 193/193
l 193/193 201/201
l 201/201 103/103
l 103/103 205/205
l 205/205 126/126
l 126/126 107/107
l 107/107 206/206
l 206/206 194/194
l 194/194 204/204
l 204/204 114/114
l 114/114 188/188
l 188/188 203/203
l 203/203 136/136
l 136/136 127/127
l 127/127 173/173
l 173/173 161/161
l 161/161 124/124
l 124/124 137/137
l 137/137 138/138
l 138/138 180/180
l 180/180 154/154
l 154/154 166/166
l 166/166 172/172
l 172/172 191/191
l 191/191 101/101
l 101/101 115/115
l 115/115 155/155
l 155/155 150/150
l 150/150 164/164
l 164/164 146/146
l 146/146 207/207
l 207/207 100/100
l 100/100 181/181
l 181/181 144/144
l 144/144 143/143
l 143/143 167/167
l 167/167 147/147
l 147/147 184/184
l 184/184 208/208
l 208/208 140/140
l 224/224 215/215
l 215/215 236/236
l 236/236 244/244
l 244/244 216/216
l 216/216 213/213
l 213/213 233/233
l 233/233 212/212
l 212/212 237/237
l 237/237 239/239
l 239/239 231/231
l 231/231 260/260
l 260/260 245/245
l 245/245 211/211
l 211/211 251/251
l 251/251 230/230
l 230/230 262/262
l 262/262 263/263
l 263/263 240/240
l 240/240 234/234
l 234/234 232/232
l 232/232 249/249
l 249/249 255/255
l 255/255 247/247
l 247/247 250/250
l 250/250 252/252
l 252/252 242/242
l 242/242 264/264
l 264/264 241/241
l 241/241 238/238
l 238/238 226/226
l 226/226 225/225
l 225/225 222/222
l 222/222 254/254
l 254/254 221/221
l 221/221 246/246
l 246/246 209/209
l 209/209 257/257
l 257/257 214/214
l 214/214 259/259
l 259/259 243/243
l 243/243 227/227
l 227/227 258/258
l 258/258 219/219
l 219/219 248/248
l 248/248 256/256
l 256/256 220/220
l 220/220 223/223
l 223/223 210/210
l 210/210 228/228
l 228/228 229/229
l 229/229 253/253
l 253/253 235/235
l 235/235 261/261
l 261/261 217/217
l 217/217 218/218
l 265/265 556/556
l 265/265 627/627
l 266/266 555/555
l 266/266 607/607
l 267/267 297/297
l 267/267 299/299
l 268/268 551/551
l 268/268 639/639
l 269/269 551/551
l 269/269 637/637
l 270/270 333/333
l 270/270 489/489
l 271/271 272/272
l 271/271 588/588
l 272/272 454/454
l 273/273 298/298
l 273/273 419/419
l 274/274 287/287
l 274/274 532/532
l 275/275 295/295
l 275/275 331/331
l 276/276 277/277
l 276/276 306/306
l 277/277 298/298
l 278/278 289/289
l 278/278 611/611
l 279/279 584/584
l 279/279 611/611
l 280/280 293/293
l 280/280 321/321
l 281/281 300/300
l 281/281 487/487
l 282/282 304/304
l 282/282 514/514
l 283/283 284/284
l 283/283 305/305
l 284/284 301/301
l 285/285 583/583
l 285/285 603/603
l 286/286 434/434
l 286/286 583/583
l 287/287 460/460
l 288/288 553/553
l 288/288 554/554
l 289/289 553/553
l 290/290 586/586
l 290/290 614/614
l 291/291 384/384
l 291/291 621/621
l 292/292 616/616
l 292/292 621/621
l 293/293 366/366
l 294/294 334/334
l 294/294 540/540
l 295/295 477/477
l 296/296 539/539
l 296/296 586/586
l 297/297 437/437
l 299/299 554/554
l 300/300 557/557
l 301/301 591/591
l 302/302 555/555
l 302/302 556/556
l 303/303 497/497
l 303/303 603/603
l 304/304 566/566
l 305/305 338/338
l 306/306 560/560
l 307/307 308/308
l 307/307 570/570
l 308/308 592/592
l 309/309 310/310
l 309/309 463/463
l 310/310 593/593
l 311/311 585/585
l 311/311 613/613
l 312/312 585/585
l 312/312 594/594
l 313/313 337/337
l 313/313 495/495
l 314/314 315/315
l 314/314 422/422
l 315/315 421/421
l 316/316 490/490
l 316/316 517/517
l 317/317 318/318
l 317/317 394/394
l 318/318 347/347
l 319/319 320/320
l 319/319 414/414
l 320/320 476/476
l 321/321 322/322
l 322/322 614/614
l 323/323 324/324
l 323/323 589/589
l 324/324 325/325
l 325/325 326/326
l 326/326 446/446
l 327/327 328/328
l 327/327 386/386
l 328/328 373/373
l 329/329 330/330
l 329/329 474/474
l 330/330 546/546
l 331/331 496/496
l 332/332 595/595
l 332/332 596/596
l 333/333 596/596
l 334/334 587/587
l 335/335 587/587
l 335/335 601/601
l 336/336 337/337
l 336/336 489/489
l 338/338 466/466
l 339/339 340/340
l 339/339 341/341
l 340/340 472/472
l 341/341 342/342
l 342/342 410/410
l 343/343 558/558
l 343/343 600/600
l 344/344 557/557
l 344/344 588/588
l 345/345 346/346
l 345/345 403/403
l 346/346 477/477
l 347/347 348/348
l 348/348 449/449
l 349/349 350/350
l 349/349 389/389
l 350/350 541/541
l 351/351 568/568
l 351/351 618/618
l 352/352 421/421
l 352/352 618/618
l 353/353 615/615
l 353/353 635/635
l 354/354 390/390
l 354/354 615/615
l 355/355 356/356
l 355/355 417/417
l 356/356 359/359
l 357/357 358/358
l 357/357 376/376
l 358/358 427/427
l 359/359 423/423
l 360/360 361/361
l 360/360 428/428
l 361/361 461/461
l 362/362 578/578
l 362/362 589/589
l 363/363 364/364
l 363/363 453/453
l 364/364 380/380
l 365/365 366/366
l 365/365 465/465
l 367/367 368/368
l 367/367 420/420
l 368/368 393/393
l 369/369 370/370
l 369/369 451/451
l 370/370 597/597
l 371/371 509/509
l 371/371 608/608
l 372/372 483/483
l 372/372 558/558
l 373/373 559/559
l 374/374 559/559
l 374/374 612/612
l 375/375 376/376
l 375/375 622/622
l 377/377 572/572
l 377/377 590/590
l 378/378 456/456
l 378/378 590/590
l 379/379 529/529
l 379/379 612/612
l 380/380 629/629
l 381/381 629/629
l 381/381 630/630
l 382/382 475/475
l 382/382 630/630
l 383/383 384/384
l 383/383 436/436
l 385/385 386/386
l 385/385 605/605
l 387/387 388/388
l 387/387 458/458
l 388/388 412/412
l 389/389 461/461
l 390/390 599/599
l 391/391 598/598
l 391/391 599/599
l 392/392 591/591
l 392/392 617/617
l 393/393 394/394
l 395/395 606/606
l 395/395 620/620
l 396/396 397/397
l 396/396 606/606
l 397/397 520/520
l 398/398 399/399
l 398/398 473/473
l 399/399 438/438
l 400/400 401/401
l 400/400 443/443
l 401/401 562/562
l 402/402 403/403
l 402/402 633/633
l 404/404 405/405
l 404/404 448/448
l 405/405 443/443
l 406/406 407/407
l 406/406 437/437
l 407/407 426/426
l 408/408 414/414
l 408/408 472/472
l 409/409 560/560
l 409/409 592/592
l 410/410 411/411
l 411/411 455/455
l 412/412 413/413
l 413/413 524/524
l 415/415 593/593
l 415/415 613/613
l 416/416 497/497
l 416/416 506/506
l 417/417 418/418
l 418/418 504/504
l 419/419 420/420
l 422/422 594/594
l 423/423 424/424
l 424/424 451/451
l 425/425 426/426
l 425/425 538/538
l 427/427 635/635
l 428/428 429/429
l 429/429 469/469
l 430/430 561/561
l 430/430 627/627
l 431/431 561/561
l 431/431 624/624
l 432/432 625/625
l 432/432 628/628
l 433/433 607/607
l 433/433 628/628
l 434/434 487/487
l 435/435 436/436
l 435/435 542/542
l 438/438 509/509
l 439/439 440/440
l 439/439 494/494
l 440/440 523/523
l 441/441 465/465
l 441/441 484/484
l 442/442 562/562
l 442/442 633/633
l 444/444 445/445
l 444/444 624/624
l 445/445 486/486
l 446/446 524/524
l 447/447 563/563
l 447/447 626/626
l 448/448 626/626
l 449/449 563/563
l 450/450 491/491
l 450/450 595/595
l 452/452 564/564
l 452/452 597/597
l 453/453 564/564
l 454/454 542/542
l 455/455 467/467
l 456/456 457/457
l 457/457 541/541
l 458/458 565/565
l 459/459 565/565
l 459/459 622/622
l 460/460 584/584
l 462/462 566/566
l 462/462 631/631
l 463/463 464/464
l 464/464 498/498
l 466/466 580/580
l 467/467 468/468
l 468/468 567/567
l 469/469 470/470
l 470/470 471/471
l 471/471 579/579
l 473/473 616/616
l 474/474 598/598
l 475/475 569/569
l 476/476 521/521
l 478/478 637/637
l 478/478 638/638
l 479/479 502/502
l 479/479 638/638
l 480/480 634/634
l 480/480 636/636
l 481/481 602/602
l 481/481 634/634
l 482/482 576/576
l 482/482 620/620
l 483/483 577/577
l 484/484 485/485
l 485/485 546/546
l 486/486 493/493
l 488/488 600/600
l 488/488 601/601
l 490/490 491/491
l 492/492 567/567
l 492/492 602/602
l 493/493 494/494
l 495/495 568/568
l 496/496 538/538
l 498/498 548/548
l 499/499 604/604
l 499/499 608/608
l 500/500 534/534
l 500/500 604/604
l 501/501 569/569
l 501/501 570/570
l 502/502 571/571
l 503/503 571/571
l 503/503 632/632
l 504/504 505/505
l 505/505 530/530
l 506/506 507/507
l 507/507 536/536
l 508/508 572/572
l 508/508 574/574
l 510/510 511/511
l 510/510 525/525
l 511/511 531/531
l 512/512 513/513
l 512/512 632/632
l 513/513 543/543
l 514/514 581/581
l 515/515 516/516
l 515/515 548/548
l 516/516 573/573
l 517/517 532/532
l 518/518 573/573
l 518/518 610/610
l 519/519 574/574
l 519/519 623/623
l 520/520 528/528
l 521/521 536/536
l 522/522 547/547
l 522/522 550/550
l 523/523 623/623
l 525/525 575/575
l 526/526 575/575
l 526/526 605/605
l 527/527 576/576
l 527/527 577/577
l 528/528 631/631
l 529/529 578/578
l 530/530 537/537
l 531/531 545/545
l 533/533 579/579
l 533/533 582/582
l 534/534 609/609
l 535/535 609/609
l 535/535 619/619
l 537/537 619/619
l 539/539 540/540
l 543/543 582/582
l 544/544 580/580
l 544/544 581/581
l 545/545 610/610
l 547/547 617/617
l 549/549 552/552
l 549/549 636/636
l 550/550 625/625
l 552/552 639/639
