v 2.5654940605163574 13.126725196838379 15
v 28.72266960144043 0 3.3421440124511719
v 7.0105271339416504 0.032081998884677887 0
v 1.2773289680480957 11.657855033874512 15
v 22.459537506103516 0 0.028071999549865723
v 19.279933929443359 0 0.0040099998004734516
v 21.399669647216797 0 0.020051000639796257
v 21.5625 15 0
v 19.6875 0 15
v 1.2773289680480957 3.3421440124511719 15
v 15.9375 0 0
v 19.809867858886719 0 0.0080199996009469032
v 21.5625 0 15
v 10.3125 15 0
v 14.0625 15 15
v 19.6875 15 0
v 10.3125 15 15
v 21.929603576660156 0 0.024060999974608421
v 15.9375 15 0
v 17.8125 0 15
v 12.1875 0 15
v 14.0625 15 0
v 12.1875 0 0
v 15.9375 15 15
v 17.8125 15 15
v 17.8125 15 0
v 12.1875 15 15
v 8.4375 0 15
v 16.875 15 15
v 13.125 0 15
v 20.339801788330078 0 0.012031000107526779
v 20.625 15 15
v 10.3125 0 0
v 9.375 0 0
v 16.875 0 15
v 12.1875 15 0
v 15.9375 0 15
v 9.375 15 15
v 20.625 15 0
v 14.0625 0 0
v 9.375 15 0
v 13.125 15 0
v 18.75 15 15
v 7.5 0 0
v 20.625 0 15
v 5.5588569641113281 0.25555598735809326 0
v 1.5498499870300293 2.9342889785766602 15
v 0 7.5 0
v 0.25555598735809326 9.4411430358886719 0
v 16.875 0 0
v 2.1966989040374756 2.1966989040374756 0
v 18.75 0 0
v 3.75 13.995190620422363 0
v 29.429096221923828 15 10.370125770568848
v 27.065711975097656 0 13.450149536132812
v 0.25555598735809326 9.4411430358886719 15
v 18.75 15 0
v 6.5210537910461426 14.935835838317871 15
v 1.0048090219497681 11.25 0
v 28.72266960144043 15 3.3421440124511719
v 25.370126724243164 15 14.429096221923828
v 26.25 15 13.995190620422363
v 28.995189666748047 15 11.25
v 29.935836791992188 0 6.5210537910461426
v 0.064163997769355774 6.5210537910461426 0
v 8.4375 15 0
v 13.125 0 0
v 0.064163997769355774 6.5210537910461426 15
v 30 0 7.5
v 15 0 15
v 19.6875 15 15
v 22.5 15 15
v 27.065711975097656 15 1.5498499870300293
v 4.6298742294311523 0.57090401649475098 0
v 2.9342889785766602 13.450149536132812 15
v 15 15 15
v 23.715307235717773 0 0.14381900429725647
v 27.065711975097656 0 1.5498499870300293
v 1.5498499870300293 2.9342889785766602 0
v 5.5588569641113281 14.744443893432617 0
v 2.9342889785766602 1.5498499870300293 0
v 28.450149536132812 15 12.065710067749023
v 6.5210537910461426 14.935835838317871 0
v 28.450149536132812 0 2.9342889785766602
v 15 0 0
v 6.5210537910461426 0.064163997769355774 15
v 20.869735717773438 0 0.016040999442338943
v 29.744443893432617 15 9.4411430358886719
v 24.441143035888672 15 14.744443893432617
v 5.5588569641113281 0.25555598735809326 15
v 27.803300857543945 15 2.1966989040374756
v 29.212142944335938 0 10.810063362121582
v 23.478944778442383 15 0.064163997769355774
v 23.478944778442383 0 14.935835838317871
v 2.1966989040374756 12.803300857543945 0
v 1.5498499870300293 12.065710067749023 0
v 4.6298742294311523 14.429096221923828 15
v 29.429096221923828 0 10.370125770568848
v 25.370126724243164 0 0.57090401649475098
v 0.57090401649475098 10.370125770568848 15
v 3.75 1.0048090219497681 15
v 22.5 0 15
v 4.6298742294311523 14.429096221923828 0
v 29.935836791992188 15 8.4789457321166992
v 1.5498499870300293 12.065710067749023 15
v 10.3125 0 15
v 2.1966989040374756 2.1966989040374756 15
v 22.989473342895508 0 0.032081998884677887
v 24.441143035888672 0 0.25555598735809326
v 25.370126724243164 15 0.57090401649475098
v 27.803300857543945 0 2.1966989040374756
v 17.8125 0 0
v 28.450149536132812 0 12.065710067749023
v 13.125 15 15
v 28.995189666748047 0 11.25
v 29.935836791992188 0 8.4789457321166992
v 25.370126724243164 0 14.429096221923828
v 27.803300857543945 15 12.803300857543945
v 7.5 15 0
v 29.744443893432617 15 5.5588569641113281
v 11.25 15 0
v 11.25 0 0
v 29.935836791992188 15 6.5210537910461426
v 0 7.5 15
v 4.6298742294311523 0.57090401649475098 15
v 7.5 0 15
v 23.478944778442383 15 14.935835838317871
v 21.5625 15 15
v 16.875 15 0
v 6.5210537910461426 0.064163997769355774 0
v 0.064163997769355774 8.4789457321166992 15
v 0.064163997769355774 8.4789457321166992 0
v 8.4375 15 15
v 1.0048090219497681 3.75 0
v 5.5588569641113281 14.744443893432617 15
v 0.57090401649475098 4.6298742294311523 0
v 7.5 15 15
v 8.4375 0 0
v 26.25 0 1.0048090219497681
v 0.57090401649475098 10.370125770568848 0
v 29.429096221923828 0 4.6298742294311523
v 7.0105271339416504 0.032081998884677887 15
v 11.25 15 15
v 3.75 13.995190620422363 15
v 26.25 0 13.995190620422363
v 0.25555598735809326 5.5588569641113281 15
v 18.75 0 15
v 11.25 0 15
v 0.57090401649475098 4.6298742294311523 15
v 26.25 15 1.0048090219497681
v 28.450149536132812 15 2.9342889785766602
v 30 15 7.5
v 24.441143035888672 0 14.744443893432617
v 29.429096221923828 15 4.6298742294311523
v 1.0048090219497681 11.25 15
v 2.1966989040374756 12.803300857543945 15
v 22.5 15 0
v 29.744443893432617 0 9.4411430358886719
v 0.25555598735809326 5.5588569641113281 0
v 24.441143035888672 15 0.25555598735809326
v 28.995189666748047 15 3.75
v 2.9342889785766602 13.450149536132812 0
v 2.9342889785766602 1.5498499870300293 15
v 3.75 1.0048090219497681 0
v 27.065711975097656 15 13.450149536132812
v 15 15 0
v 29.744443893432617 0 5.5588569641113281
v 9.375 0 15
v 28.995189666748047 0 3.75
v 14.0625 0 15
v 27.803300857543945 0 12.803300857543945
v 1.0048090219497681 3.75 15
v 2.7498915195465088 13.288437366485596 15
v 2.3810964822769165 12.965013027191162 15
v 28.586409568786621 0 3.138216495513916
v 28.858929634094238 0 3.5460720062255859
v 7.2552635669708252 0.016040999442338943 0
v 6.7657904624938965 0.04812299832701683 0
v 1.4135894775390625 11.861782550811768 15
v 1.1410689949989319 11.453927516937256 15
v 21.664636611938477 0 0.022056000307202339
v 21.134702682495117 0 0.0180460000410676
v 22.194570541381836 0 0.026066499762237072
v 22.724505424499512 0 0.030076999217271805
v 19.544900894165039 0 0.0060149997007101774
v 19.01496696472168 0 0.0020049999002367258
v 29.320619583129883 0 10.590094566345215
v 29.103666305541992 0 11.030031681060791
v 1.4135894775390625 3.138216495513916 15
v 1.1410689949989319 3.5460720062255859 15
v 20.074834823608398 0 0.010025499854236841
v 6.7657904624938965 0.04812299832701683 15
v 7.2552635669708252 0.016040999442338943 15
v 28.586409568786621 15 3.138216495513916
v 28.858929634094238 15 3.5460720062255859
v 29.840140342712402 15 8.9600443840026855
v 25.810063362121582 15 0.78785651922225952
v 13.59375 15 0
v 8.90625 0 15
v 4.1899371147155762 14.212143421173096 15
v 0.41323000192642212 9.9056344032287598 15
v 0.41323000192642212 5.0943655967712402 0
v 26.657855987548828 0 13.722670078277588
v 29.840140342712402 15 6.0399553775787354
v 13.59375 0 15
v 10 11.830126762390137 0
v 6.1089119911193848 2.69740891456604 0
v 6.8973169326782227 12.463544845581055 0
v 4.6596770286560059 3.3850810527801514 0
v 7.7013301849365234 2.5040550231933594 0
v 12.099897384643555 5.5401668548583984 0
v 12.483786582946777 7.0976672172546387 0
v 10.662226676940918 3.6269750595092773 0
v 5.356536865234375 12.017251968383789 0
v 7.7013301849365234 12.495944976806641 0
v 12.354709625244141 6.3034210205078125 0
v 2.5 7.5 0
v 2.7573180198669434 5.9166598320007324 0
v 8.5001277923583984 12.398953437805176 0
v 3.5027859210968018 10.503710746765137 0
v 2.564749002456665 8.3020563125610352 0
v 4.6596770286560059 11.614919662475586 0
v 3.0727200508117676 5.1763839721679688 0
v 4.0363779067993164 3.8939878940582275 0
v 8.5001277923583984 2.6010470390319824 0
v 5.356536865234375 2.9827480316162109 0
v 2.7573180198669434 9.0833396911621094 0
v 12.099897384643555 9.4598331451416016 0
v 11.2425537109375 10.81561279296875 0
v 3.5027859210968018 4.4962878227233887 0
v 11.725950241088867 4.8276710510253906 0
v 2.564749002456665 6.6979432106018066 0
v 6.1089119911193848 12.302590370178223 0
v 12.483786582946777 7.9023327827453613 0
v 9.2730245590209961 2.8249189853668213 0
v 6.8973169326782227 2.5364561080932617 0
v 10 3.1698729991912842 0
v 11.2425537109375 4.18438720703125 0
v 12.354709625244141 8.6965780258178711 0
v 11.725950241088867 10.172328948974609 0
v 9.2730245590209961 12.175081253051758 0
v 3.0727200508117676 9.8236160278320312 0
v 10.662226676940918 11.373023986816406 0
v 4.0363779067993164 11.106012344360352 0
v 26.373025894165039 0 10.662226676940918
v 27.495944976806641 0 7.7013301849365234
v 17.601047515869141 0 8.5001277923583984
v 20.176383972167969 0 3.0727200508117676
v 25.503711700439453 0 3.5027859210968018
v 17.536455154418945 0 6.8973169326782227
v 17.504055023193359 0 7.7013301849365234
v 18.893987655639648 0 4.0363779067993164
v 27.017251968383789 0 5.356536865234375
v 26.830127716064453 0 10
v 27.463544845581055 0 6.8973169326782227
v 17.982748031616211 0 5.356536865234375
v 23.696578979492188 0 12.354709625244141
v 19.496288299560547 0 3.5027859210968018
v 19.18438720703125 0 11.2425537109375
v 19.827671051025391 0 11.725950241088867
v 24.083339691162109 0 2.7573180198669434
v 27.398952484130859 0 8.5001277923583984
v 21.697944641113281 0 2.564749002456665
v 20.916660308837891 0 2.7573180198669434
v 17.697408676147461 0 6.1089119911193848
v 17.824918746948242 0 9.2730245590209961
v 22.902332305908203 0 12.483786582946777
v 26.614919662475586 0 4.6596770286560059
v 26.106012344360352 0 4.0363779067993164
v 23.302055358886719 0 2.564749002456665
v 24.823616027832031 0 3.0727200508117676
v 18.385080337524414 0 4.6596770286560059
v 18.169872283935547 0 10
v 27.302591323852539 0 6.1089119911193848
v 20.540166854858398 0 12.099897384643555
v 25.172328948974609 0 11.725950241088867
v 25.81561279296875 0 11.2425537109375
v 18.626974105834961 0 10.662226676940918
v 24.459833145141602 0 12.099897384643555
v 21.303421020507812 0 12.354709625244141
v 22.097667694091797 0 12.483786582946777
v 22.5 0 2.5
v 27.175081253051758 0 9.2730245590209961
v 7.2986698150634766 12.495944976806641 15
v 12.435251235961914 8.3020563125610352 15
v 10.963621139526367 3.8939878940582275 15
v 10.340323448181152 11.614919662475586 15
v 11.927280426025391 5.1763839721679688 15
v 6.4998722076416016 12.398953437805176 15
v 2.6452910900115967 8.6965780258178711 15
v 5.7269749641418457 12.175081253051758 15
v 6.4998722076416016 2.6010470390319824 15
v 7.2986698150634766 2.5040550231933594 15
v 2.9001030921936035 9.4598331451416016 15
v 2.9001030921936035 5.5401668548583984 15
v 3.7574460506439209 10.81561279296875 15
v 12.242682456970215 5.9166598320007324 15
v 2.5162138938903809 7.9023327827453613 15
v 8.8910865783691406 2.69740891456604 15
v 11.927280426025391 9.8236160278320312 15
v 3.2740499973297119 10.172328948974609 15
v 8.8910865783691406 12.302590370178223 15
v 3.7574460506439209 4.18438720703125 15
v 3.2740499973297119 4.8276710510253906 15
v 10.340323448181152 3.3850810527801514 15
v 11.497213363647461 4.4962878227233887 15
v 9.6434621810913086 2.9827480316162109 15
v 10.963621139526367 11.106012344360352 15
v 8.1026830673217773 2.5364561080932617 15
v 8.1026830673217773 12.463544845581055 15
v 12.5 7.5 15
v 4.3377728462219238 11.373023986816406 15
v 5 3.1698729991912842 15
v 12.435251235961914 6.6979432106018066 15
v 4.3377728462219238 3.6269750595092773 15
v 9.6434621810913086 12.017251968383789 15
v 2.5162138938903809 7.0976672172546387 15
v 5 11.830126762390137 15
v 11.497213363647461 10.503710746765137 15
v 2.6452910900115967 6.3034210205078125 15
v 12.242682456970215 9.0833396911621094 15
v 5.7269749641418457 2.8249189853668213 15
v 19.827671051025391 15 3.2740499973297119
v 17.982748031616211 15 9.6434621810913086
v 20.540166854858398 15 2.9001030921936035
v 22.902332305908203 15 2.5162138938903809
v 23.302055358886719 15 12.435251235961914
v 21.697944641113281 15 12.435251235961914
v 21.303421020507812 15 2.6452910900115967
v 27.398952484130859 15 6.4998722076416016
v 17.536455154418945 15 8.1026830673217773
v 26.614919662475586 15 10.340323448181152
v 24.459833145141602 15 2.9001030921936035
v 17.824918746948242 15 5.7269749641418457
v 27.302591323852539 15 8.8910865783691406
v 17.504055023193359 15 7.2986698150634766
v 27.463544845581055 15 8.1026830673217773
v 19.18438720703125 15 3.7574460506439209
v 25.81561279296875 15 3.7574460506439209
v 20.916660308837891 15 12.242682456970215
v 18.893987655639648 15 10.963621139526367
v 17.601047515869141 15 6.4998722076416016
v 18.169872283935547 15 5
v 26.106012344360352 15 10.963621139526367
v 18.626974105834961 15 4.3377728462219238
v 25.503711700439453 15 11.497213363647461
v 26.373025894165039 15 4.3377728462219238
v 27.017251968383789 15 9.6434621810913086
v 17.697408676147461 15 8.8910865783691406
v 23.696578979492188 15 2.6452910900115967
v 25.172328948974609 15 3.2740499973297119
v 24.823616027832031 15 11.927280426025391
v 18.385080337524414 15 10.340323448181152
v 27.175081253051758 15 5.7269749641418457
v 20.176383972167969 15 11.927280426025391
v 22.5 15 12.5
v 19.496288299560547 15 11.497213363647461
v 22.097667694091797 15 2.5162138938903809
v 26.830127716064453 15 5
v 27.495944976806641 15 7.2986698150634766
v 24.083339691162109 15 12.242682456970215
v 0.013911680221817399 7.2961079794695465 2.6886427036973242
v 1.8757927925611684 7.5057562562246183 0
v 2.5636408186063306 7.2596722508190741 2.7596794481335563
v 1.2461266093902921 7.280995908939385 15
v 0.035384082678311411 7.0929703458446909 5.0379254042905028
v 0.021896291473121561 7.2519294203506535 3.2550111703056297
v 0.032673529899949282 7.2020417916340893 3.8345566469204853
v 3.5588683292625762 7.0051228681899822 6.2623252709852846
v 0.026475222921202732 7.454221576159302 0.52478862385256209
v 0.043046460515363691 6.8867428797186427 10.430958009002268
v 0.035957833628075114 7.0415761026494899 5.6610357656763366
v 0.042924116335180222 7.4118705992011904 1.0538281524137145
v 0.011412259466986577 7.3351517470741063 2.1338369540051483
v 0.026813241098574019 7.1955214609534099 13.491698480412655
v 0.038050109389967696 7.0735709954361834 12.725823280543475
v 0.021776368904047855 7.341488326617986 14.249052734051123
v 3.356809260982919 6.963642743730464 11.158427062215322
v 3.5682350346859368 6.9347225930843024 7.7527367738918134
v 0.040901016512772781 6.9958089356331232 6.2950326123661062
v 2.5889407063910377 6.92301536973822 12.279191305184646
v 0.029795481581371845 7.1474634883084089 4.4287092549156828
v 3.5623810168957157 6.9225453850635059 9.123004224413128
v 0.62579278459366638 7.5057563932758136 0
v 0.047089663871413862 6.8812703207909109 8.9756747606983147
v 0.02567182626162879 7.3724403553484201 1.5893871739305228
v 2.5529928113945584 7.0528189877944616 14.321020959063688
v 0 7.5 0
v 1.2511211723567626 7.5081406725385129 0
v 2.5510618885666734 7.0042964386266835 13.641023453634261
v 1.8786890203696447 7.1856372841371732 15
v 0.040662316133800315 6.9242561040821977 7.577958365861674
v 0.044759517821978921 6.8982683875293631 8.2732279023073758
v 2.8976524932351913 6.9342883060019771 11.667943100034437
v 2.5159697619405073 7.4426669835423978 0.6888559955517799
v 3.5546924369530775 6.9651356040983154 10.499242219926366
v 3.5343934755832587 7.1241267047435839 4.6869813327296423
v 2.5 7.5 0
v 2.5247716743966686 7.3226275152965403 2.0661886515266801
v 0.62058211767067706 7.386803616296886 15
v 3.3525036798604426 7.1733939901408075 3.9563031750186508
v 3.5693521611030903 6.960589936635122 7.0771150192021208
v 2.9077919432568287 7.2157126898358408 3.3795274758547045
v 2.5311008748256594 7.3842148994324344 1.3770790704440929
v 0.038162645117556487 6.9812904513789986 11.954821453156441
v 0 7.5 15
v 0.039732009298567628 6.9198639266352275 11.186858509676778
v 3.5578117887264473 6.9374158875004301 9.8112552420874515
v 3.5458565549743204 7.0599366596719371 5.4641858217655415
v 0.046487305132369559 6.8760999906402684 9.6934985252347374
v 2.544659029331827 6.9587368247421537 12.960212769119046
v 2.5162138938903809 7.0976672172546387 15
v 3.5674473535537494 6.9218179940542299 8.4359931176207628
v 0.038204383418552076 6.9561006414953361 6.9355784859827851
v 26.450855828195976 8.4679440742074092 6.9873987196365341
v 29.895254273240774 13.739778167192537 6.3700162086434542
v 27.367225193003176 3.0511670077926887 7.1906866178839923
v 29.935065598629155 11.893050499273171 6.6879044034055717
v 29.878233274903081 5.0341677450878084 6.2914479116460367
v 29.903024840045383 5.7833883181056027 6.3816514450666197
v 29.743995252779364 0.70707589829546758 5.6688946701587186
v 26.434102124945767 9.8224687487536624 6.8915943423665418
v 29.943199205647595 11.285293391355292 6.7319545952112652
v 29.866154210683636 4.2977879379601465 6.1936632782229744
v 26.62027793773796 3.9539207017845124 7.2851042500273184
v 29.910388204497121 13.118269303871337 6.5066778856718219
v 27.381878076264901 14.317917364811965 6.5012853360928862
v 29.941143554088573 9.4861560589005691 6.7228486343381473
v 29.773384881553532 1.4167765423975098 5.7731730369559386
v 29.944763824596819 10.077841081488206 6.7445293598325629
v 29.944491834276299 10.679410027627874 6.7494863710347364
v 28.408416951107405 15.000000000000004 6.3590389822153162
v 26.983060036727686 3.4865086176614417 7.2510962376761245
v 29.865839038731014 14.367771394632062 6.2116223910424386
v 27.459853758746867 1.2672582366151253 7.0210391509027534
v 26.451856657848015 5.1740602367805364 7.2510493237699931
v 29.929248660785291 8.3603929569420892 6.6484180296752289
v 26.460634927667513 7.129478425615444 7.0971092999647167
v 29.372283733395005 15 6.1585592219279066
v 29.912843977481756 7.3319019646168551 6.553893836375341
v 28.036913302040261 0 6.5623231206577604
v 29.820482315527794 2.847938737567969 5.986874659528155
v 27.371127539625704 13.634195168790944 6.508620189753838
v 26.595829407651461 11.160303457870185 6.7646389170949703
v 29.845689336776672 3.5700360070870731 6.0918685202860434
v 27.372798165689932 12.261527430664907 6.549725807511436
v 26.472374849421769 6.4694655935912122 7.1544450530562198
v 27.907581960363437 15 6.4345635829426122
v 27.443718067264186 0.63857587612561872 6.9605689208201085
v 29.909961844109446 6.5491860761840037 6.4694804278147195
v 27.383077563481059 12.948438757897607 6.5211328930278825
v 29.921313141326053 7.8349785636367422 6.6028315857349593
v 29.177362858111422 0 5.8930932333014479
v 29.797721762483793 2.1302596535283147 5.8796215072382285
v 27.398952484130859 15 6.4998722076416016
v 26.436326466983378 9.144216999438127 6.9398329734554096
v 27.460881150861489 1.8795082689502376 7.0808512930442973
v 27.463544845581055 0 6.8973169326782227
v 26.464232890131292 5.8164318962047803 7.2089829104101408
v 28.608440247632657 0 6.2275512847318168
v 28.896647760223097 15.000000000000004 6.26702207983808
v 27.463405424265829 2.4750664587777722 7.1349707807807432
v 29.935605930145826 8.9115939010739229 6.6893646952788632
v 26.474529596788273 4.5467714592798565 7.2718376614443212
v 26.45524258897548 7.7940296839024388 7.0403598084252774
v 26.425200286866016 10.502604953124226 6.8429864621680272
v 29.924085427084208 12.503299016218708 6.6133026291101427
v 29.744443893432617 0 5.5588569641113281
v 27.046769735690567 11.663779411923793 6.6462901595352335
v 29.840140342712402 15 6.0399553775787354
v 6.8863525900578813 13.706110389561612 15
v 9.7225506793136098 12.45835442357291 0
v 6.7211069999698099 14.930074664198177 10.09563420069923
v 7.3717602948230336 14.981301914930837 4.7320998821562554
v 7.836288865928112 14.999153708882993 2.0435429919601567
v 6.8103069740654867 14.95251787504626 8.7129837787168825
v 7.2736596335520467 14.979581280573656 5.3950676299403399
v 8.2174606507915868 14.999999438562284 0.68177190959730161
v 6.6769389828895171 14.936935882053891 11.589678313670309
v 6.6967431271423887 14.929963211381112 10.824446795330051
v 8.0132937085094298 14.999476644916262 1.3631983018741765
v 7.6901571224639707 14.997014445682048 2.7216001222078443
v 6.6227013216603856 14.920357494608135 13.23869957453692
v 7.0876422709765343 13.099002200889213 15.000000000000004
v 6.5770666319769404 14.917579620727686 14.11152324555451
v 6.6553120696838555 14.926998791323181 12.395207221514113
v 8.7850904511981192 14.360269917121537 0
v 6.7576163534872116 14.938199026978392 9.3950772340065587
v 7.5705447261631855 14.996292237230865 3.396055923250497
v 7.0686924069992569 14.969925465386165 6.7173912476065727
v 10 11.830126762390137 0
v 7.467928831947229 14.992661865623427 4.0661628256159092
v 7.2986698150634766 12.495944976806641 15
v 6.9701241640795786 14.963413550042606 7.3784331294528052
v 6.5210537910461426 14.935835838317871 15
v 6.8831241215598578 14.953025344997464 8.0402350676437599
v 9.1192576567761723 13.722742439438591 0
v 8.4375 15 0
v 9.4317330763999792 13.088773013696557 0
v 6.6988342872688218 14.318947580139117 15
v 7.171678864957709 14.97550929989368 6.0564570695234243
v 23.233237397026556 7.8365734022550777 14.9496136579154
v 23.120449730039116 5.5855675171068366 14.956202208724903
v 23.300721426452373 11.846030961386617 14.940396501938725
v 22.620238025175578 0.63220106273065202 14.984603304065647
v 22.978396008563429 3.3410587029085246 14.96349008235148
v 23.283635040563063 9.8985324417622031 14.935531829550623
v 23.318331366060569 12.47904689219097 14.939426419365876
v 23.202237451694373 7.1528759703184477 14.952507662729891
v 22.912568758874073 2.6278678656322727 14.9668087207254
v 22.357381834150431 3.7855231603802202 11.706526867896633
v 23.288019460946387 10.560342153927824 14.938177474311214
v 22.144028501710963 0.66191656448841107 12.454894700134556
v 22.838009691012974 10.001162954841277 11.445821094072022
v 23.427543222763781 14.370490781900447 14.921164393396069
v 22.976465867250624 11.794403508461146 12.17410464020657
v 23.257459668474606 8.5303737258373502 14.939418843624619
v 22.831105624524763 1.9393443255351439 14.970868113627541
v 23.38292875112387 13.740421606425018 14.924690422189688
v 23.08660525271868 13.048089424379981 12.436681536150186
v 23.077771768744419 4.824192897954882 14.958285804658399
v 22.906360933751287 11.272909863186808 11.765771672502325
v 22.755324245990842 7.9351366382376138 11.46725360904243
v 22.697397379131885 7.2249131160334121 11.470494838133757
v 23.147765498706153 13.700417124396004 12.414720138080501
v 23.221206249667389 14.35108216350752 12.409525651054107
v 22.823674045145587 9.3151906264617459 11.458051285243506
v 22.552287921505815 5.8162524206011623 11.475294564711431
v 23.274130175267175 9.2207707175073352 14.934229771405287
v 22.217443054843919 1.9942470506334091 12.447187077435119
v 23.291491647152089 11.208008721759807 14.935739048237128
v 22.732288246870425 1.2757467299896297 14.973678390459465
v 23.031881051437779 4.0749321806289229 14.961725807108223
v 22.18453908107082 1.3263623670304621 12.460409903123269
v 23.302055358886719 15 12.435251235961914
v 23.424165318212911 15 14.316571044365709
v 23.375570062531562 15.000000000000004 13.693861022597343
v 22.31764202718638 0 13.736162276530766
v 22.211550198060927 0 13.108787512394699
v 22.628329725968932 6.5182607205919183 11.480603369867943
v 22.476921614469916 5.1192841791171517 11.46927303863302
v 22.5 0 15
v 22.407429828175729 4.4276047364687594 11.45893044027056
v 22.243499704679536 2.6668203743276617 12.445740162837271
v 22.797324780457217 8.6255834328537304 11.468476801269007
v 22.412716279480513 0 14.36689419149673
v 22.296244467681078 3.2823544320837854 12.165629274963644
v 23.478944778442383 15 14.935835838317871
v 23.335720601975428 15 13.066278730650339
v 22.844816869960646 10.681313677809996 11.450991888518066
v 23.34592081665734 13.11006824626417 14.933498866709826
v 23.162039583142224 6.3600705320397513 14.955419366388899
v 23.036964005991393 12.392829412299792 12.44756049081947
v 22.097667694091797 0 12.483786582946777
v 21.874340880001739 12.129087329532029 0.00062045975037371094
v 21.816403587430813 13.289599805973133 0.00017277908753381306
v 21.810691902933996 15 1.2559818053711345
v 21.843828056301074 6.3630952107121139 0.0001586170469143189
v 21.662788531830913 14.431223665934187 2.0181982239632997e-20
v 21.681764132492994 7.4384082203279176 3.6106311403395823
v 21.862404776259261 10.931112198685527 0.0010181130383816461
v 21.68257973572539 15 0.62755075367362623
v 21.828252238143218 4.3416847001062457 0.0013108484749234709
v 21.723575733016297 6.0811234464994293 3.5998865529139543
v 21.646856251259997 1.4741642205218854 2.6070310145487512
v 21.989100142960954 14.241066555272754 2.5556604182852962
v 21.857055364385474 12.712975150715536 0.0018137278031666194
v 21.644265590864968 9.4739073596399308 3.6118001529423478
v 21.845839978420884 5.6884274399436485 0.00016870364399665456
v 21.5625 15 0
v 21.657969699562173 0 2.0178581612083972
v 21.671853793015227 10.164197344470178 3.6152608460744391
v 21.771786581005493 12.738809394014975 2.5745730932478477
v 21.827166445373429 9.0422866080663695 0.00044193833450199095
v 21.847404318952975 10.314554657600571 0.00032452451331305956
v 21.826330225370313 8.3850992116711485 0.00030802324752825943
v 21.781864711848169 3.0608383917857616 9.255032063628071e-05
v 21.616953310626194 2.9117434397820592 2.6996198884114087
v 21.830774782708723 7.7140968734959152 0.00012403886693502126
v 21.622965512971145 2.1999631321236315 2.6214437257164938
v 21.63076744257862 0 1.4855924122653099
v 21.750472788831907 13.861591423008662 9.71558041329984e-14
v 21.834519432836281 9.6852246349601003 0.00047677290571038276
v 21.705454008408385 6.7564390391240554 3.6064538344232515
v 21.741496706435353 4.0361382641536308 3.5280473349909398
v 21.950163608013263 15 1.8856577361785192
v 21.736611996245855 5.4047960033356812 3.5929826011323707
v 21.690482986218456 12.009326475908479 2.6796801314804721
v 21.837794539151488 7.0318364432010414 7.2642130976392424e-05
v 21.646167070340333 8.7884990514665446 3.6297029945005188
v 21.693320719307785 11.449046275951179 3.1412210927106115
v 21.742917331499825 4.7230883463501083 3.5780791308181481
v 21.728902957694288 1.9123260090064842 5.417471191016206e-05
v 21.672591123488623 0.73970373050439331 2.5867877917681938
v 21.87371343028806 11.535650286261957 0.0030130436771275519
v 21.877417254346202 13.485882030765115 2.5608630729559358
v 21.660230376681103 8.108562964752025 3.6194249503748788
v 21.841133731306122 5.0119345039049197 0.00052660951640333832
v 21.754441847845655 2.4677325299387203 0.00019836128921705605
v 21.807633568678632 3.6879804164044447 0.0004989248508758151
v 21.697944641113281 0 2.564749002456665
v 21.674332083821938 3.4880910968887022 3.1022607999967176
v 21.705995918915615 10.857906283750555 3.5371937545616161
v 21.707415819276314 1.3941297506534442 0.00021346010955012397
v 22.097667694091797 15 2.5162138938903809
v 21.676658445117923 0.44762014293604901 0.0059234396150516858
v 21.664636611938477 0 0.022056000307202339
v 21.690345175221971 0.90862751175201772 7.879071124160669e-05
v 21.638081127261206 0 0.49219403963125363
v 21.624165319550485 0 0.97702394825528882
v 7.2767560671762572 1.9839150260225149 15
v 7.2523128142160562 0.024195638026867149 0.98830284065457219
v 7.2841180108598609 0.01678039822172183 2.0713225632132728
v 7.0251209120172842 0.032208437236086081 12.820557948668023
v 7.8909070430880632 3.540956997716787 7.7858803523723701
v 7.3271150139717065 0.012304928704292485 3.29629752874812
v 6.9786960340602064 0.037934568974163904 11.552200207430648
v 6.9924268571302228 0.033890775334488324 12.198964936205243
v 7.0511130861645555 0.034939521185586658 9.5495365927782085
v 7.9069279923192752 3.5486722588085255 10.196872436921506
v 7.2640253393886276 0.019913755364405511 1.5137733196409056
v 7.10033847017871 0.028523739075578466 8.8873927373781711
v 7.0724017612786954 0.029882725485618742 13.409950648398006
v 7.2846404581071198 0.019020897197076669 6.1881096188111382
v 7.0104081933488445 0.033584771351120632 10.219086988571501
v 7.9044031510274557 3.536459674472479 9.5891143403075532
v 7.2418732532217209 0.021773718856801308 6.9811425501707127
v 7.4766479143910374 2.5255723840684299 14.346793618316141
v 7.9497506511275073 3.3693857595849028 3.8756440901659515
v 7.8963383595834298 3.547506986953354 6.5013098174026256
v 7.2599496589616361 1.4723518059509915 15
v 7.9072657587933879 3.481382966874774 10.805702916138507
v 7.8941262267845254 3.532761685219675 8.3847890334654434
v 7.8916629489171255 3.5437101320777717 7.1846935352723023
v 6.9851296298607064 0.037094353026265174 10.889285947275919
v 7.9237728523961461 3.5487505072729708 4.4896058623256394
v 7.3369704424966873 0.014976580399134947 3.9658639942499994
v 7.6384203471821444 2.5397978386603191 13.695037532805703
v 7.9126143453467828 3.1871435581488612 11.350063432753547
v 7.2513338901569817 0.974709861856903 15.000000000000004
v 7.1520631432158535 0.025588974555543757 8.2377668830241468
v 7.8682781461041564 2.5378455058049498 1.1484837580887639
v 7.7013301849365234 2.5040550231933594 0
v 7.3158789897473184 0.019741138865132755 5.4156151740563958
v 7.8990961736020253 3.5320417481364199 8.985269359642265
v 7.200464085244068 0.022453360520434212 7.6029423652377597
v 7.9901966359868162 2.5506475252150156 2.3160080857008234
v 7.9377766486535002 2.5413539271152032 1.7288110876074869
v 7.6048061352597269 1.977141012751124 0
v 7.5110926269447216 1.4614027194829602 0
v 7.2986698150634766 2.5040550231933594 15
v 7.7711143237459073 2.5363705165402193 13.046962400298622
v 7.9061661932376648 3.5367447869101043 5.8197736633408521
v 7.9132926130645984 2.7589951440774358 11.807693379845183
v 7.8662610756180911 2.5429112822424624 12.404994976180181
v 7.993970205724672 2.9672252902407523 3.4014060419753056
v 7.7857975030041047 2.538640925861924 0.57287354058535656
v 7.3334504048876674 0.016011317480383071 4.67307960301763
v 7.3076331576528357 0.016756429479318481 2.6649380273818251
v 8.019917405655173 2.6097233328043057 2.9094759725485093
v 7.9162829166922322 3.5425620427133531 5.1474589377883051
v 7.2503573923099927 0.019563787548782501 0.48742635047253424
v 7.2552635669708252 0.016040999442338943 0
v 7.3372023494443219 0.48429226420139171 0
v 7.1291443373540933 0.025588736091915972 13.965057260214566
v 7.1911310673479942 0.020772338580276471 14.490965213526911
v 7.2552635669708252 0.016040999442338943 15
v 7.4219016668893794 0.9637749867650689 0
v 7.2508182685027354 0.49104328298285499 15.000000000000004
v 18.726218108849807 7.7855306635269574 8.7603194182327915
v 21.681764132492994 7.4384082203279176 3.6106311403395823
v 20.013010849423146 7.562034946269435 4.3933492891966068
v 23.497919940633494 7.4379710481273058 3.6480000063066558
v 19.270610003877124 7.8115320530169177 9.8382970671109664
v 24.678486663551649 7.4910340887160931 4.1686975930548638
v 19.650022010698383 7.8234076563931705 10.28966666016885
v 18.882825877871312 7.7016121232096157 5.8215019770281611
v 22.887422784142373 7.4244356343136362 3.533639632583176
v 26.046804377328186 7.636833000280232 5.6817762794856801
v 22.278447540127331 7.4238977957449137 3.5214585164700494
v 18.576940378115353 7.7734809314613802 8.1579091118367053
v 26.3111120080893 7.7105969391390587 6.3393111233157544
v 21.093119829959814 7.8565574287117261 11.231041058585554
v 25.213543094677593 7.5285657579543965 4.5780847337442108
v 21.64215325843449 7.8757523341316755 11.391040258051072
v 20.0845996197814 7.8337486352942527 10.677216290530115
v 23.426996484956749 7.9780682870988189 11.372664052459427
v 26.410902732192049 7.9328999423247737 8.2491033971205248
v 24.061926298098204 8.0158953928145795 11.164274610822289
v 22.755324245990842 7.9351366382376138 11.46725360904243
v 20.529014857396135 7.5112739172233223 4.0483194749115876
v 26.475008896434744 7.8660968443955745 7.6406744986361499
v 20.57052879089758 7.8437508484304796 10.990252365373514
v 24.647711208711492 8.0429966823146231 10.853932822370931
v 21.09044751769035 7.468483760108203 3.7869652668357614
v 25.625006284358875 8.0507380771793997 9.9789078425819557
v 25.175402563877515 8.0551904453065148 10.457441761615565
v 18.525984938850343 7.761876573223641 7.5347917813076002
v 18.67778583459511 7.7295616624599646 6.3790831416032443
v 26.242708084452826 7.9886816855101728 8.8520445811610458
v 22.20136224685654 7.9025216503640587 11.47259715965345
v 18.558892916662685 7.7488700318414763 6.9531031448528946
v 25.984694772210663 8.0286298227741817 9.4373272508655717
v 19.180417424426906 7.6626201031598722 5.2959942669791893
v 26.45524258897548 7.7940296839024388 7.0403598084252774
v 25.674376072306035 7.5762257412492753 5.0893926305395745
v 24.09946205651714 7.4609699867740167 3.859861065398063
v 18.959614909871423 7.7986620068741423 9.3252526858921936
v 19.558850887298892 7.6145953123629866 4.813792852662246
v 8.4740829339451338 11.366308821623598 7.4701236809351421
v 11.278100319927887 8.7496450565977053 7.3398146302152982
v 4.3267505991718629 9.9072534810518142 7.3801381621023729
v 6.5458154242692403 3.6275855126062169 7.1079264159475226
v 9.1883922857615161 3.8967051022683763 7.2370008462548485
v 11.432438688479323 8.062562002262208 7.3402849500513732
v 9.6343629439425147 10.86194315730658 7.3912963403734047
v 5.3208538402251566 4.1561181071631044 7.0173689302998614
v 7.8551263644052485 11.46915726433355 7.5048211041755302
v 3.7185225703995615 6.2779409286636501 7.0198222557503556
v 9.0702140745996793 11.16416338045266 7.4293065788452743
v 7.8916629489171255 3.5437101320777717 7.1846935352723023
v 9.7855088835259494 4.2405910531402906 7.2582623082376951
v 11.136310653625237 5.8924941892507503 7.3149402910106236
v 5.9661722977751763 11.177423434967011 7.5115227847580606
v 4.8544157317719954 10.474794472451579 7.43937859849507
v 6.5872041964878685 11.375665887468958 7.5273169251940475
v 11.000503460355212 9.3921611355479815 7.3404128935023927
v 11.364190218588639 6.6064672321674998 7.3290493039917202
v 3.9260324284567156 9.2418229673602568 7.3112085922242764
v 4.7968329687700795 4.5712280802541034 6.9836338723675926
v 10.611749668358307 9.9631592207248616 7.3469233599395753
v 7.212574681648471 3.524079045164457 7.1496573233155694
v 10.32570227364684 4.6909205451583649 7.2779924071744331
v 5.9109107857192242 3.8429836410824381 7.0617879538280128
v 3.978096776178611 5.6408804428065471 6.9820988461701532
v 3.5693521611030903 6.960589936635122 7.0771150192021208
v 7.222319235249099 11.471025110597932 7.5252787197899655
v 8.5513882292489001 3.6643583973393383 7.2129058466975051
v 4.3467662955219755 5.0706877293436765 6.9699750730200885
v 10.783887146275722 5.2460096914019463 7.2970236688480181
v 3.5280623281059347 7.7383373225104588 7.1539973087638664
v 5.379743150085023 10.877159581129156 7.480745583326275
v 11.456966289277775 7.3562153867149522 7.3380419216896549
v 3.652936867062329 8.5107643047147334 7.2345663965724532
v 10.153589824756185 10.459498790035173 7.3631814881490136
v 29.040818209166865 7.2479488273146142 3.8537220179696892
v 29.714357050601386 7.596377084890082 9.5169513662530338
v 24.188852031104176 7.1131301480377092 0.21037504899415307
v 28.306264871955904 7.7079267817095705 12.227900159666824
v 28.678878930156792 7.711657135547803 11.717030243467324
v 29.961819239400945 7.3744362418094784 7.1494294872232844
v 26.339055079621563 7.4971662108169355 13.930733844410518
v 24.922127989419465 7.1239931177630265 0.42447327650813838
v 15.72812246753395 7.5645877119524068 15.000000000000002
v 26.890315146868154 7.5792406162625419 13.564315095208368
v 13.760804983518481 7.0898383200172894 1.5346122162925832e-29
v 23.202237451694373 7.1528759703184477 14.952507662729891
v 19.701650578618619 6.9224559453180579 1.6089030853086267e-08
v 21.946495600515156 7.1663562636069269 14.999685512206156
v 19.00196930208919 6.9026833184300953 5.7360796958601037e-10
v 27.367269458033071 7.1806301510952029 1.8166733992294852
v 18.312938103211685 6.8993382187420433 1.1103320766941724e-11
v 21.12256944113043 6.9935472395356957 5.4267383563079336e-06
v 29.783244102049832 7.2944527450466525 5.8328319133489934
v 22.57585419166336 7.1491467799533375 14.992261016936135
v 11.736145417547757 6.9805936579282335 11.279917875584594
v 23.86069512606727 7.1823017652466827 14.853318807283255
v 11.475216598518475 7.5049724634953519 6.0666758991858698
v 29.939828473601416 7.4856142574672582 8.3420110917339567
v 25.14072930543696 7.3144901042319832 14.501841168042109
v 27.857670885049167 7.2027883458292283 2.2610536466431372
v 25.610677616606544 7.1326903825117123 0.70231173974265015
v 16.971508339981732 6.9401483747697021 1.0651086162068765e-16
v 15.673372013609542 7.013917753205698 1.2255586818152428e-20
v 12.44063269319 6.971035591469537 12.360706270472168
v 14.397551211458055 7.0740346681325423 2.8958884688854149e-26
v 14.134581990724751 7.553444697719371 15.000000000000004
v 29.912843977481756 7.3319019646168551 6.553893836375341
v 13.32007512648898 7.52970311167849 15.000000000000004
v 28.679883926331613 7.2377322983212311 3.2883633354058679
v 29.014794839396778 7.7003269388510667 11.193572060506011
v 26.25187013554979 7.1440118521280311 1.0256396312889167
v 17.980286793362012 7.4693173010723646 15
v 29.972713247285938 7.4273363739356277 7.745906521226483
v 11.892637480020319 7.6175504767780859 3.5929329954631752
v 29.291594524094133 7.676552495800637 10.646937507305788
v 21.314694926391489 7.1997689881441911 14.999994361618111
v 11.48254802575544 7.5908268015149893 4.7703123244454373
v 16.318081069289182 6.9759612066668346 1.2332525000753789e-18
v 29.334756019765706 7.2570253454661335 4.4754563193821966
v 19.368101637469881 7.3566456683030639 15
v 29.589070859984972 7.270484199267532 5.1353285601397349
v 20.409506111561317 6.9548199900447791 1.9784574913416674e-07
v 11.446145882496495 7.2645623334335241 8.0182354073570181
v 11.456324406631147 7.021877682485993 10.68683050238236
v 11.458720666616987 7.1792236441345239 8.6929109594693816
v 23.419913172834832 7.0953550092685846 0.079870997747303218
v 14.938597320155667 7.5662022457914553 15.000000000000004
v 12.475083537293964 7.337121765301112 14.337210500694393
v 12.321639440321627 7.6047135707914073 3.1238001466218059
v 11.452100648289578 7.0554271196584999 10.026531634870761
v 20.030544373720826 7.2985770224264046 14.99999999999649
v 17.251370941607668 7.5146255270627149 15.000000000000007
v 21.837794539151488 7.0318364432010414 7.2642130976392424e-05
v 12.465666839617345 7.2470605225055902 0.6293969465762379
v 12.463499438034614 7.5643384929672157 2.5103877780296027
v 27.878483859295038 7.686102575897495 12.707205927637226
v 27.401851899626287 7.6433381437116559 13.150855519108003
v 12.483786582946777 7.0976672172546387 0
v 16.499942658986257 7.547192771594359 15
v 29.843094989307133 7.543522852692627 8.9319708688676371
v 11.528775656709538 7.6082010545242813 4.1225397004564162
v 20.677613439358552 7.2450690364331489 14.999999977517447
v 12.456421772533467 7.0627960695052092 13.01693390320062
v 12.448422248426795 7.4886029359991557 1.8839430280140268
v 22.632735640978385 7.0682312370922027 0.012450872037581051
v 28.285344992916521 7.2226993220201958 2.7594251566066608
v 12.463858601507592 7.1874139694093344 13.67580358328803
v 12.469881602195787 7.3806808964223567 1.2577172861755122
v 11.48131725959189 7.43649618545723 6.7060525599580885
v 12.186810694004786 6.9451203927769001 11.755152390036724
v 17.63605681128297 6.9128192258808232 1.3269831539985455e-14
v 11.456056320443432 7.1082205252839312 9.3621867520168269
v 18.685630720848486 7.415114543423039 15
v 24.509914263278191 7.23739668068899 14.710724944370316
v 15.034252817949671 7.0480749423529003 5.0496434044662595e-23
v 13.122824704588592 7.0964695412086023 2.3341666612833259e-35
v 11.473491786660421 7.557186327988596 5.4204095579357077
v 26.836989439994802 7.1602106333371385 1.3994508383447921
v 12.5 7.5 15
v 11.456966289277775 7.3562153867149522 7.3380419216896549
v 29.518587803814196 7.6414377030887106 10.085419081023076
v 25.751315316845883 7.4050853361266586 14.23960690771279
v 17.544296233893789 14.400404565081432 8.0464372039660894
v 9.9226196393761157 14.999999838762832 8.1901553481706468
v 18.508700064031462 4.5618660445689603 7.4971783400772516
v 16.861831126022423 15.000000000000004 8.2085792886531834
v 17.815655992916941 3.2891064341043794 7.3792901733393848
v 0.43957509725533789 9.9624732177997579 7.5631788745177513
v 0.046591654750018779 8.0320371940566755 7.5472919942353673
v 4.8949668349052669 14.513971371574925 7.9875793768173136
v 14.376965092026833 1.7630753913874994e-21 6.7688943130100068
v 0.11195985280947285 6.3067287499768145 7.5935239178867846
v 12.880152856132044 15 8.4562135394366607
v 2.4518826325381222 1.9819695317512398 7.4209162206770873
v 1.9902148696364352 2.4370332827636414 7.476091629717013
v 8.8145029617390804 9.8457810633276064e-05 6.9066221487555151
v 10.315889259703489 8.2071144710889196e-08 6.8375793491324872
v 0.24056966827555895 9.2838399427655993 7.5418120695307902
v 8.1312135557748615 14.999254453760482 8.0784926501593262
v 2.0375049435090151 12.617468328072283 7.7960637028484587
v 11.069692168150528 15 8.305783847534947
v 2.9433978404886689 1.5581168408623931 7.3623566262695217
v 16.27794461530582 7.4918326060282293e-32 6.8517953194819778
v 13.732665361917199 1.6081919532774731e-18 6.7509577929143507
v 16.90734210014319 0 6.8759475820845957
v 5.2506198634431769 0.37068602259073874 7.1234637319227154
v 0.89543421139571722 3.9892691013178547 7.5905898498793745
v 1.5735581091347055 2.9275602654584763 7.5247511971627681
v 18.520624686225887 10.106751929998076 7.5624331273755896
v 1.0737703981813851 11.348711069321283 7.6616193631232985
v 9.3417275826895629 14.999995834775605 8.1432563442451524
v 8.0352341094438273 0.0019779099980032737 6.9417857874442364
v 6.195562288861975 14.858770242086774 8.0229796229544483
v 1.5186837764802417 12.007226499694534 7.7281462061224371
v 3.1487584142658518 13.577884006330102 7.9032426835829659
v 3.4763403338691634 1.1896630964002242 7.3024161767397375
v 0.71752715502170661 10.657313375455594 7.6041758445086849
v 0.020496904075692313 7.4649121391548139 7.562409713762694
v 14.841296170042639 15 8.441144481692632
v 7.2418732532217209 0.021773718856801308 6.9811425501707127
v 11.655217144252518 15 8.3652042442563257
v 4.6255773979786987 0.58390357112841507 7.1819701133993954
v 11.733278749685368 3.0731406430840942e-11 6.773817620524877
v 4.2854563988366294 14.256341818994088 7.9655611199387515
v 12.257966272802507 15 8.4174771590392989
v 18.525981992131456 5.3389312438361722 7.5270110339865175
v 18.299615825700712 3.8370174745235386 7.4465488203649155
v 18.520639329194118 6.9450391664823918 7.5410483393974062
v 5.8985543937400031 0.1976745965013455 7.0690215668005463
v 0.22984182449516694 5.7025430880298753 7.6047065611026223
v 15.647481268005997 7.5465943491739599e-28 6.8240920530462077
v 15.014485371325911 2.2191917816809164e-24 6.7949781363556285
v 2.6217940166656231 13.162967195094383 7.8587329227464
v 8.7451185157589535 14.999929179405202 8.1063279504872803
v 13.520568170901164 15 8.4756949654239548
v 17.538196479758824 1.2847304675712987 7.1027315299755287
v 0.040662316133800315 6.9242561040821977 7.577958365861674
v 0.40912062966613749 5.1172091811436413 7.6091908384467484
v 12.413708979156342 2.6134572003625257e-13 6.7531995966301164
v 17.536455154418945 0 6.8973169326782227
v 16.187066911808767 15 8.3052671812093273
v 9.5755389618799374 3.1460165941087987e-06 6.8723990299333551
v 18.525984938850343 7.761876573223641 7.5347917813076002
v 6.8831241215598578 14.953025344997464 8.0402350676437599
v 6.5651583289618234 0.07263915555291825 7.0211266567896669
v 17.536455154418945 15 8.1026830673217773
v 5.5322686118175444 14.713351675007882 8.0060671920232664
v 17.533022119284183 1.9480653160775865 7.2003619042925529
v 1.2086118848950964 3.4476628085313195 7.5633637411385024
v 17.53298780467653 13.185068647558921 7.9176061268490248
v 10.495251300084075 14.999999999999837 8.2455923969847777
v 17.560371088534104 2.6311114783630005 7.292663054756237
v 0.11557591199322685 8.6373323987224389 7.5382771139526881
v 13.079153841892726 9.4803597317625363e-16 6.7451809952306814
v 0.62309425044150102 4.5432584243966811 7.6055962565099566
v 4.0374794702209886 0.86554601766880201 7.2418843796432029
v 18.521060910112187 8.5629234478788483 7.5312987645137035
v 17.693414330600501 11.9402886160718 7.7543308547863621
v 17.551449683470722 0.63768885976955725 7.001526237002329
v 18.465313478366202 10.830166570360429 7.607378294634251
v 18.525831216313122 6.1349884412274918 7.5406890946887106
v 17.546981445746955 12.561848745297565 7.8410606507332918
v 18.093891398523198 11.414111036995109 7.6681972700196201
v 3.7005629447914066 13.948292014253745 7.9381844019156418
v 17.548439400572697 13.796709702659083 7.9850643934760051
v 15.512869538611985 15 8.3847301773658423
v 18.522658926659698 9.3481996027467282 7.5383754827592089
v 7.505967316553134 14.994252615662141 8.0573613490725631
v 11.034801618574042 1.9778172947287718e-09 6.8034721712410722
v 14.175757431940806 15.000000000000004 8.4714967729228263
v 2.7116553992951502 13.24188203143008 11.142856657215125
v 2.3832509349050266 12.953923040847112 2.7796998194165159
v 2.2607238221738255 12.83780624835568 0.672122706888578
v 2.7018248048009408 13.23606568531174 12.565452148990824
v 2.6899296580646848 13.227243271807831 9.5649170910856647
v 4.7201113383168334 10.332700541974189 9.6506621510223365
v 2.5047145810934444 13.070387515104901 5.7523221617276112
v 4.0136497847072761 11.80146696936243 15
v 2.4413730018781852 13.010998173199532 4.2679944096557971
v 2.3076565990653557 12.882577200280435 1.3553636127144935
v 2.5835231356002613 13.132559360686791 7.173629455173999
v 2.4714971322515797 13.039522134737954 5.0154257034739267
v 4.9152346176747077 10.517829570815767 6.6890792878333141
v 2.3531851961328947 12.915973762737217 2.0571633528618811
v 4.235878436073591 11.250221261209816 14.303249120312509
v 2.4112609419084365 12.985109828381898 3.5193702132375342
v 2.5434663867921925 13.101013880623512 6.4723767913079673
v 2.706464844565895 13.240596565395368 10.37283092393022
v 4.6129355668216414 11.119655788055347 3.3259354906246532
v 2.7097932319853881 13.248613018674465 13.836862163785927
v 2.7018559465125778 13.238143368282444 13.218902476581441
v 4.1280992660227609 11.15554235299189 13.607541844141707
v 2.7042889294100556 13.242640421206733 11.873692289212215
v 4.5585310804263948 10.421488402301192 11.072933519144561
v 3.1125229862600365 11.951065814836136 0
v 2.6537793722007632 12.376439708646485 0
v 2.6217940166656231 13.162967195094383 7.8587329227464
v 3.5736187783905695 11.527795354821333 0
v 4.7599752928094388 10.370618540260198 8.9194507050841079
v 4.8544157317719954 10.474794472451579 7.43937859849507
v 4.2174094159882261 11.242854888084494 1.369882646818152
v 4.2973721020794535 11.301071032655038 2.0518020459213449
v 4.684028482097256 10.317046096539148 10.375270837058471
v 5.0050189147586206 10.601822934174754 5.2157767579724013
v 3.6920044782200137 12.212592438734674 15
v 4.239729524711402 10.727249804020765 11.625763755030153
v 4.0403813324115543 11.079828455475145 12.913088241740706
v 4.919560638689858 10.772368938065711 3.8307644301163082
v 3.9972088508724521 11.011577153126314 12.218341870024732
v 2.6623582632634522 13.198739304308745 8.7237051430749304
v 2.1966989040374756 12.803300857543945 0
v 5.0177721137816977 10.63853385883001 4.5057996135316056
v 4.8103046909182705 10.414775822272709 8.1826345169552255
v 4.1392198066863291 11.164435255721905 0.68551443135601087
v 4.9636633623518804 10.566894140210124 5.9446499569502524
v 4.3377728462219238 11.373023986816406 15
v 4.3656382245365961 11.3440312505005 2.7312174463211343
v 4.0363779067993164 11.106012344360352 0
v 3.0608751915096599 12.950732161589819 15
v 2.7498915195465088 13.288437366485596 15
v 2.7279064866552734 13.265158727808348 14.426457522817369
v 3.3743999086634924 12.595685722867046 15
l 1/1 173/173
l 173/173 75/75
l 75/75 144/144
l 144/144 200/200
l 200/200 97/97
l 97/97 135/135
l 135/135 58/58
l 58/58 137/137
l 137/137 133/133
l 133/133 38/38
l 38/38 17/17
l 17/17 143/143
l 143/143 27/27
l 27/27 114/114
l 114/114 15/15
l 15/15 76/76
l 76/76 24/24
l 24/24 29/29
l 29/29 25/25
l 25/25 43/43
l 43/43 71/71
l 71/71 32/32
l 32/32 128/128
l 128/128 72/72
l 72/72 127/127
l 127/127 89/89
l 89/89 61/61
l 61/61 62/62
l 62/62 165/165
l 165/165 118/118
l 118/118 82/82
l 82/82 63/63
l 63/63 54/54
l 54/54 88/88
l 88/88 196/196
l 196/196 104/104
l 104/104 152/152
l 152/152 123/123
l 123/123 204/204
l 204/204 120/120
l 120/120 154/154
l 154/154 161/161
l 161/161 195/195
l 195/195 60/60
l 60/60 194/194
l 194/194 151/151
l 151/151 91/91
l 91/91 73/73
l 73/73 150/150
l 150/150 197/197
l 197/197 110/110
l 110/110 160/160
l 160/160 93/93
l 93/93 157/157
l 157/157 8/8
l 8/8 39/39
l 39/39 16/16
l 16/16 57/57
l 57/57 26/26
l 26/26 129/129
l 129/129 19/19
l 19/19 166/166
l 166/166 22/22
l 22/22 198/198
l 198/198 42/42
l 42/42 36/36
l 36/36 121/121
l 121/121 14/14
l 14/14 41/41
l 41/41 66/66
l 66/66 119/119
l 119/119 83/83
l 83/83 80/80
l 80/80 103/103
l 103/103 53/53
l 53/53 162/162
l 162/162 95/95
l 95/95 96/96
l 96/96 59/59
l 59/59 140/140
l 140/140 49/49
l 49/49 132/132
l 132/132 48/48
l 48/48 65/65
l 65/65 159/159
l 159/159 202/202
l 202/202 136/136
l 136/136 134/134
l 134/134 79/79
l 79/79 51/51
l 51/51 81/81
l 81/81 164/164
l 164/164 74/74
l 74/74 46/46
l 46/46 130/130
l 130/130 178/178
l 178/178 3/3
l 3/3 177/177
l 177/177 44/44
l 44/44 138/138
l 138/138 34/34
l 34/34 33/33
l 33/33 122/122
l 122/122 23/23
l 23/23 67/67
l 67/67 40/40
l 40/40 85/85
l 85/85 11/11
l 11/11 50/50
l 50/50 112/112
l 112/112 52/52
l 52/52 186/186
l 186/186 6/6
l 6/6 185/185
l 185/185 12/12
l 12/12 191/191
l 191/191 31/31
l 31/31 87/87
l 87/87 182/182
l 182/182 7/7
l 7/7 181/181
l 181/181 18/18
l 18/18 183/183
l 183/183 5/5
l 5/5 184/184
l 184/184 108/108
l 108/108 77/77
l 77/77 109/109
l 109/109 99/99
l 99/99 139/139
l 139/139 78/78
l 78/78 111/111
l 111/111 84/84
l 84/84 175/175
l 175/175 2/2
l 2/2 176/176
l 176/176 169/169
l 169/169 141/141
l 141/141 167/167
l 167/167 64/64
l 64/64 69/69
l 69/69 116/116
l 116/116 158/158
l 158/158 98/98
l 98/98 187/187
l 187/187 92/92
l 92/92 188/188
l 188/188 115/115
l 115/115 113/113
l 113/113 171/171
l 171/171 55/55
l 55/55 203/203
l 203/203 145/145
l 145/145 117/117
l 117/117 153/153
l 153/153 94/94
l 94/94 102/102
l 102/102 13/13
l 13/13 45/45
l 45/45 9/9
l 9/9 147/147
l 147/147 20/20
l 20/20 35/35
l 35/35 37/37
l 37/37 70/70
l 70/70 170/170
l 170/170 205/205
l 205/205 30/30
l 30/30 21/21
l 21/21 148/148
l 148/148 106/106
l 106/106 168/168
l 168/168 199/199
l 199/199 28/28
l 28/28 126/126
l 126/126 193/193
l 193/193 142/142
l 142/142 192/192
l 192/192 86/86
l 86/86 90/90
l 90/90 125/125
l 125/125 101/101
l 101/101 163/163
l 163/163 107/107
l 107/107 47/47
l 47/47 189/189
l 189/189 10/10
l 10/10 190/190
l 190/190 172/172
l 172/172 149/149
l 149/149 146/146
l 146/146 68/68
l 68/68 124/124
l 124/124 131/131
l 131/131 56/56
l 56/56 201/201
l 201/201 100/100
l 100/100 155/155
l 155/155 180/180
l 180/180 4/4
l 4/4 179/179
l 179/179 105/105
l 105/105 156/156
l 156/156 174/174
l 174/174 1/1
l 206/206 241/241
l 241/241 219/219
l 219/219 215/215
l 215/215 208/208
l 208/208 233/233
l 233/233 214/214
l 214/214 222/222
l 222/222 244/244
l 244/244 220/220
l 220/220 242/242
l 242/242 227/227
l 227/227 221/221
l 221/221 217/217
l 217/217 232/232
l 232/232 218/218
l 218/218 223/223
l 223/223 230/230
l 230/230 224/224
l 224/224 209/209
l 209/209 226/226
l 226/226 207/207
l 207/207 236/236
l 236/236 210/210
l 210/210 225/225
l 225/225 235/235
l 235/235 237/237
l 237/237 213/213
l 213/213 238/238
l 238/238 231/231
l 231/231 211/211
l 211/211 216/216
l 216/216 212/212
l 212/212 234/234
l 234/234 239/239
l 239/239 228/228
l 228/228 240/240
l 240/240 229/229
l 229/229 243/243
l 243/243 206/206
l 245/245 254/254
l 254/254 283/283
l 283/283 262/262
l 262/262 246/246
l 246/246 255/255
l 255/255 274/274
l 274/274 253/253
l 253/253 268/268
l 268/268 269/269
l 269/269 249/249
l 249/249 271/271
l 271/271 261/261
l 261/261 270/270
l 270/270 282/282
l 282/282 263/263
l 263/263 264/264
l 264/264 248/248
l 248/248 258/258
l 258/258 252/252
l 252/252 272/272
l 272/272 256/256
l 256/256 265/265
l 265/265 250/250
l 250/250 251/251
l 251/251 247/247
l 247/247 266/266
l 266/266 273/273
l 273/273 278/278
l 278/278 259/259
l 259/259 260/260
l 260/260 275/275
l 275/275 280/280
l 280/280 281/281
l 281/281 267/267
l 267/267 257/257
l 257/257 279/279
l 279/279 276/276
l 276/276 277/277
l 277/277 245/245
l 284/284 289/289
l 289/289 291/291
l 291/291 318/318
l 318/318 312/312
l 312/312 296/296
l 296/296 301/301
l 301/301 294/294
l 294/294 290/290
l 290/290 298/298
l 298/298 317/317
l 317/317 320/320
l 320/320 295/295
l 295/295 304/304
l 304/304 303/303
l 303/303 315/315
l 315/315 313/313
l 313/313 322/322
l 322/322 292/292
l 292/292 293/293
l 293/293 309/309
l 309/309 299/299
l 299/299 307/307
l 307/307 305/305
l 305/305 286/286
l 286/286 306/306
l 306/306 288/288
l 288/288 297/297
l 297/297 314/314
l 314/314 311/311
l 311/311 285/285
l 285/285 321/321
l 321/321 300/300
l 300/300 319/319
l 319/319 308/308
l 308/308 287/287
l 287/287 316/316
l 316/316 302/302
l 302/302 310/310
l 310/310 284/284
l 323/323 325/325
l 325/325 329/329
l 329/329 358/358
l 358/358 326/326
l 326/326 350/350
l 350/350 333/333
l 333/333 351/351
l 351/351 339/339
l 339/339 347/347
l 347/347 359/359
l 359/359 354/354
l 354/354 330/330
l 330/330 360/360
l 360/360 337/337
l 337/337 335/335
l 335/335 348/348
l 348/348 332/332
l 332/332 344/344
l 344/344 346/346
l 346/346 352/352
l 352/352 361/361
l 361/361 327/327
l 327/327 356/356
l 356/356 328/328
l 328/328 340/340
l 340/340 355/355
l 355/355 357/357
l 357/357 341/341
l 341/341 353/353
l 353/353 324/324
l 324/324 349/349
l 349/349 331/331
l 331/331 336/336
l 336/336 342/342
l 342/342 334/334
l 334/334 343/343
l 343/343 345/345
l 345/345 338/338
l 338/338 323/323
l 388/388 370/370
l 370/370 373/373
l 373/373 386/386
l 386/386 374/374
l 374/374 362/362
l 362/362 367/367
l 367/367 368/368
l 368/368 382/382
l 382/382 366/366
l 366/366 372/372
l 372/372 380/380
l 380/380 414/414
l 414/414 392/392
l 392/392 393/393
l 393/393 385/385
l 385/385 410/410
l 410/410 371/371
l 371/371 407/407
l 407/407 405/405
l 405/405 376/376
l 376/376 375/375
l 375/375 377/377
l 377/377 406/406
l 406/406 400/400
l 400/400 365/365
l 365/365 391/391
l 391/391 412/412
l 412/412 387/387
l 387/387 390/390
l 390/390 411/411
l 411/411 381/381
l 381/381 394/394
l 394/394 378/378
l 378/378 396/396
l 396/396 408/408
l 408/408 383/383
l 383/383 413/413
l 413/413 379/379
l 379/379 402/402
l 402/402 369/369
l 369/369 409/409
l 409/409 397/397
l 397/397 401/401
l 401/401 403/403
l 403/403 364/364
l 364/364 399/399
l 399/399 404/404
l 404/404 395/395
l 395/395 398/398
l 398/398 363/363
l 363/363 389/389
l 389/389 384/384
l 384/384 388/388
l 462/462 417/417
l 417/417 433/433
l 433/433 425/425
l 425/425 464/464
l 464/464 436/436
l 436/436 459/459
l 459/459 447/447
l 447/447 438/438
l 438/438 465/465
l 465/465 415/415
l 415/415 456/456
l 456/456 422/422
l 422/422 466/466
l 466/466 444/444
l 444/444 469/469
l 469/469 446/446
l 446/446 451/451
l 451/451 443/443
l 443/443 427/427
l 427/427 455/455
l 455/455 448/448
l 448/448 432/432
l 432/432 461/461
l 461/461 439/439
l 439/439 470/470
l 470/470 434/434
l 434/434 416/416
l 416/416 426/426
l 426/426 467/467
l 467/467 418/418
l 418/418 423/423
l 423/423 431/431
l 431/431 430/430
l 430/430 428/428
l 428/428 463/463
l 463/463 437/437
l 437/437 452/452
l 452/452 440/440
l 440/440 450/450
l 450/450 420/420
l 420/420 419/419
l 419/419 424/424
l 424/424 445/445
l 445/445 442/442
l 442/442 454/454
l 454/454 429/429
l 429/429 421/421
l 421/421 468/468
l 468/468 453/453
l 453/453 460/460
l 460/460 441/441
l 441/441 458/458
l 458/458 449/449
l 449/449 435/435
l 435/435 457/457
l 457/457 462/462
l 491/491 472/472
l 472/472 499/499
l 499/499 497/497
l 497/497 487/487
l 487/487 498/498
l 498/498 478/478
l 478/478 481/481
l 481/481 475/475
l 475/475 482/482
l 482/482 489/489
l 489/489 492/492
l 492/492 474/474
l 474/474 477/477
l 477/477 501/501
l 501/501 490/490
l 490/490 494/494
l 494/494 496/496
l 496/496 476/476
l 476/476 488/488
l 488/488 473/473
l 473/473 480/480
l 480/480 479/479
l 479/479 486/486
l 486/486 483/483
l 483/483 485/485
l 485/485 495/495
l 495/495 500/500
l 500/500 471/471
l 471/471 484/484
l 484/484 493/493
l 550/550 522/522
l 522/522 516/516
l 516/516 553/553
l 553/553 520/520
l 520/520 525/525
l 525/525 526/526
l 526/526 535/535
l 535/535 549/549
l 549/549 537/537
l 537/537 536/536
l 536/536 548/548
l 548/548 515/515
l 515/515 519/519
l 519/519 551/551
l 551/551 508/508
l 508/508 504/504
l 504/504 531/531
l 531/531 512/512
l 512/512 507/507
l 507/507 529/529
l 529/529 517/517
l 517/517 502/502
l 502/502 509/509
l 509/509 552/552
l 552/552 503/503
l 503/503 521/521
l 521/521 533/533
l 533/533 506/506
l 506/506 510/510
l 510/510 518/518
l 518/518 532/532
l 532/532 505/505
l 505/505 542/542
l 542/542 546/546
l 546/546 538/538
l 538/538 539/539
l 539/539 554/554
l 554/554 513/513
l 513/513 534/534
l 534/534 530/530
l 530/530 544/544
l 544/544 547/547
l 547/547 511/511
l 511/511 543/543
l 543/543 541/541
l 541/541 528/528
l 528/528 540/540
l 540/540 524/524
l 524/524 523/523
l 523/523 545/545
l 545/545 527/527
l 527/527 514/514
l 514/514 550/550
l 557/557 586/586
l 586/586 605/605
l 605/605 566/566
l 566/566 596/596
l 596/596 573/573
l 573/573 588/588
l 588/588 591/591
l 591/591 603/603
l 603/603 572/572
l 572/572 568/568
l 568/568 590/590
l 590/590 597/597
l 597/597 560/560
l 560/560 584/584
l 584/584 564/564
l 564/564 587/587
l 587/587 592/592
l 592/592 585/585
l 585/585 602/602
l 602/602 578/578
l 578/578 580/580
l 580/580 565/565
l 565/565 594/594
l 594/594 601/601
l 601/601 571/571
l 571/571 581/581
l 581/581 610/610
l 610/610 609/609
l 609/609 607/607
l 607/607 606/606
l 606/606 608/608
l 608/608 604/604
l 604/604 593/593
l 593/593 599/599
l 599/599 577/577
l 577/577 600/600
l 600/600 563/563
l 563/563 598/598
l 598/598 569/569
l 569/569 558/558
l 558/558 589/589
l 589/589 579/579
l 579/579 576/576
l 576/576 574/574
l 574/574 583/583
l 583/583 575/575
l 575/575 561/561
l 561/561 595/595
l 595/595 555/555
l 555/555 567/567
l 567/567 556/556
l 556/556 582/582
l 582/582 559/559
l 559/559 570/570
l 570/570 562/562
l 562/562 557/557
l 660/660 647/647
l 647/647 648/648
l 648/648 642/642
l 642/642 657/657
l 657/657 643/643
l 643/643 649/649
l 649/649 650/650
l 650/650 668/668
l 668/668 664/664
l 664/664 663/663
l 663/663 662/662
l 662/662 612/612
l 612/612 621/621
l 621/621 613/613
l 613/613 659/659
l 659/659 616/616
l 616/616 637/637
l 637/637 658/658
l 658/658 644/644
l 644/644 624/624
l 624/624 627/627
l 627/627 646/646
l 646/646 641/641
l 641/641 622/622
l 622/622 619/619
l 619/619 625/625
l 625/625 635/635
l 635/635 617/617
l 617/617 618/618
l 618/618 614/614
l 614/614 623/623
l 623/623 665/665
l 665/665 666/666
l 666/666 667/667
l 667/667 669/669
l 669/669 640/640
l 640/640 631/631
l 631/631 611/611
l 611/611 651/651
l 651/651 628/628
l 628/628 638/638
l 638/638 652/652
l 652/652 655/655
l 655/655 654/654
l 654/654 639/639
l 639/639 632/632
l 632/632 620/620
l 620/620 626/626
l 626/626 645/645
l 645/645 633/633
l 633/633 615/615
l 615/615 634/634
l 634/634 630/630
l 630/630 653/653
l 653/653 661/661
l 661/661 636/636
l 636/636 629/629
l 629/629 656/656
l 656/656 660/660
l 682/682 705/705
l 705/705 692/692
l 692/692 688/688
l 688/688 700/700
l 700/700 703/703
l 703/703 696/696
l 696/696 697/697
l 697/697 694/694
l 694/694 689/689
l 689/689 687/687
l 687/687 690/690
l 690/690 701/701
l 701/701 685/685
l 685/685 683/683
l 683/683 693/693
l 693/693 686/686
l 686/686 676/676
l 676/676 674/674
l 674/674 708/708
l 708/708 670/670
l 670/670 681/681
l 681/681 698/698
l 698/698 702/702
l 702/702 699/699
l 699/699 677/677
l 677/677 704/704
l 704/704 709/709
l 709/709 672/672
l 672/672 691/691
l 691/691 695/695
l 695/695 671/671
l 671/671 680/680
l 680/680 678/678
l 678/678 673/673
l 673/673 707/707
l 707/707 675/675
l 675/675 684/684
l 684/684 706/706
l 706/706 679/679
l 679/679 682/682
l 745/745 716/716
l 716/716 720/720
l 720/720 710/710
l 710/710 718/718
l 718/718 737/737
l 737/737 726/726
l 726/726 724/724
l 724/724 742/742
l 742/742 725/725
l 725/725 712/712
l 712/712 729/729
l 729/729 744/744
l 744/744 741/741
l 741/741 736/736
l 736/736 719/719
l 719/719 735/735
l 735/735 739/739
l 739/739 730/730
l 730/730 717/717
l 717/717 734/734
l 734/734 713/713
l 713/713 732/732
l 732/732 721/721
l 721/721 738/738
l 738/738 714/714
l 714/714 722/722
l 722/722 733/733
l 733/733 740/740
l 740/740 723/723
l 723/723 728/728
l 728/728 743/743
l 743/743 715/715
l 715/715 711/711
l 711/711 727/727
l 727/727 731/731
l 731/731 745/745
l 784/784 751/751
l 751/751 778/778
l 778/778 764/764
l 764/764 792/792
l 792/792 790/790
l 790/790 746/746
l 746/746 780/780
l 780/780 817/817
l 817/817 771/771
l 771/771 761/761
l 761/761 829/829
l 829/829 782/782
l 782/782 772/772
l 772/772 753/753
l 753/753 748/748
l 748/748 797/797
l 797/797 816/816
l 816/816 804/804
l 804/804 763/763
l 763/763 793/793
l 793/793 758/758
l 758/758 760/760
l 760/760 762/762
l 762/762 822/822
l 822/822 773/773
l 773/773 789/789
l 789/789 774/774
l 774/774 826/826
l 826/826 776/776
l 776/776 756/756
l 756/756 827/827
l 827/827 809/809
l 809/809 805/805
l 805/805 819/819
l 819/819 815/815
l 815/815 806/806
l 806/806 800/800
l 800/800 785/785
l 785/785 812/812
l 812/812 788/788
l 788/788 828/828
l 828/828 768/768
l 768/768 820/820
l 820/820 831/831
l 831/831 794/794
l 794/794 796/796
l 796/796 823/823
l 823/823 801/801
l 801/801 795/795
l 795/795 766/766
l 766/766 821/821
l 821/821 775/775
l 775/775 814/814
l 814/814 818/818
l 818/818 799/799
l 799/799 830/830
l 830/830 779/779
l 779/779 777/777
l 777/777 798/798
l 798/798 754/754
l 754/754 810/810
l 810/810 803/803
l 803/803 783/783
l 783/783 824/824
l 824/824 791/791
l 791/791 802/802
l 802/802 813/813
l 813/813 787/787
l 787/787 759/759
l 759/759 765/765
l 765/765 757/757
l 757/757 767/767
l 767/767 825/825
l 825/825 770/770
l 770/770 833/833
l 833/833 752/752
l 752/752 755/755
l 755/755 808/808
l 808/808 807/807
l 807/807 749/749
l 749/749 750/750
l 750/750 781/781
l 781/781 786/786
l 786/786 832/832
l 832/832 747/747
l 747/747 811/811
l 811/811 769/769
l 769/769 784/784
l 841/841 898/898
l 898/898 864/864
l 864/864 895/895
l 895/895 919/919
l 919/919 850/850
l 850/850 885/885
l 885/885 862/862
l 862/862 835/835
l 835/835 902/902
l 902/902 852/852
l 852/852 872/872
l 872/872 876/876
l 876/876 844/844
l 844/844 886/886
l 886/886 921/921
l 921/921 870/870
l 870/870 917/917
l 917/917 892/892
l 892/892 837/837
l 837/837 897/897
l 897/897 834/834
l 834/834 916/916
l 916/916 901/901
l 901/901 913/913
l 913/913 909/909
l 909/909 914/914
l 914/914 911/911
l 911/911 860/860
l 860/860 918/918
l 918/918 908/908
l 908/908 894/894
l 894/894 879/879
l 879/879 912/912
l 912/912 877/877
l 877/877 836/836
l 836/836 878/878
l 878/878 838/838
l 838/838 903/903
l 903/903 899/899
l 899/899 887/887
l 887/887 910/910
l 910/910 891/891
l 891/891 856/856
l 856/856 854/854
l 854/854 882/882
l 882/882 883/883
l 883/883 842/842
l 842/842 855/855
l 855/855 905/905
l 905/905 890/890
l 890/890 874/874
l 874/874 920/920
l 920/920 848/848
l 848/848 893/893
l 893/893 847/847
l 847/847 863/863
l 863/863 871/871
l 871/871 896/896
l 896/896 880/880
l 880/880 857/857
l 857/857 873/873
l 873/873 907/907
l 907/907 867/867
l 867/867 853/853
l 853/853 845/845
l 845/845 846/846
l 846/846 859/859
l 859/859 900/900
l 900/900 858/858
l 858/858 906/906
l 906/906 889/889
l 889/889 881/881
l 881/881 843/843
l 843/843 888/888
l 888/888 869/869
l 869/869 840/840
l 840/840 904/904
l 904/904 849/849
l 849/849 839/839
l 839/839 868/868
l 868/868 861/861
l 861/861 865/865
l 865/865 851/851
l 851/851 884/884
l 884/884 866/866
l 866/866 915/915
l 915/915 875/875
l 875/875 841/841
l 962/962 924/924
l 924/924 931/931
l 931/931 935/935
l 935/935 923/923
l 923/923 937/937
l 937/937 930/930
l 930/930 933/933
l 933/933 928/928
l 928/928 938/938
l 938/938 932/932
l 932/932 948/948
l 948/948 961/961
l 961/961 926/926
l 926/926 939/939
l 939/939 922/922
l 922/922 944/944
l 944/944 925/925
l 925/925 942/942
l 942/942 941/941
l 941/941 972/972
l 972/972 971/971
l 971/971 970/970
l 970/970 973/973
l 973/973 956/956
l 956/956 929/929
l 929/929 967/967
l 967/967 936/936
l 936/936 943/943
l 943/943 958/958
l 958/958 960/960
l 960/960 957/957
l 957/957 945/945
l 945/945 954/954
l 954/954 927/927
l 927/927 950/950
l 950/950 964/964
l 964/964 951/951
l 951/951 934/934
l 934/934 966/966
l 966/966 955/955
l 955/955 963/963
l 963/963 959/959
l 959/959 940/940
l 940/940 968/968
l 968/968 953/953
l 953/953 952/952
l 952/952 965/965
l 965/965 969/969
l 969/969 949/949
l 949/949 946/946
l 946/946 947/947
l 947/947 962/962
