v 9.5420035999999993 -15.676927600000001 -0.98158679999999998
v 9.9750260999999991 -16.160373700000001 -0.98712160000000004
v 9.3056506999999993 -34.7067184 -0.96475610000000001
v 8.9204387999999994 -35.174949599999998 -0.95842799999999995
v 8.3580436999999996 -35.533985100000002 -0.96944249999999998
v 9.6870116999999993 -34.2588425 -0.97958990000000001
v 10.140249300000001 -33.737720500000002 -0.98314509999999999
v 10.647866199999999 -33.077495599999999 -0.9801453
v 11.192893 -32.276001000000001 -0.9795547
v 11.717780100000001 -31.344560600000001 -0.97902429999999996
v 12.5164165 -29.482513399999998 -0.97789040000000005
v 13.211294199999999 -24.0444508 -0.97770679999999999
v 11.4330368 -18.244663200000002 -0.97942689999999999
v 11.0073566 -17.548311200000001 -0.97948060000000003
v 10.4655819 -16.766058000000001 -0.98287429999999998
v 9.1554088999999994 -15.2194843 -0.96855000000000002
v 8.4646740000000005 -14.5710449 -0.96014350000000004
v 7.6532092 -14.083971 -0.97868619999999995
v 6.7110003999999996 -36.555019399999999 -0.9813172
v 7.0028591000000002 -13.6828117 -0.97918530000000004
v 5.8638668000000003 -13.07267 -0.98142419999999997
v 4.5778607999999998 -37.528007500000001 -0.97717209999999999
v 3.7048532999999999 -37.768558499999997 -0.97650119999999996
v 11.9666309 -30.8310146 -0.97869090000000003
v 5.2549973000000003 -37.252208699999997 -0.97849799999999998
v 13.0066109 -22.489574399999999 -0.97806979999999999
v 12.5280924 -20.6789551 -0.97840609999999995
v 13.249406799999999 -24.979261399999999 -0.97741730000000004
v 13.1795063 -26.527805300000001 -0.97864640000000003
v 12.210448299999999 -19.812690700000001 -0.97833910000000002
v 13.039402000000001 -27.437921500000002 -0.97847209999999996
v 12.771308899999999 -28.621787999999999 -0.97780109999999998
v 1.951684 -38.105834999999999 -0.99265760000000003
v 11.836138699999999 -19.002439500000001 -0.97885840000000002
v 12.925890000000001 -28.039380999999999 -0.9778675
v 2.8318460000000001 -38.009113300000003 -0.97583039999999999
v 12.2154808 -30.317466700000001 -0.97835760000000005
v 13.126586 -23.107715599999999 -0.97838910000000001
v 5.9321336999999996 -36.976413700000002 -0.97982389999999997
v 13.259283099999999 -25.6018276 -0.97735510000000003
v 7.4899348999999997 -36.079422000000001 -0.98178520000000002
v 6.4333701000000003 -13.3777475 -0.97718720000000003
v 1.2182317 -38.186431900000002 -1.00668
v 12.796999899999999 -21.573314700000001 -0.97791709999999998
v 9.1130447500000002 -34.940833999999995 -0.96159204999999992
v 9.9136305 -33.998281500000004 -0.98136749999999995
v 9.4963312000000002 -34.48278045 -0.97217299999999995
v 12.982646000000001 -27.73865125 -0.97816979999999998
v 4.9164290499999996 -37.390108099999999 -0.97783504999999993
v 5.4296295499999996 -12.87241985 -0.98932350000000002
v 8.6392412499999995 -35.35446735 -0.96393525000000002
v 12.36594865 -29.89999005 -0.97812399999999999
v 6.1486184500000007 -13.22520875 -0.97930570000000006
v 12.84859945 -28.330584500000001 -0.97783430000000005
v 12.09105585 -30.57424065 -0.97852424999999998
v 5.5935655000000004 -37.114311200000003 -0.97916095000000003
v 6.7181145999999998 -13.5302796 -0.97818625000000003
v 0.8515026 -38.226732249999998 -1.0136912
v 1.5849578499999999 -38.146133450000001 -0.99966880000000002
v 5.0060482000000004 -12.663095500000001 0.0017094
v 4.9999745000000004 -12.6693745 0.50085025000000005
v 5.0007202500000005 -12.667632600000001 -0.4977567
v 4.9969376499999996 -12.672514 0.75042067499999998
v 0.47231770000000001 -38.274822200000003 0.0003056
v 0.47854560000000002 -38.270927400000005 -0.51019840000000005
v 0.47778155 -38.272207250000001 0.51101504999999992
v 4.6719141000000004 34.255187999999997 1.0132486999999999
v 4.5899038000000001 35.264854399999997 0.96227790000000002
v 4.2285376000000001 36.070659599999999 0.95258129999999996
v 3.8200902999999999 36.759601600000003 0.96274859999999995
v 3.1795843000000001 37.1996422 0.97256779999999998
v 2.5094161000000001 37.612594600000001 0.99025730000000001
v 1.6623813999999999 37.977848100000003 0.98683259999999995
v -1.6757991000000001 37.955326100000001 0.98397389999999996
v -2.5907390000000001 37.491809799999999 0.98336089999999998
v -3.335283 37.021682699999999 0.98818289999999998
v -3.8713036000000001 36.5058212 0.96752530000000003
v -4.8429427 -12.010961500000001 0.98843879999999995
v -4.8430857999999999 -11.437966299999999 0.98594769999999998
v -4.7458634000000002 33.6845322 1.0142293
v -4.7857037 34.565868399999999 0.96017229999999998
v -4.6190208999999998 35.3099518 0.95999129999999999
v -4.3732566999999998 35.979503600000001 0.96313459999999995
v 4.9406366000000004 -11.792169599999999 0.98384530000000003
v 4.9023694999999998 -10.388669999999999 0.97728990000000004
v 4.8944863999999999 -9.3230351999999996 0.97755429999999999
v 4.8902067999999996 -8.2888374000000002 0.97774799999999995
v 4.8873056999999998 -7.2743324999999999 0.97780670000000003
v 4.8851471000000002 -6.2688936999999996 0.97782349999999996
v 4.8834590999999996 -5.2665739 0.97781050000000003
v 4.8821015000000001 -4.2656321999999998 0.97778240000000005
v 4.8809934000000004 -3.2654538 0.97779660000000002
v 4.8801183999999997 -2.2653151 0.97785610000000001
v 4.8794440999999997 -1.2646824000000001 0.97790690000000002
v 4.8789201000000002 -0.26386090000000001 0.97792939999999995
v 4.8785143 0.73708030000000002 0.97791910000000004
v 4.8781980999999996 1.7385204000000001 0.97788730000000001
v 4.8779759 2.7403540999999998 0.97788520000000001
v 4.8777904999999997 3.7421033000000001 0.97789789999999999
v 4.8776115999999998 4.7438364000000002 0.97793140000000001
v 4.8773985 6.7459660000000001 0.97800399999999998
v 4.8773521999999998 7.7466822000000004 0.97797829999999997
v 4.8773260000000001 8.7474775000000005 0.97793319999999995
v 4.8772887999999996 9.7482881999999993 0.97788330000000001
v 4.8772558999999998 10.7490644 0.97786439999999997
v 4.8772292000000004 11.749863599999999 0.97786859999999998
v 4.8772181999999997 12.750851600000001 0.97788229999999998
v 4.8772244000000002 13.752073299999999 0.97790449999999995
v 4.8772197000000004 14.753525700000001 0.97792999999999997
v 4.8772019999999996 15.755128900000001 0.97797440000000002
v 4.8772149000000002 16.756381999999999 0.97803379999999995
v 4.8772392 17.7571087 0.9780529
v 4.8773084000000004 18.757770499999999 0.97803240000000002
v 4.8774122999999996 19.7587948 0.97796380000000005
v 4.8775615999999999 20.760252000000001 0.97789040000000005
v 4.8777794999999999 21.761505100000001 0.97784099999999996
v 4.8780627000000001 22.7624092 0.97780489999999998
v 4.8784356000000004 23.763469700000002 0.97779090000000002
v 4.8789787000000002 24.764562600000001 0.97782089999999999
v 4.8797645999999997 25.766000699999999 0.97783929999999997
v 4.8807153999999997 26.7702904 0.97778449999999995
v 4.8815613000000004 27.778223000000001 0.97768929999999998
v 4.8818855000000001 28.792093300000001 0.97748080000000004
v 4.8813810000000002 29.8173733 0.97699959999999997
v 4.8804102 30.8601627 0.97582659999999999
v 4.8649015000000002 32.798278799999999 0.9752672
v -4.8493561999999999 -10.7470503 0.98241800000000001
v -4.8557420000000002 -9.9403667000000002 0.97974570000000005
v -4.8601979999999996 -9.0534295999999994 0.97853699999999999
v -4.8631171999999996 -8.1255492999999994 0.97821239999999998
v -4.8653779000000004 -7.1724547999999997 0.97814860000000003
v -4.8673067000000003 -6.2003244999999998 0.97817209999999999
v -4.8689976000000001 -5.2140621999999999 0.97811369999999997
v -4.8704839 -4.2191910999999998 0.97804800000000003
v -4.8717141000000002 -3.2213354000000001 0.97806950000000004
v -4.8726187000000003 -2.2234813999999998 0.97810050000000004
v -4.8732585999999998 -1.2262472 0.97810359999999996
v -4.8737440000000003 -0.22970660000000001 0.9780875
v -4.8741311999999999 0.76697380000000004 0.97805540000000002
v -4.8744263999999999 1.7648531999999999 0.97799340000000001
v -4.8746700000000001 2.7634460999999999 0.97798099999999999
v -4.8748202000000003 3.7622528000000002 0.97801400000000005
v -4.8749256000000001 4.7612696000000003 0.97806769999999998
v -4.8750318999999998 5.7602099999999998 0.97811250000000005
v -4.8750882000000004 6.7593287999999996 0.97809330000000005
v -4.8751359000000001 7.7584857999999999 0.97808019999999996
v -4.8752035999999999 8.7572612999999997 0.97809690000000005
v -4.8752575 9.7559422999999992 0.97805129999999996
v -4.8753161 10.754994399999999 0.97798339999999995
v -4.8753257000000003 11.754486999999999 0.97793790000000003
v -4.8753013999999997 12.7540646 0.97795699999999997
v -4.8752903999999999 13.7530632 0.97800609999999999
v -4.8752842000000003 14.751634599999999 0.97799250000000004
v -4.8753013999999997 15.750534099999999 0.97794639999999999
v -4.8753146999999997 16.749731100000002 0.97790679999999996
v -4.8753213999999998 17.748943300000001 0.9778869
v -4.8753270999999998 18.748283399999998 0.97786810000000002
v -4.8753443000000001 19.747488000000001 0.97787139999999995
v -4.8753614000000001 20.746122400000001 0.97787990000000002
v -4.8753896000000001 21.744224500000001 0.97787590000000002
v -4.8754501000000001 22.741914699999999 0.97786240000000002
v -4.8755411999999998 23.7392483 0.97784990000000005
v -4.8756890000000004 24.736257599999998 0.97784729999999997
v -4.8759017 25.7331085 0.97784939999999998
v -4.8759750999999998 26.730144500000002 0.97786220000000001
v -4.8756203999999999 27.727041199999999 0.97790120000000003
v -4.8745823000000001 28.721599600000001 0.97785169999999999
v -4.8730149000000003 29.710134499999999 0.97745119999999996
v -4.8719678000000002 30.690095899999999 0.97623280000000001
v -4.8716979 31.666454300000002 0.97405960000000003
v -4.8613238000000001 32.668235799999998 0.97663710000000004
v 4.7658304999999999 33.670436899999999 0.99450780000000005
v 4.8774933999999996 5.7452196999999998 0.97799409999999998
v 0.0205801 38.229877500000001 0.98430200000000001
v -0.84202900000000003 38.152923600000001 0.98273279999999996
v 4.9126253000000002 -10.943172499999999 0.97787670000000004
v 4.8803653999999996 31.936035199999999 0.97376759999999996
v 0.86954469999999995 38.175186199999999 0.98642180000000002
v 4.6309089500000002 34.760021199999997 0.9877632999999999
v 4.0243139499999998 36.415130599999998 0.95766494999999996
v 3.4998373000000003 36.979621899999998 0.96765820000000002
v -3.6032932999999998 36.76375195 0.97785410000000006
v -4.1222801499999999 36.2426624 0.96532994999999999
v 4.7188723000000001 33.962812450000001 1.0038782500000001
v 4.9672687 -12.233911549999998 0.99191819999999997
v -4.8834561999999995 -12.508944 0.97571949999999996
v -4.4961387999999998 35.644727700000004 0.96156295000000003
v 4.8805559000000001 -2.76538445 0.97782634999999996
v 4.8791820999999995 -0.76427165000000008 0.97791815000000004
v 4.8778831999999994 3.2412286999999997 0.97789155000000005
v 4.8772723500000001 10.2486763 0.97787384999999993
v 4.87736035 19.258282649999998 0.97799809999999998
v 4.8774869499999998 20.259523399999999 0.97792710000000005
v 4.8803877999999994 31.398098949999998 0.97479709999999997
v -4.86424755 -7.64900205 0.97818050000000001
v -4.8754198500000001 22.243069599999998 0.97786915000000008
v -4.8035936000000001 33.176383999999999 0.99543320000000002
v -4.8663423000000003 -6.6863896499999997 0.97816035000000001
v 4.8772425500000001 11.249464 0.97786649999999997
v -4.8754956499999995 23.240581499999998 0.97785615000000004
v 4.8815474500000002 -3.7655430000000001 0.97778950000000009
v 4.8780869999999998 2.2394372499999999 0.97788625000000007
v 4.6609544999999999 34.262706799999997 -1.0179182
v 4.5664058000000001 35.273628199999997 -0.96994270000000005
v 4.1896725000000004 36.078670500000001 -0.96157000000000004
v 3.8047414000000002 36.808696699999999 -0.96476569999999995
v 3.1891433999999999 37.269233700000001 -0.96046679999999995
v 2.5131334999999999 37.669223799999997 -0.97903030000000002
v 1.6699307000000001 38.016162899999998 -0.97920510000000005
v 0.87668440000000003 38.210159300000001 -0.98096110000000003
v -0.84213360000000004 38.1825714 -0.97805419999999998
v -1.6755085000000001 37.977905300000003 -0.97624929999999999
v -2.6238381999999998 37.558681499999999 -0.98242560000000001
v -3.3440256000000002 37.035678900000001 -0.98126760000000002
v -3.8785772000000001 36.5200958 -0.9648291
v -4.8422384000000003 -12.013031 -0.98851940000000005
v -4.8427920000000002 -11.439283400000001 -0.98543069999999999
v -4.7426862999999999 33.684524500000002 -1.0138046000000001
v -4.7830892 34.566142999999997 -0.96275719999999998
v -4.5984382999999998 35.306469 -0.96140930000000002
v -4.363162 35.989151 -0.96145760000000002
v 4.9025416000000002 -10.388328599999999 -0.9761029
v 4.8944882999999999 -9.3234110000000001 -0.97639500000000001
v 4.8901190999999997 -8.2900352000000002 -0.97655179999999997
v 4.8871646000000002 -7.2761326000000004 -0.9766669
v 4.8849802000000002 -6.2708858999999997 -0.97674079999999996
v 4.8832659999999999 -5.2683144000000004 -0.97682519999999995
v 4.8818549999999998 -4.2666253999999997 -0.97692760000000001
v 4.8807511000000003 -3.2656057000000001 -0.9769738
v 4.8799171000000001 -2.2649417000000001 -0.97694000000000003
v 4.8792868 -1.2641844 -0.97689049999999999
v 4.8787928000000003 -0.2634647 -0.97687109999999999
v 4.8784118000000003 0.73738649999999994 -0.97687299999999999
v 4.8781160999999997 1.7386013 -0.97688419999999998
v 4.8778768000000001 2.7402687000000001 -0.97689320000000002
v 4.8776922000000003 3.7420697000000001 -0.9769004
v 4.8775415000000004 4.7436476000000001 -0.9769021
v 4.8774018000000003 5.7449082999999996 -0.97689459999999995
v 4.8773040999999999 6.7457637999999998 -0.97690149999999998
v 4.8772411 7.7465242999999999 -0.97690699999999997
v 4.8771757999999998 8.7474784999999997 -0.97693200000000002
v 4.8771315 9.7483768000000008 -0.97698459999999998
v 4.8770889999999998 10.7490206 -0.97700730000000002
v 4.8770638000000002 11.749753 -0.97699219999999998
v 4.8770699999999998 12.750771500000001 -0.97695299999999996
v 4.8770927999999998 13.7520933 -0.97690699999999997
v 4.8771218999999997 14.753577200000001 -0.9768715
v 4.8771428999999999 15.7549458 -0.97685299999999997
v 4.8771424000000003 16.756057699999999 -0.97684680000000002
v 4.8771485999999999 17.757045699999999 -0.97685869999999997
v 4.8772096999999999 18.758058500000001 -0.97688090000000005
v 4.8773260000000001 19.7590866 -0.97691260000000002
v 4.8774571 20.760227199999999 -0.97694840000000005
v 4.8776530999999999 21.761270499999998 -0.97699159999999996
v 4.8779297000000001 22.762182200000002 -0.97698439999999998
v 4.8783174000000002 23.7632504 -0.97692069999999998
v 4.8788390000000001 24.764598800000002 -0.97680679999999998
v 4.8796568000000002 25.7667103 -0.97664890000000004
v 4.8807473000000003 26.7710857 -0.97649589999999997
v 4.8816414000000004 27.778718900000001 -0.97635640000000001
v 4.8818769 28.792413700000001 -0.97611029999999999
v 4.8814554000000001 29.817441899999999 -0.97548979999999996
v 4.8806424000000002 30.859159500000001 -0.97404780000000002
v 4.8800659 31.932184199999998 -0.97243440000000003
v 4.8099493999999998 33.375518800000002 -0.98721760000000003
v -4.8492761 -10.7482243 -0.98155700000000001
v -4.8557115 -9.9417819999999999 -0.97884230000000005
v -4.8600998000000004 -9.0542973999999994 -0.97761710000000002
v -4.8689207999999997 -5.2147613000000002 -0.97704630000000003
v -4.8703675000000004 -4.2201089999999999 -0.97697880000000004
v -4.8715700999999996 -3.2222198999999998 -0.97685440000000001
v -4.8724933000000004 -2.2238030000000002 -0.97683240000000005
v -4.8731356000000003 -1.2260755999999999 -0.9769101
v -4.8736258000000001 -0.22935150000000001 -0.97700500000000001
v -4.8740087000000001 0.76717049999999998 -0.97701260000000001
v -4.8742989999999997 1.7648151000000001 -0.97695299999999996
v -4.8745498999999999 2.763144 -0.97691079999999997
v -4.8747096000000001 3.7616868000000001 -0.97687789999999997
v -4.8748050000000003 4.7606554000000001 -0.97681119999999999
v -4.8748908000000002 5.7599669000000002 -0.97676890000000005
v -4.8749452 6.7593078999999996 -0.97680169999999999
v -4.8749943 7.7582468999999996 -0.97685690000000003
v -4.8750172000000003 8.7571363000000009 -0.97685279999999997
v -4.8750815000000003 9.7563601000000002 -0.97686969999999995
v -4.8751563999999998 10.755647700000001 -0.97690759999999999
v -4.8751902999999999 11.7549343 -0.97693339999999995
v -4.8751940999999999 12.7541361 -0.97695949999999998
v -4.8751883999999999 13.752986 -0.97697339999999999
v -4.8751945000000001 14.751743299999999 -0.9769719
v -4.8752031000000002 15.7508488 -0.97697699999999998
v -4.8752307999999998 16.750026699999999 -0.97701340000000003
v -4.8752284000000001 17.749015799999999 -0.97702310000000003
v -4.8752313000000003 18.748085 -0.97702169999999999
v -4.8752269999999998 19.7471256 -0.97702690000000003
v -4.8752111999999999 20.745851500000001 -0.9770413
v -4.8752217 21.744142499999999 -0.97704340000000001
v -4.8752798999999998 22.7419701 -0.9770221
v -4.8753738000000002 23.739387499999999 -0.97697889999999998
v -4.8754926000000003 24.7364292 -0.97691950000000005
v -4.8757013999999996 25.733255400000001 -0.97685699999999998
v -4.8759179000000001 26.730135000000001 -0.97680540000000005
v -4.8756288999999997 27.726720799999999 -0.97673540000000003
v -4.8745041000000002 28.7209988 -0.97663069999999996
v -4.8728975999999999 29.709316300000001 -0.97635190000000005
v -4.8719210999999998 30.689439799999999 -0.97509009999999996
v -4.8718418999999997 31.665527300000001 -0.97259660000000003
v -4.8613391000000004 32.666400899999999 -0.97554810000000003
v -4.8672561999999999 -6.200666 -0.97699449999999999
v 4.9414772999999999 -11.7906666 -0.98194820000000005
v 0.0239679 38.262809799999999 -0.98010120000000001
v 4.8698401000000002 32.505985299999999 -0.97470920000000005
v 4.9130238999999998 -10.9425802 -0.97647980000000001
v -4.8630395000000002 -8.1257257000000003 -0.97717379999999998
v -4.8653278000000002 -7.1723914000000004 -0.97701009999999999
v 3.9972069500000003 36.4436836 -0.96316785000000005
v 3.4969424 37.0389652 -0.96261624999999995
v 2.8511384499999997 37.469228749999999 -0.96974855000000004
v -4.4808001500000003 35.64781 -0.96143345000000002
v 4.90778275 -10.6654544 -0.97629135
v 4.83989475 32.94075205 -0.98096340000000004
v -4.8460340500000001 -11.093753850000001 -0.98349385
v 4.8749529999999996 32.21908475 -0.97357179999999999
v 4.8803541500000005 31.395671849999999 -0.97324110000000008
v -4.1208695999999998 36.2546234 -0.96314334999999995
v -4.8425152000000002 -11.726157199999999 -0.98697505000000008
v 4.9272505999999998 -11.3666234 -0.97921400000000003
v 4.9684347999999998 -12.23141815 -0.98958550000000001
v 1.2733075500000002 38.113161099999999 -0.9800831000000001
v -4.8834797999999999 -12.509758 -0.97491039999999995
v 0.45032615000000004 38.23648455 -0.98053115000000002
v 4.8770764 11.2493868 -0.97699975000000006
v 4.87726785 19.25857255 -0.97689675000000009
v 4.8773915500000005 20.2596569 -0.97693050000000003
v -4.8662919999999996 -6.6865287000000002 -0.97700229999999999
v -4.8752507999999999 22.243056299999999 -0.97703275000000001
v -4.8641836500000002 -7.6490585500000003 -0.97709194999999993
v 4.8813030499999996 -3.7661155499999999 -0.97695069999999995
v 4.8779964499999995 2.2394350000000003 -0.97688869999999994
v -4.8753268500000004 23.240678799999998 -0.97700049999999994
v 4.8771102499999994 10.2486987 -0.97699595000000006
v 4.8777845000000006 3.2411691999999999 -0.97689680000000001
v 4.8803341000000007 -2.7652736999999998 -0.97695690000000002
v -5.9769239000000001 -13.3309994 -0.96809650000000003
v -9.8086480999999992 -34.150878900000002 -0.98060879999999995
v -8.3841170999999992 -14.697566999999999 -0.9787228
v -9.1656388999999994 -15.319636300000001 -0.96791459999999996
v -10.9657049 -32.718421900000003 -0.97014120000000004
v -11.280885700000001 -32.132308999999999 -0.98559680000000005
v -11.6364012 -31.4614601 -0.98506780000000005
v -12.0222836 -30.7021351 -0.98235510000000004
v -12.3879871 -29.844346999999999 -0.97865930000000001
v -12.710927 -28.898302099999999 -0.97841040000000001
v -13.1345654 -26.831708899999999 -0.97665360000000001
v -13.243762 -25.7624493 -0.97840329999999998
v -13.254628200000001 -24.688484200000001 -0.97639200000000004
v -13.2094936 -23.626737599999998 -0.97747439999999997
v -13.064831699999999 -22.591796899999999 -0.97833729999999997
v -12.8389559 -21.6070919 -0.97771330000000001
v -12.5450249 -20.660081900000002 -0.9789291
v -12.181500399999999 -19.750463499999999 -0.97881859999999998
v -11.7721701 -18.883499100000002 -0.98066359999999997
v -11.3261538 -18.079505900000001 -0.98040709999999998
v -10.8702974 -17.343856800000001 -0.97991340000000005
v -10.4050732 -16.662242899999999 -0.96831690000000004
v -9.8994999000000004 -15.947981800000001 -0.9603853
v -6.8899993999999998 -13.7518005 -0.97363599999999995
v -10.448057199999999 -33.510757400000003 -0.96435700000000002
v -12.9655132 -27.884544399999999 -0.97812370000000004
v -7.6852846000000001 -14.2227154 -0.9773636
v -9.5758385500000003 -34.411495200000005 -0.98489335
v -10.12835265 -33.830818149999999 -0.97248289999999993
v -5.4508225499999998 -13.168742200000001 -0.96469895000000006
v -12.6919904 -21.133586900000001 -0.9783212
v -12.951893800000001 -22.099444399999999 -0.97802529999999999
v -9.3415546000000003 -34.680080400000001 0.0023546999999999999
v -9.3422917999999999 -34.676095950000004 -0.49341160000000001
v -9.3428258500000005 -34.672573100000001 0.49714935000000005
v 0.77194240000000003 -37.237388600000003 0.98098649999999998
v 1.1414238000000001 -36.071384399999999 0.97195279999999995
v 1.5707449 -34.7729073 0.97323300000000001
v 2.2889499999999998 -32.632385300000003 0.97563999999999995
v 2.8509571999999999 -30.972408300000001 0.97658679999999998
v 3.1173251 -30.189708700000001 0.97698249999999998
v 3.4535665999999998 -29.201032600000001 0.97764490000000004
v 3.7719355000000001 -28.261743500000001 0.97873639999999995
v 4.0721721999999998 -27.3697357 0.98074439999999996
v 4.3488192999999997 -26.523592000000001 0.98413379999999995
v 4.5811763000000001 -25.7071629 0.98818030000000001
v 1.3560843 -35.422145800000003 0.97259289999999998
v 1.7812665999999999 -34.144020099999999 0.97408249999999996
v 0.95668310000000001 -36.654388400000002 0.97646960000000005
v 2.5750853999999999 -31.785722700000001 0.97616539999999996
v 1.9917883000000001 -33.515132899999998 0.97493200000000002
v 0.86431275000000007 -36.945888500000002 0.97872804999999996
v 1.6760057499999998 -34.458463699999996 0.97365774999999999
v 4.6218092500000001 -25.2896061 0.98303180000000001
v 2.1403691499999997 -33.073759100000004 0.97528599999999999
v 1.88652745 -33.829576500000002 0.97450725000000005
v 0.62759390000000004 -37.753490450000001 1.0013554999999998
v 1.0490534500000002 -36.362886400000001 0.97421120000000005
v 1.2487540500000001 -35.746765100000005 0.97227284999999997
v 0.55541965000000004 -38.011541375 1.0115399999999999
v 4.6684846999999996 -24.8776321 0.00022100000000000001
v 4.6654939500000001 -24.874648049999998 -0.48818590000000001
v 4.6654634499999998 -24.8748407 0.48905215000000002
v 0.77242960000000005 -37.234107999999999 -0.97907940000000004
v 1.0495970999999999 -36.359828899999997 -0.97225799999999996
v 2.6704067999999999 -31.5052299 -0.97504749999999996
v 3.4549758000000002 -29.197288499999999 -0.97639160000000003
v 3.7729675999999999 -28.2591629 -0.97745570000000004
v 4.0726547000000002 -27.368917499999998 -0.97957399999999994
v 4.3488803000000003 -26.5240993 -0.98321840000000005
v 4.5812334999999997 -25.707506200000001 -0.98739580000000005
v 1.3567876999999999 -35.419147500000001 -0.97070780000000001
v 2.0919143999999998 -33.2174835 -0.97360369999999996
v 1.5715889999999999 -34.769889800000001 -0.97143139999999994
v 1.7821201 -34.140991200000002 -0.97235640000000001
v 2.9413898000000001 -30.707523299999998 -0.97546869999999997
v 3.1188056 -30.185964599999998 -0.97573109999999996
v 2.3897065999999998 -32.333663899999998 -0.97457090000000002
v 0.62860155000000006 -37.7505703 -0.99989090000000003
v 4.6218683499999997 -25.2895851 -0.98199429999999999
v 0.55668752500000007 -38.00880145 -1.0102966499999999
v 1.9370172499999998 -33.679237350000001 -0.97298004999999999
v 2.0071279999999998 34.417854300000002 -0.96522379999999997
v -2.2474875000000001 33.332496599999999 -0.95223190000000002
v -2.1515418999999998 34.070362099999997 -0.97033159999999996
v 2.1607487000000001 32.788883200000001 -0.95198680000000002
v 1.5505663000000001 35.263946500000003 -1.0347351
v 0.87493240000000005 31.3493195 -0.95828469999999999
v 0.56590130000000005 35.643741599999998 -0.95106270000000004
v -0.0099737000000000003 31.199794799999999 -0.95992120000000003
v -0.30671029999999999 35.699073800000001 -0.94946269999999999
v -0.87631119999999996 31.331380800000002 -0.96411619999999998
v -1.1042551 35.440437299999999 -0.9571499
v -1.8756404 34.941303300000001 -1.0387777
v -2.1143543999999999 32.562027 -0.95326599999999995
v 2.1977248 33.648837999999998 -0.95538120000000004
v -1.7513316000000001 31.7049351 -1.0180047999999999
v 2.1024263999999997 34.03334615 -0.96030250000000006
v 1.0842369187499998 35.503266549999999 -0.99734335625000003
v 0.12959550000000003 35.671407700000003 -0.95026270000000002
v -0.70548270000000002 35.569755549999996 -0.95330629999999994
v -1.3452785687500002 31.472813831250001 -0.99536886250000001
v -1.5225504562500003 35.229139343750006 -1.0027221312500001
v -1.9792109562500002 32.108673843749997 -0.98906806874999997
v -2.18092095 32.9472618 -0.95274894999999993
v 2.0325972624999999 32.262101268750001 -0.98726431250000002
v 1.3669432312500001 31.515439156249997 -0.9909167499999999
v -2.0558061312499998 34.520753418750004 -1.01078761875
v 1.8284764125000001 34.865226724999999 -1.0058241374999999
v 2.0966729812500002 32.525492234375001 -0.96962555625000002
v 2.8644433 -24.374202700000001 0.9673311
v 1.8854611999999999 -24.052782100000002 0.97109279999999998
v -0.3258392 -23.302810699999998 0.97697429999999996
v -2.2211780999999999 -22.662311599999999 0.98113969999999995
v -3.0673300999999999 -22.376293199999999 0.98665579999999997
v -4.1806226000000004 -22.026973699999999 1.0078878
v 1.3054829999999999 -23.856153500000001 0.97300489999999995
v 0.46266859999999999 -23.570346799999999 0.97543120000000005
v -1.3040018 -22.9721279 0.97862450000000001
v -3.6210151000000002 -22.1926193 0.99540510000000004
v 3.6610756000000002 -24.601064699999998 0.96990299999999996
v 4.1617589000000006 -24.736556999999998 0.97389314999999999
v 1.5954720999999998 -23.954467800000003 0.97204884999999996
v -3.9008188500000003 -22.109796500000002 1.00164645
v -4.6761293500000001 -22.0226574 0.97433275000000008
v 0.88407579999999997 -23.71325015 0.97421804999999995
v -3.3441726000000003 -22.284456249999998 0.99103045000000001
v 3.2627594499999999 -24.4876337 0.96861704999999998
v -4.9078016 -13.022801400000001 0.0005375
v -4.9158856499999999 -13.014863950000001 0.48176884999999997
v -4.9162613999999998 -13.0146432 -0.48038195
v -1.3054578999999999 -22.9714527 -0.97728099999999996
v -2.2207422000000001 -22.662372600000001 -0.97950429999999999
v -3.0655958999999999 -22.376714700000001 -0.98497509999999999
v -3.8286316 -22.123275799999998 -0.99705270000000001
v -4.5264214999999997 -21.932531399999998 -1.0148039
v 1.8827555 -24.051431699999998 -0.97021579999999996
v 3.9260405999999999 -24.676139800000001 -0.97086700000000004
v 2.5361666999999999 -24.2660236 -0.9676785
v 1.3027552 -23.854755399999998 -0.97213210000000005
v 0.45994170000000001 -23.5689335 -0.97454989999999997
v -0.32849820000000002 -23.3014908 -0.97605379999999997
v 3.1895777999999999 -24.4806156 -0.96514120000000003
v 3.5578091999999999 -24.578377700000001 -0.96800410000000003
v -4.8491482499999998 -21.9747944 -0.97778959999999993
v 2.8628722499999997 -24.373319600000002 -0.96640985000000001
v 4.2942719 -24.773901899999998 -0.97372990000000004
v 0.88134844999999995 -23.711844450000001 -0.97334100000000001
v 2.2094611 -24.158727649999999 -0.96894714999999998
v 1.59275535 -23.953093549999998 -0.97117395000000006
v -5.1894989000000002 -21.9899883 -0.0021475000000000001
v -5.1805675000000004 -22.0041647 0.46931510000000004
v -5.1806869500000001 -22.00352285 -0.47146139999999997
v -8.3684416000000006 -32.271636999999998 -0.96439350000000001
v -8.0916060999999999 -31.337717099999999 -0.97109900000000005
v -7.8224844999999998 -30.4732342 -0.97433420000000004
v -7.5501037000000002 -29.633148200000001 -0.97565040000000003
v -7.2684006999999999 -28.7848015 -0.97591930000000005
v -6.9728760999999997 -27.906051600000001 -0.97548360000000001
v -6.6588029999999998 -26.978618600000001 -0.97441089999999997
v -6.3190245999999997 -25.979358699999999 -0.97243979999999997
v -5.5325879999999996 -23.607523 -0.95942150000000004
v -5.3522315000000003 -22.8122902 -0.95009829999999995
v -8.8733301000000004 -33.838115700000003 -0.97900050000000005
v -5.7387151999999997 -24.2417011 -0.96391450000000001
v -6.1319337000000003 -25.427617999999999 -0.9704237
v -5.9448428 -24.8758774 -0.96840760000000004
v -8.6010980999999997 -33.051208500000001 -0.95886059999999995
v -9.1081795499999991 -34.255113600000001 -0.98408920000000011
v -5.4424097499999995 -23.2099066 -0.95475989999999999
v -5.8417789999999998 -24.55878925 -0.96616104999999997
v -5.2620532500000001 -22.414673799999999 -0.94543679999999997
v -5.6356515999999992 -23.92461205 -0.96166799999999997
v -6.0383882500000006 -25.151747700000001 -0.96941564999999996
v -8.7372140999999992 -33.444662100000002 -0.96893055000000006
v -9.2256042749999985 -34.463612550000001 -0.98663355000000008
v -8.6778239999999993 -33.313129400000001 0.95641659999999995
v -8.4451713999999996 -32.533435799999999 0.96213020000000005
v -8.0904969999999992 -31.336984600000001 0.97143869999999999
v -7.5491719000000002 -29.630125 0.97616590000000003
v -7.2675114000000001 -28.781864200000001 0.97656100000000001
v -6.9718919000000001 -27.9034157 0.9763077
v -6.6578727000000004 -26.9763126 0.97540070000000001
v -6.3179974999999997 -25.9765987 0.97348900000000005
v -6.0371075000000003 -25.148302099999999 0.97015600000000002
v -5.5310454 -23.603342099999999 0.95908859999999996
v -5.7372617999999997 -24.237772 0.96406670000000005
v -5.3513408 -22.810840599999999 0.94993309999999997
v -7.8213543999999997 -30.471027400000001 0.97483620000000004
v -8.8725529000000005 -33.838348400000001 0.98011199999999998
v -8.2678337000000006 -31.935211200000001 0.96671149999999995
v -8.3565025500000001 -32.234323500000002 0.96442085
v -5.2614884499999999 -22.41459085 0.94535539999999996
v -8.7751884499999999 -33.575738900000005 0.96826429999999997
v -8.5614977000000003 -32.9232826 0.95927340000000005
v -8.1791653499999999 -31.636097900000003 0.96907509999999997
v -9.1083250000000007 -34.251707100000004 0.98602800000000002
v -9.2262110499999999 -34.458386450000006 0.98898600000000003
v 9.9856596 -16.165941199999999 0.98544869999999996
v 9.3924780000000005 -15.4653168 0.97164850000000003
v 9.4871397000000002 -34.496704100000002 0.97594740000000002
v 8.9113188000000001 -35.196311999999999 0.95760069999999997
v 8.3597535999999995 -35.557464600000003 0.96651609999999999
v 10.1307755 -33.735508000000003 0.98665219999999998
v 10.645827300000001 -33.072757699999997 0.98223879999999997
v 11.1919804 -32.271354700000003 0.98009769999999996
v 11.7156935 -31.3427525 0.9791936
v 13.247230500000001 -25.602416999999999 0.97750380000000003
v 13.2457581 -24.669307700000001 0.97813490000000003
v 13.132266 -23.108140899999999 0.97845459999999995
v 11.433713900000001 -18.243129700000001 0.98017410000000005
v 11.0096998 -17.546278000000001 0.97984170000000004
v 10.471644400000001 -16.765234 0.98271439999999999
v 8.8548945999999997 -14.7854624 0.9492971
v 8.2704964000000007 -14.386461300000001 0.96146480000000001
v 7.758203 -35.938209499999999 0.98065769999999997
v 7.6627406999999996 -14.0662994 0.97886530000000005
v 6.9791536000000001 -36.420776400000001 0.98140050000000001
v 6.9904513000000001 -13.6820393 0.98335939999999999
v 5.9392342999999999 -36.976215400000001 0.97913519999999998
v 6.1295985999999996 -13.2179813 0.97774349999999999
v 4.5906630000000002 -37.536003100000002 0.97686649999999997
v 2.8484370999999999 -38.027786300000002 0.97705050000000004
v 3.7195499000000001 -37.781894700000002 0.97695860000000001
v 12.7945175 -28.625902199999999 0.97829160000000004
v 5.5617498999999997 -12.9468174 0.9888673
v 11.8359671 -19.0012054 0.97974030000000001
v 6.4591937000000001 -36.698497799999998 0.98026789999999997
v 5.2649483999999998 -37.256111099999998 0.97800089999999995
v 12.956037500000001 -22.1789703 0.97858160000000005
v 13.1887674 -23.7332058 0.97839989999999999
v 12.722860300000001 -21.267293899999999 0.97878209999999999
v 13.1970844 -26.217206999999998 0.97786119999999999
v 12.2097683 -19.811584499999999 0.9791318
v 1.9614902999999999 -38.118461600000003 0.9938032
v 1.0745434 -38.2091408 1.010556
v 13.1469383 -26.8319969 0.9782187
v 13.0025444 -27.738750499999998 0.97832399999999997
v 12.634621599999999 -29.2108059 0.97822410000000004
v 12.548425699999999 -20.665342299999999 0.97894020000000004
v 12.255509399999999 -30.169759800000001 0.97829250000000001
v 11.9856014 -30.756256100000002 0.97867839999999995
v 9.1992292500000001 -34.846508049999997 0.96677404999999994
v 13.222157450000001 -25.909811999999999 0.97768250000000001
v 7.3265960000000003 -13.874169349999999 0.98111235000000008
v 6.1992139999999996 -36.8373566 0.97970154999999992
v 5.8456742500000001 -13.082399349999999 0.9833054
v 5.6020913500000002 -37.11616325 0.97856805000000002
v 7.9666185499999997 -14.226380349999999 0.97016505000000008
v 1.51801685 -38.163801200000002 1.0021796000000001
v 4.1551064499999999 -37.658948899999999 0.97691254999999999
v 5.2778253499999996 -12.81123545 0.99442920000000001
v 6.7191736500000001 -36.559637100000003 0.98083419999999999
v 4.9278057000000004 -37.3960571 0.97743369999999996
v 0.77889439999999999 -38.23936655 1.0161402499999999
v 13.2464943 -25.13586235 0.97781935000000009
v -6.3276091000000001 -13.439156499999999 0.97209250000000003
v -8.3847197999999992 -14.698747600000001 0.97974689999999998
v -10.2322845 -33.694110899999998 0.97099970000000002
v -9.1667023000000007 -15.3214893 0.96867360000000002
v -10.827172300000001 -32.980827300000001 0.96524980000000005
v -11.294481299999999 -32.121097599999999 0.98194150000000002
v -11.650685299999999 -31.4635067 0.98294519999999996
v -12.023889499999999 -30.7045727 0.98133219999999999
v -12.3833532 -29.844736099999999 0.98062240000000001
v -12.951435999999999 -27.883388499999999 0.98055219999999998
v -13.1383429 -26.831401799999998 0.9793752
v -13.2488546 -25.760717400000001 0.97976359999999996
v -13.259283099999999 -24.686119099999999 0.97923930000000003
v -13.184512099999999 -23.627258300000001 0.97873149999999998
v -13.045719099999999 -22.596694899999999 0.98032520000000001
v -12.836094900000001 -21.609960600000001 0.98042280000000004
v -12.5456352 -20.6607208 0.98113609999999996
v -12.1807652 -19.750684700000001 0.98055959999999998
v -11.7714968 -18.8827915 0.98251999999999995
v -11.3243828 -18.078455000000002 0.98182329999999995
v -10.869729 -17.341411600000001 0.98110459999999999
v -10.404219599999999 -16.6615772 0.96865619999999997
v -9.9003180999999998 -15.949165300000001 0.96020229999999995
v -6.8900161000000004 -13.751863500000001 0.97537739999999995
v -5.6257896000000001 -13.223041500000001 0.96754629999999997
v -7.6854972999999998 -14.2231159 0.97893350000000001
v -12.689951900000001 -28.8936195 0.98007239999999995
v -9.7732086000000002 -34.166698500000003 0.98100160000000003
v -5.9766993500000005 -13.331099 0.9698194
v -6.6088126000000003 -13.595510000000001 0.97373494999999999
v -5.2748796499999999 -13.114984 0.96527324999999997
v -10.002746550000001 -33.930404699999997 0.97600065000000003
v -9.5586528500000014 -34.415882150000002 0.98647280000000004
v -12.940906999999999 -22.103327749999998 0.98037400000000008
v -10.5297284 -33.3374691 0.96812475000000009
v -12.690865049999999 -21.1353407 0.98077945
v 2.2273233000000001 33.6243172 0.9542602
v 2.0127096 34.369968399999998 0.97313539999999998
v -2.2391264 33.315364799999998 0.94991020000000004
v -2.1419481999999999 34.039310499999999 0.9785296
v 1.803582 31.790752399999999 1.0192505999999999
v 2.1828215000000002 32.778156299999999 0.95186130000000002
v 1.5438452 35.229247999999998 1.0323405999999999
v 0.8779981 31.344844800000001 0.95993019999999996
v 0.56352939999999996 35.631008100000003 0.94755540000000005
v 0.0015638 31.1979656 0.96050970000000002
v -0.31832189999999999 35.698982200000003 0.94815260000000001
v -0.84714230000000001 31.3393841 0.96866050000000004
v -1.1304407000000001 35.443248699999998 0.95046260000000005
v -1.7146304000000001 31.712341299999999 1.0170726000000001
v -1.8901378 34.932766000000001 1.0387774999999999
v -2.0878603 32.561477699999998 0.95115340000000004
v 2.1200164500000001 33.997142799999999 0.96369780000000005
v 2.0482693812499999 32.259438518750002 0.98911354374999982
v 1.371864725 31.51526580625 0.99376601249999985
v -0.72438130000000001 35.571115450000001 0.94930760000000003
v -1.3106036125 31.481630331249995 0.99749592500000017
v -1.5453085249999998 35.227864975000003 0.99852991875000008
v -1.9460092250000001 32.113101381250004 0.98721645624999999
v -2.16349335 32.938421249999998 0.95053180000000004
v -2.0574504312500004 34.499379687499996 1.0159619437499998
v 0.12260374999999998 35.664995150000003 0.94785399999999997
v -1.7177231625 35.080315487500002 1.0186537093750001
v -4.6986587106339437 -14.79851386123708 0.97646434254935888
v -4.9239696999999998 -13.006926500000001 0.96300019999999997
v -4.6576453948799008 -17.444158580077051 0.97911331896216947
v -4.633576012710753 -16.078241736955189 0.97846663517821808
v -4.9533611542130673 -20.451574046598616 0.97964935579877754
v -5.1716360999999997 -22.018341100000001 0.94077770000000005
v -4.7609574302991895 -14.187778910704814 0.97347190997147781
v -4.83826658206738 -13.592787749407341 0.97103784624944489
v -4.7036688214433244 -18.164494046923352 0.9791957831817415
v -4.6554630380027975 -15.428306112451502 0.97775939326979833
v -5.0604168929623556 -21.234487481616668 0.97855153356076763
v -4.8551841011415817 -19.674413336845227 0.97920721895040308
v -4.6341485375264337 -16.74943355593809 0.97885831521541034
v -4.7705504818140287 -18.909585426637115 0.97919928633745834
v 4.9939007999999996 -12.675653499999999 0.99999110000000002
v 4.2258867443008423 -12.691198994358716 0.98385664924581795
v 3.4583893005237729 -12.708657889424696 0.98008760220282121
v 0.45532999247447814 -12.813732874375859 0.97912662213449286
v -0.26043766276578229 -12.845788510910122 0.97918516886496121
v -1.7776686750067254 -12.912989567560725 0.97927765909202424
v -4.9239696999999998 -13.006926500000001 0.96300019999999997
v -2.5808838758754509 -12.944371392207483 0.97932230812608889
v -3.3710978120999213 -12.970143569533747 0.97942355498463618
v 2.6934625250470079 -12.729520700630772 0.97918761035000701
v 1.9348541253552838 -12.754376210715902 0.97906892320459293
v 1.1874497659734247 -12.782813472814077 0.97908005343897941
v -0.96307791268600473 -12.877605844207078 0.97922642266937676
v -4.1505685640963055 -12.99031542798212 0.97900532703447563
v 7.4726192145449986 -25.24050682550763 0.97902984808439419
v 5.3653012246994383 -24.957334126039452 0.97928699382047779
v 9.5725495429615286 -25.525488575101591 0.97945793295193129
v 8.1753432825499281 -25.340541500859416 0.9791179653905504
v 6.7701010188365878 -25.141240674450977 0.97900057880063618
v 10.255206333634835 -25.605150502106916 0.97939760562703371
v 11.541115132610187 -25.740149614524732 0.97874277539056664
v 8.8767289134331619 -25.436749334033706 0.97929417472878066
v 10.914586934313229 -25.676147024727911 0.97917635048957441
v 6.06780972048875 -25.046455332047689 0.97909850083375805
v 12.686033215869598 -25.855228972593995 0.9780473258531488
v 13.222157450000001 -25.909811999999999 0.97768250000000001
v 12.130212517773117 -25.799211660789076 0.9783515356531306
v 4.6624422000000001 -24.8720493 0.97788330000000001
v -4.9247211999999996 -13.006485 -0.96130139999999997
v -4.429551230837486 -17.310383475654959 -0.97798145291384153
v -4.4698797349239765 -15.887461905250952 -0.97775775886242178
v -5.0091545574787926 -21.347425133143481 -0.97250940683647757
v -4.8543362251997451 -20.67916010165284 -0.97840079202865138
v -5.171875 -22.017057399999999 -0.94077529999999998
v -4.6468457873031177 -14.442644106791894 -0.97464389249637851
v -4.7783411355674241 -13.723369360733752 -0.97063736410678891
v -4.4583961829724501 -18.001258566484694 -0.97798074155354464
v -4.5172199117274197 -18.678681724301626 -0.97800248940112267
v -4.6042431650635223 -19.34745344509248 -0.97807326939271588
v -4.4327246027468092 -16.604693244071917 -0.97796215157789868
v -4.5418861991271804 -15.164885617156612 -0.97687014688434082
v -4.7176030382141603 -20.013002007745531 -0.97819643596323069
v 4.9953922999999998 -12.6721697 -0.99722279999999996
v 4.8212554058608452 -13.339549864418801 -0.98384373935101999
v 4.4743915622573809 -14.687945416216564 -0.97895069272593016
v 3.5188939965728681 -18.154227019625147 -0.97825523242671897
v 2.0963851973589325 -22.093957686850747 -0.97742760614799717
v 2.6015202468786338 -20.838089285836752 -0.97831585875181748
v 1.8348238172578535 -22.694413216257978 -0.9762418500223542
v 1.3027552 -23.854755399999998 -0.97213210000000005
v 3.7276688416955812 -17.460046819053829 -0.97820291695844919
v 4.6477805963349077 -14.010532744330597 -0.9799635365420668
v 3.9271013428227777 -16.762478540247855 -0.9781277483641222
v 2.3524494082435643 -21.475011296479082 -0.97805282974179852
v 4.1170172714796704 -16.065586545499801 -0.97813628602976155
v 2.8427941854417251 -20.18537205782745 -0.97839464199444026
v 3.3015138472614782 -18.841486356367884 -0.97832056513521315
v 3.076100486349314 -19.519189768807195 -0.97838396920140625
v 4.2985693236877873 -15.373193714326451 -0.97838132736077177
v 1.5696531310205963 -23.279152590405342 -0.97440045295563693
v 11.017091180249864 -25.39800488376909 -0.97775844874723106
v 6.0285095277574658 -25.017162589907713 -0.97819604113101755
v 4.6625031999999997 -24.871663999999999 -0.97659280000000004
v 10.274053925553636 -25.343323562022135 -0.97784013522394209
v 6.713463438175415 -25.083317759901405 -0.97817929689375405
v 11.763900715496646 -25.459884989983351 -0.97766568470454085
v 9.5386600660157121 -25.293822465794932 -0.9779206973075778
v 5.3454191360408032 -24.945838962661803 -0.97828039214718243
v 8.8144061828938689 -25.246174315364996 -0.97803029280666021
v 13.259283099999999 -25.6018276 -0.97735510000000003
v 12.511666272636404 -25.528720793096518 -0.97755703714405107
v 8.1029948055322905 -25.196883540918403 -0.97811825304755651
v 7.4036537598210153 -25.14314393854556 -0.97816266626697257
v 3.4733469738127001 21.506211563644214 0.97864462290230469
v 4.8777794999999999 21.761505100000001 0.97784099999999996
v 4.8780737105933847 21.760590254602405 0.32587351452191249
v 4.0682193497192287 21.856527733569656 -0.97739082480417472
v 4.8776530999999999 21.761270499999998 -0.97699159999999996
v 2.7658861581146752 21.427222432914142 0.97891233728804528
v 0.57795377896321387 21.436790298818366 0.97914904203722009
v -0.70892460103555366 21.57302973498668 0.97915149022367021
v 0.22452805454274649 22.242086833556431 -0.97815240706773943
v -1.3820558625908674 21.667968516248607 0.9791252685006695
v -2.0719874699912326 21.774540942209171 0.97906584255665208
v -2.7719151389606296 21.88837411336883 0.97892463776829541
v -2.781910692132322 22.34838164423379 -0.97782024744899187
v -3.489653346513589 22.328049945246676 -0.97760126679874115
v 0.95932916401148094 22.183647443110079 -0.97812103353492186
v 1.7096769103439509 22.114474710780328 -0.97804827741111211
v -0.056136972654871733 21.494362163190772 0.97915963776635651
v 1.3208940207254487 21.397076299167864 0.97911056579237243
v 2.0497188205245038 21.391630536216688 0.97903740939141493
v 4.8780212695833125 21.76051205923239 -0.32573740748972113
v -2.0577971263908355 22.348513369073103 -0.97799106828980875
v -3.4747945833126206 22.005802796751045 0.97864696271080975
v -4.1855449652494423 22.290544867793344 -0.97733408975043634
v -4.1761721192516763 22.124384268394241 0.97828103763357921
v 4.1763424370903364 21.622792087259086 0.97827343571261483
v -1.3147004859620948 22.329064380605107 -0.97810082296670298
v 2.4789529470449772 22.035655504249995 -0.97790863367252978
v 3.2664932050338429 21.948897457690954 -0.97769022972294506
v -0.55274622471284784 22.292614791413911 -0.97814799798886476
v -4.8757647529771448 22.259256992955073 0.59173118511261769
v -4.8759858378798953 22.26923201702423 -0.18725740276126754
v -4.8756415758745559 22.259226076555699 -0.58122834277138669
v -4.8760007432174728 22.269248850997187 0.20373438137821992
v -4.8754198500000001 22.243069599999998 0.97786915000000008
v -4.8752507999999999 22.243056299999999 -0.97703275000000001
v -1.6757991000000001 37.955326100000001 0.98397389999999996
v -1.3858115324653899 36.702061849144684 0.97789317931064024
v -1.6755085000000001 37.977905300000003 -0.97624929999999999
v -1.1304407000000001 35.443248699999998 0.95046260000000005
v -1.1042551 35.440437299999999 -0.9571499
v -1.6589445263333671 37.923033060269674 -0.32334255782453736
v -1.5272769522708023 37.329310611639073 0.98047383392479137
v -1.1062459033193353 35.391223896152368 -0.18358256932025341
v -1.5804069575516426 37.421940789992696 -0.97740737587536941
v -1.4778743118329447 36.884465101282672 -0.97777108287224435
v -1.6547465920339781 37.89666395424085 0.33145977901113921
v -1.2543342643027868 36.073073809743178 0.97530544703573252
v -1.1125085989972312 35.394667401441026 0.19859305588219783
v -1.1191178928486998 35.411221668692271 0.57634370146462355
v -1.2370233458911453 35.899396415218703 -0.97403425223752538
v -1.1033488978887325 35.408564943742654 -0.56952269617298035
v -1.363390657002145 36.376930713963134 -0.97727741372072974
v 9.4871397000000002 -34.496704100000002 0.97594740000000002
v 9.6383703075365794 -34.302890556102803 -0.21652132430552778
v 8.9640154388934157 -33.935152342500743 0.97885743930712232
v 9.6870116999999993 -34.2588425 -0.97958990000000001
v 8.8500079276002204 -33.554793341030773 -0.97751259849252348
v 8.4259599864834023 -33.388973642985526 0.97933688641019823
v 8.3767236182759675 -33.198704736636152 -0.97748328282244468
v 7.860651038251012 -32.871301524533735 0.97920519846656129
v 7.8502670584398384 -32.837674518357794 -0.97786779892011255
v 6.6395806189542359 -32.09735011939943 -0.97812614742248694
v 5.2760798436195824 -31.337257912946441 -0.97793633932820501
v 3.8371552996208238 -30.511504056481741 0.97780704264240226
v 3.1173251 -30.189708700000001 0.97698249999999998
v 5.9555559584705158 -31.551509714304537 0.97872728267096609
v 4.5538665464866543 -30.840248923054105 0.97837340417635965
v 4.5640597419298192 -30.953836314337963 -0.97755939074941378
v 3.8432157058897625 -30.569911943886652 -0.97675820353587994
v 3.1189126721295386 -30.188837401369124 -0.32484989153079358
v 9.5975213724149597 -34.349739038954667 0.17464451422925492
v 6.6241954224373991 -31.951775292834181 0.97886259563876066
v 7.2692643244125303 -32.470584627951844 -0.97805208755293771
v 5.9713724532788346 -31.719001984351124 -0.97807630623148545
v 5.2624894671964535 -31.183914106587018 0.97860767464473053
v 7.2605810736199254 -32.391055709590276 0.97901928913612513
v 3.1188056 -30.185964599999998 -0.97573109999999996
v 3.1184441360301203 -30.190093836748503 0.32605526872361623
v 9.6667267409262791 -34.275121004512471 -0.60034149873268583
v 9.280500156151529 -33.907600889583044 -0.97785666877036226
v 9.5464941122095226 -34.417529406738161 0.57307472785720226
v 4.7835673604462965 33.53506833409871 -0.47655612287742677
v 3.0688098824306103 33.556764159591467 -0.97654825092976771
v 2.2273233000000001 33.6243172 0.9542602
v 4.8099493999999998 33.375518800000002 -0.98721760000000003
v 3.9396162054873169 33.465682080018482 -0.98446743954069782
v 4.0970330612514889 33.866045434025835 0.98973252699347891
v 3.4745029923048758 33.776406318642685 0.97997406451293401
v 2.1977248 33.648837999999998 -0.95538120000000004
v 2.8511034097211509 33.696774799553936 0.97254007385125285
v 2.1344136532199025 33.625144020828003 -0.18009606375759946
v 2.1613800614210854 33.634457518841032 -0.56687569938127447
v 4.7188723000000001 33.962812450000001 1.0038782500000001
v 4.7636987295128561 33.687878863116822 0.026557386488155931
v 2.1849073886495285 33.621484558865973 0.5802085293841408
v 4.7463322934568923 33.829949856521708 0.51902442094619072
v 2.147479958090166 33.620622098344967 0.20302516185330441
v -0.17559083561519381 -12.982582893499375 -0.97819967397206065
v 0.57795377896321387 21.436790298818366 0.97914904203722009
v 0.63113688579397509 22.050074610779937 0.97914551359376389
v 0.67221474996944774 22.685635020372231 0.97913938958248636
v 0.70381185217892073 23.34067575486916 0.97913460123144258
v 0.87828569343645779 26.917467581579373 0.97911256021780491
v 0.9317284598784632 27.67868663489169 0.97905665284019405
v 1.0205941783087646 29.761224897840222 0.97850066377527289
v 0.8779981 31.344844800000001 0.95993019999999996
v 1.0656892410402887 29.84423754042021 -0.97714846412063405
v 0.87493240000000005 31.3493195 -0.95828469999999999
v -0.24868080456805855 -3.6097886179155876 0.97915292027517431
v -0.19465705967873154 -1.5481180902668292 0.97916131652463212
v -0.26761719407427426 2.7887263760989134 0.97914519586781523
v -0.28527562006279605 5.1438303851931364 0.97916211809586695
v -0.28970428502937423 5.9765928936753552 0.97916906080181554
v -0.22909052224747145 10.229001174475837 0.97915241259259789
v -0.14208611300784363 12.703900008519017 0.97915366579980745
v 0.19066284664577482 18.118801960371655 0.97916135128141624
v -0.4467465000502544 -1.3925362039499201 -0.97815354457017323
v -0.44612103231029321 -0.63987888150044359 -0.97815692449259606
v -0.4820836918920326 1.4994025409378637 -0.97816300498924869
v -0.50041326136851727 2.1957461758848331 -0.97816594645831101
v -0.53680888961451889 3.6204708561993826 -0.97815916904548317
v -0.55195726628972697 4.3641615609515823 -0.9781533837642189
v -0.5413467174591009 9.1775644577866071 -0.97815402944906071
v -0.49782213528775332 11.587846716151523 -0.97816902563189345
v -0.42263841304567296 13.877964371159361 -0.9781612045143373
v -0.39189332393028159 14.630537946238086 -0.9781559797977325
v 0.13155602176005665 21.517425992864958 -0.97815756598760484
v 0.22452805454274649 22.242086833556431 -0.97815240706773943
v -0.86822072762676772 -11.265399911530782 0.97924046634073236
v -0.82126061834967001 -10.474788004883166 0.97931123961350841
v -0.67340501396446084 -8.1581732132058882 0.97919589624085446
v -0.45258411694026779 -5.8433894211060622 0.97915856258143674
v -0.23555821141755753 0.56799890471017123 0.97915082570522927
v -0.25988382670356325 2.0414110082754893 0.97914515904499944
v -0.61454274375143014 -20.156278516714927 -0.97815059433716933
v -0.46130415868527852 -19.40063221459738 -0.97817932858614021
v -0.13472673559217907 -13.798785862727925 -0.97831635286440366
v -0.48395498552937655 -7.0419885109434812 -0.97814434514826365
v -0.5044533938968232 -6.2188117667365042 -0.9781508095308401
v -0.50407055459103067 -4.5893062976910812 -0.97816346496767104
v -0.56822699244688279 5.9197139407868065 -0.97814668877349131
v -0.51527938459445122 10.798117157603318 -0.97816472479947658
v -1.2926192006247703 -18.627113996071728 0.97933299611994207
v -1.3054578999999999 -22.9714527 -0.97728099999999996
v -0.95431529709333218 -21.597467876214992 -0.97782991153183407
v -2.0448205301335269 -22.03931483227116 0.98080993437046082
v -2.2211780999999999 -22.662311599999999 0.98113969999999995
v -1.1408214264356453 -16.964838686012136 0.97929586422165693
v -1.2044187577072303 -17.813098590007446 0.97934286622928979
v -0.22242601754257285 -17.830412380148783 -0.97822809572273284
v -0.14729036508722015 -17.027586228808953 -0.97830411707134923
v -1.0965649194497493 -16.107066711503236 0.97917441753642831
v -0.10442718804713644 -16.221036906850792 -0.97833412350199733
v -1.0345536344021231 -14.445080501562712 0.97916613561736721
v -0.60846633588770738 -7.388084704746511 0.97917933125370382
v -0.53340166247368437 -6.6152106387309813 0.97916880864458977
v -1.0019943206466431 -13.653680745487748 0.97927838910430309
v -0.45096852950493116 -7.8788152393383175 -0.97814119436210034
v -0.51071067928248093 -5.4032585798563488 -0.97815833945635999
v -0.20432199602545531 -0.85991410938131019 0.97915740827764597
v -0.22115357763900934 -12.154610079547821 -0.97809039924083785
v -0.21952426343278886 -0.15441136930187144 0.97915513458149739
v -0.45299795138430765 0.089608382054427033 -0.97815983936926976
v 0.91128907701002282 27.242203907643621 -0.97801051799940164
v -0.24937020357998901 1.3015336240238002 0.97914905068005043
v -0.4656638787048919 0.80036889039828085 -0.97816127294726662
v 0.78898327493856113 25.422573376628208 0.9791518741480818
v 0.60035986353189053 24.853386521755613 -0.97810253879565057
v 0.47655953584409383 24.000484322381325 -0.97812430676057649
v -0.27383920800312089 3.5503146490692261 0.97915239088843242
v -0.51912084159996508 2.8996369769304979 -0.97816320632534004
v 0.34922398410079791 23.128692570858611 -0.97814478135800031
v -0.2796510205407331 4.3341221050286425 0.97915594263691275
v 0.048250464726828826 20.776586130819418 -0.97815833286419296
v 0.4842190525704505 20.557257008917681 0.97915739907899757
v -0.02644688367566337 20.018204126759571 -0.97815830266203951
v -0.56289821720291799 5.1316563749844013 -0.97815031345638803
v 0.38354202331281323 19.710328907832881 0.97916215828836051
v -0.094763122617677858 19.245699173312055 -0.97815481677440697
v -0.15840705760794749 18.465980915090448 -0.97815324144699223
v -0.56748112101351444 6.723212123956575 -0.97814595155688311
v -0.96307791268600473 -12.877605844207078 0.97922642266937676
v -0.21754180043815682 17.686436108847712 -0.97815580112986
v -0.0047131413234489244 15.855979831587856 0.97916730454159606
v -0.55225997128887372 8.3568780460139287 -0.97815109149047341
v -0.04616515824657956 15.089057862944829 0.97916796989010524
v -0.25445020894405512 9.3861148669016856 0.97915757331058906
v -0.52931525479852193 9.9933097121247982 -0.97815688710140858
v 0.28319060000666574 18.898723941264475 0.97916281194897037
v 0.90375579422575691 31.42497173389264 -0.18027141472334235
v 0.11124856001327721 17.360533539986356 0.97916441313740243
v -0.31770514306409753 16.145362740679939 -0.97815433857825584
v -0.17133776436421633 11.887668915802285 0.97915029772938311
v -0.47619822272560891 12.361940459494129 -0.97816832210533833
v -0.35753210726659118 15.385398889965348 -0.97815400116491502
v -0.45082577978499055 13.123548406390274 -0.97816392040468503
v -0.11247382803088954 13.511017714233658 0.97915816118504695
v -0.19592936013506235 -2.2269640634261227 0.97916115006442794
v -0.45542955465413149 -2.16917656579324 -0.97815415124513794
v -0.21295293588730041 -2.9099312403879232 0.97915984528611344
v -0.47071570413071895 -2.9660024005096899 -0.97815758482303594
v -0.3031963758916979 -4.3333475276150342 0.97914790527880347
v -0.48879084992001498 -3.7754149457442745 -0.97816176167698932
v -1.9162735075383186 -22.766459017128724 0.32830327563086537
v -1.6109426022169515 -22.869236586019273 -0.32450417466438342
v 0.98683725161440483 27.962259047204768 -0.97796041505227205
v 0.98070666329648093 28.421973805828099 0.97893684097321854
v -0.40932168508772182 -8.7307370735989611 -0.97814993825872887
v -0.36321760999912267 -9.5929347391251945 -0.97817467123067747
v 1.070149378399879 29.264866627720856 -0.97752983103507352
v -0.31572154287430709 -10.456427874339855 -0.97819918997493716
v -1.063898888997439 -15.262832971751191 0.97907839793923279
v -0.32850409125019203 -18.623600886552637 -0.97817170575583989
v -0.26822088332807792 -11.31219892072906 -0.97814510151470446
v 1.026956904467879 30.377789202180729 -0.97527722605197131
v -0.091828095235803556 -15.414349864627695 -0.97826331399105304
v -1.4070118639456137 -19.39058546639329 0.97928226383681405
v -1.1297775195480653 -22.289256771065343 -0.97766170375672035
v -1.7020194754163249 -20.769889532131074 0.97929418061891482
v -1.8705043386480276 -21.411362752502349 0.97967319423283761
v -0.72799008105500962 -8.9261377654292353 0.97923451185397459
v 0.90492181031112251 31.420841941492242 0.20456647458573002
v 0.046649168533545018 16.610438184843389 0.9791659976080338
v -0.91655206038786896 -12.068060714746936 0.97915772079410068
v -0.37324145188632529 -5.0799575534509538 0.97914986396603321
v -0.29083481701880709 6.8248793101320704 0.97916931131376561
v -0.1043327214391232 -14.607846163573367 -0.97826874065168767
v -0.081166469565373073 14.306979151344963 0.97916478186745159
v -1.5452812755551961 -20.101425806136731 0.9792460512371699
v -0.2710359680649379 16.912228744021903 -0.97815734966330448
v 0.82927819000510272 26.160821230968239 0.97914344405854803
v -0.27407467274907205 8.535510456502168 0.97916406246077448
v 0.71580814407764071 25.68214144542225 -0.97807213469650955
v -0.28619638948463794 7.6801655491428722 0.97916591363922756
v 1.0137318859029081 29.122250064860616 0.97869047171135215
v -0.20064636948468292 11.062841306561864 0.97915111700840307
v 0.75714863234759333 24.707374997125655 0.97915173176803294
v 0.99657247518333625 30.334821541770232 0.97665260572051193
v 0.82006324417389354 26.480493608908539 -0.9780427394982063
v 1.0419452629773898 28.637236587345633 -0.97784424908667089
v -0.77565354571569634 -9.6964005526808421 0.97929128246713826
v -0.56154314065143374 7.5371197050117882 -0.97815334545874111
v 0.73039321881069785 24.014216081336379 0.97914325770530997
v -0.78105932201727857 -20.88813471621064 -0.97798628747341798
v 0.89355075897012248 31.394535621058257 0.58441324150506735
v 0.89338395546239413 31.393181988193508 -0.56832624757857975
v 0.9592274703814011 30.874152993594514 -0.97019758064110717
v 0.94513520140651974 30.854802786205084 0.97407715611847512
v 4.9939007999999996 -12.675653499999999 0.99999110000000002
v 4.9953922999999998 -12.6721697 -0.99722279999999996
v 0.48324539999999999 -38.269592299999999 1.0217244999999999
v 0.48477350000000002 -38.2670326 -1.0207024
v -4.9239696999999998 -13.006926500000001 0.96300019999999997
v -4.9247211999999996 -13.006485 -0.96130139999999997
v -9.3440971000000008 -34.665065800000001 0.99194400000000005
v -9.3430289999999996 -34.6721115 -0.98917790000000005
v 4.6624422000000001 -24.8720493 0.97788330000000001
v 4.6625031999999997 -24.871663999999999 -0.97659280000000004
v 1.7941639 31.787980999999998 -1.0157792999999999
v -5.1716360999999997 -22.018341100000001 0.94077770000000005
v -5.171875 -22.017057399999999 -0.94077529999999998
v 5.4296295499999996 -12.87241985 -0.98932350000000002
v 0.47854560000000002 -38.270927400000005 -0.51019840000000005
v -4.9158856499999999 -13.014863950000001 0.48176884999999997
v -9.3422917999999999 -34.676095950000004 -0.49341160000000001
v 4.6218092500000001 -25.2896061 0.98303180000000001
v 4.6654939500000001 -24.874648049999998 -0.48818590000000001
v 4.1617589000000006 -24.736556999999998 0.97389314999999999
v -4.6761293500000001 -22.0226574 0.97433275000000008
v -4.8491482499999998 -21.9747944 -0.97778959999999993
v -5.2614884499999999 -22.41459085 0.94535539999999996
v -9.5758385500000003 -34.411495200000005 -0.98489335
v -5.1805675000000004 -22.0041647 0.46931510000000004
v -5.1806869500000001 -22.00352285 -0.47146139999999997
v 5.2778253499999996 -12.81123545 0.99442920000000001
v -5.2620532500000001 -22.414673799999999 -0.94543679999999997
v 4.2942719 -24.773901899999998 -0.97372990000000004
v -5.2748796499999999 -13.114984 0.96527324999999997
v 5.0007202500000005 -12.667632600000001 -0.4977567
v 2.0325972624999999 32.262101268750001 -0.98726431250000002
v 4.9672687 -12.233911549999998 0.99191819999999997
v -4.8834561999999995 -12.508944 0.97571949999999996
v 1.3669432312500001 31.515439156249997 -0.9909167499999999
v 0.77889439999999999 -38.23936655 1.0161402499999999
v 4.6654634499999998 -24.8748407 0.48905215000000002
v 4.6218683499999997 -25.2895851 -0.98199429999999999
v 0.47778155 -38.272207250000001 0.51101504999999992
v 4.9684347999999998 -12.23141815 -0.98958550000000001
v -4.8834797999999999 -12.509758 -0.97491039999999995
v -4.9162613999999998 -13.0146432 -0.48038195
v -9.5586528500000014 -34.415882150000002 0.98647280000000004
v -9.3428258500000005 -34.672573100000001 0.49714935000000005
v 0.8515026 -38.226732249999998 -1.0136912
v -5.4508225499999998 -13.168742200000001 -0.96469895000000006
v 0.55668752500000007 -38.00880145 -1.0102966499999999
v -9.2256042749999985 -34.463612550000001 -0.98663355000000008
v 4.9969376499999996 -12.672514 0.75042067499999998
v 0.55541965000000004 -38.011541375 1.0115399999999999
v -9.2262110499999999 -34.458386450000006 0.98898600000000003
v 4.6624422000000001 -24.8720493 0.97788330000000001
v 4.6624422000000001 -24.8720493 0.97788330000000001
v -5.1716360999999997 -22.018341100000001 0.94077770000000005
v -5.1716360999999997 -22.018341100000001 0.94077770000000005
v 4.6625031999999997 -24.871663999999999 -0.97659280000000004
v 4.6625031999999997 -24.871663999999999 -0.97659280000000004
v -4.9239696999999998 -13.006926500000001 0.96300019999999997
v -4.9239696999999998 -13.006926500000001 0.96300019999999997
v 4.9939007999999996 -12.675653499999999 0.99999110000000002
v 4.9939007999999996 -12.675653499999999 0.99999110000000002
v -5.171875 -22.017057399999999 -0.94077529999999998
v -5.171875 -22.017057399999999 -0.94077529999999998
v 1.7941639 31.787980999999998 -1.0157792999999999
v -4.9247211999999996 -13.006485 -0.96130139999999997
v -4.9247211999999996 -13.006485 -0.96130139999999997
v -9.3430289999999996 -34.6721115 -0.98917790000000005
v -9.3430289999999996 -34.6721115 -0.98917790000000005
v -9.3440971000000008 -34.665065800000001 0.99194400000000005
v -9.3440971000000008 -34.665065800000001 0.99194400000000005
v 4.9953922999999998 -12.6721697 -0.99722279999999996
v 4.9953922999999998 -12.6721697 -0.99722279999999996
v 0.48477350000000002 -38.2670326 -1.0207024
v 0.48477350000000002 -38.2670326 -1.0207024
v 0.48324539999999999 -38.269592299999999 1.0217244999999999
v 0.48324539999999999 -38.269592299999999 1.0217244999999999
l 50/50 21/21
l 21/21 53/53
l 53/53 42/42
l 42/42 57/57
l 57/57 20/20
l 20/20 18/18
l 18/18 17/17
l 17/17 16/16
l 16/16 1/1
l 1/1 2/2
l 2/2 15/15
l 15/15 14/14
l 14/14 13/13
l 13/13 34/34
l 34/34 30/30
l 30/30 27/27
l 27/27 44/44
l 44/44 26/26
l 26/26 38/38
l 38/38 12/12
l 12/12 28/28
l 28/28 40/40
l 40/40 29/29
l 29/29 31/31
l 31/31 48/48
l 48/48 35/35
l 35/35 54/54
l 54/54 32/32
l 32/32 11/11
l 11/11 52/52
l 52/52 37/37
l 37/37 55/55
l 55/55 24/24
l 24/24 10/10
l 10/10 9/9
l 9/9 8/8
l 8/8 7/7
l 7/7 46/46
l 46/46 6/6
l 6/6 47/47
l 47/47 3/3
l 3/3 45/45
l 45/45 4/4
l 4/4 51/51
l 51/51 5/5
l 5/5 41/41
l 41/41 19/19
l 19/19 39/39
l 39/39 56/56
l 56/56 25/25
l 25/25 49/49
l 49/49 22/22
l 22/22 23/23
l 23/23 36/36
l 36/36 33/33
l 33/33 59/59
l 59/59 43/43
l 43/43 58/58
l 62/62 60/60
l 60/60 61/61
l 61/61 63/63
l 65/65 64/64
l 64/64 66/66
l 186/186 78/78
l 78/78 79/79
l 79/79 127/127
l 127/127 128/128
l 128/128 129/129
l 129/129 130/130
l 130/130 195/195
l 195/195 131/131
l 131/131 198/198
l 198/198 132/132
l 132/132 133/133
l 133/133 134/134
l 134/134 135/135
l 135/135 136/136
l 136/136 137/137
l 137/137 138/138
l 138/138 139/139
l 139/139 140/140
l 140/140 141/141
l 141/141 142/142
l 142/142 143/143
l 143/143 144/144
l 144/144 145/145
l 145/145 146/146
l 146/146 147/147
l 147/147 148/148
l 148/148 149/149
l 149/149 150/150
l 150/150 151/151
l 151/151 152/152
l 152/152 153/153
l 153/153 154/154
l 154/154 155/155
l 155/155 156/156
l 156/156 157/157
l 157/157 158/158
l 158/158 159/159
l 159/159 160/160
l 160/160 196/196
l 196/196 161/161
l 161/161 200/200
l 200/200 162/162
l 162/162 163/163
l 163/163 164/164
l 164/164 165/165
l 165/165 166/166
l 166/166 167/167
l 167/167 168/168
l 168/168 169/169
l 169/169 170/170
l 170/170 171/171
l 171/171 197/197
l 197/197 80/80
l 80/80 81/81
l 81/81 82/82
l 82/82 187/187
l 187/187 83/83
l 83/83 183/183
l 183/183 77/77
l 77/77 182/182
l 182/182 76/76
l 76/76 75/75
l 75/75 74/74
l 74/74 175/175
l 175/175 174/174
l 174/174 178/178
l 178/178 73/73
l 73/73 72/72
l 72/72 71/71
l 71/71 181/181
l 181/181 70/70
l 70/70 180/180
l 180/180 69/69
l 69/69 68/68
l 68/68 179/179
l 179/179 67/67
l 67/67 184/184
l 184/184 172/172
l 172/172 126/126
l 126/126 177/177
l 177/177 194/194
l 194/194 125/125
l 125/125 124/124
l 124/124 123/123
l 123/123 122/122
l 122/122 121/121
l 121/121 120/120
l 120/120 119/119
l 119/119 118/118
l 118/118 117/117
l 117/117 116/116
l 116/116 115/115
l 115/115 193/193
l 193/193 114/114
l 114/114 192/192
l 192/192 113/113
l 113/113 112/112
l 112/112 111/111
l 111/111 110/110
l 110/110 109/109
l 109/109 108/108
l 108/108 107/107
l 107/107 106/106
l 106/106 199/199
l 199/199 105/105
l 105/105 191/191
l 191/191 104/104
l 104/104 103/103
l 103/103 102/102
l 102/102 101/101
l 101/101 173/173
l 173/173 100/100
l 100/100 99/99
l 99/99 190/190
l 190/190 98/98
l 98/98 202/202
l 202/202 97/97
l 97/97 96/96
l 96/96 95/95
l 95/95 189/189
l 189/189 94/94
l 94/94 93/93
l 93/93 188/188
l 188/188 92/92
l 92/92 201/201
l 201/201 91/91
l 91/91 90/90
l 90/90 89/89
l 89/89 88/88
l 88/88 87/87
l 87/87 86/86
l 86/86 85/85
l 85/85 176/176
l 176/176 84/84
l 84/84 185/185
l 329/329 216/216
l 216/216 325/325
l 325/325 217/217
l 217/217 321/321
l 321/321 266/266
l 266/266 267/267
l 267/267 268/268
l 268/268 313/313
l 313/313 336/336
l 336/336 314/314
l 314/314 334/334
l 334/334 308/308
l 308/308 269/269
l 269/269 270/270
l 270/270 271/271
l 271/271 272/272
l 272/272 273/273
l 273/273 274/274
l 274/274 275/275
l 275/275 276/276
l 276/276 277/277
l 277/277 278/278
l 278/278 279/279
l 279/279 280/280
l 280/280 281/281
l 281/281 282/282
l 282/282 283/283
l 283/283 284/284
l 284/284 285/285
l 285/285 286/286
l 286/286 287/287
l 287/287 288/288
l 288/288 289/289
l 289/289 290/290
l 290/290 291/291
l 291/291 292/292
l 292/292 293/293
l 293/293 294/294
l 294/294 295/295
l 295/295 296/296
l 296/296 335/335
l 335/335 297/297
l 297/297 339/339
l 339/339 298/298
l 298/298 299/299
l 299/299 300/300
l 300/300 301/301
l 301/301 302/302
l 302/302 303/303
l 303/303 304/304
l 304/304 305/305
l 305/305 306/306
l 306/306 307/307
l 307/307 218/218
l 218/218 219/219
l 219/219 220/220
l 220/220 318/318
l 318/318 221/221
l 221/221 324/324
l 324/324 215/215
l 215/215 214/214
l 214/214 213/213
l 213/213 212/212
l 212/212 211/211
l 211/211 310/310
l 310/310 330/330
l 330/330 210/210
l 210/210 328/328
l 328/328 209/209
l 209/209 208/208
l 208/208 317/317
l 317/317 207/207
l 207/207 316/316
l 316/316 206/206
l 206/206 315/315
l 315/315 205/205
l 205/205 204/204
l 204/204 203/203
l 203/203 265/265
l 265/265 320/320
l 320/320 311/311
l 311/311 322/322
l 322/322 264/264
l 264/264 323/323
l 323/323 263/263
l 263/263 262/262
l 262/262 261/261
l 261/261 260/260
l 260/260 259/259
l 259/259 258/258
l 258/258 257/257
l 257/257 256/256
l 256/256 255/255
l 255/255 254/254
l 254/254 253/253
l 253/253 333/333
l 333/333 252/252
l 252/252 332/332
l 332/332 251/251
l 251/251 250/250
l 250/250 249/249
l 249/249 248/248
l 248/248 247/247
l 247/247 246/246
l 246/246 245/245
l 245/245 244/244
l 244/244 331/331
l 331/331 243/243
l 243/243 340/340
l 340/340 242/242
l 242/242 241/241
l 241/241 240/240
l 240/240 239/239
l 239/239 238/238
l 238/238 237/237
l 237/237 236/236
l 236/236 341/341
l 341/341 235/235
l 235/235 338/338
l 338/338 234/234
l 234/234 233/233
l 233/233 232/232
l 232/232 231/231
l 231/231 230/230
l 230/230 342/342
l 342/342 229/229
l 229/229 337/337
l 337/337 228/228
l 228/228 227/227
l 227/227 226/226
l 226/226 225/225
l 225/225 224/224
l 224/224 223/223
l 223/223 222/222
l 222/222 319/319
l 319/319 312/312
l 312/312 326/326
l 326/326 309/309
l 309/309 327/327
l 372/372 343/343
l 343/343 366/366
l 366/366 369/369
l 369/369 345/345
l 345/345 346/346
l 346/346 365/365
l 365/365 364/364
l 364/364 363/363
l 363/363 362/362
l 362/362 361/361
l 361/361 360/360
l 360/360 359/359
l 359/359 373/373
l 373/373 358/358
l 358/358 374/374
l 374/374 357/357
l 357/357 356/356
l 356/356 355/355
l 355/355 354/354
l 354/354 353/353
l 353/353 368/368
l 368/368 352/352
l 352/352 351/351
l 351/351 350/350
l 350/350 349/349
l 349/349 348/348
l 348/348 347/347
l 347/347 367/367
l 367/367 371/371
l 371/371 344/344
l 344/344 370/370
l 376/376 375/375
l 375/375 377/377
l 396/396 388/388
l 388/388 387/387
l 387/387 386/386
l 386/386 385/385
l 385/385 384/384
l 384/384 383/383
l 383/383 382/382
l 382/382 392/392
l 392/392 381/381
l 381/381 397/397
l 397/397 393/393
l 393/393 398/398
l 398/398 390/390
l 390/390 395/395
l 395/395 380/380
l 380/380 389/389
l 389/389 401/401
l 401/401 379/379
l 379/379 400/400
l 400/400 391/391
l 391/391 394/394
l 394/394 378/378
l 378/378 399/399
l 399/399 402/402
l 404/404 403/403
l 403/403 405/405
l 422/422 413/413
l 413/413 412/412
l 412/412 411/411
l 411/411 410/410
l 410/410 409/409
l 409/409 419/419
l 419/419 418/418
l 418/418 408/408
l 408/408 420/420
l 420/420 415/415
l 415/415 424/424
l 424/424 417/417
l 417/417 416/416
l 416/416 414/414
l 414/414 407/407
l 407/407 406/406
l 406/406 421/421
l 421/421 423/423
l 449/449 430/430
l 430/430 432/432
l 432/432 434/434
l 434/434 444/444
l 444/444 439/439
l 439/439 446/446
l 446/446 437/437
l 437/437 447/447
l 447/447 426/426
l 426/426 427/427
l 427/427 450/450
l 450/450 436/436
l 436/436 445/445
l 445/445 435/435
l 435/435 443/443
l 443/443 433/433
l 433/433 442/442
l 442/442 431/431
l 431/431 441/441
l 441/441 429/429
l 429/429 451/451
l 451/451 425/425
l 425/425 440/440
l 440/440 438/438
l 438/438 428/428
l 428/428 452/452
l 452/452 448/448
l 467/467 458/458
l 458/458 466/466
l 466/466 462/462
l 462/462 469/469
l 469/469 457/457
l 457/457 456/456
l 456/456 461/461
l 461/461 455/455
l 455/455 460/460
l 460/460 468/468
l 468/468 459/459
l 459/459 465/465
l 465/465 454/454
l 454/454 453/453
l 453/453 470/470
l 470/470 463/463
l 463/463 464/464
l 472/472 471/471
l 471/471 473/473
l 487/487 478/478
l 478/478 477/477
l 477/477 476/476
l 476/476 475/475
l 475/475 474/474
l 474/474 484/484
l 484/484 483/483
l 483/483 490/490
l 490/490 482/482
l 482/482 492/492
l 492/492 479/479
l 479/479 491/491
l 491/491 481/481
l 481/481 488/488
l 488/488 485/485
l 485/485 486/486
l 486/486 480/480
l 480/480 489/489
l 494/494 493/493
l 493/493 495/495
l 514/514 505/505
l 505/505 512/512
l 512/512 504/504
l 504/504 515/515
l 515/515 507/507
l 507/507 513/513
l 513/513 509/509
l 509/509 516/516
l 516/516 508/508
l 508/508 503/503
l 503/503 502/502
l 502/502 501/501
l 501/501 500/500
l 500/500 499/499
l 499/499 498/498
l 498/498 497/497
l 497/497 496/496
l 496/496 510/510
l 510/510 517/517
l 517/517 506/506
l 506/506 511/511
l 511/511 518/518
l 535/535 530/530
l 530/530 528/528
l 528/528 529/529
l 529/529 527/527
l 527/527 526/526
l 526/526 525/525
l 525/525 524/524
l 524/524 523/523
l 523/523 522/522
l 522/522 531/531
l 531/531 521/521
l 521/521 538/538
l 538/538 533/533
l 533/533 534/534
l 534/534 520/520
l 520/520 537/537
l 537/537 519/519
l 519/519 536/536
l 536/536 532/532
l 532/532 539/539
l 539/539 540/540
l 594/594 568/568
l 568/568 589/589
l 589/589 563/563
l 563/563 561/561
l 561/561 587/587
l 587/587 559/559
l 559/559 591/591
l 591/591 557/557
l 557/557 556/556
l 556/556 542/542
l 542/542 541/541
l 541/541 555/555
l 555/555 554/554
l 554/554 553/553
l 553/553 569/569
l 569/569 576/576
l 576/576 582/582
l 582/582 574/574
l 574/574 572/572
l 572/572 552/552
l 552/552 573/573
l 573/573 551/551
l 551/551 598/598
l 598/598 550/550
l 550/550 586/586
l 586/586 575/575
l 575/575 579/579
l 579/579 580/580
l 580/580 567/567
l 567/567 581/581
l 581/581 583/583
l 583/583 584/584
l 584/584 549/549
l 549/549 548/548
l 548/548 547/547
l 547/547 546/546
l 546/546 543/543
l 543/543 585/585
l 585/585 544/544
l 544/544 545/545
l 545/545 558/558
l 558/558 560/560
l 560/560 595/595
l 595/595 570/570
l 570/570 588/588
l 588/588 562/562
l 562/562 590/590
l 590/590 571/571
l 571/571 596/596
l 596/596 564/564
l 564/564 593/593
l 593/593 566/566
l 566/566 565/565
l 565/565 577/577
l 577/577 592/592
l 592/592 578/578
l 578/578 597/597
l 629/629 623/623
l 623/623 627/627
l 627/627 599/599
l 599/599 628/628
l 628/628 622/622
l 622/622 624/624
l 624/624 600/600
l 600/600 602/602
l 602/602 621/621
l 621/621 620/620
l 620/620 619/619
l 619/619 618/618
l 618/618 617/617
l 617/617 616/616
l 616/616 615/615
l 615/615 634/634
l 634/634 614/614
l 614/614 632/632
l 632/632 613/613
l 613/613 612/612
l 612/612 611/611
l 611/611 610/610
l 610/610 609/609
l 609/609 608/608
l 608/608 625/625
l 625/625 607/607
l 607/607 606/606
l 606/606 605/605
l 605/605 604/604
l 604/604 603/603
l 603/603 633/633
l 633/633 601/601
l 601/601 630/630
l 630/630 626/626
l 626/626 631/631
l 635/635 640/640
l 640/640 652/652
l 652/652 639/639
l 639/639 653/653
l 653/653 642/642
l 642/642 644/644
l 644/644 646/646
l 646/646 655/655
l 655/655 648/648
l 648/648 657/657
l 657/657 650/650
l 650/650 658/658
l 658/658 637/637
l 637/637 638/638
l 638/638 659/659
l 659/659 649/649
l 649/649 661/661
l 661/661 656/656
l 656/656 647/647
l 647/647 654/654
l 654/654 645/645
l 645/645 660/660
l 660/660 643/643
l 643/643 641/641
l 641/641 636/636
l 636/636 651/651
l 651/651 635/635
l 663/663 669/669
l 669/669 668/668
l 668/668 662/662
l 662/662 671/671
l 671/671 665/665
l 665/665 674/674
l 674/674 664/664
l 664/664 670/670
l 670/670 675/675
l 675/675 673/673
l 673/673 666/666
l 666/666 672/672
l 672/672 667/667
l 682/682 689/689
l 689/689 684/684
l 684/684 683/683
l 683/683 681/681
l 681/681 688/688
l 688/688 680/680
l 680/680 679/679
l 679/679 687/687
l 687/687 686/686
l 686/686 685/685
l 685/685 678/678
l 678/678 677/677
l 677/677 676/676
l 703/703 691/691
l 691/691 699/699
l 699/699 694/694
l 694/694 690/690
l 690/690 693/693
l 693/693 697/697
l 697/697 692/692
l 692/692 695/695
l 695/695 698/698
l 698/698 696/696
l 696/696 702/702
l 702/702 700/700
l 700/700 701/701
l 709/709 707/707
l 707/707 708/708
l 708/708 717/717
l 717/717 714/714
l 714/714 713/713
l 713/713 712/712
l 712/712 705/705
l 705/705 715/715
l 715/715 706/706
l 706/706 716/716
l 716/716 710/710
l 710/710 711/711
l 711/711 704/704
l 718/718 719/719
l 719/719 727/727
l 727/727 720/720
l 720/720 734/734
l 734/734 730/730
l 730/730 728/728
l 728/728 726/726
l 726/726 721/721
l 721/721 732/732
l 732/732 733/733
l 733/733 731/731
l 731/731 723/723
l 723/723 729/729
l 729/729 722/722
l 722/722 724/724
l 724/724 735/735
l 735/735 725/725
l 738/738 743/743
l 743/743 737/737
l 737/737 740/740
l 740/740 748/748
l 748/748 747/747
l 747/747 744/744
l 744/744 742/742
l 742/742 739/739
l 739/739 736/736
l 736/736 741/741
l 741/741 746/746
l 746/746 745/745
l 762/762 771/771
l 771/771 783/783
l 783/783 780/780
l 780/780 779/779
l 779/779 781/781
l 781/781 778/778
l 778/778 782/782
l 782/782 772/772
l 772/772 770/770
l 770/770 760/760
l 760/760 759/759
l 759/759 758/758
l 758/758 756/756
l 756/756 765/765
l 765/765 755/755
l 755/755 766/766
l 766/766 767/767
l 767/767 754/754
l 754/754 749/749
l 749/749 773/773
l 773/773 750/750
l 750/750 751/751
l 751/751 768/768
l 768/768 753/753
l 753/753 752/752
l 752/752 776/776
l 776/776 775/775
l 775/775 764/764
l 764/764 763/763
l 763/763 757/757
l 757/757 777/777
l 777/777 774/774
l 774/774 769/769
l 769/769 761/761
l 761/761 762/762
l 797/797 787/787
l 787/787 795/795
l 795/795 785/785
l 785/785 790/790
l 790/790 784/784
l 784/784 794/794
l 794/794 789/789
l 789/789 786/786
l 786/786 792/792
l 792/792 793/793
l 793/793 800/800
l 800/800 798/798
l 798/798 788/788
l 788/788 799/799
l 799/799 791/791
l 791/791 796/796
l 796/796 797/797
l 829/829 819/819
l 819/819 802/802
l 802/802 827/827
l 827/827 804/804
l 804/804 828/828
l 828/828 805/805
l 805/805 807/807
l 807/807 809/809
l 809/809 821/821
l 821/821 810/810
l 810/810 822/822
l 822/822 811/811
l 811/811 816/816
l 816/816 817/817
l 817/817 825/825
l 825/825 818/818
l 818/818 826/826
l 826/826 813/813
l 813/813 812/812
l 812/812 815/815
l 815/815 823/823
l 823/823 814/814
l 814/814 820/820
l 820/820 824/824
l 824/824 808/808
l 808/808 806/806
l 806/806 803/803
l 803/803 801/801
l 801/801 829/829
l 832/832 843/843
l 843/843 845/845
l 845/845 839/839
l 839/839 840/840
l 840/840 837/837
l 837/837 831/831
l 831/831 834/834
l 834/834 833/833
l 833/833 830/830
l 830/830 842/842
l 842/842 844/844
l 844/844 841/841
l 841/841 835/835
l 835/835 836/836
l 836/836 838/838
l 838/838 832/832
l 978/978 940/940
l 940/940 943/943
l 943/943 874/874
l 874/874 873/873
l 873/873 944/944
l 944/944 942/942
l 942/942 872/872
l 872/872 890/890
l 890/890 936/936
l 936/936 871/871
l 871/871 933/933
l 933/933 990/990
l 990/990 929/929
l 929/929 889/889
l 889/889 925/925
l 925/925 870/870
l 870/870 869/869
l 869/869 919/919
l 919/919 868/868
l 868/868 867/867
l 867/867 914/914
l 914/914 911/911
l 911/911 866/866
l 866/866 865/865
l 865/865 947/947
l 947/947 949/949
l 949/949 951/951
l 951/951 888/888
l 888/888 907/907
l 907/907 887/887
l 887/887 886/886
l 886/886 906/906
l 906/906 956/956
l 956/956 957/957
l 957/957 959/959
l 959/959 962/962
l 962/962 909/909
l 909/909 846/846
l 846/846 885/885
l 885/885 975/975
l 975/975 964/964
l 964/964 901/901
l 901/901 899/899
l 899/899 898/898
l 898/898 961/961
l 961/961 884/884
l 884/884 883/883
l 883/883 992/992
l 992/992 893/893
l 893/893 966/966
l 966/966 892/892
l 892/892 953/953
l 953/953 952/952
l 952/952 895/895
l 895/895 894/894
l 894/894 968/968
l 968/968 967/967
l 967/967 977/977
l 977/977 965/965
l 965/965 891/891
l 891/891 897/897
l 897/897 896/896
l 896/896 900/900
l 900/900 960/960
l 960/960 902/902
l 902/902 905/905
l 905/905 930/930
l 930/930 972/972
l 972/972 877/877
l 877/877 878/878
l 878/878 989/989
l 989/989 969/969
l 969/969 879/879
l 879/879 903/903
l 903/903 904/904
l 904/904 880/880
l 880/880 973/973
l 973/973 950/950
l 950/950 857/857
l 857/857 948/948
l 948/948 946/946
l 946/946 858/858
l 858/858 908/908
l 908/908 910/910
l 910/910 881/881
l 881/881 913/913
l 913/913 882/882
l 882/882 859/859
l 859/859 918/918
l 918/918 921/921
l 921/921 860/860
l 860/860 861/861
l 861/861 974/974
l 974/974 982/982
l 982/982 980/980
l 980/980 935/935
l 935/935 862/862
l 862/862 984/984
l 984/984 941/941
l 941/941 863/863
l 863/863 945/945
l 945/945 976/976
l 976/976 934/934
l 934/934 932/932
l 932/932 971/971
l 971/971 939/939
l 939/939 864/864
l 864/864 937/937
l 937/937 926/926
l 926/926 923/923
l 923/923 847/847
l 847/847 848/848
l 848/848 849/849
l 849/849 850/850
l 850/850 991/991
l 991/991 985/985
l 985/985 915/915
l 915/915 979/979
l 979/979 851/851
l 851/851 852/852
l 852/852 955/955
l 955/955 983/983
l 983/983 853/853
l 853/853 986/986
l 986/986 996/996
l 996/996 854/854
l 854/854 993/993
l 993/993 970/970
l 970/970 938/938
l 938/938 994/994
l 994/994 856/856
l 856/856 995/995
l 995/995 963/963
l 963/963 855/855
l 855/855 958/958
l 958/958 988/988
l 988/988 954/954
l 954/954 912/912
l 912/912 987/987
l 987/987 981/981
l 981/981 916/916
l 916/916 917/917
l 917/917 920/920
l 920/920 876/876
l 876/876 875/875
l 875/875 922/922
l 922/922 924/924
l 924/924 927/927
l 927/927 928/928
l 928/928 931/931
l 931/931 978/978
l 997/997 1023/1023
l 997/997 1029/1029
l 998/998 1010/1010
l 998/998 1036/1036
l 999/999 1032/1032
l 999/999 1046/1046
l 1000/1000 1011/1011
l 1000/1000 1043/1043
l 1001/1001 1026/1026
l 1001/1001 1030/1030
l 1002/1002 1037/1037
l 1002/1002 1042/1042
l 1003/1003 1039/1039
l 1003/1003 1040/1040
l 1004/1004 1013/1013
l 1004/1004 1044/1044
l 1005/1005 1016/1016
l 1005/1005 1033/1033
l 1006/1006 1025/1025
l 1006/1006 1034/1034
l 1007/1007 1028/1028
l 1007/1007 1031/1031
l 1008/1008 1017/1017
l 1008/1008 1019/1019
l 1009/1009 1018/1018
l 1009/1009 1024/1024
l 1010/1010 1068/1068
l 1011/1011 1070/1070
l 1012/1012 1054/1054
l 1012/1012 1055/1055
l 1013/1013 1063/1063
l 1014/1014 1048/1048
l 1014/1014 1049/1049
l 1015/1015 1052/1052
l 1015/1015 1053/1053
l 1016/1016 1049/1049
l 1017/1017 1051/1051
l 1018/1018 1058/1058
l 1019/1019 1050/1050
l 1020/1020 1063/1063
l 1020/1020 1064/1064
l 1021/1021 1050/1050
l 1021/1021 1051/1051
l 1022/1022 1058/1058
l 1022/1022 1059/1059
l 1023/1023 1056/1056
l 1024/1024 1059/1059
l 1025/1025 1053/1053
l 1026/1026 1055/1055
l 1027/1027 1067/1067
l 1027/1027 1068/1068
l 1028/1028 1060/1060
l 1029/1029 1057/1057
l 1030/1030 1054/1054
l 1031/1031 1060/1060
l 1032/1032 1072/1072
l 1033/1033 1048/1048
l 1034/1034 1052/1052
l 1035/1035 1071/1071
l 1035/1035 1072/1072
l 1036/1036 1067/1067
l 1037/1037 1062/1062
l 1038/1038 1061/1061
l 1038/1038 1062/1062
l 1039/1039 1066/1066
l 1040/1040 1065/1065
l 1041/1041 1069/1069
l 1041/1041 1070/1070
l 1042/1042 1061/1061
l 1043/1043 1069/1069
l 1044/1044 1064/1064
l 1045/1045 1056/1056
l 1045/1045 1057/1057
l 1046/1046 1071/1071
l 1047/1047 1065/1065
l 1047/1047 1066/1066
